G04 Layer_Color=16711935*
%FSLAX25Y25*%
%MOIN*%
G70*
G01*
G75*
%ADD16C,0.00050*%
%ADD25C,0.00051*%
D16*
X39210Y16838D02*
G03*
X54958Y1090I15748J0D01*
G01*
X41179Y31145D02*
G03*
X43147Y34555I-1969J3410D01*
G01*
X51021Y16838D02*
G03*
X54958Y12901I3937J0D01*
G01*
X52990Y29835D02*
G03*
X51021Y26425I1969J-3410D01*
G01*
X52990Y29835D02*
G03*
X54958Y33244I-1969J3410D01*
G01*
X41179Y31145D02*
G03*
X39210Y27736I1969J-3410D01*
G01*
Y16838D02*
Y27736D01*
X43147Y34555D02*
Y59763D01*
X51021Y16838D02*
Y26425D01*
X54958Y33244D02*
Y59750D01*
Y1090D02*
X65588D01*
X54958Y12901D02*
X65588D01*
X66769Y2271D02*
Y11720D01*
X56927Y63455D02*
Y77480D01*
X41178Y79448D02*
X54958D01*
X39210Y62913D02*
Y77480D01*
X50565Y72558D02*
G03*
X50565Y72558I-1119J0D01*
G01*
X51122D02*
G03*
X51122Y72558I-1676J0D01*
G01*
X51842D02*
G03*
X51842Y72558I-2396J0D01*
G01*
X52399D02*
G03*
X52399Y72558I-2953J0D01*
G01*
X41179Y31145D02*
G03*
X39210Y27736I1969J-3410D01*
G01*
X52990Y29835D02*
G03*
X54958Y33244I-1969J3410D01*
G01*
X52990Y29835D02*
G03*
X51021Y26425I1969J-3410D01*
G01*
Y16838D02*
G03*
X54958Y12901I3937J0D01*
G01*
X41179Y31145D02*
G03*
X43147Y34555I-1969J3410D01*
G01*
X39210Y16838D02*
G03*
X54958Y1090I15748J0D01*
G01*
X66769D02*
Y12901D01*
X60864Y1090D02*
X66769D01*
X60864D02*
Y12901D01*
X66769D01*
X39210Y79448D02*
X56927D01*
X51218Y77484D02*
X52005D01*
X46887D02*
X47675D01*
X44525Y77480D02*
X54367D01*
Y76003D02*
X54371D01*
X44521D02*
X44525D01*
X44521Y75019D02*
X44525D01*
X54367D02*
X54371D01*
X54367Y74035D02*
X54371D01*
X44521D02*
X44525D01*
X44521Y73050D02*
X44525D01*
X54367D02*
X54371D01*
X54367Y72066D02*
X54371D01*
X44521D02*
X44525D01*
X44521Y71082D02*
X44525D01*
X54367D02*
X54371D01*
X54367Y70098D02*
X54371D01*
X44521D02*
X44525D01*
X44521Y69113D02*
X44525D01*
X54367D02*
X54371D01*
X44525Y67637D02*
X54367D01*
X46887Y67633D02*
X47675D01*
X51218D02*
X52005D01*
X39210Y61732D02*
X56927D01*
X66769Y1090D02*
Y12901D01*
X56927Y61732D02*
Y79448D01*
X54958Y33244D02*
Y61732D01*
X54371Y69113D02*
Y70098D01*
Y71082D02*
Y72066D01*
Y73050D02*
Y74035D01*
Y75019D02*
Y76003D01*
X54367Y67637D02*
Y77480D01*
X52005Y67633D02*
Y67637D01*
Y77480D02*
Y77484D01*
X51218Y77480D02*
Y77484D01*
Y67633D02*
Y67637D01*
X51021Y16838D02*
Y26425D01*
X47675Y67633D02*
Y67637D01*
Y77480D02*
Y77484D01*
X46887Y77480D02*
Y77484D01*
Y67633D02*
Y67637D01*
X44525D02*
Y77480D01*
X44521Y75019D02*
Y76003D01*
Y73050D02*
Y74035D01*
Y71082D02*
Y72066D01*
Y69113D02*
Y70098D01*
X43147Y34555D02*
Y61732D01*
X39210Y16838D02*
Y27736D01*
Y61732D02*
Y79448D01*
X54958Y12901D02*
X66769D01*
X54958Y1090D02*
X66769D01*
D25*
X65588D02*
G03*
X66769Y2271I0J1181D01*
G01*
Y11720D02*
G03*
X65588Y12901I-1181J0D01*
G01*
X39210Y62913D02*
G03*
X40391Y61732I1181J0D01*
G01*
X43147Y59763D02*
G03*
X41179Y61732I-1969J0D01*
G01*
X55663Y61267D02*
G03*
X56927Y63455I-1263J2188D01*
G01*
X55666Y61268D02*
G03*
X54958Y59750I1273J-1518D01*
G01*
X41178Y79448D02*
G03*
X39210Y77480I0J-1969D01*
G01*
X56927D02*
G03*
X54958Y79448I-1969J0D01*
G01*
X40391Y61732D02*
X41179D01*
M02*
