%FSLAX25Y25*%
%MOIN*%
G70*
G01*
G75*
G04 Layer_Color=2752767*
%ADD10C,0.00500*%
%ADD11C,0.00667*%
D10*
X84614Y-81921D02*
Y-77921D01*
X88614D01*
Y-81921D01*
X84614D01*
X53118D02*
Y-77921D01*
X57118D01*
Y-81921D01*
X53118D01*
X21622D02*
Y-77921D01*
X25622D01*
Y-81921D01*
X21622D01*
X2285Y-45899D02*
X285Y-41899D01*
X4285D01*
X2285Y-45899D01*
X107955D02*
X105955Y-41899D01*
X109955D01*
X107955Y-45899D01*
X45571Y-19126D02*
X46571Y-18126D01*
X47571D01*
X46571Y-17126D01*
X47571Y-16126D01*
X46571D01*
X45571Y-15126D01*
X44571Y-16126D01*
X43571D01*
X44571Y-17126D01*
X43571Y-18126D01*
X44571D01*
X45571Y-19126D01*
X64665D02*
X65665Y-18126D01*
X66665D01*
X65665Y-17126D01*
X66665Y-16126D01*
X65665D01*
X64665Y-15126D01*
X63665Y-16126D01*
X62665D01*
X63665Y-17126D01*
X62665Y-18126D01*
X63665D01*
X64665Y-19126D01*
X38945Y-7709D02*
X39945Y-5709D01*
X38945Y-3709D01*
X40945Y-4709D01*
X42945Y-3709D01*
X41945Y-5709D01*
X42945Y-7709D01*
X40945Y-6709D01*
X38945Y-7709D01*
X67291D02*
X68291Y-5709D01*
X67291Y-3709D01*
X69291Y-4709D01*
X71291Y-3709D01*
X70291Y-5709D01*
X71291Y-7709D01*
X69291Y-6709D01*
X67291Y-7709D01*
X49000Y-23874D02*
Y-24874D01*
X51000D01*
Y-23874D01*
X52000D01*
Y-21874D01*
X51000D01*
Y-20874D01*
X49000D01*
Y-21874D01*
X48000D01*
Y-23874D01*
X49000D01*
X23063Y-36437D02*
X24063D01*
X25063Y-35437D01*
X26063Y-36437D01*
X27063D01*
Y-35437D01*
X26063Y-34437D01*
X27063Y-33437D01*
Y-32437D01*
X26063D01*
X25063Y-33437D01*
X24063Y-32437D01*
X23063D01*
Y-33437D01*
X24063Y-34437D01*
X23063Y-35437D01*
Y-36437D01*
X27563D02*
X28563D01*
X29563Y-35437D01*
X30563Y-36437D01*
X31563D01*
Y-35437D01*
X30563Y-34437D01*
X31563Y-33437D01*
Y-32437D01*
X30563D01*
X29563Y-33437D01*
X28563Y-32437D01*
X27563D01*
Y-33437D01*
X28563Y-34437D01*
X27563Y-35437D01*
Y-36437D01*
X32063D02*
X33063D01*
X34063Y-35437D01*
X35063Y-36437D01*
X36063D01*
Y-35437D01*
X35063Y-34437D01*
X36063Y-33437D01*
Y-32437D01*
X35063D01*
X34063Y-33437D01*
X33063Y-32437D01*
X32063D01*
Y-33437D01*
X33063Y-34437D01*
X32063Y-35437D01*
Y-36437D01*
X71563Y-96437D02*
X72563D01*
X73563Y-95437D01*
X74563Y-96437D01*
X75563D01*
Y-95437D01*
X74563Y-94437D01*
X75563Y-93437D01*
Y-92437D01*
X74563D01*
X73563Y-93437D01*
X72563Y-92437D01*
X71563D01*
Y-93437D01*
X72563Y-94437D01*
X71563Y-95437D01*
Y-96437D01*
X76063D02*
X77063D01*
X78063Y-95437D01*
X79063Y-96437D01*
X80063D01*
Y-95437D01*
X79063Y-94437D01*
X80063Y-93437D01*
Y-92437D01*
X79063D01*
X78063Y-93437D01*
X77063Y-92437D01*
X76063D01*
Y-93437D01*
X77063Y-94437D01*
X76063Y-95437D01*
Y-96437D01*
X80563D02*
X81563D01*
X82563Y-95437D01*
X83563Y-96437D01*
X84563D01*
Y-95437D01*
X83563Y-94437D01*
X84563Y-93437D01*
Y-92437D01*
X83563D01*
X82563Y-93437D01*
X81563Y-92437D01*
X80563D01*
Y-93437D01*
X81563Y-94437D01*
X80563Y-95437D01*
Y-96437D01*
X47563D02*
X48563D01*
X49563Y-95437D01*
X50563Y-96437D01*
X51563D01*
Y-95437D01*
X50563Y-94437D01*
X51563Y-93437D01*
Y-92437D01*
X50563D01*
X49563Y-93437D01*
X48563Y-92437D01*
X47563D01*
Y-93437D01*
X48563Y-94437D01*
X47563Y-95437D01*
Y-96437D01*
X52063D02*
X53063D01*
X54063Y-95437D01*
X55063Y-96437D01*
X56063D01*
Y-95437D01*
X55063Y-94437D01*
X56063Y-93437D01*
Y-92437D01*
X55063D01*
X54063Y-93437D01*
X53063Y-92437D01*
X52063D01*
Y-93437D01*
X53063Y-94437D01*
X52063Y-95437D01*
Y-96437D01*
X56563D02*
X57563D01*
X58563Y-95437D01*
X59563Y-96437D01*
X60563D01*
Y-95437D01*
X59563Y-94437D01*
X60563Y-93437D01*
Y-92437D01*
X59563D01*
X58563Y-93437D01*
X57563Y-92437D01*
X56563D01*
Y-93437D01*
X57563Y-94437D01*
X56563Y-95437D01*
Y-96437D01*
X24563D02*
X25563D01*
X26563Y-95437D01*
X27563Y-96437D01*
X28563D01*
Y-95437D01*
X27563Y-94437D01*
X28563Y-93437D01*
Y-92437D01*
X27563D01*
X26563Y-93437D01*
X25563Y-92437D01*
X24563D01*
Y-93437D01*
X25563Y-94437D01*
X24563Y-95437D01*
Y-96437D01*
X29063D02*
X30063D01*
X31063Y-95437D01*
X32063Y-96437D01*
X33063D01*
Y-95437D01*
X32063Y-94437D01*
X33063Y-93437D01*
Y-92437D01*
X32063D01*
X31063Y-93437D01*
X30063Y-92437D01*
X29063D01*
Y-93437D01*
X30063Y-94437D01*
X29063Y-95437D01*
Y-96437D01*
X33563D02*
X34563D01*
X35563Y-95437D01*
X36563Y-96437D01*
X37563D01*
Y-95437D01*
X36563Y-94437D01*
X37563Y-93437D01*
Y-92437D01*
X36563D01*
X35563Y-93437D01*
X34563Y-92437D01*
X33563D01*
Y-93437D01*
X34563Y-94437D01*
X33563Y-95437D01*
Y-96437D01*
X27730Y-76437D02*
X28730D01*
X29730Y-75437D01*
X30730Y-76437D01*
X31730D01*
Y-75437D01*
X30730Y-74437D01*
X31730Y-73437D01*
Y-72437D01*
X30730D01*
X29730Y-73437D01*
X28730Y-72437D01*
X27730D01*
Y-73437D01*
X28730Y-74437D01*
X27730Y-75437D01*
Y-76437D01*
X23563D02*
X24563D01*
X25563Y-75437D01*
X26563Y-76437D01*
X27563D01*
Y-75437D01*
X26563Y-74437D01*
X27563Y-73437D01*
Y-72437D01*
X26563D01*
X25563Y-73437D01*
X24563Y-72437D01*
X23563D01*
Y-73437D01*
X24563Y-74437D01*
X23563Y-75437D01*
Y-76437D01*
X19396D02*
X20396D01*
X21396Y-75437D01*
X22396Y-76437D01*
X23396D01*
Y-75437D01*
X22396Y-74437D01*
X23396Y-73437D01*
Y-72437D01*
X22396D01*
X21396Y-73437D01*
X20396Y-72437D01*
X19396D01*
Y-73437D01*
X20396Y-74437D01*
X19396Y-75437D01*
Y-76437D01*
X15230D02*
X16230D01*
X17230Y-75437D01*
X18230Y-76437D01*
X19230D01*
Y-75437D01*
X18230Y-74437D01*
X19230Y-73437D01*
Y-72437D01*
X18230D01*
X17230Y-73437D01*
X16230Y-72437D01*
X15230D01*
Y-73437D01*
X16230Y-74437D01*
X15230Y-75437D01*
Y-76437D01*
X27730Y-71937D02*
X28730D01*
X29730Y-70937D01*
X30730Y-71937D01*
X31730D01*
Y-70937D01*
X30730Y-69937D01*
X31730Y-68937D01*
Y-67937D01*
X30730D01*
X29730Y-68937D01*
X28730Y-67937D01*
X27730D01*
Y-68937D01*
X28730Y-69937D01*
X27730Y-70937D01*
Y-71937D01*
X23563D02*
X24563D01*
X25563Y-70937D01*
X26563Y-71937D01*
X27563D01*
Y-70937D01*
X26563Y-69937D01*
X27563Y-68937D01*
Y-67937D01*
X26563D01*
X25563Y-68937D01*
X24563Y-67937D01*
X23563D01*
Y-68937D01*
X24563Y-69937D01*
X23563Y-70937D01*
Y-71937D01*
X19396D02*
X20396D01*
X21396Y-70937D01*
X22396Y-71937D01*
X23396D01*
Y-70937D01*
X22396Y-69937D01*
X23396Y-68937D01*
Y-67937D01*
X22396D01*
X21396Y-68937D01*
X20396Y-67937D01*
X19396D01*
Y-68937D01*
X20396Y-69937D01*
X19396Y-70937D01*
Y-71937D01*
X15230D02*
X16230D01*
X17230Y-70937D01*
X18230Y-71937D01*
X19230D01*
Y-70937D01*
X18230Y-69937D01*
X19230Y-68937D01*
Y-67937D01*
X18230D01*
X17230Y-68937D01*
X16230Y-67937D01*
X15230D01*
Y-68937D01*
X16230Y-69937D01*
X15230Y-70937D01*
Y-71937D01*
X27730Y-67437D02*
X28730D01*
X29730Y-66437D01*
X30730Y-67437D01*
X31730D01*
Y-66437D01*
X30730Y-65437D01*
X31730Y-64437D01*
Y-63437D01*
X30730D01*
X29730Y-64437D01*
X28730Y-63437D01*
X27730D01*
Y-64437D01*
X28730Y-65437D01*
X27730Y-66437D01*
Y-67437D01*
X23563D02*
X24563D01*
X25563Y-66437D01*
X26563Y-67437D01*
X27563D01*
Y-66437D01*
X26563Y-65437D01*
X27563Y-64437D01*
Y-63437D01*
X26563D01*
X25563Y-64437D01*
X24563Y-63437D01*
X23563D01*
Y-64437D01*
X24563Y-65437D01*
X23563Y-66437D01*
Y-67437D01*
X19396D02*
X20396D01*
X21396Y-66437D01*
X22396Y-67437D01*
X23396D01*
Y-66437D01*
X22396Y-65437D01*
X23396Y-64437D01*
Y-63437D01*
X22396D01*
X21396Y-64437D01*
X20396Y-63437D01*
X19396D01*
Y-64437D01*
X20396Y-65437D01*
X19396Y-66437D01*
Y-67437D01*
X15230D02*
X16230D01*
X17230Y-66437D01*
X18230Y-67437D01*
X19230D01*
Y-66437D01*
X18230Y-65437D01*
X19230Y-64437D01*
Y-63437D01*
X18230D01*
X17230Y-64437D01*
X16230Y-63437D01*
X15230D01*
Y-64437D01*
X16230Y-65437D01*
X15230Y-66437D01*
Y-67437D01*
X9500Y-31047D02*
Y-32047D01*
X11500D01*
Y-31047D01*
X12500D01*
Y-29047D01*
X11500D01*
Y-28047D01*
X9500D01*
Y-29047D01*
X8500D01*
Y-31047D01*
X9500D01*
X55055Y-37992D02*
Y-38992D01*
X57055D01*
Y-37992D01*
X58055D01*
Y-35992D01*
X57055D01*
Y-34992D01*
X55055D01*
Y-35992D01*
X54055D01*
Y-37992D01*
X55055D01*
X93488Y-50047D02*
Y-51047D01*
X95488D01*
Y-50047D01*
X96488D01*
Y-48047D01*
X95488D01*
Y-47047D01*
X93488D01*
Y-48047D01*
X92488D01*
Y-50047D01*
X93488D01*
Y-46380D02*
Y-47381D01*
X95488D01*
Y-46380D01*
X96488D01*
Y-44381D01*
X95488D01*
Y-43380D01*
X93488D01*
Y-44381D01*
X92488D01*
Y-46380D01*
X93488D01*
Y-42714D02*
Y-43714D01*
X95488D01*
Y-42714D01*
X96488D01*
Y-40714D01*
X95488D01*
Y-39714D01*
X93488D01*
Y-40714D01*
X92488D01*
Y-42714D01*
X93488D01*
Y-39047D02*
Y-40047D01*
X95488D01*
Y-39047D01*
X96488D01*
Y-37047D01*
X95488D01*
Y-36047D01*
X93488D01*
Y-37047D01*
X92488D01*
Y-39047D01*
X93488D01*
X102000Y-21047D02*
Y-22047D01*
X104000D01*
Y-21047D01*
X105000D01*
Y-19047D01*
X104000D01*
Y-18047D01*
X102000D01*
Y-19047D01*
X101000D01*
Y-21047D01*
X102000D01*
D11*
X96488Y-59291D02*
G03*
X96488Y-59291I-2000J0D01*
G01*
X80740D02*
G03*
X80740Y-59291I-2000J0D01*
G01*
X49244D02*
G03*
X49244Y-59291I-2000J0D01*
G01*
X64992D02*
G03*
X64992Y-59291I-2000J0D01*
G01*
X33496D02*
G03*
X33496Y-59291I-2000J0D01*
G01*
X17748D02*
G03*
X17748Y-59291I-2000J0D01*
G01*
M02*
