M48
;Layer_Color=9474304
;FILE_FORMAT=2:5
INCH,LZ
;TYPE=PLATED
T1F00S00C0.01200
T2F00S00C0.02000
T4F00S00C0.02756
T5F00S00C0.06693
%
T01
X0026563Y-0094437
X0031063
X0035563
X0049563
X0054063
X0058563
X0073563
X0078063
X0082563
X002973Y-0074437
X0025563
X0021396
X001723
Y-0069937
X0021396
X0025563
X002973
Y-0065437
X0025563
X0021396
X001723
X0025063Y-0034437
X0029563
X0034063
T02
X00105Y-0030047
X005Y-0022874
X0056055Y-0036992
X0094488Y-0038047
Y-0041714
Y-004538
Y-0049047
X0103Y-0020047
T04
X0045571Y-0017126
X0064665
T05
X0002285Y-0043899
X0107955
M30
