%FSLAX25Y25*%
%MOIN*%
G70*
G01*
G75*
G04 Layer_Color=8388736*
%ADD10R,0.06299X0.05984*%
%ADD11C,0.03937*%
%ADD12R,0.06299X0.06693*%
%ADD13R,0.01969X0.02362*%
%ADD14R,0.03600X0.05000*%
%ADD15R,0.05118X0.04921*%
%ADD16R,0.02362X0.01969*%
%ADD17R,0.01575X0.05315*%
%ADD18C,0.01500*%
%ADD19C,0.05000*%
%ADD20C,0.01575*%
%ADD21C,0.01969*%
%ADD22C,0.03000*%
%ADD23C,0.03937*%
%ADD24C,0.05906*%
%ADD25R,0.03500X0.04000*%
%ADD26O,0.07087X0.03543*%
%ADD27O,0.03543X0.06693*%
%ADD28C,0.09843*%
%ADD29C,0.05118*%
%ADD30O,0.04724X0.07480*%
%ADD31C,0.03000*%
%ADD32C,0.02200*%
%ADD33C,0.00394*%
%ADD34C,0.00100*%
%ADD35C,0.00500*%
%ADD36C,0.01000*%
%ADD37C,0.00600*%
%ADD38C,0.01200*%
%ADD39C,0.00787*%
%ADD40R,0.07099X0.06784*%
%ADD41C,0.04737*%
%ADD42R,0.07099X0.07493*%
%ADD43R,0.02769X0.03162*%
%ADD44R,0.04400X0.05800*%
%ADD45R,0.05918X0.05721*%
%ADD46R,0.03162X0.02769*%
%ADD47R,0.02375X0.06115*%
%ADD48O,0.07887X0.04343*%
%ADD49O,0.04343X0.07493*%
%ADD50C,0.10642*%
%ADD51C,0.05918*%
%ADD52O,0.05524X0.08280*%
D40*
X79063Y-26169D02*
D03*
X79063Y-12705D02*
D03*
D41*
X78563Y-4437D02*
D03*
X2500Y-30047D02*
D03*
X108500Y-31047D02*
D03*
Y-20047D02*
D03*
D42*
X64000Y-27102D02*
D03*
Y-36992D02*
D03*
D43*
X71000Y-27079D02*
D03*
Y-31016D02*
D03*
X100000Y-12579D02*
D03*
Y-16516D02*
D03*
D44*
X90750Y-21447D02*
D03*
X94750Y-12647D02*
D03*
X87250D02*
D03*
D45*
X95740Y-29047D02*
D03*
X88260D02*
D03*
D46*
X88532Y-7047D02*
D03*
X92469D02*
D03*
D47*
X60236Y-15846D02*
D03*
X57677Y-15846D02*
D03*
X55118Y-15846D02*
D03*
X50000Y-15846D02*
D03*
X52559D02*
D03*
D48*
X86614Y-79921D02*
D03*
X55118D02*
D03*
X23622D02*
D03*
D49*
X94488Y-59291D02*
D03*
X78740D02*
D03*
X47244D02*
D03*
X62992D02*
D03*
X31496D02*
D03*
X15748D02*
D03*
D50*
X2285Y-43899D02*
D03*
X107955D02*
D03*
D51*
X45571Y-17126D02*
D03*
X64665D02*
D03*
D52*
X40945Y-5709D02*
D03*
X69291D02*
D03*
M02*
