%FSLAX25Y25*%
%MOIN*%
G70*
G01*
G75*
%ADD10R,0.06299X0.05984*%
%ADD11C,0.03937*%
%ADD12R,0.06299X0.06693*%
%ADD13R,0.01969X0.02362*%
%ADD14R,0.03600X0.05000*%
%ADD15R,0.05118X0.04921*%
%ADD16R,0.02362X0.01969*%
%ADD17R,0.01575X0.05315*%
%ADD18C,0.01500*%
%ADD19C,0.05000*%
%ADD20C,0.01575*%
%ADD21C,0.01969*%
%ADD22C,0.03000*%
%ADD23C,0.03937*%
%ADD24C,0.05906*%
%ADD25R,0.03500X0.04000*%
%ADD26O,0.07087X0.03543*%
%ADD27O,0.03543X0.06693*%
%ADD28C,0.09843*%
%ADD29C,0.05118*%
%ADD30O,0.04724X0.07480*%
%ADD31C,0.03000*%
%ADD32C,0.02200*%
%ADD33C,0.00394*%
%ADD34C,0.00100*%
%ADD35C,0.00500*%
%ADD36C,0.01000*%
%ADD37C,0.00600*%
%ADD38C,0.01200*%
%ADD39C,0.00787*%
G36*
X35739Y-41479D02*
X35777Y-41485D01*
X35820Y-41494D01*
X35867Y-41505D01*
X35916Y-41520D01*
X35963Y-41543D01*
X35966D01*
X35969Y-41546D01*
X35983Y-41555D01*
X36007Y-41569D01*
X36036Y-41590D01*
X36068Y-41619D01*
X36103Y-41651D01*
X36134Y-41688D01*
X36167Y-41732D01*
X36169Y-41738D01*
X36181Y-41753D01*
X36193Y-41779D01*
X36213Y-41817D01*
X36230Y-41860D01*
X36254Y-41910D01*
X36274Y-41968D01*
X36292Y-42032D01*
Y-42035D01*
X36295Y-42041D01*
X36298Y-42049D01*
X36300Y-42064D01*
X36303Y-42081D01*
X36306Y-42102D01*
X36312Y-42128D01*
X36315Y-42157D01*
X36321Y-42189D01*
X36324Y-42224D01*
X36327Y-42265D01*
X36332Y-42305D01*
X36335Y-42352D01*
Y-42399D01*
X36338Y-42451D01*
Y-42506D01*
Y-42509D01*
Y-42521D01*
Y-42541D01*
Y-42564D01*
X36335Y-42596D01*
Y-42631D01*
X36332Y-42669D01*
X36329Y-42710D01*
X36321Y-42803D01*
X36306Y-42899D01*
X36289Y-42992D01*
X36277Y-43036D01*
X36263Y-43080D01*
Y-43082D01*
X36260Y-43088D01*
X36254Y-43100D01*
X36248Y-43114D01*
X36242Y-43135D01*
X36230Y-43155D01*
X36207Y-43205D01*
X36178Y-43257D01*
X36140Y-43315D01*
X36097Y-43368D01*
X36044Y-43417D01*
X36041D01*
X36039Y-43423D01*
X36030Y-43429D01*
X36018Y-43435D01*
X36004Y-43443D01*
X35989Y-43455D01*
X35945Y-43475D01*
X35893Y-43496D01*
X35832Y-43516D01*
X35759Y-43528D01*
X35680Y-43534D01*
X35651D01*
X35631Y-43531D01*
X35608Y-43528D01*
X35579Y-43522D01*
X35547Y-43516D01*
X35512Y-43507D01*
X35477Y-43496D01*
X35439Y-43484D01*
X35401Y-43466D01*
X35363Y-43446D01*
X35326Y-43423D01*
X35288Y-43394D01*
X35253Y-43362D01*
X35221Y-43327D01*
X35218Y-43324D01*
X35212Y-43315D01*
X35203Y-43301D01*
X35189Y-43277D01*
X35174Y-43251D01*
X35160Y-43216D01*
X35139Y-43176D01*
X35122Y-43129D01*
X35104Y-43077D01*
X35087Y-43016D01*
X35070Y-42949D01*
X35055Y-42873D01*
X35040Y-42791D01*
X35032Y-42704D01*
X35026Y-42608D01*
X35023Y-42506D01*
Y-42503D01*
Y-42492D01*
Y-42471D01*
Y-42448D01*
X35026Y-42416D01*
Y-42381D01*
X35029Y-42343D01*
X35032Y-42300D01*
X35040Y-42209D01*
X35055Y-42113D01*
X35072Y-42017D01*
X35084Y-41974D01*
X35096Y-41930D01*
Y-41927D01*
X35099Y-41921D01*
X35104Y-41910D01*
X35110Y-41895D01*
X35116Y-41875D01*
X35128Y-41854D01*
X35151Y-41805D01*
X35180Y-41753D01*
X35218Y-41697D01*
X35261Y-41642D01*
X35314Y-41595D01*
X35317D01*
X35320Y-41590D01*
X35328Y-41584D01*
X35340Y-41578D01*
X35355Y-41566D01*
X35372Y-41558D01*
X35416Y-41534D01*
X35468Y-41514D01*
X35529Y-41494D01*
X35602Y-41482D01*
X35680Y-41476D01*
X35707D01*
X35739Y-41479D01*
D02*
G37*
G36*
X23412Y-43499D02*
X23135D01*
X22082Y-41918D01*
Y-43499D01*
X21826D01*
Y-41485D01*
X22100D01*
X23156Y-43068D01*
Y-41485D01*
X23412D01*
Y-43499D01*
D02*
G37*
G36*
X33257Y-42893D02*
X32491D01*
Y-42646D01*
X33257D01*
Y-42893D01*
D02*
G37*
G36*
X45656Y-41747D02*
X44850D01*
X44742Y-42291D01*
X44745Y-42288D01*
X44751Y-42285D01*
X44760Y-42279D01*
X44774Y-42270D01*
X44792Y-42262D01*
X44812Y-42250D01*
X44859Y-42227D01*
X44917Y-42204D01*
X44981Y-42183D01*
X45051Y-42169D01*
X45086Y-42163D01*
X45150D01*
X45167Y-42166D01*
X45190Y-42169D01*
X45217Y-42172D01*
X45246Y-42177D01*
X45278Y-42186D01*
X45348Y-42206D01*
X45385Y-42221D01*
X45423Y-42241D01*
X45461Y-42262D01*
X45499Y-42285D01*
X45534Y-42314D01*
X45569Y-42346D01*
X45572Y-42349D01*
X45577Y-42355D01*
X45586Y-42364D01*
X45598Y-42378D01*
X45612Y-42399D01*
X45627Y-42419D01*
X45644Y-42445D01*
X45662Y-42474D01*
X45676Y-42506D01*
X45694Y-42541D01*
X45708Y-42582D01*
X45723Y-42623D01*
X45735Y-42666D01*
X45743Y-42716D01*
X45749Y-42765D01*
X45752Y-42818D01*
Y-42821D01*
Y-42829D01*
Y-42844D01*
X45749Y-42864D01*
X45746Y-42887D01*
X45743Y-42914D01*
X45737Y-42946D01*
X45732Y-42978D01*
X45714Y-43053D01*
X45685Y-43132D01*
X45668Y-43173D01*
X45644Y-43211D01*
X45621Y-43251D01*
X45592Y-43289D01*
X45589Y-43292D01*
X45583Y-43301D01*
X45572Y-43312D01*
X45557Y-43327D01*
X45537Y-43344D01*
X45513Y-43368D01*
X45484Y-43388D01*
X45452Y-43411D01*
X45417Y-43435D01*
X45377Y-43455D01*
X45333Y-43475D01*
X45287Y-43496D01*
X45237Y-43510D01*
X45182Y-43522D01*
X45123Y-43531D01*
X45062Y-43534D01*
X45036D01*
X45016Y-43531D01*
X44993Y-43528D01*
X44966Y-43525D01*
X44934Y-43522D01*
X44902Y-43513D01*
X44830Y-43496D01*
X44757Y-43470D01*
X44719Y-43452D01*
X44681Y-43432D01*
X44646Y-43408D01*
X44611Y-43382D01*
X44608Y-43379D01*
X44603Y-43376D01*
X44597Y-43365D01*
X44585Y-43353D01*
X44571Y-43339D01*
X44556Y-43321D01*
X44539Y-43298D01*
X44524Y-43272D01*
X44507Y-43245D01*
X44489Y-43213D01*
X44457Y-43143D01*
X44431Y-43062D01*
X44422Y-43018D01*
X44416Y-42972D01*
X44675Y-42952D01*
Y-42954D01*
Y-42960D01*
X44678Y-42969D01*
X44681Y-42983D01*
X44690Y-43016D01*
X44701Y-43059D01*
X44719Y-43103D01*
X44742Y-43152D01*
X44771Y-43196D01*
X44806Y-43237D01*
X44812Y-43240D01*
X44824Y-43251D01*
X44847Y-43266D01*
X44879Y-43283D01*
X44914Y-43301D01*
X44958Y-43315D01*
X45007Y-43327D01*
X45062Y-43330D01*
X45080D01*
X45092Y-43327D01*
X45126Y-43324D01*
X45167Y-43312D01*
X45217Y-43298D01*
X45266Y-43275D01*
X45318Y-43240D01*
X45342Y-43219D01*
X45365Y-43196D01*
X45368Y-43193D01*
X45371Y-43190D01*
X45377Y-43181D01*
X45385Y-43173D01*
X45406Y-43141D01*
X45429Y-43100D01*
X45449Y-43050D01*
X45470Y-42989D01*
X45484Y-42917D01*
X45490Y-42879D01*
Y-42838D01*
Y-42835D01*
Y-42829D01*
Y-42818D01*
X45487Y-42803D01*
Y-42786D01*
X45484Y-42765D01*
X45476Y-42719D01*
X45461Y-42663D01*
X45441Y-42608D01*
X45412Y-42556D01*
X45371Y-42506D01*
Y-42503D01*
X45365Y-42500D01*
X45351Y-42486D01*
X45324Y-42465D01*
X45289Y-42442D01*
X45243Y-42422D01*
X45190Y-42401D01*
X45129Y-42387D01*
X45094Y-42381D01*
X45039D01*
X45016Y-42384D01*
X44987Y-42387D01*
X44952Y-42396D01*
X44917Y-42404D01*
X44879Y-42419D01*
X44841Y-42436D01*
X44838Y-42439D01*
X44827Y-42445D01*
X44809Y-42460D01*
X44786Y-42474D01*
X44763Y-42495D01*
X44739Y-42521D01*
X44713Y-42547D01*
X44693Y-42579D01*
X44460Y-42547D01*
X44655Y-41511D01*
X45656D01*
Y-41747D01*
D02*
G37*
G36*
X13742Y-43499D02*
X13495D01*
Y-41924D01*
X13492Y-41927D01*
X13477Y-41939D01*
X13460Y-41956D01*
X13431Y-41977D01*
X13399Y-42003D01*
X13358Y-42032D01*
X13311Y-42064D01*
X13259Y-42096D01*
X13256D01*
X13253Y-42099D01*
X13236Y-42110D01*
X13207Y-42125D01*
X13172Y-42143D01*
X13131Y-42163D01*
X13087Y-42183D01*
X13044Y-42204D01*
X13000Y-42221D01*
Y-41982D01*
X13003D01*
X13009Y-41977D01*
X13020Y-41974D01*
X13035Y-41965D01*
X13052Y-41956D01*
X13073Y-41945D01*
X13122Y-41916D01*
X13180Y-41884D01*
X13239Y-41843D01*
X13300Y-41796D01*
X13361Y-41747D01*
X13364Y-41744D01*
X13367Y-41741D01*
X13375Y-41732D01*
X13387Y-41723D01*
X13413Y-41694D01*
X13448Y-41659D01*
X13483Y-41619D01*
X13521Y-41572D01*
X13553Y-41526D01*
X13582Y-41476D01*
X13742D01*
Y-43499D01*
D02*
G37*
G36*
X40435Y-41479D02*
X40473Y-41485D01*
X40517Y-41494D01*
X40563Y-41505D01*
X40613Y-41520D01*
X40660Y-41543D01*
X40663D01*
X40665Y-41546D01*
X40680Y-41555D01*
X40703Y-41569D01*
X40732Y-41590D01*
X40764Y-41619D01*
X40799Y-41651D01*
X40831Y-41688D01*
X40863Y-41732D01*
X40866Y-41738D01*
X40878Y-41753D01*
X40889Y-41779D01*
X40910Y-41817D01*
X40927Y-41860D01*
X40951Y-41910D01*
X40971Y-41968D01*
X40988Y-42032D01*
Y-42035D01*
X40991Y-42041D01*
X40994Y-42049D01*
X40997Y-42064D01*
X41000Y-42081D01*
X41003Y-42102D01*
X41009Y-42128D01*
X41012Y-42157D01*
X41017Y-42189D01*
X41020Y-42224D01*
X41023Y-42265D01*
X41029Y-42305D01*
X41032Y-42352D01*
Y-42399D01*
X41035Y-42451D01*
Y-42506D01*
Y-42509D01*
Y-42521D01*
Y-42541D01*
Y-42564D01*
X41032Y-42596D01*
Y-42631D01*
X41029Y-42669D01*
X41026Y-42710D01*
X41017Y-42803D01*
X41003Y-42899D01*
X40986Y-42992D01*
X40974Y-43036D01*
X40959Y-43080D01*
Y-43082D01*
X40956Y-43088D01*
X40951Y-43100D01*
X40945Y-43114D01*
X40939Y-43135D01*
X40927Y-43155D01*
X40904Y-43205D01*
X40875Y-43257D01*
X40837Y-43315D01*
X40793Y-43368D01*
X40741Y-43417D01*
X40738D01*
X40735Y-43423D01*
X40727Y-43429D01*
X40715Y-43435D01*
X40700Y-43443D01*
X40686Y-43455D01*
X40642Y-43475D01*
X40590Y-43496D01*
X40529Y-43516D01*
X40456Y-43528D01*
X40377Y-43534D01*
X40348D01*
X40328Y-43531D01*
X40304Y-43528D01*
X40275Y-43522D01*
X40243Y-43516D01*
X40209Y-43507D01*
X40174Y-43496D01*
X40136Y-43484D01*
X40098Y-43466D01*
X40060Y-43446D01*
X40022Y-43423D01*
X39984Y-43394D01*
X39950Y-43362D01*
X39917Y-43327D01*
X39915Y-43324D01*
X39909Y-43315D01*
X39900Y-43301D01*
X39886Y-43277D01*
X39871Y-43251D01*
X39856Y-43216D01*
X39836Y-43176D01*
X39819Y-43129D01*
X39801Y-43077D01*
X39784Y-43016D01*
X39766Y-42949D01*
X39752Y-42873D01*
X39737Y-42791D01*
X39728Y-42704D01*
X39722Y-42608D01*
X39720Y-42506D01*
Y-42503D01*
Y-42492D01*
Y-42471D01*
Y-42448D01*
X39722Y-42416D01*
Y-42381D01*
X39726Y-42343D01*
X39728Y-42300D01*
X39737Y-42209D01*
X39752Y-42113D01*
X39769Y-42017D01*
X39781Y-41974D01*
X39792Y-41930D01*
Y-41927D01*
X39795Y-41921D01*
X39801Y-41910D01*
X39807Y-41895D01*
X39813Y-41875D01*
X39824Y-41854D01*
X39848Y-41805D01*
X39877Y-41753D01*
X39915Y-41697D01*
X39958Y-41642D01*
X40011Y-41595D01*
X40014D01*
X40016Y-41590D01*
X40025Y-41584D01*
X40037Y-41578D01*
X40051Y-41566D01*
X40069Y-41558D01*
X40113Y-41534D01*
X40165Y-41514D01*
X40226Y-41494D01*
X40299Y-41482D01*
X40377Y-41476D01*
X40404D01*
X40435Y-41479D01*
D02*
G37*
G36*
X20796Y-44001D02*
X20819D01*
X20875Y-44007D01*
X20936Y-44016D01*
X21000Y-44030D01*
X21069Y-44048D01*
X21136Y-44071D01*
X21139D01*
X21145Y-44074D01*
X21154Y-44077D01*
X21166Y-44083D01*
X21197Y-44100D01*
X21238Y-44121D01*
X21282Y-44150D01*
X21328Y-44185D01*
X21372Y-44223D01*
X21413Y-44269D01*
X21419Y-44275D01*
X21430Y-44293D01*
X21448Y-44319D01*
X21471Y-44357D01*
X21494Y-44403D01*
X21520Y-44461D01*
X21547Y-44525D01*
X21567Y-44598D01*
X21326Y-44662D01*
Y-44659D01*
X21323Y-44656D01*
X21320Y-44647D01*
X21317Y-44636D01*
X21308Y-44610D01*
X21296Y-44575D01*
X21279Y-44534D01*
X21259Y-44496D01*
X21238Y-44455D01*
X21212Y-44420D01*
X21209Y-44418D01*
X21200Y-44406D01*
X21183Y-44391D01*
X21162Y-44371D01*
X21136Y-44348D01*
X21101Y-44324D01*
X21064Y-44301D01*
X21020Y-44281D01*
X21014Y-44278D01*
X21000Y-44272D01*
X20973Y-44263D01*
X20938Y-44252D01*
X20898Y-44243D01*
X20851Y-44234D01*
X20799Y-44228D01*
X20743Y-44225D01*
X20711D01*
X20697Y-44228D01*
X20680D01*
X20636Y-44231D01*
X20586Y-44240D01*
X20531Y-44249D01*
X20479Y-44263D01*
X20426Y-44284D01*
X20421Y-44287D01*
X20403Y-44293D01*
X20380Y-44307D01*
X20351Y-44322D01*
X20316Y-44345D01*
X20278Y-44368D01*
X20243Y-44397D01*
X20211Y-44429D01*
X20208Y-44432D01*
X20196Y-44444D01*
X20182Y-44464D01*
X20164Y-44487D01*
X20144Y-44517D01*
X20124Y-44551D01*
X20103Y-44589D01*
X20083Y-44630D01*
Y-44633D01*
X20080Y-44639D01*
X20077Y-44647D01*
X20071Y-44662D01*
X20065Y-44679D01*
X20060Y-44700D01*
X20051Y-44723D01*
X20045Y-44749D01*
X20031Y-44810D01*
X20019Y-44880D01*
X20010Y-44953D01*
X20007Y-45035D01*
Y-45037D01*
Y-45046D01*
Y-45061D01*
X20010Y-45078D01*
Y-45101D01*
X20013Y-45131D01*
X20016Y-45160D01*
X20019Y-45192D01*
X20031Y-45264D01*
X20045Y-45340D01*
X20068Y-45416D01*
X20098Y-45489D01*
Y-45491D01*
X20103Y-45497D01*
X20106Y-45506D01*
X20115Y-45518D01*
X20135Y-45550D01*
X20167Y-45590D01*
X20205Y-45634D01*
X20252Y-45678D01*
X20307Y-45718D01*
X20368Y-45756D01*
X20371D01*
X20377Y-45759D01*
X20386Y-45765D01*
X20400Y-45771D01*
X20415Y-45777D01*
X20435Y-45782D01*
X20482Y-45800D01*
X20540Y-45814D01*
X20604Y-45829D01*
X20674Y-45841D01*
X20746Y-45843D01*
X20775D01*
X20793Y-45841D01*
X20810D01*
X20854Y-45835D01*
X20907Y-45829D01*
X20962Y-45817D01*
X21023Y-45800D01*
X21084Y-45779D01*
X21087D01*
X21093Y-45777D01*
X21099Y-45774D01*
X21110Y-45768D01*
X21142Y-45753D01*
X21177Y-45736D01*
X21218Y-45715D01*
X21261Y-45692D01*
X21302Y-45666D01*
X21337Y-45637D01*
Y-45259D01*
X20743D01*
Y-45020D01*
X21599D01*
Y-45768D01*
X21596Y-45771D01*
X21590Y-45774D01*
X21579Y-45782D01*
X21564Y-45794D01*
X21547Y-45806D01*
X21526Y-45820D01*
X21500Y-45838D01*
X21474Y-45855D01*
X21413Y-45893D01*
X21343Y-45934D01*
X21270Y-45972D01*
X21192Y-46003D01*
X21189D01*
X21183Y-46006D01*
X21171Y-46009D01*
X21157Y-46015D01*
X21136Y-46021D01*
X21113Y-46030D01*
X21087Y-46036D01*
X21061Y-46041D01*
X20997Y-46056D01*
X20924Y-46071D01*
X20845Y-46079D01*
X20764Y-46082D01*
X20735D01*
X20714Y-46079D01*
X20688D01*
X20656Y-46076D01*
X20621Y-46071D01*
X20583Y-46068D01*
X20499Y-46050D01*
X20409Y-46030D01*
X20316Y-45998D01*
X20269Y-45980D01*
X20223Y-45957D01*
X20220Y-45954D01*
X20211Y-45951D01*
X20199Y-45942D01*
X20182Y-45934D01*
X20162Y-45919D01*
X20141Y-45905D01*
X20086Y-45864D01*
X20028Y-45812D01*
X19966Y-45747D01*
X19908Y-45675D01*
X19856Y-45590D01*
Y-45587D01*
X19850Y-45579D01*
X19844Y-45567D01*
X19836Y-45547D01*
X19827Y-45526D01*
X19818Y-45497D01*
X19806Y-45468D01*
X19795Y-45433D01*
X19783Y-45395D01*
X19772Y-45352D01*
X19763Y-45308D01*
X19754Y-45261D01*
X19740Y-45160D01*
X19734Y-45052D01*
Y-45049D01*
Y-45037D01*
Y-45023D01*
X19737Y-45002D01*
Y-44976D01*
X19740Y-44944D01*
X19745Y-44912D01*
X19748Y-44875D01*
X19757Y-44834D01*
X19763Y-44790D01*
X19786Y-44697D01*
X19815Y-44601D01*
X19856Y-44505D01*
X19859Y-44502D01*
X19862Y-44493D01*
X19868Y-44482D01*
X19879Y-44464D01*
X19891Y-44441D01*
X19905Y-44418D01*
X19946Y-44362D01*
X19996Y-44298D01*
X20057Y-44237D01*
X20127Y-44176D01*
X20167Y-44150D01*
X20208Y-44124D01*
X20211Y-44121D01*
X20220Y-44118D01*
X20231Y-44112D01*
X20249Y-44103D01*
X20272Y-44095D01*
X20298Y-44083D01*
X20327Y-44071D01*
X20362Y-44060D01*
X20400Y-44048D01*
X20441Y-44039D01*
X20484Y-44028D01*
X20531Y-44019D01*
X20633Y-44004D01*
X20685Y-43999D01*
X20778D01*
X20796Y-44001D01*
D02*
G37*
G36*
X22542Y-44557D02*
X22574Y-44563D01*
X22612Y-44575D01*
X22652Y-44589D01*
X22699Y-44610D01*
X22749Y-44636D01*
X22658Y-44863D01*
X22655Y-44860D01*
X22644Y-44854D01*
X22626Y-44845D01*
X22603Y-44837D01*
X22577Y-44828D01*
X22545Y-44819D01*
X22513Y-44813D01*
X22481Y-44810D01*
X22466D01*
X22452Y-44813D01*
X22431Y-44816D01*
X22411Y-44822D01*
X22385Y-44831D01*
X22359Y-44842D01*
X22335Y-44860D01*
X22332Y-44863D01*
X22324Y-44869D01*
X22315Y-44880D01*
X22300Y-44895D01*
X22286Y-44915D01*
X22271Y-44938D01*
X22257Y-44965D01*
X22245Y-44997D01*
X22242Y-45002D01*
X22239Y-45020D01*
X22233Y-45046D01*
X22225Y-45081D01*
X22216Y-45125D01*
X22210Y-45174D01*
X22207Y-45227D01*
X22204Y-45285D01*
Y-46047D01*
X21957D01*
Y-44586D01*
X22181D01*
Y-44807D01*
X22184Y-44805D01*
X22196Y-44784D01*
X22210Y-44758D01*
X22233Y-44726D01*
X22257Y-44694D01*
X22283Y-44659D01*
X22309Y-44630D01*
X22335Y-44607D01*
X22338Y-44604D01*
X22347Y-44598D01*
X22364Y-44589D01*
X22382Y-44581D01*
X22405Y-44572D01*
X22434Y-44563D01*
X22463Y-44557D01*
X22495Y-44554D01*
X22516D01*
X22542Y-44557D01*
D02*
G37*
G36*
X19417D02*
X19449Y-44563D01*
X19486Y-44575D01*
X19527Y-44589D01*
X19574Y-44610D01*
X19623Y-44636D01*
X19533Y-44863D01*
X19530Y-44860D01*
X19518Y-44854D01*
X19501Y-44845D01*
X19478Y-44837D01*
X19452Y-44828D01*
X19420Y-44819D01*
X19387Y-44813D01*
X19355Y-44810D01*
X19341D01*
X19326Y-44813D01*
X19306Y-44816D01*
X19286Y-44822D01*
X19259Y-44831D01*
X19233Y-44842D01*
X19210Y-44860D01*
X19207Y-44863D01*
X19198Y-44869D01*
X19190Y-44880D01*
X19175Y-44895D01*
X19161Y-44915D01*
X19146Y-44938D01*
X19131Y-44965D01*
X19120Y-44997D01*
X19117Y-45002D01*
X19114Y-45020D01*
X19108Y-45046D01*
X19099Y-45081D01*
X19091Y-45125D01*
X19085Y-45174D01*
X19082Y-45227D01*
X19079Y-45285D01*
Y-46047D01*
X18832D01*
Y-44586D01*
X19056D01*
Y-44807D01*
X19059Y-44805D01*
X19070Y-44784D01*
X19085Y-44758D01*
X19108Y-44726D01*
X19131Y-44694D01*
X19158Y-44659D01*
X19184Y-44630D01*
X19210Y-44607D01*
X19213Y-44604D01*
X19222Y-44598D01*
X19239Y-44589D01*
X19256Y-44581D01*
X19280Y-44572D01*
X19309Y-44563D01*
X19338Y-44557D01*
X19370Y-44554D01*
X19390D01*
X19417Y-44557D01*
D02*
G37*
G36*
X46718Y-42893D02*
X45953D01*
Y-42646D01*
X46718D01*
Y-42893D01*
D02*
G37*
G36*
X29794Y-41479D02*
X29831Y-41485D01*
X29875Y-41494D01*
X29922Y-41505D01*
X29971Y-41520D01*
X30018Y-41543D01*
X30021D01*
X30024Y-41546D01*
X30038Y-41555D01*
X30061Y-41569D01*
X30090Y-41590D01*
X30122Y-41619D01*
X30157Y-41651D01*
X30189Y-41688D01*
X30221Y-41732D01*
X30224Y-41738D01*
X30236Y-41753D01*
X30248Y-41779D01*
X30268Y-41817D01*
X30285Y-41860D01*
X30309Y-41910D01*
X30329Y-41968D01*
X30347Y-42032D01*
Y-42035D01*
X30349Y-42041D01*
X30352Y-42049D01*
X30355Y-42064D01*
X30358Y-42081D01*
X30361Y-42102D01*
X30367Y-42128D01*
X30370Y-42157D01*
X30376Y-42189D01*
X30378Y-42224D01*
X30381Y-42265D01*
X30387Y-42305D01*
X30390Y-42352D01*
Y-42399D01*
X30393Y-42451D01*
Y-42506D01*
Y-42509D01*
Y-42521D01*
Y-42541D01*
Y-42564D01*
X30390Y-42596D01*
Y-42631D01*
X30387Y-42669D01*
X30384Y-42710D01*
X30376Y-42803D01*
X30361Y-42899D01*
X30344Y-42992D01*
X30332Y-43036D01*
X30317Y-43080D01*
Y-43082D01*
X30314Y-43088D01*
X30309Y-43100D01*
X30303Y-43114D01*
X30297Y-43135D01*
X30285Y-43155D01*
X30262Y-43205D01*
X30233Y-43257D01*
X30195Y-43315D01*
X30152Y-43368D01*
X30099Y-43417D01*
X30096D01*
X30093Y-43423D01*
X30085Y-43429D01*
X30073Y-43435D01*
X30058Y-43443D01*
X30044Y-43455D01*
X30000Y-43475D01*
X29948Y-43496D01*
X29887Y-43516D01*
X29814Y-43528D01*
X29735Y-43534D01*
X29706D01*
X29686Y-43531D01*
X29663Y-43528D01*
X29634Y-43522D01*
X29602Y-43516D01*
X29567Y-43507D01*
X29532Y-43496D01*
X29494Y-43484D01*
X29456Y-43466D01*
X29418Y-43446D01*
X29380Y-43423D01*
X29343Y-43394D01*
X29308Y-43362D01*
X29276Y-43327D01*
X29273Y-43324D01*
X29267Y-43315D01*
X29258Y-43301D01*
X29244Y-43277D01*
X29229Y-43251D01*
X29215Y-43216D01*
X29194Y-43176D01*
X29177Y-43129D01*
X29159Y-43077D01*
X29142Y-43016D01*
X29124Y-42949D01*
X29110Y-42873D01*
X29095Y-42791D01*
X29087Y-42704D01*
X29081Y-42608D01*
X29078Y-42506D01*
Y-42503D01*
Y-42492D01*
Y-42471D01*
Y-42448D01*
X29081Y-42416D01*
Y-42381D01*
X29084Y-42343D01*
X29087Y-42300D01*
X29095Y-42209D01*
X29110Y-42113D01*
X29127Y-42017D01*
X29139Y-41974D01*
X29151Y-41930D01*
Y-41927D01*
X29153Y-41921D01*
X29159Y-41910D01*
X29165Y-41895D01*
X29171Y-41875D01*
X29182Y-41854D01*
X29206Y-41805D01*
X29235Y-41753D01*
X29273Y-41697D01*
X29316Y-41642D01*
X29369Y-41595D01*
X29372D01*
X29375Y-41590D01*
X29383Y-41584D01*
X29395Y-41578D01*
X29410Y-41566D01*
X29427Y-41558D01*
X29471Y-41534D01*
X29523Y-41514D01*
X29584Y-41494D01*
X29657Y-41482D01*
X29735Y-41476D01*
X29762D01*
X29794Y-41479D01*
D02*
G37*
G36*
X13998Y-44001D02*
X14024Y-44004D01*
X14056Y-44007D01*
X14088Y-44010D01*
X14126Y-44019D01*
X14205Y-44036D01*
X14292Y-44063D01*
X14336Y-44080D01*
X14376Y-44100D01*
X14417Y-44127D01*
X14458Y-44153D01*
X14461Y-44156D01*
X14467Y-44159D01*
X14478Y-44167D01*
X14493Y-44182D01*
X14507Y-44196D01*
X14528Y-44217D01*
X14548Y-44240D01*
X14571Y-44263D01*
X14595Y-44293D01*
X14618Y-44327D01*
X14644Y-44362D01*
X14667Y-44400D01*
X14688Y-44444D01*
X14711Y-44487D01*
X14728Y-44534D01*
X14746Y-44586D01*
X14484Y-44647D01*
Y-44645D01*
X14481Y-44639D01*
X14475Y-44627D01*
X14470Y-44613D01*
X14464Y-44595D01*
X14455Y-44572D01*
X14432Y-44525D01*
X14403Y-44473D01*
X14368Y-44420D01*
X14324Y-44371D01*
X14277Y-44327D01*
X14272Y-44322D01*
X14254Y-44310D01*
X14225Y-44295D01*
X14187Y-44275D01*
X14138Y-44258D01*
X14083Y-44240D01*
X14016Y-44228D01*
X13943Y-44225D01*
X13920D01*
X13905Y-44228D01*
X13885D01*
X13861Y-44231D01*
X13806Y-44240D01*
X13745Y-44252D01*
X13681Y-44272D01*
X13614Y-44301D01*
X13553Y-44339D01*
X13550D01*
X13547Y-44345D01*
X13527Y-44359D01*
X13500Y-44383D01*
X13468Y-44418D01*
X13431Y-44461D01*
X13396Y-44511D01*
X13364Y-44572D01*
X13335Y-44639D01*
Y-44642D01*
X13332Y-44647D01*
X13329Y-44656D01*
X13326Y-44671D01*
X13320Y-44688D01*
X13314Y-44709D01*
X13306Y-44758D01*
X13294Y-44816D01*
X13282Y-44880D01*
X13276Y-44950D01*
X13273Y-45026D01*
Y-45029D01*
Y-45037D01*
Y-45052D01*
Y-45069D01*
X13276Y-45090D01*
Y-45116D01*
X13279Y-45145D01*
X13282Y-45177D01*
X13291Y-45247D01*
X13306Y-45323D01*
X13323Y-45398D01*
X13346Y-45474D01*
Y-45477D01*
X13349Y-45483D01*
X13355Y-45491D01*
X13361Y-45506D01*
X13378Y-45541D01*
X13405Y-45582D01*
X13437Y-45628D01*
X13477Y-45678D01*
X13524Y-45721D01*
X13579Y-45762D01*
X13582D01*
X13588Y-45765D01*
X13597Y-45771D01*
X13608Y-45777D01*
X13623Y-45782D01*
X13640Y-45791D01*
X13681Y-45809D01*
X13733Y-45826D01*
X13792Y-45841D01*
X13856Y-45852D01*
X13923Y-45855D01*
X13943D01*
X13960Y-45852D01*
X13981D01*
X14001Y-45849D01*
X14053Y-45838D01*
X14115Y-45823D01*
X14176Y-45800D01*
X14240Y-45768D01*
X14272Y-45750D01*
X14301Y-45727D01*
X14304Y-45724D01*
X14307Y-45721D01*
X14315Y-45713D01*
X14327Y-45704D01*
X14339Y-45689D01*
X14353Y-45672D01*
X14371Y-45654D01*
X14385Y-45631D01*
X14403Y-45605D01*
X14423Y-45576D01*
X14441Y-45547D01*
X14458Y-45512D01*
X14472Y-45474D01*
X14487Y-45433D01*
X14502Y-45390D01*
X14513Y-45343D01*
X14781Y-45410D01*
Y-45413D01*
X14778Y-45424D01*
X14772Y-45442D01*
X14763Y-45465D01*
X14755Y-45491D01*
X14743Y-45523D01*
X14728Y-45558D01*
X14711Y-45596D01*
X14670Y-45678D01*
X14618Y-45759D01*
X14586Y-45800D01*
X14554Y-45841D01*
X14519Y-45875D01*
X14478Y-45910D01*
X14475Y-45913D01*
X14470Y-45919D01*
X14455Y-45925D01*
X14441Y-45937D01*
X14417Y-45951D01*
X14394Y-45966D01*
X14362Y-45980D01*
X14330Y-45995D01*
X14292Y-46012D01*
X14251Y-46027D01*
X14208Y-46041D01*
X14161Y-46056D01*
X14112Y-46068D01*
X14059Y-46073D01*
X14004Y-46079D01*
X13946Y-46082D01*
X13914D01*
X13891Y-46079D01*
X13864D01*
X13832Y-46076D01*
X13797Y-46071D01*
X13757Y-46065D01*
X13672Y-46050D01*
X13585Y-46027D01*
X13498Y-45995D01*
X13457Y-45974D01*
X13416Y-45951D01*
X13413Y-45948D01*
X13407Y-45945D01*
X13396Y-45937D01*
X13384Y-45925D01*
X13367Y-45913D01*
X13346Y-45896D01*
X13323Y-45875D01*
X13300Y-45852D01*
X13276Y-45826D01*
X13250Y-45800D01*
X13198Y-45733D01*
X13148Y-45654D01*
X13105Y-45567D01*
Y-45564D01*
X13099Y-45555D01*
X13096Y-45541D01*
X13087Y-45523D01*
X13081Y-45500D01*
X13073Y-45471D01*
X13061Y-45439D01*
X13052Y-45404D01*
X13044Y-45366D01*
X13032Y-45323D01*
X13017Y-45232D01*
X13006Y-45131D01*
X13000Y-45026D01*
Y-45023D01*
Y-45011D01*
Y-44994D01*
X13003Y-44973D01*
Y-44944D01*
X13006Y-44915D01*
X13009Y-44877D01*
X13014Y-44840D01*
X13029Y-44755D01*
X13049Y-44662D01*
X13079Y-44569D01*
X13119Y-44479D01*
X13122Y-44476D01*
X13125Y-44467D01*
X13131Y-44455D01*
X13143Y-44441D01*
X13154Y-44420D01*
X13169Y-44397D01*
X13207Y-44345D01*
X13256Y-44287D01*
X13314Y-44228D01*
X13381Y-44170D01*
X13460Y-44121D01*
X13463Y-44118D01*
X13471Y-44115D01*
X13483Y-44109D01*
X13498Y-44100D01*
X13521Y-44092D01*
X13544Y-44083D01*
X13573Y-44071D01*
X13605Y-44060D01*
X13640Y-44048D01*
X13678Y-44036D01*
X13759Y-44019D01*
X13853Y-44004D01*
X13949Y-43999D01*
X13978D01*
X13998Y-44001D01*
D02*
G37*
G36*
X15308Y-43499D02*
X15060D01*
Y-41924D01*
X15057Y-41927D01*
X15043Y-41939D01*
X15025Y-41956D01*
X14996Y-41977D01*
X14964Y-42003D01*
X14923Y-42032D01*
X14877Y-42064D01*
X14825Y-42096D01*
X14822D01*
X14819Y-42099D01*
X14801Y-42110D01*
X14772Y-42125D01*
X14737Y-42143D01*
X14696Y-42163D01*
X14653Y-42183D01*
X14609Y-42204D01*
X14566Y-42221D01*
Y-41982D01*
X14569D01*
X14574Y-41977D01*
X14586Y-41974D01*
X14601Y-41965D01*
X14618Y-41956D01*
X14638Y-41945D01*
X14688Y-41916D01*
X14746Y-41884D01*
X14804Y-41843D01*
X14865Y-41796D01*
X14926Y-41747D01*
X14929Y-41744D01*
X14932Y-41741D01*
X14941Y-41732D01*
X14953Y-41723D01*
X14979Y-41694D01*
X15014Y-41659D01*
X15049Y-41619D01*
X15087Y-41572D01*
X15119Y-41526D01*
X15148Y-41476D01*
X15308D01*
Y-43499D01*
D02*
G37*
G36*
X34173Y-41479D02*
X34196Y-41482D01*
X34225Y-41485D01*
X34258Y-41491D01*
X34290Y-41497D01*
X34365Y-41517D01*
X34441Y-41546D01*
X34479Y-41563D01*
X34517Y-41584D01*
X34552Y-41610D01*
X34584Y-41639D01*
X34586Y-41642D01*
X34592Y-41645D01*
X34598Y-41657D01*
X34610Y-41668D01*
X34624Y-41683D01*
X34639Y-41703D01*
X34653Y-41723D01*
X34671Y-41750D01*
X34700Y-41805D01*
X34729Y-41875D01*
X34741Y-41910D01*
X34746Y-41950D01*
X34752Y-41991D01*
X34755Y-42035D01*
Y-42041D01*
Y-42055D01*
X34752Y-42079D01*
X34749Y-42110D01*
X34743Y-42145D01*
X34732Y-42186D01*
X34720Y-42230D01*
X34703Y-42273D01*
X34700Y-42279D01*
X34694Y-42294D01*
X34682Y-42317D01*
X34665Y-42349D01*
X34642Y-42384D01*
X34613Y-42428D01*
X34578Y-42471D01*
X34537Y-42521D01*
X34531Y-42527D01*
X34517Y-42544D01*
X34502Y-42559D01*
X34488Y-42573D01*
X34470Y-42591D01*
X34447Y-42614D01*
X34423Y-42637D01*
X34394Y-42663D01*
X34365Y-42693D01*
X34330Y-42724D01*
X34293Y-42757D01*
X34252Y-42794D01*
X34205Y-42832D01*
X34159Y-42873D01*
X34156Y-42876D01*
X34150Y-42882D01*
X34138Y-42890D01*
X34124Y-42902D01*
X34106Y-42919D01*
X34086Y-42937D01*
X34039Y-42975D01*
X33990Y-43018D01*
X33943Y-43062D01*
X33902Y-43100D01*
X33885Y-43114D01*
X33871Y-43129D01*
X33868Y-43132D01*
X33859Y-43141D01*
X33847Y-43152D01*
X33833Y-43170D01*
X33818Y-43190D01*
X33801Y-43211D01*
X33766Y-43260D01*
X34758D01*
Y-43499D01*
X33422D01*
Y-43496D01*
Y-43484D01*
Y-43466D01*
X33425Y-43443D01*
X33428Y-43417D01*
X33434Y-43388D01*
X33440Y-43359D01*
X33452Y-43327D01*
Y-43324D01*
X33454Y-43321D01*
X33460Y-43304D01*
X33472Y-43277D01*
X33489Y-43242D01*
X33513Y-43202D01*
X33542Y-43155D01*
X33574Y-43109D01*
X33614Y-43059D01*
Y-43056D01*
X33620Y-43053D01*
X33635Y-43036D01*
X33661Y-43010D01*
X33699Y-42972D01*
X33742Y-42928D01*
X33798Y-42876D01*
X33865Y-42818D01*
X33937Y-42757D01*
X33940Y-42754D01*
X33952Y-42745D01*
X33970Y-42730D01*
X33990Y-42713D01*
X34016Y-42690D01*
X34048Y-42663D01*
X34080Y-42634D01*
X34118Y-42602D01*
X34191Y-42532D01*
X34263Y-42463D01*
X34298Y-42428D01*
X34330Y-42393D01*
X34359Y-42361D01*
X34383Y-42329D01*
Y-42326D01*
X34389Y-42323D01*
X34394Y-42314D01*
X34400Y-42303D01*
X34420Y-42270D01*
X34444Y-42233D01*
X34464Y-42186D01*
X34484Y-42137D01*
X34496Y-42081D01*
X34502Y-42029D01*
Y-42026D01*
Y-42023D01*
X34499Y-42006D01*
X34496Y-41977D01*
X34488Y-41945D01*
X34476Y-41904D01*
X34455Y-41863D01*
X34429Y-41822D01*
X34394Y-41782D01*
X34389Y-41776D01*
X34374Y-41764D01*
X34354Y-41750D01*
X34322Y-41729D01*
X34281Y-41712D01*
X34234Y-41694D01*
X34179Y-41683D01*
X34118Y-41680D01*
X34100D01*
X34089Y-41683D01*
X34054Y-41686D01*
X34013Y-41694D01*
X33970Y-41706D01*
X33920Y-41726D01*
X33873Y-41753D01*
X33830Y-41787D01*
X33824Y-41793D01*
X33812Y-41808D01*
X33795Y-41831D01*
X33777Y-41866D01*
X33757Y-41907D01*
X33740Y-41959D01*
X33728Y-42017D01*
X33722Y-42084D01*
X33469Y-42058D01*
Y-42055D01*
X33472Y-42046D01*
Y-42032D01*
X33475Y-42011D01*
X33481Y-41988D01*
X33486Y-41962D01*
X33495Y-41930D01*
X33504Y-41898D01*
X33527Y-41828D01*
X33562Y-41758D01*
X33582Y-41723D01*
X33609Y-41688D01*
X33635Y-41657D01*
X33664Y-41627D01*
X33667Y-41625D01*
X33673Y-41622D01*
X33681Y-41613D01*
X33696Y-41604D01*
X33713Y-41592D01*
X33734Y-41581D01*
X33757Y-41566D01*
X33786Y-41552D01*
X33818Y-41537D01*
X33853Y-41523D01*
X33891Y-41511D01*
X33932Y-41499D01*
X33975Y-41491D01*
X34022Y-41482D01*
X34071Y-41479D01*
X34124Y-41476D01*
X34153D01*
X34173Y-41479D01*
D02*
G37*
G36*
X37520Y-43499D02*
X37272D01*
Y-41924D01*
X37269Y-41927D01*
X37255Y-41939D01*
X37237Y-41956D01*
X37208Y-41977D01*
X37176Y-42003D01*
X37136Y-42032D01*
X37089Y-42064D01*
X37037Y-42096D01*
X37034D01*
X37031Y-42099D01*
X37013Y-42110D01*
X36984Y-42125D01*
X36949Y-42143D01*
X36909Y-42163D01*
X36865Y-42183D01*
X36821Y-42204D01*
X36778Y-42221D01*
Y-41982D01*
X36781D01*
X36786Y-41977D01*
X36798Y-41974D01*
X36812Y-41965D01*
X36830Y-41956D01*
X36850Y-41945D01*
X36900Y-41916D01*
X36958Y-41884D01*
X37016Y-41843D01*
X37077Y-41796D01*
X37139Y-41747D01*
X37141Y-41744D01*
X37144Y-41741D01*
X37153Y-41732D01*
X37165Y-41723D01*
X37191Y-41694D01*
X37226Y-41659D01*
X37261Y-41619D01*
X37299Y-41572D01*
X37330Y-41526D01*
X37360Y-41476D01*
X37520D01*
Y-43499D01*
D02*
G37*
G36*
X43567Y-41479D02*
X43590Y-41482D01*
X43619Y-41485D01*
X43651Y-41491D01*
X43683Y-41497D01*
X43759Y-41517D01*
X43834Y-41546D01*
X43872Y-41563D01*
X43910Y-41584D01*
X43945Y-41610D01*
X43977Y-41639D01*
X43980Y-41642D01*
X43986Y-41645D01*
X43992Y-41657D01*
X44003Y-41668D01*
X44018Y-41683D01*
X44032Y-41703D01*
X44047Y-41723D01*
X44064Y-41750D01*
X44093Y-41805D01*
X44122Y-41875D01*
X44134Y-41910D01*
X44140Y-41950D01*
X44146Y-41991D01*
X44149Y-42035D01*
Y-42041D01*
Y-42055D01*
X44146Y-42079D01*
X44143Y-42110D01*
X44137Y-42145D01*
X44125Y-42186D01*
X44114Y-42230D01*
X44096Y-42273D01*
X44093Y-42279D01*
X44087Y-42294D01*
X44076Y-42317D01*
X44058Y-42349D01*
X44035Y-42384D01*
X44006Y-42428D01*
X43971Y-42471D01*
X43930Y-42521D01*
X43925Y-42527D01*
X43910Y-42544D01*
X43896Y-42559D01*
X43881Y-42573D01*
X43863Y-42591D01*
X43840Y-42614D01*
X43817Y-42637D01*
X43788Y-42663D01*
X43759Y-42693D01*
X43724Y-42724D01*
X43686Y-42757D01*
X43645Y-42794D01*
X43599Y-42832D01*
X43552Y-42873D01*
X43549Y-42876D01*
X43543Y-42882D01*
X43532Y-42890D01*
X43517Y-42902D01*
X43500Y-42919D01*
X43479Y-42937D01*
X43433Y-42975D01*
X43383Y-43018D01*
X43337Y-43062D01*
X43296Y-43100D01*
X43279Y-43114D01*
X43264Y-43129D01*
X43261Y-43132D01*
X43252Y-43141D01*
X43241Y-43152D01*
X43226Y-43170D01*
X43212Y-43190D01*
X43194Y-43211D01*
X43159Y-43260D01*
X44152D01*
Y-43499D01*
X42816D01*
Y-43496D01*
Y-43484D01*
Y-43466D01*
X42819Y-43443D01*
X42822Y-43417D01*
X42827Y-43388D01*
X42833Y-43359D01*
X42845Y-43327D01*
Y-43324D01*
X42848Y-43321D01*
X42854Y-43304D01*
X42865Y-43277D01*
X42883Y-43242D01*
X42906Y-43202D01*
X42935Y-43155D01*
X42967Y-43109D01*
X43008Y-43059D01*
Y-43056D01*
X43014Y-43053D01*
X43028Y-43036D01*
X43055Y-43010D01*
X43092Y-42972D01*
X43136Y-42928D01*
X43191Y-42876D01*
X43258Y-42818D01*
X43331Y-42757D01*
X43334Y-42754D01*
X43345Y-42745D01*
X43363Y-42730D01*
X43383Y-42713D01*
X43409Y-42690D01*
X43442Y-42663D01*
X43474Y-42634D01*
X43511Y-42602D01*
X43584Y-42532D01*
X43657Y-42463D01*
X43692Y-42428D01*
X43724Y-42393D01*
X43753Y-42361D01*
X43776Y-42329D01*
Y-42326D01*
X43782Y-42323D01*
X43788Y-42314D01*
X43794Y-42303D01*
X43814Y-42270D01*
X43837Y-42233D01*
X43858Y-42186D01*
X43878Y-42137D01*
X43890Y-42081D01*
X43896Y-42029D01*
Y-42026D01*
Y-42023D01*
X43893Y-42006D01*
X43890Y-41977D01*
X43881Y-41945D01*
X43869Y-41904D01*
X43849Y-41863D01*
X43823Y-41822D01*
X43788Y-41782D01*
X43782Y-41776D01*
X43767Y-41764D01*
X43747Y-41750D01*
X43715Y-41729D01*
X43674Y-41712D01*
X43628Y-41694D01*
X43573Y-41683D01*
X43511Y-41680D01*
X43494D01*
X43482Y-41683D01*
X43447Y-41686D01*
X43407Y-41694D01*
X43363Y-41706D01*
X43314Y-41726D01*
X43267Y-41753D01*
X43223Y-41787D01*
X43218Y-41793D01*
X43206Y-41808D01*
X43188Y-41831D01*
X43171Y-41866D01*
X43150Y-41907D01*
X43133Y-41959D01*
X43121Y-42017D01*
X43116Y-42084D01*
X42862Y-42058D01*
Y-42055D01*
X42865Y-42046D01*
Y-42032D01*
X42868Y-42011D01*
X42874Y-41988D01*
X42880Y-41962D01*
X42889Y-41930D01*
X42897Y-41898D01*
X42921Y-41828D01*
X42955Y-41758D01*
X42976Y-41723D01*
X43002Y-41688D01*
X43028Y-41657D01*
X43057Y-41627D01*
X43060Y-41625D01*
X43066Y-41622D01*
X43075Y-41613D01*
X43089Y-41604D01*
X43107Y-41592D01*
X43127Y-41581D01*
X43150Y-41566D01*
X43180Y-41552D01*
X43212Y-41537D01*
X43247Y-41523D01*
X43284Y-41511D01*
X43325Y-41499D01*
X43369Y-41491D01*
X43415Y-41482D01*
X43465Y-41479D01*
X43517Y-41476D01*
X43546D01*
X43567Y-41479D01*
D02*
G37*
G36*
X26537Y-41488D02*
X26561D01*
X26613Y-41494D01*
X26671Y-41499D01*
X26732Y-41511D01*
X26793Y-41526D01*
X26849Y-41546D01*
X26852D01*
X26855Y-41549D01*
X26872Y-41558D01*
X26898Y-41572D01*
X26927Y-41592D01*
X26962Y-41619D01*
X27000Y-41651D01*
X27035Y-41691D01*
X27067Y-41735D01*
X27070Y-41741D01*
X27079Y-41758D01*
X27093Y-41782D01*
X27108Y-41817D01*
X27122Y-41857D01*
X27137Y-41901D01*
X27145Y-41950D01*
X27148Y-42000D01*
Y-42006D01*
Y-42020D01*
X27145Y-42046D01*
X27140Y-42079D01*
X27131Y-42116D01*
X27116Y-42157D01*
X27099Y-42198D01*
X27076Y-42241D01*
X27073Y-42247D01*
X27064Y-42259D01*
X27047Y-42282D01*
X27023Y-42305D01*
X26994Y-42335D01*
X26959Y-42367D01*
X26916Y-42396D01*
X26866Y-42425D01*
X26869D01*
X26875Y-42428D01*
X26884Y-42431D01*
X26895Y-42436D01*
X26930Y-42448D01*
X26971Y-42468D01*
X27015Y-42495D01*
X27064Y-42527D01*
X27108Y-42564D01*
X27148Y-42611D01*
X27151Y-42617D01*
X27163Y-42634D01*
X27180Y-42660D01*
X27198Y-42695D01*
X27215Y-42742D01*
X27233Y-42791D01*
X27244Y-42850D01*
X27247Y-42914D01*
Y-42917D01*
Y-42919D01*
Y-42937D01*
X27244Y-42966D01*
X27239Y-43001D01*
X27233Y-43042D01*
X27221Y-43085D01*
X27207Y-43132D01*
X27186Y-43178D01*
X27183Y-43184D01*
X27175Y-43199D01*
X27163Y-43219D01*
X27145Y-43248D01*
X27122Y-43277D01*
X27099Y-43309D01*
X27070Y-43341D01*
X27038Y-43368D01*
X27035Y-43371D01*
X27023Y-43379D01*
X27003Y-43391D01*
X26977Y-43402D01*
X26945Y-43420D01*
X26907Y-43437D01*
X26866Y-43452D01*
X26817Y-43466D01*
X26811D01*
X26793Y-43472D01*
X26764Y-43475D01*
X26726Y-43481D01*
X26680Y-43487D01*
X26625Y-43493D01*
X26564Y-43496D01*
X26494Y-43499D01*
X25725D01*
Y-41485D01*
X26517D01*
X26537Y-41488D01*
D02*
G37*
G36*
X28833Y-41706D02*
X28830Y-41709D01*
X28825Y-41715D01*
X28813Y-41726D01*
X28801Y-41744D01*
X28784Y-41764D01*
X28761Y-41787D01*
X28737Y-41817D01*
X28711Y-41851D01*
X28685Y-41886D01*
X28653Y-41927D01*
X28621Y-41974D01*
X28589Y-42020D01*
X28554Y-42073D01*
X28519Y-42128D01*
X28484Y-42189D01*
X28449Y-42250D01*
X28446Y-42253D01*
X28440Y-42265D01*
X28432Y-42282D01*
X28417Y-42308D01*
X28403Y-42340D01*
X28385Y-42375D01*
X28365Y-42416D01*
X28344Y-42463D01*
X28321Y-42515D01*
X28295Y-42567D01*
X28272Y-42625D01*
X28248Y-42687D01*
X28202Y-42812D01*
X28158Y-42946D01*
Y-42949D01*
X28155Y-42957D01*
X28152Y-42972D01*
X28147Y-42989D01*
X28141Y-43013D01*
X28135Y-43042D01*
X28126Y-43074D01*
X28120Y-43109D01*
X28112Y-43149D01*
X28103Y-43193D01*
X28088Y-43286D01*
X28074Y-43388D01*
X28065Y-43499D01*
X27812D01*
Y-43496D01*
Y-43487D01*
Y-43475D01*
X27815Y-43458D01*
Y-43435D01*
X27818Y-43405D01*
X27821Y-43373D01*
X27824Y-43339D01*
X27829Y-43298D01*
X27835Y-43257D01*
X27844Y-43207D01*
X27853Y-43158D01*
X27861Y-43106D01*
X27873Y-43047D01*
X27902Y-42928D01*
Y-42925D01*
X27905Y-42914D01*
X27911Y-42896D01*
X27920Y-42870D01*
X27928Y-42841D01*
X27940Y-42806D01*
X27952Y-42765D01*
X27969Y-42722D01*
X27986Y-42672D01*
X28004Y-42623D01*
X28048Y-42512D01*
X28100Y-42396D01*
X28158Y-42279D01*
X28161Y-42276D01*
X28167Y-42265D01*
X28176Y-42250D01*
X28187Y-42227D01*
X28202Y-42201D01*
X28222Y-42169D01*
X28243Y-42134D01*
X28266Y-42096D01*
X28321Y-42011D01*
X28379Y-41924D01*
X28446Y-41834D01*
X28516Y-41750D01*
X27530D01*
Y-41511D01*
X28833D01*
Y-41706D01*
D02*
G37*
G36*
X32407Y-43499D02*
X32104D01*
X31868Y-42887D01*
X31025D01*
X30806Y-43499D01*
X30524D01*
X31292Y-41485D01*
X31583D01*
X32407Y-43499D01*
D02*
G37*
G36*
X21614D02*
X21311D01*
X21075Y-42887D01*
X20231D01*
X20013Y-43499D01*
X19731D01*
X20499Y-41485D01*
X20790D01*
X21614Y-43499D01*
D02*
G37*
G36*
X18881Y-41488D02*
X18907D01*
X18968Y-41491D01*
X19032Y-41499D01*
X19102Y-41508D01*
X19166Y-41523D01*
X19198Y-41531D01*
X19225Y-41540D01*
X19227D01*
X19230Y-41543D01*
X19248Y-41552D01*
X19274Y-41563D01*
X19306Y-41584D01*
X19341Y-41610D01*
X19379Y-41645D01*
X19414Y-41686D01*
X19449Y-41732D01*
Y-41735D01*
X19452Y-41738D01*
X19463Y-41756D01*
X19475Y-41785D01*
X19492Y-41822D01*
X19507Y-41866D01*
X19521Y-41918D01*
X19530Y-41974D01*
X19533Y-42035D01*
Y-42038D01*
Y-42044D01*
Y-42055D01*
X19530Y-42070D01*
Y-42090D01*
X19527Y-42110D01*
X19515Y-42160D01*
X19498Y-42218D01*
X19475Y-42279D01*
X19440Y-42340D01*
X19417Y-42369D01*
X19393Y-42399D01*
X19390Y-42401D01*
X19387Y-42404D01*
X19379Y-42413D01*
X19367Y-42422D01*
X19353Y-42434D01*
X19335Y-42445D01*
X19312Y-42460D01*
X19288Y-42477D01*
X19259Y-42492D01*
X19227Y-42506D01*
X19193Y-42524D01*
X19155Y-42538D01*
X19111Y-42550D01*
X19067Y-42564D01*
X19018Y-42573D01*
X18966Y-42582D01*
X18971Y-42585D01*
X18983Y-42591D01*
X19000Y-42602D01*
X19024Y-42614D01*
X19076Y-42646D01*
X19102Y-42666D01*
X19126Y-42684D01*
X19131Y-42690D01*
X19146Y-42704D01*
X19169Y-42727D01*
X19198Y-42757D01*
X19230Y-42797D01*
X19268Y-42841D01*
X19306Y-42893D01*
X19347Y-42952D01*
X19693Y-43499D01*
X19361D01*
X19096Y-43080D01*
Y-43077D01*
X19091Y-43071D01*
X19085Y-43062D01*
X19076Y-43050D01*
X19056Y-43018D01*
X19029Y-42978D01*
X18997Y-42934D01*
X18966Y-42887D01*
X18934Y-42844D01*
X18904Y-42803D01*
X18902Y-42800D01*
X18893Y-42788D01*
X18878Y-42771D01*
X18858Y-42751D01*
X18814Y-42707D01*
X18791Y-42687D01*
X18768Y-42669D01*
X18765Y-42666D01*
X18759Y-42663D01*
X18747Y-42658D01*
X18730Y-42649D01*
X18712Y-42640D01*
X18692Y-42631D01*
X18645Y-42617D01*
X18643D01*
X18637Y-42614D01*
X18625D01*
X18610Y-42611D01*
X18590Y-42608D01*
X18567D01*
X18535Y-42605D01*
X18192D01*
Y-43499D01*
X17924D01*
Y-41485D01*
X18858D01*
X18881Y-41488D01*
D02*
G37*
G36*
X16844D02*
X16867D01*
X16920Y-41494D01*
X16978Y-41499D01*
X17039Y-41511D01*
X17100Y-41526D01*
X17155Y-41546D01*
X17158D01*
X17161Y-41549D01*
X17179Y-41558D01*
X17205Y-41572D01*
X17234Y-41592D01*
X17269Y-41619D01*
X17307Y-41651D01*
X17342Y-41691D01*
X17374Y-41735D01*
X17377Y-41741D01*
X17385Y-41758D01*
X17400Y-41782D01*
X17414Y-41817D01*
X17429Y-41857D01*
X17444Y-41901D01*
X17452Y-41950D01*
X17455Y-42000D01*
Y-42006D01*
Y-42020D01*
X17452Y-42046D01*
X17447Y-42079D01*
X17438Y-42116D01*
X17423Y-42157D01*
X17406Y-42198D01*
X17382Y-42241D01*
X17380Y-42247D01*
X17371Y-42259D01*
X17353Y-42282D01*
X17330Y-42305D01*
X17301Y-42335D01*
X17266Y-42367D01*
X17222Y-42396D01*
X17173Y-42425D01*
X17176D01*
X17182Y-42428D01*
X17190Y-42431D01*
X17202Y-42436D01*
X17237Y-42448D01*
X17278Y-42468D01*
X17321Y-42495D01*
X17371Y-42527D01*
X17414Y-42564D01*
X17455Y-42611D01*
X17458Y-42617D01*
X17470Y-42634D01*
X17487Y-42660D01*
X17505Y-42695D01*
X17522Y-42742D01*
X17540Y-42791D01*
X17551Y-42850D01*
X17554Y-42914D01*
Y-42917D01*
Y-42919D01*
Y-42937D01*
X17551Y-42966D01*
X17545Y-43001D01*
X17540Y-43042D01*
X17528Y-43085D01*
X17513Y-43132D01*
X17493Y-43178D01*
X17490Y-43184D01*
X17481Y-43199D01*
X17470Y-43219D01*
X17452Y-43248D01*
X17429Y-43277D01*
X17406Y-43309D01*
X17377Y-43341D01*
X17345Y-43368D01*
X17342Y-43371D01*
X17330Y-43379D01*
X17310Y-43391D01*
X17284Y-43402D01*
X17252Y-43420D01*
X17214Y-43437D01*
X17173Y-43452D01*
X17123Y-43466D01*
X17118D01*
X17100Y-43472D01*
X17071Y-43475D01*
X17033Y-43481D01*
X16987Y-43487D01*
X16931Y-43493D01*
X16870Y-43496D01*
X16801Y-43499D01*
X16032D01*
Y-41485D01*
X16824D01*
X16844Y-41488D01*
D02*
G37*
G36*
X47891D02*
X47940Y-41491D01*
X47993Y-41494D01*
X48042Y-41499D01*
X48086Y-41505D01*
X48092D01*
X48112Y-41511D01*
X48138Y-41517D01*
X48173Y-41526D01*
X48211Y-41540D01*
X48252Y-41558D01*
X48295Y-41578D01*
X48333Y-41601D01*
X48339Y-41604D01*
X48351Y-41613D01*
X48368Y-41630D01*
X48391Y-41651D01*
X48418Y-41677D01*
X48444Y-41712D01*
X48473Y-41750D01*
X48496Y-41793D01*
X48499Y-41799D01*
X48505Y-41814D01*
X48517Y-41840D01*
X48528Y-41875D01*
X48537Y-41916D01*
X48549Y-41962D01*
X48554Y-42014D01*
X48557Y-42070D01*
Y-42073D01*
Y-42081D01*
Y-42093D01*
X48554Y-42113D01*
X48551Y-42134D01*
X48549Y-42160D01*
X48543Y-42189D01*
X48537Y-42221D01*
X48517Y-42288D01*
X48505Y-42323D01*
X48487Y-42361D01*
X48467Y-42399D01*
X48447Y-42434D01*
X48421Y-42468D01*
X48391Y-42503D01*
X48388Y-42506D01*
X48383Y-42512D01*
X48374Y-42521D01*
X48359Y-42529D01*
X48342Y-42544D01*
X48319Y-42559D01*
X48290Y-42576D01*
X48258Y-42591D01*
X48220Y-42608D01*
X48176Y-42625D01*
X48129Y-42640D01*
X48074Y-42652D01*
X48016Y-42663D01*
X47952Y-42672D01*
X47879Y-42678D01*
X47804Y-42681D01*
X47289D01*
Y-43499D01*
X47021D01*
Y-41485D01*
X47847D01*
X47891Y-41488D01*
D02*
G37*
G36*
X49727Y-43499D02*
X49480D01*
Y-41924D01*
X49477Y-41927D01*
X49462Y-41939D01*
X49445Y-41956D01*
X49416Y-41977D01*
X49384Y-42003D01*
X49343Y-42032D01*
X49296Y-42064D01*
X49244Y-42096D01*
X49241D01*
X49238Y-42099D01*
X49221Y-42110D01*
X49192Y-42125D01*
X49157Y-42143D01*
X49116Y-42163D01*
X49072Y-42183D01*
X49029Y-42204D01*
X48985Y-42221D01*
Y-41982D01*
X48988D01*
X48994Y-41977D01*
X49005Y-41974D01*
X49020Y-41965D01*
X49038Y-41956D01*
X49058Y-41945D01*
X49107Y-41916D01*
X49165Y-41884D01*
X49224Y-41843D01*
X49285Y-41796D01*
X49346Y-41747D01*
X49349Y-41744D01*
X49352Y-41741D01*
X49360Y-41732D01*
X49372Y-41723D01*
X49398Y-41694D01*
X49433Y-41659D01*
X49468Y-41619D01*
X49506Y-41572D01*
X49538Y-41526D01*
X49567Y-41476D01*
X49727D01*
Y-43499D01*
D02*
G37*
G36*
X24660Y-41488D02*
X24684D01*
X24736Y-41494D01*
X24794Y-41499D01*
X24855Y-41511D01*
X24916Y-41526D01*
X24972Y-41546D01*
X24975D01*
X24978Y-41549D01*
X24995Y-41558D01*
X25021Y-41572D01*
X25050Y-41592D01*
X25085Y-41619D01*
X25123Y-41651D01*
X25158Y-41691D01*
X25190Y-41735D01*
X25193Y-41741D01*
X25202Y-41758D01*
X25216Y-41782D01*
X25231Y-41817D01*
X25245Y-41857D01*
X25260Y-41901D01*
X25269Y-41950D01*
X25271Y-42000D01*
Y-42006D01*
Y-42020D01*
X25269Y-42046D01*
X25263Y-42079D01*
X25254Y-42116D01*
X25240Y-42157D01*
X25222Y-42198D01*
X25199Y-42241D01*
X25196Y-42247D01*
X25187Y-42259D01*
X25170Y-42282D01*
X25146Y-42305D01*
X25117Y-42335D01*
X25082Y-42367D01*
X25039Y-42396D01*
X24989Y-42425D01*
X24992D01*
X24998Y-42428D01*
X25007Y-42431D01*
X25018Y-42436D01*
X25053Y-42448D01*
X25094Y-42468D01*
X25138Y-42495D01*
X25187Y-42527D01*
X25231Y-42564D01*
X25271Y-42611D01*
X25274Y-42617D01*
X25286Y-42634D01*
X25304Y-42660D01*
X25321Y-42695D01*
X25338Y-42742D01*
X25356Y-42791D01*
X25368Y-42850D01*
X25370Y-42914D01*
Y-42917D01*
Y-42919D01*
Y-42937D01*
X25368Y-42966D01*
X25362Y-43001D01*
X25356Y-43042D01*
X25344Y-43085D01*
X25330Y-43132D01*
X25309Y-43178D01*
X25306Y-43184D01*
X25298Y-43199D01*
X25286Y-43219D01*
X25269Y-43248D01*
X25245Y-43277D01*
X25222Y-43309D01*
X25193Y-43341D01*
X25161Y-43368D01*
X25158Y-43371D01*
X25146Y-43379D01*
X25126Y-43391D01*
X25100Y-43402D01*
X25068Y-43420D01*
X25030Y-43437D01*
X24989Y-43452D01*
X24940Y-43466D01*
X24934D01*
X24916Y-43472D01*
X24887Y-43475D01*
X24849Y-43481D01*
X24803Y-43487D01*
X24748Y-43493D01*
X24687Y-43496D01*
X24617Y-43499D01*
X23848D01*
Y-41485D01*
X24640D01*
X24660Y-41488D01*
D02*
G37*
G36*
X107558Y-24717D02*
X106728D01*
Y-26937D01*
X106393D01*
Y-24717D01*
X105563D01*
Y-24418D01*
X107558D01*
Y-24717D01*
D02*
G37*
G36*
X108992Y-24422D02*
X109054Y-24425D01*
X109119Y-24429D01*
X109181Y-24436D01*
X109236Y-24444D01*
X109243D01*
X109268Y-24451D01*
X109301Y-24458D01*
X109345Y-24469D01*
X109392Y-24487D01*
X109443Y-24509D01*
X109498Y-24535D01*
X109545Y-24564D01*
X109552Y-24567D01*
X109567Y-24578D01*
X109589Y-24600D01*
X109618Y-24626D01*
X109651Y-24658D01*
X109684Y-24702D01*
X109720Y-24749D01*
X109749Y-24804D01*
X109753Y-24811D01*
X109760Y-24829D01*
X109774Y-24862D01*
X109789Y-24906D01*
X109800Y-24957D01*
X109815Y-25015D01*
X109822Y-25081D01*
X109825Y-25150D01*
Y-25153D01*
Y-25164D01*
Y-25179D01*
X109822Y-25204D01*
X109818Y-25230D01*
X109815Y-25263D01*
X109807Y-25299D01*
X109800Y-25339D01*
X109774Y-25423D01*
X109760Y-25466D01*
X109738Y-25514D01*
X109713Y-25561D01*
X109687Y-25605D01*
X109654Y-25648D01*
X109618Y-25692D01*
X109614Y-25696D01*
X109607Y-25703D01*
X109596Y-25714D01*
X109578Y-25725D01*
X109556Y-25743D01*
X109527Y-25761D01*
X109491Y-25783D01*
X109450Y-25801D01*
X109403Y-25823D01*
X109349Y-25845D01*
X109290Y-25863D01*
X109221Y-25878D01*
X109148Y-25892D01*
X109068Y-25903D01*
X108977Y-25910D01*
X108883Y-25914D01*
X108238D01*
Y-26937D01*
X107904D01*
Y-24418D01*
X108937D01*
X108992Y-24422D01*
D02*
G37*
G36*
X17950Y-44557D02*
X17994Y-44560D01*
X18043Y-44566D01*
X18092Y-44575D01*
X18142Y-44586D01*
X18189Y-44601D01*
X18194Y-44604D01*
X18209Y-44610D01*
X18229Y-44618D01*
X18256Y-44630D01*
X18285Y-44647D01*
X18314Y-44665D01*
X18340Y-44688D01*
X18363Y-44712D01*
X18366Y-44714D01*
X18372Y-44723D01*
X18381Y-44738D01*
X18392Y-44755D01*
X18407Y-44781D01*
X18418Y-44807D01*
X18430Y-44840D01*
X18439Y-44877D01*
Y-44880D01*
X18442Y-44889D01*
X18445Y-44906D01*
X18448Y-44930D01*
Y-44962D01*
X18450Y-45000D01*
X18453Y-45049D01*
Y-45104D01*
Y-45436D01*
Y-45439D01*
Y-45451D01*
Y-45468D01*
Y-45491D01*
Y-45518D01*
Y-45550D01*
X18456Y-45619D01*
Y-45692D01*
X18459Y-45765D01*
X18462Y-45797D01*
Y-45826D01*
X18465Y-45852D01*
X18468Y-45873D01*
Y-45875D01*
X18471Y-45887D01*
X18474Y-45905D01*
X18482Y-45928D01*
X18488Y-45954D01*
X18500Y-45983D01*
X18514Y-46015D01*
X18529Y-46047D01*
X18270D01*
X18267Y-46044D01*
X18264Y-46033D01*
X18258Y-46018D01*
X18250Y-45995D01*
X18241Y-45969D01*
X18235Y-45937D01*
X18229Y-45902D01*
X18223Y-45864D01*
X18221D01*
X18218Y-45870D01*
X18200Y-45884D01*
X18174Y-45905D01*
X18139Y-45931D01*
X18095Y-45957D01*
X18052Y-45986D01*
X18005Y-46012D01*
X17956Y-46033D01*
X17950Y-46036D01*
X17932Y-46038D01*
X17906Y-46047D01*
X17874Y-46056D01*
X17833Y-46065D01*
X17787Y-46071D01*
X17735Y-46076D01*
X17682Y-46079D01*
X17659D01*
X17641Y-46076D01*
X17621D01*
X17598Y-46073D01*
X17545Y-46065D01*
X17487Y-46050D01*
X17423Y-46030D01*
X17365Y-46001D01*
X17313Y-45963D01*
X17307Y-45957D01*
X17292Y-45942D01*
X17272Y-45916D01*
X17249Y-45881D01*
X17225Y-45838D01*
X17205Y-45788D01*
X17190Y-45727D01*
X17188Y-45698D01*
X17185Y-45663D01*
Y-45657D01*
Y-45646D01*
X17188Y-45625D01*
X17190Y-45599D01*
X17196Y-45567D01*
X17205Y-45535D01*
X17217Y-45500D01*
X17231Y-45468D01*
X17234Y-45465D01*
X17240Y-45454D01*
X17252Y-45436D01*
X17266Y-45416D01*
X17284Y-45392D01*
X17307Y-45369D01*
X17330Y-45346D01*
X17359Y-45325D01*
X17362Y-45323D01*
X17374Y-45317D01*
X17388Y-45305D01*
X17412Y-45294D01*
X17438Y-45282D01*
X17470Y-45267D01*
X17502Y-45256D01*
X17540Y-45244D01*
X17542D01*
X17554Y-45241D01*
X17572Y-45235D01*
X17595Y-45232D01*
X17624Y-45227D01*
X17662Y-45221D01*
X17706Y-45212D01*
X17758Y-45206D01*
X17761D01*
X17772Y-45203D01*
X17787D01*
X17807Y-45200D01*
X17831Y-45197D01*
X17860Y-45192D01*
X17892Y-45189D01*
X17927Y-45183D01*
X17997Y-45168D01*
X18072Y-45154D01*
X18139Y-45136D01*
X18171Y-45128D01*
X18200Y-45119D01*
Y-45116D01*
Y-45110D01*
X18203Y-45093D01*
Y-45072D01*
Y-45061D01*
Y-45055D01*
Y-45052D01*
Y-45049D01*
Y-45032D01*
X18200Y-45002D01*
X18194Y-44971D01*
X18186Y-44936D01*
X18171Y-44901D01*
X18154Y-44869D01*
X18130Y-44842D01*
X18127Y-44840D01*
X18113Y-44828D01*
X18090Y-44816D01*
X18060Y-44799D01*
X18020Y-44784D01*
X17973Y-44770D01*
X17915Y-44761D01*
X17848Y-44758D01*
X17819D01*
X17790Y-44761D01*
X17749Y-44767D01*
X17708Y-44773D01*
X17665Y-44784D01*
X17624Y-44799D01*
X17589Y-44819D01*
X17586Y-44822D01*
X17574Y-44831D01*
X17560Y-44845D01*
X17542Y-44869D01*
X17525Y-44898D01*
X17505Y-44936D01*
X17487Y-44982D01*
X17470Y-45035D01*
X17228Y-45002D01*
Y-45000D01*
X17231Y-44997D01*
Y-44988D01*
X17234Y-44976D01*
X17243Y-44950D01*
X17254Y-44912D01*
X17269Y-44875D01*
X17286Y-44834D01*
X17310Y-44793D01*
X17336Y-44755D01*
X17339Y-44752D01*
X17350Y-44741D01*
X17368Y-44723D01*
X17391Y-44700D01*
X17423Y-44677D01*
X17461Y-44653D01*
X17505Y-44627D01*
X17554Y-44607D01*
X17557D01*
X17560Y-44604D01*
X17569Y-44601D01*
X17580Y-44598D01*
X17609Y-44589D01*
X17650Y-44581D01*
X17697Y-44572D01*
X17755Y-44563D01*
X17816Y-44557D01*
X17886Y-44554D01*
X17918D01*
X17950Y-44557D01*
D02*
G37*
G36*
X2929Y-23532D02*
X2991Y-23536D01*
X3056Y-23539D01*
X3118Y-23547D01*
X3173Y-23554D01*
X3180D01*
X3206Y-23561D01*
X3238Y-23568D01*
X3282Y-23579D01*
X3329Y-23597D01*
X3380Y-23619D01*
X3435Y-23645D01*
X3482Y-23674D01*
X3489Y-23677D01*
X3504Y-23688D01*
X3526Y-23710D01*
X3555Y-23736D01*
X3588Y-23768D01*
X3621Y-23812D01*
X3657Y-23859D01*
X3686Y-23914D01*
X3690Y-23921D01*
X3697Y-23940D01*
X3712Y-23972D01*
X3726Y-24016D01*
X3737Y-24067D01*
X3751Y-24125D01*
X3759Y-24191D01*
X3762Y-24260D01*
Y-24264D01*
Y-24274D01*
Y-24289D01*
X3759Y-24315D01*
X3755Y-24340D01*
X3751Y-24373D01*
X3744Y-24409D01*
X3737Y-24449D01*
X3712Y-24533D01*
X3697Y-24577D01*
X3675Y-24624D01*
X3650Y-24671D01*
X3624Y-24715D01*
X3591Y-24759D01*
X3555Y-24802D01*
X3551Y-24806D01*
X3544Y-24813D01*
X3533Y-24824D01*
X3515Y-24835D01*
X3493Y-24853D01*
X3464Y-24871D01*
X3428Y-24893D01*
X3387Y-24912D01*
X3340Y-24933D01*
X3286Y-24955D01*
X3227Y-24973D01*
X3158Y-24988D01*
X3085Y-25003D01*
X3005Y-25013D01*
X2914Y-25021D01*
X2820Y-25024D01*
X2175D01*
Y-26047D01*
X1840D01*
Y-23528D01*
X2874D01*
X2929Y-23532D01*
D02*
G37*
G36*
X4956Y-23521D02*
X4986Y-23525D01*
X5022Y-23528D01*
X5062Y-23536D01*
X5102Y-23543D01*
X5197Y-23568D01*
X5291Y-23605D01*
X5339Y-23627D01*
X5386Y-23652D01*
X5430Y-23685D01*
X5470Y-23721D01*
X5473Y-23725D01*
X5480Y-23729D01*
X5488Y-23743D01*
X5502Y-23758D01*
X5521Y-23776D01*
X5539Y-23801D01*
X5557Y-23827D01*
X5579Y-23859D01*
X5615Y-23929D01*
X5652Y-24016D01*
X5666Y-24060D01*
X5673Y-24111D01*
X5681Y-24162D01*
X5684Y-24216D01*
Y-24224D01*
Y-24242D01*
X5681Y-24271D01*
X5677Y-24311D01*
X5670Y-24355D01*
X5655Y-24406D01*
X5641Y-24460D01*
X5619Y-24515D01*
X5615Y-24522D01*
X5608Y-24540D01*
X5593Y-24569D01*
X5571Y-24609D01*
X5542Y-24653D01*
X5506Y-24708D01*
X5462Y-24762D01*
X5411Y-24824D01*
X5404Y-24831D01*
X5386Y-24853D01*
X5368Y-24871D01*
X5350Y-24890D01*
X5328Y-24912D01*
X5299Y-24941D01*
X5269Y-24970D01*
X5233Y-25003D01*
X5197Y-25039D01*
X5153Y-25079D01*
X5106Y-25119D01*
X5055Y-25166D01*
X4996Y-25214D01*
X4938Y-25265D01*
X4935Y-25268D01*
X4927Y-25275D01*
X4913Y-25286D01*
X4894Y-25301D01*
X4873Y-25323D01*
X4847Y-25345D01*
X4789Y-25392D01*
X4727Y-25447D01*
X4669Y-25501D01*
X4618Y-25548D01*
X4596Y-25567D01*
X4578Y-25585D01*
X4574Y-25589D01*
X4563Y-25600D01*
X4549Y-25614D01*
X4530Y-25636D01*
X4512Y-25661D01*
X4490Y-25687D01*
X4447Y-25749D01*
X5688D01*
Y-26047D01*
X4017D01*
Y-26043D01*
Y-26029D01*
Y-26007D01*
X4021Y-25978D01*
X4025Y-25945D01*
X4032Y-25909D01*
X4039Y-25872D01*
X4054Y-25832D01*
Y-25829D01*
X4057Y-25825D01*
X4065Y-25803D01*
X4079Y-25771D01*
X4101Y-25727D01*
X4130Y-25676D01*
X4166Y-25618D01*
X4206Y-25559D01*
X4258Y-25497D01*
Y-25494D01*
X4265Y-25490D01*
X4283Y-25468D01*
X4316Y-25436D01*
X4363Y-25388D01*
X4418Y-25334D01*
X4487Y-25268D01*
X4571Y-25195D01*
X4662Y-25119D01*
X4665Y-25115D01*
X4680Y-25104D01*
X4702Y-25086D01*
X4727Y-25064D01*
X4760Y-25035D01*
X4800Y-25003D01*
X4840Y-24966D01*
X4887Y-24926D01*
X4978Y-24839D01*
X5069Y-24751D01*
X5113Y-24708D01*
X5153Y-24664D01*
X5189Y-24624D01*
X5218Y-24584D01*
Y-24580D01*
X5226Y-24577D01*
X5233Y-24566D01*
X5240Y-24551D01*
X5266Y-24511D01*
X5295Y-24464D01*
X5320Y-24406D01*
X5346Y-24344D01*
X5360Y-24274D01*
X5368Y-24209D01*
Y-24205D01*
Y-24202D01*
X5364Y-24180D01*
X5360Y-24144D01*
X5350Y-24103D01*
X5335Y-24053D01*
X5309Y-24002D01*
X5277Y-23950D01*
X5233Y-23900D01*
X5226Y-23892D01*
X5207Y-23878D01*
X5182Y-23859D01*
X5142Y-23834D01*
X5091Y-23812D01*
X5033Y-23790D01*
X4964Y-23776D01*
X4887Y-23772D01*
X4865D01*
X4851Y-23776D01*
X4807Y-23779D01*
X4756Y-23790D01*
X4702Y-23805D01*
X4640Y-23830D01*
X4581Y-23863D01*
X4527Y-23907D01*
X4520Y-23914D01*
X4505Y-23932D01*
X4483Y-23961D01*
X4461Y-24005D01*
X4436Y-24056D01*
X4414Y-24122D01*
X4399Y-24194D01*
X4392Y-24278D01*
X4075Y-24245D01*
Y-24242D01*
X4079Y-24231D01*
Y-24213D01*
X4083Y-24187D01*
X4090Y-24158D01*
X4097Y-24125D01*
X4108Y-24085D01*
X4119Y-24045D01*
X4148Y-23958D01*
X4192Y-23870D01*
X4217Y-23827D01*
X4250Y-23783D01*
X4283Y-23743D01*
X4319Y-23707D01*
X4323Y-23703D01*
X4330Y-23699D01*
X4341Y-23688D01*
X4359Y-23677D01*
X4381Y-23663D01*
X4407Y-23648D01*
X4436Y-23630D01*
X4472Y-23612D01*
X4512Y-23594D01*
X4556Y-23576D01*
X4603Y-23561D01*
X4654Y-23547D01*
X4709Y-23536D01*
X4767Y-23525D01*
X4829Y-23521D01*
X4894Y-23517D01*
X4931D01*
X4956Y-23521D01*
D02*
G37*
G36*
X23578Y-44557D02*
X23621Y-44560D01*
X23671Y-44566D01*
X23720Y-44575D01*
X23770Y-44586D01*
X23817Y-44601D01*
X23822Y-44604D01*
X23837Y-44610D01*
X23857Y-44618D01*
X23883Y-44630D01*
X23912Y-44647D01*
X23942Y-44665D01*
X23968Y-44688D01*
X23991Y-44712D01*
X23994Y-44714D01*
X24000Y-44723D01*
X24009Y-44738D01*
X24020Y-44755D01*
X24035Y-44781D01*
X24046Y-44807D01*
X24058Y-44840D01*
X24067Y-44877D01*
Y-44880D01*
X24070Y-44889D01*
X24073Y-44906D01*
X24076Y-44930D01*
Y-44962D01*
X24078Y-45000D01*
X24081Y-45049D01*
Y-45104D01*
Y-45436D01*
Y-45439D01*
Y-45451D01*
Y-45468D01*
Y-45491D01*
Y-45518D01*
Y-45550D01*
X24084Y-45619D01*
Y-45692D01*
X24087Y-45765D01*
X24090Y-45797D01*
Y-45826D01*
X24093Y-45852D01*
X24096Y-45873D01*
Y-45875D01*
X24099Y-45887D01*
X24102Y-45905D01*
X24110Y-45928D01*
X24116Y-45954D01*
X24128Y-45983D01*
X24142Y-46015D01*
X24157Y-46047D01*
X23898D01*
X23895Y-46044D01*
X23892Y-46033D01*
X23886Y-46018D01*
X23878Y-45995D01*
X23869Y-45969D01*
X23863Y-45937D01*
X23857Y-45902D01*
X23851Y-45864D01*
X23848D01*
X23846Y-45870D01*
X23828Y-45884D01*
X23802Y-45905D01*
X23767Y-45931D01*
X23723Y-45957D01*
X23680Y-45986D01*
X23633Y-46012D01*
X23584Y-46033D01*
X23578Y-46036D01*
X23560Y-46038D01*
X23534Y-46047D01*
X23502Y-46056D01*
X23461Y-46065D01*
X23415Y-46071D01*
X23362Y-46076D01*
X23310Y-46079D01*
X23287D01*
X23269Y-46076D01*
X23249D01*
X23226Y-46073D01*
X23173Y-46065D01*
X23115Y-46050D01*
X23051Y-46030D01*
X22993Y-46001D01*
X22941Y-45963D01*
X22935Y-45957D01*
X22920Y-45942D01*
X22900Y-45916D01*
X22876Y-45881D01*
X22853Y-45838D01*
X22833Y-45788D01*
X22818Y-45727D01*
X22815Y-45698D01*
X22813Y-45663D01*
Y-45657D01*
Y-45646D01*
X22815Y-45625D01*
X22818Y-45599D01*
X22824Y-45567D01*
X22833Y-45535D01*
X22844Y-45500D01*
X22859Y-45468D01*
X22862Y-45465D01*
X22868Y-45454D01*
X22879Y-45436D01*
X22894Y-45416D01*
X22911Y-45392D01*
X22935Y-45369D01*
X22958Y-45346D01*
X22987Y-45325D01*
X22990Y-45323D01*
X23002Y-45317D01*
X23016Y-45305D01*
X23040Y-45294D01*
X23066Y-45282D01*
X23098Y-45267D01*
X23130Y-45256D01*
X23167Y-45244D01*
X23170D01*
X23182Y-45241D01*
X23200Y-45235D01*
X23223Y-45232D01*
X23252Y-45227D01*
X23290Y-45221D01*
X23333Y-45212D01*
X23386Y-45206D01*
X23389D01*
X23400Y-45203D01*
X23415D01*
X23435Y-45200D01*
X23459Y-45197D01*
X23488Y-45192D01*
X23520Y-45189D01*
X23555Y-45183D01*
X23624Y-45168D01*
X23700Y-45154D01*
X23767Y-45136D01*
X23799Y-45128D01*
X23828Y-45119D01*
Y-45116D01*
Y-45110D01*
X23831Y-45093D01*
Y-45072D01*
Y-45061D01*
Y-45055D01*
Y-45052D01*
Y-45049D01*
Y-45032D01*
X23828Y-45002D01*
X23822Y-44971D01*
X23814Y-44936D01*
X23799Y-44901D01*
X23781Y-44869D01*
X23758Y-44842D01*
X23755Y-44840D01*
X23741Y-44828D01*
X23718Y-44816D01*
X23688Y-44799D01*
X23648Y-44784D01*
X23601Y-44770D01*
X23543Y-44761D01*
X23476Y-44758D01*
X23447D01*
X23418Y-44761D01*
X23377Y-44767D01*
X23336Y-44773D01*
X23293Y-44784D01*
X23252Y-44799D01*
X23217Y-44819D01*
X23214Y-44822D01*
X23202Y-44831D01*
X23188Y-44845D01*
X23170Y-44869D01*
X23153Y-44898D01*
X23133Y-44936D01*
X23115Y-44982D01*
X23098Y-45035D01*
X22856Y-45002D01*
Y-45000D01*
X22859Y-44997D01*
Y-44988D01*
X22862Y-44976D01*
X22871Y-44950D01*
X22882Y-44912D01*
X22897Y-44875D01*
X22914Y-44834D01*
X22938Y-44793D01*
X22964Y-44755D01*
X22967Y-44752D01*
X22978Y-44741D01*
X22996Y-44723D01*
X23019Y-44700D01*
X23051Y-44677D01*
X23089Y-44653D01*
X23133Y-44627D01*
X23182Y-44607D01*
X23185D01*
X23188Y-44604D01*
X23197Y-44601D01*
X23208Y-44598D01*
X23237Y-44589D01*
X23278Y-44581D01*
X23325Y-44572D01*
X23383Y-44563D01*
X23444Y-44557D01*
X23514Y-44554D01*
X23546D01*
X23578Y-44557D01*
D02*
G37*
G36*
X111423Y-15549D02*
X111766D01*
Y-15833D01*
X111423D01*
Y-16437D01*
X111114D01*
Y-15833D01*
X110018D01*
Y-15549D01*
X111172Y-13918D01*
X111423D01*
Y-15549D01*
D02*
G37*
G36*
X15319Y-46047D02*
X15072D01*
Y-44034D01*
X15319D01*
Y-46047D01*
D02*
G37*
G36*
X16349Y-44557D02*
X16373Y-44560D01*
X16402Y-44566D01*
X16434Y-44572D01*
X16472Y-44581D01*
X16507Y-44589D01*
X16547Y-44604D01*
X16585Y-44618D01*
X16626Y-44639D01*
X16667Y-44662D01*
X16707Y-44688D01*
X16745Y-44720D01*
X16780Y-44755D01*
X16783Y-44758D01*
X16789Y-44764D01*
X16798Y-44776D01*
X16809Y-44793D01*
X16824Y-44813D01*
X16838Y-44837D01*
X16856Y-44866D01*
X16873Y-44901D01*
X16891Y-44938D01*
X16908Y-44979D01*
X16923Y-45026D01*
X16937Y-45075D01*
X16949Y-45131D01*
X16958Y-45189D01*
X16963Y-45250D01*
X16966Y-45317D01*
Y-45320D01*
Y-45331D01*
Y-45352D01*
X16963Y-45381D01*
X15872D01*
Y-45384D01*
Y-45392D01*
X15875Y-45404D01*
Y-45421D01*
X15878Y-45442D01*
X15884Y-45465D01*
X15892Y-45518D01*
X15910Y-45576D01*
X15933Y-45640D01*
X15965Y-45698D01*
X16006Y-45750D01*
X16009D01*
X16012Y-45756D01*
X16029Y-45771D01*
X16056Y-45791D01*
X16090Y-45812D01*
X16137Y-45835D01*
X16189Y-45855D01*
X16248Y-45870D01*
X16280Y-45873D01*
X16315Y-45875D01*
X16338D01*
X16364Y-45873D01*
X16396Y-45867D01*
X16431Y-45858D01*
X16472Y-45846D01*
X16510Y-45829D01*
X16547Y-45806D01*
X16550Y-45803D01*
X16565Y-45791D01*
X16582Y-45774D01*
X16603Y-45750D01*
X16626Y-45718D01*
X16652Y-45678D01*
X16678Y-45631D01*
X16702Y-45576D01*
X16958Y-45608D01*
Y-45611D01*
X16955Y-45616D01*
X16952Y-45628D01*
X16946Y-45646D01*
X16937Y-45663D01*
X16928Y-45686D01*
X16905Y-45736D01*
X16876Y-45791D01*
X16835Y-45849D01*
X16789Y-45905D01*
X16731Y-45957D01*
X16728D01*
X16722Y-45963D01*
X16713Y-45969D01*
X16702Y-45977D01*
X16684Y-45986D01*
X16667Y-45995D01*
X16643Y-46006D01*
X16617Y-46018D01*
X16588Y-46030D01*
X16559Y-46041D01*
X16486Y-46059D01*
X16405Y-46073D01*
X16315Y-46079D01*
X16283D01*
X16262Y-46076D01*
X16236Y-46073D01*
X16204Y-46068D01*
X16169Y-46062D01*
X16131Y-46056D01*
X16050Y-46033D01*
X16006Y-46015D01*
X15965Y-45998D01*
X15922Y-45974D01*
X15881Y-45948D01*
X15843Y-45919D01*
X15805Y-45884D01*
X15802Y-45881D01*
X15797Y-45875D01*
X15788Y-45864D01*
X15776Y-45846D01*
X15762Y-45826D01*
X15747Y-45803D01*
X15730Y-45774D01*
X15712Y-45742D01*
X15695Y-45704D01*
X15677Y-45663D01*
X15663Y-45616D01*
X15648Y-45567D01*
X15637Y-45515D01*
X15628Y-45456D01*
X15622Y-45395D01*
X15619Y-45331D01*
Y-45328D01*
Y-45314D01*
Y-45296D01*
X15622Y-45270D01*
X15625Y-45238D01*
X15628Y-45203D01*
X15633Y-45162D01*
X15642Y-45122D01*
X15666Y-45029D01*
X15680Y-44982D01*
X15698Y-44933D01*
X15721Y-44886D01*
X15747Y-44842D01*
X15776Y-44799D01*
X15808Y-44758D01*
X15811Y-44755D01*
X15817Y-44749D01*
X15829Y-44741D01*
X15843Y-44726D01*
X15860Y-44712D01*
X15884Y-44694D01*
X15910Y-44674D01*
X15942Y-44656D01*
X15974Y-44636D01*
X16012Y-44618D01*
X16053Y-44601D01*
X16096Y-44586D01*
X16143Y-44572D01*
X16192Y-44563D01*
X16245Y-44557D01*
X16300Y-44554D01*
X16329D01*
X16349Y-44557D01*
D02*
G37*
G36*
X110990Y-24411D02*
X111038Y-24418D01*
X111096Y-24429D01*
X111161Y-24447D01*
X111227Y-24469D01*
X111292Y-24498D01*
X111296D01*
X111300Y-24502D01*
X111321Y-24513D01*
X111354Y-24535D01*
X111391Y-24560D01*
X111434Y-24597D01*
X111478Y-24636D01*
X111522Y-24684D01*
X111558Y-24738D01*
X111562Y-24746D01*
X111573Y-24764D01*
X111587Y-24797D01*
X111605Y-24837D01*
X111624Y-24884D01*
X111638Y-24939D01*
X111649Y-25001D01*
X111653Y-25062D01*
Y-25070D01*
Y-25091D01*
X111649Y-25121D01*
X111642Y-25161D01*
X111631Y-25208D01*
X111613Y-25259D01*
X111591Y-25310D01*
X111562Y-25361D01*
X111558Y-25368D01*
X111547Y-25383D01*
X111525Y-25408D01*
X111496Y-25437D01*
X111460Y-25470D01*
X111416Y-25506D01*
X111365Y-25539D01*
X111303Y-25572D01*
X111307D01*
X111314Y-25576D01*
X111325Y-25579D01*
X111340Y-25583D01*
X111380Y-25598D01*
X111431Y-25619D01*
X111489Y-25648D01*
X111547Y-25685D01*
X111602Y-25732D01*
X111653Y-25787D01*
X111656Y-25794D01*
X111671Y-25816D01*
X111693Y-25852D01*
X111715Y-25900D01*
X111736Y-25958D01*
X111758Y-26027D01*
X111773Y-26107D01*
X111776Y-26195D01*
Y-26198D01*
Y-26209D01*
Y-26227D01*
X111773Y-26249D01*
X111769Y-26278D01*
X111762Y-26311D01*
X111755Y-26347D01*
X111747Y-26387D01*
X111718Y-26475D01*
X111696Y-26522D01*
X111674Y-26566D01*
X111645Y-26613D01*
X111613Y-26660D01*
X111576Y-26708D01*
X111533Y-26751D01*
X111529Y-26755D01*
X111522Y-26762D01*
X111507Y-26773D01*
X111489Y-26788D01*
X111467Y-26806D01*
X111438Y-26824D01*
X111405Y-26846D01*
X111365Y-26864D01*
X111325Y-26886D01*
X111278Y-26908D01*
X111231Y-26926D01*
X111176Y-26944D01*
X111118Y-26959D01*
X111056Y-26970D01*
X110994Y-26977D01*
X110925Y-26981D01*
X110892D01*
X110870Y-26977D01*
X110841Y-26973D01*
X110808Y-26970D01*
X110772Y-26963D01*
X110732Y-26955D01*
X110644Y-26933D01*
X110553Y-26897D01*
X110506Y-26875D01*
X110462Y-26850D01*
X110419Y-26817D01*
X110375Y-26784D01*
X110371Y-26781D01*
X110364Y-26773D01*
X110353Y-26762D01*
X110342Y-26748D01*
X110324Y-26730D01*
X110306Y-26704D01*
X110284Y-26679D01*
X110262Y-26646D01*
X110240Y-26609D01*
X110219Y-26573D01*
X110178Y-26486D01*
X110146Y-26384D01*
X110135Y-26329D01*
X110127Y-26271D01*
X110437Y-26231D01*
Y-26234D01*
X110441Y-26242D01*
X110444Y-26256D01*
X110448Y-26274D01*
X110451Y-26296D01*
X110459Y-26322D01*
X110477Y-26376D01*
X110503Y-26442D01*
X110535Y-26504D01*
X110572Y-26562D01*
X110615Y-26613D01*
X110623Y-26617D01*
X110637Y-26631D01*
X110666Y-26649D01*
X110703Y-26668D01*
X110746Y-26689D01*
X110801Y-26708D01*
X110863Y-26722D01*
X110928Y-26726D01*
X110950D01*
X110965Y-26722D01*
X111005Y-26719D01*
X111056Y-26708D01*
X111114Y-26689D01*
X111176Y-26664D01*
X111238Y-26628D01*
X111296Y-26577D01*
X111303Y-26569D01*
X111321Y-26548D01*
X111343Y-26515D01*
X111372Y-26471D01*
X111401Y-26417D01*
X111423Y-26355D01*
X111442Y-26282D01*
X111449Y-26202D01*
Y-26198D01*
Y-26191D01*
Y-26180D01*
X111445Y-26165D01*
X111442Y-26125D01*
X111431Y-26078D01*
X111416Y-26020D01*
X111391Y-25962D01*
X111354Y-25903D01*
X111307Y-25849D01*
X111300Y-25841D01*
X111281Y-25827D01*
X111252Y-25805D01*
X111212Y-25780D01*
X111161Y-25754D01*
X111099Y-25732D01*
X111030Y-25718D01*
X110954Y-25710D01*
X110921D01*
X110896Y-25714D01*
X110863Y-25718D01*
X110826Y-25725D01*
X110783Y-25732D01*
X110735Y-25743D01*
X110772Y-25470D01*
X110790D01*
X110805Y-25474D01*
X110852D01*
X110892Y-25466D01*
X110939Y-25459D01*
X110994Y-25448D01*
X111056Y-25430D01*
X111114Y-25405D01*
X111176Y-25372D01*
X111179D01*
X111183Y-25368D01*
X111201Y-25354D01*
X111227Y-25328D01*
X111256Y-25295D01*
X111285Y-25248D01*
X111311Y-25194D01*
X111329Y-25132D01*
X111336Y-25095D01*
Y-25055D01*
Y-25052D01*
Y-25048D01*
Y-25026D01*
X111329Y-24997D01*
X111321Y-24957D01*
X111307Y-24913D01*
X111289Y-24866D01*
X111260Y-24818D01*
X111220Y-24775D01*
X111216Y-24771D01*
X111198Y-24757D01*
X111172Y-24738D01*
X111140Y-24717D01*
X111096Y-24698D01*
X111045Y-24680D01*
X110987Y-24666D01*
X110921Y-24662D01*
X110892D01*
X110859Y-24669D01*
X110816Y-24677D01*
X110768Y-24691D01*
X110721Y-24709D01*
X110670Y-24738D01*
X110623Y-24775D01*
X110619Y-24779D01*
X110604Y-24797D01*
X110582Y-24822D01*
X110557Y-24859D01*
X110532Y-24906D01*
X110506Y-24964D01*
X110484Y-25033D01*
X110470Y-25113D01*
X110160Y-25059D01*
Y-25055D01*
X110164Y-25044D01*
X110168Y-25030D01*
X110171Y-25008D01*
X110178Y-24982D01*
X110189Y-24953D01*
X110211Y-24884D01*
X110248Y-24804D01*
X110291Y-24724D01*
X110346Y-24647D01*
X110415Y-24578D01*
X110419Y-24575D01*
X110426Y-24571D01*
X110437Y-24564D01*
X110451Y-24553D01*
X110470Y-24538D01*
X110495Y-24524D01*
X110521Y-24509D01*
X110553Y-24491D01*
X110626Y-24462D01*
X110710Y-24433D01*
X110808Y-24415D01*
X110859Y-24407D01*
X110950D01*
X110990Y-24411D01*
D02*
G37*
G36*
X107558Y-14217D02*
X106728D01*
Y-16437D01*
X106393D01*
Y-14217D01*
X105563D01*
Y-13918D01*
X107558D01*
Y-14217D01*
D02*
G37*
G36*
X108992Y-13922D02*
X109054Y-13925D01*
X109119Y-13929D01*
X109181Y-13936D01*
X109236Y-13944D01*
X109243D01*
X109268Y-13951D01*
X109301Y-13958D01*
X109345Y-13969D01*
X109392Y-13987D01*
X109443Y-14009D01*
X109498Y-14035D01*
X109545Y-14064D01*
X109552Y-14067D01*
X109567Y-14078D01*
X109589Y-14100D01*
X109618Y-14126D01*
X109651Y-14158D01*
X109684Y-14202D01*
X109720Y-14249D01*
X109749Y-14304D01*
X109753Y-14311D01*
X109760Y-14329D01*
X109774Y-14362D01*
X109789Y-14406D01*
X109800Y-14457D01*
X109815Y-14515D01*
X109822Y-14581D01*
X109825Y-14650D01*
Y-14653D01*
Y-14664D01*
Y-14679D01*
X109822Y-14704D01*
X109818Y-14730D01*
X109815Y-14763D01*
X109807Y-14799D01*
X109800Y-14839D01*
X109774Y-14923D01*
X109760Y-14966D01*
X109738Y-15014D01*
X109713Y-15061D01*
X109687Y-15105D01*
X109654Y-15148D01*
X109618Y-15192D01*
X109614Y-15196D01*
X109607Y-15203D01*
X109596Y-15214D01*
X109578Y-15225D01*
X109556Y-15243D01*
X109527Y-15261D01*
X109491Y-15283D01*
X109450Y-15301D01*
X109403Y-15323D01*
X109349Y-15345D01*
X109290Y-15363D01*
X109221Y-15378D01*
X109148Y-15392D01*
X109068Y-15403D01*
X108977Y-15410D01*
X108883Y-15414D01*
X108238D01*
Y-16437D01*
X107904D01*
Y-13918D01*
X108937D01*
X108992Y-13922D01*
D02*
G37*
G36*
X1495Y-23827D02*
X665D01*
Y-26047D01*
X330D01*
Y-23827D01*
X-500D01*
Y-23528D01*
X1495D01*
Y-23827D01*
D02*
G37*
G36*
X31608Y-44255D02*
X31605Y-44258D01*
X31599Y-44263D01*
X31587Y-44275D01*
X31576Y-44293D01*
X31558Y-44313D01*
X31535Y-44336D01*
X31512Y-44365D01*
X31486Y-44400D01*
X31460Y-44435D01*
X31427Y-44476D01*
X31395Y-44522D01*
X31363Y-44569D01*
X31328Y-44621D01*
X31294Y-44677D01*
X31259Y-44738D01*
X31224Y-44799D01*
X31221Y-44802D01*
X31215Y-44813D01*
X31206Y-44831D01*
X31192Y-44857D01*
X31177Y-44889D01*
X31160Y-44924D01*
X31139Y-44965D01*
X31119Y-45011D01*
X31096Y-45064D01*
X31069Y-45116D01*
X31046Y-45174D01*
X31023Y-45235D01*
X30976Y-45360D01*
X30933Y-45494D01*
Y-45497D01*
X30930Y-45506D01*
X30927Y-45520D01*
X30921Y-45538D01*
X30915Y-45561D01*
X30909Y-45590D01*
X30901Y-45622D01*
X30895Y-45657D01*
X30886Y-45698D01*
X30878Y-45742D01*
X30863Y-45835D01*
X30848Y-45937D01*
X30840Y-46047D01*
X30586D01*
Y-46044D01*
Y-46036D01*
Y-46024D01*
X30589Y-46006D01*
Y-45983D01*
X30592Y-45954D01*
X30595Y-45922D01*
X30598Y-45887D01*
X30604Y-45846D01*
X30610Y-45806D01*
X30619Y-45756D01*
X30627Y-45707D01*
X30636Y-45654D01*
X30648Y-45596D01*
X30677Y-45477D01*
Y-45474D01*
X30680Y-45462D01*
X30685Y-45445D01*
X30694Y-45419D01*
X30703Y-45390D01*
X30714Y-45355D01*
X30726Y-45314D01*
X30744Y-45270D01*
X30761Y-45221D01*
X30779Y-45171D01*
X30822Y-45061D01*
X30875Y-44944D01*
X30933Y-44828D01*
X30936Y-44825D01*
X30942Y-44813D01*
X30950Y-44799D01*
X30962Y-44776D01*
X30976Y-44749D01*
X30997Y-44717D01*
X31017Y-44682D01*
X31040Y-44645D01*
X31096Y-44560D01*
X31154Y-44473D01*
X31221Y-44383D01*
X31291Y-44298D01*
X30304D01*
Y-44060D01*
X31608D01*
Y-44255D01*
D02*
G37*
G36*
X38908Y-41479D02*
X38928D01*
X38951Y-41482D01*
X39007Y-41494D01*
X39068Y-41508D01*
X39132Y-41531D01*
X39196Y-41566D01*
X39228Y-41587D01*
X39257Y-41610D01*
X39260Y-41613D01*
X39263Y-41616D01*
X39272Y-41625D01*
X39280Y-41633D01*
X39295Y-41648D01*
X39306Y-41665D01*
X39338Y-41706D01*
X39370Y-41758D01*
X39399Y-41822D01*
X39426Y-41895D01*
X39443Y-41977D01*
X39196Y-41997D01*
Y-41994D01*
X39193Y-41991D01*
X39190Y-41974D01*
X39181Y-41947D01*
X39170Y-41916D01*
X39158Y-41881D01*
X39140Y-41846D01*
X39120Y-41814D01*
X39100Y-41787D01*
X39094Y-41782D01*
X39082Y-41770D01*
X39062Y-41753D01*
X39033Y-41732D01*
X38995Y-41715D01*
X38954Y-41697D01*
X38905Y-41686D01*
X38852Y-41680D01*
X38832D01*
X38809Y-41683D01*
X38783Y-41688D01*
X38748Y-41697D01*
X38713Y-41709D01*
X38678Y-41723D01*
X38643Y-41747D01*
X38637Y-41750D01*
X38623Y-41761D01*
X38602Y-41782D01*
X38576Y-41811D01*
X38547Y-41846D01*
X38515Y-41886D01*
X38486Y-41939D01*
X38457Y-41997D01*
Y-42000D01*
X38454Y-42006D01*
X38451Y-42014D01*
X38445Y-42026D01*
X38442Y-42044D01*
X38436Y-42064D01*
X38431Y-42087D01*
X38425Y-42116D01*
X38416Y-42148D01*
X38410Y-42183D01*
X38404Y-42221D01*
X38401Y-42262D01*
X38396Y-42308D01*
X38393Y-42355D01*
X38390Y-42407D01*
Y-42460D01*
X38393Y-42457D01*
X38404Y-42439D01*
X38425Y-42416D01*
X38451Y-42387D01*
X38480Y-42352D01*
X38518Y-42320D01*
X38559Y-42288D01*
X38605Y-42259D01*
X38608D01*
X38611Y-42256D01*
X38628Y-42247D01*
X38655Y-42239D01*
X38690Y-42224D01*
X38730Y-42212D01*
X38777Y-42204D01*
X38826Y-42195D01*
X38879Y-42192D01*
X38902D01*
X38919Y-42195D01*
X38943Y-42198D01*
X38966Y-42201D01*
X38995Y-42206D01*
X39024Y-42215D01*
X39091Y-42236D01*
X39126Y-42250D01*
X39161Y-42270D01*
X39196Y-42291D01*
X39234Y-42314D01*
X39269Y-42343D01*
X39301Y-42375D01*
X39303Y-42378D01*
X39309Y-42384D01*
X39318Y-42393D01*
X39327Y-42407D01*
X39341Y-42428D01*
X39356Y-42448D01*
X39370Y-42474D01*
X39388Y-42503D01*
X39405Y-42535D01*
X39420Y-42570D01*
X39434Y-42611D01*
X39449Y-42652D01*
X39458Y-42695D01*
X39467Y-42745D01*
X39472Y-42794D01*
X39475Y-42847D01*
Y-42850D01*
Y-42855D01*
Y-42864D01*
Y-42879D01*
X39472Y-42896D01*
Y-42914D01*
X39463Y-42960D01*
X39455Y-43016D01*
X39440Y-43074D01*
X39420Y-43138D01*
X39391Y-43199D01*
Y-43202D01*
X39388Y-43205D01*
X39382Y-43213D01*
X39376Y-43225D01*
X39359Y-43254D01*
X39333Y-43292D01*
X39301Y-43333D01*
X39263Y-43373D01*
X39216Y-43414D01*
X39167Y-43449D01*
X39164D01*
X39161Y-43452D01*
X39152Y-43458D01*
X39140Y-43461D01*
X39111Y-43475D01*
X39074Y-43490D01*
X39024Y-43507D01*
X38969Y-43519D01*
X38908Y-43531D01*
X38841Y-43534D01*
X38826D01*
X38812Y-43531D01*
X38788D01*
X38762Y-43528D01*
X38733Y-43522D01*
X38698Y-43513D01*
X38663Y-43504D01*
X38623Y-43493D01*
X38582Y-43478D01*
X38541Y-43461D01*
X38497Y-43437D01*
X38457Y-43411D01*
X38416Y-43382D01*
X38375Y-43347D01*
X38337Y-43306D01*
X38335Y-43304D01*
X38329Y-43295D01*
X38320Y-43283D01*
X38308Y-43263D01*
X38291Y-43237D01*
X38276Y-43207D01*
X38259Y-43170D01*
X38241Y-43129D01*
X38221Y-43080D01*
X38203Y-43024D01*
X38189Y-42963D01*
X38174Y-42896D01*
X38160Y-42821D01*
X38151Y-42739D01*
X38145Y-42652D01*
X38142Y-42559D01*
Y-42556D01*
Y-42553D01*
Y-42544D01*
Y-42532D01*
X38145Y-42503D01*
Y-42463D01*
X38148Y-42416D01*
X38154Y-42361D01*
X38160Y-42300D01*
X38169Y-42233D01*
X38180Y-42166D01*
X38195Y-42093D01*
X38212Y-42023D01*
X38233Y-41953D01*
X38259Y-41886D01*
X38288Y-41822D01*
X38320Y-41761D01*
X38358Y-41709D01*
X38361Y-41706D01*
X38366Y-41700D01*
X38378Y-41688D01*
X38393Y-41671D01*
X38410Y-41654D01*
X38433Y-41636D01*
X38462Y-41613D01*
X38492Y-41592D01*
X38526Y-41572D01*
X38564Y-41549D01*
X38608Y-41531D01*
X38652Y-41511D01*
X38701Y-41497D01*
X38754Y-41485D01*
X38809Y-41479D01*
X38867Y-41476D01*
X38890D01*
X38908Y-41479D01*
D02*
G37*
G36*
X42039D02*
X42059D01*
X42083Y-41482D01*
X42138Y-41494D01*
X42199Y-41508D01*
X42263Y-41531D01*
X42327Y-41566D01*
X42359Y-41587D01*
X42388Y-41610D01*
X42391Y-41613D01*
X42394Y-41616D01*
X42403Y-41625D01*
X42411Y-41633D01*
X42426Y-41648D01*
X42438Y-41665D01*
X42470Y-41706D01*
X42502Y-41758D01*
X42531Y-41822D01*
X42557Y-41895D01*
X42574Y-41977D01*
X42327Y-41997D01*
Y-41994D01*
X42324Y-41991D01*
X42321Y-41974D01*
X42312Y-41947D01*
X42301Y-41916D01*
X42289Y-41881D01*
X42272Y-41846D01*
X42251Y-41814D01*
X42231Y-41787D01*
X42225Y-41782D01*
X42213Y-41770D01*
X42193Y-41753D01*
X42164Y-41732D01*
X42126Y-41715D01*
X42085Y-41697D01*
X42036Y-41686D01*
X41984Y-41680D01*
X41963D01*
X41940Y-41683D01*
X41914Y-41688D01*
X41879Y-41697D01*
X41844Y-41709D01*
X41809Y-41723D01*
X41774Y-41747D01*
X41768Y-41750D01*
X41754Y-41761D01*
X41733Y-41782D01*
X41707Y-41811D01*
X41678Y-41846D01*
X41646Y-41886D01*
X41617Y-41939D01*
X41588Y-41997D01*
Y-42000D01*
X41585Y-42006D01*
X41582Y-42014D01*
X41576Y-42026D01*
X41573Y-42044D01*
X41568Y-42064D01*
X41562Y-42087D01*
X41556Y-42116D01*
X41547Y-42148D01*
X41541Y-42183D01*
X41535Y-42221D01*
X41533Y-42262D01*
X41527Y-42308D01*
X41524Y-42355D01*
X41521Y-42407D01*
Y-42460D01*
X41524Y-42457D01*
X41535Y-42439D01*
X41556Y-42416D01*
X41582Y-42387D01*
X41611Y-42352D01*
X41649Y-42320D01*
X41690Y-42288D01*
X41736Y-42259D01*
X41739D01*
X41742Y-42256D01*
X41759Y-42247D01*
X41786Y-42239D01*
X41821Y-42224D01*
X41861Y-42212D01*
X41908Y-42204D01*
X41957Y-42195D01*
X42010Y-42192D01*
X42033D01*
X42050Y-42195D01*
X42074Y-42198D01*
X42097Y-42201D01*
X42126Y-42206D01*
X42155Y-42215D01*
X42222Y-42236D01*
X42257Y-42250D01*
X42292Y-42270D01*
X42327Y-42291D01*
X42365Y-42314D01*
X42400Y-42343D01*
X42432Y-42375D01*
X42435Y-42378D01*
X42441Y-42384D01*
X42449Y-42393D01*
X42458Y-42407D01*
X42472Y-42428D01*
X42487Y-42448D01*
X42502Y-42474D01*
X42519Y-42503D01*
X42537Y-42535D01*
X42551Y-42570D01*
X42566Y-42611D01*
X42580Y-42652D01*
X42589Y-42695D01*
X42598Y-42745D01*
X42603Y-42794D01*
X42606Y-42847D01*
Y-42850D01*
Y-42855D01*
Y-42864D01*
Y-42879D01*
X42603Y-42896D01*
Y-42914D01*
X42595Y-42960D01*
X42586Y-43016D01*
X42571Y-43074D01*
X42551Y-43138D01*
X42522Y-43199D01*
Y-43202D01*
X42519Y-43205D01*
X42513Y-43213D01*
X42507Y-43225D01*
X42490Y-43254D01*
X42464Y-43292D01*
X42432Y-43333D01*
X42394Y-43373D01*
X42347Y-43414D01*
X42298Y-43449D01*
X42295D01*
X42292Y-43452D01*
X42283Y-43458D01*
X42272Y-43461D01*
X42243Y-43475D01*
X42205Y-43490D01*
X42155Y-43507D01*
X42100Y-43519D01*
X42039Y-43531D01*
X41972Y-43534D01*
X41957D01*
X41943Y-43531D01*
X41920D01*
X41893Y-43528D01*
X41864Y-43522D01*
X41829Y-43513D01*
X41794Y-43504D01*
X41754Y-43493D01*
X41713Y-43478D01*
X41672Y-43461D01*
X41629Y-43437D01*
X41588Y-43411D01*
X41547Y-43382D01*
X41506Y-43347D01*
X41469Y-43306D01*
X41466Y-43304D01*
X41460Y-43295D01*
X41451Y-43283D01*
X41439Y-43263D01*
X41422Y-43237D01*
X41407Y-43207D01*
X41390Y-43170D01*
X41372Y-43129D01*
X41352Y-43080D01*
X41335Y-43024D01*
X41320Y-42963D01*
X41306Y-42896D01*
X41291Y-42821D01*
X41282Y-42739D01*
X41276Y-42652D01*
X41274Y-42559D01*
Y-42556D01*
Y-42553D01*
Y-42544D01*
Y-42532D01*
X41276Y-42503D01*
Y-42463D01*
X41279Y-42416D01*
X41285Y-42361D01*
X41291Y-42300D01*
X41300Y-42233D01*
X41311Y-42166D01*
X41326Y-42093D01*
X41343Y-42023D01*
X41364Y-41953D01*
X41390Y-41886D01*
X41419Y-41822D01*
X41451Y-41761D01*
X41489Y-41709D01*
X41492Y-41706D01*
X41498Y-41700D01*
X41509Y-41688D01*
X41524Y-41671D01*
X41541Y-41654D01*
X41565Y-41636D01*
X41594Y-41613D01*
X41623Y-41592D01*
X41658Y-41572D01*
X41695Y-41549D01*
X41739Y-41531D01*
X41783Y-41511D01*
X41832Y-41497D01*
X41885Y-41485D01*
X41940Y-41479D01*
X41998Y-41476D01*
X42021D01*
X42039Y-41479D01*
D02*
G37*
G36*
X29312Y-44036D02*
X29335D01*
X29388Y-44042D01*
X29446Y-44048D01*
X29507Y-44060D01*
X29568Y-44074D01*
X29623Y-44095D01*
X29626D01*
X29629Y-44098D01*
X29647Y-44106D01*
X29673Y-44121D01*
X29702Y-44141D01*
X29737Y-44167D01*
X29775Y-44199D01*
X29809Y-44240D01*
X29842Y-44284D01*
X29844Y-44289D01*
X29853Y-44307D01*
X29868Y-44330D01*
X29882Y-44365D01*
X29897Y-44406D01*
X29911Y-44450D01*
X29920Y-44499D01*
X29923Y-44548D01*
Y-44554D01*
Y-44569D01*
X29920Y-44595D01*
X29914Y-44627D01*
X29906Y-44665D01*
X29891Y-44706D01*
X29873Y-44746D01*
X29850Y-44790D01*
X29847Y-44796D01*
X29839Y-44807D01*
X29821Y-44831D01*
X29798Y-44854D01*
X29769Y-44883D01*
X29734Y-44915D01*
X29690Y-44944D01*
X29641Y-44973D01*
X29644D01*
X29649Y-44976D01*
X29658Y-44979D01*
X29670Y-44985D01*
X29705Y-44997D01*
X29746Y-45017D01*
X29789Y-45043D01*
X29839Y-45075D01*
X29882Y-45113D01*
X29923Y-45160D01*
X29926Y-45165D01*
X29937Y-45183D01*
X29955Y-45209D01*
X29972Y-45244D01*
X29990Y-45291D01*
X30007Y-45340D01*
X30019Y-45398D01*
X30022Y-45462D01*
Y-45465D01*
Y-45468D01*
Y-45486D01*
X30019Y-45515D01*
X30013Y-45550D01*
X30007Y-45590D01*
X29996Y-45634D01*
X29981Y-45680D01*
X29961Y-45727D01*
X29958Y-45733D01*
X29949Y-45747D01*
X29937Y-45768D01*
X29920Y-45797D01*
X29897Y-45826D01*
X29873Y-45858D01*
X29844Y-45890D01*
X29812Y-45916D01*
X29809Y-45919D01*
X29798Y-45928D01*
X29778Y-45939D01*
X29751Y-45951D01*
X29719Y-45969D01*
X29682Y-45986D01*
X29641Y-46001D01*
X29591Y-46015D01*
X29585D01*
X29568Y-46021D01*
X29539Y-46024D01*
X29501Y-46030D01*
X29454Y-46036D01*
X29399Y-46041D01*
X29338Y-46044D01*
X29268Y-46047D01*
X28500D01*
Y-44034D01*
X29291D01*
X29312Y-44036D01*
D02*
G37*
G36*
X25001Y-44557D02*
X25045Y-44560D01*
X25091Y-44566D01*
X25141Y-44578D01*
X25193Y-44589D01*
X25242Y-44607D01*
X25245D01*
X25248Y-44610D01*
X25263Y-44616D01*
X25286Y-44627D01*
X25315Y-44642D01*
X25347Y-44662D01*
X25379Y-44685D01*
X25408Y-44712D01*
X25434Y-44741D01*
X25437Y-44743D01*
X25443Y-44755D01*
X25455Y-44776D01*
X25469Y-44799D01*
X25484Y-44834D01*
X25498Y-44872D01*
X25510Y-44915D01*
X25522Y-44965D01*
X25280Y-44997D01*
Y-44991D01*
X25277Y-44979D01*
X25271Y-44959D01*
X25263Y-44933D01*
X25248Y-44906D01*
X25231Y-44877D01*
X25210Y-44848D01*
X25181Y-44822D01*
X25178Y-44819D01*
X25167Y-44813D01*
X25149Y-44802D01*
X25123Y-44790D01*
X25094Y-44778D01*
X25056Y-44767D01*
X25010Y-44761D01*
X24960Y-44758D01*
X24931D01*
X24902Y-44761D01*
X24864Y-44764D01*
X24826Y-44773D01*
X24785Y-44781D01*
X24748Y-44796D01*
X24716Y-44816D01*
X24713Y-44819D01*
X24704Y-44825D01*
X24692Y-44837D01*
X24681Y-44854D01*
X24666Y-44872D01*
X24655Y-44895D01*
X24646Y-44921D01*
X24643Y-44947D01*
Y-44950D01*
Y-44956D01*
X24646Y-44965D01*
Y-44976D01*
X24655Y-45005D01*
X24672Y-45035D01*
X24675Y-45037D01*
X24678Y-45040D01*
X24684Y-45049D01*
X24695Y-45058D01*
X24707Y-45066D01*
X24724Y-45078D01*
X24745Y-45087D01*
X24768Y-45099D01*
X24771D01*
X24777Y-45101D01*
X24788Y-45104D01*
X24809Y-45113D01*
X24838Y-45122D01*
X24876Y-45131D01*
X24899Y-45139D01*
X24925Y-45145D01*
X24954Y-45154D01*
X24986Y-45162D01*
X24989D01*
X24998Y-45165D01*
X25012Y-45168D01*
X25030Y-45174D01*
X25050Y-45180D01*
X25076Y-45186D01*
X25132Y-45203D01*
X25193Y-45221D01*
X25254Y-45241D01*
X25309Y-45261D01*
X25333Y-45270D01*
X25353Y-45279D01*
X25359Y-45282D01*
X25370Y-45288D01*
X25388Y-45296D01*
X25414Y-45311D01*
X25440Y-45328D01*
X25466Y-45352D01*
X25493Y-45378D01*
X25516Y-45407D01*
X25519Y-45410D01*
X25525Y-45421D01*
X25536Y-45439D01*
X25548Y-45465D01*
X25557Y-45497D01*
X25568Y-45532D01*
X25574Y-45573D01*
X25577Y-45619D01*
Y-45625D01*
Y-45640D01*
X25574Y-45663D01*
X25568Y-45695D01*
X25560Y-45730D01*
X25545Y-45768D01*
X25528Y-45812D01*
X25504Y-45852D01*
X25501Y-45858D01*
X25490Y-45870D01*
X25475Y-45890D01*
X25452Y-45913D01*
X25420Y-45939D01*
X25385Y-45969D01*
X25344Y-45995D01*
X25295Y-46021D01*
X25292D01*
X25289Y-46024D01*
X25271Y-46030D01*
X25242Y-46038D01*
X25205Y-46050D01*
X25158Y-46062D01*
X25106Y-46071D01*
X25050Y-46076D01*
X24986Y-46079D01*
X24960D01*
X24940Y-46076D01*
X24916D01*
X24887Y-46073D01*
X24858Y-46071D01*
X24826Y-46065D01*
X24756Y-46050D01*
X24684Y-46030D01*
X24614Y-46001D01*
X24582Y-45983D01*
X24553Y-45963D01*
X24550Y-45960D01*
X24547Y-45957D01*
X24529Y-45939D01*
X24503Y-45913D01*
X24474Y-45873D01*
X24442Y-45823D01*
X24410Y-45765D01*
X24384Y-45692D01*
X24364Y-45611D01*
X24608Y-45573D01*
Y-45576D01*
Y-45579D01*
X24614Y-45596D01*
X24620Y-45625D01*
X24631Y-45657D01*
X24646Y-45692D01*
X24663Y-45730D01*
X24690Y-45768D01*
X24722Y-45800D01*
X24727Y-45803D01*
X24739Y-45812D01*
X24762Y-45823D01*
X24791Y-45838D01*
X24829Y-45852D01*
X24873Y-45864D01*
X24925Y-45873D01*
X24986Y-45875D01*
X25015D01*
X25045Y-45873D01*
X25082Y-45867D01*
X25123Y-45858D01*
X25167Y-45846D01*
X25205Y-45832D01*
X25240Y-45809D01*
X25242Y-45806D01*
X25254Y-45797D01*
X25266Y-45782D01*
X25283Y-45762D01*
X25298Y-45739D01*
X25312Y-45710D01*
X25321Y-45680D01*
X25324Y-45646D01*
Y-45643D01*
Y-45631D01*
X25321Y-45616D01*
X25315Y-45596D01*
X25306Y-45576D01*
X25292Y-45555D01*
X25274Y-45532D01*
X25248Y-45515D01*
X25245Y-45512D01*
X25236Y-45509D01*
X25222Y-45500D01*
X25199Y-45491D01*
X25164Y-45480D01*
X25143Y-45471D01*
X25120Y-45465D01*
X25094Y-45456D01*
X25065Y-45448D01*
X25033Y-45439D01*
X24995Y-45430D01*
X24992D01*
X24983Y-45427D01*
X24969Y-45424D01*
X24951Y-45419D01*
X24928Y-45413D01*
X24902Y-45404D01*
X24847Y-45390D01*
X24783Y-45369D01*
X24722Y-45352D01*
X24663Y-45331D01*
X24637Y-45320D01*
X24617Y-45311D01*
X24611Y-45308D01*
X24599Y-45302D01*
X24582Y-45291D01*
X24558Y-45276D01*
X24532Y-45256D01*
X24506Y-45232D01*
X24480Y-45206D01*
X24457Y-45174D01*
X24454Y-45171D01*
X24448Y-45160D01*
X24439Y-45139D01*
X24430Y-45116D01*
X24422Y-45087D01*
X24413Y-45052D01*
X24407Y-45017D01*
X24404Y-44976D01*
Y-44971D01*
Y-44959D01*
X24407Y-44941D01*
X24410Y-44915D01*
X24416Y-44889D01*
X24422Y-44857D01*
X24433Y-44828D01*
X24448Y-44796D01*
X24451Y-44793D01*
X24457Y-44781D01*
X24465Y-44767D01*
X24480Y-44746D01*
X24497Y-44726D01*
X24518Y-44700D01*
X24541Y-44677D01*
X24570Y-44656D01*
X24573Y-44653D01*
X24582Y-44650D01*
X24593Y-44642D01*
X24611Y-44633D01*
X24634Y-44621D01*
X24660Y-44610D01*
X24692Y-44598D01*
X24727Y-44586D01*
X24733Y-44583D01*
X24745Y-44581D01*
X24765Y-44575D01*
X24791Y-44569D01*
X24823Y-44563D01*
X24858Y-44560D01*
X24899Y-44554D01*
X24969D01*
X25001Y-44557D01*
D02*
G37*
G36*
X87289Y-3937D02*
X86979D01*
Y-1968D01*
X86976Y-1971D01*
X86958Y-1986D01*
X86936Y-2008D01*
X86899Y-2033D01*
X86859Y-2066D01*
X86808Y-2102D01*
X86750Y-2142D01*
X86685Y-2183D01*
X86681D01*
X86677Y-2186D01*
X86655Y-2201D01*
X86619Y-2219D01*
X86575Y-2241D01*
X86524Y-2266D01*
X86470Y-2292D01*
X86415Y-2317D01*
X86361Y-2339D01*
Y-2041D01*
X86364D01*
X86371Y-2033D01*
X86386Y-2030D01*
X86404Y-2019D01*
X86426Y-2008D01*
X86452Y-1993D01*
X86513Y-1957D01*
X86586Y-1917D01*
X86659Y-1866D01*
X86735Y-1808D01*
X86812Y-1746D01*
X86816Y-1742D01*
X86819Y-1738D01*
X86830Y-1727D01*
X86845Y-1717D01*
X86877Y-1680D01*
X86921Y-1636D01*
X86965Y-1586D01*
X87012Y-1527D01*
X87052Y-1469D01*
X87089Y-1407D01*
X87289D01*
Y-3937D01*
D02*
G37*
G36*
X26409Y-44557D02*
X26453Y-44560D01*
X26500Y-44566D01*
X26549Y-44578D01*
X26601Y-44589D01*
X26651Y-44607D01*
X26654D01*
X26657Y-44610D01*
X26671Y-44616D01*
X26695Y-44627D01*
X26724Y-44642D01*
X26756Y-44662D01*
X26788Y-44685D01*
X26817Y-44712D01*
X26843Y-44741D01*
X26846Y-44743D01*
X26852Y-44755D01*
X26863Y-44776D01*
X26878Y-44799D01*
X26892Y-44834D01*
X26907Y-44872D01*
X26919Y-44915D01*
X26930Y-44965D01*
X26689Y-44997D01*
Y-44991D01*
X26686Y-44979D01*
X26680Y-44959D01*
X26671Y-44933D01*
X26657Y-44906D01*
X26639Y-44877D01*
X26619Y-44848D01*
X26590Y-44822D01*
X26587Y-44819D01*
X26575Y-44813D01*
X26558Y-44802D01*
X26531Y-44790D01*
X26502Y-44778D01*
X26465Y-44767D01*
X26418Y-44761D01*
X26368Y-44758D01*
X26339D01*
X26310Y-44761D01*
X26272Y-44764D01*
X26235Y-44773D01*
X26194Y-44781D01*
X26156Y-44796D01*
X26124Y-44816D01*
X26121Y-44819D01*
X26112Y-44825D01*
X26101Y-44837D01*
X26089Y-44854D01*
X26075Y-44872D01*
X26063Y-44895D01*
X26054Y-44921D01*
X26051Y-44947D01*
Y-44950D01*
Y-44956D01*
X26054Y-44965D01*
Y-44976D01*
X26063Y-45005D01*
X26081Y-45035D01*
X26083Y-45037D01*
X26086Y-45040D01*
X26092Y-45049D01*
X26104Y-45058D01*
X26115Y-45066D01*
X26133Y-45078D01*
X26153Y-45087D01*
X26177Y-45099D01*
X26179D01*
X26185Y-45101D01*
X26197Y-45104D01*
X26217Y-45113D01*
X26246Y-45122D01*
X26284Y-45131D01*
X26307Y-45139D01*
X26334Y-45145D01*
X26363Y-45154D01*
X26395Y-45162D01*
X26398D01*
X26406Y-45165D01*
X26421Y-45168D01*
X26438Y-45174D01*
X26459Y-45180D01*
X26485Y-45186D01*
X26540Y-45203D01*
X26601Y-45221D01*
X26662Y-45241D01*
X26718Y-45261D01*
X26741Y-45270D01*
X26761Y-45279D01*
X26767Y-45282D01*
X26779Y-45288D01*
X26796Y-45296D01*
X26823Y-45311D01*
X26849Y-45328D01*
X26875Y-45352D01*
X26901Y-45378D01*
X26924Y-45407D01*
X26927Y-45410D01*
X26933Y-45421D01*
X26945Y-45439D01*
X26956Y-45465D01*
X26965Y-45497D01*
X26977Y-45532D01*
X26983Y-45573D01*
X26985Y-45619D01*
Y-45625D01*
Y-45640D01*
X26983Y-45663D01*
X26977Y-45695D01*
X26968Y-45730D01*
X26953Y-45768D01*
X26936Y-45812D01*
X26913Y-45852D01*
X26910Y-45858D01*
X26898Y-45870D01*
X26884Y-45890D01*
X26860Y-45913D01*
X26828Y-45939D01*
X26793Y-45969D01*
X26753Y-45995D01*
X26703Y-46021D01*
X26700D01*
X26697Y-46024D01*
X26680Y-46030D01*
X26651Y-46038D01*
X26613Y-46050D01*
X26566Y-46062D01*
X26514Y-46071D01*
X26459Y-46076D01*
X26395Y-46079D01*
X26368D01*
X26348Y-46076D01*
X26325D01*
X26296Y-46073D01*
X26267Y-46071D01*
X26235Y-46065D01*
X26165Y-46050D01*
X26092Y-46030D01*
X26022Y-46001D01*
X25990Y-45983D01*
X25961Y-45963D01*
X25958Y-45960D01*
X25955Y-45957D01*
X25938Y-45939D01*
X25912Y-45913D01*
X25883Y-45873D01*
X25851Y-45823D01*
X25818Y-45765D01*
X25792Y-45692D01*
X25772Y-45611D01*
X26016Y-45573D01*
Y-45576D01*
Y-45579D01*
X26022Y-45596D01*
X26028Y-45625D01*
X26040Y-45657D01*
X26054Y-45692D01*
X26072Y-45730D01*
X26098Y-45768D01*
X26130Y-45800D01*
X26136Y-45803D01*
X26147Y-45812D01*
X26171Y-45823D01*
X26200Y-45838D01*
X26238Y-45852D01*
X26281Y-45864D01*
X26334Y-45873D01*
X26395Y-45875D01*
X26424D01*
X26453Y-45873D01*
X26491Y-45867D01*
X26531Y-45858D01*
X26575Y-45846D01*
X26613Y-45832D01*
X26648Y-45809D01*
X26651Y-45806D01*
X26662Y-45797D01*
X26674Y-45782D01*
X26692Y-45762D01*
X26706Y-45739D01*
X26721Y-45710D01*
X26729Y-45680D01*
X26732Y-45646D01*
Y-45643D01*
Y-45631D01*
X26729Y-45616D01*
X26724Y-45596D01*
X26715Y-45576D01*
X26700Y-45555D01*
X26683Y-45532D01*
X26657Y-45515D01*
X26654Y-45512D01*
X26645Y-45509D01*
X26630Y-45500D01*
X26607Y-45491D01*
X26572Y-45480D01*
X26552Y-45471D01*
X26529Y-45465D01*
X26502Y-45456D01*
X26473Y-45448D01*
X26441Y-45439D01*
X26403Y-45430D01*
X26401D01*
X26392Y-45427D01*
X26377Y-45424D01*
X26360Y-45419D01*
X26337Y-45413D01*
X26310Y-45404D01*
X26255Y-45390D01*
X26191Y-45369D01*
X26130Y-45352D01*
X26072Y-45331D01*
X26046Y-45320D01*
X26025Y-45311D01*
X26019Y-45308D01*
X26008Y-45302D01*
X25990Y-45291D01*
X25967Y-45276D01*
X25941Y-45256D01*
X25915Y-45232D01*
X25888Y-45206D01*
X25865Y-45174D01*
X25862Y-45171D01*
X25856Y-45160D01*
X25848Y-45139D01*
X25839Y-45116D01*
X25830Y-45087D01*
X25822Y-45052D01*
X25816Y-45017D01*
X25813Y-44976D01*
Y-44971D01*
Y-44959D01*
X25816Y-44941D01*
X25818Y-44915D01*
X25824Y-44889D01*
X25830Y-44857D01*
X25842Y-44828D01*
X25856Y-44796D01*
X25859Y-44793D01*
X25865Y-44781D01*
X25874Y-44767D01*
X25888Y-44746D01*
X25906Y-44726D01*
X25926Y-44700D01*
X25949Y-44677D01*
X25979Y-44656D01*
X25982Y-44653D01*
X25990Y-44650D01*
X26002Y-44642D01*
X26019Y-44633D01*
X26043Y-44621D01*
X26069Y-44610D01*
X26101Y-44598D01*
X26136Y-44586D01*
X26142Y-44583D01*
X26153Y-44581D01*
X26174Y-44575D01*
X26200Y-44569D01*
X26232Y-44563D01*
X26267Y-44560D01*
X26307Y-44554D01*
X26377D01*
X26409Y-44557D01*
D02*
G37*
G36*
X83558Y-1717D02*
X82728D01*
Y-3937D01*
X82393D01*
Y-1717D01*
X81563D01*
Y-1418D01*
X83558D01*
Y-1717D01*
D02*
G37*
G36*
X84992Y-1422D02*
X85054Y-1425D01*
X85119Y-1429D01*
X85181Y-1436D01*
X85236Y-1444D01*
X85243D01*
X85268Y-1451D01*
X85301Y-1458D01*
X85345Y-1469D01*
X85392Y-1487D01*
X85443Y-1509D01*
X85498Y-1535D01*
X85545Y-1564D01*
X85552Y-1567D01*
X85567Y-1578D01*
X85589Y-1600D01*
X85618Y-1626D01*
X85651Y-1658D01*
X85684Y-1702D01*
X85720Y-1749D01*
X85749Y-1804D01*
X85753Y-1811D01*
X85760Y-1829D01*
X85774Y-1862D01*
X85789Y-1906D01*
X85800Y-1957D01*
X85814Y-2015D01*
X85822Y-2081D01*
X85825Y-2150D01*
Y-2153D01*
Y-2164D01*
Y-2179D01*
X85822Y-2204D01*
X85818Y-2230D01*
X85814Y-2263D01*
X85807Y-2299D01*
X85800Y-2339D01*
X85774Y-2423D01*
X85760Y-2466D01*
X85738Y-2514D01*
X85713Y-2561D01*
X85687Y-2605D01*
X85654Y-2648D01*
X85618Y-2692D01*
X85614Y-2696D01*
X85607Y-2703D01*
X85596Y-2714D01*
X85578Y-2725D01*
X85556Y-2743D01*
X85527Y-2761D01*
X85491Y-2783D01*
X85451Y-2801D01*
X85403Y-2823D01*
X85349Y-2845D01*
X85290Y-2863D01*
X85221Y-2878D01*
X85148Y-2892D01*
X85068Y-2903D01*
X84977Y-2911D01*
X84883Y-2914D01*
X84238D01*
Y-3937D01*
X83903D01*
Y-1418D01*
X84937D01*
X84992Y-1422D01*
D02*
G37*
%LPC*%
G36*
X18203Y-45314D02*
X18200D01*
X18197Y-45317D01*
X18189Y-45320D01*
X18177Y-45323D01*
X18162Y-45328D01*
X18145Y-45334D01*
X18124Y-45340D01*
X18101Y-45346D01*
X18075Y-45355D01*
X18043Y-45360D01*
X18011Y-45369D01*
X17973Y-45378D01*
X17932Y-45387D01*
X17892Y-45395D01*
X17845Y-45401D01*
X17796Y-45410D01*
X17790D01*
X17772Y-45413D01*
X17743Y-45419D01*
X17711Y-45424D01*
X17676Y-45430D01*
X17641Y-45439D01*
X17609Y-45448D01*
X17580Y-45459D01*
X17577D01*
X17569Y-45465D01*
X17557Y-45471D01*
X17545Y-45480D01*
X17511Y-45503D01*
X17481Y-45538D01*
Y-45541D01*
X17476Y-45547D01*
X17473Y-45558D01*
X17467Y-45573D01*
X17461Y-45590D01*
X17455Y-45608D01*
X17452Y-45631D01*
X17449Y-45654D01*
Y-45657D01*
Y-45672D01*
X17452Y-45689D01*
X17458Y-45713D01*
X17467Y-45739D01*
X17481Y-45765D01*
X17499Y-45794D01*
X17522Y-45820D01*
X17525Y-45823D01*
X17537Y-45829D01*
X17554Y-45841D01*
X17577Y-45852D01*
X17609Y-45864D01*
X17647Y-45875D01*
X17691Y-45881D01*
X17743Y-45884D01*
X17767D01*
X17796Y-45881D01*
X17828Y-45875D01*
X17868Y-45870D01*
X17909Y-45858D01*
X17953Y-45843D01*
X17997Y-45823D01*
X18002Y-45820D01*
X18014Y-45812D01*
X18034Y-45797D01*
X18058Y-45777D01*
X18084Y-45753D01*
X18113Y-45724D01*
X18136Y-45689D01*
X18159Y-45651D01*
X18162Y-45649D01*
X18165Y-45637D01*
X18171Y-45616D01*
X18180Y-45590D01*
X18189Y-45555D01*
X18194Y-45515D01*
X18197Y-45465D01*
X18200Y-45407D01*
X18203Y-45314D01*
D02*
G37*
G36*
X23831D02*
X23828D01*
X23825Y-45317D01*
X23817Y-45320D01*
X23805Y-45323D01*
X23790Y-45328D01*
X23773Y-45334D01*
X23752Y-45340D01*
X23729Y-45346D01*
X23703Y-45355D01*
X23671Y-45360D01*
X23639Y-45369D01*
X23601Y-45378D01*
X23560Y-45387D01*
X23520Y-45395D01*
X23473Y-45401D01*
X23424Y-45410D01*
X23418D01*
X23400Y-45413D01*
X23371Y-45419D01*
X23339Y-45424D01*
X23304Y-45430D01*
X23269Y-45439D01*
X23237Y-45448D01*
X23208Y-45459D01*
X23205D01*
X23197Y-45465D01*
X23185Y-45471D01*
X23173Y-45480D01*
X23138Y-45503D01*
X23109Y-45538D01*
Y-45541D01*
X23103Y-45547D01*
X23101Y-45558D01*
X23095Y-45573D01*
X23089Y-45590D01*
X23083Y-45608D01*
X23080Y-45631D01*
X23077Y-45654D01*
Y-45657D01*
Y-45672D01*
X23080Y-45689D01*
X23086Y-45713D01*
X23095Y-45739D01*
X23109Y-45765D01*
X23127Y-45794D01*
X23150Y-45820D01*
X23153Y-45823D01*
X23165Y-45829D01*
X23182Y-45841D01*
X23205Y-45852D01*
X23237Y-45864D01*
X23275Y-45875D01*
X23319Y-45881D01*
X23371Y-45884D01*
X23394D01*
X23424Y-45881D01*
X23456Y-45875D01*
X23496Y-45870D01*
X23537Y-45858D01*
X23581Y-45843D01*
X23624Y-45823D01*
X23630Y-45820D01*
X23642Y-45812D01*
X23662Y-45797D01*
X23686Y-45777D01*
X23712Y-45753D01*
X23741Y-45724D01*
X23764Y-45689D01*
X23787Y-45651D01*
X23790Y-45649D01*
X23793Y-45637D01*
X23799Y-45616D01*
X23808Y-45590D01*
X23817Y-45555D01*
X23822Y-45515D01*
X23825Y-45465D01*
X23828Y-45407D01*
X23831Y-45314D01*
D02*
G37*
G36*
X16303Y-44758D02*
X16285D01*
X16274Y-44761D01*
X16242Y-44764D01*
X16204Y-44773D01*
X16157Y-44787D01*
X16108Y-44807D01*
X16061Y-44837D01*
X16015Y-44875D01*
X16009Y-44880D01*
X15997Y-44895D01*
X15977Y-44921D01*
X15957Y-44956D01*
X15933Y-44997D01*
X15913Y-45049D01*
X15895Y-45110D01*
X15887Y-45177D01*
X16704D01*
Y-45174D01*
Y-45168D01*
X16702Y-45160D01*
Y-45148D01*
X16696Y-45113D01*
X16687Y-45075D01*
X16672Y-45029D01*
X16658Y-44985D01*
X16635Y-44941D01*
X16608Y-44904D01*
Y-44901D01*
X16603Y-44898D01*
X16588Y-44880D01*
X16562Y-44857D01*
X16527Y-44831D01*
X16483Y-44805D01*
X16431Y-44781D01*
X16370Y-44764D01*
X16338Y-44761D01*
X16303Y-44758D01*
D02*
G37*
G36*
X26470Y-41723D02*
X25993D01*
Y-42329D01*
X26488D01*
X26526Y-42326D01*
X26566Y-42323D01*
X26607Y-42320D01*
X26648Y-42314D01*
X26680Y-42308D01*
X26686Y-42305D01*
X26697Y-42303D01*
X26715Y-42294D01*
X26738Y-42282D01*
X26761Y-42270D01*
X26788Y-42253D01*
X26814Y-42230D01*
X26834Y-42206D01*
X26837Y-42204D01*
X26843Y-42195D01*
X26852Y-42177D01*
X26860Y-42157D01*
X26869Y-42134D01*
X26878Y-42105D01*
X26884Y-42070D01*
X26886Y-42032D01*
Y-42026D01*
Y-42014D01*
X26884Y-41997D01*
X26881Y-41974D01*
X26875Y-41945D01*
X26866Y-41916D01*
X26855Y-41886D01*
X26837Y-41857D01*
X26834Y-41854D01*
X26828Y-41846D01*
X26817Y-41831D01*
X26802Y-41817D01*
X26782Y-41799D01*
X26759Y-41782D01*
X26729Y-41764D01*
X26697Y-41753D01*
X26695D01*
X26680Y-41747D01*
X26660Y-41744D01*
X26627Y-41738D01*
X26584Y-41732D01*
X26534Y-41729D01*
X26470Y-41723D01*
D02*
G37*
G36*
X29297Y-45116D02*
X28768D01*
Y-45809D01*
X29341D01*
X29402Y-45806D01*
X29428Y-45803D01*
X29452Y-45800D01*
X29454D01*
X29466Y-45797D01*
X29484Y-45794D01*
X29504Y-45788D01*
X29553Y-45771D01*
X29603Y-45747D01*
X29606Y-45744D01*
X29614Y-45739D01*
X29626Y-45730D01*
X29641Y-45718D01*
X29655Y-45701D01*
X29676Y-45683D01*
X29690Y-45660D01*
X29708Y-45634D01*
X29711Y-45631D01*
X29713Y-45622D01*
X29719Y-45605D01*
X29728Y-45584D01*
X29737Y-45561D01*
X29743Y-45532D01*
X29746Y-45497D01*
X29748Y-45462D01*
Y-45456D01*
Y-45445D01*
X29746Y-45421D01*
X29740Y-45395D01*
X29734Y-45366D01*
X29722Y-45334D01*
X29708Y-45302D01*
X29687Y-45270D01*
X29684Y-45267D01*
X29676Y-45256D01*
X29664Y-45241D01*
X29647Y-45224D01*
X29623Y-45203D01*
X29594Y-45183D01*
X29562Y-45165D01*
X29524Y-45151D01*
X29518Y-45148D01*
X29507Y-45145D01*
X29481Y-45139D01*
X29449Y-45133D01*
X29408Y-45128D01*
X29358Y-45122D01*
X29297Y-45116D01*
D02*
G37*
G36*
X24593Y-41723D02*
X24116D01*
Y-42329D01*
X24611D01*
X24649Y-42326D01*
X24690Y-42323D01*
X24730Y-42320D01*
X24771Y-42314D01*
X24803Y-42308D01*
X24809Y-42305D01*
X24820Y-42303D01*
X24838Y-42294D01*
X24861Y-42282D01*
X24884Y-42270D01*
X24911Y-42253D01*
X24937Y-42230D01*
X24957Y-42206D01*
X24960Y-42204D01*
X24966Y-42195D01*
X24975Y-42177D01*
X24983Y-42157D01*
X24992Y-42134D01*
X25001Y-42105D01*
X25007Y-42070D01*
X25010Y-42032D01*
Y-42026D01*
Y-42014D01*
X25007Y-41997D01*
X25004Y-41974D01*
X24998Y-41945D01*
X24989Y-41916D01*
X24978Y-41886D01*
X24960Y-41857D01*
X24957Y-41854D01*
X24951Y-41846D01*
X24940Y-41831D01*
X24925Y-41817D01*
X24905Y-41799D01*
X24882Y-41782D01*
X24852Y-41764D01*
X24820Y-41753D01*
X24817D01*
X24803Y-41747D01*
X24783Y-41744D01*
X24751Y-41738D01*
X24707Y-41732D01*
X24657Y-41729D01*
X24593Y-41723D01*
D02*
G37*
G36*
X18826Y-41709D02*
X18192D01*
Y-42375D01*
X18791D01*
X18826Y-42372D01*
X18867Y-42369D01*
X18913Y-42367D01*
X18960Y-42361D01*
X19006Y-42352D01*
X19047Y-42340D01*
X19053Y-42338D01*
X19064Y-42332D01*
X19082Y-42323D01*
X19105Y-42311D01*
X19131Y-42294D01*
X19158Y-42273D01*
X19184Y-42247D01*
X19204Y-42218D01*
X19207Y-42215D01*
X19213Y-42204D01*
X19222Y-42186D01*
X19233Y-42163D01*
X19242Y-42137D01*
X19251Y-42108D01*
X19256Y-42073D01*
X19259Y-42038D01*
Y-42035D01*
Y-42032D01*
X19256Y-42014D01*
X19254Y-41988D01*
X19248Y-41953D01*
X19233Y-41918D01*
X19216Y-41878D01*
X19190Y-41840D01*
X19155Y-41802D01*
X19149Y-41799D01*
X19134Y-41787D01*
X19111Y-41773D01*
X19073Y-41756D01*
X19029Y-41738D01*
X18971Y-41723D01*
X18904Y-41712D01*
X18826Y-41709D01*
D02*
G37*
G36*
X16777Y-41723D02*
X16300D01*
Y-42329D01*
X16795D01*
X16833Y-42326D01*
X16873Y-42323D01*
X16914Y-42320D01*
X16955Y-42314D01*
X16987Y-42308D01*
X16993Y-42305D01*
X17004Y-42303D01*
X17022Y-42294D01*
X17045Y-42282D01*
X17068Y-42270D01*
X17094Y-42253D01*
X17121Y-42230D01*
X17141Y-42206D01*
X17144Y-42204D01*
X17150Y-42195D01*
X17158Y-42177D01*
X17167Y-42157D01*
X17176Y-42134D01*
X17185Y-42105D01*
X17190Y-42070D01*
X17193Y-42032D01*
Y-42026D01*
Y-42014D01*
X17190Y-41997D01*
X17188Y-41974D01*
X17182Y-41945D01*
X17173Y-41916D01*
X17161Y-41886D01*
X17144Y-41857D01*
X17141Y-41854D01*
X17135Y-41846D01*
X17123Y-41831D01*
X17109Y-41817D01*
X17089Y-41799D01*
X17065Y-41782D01*
X17036Y-41764D01*
X17004Y-41753D01*
X17001D01*
X16987Y-41747D01*
X16966Y-41744D01*
X16934Y-41738D01*
X16891Y-41732D01*
X16841Y-41729D01*
X16777Y-41723D01*
D02*
G37*
G36*
X29245Y-44272D02*
X28768D01*
Y-44877D01*
X29262D01*
X29300Y-44875D01*
X29341Y-44872D01*
X29382Y-44869D01*
X29423Y-44863D01*
X29454Y-44857D01*
X29460Y-44854D01*
X29472Y-44851D01*
X29489Y-44842D01*
X29513Y-44831D01*
X29536Y-44819D01*
X29562Y-44802D01*
X29588Y-44778D01*
X29609Y-44755D01*
X29612Y-44752D01*
X29617Y-44743D01*
X29626Y-44726D01*
X29635Y-44706D01*
X29644Y-44682D01*
X29652Y-44653D01*
X29658Y-44618D01*
X29661Y-44581D01*
Y-44575D01*
Y-44563D01*
X29658Y-44546D01*
X29655Y-44522D01*
X29649Y-44493D01*
X29641Y-44464D01*
X29629Y-44435D01*
X29612Y-44406D01*
X29609Y-44403D01*
X29603Y-44394D01*
X29591Y-44380D01*
X29577Y-44365D01*
X29556Y-44348D01*
X29533Y-44330D01*
X29504Y-44313D01*
X29472Y-44301D01*
X29469D01*
X29454Y-44295D01*
X29434Y-44293D01*
X29402Y-44287D01*
X29358Y-44281D01*
X29309Y-44278D01*
X29245Y-44272D01*
D02*
G37*
G36*
X111114Y-14420D02*
X110320Y-15549D01*
X111114D01*
Y-14420D01*
D02*
G37*
G36*
X108959Y-14217D02*
X108238D01*
Y-15116D01*
X108915D01*
X108941Y-15112D01*
X108966D01*
X108995Y-15108D01*
X109065Y-15101D01*
X109141Y-15087D01*
X109218Y-15065D01*
X109287Y-15036D01*
X109319Y-15017D01*
X109345Y-14996D01*
X109352Y-14988D01*
X109367Y-14974D01*
X109389Y-14945D01*
X109414Y-14908D01*
X109440Y-14861D01*
X109461Y-14803D01*
X109476Y-14737D01*
X109483Y-14661D01*
Y-14657D01*
Y-14653D01*
Y-14635D01*
X109480Y-14602D01*
X109472Y-14566D01*
X109465Y-14526D01*
X109450Y-14479D01*
X109429Y-14435D01*
X109403Y-14391D01*
X109399Y-14388D01*
X109389Y-14373D01*
X109370Y-14355D01*
X109349Y-14329D01*
X109316Y-14304D01*
X109279Y-14282D01*
X109239Y-14260D01*
X109192Y-14242D01*
X109188D01*
X109174Y-14239D01*
X109152Y-14235D01*
X109123Y-14228D01*
X109079Y-14224D01*
X109025Y-14220D01*
X108959Y-14217D01*
D02*
G37*
G36*
Y-24717D02*
X108238D01*
Y-25616D01*
X108915D01*
X108941Y-25612D01*
X108966D01*
X108995Y-25608D01*
X109065Y-25601D01*
X109141Y-25587D01*
X109218Y-25565D01*
X109287Y-25536D01*
X109319Y-25517D01*
X109345Y-25496D01*
X109352Y-25488D01*
X109367Y-25474D01*
X109389Y-25445D01*
X109414Y-25408D01*
X109440Y-25361D01*
X109461Y-25303D01*
X109476Y-25237D01*
X109483Y-25161D01*
Y-25157D01*
Y-25153D01*
Y-25135D01*
X109480Y-25102D01*
X109472Y-25066D01*
X109465Y-25026D01*
X109450Y-24979D01*
X109429Y-24935D01*
X109403Y-24891D01*
X109399Y-24888D01*
X109389Y-24873D01*
X109370Y-24855D01*
X109349Y-24829D01*
X109316Y-24804D01*
X109279Y-24782D01*
X109239Y-24760D01*
X109192Y-24742D01*
X109188D01*
X109174Y-24738D01*
X109152Y-24735D01*
X109123Y-24727D01*
X109079Y-24724D01*
X109025Y-24720D01*
X108959Y-24717D01*
D02*
G37*
G36*
X84959Y-1717D02*
X84238D01*
Y-2616D01*
X84915D01*
X84941Y-2612D01*
X84966D01*
X84996Y-2608D01*
X85065Y-2601D01*
X85141Y-2587D01*
X85218Y-2565D01*
X85287Y-2536D01*
X85320Y-2517D01*
X85345Y-2496D01*
X85352Y-2488D01*
X85367Y-2474D01*
X85389Y-2445D01*
X85414Y-2408D01*
X85440Y-2361D01*
X85461Y-2303D01*
X85476Y-2237D01*
X85483Y-2161D01*
Y-2157D01*
Y-2153D01*
Y-2135D01*
X85480Y-2102D01*
X85472Y-2066D01*
X85465Y-2026D01*
X85451Y-1979D01*
X85429Y-1935D01*
X85403Y-1891D01*
X85400Y-1888D01*
X85389Y-1873D01*
X85370Y-1855D01*
X85349Y-1829D01*
X85316Y-1804D01*
X85279Y-1782D01*
X85239Y-1760D01*
X85192Y-1742D01*
X85188D01*
X85174Y-1738D01*
X85152Y-1735D01*
X85123Y-1727D01*
X85079Y-1724D01*
X85025Y-1720D01*
X84959Y-1717D01*
D02*
G37*
G36*
X2896Y-23827D02*
X2175D01*
Y-24726D01*
X2852D01*
X2878Y-24722D01*
X2903D01*
X2932Y-24719D01*
X3002Y-24711D01*
X3078Y-24697D01*
X3155Y-24675D01*
X3224Y-24646D01*
X3257Y-24628D01*
X3282Y-24606D01*
X3289Y-24599D01*
X3304Y-24584D01*
X3326Y-24555D01*
X3351Y-24518D01*
X3377Y-24471D01*
X3398Y-24413D01*
X3413Y-24347D01*
X3420Y-24271D01*
Y-24267D01*
Y-24264D01*
Y-24245D01*
X3417Y-24213D01*
X3409Y-24176D01*
X3402Y-24136D01*
X3387Y-24089D01*
X3366Y-24045D01*
X3340Y-24002D01*
X3337Y-23998D01*
X3326Y-23983D01*
X3307Y-23965D01*
X3286Y-23940D01*
X3253Y-23914D01*
X3216Y-23892D01*
X3176Y-23870D01*
X3129Y-23852D01*
X3125D01*
X3111Y-23849D01*
X3089Y-23845D01*
X3060Y-23838D01*
X3016Y-23834D01*
X2962Y-23830D01*
X2896Y-23827D01*
D02*
G37*
G36*
X40374Y-41680D02*
X40357D01*
X40345Y-41683D01*
X40313Y-41688D01*
X40275Y-41697D01*
X40232Y-41715D01*
X40185Y-41741D01*
X40162Y-41758D01*
X40139Y-41776D01*
X40118Y-41799D01*
X40098Y-41825D01*
Y-41828D01*
X40092Y-41834D01*
X40086Y-41846D01*
X40078Y-41860D01*
X40069Y-41884D01*
X40057Y-41910D01*
X40049Y-41942D01*
X40037Y-41980D01*
X40025Y-42023D01*
X40014Y-42073D01*
X40002Y-42128D01*
X39993Y-42189D01*
X39984Y-42259D01*
X39979Y-42335D01*
X39976Y-42416D01*
X39973Y-42506D01*
Y-42512D01*
Y-42527D01*
Y-42553D01*
X39976Y-42588D01*
Y-42625D01*
X39979Y-42672D01*
X39981Y-42722D01*
X39987Y-42774D01*
X40002Y-42887D01*
X40011Y-42943D01*
X40022Y-42995D01*
X40034Y-43045D01*
X40051Y-43091D01*
X40069Y-43132D01*
X40089Y-43167D01*
Y-43170D01*
X40095Y-43173D01*
X40110Y-43193D01*
X40136Y-43219D01*
X40168Y-43248D01*
X40211Y-43277D01*
X40261Y-43304D01*
X40316Y-43324D01*
X40345Y-43327D01*
X40377Y-43330D01*
X40395D01*
X40406Y-43327D01*
X40435Y-43321D01*
X40476Y-43309D01*
X40520Y-43289D01*
X40569Y-43260D01*
X40593Y-43242D01*
X40616Y-43219D01*
X40639Y-43196D01*
X40663Y-43167D01*
Y-43164D01*
X40668Y-43158D01*
X40674Y-43149D01*
X40680Y-43135D01*
X40692Y-43114D01*
X40700Y-43088D01*
X40712Y-43059D01*
X40724Y-43024D01*
X40732Y-42981D01*
X40744Y-42934D01*
X40756Y-42879D01*
X40764Y-42821D01*
X40770Y-42751D01*
X40776Y-42678D01*
X40782Y-42596D01*
Y-42506D01*
Y-42503D01*
Y-42500D01*
Y-42486D01*
Y-42460D01*
X40779Y-42425D01*
Y-42387D01*
X40776Y-42340D01*
X40773Y-42291D01*
X40767Y-42236D01*
X40753Y-42125D01*
X40744Y-42070D01*
X40732Y-42017D01*
X40721Y-41968D01*
X40703Y-41921D01*
X40686Y-41881D01*
X40665Y-41846D01*
Y-41843D01*
X40660Y-41840D01*
X40654Y-41831D01*
X40645Y-41820D01*
X40619Y-41793D01*
X40587Y-41761D01*
X40543Y-41732D01*
X40494Y-41706D01*
X40468Y-41694D01*
X40438Y-41686D01*
X40406Y-41683D01*
X40374Y-41680D01*
D02*
G37*
G36*
X41960Y-42410D02*
X41943D01*
X41931Y-42413D01*
X41902Y-42416D01*
X41861Y-42425D01*
X41818Y-42439D01*
X41768Y-42463D01*
X41722Y-42492D01*
X41675Y-42532D01*
X41669Y-42538D01*
X41658Y-42553D01*
X41637Y-42579D01*
X41617Y-42617D01*
X41597Y-42660D01*
X41576Y-42716D01*
X41565Y-42777D01*
X41559Y-42847D01*
Y-42853D01*
Y-42867D01*
X41562Y-42893D01*
X41565Y-42925D01*
X41570Y-42963D01*
X41582Y-43004D01*
X41594Y-43047D01*
X41611Y-43091D01*
X41614Y-43097D01*
X41623Y-43112D01*
X41634Y-43132D01*
X41652Y-43158D01*
X41672Y-43184D01*
X41698Y-43216D01*
X41728Y-43242D01*
X41763Y-43269D01*
X41768Y-43272D01*
X41780Y-43277D01*
X41800Y-43289D01*
X41827Y-43298D01*
X41856Y-43309D01*
X41890Y-43321D01*
X41928Y-43327D01*
X41969Y-43330D01*
X41984D01*
X41995Y-43327D01*
X42024Y-43324D01*
X42062Y-43315D01*
X42103Y-43298D01*
X42149Y-43277D01*
X42196Y-43245D01*
X42219Y-43228D01*
X42240Y-43205D01*
Y-43202D01*
X42246Y-43199D01*
X42257Y-43181D01*
X42275Y-43152D01*
X42298Y-43114D01*
X42318Y-43065D01*
X42336Y-43007D01*
X42347Y-42940D01*
X42353Y-42861D01*
Y-42858D01*
Y-42853D01*
Y-42841D01*
X42350Y-42826D01*
Y-42809D01*
X42347Y-42788D01*
X42339Y-42742D01*
X42327Y-42690D01*
X42307Y-42634D01*
X42278Y-42582D01*
X42240Y-42532D01*
X42234Y-42527D01*
X42219Y-42512D01*
X42196Y-42495D01*
X42164Y-42471D01*
X42123Y-42448D01*
X42077Y-42431D01*
X42021Y-42416D01*
X41960Y-42410D01*
D02*
G37*
G36*
X38829D02*
X38812D01*
X38800Y-42413D01*
X38771Y-42416D01*
X38730Y-42425D01*
X38687Y-42439D01*
X38637Y-42463D01*
X38591Y-42492D01*
X38544Y-42532D01*
X38538Y-42538D01*
X38526Y-42553D01*
X38506Y-42579D01*
X38486Y-42617D01*
X38465Y-42660D01*
X38445Y-42716D01*
X38433Y-42777D01*
X38428Y-42847D01*
Y-42853D01*
Y-42867D01*
X38431Y-42893D01*
X38433Y-42925D01*
X38439Y-42963D01*
X38451Y-43004D01*
X38462Y-43047D01*
X38480Y-43091D01*
X38483Y-43097D01*
X38492Y-43112D01*
X38503Y-43132D01*
X38521Y-43158D01*
X38541Y-43184D01*
X38567Y-43216D01*
X38596Y-43242D01*
X38631Y-43269D01*
X38637Y-43272D01*
X38649Y-43277D01*
X38669Y-43289D01*
X38695Y-43298D01*
X38724Y-43309D01*
X38759Y-43321D01*
X38797Y-43327D01*
X38838Y-43330D01*
X38852D01*
X38864Y-43327D01*
X38893Y-43324D01*
X38931Y-43315D01*
X38972Y-43298D01*
X39018Y-43277D01*
X39065Y-43245D01*
X39088Y-43228D01*
X39108Y-43205D01*
Y-43202D01*
X39114Y-43199D01*
X39126Y-43181D01*
X39143Y-43152D01*
X39167Y-43114D01*
X39187Y-43065D01*
X39205Y-43007D01*
X39216Y-42940D01*
X39222Y-42861D01*
Y-42858D01*
Y-42853D01*
Y-42841D01*
X39219Y-42826D01*
Y-42809D01*
X39216Y-42788D01*
X39208Y-42742D01*
X39196Y-42690D01*
X39176Y-42634D01*
X39146Y-42582D01*
X39108Y-42532D01*
X39103Y-42527D01*
X39088Y-42512D01*
X39065Y-42495D01*
X39033Y-42471D01*
X38992Y-42448D01*
X38946Y-42431D01*
X38890Y-42416D01*
X38829Y-42410D01*
D02*
G37*
G36*
X29732Y-41680D02*
X29715D01*
X29703Y-41683D01*
X29671Y-41688D01*
X29634Y-41697D01*
X29590Y-41715D01*
X29543Y-41741D01*
X29520Y-41758D01*
X29497Y-41776D01*
X29476Y-41799D01*
X29456Y-41825D01*
Y-41828D01*
X29450Y-41834D01*
X29444Y-41846D01*
X29436Y-41860D01*
X29427Y-41884D01*
X29415Y-41910D01*
X29407Y-41942D01*
X29395Y-41980D01*
X29383Y-42023D01*
X29372Y-42073D01*
X29360Y-42128D01*
X29351Y-42189D01*
X29343Y-42259D01*
X29337Y-42335D01*
X29334Y-42416D01*
X29331Y-42506D01*
Y-42512D01*
Y-42527D01*
Y-42553D01*
X29334Y-42588D01*
Y-42625D01*
X29337Y-42672D01*
X29340Y-42722D01*
X29346Y-42774D01*
X29360Y-42887D01*
X29369Y-42943D01*
X29380Y-42995D01*
X29392Y-43045D01*
X29410Y-43091D01*
X29427Y-43132D01*
X29447Y-43167D01*
Y-43170D01*
X29453Y-43173D01*
X29468Y-43193D01*
X29494Y-43219D01*
X29526Y-43248D01*
X29570Y-43277D01*
X29619Y-43304D01*
X29674Y-43324D01*
X29703Y-43327D01*
X29735Y-43330D01*
X29753D01*
X29765Y-43327D01*
X29794Y-43321D01*
X29834Y-43309D01*
X29878Y-43289D01*
X29928Y-43260D01*
X29951Y-43242D01*
X29974Y-43219D01*
X29997Y-43196D01*
X30021Y-43167D01*
Y-43164D01*
X30026Y-43158D01*
X30032Y-43149D01*
X30038Y-43135D01*
X30050Y-43114D01*
X30058Y-43088D01*
X30070Y-43059D01*
X30082Y-43024D01*
X30090Y-42981D01*
X30102Y-42934D01*
X30114Y-42879D01*
X30122Y-42821D01*
X30128Y-42751D01*
X30134Y-42678D01*
X30140Y-42596D01*
Y-42506D01*
Y-42503D01*
Y-42500D01*
Y-42486D01*
Y-42460D01*
X30137Y-42425D01*
Y-42387D01*
X30134Y-42340D01*
X30131Y-42291D01*
X30125Y-42236D01*
X30111Y-42125D01*
X30102Y-42070D01*
X30090Y-42017D01*
X30079Y-41968D01*
X30061Y-41921D01*
X30044Y-41881D01*
X30024Y-41846D01*
Y-41843D01*
X30018Y-41840D01*
X30012Y-41831D01*
X30003Y-41820D01*
X29977Y-41793D01*
X29945Y-41761D01*
X29901Y-41732D01*
X29852Y-41706D01*
X29826Y-41694D01*
X29796Y-41686D01*
X29765Y-41683D01*
X29732Y-41680D01*
D02*
G37*
G36*
X35678D02*
X35660D01*
X35649Y-41683D01*
X35616Y-41688D01*
X35579Y-41697D01*
X35535Y-41715D01*
X35489Y-41741D01*
X35465Y-41758D01*
X35442Y-41776D01*
X35422Y-41799D01*
X35401Y-41825D01*
Y-41828D01*
X35395Y-41834D01*
X35390Y-41846D01*
X35381Y-41860D01*
X35372Y-41884D01*
X35360Y-41910D01*
X35352Y-41942D01*
X35340Y-41980D01*
X35328Y-42023D01*
X35317Y-42073D01*
X35305Y-42128D01*
X35296Y-42189D01*
X35288Y-42259D01*
X35282Y-42335D01*
X35279Y-42416D01*
X35276Y-42506D01*
Y-42512D01*
Y-42527D01*
Y-42553D01*
X35279Y-42588D01*
Y-42625D01*
X35282Y-42672D01*
X35285Y-42722D01*
X35291Y-42774D01*
X35305Y-42887D01*
X35314Y-42943D01*
X35326Y-42995D01*
X35337Y-43045D01*
X35355Y-43091D01*
X35372Y-43132D01*
X35392Y-43167D01*
Y-43170D01*
X35398Y-43173D01*
X35413Y-43193D01*
X35439Y-43219D01*
X35471Y-43248D01*
X35515Y-43277D01*
X35564Y-43304D01*
X35619Y-43324D01*
X35649Y-43327D01*
X35680Y-43330D01*
X35698D01*
X35710Y-43327D01*
X35739Y-43321D01*
X35780Y-43309D01*
X35823Y-43289D01*
X35873Y-43260D01*
X35896Y-43242D01*
X35919Y-43219D01*
X35943Y-43196D01*
X35966Y-43167D01*
Y-43164D01*
X35972Y-43158D01*
X35977Y-43149D01*
X35983Y-43135D01*
X35995Y-43114D01*
X36004Y-43088D01*
X36015Y-43059D01*
X36027Y-43024D01*
X36036Y-42981D01*
X36047Y-42934D01*
X36059Y-42879D01*
X36068Y-42821D01*
X36073Y-42751D01*
X36079Y-42678D01*
X36085Y-42596D01*
Y-42506D01*
Y-42503D01*
Y-42500D01*
Y-42486D01*
Y-42460D01*
X36082Y-42425D01*
Y-42387D01*
X36079Y-42340D01*
X36076Y-42291D01*
X36070Y-42236D01*
X36056Y-42125D01*
X36047Y-42070D01*
X36036Y-42017D01*
X36024Y-41968D01*
X36007Y-41921D01*
X35989Y-41881D01*
X35969Y-41846D01*
Y-41843D01*
X35963Y-41840D01*
X35957Y-41831D01*
X35948Y-41820D01*
X35922Y-41793D01*
X35890Y-41761D01*
X35846Y-41732D01*
X35797Y-41706D01*
X35771Y-41694D01*
X35742Y-41686D01*
X35710Y-41683D01*
X35678Y-41680D01*
D02*
G37*
G36*
X16830Y-42567D02*
X16300D01*
Y-43260D01*
X16873D01*
X16934Y-43257D01*
X16961Y-43254D01*
X16984Y-43251D01*
X16987D01*
X16998Y-43248D01*
X17016Y-43245D01*
X17036Y-43240D01*
X17086Y-43222D01*
X17135Y-43199D01*
X17138Y-43196D01*
X17147Y-43190D01*
X17158Y-43181D01*
X17173Y-43170D01*
X17188Y-43152D01*
X17208Y-43135D01*
X17222Y-43112D01*
X17240Y-43085D01*
X17243Y-43082D01*
X17246Y-43074D01*
X17252Y-43056D01*
X17260Y-43036D01*
X17269Y-43013D01*
X17275Y-42983D01*
X17278Y-42949D01*
X17281Y-42914D01*
Y-42908D01*
Y-42896D01*
X17278Y-42873D01*
X17272Y-42847D01*
X17266Y-42818D01*
X17254Y-42786D01*
X17240Y-42754D01*
X17220Y-42722D01*
X17217Y-42719D01*
X17208Y-42707D01*
X17196Y-42693D01*
X17179Y-42675D01*
X17155Y-42655D01*
X17126Y-42634D01*
X17094Y-42617D01*
X17056Y-42602D01*
X17051Y-42599D01*
X17039Y-42596D01*
X17013Y-42591D01*
X16981Y-42585D01*
X16940Y-42579D01*
X16891Y-42573D01*
X16830Y-42567D01*
D02*
G37*
G36*
X31432Y-41694D02*
Y-41697D01*
X31429Y-41703D01*
Y-41715D01*
X31423Y-41726D01*
X31420Y-41747D01*
X31414Y-41767D01*
X31403Y-41817D01*
X31388Y-41875D01*
X31368Y-41939D01*
X31348Y-42009D01*
X31321Y-42081D01*
X31103Y-42669D01*
X31784D01*
X31574Y-42116D01*
Y-42113D01*
X31572Y-42105D01*
X31566Y-42090D01*
X31560Y-42073D01*
X31551Y-42052D01*
X31543Y-42026D01*
X31534Y-41997D01*
X31522Y-41968D01*
X31499Y-41901D01*
X31476Y-41831D01*
X31452Y-41761D01*
X31432Y-41694D01*
D02*
G37*
G36*
X47865Y-41723D02*
X47289D01*
Y-42442D01*
X47830D01*
X47850Y-42439D01*
X47870D01*
X47894Y-42436D01*
X47949Y-42431D01*
X48010Y-42419D01*
X48071Y-42401D01*
X48127Y-42378D01*
X48153Y-42364D01*
X48173Y-42346D01*
X48179Y-42340D01*
X48191Y-42329D01*
X48208Y-42305D01*
X48228Y-42276D01*
X48249Y-42239D01*
X48266Y-42192D01*
X48278Y-42140D01*
X48284Y-42079D01*
Y-42076D01*
Y-42073D01*
Y-42058D01*
X48281Y-42032D01*
X48275Y-42003D01*
X48269Y-41971D01*
X48258Y-41933D01*
X48240Y-41898D01*
X48220Y-41863D01*
X48217Y-41860D01*
X48208Y-41849D01*
X48193Y-41834D01*
X48176Y-41814D01*
X48150Y-41793D01*
X48121Y-41776D01*
X48089Y-41758D01*
X48051Y-41744D01*
X48048D01*
X48036Y-41741D01*
X48019Y-41738D01*
X47996Y-41732D01*
X47961Y-41729D01*
X47917Y-41726D01*
X47865Y-41723D01*
D02*
G37*
G36*
X20639Y-41694D02*
Y-41697D01*
X20636Y-41703D01*
Y-41715D01*
X20630Y-41726D01*
X20627Y-41747D01*
X20621Y-41767D01*
X20610Y-41817D01*
X20595Y-41875D01*
X20575Y-41939D01*
X20554Y-42009D01*
X20528Y-42081D01*
X20310Y-42669D01*
X20991D01*
X20781Y-42116D01*
Y-42113D01*
X20778Y-42105D01*
X20773Y-42090D01*
X20767Y-42073D01*
X20758Y-42052D01*
X20749Y-42026D01*
X20741Y-41997D01*
X20729Y-41968D01*
X20706Y-41901D01*
X20682Y-41831D01*
X20659Y-41761D01*
X20639Y-41694D01*
D02*
G37*
G36*
X24646Y-42567D02*
X24116D01*
Y-43260D01*
X24690D01*
X24751Y-43257D01*
X24777Y-43254D01*
X24800Y-43251D01*
X24803D01*
X24815Y-43248D01*
X24832Y-43245D01*
X24852Y-43240D01*
X24902Y-43222D01*
X24951Y-43199D01*
X24954Y-43196D01*
X24963Y-43190D01*
X24975Y-43181D01*
X24989Y-43170D01*
X25004Y-43152D01*
X25024Y-43135D01*
X25039Y-43112D01*
X25056Y-43085D01*
X25059Y-43082D01*
X25062Y-43074D01*
X25068Y-43056D01*
X25076Y-43036D01*
X25085Y-43013D01*
X25091Y-42983D01*
X25094Y-42949D01*
X25097Y-42914D01*
Y-42908D01*
Y-42896D01*
X25094Y-42873D01*
X25088Y-42847D01*
X25082Y-42818D01*
X25071Y-42786D01*
X25056Y-42754D01*
X25036Y-42722D01*
X25033Y-42719D01*
X25024Y-42707D01*
X25012Y-42693D01*
X24995Y-42675D01*
X24972Y-42655D01*
X24943Y-42634D01*
X24911Y-42617D01*
X24873Y-42602D01*
X24867Y-42599D01*
X24855Y-42596D01*
X24829Y-42591D01*
X24797Y-42585D01*
X24756Y-42579D01*
X24707Y-42573D01*
X24646Y-42567D01*
D02*
G37*
G36*
X26523D02*
X25993D01*
Y-43260D01*
X26566D01*
X26627Y-43257D01*
X26654Y-43254D01*
X26677Y-43251D01*
X26680D01*
X26692Y-43248D01*
X26709Y-43245D01*
X26729Y-43240D01*
X26779Y-43222D01*
X26828Y-43199D01*
X26831Y-43196D01*
X26840Y-43190D01*
X26852Y-43181D01*
X26866Y-43170D01*
X26881Y-43152D01*
X26901Y-43135D01*
X26916Y-43112D01*
X26933Y-43085D01*
X26936Y-43082D01*
X26939Y-43074D01*
X26945Y-43056D01*
X26954Y-43036D01*
X26962Y-43013D01*
X26968Y-42983D01*
X26971Y-42949D01*
X26974Y-42914D01*
Y-42908D01*
Y-42896D01*
X26971Y-42873D01*
X26965Y-42847D01*
X26959Y-42818D01*
X26948Y-42786D01*
X26933Y-42754D01*
X26913Y-42722D01*
X26910Y-42719D01*
X26901Y-42707D01*
X26889Y-42693D01*
X26872Y-42675D01*
X26849Y-42655D01*
X26820Y-42634D01*
X26788Y-42617D01*
X26750Y-42602D01*
X26744Y-42599D01*
X26732Y-42596D01*
X26706Y-42591D01*
X26674Y-42585D01*
X26633Y-42579D01*
X26584Y-42573D01*
X26523Y-42567D01*
D02*
G37*
%LPD*%
D33*
X81516Y-4437D02*
G03*
X81516Y-4437I-2953J0D01*
G01*
X5453Y-30047D02*
G03*
X5453Y-30047I-2953J0D01*
G01*
X111453Y-31047D02*
G03*
X111453Y-31047I-2953J0D01*
G01*
Y-20047D02*
G03*
X111453Y-20047I-2953J0D01*
G01*
X60000Y-21547D02*
X68000D01*
Y-41047D02*
Y-21547D01*
X60000Y-41047D02*
X68000D01*
X60000D02*
Y-21547D01*
Y-23047D02*
X68000D01*
X37402Y-20472D02*
Y0D01*
X37402Y-20472D02*
X73622D01*
X73622D02*
Y0D01*
X37402D02*
X73622D01*
D34*
X21900Y-1900D02*
X22300D01*
X21800Y-2000D02*
X22300D01*
X21800Y-2100D02*
X22400D01*
X21700Y-2200D02*
X22500D01*
X21700Y-2300D02*
X22500D01*
X21600Y-2400D02*
X22600D01*
X21500Y-2500D02*
X22700D01*
X21400Y-2600D02*
X22700D01*
X21400Y-2700D02*
X22800D01*
X21300Y-2800D02*
X22800D01*
X21300Y-2900D02*
X22900D01*
X21200Y-3000D02*
X22900D01*
X21200Y-3100D02*
X23000D01*
X21100Y-3200D02*
X23100D01*
X21000Y-3300D02*
X23100D01*
X21000Y-3400D02*
X23200D01*
X20900Y-3500D02*
X23200D01*
X20900Y-3600D02*
X23300D01*
X20800Y-3700D02*
X23300D01*
X20800Y-3800D02*
X23400D01*
X20700Y-3900D02*
X23500D01*
X20700Y-4000D02*
X23500D01*
X20600Y-4100D02*
X23600D01*
X20500Y-4200D02*
X23600D01*
X20500Y-4300D02*
X23700D01*
X20400Y-4400D02*
X23700D01*
X20400Y-4500D02*
X23800D01*
X20300Y-4600D02*
X23800D01*
X20300Y-4700D02*
X23900D01*
X20200Y-4800D02*
X23900D01*
X20200Y-4900D02*
X24000D01*
X20100Y-5000D02*
X24000D01*
X20100Y-5100D02*
X24100D01*
X20000Y-5200D02*
X24200D01*
X19900Y-5300D02*
X24200D01*
X19900Y-5400D02*
X24300D01*
X19800Y-5500D02*
X24300D01*
X19800Y-5600D02*
X24400D01*
X19700Y-5700D02*
X24400D01*
X19700Y-5800D02*
X24500D01*
X19600Y-5900D02*
X24500D01*
X19500Y-6000D02*
X24600D01*
X19500Y-6100D02*
X24600D01*
X19400Y-6200D02*
X24700D01*
X19300Y-6300D02*
X24800D01*
X19300Y-6400D02*
X24800D01*
X19200Y-6500D02*
X24900D01*
X19200Y-6600D02*
X24900D01*
X19100Y-6700D02*
X25000D01*
X19100Y-6800D02*
X21900D01*
X22100D02*
X25000D01*
X19000Y-6900D02*
X21900D01*
X22200D02*
X25100D01*
X19000Y-7000D02*
X21800D01*
X22200D02*
X25100D01*
X18900Y-7100D02*
X21800D01*
X22300D02*
X25200D01*
X18900Y-7200D02*
X21700D01*
X22300D02*
X25200D01*
X18800Y-7300D02*
X21600D01*
X22400D02*
X25300D01*
X18700Y-7400D02*
X21600D01*
X22500D02*
X25400D01*
X18700Y-7500D02*
X21500D01*
X22500D02*
X25400D01*
X18600Y-7600D02*
X21500D01*
X22500D02*
X25500D01*
X18600Y-7700D02*
X21400D01*
X22600D02*
X25500D01*
X18500Y-7800D02*
X21400D01*
X22700D02*
X25600D01*
X18500Y-7900D02*
X21300D01*
X22700D02*
X25600D01*
X18400Y-8000D02*
X21200D01*
X22800D02*
X25700D01*
X18400Y-8100D02*
X21200D01*
X22800D02*
X25700D01*
X18300Y-8200D02*
X21200D01*
X22900D02*
X25800D01*
X18200Y-8300D02*
X21100D01*
X22900D02*
X25900D01*
X18200Y-8400D02*
X21000D01*
X23000D02*
X25900D01*
X18100Y-8500D02*
X21000D01*
X23100D02*
X26000D01*
X18100Y-8600D02*
X20900D01*
X23100D02*
X26000D01*
X18000Y-8700D02*
X20800D01*
X23200D02*
X26100D01*
X18000Y-8800D02*
X20800D01*
X23200D02*
X26100D01*
X17900Y-8900D02*
X20800D01*
X23300D02*
X26200D01*
X17800Y-9000D02*
X20700D01*
X23300D02*
X26200D01*
X17800Y-9100D02*
X20600D01*
X23400D02*
X26300D01*
X17700Y-9200D02*
X20600D01*
X23400D02*
X26300D01*
X17700Y-9300D02*
X20500D01*
X23500D02*
X26400D01*
X17600Y-9400D02*
X20500D01*
X23600D02*
X26500D01*
X17600Y-9500D02*
X20400D01*
X23600D02*
X26500D01*
X17500Y-9600D02*
X20400D01*
X23700D02*
X26600D01*
X17500Y-9700D02*
X20300D01*
X23700D02*
X26600D01*
X17400Y-9800D02*
X20200D01*
X23800D02*
X26700D01*
X17400Y-9900D02*
X20200D01*
X23800D02*
X26700D01*
X17300Y-10000D02*
X20100D01*
X23900D02*
X26800D01*
X17200Y-10100D02*
X20100D01*
X24000D02*
X26800D01*
X17200Y-10200D02*
X20000D01*
X24000D02*
X26900D01*
X17100Y-10300D02*
X20000D01*
X24000D02*
X26900D01*
X17100Y-10400D02*
X19900D01*
X24100D02*
X27000D01*
X17000Y-10500D02*
X19800D01*
X24200D02*
X27100D01*
X17000Y-10600D02*
X19800D01*
X24200D02*
X27100D01*
X16900Y-10700D02*
X19700D01*
X24300D02*
X27200D01*
X16900Y-10800D02*
X19700D01*
X24400D02*
X27200D01*
X16800Y-10900D02*
X19600D01*
X24400D02*
X27300D01*
X16700Y-11000D02*
X19600D01*
X24400D02*
X27300D01*
X16700Y-11100D02*
X19500D01*
X24500D02*
X27400D01*
X16600Y-11200D02*
X19400D01*
X24600D02*
X27400D01*
X16600Y-11300D02*
X19400D01*
X20100D02*
X23500D01*
X24600D02*
X27500D01*
X16500Y-11400D02*
X19300D01*
X19900D02*
X23600D01*
X24700D02*
X27500D01*
X16500Y-11500D02*
X19300D01*
X19900D02*
X23600D01*
X24700D02*
X27600D01*
X16400Y-11600D02*
X19200D01*
X19900D02*
X23600D01*
X24800D02*
X27600D01*
X16300Y-11700D02*
X19100D01*
X19900D02*
X23500D01*
X24800D02*
X27700D01*
X16300Y-11800D02*
X19100D01*
X19800D02*
X23400D01*
X24900D02*
X27800D01*
X16200Y-11900D02*
X19000D01*
X19800D02*
X23400D01*
X24900D02*
X27800D01*
X16200Y-12000D02*
X19000D01*
X19800D02*
X23300D01*
X25000D02*
X27900D01*
X16100Y-12100D02*
X18900D01*
X19800D02*
X23300D01*
X25100D02*
X27900D01*
X16100Y-12200D02*
X18900D01*
X19700D02*
X23200D01*
X25100D02*
X28000D01*
X16000Y-12300D02*
X18800D01*
X19700D02*
X23200D01*
X25200D02*
X28000D01*
X15900Y-12400D02*
X18800D01*
X19700D02*
X23100D01*
X25200D02*
X28100D01*
X15900Y-12500D02*
X18700D01*
X19700D02*
X23100D01*
X25300D02*
X28100D01*
X15800Y-12600D02*
X18600D01*
X19700D02*
X23000D01*
X25300D02*
X28200D01*
X15800Y-12700D02*
X18600D01*
X19600D02*
X23000D01*
X25400D02*
X28200D01*
X15700Y-12800D02*
X18500D01*
X19600D02*
X22900D01*
X25400D02*
X28300D01*
X15700Y-12900D02*
X18500D01*
X19600D02*
X22900D01*
X25500D02*
X28400D01*
X15600Y-13000D02*
X18400D01*
X19600D02*
X22800D01*
X25600D02*
X28400D01*
X15600Y-13100D02*
X18400D01*
X19500D02*
X22800D01*
X25600D02*
X28500D01*
X15500Y-13200D02*
X18300D01*
X19500D02*
X22700D01*
X25700D02*
X28500D01*
X15400Y-13300D02*
X18200D01*
X19500D02*
X22700D01*
X25700D02*
X28600D01*
X15400Y-13400D02*
X18200D01*
X19500D02*
X22600D01*
X25800D02*
X28600D01*
X15300Y-13500D02*
X18100D01*
X19400D02*
X22600D01*
X25800D02*
X28700D01*
X15300Y-13600D02*
X18000D01*
X19400D02*
X22500D01*
X25900D02*
X28800D01*
X15200Y-13700D02*
X18000D01*
X19400D02*
X22400D01*
X26000D02*
X28800D01*
X15200Y-13800D02*
X18000D01*
X19400D02*
X22400D01*
X26000D02*
X28900D01*
X15100Y-13900D02*
X17900D01*
X19300D02*
X22300D01*
X26100D02*
X28900D01*
X15100Y-14000D02*
X17800D01*
X19300D02*
X22300D01*
X26100D02*
X29000D01*
X15000Y-14100D02*
X17800D01*
X19300D02*
X22200D01*
X26200D02*
X29000D01*
X14900Y-14200D02*
X17700D01*
X19300D02*
X22200D01*
X26200D02*
X29100D01*
X14900Y-14300D02*
X17700D01*
X19300D02*
X22200D01*
X26300D02*
X29100D01*
X14800Y-14400D02*
X17600D01*
X19300D02*
X22100D01*
X26300D02*
X29200D01*
X14800Y-14500D02*
X17600D01*
X19200D02*
X22000D01*
X26400D02*
X29200D01*
X14700Y-14600D02*
X17500D01*
X19200D02*
X22000D01*
X26500D02*
X29300D01*
X14700Y-14700D02*
X17500D01*
X19200D02*
X22000D01*
X26500D02*
X29300D01*
X14600Y-14800D02*
X17400D01*
X19100D02*
X21900D01*
X26600D02*
X29400D01*
X14600Y-14900D02*
X17300D01*
X19100D02*
X21800D01*
X26600D02*
X29500D01*
X14500Y-15000D02*
X17300D01*
X19100D02*
X21800D01*
X26700D02*
X29500D01*
X14400Y-15100D02*
X17200D01*
X19100D02*
X21800D01*
X26700D02*
X29600D01*
X14400Y-15200D02*
X17200D01*
X19100D02*
X21700D01*
X26800D02*
X29600D01*
X14300Y-15300D02*
X17100D01*
X19000D02*
X21600D01*
X26900D02*
X29700D01*
X14300Y-15400D02*
X17100D01*
X19000D02*
X21600D01*
X26900D02*
X29700D01*
X14200Y-15500D02*
X17000D01*
X19000D02*
X21500D01*
X27000D02*
X29800D01*
X14200Y-15600D02*
X16900D01*
X18900D02*
X21500D01*
X25200D02*
X25300D01*
X27000D02*
X29900D01*
X14100Y-15700D02*
X16900D01*
X18900D02*
X21400D01*
X25000D02*
X25400D01*
X27100D02*
X29900D01*
X14100Y-15800D02*
X16800D01*
X18900D02*
X21400D01*
X24700D02*
X25400D01*
X27100D02*
X30000D01*
X14000Y-15900D02*
X16800D01*
X18900D02*
X21300D01*
X24500D02*
X25300D01*
X27200D02*
X30000D01*
X14000Y-16000D02*
X16700D01*
X18900D02*
X21300D01*
X24300D02*
X25300D01*
X27200D02*
X30100D01*
X13900Y-16100D02*
X16700D01*
X18800D02*
X21200D01*
X24100D02*
X25300D01*
X27300D02*
X30100D01*
X13800Y-16200D02*
X16600D01*
X18800D02*
X21200D01*
X23800D02*
X25200D01*
X27400D02*
X30200D01*
X13800Y-16300D02*
X16500D01*
X18800D02*
X21100D01*
X23600D02*
X25200D01*
X27400D02*
X30200D01*
X13700Y-16400D02*
X16500D01*
X18800D02*
X21000D01*
X23400D02*
X25200D01*
X27500D02*
X30300D01*
X13700Y-16500D02*
X16400D01*
X18700D02*
X21000D01*
X23100D02*
X25100D01*
X27500D02*
X30300D01*
X13600Y-16600D02*
X16400D01*
X18700D02*
X21000D01*
X22900D02*
X25100D01*
X27600D02*
X30400D01*
X13600Y-16700D02*
X16300D01*
X18700D02*
X20900D01*
X22700D02*
X25000D01*
X27600D02*
X30400D01*
X13500Y-16800D02*
X16300D01*
X18700D02*
X20900D01*
X22500D02*
X25000D01*
X27700D02*
X30500D01*
X13400Y-16900D02*
X16200D01*
X18700D02*
X20800D01*
X22200D02*
X25000D01*
X27700D02*
X30600D01*
X13400Y-17000D02*
X16200D01*
X18600D02*
X20800D01*
X22000D02*
X25000D01*
X27800D02*
X30600D01*
X13300Y-17100D02*
X16100D01*
X18600D02*
X20700D01*
X21800D02*
X24900D01*
X27800D02*
X30700D01*
X13300Y-17200D02*
X16000D01*
X18600D02*
X20700D01*
X21600D02*
X24900D01*
X27900D02*
X30700D01*
X13200Y-17300D02*
X16000D01*
X18600D02*
X20600D01*
X21300D02*
X24800D01*
X28000D02*
X30800D01*
X13200Y-17400D02*
X15900D01*
X18500D02*
X20500D01*
X21100D02*
X24800D01*
X28000D02*
X30800D01*
X13100Y-17500D02*
X15900D01*
X18500D02*
X20500D01*
X20800D02*
X24800D01*
X28100D02*
X30900D01*
X13100Y-17600D02*
X15800D01*
X18500D02*
X20500D01*
X20700D02*
X24700D01*
X28100D02*
X30900D01*
X13000Y-17700D02*
X15800D01*
X18500D02*
X24700D01*
X28200D02*
X31000D01*
X12900Y-17800D02*
X15700D01*
X18400D02*
X24700D01*
X28200D02*
X31000D01*
X12900Y-17900D02*
X15600D01*
X18400D02*
X24600D01*
X28300D02*
X31100D01*
X12800Y-18000D02*
X15600D01*
X18400D02*
X24600D01*
X28300D02*
X31200D01*
X12800Y-18100D02*
X15500D01*
X18400D02*
X24600D01*
X28400D02*
X31200D01*
X12700Y-18200D02*
X15500D01*
X18400D02*
X24500D01*
X28500D02*
X31200D01*
X12700Y-18300D02*
X15400D01*
X18300D02*
X24500D01*
X28500D02*
X31300D01*
X12600Y-18400D02*
X15400D01*
X18300D02*
X24400D01*
X28600D02*
X31400D01*
X12500Y-18500D02*
X15300D01*
X18300D02*
X24400D01*
X28600D02*
X31400D01*
X12500Y-18600D02*
X15200D01*
X18300D02*
X24400D01*
X28700D02*
X31500D01*
X12400Y-18700D02*
X15200D01*
X18200D02*
X24300D01*
X28700D02*
X31600D01*
X12400Y-18800D02*
X15100D01*
X18200D02*
X24300D01*
X28800D02*
X31600D01*
X12300Y-18900D02*
X15100D01*
X18200D02*
X24300D01*
X28900D02*
X31600D01*
X12300Y-19000D02*
X15000D01*
X18200D02*
X24200D01*
X28900D02*
X31700D01*
X12200Y-19100D02*
X15000D01*
X18100D02*
X24200D01*
X29000D02*
X31800D01*
X12200Y-19200D02*
X14900D01*
X18100D02*
X21900D01*
X22200D02*
X24200D01*
X29000D02*
X31800D01*
X12100Y-19300D02*
X14800D01*
X18100D02*
X21800D01*
X22200D02*
X24100D01*
X29100D02*
X31900D01*
X12100Y-19400D02*
X14800D01*
X18100D02*
X21500D01*
X22200D02*
X24100D01*
X29100D02*
X31900D01*
X12000Y-19500D02*
X14800D01*
X18000D02*
X21300D01*
X22100D02*
X24100D01*
X29200D02*
X32000D01*
X12000Y-19600D02*
X14700D01*
X18000D02*
X21100D01*
X22100D02*
X24000D01*
X29200D02*
X32000D01*
X11900Y-19700D02*
X14600D01*
X18000D02*
X20900D01*
X22100D02*
X24000D01*
X29300D02*
X32100D01*
X11800Y-19800D02*
X14600D01*
X18000D02*
X20700D01*
X22100D02*
X23900D01*
X29300D02*
X32100D01*
X11800Y-19900D02*
X14500D01*
X18000D02*
X20500D01*
X22100D02*
X23900D01*
X29400D02*
X32200D01*
X11700Y-20000D02*
X14500D01*
X18000D02*
X20300D01*
X22000D02*
X23900D01*
X29500D02*
X32200D01*
X11700Y-20100D02*
X14400D01*
X17900D02*
X20200D01*
X22000D02*
X23900D01*
X29500D02*
X32300D01*
X11600Y-20200D02*
X14300D01*
X17900D02*
X19900D01*
X22000D02*
X23800D01*
X29500D02*
X32300D01*
X11500Y-20300D02*
X14300D01*
X17900D02*
X19700D01*
X22000D02*
X23800D01*
X29600D02*
X32400D01*
X11500Y-20400D02*
X14200D01*
X17800D02*
X19500D01*
X21900D02*
X23700D01*
X29700D02*
X32500D01*
X11400Y-20500D02*
X14200D01*
X17800D02*
X19300D01*
X21900D02*
X23700D01*
X29700D02*
X32500D01*
X11400Y-20600D02*
X14100D01*
X17800D02*
X19000D01*
X21900D02*
X23700D01*
X29800D02*
X32600D01*
X11300Y-20700D02*
X14000D01*
X17800D02*
X18800D01*
X21800D02*
X23600D01*
X29800D02*
X32600D01*
X11200Y-20800D02*
X14000D01*
X17800D02*
X18600D01*
X21800D02*
X23600D01*
X29900D02*
X32700D01*
X11200Y-20900D02*
X13900D01*
X17700D02*
X18400D01*
X21800D02*
X23600D01*
X30000D02*
X32700D01*
X11200Y-21000D02*
X13900D01*
X17700D02*
X18200D01*
X21800D02*
X23500D01*
X30000D02*
X32800D01*
X11100Y-21100D02*
X13800D01*
X17800D02*
X18000D01*
X21800D02*
X23500D01*
X30100D02*
X32900D01*
X11000Y-21200D02*
X13700D01*
X21700D02*
X23500D01*
X30100D02*
X32900D01*
X11000Y-21300D02*
X13700D01*
X20300D02*
X20400D01*
X21700D02*
X23400D01*
X30200D02*
X33000D01*
X10900Y-21400D02*
X13700D01*
X20200D02*
X20600D01*
X21700D02*
X23400D01*
X24400D02*
X24700D01*
X30200D02*
X33000D01*
X10900Y-21500D02*
X13600D01*
X20200D02*
X20900D01*
X21600D02*
X23300D01*
X24100D02*
X24700D01*
X30300D02*
X33100D01*
X10800Y-21600D02*
X13500D01*
X20300D02*
X21200D01*
X21600D02*
X23300D01*
X23700D02*
X24700D01*
X30400D02*
X33100D01*
X10800Y-21700D02*
X13500D01*
X20300D02*
X21300D01*
X21500D02*
X23300D01*
X23500D02*
X24500D01*
X30400D02*
X33200D01*
X10700Y-21800D02*
X13400D01*
X20400D02*
X24400D01*
X30400D02*
X33200D01*
X10700Y-21900D02*
X13400D01*
X20400D02*
X24300D01*
X30500D02*
X33300D01*
X10600Y-22000D02*
X13300D01*
X20400D02*
X24200D01*
X30600D02*
X33300D01*
X10500Y-22100D02*
X13200D01*
X20500D02*
X24100D01*
X30600D02*
X33400D01*
X10500Y-22200D02*
X13200D01*
X20600D02*
X24000D01*
X30700D02*
X33500D01*
X10400Y-22300D02*
X13100D01*
X20600D02*
X23900D01*
X30700D02*
X33500D01*
X10400Y-22400D02*
X13100D01*
X20600D02*
X23700D01*
X30800D02*
X33500D01*
X10300Y-22500D02*
X13000D01*
X20700D02*
X23600D01*
X30800D02*
X33600D01*
X10300Y-22600D02*
X13000D01*
X20700D02*
X23500D01*
X30900D02*
X33700D01*
X10200Y-22700D02*
X12900D01*
X20800D02*
X23400D01*
X31000D02*
X33700D01*
X10200Y-22800D02*
X12900D01*
X20800D02*
X23300D01*
X31000D02*
X33800D01*
X10100Y-22900D02*
X12800D01*
X20900D02*
X23200D01*
X31100D02*
X33800D01*
X10000Y-23000D02*
X12800D01*
X20900D02*
X23100D01*
X31100D02*
X33900D01*
X10000Y-23100D02*
X12700D01*
X20900D02*
X23000D01*
X31200D02*
X33900D01*
X9900Y-23200D02*
X12600D01*
X21000D02*
X22800D01*
X31200D02*
X34000D01*
X9900Y-23300D02*
X12600D01*
X21000D02*
X22700D01*
X31300D02*
X34000D01*
X9800Y-23400D02*
X12500D01*
X21100D02*
X22600D01*
X31400D02*
X34100D01*
X9800Y-23500D02*
X12500D01*
X21100D02*
X22500D01*
X31400D02*
X34200D01*
X9700Y-23600D02*
X12400D01*
X21200D02*
X22400D01*
X31400D02*
X34200D01*
X9700Y-23700D02*
X12400D01*
X21200D02*
X22300D01*
X31500D02*
X34300D01*
X9600Y-23800D02*
X12300D01*
X21200D02*
X22200D01*
X31600D02*
X34300D01*
X9500Y-23900D02*
X12200D01*
X21300D02*
X22100D01*
X31600D02*
X34400D01*
X9500Y-24000D02*
X12200D01*
X21300D02*
X22000D01*
X31700D02*
X34400D01*
X9400Y-24100D02*
X12100D01*
X21400D02*
X21800D01*
X31700D02*
X34500D01*
X9400Y-24200D02*
X12100D01*
X21400D02*
X21700D01*
X31800D02*
X34600D01*
X9300Y-24300D02*
X12000D01*
X31800D02*
X34600D01*
X9300Y-24400D02*
X11900D01*
X31900D02*
X34700D01*
X9200Y-24500D02*
X11900D01*
X32000D02*
X34700D01*
X9100Y-24600D02*
X12000D01*
X32000D02*
X34800D01*
X9100Y-24700D02*
X34800D01*
X9000Y-24800D02*
X34900D01*
X9000Y-24900D02*
X34900D01*
X8900Y-25000D02*
X35000D01*
X8900Y-25100D02*
X35000D01*
X8800Y-25200D02*
X35100D01*
X8700Y-25300D02*
X35100D01*
X8700Y-25400D02*
X35200D01*
X8600Y-25500D02*
X35300D01*
X8600Y-25600D02*
X35300D01*
X8500Y-25700D02*
X35400D01*
X8500Y-25800D02*
X35400D01*
X8400Y-25900D02*
X35500D01*
X8400Y-26000D02*
X35500D01*
X8300Y-26100D02*
X35600D01*
X8200Y-26200D02*
X35600D01*
X8200Y-26300D02*
X35700D01*
X8100Y-26400D02*
X35700D01*
X8000Y-26600D02*
X35900D01*
X8000Y-26700D02*
X35900D01*
X7900Y-26800D02*
X35900D01*
X7900Y-26900D02*
X36000D01*
X8000Y-27000D02*
X36000D01*
X21400Y-24300D02*
X21600D01*
X21400Y-24400D02*
X21500D01*
X22000Y-1800D02*
X22200D01*
X8100Y-26500D02*
X35800D01*
D35*
X97114Y-82606D02*
Y-55106D01*
X76114D02*
X97114D01*
X76114Y-82606D02*
Y-55106D01*
Y-82606D02*
X97114D01*
X44618D02*
X65618D01*
X44618D02*
Y-55106D01*
X65618D01*
Y-82606D02*
Y-55106D01*
X34122Y-82606D02*
Y-55106D01*
X13122D02*
X34122D01*
X13122Y-82606D02*
Y-55106D01*
Y-82606D02*
X34122D01*
D36*
X83563Y-30169D02*
X83563Y-8669D01*
X74563Y-30169D02*
X74563Y-8669D01*
X83563Y-8669D01*
X74563Y-30169D02*
X83563D01*
D37*
X72378Y-28063D02*
Y-25504D01*
Y-32591D02*
Y-30032D01*
X69622Y-28063D02*
Y-25504D01*
Y-32591D02*
Y-30032D01*
Y-32591D02*
X72378D01*
X69622Y-25504D02*
X72378D01*
X98622Y-18090D02*
X101378D01*
X98622Y-11004D02*
X101378D01*
Y-13563D02*
Y-11004D01*
Y-18090D02*
Y-15531D01*
X98622Y-13563D02*
Y-11004D01*
Y-18090D02*
Y-15531D01*
X94043Y-8425D02*
Y-5669D01*
X86956Y-8425D02*
Y-5669D01*
X89515D01*
X91484D02*
X94043D01*
X86956Y-8425D02*
X89515D01*
X91484D02*
X94043D01*
D38*
X84750Y-21947D02*
Y-17447D01*
X96750Y-21947D02*
Y-17447D01*
X85250Y-21947D02*
X87250Y-21947D01*
X90750Y-12947D02*
X91250D01*
X94750Y-21947D02*
X96750D01*
D39*
X84716Y-32394D02*
Y-25701D01*
X99283Y-32394D02*
Y-25701D01*
X84716Y-32394D02*
X89835D01*
X84716Y-25701D02*
X89835D01*
X94559D02*
X99283D01*
X94559Y-32394D02*
X99283D01*
M02*
