M48
;Layer_Color=9474304
;FILE_FORMAT=2:5
INCH,LZ
;TYPE=PLATED
T3F00S00C0.02362
%
G90
G05
T03
G00X0025394Y-0079921
M15
G01X002185
M16
G00X0015748Y-0057717
M15
G01Y-0060866
M16
G00X0031496Y-0057717
M15
G01Y-0060866
M16
G00X0047244Y-0057717
M15
G01Y-0060866
M16
G00X0062992Y-0057717
M15
G01Y-0060866
M16
G00X007874Y-0057717
M15
G01Y-0060866
M16
G00X0094488Y-0057717
M15
G01Y-0060866
M16
G00X0088386Y-0079921
M15
G01X0084842
M16
G00X005689Y-0079921
M15
G01X0053347
M16
G00X0040945Y-0004331
M15
G01Y-0007087
M16
G00X0069291Y-0004331
M15
G01Y-0007087
M16
M17
M30
