%FSLAX25Y25*%
%MOIN*%
G70*
G01*
G75*
G04 Layer_Physical_Order=2*
G04 Layer_Color=16711680*
%ADD10R,0.06299X0.05984*%
%ADD11C,0.03937*%
%ADD12R,0.06299X0.06693*%
%ADD13R,0.01969X0.02362*%
%ADD14R,0.03600X0.05000*%
%ADD15R,0.05118X0.04921*%
%ADD16R,0.02362X0.01969*%
%ADD17R,0.01575X0.05315*%
%ADD18C,0.01500*%
%ADD19C,0.05000*%
%ADD20C,0.01575*%
%ADD21C,0.01969*%
%ADD22C,0.03000*%
%ADD23C,0.03937*%
%ADD24C,0.05906*%
%ADD25R,0.03500X0.04000*%
%ADD26O,0.07087X0.03543*%
%ADD27O,0.03543X0.06693*%
%ADD28C,0.09843*%
%ADD29C,0.05118*%
%ADD30O,0.04724X0.07480*%
%ADD31C,0.03000*%
%ADD32C,0.02200*%
G36*
X110236Y-1277D02*
X110925Y-1368D01*
X111566Y-1634D01*
X112117Y-2056D01*
X112540Y-2607D01*
X112805Y-3249D01*
X112896Y-3937D01*
X112899D01*
Y-39848D01*
X112428Y-40016D01*
X112162Y-39692D01*
X111260Y-38952D01*
X110907Y-38763D01*
Y-43900D01*
Y-49035D01*
X111260Y-48846D01*
X112162Y-48106D01*
X112428Y-47782D01*
X112899Y-47950D01*
Y-103347D01*
X112896D01*
X112805Y-104035D01*
X112540Y-104676D01*
X112117Y-105227D01*
X111566Y-105650D01*
X110925Y-105916D01*
X110236Y-106006D01*
Y-106009D01*
X0D01*
Y-106006D01*
X-688Y-105916D01*
X-1330Y-105650D01*
X-1881Y-105227D01*
X-2303Y-104676D01*
X-2569Y-104035D01*
X-2660Y-103347D01*
X-2662D01*
Y-47947D01*
X-2191Y-47778D01*
X-1922Y-48106D01*
X-1020Y-48846D01*
X-668Y-49035D01*
Y-43900D01*
Y-38763D01*
X-1020Y-38952D01*
X-1922Y-39692D01*
X-2191Y-40020D01*
X-2662Y-39851D01*
Y-3937D01*
X-2660D01*
X-2569Y-3249D01*
X-2303Y-2607D01*
X-1881Y-2056D01*
X-1330Y-1634D01*
X-688Y-1368D01*
X0Y-1277D01*
Y-1275D01*
X38627D01*
X38788Y-1748D01*
X39249Y-1394D01*
X39536Y-1275D01*
X42353D01*
X42641Y-1394D01*
X42664Y-1275D01*
X66974D01*
X67134Y-1748D01*
X67596Y-1394D01*
X67883Y-1275D01*
X70700D01*
X70987Y-1394D01*
X71011Y-1275D01*
X110236D01*
Y-1277D01*
D02*
G37*
%LPC*%
G36*
X98063Y-31917D02*
X75563D01*
X75173Y-31995D01*
X74842Y-32216D01*
X74621Y-32547D01*
X74543Y-32937D01*
Y-56863D01*
X74563Y-56961D01*
Y-57062D01*
X74601Y-57154D01*
X74621Y-57253D01*
X74677Y-57336D01*
X74715Y-57429D01*
X74786Y-57500D01*
X74842Y-57584D01*
X74926Y-57639D01*
X74938Y-57652D01*
X74925Y-57717D01*
Y-59292D01*
Y-60866D01*
X74938Y-60931D01*
X74926Y-60943D01*
X74842Y-60999D01*
X74786Y-61083D01*
X74715Y-61154D01*
X74677Y-61246D01*
X74621Y-61330D01*
X74601Y-61428D01*
X74563Y-61521D01*
Y-61621D01*
X74543Y-61720D01*
Y-83437D01*
X74621Y-83827D01*
X74842Y-84158D01*
X75173Y-84379D01*
X75563Y-84457D01*
X98063D01*
X98453Y-84379D01*
X98784Y-84158D01*
X99005Y-83827D01*
X99083Y-83437D01*
Y-32937D01*
X99005Y-32547D01*
X98784Y-32216D01*
X98453Y-31995D01*
X98063Y-31917D01*
D02*
G37*
G36*
X105002Y-38763D02*
X104649Y-38952D01*
X103747Y-39692D01*
X103007Y-40593D01*
X102819Y-40946D01*
X105002D01*
Y-38763D01*
D02*
G37*
G36*
X1732Y-3679D02*
X789Y-3804D01*
X-89Y-4168D01*
X-844Y-4747D01*
X-1423Y-5501D01*
X-1787Y-6380D01*
X-1911Y-7323D01*
X-1787Y-8266D01*
X-1423Y-9144D01*
X-844Y-9899D01*
X-89Y-10478D01*
X789Y-10842D01*
X1732Y-10966D01*
X2675Y-10842D01*
X3554Y-10478D01*
X4309Y-9899D01*
X4888Y-9144D01*
X5252Y-8266D01*
X5376Y-7323D01*
X5252Y-6380D01*
X4888Y-5501D01*
X4309Y-4747D01*
X3554Y-4168D01*
X2675Y-3804D01*
X1732Y-3679D01*
D02*
G37*
G36*
Y-95018D02*
X789Y-95142D01*
X-89Y-95506D01*
X-844Y-96085D01*
X-1423Y-96840D01*
X-1787Y-97718D01*
X-1911Y-98661D01*
X-1787Y-99604D01*
X-1423Y-100483D01*
X-844Y-101238D01*
X-89Y-101817D01*
X789Y-102181D01*
X1732Y-102305D01*
X2675Y-102181D01*
X3554Y-101817D01*
X4309Y-101238D01*
X4888Y-100483D01*
X5252Y-99604D01*
X5376Y-98661D01*
X5252Y-97718D01*
X4888Y-96840D01*
X4309Y-96085D01*
X3554Y-95506D01*
X2675Y-95142D01*
X1732Y-95018D01*
D02*
G37*
G36*
X7421Y-46852D02*
X5238D01*
Y-49035D01*
X5591Y-48846D01*
X6492Y-48106D01*
X7232Y-47205D01*
X7421Y-46852D01*
D02*
G37*
G36*
X105002D02*
X102819D01*
X103007Y-47205D01*
X103747Y-48106D01*
X104649Y-48846D01*
X105002Y-49035D01*
Y-46852D01*
D02*
G37*
G36*
X5238Y-38763D02*
Y-40946D01*
X7421D01*
X7232Y-40593D01*
X6492Y-39692D01*
X5591Y-38952D01*
X5238Y-38763D01*
D02*
G37*
G36*
X103000Y-17498D02*
X74000D01*
X73024Y-17692D01*
X72198Y-18245D01*
X61190Y-29253D01*
X60637Y-30080D01*
X60443Y-31055D01*
Y-50528D01*
X49308D01*
X49275Y-50534D01*
X49241Y-50530D01*
X49229Y-50533D01*
X49143Y-50490D01*
X49032Y-50416D01*
X48358Y-50137D01*
X48227Y-50111D01*
X48101Y-50068D01*
X47377Y-49973D01*
X47244Y-49982D01*
X47111Y-49973D01*
X46387Y-50068D01*
X46261Y-50111D01*
X46130Y-50137D01*
X45456Y-50416D01*
X45345Y-50490D01*
X45226Y-50549D01*
X44646Y-50994D01*
X44559Y-51094D01*
X44458Y-51182D01*
X44014Y-51761D01*
X43955Y-51881D01*
X43881Y-51991D01*
X43602Y-52666D01*
X43576Y-52797D01*
X43533Y-52923D01*
X43437Y-53646D01*
X43442Y-53714D01*
X43429Y-53780D01*
Y-55355D01*
Y-56929D01*
X43442Y-56995D01*
X43437Y-57062D01*
X43533Y-57786D01*
X43576Y-57912D01*
X43602Y-58043D01*
X43647Y-58153D01*
X43586Y-58233D01*
X43577Y-58265D01*
X43558Y-58293D01*
X43526Y-58456D01*
X43483Y-58617D01*
X43487Y-58650D01*
X43480Y-58684D01*
Y-78547D01*
X43558Y-78937D01*
X43779Y-79268D01*
X44110Y-79489D01*
X44500Y-79567D01*
X50240D01*
X50551Y-79921D01*
X50646Y-80645D01*
X50925Y-81319D01*
X51370Y-81898D01*
X51949Y-82342D01*
X52623Y-82622D01*
X53347Y-82717D01*
X56890D01*
X57613Y-82622D01*
X58288Y-82342D01*
X58867Y-81898D01*
X59311Y-81319D01*
X59590Y-80645D01*
X59685Y-79921D01*
X59996Y-79567D01*
X65347D01*
X65538Y-79605D01*
X65538D01*
X65538D01*
X65693Y-79574D01*
X65928Y-79527D01*
X65928Y-79527D01*
X65928D01*
X66390Y-79336D01*
X66390Y-79336D01*
X66721Y-79115D01*
Y-79115D01*
X66721D01*
X66942Y-78784D01*
X66994Y-78523D01*
X67020Y-78394D01*
Y-58192D01*
X67000Y-58093D01*
Y-57993D01*
X66962Y-57900D01*
X66942Y-57801D01*
X66886Y-57718D01*
X66848Y-57625D01*
X66777Y-57554D01*
X66741Y-57501D01*
X66799Y-57062D01*
X66794Y-56995D01*
X66808Y-56929D01*
Y-53780D01*
X66794Y-53714D01*
X66799Y-53646D01*
X66703Y-52923D01*
X66661Y-52797D01*
X66635Y-52666D01*
X66364Y-52011D01*
X66364Y-52011D01*
X66364Y-52011D01*
X66355Y-51991D01*
X66281Y-51881D01*
X66222Y-51761D01*
X65778Y-51182D01*
X65678Y-51094D01*
X65590Y-50994D01*
X65541Y-50956D01*
Y-32111D01*
X75056Y-22596D01*
X103000D01*
X103975Y-22402D01*
X104802Y-21850D01*
X105355Y-21023D01*
X105549Y-20047D01*
X105355Y-19072D01*
X104802Y-18245D01*
X103975Y-17692D01*
X103000Y-17498D01*
D02*
G37*
G36*
X108504Y-3679D02*
X107561Y-3804D01*
X106682Y-4168D01*
X105928Y-4747D01*
X105349Y-5501D01*
X104985Y-6380D01*
X104861Y-7323D01*
X104985Y-8266D01*
X105349Y-9144D01*
X105928Y-9899D01*
X106682Y-10478D01*
X107561Y-10842D01*
X108504Y-10966D01*
X109447Y-10842D01*
X110326Y-10478D01*
X111080Y-9899D01*
X111659Y-9144D01*
X112023Y-8266D01*
X112147Y-7323D01*
X112023Y-6380D01*
X111659Y-5501D01*
X111080Y-4747D01*
X110326Y-4168D01*
X109447Y-3804D01*
X108504Y-3679D01*
D02*
G37*
G36*
X43898Y-2673D02*
Y-2756D01*
X43932D01*
X43898Y-2673D01*
D02*
G37*
G36*
X37992D02*
X37958Y-2756D01*
X37992D01*
Y-2673D01*
D02*
G37*
G36*
X72244D02*
Y-2756D01*
X72278D01*
X72244Y-2673D01*
D02*
G37*
G36*
X66339D02*
X66304Y-2756D01*
X66339D01*
Y-2673D01*
D02*
G37*
G36*
X43932Y-8661D02*
X43898D01*
Y-8744D01*
X43932Y-8661D01*
D02*
G37*
G36*
X66339D02*
X66304D01*
X66339Y-8744D01*
Y-8661D01*
D02*
G37*
G36*
X72278D02*
X72244D01*
Y-8744D01*
X72278Y-8661D01*
D02*
G37*
G36*
X37992D02*
X37958D01*
X37992Y-8744D01*
Y-8661D01*
D02*
G37*
%LPD*%
G36*
X98063Y-83437D02*
X75563D01*
Y-61720D01*
X76053Y-61622D01*
X76040Y-61590D01*
X75944Y-60866D01*
Y-59292D01*
Y-57717D01*
X76040Y-56993D01*
X76053Y-56960D01*
X75563Y-56863D01*
Y-32937D01*
X98063D01*
Y-83437D01*
D02*
G37*
G36*
X63716Y-51079D02*
X64390Y-51358D01*
X64969Y-51803D01*
X65413Y-52382D01*
X65422Y-52402D01*
X65693Y-53056D01*
X65788Y-53780D01*
Y-56929D01*
X65693Y-57653D01*
X65510Y-58094D01*
X66000Y-58192D01*
Y-78394D01*
X65538Y-78585D01*
X65500Y-78547D01*
X58880D01*
X58720Y-78074D01*
X58288Y-78405D01*
X57613Y-78685D01*
X56890Y-78780D01*
X53347D01*
X52623Y-78685D01*
X51949Y-78405D01*
X51516Y-78074D01*
X51356Y-78547D01*
X44500D01*
Y-58684D01*
X44973Y-58523D01*
X44823Y-58327D01*
X44544Y-57653D01*
X44448Y-56929D01*
Y-55355D01*
Y-53780D01*
X44544Y-53056D01*
X44823Y-52382D01*
X45267Y-51803D01*
X45846Y-51358D01*
X46521Y-51079D01*
X47244Y-50984D01*
X47968Y-51079D01*
X48642Y-51358D01*
X49221Y-51803D01*
X49308Y-51547D01*
X60443D01*
Y-52690D01*
X60563Y-52402D01*
X60571Y-52382D01*
X61015Y-51803D01*
X61594Y-51358D01*
X62269Y-51079D01*
X62992Y-50984D01*
X63716Y-51079D01*
D02*
G37*
%LPC*%
G36*
X92686Y-43516D02*
Y-43578D01*
X92732Y-43547D01*
X92686Y-43516D01*
D02*
G37*
G36*
X96291Y-39850D02*
X96245Y-39880D01*
X96291Y-39911D01*
Y-39850D01*
D02*
G37*
G36*
X92686D02*
Y-39911D01*
X92732Y-39880D01*
X92686Y-39850D01*
D02*
G37*
G36*
X96291Y-47183D02*
X96245Y-47214D01*
X96291Y-47245D01*
Y-47183D01*
D02*
G37*
G36*
X92686D02*
Y-47245D01*
X92732Y-47214D01*
X92686Y-47183D01*
D02*
G37*
G36*
X96291Y-43516D02*
X96245Y-43547D01*
X96291Y-43578D01*
Y-43516D01*
D02*
G37*
%LPD*%
D22*
X74000Y-20047D02*
X103000D01*
X62992Y-59055D02*
Y-31055D01*
X74000Y-20047D01*
D26*
X86614Y-79921D02*
D03*
X55118D02*
D03*
X23622D02*
D03*
D27*
X94488Y-59291D02*
D03*
X78740D02*
D03*
X47244D02*
D03*
X62992D02*
D03*
X31496D02*
D03*
X15748D02*
D03*
D28*
X2285Y-43899D02*
D03*
X107955D02*
D03*
D29*
X45571Y-17126D02*
D03*
X64665D02*
D03*
D30*
X40945Y-5709D02*
D03*
X69291D02*
D03*
D31*
X50000Y-22874D02*
D03*
X10500Y-30047D02*
D03*
X56055Y-36992D02*
D03*
X94488Y-49047D02*
D03*
Y-45380D02*
D03*
Y-41714D02*
D03*
Y-38047D02*
D03*
X103000Y-20047D02*
D03*
D32*
X25063Y-34437D02*
D03*
X29563D02*
D03*
X34063D02*
D03*
X73563Y-94437D02*
D03*
X78063D02*
D03*
X82563D02*
D03*
X49563D02*
D03*
X54063D02*
D03*
X58563D02*
D03*
X26563D02*
D03*
X31063D02*
D03*
X35563D02*
D03*
X29730Y-74437D02*
D03*
X25563D02*
D03*
X21396D02*
D03*
X17230D02*
D03*
X29730Y-69937D02*
D03*
X25563D02*
D03*
X21396D02*
D03*
X17230D02*
D03*
X29730Y-65437D02*
D03*
X25563D02*
D03*
X21396D02*
D03*
X17230D02*
D03*
M02*
