%FSLAX25Y25*%
%MOIN*%
G70*
G01*
G75*
G04 Layer_Physical_Order=1*
G04 Layer_Color=255*
%ADD10R,0.01575X0.05315*%
%ADD11R,0.09843X0.01378*%
%ADD12R,0.02362X0.01969*%
%ADD13R,0.06693X0.06299*%
%ADD14C,0.04000*%
%ADD15C,0.01000*%
%ADD16C,0.02000*%
%ADD17C,0.01400*%
%ADD18C,0.05118*%
%ADD19O,0.04724X0.07480*%
%ADD20C,0.11811*%
%ADD21C,0.02200*%
%ADD22C,0.03000*%
G36*
X67126Y143440D02*
X67504Y143365D01*
X67824Y143151D01*
X68038Y142831D01*
X68113Y142453D01*
X68126D01*
Y121571D01*
X67520D01*
Y121581D01*
X66655Y121467D01*
X65849Y121133D01*
X65157Y120602D01*
X64626Y119911D01*
X64293Y119105D01*
X64179Y118240D01*
X64293Y117376D01*
X64626Y116570D01*
X65157Y115878D01*
X65849Y115347D01*
X66655Y115013D01*
X67520Y114899D01*
Y114909D01*
X70276D01*
D01*
X70276D01*
Y114893D01*
X70414Y114836D01*
X70472Y114697D01*
X70488D01*
Y109776D01*
X70482D01*
X70381Y109009D01*
X70085Y108294D01*
X69614Y107681D01*
X69001Y107210D01*
X68286Y106914D01*
X67520Y106813D01*
Y106807D01*
X65158D01*
Y106831D01*
X63882Y106663D01*
X62693Y106170D01*
X61672Y105387D01*
X60976Y104480D01*
X60476D01*
X60107Y104961D01*
X58395Y106673D01*
X58587Y107135D01*
X59696D01*
Y114834D01*
X56645D01*
Y116300D01*
X57007D01*
Y119668D01*
X56645D01*
Y121658D01*
X56552Y122362D01*
X56349Y122853D01*
Y125217D01*
X56409D01*
Y131932D01*
X53850D01*
Y131932D01*
X50875D01*
Y131932D01*
X48731D01*
Y131932D01*
X43198D01*
Y125217D01*
X43461D01*
Y106223D01*
X43555Y105755D01*
X43820Y105358D01*
X50058Y99120D01*
Y53767D01*
X50053Y53745D01*
Y13600D01*
X49591Y13408D01*
X49537Y13463D01*
X49527Y13540D01*
X49254Y14197D01*
X48822Y14761D01*
X48258Y15194D01*
X47601Y15466D01*
X46896Y15559D01*
X41756D01*
X41658Y16049D01*
X42031Y16204D01*
X43052Y16987D01*
X43836Y18008D01*
X44328Y19197D01*
X44496Y20472D01*
X44473D01*
Y101902D01*
X44473Y101902D01*
D01*
D01*
X44473Y101902D01*
Y101902D01*
X44496D01*
X44496Y101905D01*
X44473Y102079D01*
Y102079D01*
X44449Y102258D01*
X44449Y102258D01*
X44328Y103177D01*
Y103177D01*
X43836Y104366D01*
X43052Y105387D01*
X42031Y106170D01*
X40843Y106663D01*
X39567Y106831D01*
Y106807D01*
X39567Y106807D01*
X15473D01*
Y106813D01*
X14706Y106914D01*
X13991Y107210D01*
X13378Y107681D01*
X12907Y108294D01*
X12611Y109009D01*
X12510Y109776D01*
X12504D01*
Y133398D01*
X12520D01*
X12578Y133536D01*
X12717Y133594D01*
Y133610D01*
X12717D01*
D01*
X14370D01*
Y133600D01*
X15235Y133714D01*
X16040Y134048D01*
X16732Y134579D01*
X17263Y135271D01*
X17597Y136076D01*
X17711Y136941D01*
X17597Y137806D01*
X17263Y138611D01*
X16732Y139303D01*
X16040Y139834D01*
X15235Y140168D01*
X14370Y140282D01*
Y140272D01*
X12717D01*
Y140288D01*
X12578Y140346D01*
X12520Y140484D01*
X12504D01*
Y141272D01*
X12504Y141272D01*
D01*
X12504Y141272D01*
X12520D01*
X12531Y141296D01*
X12717Y141468D01*
X12717Y141468D01*
X12717Y141468D01*
Y141484D01*
X25394D01*
Y141478D01*
X26156Y141578D01*
X26866Y141872D01*
X27475Y142340D01*
X27943Y142949D01*
X28152Y143453D01*
X67126D01*
Y143440D01*
D02*
G37*
D10*
X54921Y128575D02*
D03*
X52362Y128575D02*
D03*
X49803Y128575D02*
D03*
X44685Y128575D02*
D03*
X47244D02*
D03*
D11*
X5512Y787D02*
D03*
Y2756D02*
D03*
Y4724D02*
D03*
Y6693D02*
D03*
Y8661D02*
D03*
Y10630D02*
D03*
Y12598D02*
D03*
Y14567D02*
D03*
D12*
X59063Y117984D02*
D03*
X55126D02*
D03*
D13*
X55650Y110984D02*
D03*
X65539D02*
D03*
D14*
X57877Y17535D02*
Y17786D01*
X58181Y18091D02*
Y103035D01*
X57877Y17786D02*
X58181Y18091D01*
X15907Y12835D02*
X46896D01*
X53921Y107295D02*
Y121658D01*
Y107295D02*
X58181Y103035D01*
X15849Y12893D02*
X15907Y12835D01*
D15*
X54677Y11906D02*
Y52337D01*
Y11906D02*
X54681Y11901D01*
Y11035D02*
Y11901D01*
X47681Y4035D02*
X54681Y11035D01*
X52977Y11735D02*
Y53041D01*
X47777Y6535D02*
X52977Y11735D01*
X51277Y12439D02*
Y53745D01*
X47873Y9035D02*
X51277Y12439D01*
X54677Y52337D02*
X54681Y52341D01*
X52977Y53041D02*
X52981Y53045D01*
X51277Y53745D02*
X51281Y53749D01*
X45681Y9035D02*
X47873D01*
X44685Y106223D02*
X51281Y99627D01*
Y53749D02*
Y99627D01*
X47244Y106068D02*
X52981Y100331D01*
Y53045D02*
Y100331D01*
X49803Y105913D02*
X54681Y101035D01*
Y52341D02*
Y101035D01*
X12181Y1772D02*
Y2756D01*
Y787D02*
Y1772D01*
X5512Y787D02*
X12181D01*
X5512Y2756D02*
X12181D01*
X5512Y14567D02*
X15849D01*
X5512Y12598D02*
X17118D01*
X41181Y4035D02*
X47681D01*
X15181Y6535D02*
X47777D01*
X44685Y106223D02*
Y127689D01*
X13587Y10630D02*
X15181Y9035D01*
X5512Y10630D02*
X13587D01*
X15181Y9035D02*
X36681D01*
X36181Y8535D02*
X36681Y9035D01*
X5512Y8661D02*
X13055D01*
X47244Y106068D02*
Y127689D01*
X13055Y8661D02*
X15181Y6535D01*
X36102Y4114D02*
X38681Y1535D01*
X5512Y6693D02*
X12181D01*
X14760Y4114D01*
X36102D01*
X49803Y105913D02*
Y127689D01*
D16*
X12181Y1772D02*
X19945D01*
D17*
X52362Y122217D02*
Y127689D01*
X54921Y121658D02*
Y127689D01*
D18*
X40256Y127295D02*
D03*
X59350D02*
D03*
D19*
X35630Y138713D02*
D03*
X63976D02*
D03*
D20*
X28150Y117256D02*
D03*
D21*
X24681Y130921D02*
D03*
Y126700D02*
D03*
X19931Y130921D02*
D03*
Y126700D02*
D03*
X15181Y114035D02*
D03*
Y118257D02*
D03*
Y122478D02*
D03*
Y126700D02*
D03*
Y130921D02*
D03*
X20181Y1535D02*
D03*
X45681Y9035D02*
D03*
X36681D02*
D03*
X38681Y1535D02*
D03*
X41181Y4035D02*
D03*
D22*
X57752Y17661D02*
D03*
X46722Y12961D02*
D03*
M02*
