%FSLAX25Y25*%
%MOIN*%
G70*
G01*
G75*
%ADD10C,0.00500*%
%ADD11C,0.00667*%
D10*
X24606Y117256D02*
X31693D01*
X28150Y113713D02*
Y120799D01*
X62795Y138713D02*
X65158D01*
X63976Y137531D02*
Y139894D01*
X34449Y138713D02*
X36811D01*
X35630Y137531D02*
Y139894D01*
X57972Y127295D02*
X60728D01*
X59350Y125917D02*
Y128673D01*
X38878Y127295D02*
X41634D01*
X40256Y125917D02*
Y128673D01*
X40581Y4035D02*
X41781D01*
X41181Y3435D02*
Y4635D01*
X38081Y1535D02*
X39281D01*
X38681Y935D02*
Y2135D01*
X36081Y9035D02*
X37281D01*
X36681Y8435D02*
Y9635D01*
X45081Y9035D02*
X46281D01*
X45681Y8435D02*
Y9635D01*
X19581Y1535D02*
X20781D01*
X20181Y935D02*
Y2135D01*
X45972Y12961D02*
X47472D01*
X46722Y12211D02*
Y13711D01*
X57002Y17661D02*
X58502D01*
X57752Y16911D02*
Y18411D01*
X14581Y130921D02*
X15781D01*
X15181Y130321D02*
Y131521D01*
X14581Y126700D02*
X15781D01*
X15181Y126100D02*
Y127300D01*
X14581Y122478D02*
X15781D01*
X15181Y121878D02*
Y123078D01*
X14581Y118257D02*
X15781D01*
X15181Y117657D02*
Y118857D01*
X14581Y114035D02*
X15781D01*
X15181Y113435D02*
Y114635D01*
X19331Y126700D02*
X20531D01*
X19931Y126100D02*
Y127300D01*
X19331Y130921D02*
X20531D01*
X19931Y130321D02*
Y131521D01*
X24081Y126700D02*
X25281D01*
X24681Y126100D02*
Y127300D01*
X24081Y130921D02*
X25281D01*
X24681Y130321D02*
Y131521D01*
M02*
