%FSLAX25Y25*%
%MOIN*%
G70*
G01*
G75*
G04 Layer_Color=2752767*
%ADD10C,0.00500*%
%ADD11C,0.00667*%
D10*
X26150Y115256D02*
Y119256D01*
X30150D01*
Y115256D01*
X26150D01*
X59350Y125295D02*
X57350Y129295D01*
X61350D01*
X59350Y125295D01*
X40256D02*
X38256Y129295D01*
X42256D01*
X40256Y125295D01*
X41181Y2035D02*
X42181Y3035D01*
X43181D01*
X42181Y4035D01*
X43181Y5035D01*
X42181D01*
X41181Y6035D01*
X40181Y5035D01*
X39181D01*
X40181Y4035D01*
X39181Y3035D01*
X40181D01*
X41181Y2035D01*
X38681Y-465D02*
X39681Y535D01*
X40681D01*
X39681Y1535D01*
X40681Y2535D01*
X39681D01*
X38681Y3535D01*
X37681Y2535D01*
X36681D01*
X37681Y1535D01*
X36681Y535D01*
X37681D01*
X38681Y-465D01*
X36681Y7035D02*
X37681Y8035D01*
X38681D01*
X37681Y9035D01*
X38681Y10035D01*
X37681D01*
X36681Y11035D01*
X35681Y10035D01*
X34681D01*
X35681Y9035D01*
X34681Y8035D01*
X35681D01*
X36681Y7035D01*
X45681D02*
X46681Y8035D01*
X47681D01*
X46681Y9035D01*
X47681Y10035D01*
X46681D01*
X45681Y11035D01*
X44681Y10035D01*
X43681D01*
X44681Y9035D01*
X43681Y8035D01*
X44681D01*
X45681Y7035D01*
X20181Y-465D02*
X21181Y535D01*
X22181D01*
X21181Y1535D01*
X22181Y2535D01*
X21181D01*
X20181Y3535D01*
X19181Y2535D01*
X18181D01*
X19181Y1535D01*
X18181Y535D01*
X19181D01*
X20181Y-465D01*
X44722Y10961D02*
X45722Y12961D01*
X44722Y14961D01*
X46722Y13961D01*
X48722Y14961D01*
X47722Y12961D01*
X48722Y10961D01*
X46722Y11961D01*
X44722Y10961D01*
X55752Y15661D02*
X56752Y17661D01*
X55752Y19661D01*
X57752Y18661D01*
X59752Y19661D01*
X58752Y17661D01*
X59752Y15661D01*
X57752Y16661D01*
X55752Y15661D01*
X15181Y128921D02*
X16181Y129921D01*
X17181D01*
X16181Y130921D01*
X17181Y131921D01*
X16181D01*
X15181Y132921D01*
X14181Y131921D01*
X13181D01*
X14181Y130921D01*
X13181Y129921D01*
X14181D01*
X15181Y128921D01*
Y124700D02*
X16181Y125700D01*
X17181D01*
X16181Y126700D01*
X17181Y127700D01*
X16181D01*
X15181Y128700D01*
X14181Y127700D01*
X13181D01*
X14181Y126700D01*
X13181Y125700D01*
X14181D01*
X15181Y124700D01*
Y120478D02*
X16181Y121478D01*
X17181D01*
X16181Y122478D01*
X17181Y123478D01*
X16181D01*
X15181Y124478D01*
X14181Y123478D01*
X13181D01*
X14181Y122478D01*
X13181Y121478D01*
X14181D01*
X15181Y120478D01*
Y116257D02*
X16181Y117257D01*
X17181D01*
X16181Y118257D01*
X17181Y119257D01*
X16181D01*
X15181Y120257D01*
X14181Y119257D01*
X13181D01*
X14181Y118257D01*
X13181Y117257D01*
X14181D01*
X15181Y116257D01*
Y112035D02*
X16181Y113035D01*
X17181D01*
X16181Y114035D01*
X17181Y115035D01*
X16181D01*
X15181Y116035D01*
X14181Y115035D01*
X13181D01*
X14181Y114035D01*
X13181Y113035D01*
X14181D01*
X15181Y112035D01*
X19931Y124700D02*
X20931Y125700D01*
X21931D01*
X20931Y126700D01*
X21931Y127700D01*
X20931D01*
X19931Y128700D01*
X18931Y127700D01*
X17931D01*
X18931Y126700D01*
X17931Y125700D01*
X18931D01*
X19931Y124700D01*
Y128921D02*
X20931Y129921D01*
X21931D01*
X20931Y130921D01*
X21931Y131921D01*
X20931D01*
X19931Y132921D01*
X18931Y131921D01*
X17931D01*
X18931Y130921D01*
X17931Y129921D01*
X18931D01*
X19931Y128921D01*
X24681Y124700D02*
X25681Y125700D01*
X26681D01*
X25681Y126700D01*
X26681Y127700D01*
X25681D01*
X24681Y128700D01*
X23681Y127700D01*
X22681D01*
X23681Y126700D01*
X22681Y125700D01*
X23681D01*
X24681Y124700D01*
Y128921D02*
X25681Y129921D01*
X26681D01*
X25681Y130921D01*
X26681Y131921D01*
X25681D01*
X24681Y132921D01*
X23681Y131921D01*
X22681D01*
X23681Y130921D01*
X22681Y129921D01*
X23681D01*
X24681Y128921D01*
D11*
X65976Y138713D02*
G03*
X65976Y138713I-2000J0D01*
G01*
X37630D02*
G03*
X37630Y138713I-2000J0D01*
G01*
M02*
