  0
SECTION
  2
HEADER
  9
$ACADVER
  1
AC1012
  9
$DWGCODEPAGE
  3
dos850
  9
$INSBASE
 10
0.0
 20
0.0
 30
0.0
  9
$EXTMIN
 10
69.88381
 20
189.292293
 30
0.0
  9
$EXTMAX
 10
85.385648
 20
195.67369
 30
0.0
  9
$LIMMIN
 10
0.0
 20
0.0
  9
$LIMMAX
 10
0.0
 20
0.0
  9
$ORTHOMODE
 70
     0
  9
$REGENMODE
 70
     1
  9
$FILLMODE
 70
     1
  9
$QTEXTMODE
 70
     0
  9
$MIRRTEXT
 70
     1
  9
$DRAGMODE
 70
     2
  9
$LTSCALE
 40
1.0
  9
$OSMODE
 70
     0
  9
$ATTMODE
 70
     1
  9
$TEXTSIZE
 40
0.2
  9
$TRACEWID
 40
0.05
  9
$TEXTSTYLE
  7
STANDARD
  9
$CLAYER
  8
0
  9
$CELTYPE
  6
CONTINUOUS
  9
$CECOLOR
 62
   256
  9
$CELTSCALE
 40
1.0
  9
$DELOBJ
 70
     1
  9
$DISPSILH
 70
     0
  9
$DIMSCALE
 40
1.0
  9
$DIMASZ
 40
0.18
  9
$DIMEXO
 40
0.0625
  9
$DIMDLI
 40
0.38
  9
$DIMRND
 40
0.0
  9
$DIMDLE
 40
0.0
  9
$DIMEXE
 40
0.18
  9
$DIMTP
 40
0.0
  9
$DIMTM
 40
0.0
  9
$DIMTXT
 40
0.18
  9
$DIMCEN
 40
0.09
  9
$DIMTSZ
 40
0.0
  9
$DIMTOL
 70
     0
  9
$DIMLIM
 70
     0
  9
$DIMTIH
 70
     1
  9
$DIMTOH
 70
     1
  9
$DIMSE1
 70
     0
  9
$DIMSE2
 70
     0
  9
$DIMTAD
 70
     0
  9
$DIMZIN
 70
     0
  9
$DIMBLK
  1

  9
$DIMASO
 70
     1
  9
$DIMSHO
 70
     1
  9
$DIMPOST
  1

  9
$DIMAPOST
  1

  9
$DIMALT
 70
     0
  9
$DIMALTD
 70
     2
  9
$DIMALTF
 40
25.4
  9
$DIMLFAC
 40
1.0
  9
$DIMTOFL
 70
     0
  9
$DIMTVP
 40
0.0
  9
$DIMTIX
 70
     0
  9
$DIMSOXD
 70
     0
  9
$DIMSAH
 70
     0
  9
$DIMBLK1
  1

  9
$DIMBLK2
  1

  9
$DIMSTYLE
  2
STANDARD
  9
$DIMCLRD
 70
     0
  9
$DIMCLRE
 70
     0
  9
$DIMCLRT
 70
     0
  9
$DIMTFAC
 40
1.0
  9
$DIMGAP
 40
0.09
  9
$DIMJUST
 70
     0
  9
$DIMSD1
 70
     0
  9
$DIMSD2
 70
     0
  9
$DIMTOLJ
 70
     1
  9
$DIMTZIN
 70
     0
  9
$DIMALTZ
 70
     0
  9
$DIMALTTZ
 70
     0
  9
$DIMFIT
 70
     3
  9
$DIMUPT
 70
     0
  9
$DIMUNIT
 70
     2
  9
$DIMDEC
 70
     4
  9
$DIMTDEC
 70
     4
  9
$DIMALTU
 70
     2
  9
$DIMALTTD
 70
     2
  9
$DIMTXSTY
  7
STANDARD
  9
$DIMAUNIT
 70
     0
  9
$LUNITS
 70
     2
  9
$LUPREC
 70
     4
  9
$SKETCHINC
 40
0.1
  9
$FILLETRAD
 40
0.0
  9
$AUNITS
 70
     0
  9
$AUPREC
 70
     0
  9
$MENU
  1
acad
  9
$ELEVATION
 40
0.0
  9
$PELEVATION
 40
0.0
  9
$THICKNESS
 40
0.0
  9
$LIMCHECK
 70
     0
  9
$BLIPMODE
 70
     1
  9
$CHAMFERA
 40
0.0
  9
$CHAMFERB
 40
0.0
  9
$CHAMFERC
 40
0.0
  9
$CHAMFERD
 40
0.0
  9
$SKPOLY
 70
     0
  9
$TDCREATE
 40
0.000000000
  9
$TDUPDATE
 40
0.000000000
  9
$TDINDWG
 40
0.0000000000
  9
$TDUSRTIMER
 40
0.0000000000
  9
$USRTIMER
 70
     1
  9
$ANGBASE
 50
0.0
  9
$ANGDIR
 70
     0
  9
$PDMODE
 70
     0
  9
$PDSIZE
 40
0.0
  9
$PLINEWID
 40
0.0
  9
$COORDS
 70
     0
  9
$SPLFRAME
 70
     0
  9
$SPLINETYPE
 70
     6
  9
$SPLINESEGS
 70
     8
  9
$ATTDIA
 70
     0
  9
$ATTREQ
 70
     1
  9
$HANDLING
 70
     1
  9
$HANDSEED
  5
5A2
  9
$SURFTAB1
 70
     6
  9
$SURFTAB2
 70
     6
  9
$SURFTYPE
 70
     6
  9
$SURFU
 70
     6
  9
$SURFV
 70
     6
  9
$UCSNAME
  2

  9
$UCSORG
 10
0.0
 20
0.0
 30
0.0
  9
$UCSXDIR
 10
1.0
 20
0.0
 30
0.0
  9
$UCSYDIR
 10
0.0
 20
1.0
 30
0.0
  9
$PUCSNAME
  2

  9
$PUCSORG
 10
0.0
 20
0.0
 30
0.0
  9
$PUCSXDIR
 10
1.0
 20
0.0
 30
0.0
  9
$PUCSYDIR
 10
0.0
 20
1.0
 30
0.0
  9
$USERI1
 70
     0
  9
$USERI2
 70
     0
  9
$USERI3
 70
     0
  9
$USERI4
 70
     0
  9
$USERI5
 70
     0
  9
$USERR1
 40
0.0
  9
$USERR2
 40
0.0
  9
$USERR3
 40
0.0
  9
$USERR4
 40
0.0
  9
$USERR5
 40
0.0
  9
$WORLDVIEW
 70
     1
  9
$SHADEDGE
 70
     3
  9
$SHADEDIF
 70
    70
  9
$TILEMODE
 70
     1
  9
$MAXACTVP
 70
    16
  9
$PINSBASE
 10
0.0
 20
0.0
 30
0.0
  9
$PLIMCHECK
 70
     0
  9
$PEXTMIN
 10
1.000000E+20
 20
1.000000E+20
 30
1.000000E+20
  9
$PEXTMAX
 10
-1.000000E+20
 20
-1.000000E+20
 30
-1.000000E+20
  9
$PLIMMIN
 10
0.0
 20
0.0
  9
$PLIMMAX
 10
12.0
 20
9.0
  9
$UNITMODE
 70
     0
  9
$VISRETAIN
 70
     0
  9
$PLINEGEN
 70
     1
  9
$PSLTSCALE
 70
     0
  9
$TREEDEPTH
 70
  3020
  9
$PICKSTYLE
 70
     1
  9
$CMLSTYLE
  2
Standard
  9
$CMLJUST
 70
     0
  9
$CMLSCALE
 40
1.0
  9
$SAVEIMAGES
 70
     0
  0
ENDSEC
  0
SECTION
  2
CLASSES
  0
CLASS
  1
LWPOLYLINE
  2
AcDbPolyline
  3
"AutoCAD"
 90
        0
280
     0
281
     1
  0
CLASS
  1
IMAGE
  2
AcDbRasterImage
  3
ISM
 90
      127
280
     0
281
     1
  0
CLASS
  1
OLE2FRAME
  2
AcDbOle2Frame
  3
""
 90
        0
280
     0
281
     1
  0
CLASS
  1
HATCH
  2
AcDbHatch
  3
"ACAD_SEDONA"
 90
        0
280
     0
281
     1
  0
CLASS
  1
DICTIONARYVAR
  2
AcDbDictionaryVar
  3
"AutoCAD"
 90
        0
280
     0
281
     0
  0
CLASS
  1
RASTERVARIABLES
  2
AcDbRasterVariables
  3
ISM
 90
        0
280
     0
281
     0
  0
CLASS
  1
IMAGEDEF
  2
AcDbRasterImageDef
  3
ISM
 90
        0
280
     0
281
     0
  0
CLASS
  1
IMAGEDEF_REACTOR
  2
AcDbRasterImageDefReactor
  3
ISM
 90
        1
280
     0
281
     0
  0
CLASS
  1
IDBUFFER
  2
AcDbIdBuffer
  3
"Acad"
 90
        0
280
     0
281
     0
  0
CLASS
  1
SPATIAL_FILTER
  2
AcDbSpatialFilter
  3
"Acad"
 90
        0
280
     0
281
     0
  0
CLASS
  1
XRECORD
  2
AcDbXrecord
  3
"<Built In>"
 90
        0
280
     0
281
     0
  0
CLASS
  1
SORTENTSTABLE
  2
AcDbSortentsTable
  3
"AutoCAD"
 90
        0
280
     0
281
     0
  0
CLASS
  1
LAYER_INDEX
  2
AcDbLayerIndex
  3
"Acad"
 90
        0
280
     0
281
     0
  0
CLASS
  1
SPATIAL_INDEX
  2
AcDbSpatialIndex
  3
"Acad"
 90
        0
280
     0
281
     0
  0
CLASS
  1
OBJECT_PTR
  2
CAseDLPNTableRecord
  3
"ASE-LPNTableRecord"
 90
        1
280
     0
281
     0
  0
CLASS
  1
LAYOUT
  2
AcDbLayout
  3
"AutoCAD 2000"
 90
        1
280
     0
281
     0
  0
CLASS
  1
PLOTSETTINGS
  2
AcDbPlotSettings
  3
"AutoCAD 2000"
 90
        1
280
     0
281
     0
  0
CLASS
  1
ACDBDICTIONARYWDFLT
  2
AcDbDictionaryWithDefault
  3
"AutoCAD 2000"
 90
        1
280
     0
281
     0
  0
CLASS
  1
ACDBPLACEHOLDER
  2
AcDbPlaceHolder
  3
"AutoCAD 2000"
 90
        1
280
     0
281
     0
  0
CLASS
  1
VBA_PROJECT
  2
AcDbVbaProject
  3
"acadvba"
 90
        1
280
     0
281
     0
  0
CLASS
  1
WIPEOUT
  2
AcDbWipeout
  3
WipeOut|AutoCAD Express Tool|expresstools@autodesk.com
 90
      127
280
     0
281
     1
  0
CLASS
  1
WIPEOUTVARIABLES
  2
AcDbWipeoutVariables
  3
WipeOut|AutoCAD Express Tool|expresstools@autodesk.com
 90
        0
280
     0
281
     0
  0
CLASS
  1
RTEXT
  2
RText
  3
RText|AutoCAD Express Tool|expresstools@autodesk.com
 90
        0
280
     0
281
     1
  0
CLASS
  1
ARCALIGNEDTEXT
  2
AcDbArcAlignedText
  3
ATEXT|AutoCAD Express Tool|expresstools@autodesk.com
 90
        0
280
     0
281
     1
  0
ENDSEC
  0
SECTION
  2
TABLES
  0
TABLE
  2
VPORT
  5
7
100
AcDbSymbolTable
 70
     1
  0
VPORT
  5
15
100
AcDbSymbolTableRecord
100
AcDbViewportTableRecord
  2
*ACTIVE
 70
     0
 10
0.0
 20
0.0
 11
1.0
 21
1.0
 12
6.591288
 22
4.579184
 13
0.0
 23
0.0
 14
1.0
 24
1.0
 15
0.0
 25
0.0
 16
0.0
 26
0.0
 36
1.0
 17
0.0
 27
0.0
 37
0.0
 40
9.158369
 41
0.688564
 42
50.0
 43
0.0
 44
0.0
 50
0.0
 51
0.0
 71
     0
 72
   100
 73
     1
 74
     1
 75
     0
 76
     0
 77
     0
 78
     0
  0
ENDTAB
  0
TABLE
  2
LTYPE
  5
4
100
AcDbSymbolTable
 70
     3
  0
LTYPE
  5
11
100
AcDbSymbolTableRecord
100
AcDbLinetypeTableRecord
  2
BYBLOCK
 70
    64
  3

 72
    65
 73
     0
 40
0.0
  0
LTYPE
  5
12
100
AcDbSymbolTableRecord
100
AcDbLinetypeTableRecord
  2
BYLAYER
 70
    64
  3

 72
    65
 73
     0
 40
0.0
  0
LTYPE
  5
13
100
AcDbSymbolTableRecord
100
AcDbLinetypeTableRecord
  2
CONTINUOUS
 70
    64
  3
Solid line
 72
    65
 73
     0
 40
0.0
  0
ENDTAB
  0
TABLE
  2
LAYER
  5
2
100
AcDbSymbolTable
 70
    16
  0
LAYER
  5
14
100
AcDbSymbolTableRecord
100
AcDbLayerTableRecord
  2
0
 70
     0
 62
     7
  6
CONTINUOUS
  0
LAYER
  5
1D
100
AcDbSymbolTableRecord
100
AcDbLayerTableRecord
  2
TOPLAYER
 70
     0
 62
     1
  6
CONTINUOUS
  0
LAYER
  5
1E
100
AcDbSymbolTableRecord
100
AcDbLayerTableRecord
  2
BOTTOMLAYER
 70
     0
 62
     5
  6
CONTINUOUS
  0
LAYER
  5
1F
100
AcDbSymbolTableRecord
100
AcDbLayerTableRecord
  2
MECHANICAL7
 70
     0
 62
    56
  6
CONTINUOUS
  0
LAYER
  5
20
100
AcDbSymbolTableRecord
100
AcDbLayerTableRecord
  2
MECHANICAL15
 70
     0
 62
    56
  6
CONTINUOUS
  0
LAYER
  5
21
100
AcDbSymbolTableRecord
100
AcDbLayerTableRecord
  2
MECHANICAL13
 70
     0
 62
    56
  6
CONTINUOUS
  0
LAYER
  5
22
100
AcDbSymbolTableRecord
100
AcDbLayerTableRecord
  2
MECHANICAL1
 70
     0
 62
     6
  6
CONTINUOUS
  0
LAYER
  5
23
100
AcDbSymbolTableRecord
100
AcDbLayerTableRecord
  2
KEEPOUTLAYER
 70
     0
 62
     6
  6
CONTINUOUS
  0
LAYER
  5
24
100
AcDbSymbolTableRecord
100
AcDbLayerTableRecord
  2
TOPOVERLAY
 70
     0
 62
     2
  6
CONTINUOUS
  0
LAYER
  5
25
100
AcDbSymbolTableRecord
100
AcDbLayerTableRecord
  2
MULTILAYER
 70
     0
 62
     9
  6
CONTINUOUS
  0
LAYER
  5
26
100
AcDbSymbolTableRecord
100
AcDbLayerTableRecord
  2
TOPSOLDER
 70
     0
 62
   216
  6
CONTINUOUS
  0
LAYER
  5
27
100
AcDbSymbolTableRecord
100
AcDbLayerTableRecord
  2
TOPPASTE
 70
     0
 62
     8
  6
CONTINUOUS
  0
LAYER
  5
28
100
AcDbSymbolTableRecord
100
AcDbLayerTableRecord
  2
BOTTOMPASTE
 70
     0
 62
    16
  6
CONTINUOUS
  0
LAYER
  5
29
100
AcDbSymbolTableRecord
100
AcDbLayerTableRecord
  2
BOTTOMSOLDER
 70
     0
 62
     6
  6
CONTINUOUS
  0
LAYER
  5
2A
100
AcDbSymbolTableRecord
100
AcDbLayerTableRecord
  2
PADHOLELAYER
 70
     0
 62
   156
  6
CONTINUOUS
  0
LAYER
  5
2B
100
AcDbSymbolTableRecord
100
AcDbLayerTableRecord
  2
VIAHOLELAYER
 70
     0
 62
    16
  6
CONTINUOUS
  0
ENDTAB
  0
TABLE
  2
STYLE
  5
3
100
AcDbSymbolTable
 70
     1
  0
STYLE
  5
17
100
AcDbSymbolTableRecord
100
AcDbTextStyleTableRecord
  2
STANDARD
 70
     0
 40
0.0
 41
1.0
 50
0.0
 71
     0
 42
0.0
  3
txt
  4

  0
ENDTAB
  0
TABLE
  2
VIEW
  5
5
100
AcDbSymbolTable
 70
     0
  0
ENDTAB
  0
TABLE
  2
UCS
  5
6
100
AcDbSymbolTable
 70
     0
  0
ENDTAB
  0
TABLE
  2
APPID
  5
8
100
AcDbSymbolTable
 70
     1
  0
APPID
  5
16
100
AcDbSymbolTableRecord
100
AcDbRegAppTableRecord
  2
ACAD
 70
     0
  0
ENDTAB
  0
TABLE
  2
DIMSTYLE
  5
9
100
AcDbSymbolTable
 70
     1
  0
DIMSTYLE
105
18
100
AcDbSymbolTableRecord
100
AcDbDimStyleTableRecord
  2
STANDARD
 70
     0
  3

  4

  5

  6

  7

 40
1.0
 41
0.18
 42
0.0625
 43
0.38
 44
0.18
 45
0.0
 46
0.0
 47
0.0
 48
0.0
 71
     0
 72
     0
 73
     1
 74
     1
 75
     0
 76
     0
 77
     0
 78
     0
140
0.18
141
0.09
142
0.0
143
25.4
144
1.0
145
0.0
146
1.0
147
0.09
170
     0
171
     2
172
     0
173
     0
174
     0
175
     0
176
     0
177
     0
178
     0
270
     2
271
     4
272
     4
273
     2
274
     2
275
     0
280
     0
281
     0
282
     0
283
     1
284
     0
285
     0
286
     0
287
     0
288
     0
340
17
  0
ENDTAB
  0
TABLE
  2
BLOCK_RECORD
  5
1
100
AcDbSymbolTable
 70
     3
  0
BLOCK_RECORD
  5
A
100
AcDbSymbolTableRecord
100
AcDbBlockTableRecord
  2
*MODEL_SPACE
  0
BLOCK_RECORD
  5
B
100
AcDbSymbolTableRecord
100
AcDbBlockTableRecord
  2
*PAPER_SPACE
  0
BLOCK_RECORD
  5
3F6
100
AcDbSymbolTableRecord
100
AcDbBlockTableRecord
  2
0402C_1
  0
BLOCK_RECORD
  5
448
100
AcDbSymbolTableRecord
100
AcDbBlockTableRecord
  2
0402C_2
  0
BLOCK_RECORD
  5
49A
100
AcDbSymbolTableRecord
100
AcDbBlockTableRecord
  2
WSOF5_3
  0
ENDTAB
  0
ENDSEC
  0
SECTION
  2
BLOCKS
  0
BLOCK
  5
D
100
AcDbEntity
  8
0
100
AcDbBlockBegin
  2
*MODEL_SPACE
 70
     0
 10
0.0
 20
0.0
 30
0.0
  3
*MODEL_SPACE
  1

  0
ENDBLK
  5
E
100
AcDbEntity
  8
0
100
AcDbBlockEnd
  0
BLOCK
  5
F
100
AcDbEntity
 67
     1
  8
0
100
AcDbBlockBegin
  2
*PAPER_SPACE
 70
     0
 10
0.0
 20
0.0
 30
0.0
  3
*PAPER_SPACE
  1

  0
ENDBLK
  5
10
100
AcDbEntity
 67
     1
  8
0
100
AcDbBlockEnd
  0
BLOCK
  5
3F7
100
AcDbEntity
  8
0
100
AcDbBlockBegin
  2
0402C_1
 70
     0
 10
0.0
 20
0.0
 30
0.0
  3
0402C_1
  1

  0
POLYLINE
  5
3F8
100
AcDbEntity
  8
TOPOVERLAY
100
AcDb2dPolyline
 66
     1
 10
0.0
 20
0.0
 30
0.0
 40
0.1016
 41
0.1016
 75
     8
  0
VERTEX
  5
3F9
100
AcDbEntity
  8
TOPOVERLAY
100
AcDbVertex
100
AcDb2dVertex
 10
0.336499
 20
0.419105
 30
0.0
  0
VERTEX
  5
3FA
100
AcDbEntity
  8
TOPOVERLAY
100
AcDbVertex
100
AcDb2dVertex
 10
0.9271
 20
0.419105
 30
0.0
  0
SEQEND
  5
3FB
100
AcDbEntity
  8
0
  0
POLYLINE
  5
3FC
100
AcDbEntity
  8
TOPOVERLAY
100
AcDb2dPolyline
 66
     1
 10
0.0
 20
0.0
 30
0.0
 70
     1
 40
0.0508
 41
0.0508
 75
     8
  0
VERTEX
  5
3FD
100
AcDbEntity
  8
TOPOVERLAY
100
AcDbVertex
100
AcDb2dVertex
 10
0.311099
 20
0.419105
 30
0.0
 42
1.0
  0
VERTEX
  5
3FE
100
AcDbEntity
  8
TOPOVERLAY
100
AcDbVertex
100
AcDb2dVertex
 10
0.361899
 20
0.419105
 30
0.0
 42
1.0
  0
SEQEND
  5
3FF
100
AcDbEntity
  8
0
  0
POLYLINE
  5
400
100
AcDbEntity
  8
TOPOVERLAY
100
AcDb2dPolyline
 66
     1
 10
0.0
 20
0.0
 30
0.0
 70
     1
 40
0.0508
 41
0.0508
 75
     8
  0
VERTEX
  5
401
100
AcDbEntity
  8
TOPOVERLAY
100
AcDbVertex
100
AcDb2dVertex
 10
0.9017
 20
0.419105
 30
0.0
 42
1.0
  0
VERTEX
  5
402
100
AcDbEntity
  8
TOPOVERLAY
100
AcDbVertex
100
AcDb2dVertex
 10
0.9525
 20
0.419105
 30
0.0
 42
1.0
  0
SEQEND
  5
403
100
AcDbEntity
  8
0
  0
POLYLINE
  5
404
100
AcDbEntity
  8
TOPOVERLAY
100
AcDb2dPolyline
 66
     1
 10
0.0
 20
0.0
 30
0.0
 40
0.1016
 41
0.1016
 75
     8
  0
VERTEX
  5
405
100
AcDbEntity
  8
TOPOVERLAY
100
AcDbVertex
100
AcDb2dVertex
 10
0.323799
 20
-0.419095
 30
0.0
  0
VERTEX
  5
406
100
AcDbEntity
  8
TOPOVERLAY
100
AcDbVertex
100
AcDb2dVertex
 10
0.9144
 20
-0.419095
 30
0.0
  0
SEQEND
  5
407
100
AcDbEntity
  8
0
  0
POLYLINE
  5
408
100
AcDbEntity
  8
TOPOVERLAY
100
AcDb2dPolyline
 66
     1
 10
0.0
 20
0.0
 30
0.0
 70
     1
 40
0.0508
 41
0.0508
 75
     8
  0
VERTEX
  5
409
100
AcDbEntity
  8
TOPOVERLAY
100
AcDbVertex
100
AcDb2dVertex
 10
0.298399
 20
-0.419095
 30
0.0
 42
1.0
  0
VERTEX
  5
40A
100
AcDbEntity
  8
TOPOVERLAY
100
AcDbVertex
100
AcDb2dVertex
 10
0.349199
 20
-0.419095
 30
0.0
 42
1.0
  0
SEQEND
  5
40B
100
AcDbEntity
  8
0
  0
POLYLINE
  5
40C
100
AcDbEntity
  8
TOPOVERLAY
100
AcDb2dPolyline
 66
     1
 10
0.0
 20
0.0
 30
0.0
 70
     1
 40
0.0508
 41
0.0508
 75
     8
  0
VERTEX
  5
40D
100
AcDbEntity
  8
TOPOVERLAY
100
AcDbVertex
100
AcDb2dVertex
 10
0.889
 20
-0.419095
 30
0.0
 42
1.0
  0
VERTEX
  5
40E
100
AcDbEntity
  8
TOPOVERLAY
100
AcDbVertex
100
AcDb2dVertex
 10
0.9398
 20
-0.419095
 30
0.0
 42
1.0
  0
SEQEND
  5
40F
100
AcDbEntity
  8
0
  0
POLYLINE
  5
410
100
AcDbEntity
  8
TOPOVERLAY
100
AcDb2dPolyline
 66
     1
 10
0.0
 20
0.0
 30
0.0
 40
0.1016
 41
0.1016
 75
     8
  0
VERTEX
  5
411
100
AcDbEntity
  8
TOPOVERLAY
100
AcDbVertex
100
AcDb2dVertex
 10
-0.9271
 20
-0.419095
 30
0.0
  0
VERTEX
  5
412
100
AcDbEntity
  8
TOPOVERLAY
100
AcDbVertex
100
AcDb2dVertex
 10
-0.336499
 20
-0.419095
 30
0.0
  0
SEQEND
  5
413
100
AcDbEntity
  8
0
  0
POLYLINE
  5
414
100
AcDbEntity
  8
TOPOVERLAY
100
AcDb2dPolyline
 66
     1
 10
0.0
 20
0.0
 30
0.0
 70
     1
 40
0.0508
 41
0.0508
 75
     8
  0
VERTEX
  5
415
100
AcDbEntity
  8
TOPOVERLAY
100
AcDbVertex
100
AcDb2dVertex
 10
-0.9525
 20
-0.419095
 30
0.0
 42
1.0
  0
VERTEX
  5
416
100
AcDbEntity
  8
TOPOVERLAY
100
AcDbVertex
100
AcDb2dVertex
 10
-0.9017
 20
-0.419095
 30
0.0
 42
1.0
  0
SEQEND
  5
417
100
AcDbEntity
  8
0
  0
POLYLINE
  5
418
100
AcDbEntity
  8
TOPOVERLAY
100
AcDb2dPolyline
 66
     1
 10
0.0
 20
0.0
 30
0.0
 70
     1
 40
0.0508
 41
0.0508
 75
     8
  0
VERTEX
  5
419
100
AcDbEntity
  8
TOPOVERLAY
100
AcDbVertex
100
AcDb2dVertex
 10
-0.361899
 20
-0.419095
 30
0.0
 42
1.0
  0
VERTEX
  5
41A
100
AcDbEntity
  8
TOPOVERLAY
100
AcDbVertex
100
AcDb2dVertex
 10
-0.311099
 20
-0.419095
 30
0.0
 42
1.0
  0
SEQEND
  5
41B
100
AcDbEntity
  8
0
  0
POLYLINE
  5
41C
100
AcDbEntity
  8
TOPOVERLAY
100
AcDb2dPolyline
 66
     1
 10
0.0
 20
0.0
 30
0.0
 40
0.1016
 41
0.1016
 75
     8
  0
VERTEX
  5
41D
100
AcDbEntity
  8
TOPOVERLAY
100
AcDbVertex
100
AcDb2dVertex
 10
-0.9271
 20
0.419105
 30
0.0
  0
VERTEX
  5
41E
100
AcDbEntity
  8
TOPOVERLAY
100
AcDbVertex
100
AcDb2dVertex
 10
-0.336499
 20
0.419105
 30
0.0
  0
SEQEND
  5
41F
100
AcDbEntity
  8
0
  0
POLYLINE
  5
420
100
AcDbEntity
  8
TOPOVERLAY
100
AcDb2dPolyline
 66
     1
 10
0.0
 20
0.0
 30
0.0
 70
     1
 40
0.0508
 41
0.0508
 75
     8
  0
VERTEX
  5
421
100
AcDbEntity
  8
TOPOVERLAY
100
AcDbVertex
100
AcDb2dVertex
 10
-0.9525
 20
0.419105
 30
0.0
 42
1.0
  0
VERTEX
  5
422
100
AcDbEntity
  8
TOPOVERLAY
100
AcDbVertex
100
AcDb2dVertex
 10
-0.9017
 20
0.419105
 30
0.0
 42
1.0
  0
SEQEND
  5
423
100
AcDbEntity
  8
0
  0
POLYLINE
  5
424
100
AcDbEntity
  8
TOPOVERLAY
100
AcDb2dPolyline
 66
     1
 10
0.0
 20
0.0
 30
0.0
 70
     1
 40
0.0508
 41
0.0508
 75
     8
  0
VERTEX
  5
425
100
AcDbEntity
  8
TOPOVERLAY
100
AcDbVertex
100
AcDb2dVertex
 10
-0.361899
 20
0.419105
 30
0.0
 42
1.0
  0
VERTEX
  5
426
100
AcDbEntity
  8
TOPOVERLAY
100
AcDbVertex
100
AcDb2dVertex
 10
-0.311099
 20
0.419105
 30
0.0
 42
1.0
  0
SEQEND
  5
427
100
AcDbEntity
  8
0
  0
POLYLINE
  5
428
100
AcDbEntity
  8
TOPOVERLAY
100
AcDb2dPolyline
 66
     1
 10
0.0
 20
0.0
 30
0.0
 40
0.1016
 41
0.1016
 75
     8
  0
VERTEX
  5
429
100
AcDbEntity
  8
TOPOVERLAY
100
AcDbVertex
100
AcDb2dVertex
 10
0.9271
 20
-0.419095
 30
0.0
  0
VERTEX
  5
42A
100
AcDbEntity
  8
TOPOVERLAY
100
AcDbVertex
100
AcDb2dVertex
 10
0.9271
 20
0.419105
 30
0.0
  0
SEQEND
  5
42B
100
AcDbEntity
  8
0
  0
POLYLINE
  5
42C
100
AcDbEntity
  8
TOPOVERLAY
100
AcDb2dPolyline
 66
     1
 10
0.0
 20
0.0
 30
0.0
 70
     1
 40
0.0508
 41
0.0508
 75
     8
  0
VERTEX
  5
42D
100
AcDbEntity
  8
TOPOVERLAY
100
AcDbVertex
100
AcDb2dVertex
 10
0.9017
 20
-0.419095
 30
0.0
 42
1.0
  0
VERTEX
  5
42E
100
AcDbEntity
  8
TOPOVERLAY
100
AcDbVertex
100
AcDb2dVertex
 10
0.9525
 20
-0.419095
 30
0.0
 42
1.0
  0
SEQEND
  5
42F
100
AcDbEntity
  8
0
  0
POLYLINE
  5
430
100
AcDbEntity
  8
TOPOVERLAY
100
AcDb2dPolyline
 66
     1
 10
0.0
 20
0.0
 30
0.0
 70
     1
 40
0.0508
 41
0.0508
 75
     8
  0
VERTEX
  5
431
100
AcDbEntity
  8
TOPOVERLAY
100
AcDbVertex
100
AcDb2dVertex
 10
0.9017
 20
0.419105
 30
0.0
 42
1.0
  0
VERTEX
  5
432
100
AcDbEntity
  8
TOPOVERLAY
100
AcDbVertex
100
AcDb2dVertex
 10
0.9525
 20
0.419105
 30
0.0
 42
1.0
  0
SEQEND
  5
433
100
AcDbEntity
  8
0
  0
POLYLINE
  5
434
100
AcDbEntity
  8
TOPOVERLAY
100
AcDb2dPolyline
 66
     1
 10
0.0
 20
0.0
 30
0.0
 40
0.1016
 41
0.1016
 75
     8
  0
VERTEX
  5
435
100
AcDbEntity
  8
TOPOVERLAY
100
AcDbVertex
100
AcDb2dVertex
 10
-0.9271
 20
-0.419095
 30
0.0
  0
VERTEX
  5
436
100
AcDbEntity
  8
TOPOVERLAY
100
AcDbVertex
100
AcDb2dVertex
 10
-0.9271
 20
0.419105
 30
0.0
  0
SEQEND
  5
437
100
AcDbEntity
  8
0
  0
POLYLINE
  5
438
100
AcDbEntity
  8
TOPOVERLAY
100
AcDb2dPolyline
 66
     1
 10
0.0
 20
0.0
 30
0.0
 70
     1
 40
0.0508
 41
0.0508
 75
     8
  0
VERTEX
  5
439
100
AcDbEntity
  8
TOPOVERLAY
100
AcDbVertex
100
AcDb2dVertex
 10
-0.9525
 20
-0.419095
 30
0.0
 42
1.0
  0
VERTEX
  5
43A
100
AcDbEntity
  8
TOPOVERLAY
100
AcDbVertex
100
AcDb2dVertex
 10
-0.9017
 20
-0.419095
 30
0.0
 42
1.0
  0
SEQEND
  5
43B
100
AcDbEntity
  8
0
  0
POLYLINE
  5
43C
100
AcDbEntity
  8
TOPOVERLAY
100
AcDb2dPolyline
 66
     1
 10
0.0
 20
0.0
 30
0.0
 70
     1
 40
0.0508
 41
0.0508
 75
     8
  0
VERTEX
  5
43D
100
AcDbEntity
  8
TOPOVERLAY
100
AcDbVertex
100
AcDb2dVertex
 10
-0.9525
 20
0.419105
 30
0.0
 42
1.0
  0
VERTEX
  5
43E
100
AcDbEntity
  8
TOPOVERLAY
100
AcDbVertex
100
AcDb2dVertex
 10
-0.9017
 20
0.419105
 30
0.0
 42
1.0
  0
SEQEND
  5
43F
100
AcDbEntity
  8
0
  0
SOLID
  5
440
100
AcDbEntity
  8
TOPLAYER
100
AcDbTrace
 10
0.762
 20
0.254003
 30
0.0
 11
0.254
 21
0.254003
 31
0.0
 12
0.762
 22
-0.253997
 32
0.0
 13
0.254
 23
-0.253997
 33
0.0
  0
SOLID
  5
441
100
AcDbEntity
  8
TOPPASTE
100
AcDbTrace
 10
0.762
 20
0.254003
 30
0.0
 11
0.254
 21
0.254003
 31
0.0
 12
0.762
 22
-0.253997
 32
0.0
 13
0.254
 23
-0.253997
 33
0.0
  0
SOLID
  5
442
100
AcDbEntity
  8
TOPSOLDER
100
AcDbTrace
 10
0.8636
 20
0.355603
 30
0.0
 11
0.1524
 21
0.355603
 31
0.0
 12
0.8636
 22
-0.355597
 32
0.0
 13
0.1524
 23
-0.355597
 33
0.0
  0
SOLID
  5
443
100
AcDbEntity
  8
TOPLAYER
100
AcDbTrace
 10
-0.254
 20
0.254
 30
0.0
 11
-0.762
 21
0.254
 31
0.0
 12
-0.254
 22
-0.254
 32
0.0
 13
-0.762
 23
-0.254
 33
0.0
  0
SOLID
  5
444
100
AcDbEntity
  8
TOPPASTE
100
AcDbTrace
 10
-0.254
 20
0.254
 30
0.0
 11
-0.762
 21
0.254
 31
0.0
 12
-0.254
 22
-0.254
 32
0.0
 13
-0.762
 23
-0.254
 33
0.0
  0
SOLID
  5
445
100
AcDbEntity
  8
TOPSOLDER
100
AcDbTrace
 10
-0.1524
 20
0.3556
 30
0.0
 11
-0.8636
 21
0.3556
 31
0.0
 12
-0.1524
 22
-0.3556
 32
0.0
 13
-0.8636
 23
-0.3556
 33
0.0
  0
ENDBLK
  5
446
100
AcDbEntity
  8
0
100
AcDbBlockEnd
  0
BLOCK
  5
449
100
AcDbEntity
  8
0
100
AcDbBlockBegin
  2
0402C_2
 70
     0
 10
0.0
 20
0.0
 30
0.0
  3
0402C_2
  1

  0
POLYLINE
  5
44A
100
AcDbEntity
  8
TOPOVERLAY
100
AcDb2dPolyline
 66
     1
 10
0.0
 20
0.0
 30
0.0
 40
0.1016
 41
0.1016
 75
     8
  0
VERTEX
  5
44B
100
AcDbEntity
  8
TOPOVERLAY
100
AcDbVertex
100
AcDb2dVertex
 10
0.9271
 20
0.419105
 30
0.0
  0
VERTEX
  5
44C
100
AcDbEntity
  8
TOPOVERLAY
100
AcDbVertex
100
AcDb2dVertex
 10
0.336499
 20
0.419105
 30
0.0
  0
SEQEND
  5
44D
100
AcDbEntity
  8
0
  0
POLYLINE
  5
44E
100
AcDbEntity
  8
TOPOVERLAY
100
AcDb2dPolyline
 66
     1
 10
0.0
 20
0.0
 30
0.0
 70
     1
 40
0.0508
 41
0.0508
 75
     8
  0
VERTEX
  5
44F
100
AcDbEntity
  8
TOPOVERLAY
100
AcDbVertex
100
AcDb2dVertex
 10
0.9017
 20
0.419105
 30
0.0
 42
1.0
  0
VERTEX
  5
450
100
AcDbEntity
  8
TOPOVERLAY
100
AcDbVertex
100
AcDb2dVertex
 10
0.9525
 20
0.419105
 30
0.0
 42
1.0
  0
SEQEND
  5
451
100
AcDbEntity
  8
0
  0
POLYLINE
  5
452
100
AcDbEntity
  8
TOPOVERLAY
100
AcDb2dPolyline
 66
     1
 10
0.0
 20
0.0
 30
0.0
 70
     1
 40
0.0508
 41
0.0508
 75
     8
  0
VERTEX
  5
453
100
AcDbEntity
  8
TOPOVERLAY
100
AcDbVertex
100
AcDb2dVertex
 10
0.311099
 20
0.419105
 30
0.0
 42
1.0
  0
VERTEX
  5
454
100
AcDbEntity
  8
TOPOVERLAY
100
AcDbVertex
100
AcDb2dVertex
 10
0.361899
 20
0.419105
 30
0.0
 42
1.0
  0
SEQEND
  5
455
100
AcDbEntity
  8
0
  0
POLYLINE
  5
456
100
AcDbEntity
  8
TOPOVERLAY
100
AcDb2dPolyline
 66
     1
 10
0.0
 20
0.0
 30
0.0
 40
0.1016
 41
0.1016
 75
     8
  0
VERTEX
  5
457
100
AcDbEntity
  8
TOPOVERLAY
100
AcDbVertex
100
AcDb2dVertex
 10
0.9144
 20
-0.419095
 30
0.0
  0
VERTEX
  5
458
100
AcDbEntity
  8
TOPOVERLAY
100
AcDbVertex
100
AcDb2dVertex
 10
0.323799
 20
-0.419095
 30
0.0
  0
SEQEND
  5
459
100
AcDbEntity
  8
0
  0
POLYLINE
  5
45A
100
AcDbEntity
  8
TOPOVERLAY
100
AcDb2dPolyline
 66
     1
 10
0.0
 20
0.0
 30
0.0
 70
     1
 40
0.0508
 41
0.0508
 75
     8
  0
VERTEX
  5
45B
100
AcDbEntity
  8
TOPOVERLAY
100
AcDbVertex
100
AcDb2dVertex
 10
0.889
 20
-0.419095
 30
0.0
 42
1.0
  0
VERTEX
  5
45C
100
AcDbEntity
  8
TOPOVERLAY
100
AcDbVertex
100
AcDb2dVertex
 10
0.9398
 20
-0.419095
 30
0.0
 42
1.0
  0
SEQEND
  5
45D
100
AcDbEntity
  8
0
  0
POLYLINE
  5
45E
100
AcDbEntity
  8
TOPOVERLAY
100
AcDb2dPolyline
 66
     1
 10
0.0
 20
0.0
 30
0.0
 70
     1
 40
0.0508
 41
0.0508
 75
     8
  0
VERTEX
  5
45F
100
AcDbEntity
  8
TOPOVERLAY
100
AcDbVertex
100
AcDb2dVertex
 10
0.298399
 20
-0.419095
 30
0.0
 42
1.0
  0
VERTEX
  5
460
100
AcDbEntity
  8
TOPOVERLAY
100
AcDbVertex
100
AcDb2dVertex
 10
0.349199
 20
-0.419095
 30
0.0
 42
1.0
  0
SEQEND
  5
461
100
AcDbEntity
  8
0
  0
POLYLINE
  5
462
100
AcDbEntity
  8
TOPOVERLAY
100
AcDb2dPolyline
 66
     1
 10
0.0
 20
0.0
 30
0.0
 40
0.1016
 41
0.1016
 75
     8
  0
VERTEX
  5
463
100
AcDbEntity
  8
TOPOVERLAY
100
AcDbVertex
100
AcDb2dVertex
 10
-0.336499
 20
-0.419095
 30
0.0
  0
VERTEX
  5
464
100
AcDbEntity
  8
TOPOVERLAY
100
AcDbVertex
100
AcDb2dVertex
 10
-0.9271
 20
-0.419095
 30
0.0
  0
SEQEND
  5
465
100
AcDbEntity
  8
0
  0
POLYLINE
  5
466
100
AcDbEntity
  8
TOPOVERLAY
100
AcDb2dPolyline
 66
     1
 10
0.0
 20
0.0
 30
0.0
 70
     1
 40
0.0508
 41
0.0508
 75
     8
  0
VERTEX
  5
467
100
AcDbEntity
  8
TOPOVERLAY
100
AcDbVertex
100
AcDb2dVertex
 10
-0.361899
 20
-0.419095
 30
0.0
 42
1.0
  0
VERTEX
  5
468
100
AcDbEntity
  8
TOPOVERLAY
100
AcDbVertex
100
AcDb2dVertex
 10
-0.311099
 20
-0.419095
 30
0.0
 42
1.0
  0
SEQEND
  5
469
100
AcDbEntity
  8
0
  0
POLYLINE
  5
46A
100
AcDbEntity
  8
TOPOVERLAY
100
AcDb2dPolyline
 66
     1
 10
0.0
 20
0.0
 30
0.0
 70
     1
 40
0.0508
 41
0.0508
 75
     8
  0
VERTEX
  5
46B
100
AcDbEntity
  8
TOPOVERLAY
100
AcDbVertex
100
AcDb2dVertex
 10
-0.9525
 20
-0.419095
 30
0.0
 42
1.0
  0
VERTEX
  5
46C
100
AcDbEntity
  8
TOPOVERLAY
100
AcDbVertex
100
AcDb2dVertex
 10
-0.9017
 20
-0.419095
 30
0.0
 42
1.0
  0
SEQEND
  5
46D
100
AcDbEntity
  8
0
  0
POLYLINE
  5
46E
100
AcDbEntity
  8
TOPOVERLAY
100
AcDb2dPolyline
 66
     1
 10
0.0
 20
0.0
 30
0.0
 40
0.1016
 41
0.1016
 75
     8
  0
VERTEX
  5
46F
100
AcDbEntity
  8
TOPOVERLAY
100
AcDbVertex
100
AcDb2dVertex
 10
-0.336499
 20
0.419105
 30
0.0
  0
VERTEX
  5
470
100
AcDbEntity
  8
TOPOVERLAY
100
AcDbVertex
100
AcDb2dVertex
 10
-0.9271
 20
0.419105
 30
0.0
  0
SEQEND
  5
471
100
AcDbEntity
  8
0
  0
POLYLINE
  5
472
100
AcDbEntity
  8
TOPOVERLAY
100
AcDb2dPolyline
 66
     1
 10
0.0
 20
0.0
 30
0.0
 70
     1
 40
0.0508
 41
0.0508
 75
     8
  0
VERTEX
  5
473
100
AcDbEntity
  8
TOPOVERLAY
100
AcDbVertex
100
AcDb2dVertex
 10
-0.361899
 20
0.419105
 30
0.0
 42
1.0
  0
VERTEX
  5
474
100
AcDbEntity
  8
TOPOVERLAY
100
AcDbVertex
100
AcDb2dVertex
 10
-0.311099
 20
0.419105
 30
0.0
 42
1.0
  0
SEQEND
  5
475
100
AcDbEntity
  8
0
  0
POLYLINE
  5
476
100
AcDbEntity
  8
TOPOVERLAY
100
AcDb2dPolyline
 66
     1
 10
0.0
 20
0.0
 30
0.0
 70
     1
 40
0.0508
 41
0.0508
 75
     8
  0
VERTEX
  5
477
100
AcDbEntity
  8
TOPOVERLAY
100
AcDbVertex
100
AcDb2dVertex
 10
-0.9525
 20
0.419105
 30
0.0
 42
1.0
  0
VERTEX
  5
478
100
AcDbEntity
  8
TOPOVERLAY
100
AcDbVertex
100
AcDb2dVertex
 10
-0.9017
 20
0.419105
 30
0.0
 42
1.0
  0
SEQEND
  5
479
100
AcDbEntity
  8
0
  0
POLYLINE
  5
47A
100
AcDbEntity
  8
TOPOVERLAY
100
AcDb2dPolyline
 66
     1
 10
0.0
 20
0.0
 30
0.0
 40
0.1016
 41
0.1016
 75
     8
  0
VERTEX
  5
47B
100
AcDbEntity
  8
TOPOVERLAY
100
AcDbVertex
100
AcDb2dVertex
 10
0.9271
 20
0.419105
 30
0.0
  0
VERTEX
  5
47C
100
AcDbEntity
  8
TOPOVERLAY
100
AcDbVertex
100
AcDb2dVertex
 10
0.9271
 20
-0.419095
 30
0.0
  0
SEQEND
  5
47D
100
AcDbEntity
  8
0
  0
POLYLINE
  5
47E
100
AcDbEntity
  8
TOPOVERLAY
100
AcDb2dPolyline
 66
     1
 10
0.0
 20
0.0
 30
0.0
 70
     1
 40
0.0508
 41
0.0508
 75
     8
  0
VERTEX
  5
47F
100
AcDbEntity
  8
TOPOVERLAY
100
AcDbVertex
100
AcDb2dVertex
 10
0.9017
 20
0.419105
 30
0.0
 42
1.0
  0
VERTEX
  5
480
100
AcDbEntity
  8
TOPOVERLAY
100
AcDbVertex
100
AcDb2dVertex
 10
0.9525
 20
0.419105
 30
0.0
 42
1.0
  0
SEQEND
  5
481
100
AcDbEntity
  8
0
  0
POLYLINE
  5
482
100
AcDbEntity
  8
TOPOVERLAY
100
AcDb2dPolyline
 66
     1
 10
0.0
 20
0.0
 30
0.0
 70
     1
 40
0.0508
 41
0.0508
 75
     8
  0
VERTEX
  5
483
100
AcDbEntity
  8
TOPOVERLAY
100
AcDbVertex
100
AcDb2dVertex
 10
0.9017
 20
-0.419095
 30
0.0
 42
1.0
  0
VERTEX
  5
484
100
AcDbEntity
  8
TOPOVERLAY
100
AcDbVertex
100
AcDb2dVertex
 10
0.9525
 20
-0.419095
 30
0.0
 42
1.0
  0
SEQEND
  5
485
100
AcDbEntity
  8
0
  0
POLYLINE
  5
486
100
AcDbEntity
  8
TOPOVERLAY
100
AcDb2dPolyline
 66
     1
 10
0.0
 20
0.0
 30
0.0
 40
0.1016
 41
0.1016
 75
     8
  0
VERTEX
  5
487
100
AcDbEntity
  8
TOPOVERLAY
100
AcDbVertex
100
AcDb2dVertex
 10
-0.9271
 20
0.419105
 30
0.0
  0
VERTEX
  5
488
100
AcDbEntity
  8
TOPOVERLAY
100
AcDbVertex
100
AcDb2dVertex
 10
-0.9271
 20
-0.419095
 30
0.0
  0
SEQEND
  5
489
100
AcDbEntity
  8
0
  0
POLYLINE
  5
48A
100
AcDbEntity
  8
TOPOVERLAY
100
AcDb2dPolyline
 66
     1
 10
0.0
 20
0.0
 30
0.0
 70
     1
 40
0.0508
 41
0.0508
 75
     8
  0
VERTEX
  5
48B
100
AcDbEntity
  8
TOPOVERLAY
100
AcDbVertex
100
AcDb2dVertex
 10
-0.9525
 20
0.419105
 30
0.0
 42
1.0
  0
VERTEX
  5
48C
100
AcDbEntity
  8
TOPOVERLAY
100
AcDbVertex
100
AcDb2dVertex
 10
-0.9017
 20
0.419105
 30
0.0
 42
1.0
  0
SEQEND
  5
48D
100
AcDbEntity
  8
0
  0
POLYLINE
  5
48E
100
AcDbEntity
  8
TOPOVERLAY
100
AcDb2dPolyline
 66
     1
 10
0.0
 20
0.0
 30
0.0
 70
     1
 40
0.0508
 41
0.0508
 75
     8
  0
VERTEX
  5
48F
100
AcDbEntity
  8
TOPOVERLAY
100
AcDbVertex
100
AcDb2dVertex
 10
-0.9525
 20
-0.419095
 30
0.0
 42
1.0
  0
VERTEX
  5
490
100
AcDbEntity
  8
TOPOVERLAY
100
AcDbVertex
100
AcDb2dVertex
 10
-0.9017
 20
-0.419095
 30
0.0
 42
1.0
  0
SEQEND
  5
491
100
AcDbEntity
  8
0
  0
SOLID
  5
492
100
AcDbEntity
  8
TOPLAYER
100
AcDbTrace
 10
0.762
 20
0.254003
 30
0.0
 11
0.254
 21
0.254003
 31
0.0
 12
0.762
 22
-0.253997
 32
0.0
 13
0.254
 23
-0.253997
 33
0.0
  0
SOLID
  5
493
100
AcDbEntity
  8
TOPPASTE
100
AcDbTrace
 10
0.762
 20
0.254003
 30
0.0
 11
0.254
 21
0.254003
 31
0.0
 12
0.762
 22
-0.253997
 32
0.0
 13
0.254
 23
-0.253997
 33
0.0
  0
SOLID
  5
494
100
AcDbEntity
  8
TOPSOLDER
100
AcDbTrace
 10
0.8636
 20
0.355603
 30
0.0
 11
0.1524
 21
0.355603
 31
0.0
 12
0.8636
 22
-0.355597
 32
0.0
 13
0.1524
 23
-0.355597
 33
0.0
  0
SOLID
  5
495
100
AcDbEntity
  8
TOPLAYER
100
AcDbTrace
 10
-0.254
 20
0.254
 30
0.0
 11
-0.762
 21
0.254
 31
0.0
 12
-0.254
 22
-0.254
 32
0.0
 13
-0.762
 23
-0.254
 33
0.0
  0
SOLID
  5
496
100
AcDbEntity
  8
TOPPASTE
100
AcDbTrace
 10
-0.254
 20
0.254
 30
0.0
 11
-0.762
 21
0.254
 31
0.0
 12
-0.254
 22
-0.254
 32
0.0
 13
-0.762
 23
-0.254
 33
0.0
  0
SOLID
  5
497
100
AcDbEntity
  8
TOPSOLDER
100
AcDbTrace
 10
-0.1524
 20
0.3556
 30
0.0
 11
-0.8636
 21
0.3556
 31
0.0
 12
-0.1524
 22
-0.3556
 32
0.0
 13
-0.8636
 23
-0.3556
 33
0.0
  0
ENDBLK
  5
498
100
AcDbEntity
  8
0
100
AcDbBlockEnd
  0
BLOCK
  5
49B
100
AcDbEntity
  8
0
100
AcDbBlockBegin
  2
WSOF5_3
 70
     0
 10
0.0
 20
0.0
 30
0.0
  3
WSOF5_3
  1

  0
POLYLINE
  5
49C
100
AcDbEntity
  8
TOPOVERLAY
100
AcDb2dPolyline
 66
     1
 10
0.0
 20
0.0
 30
0.0
 40
0.127
 41
0.127
 75
     8
  0
VERTEX
  5
49D
100
AcDbEntity
  8
TOPOVERLAY
100
AcDbVertex
100
AcDb2dVertex
 10
-1.143
 20
-0.889
 30
0.0
  0
VERTEX
  5
49E
100
AcDbEntity
  8
TOPOVERLAY
100
AcDbVertex
100
AcDb2dVertex
 10
-1.143
 20
0.889
 30
0.0
  0
SEQEND
  5
49F
100
AcDbEntity
  8
0
  0
POLYLINE
  5
4A0
100
AcDbEntity
  8
TOPOVERLAY
100
AcDb2dPolyline
 66
     1
 10
0.0
 20
0.0
 30
0.0
 70
     1
 40
0.0635
 41
0.0635
 75
     8
  0
VERTEX
  5
4A1
100
AcDbEntity
  8
TOPOVERLAY
100
AcDbVertex
100
AcDb2dVertex
 10
-1.17475
 20
-0.889
 30
0.0
 42
1.0
  0
VERTEX
  5
4A2
100
AcDbEntity
  8
TOPOVERLAY
100
AcDbVertex
100
AcDb2dVertex
 10
-1.11125
 20
-0.889
 30
0.0
 42
1.0
  0
SEQEND
  5
4A3
100
AcDbEntity
  8
0
  0
POLYLINE
  5
4A4
100
AcDbEntity
  8
TOPOVERLAY
100
AcDb2dPolyline
 66
     1
 10
0.0
 20
0.0
 30
0.0
 70
     1
 40
0.0635
 41
0.0635
 75
     8
  0
VERTEX
  5
4A5
100
AcDbEntity
  8
TOPOVERLAY
100
AcDbVertex
100
AcDb2dVertex
 10
-1.17475
 20
0.889
 30
0.0
 42
1.0
  0
VERTEX
  5
4A6
100
AcDbEntity
  8
TOPOVERLAY
100
AcDbVertex
100
AcDb2dVertex
 10
-1.11125
 20
0.889
 30
0.0
 42
1.0
  0
SEQEND
  5
4A7
100
AcDbEntity
  8
0
  0
POLYLINE
  5
4A8
100
AcDbEntity
  8
TOPOVERLAY
100
AcDb2dPolyline
 66
     1
 10
0.0
 20
0.0
 30
0.0
 40
0.127
 41
0.127
 75
     8
  0
VERTEX
  5
4A9
100
AcDbEntity
  8
TOPOVERLAY
100
AcDbVertex
100
AcDb2dVertex
 10
1.143
 20
-0.889
 30
0.0
  0
VERTEX
  5
4AA
100
AcDbEntity
  8
TOPOVERLAY
100
AcDbVertex
100
AcDb2dVertex
 10
-1.143
 20
-0.889
 30
0.0
  0
SEQEND
  5
4AB
100
AcDbEntity
  8
0
  0
POLYLINE
  5
4AC
100
AcDbEntity
  8
TOPOVERLAY
100
AcDb2dPolyline
 66
     1
 10
0.0
 20
0.0
 30
0.0
 70
     1
 40
0.0635
 41
0.0635
 75
     8
  0
VERTEX
  5
4AD
100
AcDbEntity
  8
TOPOVERLAY
100
AcDbVertex
100
AcDb2dVertex
 10
1.11125
 20
-0.889
 30
0.0
 42
1.0
  0
VERTEX
  5
4AE
100
AcDbEntity
  8
TOPOVERLAY
100
AcDbVertex
100
AcDb2dVertex
 10
1.17475
 20
-0.889
 30
0.0
 42
1.0
  0
SEQEND
  5
4AF
100
AcDbEntity
  8
0
  0
POLYLINE
  5
4B0
100
AcDbEntity
  8
TOPOVERLAY
100
AcDb2dPolyline
 66
     1
 10
0.0
 20
0.0
 30
0.0
 70
     1
 40
0.0635
 41
0.0635
 75
     8
  0
VERTEX
  5
4B1
100
AcDbEntity
  8
TOPOVERLAY
100
AcDbVertex
100
AcDb2dVertex
 10
-1.17475
 20
-0.889
 30
0.0
 42
1.0
  0
VERTEX
  5
4B2
100
AcDbEntity
  8
TOPOVERLAY
100
AcDbVertex
100
AcDb2dVertex
 10
-1.11125
 20
-0.889
 30
0.0
 42
1.0
  0
SEQEND
  5
4B3
100
AcDbEntity
  8
0
  0
POLYLINE
  5
4B4
100
AcDbEntity
  8
TOPOVERLAY
100
AcDb2dPolyline
 66
     1
 10
0.0
 20
0.0
 30
0.0
 40
0.127
 41
0.127
 75
     8
  0
VERTEX
  5
4B5
100
AcDbEntity
  8
TOPOVERLAY
100
AcDbVertex
100
AcDb2dVertex
 10
1.143
 20
-0.889
 30
0.0
  0
VERTEX
  5
4B6
100
AcDbEntity
  8
TOPOVERLAY
100
AcDbVertex
100
AcDb2dVertex
 10
1.143
 20
0.889
 30
0.0
  0
SEQEND
  5
4B7
100
AcDbEntity
  8
0
  0
POLYLINE
  5
4B8
100
AcDbEntity
  8
TOPOVERLAY
100
AcDb2dPolyline
 66
     1
 10
0.0
 20
0.0
 30
0.0
 70
     1
 40
0.0635
 41
0.0635
 75
     8
  0
VERTEX
  5
4B9
100
AcDbEntity
  8
TOPOVERLAY
100
AcDbVertex
100
AcDb2dVertex
 10
1.11125
 20
-0.889
 30
0.0
 42
1.0
  0
VERTEX
  5
4BA
100
AcDbEntity
  8
TOPOVERLAY
100
AcDbVertex
100
AcDb2dVertex
 10
1.17475
 20
-0.889
 30
0.0
 42
1.0
  0
SEQEND
  5
4BB
100
AcDbEntity
  8
0
  0
POLYLINE
  5
4BC
100
AcDbEntity
  8
TOPOVERLAY
100
AcDb2dPolyline
 66
     1
 10
0.0
 20
0.0
 30
0.0
 70
     1
 40
0.0635
 41
0.0635
 75
     8
  0
VERTEX
  5
4BD
100
AcDbEntity
  8
TOPOVERLAY
100
AcDbVertex
100
AcDb2dVertex
 10
1.11125
 20
0.889
 30
0.0
 42
1.0
  0
VERTEX
  5
4BE
100
AcDbEntity
  8
TOPOVERLAY
100
AcDbVertex
100
AcDb2dVertex
 10
1.17475
 20
0.889
 30
0.0
 42
1.0
  0
SEQEND
  5
4BF
100
AcDbEntity
  8
0
  0
POLYLINE
  5
4C0
100
AcDbEntity
  8
TOPOVERLAY
100
AcDb2dPolyline
 66
     1
 10
0.0
 20
0.0
 30
0.0
 40
0.127
 41
0.127
 75
     8
  0
VERTEX
  5
4C1
100
AcDbEntity
  8
TOPOVERLAY
100
AcDbVertex
100
AcDb2dVertex
 10
1.143
 20
0.889
 30
0.0
  0
VERTEX
  5
4C2
100
AcDbEntity
  8
TOPOVERLAY
100
AcDbVertex
100
AcDb2dVertex
 10
-1.143
 20
0.889
 30
0.0
  0
SEQEND
  5
4C3
100
AcDbEntity
  8
0
  0
POLYLINE
  5
4C4
100
AcDbEntity
  8
TOPOVERLAY
100
AcDb2dPolyline
 66
     1
 10
0.0
 20
0.0
 30
0.0
 70
     1
 40
0.0635
 41
0.0635
 75
     8
  0
VERTEX
  5
4C5
100
AcDbEntity
  8
TOPOVERLAY
100
AcDbVertex
100
AcDb2dVertex
 10
1.11125
 20
0.889
 30
0.0
 42
1.0
  0
VERTEX
  5
4C6
100
AcDbEntity
  8
TOPOVERLAY
100
AcDbVertex
100
AcDb2dVertex
 10
1.17475
 20
0.889
 30
0.0
 42
1.0
  0
SEQEND
  5
4C7
100
AcDbEntity
  8
0
  0
POLYLINE
  5
4C8
100
AcDbEntity
  8
TOPOVERLAY
100
AcDb2dPolyline
 66
     1
 10
0.0
 20
0.0
 30
0.0
 70
     1
 40
0.0635
 41
0.0635
 75
     8
  0
VERTEX
  5
4C9
100
AcDbEntity
  8
TOPOVERLAY
100
AcDbVertex
100
AcDb2dVertex
 10
-1.17475
 20
0.889
 30
0.0
 42
1.0
  0
VERTEX
  5
4CA
100
AcDbEntity
  8
TOPOVERLAY
100
AcDbVertex
100
AcDb2dVertex
 10
-1.11125
 20
0.889
 30
0.0
 42
1.0
  0
SEQEND
  5
4CB
100
AcDbEntity
  8
0
  0
POLYLINE
  5
4CC
100
AcDbEntity
  8
MECHANICAL15
100
AcDb2dPolyline
 66
     1
 10
0.0
 20
0.0
 30
0.0
 40
0.1
 41
0.1
 75
     8
  0
VERTEX
  5
4CD
100
AcDbEntity
  8
MECHANICAL15
100
AcDbVertex
100
AcDb2dVertex
 10
-0.078001
 20
-0.608002
 30
0.0
  0
VERTEX
  5
4CE
100
AcDbEntity
  8
MECHANICAL15
100
AcDbVertex
100
AcDb2dVertex
 10
-0.078001
 20
0.391998
 30
0.0
  0
SEQEND
  5
4CF
100
AcDbEntity
  8
0
  0
POLYLINE
  5
4D0
100
AcDbEntity
  8
MECHANICAL15
100
AcDb2dPolyline
 66
     1
 10
0.0
 20
0.0
 30
0.0
 70
     1
 40
0.05
 41
0.05
 75
     8
  0
VERTEX
  5
4D1
100
AcDbEntity
  8
MECHANICAL15
100
AcDbVertex
100
AcDb2dVertex
 10
-0.103
 20
-0.608002
 30
0.0
 42
1.0
  0
VERTEX
  5
4D2
100
AcDbEntity
  8
MECHANICAL15
100
AcDbVertex
100
AcDb2dVertex
 10
-0.053002
 20
-0.608002
 30
0.0
 42
1.0
  0
SEQEND
  5
4D3
100
AcDbEntity
  8
0
  0
POLYLINE
  5
4D4
100
AcDbEntity
  8
MECHANICAL15
100
AcDb2dPolyline
 66
     1
 10
0.0
 20
0.0
 30
0.0
 70
     1
 40
0.05
 41
0.05
 75
     8
  0
VERTEX
  5
4D5
100
AcDbEntity
  8
MECHANICAL15
100
AcDbVertex
100
AcDb2dVertex
 10
-0.103
 20
0.391998
 30
0.0
 42
1.0
  0
VERTEX
  5
4D6
100
AcDbEntity
  8
MECHANICAL15
100
AcDbVertex
100
AcDb2dVertex
 10
-0.053002
 20
0.391998
 30
0.0
 42
1.0
  0
SEQEND
  5
4D7
100
AcDbEntity
  8
0
  0
POLYLINE
  5
4D8
100
AcDbEntity
  8
MECHANICAL15
100
AcDb2dPolyline
 66
     1
 10
0.0
 20
0.0
 30
0.0
 40
0.1
 41
0.1
 75
     8
  0
VERTEX
  5
4D9
100
AcDbEntity
  8
MECHANICAL15
100
AcDbVertex
100
AcDb2dVertex
 10
0.421998
 20
-0.108001
 30
0.0
  0
VERTEX
  5
4DA
100
AcDbEntity
  8
MECHANICAL15
100
AcDbVertex
100
AcDb2dVertex
 10
-0.578002
 20
-0.108001
 30
0.0
  0
SEQEND
  5
4DB
100
AcDbEntity
  8
0
  0
POLYLINE
  5
4DC
100
AcDbEntity
  8
MECHANICAL15
100
AcDb2dPolyline
 66
     1
 10
0.0
 20
0.0
 30
0.0
 70
     1
 40
0.05
 41
0.05
 75
     8
  0
VERTEX
  5
4DD
100
AcDbEntity
  8
MECHANICAL15
100
AcDbVertex
100
AcDb2dVertex
 10
0.396999
 20
-0.108001
 30
0.0
 42
1.0
  0
VERTEX
  5
4DE
100
AcDbEntity
  8
MECHANICAL15
100
AcDbVertex
100
AcDb2dVertex
 10
0.446997
 20
-0.108001
 30
0.0
 42
1.0
  0
SEQEND
  5
4DF
100
AcDbEntity
  8
0
  0
POLYLINE
  5
4E0
100
AcDbEntity
  8
MECHANICAL15
100
AcDb2dPolyline
 66
     1
 10
0.0
 20
0.0
 30
0.0
 70
     1
 40
0.05
 41
0.05
 75
     8
  0
VERTEX
  5
4E1
100
AcDbEntity
  8
MECHANICAL15
100
AcDbVertex
100
AcDb2dVertex
 10
-0.603001
 20
-0.108001
 30
0.0
 42
1.0
  0
VERTEX
  5
4E2
100
AcDbEntity
  8
MECHANICAL15
100
AcDbVertex
100
AcDb2dVertex
 10
-0.553004
 20
-0.108001
 30
0.0
 42
1.0
  0
SEQEND
  5
4E3
100
AcDbEntity
  8
0
  0
POLYLINE
  5
4E4
100
AcDbEntity
  8
MECHANICAL13
100
AcDb2dPolyline
 66
     1
 10
0.0
 20
0.0
 30
0.0
 40
0.1
 41
0.1
 75
     8
  0
VERTEX
  5
4E5
100
AcDbEntity
  8
MECHANICAL13
100
AcDbVertex
100
AcDb2dVertex
 10
0.546999
 20
-0.933003
 30
0.0
  0
VERTEX
  5
4E6
100
AcDbEntity
  8
MECHANICAL13
100
AcDbVertex
100
AcDb2dVertex
 10
-0.703001
 20
-0.933003
 30
0.0
  0
SEQEND
  5
4E7
100
AcDbEntity
  8
0
  0
POLYLINE
  5
4E8
100
AcDbEntity
  8
MECHANICAL13
100
AcDb2dPolyline
 66
     1
 10
0.0
 20
0.0
 30
0.0
 70
     1
 40
0.05
 41
0.05
 75
     8
  0
VERTEX
  5
4E9
100
AcDbEntity
  8
MECHANICAL13
100
AcDbVertex
100
AcDb2dVertex
 10
0.522
 20
-0.933003
 30
0.0
 42
1.0
  0
VERTEX
  5
4EA
100
AcDbEntity
  8
MECHANICAL13
100
AcDbVertex
100
AcDb2dVertex
 10
0.571998
 20
-0.933003
 30
0.0
 42
1.0
  0
SEQEND
  5
4EB
100
AcDbEntity
  8
0
  0
POLYLINE
  5
4EC
100
AcDbEntity
  8
MECHANICAL13
100
AcDb2dPolyline
 66
     1
 10
0.0
 20
0.0
 30
0.0
 70
     1
 40
0.05
 41
0.05
 75
     8
  0
VERTEX
  5
4ED
100
AcDbEntity
  8
MECHANICAL13
100
AcDbVertex
100
AcDb2dVertex
 10
-0.728
 20
-0.933003
 30
0.0
 42
1.0
  0
VERTEX
  5
4EE
100
AcDbEntity
  8
MECHANICAL13
100
AcDbVertex
100
AcDb2dVertex
 10
-0.678002
 20
-0.933003
 30
0.0
 42
1.0
  0
SEQEND
  5
4EF
100
AcDbEntity
  8
0
  0
POLYLINE
  5
4F0
100
AcDbEntity
  8
MECHANICAL13
100
AcDb2dPolyline
 66
     1
 10
0.0
 20
0.0
 30
0.0
 40
0.1
 41
0.1
 75
     8
  0
VERTEX
  5
4F1
100
AcDbEntity
  8
MECHANICAL13
100
AcDbVertex
100
AcDb2dVertex
 10
0.546999
 20
0.716999
 30
0.0
  0
VERTEX
  5
4F2
100
AcDbEntity
  8
MECHANICAL13
100
AcDbVertex
100
AcDb2dVertex
 10
-0.703001
 20
0.716999
 30
0.0
  0
SEQEND
  5
4F3
100
AcDbEntity
  8
0
  0
POLYLINE
  5
4F4
100
AcDbEntity
  8
MECHANICAL13
100
AcDb2dPolyline
 66
     1
 10
0.0
 20
0.0
 30
0.0
 70
     1
 40
0.05
 41
0.05
 75
     8
  0
VERTEX
  5
4F5
100
AcDbEntity
  8
MECHANICAL13
100
AcDbVertex
100
AcDb2dVertex
 10
0.522
 20
0.716999
 30
0.0
 42
1.0
  0
VERTEX
  5
4F6
100
AcDbEntity
  8
MECHANICAL13
100
AcDbVertex
100
AcDb2dVertex
 10
0.571998
 20
0.716999
 30
0.0
 42
1.0
  0
SEQEND
  5
4F7
100
AcDbEntity
  8
0
  0
POLYLINE
  5
4F8
100
AcDbEntity
  8
MECHANICAL13
100
AcDb2dPolyline
 66
     1
 10
0.0
 20
0.0
 30
0.0
 70
     1
 40
0.05
 41
0.05
 75
     8
  0
VERTEX
  5
4F9
100
AcDbEntity
  8
MECHANICAL13
100
AcDbVertex
100
AcDb2dVertex
 10
-0.728
 20
0.716999
 30
0.0
 42
1.0
  0
VERTEX
  5
4FA
100
AcDbEntity
  8
MECHANICAL13
100
AcDbVertex
100
AcDb2dVertex
 10
-0.678002
 20
0.716999
 30
0.0
 42
1.0
  0
SEQEND
  5
4FB
100
AcDbEntity
  8
0
  0
POLYLINE
  5
4FC
100
AcDbEntity
  8
MECHANICAL13
100
AcDb2dPolyline
 66
     1
 10
0.0
 20
0.0
 30
0.0
 40
0.1
 41
0.1
 75
     8
  0
VERTEX
  5
4FD
100
AcDbEntity
  8
MECHANICAL13
100
AcDbVertex
100
AcDb2dVertex
 10
0.546999
 20
-0.933003
 30
0.0
  0
VERTEX
  5
4FE
100
AcDbEntity
  8
MECHANICAL13
100
AcDbVertex
100
AcDb2dVertex
 10
0.546999
 20
0.716999
 30
0.0
  0
SEQEND
  5
4FF
100
AcDbEntity
  8
0
  0
POLYLINE
  5
500
100
AcDbEntity
  8
MECHANICAL13
100
AcDb2dPolyline
 66
     1
 10
0.0
 20
0.0
 30
0.0
 70
     1
 40
0.05
 41
0.05
 75
     8
  0
VERTEX
  5
501
100
AcDbEntity
  8
MECHANICAL13
100
AcDbVertex
100
AcDb2dVertex
 10
0.522
 20
-0.933003
 30
0.0
 42
1.0
  0
VERTEX
  5
502
100
AcDbEntity
  8
MECHANICAL13
100
AcDbVertex
100
AcDb2dVertex
 10
0.571998
 20
-0.933003
 30
0.0
 42
1.0
  0
SEQEND
  5
503
100
AcDbEntity
  8
0
  0
POLYLINE
  5
504
100
AcDbEntity
  8
MECHANICAL13
100
AcDb2dPolyline
 66
     1
 10
0.0
 20
0.0
 30
0.0
 70
     1
 40
0.05
 41
0.05
 75
     8
  0
VERTEX
  5
505
100
AcDbEntity
  8
MECHANICAL13
100
AcDbVertex
100
AcDb2dVertex
 10
0.522
 20
0.716999
 30
0.0
 42
1.0
  0
VERTEX
  5
506
100
AcDbEntity
  8
MECHANICAL13
100
AcDbVertex
100
AcDb2dVertex
 10
0.571998
 20
0.716999
 30
0.0
 42
1.0
  0
SEQEND
  5
507
100
AcDbEntity
  8
0
  0
POLYLINE
  5
508
100
AcDbEntity
  8
MECHANICAL13
100
AcDb2dPolyline
 66
     1
 10
0.0
 20
0.0
 30
0.0
 40
0.1
 41
0.1
 75
     8
  0
VERTEX
  5
509
100
AcDbEntity
  8
MECHANICAL13
100
AcDbVertex
100
AcDb2dVertex
 10
-0.703001
 20
-0.933003
 30
0.0
  0
VERTEX
  5
50A
100
AcDbEntity
  8
MECHANICAL13
100
AcDbVertex
100
AcDb2dVertex
 10
-0.703001
 20
0.716999
 30
0.0
  0
SEQEND
  5
50B
100
AcDbEntity
  8
0
  0
POLYLINE
  5
50C
100
AcDbEntity
  8
MECHANICAL13
100
AcDb2dPolyline
 66
     1
 10
0.0
 20
0.0
 30
0.0
 70
     1
 40
0.05
 41
0.05
 75
     8
  0
VERTEX
  5
50D
100
AcDbEntity
  8
MECHANICAL13
100
AcDbVertex
100
AcDb2dVertex
 10
-0.728
 20
-0.933003
 30
0.0
 42
1.0
  0
VERTEX
  5
50E
100
AcDbEntity
  8
MECHANICAL13
100
AcDbVertex
100
AcDb2dVertex
 10
-0.678002
 20
-0.933003
 30
0.0
 42
1.0
  0
SEQEND
  5
50F
100
AcDbEntity
  8
0
  0
POLYLINE
  5
510
100
AcDbEntity
  8
MECHANICAL13
100
AcDb2dPolyline
 66
     1
 10
0.0
 20
0.0
 30
0.0
 70
     1
 40
0.05
 41
0.05
 75
     8
  0
VERTEX
  5
511
100
AcDbEntity
  8
MECHANICAL13
100
AcDbVertex
100
AcDb2dVertex
 10
-0.728
 20
0.716999
 30
0.0
 42
1.0
  0
VERTEX
  5
512
100
AcDbEntity
  8
MECHANICAL13
100
AcDbVertex
100
AcDb2dVertex
 10
-0.678002
 20
0.716999
 30
0.0
 42
1.0
  0
SEQEND
  5
513
100
AcDbEntity
  8
0
  0
POLYLINE
  5
514
100
AcDbEntity
  8
TOPOVERLAY
100
AcDb2dPolyline
 66
     1
 10
0.0
 20
0.0
 30
0.0
 70
     1
 40
0.249999
 41
0.249999
 75
     8
  0
VERTEX
  5
515
100
AcDbEntity
  8
TOPOVERLAY
100
AcDbVertex
100
AcDb2dVertex
 10
-0.635
 20
1.15
 30
0.0
 42
1.0
  0
VERTEX
  5
516
100
AcDbEntity
  8
TOPOVERLAY
100
AcDbVertex
100
AcDb2dVertex
 10
-0.835
 20
1.15
 30
0.0
 42
1.0
  0
SEQEND
  5
517
100
AcDbEntity
  8
0
  0
POLYLINE
  5
518
100
AcDbEntity
  8
TOPOVERLAY
100
AcDb2dPolyline
 66
     1
 10
0.0
 20
0.0
 30
0.0
 70
     1
 40
0.124998
 41
0.124998
 75
     8
  0
VERTEX
  5
519
100
AcDbEntity
  8
TOPOVERLAY
100
AcDbVertex
100
AcDb2dVertex
 10
-0.697499
 20
1.15
 30
0.0
 42
1.0
  0
VERTEX
  5
51A
100
AcDbEntity
  8
TOPOVERLAY
100
AcDbVertex
100
AcDb2dVertex
 10
-0.572501
 20
1.15
 30
0.0
 42
1.0
  0
SEQEND
  5
51B
100
AcDbEntity
  8
0
  0
POLYLINE
  5
51C
100
AcDbEntity
  8
TOPOVERLAY
100
AcDb2dPolyline
 66
     1
 10
0.0
 20
0.0
 30
0.0
 70
     1
 40
0.124998
 41
0.124998
 75
     8
  0
VERTEX
  5
51D
100
AcDbEntity
  8
TOPOVERLAY
100
AcDbVertex
100
AcDb2dVertex
 10
-0.897499
 20
1.15
 30
0.0
 42
1.0
  0
VERTEX
  5
51E
100
AcDbEntity
  8
TOPOVERLAY
100
AcDbVertex
100
AcDb2dVertex
 10
-0.7725
 20
1.15
 30
0.0
 42
1.0
  0
SEQEND
  5
51F
100
AcDbEntity
  8
0
  0
SOLID
  5
520
100
AcDbEntity
  8
TOPLAYER
100
AcDbTrace
 10
-0.500002
 20
0.359999
 30
0.0
 11
-0.500002
 21
0.639999
 31
0.0
 12
-0.900001
 22
0.359999
 32
0.0
 13
-0.900001
 23
0.639999
 33
0.0
  0
SOLID
  5
521
100
AcDbEntity
  8
TOPPASTE
100
AcDbTrace
 10
-0.500002
 20
0.359999
 30
0.0
 11
-0.500002
 21
0.639999
 31
0.0
 12
-0.900001
 22
0.359999
 32
0.0
 13
-0.900001
 23
0.639999
 33
0.0
  0
SOLID
  5
522
100
AcDbEntity
  8
TOPSOLDER
100
AcDbTrace
 10
-0.398402
 20
0.258399
 30
0.0
 11
-0.398402
 21
0.741599
 31
0.0
 12
-1.001601
 22
0.258399
 32
0.0
 13
-1.001601
 23
0.741599
 33
0.0
  0
SOLID
  5
523
100
AcDbEntity
  8
TOPLAYER
100
AcDbTrace
 10
-0.500002
 20
-0.14
 30
0.0
 11
-0.500002
 21
0.14
 31
0.0
 12
-0.900001
 22
-0.14
 32
0.0
 13
-0.900001
 23
0.14
 33
0.0
  0
SOLID
  5
524
100
AcDbEntity
  8
TOPPASTE
100
AcDbTrace
 10
-0.500002
 20
-0.14
 30
0.0
 11
-0.500002
 21
0.14
 31
0.0
 12
-0.900001
 22
-0.14
 32
0.0
 13
-0.900001
 23
0.14
 33
0.0
  0
SOLID
  5
525
100
AcDbEntity
  8
TOPSOLDER
100
AcDbTrace
 10
-0.398402
 20
-0.2416
 30
0.0
 11
-0.398402
 21
0.2416
 31
0.0
 12
-1.001601
 22
-0.2416
 32
0.0
 13
-1.001601
 23
0.2416
 33
0.0
  0
SOLID
  5
526
100
AcDbEntity
  8
TOPLAYER
100
AcDbTrace
 10
-0.500002
 20
-0.639999
 30
0.0
 11
-0.500002
 21
-0.359999
 31
0.0
 12
-0.900001
 22
-0.639999
 32
0.0
 13
-0.900001
 23
-0.359999
 33
0.0
  0
SOLID
  5
527
100
AcDbEntity
  8
TOPPASTE
100
AcDbTrace
 10
-0.500002
 20
-0.639999
 30
0.0
 11
-0.500002
 21
-0.359999
 31
0.0
 12
-0.900001
 22
-0.639999
 32
0.0
 13
-0.900001
 23
-0.359999
 33
0.0
  0
SOLID
  5
528
100
AcDbEntity
  8
TOPSOLDER
100
AcDbTrace
 10
-0.398402
 20
-0.741599
 30
0.0
 11
-0.398402
 21
-0.258399
 31
0.0
 12
-1.001601
 22
-0.741599
 32
0.0
 13
-1.001601
 23
-0.258399
 33
0.0
  0
SOLID
  5
529
100
AcDbEntity
  8
TOPLAYER
100
AcDbTrace
 10
0.900001
 20
-0.639999
 30
0.0
 11
0.900001
 21
-0.359999
 31
0.0
 12
0.500002
 22
-0.639999
 32
0.0
 13
0.500002
 23
-0.359999
 33
0.0
  0
SOLID
  5
52A
100
AcDbEntity
  8
TOPPASTE
100
AcDbTrace
 10
0.900001
 20
-0.639999
 30
0.0
 11
0.900001
 21
-0.359999
 31
0.0
 12
0.500002
 22
-0.639999
 32
0.0
 13
0.500002
 23
-0.359999
 33
0.0
  0
SOLID
  5
52B
100
AcDbEntity
  8
TOPSOLDER
100
AcDbTrace
 10
1.001601
 20
-0.741599
 30
0.0
 11
1.001601
 21
-0.258399
 31
0.0
 12
0.398402
 22
-0.741599
 32
0.0
 13
0.398402
 23
-0.258399
 33
0.0
  0
SOLID
  5
52C
100
AcDbEntity
  8
TOPLAYER
100
AcDbTrace
 10
0.900001
 20
0.359999
 30
0.0
 11
0.900001
 21
0.639999
 31
0.0
 12
0.500002
 22
0.359999
 32
0.0
 13
0.500002
 23
0.639999
 33
0.0
  0
SOLID
  5
52D
100
AcDbEntity
  8
TOPPASTE
100
AcDbTrace
 10
0.900001
 20
0.359999
 30
0.0
 11
0.900001
 21
0.639999
 31
0.0
 12
0.500002
 22
0.359999
 32
0.0
 13
0.500002
 23
0.639999
 33
0.0
  0
SOLID
  5
52E
100
AcDbEntity
  8
TOPSOLDER
100
AcDbTrace
 10
1.001601
 20
0.258399
 30
0.0
 11
1.001601
 21
0.741599
 31
0.0
 12
0.398402
 22
0.258399
 32
0.0
 13
0.398402
 23
0.741599
 33
0.0
  0
POLYLINE
  5
52F
100
AcDbEntity
  8
TOPLAYER
100
AcDb2dPolyline
 66
     1
 10
0.0
 20
0.0
 30
0.0
 70
     1
 40
0.249999
 41
0.249999
 75
     8
  0
VERTEX
  5
530
100
AcDbEntity
  8
TOPLAYER
100
AcDbVertex
100
AcDb2dVertex
 10
-0.124998
 20
0.0
 30
0.0
 42
1.0
  0
VERTEX
  5
531
100
AcDbEntity
  8
TOPLAYER
100
AcDbVertex
100
AcDb2dVertex
 10
0.124998
 20
0.0
 30
0.0
 42
1.0
  0
SEQEND
  5
532
100
AcDbEntity
  8
0
  0
POLYLINE
  5
533
100
AcDbEntity
  8
TOPPASTE
100
AcDb2dPolyline
 66
     1
 10
0.0
 20
0.0
 30
0.0
 70
     1
 40
0.249999
 41
0.249999
 75
     8
  0
VERTEX
  5
534
100
AcDbEntity
  8
TOPPASTE
100
AcDbVertex
100
AcDb2dVertex
 10
-0.124998
 20
0.0
 30
0.0
 42
1.0
  0
VERTEX
  5
535
100
AcDbEntity
  8
TOPPASTE
100
AcDbVertex
100
AcDb2dVertex
 10
0.124998
 20
0.0
 30
0.0
 42
1.0
  0
SEQEND
  5
536
100
AcDbEntity
  8
0
  0
POLYLINE
  5
537
100
AcDbEntity
  8
TOPSOLDER
100
AcDb2dPolyline
 66
     1
 10
0.0
 20
0.0
 30
0.0
 70
     1
 40
0.351599
 41
0.351599
 75
     8
  0
VERTEX
  5
538
100
AcDbEntity
  8
TOPSOLDER
100
AcDbVertex
100
AcDb2dVertex
 10
-0.175798
 20
0.0
 30
0.0
 42
1.0
  0
VERTEX
  5
539
100
AcDbEntity
  8
TOPSOLDER
100
AcDbVertex
100
AcDb2dVertex
 10
0.175798
 20
0.0
 30
0.0
 42
1.0
  0
SEQEND
  5
53A
100
AcDbEntity
  8
0
  0
LINE
  5
53B
100
AcDbEntity
  8
TOPSOLDER
100
AcDbLine
 10
-0.454998
 20
0.109997
 30
0.0
 11
-0.454998
 21
0.1451
 31
0.0
  0
LINE
  5
53C
100
AcDbEntity
  8
TOPSOLDER
100
AcDbLine
 10
-0.454998
 20
0.1451
 30
0.0
 11
-0.357457
 21
0.164503
 31
0.0
  0
LINE
  5
53D
100
AcDbEntity
  8
TOPSOLDER
100
AcDbLine
 10
-0.357457
 20
0.164503
 30
0.0
 11
-0.274762
 21
0.219758
 31
0.0
  0
LINE
  5
53E
100
AcDbEntity
  8
TOPSOLDER
100
AcDbLine
 10
-0.274762
 20
0.219758
 30
0.0
 11
-0.219507
 21
0.302453
 31
0.0
  0
LINE
  5
53F
100
AcDbEntity
  8
TOPSOLDER
100
AcDbLine
 10
-0.219507
 20
0.302453
 30
0.0
 11
-0.200104
 21
0.399999
 31
0.0
  0
LINE
  5
540
100
AcDbEntity
  8
TOPSOLDER
100
AcDbLine
 10
-0.200104
 20
0.399999
 30
0.0
 11
-0.205001
 21
0.399999
 31
0.0
  0
LINE
  5
541
100
AcDbEntity
  8
TOPSOLDER
100
AcDbLine
 10
-0.205001
 20
0.399999
 30
0.0
 11
0.204998
 21
0.399999
 31
0.0
  0
LINE
  5
542
100
AcDbEntity
  8
TOPSOLDER
100
AcDbLine
 10
0.204998
 20
0.399999
 30
0.0
 11
0.200101
 21
0.399997
 31
0.0
  0
LINE
  5
543
100
AcDbEntity
  8
TOPSOLDER
100
AcDbLine
 10
0.200101
 20
0.399997
 30
0.0
 11
0.219504
 21
0.302456
 31
0.0
  0
LINE
  5
544
100
AcDbEntity
  8
TOPSOLDER
100
AcDbLine
 10
0.219504
 20
0.302456
 30
0.0
 11
0.274759
 21
0.219761
 31
0.0
  0
LINE
  5
545
100
AcDbEntity
  8
TOPSOLDER
100
AcDbLine
 10
0.274759
 20
0.219761
 30
0.0
 11
0.357454
 21
0.164506
 31
0.0
  0
LINE
  5
546
100
AcDbEntity
  8
TOPSOLDER
100
AcDbLine
 10
0.357454
 20
0.164506
 30
0.0
 11
0.455
 21
0.145103
 31
0.0
  0
LINE
  5
547
100
AcDbEntity
  8
TOPSOLDER
100
AcDbLine
 10
0.455
 20
0.145103
 30
0.0
 11
0.455
 21
0.15
 31
0.0
  0
LINE
  5
548
100
AcDbEntity
  8
TOPSOLDER
100
AcDbLine
 10
0.455
 20
0.15
 30
0.0
 11
0.455
 21
0.11
 31
0.0
  0
LINE
  5
549
100
AcDbEntity
  8
TOPSOLDER
100
AcDbLine
 10
0.455
 20
0.11
 30
0.0
 11
0.649999
 21
0.11
 31
0.0
  0
LINE
  5
54A
100
AcDbEntity
  8
TOPSOLDER
100
AcDbLine
 10
0.649999
 20
0.11
 30
0.0
 11
0.649999
 21
-0.11
 31
0.0
  0
LINE
  5
54B
100
AcDbEntity
  8
TOPSOLDER
100
AcDbLine
 10
0.649999
 20
-0.11
 30
0.0
 11
0.455
 21
-0.11
 31
0.0
  0
LINE
  5
54C
100
AcDbEntity
  8
TOPSOLDER
100
AcDbLine
 10
0.455
 20
-0.11
 30
0.0
 11
0.455
 21
-0.145103
 31
0.0
  0
LINE
  5
54D
100
AcDbEntity
  8
TOPSOLDER
100
AcDbLine
 10
0.455
 20
-0.145103
 30
0.0
 11
0.357459
 21
-0.164506
 31
0.0
  0
LINE
  5
54E
100
AcDbEntity
  8
TOPSOLDER
100
AcDbLine
 10
0.357459
 20
-0.164506
 30
0.0
 11
0.274764
 21
-0.219761
 31
0.0
  0
LINE
  5
54F
100
AcDbEntity
  8
TOPSOLDER
100
AcDbLine
 10
0.274764
 20
-0.219761
 30
0.0
 11
0.219509
 21
-0.302456
 31
0.0
  0
LINE
  5
550
100
AcDbEntity
  8
TOPSOLDER
100
AcDbLine
 10
0.219509
 20
-0.302456
 30
0.0
 11
0.200106
 21
-0.400002
 31
0.0
  0
LINE
  5
551
100
AcDbEntity
  8
TOPSOLDER
100
AcDbLine
 10
0.200106
 20
-0.400002
 30
0.0
 11
0.205003
 21
-0.400002
 31
0.0
  0
LINE
  5
552
100
AcDbEntity
  8
TOPSOLDER
100
AcDbLine
 10
0.205003
 20
-0.400002
 30
0.0
 11
-0.200099
 21
-0.400002
 31
0.0
  0
LINE
  5
553
100
AcDbEntity
  8
TOPSOLDER
100
AcDbLine
 10
-0.200099
 20
-0.400002
 30
0.0
 11
-0.219502
 21
-0.302461
 31
0.0
  0
LINE
  5
554
100
AcDbEntity
  8
TOPSOLDER
100
AcDbLine
 10
-0.219502
 20
-0.302461
 30
0.0
 11
-0.274757
 21
-0.219766
 31
0.0
  0
LINE
  5
555
100
AcDbEntity
  8
TOPSOLDER
100
AcDbLine
 10
-0.274757
 20
-0.219766
 30
0.0
 11
-0.357452
 21
-0.164511
 31
0.0
  0
LINE
  5
556
100
AcDbEntity
  8
TOPSOLDER
100
AcDbLine
 10
-0.357452
 20
-0.164511
 30
0.0
 11
-0.454998
 21
-0.145108
 31
0.0
  0
LINE
  5
557
100
AcDbEntity
  8
TOPSOLDER
100
AcDbLine
 10
-0.454998
 20
-0.145108
 30
0.0
 11
-0.454998
 21
-0.150005
 31
0.0
  0
LINE
  5
558
100
AcDbEntity
  8
TOPSOLDER
100
AcDbLine
 10
-0.454998
 20
-0.150005
 30
0.0
 11
-0.454998
 21
-0.110005
 31
0.0
  0
LINE
  5
559
100
AcDbEntity
  8
TOPSOLDER
100
AcDbLine
 10
-0.454998
 20
-0.110005
 30
0.0
 11
-0.850001
 21
-0.110005
 31
0.0
  0
LINE
  5
55A
100
AcDbEntity
  8
TOPSOLDER
100
AcDbLine
 10
-0.850001
 20
-0.110005
 30
0.0
 11
-0.850001
 21
0.109997
 31
0.0
  0
LINE
  5
55B
100
AcDbEntity
  8
TOPSOLDER
100
AcDbLine
 10
-0.850001
 20
0.109997
 30
0.0
 11
-0.454998
 21
0.109997
 31
0.0
  0
LINE
  5
55C
100
AcDbEntity
  8
TOPPASTE
100
AcDbLine
 10
-0.454998
 20
0.109997
 30
0.0
 11
-0.454998
 21
0.1451
 31
0.0
  0
LINE
  5
55D
100
AcDbEntity
  8
TOPPASTE
100
AcDbLine
 10
-0.454998
 20
0.1451
 30
0.0
 11
-0.357457
 21
0.164503
 31
0.0
  0
LINE
  5
55E
100
AcDbEntity
  8
TOPPASTE
100
AcDbLine
 10
-0.357457
 20
0.164503
 30
0.0
 11
-0.274762
 21
0.219758
 31
0.0
  0
LINE
  5
55F
100
AcDbEntity
  8
TOPPASTE
100
AcDbLine
 10
-0.274762
 20
0.219758
 30
0.0
 11
-0.219507
 21
0.302453
 31
0.0
  0
LINE
  5
560
100
AcDbEntity
  8
TOPPASTE
100
AcDbLine
 10
-0.219507
 20
0.302453
 30
0.0
 11
-0.200104
 21
0.399999
 31
0.0
  0
LINE
  5
561
100
AcDbEntity
  8
TOPPASTE
100
AcDbLine
 10
-0.200104
 20
0.399999
 30
0.0
 11
-0.205001
 21
0.399999
 31
0.0
  0
LINE
  5
562
100
AcDbEntity
  8
TOPPASTE
100
AcDbLine
 10
-0.205001
 20
0.399999
 30
0.0
 11
0.204998
 21
0.399999
 31
0.0
  0
LINE
  5
563
100
AcDbEntity
  8
TOPPASTE
100
AcDbLine
 10
0.204998
 20
0.399999
 30
0.0
 11
0.200101
 21
0.399997
 31
0.0
  0
LINE
  5
564
100
AcDbEntity
  8
TOPPASTE
100
AcDbLine
 10
0.200101
 20
0.399997
 30
0.0
 11
0.219504
 21
0.302456
 31
0.0
  0
LINE
  5
565
100
AcDbEntity
  8
TOPPASTE
100
AcDbLine
 10
0.219504
 20
0.302456
 30
0.0
 11
0.274759
 21
0.219761
 31
0.0
  0
LINE
  5
566
100
AcDbEntity
  8
TOPPASTE
100
AcDbLine
 10
0.274759
 20
0.219761
 30
0.0
 11
0.357454
 21
0.164506
 31
0.0
  0
LINE
  5
567
100
AcDbEntity
  8
TOPPASTE
100
AcDbLine
 10
0.357454
 20
0.164506
 30
0.0
 11
0.455
 21
0.145103
 31
0.0
  0
LINE
  5
568
100
AcDbEntity
  8
TOPPASTE
100
AcDbLine
 10
0.455
 20
0.145103
 30
0.0
 11
0.455
 21
0.15
 31
0.0
  0
LINE
  5
569
100
AcDbEntity
  8
TOPPASTE
100
AcDbLine
 10
0.455
 20
0.15
 30
0.0
 11
0.455
 21
0.11
 31
0.0
  0
LINE
  5
56A
100
AcDbEntity
  8
TOPPASTE
100
AcDbLine
 10
0.455
 20
0.11
 30
0.0
 11
0.649999
 21
0.11
 31
0.0
  0
LINE
  5
56B
100
AcDbEntity
  8
TOPPASTE
100
AcDbLine
 10
0.649999
 20
0.11
 30
0.0
 11
0.649999
 21
-0.11
 31
0.0
  0
LINE
  5
56C
100
AcDbEntity
  8
TOPPASTE
100
AcDbLine
 10
0.649999
 20
-0.11
 30
0.0
 11
0.455
 21
-0.11
 31
0.0
  0
LINE
  5
56D
100
AcDbEntity
  8
TOPPASTE
100
AcDbLine
 10
0.455
 20
-0.11
 30
0.0
 11
0.455
 21
-0.145103
 31
0.0
  0
LINE
  5
56E
100
AcDbEntity
  8
TOPPASTE
100
AcDbLine
 10
0.455
 20
-0.145103
 30
0.0
 11
0.357459
 21
-0.164506
 31
0.0
  0
LINE
  5
56F
100
AcDbEntity
  8
TOPPASTE
100
AcDbLine
 10
0.357459
 20
-0.164506
 30
0.0
 11
0.274764
 21
-0.219761
 31
0.0
  0
LINE
  5
570
100
AcDbEntity
  8
TOPPASTE
100
AcDbLine
 10
0.274764
 20
-0.219761
 30
0.0
 11
0.219509
 21
-0.302456
 31
0.0
  0
LINE
  5
571
100
AcDbEntity
  8
TOPPASTE
100
AcDbLine
 10
0.219509
 20
-0.302456
 30
0.0
 11
0.200106
 21
-0.400002
 31
0.0
  0
LINE
  5
572
100
AcDbEntity
  8
TOPPASTE
100
AcDbLine
 10
0.200106
 20
-0.400002
 30
0.0
 11
0.205003
 21
-0.400002
 31
0.0
  0
LINE
  5
573
100
AcDbEntity
  8
TOPPASTE
100
AcDbLine
 10
0.205003
 20
-0.400002
 30
0.0
 11
-0.200099
 21
-0.400002
 31
0.0
  0
LINE
  5
574
100
AcDbEntity
  8
TOPPASTE
100
AcDbLine
 10
-0.200099
 20
-0.400002
 30
0.0
 11
-0.219502
 21
-0.302461
 31
0.0
  0
LINE
  5
575
100
AcDbEntity
  8
TOPPASTE
100
AcDbLine
 10
-0.219502
 20
-0.302461
 30
0.0
 11
-0.274757
 21
-0.219766
 31
0.0
  0
LINE
  5
576
100
AcDbEntity
  8
TOPPASTE
100
AcDbLine
 10
-0.274757
 20
-0.219766
 30
0.0
 11
-0.357452
 21
-0.164511
 31
0.0
  0
LINE
  5
577
100
AcDbEntity
  8
TOPPASTE
100
AcDbLine
 10
-0.357452
 20
-0.164511
 30
0.0
 11
-0.454998
 21
-0.145108
 31
0.0
  0
LINE
  5
578
100
AcDbEntity
  8
TOPPASTE
100
AcDbLine
 10
-0.454998
 20
-0.145108
 30
0.0
 11
-0.454998
 21
-0.150005
 31
0.0
  0
LINE
  5
579
100
AcDbEntity
  8
TOPPASTE
100
AcDbLine
 10
-0.454998
 20
-0.150005
 30
0.0
 11
-0.454998
 21
-0.110005
 31
0.0
  0
LINE
  5
57A
100
AcDbEntity
  8
TOPPASTE
100
AcDbLine
 10
-0.454998
 20
-0.110005
 30
0.0
 11
-0.850001
 21
-0.110005
 31
0.0
  0
LINE
  5
57B
100
AcDbEntity
  8
TOPPASTE
100
AcDbLine
 10
-0.850001
 20
-0.110005
 30
0.0
 11
-0.850001
 21
0.109997
 31
0.0
  0
LINE
  5
57C
100
AcDbEntity
  8
TOPPASTE
100
AcDbLine
 10
-0.850001
 20
0.109997
 30
0.0
 11
-0.454998
 21
0.109997
 31
0.0
  0
LINE
  5
57D
100
AcDbEntity
  8
TOPLAYER
100
AcDbLine
 10
-0.454998
 20
0.109997
 30
0.0
 11
-0.454998
 21
0.1451
 31
0.0
  0
LINE
  5
57E
100
AcDbEntity
  8
TOPLAYER
100
AcDbLine
 10
-0.454998
 20
0.1451
 30
0.0
 11
-0.357457
 21
0.164503
 31
0.0
  0
LINE
  5
57F
100
AcDbEntity
  8
TOPLAYER
100
AcDbLine
 10
-0.357457
 20
0.164503
 30
0.0
 11
-0.274762
 21
0.219758
 31
0.0
  0
LINE
  5
580
100
AcDbEntity
  8
TOPLAYER
100
AcDbLine
 10
-0.274762
 20
0.219758
 30
0.0
 11
-0.219507
 21
0.302453
 31
0.0
  0
LINE
  5
581
100
AcDbEntity
  8
TOPLAYER
100
AcDbLine
 10
-0.219507
 20
0.302453
 30
0.0
 11
-0.200104
 21
0.399999
 31
0.0
  0
LINE
  5
582
100
AcDbEntity
  8
TOPLAYER
100
AcDbLine
 10
-0.200104
 20
0.399999
 30
0.0
 11
-0.205001
 21
0.399999
 31
0.0
  0
LINE
  5
583
100
AcDbEntity
  8
TOPLAYER
100
AcDbLine
 10
-0.205001
 20
0.399999
 30
0.0
 11
0.204998
 21
0.399999
 31
0.0
  0
LINE
  5
584
100
AcDbEntity
  8
TOPLAYER
100
AcDbLine
 10
0.204998
 20
0.399999
 30
0.0
 11
0.200101
 21
0.399997
 31
0.0
  0
LINE
  5
585
100
AcDbEntity
  8
TOPLAYER
100
AcDbLine
 10
0.200101
 20
0.399997
 30
0.0
 11
0.219504
 21
0.302456
 31
0.0
  0
LINE
  5
586
100
AcDbEntity
  8
TOPLAYER
100
AcDbLine
 10
0.219504
 20
0.302456
 30
0.0
 11
0.274759
 21
0.219761
 31
0.0
  0
LINE
  5
587
100
AcDbEntity
  8
TOPLAYER
100
AcDbLine
 10
0.274759
 20
0.219761
 30
0.0
 11
0.357454
 21
0.164506
 31
0.0
  0
LINE
  5
588
100
AcDbEntity
  8
TOPLAYER
100
AcDbLine
 10
0.357454
 20
0.164506
 30
0.0
 11
0.455
 21
0.145103
 31
0.0
  0
LINE
  5
589
100
AcDbEntity
  8
TOPLAYER
100
AcDbLine
 10
0.455
 20
0.145103
 30
0.0
 11
0.455
 21
0.15
 31
0.0
  0
LINE
  5
58A
100
AcDbEntity
  8
TOPLAYER
100
AcDbLine
 10
0.455
 20
0.15
 30
0.0
 11
0.455
 21
0.11
 31
0.0
  0
LINE
  5
58B
100
AcDbEntity
  8
TOPLAYER
100
AcDbLine
 10
0.455
 20
0.11
 30
0.0
 11
0.649999
 21
0.11
 31
0.0
  0
LINE
  5
58C
100
AcDbEntity
  8
TOPLAYER
100
AcDbLine
 10
0.649999
 20
0.11
 30
0.0
 11
0.649999
 21
-0.11
 31
0.0
  0
LINE
  5
58D
100
AcDbEntity
  8
TOPLAYER
100
AcDbLine
 10
0.649999
 20
-0.11
 30
0.0
 11
0.455
 21
-0.11
 31
0.0
  0
LINE
  5
58E
100
AcDbEntity
  8
TOPLAYER
100
AcDbLine
 10
0.455
 20
-0.11
 30
0.0
 11
0.455
 21
-0.145103
 31
0.0
  0
LINE
  5
58F
100
AcDbEntity
  8
TOPLAYER
100
AcDbLine
 10
0.455
 20
-0.145103
 30
0.0
 11
0.357459
 21
-0.164506
 31
0.0
  0
LINE
  5
590
100
AcDbEntity
  8
TOPLAYER
100
AcDbLine
 10
0.357459
 20
-0.164506
 30
0.0
 11
0.274764
 21
-0.219761
 31
0.0
  0
LINE
  5
591
100
AcDbEntity
  8
TOPLAYER
100
AcDbLine
 10
0.274764
 20
-0.219761
 30
0.0
 11
0.219509
 21
-0.302456
 31
0.0
  0
LINE
  5
592
100
AcDbEntity
  8
TOPLAYER
100
AcDbLine
 10
0.219509
 20
-0.302456
 30
0.0
 11
0.200106
 21
-0.400002
 31
0.0
  0
LINE
  5
593
100
AcDbEntity
  8
TOPLAYER
100
AcDbLine
 10
0.200106
 20
-0.400002
 30
0.0
 11
0.205003
 21
-0.400002
 31
0.0
  0
LINE
  5
594
100
AcDbEntity
  8
TOPLAYER
100
AcDbLine
 10
0.205003
 20
-0.400002
 30
0.0
 11
-0.200099
 21
-0.400002
 31
0.0
  0
LINE
  5
595
100
AcDbEntity
  8
TOPLAYER
100
AcDbLine
 10
-0.200099
 20
-0.400002
 30
0.0
 11
-0.219502
 21
-0.302461
 31
0.0
  0
LINE
  5
596
100
AcDbEntity
  8
TOPLAYER
100
AcDbLine
 10
-0.219502
 20
-0.302461
 30
0.0
 11
-0.274757
 21
-0.219766
 31
0.0
  0
LINE
  5
597
100
AcDbEntity
  8
TOPLAYER
100
AcDbLine
 10
-0.274757
 20
-0.219766
 30
0.0
 11
-0.357452
 21
-0.164511
 31
0.0
  0
LINE
  5
598
100
AcDbEntity
  8
TOPLAYER
100
AcDbLine
 10
-0.357452
 20
-0.164511
 30
0.0
 11
-0.454998
 21
-0.145108
 31
0.0
  0
LINE
  5
599
100
AcDbEntity
  8
TOPLAYER
100
AcDbLine
 10
-0.454998
 20
-0.145108
 30
0.0
 11
-0.454998
 21
-0.150005
 31
0.0
  0
LINE
  5
59A
100
AcDbEntity
  8
TOPLAYER
100
AcDbLine
 10
-0.454998
 20
-0.150005
 30
0.0
 11
-0.454998
 21
-0.110005
 31
0.0
  0
LINE
  5
59B
100
AcDbEntity
  8
TOPLAYER
100
AcDbLine
 10
-0.454998
 20
-0.110005
 30
0.0
 11
-0.850001
 21
-0.110005
 31
0.0
  0
LINE
  5
59C
100
AcDbEntity
  8
TOPLAYER
100
AcDbLine
 10
-0.850001
 20
-0.110005
 30
0.0
 11
-0.850001
 21
0.109997
 31
0.0
  0
LINE
  5
59D
100
AcDbEntity
  8
TOPLAYER
100
AcDbLine
 10
-0.850001
 20
0.109997
 30
0.0
 11
-0.454998
 21
0.109997
 31
0.0
  0
ENDBLK
  5
59E
100
AcDbEntity
  8
0
100
AcDbBlockEnd
  0
ENDSEC
  0
SECTION
  2
ENTITIES
  0
POLYLINE
  5
2C
100
AcDbEntity
  8
KEEPOUTLAYER
100
AcDb2dPolyline
 66
     1
 10
0.0
 20
0.0
 30
0.0
 40
0.127
 41
0.127
 75
     8
  0
VERTEX
  5
2D
100
AcDbEntity
  8
KEEPOUTLAYER
100
AcDbVertex
100
AcDb2dVertex
 10
77.254412
 20
191.360189
 30
0.0
  0
VERTEX
  5
2E
100
AcDbEntity
  8
KEEPOUTLAYER
100
AcDbVertex
100
AcDb2dVertex
 10
77.254412
 20
191.610188
 30
0.0
  0
SEQEND
  5
2F
100
AcDbEntity
  8
0
  0
POLYLINE
  5
30
100
AcDbEntity
  8
KEEPOUTLAYER
100
AcDb2dPolyline
 66
     1
 10
0.0
 20
0.0
 30
0.0
 70
     1
 40
0.0635
 41
0.0635
 75
     8
  0
VERTEX
  5
31
100
AcDbEntity
  8
KEEPOUTLAYER
100
AcDbVertex
100
AcDb2dVertex
 10
77.222662
 20
191.360189
 30
0.0
 42
1.0
  0
VERTEX
  5
32
100
AcDbEntity
  8
KEEPOUTLAYER
100
AcDbVertex
100
AcDb2dVertex
 10
77.286162
 20
191.360189
 30
0.0
 42
1.0
  0
SEQEND
  5
33
100
AcDbEntity
  8
0
  0
POLYLINE
  5
34
100
AcDbEntity
  8
KEEPOUTLAYER
100
AcDb2dPolyline
 66
     1
 10
0.0
 20
0.0
 30
0.0
 70
     1
 40
0.0635
 41
0.0635
 75
     8
  0
VERTEX
  5
35
100
AcDbEntity
  8
KEEPOUTLAYER
100
AcDbVertex
100
AcDb2dVertex
 10
77.222662
 20
191.610188
 30
0.0
 42
1.0
  0
VERTEX
  5
36
100
AcDbEntity
  8
KEEPOUTLAYER
100
AcDbVertex
100
AcDb2dVertex
 10
77.286162
 20
191.610188
 30
0.0
 42
1.0
  0
SEQEND
  5
37
100
AcDbEntity
  8
0
  0
POLYLINE
  5
38
100
AcDbEntity
  8
KEEPOUTLAYER
100
AcDb2dPolyline
 66
     1
 10
0.0
 20
0.0
 30
0.0
 40
0.127
 41
0.127
 75
     8
  0
VERTEX
  5
39
100
AcDbEntity
  8
KEEPOUTLAYER
100
AcDbVertex
100
AcDb2dVertex
 10
77.254412
 20
195.110191
 30
0.0
  0
VERTEX
  5
3A
100
AcDbEntity
  8
KEEPOUTLAYER
100
AcDbVertex
100
AcDb2dVertex
 10
77.254412
 20
195.360191
 30
0.0
  0
SEQEND
  5
3B
100
AcDbEntity
  8
0
  0
POLYLINE
  5
3C
100
AcDbEntity
  8
KEEPOUTLAYER
100
AcDb2dPolyline
 66
     1
 10
0.0
 20
0.0
 30
0.0
 70
     1
 40
0.0635
 41
0.0635
 75
     8
  0
VERTEX
  5
3D
100
AcDbEntity
  8
KEEPOUTLAYER
100
AcDbVertex
100
AcDb2dVertex
 10
77.222662
 20
195.110191
 30
0.0
 42
1.0
  0
VERTEX
  5
3E
100
AcDbEntity
  8
KEEPOUTLAYER
100
AcDbVertex
100
AcDb2dVertex
 10
77.286162
 20
195.110191
 30
0.0
 42
1.0
  0
SEQEND
  5
3F
100
AcDbEntity
  8
0
  0
POLYLINE
  5
40
100
AcDbEntity
  8
KEEPOUTLAYER
100
AcDb2dPolyline
 66
     1
 10
0.0
 20
0.0
 30
0.0
 70
     1
 40
0.0635
 41
0.0635
 75
     8
  0
VERTEX
  5
41
100
AcDbEntity
  8
KEEPOUTLAYER
100
AcDbVertex
100
AcDb2dVertex
 10
77.222662
 20
195.360191
 30
0.0
 42
1.0
  0
VERTEX
  5
42
100
AcDbEntity
  8
KEEPOUTLAYER
100
AcDbVertex
100
AcDb2dVertex
 10
77.286162
 20
195.360191
 30
0.0
 42
1.0
  0
SEQEND
  5
43
100
AcDbEntity
  8
0
  0
POLYLINE
  5
44
100
AcDbEntity
  8
KEEPOUTLAYER
100
AcDb2dPolyline
 66
     1
 10
0.0
 20
0.0
 30
0.0
 40
0.127
 41
0.127
 75
     8
  0
VERTEX
  5
45
100
AcDbEntity
  8
KEEPOUTLAYER
100
AcDbVertex
100
AcDb2dVertex
 10
77.504412
 20
195.61019
 30
0.0
  0
VERTEX
  5
46
100
AcDbEntity
  8
KEEPOUTLAYER
100
AcDbVertex
100
AcDb2dVertex
 10
84.361541
 20
195.61019
 30
0.0
  0
SEQEND
  5
47
100
AcDbEntity
  8
0
  0
POLYLINE
  5
48
100
AcDbEntity
  8
KEEPOUTLAYER
100
AcDb2dPolyline
 66
     1
 10
0.0
 20
0.0
 30
0.0
 70
     1
 40
0.0635
 41
0.0635
 75
     8
  0
VERTEX
  5
49
100
AcDbEntity
  8
KEEPOUTLAYER
100
AcDbVertex
100
AcDb2dVertex
 10
77.472662
 20
195.61019
 30
0.0
 42
1.0
  0
VERTEX
  5
4A
100
AcDbEntity
  8
KEEPOUTLAYER
100
AcDbVertex
100
AcDb2dVertex
 10
77.536162
 20
195.61019
 30
0.0
 42
1.0
  0
SEQEND
  5
4B
100
AcDbEntity
  8
0
  0
POLYLINE
  5
4C
100
AcDbEntity
  8
KEEPOUTLAYER
100
AcDb2dPolyline
 66
     1
 10
0.0
 20
0.0
 30
0.0
 70
     1
 40
0.0635
 41
0.0635
 75
     8
  0
VERTEX
  5
4D
100
AcDbEntity
  8
KEEPOUTLAYER
100
AcDbVertex
100
AcDb2dVertex
 10
84.329791
 20
195.61019
 30
0.0
 42
1.0
  0
VERTEX
  5
4E
100
AcDbEntity
  8
KEEPOUTLAYER
100
AcDbVertex
100
AcDb2dVertex
 10
84.393291
 20
195.61019
 30
0.0
 42
1.0
  0
SEQEND
  5
4F
100
AcDbEntity
  8
0
  0
POLYLINE
  5
50
100
AcDbEntity
  8
KEEPOUTLAYER
100
AcDb2dPolyline
 66
     1
 10
0.0
 20
0.0
 30
0.0
 40
0.127
 41
0.127
 75
     8
  0
VERTEX
  5
51
100
AcDbEntity
  8
KEEPOUTLAYER
100
AcDbVertex
100
AcDb2dVertex
 10
77.504412
 20
191.110189
 30
0.0
  0
VERTEX
  5
52
100
AcDbEntity
  8
KEEPOUTLAYER
100
AcDbVertex
100
AcDb2dVertex
 10
84.361541
 20
191.110189
 30
0.0
  0
SEQEND
  5
53
100
AcDbEntity
  8
0
  0
POLYLINE
  5
54
100
AcDbEntity
  8
KEEPOUTLAYER
100
AcDb2dPolyline
 66
     1
 10
0.0
 20
0.0
 30
0.0
 70
     1
 40
0.0635
 41
0.0635
 75
     8
  0
VERTEX
  5
55
100
AcDbEntity
  8
KEEPOUTLAYER
100
AcDbVertex
100
AcDb2dVertex
 10
77.472662
 20
191.110189
 30
0.0
 42
1.0
  0
VERTEX
  5
56
100
AcDbEntity
  8
KEEPOUTLAYER
100
AcDbVertex
100
AcDb2dVertex
 10
77.536162
 20
191.110189
 30
0.0
 42
1.0
  0
SEQEND
  5
57
100
AcDbEntity
  8
0
  0
POLYLINE
  5
58
100
AcDbEntity
  8
KEEPOUTLAYER
100
AcDb2dPolyline
 66
     1
 10
0.0
 20
0.0
 30
0.0
 70
     1
 40
0.0635
 41
0.0635
 75
     8
  0
VERTEX
  5
59
100
AcDbEntity
  8
KEEPOUTLAYER
100
AcDbVertex
100
AcDb2dVertex
 10
84.329791
 20
191.110189
 30
0.0
 42
1.0
  0
VERTEX
  5
5A
100
AcDbEntity
  8
KEEPOUTLAYER
100
AcDbVertex
100
AcDb2dVertex
 10
84.393291
 20
191.110189
 30
0.0
 42
1.0
  0
SEQEND
  5
5B
100
AcDbEntity
  8
0
  0
POLYLINE
  5
5C
100
AcDbEntity
  8
KEEPOUTLAYER
100
AcDb2dPolyline
 66
     1
 10
0.0
 20
0.0
 30
0.0
 40
0.127
 41
0.127
 75
     8
  0
VERTEX
  5
5D
100
AcDbEntity
  8
KEEPOUTLAYER
100
AcDbVertex
100
AcDb2dVertex
 10
84.861413
 20
191.610191
 30
0.0
  0
VERTEX
  5
5E
100
AcDbEntity
  8
KEEPOUTLAYER
100
AcDbVertex
100
AcDb2dVertex
 10
84.861413
 20
195.110189
 30
0.0
  0
SEQEND
  5
5F
100
AcDbEntity
  8
0
  0
POLYLINE
  5
60
100
AcDbEntity
  8
KEEPOUTLAYER
100
AcDb2dPolyline
 66
     1
 10
0.0
 20
0.0
 30
0.0
 70
     1
 40
0.0635
 41
0.0635
 75
     8
  0
VERTEX
  5
61
100
AcDbEntity
  8
KEEPOUTLAYER
100
AcDbVertex
100
AcDb2dVertex
 10
84.829663
 20
191.610191
 30
0.0
 42
1.0
  0
VERTEX
  5
62
100
AcDbEntity
  8
KEEPOUTLAYER
100
AcDbVertex
100
AcDb2dVertex
 10
84.893163
 20
191.610191
 30
0.0
 42
1.0
  0
SEQEND
  5
63
100
AcDbEntity
  8
0
  0
POLYLINE
  5
64
100
AcDbEntity
  8
KEEPOUTLAYER
100
AcDb2dPolyline
 66
     1
 10
0.0
 20
0.0
 30
0.0
 70
     1
 40
0.0635
 41
0.0635
 75
     8
  0
VERTEX
  5
65
100
AcDbEntity
  8
KEEPOUTLAYER
100
AcDbVertex
100
AcDb2dVertex
 10
84.829663
 20
195.110189
 30
0.0
 42
1.0
  0
VERTEX
  5
66
100
AcDbEntity
  8
KEEPOUTLAYER
100
AcDbVertex
100
AcDb2dVertex
 10
84.893163
 20
195.110189
 30
0.0
 42
1.0
  0
SEQEND
  5
67
100
AcDbEntity
  8
0
  0
POLYLINE
  5
68
100
AcDbEntity
  8
KEEPOUTLAYER
100
AcDb2dPolyline
 66
     1
 10
0.0
 20
0.0
 30
0.0
 40
0.127
 41
0.127
 75
     8
  0
VERTEX
  5
69
100
AcDbEntity
  8
KEEPOUTLAYER
100
AcDbVertex
100
AcDb2dVertex
 10
70.247312
 20
194.860189
 30
0.0
  0
VERTEX
  5
6A
100
AcDbEntity
  8
KEEPOUTLAYER
100
AcDbVertex
100
AcDb2dVertex
 10
77.004413
 20
194.860189
 30
0.0
  0
SEQEND
  5
6B
100
AcDbEntity
  8
0
  0
POLYLINE
  5
6C
100
AcDbEntity
  8
KEEPOUTLAYER
100
AcDb2dPolyline
 66
     1
 10
0.0
 20
0.0
 30
0.0
 70
     1
 40
0.0635
 41
0.0635
 75
     8
  0
VERTEX
  5
6D
100
AcDbEntity
  8
KEEPOUTLAYER
100
AcDbVertex
100
AcDb2dVertex
 10
70.215562
 20
194.860189
 30
0.0
 42
1.0
  0
VERTEX
  5
6E
100
AcDbEntity
  8
KEEPOUTLAYER
100
AcDbVertex
100
AcDb2dVertex
 10
70.279062
 20
194.860189
 30
0.0
 42
1.0
  0
SEQEND
  5
6F
100
AcDbEntity
  8
0
  0
POLYLINE
  5
70
100
AcDbEntity
  8
KEEPOUTLAYER
100
AcDb2dPolyline
 66
     1
 10
0.0
 20
0.0
 30
0.0
 70
     1
 40
0.0635
 41
0.0635
 75
     8
  0
VERTEX
  5
71
100
AcDbEntity
  8
KEEPOUTLAYER
100
AcDbVertex
100
AcDb2dVertex
 10
76.972663
 20
194.860189
 30
0.0
 42
1.0
  0
VERTEX
  5
72
100
AcDbEntity
  8
KEEPOUTLAYER
100
AcDbVertex
100
AcDb2dVertex
 10
77.036163
 20
194.860189
 30
0.0
 42
1.0
  0
SEQEND
  5
73
100
AcDbEntity
  8
0
  0
POLYLINE
  5
74
100
AcDbEntity
  8
KEEPOUTLAYER
100
AcDb2dPolyline
 66
     1
 10
0.0
 20
0.0
 30
0.0
 40
0.127
 41
0.127
 75
     8
  0
VERTEX
  5
75
100
AcDbEntity
  8
KEEPOUTLAYER
100
AcDbVertex
100
AcDb2dVertex
 10
69.947312
 20
192.160192
 30
0.0
  0
VERTEX
  5
76
100
AcDbEntity
  8
KEEPOUTLAYER
100
AcDbVertex
100
AcDb2dVertex
 10
69.947312
 20
194.560193
 30
0.0
  0
SEQEND
  5
77
100
AcDbEntity
  8
0
  0
POLYLINE
  5
78
100
AcDbEntity
  8
KEEPOUTLAYER
100
AcDb2dPolyline
 66
     1
 10
0.0
 20
0.0
 30
0.0
 70
     1
 40
0.0635
 41
0.0635
 75
     8
  0
VERTEX
  5
79
100
AcDbEntity
  8
KEEPOUTLAYER
100
AcDbVertex
100
AcDb2dVertex
 10
69.915562
 20
192.160192
 30
0.0
 42
1.0
  0
VERTEX
  5
7A
100
AcDbEntity
  8
KEEPOUTLAYER
100
AcDbVertex
100
AcDb2dVertex
 10
69.979062
 20
192.160192
 30
0.0
 42
1.0
  0
SEQEND
  5
7B
100
AcDbEntity
  8
0
  0
POLYLINE
  5
7C
100
AcDbEntity
  8
KEEPOUTLAYER
100
AcDb2dPolyline
 66
     1
 10
0.0
 20
0.0
 30
0.0
 70
     1
 40
0.0635
 41
0.0635
 75
     8
  0
VERTEX
  5
7D
100
AcDbEntity
  8
KEEPOUTLAYER
100
AcDbVertex
100
AcDb2dVertex
 10
69.915562
 20
194.560193
 30
0.0
 42
1.0
  0
VERTEX
  5
7E
100
AcDbEntity
  8
KEEPOUTLAYER
100
AcDbVertex
100
AcDb2dVertex
 10
69.979062
 20
194.560193
 30
0.0
 42
1.0
  0
SEQEND
  5
7F
100
AcDbEntity
  8
0
  0
POLYLINE
  5
80
100
AcDbEntity
  8
KEEPOUTLAYER
100
AcDb2dPolyline
 66
     1
 10
0.0
 20
0.0
 30
0.0
 40
0.127
 41
0.127
 75
     8
  0
VERTEX
  5
81
100
AcDbEntity
  8
KEEPOUTLAYER
100
AcDbVertex
100
AcDb2dVertex
 10
70.247312
 20
191.86019
 30
0.0
  0
VERTEX
  5
82
100
AcDbEntity
  8
KEEPOUTLAYER
100
AcDbVertex
100
AcDb2dVertex
 10
77.004413
 20
191.86019
 30
0.0
  0
SEQEND
  5
83
100
AcDbEntity
  8
0
  0
POLYLINE
  5
84
100
AcDbEntity
  8
KEEPOUTLAYER
100
AcDb2dPolyline
 66
     1
 10
0.0
 20
0.0
 30
0.0
 70
     1
 40
0.0635
 41
0.0635
 75
     8
  0
VERTEX
  5
85
100
AcDbEntity
  8
KEEPOUTLAYER
100
AcDbVertex
100
AcDb2dVertex
 10
70.215562
 20
191.86019
 30
0.0
 42
1.0
  0
VERTEX
  5
86
100
AcDbEntity
  8
KEEPOUTLAYER
100
AcDbVertex
100
AcDb2dVertex
 10
70.279062
 20
191.86019
 30
0.0
 42
1.0
  0
SEQEND
  5
87
100
AcDbEntity
  8
0
  0
POLYLINE
  5
88
100
AcDbEntity
  8
KEEPOUTLAYER
100
AcDb2dPolyline
 66
     1
 10
0.0
 20
0.0
 30
0.0
 70
     1
 40
0.0635
 41
0.0635
 75
     8
  0
VERTEX
  5
89
100
AcDbEntity
  8
KEEPOUTLAYER
100
AcDbVertex
100
AcDb2dVertex
 10
76.972663
 20
191.86019
 30
0.0
 42
1.0
  0
VERTEX
  5
8A
100
AcDbEntity
  8
KEEPOUTLAYER
100
AcDbVertex
100
AcDb2dVertex
 10
77.036163
 20
191.86019
 30
0.0
 42
1.0
  0
SEQEND
  5
8B
100
AcDbEntity
  8
0
  0
POLYLINE
  5
8C
100
AcDbEntity
  8
TOPOVERLAY
100
AcDb2dPolyline
 66
     1
 10
0.0
 20
0.0
 30
0.0
 40
0.127
 41
0.127
 75
     8
  0
VERTEX
  5
8D
100
AcDbEntity
  8
TOPOVERLAY
100
AcDbVertex
100
AcDb2dVertex
 10
77.047314
 20
191.860193
 30
0.0
  0
VERTEX
  5
8E
100
AcDbEntity
  8
TOPOVERLAY
100
AcDbVertex
100
AcDb2dVertex
 10
77.047314
 20
194.860192
 30
0.0
  0
SEQEND
  5
8F
100
AcDbEntity
  8
0
  0
POLYLINE
  5
90
100
AcDbEntity
  8
TOPOVERLAY
100
AcDb2dPolyline
 66
     1
 10
0.0
 20
0.0
 30
0.0
 70
     1
 40
0.0635
 41
0.0635
 75
     8
  0
VERTEX
  5
91
100
AcDbEntity
  8
TOPOVERLAY
100
AcDbVertex
100
AcDb2dVertex
 10
77.015564
 20
191.860193
 30
0.0
 42
1.0
  0
VERTEX
  5
92
100
AcDbEntity
  8
TOPOVERLAY
100
AcDbVertex
100
AcDb2dVertex
 10
77.079064
 20
191.860193
 30
0.0
 42
1.0
  0
SEQEND
  5
93
100
AcDbEntity
  8
0
  0
POLYLINE
  5
94
100
AcDbEntity
  8
TOPOVERLAY
100
AcDb2dPolyline
 66
     1
 10
0.0
 20
0.0
 30
0.0
 70
     1
 40
0.0635
 41
0.0635
 75
     8
  0
VERTEX
  5
95
100
AcDbEntity
  8
TOPOVERLAY
100
AcDbVertex
100
AcDb2dVertex
 10
77.015564
 20
194.860192
 30
0.0
 42
1.0
  0
VERTEX
  5
96
100
AcDbEntity
  8
TOPOVERLAY
100
AcDbVertex
100
AcDb2dVertex
 10
77.079064
 20
194.860192
 30
0.0
 42
1.0
  0
SEQEND
  5
97
100
AcDbEntity
  8
0
  0
POLYLINE
  5
98
100
AcDbEntity
  8
TOPOVERLAY
100
AcDb2dPolyline
 66
     1
 10
0.0
 20
0.0
 30
0.0
 40
0.127
 41
0.127
 75
     8
  0
VERTEX
  5
99
100
AcDbEntity
  8
TOPOVERLAY
100
AcDbVertex
100
AcDb2dVertex
 10
77.254329
 20
194.97519
 30
0.0
  0
VERTEX
  5
9A
100
AcDbEntity
  8
TOPOVERLAY
100
AcDbVertex
100
AcDb2dVertex
 10
77.254412
 20
191.860193
 30
0.0
  0
SEQEND
  5
9B
100
AcDbEntity
  8
0
  0
POLYLINE
  5
9C
100
AcDbEntity
  8
TOPOVERLAY
100
AcDb2dPolyline
 66
     1
 10
0.0
 20
0.0
 30
0.0
 70
     1
 40
0.0635
 41
0.0635
 75
     8
  0
VERTEX
  5
9D
100
AcDbEntity
  8
TOPOVERLAY
100
AcDbVertex
100
AcDb2dVertex
 10
77.222579
 20
194.97519
 30
0.0
 42
1.0
  0
VERTEX
  5
9E
100
AcDbEntity
  8
TOPOVERLAY
100
AcDbVertex
100
AcDb2dVertex
 10
77.286079
 20
194.97519
 30
0.0
 42
1.0
  0
SEQEND
  5
9F
100
AcDbEntity
  8
0
  0
POLYLINE
  5
A0
100
AcDbEntity
  8
TOPOVERLAY
100
AcDb2dPolyline
 66
     1
 10
0.0
 20
0.0
 30
0.0
 70
     1
 40
0.0635
 41
0.0635
 75
     8
  0
VERTEX
  5
A1
100
AcDbEntity
  8
TOPOVERLAY
100
AcDbVertex
100
AcDb2dVertex
 10
77.222662
 20
191.860193
 30
0.0
 42
1.0
  0
VERTEX
  5
A2
100
AcDbEntity
  8
TOPOVERLAY
100
AcDbVertex
100
AcDb2dVertex
 10
77.286162
 20
191.860193
 30
0.0
 42
1.0
  0
SEQEND
  5
A3
100
AcDbEntity
  8
0
  0
POLYLINE
  5
A4
100
AcDbEntity
  8
TOPOVERLAY
100
AcDb2dPolyline
 66
     1
 10
0.0
 20
0.0
 30
0.0
 40
0.127
 41
0.127
 75
     8
  0
VERTEX
  5
A5
100
AcDbEntity
  8
TOPOVERLAY
100
AcDbVertex
100
AcDb2dVertex
 10
81.861411
 20
191.224995
 30
0.0
  0
VERTEX
  5
A6
100
AcDbEntity
  8
TOPOVERLAY
100
AcDbVertex
100
AcDb2dVertex
 10
81.861411
 20
195.524999
 30
0.0
  0
SEQEND
  5
A7
100
AcDbEntity
  8
0
  0
POLYLINE
  5
A8
100
AcDbEntity
  8
TOPOVERLAY
100
AcDb2dPolyline
 66
     1
 10
0.0
 20
0.0
 30
0.0
 70
     1
 40
0.0635
 41
0.0635
 75
     8
  0
VERTEX
  5
A9
100
AcDbEntity
  8
TOPOVERLAY
100
AcDbVertex
100
AcDb2dVertex
 10
81.829661
 20
191.224995
 30
0.0
 42
1.0
  0
VERTEX
  5
AA
100
AcDbEntity
  8
TOPOVERLAY
100
AcDbVertex
100
AcDb2dVertex
 10
81.893161
 20
191.224995
 30
0.0
 42
1.0
  0
SEQEND
  5
AB
100
AcDbEntity
  8
0
  0
POLYLINE
  5
AC
100
AcDbEntity
  8
TOPOVERLAY
100
AcDb2dPolyline
 66
     1
 10
0.0
 20
0.0
 30
0.0
 70
     1
 40
0.0635
 41
0.0635
 75
     8
  0
VERTEX
  5
AD
100
AcDbEntity
  8
TOPOVERLAY
100
AcDbVertex
100
AcDb2dVertex
 10
81.829661
 20
195.524999
 30
0.0
 42
1.0
  0
VERTEX
  5
AE
100
AcDbEntity
  8
TOPOVERLAY
100
AcDbVertex
100
AcDb2dVertex
 10
81.893161
 20
195.524999
 30
0.0
 42
1.0
  0
SEQEND
  5
AF
100
AcDbEntity
  8
0
  0
POLYLINE
  5
B0
100
AcDbEntity
  8
TOPOVERLAY
100
AcDb2dPolyline
 66
     1
 10
0.0
 20
0.0
 30
0.0
 40
0.127
 41
0.127
 75
     8
  0
VERTEX
  5
B1
100
AcDbEntity
  8
TOPOVERLAY
100
AcDbVertex
100
AcDb2dVertex
 10
81.06141
 20
191.224995
 30
0.0
  0
VERTEX
  5
B2
100
AcDbEntity
  8
TOPOVERLAY
100
AcDbVertex
100
AcDb2dVertex
 10
81.06141
 20
195.524999
 30
0.0
  0
SEQEND
  5
B3
100
AcDbEntity
  8
0
  0
POLYLINE
  5
B4
100
AcDbEntity
  8
TOPOVERLAY
100
AcDb2dPolyline
 66
     1
 10
0.0
 20
0.0
 30
0.0
 70
     1
 40
0.0635
 41
0.0635
 75
     8
  0
VERTEX
  5
B5
100
AcDbEntity
  8
TOPOVERLAY
100
AcDbVertex
100
AcDb2dVertex
 10
81.02966
 20
191.224995
 30
0.0
 42
1.0
  0
VERTEX
  5
B6
100
AcDbEntity
  8
TOPOVERLAY
100
AcDbVertex
100
AcDb2dVertex
 10
81.09316
 20
191.224995
 30
0.0
 42
1.0
  0
SEQEND
  5
B7
100
AcDbEntity
  8
0
  0
POLYLINE
  5
B8
100
AcDbEntity
  8
TOPOVERLAY
100
AcDb2dPolyline
 66
     1
 10
0.0
 20
0.0
 30
0.0
 70
     1
 40
0.0635
 41
0.0635
 75
     8
  0
VERTEX
  5
B9
100
AcDbEntity
  8
TOPOVERLAY
100
AcDbVertex
100
AcDb2dVertex
 10
81.02966
 20
195.524999
 30
0.0
 42
1.0
  0
VERTEX
  5
BA
100
AcDbEntity
  8
TOPOVERLAY
100
AcDbVertex
100
AcDb2dVertex
 10
81.09316
 20
195.524999
 30
0.0
 42
1.0
  0
SEQEND
  5
BB
100
AcDbEntity
  8
0
  0
POLYLINE
  5
BC
100
AcDbEntity
  8
TOPOVERLAY
100
AcDb2dPolyline
 66
     1
 10
0.0
 20
0.0
 30
0.0
 40
0.127
 41
0.127
 75
     8
  0
VERTEX
  5
BD
100
AcDbEntity
  8
TOPOVERLAY
100
AcDbVertex
100
AcDb2dVertex
 10
80.854332
 20
191.224995
 30
0.0
  0
VERTEX
  5
BE
100
AcDbEntity
  8
TOPOVERLAY
100
AcDbVertex
100
AcDb2dVertex
 10
80.854332
 20
195.524999
 30
0.0
  0
SEQEND
  5
BF
100
AcDbEntity
  8
0
  0
POLYLINE
  5
C0
100
AcDbEntity
  8
TOPOVERLAY
100
AcDb2dPolyline
 66
     1
 10
0.0
 20
0.0
 30
0.0
 70
     1
 40
0.0635
 41
0.0635
 75
     8
  0
VERTEX
  5
C1
100
AcDbEntity
  8
TOPOVERLAY
100
AcDbVertex
100
AcDb2dVertex
 10
80.822582
 20
191.224995
 30
0.0
 42
1.0
  0
VERTEX
  5
C2
100
AcDbEntity
  8
TOPOVERLAY
100
AcDbVertex
100
AcDb2dVertex
 10
80.886082
 20
191.224995
 30
0.0
 42
1.0
  0
SEQEND
  5
C3
100
AcDbEntity
  8
0
  0
POLYLINE
  5
C4
100
AcDbEntity
  8
TOPOVERLAY
100
AcDb2dPolyline
 66
     1
 10
0.0
 20
0.0
 30
0.0
 70
     1
 40
0.0635
 41
0.0635
 75
     8
  0
VERTEX
  5
C5
100
AcDbEntity
  8
TOPOVERLAY
100
AcDbVertex
100
AcDb2dVertex
 10
80.822582
 20
195.524999
 30
0.0
 42
1.0
  0
VERTEX
  5
C6
100
AcDbEntity
  8
TOPOVERLAY
100
AcDbVertex
100
AcDb2dVertex
 10
80.886082
 20
195.524999
 30
0.0
 42
1.0
  0
SEQEND
  5
C7
100
AcDbEntity
  8
0
  0
POLYLINE
  5
C8
100
AcDbEntity
  8
TOPOVERLAY
100
AcDb2dPolyline
 66
     1
 10
0.0
 20
0.0
 30
0.0
 40
0.127
 41
0.127
 75
     8
  0
VERTEX
  5
C9
100
AcDbEntity
  8
TOPOVERLAY
100
AcDbVertex
100
AcDb2dVertex
 10
71.347312
 20
191.860193
 30
0.0
  0
VERTEX
  5
CA
100
AcDbEntity
  8
TOPOVERLAY
100
AcDbVertex
100
AcDb2dVertex
 10
71.347312
 20
194.860192
 30
0.0
  0
SEQEND
  5
CB
100
AcDbEntity
  8
0
  0
POLYLINE
  5
CC
100
AcDbEntity
  8
TOPOVERLAY
100
AcDb2dPolyline
 66
     1
 10
0.0
 20
0.0
 30
0.0
 70
     1
 40
0.0635
 41
0.0635
 75
     8
  0
VERTEX
  5
CD
100
AcDbEntity
  8
TOPOVERLAY
100
AcDbVertex
100
AcDb2dVertex
 10
71.315562
 20
191.860193
 30
0.0
 42
1.0
  0
VERTEX
  5
CE
100
AcDbEntity
  8
TOPOVERLAY
100
AcDbVertex
100
AcDb2dVertex
 10
71.379062
 20
191.860193
 30
0.0
 42
1.0
  0
SEQEND
  5
CF
100
AcDbEntity
  8
0
  0
POLYLINE
  5
D0
100
AcDbEntity
  8
TOPOVERLAY
100
AcDb2dPolyline
 66
     1
 10
0.0
 20
0.0
 30
0.0
 70
     1
 40
0.0635
 41
0.0635
 75
     8
  0
VERTEX
  5
D1
100
AcDbEntity
  8
TOPOVERLAY
100
AcDbVertex
100
AcDb2dVertex
 10
71.315562
 20
194.860192
 30
0.0
 42
1.0
  0
VERTEX
  5
D2
100
AcDbEntity
  8
TOPOVERLAY
100
AcDbVertex
100
AcDb2dVertex
 10
71.379062
 20
194.860192
 30
0.0
 42
1.0
  0
SEQEND
  5
D3
100
AcDbEntity
  8
0
  0
POLYLINE
  5
D4
100
AcDbEntity
  8
TOPOVERLAY
100
AcDb2dPolyline
 66
     1
 10
0.0
 20
0.0
 30
0.0
 40
0.127
 41
0.127
 75
     8
  0
VERTEX
  5
D5
100
AcDbEntity
  8
TOPOVERLAY
100
AcDbVertex
100
AcDb2dVertex
 10
72.947312
 20
191.860193
 30
0.0
  0
VERTEX
  5
D6
100
AcDbEntity
  8
TOPOVERLAY
100
AcDbVertex
100
AcDb2dVertex
 10
72.947312
 20
194.860192
 30
0.0
  0
SEQEND
  5
D7
100
AcDbEntity
  8
0
  0
POLYLINE
  5
D8
100
AcDbEntity
  8
TOPOVERLAY
100
AcDb2dPolyline
 66
     1
 10
0.0
 20
0.0
 30
0.0
 70
     1
 40
0.0635
 41
0.0635
 75
     8
  0
VERTEX
  5
D9
100
AcDbEntity
  8
TOPOVERLAY
100
AcDbVertex
100
AcDb2dVertex
 10
72.915562
 20
191.860193
 30
0.0
 42
1.0
  0
VERTEX
  5
DA
100
AcDbEntity
  8
TOPOVERLAY
100
AcDbVertex
100
AcDb2dVertex
 10
72.979062
 20
191.860193
 30
0.0
 42
1.0
  0
SEQEND
  5
DB
100
AcDbEntity
  8
0
  0
POLYLINE
  5
DC
100
AcDbEntity
  8
TOPOVERLAY
100
AcDb2dPolyline
 66
     1
 10
0.0
 20
0.0
 30
0.0
 70
     1
 40
0.0635
 41
0.0635
 75
     8
  0
VERTEX
  5
DD
100
AcDbEntity
  8
TOPOVERLAY
100
AcDbVertex
100
AcDb2dVertex
 10
72.915562
 20
194.860192
 30
0.0
 42
1.0
  0
VERTEX
  5
DE
100
AcDbEntity
  8
TOPOVERLAY
100
AcDbVertex
100
AcDb2dVertex
 10
72.979062
 20
194.860192
 30
0.0
 42
1.0
  0
SEQEND
  5
DF
100
AcDbEntity
  8
0
  0
POLYLINE
  5
E0
100
AcDbEntity
  8
BOTTOMLAYER
100
AcDb2dPolyline
 66
     1
 10
0.0
 20
0.0
 30
0.0
 40
0.3556
 41
0.3556
 75
     8
  0
VERTEX
  5
E1
100
AcDbEntity
  8
BOTTOMLAYER
100
AcDbVertex
100
AcDb2dVertex
 10
70.997313
 20
194.360193
 30
0.0
  0
VERTEX
  5
E2
100
AcDbEntity
  8
BOTTOMLAYER
100
AcDbVertex
100
AcDb2dVertex
 10
77.316416
 20
194.360193
 30
0.0
  0
SEQEND
  5
E3
100
AcDbEntity
  8
0
  0
POLYLINE
  5
E4
100
AcDbEntity
  8
BOTTOMLAYER
100
AcDb2dPolyline
 66
     1
 10
0.0
 20
0.0
 30
0.0
 70
     1
 40
0.1778
 41
0.1778
 75
     8
  0
VERTEX
  5
E5
100
AcDbEntity
  8
BOTTOMLAYER
100
AcDbVertex
100
AcDb2dVertex
 10
70.908413
 20
194.360193
 30
0.0
 42
1.0
  0
VERTEX
  5
E6
100
AcDbEntity
  8
BOTTOMLAYER
100
AcDbVertex
100
AcDb2dVertex
 10
71.086213
 20
194.360193
 30
0.0
 42
1.0
  0
SEQEND
  5
E7
100
AcDbEntity
  8
0
  0
POLYLINE
  5
E8
100
AcDbEntity
  8
BOTTOMLAYER
100
AcDb2dPolyline
 66
     1
 10
0.0
 20
0.0
 30
0.0
 70
     1
 40
0.1778
 41
0.1778
 75
     8
  0
VERTEX
  5
E9
100
AcDbEntity
  8
BOTTOMLAYER
100
AcDbVertex
100
AcDb2dVertex
 10
77.227516
 20
194.360193
 30
0.0
 42
1.0
  0
VERTEX
  5
EA
100
AcDbEntity
  8
BOTTOMLAYER
100
AcDbVertex
100
AcDb2dVertex
 10
77.405316
 20
194.360193
 30
0.0
 42
1.0
  0
SEQEND
  5
EB
100
AcDbEntity
  8
0
  0
POLYLINE
  5
EC
100
AcDbEntity
  8
BOTTOMLAYER
100
AcDb2dPolyline
 66
     1
 10
0.0
 20
0.0
 30
0.0
 40
0.3556
 41
0.3556
 75
     8
  0
VERTEX
  5
ED
100
AcDbEntity
  8
BOTTOMLAYER
100
AcDbVertex
100
AcDb2dVertex
 10
77.316416
 20
194.360193
 30
0.0
  0
VERTEX
  5
EE
100
AcDbEntity
  8
BOTTOMLAYER
100
AcDbVertex
100
AcDb2dVertex
 10
78.003413
 20
195.047189
 30
0.0
  0
SEQEND
  5
EF
100
AcDbEntity
  8
0
  0
POLYLINE
  5
F0
100
AcDbEntity
  8
BOTTOMLAYER
100
AcDb2dPolyline
 66
     1
 10
0.0
 20
0.0
 30
0.0
 70
     1
 40
0.1778
 41
0.1778
 75
     8
  0
VERTEX
  5
F1
100
AcDbEntity
  8
BOTTOMLAYER
100
AcDbVertex
100
AcDb2dVertex
 10
77.227516
 20
194.360193
 30
0.0
 42
1.0
  0
VERTEX
  5
F2
100
AcDbEntity
  8
BOTTOMLAYER
100
AcDbVertex
100
AcDb2dVertex
 10
77.405316
 20
194.360193
 30
0.0
 42
1.0
  0
SEQEND
  5
F3
100
AcDbEntity
  8
0
  0
POLYLINE
  5
F4
100
AcDbEntity
  8
BOTTOMLAYER
100
AcDb2dPolyline
 66
     1
 10
0.0
 20
0.0
 30
0.0
 70
     1
 40
0.1778
 41
0.1778
 75
     8
  0
VERTEX
  5
F5
100
AcDbEntity
  8
BOTTOMLAYER
100
AcDbVertex
100
AcDb2dVertex
 10
77.914513
 20
195.047189
 30
0.0
 42
1.0
  0
VERTEX
  5
F6
100
AcDbEntity
  8
BOTTOMLAYER
100
AcDbVertex
100
AcDb2dVertex
 10
78.092313
 20
195.047189
 30
0.0
 42
1.0
  0
SEQEND
  5
F7
100
AcDbEntity
  8
0
  0
POLYLINE
  5
F8
100
AcDbEntity
  8
BOTTOMLAYER
100
AcDb2dPolyline
 66
     1
 10
0.0
 20
0.0
 30
0.0
 40
0.508
 41
0.508
 75
     8
  0
VERTEX
  5
F9
100
AcDbEntity
  8
BOTTOMLAYER
100
AcDbVertex
100
AcDb2dVertex
 10
77.862313
 20
192.275993
 30
0.0
  0
VERTEX
  5
FA
100
AcDbEntity
  8
BOTTOMLAYER
100
AcDbVertex
100
AcDb2dVertex
 10
77.946512
 20
192.275993
 30
0.0
  0
SEQEND
  5
FB
100
AcDbEntity
  8
0
  0
POLYLINE
  5
FC
100
AcDbEntity
  8
BOTTOMLAYER
100
AcDb2dPolyline
 66
     1
 10
0.0
 20
0.0
 30
0.0
 70
     1
 40
0.254
 41
0.254
 75
     8
  0
VERTEX
  5
FD
100
AcDbEntity
  8
BOTTOMLAYER
100
AcDbVertex
100
AcDb2dVertex
 10
77.735313
 20
192.275993
 30
0.0
 42
1.0
  0
VERTEX
  5
FE
100
AcDbEntity
  8
BOTTOMLAYER
100
AcDbVertex
100
AcDb2dVertex
 10
77.989313
 20
192.275993
 30
0.0
 42
1.0
  0
SEQEND
  5
FF
100
AcDbEntity
  8
0
  0
POLYLINE
  5
100
100
AcDbEntity
  8
BOTTOMLAYER
100
AcDb2dPolyline
 66
     1
 10
0.0
 20
0.0
 30
0.0
 70
     1
 40
0.254
 41
0.254
 75
     8
  0
VERTEX
  5
101
100
AcDbEntity
  8
BOTTOMLAYER
100
AcDbVertex
100
AcDb2dVertex
 10
77.819512
 20
192.275993
 30
0.0
 42
1.0
  0
VERTEX
  5
102
100
AcDbEntity
  8
BOTTOMLAYER
100
AcDbVertex
100
AcDb2dVertex
 10
78.073512
 20
192.275993
 30
0.0
 42
1.0
  0
SEQEND
  5
103
100
AcDbEntity
  8
0
  0
POLYLINE
  5
104
100
AcDbEntity
  8
BOTTOMLAYER
100
AcDb2dPolyline
 66
     1
 10
0.0
 20
0.0
 30
0.0
 40
0.508
 41
0.508
 75
     8
  0
VERTEX
  5
105
100
AcDbEntity
  8
BOTTOMLAYER
100
AcDbVertex
100
AcDb2dVertex
 10
77.946512
 20
192.275993
 30
0.0
  0
VERTEX
  5
106
100
AcDbEntity
  8
BOTTOMLAYER
100
AcDbVertex
100
AcDb2dVertex
 10
78.350316
 20
191.872189
 30
0.0
  0
SEQEND
  5
107
100
AcDbEntity
  8
0
  0
POLYLINE
  5
108
100
AcDbEntity
  8
BOTTOMLAYER
100
AcDb2dPolyline
 66
     1
 10
0.0
 20
0.0
 30
0.0
 70
     1
 40
0.254
 41
0.254
 75
     8
  0
VERTEX
  5
109
100
AcDbEntity
  8
BOTTOMLAYER
100
AcDbVertex
100
AcDb2dVertex
 10
77.819512
 20
192.275993
 30
0.0
 42
1.0
  0
VERTEX
  5
10A
100
AcDbEntity
  8
BOTTOMLAYER
100
AcDbVertex
100
AcDb2dVertex
 10
78.073512
 20
192.275993
 30
0.0
 42
1.0
  0
SEQEND
  5
10B
100
AcDbEntity
  8
0
  0
POLYLINE
  5
10C
100
AcDbEntity
  8
BOTTOMLAYER
100
AcDb2dPolyline
 66
     1
 10
0.0
 20
0.0
 30
0.0
 70
     1
 40
0.254
 41
0.254
 75
     8
  0
VERTEX
  5
10D
100
AcDbEntity
  8
BOTTOMLAYER
100
AcDbVertex
100
AcDb2dVertex
 10
78.223316
 20
191.872189
 30
0.0
 42
1.0
  0
VERTEX
  5
10E
100
AcDbEntity
  8
BOTTOMLAYER
100
AcDbVertex
100
AcDb2dVertex
 10
78.477316
 20
191.872189
 30
0.0
 42
1.0
  0
SEQEND
  5
10F
100
AcDbEntity
  8
0
  0
POLYLINE
  5
110
100
AcDbEntity
  8
BOTTOMLAYER
100
AcDb2dPolyline
 66
     1
 10
0.0
 20
0.0
 30
0.0
 40
0.508
 41
0.508
 75
     8
  0
VERTEX
  5
111
100
AcDbEntity
  8
BOTTOMLAYER
100
AcDbVertex
100
AcDb2dVertex
 10
78.350316
 20
191.872189
 30
0.0
  0
VERTEX
  5
112
100
AcDbEntity
  8
BOTTOMLAYER
100
AcDbVertex
100
AcDb2dVertex
 10
80.208539
 20
191.872189
 30
0.0
  0
SEQEND
  5
113
100
AcDbEntity
  8
0
  0
POLYLINE
  5
114
100
AcDbEntity
  8
BOTTOMLAYER
100
AcDb2dPolyline
 66
     1
 10
0.0
 20
0.0
 30
0.0
 70
     1
 40
0.254
 41
0.254
 75
     8
  0
VERTEX
  5
115
100
AcDbEntity
  8
BOTTOMLAYER
100
AcDbVertex
100
AcDb2dVertex
 10
78.223316
 20
191.872189
 30
0.0
 42
1.0
  0
VERTEX
  5
116
100
AcDbEntity
  8
BOTTOMLAYER
100
AcDbVertex
100
AcDb2dVertex
 10
78.477316
 20
191.872189
 30
0.0
 42
1.0
  0
SEQEND
  5
117
100
AcDbEntity
  8
0
  0
POLYLINE
  5
118
100
AcDbEntity
  8
BOTTOMLAYER
100
AcDb2dPolyline
 66
     1
 10
0.0
 20
0.0
 30
0.0
 70
     1
 40
0.254
 41
0.254
 75
     8
  0
VERTEX
  5
119
100
AcDbEntity
  8
BOTTOMLAYER
100
AcDbVertex
100
AcDb2dVertex
 10
80.081539
 20
191.872189
 30
0.0
 42
1.0
  0
VERTEX
  5
11A
100
AcDbEntity
  8
BOTTOMLAYER
100
AcDbVertex
100
AcDb2dVertex
 10
80.335539
 20
191.872189
 30
0.0
 42
1.0
  0
SEQEND
  5
11B
100
AcDbEntity
  8
0
  0
POLYLINE
  5
11C
100
AcDbEntity
  8
BOTTOMLAYER
100
AcDb2dPolyline
 66
     1
 10
0.0
 20
0.0
 30
0.0
 40
0.3556
 41
0.3556
 75
     8
  0
VERTEX
  5
11D
100
AcDbEntity
  8
BOTTOMLAYER
100
AcDbVertex
100
AcDb2dVertex
 10
70.997313
 20
192.360192
 30
0.0
  0
VERTEX
  5
11E
100
AcDbEntity
  8
BOTTOMLAYER
100
AcDbVertex
100
AcDb2dVertex
 10
77.862313
 20
192.360192
 30
0.0
  0
SEQEND
  5
11F
100
AcDbEntity
  8
0
  0
POLYLINE
  5
120
100
AcDbEntity
  8
BOTTOMLAYER
100
AcDb2dPolyline
 66
     1
 10
0.0
 20
0.0
 30
0.0
 70
     1
 40
0.1778
 41
0.1778
 75
     8
  0
VERTEX
  5
121
100
AcDbEntity
  8
BOTTOMLAYER
100
AcDbVertex
100
AcDb2dVertex
 10
70.908413
 20
192.360192
 30
0.0
 42
1.0
  0
VERTEX
  5
122
100
AcDbEntity
  8
BOTTOMLAYER
100
AcDbVertex
100
AcDb2dVertex
 10
71.086213
 20
192.360192
 30
0.0
 42
1.0
  0
SEQEND
  5
123
100
AcDbEntity
  8
0
  0
POLYLINE
  5
124
100
AcDbEntity
  8
BOTTOMLAYER
100
AcDb2dPolyline
 66
     1
 10
0.0
 20
0.0
 30
0.0
 70
     1
 40
0.1778
 41
0.1778
 75
     8
  0
VERTEX
  5
125
100
AcDbEntity
  8
BOTTOMLAYER
100
AcDbVertex
100
AcDb2dVertex
 10
77.773413
 20
192.360192
 30
0.0
 42
1.0
  0
VERTEX
  5
126
100
AcDbEntity
  8
BOTTOMLAYER
100
AcDbVertex
100
AcDb2dVertex
 10
77.951213
 20
192.360192
 30
0.0
 42
1.0
  0
SEQEND
  5
127
100
AcDbEntity
  8
0
  0
POLYLINE
  5
128
100
AcDbEntity
  8
BOTTOMLAYER
100
AcDb2dPolyline
 66
     1
 10
0.0
 20
0.0
 30
0.0
 40
0.254
 41
0.254
 75
     8
  0
VERTEX
  5
129
100
AcDbEntity
  8
BOTTOMLAYER
100
AcDbVertex
100
AcDb2dVertex
 10
81.125535
 20
192.860193
 30
0.0
  0
VERTEX
  5
12A
100
AcDbEntity
  8
BOTTOMLAYER
100
AcDbVertex
100
AcDb2dVertex
 10
81.605539
 20
192.380189
 30
0.0
  0
SEQEND
  5
12B
100
AcDbEntity
  8
0
  0
POLYLINE
  5
12C
100
AcDbEntity
  8
BOTTOMLAYER
100
AcDb2dPolyline
 66
     1
 10
0.0
 20
0.0
 30
0.0
 70
     1
 40
0.127
 41
0.127
 75
     8
  0
VERTEX
  5
12D
100
AcDbEntity
  8
BOTTOMLAYER
100
AcDbVertex
100
AcDb2dVertex
 10
81.062035
 20
192.860193
 30
0.0
 42
1.0
  0
VERTEX
  5
12E
100
AcDbEntity
  8
BOTTOMLAYER
100
AcDbVertex
100
AcDb2dVertex
 10
81.189035
 20
192.860193
 30
0.0
 42
1.0
  0
SEQEND
  5
12F
100
AcDbEntity
  8
0
  0
POLYLINE
  5
130
100
AcDbEntity
  8
BOTTOMLAYER
100
AcDb2dPolyline
 66
     1
 10
0.0
 20
0.0
 30
0.0
 70
     1
 40
0.127
 41
0.127
 75
     8
  0
VERTEX
  5
131
100
AcDbEntity
  8
BOTTOMLAYER
100
AcDbVertex
100
AcDb2dVertex
 10
81.542039
 20
192.380189
 30
0.0
 42
1.0
  0
VERTEX
  5
132
100
AcDbEntity
  8
BOTTOMLAYER
100
AcDbVertex
100
AcDb2dVertex
 10
81.669039
 20
192.380189
 30
0.0
 42
1.0
  0
SEQEND
  5
133
100
AcDbEntity
  8
0
  0
POLYLINE
  5
134
100
AcDbEntity
  8
BOTTOMLAYER
100
AcDb2dPolyline
 66
     1
 10
0.0
 20
0.0
 30
0.0
 40
0.254
 41
0.254
 75
     8
  0
VERTEX
  5
135
100
AcDbEntity
  8
BOTTOMLAYER
100
AcDbVertex
100
AcDb2dVertex
 10
83.292536
 20
193.360192
 30
0.0
  0
VERTEX
  5
136
100
AcDbEntity
  8
BOTTOMLAYER
100
AcDbVertex
100
AcDb2dVertex
 10
84.272539
 20
192.380189
 30
0.0
  0
SEQEND
  5
137
100
AcDbEntity
  8
0
  0
POLYLINE
  5
138
100
AcDbEntity
  8
BOTTOMLAYER
100
AcDb2dPolyline
 66
     1
 10
0.0
 20
0.0
 30
0.0
 70
     1
 40
0.127
 41
0.127
 75
     8
  0
VERTEX
  5
139
100
AcDbEntity
  8
BOTTOMLAYER
100
AcDbVertex
100
AcDb2dVertex
 10
83.229036
 20
193.360192
 30
0.0
 42
1.0
  0
VERTEX
  5
13A
100
AcDbEntity
  8
BOTTOMLAYER
100
AcDbVertex
100
AcDb2dVertex
 10
83.356036
 20
193.360192
 30
0.0
 42
1.0
  0
SEQEND
  5
13B
100
AcDbEntity
  8
0
  0
POLYLINE
  5
13C
100
AcDbEntity
  8
BOTTOMLAYER
100
AcDb2dPolyline
 66
     1
 10
0.0
 20
0.0
 30
0.0
 70
     1
 40
0.127
 41
0.127
 75
     8
  0
VERTEX
  5
13D
100
AcDbEntity
  8
BOTTOMLAYER
100
AcDbVertex
100
AcDb2dVertex
 10
84.209039
 20
192.380189
 30
0.0
 42
1.0
  0
VERTEX
  5
13E
100
AcDbEntity
  8
BOTTOMLAYER
100
AcDbVertex
100
AcDb2dVertex
 10
84.336039
 20
192.380189
 30
0.0
 42
1.0
  0
SEQEND
  5
13F
100
AcDbEntity
  8
0
  0
POLYLINE
  5
140
100
AcDbEntity
  8
BOTTOMLAYER
100
AcDb2dPolyline
 66
     1
 10
0.0
 20
0.0
 30
0.0
 40
0.254
 41
0.254
 75
     8
  0
VERTEX
  5
141
100
AcDbEntity
  8
BOTTOMLAYER
100
AcDbVertex
100
AcDb2dVertex
 10
84.272539
 20
191.745189
 30
0.0
  0
VERTEX
  5
142
100
AcDbEntity
  8
BOTTOMLAYER
100
AcDbVertex
100
AcDb2dVertex
 10
84.272539
 20
192.380189
 30
0.0
  0
SEQEND
  5
143
100
AcDbEntity
  8
0
  0
POLYLINE
  5
144
100
AcDbEntity
  8
BOTTOMLAYER
100
AcDb2dPolyline
 66
     1
 10
0.0
 20
0.0
 30
0.0
 70
     1
 40
0.127
 41
0.127
 75
     8
  0
VERTEX
  5
145
100
AcDbEntity
  8
BOTTOMLAYER
100
AcDbVertex
100
AcDb2dVertex
 10
84.209039
 20
191.745189
 30
0.0
 42
1.0
  0
VERTEX
  5
146
100
AcDbEntity
  8
BOTTOMLAYER
100
AcDbVertex
100
AcDb2dVertex
 10
84.336039
 20
191.745189
 30
0.0
 42
1.0
  0
SEQEND
  5
147
100
AcDbEntity
  8
0
  0
POLYLINE
  5
148
100
AcDbEntity
  8
BOTTOMLAYER
100
AcDb2dPolyline
 66
     1
 10
0.0
 20
0.0
 30
0.0
 70
     1
 40
0.127
 41
0.127
 75
     8
  0
VERTEX
  5
149
100
AcDbEntity
  8
BOTTOMLAYER
100
AcDbVertex
100
AcDb2dVertex
 10
84.209039
 20
192.380189
 30
0.0
 42
1.0
  0
VERTEX
  5
14A
100
AcDbEntity
  8
BOTTOMLAYER
100
AcDbVertex
100
AcDb2dVertex
 10
84.336039
 20
192.380189
 30
0.0
 42
1.0
  0
SEQEND
  5
14B
100
AcDbEntity
  8
0
  0
POLYLINE
  5
14C
100
AcDbEntity
  8
BOTTOMLAYER
100
AcDb2dPolyline
 66
     1
 10
0.0
 20
0.0
 30
0.0
 40
0.254
 41
0.254
 75
     8
  0
VERTEX
  5
14D
100
AcDbEntity
  8
BOTTOMLAYER
100
AcDbVertex
100
AcDb2dVertex
 10
70.997313
 20
193.360192
 30
0.0
  0
VERTEX
  5
14E
100
AcDbEntity
  8
BOTTOMLAYER
100
AcDbVertex
100
AcDb2dVertex
 10
83.292536
 20
193.360192
 30
0.0
  0
SEQEND
  5
14F
100
AcDbEntity
  8
0
  0
POLYLINE
  5
150
100
AcDbEntity
  8
BOTTOMLAYER
100
AcDb2dPolyline
 66
     1
 10
0.0
 20
0.0
 30
0.0
 70
     1
 40
0.127
 41
0.127
 75
     8
  0
VERTEX
  5
151
100
AcDbEntity
  8
BOTTOMLAYER
100
AcDbVertex
100
AcDb2dVertex
 10
70.933813
 20
193.360192
 30
0.0
 42
1.0
  0
VERTEX
  5
152
100
AcDbEntity
  8
BOTTOMLAYER
100
AcDbVertex
100
AcDb2dVertex
 10
71.060813
 20
193.360192
 30
0.0
 42
1.0
  0
SEQEND
  5
153
100
AcDbEntity
  8
0
  0
POLYLINE
  5
154
100
AcDbEntity
  8
BOTTOMLAYER
100
AcDb2dPolyline
 66
     1
 10
0.0
 20
0.0
 30
0.0
 70
     1
 40
0.127
 41
0.127
 75
     8
  0
VERTEX
  5
155
100
AcDbEntity
  8
BOTTOMLAYER
100
AcDbVertex
100
AcDb2dVertex
 10
83.229036
 20
193.360192
 30
0.0
 42
1.0
  0
VERTEX
  5
156
100
AcDbEntity
  8
BOTTOMLAYER
100
AcDbVertex
100
AcDb2dVertex
 10
83.356036
 20
193.360192
 30
0.0
 42
1.0
  0
SEQEND
  5
157
100
AcDbEntity
  8
0
  0
POLYLINE
  5
158
100
AcDbEntity
  8
BOTTOMLAYER
100
AcDb2dPolyline
 66
     1
 10
0.0
 20
0.0
 30
0.0
 40
0.508
 41
0.508
 75
     8
  0
VERTEX
  5
159
100
AcDbEntity
  8
BOTTOMLAYER
100
AcDbVertex
100
AcDb2dVertex
 10
78.003413
 20
195.047189
 30
0.0
  0
VERTEX
  5
15A
100
AcDbEntity
  8
BOTTOMLAYER
100
AcDbVertex
100
AcDb2dVertex
 10
84.272539
 20
195.047189
 30
0.0
  0
SEQEND
  5
15B
100
AcDbEntity
  8
0
  0
POLYLINE
  5
15C
100
AcDbEntity
  8
BOTTOMLAYER
100
AcDb2dPolyline
 66
     1
 10
0.0
 20
0.0
 30
0.0
 70
     1
 40
0.254
 41
0.254
 75
     8
  0
VERTEX
  5
15D
100
AcDbEntity
  8
BOTTOMLAYER
100
AcDbVertex
100
AcDb2dVertex
 10
77.876413
 20
195.047189
 30
0.0
 42
1.0
  0
VERTEX
  5
15E
100
AcDbEntity
  8
BOTTOMLAYER
100
AcDbVertex
100
AcDb2dVertex
 10
78.130413
 20
195.047189
 30
0.0
 42
1.0
  0
SEQEND
  5
15F
100
AcDbEntity
  8
0
  0
POLYLINE
  5
160
100
AcDbEntity
  8
BOTTOMLAYER
100
AcDb2dPolyline
 66
     1
 10
0.0
 20
0.0
 30
0.0
 70
     1
 40
0.254
 41
0.254
 75
     8
  0
VERTEX
  5
161
100
AcDbEntity
  8
BOTTOMLAYER
100
AcDbVertex
100
AcDb2dVertex
 10
84.145539
 20
195.047189
 30
0.0
 42
1.0
  0
VERTEX
  5
162
100
AcDbEntity
  8
BOTTOMLAYER
100
AcDbVertex
100
AcDb2dVertex
 10
84.399539
 20
195.047189
 30
0.0
 42
1.0
  0
SEQEND
  5
163
100
AcDbEntity
  8
0
  0
POLYLINE
  5
164
100
AcDbEntity
  8
BOTTOMLAYER
100
AcDb2dPolyline
 66
     1
 10
0.0
 20
0.0
 30
0.0
 40
0.254
 41
0.254
 75
     8
  0
VERTEX
  5
165
100
AcDbEntity
  8
BOTTOMLAYER
100
AcDbVertex
100
AcDb2dVertex
 10
70.997313
 20
192.860193
 30
0.0
  0
VERTEX
  5
166
100
AcDbEntity
  8
BOTTOMLAYER
100
AcDbVertex
100
AcDb2dVertex
 10
81.125535
 20
192.860193
 30
0.0
  0
SEQEND
  5
167
100
AcDbEntity
  8
0
  0
POLYLINE
  5
168
100
AcDbEntity
  8
BOTTOMLAYER
100
AcDb2dPolyline
 66
     1
 10
0.0
 20
0.0
 30
0.0
 70
     1
 40
0.127
 41
0.127
 75
     8
  0
VERTEX
  5
169
100
AcDbEntity
  8
BOTTOMLAYER
100
AcDbVertex
100
AcDb2dVertex
 10
70.933813
 20
192.860193
 30
0.0
 42
1.0
  0
VERTEX
  5
16A
100
AcDbEntity
  8
BOTTOMLAYER
100
AcDbVertex
100
AcDb2dVertex
 10
71.060813
 20
192.860193
 30
0.0
 42
1.0
  0
SEQEND
  5
16B
100
AcDbEntity
  8
0
  0
POLYLINE
  5
16C
100
AcDbEntity
  8
BOTTOMLAYER
100
AcDb2dPolyline
 66
     1
 10
0.0
 20
0.0
 30
0.0
 70
     1
 40
0.127
 41
0.127
 75
     8
  0
VERTEX
  5
16D
100
AcDbEntity
  8
BOTTOMLAYER
100
AcDbVertex
100
AcDb2dVertex
 10
81.062035
 20
192.860193
 30
0.0
 42
1.0
  0
VERTEX
  5
16E
100
AcDbEntity
  8
BOTTOMLAYER
100
AcDbVertex
100
AcDb2dVertex
 10
81.189035
 20
192.860193
 30
0.0
 42
1.0
  0
SEQEND
  5
16F
100
AcDbEntity
  8
0
  0
POLYLINE
  5
170
100
AcDbEntity
  8
BOTTOMLAYER
100
AcDb2dPolyline
 66
     1
 10
0.0
 20
0.0
 30
0.0
 40
0.254
 41
0.254
 75
     8
  0
VERTEX
  5
171
100
AcDbEntity
  8
BOTTOMLAYER
100
AcDbVertex
100
AcDb2dVertex
 10
81.434541
 20
193.860191
 30
0.0
  0
VERTEX
  5
172
100
AcDbEntity
  8
BOTTOMLAYER
100
AcDbVertex
100
AcDb2dVertex
 10
81.605539
 20
194.031189
 30
0.0
  0
SEQEND
  5
173
100
AcDbEntity
  8
0
  0
POLYLINE
  5
174
100
AcDbEntity
  8
BOTTOMLAYER
100
AcDb2dPolyline
 66
     1
 10
0.0
 20
0.0
 30
0.0
 70
     1
 40
0.127
 41
0.127
 75
     8
  0
VERTEX
  5
175
100
AcDbEntity
  8
BOTTOMLAYER
100
AcDbVertex
100
AcDb2dVertex
 10
81.371041
 20
193.860191
 30
0.0
 42
1.0
  0
VERTEX
  5
176
100
AcDbEntity
  8
BOTTOMLAYER
100
AcDbVertex
100
AcDb2dVertex
 10
81.498041
 20
193.860191
 30
0.0
 42
1.0
  0
SEQEND
  5
177
100
AcDbEntity
  8
0
  0
POLYLINE
  5
178
100
AcDbEntity
  8
BOTTOMLAYER
100
AcDb2dPolyline
 66
     1
 10
0.0
 20
0.0
 30
0.0
 70
     1
 40
0.127
 41
0.127
 75
     8
  0
VERTEX
  5
179
100
AcDbEntity
  8
BOTTOMLAYER
100
AcDbVertex
100
AcDb2dVertex
 10
81.542039
 20
194.031189
 30
0.0
 42
1.0
  0
VERTEX
  5
17A
100
AcDbEntity
  8
BOTTOMLAYER
100
AcDbVertex
100
AcDb2dVertex
 10
81.669039
 20
194.031189
 30
0.0
 42
1.0
  0
SEQEND
  5
17B
100
AcDbEntity
  8
0
  0
POLYLINE
  5
17C
100
AcDbEntity
  8
BOTTOMLAYER
100
AcDb2dPolyline
 66
     1
 10
0.0
 20
0.0
 30
0.0
 40
0.254
 41
0.254
 75
     8
  0
VERTEX
  5
17D
100
AcDbEntity
  8
BOTTOMLAYER
100
AcDbVertex
100
AcDb2dVertex
 10
70.997313
 20
193.860191
 30
0.0
  0
VERTEX
  5
17E
100
AcDbEntity
  8
BOTTOMLAYER
100
AcDbVertex
100
AcDb2dVertex
 10
81.434541
 20
193.860191
 30
0.0
  0
SEQEND
  5
17F
100
AcDbEntity
  8
0
  0
POLYLINE
  5
180
100
AcDbEntity
  8
BOTTOMLAYER
100
AcDb2dPolyline
 66
     1
 10
0.0
 20
0.0
 30
0.0
 70
     1
 40
0.127
 41
0.127
 75
     8
  0
VERTEX
  5
181
100
AcDbEntity
  8
BOTTOMLAYER
100
AcDbVertex
100
AcDb2dVertex
 10
70.933813
 20
193.860191
 30
0.0
 42
1.0
  0
VERTEX
  5
182
100
AcDbEntity
  8
BOTTOMLAYER
100
AcDbVertex
100
AcDb2dVertex
 10
71.060813
 20
193.860191
 30
0.0
 42
1.0
  0
SEQEND
  5
183
100
AcDbEntity
  8
0
  0
POLYLINE
  5
184
100
AcDbEntity
  8
BOTTOMLAYER
100
AcDb2dPolyline
 66
     1
 10
0.0
 20
0.0
 30
0.0
 70
     1
 40
0.127
 41
0.127
 75
     8
  0
VERTEX
  5
185
100
AcDbEntity
  8
BOTTOMLAYER
100
AcDbVertex
100
AcDb2dVertex
 10
81.371041
 20
193.860191
 30
0.0
 42
1.0
  0
VERTEX
  5
186
100
AcDbEntity
  8
BOTTOMLAYER
100
AcDbVertex
100
AcDb2dVertex
 10
81.498041
 20
193.860191
 30
0.0
 42
1.0
  0
SEQEND
  5
187
100
AcDbEntity
  8
0
  0
POLYLINE
  5
188
100
AcDbEntity
  8
TOPLAYER
100
AcDb2dPolyline
 66
     1
 10
0.0
 20
0.0
 30
0.0
 40
0.254
 41
0.254
 75
     8
  0
VERTEX
  5
189
100
AcDbEntity
  8
TOPLAYER
100
AcDbVertex
100
AcDb2dVertex
 10
83.871026
 20
192.232674
 30
0.0
  0
VERTEX
  5
18A
100
AcDbEntity
  8
TOPLAYER
100
AcDbVertex
100
AcDb2dVertex
 10
83.871026
 20
192.665383
 30
0.0
  0
SEQEND
  5
18B
100
AcDbEntity
  8
0
  0
POLYLINE
  5
18C
100
AcDbEntity
  8
TOPLAYER
100
AcDb2dPolyline
 66
     1
 10
0.0
 20
0.0
 30
0.0
 70
     1
 40
0.127
 41
0.127
 75
     8
  0
VERTEX
  5
18D
100
AcDbEntity
  8
TOPLAYER
100
AcDbVertex
100
AcDb2dVertex
 10
83.807526
 20
192.232674
 30
0.0
 42
1.0
  0
VERTEX
  5
18E
100
AcDbEntity
  8
TOPLAYER
100
AcDbVertex
100
AcDb2dVertex
 10
83.934526
 20
192.232674
 30
0.0
 42
1.0
  0
SEQEND
  5
18F
100
AcDbEntity
  8
0
  0
POLYLINE
  5
190
100
AcDbEntity
  8
TOPLAYER
100
AcDb2dPolyline
 66
     1
 10
0.0
 20
0.0
 30
0.0
 70
     1
 40
0.127
 41
0.127
 75
     8
  0
VERTEX
  5
191
100
AcDbEntity
  8
TOPLAYER
100
AcDbVertex
100
AcDb2dVertex
 10
83.807526
 20
192.665383
 30
0.0
 42
1.0
  0
VERTEX
  5
192
100
AcDbEntity
  8
TOPLAYER
100
AcDbVertex
100
AcDb2dVertex
 10
83.934526
 20
192.665383
 30
0.0
 42
1.0
  0
SEQEND
  5
193
100
AcDbEntity
  8
0
  0
POLYLINE
  5
194
100
AcDbEntity
  8
TOPLAYER
100
AcDb2dPolyline
 66
     1
 10
0.0
 20
0.0
 30
0.0
 40
0.254
 41
0.254
 75
     8
  0
VERTEX
  5
195
100
AcDbEntity
  8
TOPLAYER
100
AcDbVertex
100
AcDb2dVertex
 10
83.861412
 20
192.674997
 30
0.0
  0
VERTEX
  5
196
100
AcDbEntity
  8
TOPLAYER
100
AcDbVertex
100
AcDb2dVertex
 10
83.871026
 20
192.665383
 30
0.0
  0
SEQEND
  5
197
100
AcDbEntity
  8
0
  0
POLYLINE
  5
198
100
AcDbEntity
  8
TOPLAYER
100
AcDb2dPolyline
 66
     1
 10
0.0
 20
0.0
 30
0.0
 70
     1
 40
0.127
 41
0.127
 75
     8
  0
VERTEX
  5
199
100
AcDbEntity
  8
TOPLAYER
100
AcDbVertex
100
AcDb2dVertex
 10
83.797912
 20
192.674997
 30
0.0
 42
1.0
  0
VERTEX
  5
19A
100
AcDbEntity
  8
TOPLAYER
100
AcDbVertex
100
AcDb2dVertex
 10
83.924912
 20
192.674997
 30
0.0
 42
1.0
  0
SEQEND
  5
19B
100
AcDbEntity
  8
0
  0
POLYLINE
  5
19C
100
AcDbEntity
  8
TOPLAYER
100
AcDb2dPolyline
 66
     1
 10
0.0
 20
0.0
 30
0.0
 70
     1
 40
0.127
 41
0.127
 75
     8
  0
VERTEX
  5
19D
100
AcDbEntity
  8
TOPLAYER
100
AcDbVertex
100
AcDb2dVertex
 10
83.807526
 20
192.665383
 30
0.0
 42
1.0
  0
VERTEX
  5
19E
100
AcDbEntity
  8
TOPLAYER
100
AcDbVertex
100
AcDb2dVertex
 10
83.934526
 20
192.665383
 30
0.0
 42
1.0
  0
SEQEND
  5
19F
100
AcDbEntity
  8
0
  0
POLYLINE
  5
1A0
100
AcDbEntity
  8
TOPLAYER
100
AcDb2dPolyline
 66
     1
 10
0.0
 20
0.0
 30
0.0
 40
0.508
 41
0.508
 75
     8
  0
VERTEX
  5
1A1
100
AcDbEntity
  8
TOPLAYER
100
AcDbVertex
100
AcDb2dVertex
 10
83.383539
 20
195.047192
 30
0.0
  0
VERTEX
  5
1A2
100
AcDbEntity
  8
TOPLAYER
100
AcDbVertex
100
AcDb2dVertex
 10
84.272537
 20
195.047192
 30
0.0
  0
SEQEND
  5
1A3
100
AcDbEntity
  8
0
  0
POLYLINE
  5
1A4
100
AcDbEntity
  8
TOPLAYER
100
AcDb2dPolyline
 66
     1
 10
0.0
 20
0.0
 30
0.0
 70
     1
 40
0.254
 41
0.254
 75
     8
  0
VERTEX
  5
1A5
100
AcDbEntity
  8
TOPLAYER
100
AcDbVertex
100
AcDb2dVertex
 10
83.256539
 20
195.047192
 30
0.0
 42
1.0
  0
VERTEX
  5
1A6
100
AcDbEntity
  8
TOPLAYER
100
AcDbVertex
100
AcDb2dVertex
 10
83.510539
 20
195.047192
 30
0.0
 42
1.0
  0
SEQEND
  5
1A7
100
AcDbEntity
  8
0
  0
POLYLINE
  5
1A8
100
AcDbEntity
  8
TOPLAYER
100
AcDb2dPolyline
 66
     1
 10
0.0
 20
0.0
 30
0.0
 70
     1
 40
0.254
 41
0.254
 75
     8
  0
VERTEX
  5
1A9
100
AcDbEntity
  8
TOPLAYER
100
AcDbVertex
100
AcDb2dVertex
 10
84.145537
 20
195.047192
 30
0.0
 42
1.0
  0
VERTEX
  5
1AA
100
AcDbEntity
  8
TOPLAYER
100
AcDbVertex
100
AcDb2dVertex
 10
84.399537
 20
195.047192
 30
0.0
 42
1.0
  0
SEQEND
  5
1AB
100
AcDbEntity
  8
0
  0
POLYLINE
  5
1AC
100
AcDbEntity
  8
TOPLAYER
100
AcDb2dPolyline
 66
     1
 10
0.0
 20
0.0
 30
0.0
 40
0.254
 41
0.254
 75
     8
  0
VERTEX
  5
1AD
100
AcDbEntity
  8
TOPLAYER
100
AcDbVertex
100
AcDb2dVertex
 10
83.861412
 20
194.060191
 30
0.0
  0
VERTEX
  5
1AE
100
AcDbEntity
  8
TOPLAYER
100
AcDbVertex
100
AcDb2dVertex
 10
83.861412
 20
195.017065
 30
0.0
  0
SEQEND
  5
1AF
100
AcDbEntity
  8
0
  0
POLYLINE
  5
1B0
100
AcDbEntity
  8
TOPLAYER
100
AcDb2dPolyline
 66
     1
 10
0.0
 20
0.0
 30
0.0
 70
     1
 40
0.127
 41
0.127
 75
     8
  0
VERTEX
  5
1B1
100
AcDbEntity
  8
TOPLAYER
100
AcDbVertex
100
AcDb2dVertex
 10
83.797912
 20
194.060191
 30
0.0
 42
1.0
  0
VERTEX
  5
1B2
100
AcDbEntity
  8
TOPLAYER
100
AcDbVertex
100
AcDb2dVertex
 10
83.924912
 20
194.060191
 30
0.0
 42
1.0
  0
SEQEND
  5
1B3
100
AcDbEntity
  8
0
  0
POLYLINE
  5
1B4
100
AcDbEntity
  8
TOPLAYER
100
AcDb2dPolyline
 66
     1
 10
0.0
 20
0.0
 30
0.0
 70
     1
 40
0.127
 41
0.127
 75
     8
  0
VERTEX
  5
1B5
100
AcDbEntity
  8
TOPLAYER
100
AcDbVertex
100
AcDb2dVertex
 10
83.797912
 20
195.017065
 30
0.0
 42
1.0
  0
VERTEX
  5
1B6
100
AcDbEntity
  8
TOPLAYER
100
AcDbVertex
100
AcDb2dVertex
 10
83.924912
 20
195.017065
 30
0.0
 42
1.0
  0
SEQEND
  5
1B7
100
AcDbEntity
  8
0
  0
POLYLINE
  5
1B8
100
AcDbEntity
  8
TOPLAYER
100
AcDb2dPolyline
 66
     1
 10
0.0
 20
0.0
 30
0.0
 40
0.254
 41
0.254
 75
     8
  0
VERTEX
  5
1B9
100
AcDbEntity
  8
TOPLAYER
100
AcDbVertex
100
AcDb2dVertex
 10
81.605539
 20
194.031189
 30
0.0
  0
VERTEX
  5
1BA
100
AcDbEntity
  8
TOPLAYER
100
AcDbVertex
100
AcDb2dVertex
 10
81.634541
 20
194.060191
 30
0.0
  0
SEQEND
  5
1BB
100
AcDbEntity
  8
0
  0
POLYLINE
  5
1BC
100
AcDbEntity
  8
TOPLAYER
100
AcDb2dPolyline
 66
     1
 10
0.0
 20
0.0
 30
0.0
 70
     1
 40
0.127
 41
0.127
 75
     8
  0
VERTEX
  5
1BD
100
AcDbEntity
  8
TOPLAYER
100
AcDbVertex
100
AcDb2dVertex
 10
81.542039
 20
194.031189
 30
0.0
 42
1.0
  0
VERTEX
  5
1BE
100
AcDbEntity
  8
TOPLAYER
100
AcDbVertex
100
AcDb2dVertex
 10
81.669039
 20
194.031189
 30
0.0
 42
1.0
  0
SEQEND
  5
1BF
100
AcDbEntity
  8
0
  0
POLYLINE
  5
1C0
100
AcDbEntity
  8
TOPLAYER
100
AcDb2dPolyline
 66
     1
 10
0.0
 20
0.0
 30
0.0
 70
     1
 40
0.127
 41
0.127
 75
     8
  0
VERTEX
  5
1C1
100
AcDbEntity
  8
TOPLAYER
100
AcDbVertex
100
AcDb2dVertex
 10
81.571041
 20
194.060191
 30
0.0
 42
1.0
  0
VERTEX
  5
1C2
100
AcDbEntity
  8
TOPLAYER
100
AcDbVertex
100
AcDb2dVertex
 10
81.698041
 20
194.060191
 30
0.0
 42
1.0
  0
SEQEND
  5
1C3
100
AcDbEntity
  8
0
  0
POLYLINE
  5
1C4
100
AcDbEntity
  8
TOPLAYER
100
AcDb2dPolyline
 66
     1
 10
0.0
 20
0.0
 30
0.0
 40
0.254
 41
0.254
 75
     8
  0
VERTEX
  5
1C5
100
AcDbEntity
  8
TOPLAYER
100
AcDbVertex
100
AcDb2dVertex
 10
81.634541
 20
194.060191
 30
0.0
  0
VERTEX
  5
1C6
100
AcDbEntity
  8
TOPLAYER
100
AcDbVertex
100
AcDb2dVertex
 10
82.861414
 20
194.060191
 30
0.0
  0
SEQEND
  5
1C7
100
AcDbEntity
  8
0
  0
POLYLINE
  5
1C8
100
AcDbEntity
  8
TOPLAYER
100
AcDb2dPolyline
 66
     1
 10
0.0
 20
0.0
 30
0.0
 70
     1
 40
0.127
 41
0.127
 75
     8
  0
VERTEX
  5
1C9
100
AcDbEntity
  8
TOPLAYER
100
AcDbVertex
100
AcDb2dVertex
 10
81.571041
 20
194.060191
 30
0.0
 42
1.0
  0
VERTEX
  5
1CA
100
AcDbEntity
  8
TOPLAYER
100
AcDbVertex
100
AcDb2dVertex
 10
81.698041
 20
194.060191
 30
0.0
 42
1.0
  0
SEQEND
  5
1CB
100
AcDbEntity
  8
0
  0
POLYLINE
  5
1CC
100
AcDbEntity
  8
TOPLAYER
100
AcDb2dPolyline
 66
     1
 10
0.0
 20
0.0
 30
0.0
 70
     1
 40
0.127
 41
0.127
 75
     8
  0
VERTEX
  5
1CD
100
AcDbEntity
  8
TOPLAYER
100
AcDbVertex
100
AcDb2dVertex
 10
82.797914
 20
194.060191
 30
0.0
 42
1.0
  0
VERTEX
  5
1CE
100
AcDbEntity
  8
TOPLAYER
100
AcDbVertex
100
AcDb2dVertex
 10
82.924914
 20
194.060191
 30
0.0
 42
1.0
  0
SEQEND
  5
1CF
100
AcDbEntity
  8
0
  0
POLYLINE
  5
1D0
100
AcDbEntity
  8
TOPLAYER
100
AcDb2dPolyline
 66
     1
 10
0.0
 20
0.0
 30
0.0
 40
0.254
 41
0.254
 75
     8
  0
VERTEX
  5
1D1
100
AcDbEntity
  8
TOPLAYER
100
AcDbVertex
100
AcDb2dVertex
 10
82.861414
 20
192.660189
 30
0.0
  0
VERTEX
  5
1D2
100
AcDbEntity
  8
TOPLAYER
100
AcDbVertex
100
AcDb2dVertex
 10
82.861414
 20
192.674997
 30
0.0
  0
SEQEND
  5
1D3
100
AcDbEntity
  8
0
  0
POLYLINE
  5
1D4
100
AcDbEntity
  8
TOPLAYER
100
AcDb2dPolyline
 66
     1
 10
0.0
 20
0.0
 30
0.0
 70
     1
 40
0.127
 41
0.127
 75
     8
  0
VERTEX
  5
1D5
100
AcDbEntity
  8
TOPLAYER
100
AcDbVertex
100
AcDb2dVertex
 10
82.797914
 20
192.660189
 30
0.0
 42
1.0
  0
VERTEX
  5
1D6
100
AcDbEntity
  8
TOPLAYER
100
AcDbVertex
100
AcDb2dVertex
 10
82.924914
 20
192.660189
 30
0.0
 42
1.0
  0
SEQEND
  5
1D7
100
AcDbEntity
  8
0
  0
POLYLINE
  5
1D8
100
AcDbEntity
  8
TOPLAYER
100
AcDb2dPolyline
 66
     1
 10
0.0
 20
0.0
 30
0.0
 70
     1
 40
0.127
 41
0.127
 75
     8
  0
VERTEX
  5
1D9
100
AcDbEntity
  8
TOPLAYER
100
AcDbVertex
100
AcDb2dVertex
 10
82.797914
 20
192.674997
 30
0.0
 42
1.0
  0
VERTEX
  5
1DA
100
AcDbEntity
  8
TOPLAYER
100
AcDbVertex
100
AcDb2dVertex
 10
82.924914
 20
192.674997
 30
0.0
 42
1.0
  0
SEQEND
  5
1DB
100
AcDbEntity
  8
0
  0
POLYLINE
  5
1DC
100
AcDbEntity
  8
TOPLAYER
100
AcDb2dPolyline
 66
     1
 10
0.0
 20
0.0
 30
0.0
 40
0.254
 41
0.254
 75
     8
  0
VERTEX
  5
1DD
100
AcDbEntity
  8
TOPLAYER
100
AcDbVertex
100
AcDb2dVertex
 10
82.392939
 20
191.694387
 30
0.0
  0
VERTEX
  5
1DE
100
AcDbEntity
  8
TOPLAYER
100
AcDbVertex
100
AcDb2dVertex
 10
82.861414
 20
192.162862
 30
0.0
  0
SEQEND
  5
1DF
100
AcDbEntity
  8
0
  0
POLYLINE
  5
1E0
100
AcDbEntity
  8
TOPLAYER
100
AcDb2dPolyline
 66
     1
 10
0.0
 20
0.0
 30
0.0
 70
     1
 40
0.127
 41
0.127
 75
     8
  0
VERTEX
  5
1E1
100
AcDbEntity
  8
TOPLAYER
100
AcDbVertex
100
AcDb2dVertex
 10
82.329439
 20
191.694387
 30
0.0
 42
1.0
  0
VERTEX
  5
1E2
100
AcDbEntity
  8
TOPLAYER
100
AcDbVertex
100
AcDb2dVertex
 10
82.456439
 20
191.694387
 30
0.0
 42
1.0
  0
SEQEND
  5
1E3
100
AcDbEntity
  8
0
  0
POLYLINE
  5
1E4
100
AcDbEntity
  8
TOPLAYER
100
AcDb2dPolyline
 66
     1
 10
0.0
 20
0.0
 30
0.0
 70
     1
 40
0.127
 41
0.127
 75
     8
  0
VERTEX
  5
1E5
100
AcDbEntity
  8
TOPLAYER
100
AcDbVertex
100
AcDb2dVertex
 10
82.797914
 20
192.162862
 30
0.0
 42
1.0
  0
VERTEX
  5
1E6
100
AcDbEntity
  8
TOPLAYER
100
AcDbVertex
100
AcDb2dVertex
 10
82.924914
 20
192.162862
 30
0.0
 42
1.0
  0
SEQEND
  5
1E7
100
AcDbEntity
  8
0
  0
POLYLINE
  5
1E8
100
AcDbEntity
  8
TOPLAYER
100
AcDb2dPolyline
 66
     1
 10
0.0
 20
0.0
 30
0.0
 40
0.254
 41
0.254
 75
     8
  0
VERTEX
  5
1E9
100
AcDbEntity
  8
TOPLAYER
100
AcDbVertex
100
AcDb2dVertex
 10
82.861414
 20
192.162862
 30
0.0
  0
VERTEX
  5
1EA
100
AcDbEntity
  8
TOPLAYER
100
AcDbVertex
100
AcDb2dVertex
 10
82.861414
 20
192.660189
 30
0.0
  0
SEQEND
  5
1EB
100
AcDbEntity
  8
0
  0
POLYLINE
  5
1EC
100
AcDbEntity
  8
TOPLAYER
100
AcDb2dPolyline
 66
     1
 10
0.0
 20
0.0
 30
0.0
 70
     1
 40
0.127
 41
0.127
 75
     8
  0
VERTEX
  5
1ED
100
AcDbEntity
  8
TOPLAYER
100
AcDbVertex
100
AcDb2dVertex
 10
82.797914
 20
192.162862
 30
0.0
 42
1.0
  0
VERTEX
  5
1EE
100
AcDbEntity
  8
TOPLAYER
100
AcDbVertex
100
AcDb2dVertex
 10
82.924914
 20
192.162862
 30
0.0
 42
1.0
  0
SEQEND
  5
1EF
100
AcDbEntity
  8
0
  0
POLYLINE
  5
1F0
100
AcDbEntity
  8
TOPLAYER
100
AcDb2dPolyline
 66
     1
 10
0.0
 20
0.0
 30
0.0
 70
     1
 40
0.127
 41
0.127
 75
     8
  0
VERTEX
  5
1F1
100
AcDbEntity
  8
TOPLAYER
100
AcDbVertex
100
AcDb2dVertex
 10
82.797914
 20
192.660189
 30
0.0
 42
1.0
  0
VERTEX
  5
1F2
100
AcDbEntity
  8
TOPLAYER
100
AcDbVertex
100
AcDb2dVertex
 10
82.924914
 20
192.660189
 30
0.0
 42
1.0
  0
SEQEND
  5
1F3
100
AcDbEntity
  8
0
  0
POLYLINE
  5
1F4
100
AcDbEntity
  8
TOPLAYER
100
AcDb2dPolyline
 66
     1
 10
0.0
 20
0.0
 30
0.0
 40
0.508
 41
0.508
 75
     8
  0
VERTEX
  5
1F5
100
AcDbEntity
  8
TOPLAYER
100
AcDbVertex
100
AcDb2dVertex
 10
82.219348
 20
193.374998
 30
0.0
  0
VERTEX
  5
1F6
100
AcDbEntity
  8
TOPLAYER
100
AcDbVertex
100
AcDb2dVertex
 10
83.361413
 20
193.374998
 30
0.0
  0
SEQEND
  5
1F7
100
AcDbEntity
  8
0
  0
POLYLINE
  5
1F8
100
AcDbEntity
  8
TOPLAYER
100
AcDb2dPolyline
 66
     1
 10
0.0
 20
0.0
 30
0.0
 70
     1
 40
0.254
 41
0.254
 75
     8
  0
VERTEX
  5
1F9
100
AcDbEntity
  8
TOPLAYER
100
AcDbVertex
100
AcDb2dVertex
 10
82.092348
 20
193.374998
 30
0.0
 42
1.0
  0
VERTEX
  5
1FA
100
AcDbEntity
  8
TOPLAYER
100
AcDbVertex
100
AcDb2dVertex
 10
82.346348
 20
193.374998
 30
0.0
 42
1.0
  0
SEQEND
  5
1FB
100
AcDbEntity
  8
0
  0
POLYLINE
  5
1FC
100
AcDbEntity
  8
TOPLAYER
100
AcDb2dPolyline
 66
     1
 10
0.0
 20
0.0
 30
0.0
 70
     1
 40
0.254
 41
0.254
 75
     8
  0
VERTEX
  5
1FD
100
AcDbEntity
  8
TOPLAYER
100
AcDbVertex
100
AcDb2dVertex
 10
83.234413
 20
193.374998
 30
0.0
 42
1.0
  0
VERTEX
  5
1FE
100
AcDbEntity
  8
TOPLAYER
100
AcDbVertex
100
AcDb2dVertex
 10
83.488413
 20
193.374998
 30
0.0
 42
1.0
  0
SEQEND
  5
1FF
100
AcDbEntity
  8
0
  0
POLYLINE
  5
200
100
AcDbEntity
  8
TOPLAYER
100
AcDb2dPolyline
 66
     1
 10
0.0
 20
0.0
 30
0.0
 40
0.254
 41
0.254
 75
     8
  0
VERTEX
  5
201
100
AcDbEntity
  8
TOPLAYER
100
AcDbVertex
100
AcDb2dVertex
 10
83.361413
 20
194.060191
 30
0.0
  0
VERTEX
  5
202
100
AcDbEntity
  8
TOPLAYER
100
AcDbVertex
100
AcDb2dVertex
 10
83.361413
 20
194.074999
 30
0.0
  0
SEQEND
  5
203
100
AcDbEntity
  8
0
  0
POLYLINE
  5
204
100
AcDbEntity
  8
TOPLAYER
100
AcDb2dPolyline
 66
     1
 10
0.0
 20
0.0
 30
0.0
 70
     1
 40
0.127
 41
0.127
 75
     8
  0
VERTEX
  5
205
100
AcDbEntity
  8
TOPLAYER
100
AcDbVertex
100
AcDb2dVertex
 10
83.297913
 20
194.060191
 30
0.0
 42
1.0
  0
VERTEX
  5
206
100
AcDbEntity
  8
TOPLAYER
100
AcDbVertex
100
AcDb2dVertex
 10
83.424913
 20
194.060191
 30
0.0
 42
1.0
  0
SEQEND
  5
207
100
AcDbEntity
  8
0
  0
POLYLINE
  5
208
100
AcDbEntity
  8
TOPLAYER
100
AcDb2dPolyline
 66
     1
 10
0.0
 20
0.0
 30
0.0
 70
     1
 40
0.127
 41
0.127
 75
     8
  0
VERTEX
  5
209
100
AcDbEntity
  8
TOPLAYER
100
AcDbVertex
100
AcDb2dVertex
 10
83.297913
 20
194.074999
 30
0.0
 42
1.0
  0
VERTEX
  5
20A
100
AcDbEntity
  8
TOPLAYER
100
AcDbVertex
100
AcDb2dVertex
 10
83.424913
 20
194.074999
 30
0.0
 42
1.0
  0
SEQEND
  5
20B
100
AcDbEntity
  8
0
  0
POLYLINE
  5
20C
100
AcDbEntity
  8
TOPLAYER
100
AcDb2dPolyline
 66
     1
 10
0.0
 20
0.0
 30
0.0
 40
0.254
 41
0.254
 75
     8
  0
VERTEX
  5
20D
100
AcDbEntity
  8
TOPLAYER
100
AcDbVertex
100
AcDb2dVertex
 10
83.361413
 20
193.374998
 30
0.0
  0
VERTEX
  5
20E
100
AcDbEntity
  8
TOPLAYER
100
AcDbVertex
100
AcDb2dVertex
 10
83.361413
 20
194.060191
 30
0.0
  0
SEQEND
  5
20F
100
AcDbEntity
  8
0
  0
POLYLINE
  5
210
100
AcDbEntity
  8
TOPLAYER
100
AcDb2dPolyline
 66
     1
 10
0.0
 20
0.0
 30
0.0
 70
     1
 40
0.127
 41
0.127
 75
     8
  0
VERTEX
  5
211
100
AcDbEntity
  8
TOPLAYER
100
AcDbVertex
100
AcDb2dVertex
 10
83.297913
 20
193.374998
 30
0.0
 42
1.0
  0
VERTEX
  5
212
100
AcDbEntity
  8
TOPLAYER
100
AcDbVertex
100
AcDb2dVertex
 10
83.424913
 20
193.374998
 30
0.0
 42
1.0
  0
SEQEND
  5
213
100
AcDbEntity
  8
0
  0
POLYLINE
  5
214
100
AcDbEntity
  8
TOPLAYER
100
AcDb2dPolyline
 66
     1
 10
0.0
 20
0.0
 30
0.0
 70
     1
 40
0.127
 41
0.127
 75
     8
  0
VERTEX
  5
215
100
AcDbEntity
  8
TOPLAYER
100
AcDbVertex
100
AcDb2dVertex
 10
83.297913
 20
194.060191
 30
0.0
 42
1.0
  0
VERTEX
  5
216
100
AcDbEntity
  8
TOPLAYER
100
AcDbVertex
100
AcDb2dVertex
 10
83.424913
 20
194.060191
 30
0.0
 42
1.0
  0
SEQEND
  5
217
100
AcDbEntity
  8
0
  0
POLYLINE
  5
218
100
AcDbEntity
  8
TOPLAYER
100
AcDb2dPolyline
 66
     1
 10
0.0
 20
0.0
 30
0.0
 40
0.254
 41
0.254
 75
     8
  0
VERTEX
  5
219
100
AcDbEntity
  8
TOPLAYER
100
AcDbVertex
100
AcDb2dVertex
 10
83.361413
 20
193.36019
 30
0.0
  0
VERTEX
  5
21A
100
AcDbEntity
  8
TOPLAYER
100
AcDbVertex
100
AcDb2dVertex
 10
83.361413
 20
193.374998
 30
0.0
  0
SEQEND
  5
21B
100
AcDbEntity
  8
0
  0
POLYLINE
  5
21C
100
AcDbEntity
  8
TOPLAYER
100
AcDb2dPolyline
 66
     1
 10
0.0
 20
0.0
 30
0.0
 70
     1
 40
0.127
 41
0.127
 75
     8
  0
VERTEX
  5
21D
100
AcDbEntity
  8
TOPLAYER
100
AcDbVertex
100
AcDb2dVertex
 10
83.297913
 20
193.36019
 30
0.0
 42
1.0
  0
VERTEX
  5
21E
100
AcDbEntity
  8
TOPLAYER
100
AcDbVertex
100
AcDb2dVertex
 10
83.424913
 20
193.36019
 30
0.0
 42
1.0
  0
SEQEND
  5
21F
100
AcDbEntity
  8
0
  0
POLYLINE
  5
220
100
AcDbEntity
  8
TOPLAYER
100
AcDb2dPolyline
 66
     1
 10
0.0
 20
0.0
 30
0.0
 70
     1
 40
0.127
 41
0.127
 75
     8
  0
VERTEX
  5
221
100
AcDbEntity
  8
TOPLAYER
100
AcDbVertex
100
AcDb2dVertex
 10
83.297913
 20
193.374998
 30
0.0
 42
1.0
  0
VERTEX
  5
222
100
AcDbEntity
  8
TOPLAYER
100
AcDbVertex
100
AcDb2dVertex
 10
83.424913
 20
193.374998
 30
0.0
 42
1.0
  0
SEQEND
  5
223
100
AcDbEntity
  8
0
  0
POLYLINE
  5
224
100
AcDbEntity
  8
TOPLAYER
100
AcDb2dPolyline
 66
     1
 10
0.0
 20
0.0
 30
0.0
 40
0.254
 41
0.254
 75
     8
  0
VERTEX
  5
225
100
AcDbEntity
  8
TOPLAYER
100
AcDbVertex
100
AcDb2dVertex
 10
83.361413
 20
191.741915
 30
0.0
  0
VERTEX
  5
226
100
AcDbEntity
  8
TOPLAYER
100
AcDbVertex
100
AcDb2dVertex
 10
83.361413
 20
193.36019
 30
0.0
  0
SEQEND
  5
227
100
AcDbEntity
  8
0
  0
POLYLINE
  5
228
100
AcDbEntity
  8
TOPLAYER
100
AcDb2dPolyline
 66
     1
 10
0.0
 20
0.0
 30
0.0
 70
     1
 40
0.127
 41
0.127
 75
     8
  0
VERTEX
  5
229
100
AcDbEntity
  8
TOPLAYER
100
AcDbVertex
100
AcDb2dVertex
 10
83.297913
 20
191.741915
 30
0.0
 42
1.0
  0
VERTEX
  5
22A
100
AcDbEntity
  8
TOPLAYER
100
AcDbVertex
100
AcDb2dVertex
 10
83.424913
 20
191.741915
 30
0.0
 42
1.0
  0
SEQEND
  5
22B
100
AcDbEntity
  8
0
  0
POLYLINE
  5
22C
100
AcDbEntity
  8
TOPLAYER
100
AcDb2dPolyline
 66
     1
 10
0.0
 20
0.0
 30
0.0
 70
     1
 40
0.127
 41
0.127
 75
     8
  0
VERTEX
  5
22D
100
AcDbEntity
  8
TOPLAYER
100
AcDbVertex
100
AcDb2dVertex
 10
83.297913
 20
193.36019
 30
0.0
 42
1.0
  0
VERTEX
  5
22E
100
AcDbEntity
  8
TOPLAYER
100
AcDbVertex
100
AcDb2dVertex
 10
83.424913
 20
193.36019
 30
0.0
 42
1.0
  0
SEQEND
  5
22F
100
AcDbEntity
  8
0
  0
POLYLINE
  5
230
100
AcDbEntity
  8
TOPLAYER
100
AcDb2dPolyline
 66
     1
 10
0.0
 20
0.0
 30
0.0
 40
0.254
 41
0.254
 75
     8
  0
VERTEX
  5
231
100
AcDbEntity
  8
TOPLAYER
100
AcDbVertex
100
AcDb2dVertex
 10
83.361413
 20
191.741915
 30
0.0
  0
VERTEX
  5
232
100
AcDbEntity
  8
TOPLAYER
100
AcDbVertex
100
AcDb2dVertex
 10
83.408939
 20
191.694389
 30
0.0
  0
SEQEND
  5
233
100
AcDbEntity
  8
0
  0
POLYLINE
  5
234
100
AcDbEntity
  8
TOPLAYER
100
AcDb2dPolyline
 66
     1
 10
0.0
 20
0.0
 30
0.0
 70
     1
 40
0.127
 41
0.127
 75
     8
  0
VERTEX
  5
235
100
AcDbEntity
  8
TOPLAYER
100
AcDbVertex
100
AcDb2dVertex
 10
83.297913
 20
191.741915
 30
0.0
 42
1.0
  0
VERTEX
  5
236
100
AcDbEntity
  8
TOPLAYER
100
AcDbVertex
100
AcDb2dVertex
 10
83.424913
 20
191.741915
 30
0.0
 42
1.0
  0
SEQEND
  5
237
100
AcDbEntity
  8
0
  0
POLYLINE
  5
238
100
AcDbEntity
  8
TOPLAYER
100
AcDb2dPolyline
 66
     1
 10
0.0
 20
0.0
 30
0.0
 70
     1
 40
0.127
 41
0.127
 75
     8
  0
VERTEX
  5
239
100
AcDbEntity
  8
TOPLAYER
100
AcDbVertex
100
AcDb2dVertex
 10
83.345439
 20
191.694389
 30
0.0
 42
1.0
  0
VERTEX
  5
23A
100
AcDbEntity
  8
TOPLAYER
100
AcDbVertex
100
AcDb2dVertex
 10
83.472439
 20
191.694389
 30
0.0
 42
1.0
  0
SEQEND
  5
23B
100
AcDbEntity
  8
0
  0
POLYLINE
  5
23C
100
AcDbEntity
  8
TOPLAYER
100
AcDb2dPolyline
 66
     1
 10
0.0
 20
0.0
 30
0.0
 40
0.254
 41
0.254
 75
     8
  0
VERTEX
  5
23D
100
AcDbEntity
  8
TOPLAYER
100
AcDbVertex
100
AcDb2dVertex
 10
83.871026
 20
192.232674
 30
0.0
  0
VERTEX
  5
23E
100
AcDbEntity
  8
TOPLAYER
100
AcDbVertex
100
AcDb2dVertex
 10
84.272539
 20
191.831161
 30
0.0
  0
SEQEND
  5
23F
100
AcDbEntity
  8
0
  0
POLYLINE
  5
240
100
AcDbEntity
  8
TOPLAYER
100
AcDb2dPolyline
 66
     1
 10
0.0
 20
0.0
 30
0.0
 70
     1
 40
0.127
 41
0.127
 75
     8
  0
VERTEX
  5
241
100
AcDbEntity
  8
TOPLAYER
100
AcDbVertex
100
AcDb2dVertex
 10
83.807526
 20
192.232674
 30
0.0
 42
1.0
  0
VERTEX
  5
242
100
AcDbEntity
  8
TOPLAYER
100
AcDbVertex
100
AcDb2dVertex
 10
83.934526
 20
192.232674
 30
0.0
 42
1.0
  0
SEQEND
  5
243
100
AcDbEntity
  8
0
  0
POLYLINE
  5
244
100
AcDbEntity
  8
TOPLAYER
100
AcDb2dPolyline
 66
     1
 10
0.0
 20
0.0
 30
0.0
 70
     1
 40
0.127
 41
0.127
 75
     8
  0
VERTEX
  5
245
100
AcDbEntity
  8
TOPLAYER
100
AcDbVertex
100
AcDb2dVertex
 10
84.209039
 20
191.831161
 30
0.0
 42
1.0
  0
VERTEX
  5
246
100
AcDbEntity
  8
TOPLAYER
100
AcDbVertex
100
AcDb2dVertex
 10
84.336039
 20
191.831161
 30
0.0
 42
1.0
  0
SEQEND
  5
247
100
AcDbEntity
  8
0
  0
POLYLINE
  5
248
100
AcDbEntity
  8
TOPLAYER
100
AcDb2dPolyline
 66
     1
 10
0.0
 20
0.0
 30
0.0
 40
0.254
 41
0.254
 75
     8
  0
VERTEX
  5
249
100
AcDbEntity
  8
TOPLAYER
100
AcDbVertex
100
AcDb2dVertex
 10
84.272539
 20
191.745189
 30
0.0
  0
VERTEX
  5
24A
100
AcDbEntity
  8
TOPLAYER
100
AcDbVertex
100
AcDb2dVertex
 10
84.272539
 20
191.831161
 30
0.0
  0
SEQEND
  5
24B
100
AcDbEntity
  8
0
  0
POLYLINE
  5
24C
100
AcDbEntity
  8
TOPLAYER
100
AcDb2dPolyline
 66
     1
 10
0.0
 20
0.0
 30
0.0
 70
     1
 40
0.127
 41
0.127
 75
     8
  0
VERTEX
  5
24D
100
AcDbEntity
  8
TOPLAYER
100
AcDbVertex
100
AcDb2dVertex
 10
84.209039
 20
191.745189
 30
0.0
 42
1.0
  0
VERTEX
  5
24E
100
AcDbEntity
  8
TOPLAYER
100
AcDbVertex
100
AcDb2dVertex
 10
84.336039
 20
191.745189
 30
0.0
 42
1.0
  0
SEQEND
  5
24F
100
AcDbEntity
  8
0
  0
POLYLINE
  5
250
100
AcDbEntity
  8
TOPLAYER
100
AcDb2dPolyline
 66
     1
 10
0.0
 20
0.0
 30
0.0
 70
     1
 40
0.127
 41
0.127
 75
     8
  0
VERTEX
  5
251
100
AcDbEntity
  8
TOPLAYER
100
AcDbVertex
100
AcDb2dVertex
 10
84.209039
 20
191.831161
 30
0.0
 42
1.0
  0
VERTEX
  5
252
100
AcDbEntity
  8
TOPLAYER
100
AcDbVertex
100
AcDb2dVertex
 10
84.336039
 20
191.831161
 30
0.0
 42
1.0
  0
SEQEND
  5
253
100
AcDbEntity
  8
0
  0
POLYLINE
  5
254
100
AcDbEntity
  8
TOPLAYER
100
AcDb2dPolyline
 66
     1
 10
0.0
 20
0.0
 30
0.0
 40
0.254
 41
0.254
 75
     8
  0
VERTEX
  5
255
100
AcDbEntity
  8
TOPLAYER
100
AcDbVertex
100
AcDb2dVertex
 10
81.783342
 20
191.694387
 30
0.0
  0
VERTEX
  5
256
100
AcDbEntity
  8
TOPLAYER
100
AcDbVertex
100
AcDb2dVertex
 10
82.392939
 20
191.694387
 30
0.0
  0
SEQEND
  5
257
100
AcDbEntity
  8
0
  0
POLYLINE
  5
258
100
AcDbEntity
  8
TOPLAYER
100
AcDb2dPolyline
 66
     1
 10
0.0
 20
0.0
 30
0.0
 70
     1
 40
0.127
 41
0.127
 75
     8
  0
VERTEX
  5
259
100
AcDbEntity
  8
TOPLAYER
100
AcDbVertex
100
AcDb2dVertex
 10
81.719842
 20
191.694387
 30
0.0
 42
1.0
  0
VERTEX
  5
25A
100
AcDbEntity
  8
TOPLAYER
100
AcDbVertex
100
AcDb2dVertex
 10
81.846842
 20
191.694387
 30
0.0
 42
1.0
  0
SEQEND
  5
25B
100
AcDbEntity
  8
0
  0
POLYLINE
  5
25C
100
AcDbEntity
  8
TOPLAYER
100
AcDb2dPolyline
 66
     1
 10
0.0
 20
0.0
 30
0.0
 70
     1
 40
0.127
 41
0.127
 75
     8
  0
VERTEX
  5
25D
100
AcDbEntity
  8
TOPLAYER
100
AcDbVertex
100
AcDb2dVertex
 10
82.329439
 20
191.694387
 30
0.0
 42
1.0
  0
VERTEX
  5
25E
100
AcDbEntity
  8
TOPLAYER
100
AcDbVertex
100
AcDb2dVertex
 10
82.456439
 20
191.694387
 30
0.0
 42
1.0
  0
SEQEND
  5
25F
100
AcDbEntity
  8
0
  0
POLYLINE
  5
260
100
AcDbEntity
  8
TOPLAYER
100
AcDb2dPolyline
 66
     1
 10
0.0
 20
0.0
 30
0.0
 40
0.254
 41
0.254
 75
     8
  0
VERTEX
  5
261
100
AcDbEntity
  8
TOPLAYER
100
AcDbVertex
100
AcDb2dVertex
 10
81.605539
 20
191.872189
 30
0.0
  0
VERTEX
  5
262
100
AcDbEntity
  8
TOPLAYER
100
AcDbVertex
100
AcDb2dVertex
 10
81.783342
 20
191.694387
 30
0.0
  0
SEQEND
  5
263
100
AcDbEntity
  8
0
  0
POLYLINE
  5
264
100
AcDbEntity
  8
TOPLAYER
100
AcDb2dPolyline
 66
     1
 10
0.0
 20
0.0
 30
0.0
 70
     1
 40
0.127
 41
0.127
 75
     8
  0
VERTEX
  5
265
100
AcDbEntity
  8
TOPLAYER
100
AcDbVertex
100
AcDb2dVertex
 10
81.542039
 20
191.872189
 30
0.0
 42
1.0
  0
VERTEX
  5
266
100
AcDbEntity
  8
TOPLAYER
100
AcDbVertex
100
AcDb2dVertex
 10
81.669039
 20
191.872189
 30
0.0
 42
1.0
  0
SEQEND
  5
267
100
AcDbEntity
  8
0
  0
POLYLINE
  5
268
100
AcDbEntity
  8
TOPLAYER
100
AcDb2dPolyline
 66
     1
 10
0.0
 20
0.0
 30
0.0
 70
     1
 40
0.127
 41
0.127
 75
     8
  0
VERTEX
  5
269
100
AcDbEntity
  8
TOPLAYER
100
AcDbVertex
100
AcDb2dVertex
 10
81.719842
 20
191.694387
 30
0.0
 42
1.0
  0
VERTEX
  5
26A
100
AcDbEntity
  8
TOPLAYER
100
AcDbVertex
100
AcDb2dVertex
 10
81.846842
 20
191.694387
 30
0.0
 42
1.0
  0
SEQEND
  5
26B
100
AcDbEntity
  8
0
  0
POLYLINE
  5
26C
100
AcDbEntity
  8
TOPLAYER
100
AcDb2dPolyline
 66
     1
 10
0.0
 20
0.0
 30
0.0
 40
0.254
 41
0.254
 75
     8
  0
VERTEX
  5
26D
100
AcDbEntity
  8
TOPLAYER
100
AcDbVertex
100
AcDb2dVertex
 10
81.605539
 20
191.872189
 30
0.0
  0
VERTEX
  5
26E
100
AcDbEntity
  8
TOPLAYER
100
AcDbVertex
100
AcDb2dVertex
 10
81.605539
 20
192.380189
 30
0.0
  0
SEQEND
  5
26F
100
AcDbEntity
  8
0
  0
POLYLINE
  5
270
100
AcDbEntity
  8
TOPLAYER
100
AcDb2dPolyline
 66
     1
 10
0.0
 20
0.0
 30
0.0
 70
     1
 40
0.127
 41
0.127
 75
     8
  0
VERTEX
  5
271
100
AcDbEntity
  8
TOPLAYER
100
AcDbVertex
100
AcDb2dVertex
 10
81.542039
 20
191.872189
 30
0.0
 42
1.0
  0
VERTEX
  5
272
100
AcDbEntity
  8
TOPLAYER
100
AcDbVertex
100
AcDb2dVertex
 10
81.669039
 20
191.872189
 30
0.0
 42
1.0
  0
SEQEND
  5
273
100
AcDbEntity
  8
0
  0
POLYLINE
  5
274
100
AcDbEntity
  8
TOPLAYER
100
AcDb2dPolyline
 66
     1
 10
0.0
 20
0.0
 30
0.0
 70
     1
 40
0.127
 41
0.127
 75
     8
  0
VERTEX
  5
275
100
AcDbEntity
  8
TOPLAYER
100
AcDbVertex
100
AcDb2dVertex
 10
81.542039
 20
192.380189
 30
0.0
 42
1.0
  0
VERTEX
  5
276
100
AcDbEntity
  8
TOPLAYER
100
AcDbVertex
100
AcDb2dVertex
 10
81.669039
 20
192.380189
 30
0.0
 42
1.0
  0
SEQEND
  5
277
100
AcDbEntity
  8
0
  0
POLYLINE
  5
278
100
AcDbEntity
  8
TOPLAYER
100
AcDb2dPolyline
 66
     1
 10
0.0
 20
0.0
 30
0.0
 40
0.508
 41
0.508
 75
     8
  0
VERTEX
  5
279
100
AcDbEntity
  8
TOPLAYER
100
AcDbVertex
100
AcDb2dVertex
 10
81.986539
 20
193.142189
 30
0.0
  0
VERTEX
  5
27A
100
AcDbEntity
  8
TOPLAYER
100
AcDbVertex
100
AcDb2dVertex
 10
82.219348
 20
193.374998
 30
0.0
  0
SEQEND
  5
27B
100
AcDbEntity
  8
0
  0
POLYLINE
  5
27C
100
AcDbEntity
  8
TOPLAYER
100
AcDb2dPolyline
 66
     1
 10
0.0
 20
0.0
 30
0.0
 70
     1
 40
0.254
 41
0.254
 75
     8
  0
VERTEX
  5
27D
100
AcDbEntity
  8
TOPLAYER
100
AcDbVertex
100
AcDb2dVertex
 10
81.859539
 20
193.142189
 30
0.0
 42
1.0
  0
VERTEX
  5
27E
100
AcDbEntity
  8
TOPLAYER
100
AcDbVertex
100
AcDb2dVertex
 10
82.113539
 20
193.142189
 30
0.0
 42
1.0
  0
SEQEND
  5
27F
100
AcDbEntity
  8
0
  0
POLYLINE
  5
280
100
AcDbEntity
  8
TOPLAYER
100
AcDb2dPolyline
 66
     1
 10
0.0
 20
0.0
 30
0.0
 70
     1
 40
0.254
 41
0.254
 75
     8
  0
VERTEX
  5
281
100
AcDbEntity
  8
TOPLAYER
100
AcDbVertex
100
AcDb2dVertex
 10
82.092348
 20
193.374998
 30
0.0
 42
1.0
  0
VERTEX
  5
282
100
AcDbEntity
  8
TOPLAYER
100
AcDbVertex
100
AcDb2dVertex
 10
82.346348
 20
193.374998
 30
0.0
 42
1.0
  0
SEQEND
  5
283
100
AcDbEntity
  8
0
  0
POLYLINE
  5
284
100
AcDbEntity
  8
TOPLAYER
100
AcDb2dPolyline
 66
     1
 10
0.0
 20
0.0
 30
0.0
 40
0.508
 41
0.508
 75
     8
  0
VERTEX
  5
285
100
AcDbEntity
  8
TOPLAYER
100
AcDbVertex
100
AcDb2dVertex
 10
82.324649
 20
195.004299
 30
0.0
  0
VERTEX
  5
286
100
AcDbEntity
  8
TOPLAYER
100
AcDbVertex
100
AcDb2dVertex
 10
82.367539
 20
195.047189
 30
0.0
  0
SEQEND
  5
287
100
AcDbEntity
  8
0
  0
POLYLINE
  5
288
100
AcDbEntity
  8
TOPLAYER
100
AcDb2dPolyline
 66
     1
 10
0.0
 20
0.0
 30
0.0
 70
     1
 40
0.254
 41
0.254
 75
     8
  0
VERTEX
  5
289
100
AcDbEntity
  8
TOPLAYER
100
AcDbVertex
100
AcDb2dVertex
 10
82.197649
 20
195.004299
 30
0.0
 42
1.0
  0
VERTEX
  5
28A
100
AcDbEntity
  8
TOPLAYER
100
AcDbVertex
100
AcDb2dVertex
 10
82.451649
 20
195.004299
 30
0.0
 42
1.0
  0
SEQEND
  5
28B
100
AcDbEntity
  8
0
  0
POLYLINE
  5
28C
100
AcDbEntity
  8
TOPLAYER
100
AcDb2dPolyline
 66
     1
 10
0.0
 20
0.0
 30
0.0
 70
     1
 40
0.254
 41
0.254
 75
     8
  0
VERTEX
  5
28D
100
AcDbEntity
  8
TOPLAYER
100
AcDbVertex
100
AcDb2dVertex
 10
82.240539
 20
195.047189
 30
0.0
 42
1.0
  0
VERTEX
  5
28E
100
AcDbEntity
  8
TOPLAYER
100
AcDbVertex
100
AcDb2dVertex
 10
82.494539
 20
195.047189
 30
0.0
 42
1.0
  0
SEQEND
  5
28F
100
AcDbEntity
  8
0
  0
POLYLINE
  5
290
100
AcDbEntity
  8
TOPLAYER
100
AcDb2dPolyline
 66
     1
 10
0.0
 20
0.0
 30
0.0
 40
0.508
 41
0.508
 75
     8
  0
VERTEX
  5
291
100
AcDbEntity
  8
TOPLAYER
100
AcDbVertex
100
AcDb2dVertex
 10
80.927649
 20
195.004299
 30
0.0
  0
VERTEX
  5
292
100
AcDbEntity
  8
TOPLAYER
100
AcDbVertex
100
AcDb2dVertex
 10
82.324649
 20
195.004299
 30
0.0
  0
SEQEND
  5
293
100
AcDbEntity
  8
0
  0
POLYLINE
  5
294
100
AcDbEntity
  8
TOPLAYER
100
AcDb2dPolyline
 66
     1
 10
0.0
 20
0.0
 30
0.0
 70
     1
 40
0.254
 41
0.254
 75
     8
  0
VERTEX
  5
295
100
AcDbEntity
  8
TOPLAYER
100
AcDbVertex
100
AcDb2dVertex
 10
80.800649
 20
195.004299
 30
0.0
 42
1.0
  0
VERTEX
  5
296
100
AcDbEntity
  8
TOPLAYER
100
AcDbVertex
100
AcDb2dVertex
 10
81.054649
 20
195.004299
 30
0.0
 42
1.0
  0
SEQEND
  5
297
100
AcDbEntity
  8
0
  0
POLYLINE
  5
298
100
AcDbEntity
  8
TOPLAYER
100
AcDb2dPolyline
 66
     1
 10
0.0
 20
0.0
 30
0.0
 70
     1
 40
0.254
 41
0.254
 75
     8
  0
VERTEX
  5
299
100
AcDbEntity
  8
TOPLAYER
100
AcDbVertex
100
AcDb2dVertex
 10
82.197649
 20
195.004299
 30
0.0
 42
1.0
  0
VERTEX
  5
29A
100
AcDbEntity
  8
TOPLAYER
100
AcDbVertex
100
AcDb2dVertex
 10
82.451649
 20
195.004299
 30
0.0
 42
1.0
  0
SEQEND
  5
29B
100
AcDbEntity
  8
0
  0
POLYLINE
  5
29C
100
AcDbEntity
  8
TOPLAYER
100
AcDb2dPolyline
 66
     1
 10
0.0
 20
0.0
 30
0.0
 40
0.508
 41
0.508
 75
     8
  0
VERTEX
  5
29D
100
AcDbEntity
  8
TOPLAYER
100
AcDbVertex
100
AcDb2dVertex
 10
80.208539
 20
194.285189
 30
0.0
  0
VERTEX
  5
29E
100
AcDbEntity
  8
TOPLAYER
100
AcDbVertex
100
AcDb2dVertex
 10
80.927649
 20
195.004299
 30
0.0
  0
SEQEND
  5
29F
100
AcDbEntity
  8
0
  0
POLYLINE
  5
2A0
100
AcDbEntity
  8
TOPLAYER
100
AcDb2dPolyline
 66
     1
 10
0.0
 20
0.0
 30
0.0
 70
     1
 40
0.254
 41
0.254
 75
     8
  0
VERTEX
  5
2A1
100
AcDbEntity
  8
TOPLAYER
100
AcDbVertex
100
AcDb2dVertex
 10
80.081539
 20
194.285189
 30
0.0
 42
1.0
  0
VERTEX
  5
2A2
100
AcDbEntity
  8
TOPLAYER
100
AcDbVertex
100
AcDb2dVertex
 10
80.335539
 20
194.285189
 30
0.0
 42
1.0
  0
SEQEND
  5
2A3
100
AcDbEntity
  8
0
  0
POLYLINE
  5
2A4
100
AcDbEntity
  8
TOPLAYER
100
AcDb2dPolyline
 66
     1
 10
0.0
 20
0.0
 30
0.0
 70
     1
 40
0.254
 41
0.254
 75
     8
  0
VERTEX
  5
2A5
100
AcDbEntity
  8
TOPLAYER
100
AcDbVertex
100
AcDb2dVertex
 10
80.800649
 20
195.004299
 30
0.0
 42
1.0
  0
VERTEX
  5
2A6
100
AcDbEntity
  8
TOPLAYER
100
AcDbVertex
100
AcDb2dVertex
 10
81.054649
 20
195.004299
 30
0.0
 42
1.0
  0
SEQEND
  5
2A7
100
AcDbEntity
  8
0
  0
POLYLINE
  5
2A8
100
AcDbEntity
  8
TOPLAYER
100
AcDb2dPolyline
 66
     1
 10
0.0
 20
0.0
 30
0.0
 40
0.508
 41
0.508
 75
     8
  0
VERTEX
  5
2A9
100
AcDbEntity
  8
TOPLAYER
100
AcDbVertex
100
AcDb2dVertex
 10
80.208539
 20
191.872189
 30
0.0
  0
VERTEX
  5
2AA
100
AcDbEntity
  8
TOPLAYER
100
AcDbVertex
100
AcDb2dVertex
 10
80.208539
 20
193.142189
 30
0.0
  0
SEQEND
  5
2AB
100
AcDbEntity
  8
0
  0
POLYLINE
  5
2AC
100
AcDbEntity
  8
TOPLAYER
100
AcDb2dPolyline
 66
     1
 10
0.0
 20
0.0
 30
0.0
 70
     1
 40
0.254
 41
0.254
 75
     8
  0
VERTEX
  5
2AD
100
AcDbEntity
  8
TOPLAYER
100
AcDbVertex
100
AcDb2dVertex
 10
80.081539
 20
191.872189
 30
0.0
 42
1.0
  0
VERTEX
  5
2AE
100
AcDbEntity
  8
TOPLAYER
100
AcDbVertex
100
AcDb2dVertex
 10
80.335539
 20
191.872189
 30
0.0
 42
1.0
  0
SEQEND
  5
2AF
100
AcDbEntity
  8
0
  0
POLYLINE
  5
2B0
100
AcDbEntity
  8
TOPLAYER
100
AcDb2dPolyline
 66
     1
 10
0.0
 20
0.0
 30
0.0
 70
     1
 40
0.254
 41
0.254
 75
     8
  0
VERTEX
  5
2B1
100
AcDbEntity
  8
TOPLAYER
100
AcDbVertex
100
AcDb2dVertex
 10
80.081539
 20
193.142189
 30
0.0
 42
1.0
  0
VERTEX
  5
2B2
100
AcDbEntity
  8
TOPLAYER
100
AcDbVertex
100
AcDb2dVertex
 10
80.335539
 20
193.142189
 30
0.0
 42
1.0
  0
SEQEND
  5
2B3
100
AcDbEntity
  8
0
  0
POLYLINE
  5
2B4
100
AcDbEntity
  8
TOPLAYER
100
AcDb2dPolyline
 66
     1
 10
0.0
 20
0.0
 30
0.0
 40
0.508
 41
0.508
 75
     8
  0
VERTEX
  5
2B5
100
AcDbEntity
  8
TOPLAYER
100
AcDbVertex
100
AcDb2dVertex
 10
80.208539
 20
193.142189
 30
0.0
  0
VERTEX
  5
2B6
100
AcDbEntity
  8
TOPLAYER
100
AcDbVertex
100
AcDb2dVertex
 10
80.208539
 20
194.285189
 30
0.0
  0
SEQEND
  5
2B7
100
AcDbEntity
  8
0
  0
POLYLINE
  5
2B8
100
AcDbEntity
  8
TOPLAYER
100
AcDb2dPolyline
 66
     1
 10
0.0
 20
0.0
 30
0.0
 70
     1
 40
0.254
 41
0.254
 75
     8
  0
VERTEX
  5
2B9
100
AcDbEntity
  8
TOPLAYER
100
AcDbVertex
100
AcDb2dVertex
 10
80.081539
 20
193.142189
 30
0.0
 42
1.0
  0
VERTEX
  5
2BA
100
AcDbEntity
  8
TOPLAYER
100
AcDbVertex
100
AcDb2dVertex
 10
80.335539
 20
193.142189
 30
0.0
 42
1.0
  0
SEQEND
  5
2BB
100
AcDbEntity
  8
0
  0
POLYLINE
  5
2BC
100
AcDbEntity
  8
TOPLAYER
100
AcDb2dPolyline
 66
     1
 10
0.0
 20
0.0
 30
0.0
 70
     1
 40
0.254
 41
0.254
 75
     8
  0
VERTEX
  5
2BD
100
AcDbEntity
  8
TOPLAYER
100
AcDbVertex
100
AcDb2dVertex
 10
80.081539
 20
194.285189
 30
0.0
 42
1.0
  0
VERTEX
  5
2BE
100
AcDbEntity
  8
TOPLAYER
100
AcDbVertex
100
AcDb2dVertex
 10
80.335539
 20
194.285189
 30
0.0
 42
1.0
  0
SEQEND
  5
2BF
100
AcDbEntity
  8
0
  0
POLYLINE
  5
2C0
100
AcDbEntity
  8
TOPLAYER
100
AcDb2dPolyline
 66
     1
 10
0.0
 20
0.0
 30
0.0
 40
0.508
 41
0.508
 75
     8
  0
VERTEX
  5
2C1
100
AcDbEntity
  8
TOPLAYER
100
AcDbVertex
100
AcDb2dVertex
 10
80.208539
 20
193.142189
 30
0.0
  0
VERTEX
  5
2C2
100
AcDbEntity
  8
TOPLAYER
100
AcDbVertex
100
AcDb2dVertex
 10
81.986539
 20
193.142189
 30
0.0
  0
SEQEND
  5
2C3
100
AcDbEntity
  8
0
  0
POLYLINE
  5
2C4
100
AcDbEntity
  8
TOPLAYER
100
AcDb2dPolyline
 66
     1
 10
0.0
 20
0.0
 30
0.0
 70
     1
 40
0.254
 41
0.254
 75
     8
  0
VERTEX
  5
2C5
100
AcDbEntity
  8
TOPLAYER
100
AcDbVertex
100
AcDb2dVertex
 10
80.081539
 20
193.142189
 30
0.0
 42
1.0
  0
VERTEX
  5
2C6
100
AcDbEntity
  8
TOPLAYER
100
AcDbVertex
100
AcDb2dVertex
 10
80.335539
 20
193.142189
 30
0.0
 42
1.0
  0
SEQEND
  5
2C7
100
AcDbEntity
  8
0
  0
POLYLINE
  5
2C8
100
AcDbEntity
  8
TOPLAYER
100
AcDb2dPolyline
 66
     1
 10
0.0
 20
0.0
 30
0.0
 70
     1
 40
0.254
 41
0.254
 75
     8
  0
VERTEX
  5
2C9
100
AcDbEntity
  8
TOPLAYER
100
AcDbVertex
100
AcDb2dVertex
 10
81.859539
 20
193.142189
 30
0.0
 42
1.0
  0
VERTEX
  5
2CA
100
AcDbEntity
  8
TOPLAYER
100
AcDbVertex
100
AcDb2dVertex
 10
82.113539
 20
193.142189
 30
0.0
 42
1.0
  0
SEQEND
  5
2CB
100
AcDbEntity
  8
0
  0
POLYLINE
  5
2CC
100
AcDbEntity
  8
MECHANICAL7
100
AcDb2dPolyline
 66
     1
 10
0.0
 20
0.0
 30
0.0
 70
     1
 40
0.127
 41
0.127
 75
     8
  0
VERTEX
  5
2CD
100
AcDbEntity
  8
MECHANICAL7
100
AcDbVertex
100
AcDb2dVertex
 10
83.761412
 20
193.374996
 30
0.0
 42
1.0
  0
VERTEX
  5
2CE
100
AcDbEntity
  8
MECHANICAL7
100
AcDbVertex
100
AcDb2dVertex
 10
82.961414
 20
193.374996
 30
0.0
 42
1.0
  0
SEQEND
  5
2CF
100
AcDbEntity
  8
0
  0
POLYLINE
  5
2D0
100
AcDbEntity
  8
MECHANICAL7
100
AcDb2dPolyline
 66
     1
 10
0.0
 20
0.0
 30
0.0
 70
     1
 40
0.0635
 41
0.0635
 75
     8
  0
VERTEX
  5
2D1
100
AcDbEntity
  8
MECHANICAL7
100
AcDbVertex
100
AcDb2dVertex
 10
83.729662
 20
193.374996
 30
0.0
 42
1.0
  0
VERTEX
  5
2D2
100
AcDbEntity
  8
MECHANICAL7
100
AcDbVertex
100
AcDb2dVertex
 10
83.793162
 20
193.374996
 30
0.0
 42
1.0
  0
SEQEND
  5
2D3
100
AcDbEntity
  8
0
  0
POLYLINE
  5
2D4
100
AcDbEntity
  8
MECHANICAL7
100
AcDb2dPolyline
 66
     1
 10
0.0
 20
0.0
 30
0.0
 70
     1
 40
0.0635
 41
0.0635
 75
     8
  0
VERTEX
  5
2D5
100
AcDbEntity
  8
MECHANICAL7
100
AcDbVertex
100
AcDb2dVertex
 10
82.929664
 20
193.374996
 30
0.0
 42
1.0
  0
VERTEX
  5
2D6
100
AcDbEntity
  8
MECHANICAL7
100
AcDbVertex
100
AcDb2dVertex
 10
82.993164
 20
193.374996
 30
0.0
 42
1.0
  0
SEQEND
  5
2D7
100
AcDbEntity
  8
0
  0
POLYLINE
  5
2D8
100
AcDbEntity
  8
KEEPOUTLAYER
100
AcDb2dPolyline
 66
     1
 10
0.0
 20
0.0
 30
0.0
 40
0.127
 41
0.127
 75
     8
  0
VERTEX
  5
2D9
100
AcDbEntity
  8
KEEPOUTLAYER
100
AcDbVertex
100
AcDb2dVertex
 10
70.247314
 20
191.86019
 30
0.0
 42
-0.414214
  0
VERTEX
  5
2DA
100
AcDbEntity
  8
KEEPOUTLAYER
100
AcDbVertex
100
AcDb2dVertex
 10
69.947312
 20
192.160192
 30
0.0
  0
SEQEND
  5
2DB
100
AcDbEntity
  8
0
  0
POLYLINE
  5
2DC
100
AcDbEntity
  8
KEEPOUTLAYER
100
AcDb2dPolyline
 66
     1
 10
0.0
 20
0.0
 30
0.0
 70
     1
 40
0.0635
 41
0.0635
 75
     8
  0
VERTEX
  5
2DD
100
AcDbEntity
  8
KEEPOUTLAYER
100
AcDbVertex
100
AcDb2dVertex
 10
70.215564
 20
191.86019
 30
0.0
 42
1.0
  0
VERTEX
  5
2DE
100
AcDbEntity
  8
KEEPOUTLAYER
100
AcDbVertex
100
AcDb2dVertex
 10
70.279064
 20
191.86019
 30
0.0
 42
1.0
  0
SEQEND
  5
2DF
100
AcDbEntity
  8
0
  0
POLYLINE
  5
2E0
100
AcDbEntity
  8
KEEPOUTLAYER
100
AcDb2dPolyline
 66
     1
 10
0.0
 20
0.0
 30
0.0
 70
     1
 40
0.0635
 41
0.0635
 75
     8
  0
VERTEX
  5
2E1
100
AcDbEntity
  8
KEEPOUTLAYER
100
AcDbVertex
100
AcDb2dVertex
 10
69.915562
 20
192.160192
 30
0.0
 42
1.0
  0
VERTEX
  5
2E2
100
AcDbEntity
  8
KEEPOUTLAYER
100
AcDbVertex
100
AcDb2dVertex
 10
69.979062
 20
192.160192
 30
0.0
 42
1.0
  0
SEQEND
  5
2E3
100
AcDbEntity
  8
0
  0
POLYLINE
  5
2E4
100
AcDbEntity
  8
KEEPOUTLAYER
100
AcDb2dPolyline
 66
     1
 10
0.0
 20
0.0
 30
0.0
 40
0.127
 41
0.127
 75
     8
  0
VERTEX
  5
2E5
100
AcDbEntity
  8
KEEPOUTLAYER
100
AcDbVertex
100
AcDb2dVertex
 10
69.94731
 20
194.56019
 30
0.0
 42
-0.414214
  0
VERTEX
  5
2E6
100
AcDbEntity
  8
KEEPOUTLAYER
100
AcDbVertex
100
AcDb2dVertex
 10
70.247309
 20
194.860189
 30
0.0
  0
SEQEND
  5
2E7
100
AcDbEntity
  8
0
  0
POLYLINE
  5
2E8
100
AcDbEntity
  8
KEEPOUTLAYER
100
AcDb2dPolyline
 66
     1
 10
0.0
 20
0.0
 30
0.0
 70
     1
 40
0.0635
 41
0.0635
 75
     8
  0
VERTEX
  5
2E9
100
AcDbEntity
  8
KEEPOUTLAYER
100
AcDbVertex
100
AcDb2dVertex
 10
69.91556
 20
194.56019
 30
0.0
 42
1.0
  0
VERTEX
  5
2EA
100
AcDbEntity
  8
KEEPOUTLAYER
100
AcDbVertex
100
AcDb2dVertex
 10
69.97906
 20
194.56019
 30
0.0
 42
1.0
  0
SEQEND
  5
2EB
100
AcDbEntity
  8
0
  0
POLYLINE
  5
2EC
100
AcDbEntity
  8
KEEPOUTLAYER
100
AcDb2dPolyline
 66
     1
 10
0.0
 20
0.0
 30
0.0
 70
     1
 40
0.0635
 41
0.0635
 75
     8
  0
VERTEX
  5
2ED
100
AcDbEntity
  8
KEEPOUTLAYER
100
AcDbVertex
100
AcDb2dVertex
 10
70.215559
 20
194.860189
 30
0.0
 42
1.0
  0
VERTEX
  5
2EE
100
AcDbEntity
  8
KEEPOUTLAYER
100
AcDbVertex
100
AcDb2dVertex
 10
70.279059
 20
194.860189
 30
0.0
 42
1.0
  0
SEQEND
  5
2EF
100
AcDbEntity
  8
0
  0
POLYLINE
  5
2F0
100
AcDbEntity
  8
KEEPOUTLAYER
100
AcDb2dPolyline
 66
     1
 10
0.0
 20
0.0
 30
0.0
 40
0.127
 41
0.127
 75
     8
  0
VERTEX
  5
2F1
100
AcDbEntity
  8
KEEPOUTLAYER
100
AcDbVertex
100
AcDb2dVertex
 10
77.004415
 20
191.860193
 30
0.0
 42
-0.414208
  0
VERTEX
  5
2F2
100
AcDbEntity
  8
KEEPOUTLAYER
100
AcDbVertex
100
AcDb2dVertex
 10
77.254412
 20
191.610191
 30
0.0
  0
SEQEND
  5
2F3
100
AcDbEntity
  8
0
  0
POLYLINE
  5
2F4
100
AcDbEntity
  8
KEEPOUTLAYER
100
AcDb2dPolyline
 66
     1
 10
0.0
 20
0.0
 30
0.0
 70
     1
 40
0.0635
 41
0.0635
 75
     8
  0
VERTEX
  5
2F5
100
AcDbEntity
  8
KEEPOUTLAYER
100
AcDbVertex
100
AcDb2dVertex
 10
76.972665
 20
191.860193
 30
0.0
 42
1.0
  0
VERTEX
  5
2F6
100
AcDbEntity
  8
KEEPOUTLAYER
100
AcDbVertex
100
AcDb2dVertex
 10
77.036165
 20
191.860193
 30
0.0
 42
1.0
  0
SEQEND
  5
2F7
100
AcDbEntity
  8
0
  0
POLYLINE
  5
2F8
100
AcDbEntity
  8
KEEPOUTLAYER
100
AcDb2dPolyline
 66
     1
 10
0.0
 20
0.0
 30
0.0
 70
     1
 40
0.0635
 41
0.0635
 75
     8
  0
VERTEX
  5
2F9
100
AcDbEntity
  8
KEEPOUTLAYER
100
AcDbVertex
100
AcDb2dVertex
 10
77.222662
 20
191.610191
 30
0.0
 42
1.0
  0
VERTEX
  5
2FA
100
AcDbEntity
  8
KEEPOUTLAYER
100
AcDbVertex
100
AcDb2dVertex
 10
77.286162
 20
191.610191
 30
0.0
 42
1.0
  0
SEQEND
  5
2FB
100
AcDbEntity
  8
0
  0
POLYLINE
  5
2FC
100
AcDbEntity
  8
KEEPOUTLAYER
100
AcDb2dPolyline
 66
     1
 10
0.0
 20
0.0
 30
0.0
 40
0.127
 41
0.127
 75
     8
  0
VERTEX
  5
2FD
100
AcDbEntity
  8
KEEPOUTLAYER
100
AcDbVertex
100
AcDb2dVertex
 10
77.504412
 20
191.110189
 30
0.0
 42
-0.414214
  0
VERTEX
  5
2FE
100
AcDbEntity
  8
KEEPOUTLAYER
100
AcDbVertex
100
AcDb2dVertex
 10
77.254412
 20
191.360189
 30
0.0
  0
SEQEND
  5
2FF
100
AcDbEntity
  8
0
  0
POLYLINE
  5
300
100
AcDbEntity
  8
KEEPOUTLAYER
100
AcDb2dPolyline
 66
     1
 10
0.0
 20
0.0
 30
0.0
 70
     1
 40
0.0635
 41
0.0635
 75
     8
  0
VERTEX
  5
301
100
AcDbEntity
  8
KEEPOUTLAYER
100
AcDbVertex
100
AcDb2dVertex
 10
77.472662
 20
191.110189
 30
0.0
 42
1.0
  0
VERTEX
  5
302
100
AcDbEntity
  8
KEEPOUTLAYER
100
AcDbVertex
100
AcDb2dVertex
 10
77.536162
 20
191.110189
 30
0.0
 42
1.0
  0
SEQEND
  5
303
100
AcDbEntity
  8
0
  0
POLYLINE
  5
304
100
AcDbEntity
  8
KEEPOUTLAYER
100
AcDb2dPolyline
 66
     1
 10
0.0
 20
0.0
 30
0.0
 70
     1
 40
0.0635
 41
0.0635
 75
     8
  0
VERTEX
  5
305
100
AcDbEntity
  8
KEEPOUTLAYER
100
AcDbVertex
100
AcDb2dVertex
 10
77.222662
 20
191.360189
 30
0.0
 42
1.0
  0
VERTEX
  5
306
100
AcDbEntity
  8
KEEPOUTLAYER
100
AcDbVertex
100
AcDb2dVertex
 10
77.286162
 20
191.360189
 30
0.0
 42
1.0
  0
SEQEND
  5
307
100
AcDbEntity
  8
0
  0
POLYLINE
  5
308
100
AcDbEntity
  8
KEEPOUTLAYER
100
AcDb2dPolyline
 66
     1
 10
0.0
 20
0.0
 30
0.0
 40
0.127
 41
0.127
 75
     8
  0
VERTEX
  5
309
100
AcDbEntity
  8
KEEPOUTLAYER
100
AcDbVertex
100
AcDb2dVertex
 10
77.254412
 20
195.360191
 30
0.0
 42
-0.414214
  0
VERTEX
  5
30A
100
AcDbEntity
  8
KEEPOUTLAYER
100
AcDbVertex
100
AcDb2dVertex
 10
77.504412
 20
195.61019
 30
0.0
  0
SEQEND
  5
30B
100
AcDbEntity
  8
0
  0
POLYLINE
  5
30C
100
AcDbEntity
  8
KEEPOUTLAYER
100
AcDb2dPolyline
 66
     1
 10
0.0
 20
0.0
 30
0.0
 70
     1
 40
0.0635
 41
0.0635
 75
     8
  0
VERTEX
  5
30D
100
AcDbEntity
  8
KEEPOUTLAYER
100
AcDbVertex
100
AcDb2dVertex
 10
77.222662
 20
195.360191
 30
0.0
 42
1.0
  0
VERTEX
  5
30E
100
AcDbEntity
  8
KEEPOUTLAYER
100
AcDbVertex
100
AcDb2dVertex
 10
77.286162
 20
195.360191
 30
0.0
 42
1.0
  0
SEQEND
  5
30F
100
AcDbEntity
  8
0
  0
POLYLINE
  5
310
100
AcDbEntity
  8
KEEPOUTLAYER
100
AcDb2dPolyline
 66
     1
 10
0.0
 20
0.0
 30
0.0
 70
     1
 40
0.0635
 41
0.0635
 75
     8
  0
VERTEX
  5
311
100
AcDbEntity
  8
KEEPOUTLAYER
100
AcDbVertex
100
AcDb2dVertex
 10
77.472662
 20
195.61019
 30
0.0
 42
1.0
  0
VERTEX
  5
312
100
AcDbEntity
  8
KEEPOUTLAYER
100
AcDbVertex
100
AcDb2dVertex
 10
77.536162
 20
195.61019
 30
0.0
 42
1.0
  0
SEQEND
  5
313
100
AcDbEntity
  8
0
  0
POLYLINE
  5
314
100
AcDbEntity
  8
KEEPOUTLAYER
100
AcDb2dPolyline
 66
     1
 10
0.0
 20
0.0
 30
0.0
 40
0.127
 41
0.127
 75
     8
  0
VERTEX
  5
315
100
AcDbEntity
  8
KEEPOUTLAYER
100
AcDbVertex
100
AcDb2dVertex
 10
77.254412
 20
195.110191
 30
0.0
 42
-0.414208
  0
VERTEX
  5
316
100
AcDbEntity
  8
KEEPOUTLAYER
100
AcDbVertex
100
AcDb2dVertex
 10
77.004415
 20
194.860189
 30
0.0
  0
SEQEND
  5
317
100
AcDbEntity
  8
0
  0
POLYLINE
  5
318
100
AcDbEntity
  8
KEEPOUTLAYER
100
AcDb2dPolyline
 66
     1
 10
0.0
 20
0.0
 30
0.0
 70
     1
 40
0.0635
 41
0.0635
 75
     8
  0
VERTEX
  5
319
100
AcDbEntity
  8
KEEPOUTLAYER
100
AcDbVertex
100
AcDb2dVertex
 10
77.222662
 20
195.110191
 30
0.0
 42
1.0
  0
VERTEX
  5
31A
100
AcDbEntity
  8
KEEPOUTLAYER
100
AcDbVertex
100
AcDb2dVertex
 10
77.286162
 20
195.110191
 30
0.0
 42
1.0
  0
SEQEND
  5
31B
100
AcDbEntity
  8
0
  0
POLYLINE
  5
31C
100
AcDbEntity
  8
KEEPOUTLAYER
100
AcDb2dPolyline
 66
     1
 10
0.0
 20
0.0
 30
0.0
 70
     1
 40
0.0635
 41
0.0635
 75
     8
  0
VERTEX
  5
31D
100
AcDbEntity
  8
KEEPOUTLAYER
100
AcDbVertex
100
AcDb2dVertex
 10
76.972665
 20
194.860189
 30
0.0
 42
1.0
  0
VERTEX
  5
31E
100
AcDbEntity
  8
KEEPOUTLAYER
100
AcDbVertex
100
AcDb2dVertex
 10
77.036165
 20
194.860189
 30
0.0
 42
1.0
  0
SEQEND
  5
31F
100
AcDbEntity
  8
0
  0
POLYLINE
  5
320
100
AcDbEntity
  8
KEEPOUTLAYER
100
AcDb2dPolyline
 66
     1
 10
0.0
 20
0.0
 30
0.0
 40
0.127
 41
0.127
 75
     8
  0
VERTEX
  5
321
100
AcDbEntity
  8
KEEPOUTLAYER
100
AcDbVertex
100
AcDb2dVertex
 10
84.861415
 20
191.610191
 30
0.0
 42
-0.414214
  0
VERTEX
  5
322
100
AcDbEntity
  8
KEEPOUTLAYER
100
AcDbVertex
100
AcDb2dVertex
 10
84.361541
 20
191.110189
 30
0.0
  0
SEQEND
  5
323
100
AcDbEntity
  8
0
  0
POLYLINE
  5
324
100
AcDbEntity
  8
KEEPOUTLAYER
100
AcDb2dPolyline
 66
     1
 10
0.0
 20
0.0
 30
0.0
 70
     1
 40
0.0635
 41
0.0635
 75
     8
  0
VERTEX
  5
325
100
AcDbEntity
  8
KEEPOUTLAYER
100
AcDbVertex
100
AcDb2dVertex
 10
84.829665
 20
191.610191
 30
0.0
 42
1.0
  0
VERTEX
  5
326
100
AcDbEntity
  8
KEEPOUTLAYER
100
AcDbVertex
100
AcDb2dVertex
 10
84.893165
 20
191.610191
 30
0.0
 42
1.0
  0
SEQEND
  5
327
100
AcDbEntity
  8
0
  0
POLYLINE
  5
328
100
AcDbEntity
  8
KEEPOUTLAYER
100
AcDb2dPolyline
 66
     1
 10
0.0
 20
0.0
 30
0.0
 70
     1
 40
0.0635
 41
0.0635
 75
     8
  0
VERTEX
  5
329
100
AcDbEntity
  8
KEEPOUTLAYER
100
AcDbVertex
100
AcDb2dVertex
 10
84.329791
 20
191.110189
 30
0.0
 42
1.0
  0
VERTEX
  5
32A
100
AcDbEntity
  8
KEEPOUTLAYER
100
AcDbVertex
100
AcDb2dVertex
 10
84.393291
 20
191.110189
 30
0.0
 42
1.0
  0
SEQEND
  5
32B
100
AcDbEntity
  8
0
  0
POLYLINE
  5
32C
100
AcDbEntity
  8
KEEPOUTLAYER
100
AcDb2dPolyline
 66
     1
 10
0.0
 20
0.0
 30
0.0
 40
0.127
 41
0.127
 75
     8
  0
VERTEX
  5
32D
100
AcDbEntity
  8
KEEPOUTLAYER
100
AcDbVertex
100
AcDb2dVertex
 10
84.361541
 20
195.61019
 30
0.0
 42
-0.414212
  0
VERTEX
  5
32E
100
AcDbEntity
  8
KEEPOUTLAYER
100
AcDbVertex
100
AcDb2dVertex
 10
84.861413
 20
195.110189
 30
0.0
  0
SEQEND
  5
32F
100
AcDbEntity
  8
0
  0
POLYLINE
  5
330
100
AcDbEntity
  8
KEEPOUTLAYER
100
AcDb2dPolyline
 66
     1
 10
0.0
 20
0.0
 30
0.0
 70
     1
 40
0.0635
 41
0.0635
 75
     8
  0
VERTEX
  5
331
100
AcDbEntity
  8
KEEPOUTLAYER
100
AcDbVertex
100
AcDb2dVertex
 10
84.329791
 20
195.61019
 30
0.0
 42
1.0
  0
VERTEX
  5
332
100
AcDbEntity
  8
KEEPOUTLAYER
100
AcDbVertex
100
AcDb2dVertex
 10
84.393291
 20
195.61019
 30
0.0
 42
1.0
  0
SEQEND
  5
333
100
AcDbEntity
  8
0
  0
POLYLINE
  5
334
100
AcDbEntity
  8
KEEPOUTLAYER
100
AcDb2dPolyline
 66
     1
 10
0.0
 20
0.0
 30
0.0
 70
     1
 40
0.0635
 41
0.0635
 75
     8
  0
VERTEX
  5
335
100
AcDbEntity
  8
KEEPOUTLAYER
100
AcDbVertex
100
AcDb2dVertex
 10
84.829663
 20
195.110189
 30
0.0
 42
1.0
  0
VERTEX
  5
336
100
AcDbEntity
  8
KEEPOUTLAYER
100
AcDbVertex
100
AcDb2dVertex
 10
84.893163
 20
195.110189
 30
0.0
 42
1.0
  0
SEQEND
  5
337
100
AcDbEntity
  8
0
  0
POLYLINE
  5
338
100
AcDbEntity
  8
TOPLAYER
100
AcDb2dPolyline
 66
     1
 10
0.0
 20
0.0
 30
0.0
 70
     1
 40
0.2794
 41
0.2794
 75
     8
  0
VERTEX
  5
339
100
AcDbEntity
  8
TOPLAYER
100
AcDbVertex
100
AcDb2dVertex
 10
79.306839
 20
191.872189
 30
0.0
 42
1.0
  0
VERTEX
  5
33A
100
AcDbEntity
  8
TOPLAYER
100
AcDbVertex
100
AcDb2dVertex
 10
79.586239
 20
191.872189
 30
0.0
 42
1.0
  0
SEQEND
  5
33B
100
AcDbEntity
  8
0
  0
POLYLINE
  5
33C
100
AcDbEntity
  8
BOTTOMLAYER
100
AcDb2dPolyline
 66
     1
 10
0.0
 20
0.0
 30
0.0
 70
     1
 40
0.2794
 41
0.2794
 75
     8
  0
VERTEX
  5
33D
100
AcDbEntity
  8
BOTTOMLAYER
100
AcDbVertex
100
AcDb2dVertex
 10
79.306839
 20
191.872189
 30
0.0
 42
1.0
  0
VERTEX
  5
33E
100
AcDbEntity
  8
BOTTOMLAYER
100
AcDbVertex
100
AcDb2dVertex
 10
79.586239
 20
191.872189
 30
0.0
 42
1.0
  0
SEQEND
  5
33F
100
AcDbEntity
  8
0
  0
POLYLINE
  5
340
100
AcDbEntity
  8
MULTILAYER
100
AcDb2dPolyline
 66
     1
 10
0.0
 20
0.0
 30
0.0
 70
     1
 40
0.2794
 41
0.2794
 75
     8
  0
VERTEX
  5
341
100
AcDbEntity
  8
MULTILAYER
100
AcDbVertex
100
AcDb2dVertex
 10
79.306839
 20
191.872189
 30
0.0
 42
1.0
  0
VERTEX
  5
342
100
AcDbEntity
  8
MULTILAYER
100
AcDbVertex
100
AcDb2dVertex
 10
79.586239
 20
191.872189
 30
0.0
 42
1.0
  0
SEQEND
  5
343
100
AcDbEntity
  8
0
  0
POLYLINE
  5
344
100
AcDbEntity
  8
VIAHOLELAYER
100
AcDb2dPolyline
 66
     1
 10
0.0
 20
0.0
 30
0.0
 70
     1
 40
0.1524
 41
0.1524
 75
     8
  0
VERTEX
  5
345
100
AcDbEntity
  8
VIAHOLELAYER
100
AcDbVertex
100
AcDb2dVertex
 10
79.370339
 20
191.872189
 30
0.0
 42
1.0
  0
VERTEX
  5
346
100
AcDbEntity
  8
VIAHOLELAYER
100
AcDbVertex
100
AcDb2dVertex
 10
79.522739
 20
191.872189
 30
0.0
 42
1.0
  0
SEQEND
  5
347
100
AcDbEntity
  8
0
  0
POLYLINE
  5
348
100
AcDbEntity
  8
TOPLAYER
100
AcDb2dPolyline
 66
     1
 10
0.0
 20
0.0
 30
0.0
 70
     1
 40
0.2794
 41
0.2794
 75
     8
  0
VERTEX
  5
349
100
AcDbEntity
  8
TOPLAYER
100
AcDbVertex
100
AcDb2dVertex
 10
78.544839
 20
191.872189
 30
0.0
 42
1.0
  0
VERTEX
  5
34A
100
AcDbEntity
  8
TOPLAYER
100
AcDbVertex
100
AcDb2dVertex
 10
78.824239
 20
191.872189
 30
0.0
 42
1.0
  0
SEQEND
  5
34B
100
AcDbEntity
  8
0
  0
POLYLINE
  5
34C
100
AcDbEntity
  8
BOTTOMLAYER
100
AcDb2dPolyline
 66
     1
 10
0.0
 20
0.0
 30
0.0
 70
     1
 40
0.2794
 41
0.2794
 75
     8
  0
VERTEX
  5
34D
100
AcDbEntity
  8
BOTTOMLAYER
100
AcDbVertex
100
AcDb2dVertex
 10
78.544839
 20
191.872189
 30
0.0
 42
1.0
  0
VERTEX
  5
34E
100
AcDbEntity
  8
BOTTOMLAYER
100
AcDbVertex
100
AcDb2dVertex
 10
78.824239
 20
191.872189
 30
0.0
 42
1.0
  0
SEQEND
  5
34F
100
AcDbEntity
  8
0
  0
POLYLINE
  5
350
100
AcDbEntity
  8
MULTILAYER
100
AcDb2dPolyline
 66
     1
 10
0.0
 20
0.0
 30
0.0
 70
     1
 40
0.2794
 41
0.2794
 75
     8
  0
VERTEX
  5
351
100
AcDbEntity
  8
MULTILAYER
100
AcDbVertex
100
AcDb2dVertex
 10
78.544839
 20
191.872189
 30
0.0
 42
1.0
  0
VERTEX
  5
352
100
AcDbEntity
  8
MULTILAYER
100
AcDbVertex
100
AcDb2dVertex
 10
78.824239
 20
191.872189
 30
0.0
 42
1.0
  0
SEQEND
  5
353
100
AcDbEntity
  8
0
  0
POLYLINE
  5
354
100
AcDbEntity
  8
VIAHOLELAYER
100
AcDb2dPolyline
 66
     1
 10
0.0
 20
0.0
 30
0.0
 70
     1
 40
0.1524
 41
0.1524
 75
     8
  0
VERTEX
  5
355
100
AcDbEntity
  8
VIAHOLELAYER
100
AcDbVertex
100
AcDb2dVertex
 10
78.608339
 20
191.872189
 30
0.0
 42
1.0
  0
VERTEX
  5
356
100
AcDbEntity
  8
VIAHOLELAYER
100
AcDbVertex
100
AcDb2dVertex
 10
78.760739
 20
191.872189
 30
0.0
 42
1.0
  0
SEQEND
  5
357
100
AcDbEntity
  8
0
  0
POLYLINE
  5
358
100
AcDbEntity
  8
TOPLAYER
100
AcDb2dPolyline
 66
     1
 10
0.0
 20
0.0
 30
0.0
 70
     1
 40
0.2794
 41
0.2794
 75
     8
  0
VERTEX
  5
359
100
AcDbEntity
  8
TOPLAYER
100
AcDbVertex
100
AcDb2dVertex
 10
84.132839
 20
191.745189
 30
0.0
 42
1.0
  0
VERTEX
  5
35A
100
AcDbEntity
  8
TOPLAYER
100
AcDbVertex
100
AcDb2dVertex
 10
84.412239
 20
191.745189
 30
0.0
 42
1.0
  0
SEQEND
  5
35B
100
AcDbEntity
  8
0
  0
POLYLINE
  5
35C
100
AcDbEntity
  8
BOTTOMLAYER
100
AcDb2dPolyline
 66
     1
 10
0.0
 20
0.0
 30
0.0
 70
     1
 40
0.2794
 41
0.2794
 75
     8
  0
VERTEX
  5
35D
100
AcDbEntity
  8
BOTTOMLAYER
100
AcDbVertex
100
AcDb2dVertex
 10
84.132839
 20
191.745189
 30
0.0
 42
1.0
  0
VERTEX
  5
35E
100
AcDbEntity
  8
BOTTOMLAYER
100
AcDbVertex
100
AcDb2dVertex
 10
84.412239
 20
191.745189
 30
0.0
 42
1.0
  0
SEQEND
  5
35F
100
AcDbEntity
  8
0
  0
POLYLINE
  5
360
100
AcDbEntity
  8
MULTILAYER
100
AcDb2dPolyline
 66
     1
 10
0.0
 20
0.0
 30
0.0
 70
     1
 40
0.2794
 41
0.2794
 75
     8
  0
VERTEX
  5
361
100
AcDbEntity
  8
MULTILAYER
100
AcDbVertex
100
AcDb2dVertex
 10
84.132839
 20
191.745189
 30
0.0
 42
1.0
  0
VERTEX
  5
362
100
AcDbEntity
  8
MULTILAYER
100
AcDbVertex
100
AcDb2dVertex
 10
84.412239
 20
191.745189
 30
0.0
 42
1.0
  0
SEQEND
  5
363
100
AcDbEntity
  8
0
  0
POLYLINE
  5
364
100
AcDbEntity
  8
VIAHOLELAYER
100
AcDb2dPolyline
 66
     1
 10
0.0
 20
0.0
 30
0.0
 70
     1
 40
0.1524
 41
0.1524
 75
     8
  0
VERTEX
  5
365
100
AcDbEntity
  8
VIAHOLELAYER
100
AcDbVertex
100
AcDb2dVertex
 10
84.196339
 20
191.745189
 30
0.0
 42
1.0
  0
VERTEX
  5
366
100
AcDbEntity
  8
VIAHOLELAYER
100
AcDbVertex
100
AcDb2dVertex
 10
84.348739
 20
191.745189
 30
0.0
 42
1.0
  0
SEQEND
  5
367
100
AcDbEntity
  8
0
  0
POLYLINE
  5
368
100
AcDbEntity
  8
TOPLAYER
100
AcDb2dPolyline
 66
     1
 10
0.0
 20
0.0
 30
0.0
 70
     1
 40
0.2794
 41
0.2794
 75
     8
  0
VERTEX
  5
369
100
AcDbEntity
  8
TOPLAYER
100
AcDbVertex
100
AcDb2dVertex
 10
84.132839
 20
195.047189
 30
0.0
 42
1.0
  0
VERTEX
  5
36A
100
AcDbEntity
  8
TOPLAYER
100
AcDbVertex
100
AcDb2dVertex
 10
84.412239
 20
195.047189
 30
0.0
 42
1.0
  0
SEQEND
  5
36B
100
AcDbEntity
  8
0
  0
POLYLINE
  5
36C
100
AcDbEntity
  8
BOTTOMLAYER
100
AcDb2dPolyline
 66
     1
 10
0.0
 20
0.0
 30
0.0
 70
     1
 40
0.2794
 41
0.2794
 75
     8
  0
VERTEX
  5
36D
100
AcDbEntity
  8
BOTTOMLAYER
100
AcDbVertex
100
AcDb2dVertex
 10
84.132839
 20
195.047189
 30
0.0
 42
1.0
  0
VERTEX
  5
36E
100
AcDbEntity
  8
BOTTOMLAYER
100
AcDbVertex
100
AcDb2dVertex
 10
84.412239
 20
195.047189
 30
0.0
 42
1.0
  0
SEQEND
  5
36F
100
AcDbEntity
  8
0
  0
POLYLINE
  5
370
100
AcDbEntity
  8
MULTILAYER
100
AcDb2dPolyline
 66
     1
 10
0.0
 20
0.0
 30
0.0
 70
     1
 40
0.2794
 41
0.2794
 75
     8
  0
VERTEX
  5
371
100
AcDbEntity
  8
MULTILAYER
100
AcDbVertex
100
AcDb2dVertex
 10
84.132839
 20
195.047189
 30
0.0
 42
1.0
  0
VERTEX
  5
372
100
AcDbEntity
  8
MULTILAYER
100
AcDbVertex
100
AcDb2dVertex
 10
84.412239
 20
195.047189
 30
0.0
 42
1.0
  0
SEQEND
  5
373
100
AcDbEntity
  8
0
  0
POLYLINE
  5
374
100
AcDbEntity
  8
VIAHOLELAYER
100
AcDb2dPolyline
 66
     1
 10
0.0
 20
0.0
 30
0.0
 70
     1
 40
0.1524
 41
0.1524
 75
     8
  0
VERTEX
  5
375
100
AcDbEntity
  8
VIAHOLELAYER
100
AcDbVertex
100
AcDb2dVertex
 10
84.196339
 20
195.047189
 30
0.0
 42
1.0
  0
VERTEX
  5
376
100
AcDbEntity
  8
VIAHOLELAYER
100
AcDbVertex
100
AcDb2dVertex
 10
84.348739
 20
195.047189
 30
0.0
 42
1.0
  0
SEQEND
  5
377
100
AcDbEntity
  8
0
  0
POLYLINE
  5
378
100
AcDbEntity
  8
TOPLAYER
100
AcDb2dPolyline
 66
     1
 10
0.0
 20
0.0
 30
0.0
 70
     1
 40
0.2794
 41
0.2794
 75
     8
  0
VERTEX
  5
379
100
AcDbEntity
  8
TOPLAYER
100
AcDbVertex
100
AcDb2dVertex
 10
81.465839
 20
194.031189
 30
0.0
 42
1.0
  0
VERTEX
  5
37A
100
AcDbEntity
  8
TOPLAYER
100
AcDbVertex
100
AcDb2dVertex
 10
81.745239
 20
194.031189
 30
0.0
 42
1.0
  0
SEQEND
  5
37B
100
AcDbEntity
  8
0
  0
POLYLINE
  5
37C
100
AcDbEntity
  8
BOTTOMLAYER
100
AcDb2dPolyline
 66
     1
 10
0.0
 20
0.0
 30
0.0
 70
     1
 40
0.2794
 41
0.2794
 75
     8
  0
VERTEX
  5
37D
100
AcDbEntity
  8
BOTTOMLAYER
100
AcDbVertex
100
AcDb2dVertex
 10
81.465839
 20
194.031189
 30
0.0
 42
1.0
  0
VERTEX
  5
37E
100
AcDbEntity
  8
BOTTOMLAYER
100
AcDbVertex
100
AcDb2dVertex
 10
81.745239
 20
194.031189
 30
0.0
 42
1.0
  0
SEQEND
  5
37F
100
AcDbEntity
  8
0
  0
POLYLINE
  5
380
100
AcDbEntity
  8
MULTILAYER
100
AcDb2dPolyline
 66
     1
 10
0.0
 20
0.0
 30
0.0
 70
     1
 40
0.2794
 41
0.2794
 75
     8
  0
VERTEX
  5
381
100
AcDbEntity
  8
MULTILAYER
100
AcDbVertex
100
AcDb2dVertex
 10
81.465839
 20
194.031189
 30
0.0
 42
1.0
  0
VERTEX
  5
382
100
AcDbEntity
  8
MULTILAYER
100
AcDbVertex
100
AcDb2dVertex
 10
81.745239
 20
194.031189
 30
0.0
 42
1.0
  0
SEQEND
  5
383
100
AcDbEntity
  8
0
  0
POLYLINE
  5
384
100
AcDbEntity
  8
VIAHOLELAYER
100
AcDb2dPolyline
 66
     1
 10
0.0
 20
0.0
 30
0.0
 70
     1
 40
0.1524
 41
0.1524
 75
     8
  0
VERTEX
  5
385
100
AcDbEntity
  8
VIAHOLELAYER
100
AcDbVertex
100
AcDb2dVertex
 10
81.529339
 20
194.031189
 30
0.0
 42
1.0
  0
VERTEX
  5
386
100
AcDbEntity
  8
VIAHOLELAYER
100
AcDbVertex
100
AcDb2dVertex
 10
81.681739
 20
194.031189
 30
0.0
 42
1.0
  0
SEQEND
  5
387
100
AcDbEntity
  8
0
  0
POLYLINE
  5
388
100
AcDbEntity
  8
TOPLAYER
100
AcDb2dPolyline
 66
     1
 10
0.0
 20
0.0
 30
0.0
 70
     1
 40
0.2794
 41
0.2794
 75
     8
  0
VERTEX
  5
389
100
AcDbEntity
  8
TOPLAYER
100
AcDbVertex
100
AcDb2dVertex
 10
81.465839
 20
192.380189
 30
0.0
 42
1.0
  0
VERTEX
  5
38A
100
AcDbEntity
  8
TOPLAYER
100
AcDbVertex
100
AcDb2dVertex
 10
81.745239
 20
192.380189
 30
0.0
 42
1.0
  0
SEQEND
  5
38B
100
AcDbEntity
  8
0
  0
POLYLINE
  5
38C
100
AcDbEntity
  8
BOTTOMLAYER
100
AcDb2dPolyline
 66
     1
 10
0.0
 20
0.0
 30
0.0
 70
     1
 40
0.2794
 41
0.2794
 75
     8
  0
VERTEX
  5
38D
100
AcDbEntity
  8
BOTTOMLAYER
100
AcDbVertex
100
AcDb2dVertex
 10
81.465839
 20
192.380189
 30
0.0
 42
1.0
  0
VERTEX
  5
38E
100
AcDbEntity
  8
BOTTOMLAYER
100
AcDbVertex
100
AcDb2dVertex
 10
81.745239
 20
192.380189
 30
0.0
 42
1.0
  0
SEQEND
  5
38F
100
AcDbEntity
  8
0
  0
POLYLINE
  5
390
100
AcDbEntity
  8
MULTILAYER
100
AcDb2dPolyline
 66
     1
 10
0.0
 20
0.0
 30
0.0
 70
     1
 40
0.2794
 41
0.2794
 75
     8
  0
VERTEX
  5
391
100
AcDbEntity
  8
MULTILAYER
100
AcDbVertex
100
AcDb2dVertex
 10
81.465839
 20
192.380189
 30
0.0
 42
1.0
  0
VERTEX
  5
392
100
AcDbEntity
  8
MULTILAYER
100
AcDbVertex
100
AcDb2dVertex
 10
81.745239
 20
192.380189
 30
0.0
 42
1.0
  0
SEQEND
  5
393
100
AcDbEntity
  8
0
  0
POLYLINE
  5
394
100
AcDbEntity
  8
VIAHOLELAYER
100
AcDb2dPolyline
 66
     1
 10
0.0
 20
0.0
 30
0.0
 70
     1
 40
0.1524
 41
0.1524
 75
     8
  0
VERTEX
  5
395
100
AcDbEntity
  8
VIAHOLELAYER
100
AcDbVertex
100
AcDb2dVertex
 10
81.529339
 20
192.380189
 30
0.0
 42
1.0
  0
VERTEX
  5
396
100
AcDbEntity
  8
VIAHOLELAYER
100
AcDbVertex
100
AcDb2dVertex
 10
81.681739
 20
192.380189
 30
0.0
 42
1.0
  0
SEQEND
  5
397
100
AcDbEntity
  8
0
  0
POLYLINE
  5
398
100
AcDbEntity
  8
TOPLAYER
100
AcDb2dPolyline
 66
     1
 10
0.0
 20
0.0
 30
0.0
 70
     1
 40
0.2794
 41
0.2794
 75
     8
  0
VERTEX
  5
399
100
AcDbEntity
  8
TOPLAYER
100
AcDbVertex
100
AcDb2dVertex
 10
80.068839
 20
191.872189
 30
0.0
 42
1.0
  0
VERTEX
  5
39A
100
AcDbEntity
  8
TOPLAYER
100
AcDbVertex
100
AcDb2dVertex
 10
80.348239
 20
191.872189
 30
0.0
 42
1.0
  0
SEQEND
  5
39B
100
AcDbEntity
  8
0
  0
POLYLINE
  5
39C
100
AcDbEntity
  8
BOTTOMLAYER
100
AcDb2dPolyline
 66
     1
 10
0.0
 20
0.0
 30
0.0
 70
     1
 40
0.2794
 41
0.2794
 75
     8
  0
VERTEX
  5
39D
100
AcDbEntity
  8
BOTTOMLAYER
100
AcDbVertex
100
AcDb2dVertex
 10
80.068839
 20
191.872189
 30
0.0
 42
1.0
  0
VERTEX
  5
39E
100
AcDbEntity
  8
BOTTOMLAYER
100
AcDbVertex
100
AcDb2dVertex
 10
80.348239
 20
191.872189
 30
0.0
 42
1.0
  0
SEQEND
  5
39F
100
AcDbEntity
  8
0
  0
POLYLINE
  5
3A0
100
AcDbEntity
  8
MULTILAYER
100
AcDb2dPolyline
 66
     1
 10
0.0
 20
0.0
 30
0.0
 70
     1
 40
0.2794
 41
0.2794
 75
     8
  0
VERTEX
  5
3A1
100
AcDbEntity
  8
MULTILAYER
100
AcDbVertex
100
AcDb2dVertex
 10
80.068839
 20
191.872189
 30
0.0
 42
1.0
  0
VERTEX
  5
3A2
100
AcDbEntity
  8
MULTILAYER
100
AcDbVertex
100
AcDb2dVertex
 10
80.348239
 20
191.872189
 30
0.0
 42
1.0
  0
SEQEND
  5
3A3
100
AcDbEntity
  8
0
  0
POLYLINE
  5
3A4
100
AcDbEntity
  8
VIAHOLELAYER
100
AcDb2dPolyline
 66
     1
 10
0.0
 20
0.0
 30
0.0
 70
     1
 40
0.1524
 41
0.1524
 75
     8
  0
VERTEX
  5
3A5
100
AcDbEntity
  8
VIAHOLELAYER
100
AcDbVertex
100
AcDb2dVertex
 10
80.132339
 20
191.872189
 30
0.0
 42
1.0
  0
VERTEX
  5
3A6
100
AcDbEntity
  8
VIAHOLELAYER
100
AcDbVertex
100
AcDb2dVertex
 10
80.284739
 20
191.872189
 30
0.0
 42
1.0
  0
SEQEND
  5
3A7
100
AcDbEntity
  8
0
  0
SOLID
  5
3A8
100
AcDbEntity
  8
BOTTOMLAYER
100
AcDbTrace
 10
71.997313
 20
192.185193
 30
0.0
 11
71.997313
 21
192.53519
 31
0.0
 12
69.997312
 22
192.185193
 32
0.0
 13
69.997312
 23
192.53519
 33
0.0
  0
SOLID
  5
3A9
100
AcDbEntity
  8
BOTTOMPASTE
100
AcDbTrace
 10
71.997313
 20
192.185193
 30
0.0
 11
71.997313
 21
192.53519
 31
0.0
 12
69.997312
 22
192.185193
 32
0.0
 13
69.997312
 23
192.53519
 33
0.0
  0
SOLID
  5
3AA
100
AcDbEntity
  8
BOTTOMSOLDER
100
AcDbTrace
 10
72.098913
 20
192.083593
 30
0.0
 11
72.098913
 21
192.63679
 31
0.0
 12
69.895712
 22
192.083593
 32
0.0
 13
69.895712
 23
192.63679
 33
0.0
  0
SOLID
  5
3AB
100
AcDbEntity
  8
BOTTOMLAYER
100
AcDbTrace
 10
71.997313
 20
192.685195
 30
0.0
 11
71.997313
 21
193.035192
 31
0.0
 12
69.997312
 22
192.685195
 32
0.0
 13
69.997312
 23
193.035192
 33
0.0
  0
SOLID
  5
3AC
100
AcDbEntity
  8
BOTTOMPASTE
100
AcDbTrace
 10
71.997313
 20
192.685195
 30
0.0
 11
71.997313
 21
193.035192
 31
0.0
 12
69.997312
 22
192.685195
 32
0.0
 13
69.997312
 23
193.035192
 33
0.0
  0
SOLID
  5
3AD
100
AcDbEntity
  8
BOTTOMSOLDER
100
AcDbTrace
 10
72.098913
 20
192.583595
 30
0.0
 11
72.098913
 21
193.136792
 31
0.0
 12
69.895712
 22
192.583595
 32
0.0
 13
69.895712
 23
193.136792
 33
0.0
  0
SOLID
  5
3AE
100
AcDbEntity
  8
BOTTOMLAYER
100
AcDbTrace
 10
71.997313
 20
193.185194
 30
0.0
 11
71.997313
 21
193.535191
 31
0.0
 12
69.997312
 22
193.185194
 32
0.0
 13
69.997312
 23
193.535191
 33
0.0
  0
SOLID
  5
3AF
100
AcDbEntity
  8
BOTTOMPASTE
100
AcDbTrace
 10
71.997313
 20
193.185194
 30
0.0
 11
71.997313
 21
193.535191
 31
0.0
 12
69.997312
 22
193.185194
 32
0.0
 13
69.997312
 23
193.535191
 33
0.0
  0
SOLID
  5
3B0
100
AcDbEntity
  8
BOTTOMSOLDER
100
AcDbTrace
 10
72.098913
 20
193.083594
 30
0.0
 11
72.098913
 21
193.636791
 31
0.0
 12
69.895712
 22
193.083594
 32
0.0
 13
69.895712
 23
193.636791
 33
0.0
  0
SOLID
  5
3B1
100
AcDbEntity
  8
BOTTOMLAYER
100
AcDbTrace
 10
71.997313
 20
193.685193
 30
0.0
 11
71.997313
 21
194.03519
 31
0.0
 12
69.997312
 22
193.685193
 32
0.0
 13
69.997312
 23
194.03519
 33
0.0
  0
SOLID
  5
3B2
100
AcDbEntity
  8
BOTTOMPASTE
100
AcDbTrace
 10
71.997313
 20
193.685193
 30
0.0
 11
71.997313
 21
194.03519
 31
0.0
 12
69.997312
 22
193.685193
 32
0.0
 13
69.997312
 23
194.03519
 33
0.0
  0
SOLID
  5
3B3
100
AcDbEntity
  8
BOTTOMSOLDER
100
AcDbTrace
 10
72.098913
 20
193.583593
 30
0.0
 11
72.098913
 21
194.13679
 31
0.0
 12
69.895712
 22
193.583593
 32
0.0
 13
69.895712
 23
194.13679
 33
0.0
  0
SOLID
  5
3B4
100
AcDbEntity
  8
BOTTOMLAYER
100
AcDbTrace
 10
71.997313
 20
194.185195
 30
0.0
 11
71.997313
 21
194.535191
 31
0.0
 12
69.997312
 22
194.185195
 32
0.0
 13
69.997312
 23
194.535191
 33
0.0
  0
SOLID
  5
3B5
100
AcDbEntity
  8
BOTTOMPASTE
100
AcDbTrace
 10
71.997313
 20
194.185195
 30
0.0
 11
71.997313
 21
194.535191
 31
0.0
 12
69.997312
 22
194.185195
 32
0.0
 13
69.997312
 23
194.535191
 33
0.0
  0
SOLID
  5
3B6
100
AcDbEntity
  8
BOTTOMSOLDER
100
AcDbTrace
 10
72.098913
 20
194.083595
 30
0.0
 11
72.098913
 21
194.636791
 31
0.0
 12
69.895712
 22
194.083595
 32
0.0
 13
69.895712
 23
194.636791
 33
0.0
  0
TEXT
  5
3B7
100
AcDbEntity
  8
TOPOVERLAY
100
AcDbText
 10
78.202312
 20
191.398192
 30
0.0
 40
0.381
  1
ClearGrass
 50
90.0
100
AcDbText
  0
TEXT
  5
3B8
100
AcDbEntity
  8
TOPOVERLAY
100
AcDbText
 10
78.202312
 20
193.303192
 30
0.0
 40
0.381
  1
O6
 50
90.0
100
AcDbText
  0
TEXT
  5
3B9
100
AcDbEntity
  8
TOPOVERLAY
100
AcDbText
 10
77.821312
 20
191.398192
 30
0.0
 40
0.3556
  1
11BRANOL60A-20160625-P1
 50
90.0
100
AcDbText
  0
LINE
  5
3BA
100
AcDbEntity
  8
TOPLAYER
100
AcDbLine
 10
80.436436
 20
195.338266
 30
0.0
 11
80.485038
 21
195.220933
 31
0.0
  0
LINE
  5
3BB
100
AcDbEntity
  8
TOPLAYER
100
AcDbLine
 10
80.485038
 20
195.220933
 30
0.0
 11
79.878918
 21
194.61481
 31
0.0
  0
LINE
  5
3BC
100
AcDbEntity
  8
TOPLAYER
100
AcDbLine
 10
79.878918
 20
194.61481
 30
0.0
 11
79.777867
 21
194.463581
 31
0.0
  0
LINE
  5
3BD
100
AcDbEntity
  8
TOPLAYER
100
AcDbLine
 10
79.777867
 20
194.463581
 30
0.0
 11
79.771979
 21
194.433985
 31
0.0
  0
LINE
  5
3BE
100
AcDbEntity
  8
TOPLAYER
100
AcDbLine
 10
79.771979
 20
194.433985
 30
0.0
 11
79.742383
 21
194.285189
 31
0.0
  0
LINE
  5
3BF
100
AcDbEntity
  8
TOPLAYER
100
AcDbLine
 10
79.742383
 20
194.285189
 30
0.0
 11
79.742383
 21
193.142189
 31
0.0
  0
LINE
  5
3C0
100
AcDbEntity
  8
TOPLAYER
100
AcDbLine
 10
79.742383
 20
193.142189
 30
0.0
 11
79.742383
 21
191.872189
 31
0.0
  0
LINE
  5
3C1
100
AcDbEntity
  8
TOPLAYER
100
AcDbLine
 10
79.742383
 20
191.872189
 30
0.0
 11
79.777867
 21
191.6938
 31
0.0
  0
LINE
  5
3C2
100
AcDbEntity
  8
TOPLAYER
100
AcDbLine
 10
79.777867
 20
191.6938
 30
0.0
 11
79.878918
 21
191.542568
 31
0.0
  0
LINE
  5
3C3
100
AcDbEntity
  8
TOPLAYER
100
AcDbLine
 10
79.878918
 20
191.542568
 30
0.0
 11
79.937168
 21
191.503645
 31
0.0
  0
LINE
  5
3C4
100
AcDbEntity
  8
TOPLAYER
100
AcDbLine
 10
79.937168
 20
191.503645
 30
0.0
 11
79.900302
 21
191.382114
 31
0.0
  0
LINE
  5
3C5
100
AcDbEntity
  8
TOPLAYER
100
AcDbLine
 10
79.900302
 20
191.382114
 30
0.0
 11
77.527153
 21
191.382114
 31
0.0
  0
LINE
  5
3C6
100
AcDbEntity
  8
TOPLAYER
100
AcDbLine
 10
77.527153
 20
191.382114
 30
0.0
 11
77.526914
 21
191.382691
 31
0.0
  0
LINE
  5
3C7
100
AcDbEntity
  8
TOPLAYER
100
AcDbLine
 10
77.526914
 20
191.382691
 30
0.0
 11
77.526337
 21
191.382929
 31
0.0
  0
LINE
  5
3C8
100
AcDbEntity
  8
TOPLAYER
100
AcDbLine
 10
77.526337
 20
191.382929
 30
0.0
 11
77.526337
 21
191.610183
 31
0.0
  0
LINE
  5
3C9
100
AcDbEntity
  8
TOPLAYER
100
AcDbLine
 10
77.526337
 20
191.610183
 30
0.0
 11
77.52634
 21
191.610186
 31
0.0
  0
LINE
  5
3CA
100
AcDbEntity
  8
TOPLAYER
100
AcDbLine
 10
77.52634
 20
191.610186
 30
0.0
 11
77.52634
 21
191.610186
 31
0.0
  0
LINE
  5
3CB
100
AcDbEntity
  8
TOPLAYER
100
AcDbLine
 10
77.52634
 20
191.610186
 30
0.0
 11
77.52634
 21
191.610186
 31
0.0
  0
LINE
  5
3CC
100
AcDbEntity
  8
TOPLAYER
100
AcDbLine
 10
77.52634
 20
191.610186
 30
0.0
 11
77.52636
 21
191.610191
 31
0.0
  0
LINE
  5
3CD
100
AcDbEntity
  8
TOPLAYER
100
AcDbLine
 10
77.52636
 20
191.610191
 30
0.0
 11
77.52636
 21
191.610188
 31
0.0
  0
LINE
  5
3CE
100
AcDbEntity
  8
TOPLAYER
100
AcDbLine
 10
77.52636
 20
191.610188
 30
0.0
 11
77.531237
 21
191.610188
 31
0.0
  0
LINE
  5
3CF
100
AcDbEntity
  8
TOPLAYER
100
AcDbLine
 10
77.531237
 20
191.610188
 30
0.0
 11
77.531054
 21
191.611123
 31
0.0
  0
LINE
  5
3D0
100
AcDbEntity
  8
TOPLAYER
100
AcDbLine
 10
77.531054
 20
191.611123
 30
0.0
 11
77.526363
 21
191.634694
 31
0.0
  0
LINE
  5
3D1
100
AcDbEntity
  8
TOPLAYER
100
AcDbLine
 10
77.526363
 20
191.634694
 30
0.0
 11
77.526363
 21
191.634689
 31
0.0
  0
LINE
  5
3D2
100
AcDbEntity
  8
TOPLAYER
100
AcDbLine
 10
77.526363
 20
191.634689
 30
0.0
 11
77.521539
 21
191.658931
 31
0.0
  0
LINE
  5
3D3
100
AcDbEntity
  8
TOPLAYER
100
AcDbLine
 10
77.521539
 20
191.658931
 30
0.0
 11
77.521537
 21
191.658961
 31
0.0
  0
LINE
  5
3D4
100
AcDbEntity
  8
TOPLAYER
100
AcDbLine
 10
77.521537
 20
191.658961
 30
0.0
 11
77.491133
 21
191.811801
 31
0.0
  0
LINE
  5
3D5
100
AcDbEntity
  8
TOPLAYER
100
AcDbLine
 10
77.491133
 20
191.811801
 30
0.0
 11
77.491133
 21
191.811798
 31
0.0
  0
LINE
  5
3D6
100
AcDbEntity
  8
TOPLAYER
100
AcDbLine
 10
77.491133
 20
191.811798
 30
0.0
 11
77.376932
 21
191.982712
 31
0.0
  0
LINE
  5
3D7
100
AcDbEntity
  8
TOPLAYER
100
AcDbLine
 10
77.376932
 20
191.982712
 30
0.0
 11
77.206018
 21
192.096913
 31
0.0
  0
LINE
  5
3D8
100
AcDbEntity
  8
TOPLAYER
100
AcDbLine
 10
77.206018
 20
192.096913
 30
0.0
 11
77.004421
 21
192.137015
 31
0.0
  0
LINE
  5
3D9
100
AcDbEntity
  8
TOPLAYER
100
AcDbLine
 10
77.004421
 20
192.137015
 30
0.0
 11
77.004421
 21
192.132118
 31
0.0
  0
LINE
  5
3DA
100
AcDbEntity
  8
TOPLAYER
100
AcDbLine
 10
77.004421
 20
192.132118
 30
0.0
 11
77.004415
 21
192.132118
 31
0.0
  0
LINE
  5
3DB
100
AcDbEntity
  8
TOPLAYER
100
AcDbLine
 10
77.004415
 20
192.132118
 30
0.0
 11
77.004403
 21
192.132115
 31
0.0
  0
LINE
  5
3DC
100
AcDbEntity
  8
TOPLAYER
100
AcDbLine
 10
77.004403
 20
192.132115
 30
0.0
 11
70.247314
 21
192.132115
 31
0.0
  0
LINE
  5
3DD
100
AcDbEntity
  8
TOPLAYER
100
AcDbLine
 10
70.247314
 20
192.132115
 30
0.0
 11
70.247314
 21
192.137894
 31
0.0
  0
LINE
  5
3DE
100
AcDbEntity
  8
TOPLAYER
100
AcDbLine
 10
70.247314
 20
192.137894
 30
0.0
 11
70.231546
 21
192.144424
 31
0.0
  0
LINE
  5
3DF
100
AcDbEntity
  8
TOPLAYER
100
AcDbLine
 10
70.231546
 20
192.144424
 30
0.0
 11
70.225016
 21
192.160192
 31
0.0
  0
LINE
  5
3E0
100
AcDbEntity
  8
TOPLAYER
100
AcDbLine
 10
70.225016
 20
192.160192
 30
0.0
 11
70.219237
 21
192.160192
 31
0.0
  0
LINE
  5
3E1
100
AcDbEntity
  8
TOPLAYER
100
AcDbLine
 10
70.219237
 20
192.160192
 30
0.0
 11
70.219237
 21
194.56019
 31
0.0
  0
LINE
  5
3E2
100
AcDbEntity
  8
TOPLAYER
100
AcDbLine
 10
70.219237
 20
194.56019
 30
0.0
 11
70.225013
 21
194.56019
 31
0.0
  0
LINE
  5
3E3
100
AcDbEntity
  8
TOPLAYER
100
AcDbLine
 10
70.225013
 20
194.56019
 30
0.0
 11
70.231544
 21
194.575956
 31
0.0
  0
LINE
  5
3E4
100
AcDbEntity
  8
TOPLAYER
100
AcDbLine
 10
70.231544
 20
194.575956
 30
0.0
 11
70.247309
 21
194.582486
 31
0.0
  0
LINE
  5
3E5
100
AcDbEntity
  8
TOPLAYER
100
AcDbLine
 10
70.247309
 20
194.582486
 30
0.0
 11
70.247309
 21
194.588265
 31
0.0
  0
LINE
  5
3E6
100
AcDbEntity
  8
TOPLAYER
100
AcDbLine
 10
70.247309
 20
194.588265
 30
0.0
 11
70.247312
 21
194.588265
 31
0.0
  0
LINE
  5
3E7
100
AcDbEntity
  8
TOPLAYER
100
AcDbLine
 10
70.247312
 20
194.588265
 30
0.0
 11
70.247312
 21
194.588265
 31
0.0
  0
LINE
  5
3E8
100
AcDbEntity
  8
TOPLAYER
100
AcDbLine
 10
70.247312
 20
194.588265
 30
0.0
 11
77.004413
 21
194.588265
 31
0.0
  0
LINE
  5
3E9
100
AcDbEntity
  8
TOPLAYER
100
AcDbLine
 10
77.004413
 20
194.588265
 30
0.0
 11
77.004413
 21
194.588265
 31
0.0
  0
LINE
  5
3EA
100
AcDbEntity
  8
TOPLAYER
100
AcDbLine
 10
77.004413
 20
194.588265
 30
0.0
 11
77.004415
 21
194.588265
 31
0.0
  0
LINE
  5
3EB
100
AcDbEntity
  8
TOPLAYER
100
AcDbLine
 10
77.004415
 20
194.588265
 30
0.0
 11
77.004421
 21
194.588265
 31
0.0
  0
LINE
  5
3EC
100
AcDbEntity
  8
TOPLAYER
100
AcDbLine
 10
77.004421
 20
194.588265
 30
0.0
 11
77.004421
 21
194.583367
 31
0.0
  0
LINE
  5
3ED
100
AcDbEntity
  8
TOPLAYER
100
AcDbLine
 10
77.004421
 20
194.583367
 30
0.0
 11
77.206018
 21
194.623469
 31
0.0
  0
LINE
  5
3EE
100
AcDbEntity
  8
TOPLAYER
100
AcDbLine
 10
77.206018
 20
194.623469
 30
0.0
 11
77.376932
 21
194.73767
 31
0.0
  0
LINE
  5
3EF
100
AcDbEntity
  8
TOPLAYER
100
AcDbLine
 10
77.376932
 20
194.73767
 30
0.0
 11
77.491133
 21
194.908584
 31
0.0
  0
LINE
  5
3F0
100
AcDbEntity
  8
TOPLAYER
100
AcDbLine
 10
77.491133
 20
194.908584
 30
0.0
 11
77.531234
 21
195.110191
 31
0.0
  0
LINE
  5
3F1
100
AcDbEntity
  8
TOPLAYER
100
AcDbLine
 10
77.531234
 20
195.110191
 30
0.0
 11
77.526337
 21
195.110191
 31
0.0
  0
LINE
  5
3F2
100
AcDbEntity
  8
TOPLAYER
100
AcDbLine
 10
77.526337
 20
195.110191
 30
0.0
 11
77.526337
 21
195.33745
 31
0.0
  0
LINE
  5
3F3
100
AcDbEntity
  8
TOPLAYER
100
AcDbLine
 10
77.526337
 20
195.33745
 30
0.0
 11
77.526914
 21
195.337689
 31
0.0
  0
LINE
  5
3F4
100
AcDbEntity
  8
TOPLAYER
100
AcDbLine
 10
77.526914
 20
195.337689
 30
0.0
 11
77.527153
 21
195.338266
 31
0.0
  0
LINE
  5
3F5
100
AcDbEntity
  8
TOPLAYER
100
AcDbLine
 10
77.527153
 20
195.338266
 30
0.0
 11
80.436436
 21
195.338266
 31
0.0
  0
INSERT
  5
447
100
AcDbEntity
  8
0
100
AcDbBlockReference
  2
0402C_1
 10
82.875539
 20
195.047189
 30
0.0
 50
360.0
  0
INSERT
  5
499
100
AcDbEntity
  8
0
100
AcDbBlockReference
  2
0402C_2
 10
82.900939
 20
191.694389
 30
0.0
 50
180.0
  0
INSERT
  5
59F
100
AcDbEntity
  8
0
100
AcDbBlockReference
  2
WSOF5_3
 10
83.361413
 20
193.36019
 30
0.0
 50
270.0
  0
ENDSEC
  0
SECTION
  2
OBJECTS
  0
DICTIONARY
  5
19
100
AcDbDictionary
  3
ACAD_GROUP
350
1A
  3
ACAD_MLINESTYLE
350
1B
  0
DICTIONARY
  5
1A
102
{ACAD_REACTORS
330
19
102
}
100
AcDbDictionary
  0
DICTIONARY
  5
1B
102
{ACAD_REACTORS
330
19
102
}
100
AcDbDictionary
  3
STANDARD
350
1C
  0
MLINESTYLE
  5
1C
102
{ACAD_REACTORS
330
1B
102
}
100
AcDbMlineStyle
  2
STANDARD
 70
     0
  3

 62
     0
 51
90.0
 52
90.0
 71
     2
 49
0.5
 62
   256
  6
BYLAYER
 49
-0.5
 62
   256
  6
BYLAYER
  0
ENDSEC
  0
EOF
