M48
;Layer_Color=9474304
;FILE_FORMAT=2:5
INCH,LZ
;TYPE=PLATED
T1F00S00C0.01200
T2F00S00C0.01500
%
T01
X0006319Y-0083681
Y-0079014
Y-0074348
X0026819
Y-0079014
Y-0083681
X0057319
Y-0079014
Y-0074348
X0063319
Y-0079014
Y-0083681
X0087319Y-0081514
Y-0076848
Y-0072181
Y-0086181
Y-0067181
Y-0062514
Y-0057848
Y-0053181
X0063319Y-0069181
X0057319
X0057319Y-0050181
X0052462
X0047605
X0042748
X003789
X0033033
X0028176
X0023319
X0026819Y-0069181
X0006319
X0014819Y-0022181
Y-0018681
T02
X0016319Y-0036181
Y-0031431
Y-0026681
M30
