G04 Layer_Color=65535*
%FSLAX25Y25*%
%MOIN*%
G70*
G01*
G75*
%ADD17C,0.00500*%
G36*
X10797Y-52124D02*
X10830D01*
X10908Y-52128D01*
X10989Y-52139D01*
X11078Y-52150D01*
X11159Y-52169D01*
X11200Y-52180D01*
X11233Y-52191D01*
X11237D01*
X11241Y-52195D01*
X11263Y-52206D01*
X11296Y-52221D01*
X11337Y-52246D01*
X11381Y-52280D01*
X11429Y-52324D01*
X11474Y-52376D01*
X11518Y-52435D01*
Y-52439D01*
X11522Y-52443D01*
X11537Y-52465D01*
X11551Y-52502D01*
X11574Y-52550D01*
X11592Y-52605D01*
X11611Y-52672D01*
X11622Y-52742D01*
X11625Y-52820D01*
Y-52824D01*
Y-52831D01*
Y-52846D01*
X11622Y-52864D01*
Y-52890D01*
X11618Y-52916D01*
X11603Y-52979D01*
X11581Y-53053D01*
X11551Y-53131D01*
X11507Y-53209D01*
X11477Y-53246D01*
X11448Y-53282D01*
X11444Y-53286D01*
X11440Y-53290D01*
X11429Y-53301D01*
X11415Y-53312D01*
X11396Y-53327D01*
X11374Y-53342D01*
X11344Y-53360D01*
X11315Y-53382D01*
X11278Y-53401D01*
X11237Y-53419D01*
X11192Y-53442D01*
X11144Y-53460D01*
X11089Y-53475D01*
X11033Y-53493D01*
X10971Y-53505D01*
X10904Y-53516D01*
X10911Y-53519D01*
X10926Y-53527D01*
X10948Y-53541D01*
X10978Y-53556D01*
X11045Y-53597D01*
X11078Y-53623D01*
X11107Y-53645D01*
X11115Y-53653D01*
X11133Y-53671D01*
X11163Y-53701D01*
X11200Y-53738D01*
X11241Y-53789D01*
X11289Y-53845D01*
X11337Y-53912D01*
X11389Y-53986D01*
X11829Y-54681D01*
X11407D01*
X11070Y-54148D01*
Y-54145D01*
X11063Y-54137D01*
X11056Y-54126D01*
X11045Y-54111D01*
X11019Y-54071D01*
X10985Y-54019D01*
X10945Y-53963D01*
X10904Y-53904D01*
X10863Y-53849D01*
X10826Y-53797D01*
X10823Y-53793D01*
X10811Y-53778D01*
X10793Y-53756D01*
X10767Y-53730D01*
X10712Y-53675D01*
X10682Y-53649D01*
X10652Y-53627D01*
X10649Y-53623D01*
X10641Y-53619D01*
X10626Y-53612D01*
X10604Y-53601D01*
X10582Y-53590D01*
X10556Y-53579D01*
X10497Y-53560D01*
X10493D01*
X10486Y-53556D01*
X10471D01*
X10452Y-53553D01*
X10427Y-53549D01*
X10397D01*
X10356Y-53545D01*
X9920D01*
Y-54681D01*
X9579D01*
Y-52121D01*
X10767D01*
X10797Y-52124D01*
D02*
G37*
G36*
X8207D02*
X8236D01*
X8303Y-52132D01*
X8377Y-52139D01*
X8455Y-52154D01*
X8532Y-52172D01*
X8602Y-52198D01*
X8606D01*
X8610Y-52202D01*
X8632Y-52213D01*
X8665Y-52232D01*
X8702Y-52258D01*
X8747Y-52291D01*
X8795Y-52332D01*
X8839Y-52383D01*
X8880Y-52439D01*
X8884Y-52446D01*
X8895Y-52469D01*
X8913Y-52498D01*
X8932Y-52543D01*
X8950Y-52594D01*
X8969Y-52650D01*
X8980Y-52713D01*
X8984Y-52776D01*
Y-52783D01*
Y-52802D01*
X8980Y-52835D01*
X8973Y-52876D01*
X8961Y-52924D01*
X8943Y-52975D01*
X8921Y-53027D01*
X8891Y-53083D01*
X8887Y-53090D01*
X8876Y-53105D01*
X8854Y-53135D01*
X8824Y-53164D01*
X8788Y-53201D01*
X8743Y-53242D01*
X8688Y-53279D01*
X8625Y-53316D01*
X8628D01*
X8636Y-53320D01*
X8647Y-53323D01*
X8662Y-53331D01*
X8706Y-53345D01*
X8758Y-53371D01*
X8813Y-53405D01*
X8876Y-53445D01*
X8932Y-53493D01*
X8984Y-53553D01*
X8987Y-53560D01*
X9002Y-53582D01*
X9024Y-53615D01*
X9047Y-53660D01*
X9069Y-53719D01*
X9091Y-53782D01*
X9106Y-53856D01*
X9109Y-53937D01*
Y-53941D01*
Y-53945D01*
Y-53967D01*
X9106Y-54004D01*
X9098Y-54048D01*
X9091Y-54100D01*
X9076Y-54156D01*
X9058Y-54215D01*
X9032Y-54274D01*
X9028Y-54282D01*
X9017Y-54300D01*
X9002Y-54326D01*
X8980Y-54363D01*
X8950Y-54400D01*
X8921Y-54441D01*
X8884Y-54481D01*
X8843Y-54515D01*
X8839Y-54518D01*
X8824Y-54529D01*
X8799Y-54544D01*
X8765Y-54559D01*
X8725Y-54581D01*
X8676Y-54603D01*
X8625Y-54622D01*
X8562Y-54640D01*
X8554D01*
X8532Y-54648D01*
X8495Y-54651D01*
X8447Y-54659D01*
X8388Y-54666D01*
X8318Y-54674D01*
X8240Y-54677D01*
X8151Y-54681D01*
X7174D01*
Y-52121D01*
X8181D01*
X8207Y-52124D01*
D02*
G37*
G36*
X18234D02*
X18296Y-52128D01*
X18363Y-52132D01*
X18426Y-52139D01*
X18482Y-52147D01*
X18489D01*
X18515Y-52154D01*
X18548Y-52161D01*
X18593Y-52172D01*
X18641Y-52191D01*
X18692Y-52213D01*
X18748Y-52239D01*
X18796Y-52269D01*
X18803Y-52272D01*
X18818Y-52284D01*
X18840Y-52306D01*
X18870Y-52332D01*
X18903Y-52365D01*
X18937Y-52409D01*
X18974Y-52457D01*
X19003Y-52513D01*
X19007Y-52520D01*
X19014Y-52539D01*
X19029Y-52572D01*
X19044Y-52617D01*
X19055Y-52668D01*
X19070Y-52728D01*
X19077Y-52794D01*
X19081Y-52864D01*
Y-52868D01*
Y-52879D01*
Y-52894D01*
X19077Y-52920D01*
X19073Y-52946D01*
X19070Y-52979D01*
X19062Y-53016D01*
X19055Y-53057D01*
X19029Y-53142D01*
X19014Y-53186D01*
X18992Y-53234D01*
X18966Y-53282D01*
X18940Y-53327D01*
X18907Y-53371D01*
X18870Y-53416D01*
X18866Y-53419D01*
X18859Y-53427D01*
X18848Y-53438D01*
X18829Y-53449D01*
X18807Y-53468D01*
X18778Y-53486D01*
X18741Y-53508D01*
X18700Y-53527D01*
X18652Y-53549D01*
X18596Y-53571D01*
X18537Y-53590D01*
X18467Y-53604D01*
X18393Y-53619D01*
X18311Y-53630D01*
X18219Y-53638D01*
X18123Y-53641D01*
X17468D01*
Y-54681D01*
X17127D01*
Y-52121D01*
X18178D01*
X18234Y-52124D01*
D02*
G37*
G36*
X14271Y-54681D02*
X13886D01*
X13586Y-53904D01*
X12513D01*
X12236Y-54681D01*
X11877D01*
X12854Y-52121D01*
X13224D01*
X14271Y-54681D01*
D02*
G37*
G36*
X33618Y-52787D02*
X33648Y-52790D01*
X33685Y-52798D01*
X33726Y-52805D01*
X33774Y-52816D01*
X33818Y-52827D01*
X33870Y-52846D01*
X33918Y-52864D01*
X33970Y-52890D01*
X34021Y-52920D01*
X34073Y-52953D01*
X34121Y-52994D01*
X34166Y-53038D01*
X34170Y-53042D01*
X34177Y-53049D01*
X34188Y-53064D01*
X34203Y-53086D01*
X34221Y-53112D01*
X34240Y-53142D01*
X34262Y-53179D01*
X34284Y-53223D01*
X34306Y-53271D01*
X34329Y-53323D01*
X34347Y-53382D01*
X34366Y-53445D01*
X34380Y-53516D01*
X34391Y-53590D01*
X34399Y-53667D01*
X34403Y-53752D01*
Y-53756D01*
Y-53771D01*
Y-53797D01*
X34399Y-53834D01*
X33011D01*
Y-53838D01*
Y-53849D01*
X33015Y-53863D01*
Y-53886D01*
X33019Y-53912D01*
X33026Y-53941D01*
X33037Y-54008D01*
X33059Y-54082D01*
X33089Y-54163D01*
X33130Y-54237D01*
X33182Y-54304D01*
X33185D01*
X33189Y-54311D01*
X33211Y-54330D01*
X33244Y-54356D01*
X33289Y-54381D01*
X33348Y-54411D01*
X33415Y-54437D01*
X33489Y-54455D01*
X33529Y-54459D01*
X33574Y-54463D01*
X33603D01*
X33637Y-54459D01*
X33677Y-54452D01*
X33722Y-54441D01*
X33774Y-54426D01*
X33822Y-54404D01*
X33870Y-54374D01*
X33874Y-54370D01*
X33892Y-54356D01*
X33914Y-54333D01*
X33940Y-54304D01*
X33970Y-54263D01*
X34003Y-54211D01*
X34036Y-54152D01*
X34066Y-54082D01*
X34391Y-54122D01*
Y-54126D01*
X34388Y-54133D01*
X34384Y-54148D01*
X34377Y-54171D01*
X34366Y-54193D01*
X34354Y-54222D01*
X34325Y-54285D01*
X34288Y-54356D01*
X34236Y-54430D01*
X34177Y-54500D01*
X34103Y-54566D01*
X34099D01*
X34092Y-54574D01*
X34081Y-54581D01*
X34066Y-54592D01*
X34044Y-54603D01*
X34021Y-54615D01*
X33992Y-54629D01*
X33959Y-54644D01*
X33922Y-54659D01*
X33885Y-54674D01*
X33792Y-54696D01*
X33689Y-54714D01*
X33574Y-54722D01*
X33533D01*
X33507Y-54718D01*
X33474Y-54714D01*
X33433Y-54707D01*
X33389Y-54700D01*
X33341Y-54692D01*
X33237Y-54663D01*
X33182Y-54640D01*
X33130Y-54618D01*
X33074Y-54589D01*
X33022Y-54555D01*
X32974Y-54518D01*
X32926Y-54474D01*
X32923Y-54470D01*
X32915Y-54463D01*
X32904Y-54448D01*
X32889Y-54426D01*
X32871Y-54400D01*
X32852Y-54370D01*
X32830Y-54333D01*
X32808Y-54293D01*
X32786Y-54245D01*
X32763Y-54193D01*
X32745Y-54133D01*
X32726Y-54071D01*
X32712Y-54004D01*
X32701Y-53930D01*
X32693Y-53852D01*
X32689Y-53771D01*
Y-53767D01*
Y-53749D01*
Y-53727D01*
X32693Y-53693D01*
X32697Y-53653D01*
X32701Y-53608D01*
X32708Y-53556D01*
X32719Y-53505D01*
X32749Y-53386D01*
X32767Y-53327D01*
X32789Y-53264D01*
X32819Y-53205D01*
X32852Y-53149D01*
X32889Y-53094D01*
X32930Y-53042D01*
X32934Y-53038D01*
X32941Y-53031D01*
X32956Y-53020D01*
X32974Y-53001D01*
X32997Y-52983D01*
X33026Y-52961D01*
X33059Y-52935D01*
X33100Y-52912D01*
X33141Y-52887D01*
X33189Y-52864D01*
X33241Y-52842D01*
X33296Y-52824D01*
X33356Y-52805D01*
X33418Y-52794D01*
X33485Y-52787D01*
X33555Y-52783D01*
X33592D01*
X33618Y-52787D01*
D02*
G37*
G36*
X61660Y-54725D02*
X61409D01*
X62153Y-52076D01*
X62404D01*
X61660Y-54725D01*
D02*
G37*
G36*
X6253Y-54681D02*
X5939D01*
Y-52679D01*
X5935Y-52683D01*
X5916Y-52698D01*
X5894Y-52720D01*
X5857Y-52746D01*
X5816Y-52779D01*
X5765Y-52816D01*
X5705Y-52857D01*
X5639Y-52898D01*
X5635D01*
X5631Y-52901D01*
X5609Y-52916D01*
X5572Y-52935D01*
X5528Y-52957D01*
X5476Y-52983D01*
X5421Y-53009D01*
X5365Y-53035D01*
X5310Y-53057D01*
Y-52753D01*
X5313D01*
X5321Y-52746D01*
X5335Y-52742D01*
X5354Y-52731D01*
X5376Y-52720D01*
X5402Y-52705D01*
X5465Y-52668D01*
X5539Y-52628D01*
X5613Y-52576D01*
X5691Y-52517D01*
X5768Y-52454D01*
X5772Y-52450D01*
X5776Y-52446D01*
X5787Y-52435D01*
X5802Y-52424D01*
X5835Y-52387D01*
X5879Y-52343D01*
X5924Y-52291D01*
X5972Y-52232D01*
X6013Y-52172D01*
X6050Y-52110D01*
X6253D01*
Y-54681D01*
D02*
G37*
G36*
X4262D02*
X3948D01*
Y-52679D01*
X3944Y-52683D01*
X3926Y-52698D01*
X3903Y-52720D01*
X3867Y-52746D01*
X3826Y-52779D01*
X3774Y-52816D01*
X3715Y-52857D01*
X3648Y-52898D01*
X3644D01*
X3641Y-52901D01*
X3619Y-52916D01*
X3582Y-52935D01*
X3537Y-52957D01*
X3485Y-52983D01*
X3430Y-53009D01*
X3374Y-53035D01*
X3319Y-53057D01*
Y-52753D01*
X3323D01*
X3330Y-52746D01*
X3345Y-52742D01*
X3363Y-52731D01*
X3385Y-52720D01*
X3411Y-52705D01*
X3474Y-52668D01*
X3548Y-52628D01*
X3622Y-52576D01*
X3700Y-52517D01*
X3778Y-52454D01*
X3781Y-52450D01*
X3785Y-52446D01*
X3796Y-52435D01*
X3811Y-52424D01*
X3844Y-52387D01*
X3889Y-52343D01*
X3933Y-52291D01*
X3981Y-52232D01*
X4022Y-52172D01*
X4059Y-52110D01*
X4262D01*
Y-54681D01*
D02*
G37*
G36*
X42809Y-52787D02*
X42865Y-52790D01*
X42927Y-52798D01*
X42990Y-52809D01*
X43053Y-52824D01*
X43112Y-52842D01*
X43120Y-52846D01*
X43138Y-52853D01*
X43164Y-52864D01*
X43198Y-52879D01*
X43235Y-52901D01*
X43271Y-52924D01*
X43305Y-52953D01*
X43334Y-52983D01*
X43338Y-52987D01*
X43345Y-52998D01*
X43357Y-53016D01*
X43371Y-53038D01*
X43390Y-53072D01*
X43405Y-53105D01*
X43420Y-53146D01*
X43431Y-53194D01*
Y-53197D01*
X43434Y-53209D01*
X43438Y-53231D01*
X43442Y-53260D01*
Y-53301D01*
X43445Y-53349D01*
X43449Y-53412D01*
Y-53482D01*
Y-53904D01*
Y-53908D01*
Y-53923D01*
Y-53945D01*
Y-53974D01*
Y-54008D01*
Y-54048D01*
X43453Y-54137D01*
Y-54230D01*
X43457Y-54322D01*
X43460Y-54363D01*
Y-54400D01*
X43464Y-54433D01*
X43468Y-54459D01*
Y-54463D01*
X43471Y-54478D01*
X43475Y-54500D01*
X43486Y-54529D01*
X43494Y-54563D01*
X43508Y-54600D01*
X43527Y-54640D01*
X43545Y-54681D01*
X43216D01*
X43212Y-54677D01*
X43209Y-54663D01*
X43201Y-54644D01*
X43190Y-54615D01*
X43179Y-54581D01*
X43172Y-54540D01*
X43164Y-54496D01*
X43157Y-54448D01*
X43153D01*
X43149Y-54455D01*
X43127Y-54474D01*
X43094Y-54500D01*
X43049Y-54533D01*
X42994Y-54566D01*
X42939Y-54603D01*
X42879Y-54637D01*
X42816Y-54663D01*
X42809Y-54666D01*
X42787Y-54670D01*
X42753Y-54681D01*
X42713Y-54692D01*
X42661Y-54703D01*
X42602Y-54711D01*
X42535Y-54718D01*
X42469Y-54722D01*
X42439D01*
X42417Y-54718D01*
X42391D01*
X42361Y-54714D01*
X42295Y-54703D01*
X42221Y-54685D01*
X42139Y-54659D01*
X42065Y-54622D01*
X41999Y-54574D01*
X41991Y-54566D01*
X41973Y-54548D01*
X41947Y-54515D01*
X41917Y-54470D01*
X41888Y-54415D01*
X41862Y-54352D01*
X41843Y-54274D01*
X41840Y-54237D01*
X41836Y-54193D01*
Y-54185D01*
Y-54171D01*
X41840Y-54145D01*
X41843Y-54111D01*
X41851Y-54071D01*
X41862Y-54030D01*
X41877Y-53986D01*
X41895Y-53945D01*
X41899Y-53941D01*
X41906Y-53926D01*
X41921Y-53904D01*
X41939Y-53878D01*
X41962Y-53849D01*
X41991Y-53819D01*
X42021Y-53789D01*
X42058Y-53764D01*
X42062Y-53760D01*
X42076Y-53752D01*
X42095Y-53738D01*
X42125Y-53723D01*
X42158Y-53708D01*
X42199Y-53689D01*
X42239Y-53675D01*
X42287Y-53660D01*
X42291D01*
X42306Y-53656D01*
X42328Y-53649D01*
X42358Y-53645D01*
X42395Y-53638D01*
X42443Y-53630D01*
X42498Y-53619D01*
X42565Y-53612D01*
X42568D01*
X42583Y-53608D01*
X42602D01*
X42628Y-53604D01*
X42657Y-53601D01*
X42694Y-53593D01*
X42735Y-53590D01*
X42779Y-53582D01*
X42868Y-53564D01*
X42964Y-53545D01*
X43049Y-53523D01*
X43090Y-53512D01*
X43127Y-53501D01*
Y-53497D01*
Y-53490D01*
X43131Y-53468D01*
Y-53442D01*
Y-53427D01*
Y-53419D01*
Y-53416D01*
Y-53412D01*
Y-53390D01*
X43127Y-53353D01*
X43120Y-53312D01*
X43109Y-53268D01*
X43090Y-53223D01*
X43068Y-53183D01*
X43038Y-53149D01*
X43035Y-53146D01*
X43016Y-53131D01*
X42987Y-53116D01*
X42950Y-53094D01*
X42898Y-53075D01*
X42839Y-53057D01*
X42765Y-53046D01*
X42680Y-53042D01*
X42643D01*
X42606Y-53046D01*
X42554Y-53053D01*
X42502Y-53061D01*
X42446Y-53075D01*
X42395Y-53094D01*
X42350Y-53120D01*
X42347Y-53123D01*
X42332Y-53135D01*
X42313Y-53153D01*
X42291Y-53183D01*
X42269Y-53220D01*
X42243Y-53268D01*
X42221Y-53327D01*
X42199Y-53394D01*
X41891Y-53353D01*
Y-53349D01*
X41895Y-53345D01*
Y-53334D01*
X41899Y-53320D01*
X41910Y-53286D01*
X41925Y-53238D01*
X41943Y-53190D01*
X41965Y-53138D01*
X41995Y-53086D01*
X42028Y-53038D01*
X42032Y-53035D01*
X42047Y-53020D01*
X42069Y-52998D01*
X42099Y-52968D01*
X42139Y-52938D01*
X42187Y-52909D01*
X42243Y-52876D01*
X42306Y-52850D01*
X42309D01*
X42313Y-52846D01*
X42324Y-52842D01*
X42339Y-52838D01*
X42376Y-52827D01*
X42428Y-52816D01*
X42487Y-52805D01*
X42561Y-52794D01*
X42639Y-52787D01*
X42728Y-52783D01*
X42768D01*
X42809Y-52787D01*
D02*
G37*
G36*
X35653D02*
X35709Y-52790D01*
X35772Y-52798D01*
X35835Y-52809D01*
X35897Y-52824D01*
X35957Y-52842D01*
X35964Y-52846D01*
X35982Y-52853D01*
X36008Y-52864D01*
X36042Y-52879D01*
X36079Y-52901D01*
X36116Y-52924D01*
X36149Y-52953D01*
X36179Y-52983D01*
X36182Y-52987D01*
X36190Y-52998D01*
X36201Y-53016D01*
X36216Y-53038D01*
X36234Y-53072D01*
X36249Y-53105D01*
X36264Y-53146D01*
X36275Y-53194D01*
Y-53197D01*
X36279Y-53209D01*
X36282Y-53231D01*
X36286Y-53260D01*
Y-53301D01*
X36290Y-53349D01*
X36293Y-53412D01*
Y-53482D01*
Y-53904D01*
Y-53908D01*
Y-53923D01*
Y-53945D01*
Y-53974D01*
Y-54008D01*
Y-54048D01*
X36297Y-54137D01*
Y-54230D01*
X36301Y-54322D01*
X36304Y-54363D01*
Y-54400D01*
X36308Y-54433D01*
X36312Y-54459D01*
Y-54463D01*
X36316Y-54478D01*
X36319Y-54500D01*
X36330Y-54529D01*
X36338Y-54563D01*
X36353Y-54600D01*
X36371Y-54640D01*
X36389Y-54681D01*
X36060D01*
X36057Y-54677D01*
X36053Y-54663D01*
X36045Y-54644D01*
X36034Y-54615D01*
X36023Y-54581D01*
X36016Y-54540D01*
X36008Y-54496D01*
X36001Y-54448D01*
X35997D01*
X35994Y-54455D01*
X35971Y-54474D01*
X35938Y-54500D01*
X35894Y-54533D01*
X35838Y-54566D01*
X35783Y-54603D01*
X35724Y-54637D01*
X35661Y-54663D01*
X35653Y-54666D01*
X35631Y-54670D01*
X35598Y-54681D01*
X35557Y-54692D01*
X35505Y-54703D01*
X35446Y-54711D01*
X35379Y-54718D01*
X35313Y-54722D01*
X35283D01*
X35261Y-54718D01*
X35235D01*
X35206Y-54714D01*
X35139Y-54703D01*
X35065Y-54685D01*
X34984Y-54659D01*
X34909Y-54622D01*
X34843Y-54574D01*
X34835Y-54566D01*
X34817Y-54548D01*
X34791Y-54515D01*
X34762Y-54470D01*
X34732Y-54415D01*
X34706Y-54352D01*
X34688Y-54274D01*
X34684Y-54237D01*
X34680Y-54193D01*
Y-54185D01*
Y-54171D01*
X34684Y-54145D01*
X34688Y-54111D01*
X34695Y-54071D01*
X34706Y-54030D01*
X34721Y-53986D01*
X34739Y-53945D01*
X34743Y-53941D01*
X34750Y-53926D01*
X34765Y-53904D01*
X34784Y-53878D01*
X34806Y-53849D01*
X34835Y-53819D01*
X34865Y-53789D01*
X34902Y-53764D01*
X34906Y-53760D01*
X34921Y-53752D01*
X34939Y-53738D01*
X34969Y-53723D01*
X35002Y-53708D01*
X35043Y-53689D01*
X35083Y-53675D01*
X35131Y-53660D01*
X35135D01*
X35150Y-53656D01*
X35172Y-53649D01*
X35202Y-53645D01*
X35239Y-53638D01*
X35287Y-53630D01*
X35342Y-53619D01*
X35409Y-53612D01*
X35413D01*
X35427Y-53608D01*
X35446D01*
X35472Y-53604D01*
X35502Y-53601D01*
X35539Y-53593D01*
X35579Y-53590D01*
X35624Y-53582D01*
X35712Y-53564D01*
X35809Y-53545D01*
X35894Y-53523D01*
X35934Y-53512D01*
X35971Y-53501D01*
Y-53497D01*
Y-53490D01*
X35975Y-53468D01*
Y-53442D01*
Y-53427D01*
Y-53419D01*
Y-53416D01*
Y-53412D01*
Y-53390D01*
X35971Y-53353D01*
X35964Y-53312D01*
X35953Y-53268D01*
X35934Y-53223D01*
X35912Y-53183D01*
X35883Y-53149D01*
X35879Y-53146D01*
X35860Y-53131D01*
X35831Y-53116D01*
X35794Y-53094D01*
X35742Y-53075D01*
X35683Y-53057D01*
X35609Y-53046D01*
X35524Y-53042D01*
X35487D01*
X35450Y-53046D01*
X35398Y-53053D01*
X35346Y-53061D01*
X35291Y-53075D01*
X35239Y-53094D01*
X35194Y-53120D01*
X35191Y-53123D01*
X35176Y-53135D01*
X35157Y-53153D01*
X35135Y-53183D01*
X35113Y-53220D01*
X35087Y-53268D01*
X35065Y-53327D01*
X35043Y-53394D01*
X34736Y-53353D01*
Y-53349D01*
X34739Y-53345D01*
Y-53334D01*
X34743Y-53320D01*
X34754Y-53286D01*
X34769Y-53238D01*
X34787Y-53190D01*
X34810Y-53138D01*
X34839Y-53086D01*
X34872Y-53038D01*
X34876Y-53035D01*
X34891Y-53020D01*
X34913Y-52998D01*
X34943Y-52968D01*
X34984Y-52938D01*
X35032Y-52909D01*
X35087Y-52876D01*
X35150Y-52850D01*
X35154D01*
X35157Y-52846D01*
X35168Y-52842D01*
X35183Y-52838D01*
X35220Y-52827D01*
X35272Y-52816D01*
X35331Y-52805D01*
X35405Y-52794D01*
X35483Y-52787D01*
X35572Y-52783D01*
X35612D01*
X35653Y-52787D01*
D02*
G37*
G36*
X53783Y-54681D02*
X53469D01*
Y-52679D01*
X53465Y-52683D01*
X53447Y-52698D01*
X53424Y-52720D01*
X53387Y-52746D01*
X53347Y-52779D01*
X53295Y-52816D01*
X53236Y-52857D01*
X53169Y-52898D01*
X53165D01*
X53162Y-52901D01*
X53139Y-52916D01*
X53102Y-52935D01*
X53058Y-52957D01*
X53006Y-52983D01*
X52951Y-53009D01*
X52895Y-53035D01*
X52840Y-53057D01*
Y-52753D01*
X52843D01*
X52851Y-52746D01*
X52866Y-52742D01*
X52884Y-52731D01*
X52906Y-52720D01*
X52932Y-52705D01*
X52995Y-52668D01*
X53069Y-52628D01*
X53143Y-52576D01*
X53221Y-52517D01*
X53298Y-52454D01*
X53302Y-52450D01*
X53306Y-52446D01*
X53317Y-52435D01*
X53332Y-52424D01*
X53365Y-52387D01*
X53409Y-52343D01*
X53454Y-52291D01*
X53502Y-52232D01*
X53543Y-52172D01*
X53580Y-52110D01*
X53783D01*
Y-54681D01*
D02*
G37*
G36*
X49528Y-52113D02*
X49558Y-52117D01*
X49595Y-52121D01*
X49635Y-52128D01*
X49676Y-52135D01*
X49772Y-52161D01*
X49869Y-52198D01*
X49917Y-52221D01*
X49965Y-52246D01*
X50009Y-52280D01*
X50050Y-52317D01*
X50054Y-52320D01*
X50061Y-52324D01*
X50068Y-52339D01*
X50083Y-52354D01*
X50102Y-52372D01*
X50120Y-52398D01*
X50139Y-52424D01*
X50161Y-52457D01*
X50198Y-52528D01*
X50235Y-52617D01*
X50250Y-52661D01*
X50257Y-52713D01*
X50265Y-52764D01*
X50268Y-52820D01*
Y-52827D01*
Y-52846D01*
X50265Y-52876D01*
X50261Y-52916D01*
X50253Y-52961D01*
X50239Y-53012D01*
X50224Y-53068D01*
X50202Y-53123D01*
X50198Y-53131D01*
X50191Y-53149D01*
X50176Y-53179D01*
X50153Y-53220D01*
X50124Y-53264D01*
X50087Y-53320D01*
X50042Y-53375D01*
X49991Y-53438D01*
X49983Y-53445D01*
X49965Y-53468D01*
X49946Y-53486D01*
X49928Y-53505D01*
X49906Y-53527D01*
X49876Y-53556D01*
X49846Y-53586D01*
X49809Y-53619D01*
X49772Y-53656D01*
X49728Y-53697D01*
X49680Y-53738D01*
X49628Y-53786D01*
X49569Y-53834D01*
X49510Y-53886D01*
X49506Y-53889D01*
X49499Y-53897D01*
X49484Y-53908D01*
X49465Y-53923D01*
X49443Y-53945D01*
X49417Y-53967D01*
X49358Y-54015D01*
X49295Y-54071D01*
X49236Y-54126D01*
X49184Y-54174D01*
X49162Y-54193D01*
X49143Y-54211D01*
X49140Y-54215D01*
X49129Y-54226D01*
X49114Y-54241D01*
X49095Y-54263D01*
X49077Y-54289D01*
X49055Y-54315D01*
X49010Y-54378D01*
X50272D01*
Y-54681D01*
X48574D01*
Y-54677D01*
Y-54663D01*
Y-54640D01*
X48577Y-54611D01*
X48581Y-54577D01*
X48588Y-54540D01*
X48596Y-54504D01*
X48611Y-54463D01*
Y-54459D01*
X48614Y-54455D01*
X48622Y-54433D01*
X48636Y-54400D01*
X48659Y-54356D01*
X48688Y-54304D01*
X48725Y-54245D01*
X48766Y-54185D01*
X48818Y-54122D01*
Y-54119D01*
X48825Y-54115D01*
X48844Y-54093D01*
X48877Y-54059D01*
X48925Y-54011D01*
X48981Y-53956D01*
X49051Y-53889D01*
X49136Y-53815D01*
X49229Y-53738D01*
X49232Y-53734D01*
X49247Y-53723D01*
X49269Y-53704D01*
X49295Y-53682D01*
X49328Y-53653D01*
X49369Y-53619D01*
X49410Y-53582D01*
X49458Y-53541D01*
X49550Y-53453D01*
X49643Y-53364D01*
X49687Y-53320D01*
X49728Y-53275D01*
X49765Y-53234D01*
X49795Y-53194D01*
Y-53190D01*
X49802Y-53186D01*
X49809Y-53175D01*
X49817Y-53160D01*
X49843Y-53120D01*
X49872Y-53072D01*
X49898Y-53012D01*
X49924Y-52950D01*
X49939Y-52879D01*
X49946Y-52813D01*
Y-52809D01*
Y-52805D01*
X49943Y-52783D01*
X49939Y-52746D01*
X49928Y-52705D01*
X49913Y-52653D01*
X49887Y-52602D01*
X49854Y-52550D01*
X49809Y-52498D01*
X49802Y-52491D01*
X49784Y-52476D01*
X49758Y-52457D01*
X49717Y-52431D01*
X49665Y-52409D01*
X49606Y-52387D01*
X49536Y-52372D01*
X49458Y-52369D01*
X49436D01*
X49421Y-52372D01*
X49376Y-52376D01*
X49325Y-52387D01*
X49269Y-52402D01*
X49206Y-52428D01*
X49147Y-52461D01*
X49092Y-52505D01*
X49084Y-52513D01*
X49069Y-52531D01*
X49047Y-52561D01*
X49025Y-52605D01*
X48999Y-52657D01*
X48977Y-52724D01*
X48962Y-52798D01*
X48955Y-52883D01*
X48633Y-52850D01*
Y-52846D01*
X48636Y-52835D01*
Y-52816D01*
X48640Y-52790D01*
X48648Y-52761D01*
X48655Y-52728D01*
X48666Y-52687D01*
X48677Y-52646D01*
X48707Y-52557D01*
X48751Y-52469D01*
X48777Y-52424D01*
X48810Y-52380D01*
X48844Y-52339D01*
X48881Y-52302D01*
X48884Y-52298D01*
X48892Y-52295D01*
X48903Y-52284D01*
X48921Y-52272D01*
X48944Y-52258D01*
X48970Y-52243D01*
X48999Y-52224D01*
X49036Y-52206D01*
X49077Y-52187D01*
X49121Y-52169D01*
X49169Y-52154D01*
X49221Y-52139D01*
X49277Y-52128D01*
X49336Y-52117D01*
X49399Y-52113D01*
X49465Y-52110D01*
X49502D01*
X49528Y-52113D01*
D02*
G37*
G36*
X22681D02*
X22711Y-52117D01*
X22748Y-52121D01*
X22788Y-52128D01*
X22829Y-52135D01*
X22925Y-52161D01*
X23021Y-52198D01*
X23069Y-52221D01*
X23118Y-52246D01*
X23162Y-52280D01*
X23203Y-52317D01*
X23206Y-52320D01*
X23214Y-52324D01*
X23221Y-52339D01*
X23236Y-52354D01*
X23255Y-52372D01*
X23273Y-52398D01*
X23291Y-52424D01*
X23314Y-52457D01*
X23351Y-52528D01*
X23388Y-52617D01*
X23403Y-52661D01*
X23410Y-52713D01*
X23417Y-52764D01*
X23421Y-52820D01*
Y-52827D01*
Y-52846D01*
X23417Y-52876D01*
X23414Y-52916D01*
X23406Y-52961D01*
X23391Y-53012D01*
X23377Y-53068D01*
X23354Y-53123D01*
X23351Y-53131D01*
X23343Y-53149D01*
X23328Y-53179D01*
X23306Y-53220D01*
X23277Y-53264D01*
X23240Y-53320D01*
X23195Y-53375D01*
X23144Y-53438D01*
X23136Y-53445D01*
X23118Y-53468D01*
X23099Y-53486D01*
X23081Y-53505D01*
X23058Y-53527D01*
X23029Y-53556D01*
X22999Y-53586D01*
X22962Y-53619D01*
X22925Y-53656D01*
X22881Y-53697D01*
X22833Y-53738D01*
X22781Y-53786D01*
X22722Y-53834D01*
X22662Y-53886D01*
X22659Y-53889D01*
X22651Y-53897D01*
X22637Y-53908D01*
X22618Y-53923D01*
X22596Y-53945D01*
X22570Y-53967D01*
X22511Y-54015D01*
X22448Y-54071D01*
X22389Y-54126D01*
X22337Y-54174D01*
X22315Y-54193D01*
X22296Y-54211D01*
X22293Y-54215D01*
X22281Y-54226D01*
X22267Y-54241D01*
X22248Y-54263D01*
X22230Y-54289D01*
X22207Y-54315D01*
X22163Y-54378D01*
X23425D01*
Y-54681D01*
X21726D01*
Y-54677D01*
Y-54663D01*
Y-54640D01*
X21730Y-54611D01*
X21734Y-54577D01*
X21741Y-54540D01*
X21749Y-54504D01*
X21763Y-54463D01*
Y-54459D01*
X21767Y-54455D01*
X21775Y-54433D01*
X21789Y-54400D01*
X21812Y-54356D01*
X21841Y-54304D01*
X21878Y-54245D01*
X21919Y-54185D01*
X21971Y-54122D01*
Y-54119D01*
X21978Y-54115D01*
X21996Y-54093D01*
X22030Y-54059D01*
X22078Y-54011D01*
X22133Y-53956D01*
X22204Y-53889D01*
X22289Y-53815D01*
X22381Y-53738D01*
X22385Y-53734D01*
X22400Y-53723D01*
X22422Y-53704D01*
X22448Y-53682D01*
X22481Y-53653D01*
X22522Y-53619D01*
X22563Y-53582D01*
X22611Y-53541D01*
X22703Y-53453D01*
X22796Y-53364D01*
X22840Y-53320D01*
X22881Y-53275D01*
X22918Y-53234D01*
X22947Y-53194D01*
Y-53190D01*
X22955Y-53186D01*
X22962Y-53175D01*
X22970Y-53160D01*
X22996Y-53120D01*
X23025Y-53072D01*
X23051Y-53012D01*
X23077Y-52950D01*
X23092Y-52879D01*
X23099Y-52813D01*
Y-52809D01*
Y-52805D01*
X23095Y-52783D01*
X23092Y-52746D01*
X23081Y-52705D01*
X23066Y-52653D01*
X23040Y-52602D01*
X23007Y-52550D01*
X22962Y-52498D01*
X22955Y-52491D01*
X22936Y-52476D01*
X22910Y-52457D01*
X22870Y-52431D01*
X22818Y-52409D01*
X22759Y-52387D01*
X22688Y-52372D01*
X22611Y-52369D01*
X22589D01*
X22574Y-52372D01*
X22529Y-52376D01*
X22478Y-52387D01*
X22422Y-52402D01*
X22359Y-52428D01*
X22300Y-52461D01*
X22244Y-52505D01*
X22237Y-52513D01*
X22222Y-52531D01*
X22200Y-52561D01*
X22178Y-52605D01*
X22152Y-52657D01*
X22130Y-52724D01*
X22115Y-52798D01*
X22107Y-52883D01*
X21786Y-52850D01*
Y-52846D01*
X21789Y-52835D01*
Y-52816D01*
X21793Y-52790D01*
X21800Y-52761D01*
X21808Y-52728D01*
X21819Y-52687D01*
X21830Y-52646D01*
X21860Y-52557D01*
X21904Y-52469D01*
X21930Y-52424D01*
X21963Y-52380D01*
X21996Y-52339D01*
X22034Y-52302D01*
X22037Y-52298D01*
X22045Y-52295D01*
X22056Y-52284D01*
X22074Y-52272D01*
X22096Y-52258D01*
X22122Y-52243D01*
X22152Y-52224D01*
X22189Y-52206D01*
X22230Y-52187D01*
X22274Y-52169D01*
X22322Y-52154D01*
X22374Y-52139D01*
X22429Y-52128D01*
X22489Y-52117D01*
X22551Y-52113D01*
X22618Y-52110D01*
X22655D01*
X22681Y-52113D01*
D02*
G37*
G36*
X20531Y-52124D02*
X20561D01*
X20628Y-52132D01*
X20701Y-52139D01*
X20779Y-52154D01*
X20857Y-52172D01*
X20927Y-52198D01*
X20931D01*
X20935Y-52202D01*
X20957Y-52213D01*
X20990Y-52232D01*
X21027Y-52258D01*
X21071Y-52291D01*
X21120Y-52332D01*
X21164Y-52383D01*
X21205Y-52439D01*
X21208Y-52446D01*
X21219Y-52469D01*
X21238Y-52498D01*
X21257Y-52543D01*
X21275Y-52594D01*
X21294Y-52650D01*
X21305Y-52713D01*
X21308Y-52776D01*
Y-52783D01*
Y-52802D01*
X21305Y-52835D01*
X21297Y-52876D01*
X21286Y-52924D01*
X21268Y-52975D01*
X21245Y-53027D01*
X21216Y-53083D01*
X21212Y-53090D01*
X21201Y-53105D01*
X21179Y-53135D01*
X21149Y-53164D01*
X21112Y-53201D01*
X21068Y-53242D01*
X21012Y-53279D01*
X20949Y-53316D01*
X20953D01*
X20960Y-53320D01*
X20972Y-53323D01*
X20986Y-53331D01*
X21031Y-53345D01*
X21083Y-53371D01*
X21138Y-53405D01*
X21201Y-53445D01*
X21257Y-53493D01*
X21308Y-53553D01*
X21312Y-53560D01*
X21327Y-53582D01*
X21349Y-53615D01*
X21371Y-53660D01*
X21393Y-53719D01*
X21416Y-53782D01*
X21430Y-53856D01*
X21434Y-53937D01*
Y-53941D01*
Y-53945D01*
Y-53967D01*
X21430Y-54004D01*
X21423Y-54048D01*
X21416Y-54100D01*
X21401Y-54156D01*
X21382Y-54215D01*
X21356Y-54274D01*
X21353Y-54282D01*
X21342Y-54300D01*
X21327Y-54326D01*
X21305Y-54363D01*
X21275Y-54400D01*
X21245Y-54441D01*
X21208Y-54481D01*
X21168Y-54515D01*
X21164Y-54518D01*
X21149Y-54529D01*
X21123Y-54544D01*
X21090Y-54559D01*
X21049Y-54581D01*
X21001Y-54603D01*
X20949Y-54622D01*
X20887Y-54640D01*
X20879D01*
X20857Y-54648D01*
X20820Y-54651D01*
X20772Y-54659D01*
X20713Y-54666D01*
X20642Y-54674D01*
X20565Y-54677D01*
X20476Y-54681D01*
X19499D01*
Y-52121D01*
X20505D01*
X20531Y-52124D01*
D02*
G37*
G36*
X32308Y-54681D02*
X31994D01*
Y-52121D01*
X32308D01*
Y-54681D01*
D02*
G37*
G36*
X27994D02*
X27609D01*
X27310Y-53904D01*
X26237D01*
X25959Y-54681D01*
X25600D01*
X26577Y-52121D01*
X26947D01*
X27994Y-54681D01*
D02*
G37*
G36*
X20369Y-56787D02*
X20424Y-56790D01*
X20483Y-56798D01*
X20546Y-56813D01*
X20613Y-56827D01*
X20676Y-56850D01*
X20679D01*
X20683Y-56853D01*
X20701Y-56861D01*
X20731Y-56875D01*
X20768Y-56894D01*
X20809Y-56920D01*
X20850Y-56950D01*
X20887Y-56983D01*
X20920Y-57020D01*
X20923Y-57024D01*
X20931Y-57038D01*
X20946Y-57064D01*
X20964Y-57094D01*
X20983Y-57138D01*
X21001Y-57186D01*
X21016Y-57242D01*
X21031Y-57305D01*
X20724Y-57345D01*
Y-57338D01*
X20720Y-57323D01*
X20713Y-57297D01*
X20701Y-57264D01*
X20683Y-57231D01*
X20661Y-57194D01*
X20635Y-57157D01*
X20598Y-57123D01*
X20594Y-57120D01*
X20579Y-57112D01*
X20557Y-57098D01*
X20524Y-57083D01*
X20487Y-57068D01*
X20439Y-57053D01*
X20380Y-57046D01*
X20317Y-57042D01*
X20280D01*
X20243Y-57046D01*
X20195Y-57049D01*
X20146Y-57060D01*
X20095Y-57072D01*
X20047Y-57090D01*
X20006Y-57116D01*
X20002Y-57120D01*
X19991Y-57127D01*
X19976Y-57142D01*
X19962Y-57164D01*
X19943Y-57186D01*
X19928Y-57216D01*
X19917Y-57249D01*
X19913Y-57283D01*
Y-57286D01*
Y-57294D01*
X19917Y-57305D01*
Y-57319D01*
X19928Y-57357D01*
X19950Y-57393D01*
X19954Y-57397D01*
X19958Y-57401D01*
X19965Y-57412D01*
X19980Y-57423D01*
X19995Y-57434D01*
X20017Y-57449D01*
X20043Y-57460D01*
X20073Y-57475D01*
X20076D01*
X20084Y-57479D01*
X20098Y-57482D01*
X20124Y-57493D01*
X20161Y-57504D01*
X20209Y-57516D01*
X20239Y-57527D01*
X20272Y-57534D01*
X20309Y-57545D01*
X20350Y-57556D01*
X20354D01*
X20365Y-57560D01*
X20383Y-57564D01*
X20405Y-57571D01*
X20431Y-57578D01*
X20465Y-57586D01*
X20535Y-57608D01*
X20613Y-57630D01*
X20690Y-57656D01*
X20761Y-57682D01*
X20790Y-57693D01*
X20816Y-57704D01*
X20824Y-57708D01*
X20838Y-57715D01*
X20861Y-57727D01*
X20894Y-57745D01*
X20927Y-57767D01*
X20960Y-57797D01*
X20994Y-57830D01*
X21023Y-57867D01*
X21027Y-57871D01*
X21035Y-57886D01*
X21049Y-57908D01*
X21064Y-57941D01*
X21075Y-57982D01*
X21090Y-58026D01*
X21097Y-58078D01*
X21101Y-58137D01*
Y-58145D01*
Y-58163D01*
X21097Y-58193D01*
X21090Y-58233D01*
X21079Y-58278D01*
X21060Y-58326D01*
X21038Y-58381D01*
X21009Y-58433D01*
X21005Y-58441D01*
X20990Y-58455D01*
X20972Y-58481D01*
X20942Y-58511D01*
X20901Y-58544D01*
X20857Y-58581D01*
X20805Y-58614D01*
X20742Y-58648D01*
X20739D01*
X20735Y-58652D01*
X20713Y-58659D01*
X20676Y-58670D01*
X20628Y-58685D01*
X20568Y-58700D01*
X20502Y-58711D01*
X20431Y-58718D01*
X20350Y-58722D01*
X20317D01*
X20291Y-58718D01*
X20261D01*
X20224Y-58714D01*
X20187Y-58711D01*
X20146Y-58703D01*
X20058Y-58685D01*
X19965Y-58659D01*
X19876Y-58622D01*
X19836Y-58600D01*
X19799Y-58574D01*
X19795Y-58570D01*
X19791Y-58566D01*
X19769Y-58544D01*
X19736Y-58511D01*
X19699Y-58459D01*
X19658Y-58396D01*
X19617Y-58322D01*
X19584Y-58230D01*
X19558Y-58126D01*
X19869Y-58078D01*
Y-58082D01*
Y-58085D01*
X19876Y-58108D01*
X19884Y-58145D01*
X19899Y-58185D01*
X19917Y-58230D01*
X19939Y-58278D01*
X19973Y-58326D01*
X20013Y-58367D01*
X20021Y-58370D01*
X20035Y-58381D01*
X20065Y-58396D01*
X20102Y-58415D01*
X20150Y-58433D01*
X20206Y-58448D01*
X20272Y-58459D01*
X20350Y-58463D01*
X20387D01*
X20424Y-58459D01*
X20472Y-58452D01*
X20524Y-58441D01*
X20579Y-58426D01*
X20628Y-58407D01*
X20672Y-58378D01*
X20676Y-58374D01*
X20690Y-58363D01*
X20705Y-58344D01*
X20727Y-58319D01*
X20746Y-58289D01*
X20764Y-58252D01*
X20775Y-58215D01*
X20779Y-58170D01*
Y-58167D01*
Y-58152D01*
X20775Y-58134D01*
X20768Y-58108D01*
X20757Y-58082D01*
X20739Y-58056D01*
X20716Y-58026D01*
X20683Y-58004D01*
X20679Y-58000D01*
X20668Y-57997D01*
X20650Y-57986D01*
X20620Y-57974D01*
X20576Y-57960D01*
X20550Y-57948D01*
X20520Y-57941D01*
X20487Y-57930D01*
X20450Y-57919D01*
X20409Y-57908D01*
X20361Y-57897D01*
X20357D01*
X20346Y-57893D01*
X20328Y-57889D01*
X20306Y-57882D01*
X20276Y-57875D01*
X20243Y-57863D01*
X20172Y-57845D01*
X20091Y-57819D01*
X20013Y-57797D01*
X19939Y-57771D01*
X19906Y-57756D01*
X19880Y-57745D01*
X19873Y-57741D01*
X19858Y-57734D01*
X19836Y-57719D01*
X19806Y-57701D01*
X19773Y-57675D01*
X19739Y-57645D01*
X19706Y-57612D01*
X19677Y-57571D01*
X19673Y-57567D01*
X19666Y-57553D01*
X19654Y-57527D01*
X19643Y-57497D01*
X19632Y-57460D01*
X19621Y-57416D01*
X19614Y-57371D01*
X19610Y-57319D01*
Y-57312D01*
Y-57297D01*
X19614Y-57275D01*
X19617Y-57242D01*
X19625Y-57209D01*
X19632Y-57168D01*
X19647Y-57131D01*
X19666Y-57090D01*
X19669Y-57086D01*
X19677Y-57072D01*
X19688Y-57053D01*
X19706Y-57027D01*
X19728Y-57001D01*
X19754Y-56968D01*
X19784Y-56938D01*
X19821Y-56912D01*
X19825Y-56909D01*
X19836Y-56905D01*
X19850Y-56894D01*
X19873Y-56883D01*
X19902Y-56868D01*
X19936Y-56853D01*
X19976Y-56839D01*
X20021Y-56824D01*
X20028Y-56820D01*
X20043Y-56816D01*
X20069Y-56809D01*
X20102Y-56801D01*
X20143Y-56794D01*
X20187Y-56790D01*
X20239Y-56783D01*
X20328D01*
X20369Y-56787D01*
D02*
G37*
G36*
X18578D02*
X18633Y-56790D01*
X18692Y-56798D01*
X18755Y-56813D01*
X18822Y-56827D01*
X18885Y-56850D01*
X18889D01*
X18892Y-56853D01*
X18911Y-56861D01*
X18940Y-56875D01*
X18977Y-56894D01*
X19018Y-56920D01*
X19059Y-56950D01*
X19096Y-56983D01*
X19129Y-57020D01*
X19133Y-57024D01*
X19140Y-57038D01*
X19155Y-57064D01*
X19173Y-57094D01*
X19192Y-57138D01*
X19210Y-57186D01*
X19225Y-57242D01*
X19240Y-57305D01*
X18933Y-57345D01*
Y-57338D01*
X18929Y-57323D01*
X18922Y-57297D01*
X18911Y-57264D01*
X18892Y-57231D01*
X18870Y-57194D01*
X18844Y-57157D01*
X18807Y-57123D01*
X18803Y-57120D01*
X18789Y-57112D01*
X18766Y-57098D01*
X18733Y-57083D01*
X18696Y-57068D01*
X18648Y-57053D01*
X18589Y-57046D01*
X18526Y-57042D01*
X18489D01*
X18452Y-57046D01*
X18404Y-57049D01*
X18356Y-57060D01*
X18304Y-57072D01*
X18256Y-57090D01*
X18215Y-57116D01*
X18211Y-57120D01*
X18200Y-57127D01*
X18185Y-57142D01*
X18171Y-57164D01*
X18152Y-57186D01*
X18137Y-57216D01*
X18126Y-57249D01*
X18123Y-57283D01*
Y-57286D01*
Y-57294D01*
X18126Y-57305D01*
Y-57319D01*
X18137Y-57357D01*
X18160Y-57393D01*
X18163Y-57397D01*
X18167Y-57401D01*
X18174Y-57412D01*
X18189Y-57423D01*
X18204Y-57434D01*
X18226Y-57449D01*
X18252Y-57460D01*
X18282Y-57475D01*
X18285D01*
X18293Y-57479D01*
X18308Y-57482D01*
X18334Y-57493D01*
X18371Y-57504D01*
X18419Y-57516D01*
X18448Y-57527D01*
X18482Y-57534D01*
X18519Y-57545D01*
X18559Y-57556D01*
X18563D01*
X18574Y-57560D01*
X18593Y-57564D01*
X18615Y-57571D01*
X18641Y-57578D01*
X18674Y-57586D01*
X18744Y-57608D01*
X18822Y-57630D01*
X18900Y-57656D01*
X18970Y-57682D01*
X19000Y-57693D01*
X19025Y-57704D01*
X19033Y-57708D01*
X19048Y-57715D01*
X19070Y-57727D01*
X19103Y-57745D01*
X19136Y-57767D01*
X19170Y-57797D01*
X19203Y-57830D01*
X19233Y-57867D01*
X19236Y-57871D01*
X19244Y-57886D01*
X19259Y-57908D01*
X19273Y-57941D01*
X19284Y-57982D01*
X19299Y-58026D01*
X19307Y-58078D01*
X19310Y-58137D01*
Y-58145D01*
Y-58163D01*
X19307Y-58193D01*
X19299Y-58233D01*
X19288Y-58278D01*
X19270Y-58326D01*
X19247Y-58381D01*
X19218Y-58433D01*
X19214Y-58441D01*
X19199Y-58455D01*
X19181Y-58481D01*
X19151Y-58511D01*
X19110Y-58544D01*
X19066Y-58581D01*
X19014Y-58614D01*
X18951Y-58648D01*
X18948D01*
X18944Y-58652D01*
X18922Y-58659D01*
X18885Y-58670D01*
X18837Y-58685D01*
X18778Y-58700D01*
X18711Y-58711D01*
X18641Y-58718D01*
X18559Y-58722D01*
X18526D01*
X18500Y-58718D01*
X18470D01*
X18433Y-58714D01*
X18396Y-58711D01*
X18356Y-58703D01*
X18267Y-58685D01*
X18174Y-58659D01*
X18086Y-58622D01*
X18045Y-58600D01*
X18008Y-58574D01*
X18004Y-58570D01*
X18000Y-58566D01*
X17978Y-58544D01*
X17945Y-58511D01*
X17908Y-58459D01*
X17867Y-58396D01*
X17827Y-58322D01*
X17793Y-58230D01*
X17767Y-58126D01*
X18078Y-58078D01*
Y-58082D01*
Y-58085D01*
X18086Y-58108D01*
X18093Y-58145D01*
X18108Y-58185D01*
X18126Y-58230D01*
X18148Y-58278D01*
X18182Y-58326D01*
X18223Y-58367D01*
X18230Y-58370D01*
X18245Y-58381D01*
X18274Y-58396D01*
X18311Y-58415D01*
X18359Y-58433D01*
X18415Y-58448D01*
X18482Y-58459D01*
X18559Y-58463D01*
X18596D01*
X18633Y-58459D01*
X18681Y-58452D01*
X18733Y-58441D01*
X18789Y-58426D01*
X18837Y-58407D01*
X18881Y-58378D01*
X18885Y-58374D01*
X18900Y-58363D01*
X18914Y-58344D01*
X18937Y-58319D01*
X18955Y-58289D01*
X18974Y-58252D01*
X18985Y-58215D01*
X18988Y-58170D01*
Y-58167D01*
Y-58152D01*
X18985Y-58134D01*
X18977Y-58108D01*
X18966Y-58082D01*
X18948Y-58056D01*
X18925Y-58026D01*
X18892Y-58004D01*
X18889Y-58000D01*
X18877Y-57997D01*
X18859Y-57986D01*
X18829Y-57974D01*
X18785Y-57960D01*
X18759Y-57948D01*
X18729Y-57941D01*
X18696Y-57930D01*
X18659Y-57919D01*
X18618Y-57908D01*
X18570Y-57897D01*
X18567D01*
X18555Y-57893D01*
X18537Y-57889D01*
X18515Y-57882D01*
X18485Y-57875D01*
X18452Y-57863D01*
X18382Y-57845D01*
X18300Y-57819D01*
X18223Y-57797D01*
X18148Y-57771D01*
X18115Y-57756D01*
X18089Y-57745D01*
X18082Y-57741D01*
X18067Y-57734D01*
X18045Y-57719D01*
X18015Y-57701D01*
X17982Y-57675D01*
X17949Y-57645D01*
X17915Y-57612D01*
X17886Y-57571D01*
X17882Y-57567D01*
X17875Y-57553D01*
X17864Y-57527D01*
X17853Y-57497D01*
X17841Y-57460D01*
X17830Y-57416D01*
X17823Y-57371D01*
X17819Y-57319D01*
Y-57312D01*
Y-57297D01*
X17823Y-57275D01*
X17827Y-57242D01*
X17834Y-57209D01*
X17841Y-57168D01*
X17856Y-57131D01*
X17875Y-57090D01*
X17878Y-57086D01*
X17886Y-57072D01*
X17897Y-57053D01*
X17915Y-57027D01*
X17938Y-57001D01*
X17964Y-56968D01*
X17993Y-56938D01*
X18030Y-56912D01*
X18034Y-56909D01*
X18045Y-56905D01*
X18060Y-56894D01*
X18082Y-56883D01*
X18112Y-56868D01*
X18145Y-56853D01*
X18185Y-56839D01*
X18230Y-56824D01*
X18237Y-56820D01*
X18252Y-56816D01*
X18278Y-56809D01*
X18311Y-56801D01*
X18352Y-56794D01*
X18396Y-56790D01*
X18448Y-56783D01*
X18537D01*
X18578Y-56787D01*
D02*
G37*
G36*
X15451D02*
X15492Y-56794D01*
X15540Y-56809D01*
X15592Y-56827D01*
X15651Y-56853D01*
X15714Y-56887D01*
X15599Y-57175D01*
X15596Y-57171D01*
X15581Y-57164D01*
X15559Y-57153D01*
X15529Y-57142D01*
X15496Y-57131D01*
X15455Y-57120D01*
X15414Y-57112D01*
X15373Y-57109D01*
X15355D01*
X15337Y-57112D01*
X15311Y-57116D01*
X15285Y-57123D01*
X15251Y-57134D01*
X15218Y-57149D01*
X15189Y-57171D01*
X15185Y-57175D01*
X15174Y-57183D01*
X15163Y-57197D01*
X15144Y-57216D01*
X15126Y-57242D01*
X15107Y-57271D01*
X15089Y-57305D01*
X15074Y-57345D01*
X15070Y-57353D01*
X15066Y-57375D01*
X15059Y-57408D01*
X15048Y-57453D01*
X15037Y-57508D01*
X15029Y-57571D01*
X15026Y-57638D01*
X15022Y-57712D01*
Y-58681D01*
X14707D01*
Y-56824D01*
X14992D01*
Y-57105D01*
X14996Y-57101D01*
X15011Y-57075D01*
X15029Y-57042D01*
X15059Y-57001D01*
X15089Y-56961D01*
X15122Y-56916D01*
X15155Y-56879D01*
X15189Y-56850D01*
X15192Y-56846D01*
X15203Y-56839D01*
X15225Y-56827D01*
X15248Y-56816D01*
X15277Y-56805D01*
X15314Y-56794D01*
X15351Y-56787D01*
X15392Y-56783D01*
X15418D01*
X15451Y-56787D01*
D02*
G37*
G36*
X11477D02*
X11518Y-56794D01*
X11566Y-56809D01*
X11618Y-56827D01*
X11677Y-56853D01*
X11740Y-56887D01*
X11625Y-57175D01*
X11622Y-57171D01*
X11607Y-57164D01*
X11585Y-57153D01*
X11555Y-57142D01*
X11522Y-57131D01*
X11481Y-57120D01*
X11440Y-57112D01*
X11400Y-57109D01*
X11381D01*
X11363Y-57112D01*
X11337Y-57116D01*
X11311Y-57123D01*
X11278Y-57134D01*
X11244Y-57149D01*
X11215Y-57171D01*
X11211Y-57175D01*
X11200Y-57183D01*
X11189Y-57197D01*
X11170Y-57216D01*
X11152Y-57242D01*
X11133Y-57271D01*
X11115Y-57305D01*
X11100Y-57345D01*
X11096Y-57353D01*
X11093Y-57375D01*
X11085Y-57408D01*
X11074Y-57453D01*
X11063Y-57508D01*
X11056Y-57571D01*
X11052Y-57638D01*
X11048Y-57712D01*
Y-58681D01*
X10734D01*
Y-56824D01*
X11019D01*
Y-57105D01*
X11022Y-57101D01*
X11037Y-57075D01*
X11056Y-57042D01*
X11085Y-57001D01*
X11115Y-56961D01*
X11148Y-56916D01*
X11181Y-56879D01*
X11215Y-56850D01*
X11218Y-56846D01*
X11230Y-56839D01*
X11252Y-56827D01*
X11274Y-56816D01*
X11304Y-56805D01*
X11340Y-56794D01*
X11377Y-56787D01*
X11418Y-56783D01*
X11444D01*
X11477Y-56787D01*
D02*
G37*
G36*
X6268Y-58681D02*
X5953D01*
Y-56121D01*
X6268D01*
Y-58681D01*
D02*
G37*
G36*
X7578Y-56787D02*
X7607Y-56790D01*
X7644Y-56798D01*
X7685Y-56805D01*
X7733Y-56816D01*
X7777Y-56827D01*
X7829Y-56846D01*
X7877Y-56864D01*
X7929Y-56890D01*
X7981Y-56920D01*
X8033Y-56953D01*
X8081Y-56994D01*
X8125Y-57038D01*
X8129Y-57042D01*
X8136Y-57049D01*
X8147Y-57064D01*
X8162Y-57086D01*
X8181Y-57112D01*
X8199Y-57142D01*
X8221Y-57179D01*
X8244Y-57223D01*
X8266Y-57271D01*
X8288Y-57323D01*
X8307Y-57382D01*
X8325Y-57445D01*
X8340Y-57516D01*
X8351Y-57590D01*
X8358Y-57667D01*
X8362Y-57752D01*
Y-57756D01*
Y-57771D01*
Y-57797D01*
X8358Y-57834D01*
X6971D01*
Y-57837D01*
Y-57849D01*
X6974Y-57863D01*
Y-57886D01*
X6978Y-57911D01*
X6986Y-57941D01*
X6997Y-58008D01*
X7019Y-58082D01*
X7049Y-58163D01*
X7089Y-58237D01*
X7141Y-58304D01*
X7145D01*
X7148Y-58311D01*
X7171Y-58330D01*
X7204Y-58355D01*
X7248Y-58381D01*
X7307Y-58411D01*
X7374Y-58437D01*
X7448Y-58455D01*
X7489Y-58459D01*
X7533Y-58463D01*
X7563D01*
X7596Y-58459D01*
X7637Y-58452D01*
X7681Y-58441D01*
X7733Y-58426D01*
X7781Y-58404D01*
X7829Y-58374D01*
X7833Y-58370D01*
X7851Y-58355D01*
X7874Y-58333D01*
X7899Y-58304D01*
X7929Y-58263D01*
X7962Y-58211D01*
X7996Y-58152D01*
X8025Y-58082D01*
X8351Y-58122D01*
Y-58126D01*
X8347Y-58134D01*
X8343Y-58148D01*
X8336Y-58170D01*
X8325Y-58193D01*
X8314Y-58222D01*
X8284Y-58285D01*
X8247Y-58355D01*
X8196Y-58429D01*
X8136Y-58500D01*
X8062Y-58566D01*
X8059D01*
X8051Y-58574D01*
X8040Y-58581D01*
X8025Y-58592D01*
X8003Y-58603D01*
X7981Y-58614D01*
X7951Y-58629D01*
X7918Y-58644D01*
X7881Y-58659D01*
X7844Y-58674D01*
X7751Y-58696D01*
X7648Y-58714D01*
X7533Y-58722D01*
X7492D01*
X7467Y-58718D01*
X7433Y-58714D01*
X7393Y-58707D01*
X7348Y-58700D01*
X7300Y-58692D01*
X7197Y-58663D01*
X7141Y-58640D01*
X7089Y-58618D01*
X7034Y-58589D01*
X6982Y-58555D01*
X6934Y-58518D01*
X6886Y-58474D01*
X6882Y-58470D01*
X6875Y-58463D01*
X6864Y-58448D01*
X6849Y-58426D01*
X6830Y-58400D01*
X6812Y-58370D01*
X6790Y-58333D01*
X6767Y-58293D01*
X6745Y-58245D01*
X6723Y-58193D01*
X6704Y-58134D01*
X6686Y-58071D01*
X6671Y-58004D01*
X6660Y-57930D01*
X6653Y-57852D01*
X6649Y-57771D01*
Y-57767D01*
Y-57749D01*
Y-57727D01*
X6653Y-57693D01*
X6656Y-57652D01*
X6660Y-57608D01*
X6667Y-57556D01*
X6679Y-57504D01*
X6708Y-57386D01*
X6727Y-57327D01*
X6749Y-57264D01*
X6778Y-57205D01*
X6812Y-57149D01*
X6849Y-57094D01*
X6889Y-57042D01*
X6893Y-57038D01*
X6900Y-57031D01*
X6915Y-57020D01*
X6934Y-57001D01*
X6956Y-56983D01*
X6986Y-56961D01*
X7019Y-56935D01*
X7060Y-56912D01*
X7100Y-56887D01*
X7148Y-56864D01*
X7200Y-56842D01*
X7256Y-56824D01*
X7315Y-56805D01*
X7378Y-56794D01*
X7444Y-56787D01*
X7515Y-56783D01*
X7552D01*
X7578Y-56787D01*
D02*
G37*
G36*
X16768D02*
X16824Y-56790D01*
X16887Y-56798D01*
X16950Y-56809D01*
X17013Y-56824D01*
X17072Y-56842D01*
X17079Y-56846D01*
X17098Y-56853D01*
X17124Y-56864D01*
X17157Y-56879D01*
X17194Y-56901D01*
X17231Y-56924D01*
X17264Y-56953D01*
X17294Y-56983D01*
X17298Y-56986D01*
X17305Y-56998D01*
X17316Y-57016D01*
X17331Y-57038D01*
X17349Y-57072D01*
X17364Y-57105D01*
X17379Y-57146D01*
X17390Y-57194D01*
Y-57197D01*
X17394Y-57209D01*
X17397Y-57231D01*
X17401Y-57260D01*
Y-57301D01*
X17405Y-57349D01*
X17409Y-57412D01*
Y-57482D01*
Y-57904D01*
Y-57908D01*
Y-57923D01*
Y-57945D01*
Y-57974D01*
Y-58008D01*
Y-58048D01*
X17412Y-58137D01*
Y-58230D01*
X17416Y-58322D01*
X17420Y-58363D01*
Y-58400D01*
X17423Y-58433D01*
X17427Y-58459D01*
Y-58463D01*
X17431Y-58478D01*
X17434Y-58500D01*
X17446Y-58529D01*
X17453Y-58563D01*
X17468Y-58600D01*
X17486Y-58640D01*
X17505Y-58681D01*
X17175D01*
X17172Y-58677D01*
X17168Y-58663D01*
X17161Y-58644D01*
X17150Y-58614D01*
X17138Y-58581D01*
X17131Y-58540D01*
X17124Y-58496D01*
X17116Y-58448D01*
X17112D01*
X17109Y-58455D01*
X17087Y-58474D01*
X17053Y-58500D01*
X17009Y-58533D01*
X16953Y-58566D01*
X16898Y-58603D01*
X16839Y-58637D01*
X16776Y-58663D01*
X16768Y-58666D01*
X16746Y-58670D01*
X16713Y-58681D01*
X16672Y-58692D01*
X16620Y-58703D01*
X16561Y-58711D01*
X16495Y-58718D01*
X16428Y-58722D01*
X16398D01*
X16376Y-58718D01*
X16350D01*
X16321Y-58714D01*
X16254Y-58703D01*
X16180Y-58685D01*
X16099Y-58659D01*
X16025Y-58622D01*
X15958Y-58574D01*
X15951Y-58566D01*
X15932Y-58548D01*
X15906Y-58515D01*
X15877Y-58470D01*
X15847Y-58415D01*
X15821Y-58352D01*
X15803Y-58274D01*
X15799Y-58237D01*
X15795Y-58193D01*
Y-58185D01*
Y-58170D01*
X15799Y-58145D01*
X15803Y-58111D01*
X15810Y-58071D01*
X15821Y-58030D01*
X15836Y-57986D01*
X15855Y-57945D01*
X15858Y-57941D01*
X15866Y-57926D01*
X15880Y-57904D01*
X15899Y-57878D01*
X15921Y-57849D01*
X15951Y-57819D01*
X15980Y-57789D01*
X16017Y-57763D01*
X16021Y-57760D01*
X16036Y-57752D01*
X16054Y-57738D01*
X16084Y-57723D01*
X16117Y-57708D01*
X16158Y-57689D01*
X16199Y-57675D01*
X16247Y-57660D01*
X16250D01*
X16265Y-57656D01*
X16287Y-57649D01*
X16317Y-57645D01*
X16354Y-57638D01*
X16402Y-57630D01*
X16458Y-57619D01*
X16524Y-57612D01*
X16528D01*
X16543Y-57608D01*
X16561D01*
X16587Y-57604D01*
X16617Y-57601D01*
X16654Y-57593D01*
X16694Y-57590D01*
X16739Y-57582D01*
X16828Y-57564D01*
X16924Y-57545D01*
X17009Y-57523D01*
X17050Y-57512D01*
X17087Y-57501D01*
Y-57497D01*
Y-57490D01*
X17090Y-57468D01*
Y-57442D01*
Y-57427D01*
Y-57419D01*
Y-57416D01*
Y-57412D01*
Y-57390D01*
X17087Y-57353D01*
X17079Y-57312D01*
X17068Y-57268D01*
X17050Y-57223D01*
X17027Y-57183D01*
X16998Y-57149D01*
X16994Y-57146D01*
X16976Y-57131D01*
X16946Y-57116D01*
X16909Y-57094D01*
X16857Y-57075D01*
X16798Y-57057D01*
X16724Y-57046D01*
X16639Y-57042D01*
X16602D01*
X16565Y-57046D01*
X16513Y-57053D01*
X16461Y-57060D01*
X16406Y-57075D01*
X16354Y-57094D01*
X16310Y-57120D01*
X16306Y-57123D01*
X16291Y-57134D01*
X16273Y-57153D01*
X16250Y-57183D01*
X16228Y-57220D01*
X16202Y-57268D01*
X16180Y-57327D01*
X16158Y-57393D01*
X15851Y-57353D01*
Y-57349D01*
X15855Y-57345D01*
Y-57334D01*
X15858Y-57319D01*
X15869Y-57286D01*
X15884Y-57238D01*
X15903Y-57190D01*
X15925Y-57138D01*
X15954Y-57086D01*
X15988Y-57038D01*
X15991Y-57035D01*
X16006Y-57020D01*
X16028Y-56998D01*
X16058Y-56968D01*
X16099Y-56938D01*
X16147Y-56909D01*
X16202Y-56875D01*
X16265Y-56850D01*
X16269D01*
X16273Y-56846D01*
X16284Y-56842D01*
X16298Y-56839D01*
X16335Y-56827D01*
X16387Y-56816D01*
X16446Y-56805D01*
X16521Y-56794D01*
X16598Y-56787D01*
X16687Y-56783D01*
X16728D01*
X16768Y-56787D01*
D02*
G37*
G36*
X9613D02*
X9668Y-56790D01*
X9731Y-56798D01*
X9794Y-56809D01*
X9857Y-56824D01*
X9916Y-56842D01*
X9923Y-56846D01*
X9942Y-56853D01*
X9968Y-56864D01*
X10001Y-56879D01*
X10038Y-56901D01*
X10075Y-56924D01*
X10108Y-56953D01*
X10138Y-56983D01*
X10142Y-56986D01*
X10149Y-56998D01*
X10160Y-57016D01*
X10175Y-57038D01*
X10193Y-57072D01*
X10208Y-57105D01*
X10223Y-57146D01*
X10234Y-57194D01*
Y-57197D01*
X10238Y-57209D01*
X10242Y-57231D01*
X10245Y-57260D01*
Y-57301D01*
X10249Y-57349D01*
X10253Y-57412D01*
Y-57482D01*
Y-57904D01*
Y-57908D01*
Y-57923D01*
Y-57945D01*
Y-57974D01*
Y-58008D01*
Y-58048D01*
X10256Y-58137D01*
Y-58230D01*
X10260Y-58322D01*
X10264Y-58363D01*
Y-58400D01*
X10267Y-58433D01*
X10271Y-58459D01*
Y-58463D01*
X10275Y-58478D01*
X10279Y-58500D01*
X10290Y-58529D01*
X10297Y-58563D01*
X10312Y-58600D01*
X10330Y-58640D01*
X10349Y-58681D01*
X10020D01*
X10016Y-58677D01*
X10012Y-58663D01*
X10005Y-58644D01*
X9994Y-58614D01*
X9983Y-58581D01*
X9975Y-58540D01*
X9968Y-58496D01*
X9960Y-58448D01*
X9957D01*
X9953Y-58455D01*
X9931Y-58474D01*
X9898Y-58500D01*
X9853Y-58533D01*
X9798Y-58566D01*
X9742Y-58603D01*
X9683Y-58637D01*
X9620Y-58663D01*
X9613Y-58666D01*
X9590Y-58670D01*
X9557Y-58681D01*
X9516Y-58692D01*
X9465Y-58703D01*
X9405Y-58711D01*
X9339Y-58718D01*
X9272Y-58722D01*
X9243D01*
X9220Y-58718D01*
X9194D01*
X9165Y-58714D01*
X9098Y-58703D01*
X9024Y-58685D01*
X8943Y-58659D01*
X8869Y-58622D01*
X8802Y-58574D01*
X8795Y-58566D01*
X8776Y-58548D01*
X8750Y-58515D01*
X8721Y-58470D01*
X8691Y-58415D01*
X8665Y-58352D01*
X8647Y-58274D01*
X8643Y-58237D01*
X8640Y-58193D01*
Y-58185D01*
Y-58170D01*
X8643Y-58145D01*
X8647Y-58111D01*
X8654Y-58071D01*
X8665Y-58030D01*
X8680Y-57986D01*
X8699Y-57945D01*
X8702Y-57941D01*
X8710Y-57926D01*
X8725Y-57904D01*
X8743Y-57878D01*
X8765Y-57849D01*
X8795Y-57819D01*
X8824Y-57789D01*
X8862Y-57763D01*
X8865Y-57760D01*
X8880Y-57752D01*
X8899Y-57738D01*
X8928Y-57723D01*
X8961Y-57708D01*
X9002Y-57689D01*
X9043Y-57675D01*
X9091Y-57660D01*
X9095D01*
X9109Y-57656D01*
X9132Y-57649D01*
X9161Y-57645D01*
X9198Y-57638D01*
X9246Y-57630D01*
X9302Y-57619D01*
X9368Y-57612D01*
X9372D01*
X9387Y-57608D01*
X9405D01*
X9431Y-57604D01*
X9461Y-57601D01*
X9498Y-57593D01*
X9539Y-57590D01*
X9583Y-57582D01*
X9672Y-57564D01*
X9768Y-57545D01*
X9853Y-57523D01*
X9894Y-57512D01*
X9931Y-57501D01*
Y-57497D01*
Y-57490D01*
X9934Y-57468D01*
Y-57442D01*
Y-57427D01*
Y-57419D01*
Y-57416D01*
Y-57412D01*
Y-57390D01*
X9931Y-57353D01*
X9923Y-57312D01*
X9912Y-57268D01*
X9894Y-57223D01*
X9872Y-57183D01*
X9842Y-57149D01*
X9838Y-57146D01*
X9820Y-57131D01*
X9790Y-57116D01*
X9753Y-57094D01*
X9701Y-57075D01*
X9642Y-57057D01*
X9568Y-57046D01*
X9483Y-57042D01*
X9446D01*
X9409Y-57046D01*
X9357Y-57053D01*
X9306Y-57060D01*
X9250Y-57075D01*
X9198Y-57094D01*
X9154Y-57120D01*
X9150Y-57123D01*
X9135Y-57134D01*
X9117Y-57153D01*
X9095Y-57183D01*
X9072Y-57220D01*
X9047Y-57268D01*
X9024Y-57327D01*
X9002Y-57393D01*
X8695Y-57353D01*
Y-57349D01*
X8699Y-57345D01*
Y-57334D01*
X8702Y-57319D01*
X8714Y-57286D01*
X8728Y-57238D01*
X8747Y-57190D01*
X8769Y-57138D01*
X8799Y-57086D01*
X8832Y-57038D01*
X8836Y-57035D01*
X8850Y-57020D01*
X8873Y-56998D01*
X8902Y-56968D01*
X8943Y-56938D01*
X8991Y-56909D01*
X9047Y-56875D01*
X9109Y-56850D01*
X9113D01*
X9117Y-56846D01*
X9128Y-56842D01*
X9143Y-56839D01*
X9180Y-56827D01*
X9232Y-56816D01*
X9291Y-56805D01*
X9365Y-56794D01*
X9442Y-56787D01*
X9531Y-56783D01*
X9572D01*
X9613Y-56787D01*
D02*
G37*
G36*
X51519Y-52113D02*
X51567Y-52121D01*
X51622Y-52132D01*
X51682Y-52147D01*
X51745Y-52165D01*
X51804Y-52195D01*
X51807D01*
X51811Y-52198D01*
X51830Y-52210D01*
X51859Y-52228D01*
X51896Y-52254D01*
X51937Y-52291D01*
X51981Y-52332D01*
X52022Y-52380D01*
X52063Y-52435D01*
X52066Y-52443D01*
X52081Y-52461D01*
X52096Y-52494D01*
X52122Y-52543D01*
X52144Y-52598D01*
X52174Y-52661D01*
X52200Y-52735D01*
X52222Y-52816D01*
Y-52820D01*
X52226Y-52827D01*
X52229Y-52838D01*
X52233Y-52857D01*
X52237Y-52879D01*
X52240Y-52905D01*
X52248Y-52938D01*
X52251Y-52975D01*
X52259Y-53016D01*
X52263Y-53061D01*
X52266Y-53112D01*
X52274Y-53164D01*
X52277Y-53223D01*
Y-53282D01*
X52281Y-53349D01*
Y-53419D01*
Y-53423D01*
Y-53438D01*
Y-53464D01*
Y-53493D01*
X52277Y-53534D01*
Y-53579D01*
X52274Y-53627D01*
X52270Y-53678D01*
X52259Y-53797D01*
X52240Y-53919D01*
X52218Y-54037D01*
X52203Y-54093D01*
X52185Y-54148D01*
Y-54152D01*
X52181Y-54159D01*
X52174Y-54174D01*
X52166Y-54193D01*
X52159Y-54219D01*
X52144Y-54245D01*
X52114Y-54307D01*
X52078Y-54374D01*
X52029Y-54448D01*
X51974Y-54515D01*
X51907Y-54577D01*
X51904D01*
X51900Y-54585D01*
X51889Y-54592D01*
X51874Y-54600D01*
X51855Y-54611D01*
X51837Y-54626D01*
X51781Y-54651D01*
X51715Y-54677D01*
X51637Y-54703D01*
X51545Y-54718D01*
X51445Y-54725D01*
X51408D01*
X51382Y-54722D01*
X51352Y-54718D01*
X51315Y-54711D01*
X51275Y-54703D01*
X51230Y-54692D01*
X51186Y-54677D01*
X51138Y-54663D01*
X51090Y-54640D01*
X51042Y-54615D01*
X50993Y-54585D01*
X50945Y-54548D01*
X50901Y-54507D01*
X50860Y-54463D01*
X50857Y-54459D01*
X50849Y-54448D01*
X50838Y-54430D01*
X50819Y-54400D01*
X50801Y-54367D01*
X50783Y-54322D01*
X50757Y-54270D01*
X50734Y-54211D01*
X50712Y-54145D01*
X50690Y-54067D01*
X50668Y-53982D01*
X50649Y-53886D01*
X50631Y-53782D01*
X50620Y-53671D01*
X50612Y-53549D01*
X50609Y-53419D01*
Y-53416D01*
Y-53401D01*
Y-53375D01*
Y-53345D01*
X50612Y-53305D01*
Y-53260D01*
X50616Y-53212D01*
X50620Y-53157D01*
X50631Y-53042D01*
X50649Y-52920D01*
X50671Y-52798D01*
X50686Y-52742D01*
X50701Y-52687D01*
Y-52683D01*
X50705Y-52676D01*
X50712Y-52661D01*
X50720Y-52642D01*
X50727Y-52617D01*
X50742Y-52591D01*
X50771Y-52528D01*
X50808Y-52461D01*
X50857Y-52391D01*
X50912Y-52320D01*
X50979Y-52261D01*
X50982D01*
X50986Y-52254D01*
X50997Y-52246D01*
X51012Y-52239D01*
X51030Y-52224D01*
X51053Y-52213D01*
X51108Y-52184D01*
X51175Y-52158D01*
X51252Y-52132D01*
X51345Y-52117D01*
X51445Y-52110D01*
X51478D01*
X51519Y-52113D01*
D02*
G37*
G36*
X24672D02*
X24720Y-52121D01*
X24775Y-52132D01*
X24834Y-52147D01*
X24897Y-52165D01*
X24957Y-52195D01*
X24960D01*
X24964Y-52198D01*
X24982Y-52210D01*
X25012Y-52228D01*
X25049Y-52254D01*
X25090Y-52291D01*
X25134Y-52332D01*
X25175Y-52380D01*
X25216Y-52435D01*
X25219Y-52443D01*
X25234Y-52461D01*
X25249Y-52494D01*
X25275Y-52543D01*
X25297Y-52598D01*
X25326Y-52661D01*
X25352Y-52735D01*
X25375Y-52816D01*
Y-52820D01*
X25378Y-52827D01*
X25382Y-52838D01*
X25386Y-52857D01*
X25389Y-52879D01*
X25393Y-52905D01*
X25401Y-52938D01*
X25404Y-52975D01*
X25412Y-53016D01*
X25415Y-53061D01*
X25419Y-53112D01*
X25426Y-53164D01*
X25430Y-53223D01*
Y-53282D01*
X25434Y-53349D01*
Y-53419D01*
Y-53423D01*
Y-53438D01*
Y-53464D01*
Y-53493D01*
X25430Y-53534D01*
Y-53579D01*
X25426Y-53627D01*
X25423Y-53678D01*
X25412Y-53797D01*
X25393Y-53919D01*
X25371Y-54037D01*
X25356Y-54093D01*
X25338Y-54148D01*
Y-54152D01*
X25334Y-54159D01*
X25326Y-54174D01*
X25319Y-54193D01*
X25312Y-54219D01*
X25297Y-54245D01*
X25267Y-54307D01*
X25230Y-54374D01*
X25182Y-54448D01*
X25127Y-54515D01*
X25060Y-54577D01*
X25056D01*
X25053Y-54585D01*
X25042Y-54592D01*
X25027Y-54600D01*
X25008Y-54611D01*
X24990Y-54626D01*
X24934Y-54651D01*
X24868Y-54677D01*
X24790Y-54703D01*
X24698Y-54718D01*
X24598Y-54725D01*
X24561D01*
X24535Y-54722D01*
X24505Y-54718D01*
X24468Y-54711D01*
X24427Y-54703D01*
X24383Y-54692D01*
X24339Y-54677D01*
X24291Y-54663D01*
X24242Y-54640D01*
X24194Y-54615D01*
X24146Y-54585D01*
X24098Y-54548D01*
X24054Y-54507D01*
X24013Y-54463D01*
X24009Y-54459D01*
X24002Y-54448D01*
X23991Y-54430D01*
X23972Y-54400D01*
X23954Y-54367D01*
X23935Y-54322D01*
X23909Y-54270D01*
X23887Y-54211D01*
X23865Y-54145D01*
X23843Y-54067D01*
X23821Y-53982D01*
X23802Y-53886D01*
X23784Y-53782D01*
X23773Y-53671D01*
X23765Y-53549D01*
X23761Y-53419D01*
Y-53416D01*
Y-53401D01*
Y-53375D01*
Y-53345D01*
X23765Y-53305D01*
Y-53260D01*
X23769Y-53212D01*
X23773Y-53157D01*
X23784Y-53042D01*
X23802Y-52920D01*
X23824Y-52798D01*
X23839Y-52742D01*
X23854Y-52687D01*
Y-52683D01*
X23858Y-52676D01*
X23865Y-52661D01*
X23872Y-52642D01*
X23880Y-52617D01*
X23895Y-52591D01*
X23924Y-52528D01*
X23961Y-52461D01*
X24009Y-52391D01*
X24065Y-52320D01*
X24131Y-52261D01*
X24135D01*
X24139Y-52254D01*
X24150Y-52246D01*
X24165Y-52239D01*
X24183Y-52224D01*
X24205Y-52213D01*
X24261Y-52184D01*
X24328Y-52158D01*
X24405Y-52132D01*
X24498Y-52117D01*
X24598Y-52110D01*
X24631D01*
X24672Y-52113D01*
D02*
G37*
G36*
X58486D02*
X58534Y-52121D01*
X58590Y-52132D01*
X58649Y-52147D01*
X58712Y-52165D01*
X58771Y-52195D01*
X58775D01*
X58778Y-52198D01*
X58797Y-52210D01*
X58826Y-52228D01*
X58863Y-52254D01*
X58904Y-52291D01*
X58948Y-52332D01*
X58989Y-52380D01*
X59030Y-52435D01*
X59034Y-52443D01*
X59048Y-52461D01*
X59063Y-52494D01*
X59089Y-52543D01*
X59111Y-52598D01*
X59141Y-52661D01*
X59167Y-52735D01*
X59189Y-52816D01*
Y-52820D01*
X59193Y-52827D01*
X59196Y-52838D01*
X59200Y-52857D01*
X59204Y-52879D01*
X59207Y-52905D01*
X59215Y-52938D01*
X59219Y-52975D01*
X59226Y-53016D01*
X59230Y-53061D01*
X59233Y-53112D01*
X59241Y-53164D01*
X59244Y-53223D01*
Y-53282D01*
X59248Y-53349D01*
Y-53419D01*
Y-53423D01*
Y-53438D01*
Y-53464D01*
Y-53493D01*
X59244Y-53534D01*
Y-53579D01*
X59241Y-53627D01*
X59237Y-53678D01*
X59226Y-53797D01*
X59207Y-53919D01*
X59185Y-54037D01*
X59170Y-54093D01*
X59152Y-54148D01*
Y-54152D01*
X59148Y-54159D01*
X59141Y-54174D01*
X59133Y-54193D01*
X59126Y-54219D01*
X59111Y-54245D01*
X59082Y-54307D01*
X59045Y-54374D01*
X58996Y-54448D01*
X58941Y-54515D01*
X58874Y-54577D01*
X58871D01*
X58867Y-54585D01*
X58856Y-54592D01*
X58841Y-54600D01*
X58823Y-54611D01*
X58804Y-54626D01*
X58749Y-54651D01*
X58682Y-54677D01*
X58604Y-54703D01*
X58512Y-54718D01*
X58412Y-54725D01*
X58375D01*
X58349Y-54722D01*
X58319Y-54718D01*
X58282Y-54711D01*
X58242Y-54703D01*
X58197Y-54692D01*
X58153Y-54677D01*
X58105Y-54663D01*
X58057Y-54640D01*
X58009Y-54615D01*
X57960Y-54585D01*
X57912Y-54548D01*
X57868Y-54507D01*
X57827Y-54463D01*
X57824Y-54459D01*
X57816Y-54448D01*
X57805Y-54430D01*
X57787Y-54400D01*
X57768Y-54367D01*
X57750Y-54322D01*
X57724Y-54270D01*
X57701Y-54211D01*
X57679Y-54145D01*
X57657Y-54067D01*
X57635Y-53982D01*
X57616Y-53886D01*
X57598Y-53782D01*
X57587Y-53671D01*
X57579Y-53549D01*
X57576Y-53419D01*
Y-53416D01*
Y-53401D01*
Y-53375D01*
Y-53345D01*
X57579Y-53305D01*
Y-53260D01*
X57583Y-53212D01*
X57587Y-53157D01*
X57598Y-53042D01*
X57616Y-52920D01*
X57639Y-52798D01*
X57653Y-52742D01*
X57668Y-52687D01*
Y-52683D01*
X57672Y-52676D01*
X57679Y-52661D01*
X57687Y-52642D01*
X57694Y-52617D01*
X57709Y-52591D01*
X57739Y-52528D01*
X57775Y-52461D01*
X57824Y-52391D01*
X57879Y-52320D01*
X57946Y-52261D01*
X57949D01*
X57953Y-52254D01*
X57964Y-52246D01*
X57979Y-52239D01*
X57998Y-52224D01*
X58020Y-52213D01*
X58075Y-52184D01*
X58142Y-52158D01*
X58219Y-52132D01*
X58312Y-52117D01*
X58412Y-52110D01*
X58445D01*
X58486Y-52113D01*
D02*
G37*
G36*
X56684Y-54725D02*
X56432D01*
X57176Y-52076D01*
X57428D01*
X56684Y-54725D01*
D02*
G37*
G36*
X4588Y-56080D02*
X4621Y-56084D01*
X4662Y-56087D01*
X4703Y-56091D01*
X4751Y-56102D01*
X4851Y-56124D01*
X4962Y-56158D01*
X5017Y-56180D01*
X5069Y-56206D01*
X5121Y-56239D01*
X5173Y-56272D01*
X5176Y-56276D01*
X5184Y-56280D01*
X5198Y-56291D01*
X5217Y-56309D01*
X5235Y-56328D01*
X5261Y-56354D01*
X5287Y-56383D01*
X5317Y-56413D01*
X5347Y-56450D01*
X5376Y-56494D01*
X5409Y-56539D01*
X5439Y-56587D01*
X5465Y-56642D01*
X5494Y-56698D01*
X5517Y-56757D01*
X5539Y-56824D01*
X5206Y-56901D01*
Y-56898D01*
X5202Y-56890D01*
X5195Y-56875D01*
X5187Y-56857D01*
X5180Y-56835D01*
X5169Y-56805D01*
X5139Y-56746D01*
X5102Y-56679D01*
X5058Y-56613D01*
X5002Y-56550D01*
X4943Y-56494D01*
X4936Y-56487D01*
X4914Y-56472D01*
X4877Y-56454D01*
X4829Y-56428D01*
X4766Y-56406D01*
X4695Y-56383D01*
X4610Y-56369D01*
X4518Y-56365D01*
X4488D01*
X4470Y-56369D01*
X4444D01*
X4414Y-56372D01*
X4344Y-56383D01*
X4266Y-56398D01*
X4185Y-56424D01*
X4100Y-56461D01*
X4022Y-56509D01*
X4018D01*
X4014Y-56517D01*
X3989Y-56535D01*
X3955Y-56565D01*
X3915Y-56609D01*
X3867Y-56665D01*
X3822Y-56727D01*
X3781Y-56805D01*
X3744Y-56890D01*
Y-56894D01*
X3741Y-56901D01*
X3737Y-56912D01*
X3733Y-56931D01*
X3726Y-56953D01*
X3718Y-56979D01*
X3707Y-57042D01*
X3693Y-57116D01*
X3678Y-57197D01*
X3670Y-57286D01*
X3667Y-57382D01*
Y-57386D01*
Y-57397D01*
Y-57416D01*
Y-57438D01*
X3670Y-57464D01*
Y-57497D01*
X3674Y-57534D01*
X3678Y-57575D01*
X3689Y-57664D01*
X3707Y-57760D01*
X3730Y-57856D01*
X3759Y-57952D01*
Y-57956D01*
X3763Y-57963D01*
X3770Y-57974D01*
X3778Y-57993D01*
X3800Y-58037D01*
X3833Y-58089D01*
X3874Y-58148D01*
X3926Y-58211D01*
X3985Y-58267D01*
X4055Y-58319D01*
X4059D01*
X4066Y-58322D01*
X4077Y-58330D01*
X4092Y-58337D01*
X4111Y-58344D01*
X4133Y-58355D01*
X4185Y-58378D01*
X4251Y-58400D01*
X4325Y-58418D01*
X4407Y-58433D01*
X4492Y-58437D01*
X4518D01*
X4540Y-58433D01*
X4566D01*
X4592Y-58429D01*
X4658Y-58415D01*
X4736Y-58396D01*
X4814Y-58367D01*
X4895Y-58326D01*
X4936Y-58304D01*
X4973Y-58274D01*
X4976Y-58270D01*
X4980Y-58267D01*
X4991Y-58256D01*
X5006Y-58245D01*
X5021Y-58226D01*
X5039Y-58204D01*
X5062Y-58182D01*
X5080Y-58152D01*
X5102Y-58119D01*
X5128Y-58082D01*
X5150Y-58045D01*
X5173Y-58000D01*
X5191Y-57952D01*
X5210Y-57900D01*
X5228Y-57845D01*
X5243Y-57786D01*
X5583Y-57871D01*
Y-57875D01*
X5580Y-57889D01*
X5572Y-57911D01*
X5561Y-57941D01*
X5550Y-57974D01*
X5535Y-58015D01*
X5517Y-58060D01*
X5494Y-58108D01*
X5443Y-58211D01*
X5376Y-58315D01*
X5335Y-58367D01*
X5295Y-58418D01*
X5250Y-58463D01*
X5198Y-58507D01*
X5195Y-58511D01*
X5187Y-58518D01*
X5169Y-58526D01*
X5150Y-58540D01*
X5121Y-58559D01*
X5091Y-58578D01*
X5051Y-58596D01*
X5010Y-58614D01*
X4962Y-58637D01*
X4910Y-58655D01*
X4854Y-58674D01*
X4795Y-58692D01*
X4732Y-58707D01*
X4666Y-58714D01*
X4595Y-58722D01*
X4521Y-58726D01*
X4481D01*
X4451Y-58722D01*
X4418D01*
X4377Y-58718D01*
X4333Y-58711D01*
X4281Y-58703D01*
X4174Y-58685D01*
X4063Y-58655D01*
X3952Y-58614D01*
X3900Y-58589D01*
X3848Y-58559D01*
X3844Y-58555D01*
X3837Y-58552D01*
X3822Y-58540D01*
X3807Y-58526D01*
X3785Y-58511D01*
X3759Y-58489D01*
X3730Y-58463D01*
X3700Y-58433D01*
X3670Y-58400D01*
X3637Y-58367D01*
X3571Y-58281D01*
X3508Y-58182D01*
X3452Y-58071D01*
Y-58067D01*
X3445Y-58056D01*
X3441Y-58037D01*
X3430Y-58015D01*
X3422Y-57986D01*
X3411Y-57948D01*
X3397Y-57908D01*
X3385Y-57863D01*
X3374Y-57815D01*
X3360Y-57760D01*
X3341Y-57645D01*
X3326Y-57516D01*
X3319Y-57382D01*
Y-57379D01*
Y-57364D01*
Y-57342D01*
X3323Y-57316D01*
Y-57279D01*
X3326Y-57242D01*
X3330Y-57194D01*
X3337Y-57146D01*
X3356Y-57038D01*
X3382Y-56920D01*
X3419Y-56801D01*
X3471Y-56687D01*
X3474Y-56683D01*
X3478Y-56672D01*
X3485Y-56657D01*
X3500Y-56639D01*
X3515Y-56613D01*
X3534Y-56583D01*
X3582Y-56517D01*
X3644Y-56443D01*
X3718Y-56369D01*
X3804Y-56295D01*
X3903Y-56232D01*
X3907Y-56228D01*
X3918Y-56224D01*
X3933Y-56217D01*
X3952Y-56206D01*
X3981Y-56195D01*
X4011Y-56184D01*
X4048Y-56169D01*
X4089Y-56154D01*
X4133Y-56139D01*
X4181Y-56124D01*
X4285Y-56102D01*
X4403Y-56084D01*
X4525Y-56076D01*
X4562D01*
X4588Y-56080D01*
D02*
G37*
G36*
X13231D02*
X13261D01*
X13331Y-56087D01*
X13409Y-56099D01*
X13490Y-56117D01*
X13579Y-56139D01*
X13664Y-56169D01*
X13668D01*
X13675Y-56173D01*
X13686Y-56176D01*
X13701Y-56184D01*
X13742Y-56206D01*
X13794Y-56232D01*
X13849Y-56269D01*
X13908Y-56313D01*
X13964Y-56361D01*
X14016Y-56420D01*
X14023Y-56428D01*
X14038Y-56450D01*
X14060Y-56483D01*
X14090Y-56531D01*
X14119Y-56591D01*
X14153Y-56665D01*
X14186Y-56746D01*
X14212Y-56839D01*
X13905Y-56920D01*
Y-56916D01*
X13901Y-56912D01*
X13897Y-56901D01*
X13893Y-56887D01*
X13882Y-56853D01*
X13868Y-56809D01*
X13845Y-56757D01*
X13819Y-56709D01*
X13794Y-56657D01*
X13760Y-56613D01*
X13757Y-56609D01*
X13746Y-56594D01*
X13723Y-56576D01*
X13697Y-56550D01*
X13664Y-56520D01*
X13620Y-56491D01*
X13572Y-56461D01*
X13516Y-56435D01*
X13509Y-56432D01*
X13490Y-56424D01*
X13457Y-56413D01*
X13412Y-56398D01*
X13361Y-56387D01*
X13302Y-56376D01*
X13235Y-56369D01*
X13165Y-56365D01*
X13124D01*
X13105Y-56369D01*
X13083D01*
X13028Y-56372D01*
X12965Y-56383D01*
X12894Y-56394D01*
X12828Y-56413D01*
X12761Y-56439D01*
X12754Y-56443D01*
X12732Y-56450D01*
X12702Y-56468D01*
X12665Y-56487D01*
X12621Y-56517D01*
X12573Y-56546D01*
X12528Y-56583D01*
X12488Y-56624D01*
X12484Y-56628D01*
X12469Y-56642D01*
X12450Y-56668D01*
X12428Y-56698D01*
X12402Y-56735D01*
X12376Y-56779D01*
X12351Y-56827D01*
X12325Y-56879D01*
Y-56883D01*
X12321Y-56890D01*
X12317Y-56901D01*
X12310Y-56920D01*
X12303Y-56942D01*
X12295Y-56968D01*
X12284Y-56998D01*
X12277Y-57031D01*
X12258Y-57109D01*
X12243Y-57197D01*
X12232Y-57290D01*
X12229Y-57393D01*
Y-57397D01*
Y-57408D01*
Y-57427D01*
X12232Y-57449D01*
Y-57479D01*
X12236Y-57516D01*
X12240Y-57553D01*
X12243Y-57593D01*
X12258Y-57686D01*
X12277Y-57782D01*
X12306Y-57878D01*
X12343Y-57971D01*
Y-57974D01*
X12351Y-57982D01*
X12354Y-57993D01*
X12365Y-58008D01*
X12391Y-58048D01*
X12432Y-58100D01*
X12480Y-58156D01*
X12539Y-58211D01*
X12610Y-58263D01*
X12687Y-58311D01*
X12691D01*
X12698Y-58315D01*
X12709Y-58322D01*
X12728Y-58330D01*
X12746Y-58337D01*
X12772Y-58344D01*
X12832Y-58367D01*
X12906Y-58385D01*
X12987Y-58404D01*
X13076Y-58418D01*
X13168Y-58422D01*
X13205D01*
X13228Y-58418D01*
X13250D01*
X13305Y-58411D01*
X13372Y-58404D01*
X13442Y-58389D01*
X13520Y-58367D01*
X13598Y-58341D01*
X13601D01*
X13609Y-58337D01*
X13616Y-58333D01*
X13631Y-58326D01*
X13671Y-58307D01*
X13716Y-58285D01*
X13768Y-58259D01*
X13823Y-58230D01*
X13875Y-58196D01*
X13919Y-58159D01*
Y-57678D01*
X13165D01*
Y-57375D01*
X14252D01*
Y-58326D01*
X14249Y-58330D01*
X14241Y-58333D01*
X14227Y-58344D01*
X14208Y-58359D01*
X14186Y-58374D01*
X14160Y-58393D01*
X14127Y-58415D01*
X14093Y-58437D01*
X14016Y-58485D01*
X13927Y-58537D01*
X13834Y-58585D01*
X13734Y-58626D01*
X13731D01*
X13723Y-58629D01*
X13709Y-58633D01*
X13690Y-58640D01*
X13664Y-58648D01*
X13634Y-58659D01*
X13601Y-58666D01*
X13568Y-58674D01*
X13487Y-58692D01*
X13394Y-58711D01*
X13294Y-58722D01*
X13191Y-58726D01*
X13153D01*
X13128Y-58722D01*
X13094D01*
X13054Y-58718D01*
X13009Y-58711D01*
X12961Y-58707D01*
X12854Y-58685D01*
X12739Y-58659D01*
X12621Y-58618D01*
X12562Y-58596D01*
X12502Y-58566D01*
X12499Y-58563D01*
X12488Y-58559D01*
X12473Y-58548D01*
X12450Y-58537D01*
X12425Y-58518D01*
X12399Y-58500D01*
X12328Y-58448D01*
X12254Y-58381D01*
X12177Y-58300D01*
X12103Y-58207D01*
X12036Y-58100D01*
Y-58096D01*
X12029Y-58085D01*
X12021Y-58071D01*
X12010Y-58045D01*
X11999Y-58019D01*
X11988Y-57982D01*
X11973Y-57945D01*
X11958Y-57900D01*
X11944Y-57852D01*
X11929Y-57797D01*
X11918Y-57741D01*
X11907Y-57682D01*
X11888Y-57553D01*
X11881Y-57416D01*
Y-57412D01*
Y-57397D01*
Y-57379D01*
X11884Y-57353D01*
Y-57319D01*
X11888Y-57279D01*
X11896Y-57238D01*
X11899Y-57190D01*
X11910Y-57138D01*
X11918Y-57083D01*
X11947Y-56964D01*
X11984Y-56842D01*
X12036Y-56720D01*
X12040Y-56716D01*
X12043Y-56705D01*
X12051Y-56691D01*
X12066Y-56668D01*
X12081Y-56639D01*
X12099Y-56609D01*
X12151Y-56539D01*
X12214Y-56457D01*
X12291Y-56380D01*
X12380Y-56302D01*
X12432Y-56269D01*
X12484Y-56235D01*
X12488Y-56232D01*
X12499Y-56228D01*
X12513Y-56221D01*
X12536Y-56209D01*
X12565Y-56198D01*
X12598Y-56184D01*
X12636Y-56169D01*
X12680Y-56154D01*
X12728Y-56139D01*
X12780Y-56128D01*
X12835Y-56113D01*
X12894Y-56102D01*
X13024Y-56084D01*
X13091Y-56076D01*
X13209D01*
X13231Y-56080D01*
D02*
G37*
G36*
X24888D02*
X24914D01*
X24984Y-56087D01*
X25062Y-56099D01*
X25144Y-56117D01*
X25232Y-56139D01*
X25314Y-56169D01*
X25317D01*
X25325Y-56173D01*
X25336Y-56180D01*
X25351Y-56187D01*
X25388Y-56206D01*
X25436Y-56239D01*
X25491Y-56276D01*
X25547Y-56324D01*
X25599Y-56380D01*
X25647Y-56443D01*
Y-56446D01*
X25650Y-56450D01*
X25658Y-56461D01*
X25665Y-56472D01*
X25684Y-56509D01*
X25706Y-56557D01*
X25732Y-56616D01*
X25750Y-56687D01*
X25769Y-56761D01*
X25776Y-56842D01*
X25451Y-56868D01*
Y-56864D01*
Y-56857D01*
X25447Y-56846D01*
X25443Y-56827D01*
X25432Y-56787D01*
X25417Y-56731D01*
X25395Y-56672D01*
X25362Y-56613D01*
X25321Y-56557D01*
X25269Y-56506D01*
X25262Y-56502D01*
X25243Y-56487D01*
X25206Y-56465D01*
X25158Y-56443D01*
X25095Y-56420D01*
X25021Y-56398D01*
X24929Y-56383D01*
X24825Y-56380D01*
X24773D01*
X24751Y-56383D01*
X24722Y-56387D01*
X24655Y-56394D01*
X24581Y-56409D01*
X24507Y-56428D01*
X24437Y-56457D01*
X24407Y-56476D01*
X24378Y-56494D01*
X24370Y-56498D01*
X24355Y-56513D01*
X24333Y-56539D01*
X24311Y-56568D01*
X24285Y-56609D01*
X24263Y-56653D01*
X24248Y-56705D01*
X24241Y-56765D01*
Y-56772D01*
Y-56787D01*
X24244Y-56813D01*
X24252Y-56842D01*
X24263Y-56879D01*
X24281Y-56916D01*
X24304Y-56953D01*
X24337Y-56990D01*
X24341Y-56994D01*
X24359Y-57005D01*
X24374Y-57016D01*
X24389Y-57024D01*
X24411Y-57035D01*
X24437Y-57049D01*
X24470Y-57060D01*
X24507Y-57075D01*
X24548Y-57090D01*
X24596Y-57109D01*
X24648Y-57123D01*
X24707Y-57142D01*
X24773Y-57157D01*
X24848Y-57175D01*
X24851D01*
X24866Y-57179D01*
X24888Y-57183D01*
X24914Y-57190D01*
X24947Y-57197D01*
X24988Y-57209D01*
X25029Y-57220D01*
X25073Y-57231D01*
X25169Y-57257D01*
X25262Y-57283D01*
X25306Y-57297D01*
X25347Y-57312D01*
X25384Y-57323D01*
X25414Y-57338D01*
X25417D01*
X25425Y-57342D01*
X25436Y-57349D01*
X25451Y-57357D01*
X25491Y-57379D01*
X25539Y-57408D01*
X25595Y-57449D01*
X25650Y-57493D01*
X25702Y-57545D01*
X25747Y-57601D01*
X25750Y-57608D01*
X25765Y-57627D01*
X25780Y-57660D01*
X25802Y-57704D01*
X25821Y-57756D01*
X25839Y-57819D01*
X25850Y-57889D01*
X25854Y-57963D01*
Y-57967D01*
Y-57971D01*
Y-57982D01*
Y-57997D01*
X25846Y-58037D01*
X25839Y-58089D01*
X25824Y-58148D01*
X25806Y-58211D01*
X25776Y-58278D01*
X25736Y-58348D01*
Y-58352D01*
X25732Y-58355D01*
X25713Y-58378D01*
X25687Y-58411D01*
X25650Y-58448D01*
X25602Y-58492D01*
X25543Y-58540D01*
X25477Y-58585D01*
X25399Y-58626D01*
X25395D01*
X25388Y-58629D01*
X25377Y-58633D01*
X25362Y-58640D01*
X25340Y-58648D01*
X25314Y-58659D01*
X25254Y-58674D01*
X25184Y-58692D01*
X25099Y-58711D01*
X25007Y-58722D01*
X24907Y-58726D01*
X24848D01*
X24818Y-58722D01*
X24785D01*
X24748Y-58718D01*
X24703Y-58714D01*
X24611Y-58700D01*
X24514Y-58685D01*
X24418Y-58659D01*
X24326Y-58626D01*
X24322D01*
X24315Y-58622D01*
X24304Y-58614D01*
X24289Y-58607D01*
X24244Y-58585D01*
X24193Y-58552D01*
X24133Y-58507D01*
X24070Y-58455D01*
X24011Y-58393D01*
X23956Y-58322D01*
Y-58319D01*
X23948Y-58311D01*
X23945Y-58300D01*
X23934Y-58285D01*
X23926Y-58267D01*
X23915Y-58245D01*
X23889Y-58189D01*
X23863Y-58119D01*
X23841Y-58041D01*
X23826Y-57952D01*
X23819Y-57860D01*
X24137Y-57830D01*
Y-57834D01*
Y-57837D01*
X24141Y-57849D01*
Y-57863D01*
X24148Y-57897D01*
X24159Y-57945D01*
X24174Y-57993D01*
X24189Y-58048D01*
X24215Y-58100D01*
X24241Y-58148D01*
X24244Y-58152D01*
X24256Y-58167D01*
X24274Y-58193D01*
X24304Y-58219D01*
X24341Y-58252D01*
X24381Y-58285D01*
X24437Y-58319D01*
X24496Y-58348D01*
X24500D01*
X24503Y-58352D01*
X24514Y-58355D01*
X24526Y-58359D01*
X24563Y-58370D01*
X24611Y-58385D01*
X24670Y-58400D01*
X24736Y-58411D01*
X24811Y-58418D01*
X24892Y-58422D01*
X24925D01*
X24962Y-58418D01*
X25007Y-58415D01*
X25058Y-58407D01*
X25118Y-58400D01*
X25177Y-58385D01*
X25232Y-58367D01*
X25240Y-58363D01*
X25258Y-58355D01*
X25284Y-58341D01*
X25317Y-58326D01*
X25351Y-58300D01*
X25388Y-58274D01*
X25425Y-58245D01*
X25454Y-58207D01*
X25458Y-58204D01*
X25465Y-58189D01*
X25477Y-58170D01*
X25491Y-58141D01*
X25506Y-58111D01*
X25517Y-58074D01*
X25525Y-58034D01*
X25528Y-57989D01*
Y-57986D01*
Y-57967D01*
X25525Y-57945D01*
X25521Y-57915D01*
X25510Y-57886D01*
X25499Y-57849D01*
X25480Y-57812D01*
X25454Y-57778D01*
X25451Y-57775D01*
X25440Y-57763D01*
X25425Y-57749D01*
X25399Y-57727D01*
X25369Y-57704D01*
X25328Y-57678D01*
X25280Y-57652D01*
X25225Y-57630D01*
X25221Y-57627D01*
X25203Y-57623D01*
X25173Y-57612D01*
X25155Y-57608D01*
X25129Y-57601D01*
X25103Y-57590D01*
X25069Y-57582D01*
X25032Y-57571D01*
X24988Y-57560D01*
X24944Y-57549D01*
X24892Y-57534D01*
X24833Y-57519D01*
X24770Y-57504D01*
X24766D01*
X24755Y-57501D01*
X24736Y-57497D01*
X24714Y-57490D01*
X24685Y-57482D01*
X24651Y-57475D01*
X24577Y-57453D01*
X24496Y-57427D01*
X24411Y-57401D01*
X24337Y-57375D01*
X24304Y-57360D01*
X24274Y-57345D01*
X24270D01*
X24267Y-57342D01*
X24244Y-57327D01*
X24211Y-57308D01*
X24174Y-57279D01*
X24130Y-57245D01*
X24085Y-57205D01*
X24041Y-57157D01*
X24004Y-57105D01*
X24000Y-57098D01*
X23989Y-57079D01*
X23974Y-57049D01*
X23959Y-57012D01*
X23945Y-56964D01*
X23930Y-56909D01*
X23919Y-56850D01*
X23915Y-56787D01*
Y-56783D01*
Y-56779D01*
Y-56768D01*
Y-56753D01*
X23923Y-56716D01*
X23930Y-56668D01*
X23941Y-56613D01*
X23959Y-56550D01*
X23985Y-56487D01*
X24022Y-56424D01*
Y-56420D01*
X24026Y-56417D01*
X24045Y-56394D01*
X24070Y-56365D01*
X24104Y-56328D01*
X24148Y-56287D01*
X24204Y-56243D01*
X24270Y-56202D01*
X24344Y-56165D01*
X24348D01*
X24355Y-56161D01*
X24366Y-56158D01*
X24381Y-56150D01*
X24400Y-56143D01*
X24426Y-56135D01*
X24481Y-56121D01*
X24552Y-56106D01*
X24633Y-56091D01*
X24718Y-56080D01*
X24814Y-56076D01*
X24862D01*
X24888Y-56080D01*
D02*
G37*
G36*
X27101Y-56113D02*
X27130Y-56117D01*
X27167Y-56121D01*
X27208Y-56128D01*
X27249Y-56135D01*
X27345Y-56161D01*
X27441Y-56198D01*
X27489Y-56221D01*
X27537Y-56247D01*
X27582Y-56280D01*
X27623Y-56317D01*
X27626Y-56321D01*
X27634Y-56324D01*
X27641Y-56339D01*
X27656Y-56354D01*
X27674Y-56372D01*
X27693Y-56398D01*
X27711Y-56424D01*
X27733Y-56457D01*
X27771Y-56528D01*
X27808Y-56616D01*
X27822Y-56661D01*
X27830Y-56713D01*
X27837Y-56765D01*
X27841Y-56820D01*
Y-56827D01*
Y-56846D01*
X27837Y-56875D01*
X27833Y-56916D01*
X27826Y-56961D01*
X27811Y-57012D01*
X27796Y-57068D01*
X27774Y-57123D01*
X27771Y-57131D01*
X27763Y-57149D01*
X27748Y-57179D01*
X27726Y-57220D01*
X27696Y-57264D01*
X27659Y-57319D01*
X27615Y-57375D01*
X27563Y-57438D01*
X27556Y-57445D01*
X27537Y-57468D01*
X27519Y-57486D01*
X27500Y-57504D01*
X27478Y-57527D01*
X27449Y-57556D01*
X27419Y-57586D01*
X27382Y-57619D01*
X27345Y-57656D01*
X27301Y-57697D01*
X27253Y-57738D01*
X27201Y-57786D01*
X27141Y-57834D01*
X27082Y-57886D01*
X27079Y-57889D01*
X27071Y-57897D01*
X27056Y-57908D01*
X27038Y-57923D01*
X27016Y-57945D01*
X26990Y-57967D01*
X26931Y-58015D01*
X26868Y-58071D01*
X26809Y-58126D01*
X26757Y-58174D01*
X26735Y-58193D01*
X26716Y-58211D01*
X26712Y-58215D01*
X26701Y-58226D01*
X26686Y-58241D01*
X26668Y-58263D01*
X26649Y-58289D01*
X26627Y-58315D01*
X26583Y-58378D01*
X27845D01*
Y-58681D01*
X26146D01*
Y-58677D01*
Y-58663D01*
Y-58640D01*
X26150Y-58611D01*
X26154Y-58578D01*
X26161Y-58540D01*
X26168Y-58504D01*
X26183Y-58463D01*
Y-58459D01*
X26187Y-58455D01*
X26194Y-58433D01*
X26209Y-58400D01*
X26231Y-58355D01*
X26261Y-58304D01*
X26298Y-58245D01*
X26339Y-58185D01*
X26390Y-58122D01*
Y-58119D01*
X26398Y-58115D01*
X26416Y-58093D01*
X26450Y-58060D01*
X26498Y-58011D01*
X26553Y-57956D01*
X26623Y-57889D01*
X26709Y-57815D01*
X26801Y-57738D01*
X26805Y-57734D01*
X26820Y-57723D01*
X26842Y-57704D01*
X26868Y-57682D01*
X26901Y-57652D01*
X26942Y-57619D01*
X26982Y-57582D01*
X27031Y-57542D01*
X27123Y-57453D01*
X27215Y-57364D01*
X27260Y-57319D01*
X27301Y-57275D01*
X27338Y-57234D01*
X27367Y-57194D01*
Y-57190D01*
X27375Y-57186D01*
X27382Y-57175D01*
X27389Y-57160D01*
X27415Y-57120D01*
X27445Y-57072D01*
X27471Y-57012D01*
X27497Y-56950D01*
X27512Y-56879D01*
X27519Y-56813D01*
Y-56809D01*
Y-56805D01*
X27515Y-56783D01*
X27512Y-56746D01*
X27500Y-56705D01*
X27486Y-56653D01*
X27460Y-56602D01*
X27426Y-56550D01*
X27382Y-56498D01*
X27375Y-56491D01*
X27356Y-56476D01*
X27330Y-56457D01*
X27290Y-56432D01*
X27238Y-56409D01*
X27178Y-56387D01*
X27108Y-56372D01*
X27031Y-56369D01*
X27008D01*
X26994Y-56372D01*
X26949Y-56376D01*
X26897Y-56387D01*
X26842Y-56402D01*
X26779Y-56428D01*
X26720Y-56461D01*
X26664Y-56506D01*
X26657Y-56513D01*
X26642Y-56531D01*
X26620Y-56561D01*
X26598Y-56605D01*
X26572Y-56657D01*
X26550Y-56724D01*
X26535Y-56798D01*
X26527Y-56883D01*
X26205Y-56850D01*
Y-56846D01*
X26209Y-56835D01*
Y-56816D01*
X26213Y-56790D01*
X26220Y-56761D01*
X26228Y-56727D01*
X26239Y-56687D01*
X26250Y-56646D01*
X26279Y-56557D01*
X26324Y-56468D01*
X26350Y-56424D01*
X26383Y-56380D01*
X26416Y-56339D01*
X26453Y-56302D01*
X26457Y-56298D01*
X26464Y-56295D01*
X26476Y-56283D01*
X26494Y-56272D01*
X26516Y-56258D01*
X26542Y-56243D01*
X26572Y-56224D01*
X26609Y-56206D01*
X26649Y-56187D01*
X26694Y-56169D01*
X26742Y-56154D01*
X26794Y-56139D01*
X26849Y-56128D01*
X26908Y-56117D01*
X26971Y-56113D01*
X27038Y-56110D01*
X27075D01*
X27101Y-56113D01*
D02*
G37*
G36*
X63462Y-52113D02*
X63492Y-52117D01*
X63529Y-52121D01*
X63570Y-52128D01*
X63610Y-52135D01*
X63707Y-52161D01*
X63803Y-52198D01*
X63851Y-52221D01*
X63899Y-52246D01*
X63943Y-52280D01*
X63984Y-52317D01*
X63988Y-52320D01*
X63995Y-52324D01*
X64003Y-52339D01*
X64017Y-52354D01*
X64036Y-52372D01*
X64054Y-52398D01*
X64073Y-52424D01*
X64095Y-52457D01*
X64132Y-52528D01*
X64169Y-52617D01*
X64184Y-52661D01*
X64191Y-52713D01*
X64199Y-52764D01*
X64202Y-52820D01*
Y-52827D01*
Y-52846D01*
X64199Y-52876D01*
X64195Y-52916D01*
X64188Y-52961D01*
X64173Y-53012D01*
X64158Y-53068D01*
X64136Y-53123D01*
X64132Y-53131D01*
X64125Y-53149D01*
X64110Y-53179D01*
X64088Y-53220D01*
X64058Y-53264D01*
X64021Y-53320D01*
X63977Y-53375D01*
X63925Y-53438D01*
X63917Y-53445D01*
X63899Y-53468D01*
X63880Y-53486D01*
X63862Y-53505D01*
X63840Y-53527D01*
X63810Y-53556D01*
X63781Y-53586D01*
X63744Y-53619D01*
X63707Y-53656D01*
X63662Y-53697D01*
X63614Y-53738D01*
X63562Y-53786D01*
X63503Y-53834D01*
X63444Y-53886D01*
X63440Y-53889D01*
X63433Y-53897D01*
X63418Y-53908D01*
X63399Y-53923D01*
X63377Y-53945D01*
X63351Y-53967D01*
X63292Y-54015D01*
X63229Y-54071D01*
X63170Y-54126D01*
X63118Y-54174D01*
X63096Y-54193D01*
X63078Y-54211D01*
X63074Y-54215D01*
X63063Y-54226D01*
X63048Y-54241D01*
X63029Y-54263D01*
X63011Y-54289D01*
X62989Y-54315D01*
X62944Y-54378D01*
X64206D01*
Y-54681D01*
X62508D01*
Y-54677D01*
Y-54663D01*
Y-54640D01*
X62511Y-54611D01*
X62515Y-54577D01*
X62523Y-54540D01*
X62530Y-54504D01*
X62545Y-54463D01*
Y-54459D01*
X62549Y-54455D01*
X62556Y-54433D01*
X62571Y-54400D01*
X62593Y-54356D01*
X62622Y-54304D01*
X62660Y-54245D01*
X62700Y-54185D01*
X62752Y-54122D01*
Y-54119D01*
X62759Y-54115D01*
X62778Y-54093D01*
X62811Y-54059D01*
X62859Y-54011D01*
X62915Y-53956D01*
X62985Y-53889D01*
X63070Y-53815D01*
X63163Y-53738D01*
X63166Y-53734D01*
X63181Y-53723D01*
X63203Y-53704D01*
X63229Y-53682D01*
X63263Y-53653D01*
X63303Y-53619D01*
X63344Y-53582D01*
X63392Y-53541D01*
X63485Y-53453D01*
X63577Y-53364D01*
X63621Y-53320D01*
X63662Y-53275D01*
X63699Y-53234D01*
X63729Y-53194D01*
Y-53190D01*
X63736Y-53186D01*
X63744Y-53175D01*
X63751Y-53160D01*
X63777Y-53120D01*
X63806Y-53072D01*
X63832Y-53012D01*
X63858Y-52950D01*
X63873Y-52879D01*
X63880Y-52813D01*
Y-52809D01*
Y-52805D01*
X63877Y-52783D01*
X63873Y-52746D01*
X63862Y-52705D01*
X63847Y-52653D01*
X63821Y-52602D01*
X63788Y-52550D01*
X63744Y-52498D01*
X63736Y-52491D01*
X63718Y-52476D01*
X63692Y-52457D01*
X63651Y-52431D01*
X63599Y-52409D01*
X63540Y-52387D01*
X63470Y-52372D01*
X63392Y-52369D01*
X63370D01*
X63355Y-52372D01*
X63311Y-52376D01*
X63259Y-52387D01*
X63203Y-52402D01*
X63140Y-52428D01*
X63081Y-52461D01*
X63026Y-52505D01*
X63018Y-52513D01*
X63004Y-52531D01*
X62981Y-52561D01*
X62959Y-52605D01*
X62933Y-52657D01*
X62911Y-52724D01*
X62896Y-52798D01*
X62889Y-52883D01*
X62567Y-52850D01*
Y-52846D01*
X62571Y-52835D01*
Y-52816D01*
X62574Y-52790D01*
X62582Y-52761D01*
X62589Y-52728D01*
X62600Y-52687D01*
X62611Y-52646D01*
X62641Y-52557D01*
X62685Y-52469D01*
X62711Y-52424D01*
X62745Y-52380D01*
X62778Y-52339D01*
X62815Y-52302D01*
X62819Y-52298D01*
X62826Y-52295D01*
X62837Y-52284D01*
X62856Y-52272D01*
X62878Y-52258D01*
X62904Y-52243D01*
X62933Y-52224D01*
X62970Y-52206D01*
X63011Y-52187D01*
X63055Y-52169D01*
X63103Y-52154D01*
X63155Y-52139D01*
X63211Y-52128D01*
X63270Y-52117D01*
X63333Y-52113D01*
X63399Y-52110D01*
X63437D01*
X63462Y-52113D01*
D02*
G37*
G36*
X37518Y-52787D02*
X37559Y-52794D01*
X37607Y-52809D01*
X37659Y-52827D01*
X37718Y-52853D01*
X37781Y-52887D01*
X37666Y-53175D01*
X37662Y-53171D01*
X37648Y-53164D01*
X37625Y-53153D01*
X37596Y-53142D01*
X37562Y-53131D01*
X37522Y-53120D01*
X37481Y-53112D01*
X37440Y-53109D01*
X37422D01*
X37403Y-53112D01*
X37377Y-53116D01*
X37352Y-53123D01*
X37318Y-53135D01*
X37285Y-53149D01*
X37255Y-53171D01*
X37252Y-53175D01*
X37240Y-53183D01*
X37229Y-53197D01*
X37211Y-53216D01*
X37192Y-53242D01*
X37174Y-53271D01*
X37155Y-53305D01*
X37141Y-53345D01*
X37137Y-53353D01*
X37133Y-53375D01*
X37126Y-53408D01*
X37115Y-53453D01*
X37104Y-53508D01*
X37096Y-53571D01*
X37093Y-53638D01*
X37089Y-53712D01*
Y-54681D01*
X36774D01*
Y-52824D01*
X37059D01*
Y-53105D01*
X37063Y-53101D01*
X37078Y-53075D01*
X37096Y-53042D01*
X37126Y-53001D01*
X37155Y-52961D01*
X37189Y-52916D01*
X37222Y-52879D01*
X37255Y-52850D01*
X37259Y-52846D01*
X37270Y-52838D01*
X37292Y-52827D01*
X37315Y-52816D01*
X37344Y-52805D01*
X37381Y-52794D01*
X37418Y-52787D01*
X37459Y-52783D01*
X37485D01*
X37518Y-52787D01*
D02*
G37*
G36*
X16557Y-54681D02*
X16206D01*
X14867Y-52672D01*
Y-54681D01*
X14541D01*
Y-52121D01*
X14889D01*
X16232Y-54133D01*
Y-52121D01*
X16557D01*
Y-54681D01*
D02*
G37*
G36*
X66119Y-52454D02*
X65094D01*
X64957Y-53146D01*
X64961Y-53142D01*
X64968Y-53138D01*
X64979Y-53131D01*
X64998Y-53120D01*
X65020Y-53109D01*
X65046Y-53094D01*
X65105Y-53064D01*
X65179Y-53035D01*
X65261Y-53009D01*
X65349Y-52990D01*
X65394Y-52983D01*
X65475D01*
X65497Y-52987D01*
X65527Y-52990D01*
X65560Y-52994D01*
X65597Y-53001D01*
X65638Y-53012D01*
X65727Y-53038D01*
X65775Y-53057D01*
X65823Y-53083D01*
X65871Y-53109D01*
X65919Y-53138D01*
X65964Y-53175D01*
X66008Y-53216D01*
X66012Y-53220D01*
X66019Y-53227D01*
X66030Y-53238D01*
X66045Y-53257D01*
X66063Y-53282D01*
X66082Y-53308D01*
X66104Y-53342D01*
X66126Y-53379D01*
X66145Y-53419D01*
X66167Y-53464D01*
X66186Y-53516D01*
X66204Y-53567D01*
X66219Y-53623D01*
X66230Y-53686D01*
X66237Y-53749D01*
X66241Y-53815D01*
Y-53819D01*
Y-53830D01*
Y-53849D01*
X66237Y-53874D01*
X66234Y-53904D01*
X66230Y-53937D01*
X66223Y-53978D01*
X66215Y-54019D01*
X66193Y-54115D01*
X66156Y-54215D01*
X66134Y-54267D01*
X66104Y-54315D01*
X66075Y-54367D01*
X66038Y-54415D01*
X66034Y-54418D01*
X66027Y-54430D01*
X66012Y-54444D01*
X65993Y-54463D01*
X65967Y-54485D01*
X65938Y-54515D01*
X65901Y-54540D01*
X65860Y-54570D01*
X65816Y-54600D01*
X65764Y-54626D01*
X65708Y-54651D01*
X65649Y-54677D01*
X65586Y-54696D01*
X65516Y-54711D01*
X65442Y-54722D01*
X65364Y-54725D01*
X65331D01*
X65305Y-54722D01*
X65275Y-54718D01*
X65242Y-54714D01*
X65201Y-54711D01*
X65161Y-54700D01*
X65068Y-54677D01*
X64976Y-54644D01*
X64928Y-54622D01*
X64880Y-54596D01*
X64835Y-54566D01*
X64791Y-54533D01*
X64787Y-54529D01*
X64780Y-54526D01*
X64772Y-54511D01*
X64757Y-54496D01*
X64739Y-54478D01*
X64720Y-54455D01*
X64698Y-54426D01*
X64680Y-54392D01*
X64657Y-54359D01*
X64635Y-54318D01*
X64595Y-54230D01*
X64561Y-54126D01*
X64550Y-54071D01*
X64543Y-54011D01*
X64872Y-53986D01*
Y-53989D01*
Y-53997D01*
X64876Y-54008D01*
X64880Y-54026D01*
X64891Y-54067D01*
X64905Y-54122D01*
X64928Y-54178D01*
X64957Y-54241D01*
X64994Y-54296D01*
X65039Y-54348D01*
X65046Y-54352D01*
X65061Y-54367D01*
X65090Y-54385D01*
X65131Y-54407D01*
X65175Y-54430D01*
X65231Y-54448D01*
X65294Y-54463D01*
X65364Y-54466D01*
X65386D01*
X65401Y-54463D01*
X65446Y-54459D01*
X65497Y-54444D01*
X65560Y-54426D01*
X65623Y-54396D01*
X65690Y-54352D01*
X65719Y-54326D01*
X65749Y-54296D01*
X65753Y-54293D01*
X65756Y-54289D01*
X65764Y-54278D01*
X65775Y-54267D01*
X65801Y-54226D01*
X65830Y-54174D01*
X65856Y-54111D01*
X65882Y-54034D01*
X65901Y-53941D01*
X65908Y-53893D01*
Y-53841D01*
Y-53838D01*
Y-53830D01*
Y-53815D01*
X65904Y-53797D01*
Y-53775D01*
X65901Y-53749D01*
X65890Y-53689D01*
X65871Y-53619D01*
X65845Y-53549D01*
X65808Y-53482D01*
X65756Y-53419D01*
Y-53416D01*
X65749Y-53412D01*
X65731Y-53394D01*
X65697Y-53368D01*
X65653Y-53338D01*
X65594Y-53312D01*
X65527Y-53286D01*
X65449Y-53268D01*
X65405Y-53260D01*
X65335D01*
X65305Y-53264D01*
X65268Y-53268D01*
X65224Y-53279D01*
X65179Y-53290D01*
X65131Y-53308D01*
X65083Y-53331D01*
X65079Y-53334D01*
X65065Y-53342D01*
X65042Y-53360D01*
X65013Y-53379D01*
X64983Y-53405D01*
X64954Y-53438D01*
X64920Y-53471D01*
X64894Y-53512D01*
X64598Y-53471D01*
X64846Y-52154D01*
X66119D01*
Y-52454D01*
D02*
G37*
G36*
X41492Y-52787D02*
X41532Y-52794D01*
X41581Y-52809D01*
X41632Y-52827D01*
X41692Y-52853D01*
X41754Y-52887D01*
X41640Y-53175D01*
X41636Y-53171D01*
X41621Y-53164D01*
X41599Y-53153D01*
X41570Y-53142D01*
X41536Y-53131D01*
X41495Y-53120D01*
X41455Y-53112D01*
X41414Y-53109D01*
X41396D01*
X41377Y-53112D01*
X41351Y-53116D01*
X41325Y-53123D01*
X41292Y-53135D01*
X41259Y-53149D01*
X41229Y-53171D01*
X41225Y-53175D01*
X41214Y-53183D01*
X41203Y-53197D01*
X41185Y-53216D01*
X41166Y-53242D01*
X41148Y-53271D01*
X41129Y-53305D01*
X41114Y-53345D01*
X41111Y-53353D01*
X41107Y-53375D01*
X41100Y-53408D01*
X41089Y-53453D01*
X41077Y-53508D01*
X41070Y-53571D01*
X41066Y-53638D01*
X41063Y-53712D01*
Y-54681D01*
X40748D01*
Y-52824D01*
X41033D01*
Y-53105D01*
X41037Y-53101D01*
X41052Y-53075D01*
X41070Y-53042D01*
X41100Y-53001D01*
X41129Y-52961D01*
X41162Y-52916D01*
X41196Y-52879D01*
X41229Y-52850D01*
X41233Y-52846D01*
X41244Y-52838D01*
X41266Y-52827D01*
X41288Y-52816D01*
X41318Y-52805D01*
X41355Y-52794D01*
X41392Y-52787D01*
X41433Y-52783D01*
X41458D01*
X41492Y-52787D01*
D02*
G37*
G36*
X29075Y-53912D02*
X28102D01*
Y-53597D01*
X29075D01*
Y-53912D01*
D02*
G37*
G36*
X44618Y-52787D02*
X44674Y-52790D01*
X44733Y-52798D01*
X44796Y-52813D01*
X44862Y-52827D01*
X44925Y-52850D01*
X44929D01*
X44933Y-52853D01*
X44951Y-52861D01*
X44981Y-52876D01*
X45018Y-52894D01*
X45059Y-52920D01*
X45099Y-52950D01*
X45136Y-52983D01*
X45170Y-53020D01*
X45173Y-53023D01*
X45181Y-53038D01*
X45195Y-53064D01*
X45214Y-53094D01*
X45232Y-53138D01*
X45251Y-53186D01*
X45266Y-53242D01*
X45281Y-53305D01*
X44973Y-53345D01*
Y-53338D01*
X44970Y-53323D01*
X44962Y-53297D01*
X44951Y-53264D01*
X44933Y-53231D01*
X44911Y-53194D01*
X44885Y-53157D01*
X44848Y-53123D01*
X44844Y-53120D01*
X44829Y-53112D01*
X44807Y-53097D01*
X44774Y-53083D01*
X44737Y-53068D01*
X44689Y-53053D01*
X44629Y-53046D01*
X44567Y-53042D01*
X44530D01*
X44493Y-53046D01*
X44444Y-53049D01*
X44396Y-53061D01*
X44344Y-53072D01*
X44296Y-53090D01*
X44256Y-53116D01*
X44252Y-53120D01*
X44241Y-53127D01*
X44226Y-53142D01*
X44211Y-53164D01*
X44193Y-53186D01*
X44178Y-53216D01*
X44167Y-53249D01*
X44163Y-53282D01*
Y-53286D01*
Y-53294D01*
X44167Y-53305D01*
Y-53320D01*
X44178Y-53356D01*
X44200Y-53394D01*
X44204Y-53397D01*
X44208Y-53401D01*
X44215Y-53412D01*
X44230Y-53423D01*
X44245Y-53434D01*
X44267Y-53449D01*
X44293Y-53460D01*
X44322Y-53475D01*
X44326D01*
X44333Y-53479D01*
X44348Y-53482D01*
X44374Y-53493D01*
X44411Y-53505D01*
X44459Y-53516D01*
X44489Y-53527D01*
X44522Y-53534D01*
X44559Y-53545D01*
X44600Y-53556D01*
X44603D01*
X44615Y-53560D01*
X44633Y-53564D01*
X44655Y-53571D01*
X44681Y-53579D01*
X44714Y-53586D01*
X44785Y-53608D01*
X44862Y-53630D01*
X44940Y-53656D01*
X45011Y-53682D01*
X45040Y-53693D01*
X45066Y-53704D01*
X45073Y-53708D01*
X45088Y-53715D01*
X45110Y-53727D01*
X45144Y-53745D01*
X45177Y-53767D01*
X45210Y-53797D01*
X45244Y-53830D01*
X45273Y-53867D01*
X45277Y-53871D01*
X45284Y-53886D01*
X45299Y-53908D01*
X45314Y-53941D01*
X45325Y-53982D01*
X45340Y-54026D01*
X45347Y-54078D01*
X45351Y-54137D01*
Y-54145D01*
Y-54163D01*
X45347Y-54193D01*
X45340Y-54233D01*
X45329Y-54278D01*
X45310Y-54326D01*
X45288Y-54381D01*
X45258Y-54433D01*
X45255Y-54441D01*
X45240Y-54455D01*
X45221Y-54481D01*
X45192Y-54511D01*
X45151Y-54544D01*
X45107Y-54581D01*
X45055Y-54615D01*
X44992Y-54648D01*
X44988D01*
X44985Y-54651D01*
X44962Y-54659D01*
X44925Y-54670D01*
X44877Y-54685D01*
X44818Y-54700D01*
X44752Y-54711D01*
X44681Y-54718D01*
X44600Y-54722D01*
X44567D01*
X44541Y-54718D01*
X44511D01*
X44474Y-54714D01*
X44437Y-54711D01*
X44396Y-54703D01*
X44308Y-54685D01*
X44215Y-54659D01*
X44126Y-54622D01*
X44085Y-54600D01*
X44049Y-54574D01*
X44045Y-54570D01*
X44041Y-54566D01*
X44019Y-54544D01*
X43986Y-54511D01*
X43949Y-54459D01*
X43908Y-54396D01*
X43867Y-54322D01*
X43834Y-54230D01*
X43808Y-54126D01*
X44119Y-54078D01*
Y-54082D01*
Y-54085D01*
X44126Y-54108D01*
X44134Y-54145D01*
X44148Y-54185D01*
X44167Y-54230D01*
X44189Y-54278D01*
X44222Y-54326D01*
X44263Y-54367D01*
X44271Y-54370D01*
X44285Y-54381D01*
X44315Y-54396D01*
X44352Y-54415D01*
X44400Y-54433D01*
X44456Y-54448D01*
X44522Y-54459D01*
X44600Y-54463D01*
X44637D01*
X44674Y-54459D01*
X44722Y-54452D01*
X44774Y-54441D01*
X44829Y-54426D01*
X44877Y-54407D01*
X44922Y-54378D01*
X44925Y-54374D01*
X44940Y-54363D01*
X44955Y-54344D01*
X44977Y-54318D01*
X44996Y-54289D01*
X45014Y-54252D01*
X45025Y-54215D01*
X45029Y-54171D01*
Y-54167D01*
Y-54152D01*
X45025Y-54133D01*
X45018Y-54108D01*
X45007Y-54082D01*
X44988Y-54056D01*
X44966Y-54026D01*
X44933Y-54004D01*
X44929Y-54000D01*
X44918Y-53997D01*
X44899Y-53986D01*
X44870Y-53974D01*
X44826Y-53960D01*
X44800Y-53948D01*
X44770Y-53941D01*
X44737Y-53930D01*
X44700Y-53919D01*
X44659Y-53908D01*
X44611Y-53897D01*
X44607D01*
X44596Y-53893D01*
X44578Y-53889D01*
X44555Y-53882D01*
X44526Y-53874D01*
X44493Y-53863D01*
X44422Y-53845D01*
X44341Y-53819D01*
X44263Y-53797D01*
X44189Y-53771D01*
X44156Y-53756D01*
X44130Y-53745D01*
X44122Y-53741D01*
X44108Y-53734D01*
X44085Y-53719D01*
X44056Y-53701D01*
X44023Y-53675D01*
X43989Y-53645D01*
X43956Y-53612D01*
X43926Y-53571D01*
X43923Y-53567D01*
X43915Y-53553D01*
X43904Y-53527D01*
X43893Y-53497D01*
X43882Y-53460D01*
X43871Y-53416D01*
X43863Y-53371D01*
X43860Y-53320D01*
Y-53312D01*
Y-53297D01*
X43863Y-53275D01*
X43867Y-53242D01*
X43875Y-53209D01*
X43882Y-53168D01*
X43897Y-53131D01*
X43915Y-53090D01*
X43919Y-53086D01*
X43926Y-53072D01*
X43938Y-53053D01*
X43956Y-53027D01*
X43978Y-53001D01*
X44004Y-52968D01*
X44034Y-52938D01*
X44071Y-52912D01*
X44074Y-52909D01*
X44085Y-52905D01*
X44100Y-52894D01*
X44122Y-52883D01*
X44152Y-52868D01*
X44185Y-52853D01*
X44226Y-52838D01*
X44271Y-52824D01*
X44278Y-52820D01*
X44293Y-52816D01*
X44319Y-52809D01*
X44352Y-52802D01*
X44393Y-52794D01*
X44437Y-52790D01*
X44489Y-52783D01*
X44578D01*
X44618Y-52787D01*
D02*
G37*
G36*
X46409D02*
X46465Y-52790D01*
X46524Y-52798D01*
X46587Y-52813D01*
X46653Y-52827D01*
X46716Y-52850D01*
X46720D01*
X46724Y-52853D01*
X46742Y-52861D01*
X46772Y-52876D01*
X46809Y-52894D01*
X46849Y-52920D01*
X46890Y-52950D01*
X46927Y-52983D01*
X46960Y-53020D01*
X46964Y-53023D01*
X46971Y-53038D01*
X46986Y-53064D01*
X47005Y-53094D01*
X47023Y-53138D01*
X47042Y-53186D01*
X47057Y-53242D01*
X47071Y-53305D01*
X46764Y-53345D01*
Y-53338D01*
X46761Y-53323D01*
X46753Y-53297D01*
X46742Y-53264D01*
X46724Y-53231D01*
X46701Y-53194D01*
X46676Y-53157D01*
X46639Y-53123D01*
X46635Y-53120D01*
X46620Y-53112D01*
X46598Y-53097D01*
X46564Y-53083D01*
X46527Y-53068D01*
X46479Y-53053D01*
X46420Y-53046D01*
X46357Y-53042D01*
X46320D01*
X46283Y-53046D01*
X46235Y-53049D01*
X46187Y-53061D01*
X46135Y-53072D01*
X46087Y-53090D01*
X46047Y-53116D01*
X46043Y-53120D01*
X46032Y-53127D01*
X46017Y-53142D01*
X46002Y-53164D01*
X45984Y-53186D01*
X45969Y-53216D01*
X45958Y-53249D01*
X45954Y-53282D01*
Y-53286D01*
Y-53294D01*
X45958Y-53305D01*
Y-53320D01*
X45969Y-53356D01*
X45991Y-53394D01*
X45995Y-53397D01*
X45998Y-53401D01*
X46006Y-53412D01*
X46021Y-53423D01*
X46035Y-53434D01*
X46058Y-53449D01*
X46084Y-53460D01*
X46113Y-53475D01*
X46117D01*
X46124Y-53479D01*
X46139Y-53482D01*
X46165Y-53493D01*
X46202Y-53505D01*
X46250Y-53516D01*
X46280Y-53527D01*
X46313Y-53534D01*
X46350Y-53545D01*
X46391Y-53556D01*
X46394D01*
X46405Y-53560D01*
X46424Y-53564D01*
X46446Y-53571D01*
X46472Y-53579D01*
X46505Y-53586D01*
X46576Y-53608D01*
X46653Y-53630D01*
X46731Y-53656D01*
X46801Y-53682D01*
X46831Y-53693D01*
X46857Y-53704D01*
X46864Y-53708D01*
X46879Y-53715D01*
X46901Y-53727D01*
X46935Y-53745D01*
X46968Y-53767D01*
X47001Y-53797D01*
X47034Y-53830D01*
X47064Y-53867D01*
X47068Y-53871D01*
X47075Y-53886D01*
X47090Y-53908D01*
X47105Y-53941D01*
X47116Y-53982D01*
X47131Y-54026D01*
X47138Y-54078D01*
X47142Y-54137D01*
Y-54145D01*
Y-54163D01*
X47138Y-54193D01*
X47131Y-54233D01*
X47120Y-54278D01*
X47101Y-54326D01*
X47079Y-54381D01*
X47049Y-54433D01*
X47045Y-54441D01*
X47031Y-54455D01*
X47012Y-54481D01*
X46983Y-54511D01*
X46942Y-54544D01*
X46898Y-54581D01*
X46846Y-54615D01*
X46783Y-54648D01*
X46779D01*
X46775Y-54651D01*
X46753Y-54659D01*
X46716Y-54670D01*
X46668Y-54685D01*
X46609Y-54700D01*
X46542Y-54711D01*
X46472Y-54718D01*
X46391Y-54722D01*
X46357D01*
X46331Y-54718D01*
X46302D01*
X46265Y-54714D01*
X46228Y-54711D01*
X46187Y-54703D01*
X46098Y-54685D01*
X46006Y-54659D01*
X45917Y-54622D01*
X45876Y-54600D01*
X45839Y-54574D01*
X45836Y-54570D01*
X45832Y-54566D01*
X45810Y-54544D01*
X45776Y-54511D01*
X45739Y-54459D01*
X45699Y-54396D01*
X45658Y-54322D01*
X45625Y-54230D01*
X45599Y-54126D01*
X45910Y-54078D01*
Y-54082D01*
Y-54085D01*
X45917Y-54108D01*
X45924Y-54145D01*
X45939Y-54185D01*
X45958Y-54230D01*
X45980Y-54278D01*
X46013Y-54326D01*
X46054Y-54367D01*
X46061Y-54370D01*
X46076Y-54381D01*
X46106Y-54396D01*
X46143Y-54415D01*
X46191Y-54433D01*
X46246Y-54448D01*
X46313Y-54459D01*
X46391Y-54463D01*
X46428D01*
X46465Y-54459D01*
X46513Y-54452D01*
X46564Y-54441D01*
X46620Y-54426D01*
X46668Y-54407D01*
X46712Y-54378D01*
X46716Y-54374D01*
X46731Y-54363D01*
X46746Y-54344D01*
X46768Y-54318D01*
X46786Y-54289D01*
X46805Y-54252D01*
X46816Y-54215D01*
X46820Y-54171D01*
Y-54167D01*
Y-54152D01*
X46816Y-54133D01*
X46809Y-54108D01*
X46798Y-54082D01*
X46779Y-54056D01*
X46757Y-54026D01*
X46724Y-54004D01*
X46720Y-54000D01*
X46709Y-53997D01*
X46690Y-53986D01*
X46661Y-53974D01*
X46616Y-53960D01*
X46590Y-53948D01*
X46561Y-53941D01*
X46527Y-53930D01*
X46490Y-53919D01*
X46450Y-53908D01*
X46402Y-53897D01*
X46398D01*
X46387Y-53893D01*
X46368Y-53889D01*
X46346Y-53882D01*
X46317Y-53874D01*
X46283Y-53863D01*
X46213Y-53845D01*
X46132Y-53819D01*
X46054Y-53797D01*
X45980Y-53771D01*
X45947Y-53756D01*
X45921Y-53745D01*
X45913Y-53741D01*
X45899Y-53734D01*
X45876Y-53719D01*
X45847Y-53701D01*
X45813Y-53675D01*
X45780Y-53645D01*
X45747Y-53612D01*
X45717Y-53571D01*
X45713Y-53567D01*
X45706Y-53553D01*
X45695Y-53527D01*
X45684Y-53497D01*
X45673Y-53460D01*
X45662Y-53416D01*
X45654Y-53371D01*
X45651Y-53320D01*
Y-53312D01*
Y-53297D01*
X45654Y-53275D01*
X45658Y-53242D01*
X45665Y-53209D01*
X45673Y-53168D01*
X45688Y-53131D01*
X45706Y-53090D01*
X45710Y-53086D01*
X45717Y-53072D01*
X45728Y-53053D01*
X45747Y-53027D01*
X45769Y-53001D01*
X45795Y-52968D01*
X45825Y-52938D01*
X45862Y-52912D01*
X45865Y-52909D01*
X45876Y-52905D01*
X45891Y-52894D01*
X45913Y-52883D01*
X45943Y-52868D01*
X45976Y-52853D01*
X46017Y-52838D01*
X46061Y-52824D01*
X46069Y-52820D01*
X46084Y-52816D01*
X46109Y-52809D01*
X46143Y-52802D01*
X46183Y-52794D01*
X46228Y-52790D01*
X46280Y-52783D01*
X46368D01*
X46409Y-52787D01*
D02*
G37*
G36*
X48363Y-53912D02*
X47390D01*
Y-53597D01*
X48363D01*
Y-53912D01*
D02*
G37*
G36*
X67470D02*
X66496D01*
Y-53597D01*
X67470D01*
Y-53912D01*
D02*
G37*
G36*
X60525Y-52113D02*
X60550D01*
X60580Y-52117D01*
X60650Y-52132D01*
X60728Y-52150D01*
X60809Y-52180D01*
X60891Y-52224D01*
X60932Y-52250D01*
X60969Y-52280D01*
X60972Y-52284D01*
X60976Y-52287D01*
X60987Y-52298D01*
X60998Y-52309D01*
X61017Y-52328D01*
X61032Y-52350D01*
X61072Y-52402D01*
X61113Y-52469D01*
X61150Y-52550D01*
X61183Y-52642D01*
X61205Y-52746D01*
X60891Y-52772D01*
Y-52768D01*
X60887Y-52764D01*
X60883Y-52742D01*
X60872Y-52709D01*
X60858Y-52668D01*
X60843Y-52624D01*
X60821Y-52579D01*
X60795Y-52539D01*
X60769Y-52505D01*
X60761Y-52498D01*
X60747Y-52483D01*
X60721Y-52461D01*
X60684Y-52435D01*
X60636Y-52413D01*
X60584Y-52391D01*
X60521Y-52376D01*
X60454Y-52369D01*
X60428D01*
X60399Y-52372D01*
X60365Y-52380D01*
X60321Y-52391D01*
X60277Y-52406D01*
X60232Y-52424D01*
X60188Y-52454D01*
X60180Y-52457D01*
X60162Y-52472D01*
X60136Y-52498D01*
X60103Y-52535D01*
X60066Y-52579D01*
X60025Y-52631D01*
X59988Y-52698D01*
X59951Y-52772D01*
Y-52776D01*
X59947Y-52783D01*
X59944Y-52794D01*
X59936Y-52809D01*
X59933Y-52831D01*
X59925Y-52857D01*
X59918Y-52887D01*
X59910Y-52924D01*
X59899Y-52964D01*
X59892Y-53009D01*
X59885Y-53057D01*
X59881Y-53109D01*
X59873Y-53168D01*
X59870Y-53227D01*
X59866Y-53294D01*
Y-53360D01*
X59870Y-53356D01*
X59885Y-53334D01*
X59910Y-53305D01*
X59944Y-53268D01*
X59981Y-53223D01*
X60029Y-53183D01*
X60081Y-53142D01*
X60140Y-53105D01*
X60144D01*
X60147Y-53101D01*
X60169Y-53090D01*
X60203Y-53079D01*
X60247Y-53061D01*
X60299Y-53046D01*
X60358Y-53035D01*
X60421Y-53023D01*
X60488Y-53020D01*
X60517D01*
X60539Y-53023D01*
X60569Y-53027D01*
X60599Y-53031D01*
X60636Y-53038D01*
X60673Y-53049D01*
X60758Y-53075D01*
X60802Y-53094D01*
X60847Y-53120D01*
X60891Y-53146D01*
X60939Y-53175D01*
X60983Y-53212D01*
X61024Y-53253D01*
X61028Y-53257D01*
X61035Y-53264D01*
X61046Y-53275D01*
X61057Y-53294D01*
X61076Y-53320D01*
X61094Y-53345D01*
X61113Y-53379D01*
X61135Y-53416D01*
X61157Y-53456D01*
X61176Y-53501D01*
X61194Y-53553D01*
X61213Y-53604D01*
X61224Y-53660D01*
X61235Y-53723D01*
X61242Y-53786D01*
X61246Y-53852D01*
Y-53856D01*
Y-53863D01*
Y-53874D01*
Y-53893D01*
X61242Y-53915D01*
Y-53937D01*
X61231Y-53997D01*
X61220Y-54067D01*
X61202Y-54141D01*
X61176Y-54222D01*
X61139Y-54300D01*
Y-54304D01*
X61135Y-54307D01*
X61128Y-54318D01*
X61120Y-54333D01*
X61098Y-54370D01*
X61065Y-54418D01*
X61024Y-54470D01*
X60976Y-54522D01*
X60917Y-54574D01*
X60854Y-54618D01*
X60850D01*
X60847Y-54622D01*
X60835Y-54629D01*
X60821Y-54633D01*
X60784Y-54651D01*
X60735Y-54670D01*
X60673Y-54692D01*
X60602Y-54707D01*
X60525Y-54722D01*
X60439Y-54725D01*
X60421D01*
X60403Y-54722D01*
X60373D01*
X60340Y-54718D01*
X60303Y-54711D01*
X60258Y-54700D01*
X60214Y-54689D01*
X60162Y-54674D01*
X60110Y-54655D01*
X60058Y-54633D01*
X60003Y-54603D01*
X59951Y-54570D01*
X59899Y-54533D01*
X59847Y-54489D01*
X59799Y-54437D01*
X59796Y-54433D01*
X59788Y-54422D01*
X59777Y-54407D01*
X59762Y-54381D01*
X59740Y-54348D01*
X59722Y-54311D01*
X59699Y-54263D01*
X59677Y-54211D01*
X59651Y-54148D01*
X59629Y-54078D01*
X59611Y-54000D01*
X59592Y-53915D01*
X59574Y-53819D01*
X59563Y-53715D01*
X59555Y-53604D01*
X59552Y-53486D01*
Y-53482D01*
Y-53479D01*
Y-53468D01*
Y-53453D01*
X59555Y-53416D01*
Y-53364D01*
X59559Y-53305D01*
X59566Y-53234D01*
X59574Y-53157D01*
X59585Y-53072D01*
X59600Y-52987D01*
X59618Y-52894D01*
X59640Y-52805D01*
X59666Y-52716D01*
X59699Y-52631D01*
X59737Y-52550D01*
X59777Y-52472D01*
X59825Y-52406D01*
X59829Y-52402D01*
X59836Y-52394D01*
X59851Y-52380D01*
X59870Y-52358D01*
X59892Y-52335D01*
X59921Y-52313D01*
X59958Y-52284D01*
X59996Y-52258D01*
X60040Y-52232D01*
X60088Y-52202D01*
X60144Y-52180D01*
X60199Y-52154D01*
X60262Y-52135D01*
X60329Y-52121D01*
X60399Y-52113D01*
X60473Y-52110D01*
X60502D01*
X60525Y-52113D01*
D02*
G37*
G36*
X55548D02*
X55574D01*
X55604Y-52117D01*
X55674Y-52132D01*
X55752Y-52150D01*
X55833Y-52180D01*
X55914Y-52224D01*
X55955Y-52250D01*
X55992Y-52280D01*
X55996Y-52284D01*
X55999Y-52287D01*
X56011Y-52298D01*
X56022Y-52309D01*
X56040Y-52328D01*
X56055Y-52350D01*
X56096Y-52402D01*
X56136Y-52469D01*
X56173Y-52550D01*
X56207Y-52642D01*
X56229Y-52746D01*
X55914Y-52772D01*
Y-52768D01*
X55911Y-52764D01*
X55907Y-52742D01*
X55896Y-52709D01*
X55881Y-52668D01*
X55866Y-52624D01*
X55844Y-52579D01*
X55818Y-52539D01*
X55792Y-52505D01*
X55785Y-52498D01*
X55770Y-52483D01*
X55744Y-52461D01*
X55707Y-52435D01*
X55659Y-52413D01*
X55607Y-52391D01*
X55544Y-52376D01*
X55478Y-52369D01*
X55452D01*
X55422Y-52372D01*
X55389Y-52380D01*
X55345Y-52391D01*
X55300Y-52406D01*
X55256Y-52424D01*
X55211Y-52454D01*
X55204Y-52457D01*
X55186Y-52472D01*
X55160Y-52498D01*
X55126Y-52535D01*
X55089Y-52579D01*
X55049Y-52631D01*
X55012Y-52698D01*
X54975Y-52772D01*
Y-52776D01*
X54971Y-52783D01*
X54967Y-52794D01*
X54960Y-52809D01*
X54956Y-52831D01*
X54949Y-52857D01*
X54941Y-52887D01*
X54934Y-52924D01*
X54923Y-52964D01*
X54915Y-53009D01*
X54908Y-53057D01*
X54904Y-53109D01*
X54897Y-53168D01*
X54893Y-53227D01*
X54890Y-53294D01*
Y-53360D01*
X54893Y-53356D01*
X54908Y-53334D01*
X54934Y-53305D01*
X54967Y-53268D01*
X55004Y-53223D01*
X55052Y-53183D01*
X55104Y-53142D01*
X55163Y-53105D01*
X55167D01*
X55171Y-53101D01*
X55193Y-53090D01*
X55226Y-53079D01*
X55271Y-53061D01*
X55322Y-53046D01*
X55382Y-53035D01*
X55445Y-53023D01*
X55511Y-53020D01*
X55541D01*
X55563Y-53023D01*
X55593Y-53027D01*
X55622Y-53031D01*
X55659Y-53038D01*
X55696Y-53049D01*
X55781Y-53075D01*
X55826Y-53094D01*
X55870Y-53120D01*
X55914Y-53146D01*
X55963Y-53175D01*
X56007Y-53212D01*
X56048Y-53253D01*
X56051Y-53257D01*
X56059Y-53264D01*
X56070Y-53275D01*
X56081Y-53294D01*
X56099Y-53320D01*
X56118Y-53345D01*
X56136Y-53379D01*
X56159Y-53416D01*
X56181Y-53456D01*
X56199Y-53501D01*
X56218Y-53553D01*
X56236Y-53604D01*
X56247Y-53660D01*
X56258Y-53723D01*
X56266Y-53786D01*
X56270Y-53852D01*
Y-53856D01*
Y-53863D01*
Y-53874D01*
Y-53893D01*
X56266Y-53915D01*
Y-53937D01*
X56255Y-53997D01*
X56244Y-54067D01*
X56225Y-54141D01*
X56199Y-54222D01*
X56162Y-54300D01*
Y-54304D01*
X56159Y-54307D01*
X56151Y-54318D01*
X56144Y-54333D01*
X56122Y-54370D01*
X56088Y-54418D01*
X56048Y-54470D01*
X55999Y-54522D01*
X55940Y-54574D01*
X55877Y-54618D01*
X55874D01*
X55870Y-54622D01*
X55859Y-54629D01*
X55844Y-54633D01*
X55807Y-54651D01*
X55759Y-54670D01*
X55696Y-54692D01*
X55626Y-54707D01*
X55548Y-54722D01*
X55463Y-54725D01*
X55445D01*
X55426Y-54722D01*
X55396D01*
X55363Y-54718D01*
X55326Y-54711D01*
X55282Y-54700D01*
X55237Y-54689D01*
X55186Y-54674D01*
X55134Y-54655D01*
X55082Y-54633D01*
X55026Y-54603D01*
X54975Y-54570D01*
X54923Y-54533D01*
X54871Y-54489D01*
X54823Y-54437D01*
X54819Y-54433D01*
X54812Y-54422D01*
X54801Y-54407D01*
X54786Y-54381D01*
X54764Y-54348D01*
X54745Y-54311D01*
X54723Y-54263D01*
X54701Y-54211D01*
X54675Y-54148D01*
X54653Y-54078D01*
X54634Y-54000D01*
X54616Y-53915D01*
X54597Y-53819D01*
X54586Y-53715D01*
X54579Y-53604D01*
X54575Y-53486D01*
Y-53482D01*
Y-53479D01*
Y-53468D01*
Y-53453D01*
X54579Y-53416D01*
Y-53364D01*
X54582Y-53305D01*
X54590Y-53234D01*
X54597Y-53157D01*
X54608Y-53072D01*
X54623Y-52987D01*
X54642Y-52894D01*
X54664Y-52805D01*
X54690Y-52716D01*
X54723Y-52631D01*
X54760Y-52550D01*
X54801Y-52472D01*
X54849Y-52406D01*
X54852Y-52402D01*
X54860Y-52394D01*
X54875Y-52380D01*
X54893Y-52358D01*
X54915Y-52335D01*
X54945Y-52313D01*
X54982Y-52284D01*
X55019Y-52258D01*
X55063Y-52232D01*
X55111Y-52202D01*
X55167Y-52180D01*
X55222Y-52154D01*
X55285Y-52135D01*
X55352Y-52121D01*
X55422Y-52113D01*
X55496Y-52110D01*
X55526D01*
X55548Y-52113D01*
D02*
G37*
G36*
X68961Y-52124D02*
X69024Y-52128D01*
X69090Y-52132D01*
X69153Y-52139D01*
X69209Y-52147D01*
X69216D01*
X69242Y-52154D01*
X69275Y-52161D01*
X69319Y-52172D01*
X69368Y-52191D01*
X69419Y-52213D01*
X69475Y-52239D01*
X69523Y-52269D01*
X69530Y-52272D01*
X69545Y-52284D01*
X69567Y-52306D01*
X69597Y-52332D01*
X69630Y-52365D01*
X69664Y-52409D01*
X69701Y-52457D01*
X69730Y-52513D01*
X69734Y-52520D01*
X69741Y-52539D01*
X69756Y-52572D01*
X69771Y-52617D01*
X69782Y-52668D01*
X69797Y-52728D01*
X69804Y-52794D01*
X69808Y-52864D01*
Y-52868D01*
Y-52879D01*
Y-52894D01*
X69804Y-52920D01*
X69801Y-52946D01*
X69797Y-52979D01*
X69789Y-53016D01*
X69782Y-53057D01*
X69756Y-53142D01*
X69741Y-53186D01*
X69719Y-53234D01*
X69693Y-53282D01*
X69667Y-53327D01*
X69634Y-53371D01*
X69597Y-53416D01*
X69593Y-53419D01*
X69586Y-53427D01*
X69575Y-53438D01*
X69556Y-53449D01*
X69534Y-53468D01*
X69504Y-53486D01*
X69468Y-53508D01*
X69427Y-53527D01*
X69379Y-53549D01*
X69323Y-53571D01*
X69264Y-53590D01*
X69194Y-53604D01*
X69120Y-53619D01*
X69038Y-53630D01*
X68946Y-53638D01*
X68850Y-53641D01*
X68195D01*
Y-54681D01*
X67854D01*
Y-52121D01*
X68905D01*
X68961Y-52124D01*
D02*
G37*
G36*
X71295Y-54681D02*
X70981D01*
Y-52679D01*
X70977Y-52683D01*
X70959Y-52698D01*
X70936Y-52720D01*
X70899Y-52746D01*
X70859Y-52779D01*
X70807Y-52816D01*
X70748Y-52857D01*
X70681Y-52898D01*
X70677D01*
X70674Y-52901D01*
X70652Y-52916D01*
X70614Y-52935D01*
X70570Y-52957D01*
X70518Y-52983D01*
X70463Y-53009D01*
X70407Y-53035D01*
X70352Y-53057D01*
Y-52753D01*
X70355D01*
X70363Y-52746D01*
X70378Y-52742D01*
X70396Y-52731D01*
X70418Y-52720D01*
X70444Y-52705D01*
X70507Y-52668D01*
X70581Y-52628D01*
X70655Y-52576D01*
X70733Y-52517D01*
X70811Y-52454D01*
X70814Y-52450D01*
X70818Y-52446D01*
X70829Y-52435D01*
X70844Y-52424D01*
X70877Y-52387D01*
X70922Y-52343D01*
X70966Y-52291D01*
X71014Y-52232D01*
X71055Y-52172D01*
X71092Y-52110D01*
X71295D01*
Y-54681D01*
D02*
G37*
G36*
X30629Y-52080D02*
X30662Y-52084D01*
X30703Y-52087D01*
X30743Y-52091D01*
X30791Y-52102D01*
X30891Y-52124D01*
X31002Y-52158D01*
X31058Y-52180D01*
X31110Y-52206D01*
X31161Y-52239D01*
X31213Y-52272D01*
X31217Y-52276D01*
X31224Y-52280D01*
X31239Y-52291D01*
X31258Y-52309D01*
X31276Y-52328D01*
X31302Y-52354D01*
X31328Y-52383D01*
X31357Y-52413D01*
X31387Y-52450D01*
X31417Y-52494D01*
X31450Y-52539D01*
X31480Y-52587D01*
X31506Y-52642D01*
X31535Y-52698D01*
X31557Y-52757D01*
X31580Y-52824D01*
X31247Y-52901D01*
Y-52898D01*
X31243Y-52890D01*
X31235Y-52876D01*
X31228Y-52857D01*
X31221Y-52835D01*
X31209Y-52805D01*
X31180Y-52746D01*
X31143Y-52679D01*
X31098Y-52613D01*
X31043Y-52550D01*
X30984Y-52494D01*
X30976Y-52487D01*
X30954Y-52472D01*
X30917Y-52454D01*
X30869Y-52428D01*
X30806Y-52406D01*
X30736Y-52383D01*
X30651Y-52369D01*
X30558Y-52365D01*
X30529D01*
X30510Y-52369D01*
X30484D01*
X30455Y-52372D01*
X30384Y-52383D01*
X30307Y-52398D01*
X30225Y-52424D01*
X30140Y-52461D01*
X30062Y-52509D01*
X30059D01*
X30055Y-52517D01*
X30029Y-52535D01*
X29996Y-52565D01*
X29955Y-52609D01*
X29907Y-52665D01*
X29863Y-52728D01*
X29822Y-52805D01*
X29785Y-52890D01*
Y-52894D01*
X29781Y-52901D01*
X29778Y-52912D01*
X29774Y-52931D01*
X29766Y-52953D01*
X29759Y-52979D01*
X29748Y-53042D01*
X29733Y-53116D01*
X29718Y-53197D01*
X29711Y-53286D01*
X29707Y-53382D01*
Y-53386D01*
Y-53397D01*
Y-53416D01*
Y-53438D01*
X29711Y-53464D01*
Y-53497D01*
X29715Y-53534D01*
X29718Y-53575D01*
X29730Y-53664D01*
X29748Y-53760D01*
X29770Y-53856D01*
X29800Y-53952D01*
Y-53956D01*
X29803Y-53963D01*
X29811Y-53974D01*
X29818Y-53993D01*
X29840Y-54037D01*
X29874Y-54089D01*
X29915Y-54148D01*
X29966Y-54211D01*
X30026Y-54267D01*
X30096Y-54318D01*
X30099D01*
X30107Y-54322D01*
X30118Y-54330D01*
X30133Y-54337D01*
X30151Y-54344D01*
X30174Y-54356D01*
X30225Y-54378D01*
X30292Y-54400D01*
X30366Y-54418D01*
X30447Y-54433D01*
X30532Y-54437D01*
X30558D01*
X30580Y-54433D01*
X30606D01*
X30632Y-54430D01*
X30699Y-54415D01*
X30777Y-54396D01*
X30854Y-54367D01*
X30936Y-54326D01*
X30976Y-54304D01*
X31013Y-54274D01*
X31017Y-54270D01*
X31021Y-54267D01*
X31032Y-54256D01*
X31047Y-54245D01*
X31062Y-54226D01*
X31080Y-54204D01*
X31102Y-54182D01*
X31121Y-54152D01*
X31143Y-54119D01*
X31169Y-54082D01*
X31191Y-54045D01*
X31213Y-54000D01*
X31232Y-53952D01*
X31250Y-53900D01*
X31269Y-53845D01*
X31284Y-53786D01*
X31624Y-53871D01*
Y-53874D01*
X31620Y-53889D01*
X31613Y-53912D01*
X31602Y-53941D01*
X31591Y-53974D01*
X31576Y-54015D01*
X31557Y-54059D01*
X31535Y-54108D01*
X31483Y-54211D01*
X31417Y-54315D01*
X31376Y-54367D01*
X31335Y-54418D01*
X31291Y-54463D01*
X31239Y-54507D01*
X31235Y-54511D01*
X31228Y-54518D01*
X31209Y-54526D01*
X31191Y-54540D01*
X31161Y-54559D01*
X31132Y-54577D01*
X31091Y-54596D01*
X31050Y-54615D01*
X31002Y-54637D01*
X30950Y-54655D01*
X30895Y-54674D01*
X30836Y-54692D01*
X30773Y-54707D01*
X30706Y-54714D01*
X30636Y-54722D01*
X30562Y-54725D01*
X30521D01*
X30492Y-54722D01*
X30458D01*
X30418Y-54718D01*
X30373Y-54711D01*
X30321Y-54703D01*
X30214Y-54685D01*
X30103Y-54655D01*
X29992Y-54615D01*
X29940Y-54589D01*
X29889Y-54559D01*
X29885Y-54555D01*
X29877Y-54552D01*
X29863Y-54540D01*
X29848Y-54526D01*
X29826Y-54511D01*
X29800Y-54489D01*
X29770Y-54463D01*
X29741Y-54433D01*
X29711Y-54400D01*
X29678Y-54367D01*
X29611Y-54282D01*
X29548Y-54182D01*
X29493Y-54071D01*
Y-54067D01*
X29485Y-54056D01*
X29482Y-54037D01*
X29471Y-54015D01*
X29463Y-53986D01*
X29452Y-53948D01*
X29437Y-53908D01*
X29426Y-53863D01*
X29415Y-53815D01*
X29400Y-53760D01*
X29382Y-53645D01*
X29367Y-53516D01*
X29359Y-53382D01*
Y-53379D01*
Y-53364D01*
Y-53342D01*
X29363Y-53316D01*
Y-53279D01*
X29367Y-53242D01*
X29371Y-53194D01*
X29378Y-53146D01*
X29397Y-53038D01*
X29422Y-52920D01*
X29459Y-52802D01*
X29511Y-52687D01*
X29515Y-52683D01*
X29519Y-52672D01*
X29526Y-52657D01*
X29541Y-52639D01*
X29556Y-52613D01*
X29574Y-52583D01*
X29622Y-52517D01*
X29685Y-52443D01*
X29759Y-52369D01*
X29844Y-52295D01*
X29944Y-52232D01*
X29948Y-52228D01*
X29959Y-52224D01*
X29974Y-52217D01*
X29992Y-52206D01*
X30022Y-52195D01*
X30051Y-52184D01*
X30088Y-52169D01*
X30129Y-52154D01*
X30174Y-52139D01*
X30222Y-52124D01*
X30325Y-52102D01*
X30444Y-52084D01*
X30566Y-52076D01*
X30603D01*
X30629Y-52080D01*
D02*
G37*
G36*
X39272D02*
X39301D01*
X39372Y-52087D01*
X39449Y-52099D01*
X39531Y-52117D01*
X39620Y-52139D01*
X39705Y-52169D01*
X39708D01*
X39716Y-52172D01*
X39727Y-52176D01*
X39742Y-52184D01*
X39782Y-52206D01*
X39834Y-52232D01*
X39890Y-52269D01*
X39949Y-52313D01*
X40004Y-52361D01*
X40056Y-52420D01*
X40064Y-52428D01*
X40078Y-52450D01*
X40101Y-52483D01*
X40130Y-52531D01*
X40160Y-52591D01*
X40193Y-52665D01*
X40226Y-52746D01*
X40252Y-52838D01*
X39945Y-52920D01*
Y-52916D01*
X39941Y-52912D01*
X39938Y-52901D01*
X39934Y-52887D01*
X39923Y-52853D01*
X39908Y-52809D01*
X39886Y-52757D01*
X39860Y-52709D01*
X39834Y-52657D01*
X39801Y-52613D01*
X39797Y-52609D01*
X39786Y-52594D01*
X39764Y-52576D01*
X39738Y-52550D01*
X39705Y-52520D01*
X39660Y-52491D01*
X39612Y-52461D01*
X39557Y-52435D01*
X39549Y-52431D01*
X39531Y-52424D01*
X39498Y-52413D01*
X39453Y-52398D01*
X39401Y-52387D01*
X39342Y-52376D01*
X39276Y-52369D01*
X39205Y-52365D01*
X39165D01*
X39146Y-52369D01*
X39124D01*
X39068Y-52372D01*
X39005Y-52383D01*
X38935Y-52394D01*
X38868Y-52413D01*
X38802Y-52439D01*
X38794Y-52443D01*
X38772Y-52450D01*
X38743Y-52469D01*
X38706Y-52487D01*
X38661Y-52517D01*
X38613Y-52546D01*
X38569Y-52583D01*
X38528Y-52624D01*
X38524Y-52628D01*
X38510Y-52642D01*
X38491Y-52668D01*
X38469Y-52698D01*
X38443Y-52735D01*
X38417Y-52779D01*
X38391Y-52827D01*
X38365Y-52879D01*
Y-52883D01*
X38362Y-52890D01*
X38358Y-52901D01*
X38350Y-52920D01*
X38343Y-52942D01*
X38336Y-52968D01*
X38325Y-52998D01*
X38317Y-53031D01*
X38299Y-53109D01*
X38284Y-53197D01*
X38273Y-53290D01*
X38269Y-53394D01*
Y-53397D01*
Y-53408D01*
Y-53427D01*
X38273Y-53449D01*
Y-53479D01*
X38276Y-53516D01*
X38280Y-53553D01*
X38284Y-53593D01*
X38299Y-53686D01*
X38317Y-53782D01*
X38347Y-53878D01*
X38384Y-53971D01*
Y-53974D01*
X38391Y-53982D01*
X38395Y-53993D01*
X38406Y-54008D01*
X38432Y-54048D01*
X38473Y-54100D01*
X38521Y-54156D01*
X38580Y-54211D01*
X38650Y-54263D01*
X38728Y-54311D01*
X38732D01*
X38739Y-54315D01*
X38750Y-54322D01*
X38769Y-54330D01*
X38787Y-54337D01*
X38813Y-54344D01*
X38872Y-54367D01*
X38946Y-54385D01*
X39028Y-54404D01*
X39116Y-54418D01*
X39209Y-54422D01*
X39246D01*
X39268Y-54418D01*
X39290D01*
X39346Y-54411D01*
X39412Y-54404D01*
X39483Y-54389D01*
X39560Y-54367D01*
X39638Y-54341D01*
X39642D01*
X39649Y-54337D01*
X39657Y-54333D01*
X39671Y-54326D01*
X39712Y-54307D01*
X39757Y-54285D01*
X39808Y-54259D01*
X39864Y-54230D01*
X39916Y-54196D01*
X39960Y-54159D01*
Y-53678D01*
X39205D01*
Y-53375D01*
X40293D01*
Y-54326D01*
X40289Y-54330D01*
X40282Y-54333D01*
X40267Y-54344D01*
X40249Y-54359D01*
X40226Y-54374D01*
X40200Y-54392D01*
X40167Y-54415D01*
X40134Y-54437D01*
X40056Y-54485D01*
X39967Y-54537D01*
X39875Y-54585D01*
X39775Y-54626D01*
X39771D01*
X39764Y-54629D01*
X39749Y-54633D01*
X39731Y-54640D01*
X39705Y-54648D01*
X39675Y-54659D01*
X39642Y-54666D01*
X39608Y-54674D01*
X39527Y-54692D01*
X39435Y-54711D01*
X39335Y-54722D01*
X39231Y-54725D01*
X39194D01*
X39168Y-54722D01*
X39135D01*
X39094Y-54718D01*
X39050Y-54711D01*
X39002Y-54707D01*
X38894Y-54685D01*
X38780Y-54659D01*
X38661Y-54618D01*
X38602Y-54596D01*
X38543Y-54566D01*
X38539Y-54563D01*
X38528Y-54559D01*
X38513Y-54548D01*
X38491Y-54537D01*
X38465Y-54518D01*
X38439Y-54500D01*
X38369Y-54448D01*
X38295Y-54381D01*
X38217Y-54300D01*
X38143Y-54207D01*
X38077Y-54100D01*
Y-54097D01*
X38069Y-54085D01*
X38062Y-54071D01*
X38051Y-54045D01*
X38040Y-54019D01*
X38029Y-53982D01*
X38014Y-53945D01*
X37999Y-53900D01*
X37984Y-53852D01*
X37969Y-53797D01*
X37958Y-53741D01*
X37947Y-53682D01*
X37929Y-53553D01*
X37921Y-53416D01*
Y-53412D01*
Y-53397D01*
Y-53379D01*
X37925Y-53353D01*
Y-53320D01*
X37929Y-53279D01*
X37936Y-53238D01*
X37940Y-53190D01*
X37951Y-53138D01*
X37958Y-53083D01*
X37988Y-52964D01*
X38025Y-52842D01*
X38077Y-52720D01*
X38080Y-52716D01*
X38084Y-52705D01*
X38091Y-52691D01*
X38106Y-52668D01*
X38121Y-52639D01*
X38140Y-52609D01*
X38191Y-52539D01*
X38254Y-52457D01*
X38332Y-52380D01*
X38421Y-52302D01*
X38473Y-52269D01*
X38524Y-52235D01*
X38528Y-52232D01*
X38539Y-52228D01*
X38554Y-52221D01*
X38576Y-52210D01*
X38606Y-52198D01*
X38639Y-52184D01*
X38676Y-52169D01*
X38721Y-52154D01*
X38769Y-52139D01*
X38820Y-52128D01*
X38876Y-52113D01*
X38935Y-52102D01*
X39065Y-52084D01*
X39131Y-52076D01*
X39250D01*
X39272Y-52080D01*
D02*
G37*
%LPC*%
G36*
X10726Y-52406D02*
X9920D01*
Y-53253D01*
X10682D01*
X10726Y-53249D01*
X10778Y-53246D01*
X10837Y-53242D01*
X10897Y-53234D01*
X10956Y-53223D01*
X11007Y-53209D01*
X11015Y-53205D01*
X11030Y-53197D01*
X11052Y-53186D01*
X11082Y-53171D01*
X11115Y-53149D01*
X11148Y-53123D01*
X11181Y-53090D01*
X11207Y-53053D01*
X11211Y-53049D01*
X11218Y-53035D01*
X11230Y-53012D01*
X11244Y-52983D01*
X11255Y-52950D01*
X11266Y-52912D01*
X11274Y-52868D01*
X11278Y-52824D01*
Y-52820D01*
Y-52816D01*
X11274Y-52794D01*
X11270Y-52761D01*
X11263Y-52716D01*
X11244Y-52672D01*
X11222Y-52620D01*
X11189Y-52572D01*
X11144Y-52524D01*
X11137Y-52520D01*
X11118Y-52505D01*
X11089Y-52487D01*
X11041Y-52465D01*
X10985Y-52443D01*
X10911Y-52424D01*
X10826Y-52409D01*
X10726Y-52406D01*
D02*
G37*
G36*
X8122Y-52424D02*
X7515D01*
Y-53194D01*
X8144D01*
X8192Y-53190D01*
X8244Y-53186D01*
X8295Y-53183D01*
X8347Y-53175D01*
X8388Y-53168D01*
X8395Y-53164D01*
X8410Y-53160D01*
X8432Y-53149D01*
X8462Y-53135D01*
X8491Y-53120D01*
X8525Y-53097D01*
X8558Y-53068D01*
X8584Y-53038D01*
X8588Y-53035D01*
X8595Y-53023D01*
X8606Y-53001D01*
X8617Y-52975D01*
X8628Y-52946D01*
X8640Y-52909D01*
X8647Y-52864D01*
X8651Y-52816D01*
Y-52809D01*
Y-52794D01*
X8647Y-52772D01*
X8643Y-52742D01*
X8636Y-52705D01*
X8625Y-52668D01*
X8610Y-52631D01*
X8588Y-52594D01*
X8584Y-52591D01*
X8577Y-52579D01*
X8562Y-52561D01*
X8543Y-52543D01*
X8517Y-52520D01*
X8488Y-52498D01*
X8451Y-52476D01*
X8410Y-52461D01*
X8406D01*
X8388Y-52454D01*
X8362Y-52450D01*
X8321Y-52443D01*
X8266Y-52435D01*
X8203Y-52431D01*
X8122Y-52424D01*
D02*
G37*
G36*
X8188Y-53497D02*
X7515D01*
Y-54378D01*
X8244D01*
X8321Y-54374D01*
X8355Y-54370D01*
X8384Y-54367D01*
X8388D01*
X8403Y-54363D01*
X8425Y-54359D01*
X8451Y-54352D01*
X8514Y-54330D01*
X8577Y-54300D01*
X8580Y-54296D01*
X8591Y-54289D01*
X8606Y-54278D01*
X8625Y-54263D01*
X8643Y-54241D01*
X8669Y-54219D01*
X8688Y-54189D01*
X8710Y-54156D01*
X8714Y-54152D01*
X8717Y-54141D01*
X8725Y-54119D01*
X8736Y-54093D01*
X8747Y-54063D01*
X8754Y-54026D01*
X8758Y-53982D01*
X8762Y-53937D01*
Y-53930D01*
Y-53915D01*
X8758Y-53886D01*
X8750Y-53852D01*
X8743Y-53815D01*
X8728Y-53775D01*
X8710Y-53734D01*
X8684Y-53693D01*
X8680Y-53689D01*
X8669Y-53675D01*
X8654Y-53656D01*
X8632Y-53634D01*
X8602Y-53608D01*
X8565Y-53582D01*
X8525Y-53560D01*
X8477Y-53541D01*
X8469Y-53538D01*
X8455Y-53534D01*
X8421Y-53527D01*
X8381Y-53519D01*
X8329Y-53512D01*
X8266Y-53505D01*
X8188Y-53497D01*
D02*
G37*
G36*
X18200Y-52424D02*
X17468D01*
Y-53338D01*
X18156D01*
X18182Y-53334D01*
X18208D01*
X18237Y-53331D01*
X18308Y-53323D01*
X18385Y-53308D01*
X18463Y-53286D01*
X18533Y-53257D01*
X18567Y-53238D01*
X18593Y-53216D01*
X18600Y-53209D01*
X18615Y-53194D01*
X18637Y-53164D01*
X18663Y-53127D01*
X18689Y-53079D01*
X18711Y-53020D01*
X18726Y-52953D01*
X18733Y-52876D01*
Y-52872D01*
Y-52868D01*
Y-52850D01*
X18729Y-52816D01*
X18722Y-52779D01*
X18715Y-52739D01*
X18700Y-52691D01*
X18678Y-52646D01*
X18652Y-52602D01*
X18648Y-52598D01*
X18637Y-52583D01*
X18618Y-52565D01*
X18596Y-52539D01*
X18563Y-52513D01*
X18526Y-52491D01*
X18485Y-52469D01*
X18437Y-52450D01*
X18433D01*
X18419Y-52446D01*
X18396Y-52443D01*
X18367Y-52435D01*
X18322Y-52431D01*
X18267Y-52428D01*
X18200Y-52424D01*
D02*
G37*
G36*
X13031Y-52387D02*
Y-52391D01*
X13028Y-52398D01*
Y-52413D01*
X13020Y-52428D01*
X13017Y-52454D01*
X13009Y-52480D01*
X12994Y-52543D01*
X12976Y-52617D01*
X12950Y-52698D01*
X12924Y-52787D01*
X12891Y-52879D01*
X12613Y-53627D01*
X13479D01*
X13213Y-52924D01*
Y-52920D01*
X13209Y-52909D01*
X13202Y-52890D01*
X13194Y-52868D01*
X13183Y-52842D01*
X13172Y-52809D01*
X13161Y-52772D01*
X13146Y-52735D01*
X13116Y-52650D01*
X13087Y-52561D01*
X13057Y-52472D01*
X13031Y-52387D01*
D02*
G37*
G36*
X33559Y-53042D02*
X33537D01*
X33522Y-53046D01*
X33481Y-53049D01*
X33433Y-53061D01*
X33374Y-53079D01*
X33311Y-53105D01*
X33252Y-53142D01*
X33193Y-53190D01*
X33185Y-53197D01*
X33171Y-53216D01*
X33145Y-53249D01*
X33119Y-53294D01*
X33089Y-53345D01*
X33063Y-53412D01*
X33041Y-53490D01*
X33030Y-53575D01*
X34070D01*
Y-53571D01*
Y-53564D01*
X34066Y-53553D01*
Y-53538D01*
X34058Y-53493D01*
X34047Y-53445D01*
X34029Y-53386D01*
X34010Y-53331D01*
X33981Y-53275D01*
X33948Y-53227D01*
Y-53223D01*
X33940Y-53220D01*
X33922Y-53197D01*
X33888Y-53168D01*
X33844Y-53135D01*
X33788Y-53101D01*
X33722Y-53072D01*
X33644Y-53049D01*
X33603Y-53046D01*
X33559Y-53042D01*
D02*
G37*
G36*
X43131Y-53749D02*
X43127D01*
X43123Y-53752D01*
X43112Y-53756D01*
X43098Y-53760D01*
X43079Y-53767D01*
X43057Y-53775D01*
X43031Y-53782D01*
X43001Y-53789D01*
X42968Y-53800D01*
X42927Y-53808D01*
X42887Y-53819D01*
X42839Y-53830D01*
X42787Y-53841D01*
X42735Y-53852D01*
X42676Y-53860D01*
X42613Y-53871D01*
X42606D01*
X42583Y-53874D01*
X42546Y-53882D01*
X42506Y-53889D01*
X42461Y-53897D01*
X42417Y-53908D01*
X42376Y-53919D01*
X42339Y-53934D01*
X42335D01*
X42324Y-53941D01*
X42309Y-53948D01*
X42295Y-53960D01*
X42250Y-53989D01*
X42213Y-54034D01*
Y-54037D01*
X42206Y-54045D01*
X42202Y-54059D01*
X42195Y-54078D01*
X42187Y-54100D01*
X42180Y-54122D01*
X42176Y-54152D01*
X42173Y-54182D01*
Y-54185D01*
Y-54204D01*
X42176Y-54226D01*
X42184Y-54256D01*
X42195Y-54289D01*
X42213Y-54322D01*
X42235Y-54359D01*
X42265Y-54392D01*
X42269Y-54396D01*
X42284Y-54404D01*
X42306Y-54418D01*
X42335Y-54433D01*
X42376Y-54448D01*
X42424Y-54463D01*
X42480Y-54470D01*
X42546Y-54474D01*
X42576D01*
X42613Y-54470D01*
X42654Y-54463D01*
X42705Y-54455D01*
X42757Y-54441D01*
X42813Y-54422D01*
X42868Y-54396D01*
X42876Y-54392D01*
X42890Y-54381D01*
X42916Y-54363D01*
X42946Y-54337D01*
X42979Y-54307D01*
X43016Y-54270D01*
X43046Y-54226D01*
X43075Y-54178D01*
X43079Y-54174D01*
X43083Y-54159D01*
X43090Y-54133D01*
X43101Y-54100D01*
X43112Y-54056D01*
X43120Y-54004D01*
X43123Y-53941D01*
X43127Y-53867D01*
X43131Y-53749D01*
D02*
G37*
G36*
X35975D02*
X35971D01*
X35968Y-53752D01*
X35957Y-53756D01*
X35942Y-53760D01*
X35923Y-53767D01*
X35901Y-53775D01*
X35875Y-53782D01*
X35846Y-53789D01*
X35812Y-53800D01*
X35772Y-53808D01*
X35731Y-53819D01*
X35683Y-53830D01*
X35631Y-53841D01*
X35579Y-53852D01*
X35520Y-53860D01*
X35457Y-53871D01*
X35450D01*
X35427Y-53874D01*
X35390Y-53882D01*
X35350Y-53889D01*
X35305Y-53897D01*
X35261Y-53908D01*
X35220Y-53919D01*
X35183Y-53934D01*
X35180D01*
X35168Y-53941D01*
X35154Y-53948D01*
X35139Y-53960D01*
X35094Y-53989D01*
X35058Y-54034D01*
Y-54037D01*
X35050Y-54045D01*
X35046Y-54059D01*
X35039Y-54078D01*
X35032Y-54100D01*
X35024Y-54122D01*
X35021Y-54152D01*
X35017Y-54182D01*
Y-54185D01*
Y-54204D01*
X35021Y-54226D01*
X35028Y-54256D01*
X35039Y-54289D01*
X35058Y-54322D01*
X35080Y-54359D01*
X35109Y-54392D01*
X35113Y-54396D01*
X35128Y-54404D01*
X35150Y-54418D01*
X35180Y-54433D01*
X35220Y-54448D01*
X35268Y-54463D01*
X35324Y-54470D01*
X35390Y-54474D01*
X35420D01*
X35457Y-54470D01*
X35498Y-54463D01*
X35550Y-54455D01*
X35601Y-54441D01*
X35657Y-54422D01*
X35712Y-54396D01*
X35720Y-54392D01*
X35735Y-54381D01*
X35761Y-54363D01*
X35790Y-54337D01*
X35823Y-54307D01*
X35860Y-54270D01*
X35890Y-54226D01*
X35920Y-54178D01*
X35923Y-54174D01*
X35927Y-54159D01*
X35934Y-54133D01*
X35945Y-54100D01*
X35957Y-54056D01*
X35964Y-54004D01*
X35968Y-53941D01*
X35971Y-53867D01*
X35975Y-53749D01*
D02*
G37*
G36*
X20446Y-52424D02*
X19839D01*
Y-53194D01*
X20468D01*
X20516Y-53190D01*
X20568Y-53186D01*
X20620Y-53183D01*
X20672Y-53175D01*
X20713Y-53168D01*
X20720Y-53164D01*
X20735Y-53160D01*
X20757Y-53149D01*
X20787Y-53135D01*
X20816Y-53120D01*
X20850Y-53097D01*
X20883Y-53068D01*
X20909Y-53038D01*
X20912Y-53035D01*
X20920Y-53023D01*
X20931Y-53001D01*
X20942Y-52975D01*
X20953Y-52946D01*
X20964Y-52909D01*
X20972Y-52864D01*
X20975Y-52816D01*
Y-52809D01*
Y-52794D01*
X20972Y-52772D01*
X20968Y-52742D01*
X20960Y-52705D01*
X20949Y-52668D01*
X20935Y-52631D01*
X20912Y-52594D01*
X20909Y-52591D01*
X20901Y-52579D01*
X20887Y-52561D01*
X20868Y-52543D01*
X20842Y-52520D01*
X20812Y-52498D01*
X20775Y-52476D01*
X20735Y-52461D01*
X20731D01*
X20713Y-52454D01*
X20687Y-52450D01*
X20646Y-52443D01*
X20591Y-52435D01*
X20528Y-52431D01*
X20446Y-52424D01*
D02*
G37*
G36*
X20513Y-53497D02*
X19839D01*
Y-54378D01*
X20568D01*
X20646Y-54374D01*
X20679Y-54370D01*
X20709Y-54367D01*
X20713D01*
X20727Y-54363D01*
X20750Y-54359D01*
X20775Y-54352D01*
X20838Y-54330D01*
X20901Y-54300D01*
X20905Y-54296D01*
X20916Y-54289D01*
X20931Y-54278D01*
X20949Y-54263D01*
X20968Y-54241D01*
X20994Y-54219D01*
X21012Y-54189D01*
X21035Y-54156D01*
X21038Y-54152D01*
X21042Y-54141D01*
X21049Y-54119D01*
X21060Y-54093D01*
X21071Y-54063D01*
X21079Y-54026D01*
X21083Y-53982D01*
X21086Y-53937D01*
Y-53930D01*
Y-53915D01*
X21083Y-53886D01*
X21075Y-53852D01*
X21068Y-53815D01*
X21053Y-53775D01*
X21035Y-53734D01*
X21009Y-53693D01*
X21005Y-53689D01*
X20994Y-53675D01*
X20979Y-53656D01*
X20957Y-53634D01*
X20927Y-53608D01*
X20890Y-53582D01*
X20850Y-53560D01*
X20801Y-53541D01*
X20794Y-53538D01*
X20779Y-53534D01*
X20746Y-53527D01*
X20705Y-53519D01*
X20653Y-53512D01*
X20591Y-53505D01*
X20513Y-53497D01*
D02*
G37*
G36*
X26755Y-52387D02*
Y-52391D01*
X26751Y-52398D01*
Y-52413D01*
X26744Y-52428D01*
X26740Y-52454D01*
X26733Y-52480D01*
X26718Y-52543D01*
X26699Y-52617D01*
X26673Y-52698D01*
X26647Y-52787D01*
X26614Y-52879D01*
X26337Y-53627D01*
X27202D01*
X26936Y-52924D01*
Y-52920D01*
X26932Y-52909D01*
X26925Y-52890D01*
X26917Y-52868D01*
X26906Y-52842D01*
X26895Y-52809D01*
X26884Y-52772D01*
X26869Y-52735D01*
X26840Y-52650D01*
X26810Y-52561D01*
X26781Y-52472D01*
X26755Y-52387D01*
D02*
G37*
G36*
X7518Y-57042D02*
X7496D01*
X7481Y-57046D01*
X7441Y-57049D01*
X7393Y-57060D01*
X7333Y-57079D01*
X7271Y-57105D01*
X7211Y-57142D01*
X7152Y-57190D01*
X7145Y-57197D01*
X7130Y-57216D01*
X7104Y-57249D01*
X7078Y-57294D01*
X7049Y-57345D01*
X7023Y-57412D01*
X7000Y-57490D01*
X6989Y-57575D01*
X8029D01*
Y-57571D01*
Y-57564D01*
X8025Y-57553D01*
Y-57538D01*
X8018Y-57493D01*
X8007Y-57445D01*
X7988Y-57386D01*
X7970Y-57331D01*
X7940Y-57275D01*
X7907Y-57227D01*
Y-57223D01*
X7899Y-57220D01*
X7881Y-57197D01*
X7848Y-57168D01*
X7803Y-57134D01*
X7748Y-57101D01*
X7681Y-57072D01*
X7604Y-57049D01*
X7563Y-57046D01*
X7518Y-57042D01*
D02*
G37*
G36*
X17090Y-57749D02*
X17087D01*
X17083Y-57752D01*
X17072Y-57756D01*
X17057Y-57760D01*
X17039Y-57767D01*
X17016Y-57775D01*
X16990Y-57782D01*
X16961Y-57789D01*
X16928Y-57801D01*
X16887Y-57808D01*
X16846Y-57819D01*
X16798Y-57830D01*
X16746Y-57841D01*
X16694Y-57852D01*
X16635Y-57860D01*
X16572Y-57871D01*
X16565D01*
X16543Y-57875D01*
X16506Y-57882D01*
X16465Y-57889D01*
X16421Y-57897D01*
X16376Y-57908D01*
X16335Y-57919D01*
X16298Y-57934D01*
X16295D01*
X16284Y-57941D01*
X16269Y-57948D01*
X16254Y-57960D01*
X16210Y-57989D01*
X16173Y-58034D01*
Y-58037D01*
X16165Y-58045D01*
X16162Y-58060D01*
X16154Y-58078D01*
X16147Y-58100D01*
X16139Y-58122D01*
X16136Y-58152D01*
X16132Y-58182D01*
Y-58185D01*
Y-58204D01*
X16136Y-58226D01*
X16143Y-58256D01*
X16154Y-58289D01*
X16173Y-58322D01*
X16195Y-58359D01*
X16225Y-58393D01*
X16228Y-58396D01*
X16243Y-58404D01*
X16265Y-58418D01*
X16295Y-58433D01*
X16335Y-58448D01*
X16384Y-58463D01*
X16439Y-58470D01*
X16506Y-58474D01*
X16535D01*
X16572Y-58470D01*
X16613Y-58463D01*
X16665Y-58455D01*
X16717Y-58441D01*
X16772Y-58422D01*
X16828Y-58396D01*
X16835Y-58393D01*
X16850Y-58381D01*
X16876Y-58363D01*
X16905Y-58337D01*
X16939Y-58307D01*
X16976Y-58270D01*
X17005Y-58226D01*
X17035Y-58178D01*
X17039Y-58174D01*
X17042Y-58159D01*
X17050Y-58134D01*
X17061Y-58100D01*
X17072Y-58056D01*
X17079Y-58004D01*
X17083Y-57941D01*
X17087Y-57867D01*
X17090Y-57749D01*
D02*
G37*
G36*
X9934D02*
X9931D01*
X9927Y-57752D01*
X9916Y-57756D01*
X9901Y-57760D01*
X9883Y-57767D01*
X9860Y-57775D01*
X9835Y-57782D01*
X9805Y-57789D01*
X9772Y-57801D01*
X9731Y-57808D01*
X9690Y-57819D01*
X9642Y-57830D01*
X9590Y-57841D01*
X9539Y-57852D01*
X9479Y-57860D01*
X9416Y-57871D01*
X9409D01*
X9387Y-57875D01*
X9350Y-57882D01*
X9309Y-57889D01*
X9265Y-57897D01*
X9220Y-57908D01*
X9180Y-57919D01*
X9143Y-57934D01*
X9139D01*
X9128Y-57941D01*
X9113Y-57948D01*
X9098Y-57960D01*
X9054Y-57989D01*
X9017Y-58034D01*
Y-58037D01*
X9009Y-58045D01*
X9006Y-58060D01*
X8998Y-58078D01*
X8991Y-58100D01*
X8984Y-58122D01*
X8980Y-58152D01*
X8976Y-58182D01*
Y-58185D01*
Y-58204D01*
X8980Y-58226D01*
X8987Y-58256D01*
X8998Y-58289D01*
X9017Y-58322D01*
X9039Y-58359D01*
X9069Y-58393D01*
X9072Y-58396D01*
X9087Y-58404D01*
X9109Y-58418D01*
X9139Y-58433D01*
X9180Y-58448D01*
X9228Y-58463D01*
X9283Y-58470D01*
X9350Y-58474D01*
X9380D01*
X9416Y-58470D01*
X9457Y-58463D01*
X9509Y-58455D01*
X9561Y-58441D01*
X9616Y-58422D01*
X9672Y-58396D01*
X9679Y-58393D01*
X9694Y-58381D01*
X9720Y-58363D01*
X9749Y-58337D01*
X9783Y-58307D01*
X9820Y-58270D01*
X9849Y-58226D01*
X9879Y-58178D01*
X9883Y-58174D01*
X9886Y-58159D01*
X9894Y-58134D01*
X9905Y-58100D01*
X9916Y-58056D01*
X9923Y-58004D01*
X9927Y-57941D01*
X9931Y-57867D01*
X9934Y-57749D01*
D02*
G37*
G36*
X51441Y-52369D02*
X51419D01*
X51404Y-52372D01*
X51363Y-52380D01*
X51315Y-52391D01*
X51260Y-52413D01*
X51201Y-52446D01*
X51171Y-52469D01*
X51141Y-52491D01*
X51116Y-52520D01*
X51090Y-52554D01*
Y-52557D01*
X51082Y-52565D01*
X51075Y-52579D01*
X51064Y-52598D01*
X51053Y-52628D01*
X51038Y-52661D01*
X51027Y-52702D01*
X51012Y-52750D01*
X50997Y-52805D01*
X50982Y-52868D01*
X50968Y-52938D01*
X50956Y-53016D01*
X50945Y-53105D01*
X50938Y-53201D01*
X50934Y-53305D01*
X50931Y-53419D01*
Y-53427D01*
Y-53445D01*
Y-53479D01*
X50934Y-53523D01*
Y-53571D01*
X50938Y-53630D01*
X50942Y-53693D01*
X50949Y-53760D01*
X50968Y-53904D01*
X50979Y-53974D01*
X50993Y-54041D01*
X51008Y-54104D01*
X51030Y-54163D01*
X51053Y-54215D01*
X51078Y-54259D01*
Y-54263D01*
X51086Y-54267D01*
X51104Y-54293D01*
X51138Y-54326D01*
X51178Y-54363D01*
X51234Y-54400D01*
X51297Y-54433D01*
X51367Y-54459D01*
X51404Y-54463D01*
X51445Y-54466D01*
X51467D01*
X51482Y-54463D01*
X51519Y-54455D01*
X51571Y-54441D01*
X51626Y-54415D01*
X51689Y-54378D01*
X51719Y-54356D01*
X51748Y-54326D01*
X51778Y-54296D01*
X51807Y-54259D01*
Y-54256D01*
X51815Y-54248D01*
X51822Y-54237D01*
X51830Y-54219D01*
X51844Y-54193D01*
X51855Y-54159D01*
X51870Y-54122D01*
X51885Y-54078D01*
X51896Y-54023D01*
X51911Y-53963D01*
X51926Y-53893D01*
X51937Y-53819D01*
X51944Y-53730D01*
X51952Y-53638D01*
X51959Y-53534D01*
Y-53419D01*
Y-53416D01*
Y-53412D01*
Y-53394D01*
Y-53360D01*
X51955Y-53316D01*
Y-53268D01*
X51952Y-53209D01*
X51948Y-53146D01*
X51941Y-53075D01*
X51922Y-52935D01*
X51911Y-52864D01*
X51896Y-52798D01*
X51881Y-52735D01*
X51859Y-52676D01*
X51837Y-52624D01*
X51811Y-52579D01*
Y-52576D01*
X51804Y-52572D01*
X51796Y-52561D01*
X51785Y-52546D01*
X51752Y-52513D01*
X51711Y-52472D01*
X51656Y-52435D01*
X51593Y-52402D01*
X51560Y-52387D01*
X51522Y-52376D01*
X51482Y-52372D01*
X51441Y-52369D01*
D02*
G37*
G36*
X24594D02*
X24572D01*
X24557Y-52372D01*
X24516Y-52380D01*
X24468Y-52391D01*
X24413Y-52413D01*
X24353Y-52446D01*
X24324Y-52469D01*
X24294Y-52491D01*
X24268Y-52520D01*
X24242Y-52554D01*
Y-52557D01*
X24235Y-52565D01*
X24228Y-52579D01*
X24216Y-52598D01*
X24205Y-52628D01*
X24191Y-52661D01*
X24180Y-52702D01*
X24165Y-52750D01*
X24150Y-52805D01*
X24135Y-52868D01*
X24120Y-52938D01*
X24109Y-53016D01*
X24098Y-53105D01*
X24091Y-53201D01*
X24087Y-53305D01*
X24083Y-53419D01*
Y-53427D01*
Y-53445D01*
Y-53479D01*
X24087Y-53523D01*
Y-53571D01*
X24091Y-53630D01*
X24094Y-53693D01*
X24102Y-53760D01*
X24120Y-53904D01*
X24131Y-53974D01*
X24146Y-54041D01*
X24161Y-54104D01*
X24183Y-54163D01*
X24205Y-54215D01*
X24231Y-54259D01*
Y-54263D01*
X24239Y-54267D01*
X24257Y-54293D01*
X24291Y-54326D01*
X24331Y-54363D01*
X24387Y-54400D01*
X24450Y-54433D01*
X24520Y-54459D01*
X24557Y-54463D01*
X24598Y-54466D01*
X24620D01*
X24635Y-54463D01*
X24672Y-54455D01*
X24723Y-54441D01*
X24779Y-54415D01*
X24842Y-54378D01*
X24871Y-54356D01*
X24901Y-54326D01*
X24931Y-54296D01*
X24960Y-54259D01*
Y-54256D01*
X24968Y-54248D01*
X24975Y-54237D01*
X24982Y-54219D01*
X24997Y-54193D01*
X25008Y-54159D01*
X25023Y-54122D01*
X25038Y-54078D01*
X25049Y-54023D01*
X25064Y-53963D01*
X25079Y-53893D01*
X25090Y-53819D01*
X25097Y-53730D01*
X25104Y-53638D01*
X25112Y-53534D01*
Y-53419D01*
Y-53416D01*
Y-53412D01*
Y-53394D01*
Y-53360D01*
X25108Y-53316D01*
Y-53268D01*
X25104Y-53209D01*
X25101Y-53146D01*
X25093Y-53075D01*
X25075Y-52935D01*
X25064Y-52864D01*
X25049Y-52798D01*
X25034Y-52735D01*
X25012Y-52676D01*
X24990Y-52624D01*
X24964Y-52579D01*
Y-52576D01*
X24957Y-52572D01*
X24949Y-52561D01*
X24938Y-52546D01*
X24905Y-52513D01*
X24864Y-52472D01*
X24809Y-52435D01*
X24746Y-52402D01*
X24712Y-52387D01*
X24675Y-52376D01*
X24635Y-52372D01*
X24594Y-52369D01*
D02*
G37*
G36*
X58408D02*
X58386D01*
X58371Y-52372D01*
X58331Y-52380D01*
X58282Y-52391D01*
X58227Y-52413D01*
X58168Y-52446D01*
X58138Y-52469D01*
X58109Y-52491D01*
X58083Y-52520D01*
X58057Y-52554D01*
Y-52557D01*
X58049Y-52565D01*
X58042Y-52579D01*
X58031Y-52598D01*
X58020Y-52628D01*
X58005Y-52661D01*
X57994Y-52702D01*
X57979Y-52750D01*
X57964Y-52805D01*
X57949Y-52868D01*
X57935Y-52938D01*
X57924Y-53016D01*
X57912Y-53105D01*
X57905Y-53201D01*
X57901Y-53305D01*
X57898Y-53419D01*
Y-53427D01*
Y-53445D01*
Y-53479D01*
X57901Y-53523D01*
Y-53571D01*
X57905Y-53630D01*
X57909Y-53693D01*
X57916Y-53760D01*
X57935Y-53904D01*
X57946Y-53974D01*
X57960Y-54041D01*
X57975Y-54104D01*
X57998Y-54163D01*
X58020Y-54215D01*
X58046Y-54259D01*
Y-54263D01*
X58053Y-54267D01*
X58072Y-54293D01*
X58105Y-54326D01*
X58145Y-54363D01*
X58201Y-54400D01*
X58264Y-54433D01*
X58334Y-54459D01*
X58371Y-54463D01*
X58412Y-54466D01*
X58434D01*
X58449Y-54463D01*
X58486Y-54455D01*
X58538Y-54441D01*
X58593Y-54415D01*
X58656Y-54378D01*
X58686Y-54356D01*
X58715Y-54326D01*
X58745Y-54296D01*
X58775Y-54259D01*
Y-54256D01*
X58782Y-54248D01*
X58789Y-54237D01*
X58797Y-54219D01*
X58811Y-54193D01*
X58823Y-54159D01*
X58837Y-54122D01*
X58852Y-54078D01*
X58863Y-54023D01*
X58878Y-53963D01*
X58893Y-53893D01*
X58904Y-53819D01*
X58911Y-53730D01*
X58919Y-53638D01*
X58926Y-53534D01*
Y-53419D01*
Y-53416D01*
Y-53412D01*
Y-53394D01*
Y-53360D01*
X58922Y-53316D01*
Y-53268D01*
X58919Y-53209D01*
X58915Y-53146D01*
X58908Y-53075D01*
X58889Y-52935D01*
X58878Y-52864D01*
X58863Y-52798D01*
X58849Y-52735D01*
X58826Y-52676D01*
X58804Y-52624D01*
X58778Y-52579D01*
Y-52576D01*
X58771Y-52572D01*
X58763Y-52561D01*
X58752Y-52546D01*
X58719Y-52513D01*
X58678Y-52472D01*
X58623Y-52435D01*
X58560Y-52402D01*
X58527Y-52387D01*
X58490Y-52376D01*
X58449Y-52372D01*
X58408Y-52369D01*
D02*
G37*
G36*
X60425Y-53297D02*
X60403D01*
X60388Y-53301D01*
X60351Y-53305D01*
X60299Y-53316D01*
X60243Y-53334D01*
X60180Y-53364D01*
X60121Y-53401D01*
X60062Y-53453D01*
X60055Y-53460D01*
X60040Y-53479D01*
X60014Y-53512D01*
X59988Y-53560D01*
X59962Y-53615D01*
X59936Y-53686D01*
X59921Y-53764D01*
X59914Y-53852D01*
Y-53860D01*
Y-53878D01*
X59918Y-53912D01*
X59921Y-53952D01*
X59929Y-54000D01*
X59944Y-54052D01*
X59958Y-54108D01*
X59981Y-54163D01*
X59984Y-54171D01*
X59996Y-54189D01*
X60010Y-54215D01*
X60032Y-54248D01*
X60058Y-54282D01*
X60092Y-54322D01*
X60129Y-54356D01*
X60173Y-54389D01*
X60180Y-54392D01*
X60195Y-54400D01*
X60221Y-54415D01*
X60255Y-54426D01*
X60291Y-54441D01*
X60336Y-54455D01*
X60384Y-54463D01*
X60436Y-54466D01*
X60454D01*
X60469Y-54463D01*
X60506Y-54459D01*
X60554Y-54448D01*
X60606Y-54426D01*
X60665Y-54400D01*
X60724Y-54359D01*
X60754Y-54337D01*
X60780Y-54307D01*
Y-54304D01*
X60787Y-54300D01*
X60802Y-54278D01*
X60824Y-54241D01*
X60854Y-54193D01*
X60880Y-54130D01*
X60902Y-54056D01*
X60917Y-53971D01*
X60924Y-53871D01*
Y-53867D01*
Y-53860D01*
Y-53845D01*
X60921Y-53826D01*
Y-53804D01*
X60917Y-53778D01*
X60906Y-53719D01*
X60891Y-53653D01*
X60865Y-53582D01*
X60828Y-53516D01*
X60780Y-53453D01*
X60773Y-53445D01*
X60754Y-53427D01*
X60724Y-53405D01*
X60684Y-53375D01*
X60632Y-53345D01*
X60573Y-53323D01*
X60502Y-53305D01*
X60425Y-53297D01*
D02*
G37*
G36*
X55448D02*
X55426D01*
X55411Y-53301D01*
X55374Y-53305D01*
X55322Y-53316D01*
X55267Y-53334D01*
X55204Y-53364D01*
X55145Y-53401D01*
X55086Y-53453D01*
X55078Y-53460D01*
X55063Y-53479D01*
X55037Y-53512D01*
X55012Y-53560D01*
X54986Y-53615D01*
X54960Y-53686D01*
X54945Y-53764D01*
X54938Y-53852D01*
Y-53860D01*
Y-53878D01*
X54941Y-53912D01*
X54945Y-53952D01*
X54952Y-54000D01*
X54967Y-54052D01*
X54982Y-54108D01*
X55004Y-54163D01*
X55008Y-54171D01*
X55019Y-54189D01*
X55034Y-54215D01*
X55056Y-54248D01*
X55082Y-54282D01*
X55115Y-54322D01*
X55152Y-54356D01*
X55197Y-54389D01*
X55204Y-54392D01*
X55219Y-54400D01*
X55245Y-54415D01*
X55278Y-54426D01*
X55315Y-54441D01*
X55359Y-54455D01*
X55408Y-54463D01*
X55459Y-54466D01*
X55478D01*
X55493Y-54463D01*
X55530Y-54459D01*
X55578Y-54448D01*
X55629Y-54426D01*
X55689Y-54400D01*
X55748Y-54359D01*
X55778Y-54337D01*
X55803Y-54307D01*
Y-54304D01*
X55811Y-54300D01*
X55826Y-54278D01*
X55848Y-54241D01*
X55877Y-54193D01*
X55903Y-54130D01*
X55926Y-54056D01*
X55940Y-53971D01*
X55948Y-53871D01*
Y-53867D01*
Y-53860D01*
Y-53845D01*
X55944Y-53826D01*
Y-53804D01*
X55940Y-53778D01*
X55929Y-53719D01*
X55914Y-53653D01*
X55888Y-53582D01*
X55852Y-53516D01*
X55803Y-53453D01*
X55796Y-53445D01*
X55778Y-53427D01*
X55748Y-53405D01*
X55707Y-53375D01*
X55655Y-53345D01*
X55596Y-53323D01*
X55526Y-53305D01*
X55448Y-53297D01*
D02*
G37*
G36*
X68927Y-52424D02*
X68195D01*
Y-53338D01*
X68883D01*
X68909Y-53334D01*
X68935D01*
X68964Y-53331D01*
X69035Y-53323D01*
X69112Y-53308D01*
X69190Y-53286D01*
X69260Y-53257D01*
X69294Y-53238D01*
X69319Y-53216D01*
X69327Y-53209D01*
X69342Y-53194D01*
X69364Y-53164D01*
X69390Y-53127D01*
X69416Y-53079D01*
X69438Y-53020D01*
X69453Y-52953D01*
X69460Y-52876D01*
Y-52872D01*
Y-52868D01*
Y-52850D01*
X69456Y-52816D01*
X69449Y-52779D01*
X69442Y-52739D01*
X69427Y-52691D01*
X69405Y-52646D01*
X69379Y-52602D01*
X69375Y-52598D01*
X69364Y-52583D01*
X69345Y-52565D01*
X69323Y-52539D01*
X69290Y-52513D01*
X69253Y-52491D01*
X69212Y-52469D01*
X69164Y-52450D01*
X69160D01*
X69146Y-52446D01*
X69123Y-52443D01*
X69094Y-52435D01*
X69049Y-52431D01*
X68994Y-52428D01*
X68927Y-52424D01*
D02*
G37*
%LPD*%
D17*
X1181Y-47272D02*
X26773D01*
X73453Y-89512D02*
Y-62512D01*
X82453D01*
X73453Y-89512D02*
X82453D01*
Y-62512D01*
X41957Y-89512D02*
Y-62512D01*
X50957D01*
X41957Y-89512D02*
X50957D01*
Y-62512D01*
X10461Y-89512D02*
Y-62512D01*
X19461D01*
X10461Y-89512D02*
X19461D01*
Y-62512D01*
X-1181Y-5512D02*
X20472D01*
X1181Y-39370D02*
X22835D01*
X1181Y-40185D02*
X22835D01*
M02*
