G04 Layer_Physical_Order=2*
G04 Layer_Color=16711680*
%FSLAX25Y25*%
%MOIN*%
G70*
G01*
G75*
%ADD10O,0.07874X0.03150*%
%ADD11C,0.02200*%
%ADD12C,0.03000*%
%ADD13R,0.01378X0.07874*%
%ADD14C,0.10000*%
%ADD15C,0.06000*%
%ADD16C,0.01200*%
G36*
X1450Y-8071D02*
X1437Y-8107D01*
X1425Y-8167D01*
X1415Y-8251D01*
X1400Y-8491D01*
X1387Y-9259D01*
X187D01*
X187Y-9031D01*
X125Y-8071D01*
X110Y-8059D01*
X1464D01*
X1450Y-8071D01*
D02*
G37*
G36*
X3418D02*
X3405Y-8107D01*
X3394Y-8167D01*
X3384Y-8251D01*
X3368Y-8491D01*
X3356Y-9259D01*
X2156D01*
X2155Y-9031D01*
X2094Y-8071D01*
X2079Y-8059D01*
X3433D01*
X3418Y-8071D01*
D02*
G37*
G36*
X15175Y-8059D02*
X15244D01*
X15229Y-8071D01*
X15216Y-8107D01*
X15205Y-8167D01*
X15195Y-8251D01*
X15181Y-8459D01*
X15182Y-8515D01*
X15411Y-11126D01*
X15548Y-11846D01*
X15715Y-12490D01*
X15913Y-13059D01*
X16141Y-13552D01*
X16400Y-13971D01*
X16690Y-14313D01*
X12444D01*
X12734Y-13971D01*
X12992Y-13552D01*
X13221Y-13059D01*
X13419Y-12490D01*
X13586Y-11846D01*
X13723Y-11126D01*
X13830Y-10331D01*
X13942Y-8657D01*
X13905Y-8071D01*
X13890Y-8059D01*
X13959D01*
X13967Y-7494D01*
X15167D01*
X15175Y-8059D01*
D02*
G37*
G36*
X3432Y-53272D02*
X11698Y-61538D01*
X12043Y-61821D01*
X12036Y-61839D01*
X12064D01*
X12581Y-62263D01*
X13589Y-62801D01*
X14682Y-63133D01*
X14961Y-63161D01*
Y-64792D01*
X17913D01*
Y-67311D01*
X17995Y-67300D01*
X18621Y-67041D01*
X19159Y-66628D01*
X19572Y-66090D01*
X19831Y-65464D01*
X19920Y-64792D01*
X19831Y-64119D01*
X19676Y-63745D01*
X19977Y-63245D01*
X41440D01*
X41741Y-63745D01*
X41586Y-64119D01*
X41497Y-64792D01*
X41586Y-65464D01*
X41845Y-66090D01*
X42258Y-66628D01*
X42796Y-67041D01*
X43422Y-67300D01*
X43504Y-67311D01*
Y-64792D01*
X49409D01*
Y-67311D01*
X49491Y-67300D01*
X50117Y-67041D01*
X50655Y-66628D01*
X51068Y-66090D01*
X51327Y-65464D01*
X51416Y-64792D01*
X51327Y-64119D01*
X51172Y-63745D01*
X51473Y-63245D01*
X68164D01*
X72125Y-67206D01*
Y-87233D01*
X72237Y-88370D01*
X72568Y-89463D01*
X73107Y-90470D01*
X73832Y-91354D01*
X74715Y-92078D01*
X75722Y-92617D01*
X76816Y-92949D01*
X76765Y-93445D01*
X5118D01*
Y-93441D01*
X4377Y-93343D01*
X3687Y-93057D01*
X3095Y-92602D01*
X2640Y-92010D01*
X2354Y-91320D01*
X2257Y-90579D01*
X2252D01*
Y-52504D01*
X2395Y-52468D01*
X2752Y-52443D01*
X3432Y-53272D01*
D02*
G37*
G36*
X20853Y-31235D02*
X20893Y-31266D01*
X21197Y-31638D01*
X21376Y-31870D01*
X21662Y-32561D01*
X21759Y-33301D01*
X21764D01*
Y-39370D01*
Y-43335D01*
X21764Y-43335D01*
X21742D01*
X21913Y-44636D01*
X22416Y-45849D01*
X23215Y-46891D01*
X24257Y-47691D01*
X25470Y-48194D01*
X26291Y-48302D01*
X26773Y-48365D01*
X26774Y-48365D01*
X27264Y-48342D01*
X87795D01*
Y-48347D01*
X88536Y-48445D01*
X89226Y-48731D01*
X89819Y-49186D01*
X90273Y-49778D01*
X90559Y-50468D01*
X90657Y-51209D01*
X90662D01*
Y-90579D01*
X90657D01*
X90559Y-91320D01*
X90273Y-92010D01*
X89819Y-92602D01*
X89226Y-93057D01*
X88536Y-93343D01*
X87795Y-93441D01*
Y-93445D01*
X79140D01*
X79090Y-92949D01*
X80183Y-92617D01*
X81191Y-92078D01*
X82074Y-91354D01*
X82799Y-90470D01*
X83337Y-89463D01*
X83669Y-88370D01*
X83781Y-87233D01*
Y-64792D01*
X83669Y-63655D01*
X83337Y-62561D01*
X82799Y-61554D01*
X82074Y-60671D01*
X74699Y-53296D01*
X73816Y-52571D01*
X72808Y-52032D01*
X71715Y-51701D01*
X70578Y-51589D01*
X19855D01*
X19777Y-51443D01*
X19052Y-50560D01*
X13382Y-44890D01*
Y-38355D01*
X13882Y-38109D01*
X14437Y-38535D01*
X15361Y-38918D01*
X16353Y-39048D01*
X17345Y-38918D01*
X18270Y-38535D01*
X19064Y-37926D01*
X19673Y-37132D01*
X20056Y-36208D01*
X20186Y-35216D01*
Y-31144D01*
X20660Y-30983D01*
X20853Y-31235D01*
D02*
G37*
G36*
X17198Y-8071D02*
X17185Y-8107D01*
X17173Y-8167D01*
X17163Y-8251D01*
X17148Y-8491D01*
X17135Y-9259D01*
X15935D01*
X15935Y-9031D01*
X15873Y-8071D01*
X15858Y-8059D01*
X17212D01*
X17198Y-8071D01*
D02*
G37*
G36*
X19166D02*
X19153Y-8107D01*
X19142Y-8167D01*
X19132Y-8251D01*
X19116Y-8491D01*
X19104Y-9259D01*
X17904D01*
X17903Y-9031D01*
X17842Y-8071D01*
X17827Y-8059D01*
X19181D01*
X19166Y-8071D01*
D02*
G37*
G36*
X13261D02*
X13248Y-8107D01*
X13236Y-8167D01*
X13226Y-8251D01*
X13211Y-8491D01*
X13198Y-9259D01*
X11998D01*
X11998Y-9031D01*
X11936Y-8071D01*
X11921Y-8059D01*
X13275D01*
X13261Y-8071D01*
D02*
G37*
G36*
X5387D02*
X5374Y-8107D01*
X5362Y-8167D01*
X5352Y-8251D01*
X5337Y-8491D01*
X5324Y-9259D01*
X4124D01*
X4124Y-9031D01*
X4062Y-8071D01*
X4047Y-8059D01*
X5401D01*
X5387Y-8071D01*
D02*
G37*
G36*
X7355D02*
X7342Y-8107D01*
X7331Y-8167D01*
X7321Y-8251D01*
X7305Y-8491D01*
X7293Y-9259D01*
X6093D01*
X6092Y-9031D01*
X6031Y-8071D01*
X6016Y-8059D01*
X7370D01*
X7355Y-8071D01*
D02*
G37*
D10*
X77953Y-64792D02*
D03*
Y-87233D02*
D03*
X46457Y-64792D02*
D03*
Y-87233D02*
D03*
X14961Y-64792D02*
D03*
Y-87233D02*
D03*
D11*
X26819Y-74348D02*
D03*
Y-79014D02*
D03*
Y-83681D02*
D03*
X57319Y-69181D02*
D03*
Y-74348D02*
D03*
Y-79014D02*
D03*
Y-83681D02*
D03*
X87319Y-67181D02*
D03*
Y-62514D02*
D03*
Y-57848D02*
D03*
Y-53181D02*
D03*
X14819Y-22181D02*
D03*
Y-18681D02*
D03*
X26819Y-69181D02*
D03*
X6319D02*
D03*
Y-83681D02*
D03*
Y-79014D02*
D03*
Y-74348D02*
D03*
X57319Y-50181D02*
D03*
X52462D02*
D03*
X47605D02*
D03*
X42748D02*
D03*
X87319Y-72181D02*
D03*
Y-76848D02*
D03*
Y-81514D02*
D03*
Y-86181D02*
D03*
X23319Y-50181D02*
D03*
X28176D02*
D03*
X33033D02*
D03*
X37890D02*
D03*
X63319Y-83681D02*
D03*
Y-79014D02*
D03*
Y-74348D02*
D03*
Y-69181D02*
D03*
D12*
X16319Y-31431D02*
D03*
Y-36181D02*
D03*
Y-26681D02*
D03*
D13*
X18504Y-4134D02*
D03*
X16535D02*
D03*
X14567D02*
D03*
X12598D02*
D03*
X10630D02*
D03*
X8661D02*
D03*
X6693D02*
D03*
X4724D02*
D03*
X2756D02*
D03*
X787D02*
D03*
D14*
X15819Y-57417D02*
X70578D01*
X7553Y-49152D02*
X15819Y-57417D01*
X70578D02*
X77953Y-64792D01*
X7553Y-47304D02*
Y-28692D01*
Y-49152D02*
Y-47304D01*
X14931Y-54681D01*
X5069Y-26207D02*
X7553Y-28692D01*
X5069Y-26207D02*
Y-19881D01*
X77953Y-87233D02*
Y-64792D01*
D15*
X14567Y-23260D02*
Y-22209D01*
X16353Y-35216D02*
Y-25047D01*
X14567Y-23260D02*
X16353Y-25047D01*
X14567Y-22209D02*
Y-16433D01*
D16*
X10630Y-15492D02*
X11819Y-16681D01*
X10630Y-15492D02*
Y-4134D01*
X8630Y-15870D02*
Y-14587D01*
X7937Y-16563D02*
X8630Y-15870D01*
X8661Y-14587D02*
Y-4134D01*
X12598Y-16402D02*
Y-4134D01*
X14567Y-16433D02*
Y-4134D01*
X16535Y-15898D02*
Y-4134D01*
X18504Y-15496D02*
Y-4134D01*
X17319Y-16681D02*
X18504Y-15496D01*
X4724Y-16563D02*
Y-4134D01*
X6693Y-16555D02*
Y-4134D01*
X2756Y-16563D02*
Y-4134D01*
X787Y-16563D02*
X2756D01*
X787D02*
Y-4134D01*
M02*
