G04 Layer_Color=2752767*
%FSLAX25Y25*%
%MOIN*%
G70*
G01*
G75*
%ADD10C,0.00200*%
%ADD11C,0.00267*%
D10*
X77153Y-65592D02*
Y-63992D01*
X78753D01*
Y-65592D01*
X77153D01*
Y-88033D02*
Y-86433D01*
X78753D01*
Y-88033D01*
X77153D01*
X45657Y-65592D02*
Y-63992D01*
X47257D01*
Y-65592D01*
X45657D01*
Y-88033D02*
Y-86433D01*
X47257D01*
Y-88033D01*
X45657D01*
X14161Y-65592D02*
Y-63992D01*
X15761D01*
Y-65592D01*
X14161D01*
Y-88033D02*
Y-86433D01*
X15761D01*
Y-88033D01*
X14161D01*
X16319Y-32231D02*
X15519Y-30631D01*
X17119D01*
X16319Y-32231D01*
Y-36981D02*
X15519Y-35381D01*
X17119D01*
X16319Y-36981D01*
Y-27481D02*
X15519Y-25881D01*
X17119D01*
X16319Y-27481D01*
D11*
X27619Y-74348D02*
G03*
X27619Y-74348I-800J0D01*
G01*
Y-79014D02*
G03*
X27619Y-79014I-800J0D01*
G01*
Y-83681D02*
G03*
X27619Y-83681I-800J0D01*
G01*
X58119Y-69181D02*
G03*
X58119Y-69181I-800J0D01*
G01*
Y-74348D02*
G03*
X58119Y-74348I-800J0D01*
G01*
Y-79014D02*
G03*
X58119Y-79014I-800J0D01*
G01*
Y-83681D02*
G03*
X58119Y-83681I-800J0D01*
G01*
X88119Y-67181D02*
G03*
X88119Y-67181I-800J0D01*
G01*
Y-62514D02*
G03*
X88119Y-62514I-800J0D01*
G01*
Y-57848D02*
G03*
X88119Y-57848I-800J0D01*
G01*
Y-53181D02*
G03*
X88119Y-53181I-800J0D01*
G01*
X15619Y-22181D02*
G03*
X15619Y-22181I-800J0D01*
G01*
Y-18681D02*
G03*
X15619Y-18681I-800J0D01*
G01*
X27619Y-69181D02*
G03*
X27619Y-69181I-800J0D01*
G01*
X7119D02*
G03*
X7119Y-69181I-800J0D01*
G01*
Y-83681D02*
G03*
X7119Y-83681I-800J0D01*
G01*
Y-79014D02*
G03*
X7119Y-79014I-800J0D01*
G01*
Y-74348D02*
G03*
X7119Y-74348I-800J0D01*
G01*
X58119Y-50181D02*
G03*
X58119Y-50181I-800J0D01*
G01*
X53262D02*
G03*
X53262Y-50181I-800J0D01*
G01*
X48405D02*
G03*
X48405Y-50181I-800J0D01*
G01*
X43547D02*
G03*
X43547Y-50181I-800J0D01*
G01*
X88119Y-72181D02*
G03*
X88119Y-72181I-800J0D01*
G01*
Y-76848D02*
G03*
X88119Y-76848I-800J0D01*
G01*
Y-81514D02*
G03*
X88119Y-81514I-800J0D01*
G01*
Y-86181D02*
G03*
X88119Y-86181I-800J0D01*
G01*
X24119Y-50181D02*
G03*
X24119Y-50181I-800J0D01*
G01*
X28976D02*
G03*
X28976Y-50181I-800J0D01*
G01*
X33833D02*
G03*
X33833Y-50181I-800J0D01*
G01*
X38690D02*
G03*
X38690Y-50181I-800J0D01*
G01*
X64119Y-83681D02*
G03*
X64119Y-83681I-800J0D01*
G01*
Y-79014D02*
G03*
X64119Y-79014I-800J0D01*
G01*
Y-74348D02*
G03*
X64119Y-74348I-800J0D01*
G01*
Y-69181D02*
G03*
X64119Y-69181I-800J0D01*
G01*
M02*
