G04 Layer_Color=128*
%FSLAX25Y25*%
%MOIN*%
G70*
G01*
G75*
%ADD10C,0.00200*%
D10*
X76968Y-64792D02*
X78937D01*
X77953Y-65776D02*
Y-63807D01*
X76968Y-87233D02*
X78937D01*
X77953Y-88217D02*
Y-86248D01*
X45472Y-64792D02*
X47441D01*
X46457Y-65776D02*
Y-63807D01*
X45472Y-87233D02*
X47441D01*
X46457Y-88217D02*
Y-86248D01*
X13976Y-64792D02*
X15945D01*
X14961Y-65776D02*
Y-63807D01*
X13976Y-87233D02*
X15945D01*
X14961Y-88217D02*
Y-86248D01*
X26219Y-74348D02*
X27419D01*
X26819Y-74948D02*
Y-73748D01*
X26219Y-79014D02*
X27419D01*
X26819Y-79614D02*
Y-78414D01*
X26219Y-83681D02*
X27419D01*
X26819Y-84281D02*
Y-83081D01*
X56719Y-69181D02*
X57919D01*
X57319Y-69781D02*
Y-68581D01*
X56719Y-74348D02*
X57919D01*
X57319Y-74948D02*
Y-73748D01*
X56719Y-79014D02*
X57919D01*
X57319Y-79614D02*
Y-78414D01*
X56719Y-83681D02*
X57919D01*
X57319Y-84281D02*
Y-83081D01*
X86719Y-67181D02*
X87919D01*
X87319Y-67781D02*
Y-66581D01*
X86719Y-62514D02*
X87919D01*
X87319Y-63114D02*
Y-61914D01*
X86719Y-57848D02*
X87919D01*
X87319Y-58448D02*
Y-57248D01*
X86719Y-53181D02*
X87919D01*
X87319Y-53781D02*
Y-52581D01*
X15569Y-31431D02*
X17069D01*
X16319Y-32181D02*
Y-30681D01*
X15569Y-36181D02*
X17069D01*
X16319Y-36931D02*
Y-35431D01*
X15569Y-26681D02*
X17069D01*
X16319Y-27431D02*
Y-25931D01*
X14219Y-22181D02*
X15419D01*
X14819Y-22781D02*
Y-21581D01*
X14219Y-18681D02*
X15419D01*
X14819Y-19281D02*
Y-18081D01*
X26219Y-69181D02*
X27419D01*
X26819Y-69781D02*
Y-68581D01*
X5719Y-69181D02*
X6919D01*
X6319Y-69781D02*
Y-68581D01*
X5719Y-83681D02*
X6919D01*
X6319Y-84281D02*
Y-83081D01*
X5719Y-79014D02*
X6919D01*
X6319Y-79614D02*
Y-78414D01*
X5719Y-74348D02*
X6919D01*
X6319Y-74948D02*
Y-73748D01*
X56719Y-50181D02*
X57919D01*
X57319Y-50781D02*
Y-49581D01*
X51862Y-50181D02*
X53062D01*
X52462Y-50781D02*
Y-49581D01*
X47005Y-50181D02*
X48205D01*
X47605Y-50781D02*
Y-49581D01*
X42147Y-50181D02*
X43347D01*
X42748Y-50781D02*
Y-49581D01*
X86719Y-72181D02*
X87919D01*
X87319Y-72781D02*
Y-71581D01*
X86719Y-76848D02*
X87919D01*
X87319Y-77448D02*
Y-76248D01*
X86719Y-81514D02*
X87919D01*
X87319Y-82114D02*
Y-80914D01*
X86719Y-86181D02*
X87919D01*
X87319Y-86781D02*
Y-85581D01*
X22719Y-50181D02*
X23919D01*
X23319Y-50781D02*
Y-49581D01*
X27576Y-50181D02*
X28776D01*
X28176Y-50781D02*
Y-49581D01*
X32433Y-50181D02*
X33633D01*
X33033Y-50781D02*
Y-49581D01*
X37290Y-50181D02*
X38490D01*
X37890Y-50781D02*
Y-49581D01*
X62719Y-83681D02*
X63919D01*
X63319Y-84281D02*
Y-83081D01*
X62719Y-79014D02*
X63919D01*
X63319Y-79614D02*
Y-78414D01*
X62719Y-74348D02*
X63919D01*
X63319Y-74948D02*
Y-73748D01*
X62719Y-69181D02*
X63919D01*
X63319Y-69781D02*
Y-68581D01*
M02*
