G04 Layer_Color=128*
%FSLAX25Y25*%
%MOIN*%
G70*
G01*
G75*
%ADD21R,0.03543X0.03543*%
%ADD22R,0.02362X0.01969*%
%ADD26R,0.03543X0.03543*%
%ADD31O,0.11811X0.01378*%
%ADD34O,0.01378X0.07874*%
%ADD42C,0.04724*%
%ADD43R,0.01969X0.02362*%
%ADD44R,0.07480X0.04331*%
%ADD46C,0.03937*%
G04:AMPARAMS|DCode=49|XSize=19.69mil|YSize=23.62mil|CornerRadius=0mil|HoleSize=0mil|Usage=FLASHONLY|Rotation=45.000|XOffset=0mil|YOffset=0mil|HoleType=Round|Shape=Rectangle|*
%AMROTATEDRECTD49*
4,1,4,0.00139,-0.01531,-0.01531,0.00139,-0.00139,0.01531,0.01531,-0.00139,0.00139,-0.01531,0.0*
%
%ADD49ROTATEDRECTD49*%

%ADD54R,0.17323X0.05118*%
%ADD55O,0.01200X0.03100*%
%ADD63R,0.05118X0.17323*%
%ADD69R,0.04724X0.03347*%
%ADD71R,0.01378X0.01378*%
%ADD104O,0.01378X0.05906*%
%ADD105O,0.05512X0.01378*%
%ADD106O,0.01378X0.06496*%
%ADD107O,0.03150X0.01378*%
%ADD108O,0.01378X0.03150*%
%ADD109O,0.03543X0.01378*%
%ADD110O,0.01378X0.11811*%
%ADD111O,0.05906X0.01378*%
%ADD112R,0.00787X0.02087*%
%ADD113R,0.02500X0.05000*%
%ADD114R,0.05512X0.04724*%
%ADD115R,0.02559X0.00945*%
%ADD116R,0.03150X0.05512*%
G04:AMPARAMS|DCode=117|XSize=19.69mil|YSize=23.62mil|CornerRadius=0mil|HoleSize=0mil|Usage=FLASHONLY|Rotation=70.000|XOffset=0mil|YOffset=0mil|HoleType=Round|Shape=Rectangle|*
%AMROTATEDRECTD117*
4,1,4,0.00773,-0.01329,-0.01447,-0.00521,-0.00773,0.01329,0.01447,0.00521,0.00773,-0.01329,0.0*
%
%ADD117ROTATEDRECTD117*%

G04:AMPARAMS|DCode=118|XSize=19.69mil|YSize=23.62mil|CornerRadius=0mil|HoleSize=0mil|Usage=FLASHONLY|Rotation=315.000|XOffset=0mil|YOffset=0mil|HoleType=Round|Shape=Rectangle|*
%AMROTATEDRECTD118*
4,1,4,-0.01531,-0.00139,0.00139,0.01531,0.01531,0.00139,-0.00139,-0.01531,-0.01531,-0.00139,0.0*
%
%ADD118ROTATEDRECTD118*%

%ADD119R,0.10630X0.02756*%
%ADD120R,0.01575X0.02756*%
%ADD121R,0.03150X0.01575*%
%ADD122R,0.02559X0.03150*%
%ADD123R,0.06299X0.03150*%
%ADD124R,0.01575X0.03543*%
%ADD125R,0.00984X0.01083*%
%ADD126R,0.01083X0.00984*%
%ADD127R,0.03150X0.04331*%
%ADD128R,0.07874X0.04331*%
%ADD129R,0.14173X0.14173*%
%ADD130O,0.00984X0.03150*%
%ADD131O,0.03150X0.00984*%
D21*
X302948Y10644D02*
D03*
Y17144D02*
D03*
X353543Y37695D02*
D03*
Y44195D02*
D03*
X202748Y174450D02*
D03*
Y180950D02*
D03*
X197248D02*
D03*
Y174450D02*
D03*
X111630Y99433D02*
D03*
Y105933D02*
D03*
X81848Y21950D02*
D03*
Y28450D02*
D03*
X40950Y141924D02*
D03*
Y148424D02*
D03*
X46450Y158224D02*
D03*
Y151724D02*
D03*
X270193Y177581D02*
D03*
Y184081D02*
D03*
X279693Y177833D02*
D03*
Y184333D02*
D03*
X52050Y151824D02*
D03*
Y158324D02*
D03*
X256793Y61960D02*
D03*
Y68460D02*
D03*
X214893Y62660D02*
D03*
Y69160D02*
D03*
D22*
X283616Y42631D02*
D03*
X279679D02*
D03*
X283616Y46131D02*
D03*
X279679D02*
D03*
X283616Y56631D02*
D03*
X279679D02*
D03*
X283616Y60131D02*
D03*
X279679D02*
D03*
X294173Y63617D02*
D03*
X290235D02*
D03*
X330817Y48200D02*
D03*
X326880D02*
D03*
X309496Y37299D02*
D03*
X313433D02*
D03*
X321332Y74799D02*
D03*
X325269D02*
D03*
Y78199D02*
D03*
X321332D02*
D03*
X312779Y33600D02*
D03*
X316717D02*
D03*
X311417Y119800D02*
D03*
X307480D02*
D03*
X311417Y130100D02*
D03*
X307480D02*
D03*
X325016Y33600D02*
D03*
X321079D02*
D03*
X283616Y49631D02*
D03*
X279679D02*
D03*
X294155Y60154D02*
D03*
X290217D02*
D03*
X293661Y56631D02*
D03*
X289724D02*
D03*
X293661Y49631D02*
D03*
X289724D02*
D03*
X293661Y46131D02*
D03*
X289724D02*
D03*
X293661Y42631D02*
D03*
X289724D02*
D03*
X337868Y69099D02*
D03*
X333931D02*
D03*
X230716Y86900D02*
D03*
X226780D02*
D03*
X83461Y43783D02*
D03*
X87398D02*
D03*
X326880Y51700D02*
D03*
X330817D02*
D03*
X172561Y68083D02*
D03*
X176498D02*
D03*
X194724Y61331D02*
D03*
X198661D02*
D03*
Y73783D02*
D03*
X194724D02*
D03*
Y81483D02*
D03*
X198661D02*
D03*
Y85683D02*
D03*
X194724D02*
D03*
Y51331D02*
D03*
X198661D02*
D03*
X83531Y47899D02*
D03*
X87468D02*
D03*
X194724Y55331D02*
D03*
X198661D02*
D03*
X312918Y173000D02*
D03*
X308981D02*
D03*
X312918Y176583D02*
D03*
X308981D02*
D03*
X321332Y81499D02*
D03*
X325269D02*
D03*
X254161Y16331D02*
D03*
X250224D02*
D03*
X250224Y12831D02*
D03*
X254161D02*
D03*
X157879Y180600D02*
D03*
X161817D02*
D03*
X157879Y176900D02*
D03*
X161817D02*
D03*
X309016Y151300D02*
D03*
X305080D02*
D03*
X315179Y132200D02*
D03*
X319116D02*
D03*
X323318Y168283D02*
D03*
X319381D02*
D03*
X206279Y80900D02*
D03*
X210216D02*
D03*
X217179Y80800D02*
D03*
X221116D02*
D03*
X220681Y52083D02*
D03*
X224618D02*
D03*
X311417Y110800D02*
D03*
X307480D02*
D03*
X311316Y107000D02*
D03*
X307380D02*
D03*
D26*
X197980Y33883D02*
D03*
X191480D02*
D03*
X325900Y163783D02*
D03*
X319400D02*
D03*
X326998Y43700D02*
D03*
X333498D02*
D03*
X173443Y113331D02*
D03*
X179943D02*
D03*
X54143Y5331D02*
D03*
X47643D02*
D03*
X333498Y38100D02*
D03*
X326998D02*
D03*
X314798Y115400D02*
D03*
X308298D02*
D03*
X297150Y13599D02*
D03*
X290650D02*
D03*
X224098Y100800D02*
D03*
X230598D02*
D03*
Y106300D02*
D03*
X224098D02*
D03*
D31*
X299606Y85039D02*
D03*
X329921Y20866D02*
D03*
X292126D02*
D03*
D34*
X274803Y44488D02*
D03*
Y57874D02*
D03*
D42*
X15400Y18699D02*
D03*
D43*
X318448Y151532D02*
D03*
Y155468D02*
D03*
X299448Y128668D02*
D03*
Y124732D02*
D03*
X304348Y33231D02*
D03*
Y37168D02*
D03*
X297648Y35331D02*
D03*
Y39268D02*
D03*
X307700Y16068D02*
D03*
Y12131D02*
D03*
X299300Y72268D02*
D03*
Y68331D02*
D03*
X318000Y68331D02*
D03*
Y72268D02*
D03*
X341300Y69331D02*
D03*
Y73268D02*
D03*
X330600Y69231D02*
D03*
Y73168D02*
D03*
X261193Y12362D02*
D03*
Y16299D02*
D03*
X257693Y12362D02*
D03*
Y16299D02*
D03*
X192848Y178969D02*
D03*
Y175031D02*
D03*
X85948Y26469D02*
D03*
Y22532D02*
D03*
X166450Y107343D02*
D03*
Y103405D02*
D03*
X322248Y69368D02*
D03*
Y65431D02*
D03*
X161193Y86862D02*
D03*
Y90799D02*
D03*
X165193D02*
D03*
Y86862D02*
D03*
X156693D02*
D03*
Y90799D02*
D03*
X31550Y142851D02*
D03*
Y138914D02*
D03*
X41450Y154306D02*
D03*
Y158242D02*
D03*
X275193Y177362D02*
D03*
Y181299D02*
D03*
X24550Y138937D02*
D03*
Y142874D02*
D03*
X28050Y142874D02*
D03*
Y138937D02*
D03*
X262193Y76115D02*
D03*
Y80052D02*
D03*
X327300Y64631D02*
D03*
Y68568D02*
D03*
X330550Y177651D02*
D03*
Y173714D02*
D03*
X334050D02*
D03*
Y177651D02*
D03*
X239348Y93132D02*
D03*
Y97069D02*
D03*
X232765Y66968D02*
D03*
Y63031D02*
D03*
X210493Y69179D02*
D03*
Y65242D02*
D03*
X319148Y136432D02*
D03*
Y140368D02*
D03*
X314848Y155468D02*
D03*
Y151532D02*
D03*
D44*
X114961Y57874D02*
D03*
Y12992D02*
D03*
D46*
X177748Y159500D02*
D03*
X267323Y12598D02*
D03*
X314961Y126772D02*
D03*
X322047Y13386D02*
D03*
X295276Y120079D02*
D03*
X151575Y14173D02*
D03*
X161024D02*
D03*
X168898D02*
D03*
X176772D02*
D03*
X249606Y40157D02*
D03*
X287402Y108268D02*
D03*
X11811Y175197D02*
D03*
X314173Y13386D02*
D03*
X15748Y30225D02*
D03*
X184646Y14173D02*
D03*
X330709Y157480D02*
D03*
X295276Y143701D02*
D03*
X284646Y137795D02*
D03*
X301181Y177076D02*
D03*
X80709Y55118D02*
D03*
X73348Y11800D02*
D03*
X287402Y177165D02*
D03*
X309055Y157480D02*
D03*
X250787Y111024D02*
D03*
X222441Y32283D02*
D03*
X342520Y157480D02*
D03*
X259842Y22047D02*
D03*
X137795Y98425D02*
D03*
X251969Y99213D02*
D03*
X150394Y103150D02*
D03*
Y95276D02*
D03*
X167323Y129921D02*
D03*
X275590Y108268D02*
D03*
X212598Y140945D02*
D03*
Y177165D02*
D03*
X228346Y78740D02*
D03*
X287402Y96457D02*
D03*
X290551Y27559D02*
D03*
X318898Y26772D02*
D03*
X279134Y36220D02*
D03*
X295276Y108268D02*
D03*
X31496Y64961D02*
D03*
X267717Y108268D02*
D03*
X143701Y7391D02*
D03*
X269685Y92913D02*
D03*
X125984Y6997D02*
D03*
X212598Y52666D02*
D03*
X151575Y7391D02*
D03*
X35827Y5906D02*
D03*
X27953D02*
D03*
X20079D02*
D03*
X214567Y27165D02*
D03*
X61417Y173532D02*
D03*
Y181406D02*
D03*
D49*
X82260Y113782D02*
D03*
X85044Y110998D02*
D03*
D54*
X211248Y93491D02*
D03*
Y104909D02*
D03*
X244293Y68319D02*
D03*
Y56902D02*
D03*
D55*
X187103Y129544D02*
D03*
X185134D02*
D03*
X183166D02*
D03*
X181197D02*
D03*
Y125096D02*
D03*
X183166D02*
D03*
X185134D02*
D03*
X187103D02*
D03*
X177703Y129544D02*
D03*
X175734D02*
D03*
X173766D02*
D03*
X171797D02*
D03*
Y125096D02*
D03*
X173766D02*
D03*
X175734D02*
D03*
X177703D02*
D03*
D63*
X35241Y171674D02*
D03*
X46658D02*
D03*
D69*
X90848Y34004D02*
D03*
Y21996D02*
D03*
D71*
X313238Y24600D02*
D03*
X311151D02*
D03*
D104*
X274803Y26772D02*
D03*
D105*
X284646Y66535D02*
D03*
D106*
X289370Y77559D02*
D03*
D107*
X325197Y85039D02*
D03*
D108*
X329134Y81890D02*
D03*
D109*
X337795Y78740D02*
D03*
D110*
X343701Y58661D02*
D03*
Y33071D02*
D03*
D111*
X309055Y20866D02*
D03*
D112*
X306815Y123781D02*
D03*
X305437D02*
D03*
X304059D02*
D03*
X302681D02*
D03*
Y126419D02*
D03*
X304059D02*
D03*
X305437D02*
D03*
X306815D02*
D03*
D113*
X224293Y68710D02*
D03*
X228033D02*
D03*
Y57510D02*
D03*
X224293D02*
D03*
X220553D02*
D03*
Y68710D02*
D03*
D114*
X312600Y69694D02*
D03*
X304332D02*
D03*
Y75599D02*
D03*
X312600D02*
D03*
D115*
X226009Y96759D02*
D03*
Y94200D02*
D03*
Y91641D02*
D03*
X233687D02*
D03*
Y94200D02*
D03*
Y96759D02*
D03*
D116*
X229848Y94200D02*
D03*
D117*
X43243Y11584D02*
D03*
X46943Y10237D02*
D03*
D118*
X72760Y138800D02*
D03*
X75544Y141584D02*
D03*
X72260Y130500D02*
D03*
X75044Y133284D02*
D03*
X88044Y119784D02*
D03*
X85260Y117000D02*
D03*
X94544Y126284D02*
D03*
X91760Y123500D02*
D03*
X49705Y113650D02*
D03*
X46922Y110866D02*
D03*
X55260Y119000D02*
D03*
X58044Y121784D02*
D03*
X68544Y118284D02*
D03*
X65760Y115500D02*
D03*
X67772Y98781D02*
D03*
X70556Y101565D02*
D03*
X60992Y92732D02*
D03*
X63776Y95516D02*
D03*
X67252Y131584D02*
D03*
X64468Y128800D02*
D03*
D119*
X100394Y50196D02*
D03*
Y44291D02*
D03*
Y38385D02*
D03*
Y32480D02*
D03*
Y26574D02*
D03*
Y20669D02*
D03*
D120*
X27909Y148225D02*
D03*
X35587D02*
D03*
X35390Y157674D02*
D03*
X31650D02*
D03*
X27909D02*
D03*
D121*
X353543Y57087D02*
D03*
D122*
X355413Y57874D02*
D03*
X351673Y57874D02*
D03*
D123*
X353543Y44488D02*
D03*
D124*
X309189Y137232D02*
D03*
X314307D02*
D03*
Y146091D02*
D03*
X311748D02*
D03*
X309189D02*
D03*
D125*
X319197Y177635D02*
D03*
X321165D02*
D03*
X323134D02*
D03*
X325102D02*
D03*
Y171730D02*
D03*
X323134D02*
D03*
X321165D02*
D03*
X319197D02*
D03*
D126*
X325103Y175667D02*
D03*
X325102Y173698D02*
D03*
X319197Y173699D02*
D03*
Y175667D02*
D03*
D127*
X207408Y86300D02*
D03*
X247453Y75410D02*
D03*
D128*
X214888Y86300D02*
D03*
X254933Y75410D02*
D03*
D129*
X311193Y51131D02*
D03*
D130*
X318083Y60678D02*
D03*
X316114D02*
D03*
X314146D02*
D03*
X312177D02*
D03*
X310209D02*
D03*
X308240D02*
D03*
X306272D02*
D03*
X304303D02*
D03*
Y41583D02*
D03*
X306272D02*
D03*
X308240D02*
D03*
X310209D02*
D03*
X312177D02*
D03*
X314146D02*
D03*
X316114D02*
D03*
X318083D02*
D03*
D131*
X301646Y58021D02*
D03*
Y56052D02*
D03*
Y54084D02*
D03*
Y52115D02*
D03*
Y50146D02*
D03*
Y48178D02*
D03*
Y46209D02*
D03*
Y44241D02*
D03*
X320740D02*
D03*
Y46209D02*
D03*
Y48178D02*
D03*
Y50146D02*
D03*
Y52115D02*
D03*
Y54084D02*
D03*
Y56052D02*
D03*
Y58021D02*
D03*
M02*
