G04 Layer_Color=255*
%FSLAX25Y25*%
%MOIN*%
G70*
G01*
G75*
%ADD21R,0.03543X0.03543*%
%ADD22R,0.02362X0.01969*%
%ADD23R,0.00984X0.02165*%
%ADD24R,0.06693X0.03937*%
%ADD25R,0.00906X0.01181*%
%ADD26R,0.03543X0.03543*%
%ADD27R,0.02756X0.01181*%
%ADD28R,0.03937X0.01181*%
G04:AMPARAMS|DCode=29|XSize=78.74mil|YSize=13.78mil|CornerRadius=0mil|HoleSize=0mil|Usage=FLASHONLY|Rotation=135.000|XOffset=0mil|YOffset=0mil|HoleType=Round|Shape=Round|*
%AMOVALD29*
21,1,0.06496,0.01378,0.00000,0.00000,135.0*
1,1,0.01378,0.02297,-0.02297*
1,1,0.01378,-0.02297,0.02297*
%
%ADD29OVALD29*%

%ADD30O,0.09449X0.01378*%
%ADD31O,0.11811X0.01378*%
%ADD32O,0.07874X0.01378*%
%ADD33O,0.01378X0.03937*%
%ADD34O,0.01378X0.07874*%
%ADD35O,0.01378X0.03543*%
%ADD36O,0.01378X0.05512*%
%ADD37O,0.01378X0.04724*%
%ADD38O,0.01378X0.06299*%
%ADD39O,0.08268X0.01378*%
G04:AMPARAMS|DCode=40|XSize=78.74mil|YSize=13.78mil|CornerRadius=0mil|HoleSize=0mil|Usage=FLASHONLY|Rotation=45.000|XOffset=0mil|YOffset=0mil|HoleType=Round|Shape=Round|*
%AMOVALD40*
21,1,0.06496,0.01378,0.00000,0.00000,45.0*
1,1,0.01378,-0.02297,-0.02297*
1,1,0.01378,0.02297,0.02297*
%
%ADD40OVALD40*%

%ADD41R,0.05984X0.06299*%
%ADD42C,0.04724*%
%ADD43R,0.01969X0.02362*%
%ADD44R,0.07480X0.04331*%
%ADD45O,0.03100X0.01200*%
%ADD46C,0.03937*%
%ADD47O,0.00787X0.03937*%
%ADD48O,0.03937X0.00787*%
G04:AMPARAMS|DCode=49|XSize=19.69mil|YSize=23.62mil|CornerRadius=0mil|HoleSize=0mil|Usage=FLASHONLY|Rotation=45.000|XOffset=0mil|YOffset=0mil|HoleType=Round|Shape=Rectangle|*
%AMROTATEDRECTD49*
4,1,4,0.00139,-0.01531,-0.01531,0.00139,-0.00139,0.01531,0.01531,-0.00139,0.00139,-0.01531,0.0*
%
%ADD49ROTATEDRECTD49*%

%ADD50R,0.01181X0.04331*%
%ADD51R,0.01654X0.05118*%
%ADD52R,0.01181X0.02756*%
%ADD53R,0.01181X0.03937*%
%ADD54R,0.17323X0.05118*%
%ADD55O,0.01200X0.03100*%
G04:AMPARAMS|DCode=56|XSize=31mil|YSize=12mil|CornerRadius=0mil|HoleSize=0mil|Usage=FLASHONLY|Rotation=315.000|XOffset=0mil|YOffset=0mil|HoleType=Round|Shape=Round|*
%AMOVALD56*
21,1,0.01900,0.01200,0.00000,0.00000,315.0*
1,1,0.01200,-0.00672,0.00672*
1,1,0.01200,0.00672,-0.00672*
%
%ADD56OVALD56*%

%ADD57O,0.06496X0.00787*%
%ADD58O,0.00787X0.06496*%
%ADD59C,0.01575*%
%ADD60R,0.02756X0.01575*%
%ADD61O,0.01083X0.07000*%
%ADD62R,0.04724X0.05512*%
%ADD63R,0.05118X0.17323*%
%ADD64R,0.01850X0.01969*%
%ADD65R,0.01772X0.00945*%
%ADD66R,0.02874X0.01378*%
%ADD67O,0.05315X0.02047*%
%ADD68R,0.03347X0.04724*%
%ADD69R,0.04724X0.03347*%
%ADD70R,0.01378X0.01378*%
%ADD71R,0.01378X0.01378*%
%ADD84C,0.09843*%
%ADD85C,0.06693*%
%ADD86R,0.15748X0.15748*%
G04:AMPARAMS|DCode=87|XSize=236.22mil|YSize=236.22mil|CornerRadius=0mil|HoleSize=0mil|Usage=FLASHONLY|Rotation=0.000|XOffset=0mil|YOffset=0mil|HoleType=Round|Shape=RoundedRectangle|*
%AMROUNDEDRECTD87*
21,1,0.23622,0.23622,0,0,0.0*
21,1,0.23622,0.23622,0,0,0.0*
1,1,0.00000,0.11811,-0.11811*
1,1,0.00000,-0.11811,-0.11811*
1,1,0.00000,-0.11811,0.11811*
1,1,0.00000,0.11811,0.11811*
%
%ADD87ROUNDEDRECTD87*%
D21*
X12900Y96150D02*
D03*
Y102650D02*
D03*
X318794Y107250D02*
D03*
Y113750D02*
D03*
X76400Y46649D02*
D03*
Y40149D02*
D03*
X263848Y132650D02*
D03*
Y126150D02*
D03*
X80016Y30613D02*
D03*
Y24113D02*
D03*
X245693Y126081D02*
D03*
Y132581D02*
D03*
X284193Y178333D02*
D03*
Y184833D02*
D03*
X239693Y142081D02*
D03*
Y135581D02*
D03*
X233693Y144081D02*
D03*
Y150581D02*
D03*
X271693Y184833D02*
D03*
Y178333D02*
D03*
X256693Y132581D02*
D03*
Y126081D02*
D03*
X94850Y172724D02*
D03*
Y179224D02*
D03*
X244193Y178333D02*
D03*
Y184833D02*
D03*
X251193Y126081D02*
D03*
Y132581D02*
D03*
X278693Y184833D02*
D03*
Y178333D02*
D03*
X305512Y148132D02*
D03*
Y141632D02*
D03*
D22*
X12868Y91600D02*
D03*
X8931D02*
D03*
X306693Y161374D02*
D03*
X310630D02*
D03*
X168717Y7200D02*
D03*
X164779D02*
D03*
X85661Y36331D02*
D03*
X81724D02*
D03*
X219498Y92283D02*
D03*
X215561D02*
D03*
X26417Y173500D02*
D03*
X22479D02*
D03*
X157420Y125892D02*
D03*
X153483D02*
D03*
X304616Y108200D02*
D03*
X300679D02*
D03*
X117224Y10331D02*
D03*
X121161D02*
D03*
X130161Y10331D02*
D03*
X126224D02*
D03*
X86311Y79817D02*
D03*
X90248D02*
D03*
X90246Y65100D02*
D03*
X86309D02*
D03*
X265161Y110331D02*
D03*
X261224D02*
D03*
X238724Y157831D02*
D03*
X242661D02*
D03*
X238724Y168331D02*
D03*
X242661D02*
D03*
X103181Y173074D02*
D03*
X107118D02*
D03*
X196918Y65474D02*
D03*
X192981D02*
D03*
X283224Y137600D02*
D03*
X287161D02*
D03*
X238724Y164831D02*
D03*
X242661D02*
D03*
X157458Y134138D02*
D03*
X153521D02*
D03*
X153428Y138505D02*
D03*
X157365D02*
D03*
X84531Y47499D02*
D03*
X88468D02*
D03*
X242661Y147331D02*
D03*
X238724D02*
D03*
X242661Y150831D02*
D03*
X238724D02*
D03*
X283224Y147831D02*
D03*
X287161D02*
D03*
X68818Y174574D02*
D03*
X64881D02*
D03*
Y178074D02*
D03*
X68818D02*
D03*
X283225Y144421D02*
D03*
X287162D02*
D03*
Y141011D02*
D03*
X283225D02*
D03*
X242661Y161331D02*
D03*
X238724D02*
D03*
X259161Y100083D02*
D03*
X255224D02*
D03*
X215561Y96883D02*
D03*
X219498D02*
D03*
X193881Y173874D02*
D03*
X197818D02*
D03*
X192596Y114399D02*
D03*
X196533D02*
D03*
X194181Y160674D02*
D03*
X198118D02*
D03*
X196518Y118074D02*
D03*
X192581D02*
D03*
X86044Y96865D02*
D03*
X89981D02*
D03*
X89980Y101166D02*
D03*
X86043D02*
D03*
X296079Y133200D02*
D03*
X300016D02*
D03*
X162117Y152100D02*
D03*
X158179D02*
D03*
X300016Y136800D02*
D03*
X296079D02*
D03*
X194981Y141974D02*
D03*
X198918D02*
D03*
X158179Y164600D02*
D03*
X162117D02*
D03*
X153376Y142627D02*
D03*
X157313D02*
D03*
X153521Y130088D02*
D03*
X157458D02*
D03*
X157420Y121492D02*
D03*
X153483D02*
D03*
X238724Y154331D02*
D03*
X242661D02*
D03*
X316276Y150894D02*
D03*
X312339D02*
D03*
D23*
X7200Y78100D02*
D03*
X9168D02*
D03*
X11137D02*
D03*
X13105D02*
D03*
Y87352D02*
D03*
X11137D02*
D03*
X9168D02*
D03*
X7200D02*
D03*
X311820Y146519D02*
D03*
X313788D02*
D03*
X315757D02*
D03*
X317725D02*
D03*
Y137267D02*
D03*
X315757Y137267D02*
D03*
X313788D02*
D03*
X311820Y137267D02*
D03*
D24*
X10153Y82726D02*
D03*
X314772Y141893D02*
D03*
D25*
X308697Y157900D02*
D03*
X310094D02*
D03*
D26*
X303837Y166305D02*
D03*
X310337D02*
D03*
X20398Y169000D02*
D03*
X26898D02*
D03*
X304698Y112800D02*
D03*
X298198D02*
D03*
X271943Y112331D02*
D03*
X278443D02*
D03*
X248943Y109831D02*
D03*
X255443D02*
D03*
X289943Y152331D02*
D03*
X283443D02*
D03*
X106900Y177574D02*
D03*
X100400D02*
D03*
X89150Y42199D02*
D03*
X82650D02*
D03*
X106800Y183074D02*
D03*
X100300D02*
D03*
D27*
X321449Y157252D02*
D03*
Y159221D02*
D03*
Y161189D02*
D03*
Y163157D02*
D03*
Y165126D02*
D03*
X355365Y132537D02*
D03*
Y130569D02*
D03*
Y128600D02*
D03*
Y126631D02*
D03*
Y124663D02*
D03*
X309135Y90552D02*
D03*
Y92520D02*
D03*
Y94489D02*
D03*
Y96457D02*
D03*
Y98426D02*
D03*
D28*
X331882Y154142D02*
D03*
X331882Y168236D02*
D03*
X344932Y135647D02*
D03*
Y121553D02*
D03*
X319568Y87441D02*
D03*
Y101536D02*
D03*
D29*
X74020Y161011D02*
D03*
D30*
X87913Y156300D02*
D03*
D31*
X111417D02*
D03*
X185433Y2362D02*
D03*
X159449D02*
D03*
X133858D02*
D03*
X107874D02*
D03*
D32*
X133465Y156299D02*
D03*
X156299Y145669D02*
D03*
X90158Y2362D02*
D03*
X76378D02*
D03*
D33*
X142520Y150787D02*
D03*
X202756Y57874D02*
D03*
D34*
X162992Y138976D02*
D03*
Y126772D02*
D03*
X202756Y44488D02*
D03*
X19685Y72835D02*
D03*
Y87402D02*
D03*
Y102362D02*
D03*
D35*
X202756Y83858D02*
D03*
D36*
Y25984D02*
D03*
D37*
Y8268D02*
D03*
X45669Y54331D02*
D03*
D38*
X66929Y31102D02*
D03*
Y40551D02*
D03*
D39*
X54674Y49213D02*
D03*
X33622Y59055D02*
D03*
D40*
X60453Y157074D02*
D03*
X37851Y134897D02*
D03*
X26250Y123598D02*
D03*
D41*
X249461Y117831D02*
D03*
X262925Y117831D02*
D03*
D42*
X348700Y176599D02*
D03*
D43*
X94948Y19399D02*
D03*
Y15462D02*
D03*
X322148Y65332D02*
D03*
Y69269D02*
D03*
X293648Y63569D02*
D03*
Y59632D02*
D03*
X290040Y63504D02*
D03*
Y59567D02*
D03*
X90965Y28768D02*
D03*
Y24831D02*
D03*
X168448Y115232D02*
D03*
Y119168D02*
D03*
X243693Y105299D02*
D03*
Y101362D02*
D03*
X61250Y174343D02*
D03*
Y170405D02*
D03*
X61250Y182243D02*
D03*
Y178305D02*
D03*
X87765Y24831D02*
D03*
Y28768D02*
D03*
X94312Y96896D02*
D03*
Y100833D02*
D03*
X146650Y158043D02*
D03*
Y154105D02*
D03*
X323548Y107032D02*
D03*
Y110968D02*
D03*
X247693Y105299D02*
D03*
Y101362D02*
D03*
X71900Y40131D02*
D03*
Y44068D02*
D03*
X141652Y112361D02*
D03*
Y108424D02*
D03*
X91393Y7462D02*
D03*
Y11399D02*
D03*
X91393Y15462D02*
D03*
Y19399D02*
D03*
X288693Y178114D02*
D03*
Y182051D02*
D03*
X75563Y27523D02*
D03*
Y31460D02*
D03*
X92548Y161331D02*
D03*
Y165269D02*
D03*
X72101Y27504D02*
D03*
Y31441D02*
D03*
X95948Y161331D02*
D03*
Y165269D02*
D03*
X89148Y161331D02*
D03*
Y165269D02*
D03*
X239693Y177614D02*
D03*
Y181551D02*
D03*
X84465Y28767D02*
D03*
Y24830D02*
D03*
X301065Y144568D02*
D03*
Y140631D02*
D03*
X150150Y154105D02*
D03*
Y158043D02*
D03*
X220393Y13115D02*
D03*
Y17052D02*
D03*
X60448Y39132D02*
D03*
Y43069D02*
D03*
X25293Y54514D02*
D03*
Y50577D02*
D03*
X56948Y39132D02*
D03*
Y43069D02*
D03*
D44*
X25393Y35224D02*
D03*
Y45067D02*
D03*
D45*
X157925Y161553D02*
D03*
Y159584D02*
D03*
Y157616D02*
D03*
Y155647D02*
D03*
X162373D02*
D03*
Y157616D02*
D03*
Y159584D02*
D03*
Y161553D02*
D03*
X100229Y112345D02*
D03*
Y110376D02*
D03*
Y108408D02*
D03*
Y106439D02*
D03*
X104677D02*
D03*
Y108408D02*
D03*
Y110376D02*
D03*
Y112345D02*
D03*
X75029Y85345D02*
D03*
Y83376D02*
D03*
Y81408D02*
D03*
Y79439D02*
D03*
X79477D02*
D03*
Y81408D02*
D03*
Y83376D02*
D03*
Y85345D02*
D03*
X90986Y75357D02*
D03*
Y73388D02*
D03*
Y71420D02*
D03*
Y69451D02*
D03*
X86538D02*
D03*
Y71420D02*
D03*
Y73388D02*
D03*
Y75357D02*
D03*
X69892Y72803D02*
D03*
Y70834D02*
D03*
Y68866D02*
D03*
Y66897D02*
D03*
X74340D02*
D03*
Y68866D02*
D03*
Y70834D02*
D03*
Y72803D02*
D03*
X62677Y67945D02*
D03*
Y65976D02*
D03*
Y64008D02*
D03*
Y62039D02*
D03*
X58229D02*
D03*
Y64008D02*
D03*
Y65976D02*
D03*
Y67945D02*
D03*
X67429Y60645D02*
D03*
Y58676D02*
D03*
Y56708D02*
D03*
Y54739D02*
D03*
X71877D02*
D03*
Y56708D02*
D03*
Y58676D02*
D03*
Y60645D02*
D03*
X85529Y90445D02*
D03*
Y88476D02*
D03*
Y86508D02*
D03*
Y84539D02*
D03*
X89977D02*
D03*
Y86508D02*
D03*
Y88476D02*
D03*
Y90445D02*
D03*
X193625Y164321D02*
D03*
Y166290D02*
D03*
Y168258D02*
D03*
Y170227D02*
D03*
X198073D02*
D03*
Y168258D02*
D03*
Y166290D02*
D03*
Y164321D02*
D03*
X157925Y174053D02*
D03*
Y172084D02*
D03*
Y170116D02*
D03*
Y168147D02*
D03*
X162373D02*
D03*
Y170116D02*
D03*
Y172084D02*
D03*
Y174053D02*
D03*
X193925Y151421D02*
D03*
Y153390D02*
D03*
Y155358D02*
D03*
Y157327D02*
D03*
X198373D02*
D03*
Y155358D02*
D03*
Y153390D02*
D03*
Y151421D02*
D03*
D46*
X11811Y167323D02*
D03*
X342520Y165354D02*
D03*
X214567Y27165D02*
D03*
Y19291D02*
D03*
X37402Y51181D02*
D03*
X15748Y13780D02*
D03*
X322047Y13386D02*
D03*
D47*
X269854Y140823D02*
D03*
X268280D02*
D03*
X266705D02*
D03*
X265130D02*
D03*
X263555D02*
D03*
X261980D02*
D03*
X260405D02*
D03*
X258831D02*
D03*
X257256D02*
D03*
X255681D02*
D03*
X254106D02*
D03*
X252532D02*
D03*
Y164839D02*
D03*
X254106D02*
D03*
X255681D02*
D03*
X257256D02*
D03*
X258831D02*
D03*
X260405D02*
D03*
X261980D02*
D03*
X263555D02*
D03*
X265130D02*
D03*
X266705D02*
D03*
X268280D02*
D03*
X269854D02*
D03*
D48*
X249185Y144169D02*
D03*
Y145744D02*
D03*
Y147319D02*
D03*
Y148894D02*
D03*
Y150469D02*
D03*
Y152043D02*
D03*
Y153618D02*
D03*
Y155193D02*
D03*
Y156768D02*
D03*
Y158343D02*
D03*
Y159917D02*
D03*
Y161492D02*
D03*
X273201D02*
D03*
Y159917D02*
D03*
Y158343D02*
D03*
Y156768D02*
D03*
Y155193D02*
D03*
Y153618D02*
D03*
Y152043D02*
D03*
Y150469D02*
D03*
Y148894D02*
D03*
Y147319D02*
D03*
Y145744D02*
D03*
Y144169D02*
D03*
D49*
X55760Y147284D02*
D03*
X58544Y144500D02*
D03*
X61544Y147500D02*
D03*
X58760Y150284D02*
D03*
X61760Y153284D02*
D03*
X64544Y150500D02*
D03*
X67544Y153500D02*
D03*
X64760Y156284D02*
D03*
X67760Y159284D02*
D03*
X70544Y156500D02*
D03*
X130944Y112400D02*
D03*
X128160Y115184D02*
D03*
X120462Y112081D02*
D03*
X123246Y109297D02*
D03*
X50360Y136584D02*
D03*
X53144Y133800D02*
D03*
X49844Y130800D02*
D03*
X47060Y133584D02*
D03*
X26544Y102500D02*
D03*
X23760Y105284D02*
D03*
X24260Y110784D02*
D03*
X27044Y108000D02*
D03*
X30044Y111000D02*
D03*
X27260Y113784D02*
D03*
X30260Y116784D02*
D03*
X33044Y114000D02*
D03*
X36044Y117000D02*
D03*
X33260Y119784D02*
D03*
X44144Y124800D02*
D03*
X41360Y127584D02*
D03*
X37660Y123884D02*
D03*
X40444Y121100D02*
D03*
X109760Y136884D02*
D03*
X112544Y134100D02*
D03*
X109844Y131200D02*
D03*
X107060Y133984D02*
D03*
X104260Y130984D02*
D03*
X107044Y128200D02*
D03*
X104144Y125400D02*
D03*
X101360Y128184D02*
D03*
X122660Y124284D02*
D03*
X125444Y121500D02*
D03*
X128444Y124500D02*
D03*
X125660Y127284D02*
D03*
X53260Y139584D02*
D03*
X56044Y136800D02*
D03*
X44260Y130584D02*
D03*
X47044Y127800D02*
D03*
D50*
X295472Y37244D02*
D03*
X297441D02*
D03*
X299409D02*
D03*
X293504D02*
D03*
X39890Y182008D02*
D03*
X41858D02*
D03*
X43827D02*
D03*
X45795D02*
D03*
X47764D02*
D03*
X49732D02*
D03*
X51701D02*
D03*
X37921D02*
D03*
D51*
X288701Y25945D02*
D03*
X304213D02*
D03*
X33118Y170709D02*
D03*
X56504D02*
D03*
D52*
X221654Y150197D02*
D03*
X219685D02*
D03*
X217717D02*
D03*
X215748D02*
D03*
X213779D02*
D03*
X211811D02*
D03*
X322441Y36319D02*
D03*
X320472D02*
D03*
X318504D02*
D03*
X316535D02*
D03*
X314567D02*
D03*
D53*
X224764Y160630D02*
D03*
X208701D02*
D03*
X325551Y25886D02*
D03*
X311457D02*
D03*
D54*
X289693Y159122D02*
D03*
Y170539D02*
D03*
X122350Y170565D02*
D03*
Y181983D02*
D03*
X277193Y131039D02*
D03*
Y119622D02*
D03*
D55*
X148605Y118266D02*
D03*
X146636D02*
D03*
X144668D02*
D03*
X142699D02*
D03*
Y122714D02*
D03*
X144668D02*
D03*
X146636D02*
D03*
X148605D02*
D03*
X139004Y123015D02*
D03*
X137035D02*
D03*
X135067D02*
D03*
X133098D02*
D03*
Y118567D02*
D03*
X135067D02*
D03*
X137035D02*
D03*
X139004D02*
D03*
D56*
X116313Y115007D02*
D03*
X114921Y113615D02*
D03*
X113529Y112223D02*
D03*
X112137Y110831D02*
D03*
X108992Y113976D02*
D03*
X110384Y115368D02*
D03*
X111776Y116760D02*
D03*
X113168Y118152D02*
D03*
D57*
X185473Y92550D02*
D03*
Y90975D02*
D03*
Y89401D02*
D03*
Y87826D02*
D03*
Y86251D02*
D03*
Y84676D02*
D03*
Y83101D02*
D03*
Y81527D02*
D03*
Y79952D02*
D03*
Y78377D02*
D03*
Y76802D02*
D03*
Y75227D02*
D03*
Y73653D02*
D03*
Y72078D02*
D03*
Y70503D02*
D03*
Y68928D02*
D03*
Y67353D02*
D03*
Y65779D02*
D03*
Y64204D02*
D03*
Y62629D02*
D03*
Y61054D02*
D03*
Y59479D02*
D03*
Y57905D02*
D03*
Y56330D02*
D03*
Y54755D02*
D03*
Y53180D02*
D03*
Y51605D02*
D03*
Y50031D02*
D03*
Y48456D02*
D03*
Y46881D02*
D03*
Y45306D02*
D03*
Y43731D02*
D03*
Y42157D02*
D03*
Y40582D02*
D03*
Y39007D02*
D03*
Y37432D02*
D03*
Y35857D02*
D03*
Y34283D02*
D03*
Y32708D02*
D03*
Y31133D02*
D03*
Y29558D02*
D03*
Y27983D02*
D03*
Y26409D02*
D03*
Y24834D02*
D03*
X100631D02*
D03*
Y26409D02*
D03*
Y27983D02*
D03*
Y29558D02*
D03*
Y31133D02*
D03*
Y32708D02*
D03*
Y34283D02*
D03*
Y35857D02*
D03*
Y37432D02*
D03*
Y39007D02*
D03*
Y40582D02*
D03*
Y42157D02*
D03*
Y43731D02*
D03*
Y45306D02*
D03*
Y46881D02*
D03*
Y48456D02*
D03*
Y50031D02*
D03*
Y51605D02*
D03*
Y53180D02*
D03*
Y54755D02*
D03*
Y56330D02*
D03*
Y57905D02*
D03*
Y59479D02*
D03*
Y61054D02*
D03*
Y62629D02*
D03*
Y64204D02*
D03*
Y65779D02*
D03*
Y67353D02*
D03*
Y68928D02*
D03*
Y70503D02*
D03*
Y72078D02*
D03*
Y73653D02*
D03*
Y75227D02*
D03*
Y76802D02*
D03*
Y78377D02*
D03*
Y79952D02*
D03*
Y81527D02*
D03*
Y83101D02*
D03*
Y84676D02*
D03*
Y86251D02*
D03*
Y87826D02*
D03*
Y89401D02*
D03*
Y90975D02*
D03*
Y92550D02*
D03*
D58*
X176910Y16271D02*
D03*
X175335D02*
D03*
X173761D02*
D03*
X172186D02*
D03*
X170611D02*
D03*
X169036D02*
D03*
X167461D02*
D03*
X165887D02*
D03*
X164312D02*
D03*
X162737D02*
D03*
X161162D02*
D03*
X159587D02*
D03*
X158013D02*
D03*
X156438D02*
D03*
X154863D02*
D03*
X153288D02*
D03*
X151713D02*
D03*
X150139D02*
D03*
X148564D02*
D03*
X146989D02*
D03*
X145414D02*
D03*
X143839D02*
D03*
X142265D02*
D03*
X140690D02*
D03*
X139115D02*
D03*
X137540D02*
D03*
X135965D02*
D03*
X134391D02*
D03*
X132816D02*
D03*
X131241D02*
D03*
X129666D02*
D03*
X128091D02*
D03*
X126517D02*
D03*
X124942D02*
D03*
X123367D02*
D03*
X121792D02*
D03*
X120217D02*
D03*
X118643D02*
D03*
X117068D02*
D03*
X115493D02*
D03*
X113918D02*
D03*
X112343D02*
D03*
X110769D02*
D03*
X109194D02*
D03*
Y101113D02*
D03*
X110769D02*
D03*
X112343D02*
D03*
X113918D02*
D03*
X115493D02*
D03*
X117068D02*
D03*
X118643D02*
D03*
X120217D02*
D03*
X121792D02*
D03*
X123367D02*
D03*
X124942D02*
D03*
X126517D02*
D03*
X128091D02*
D03*
X129666D02*
D03*
X131241D02*
D03*
X132816D02*
D03*
X134391D02*
D03*
X135965D02*
D03*
X137540D02*
D03*
X139115D02*
D03*
X140690D02*
D03*
X142265D02*
D03*
X143839D02*
D03*
X145414D02*
D03*
X146989D02*
D03*
X148564D02*
D03*
X150139D02*
D03*
X151713D02*
D03*
X153288D02*
D03*
X154863D02*
D03*
X156438D02*
D03*
X158013D02*
D03*
X159587D02*
D03*
X161162D02*
D03*
X162737D02*
D03*
X164312D02*
D03*
X165887D02*
D03*
X167461D02*
D03*
X169036D02*
D03*
X170611D02*
D03*
X172186D02*
D03*
X173761D02*
D03*
X175335D02*
D03*
X176910D02*
D03*
D59*
X61594Y91844D02*
D03*
X59367Y94070D02*
D03*
X57140Y96298D02*
D03*
X48232Y105206D02*
D03*
X46004Y107433D02*
D03*
X43778Y109660D02*
D03*
X63821Y94071D02*
D03*
X61595Y96298D02*
D03*
X59367Y98525D02*
D03*
X50459Y107433D02*
D03*
X48232Y109661D02*
D03*
X46005Y111887D02*
D03*
X66048Y96298D02*
D03*
X63821Y98524D02*
D03*
X61594Y100752D02*
D03*
X52686Y109660D02*
D03*
X50458Y111887D02*
D03*
X48232Y114114D02*
D03*
X68275Y98525D02*
D03*
X66049Y100752D02*
D03*
X63821Y102979D02*
D03*
X54913Y111887D02*
D03*
X52686Y114115D02*
D03*
X50459Y116341D02*
D03*
X70502Y100752D02*
D03*
X68275Y102978D02*
D03*
X66048Y105206D02*
D03*
X57140Y114114D02*
D03*
X54912Y116341D02*
D03*
X52686Y118568D02*
D03*
X72729Y102979D02*
D03*
X70503Y105206D02*
D03*
X68275Y107433D02*
D03*
X59367Y116341D02*
D03*
X57140Y118569D02*
D03*
X54913Y120795D02*
D03*
X74957Y105206D02*
D03*
X72730Y107433D02*
D03*
X70503Y109661D02*
D03*
X61595Y118569D02*
D03*
X59367Y120796D02*
D03*
X57140Y123023D02*
D03*
X77183Y107433D02*
D03*
X74957Y109660D02*
D03*
X72729Y111887D02*
D03*
X63821Y120795D02*
D03*
X61594Y123023D02*
D03*
X59367Y125249D02*
D03*
X79411Y109661D02*
D03*
X77184Y111887D02*
D03*
X74957Y114115D02*
D03*
X66049Y123023D02*
D03*
X63821Y125250D02*
D03*
X61595Y127477D02*
D03*
X81638Y111887D02*
D03*
X79411Y114114D02*
D03*
X77183Y116341D02*
D03*
X68275Y125249D02*
D03*
X66048Y127477D02*
D03*
X63821Y129704D02*
D03*
X83865Y114115D02*
D03*
X81638Y116341D02*
D03*
X79411Y118569D02*
D03*
X70503Y127477D02*
D03*
X68275Y129704D02*
D03*
X66049Y131931D02*
D03*
X86092Y116342D02*
D03*
X83866Y118569D02*
D03*
X81638Y120796D02*
D03*
X72730Y129704D02*
D03*
X70503Y131932D02*
D03*
X68276Y134158D02*
D03*
X88319Y118569D02*
D03*
X86092Y120795D02*
D03*
X83865Y123023D02*
D03*
X74957Y131931D02*
D03*
X72729Y134158D02*
D03*
X70503Y136385D02*
D03*
X90546Y120796D02*
D03*
X88320Y123023D02*
D03*
X86092Y125250D02*
D03*
X77184Y134158D02*
D03*
X74957Y136386D02*
D03*
X72730Y138612D02*
D03*
X92773Y123023D02*
D03*
X90546Y125249D02*
D03*
X88319Y127477D02*
D03*
X79411Y136385D02*
D03*
X77183Y138612D02*
D03*
X74957Y140839D02*
D03*
X95000Y125250D02*
D03*
X92774Y127477D02*
D03*
X90546Y129704D02*
D03*
X81638Y138612D02*
D03*
X79411Y140840D02*
D03*
X77184Y143066D02*
D03*
D60*
X108850Y161134D02*
D03*
Y164874D02*
D03*
Y168614D02*
D03*
X99401Y168811D02*
D03*
Y161134D02*
D03*
D61*
X271130Y14268D02*
D03*
X269161D02*
D03*
X267193D02*
D03*
X265224D02*
D03*
X263256D02*
D03*
X261287D02*
D03*
X259319D02*
D03*
X257350D02*
D03*
X255382D02*
D03*
X253413D02*
D03*
X251445D02*
D03*
X249476D02*
D03*
X247508D02*
D03*
X245539D02*
D03*
X243571D02*
D03*
X241602D02*
D03*
X239634D02*
D03*
X237665D02*
D03*
X235697D02*
D03*
X233728D02*
D03*
X231760D02*
D03*
X229791D02*
D03*
X227823D02*
D03*
X225854D02*
D03*
Y94583D02*
D03*
X227823D02*
D03*
X229791D02*
D03*
X231760D02*
D03*
X233728D02*
D03*
X235697D02*
D03*
X237665D02*
D03*
X239634D02*
D03*
X241602D02*
D03*
X243571D02*
D03*
X245539D02*
D03*
X247508D02*
D03*
X249476D02*
D03*
X251445D02*
D03*
X253413D02*
D03*
X255382D02*
D03*
X257350D02*
D03*
X259319D02*
D03*
X261287D02*
D03*
X263256D02*
D03*
X265224D02*
D03*
X267193D02*
D03*
X269161D02*
D03*
X271130D02*
D03*
D62*
X79987Y9431D02*
D03*
Y17698D02*
D03*
X85893D02*
D03*
Y9431D02*
D03*
D63*
X264902Y178331D02*
D03*
X253484D02*
D03*
D64*
X175216Y176063D02*
D03*
X184626D02*
D03*
X184626Y138661D02*
D03*
X175216D02*
D03*
X175216Y113189D02*
D03*
X184626D02*
D03*
Y122244D02*
D03*
X175216D02*
D03*
D65*
X184744Y169961D02*
D03*
Y171535D02*
D03*
Y173110D02*
D03*
X175098Y169961D02*
D03*
Y171535D02*
D03*
Y173110D02*
D03*
X184744Y168386D02*
D03*
Y162087D02*
D03*
Y166811D02*
D03*
Y165236D02*
D03*
Y163661D02*
D03*
Y155787D02*
D03*
Y160512D02*
D03*
Y158937D02*
D03*
Y157362D02*
D03*
Y149488D02*
D03*
Y154213D02*
D03*
Y152638D02*
D03*
Y151063D02*
D03*
Y143189D02*
D03*
Y147913D02*
D03*
Y146339D02*
D03*
Y144764D02*
D03*
Y141614D02*
D03*
X175098Y168386D02*
D03*
Y165236D02*
D03*
Y163661D02*
D03*
Y162087D02*
D03*
Y166811D02*
D03*
Y158937D02*
D03*
Y157362D02*
D03*
Y155787D02*
D03*
Y160512D02*
D03*
Y152638D02*
D03*
Y151063D02*
D03*
Y149488D02*
D03*
Y154213D02*
D03*
Y146339D02*
D03*
Y144764D02*
D03*
Y143189D02*
D03*
Y147913D02*
D03*
Y141614D02*
D03*
X175098Y119291D02*
D03*
Y117717D02*
D03*
Y116142D02*
D03*
X184744Y119291D02*
D03*
Y117717D02*
D03*
Y116142D02*
D03*
D66*
X182421Y169961D02*
D03*
Y171535D02*
D03*
X177421Y173110D02*
D03*
Y171535D02*
D03*
Y169961D02*
D03*
X182421Y173110D02*
D03*
Y168386D02*
D03*
Y166811D02*
D03*
Y165236D02*
D03*
Y163661D02*
D03*
Y160512D02*
D03*
Y162087D02*
D03*
Y158937D02*
D03*
Y157362D02*
D03*
Y155787D02*
D03*
Y154213D02*
D03*
Y152638D02*
D03*
Y151063D02*
D03*
Y143189D02*
D03*
Y144764D02*
D03*
Y146339D02*
D03*
Y147913D02*
D03*
Y149488D02*
D03*
Y141614D02*
D03*
X177421Y168386D02*
D03*
Y160512D02*
D03*
Y162087D02*
D03*
Y163661D02*
D03*
Y165236D02*
D03*
Y166811D02*
D03*
Y158937D02*
D03*
Y157362D02*
D03*
Y155787D02*
D03*
Y154213D02*
D03*
Y152638D02*
D03*
Y151063D02*
D03*
Y147913D02*
D03*
Y149488D02*
D03*
Y146339D02*
D03*
Y144764D02*
D03*
Y143189D02*
D03*
Y141614D02*
D03*
X182421Y119291D02*
D03*
X177421Y116142D02*
D03*
Y117717D02*
D03*
Y119291D02*
D03*
X182421Y117717D02*
D03*
Y116142D02*
D03*
D67*
X33833Y41084D02*
D03*
Y38525D02*
D03*
Y35966D02*
D03*
Y33407D02*
D03*
X51353Y41084D02*
D03*
Y38525D02*
D03*
Y35966D02*
D03*
Y33407D02*
D03*
D68*
X26852Y178500D02*
D03*
X14844D02*
D03*
D69*
X219865Y125495D02*
D03*
Y137503D02*
D03*
D70*
X326701Y106901D02*
D03*
Y108988D02*
D03*
X284695Y30757D02*
D03*
Y32843D02*
D03*
X296795Y145543D02*
D03*
Y143457D02*
D03*
D71*
X302451Y105100D02*
D03*
X304538D02*
D03*
D84*
X231102Y117717D02*
D03*
X353937Y155118D02*
D03*
X5906D02*
D03*
Y33858D02*
D03*
D85*
X54328Y16015D02*
D03*
X45079Y19382D02*
D03*
X35830Y22748D02*
D03*
D86*
X261193Y152831D02*
D03*
D87*
X143052Y58692D02*
D03*
M02*
