*
%FSLAX26Y26*%
%MOIN*%
%ADD10R,0.035430X0.035430*%
%ADD11R,0.019690X0.019690*%
%ADD12C,0.013780*%
%ADD13C,0.047240*%
%ADD14R,0.043310X0.043310*%
%ADD15C,0.039370*%
%ADD16R,0.051180X0.051180*%
%ADD17C,0.012000*%
%ADD18R,0.033470X0.033470*%
%ADD19R,0.013780X0.013780*%
%ADD20R,0.007870X0.007870*%
%ADD21R,0.025000X0.025000*%
%ADD22R,0.047240X0.047240*%
%ADD23R,0.009450X0.009450*%
%ADD24R,0.031500X0.031500*%
%ADD25R,0.027560X0.027560*%
%ADD26R,0.015750X0.015750*%
%ADD27R,0.025590X0.025590*%
%ADD28R,0.009840X0.009840*%
%ADD29R,0.141730X0.141730*%
%ADD30C,0.009840*%
%ADD31C,0.003937*%
%ADD32C,0.078740*%
%IPPOS*%
%LNsz06c02893a0.gbp*%
%LPD*%
G75*
G54D10*
X3029480Y346594D03*
Y411594D03*
X3535430Y617104D03*
Y682104D03*
X2027480Y1984654D03*
Y2049654D03*
X1972480D03*
Y1984654D03*
X1116300Y1234484D03*
Y1299484D03*
X818480Y459654D03*
Y524654D03*
X409500Y1659394D03*
Y1724394D03*
X464500Y1822394D03*
Y1757394D03*
X2701930Y2015964D03*
Y2080964D03*
X2796930Y2018484D03*
Y2083484D03*
X520500Y1758394D03*
Y1823394D03*
X2567930Y859754D03*
Y924754D03*
X2148930Y866754D03*
Y931754D03*
G54D11*
X2834195Y666464D02*
X2838125D01*
X2794825D02*
X2798755D01*
X2834195Y701464D02*
X2838125D01*
X2794825D02*
X2798755D01*
X2834195Y806464D02*
X2838125D01*
X2794825D02*
X2798755D01*
X2834195Y841464D02*
X2838125D01*
X2794825D02*
X2798755D01*
X2939765Y876324D02*
X2943695D01*
X2900385D02*
X2904315D01*
X3306205Y722154D02*
X3310135D01*
X3266835D02*
X3270765D01*
X3092995Y613144D02*
X3096925D01*
X3132365D02*
X3136295D01*
X3211355Y988144D02*
X3215285D01*
X3250725D02*
X3254655D01*
X3250725Y1022144D02*
X3254655D01*
X3211355D02*
X3215285D01*
X3125825Y576154D02*
X3129755D01*
X3165205D02*
X3169135D01*
X3112205Y1438154D02*
X3116135D01*
X3072835D02*
X3076765D01*
X3112205Y1541154D02*
X3116135D01*
X3072835D02*
X3076765D01*
X3248195Y576154D02*
X3252125D01*
X3208825D02*
X3212755D01*
X2834195Y736464D02*
X2838125D01*
X2794825D02*
X2798755D01*
X2939585Y841694D02*
X2943515D01*
X2900205D02*
X2904135D01*
X2934645Y806464D02*
X2938575D01*
X2895275D02*
X2899205D01*
X2934645Y736464D02*
X2938575D01*
X2895275D02*
X2899205D01*
X2934645Y701464D02*
X2938575D01*
X2895275D02*
X2899205D01*
X2934645Y666464D02*
X2938575D01*
X2895275D02*
X2899205D01*
X3376715Y931144D02*
X3380645D01*
X3337345D02*
X3341275D01*
X2305195Y1109154D02*
X2309125D01*
X2265835D02*
X2269765D01*
X832645Y677984D02*
X836575D01*
X872015D02*
X875945D01*
X3266835Y757154D02*
X3270765D01*
X3306205D02*
X3310135D01*
X1723645Y920984D02*
X1727575D01*
X1763015D02*
X1766945D01*
X1945275Y853464D02*
X1949205D01*
X1984645D02*
X1988575D01*
X1984645Y977984D02*
X1988575D01*
X1945275D02*
X1949205D01*
X1945275Y1054984D02*
X1949205D01*
X1984645D02*
X1988575D01*
X1984645Y1096984D02*
X1988575D01*
X1945275D02*
X1949205D01*
X1945275Y753464D02*
X1949205D01*
X1984645D02*
X1988575D01*
X833345Y719144D02*
X837275D01*
X872715D02*
X876645D01*
X1945275Y793464D02*
X1949205D01*
X1984645D02*
X1988575D01*
X3127215Y1970154D02*
X3131145D01*
X3087845D02*
X3091775D01*
X3127215Y2005984D02*
X3131145D01*
X3087845D02*
X3091775D01*
X3211355Y1055144D02*
X3215285D01*
X3250725D02*
X3254655D01*
X2539645Y403464D02*
X2543575D01*
X2500275D02*
X2504205D01*
X2500275Y368464D02*
X2504205D01*
X2539645D02*
X2543575D01*
X1576825Y2046154D02*
X1580755D01*
X1616205D02*
X1620135D01*
X1576825Y2009154D02*
X1580755D01*
X1616205D02*
X1620135D01*
X3088195Y1753154D02*
X3092125D01*
X3048835D02*
X3052765D01*
X3149825Y1562154D02*
X3153755D01*
X3189195D02*
X3193125D01*
X3231215Y1922984D02*
X3235145D01*
X3191845D02*
X3195775D01*
X2060825Y1049154D02*
X2064755D01*
X2100195D02*
X2104125D01*
X2169825Y1048154D02*
X2173755D01*
X2209195D02*
X2213125D01*
X2204845Y760984D02*
X2208775D01*
X2244215D02*
X2248145D01*
X3112205Y1348154D02*
X3116135D01*
X3072835D02*
X3076765D01*
X3111195Y1310154D02*
X3115125D01*
X3071835D02*
X3075765D01*
G54D10*
X1979800Y578984D03*
X1914800D03*
X3259000Y1877984D03*
X3194000D03*
X3269980Y677154D03*
X3334980D03*
X1734430Y1373464D03*
X1799430D03*
X541430Y293464D03*
X476430D03*
X3334980Y621154D03*
X3269980D03*
X3147980Y1394154D03*
X3082980D03*
X2971500Y376144D03*
X2906500D03*
X2240980Y1248154D03*
X2305980D03*
Y1303154D03*
X2240980D03*
G54D12*
X2943895Y1090544D02*
X3048225D01*
X3247045Y448814D02*
X3351375D01*
X2869095D02*
X2973425D01*
X2748030Y652554D02*
Y717515D01*
Y786414D02*
Y851375D01*
G54D13*
X154000Y427144D03*
G54D11*
X3184480Y1753509D02*
Y1757439D01*
Y1792869D02*
Y1796799D01*
X2994480Y1524869D02*
Y1528799D01*
Y1485509D02*
Y1489439D01*
X3043480Y570499D02*
Y574429D01*
Y609869D02*
Y613799D01*
X2976480Y591499D02*
Y595429D01*
Y630869D02*
Y634799D01*
X3077000Y398869D02*
Y402799D01*
Y359499D02*
Y363429D01*
X2993000Y960869D02*
Y964799D01*
Y921499D02*
Y925429D01*
X3180000Y921499D02*
Y925429D01*
Y960869D02*
Y964799D01*
X3413000Y931499D02*
Y935429D01*
Y970869D02*
Y974799D01*
X3306000Y930499D02*
Y934429D01*
Y969869D02*
Y973799D01*
X2611930Y361809D02*
Y365739D01*
Y401179D02*
Y405109D01*
X2576930Y361809D02*
Y365739D01*
Y401179D02*
Y405109D01*
X1928480Y2027879D02*
Y2031809D01*
Y1988499D02*
Y1992429D01*
X859480Y502879D02*
Y506809D01*
Y463509D02*
Y467439D01*
X1664500Y1311619D02*
Y1315549D01*
Y1272239D02*
Y1276169D01*
X3222480Y931869D02*
Y935799D01*
Y892499D02*
Y896429D01*
X1611930Y1106809D02*
Y1110739D01*
Y1146179D02*
Y1150109D01*
X1651930Y1146179D02*
Y1150109D01*
Y1106809D02*
Y1110739D01*
X1566930Y1106809D02*
Y1110739D01*
Y1146179D02*
Y1150109D01*
X315500Y1666699D02*
Y1670629D01*
Y1627329D02*
Y1631259D01*
X414500Y1781249D02*
Y1785179D01*
Y1820609D02*
Y1824539D01*
X2751930Y2011809D02*
Y2015739D01*
Y2051179D02*
Y2055109D01*
X245500Y1627559D02*
Y1631489D01*
Y1666929D02*
Y1670859D01*
X280500Y1666929D02*
Y1670859D01*
Y1627559D02*
Y1631489D01*
X2621930Y999339D02*
Y1003269D01*
Y1038709D02*
Y1042639D01*
X3273000Y884499D02*
Y888429D01*
Y923869D02*
Y927799D01*
X3305500Y2014699D02*
Y2018629D01*
Y1975329D02*
Y1979259D01*
X3340500Y1975329D02*
Y1979259D01*
Y2014699D02*
Y2018629D01*
X2393480Y1169509D02*
Y1173439D01*
Y1208879D02*
Y1212809D01*
X2327650Y907869D02*
Y911799D01*
Y868499D02*
Y872429D01*
X2104930Y929979D02*
Y933909D01*
Y890609D02*
Y894539D01*
X3191480Y1602509D02*
Y1606439D01*
Y1641869D02*
Y1645799D01*
X3148480Y1792869D02*
Y1796799D01*
Y1753509D02*
Y1757439D01*
G54D14*
X1133865Y818894D02*
X1165355D01*
X1133865Y370074D02*
X1165355D01*
G54D15*
X1777480Y1835154D03*
X2673230Y366134D03*
X3149610Y1507874D03*
X3220470Y374014D03*
X2952760Y1440944D03*
X1515750Y381884D03*
X1610240D03*
X1688980D03*
X1767720D03*
X2496060Y641724D03*
X2874020Y1322834D03*
X118110Y1992124D03*
X3141730Y374014D03*
X157480Y542404D03*
X1846460Y381884D03*
X3307090Y1814954D03*
X2952760Y1677164D03*
X2846460Y1618104D03*
X3011810Y2010914D03*
X807090Y791334D03*
X733480Y358154D03*
X2874020Y2011804D03*
X3090550Y1814954D03*
X2507870Y1350394D03*
X2224410Y562984D03*
X3425200Y1814954D03*
X2598420Y460624D03*
X1377950Y1224404D03*
X2519690Y1232284D03*
X1503940Y1271654D03*
Y1192914D03*
X1673230Y1539364D03*
X2755900Y1322834D03*
X2125980Y1649604D03*
Y2011804D03*
X2283460Y1027554D03*
X2874020Y1204724D03*
X2905510Y515744D03*
X3188980Y507874D03*
X2791340Y602354D03*
X2952760Y1322834D03*
X314960Y889764D03*
X2677170Y1322834D03*
X1437010Y314064D03*
X2696850Y1169284D03*
X1259840Y310124D03*
X2125980Y766814D03*
X1515750Y314064D03*
X358270Y299214D03*
X279530D03*
X200790D03*
X2145670Y511804D03*
X614170Y1975474D03*
Y2054214D03*
G36*
X823990Y1362664D02*
X807290Y1379364D01*
X821210Y1393284D01*
X837910Y1376584D01*
X823990Y1362664D01*
G37*
G36*
X851830Y1334824D02*
X835130Y1351524D01*
X849050Y1365444D01*
X865750Y1348744D01*
X851830Y1334824D01*
G37*
G54D16*
X2051455Y1175064D02*
X2173505D01*
X2051455Y1289244D02*
X2173505D01*
X2381905Y923344D02*
X2503955D01*
X2381905Y809174D02*
X2503955D01*
G54D17*
X1871030Y1526094D02*
Y1545094D01*
X1851340Y1526094D02*
Y1545094D01*
X1831660Y1526094D02*
Y1545094D01*
X1811970Y1526094D02*
Y1545094D01*
Y1481614D02*
Y1500614D01*
X1831660Y1481614D02*
Y1500614D01*
X1851340Y1481614D02*
Y1500614D01*
X1871030Y1481614D02*
Y1500614D01*
X1777030Y1526094D02*
Y1545094D01*
X1757340Y1526094D02*
Y1545094D01*
X1737660Y1526094D02*
Y1545094D01*
X1717970Y1526094D02*
Y1545094D01*
Y1481614D02*
Y1500614D01*
X1737660Y1481614D02*
Y1500614D01*
X1757340Y1481614D02*
Y1500614D01*
X1777030Y1481614D02*
Y1500614D01*
G54D16*
X352410Y1895869D02*
Y2017919D01*
X466580Y1895869D02*
Y2017919D01*
G54D18*
X901595Y580194D02*
X915365D01*
X901595Y460114D02*
X915365D01*
G54D19*
X3132380Y486154D03*
X3111510D03*
G54D12*
X2748030Y485234D02*
Y530514D01*
X2825790Y905504D02*
X2867130D01*
X2893700Y990154D02*
Y1041334D01*
X3243110Y1090544D02*
X3260830D01*
X3291340Y1050194D02*
Y1067914D01*
X3367125Y1027554D02*
X3388775D01*
X3437010Y774599D02*
Y878930D01*
Y518699D02*
Y623030D01*
X3067910Y448814D02*
X3113190D01*
G54D20*
X3068150Y1471464D02*
Y1484464D01*
X3054370Y1471464D02*
Y1484464D01*
X3040590Y1471464D02*
Y1484464D01*
X3026810Y1471464D02*
Y1484464D01*
Y1497844D02*
Y1510844D01*
X3040590Y1497844D02*
Y1510844D01*
X3054370Y1497844D02*
Y1510844D01*
X3068150Y1497844D02*
Y1510844D01*
G54D21*
X2242930Y914754D02*
Y939754D01*
X2280330Y914754D02*
Y939754D01*
Y802754D02*
Y827754D01*
X2242930Y802754D02*
Y827754D01*
X2205530Y802754D02*
Y827754D01*
Y914754D02*
Y939754D01*
G54D22*
X3122060Y937094D02*
X3129940D01*
X3039380D02*
X3047260D01*
X3039380Y996144D02*
X3047260D01*
X3122060D02*
X3129940D01*
G54D23*
X2252020Y1207744D02*
X2268160D01*
X2252020Y1182154D02*
X2268160D01*
X2252020Y1156564D02*
X2268160D01*
X2328800D02*
X2344940D01*
X2328800Y1182154D02*
X2344940D01*
X2328800Y1207744D02*
X2344940D01*
G54D24*
X2298480Y1170344D02*
Y1193964D01*
G36*
X440160Y342704D02*
X417960Y350784D01*
X424700Y369284D01*
X446900Y361204D01*
X440160Y342704D01*
G37*
G36*
X477160Y329234D02*
X454960Y337314D01*
X461700Y355814D01*
X483900Y347734D01*
X477160Y329234D01*
G37*
G36*
X712290Y1626764D02*
X728990Y1643464D01*
X742910Y1629544D01*
X726210Y1612844D01*
X712290Y1626764D01*
G37*
G36*
X740130Y1654604D02*
X756830Y1671304D01*
X770750Y1657384D01*
X754050Y1640684D01*
X740130Y1654604D01*
G37*
G36*
X707290Y1543764D02*
X723990Y1560464D01*
X737910Y1546544D01*
X721210Y1529844D01*
X707290Y1543764D01*
G37*
G36*
X735130Y1571604D02*
X751830Y1588304D01*
X765750Y1574384D01*
X749050Y1557684D01*
X735130Y1571604D01*
G37*
G36*
X865130Y1436604D02*
X881830Y1453304D01*
X895750Y1439384D01*
X879050Y1422684D01*
X865130Y1436604D01*
G37*
G36*
X837290Y1408764D02*
X853990Y1425464D01*
X867910Y1411544D01*
X851210Y1394844D01*
X837290Y1408764D01*
G37*
G36*
X930130Y1501604D02*
X946830Y1518304D01*
X960750Y1504384D01*
X944050Y1487684D01*
X930130Y1501604D01*
G37*
G36*
X902290Y1473764D02*
X918990Y1490464D01*
X932910Y1476544D01*
X916210Y1459844D01*
X902290Y1473764D01*
G37*
G36*
X481740Y1375264D02*
X498440Y1391964D01*
X512360Y1378044D01*
X495660Y1361344D01*
X481740Y1375264D01*
G37*
G36*
X453910Y1347424D02*
X470610Y1364124D01*
X484530Y1350204D01*
X467830Y1333504D01*
X453910Y1347424D01*
G37*
G36*
X537290Y1428764D02*
X553990Y1445464D01*
X567910Y1431544D01*
X551210Y1414844D01*
X537290Y1428764D01*
G37*
G36*
X565130Y1456604D02*
X581830Y1473304D01*
X595750Y1459384D01*
X579050Y1442684D01*
X565130Y1456604D01*
G37*
G36*
X670130Y1421604D02*
X686830Y1438304D01*
X700750Y1424384D01*
X684050Y1407684D01*
X670130Y1421604D01*
G37*
G36*
X642290Y1393764D02*
X658990Y1410464D01*
X672910Y1396544D01*
X656210Y1379844D01*
X642290Y1393764D01*
G37*
G36*
X662410Y1226574D02*
X679110Y1243274D01*
X693030Y1229354D01*
X676330Y1212654D01*
X662410Y1226574D01*
G37*
G36*
X690250Y1254414D02*
X706950Y1271114D01*
X720870Y1257194D01*
X704170Y1240494D01*
X690250Y1254414D01*
G37*
G36*
X594610Y1166084D02*
X611310Y1182784D01*
X625230Y1168864D01*
X608530Y1152164D01*
X594610Y1166084D01*
G37*
G36*
X622450Y1193924D02*
X639150Y1210624D01*
X653070Y1196704D01*
X636370Y1180004D01*
X622450Y1193924D01*
G37*
G36*
X657210Y1554604D02*
X673910Y1571304D01*
X687830Y1557384D01*
X671130Y1540684D01*
X657210Y1554604D01*
G37*
G36*
X629370Y1526764D02*
X646070Y1543464D01*
X659990Y1529544D01*
X643290Y1512844D01*
X629370Y1526764D01*
G37*
G54D25*
X964570Y742114D02*
X1043310D01*
X964570Y683064D02*
X1043310D01*
X964570Y624004D02*
X1043310D01*
X964570Y564954D02*
X1043310D01*
X964570Y505894D02*
X1043310D01*
X964570Y446844D02*
X1043310D01*
G54D26*
X279090Y1716499D02*
Y1728309D01*
X355870Y1716499D02*
Y1728309D01*
X353900Y1810989D02*
Y1822799D01*
X316500Y1810989D02*
Y1822799D01*
X279090Y1810989D02*
Y1822799D01*
X3527555Y811024D02*
X3543305D01*
G54D27*
X3554130Y815939D02*
Y821849D01*
X3516730Y815939D02*
Y821849D01*
G54D24*
X3519685Y685034D02*
X3551175D01*
G54D26*
X3091890Y1602634D02*
Y1622314D01*
X3143070Y1602634D02*
Y1622314D01*
Y1691224D02*
Y1710904D01*
X3117480Y1691224D02*
Y1710904D01*
X3091890Y1691224D02*
Y1710904D01*
G54D28*
X3191970Y2016009D02*
Y2016999D01*
X3211650Y2016009D02*
Y2016999D01*
X3231340Y2016009D02*
Y2016999D01*
X3251020Y2016009D02*
Y2016999D01*
Y1956959D02*
Y1957949D01*
X3231340Y1956959D02*
Y1957949D01*
X3211650Y1956959D02*
Y1957949D01*
X3191970Y1956959D02*
Y1957949D01*
X3250535Y1996824D02*
X3251525D01*
X3250525Y1977134D02*
X3251515D01*
X3191475Y1977144D02*
X3192465D01*
X3191475Y1996824D02*
X3192465D01*
G54D24*
X2074080Y1097249D02*
Y1109059D01*
X2474530Y988349D02*
Y1000159D01*
G54D14*
X2131165Y1103154D02*
X2166595D01*
X2531615Y994254D02*
X2567045D01*
G54D29*
X3111930Y751464D03*
G54D30*
X3180830Y836104D02*
Y857764D01*
X3161140Y836104D02*
Y857764D01*
X3141460Y836104D02*
Y857764D01*
X3121770Y836104D02*
Y857764D01*
X3102090Y836104D02*
Y857764D01*
X3082400Y836104D02*
Y857764D01*
X3062720Y836104D02*
Y857764D01*
X3043030Y836104D02*
Y857764D01*
Y645154D02*
Y666814D01*
X3062720Y645154D02*
Y666814D01*
X3082400Y645154D02*
Y666814D01*
X3102090Y645154D02*
Y666814D01*
X3121770Y645154D02*
Y666814D01*
X3141460Y645154D02*
Y666814D01*
X3161140Y645154D02*
Y666814D01*
X3180830Y645154D02*
Y666814D01*
X3005630Y820364D02*
X3027290D01*
X3005630Y800674D02*
X3027290D01*
X3005630Y780994D02*
X3027290D01*
X3005630Y761304D02*
X3027290D01*
X3005630Y741614D02*
X3027290D01*
X3005630Y721934D02*
X3027290D01*
X3005630Y702244D02*
X3027290D01*
X3005630Y682564D02*
X3027290D01*
X3196570D02*
X3218230D01*
X3196570Y702244D02*
X3218230D01*
X3196570Y721934D02*
X3218230D01*
X3196570Y741614D02*
X3218230D01*
X3196570Y761304D02*
X3218230D01*
X3196570Y780994D02*
X3218230D01*
X3196570Y800674D02*
X3218230D01*
X3196570Y820364D02*
X3218230D01*
G54D10*
X3029480Y2315094D03*
Y2380094D03*
X3535430Y2585604D03*
Y2650604D03*
X2027480Y3953154D03*
Y4018154D03*
X1972480D03*
Y3953154D03*
X1116300Y3202984D03*
Y3267984D03*
X818480Y2428154D03*
Y2493154D03*
X409500Y3627894D03*
Y3692894D03*
X464500Y3790894D03*
Y3725894D03*
X2701930Y3984464D03*
Y4049464D03*
X2796930Y3986984D03*
Y4051984D03*
X520500Y3726894D03*
Y3791894D03*
X2567930Y2828254D03*
Y2893254D03*
X2148930Y2835254D03*
Y2900254D03*
G54D11*
X2834195Y2634964D02*
X2838125D01*
X2794825D02*
X2798755D01*
X2834195Y2669964D02*
X2838125D01*
X2794825D02*
X2798755D01*
X2834195Y2774964D02*
X2838125D01*
X2794825D02*
X2798755D01*
X2834195Y2809964D02*
X2838125D01*
X2794825D02*
X2798755D01*
X2939765Y2844824D02*
X2943695D01*
X2900385D02*
X2904315D01*
X3306205Y2690654D02*
X3310135D01*
X3266835D02*
X3270765D01*
X3092995Y2581644D02*
X3096925D01*
X3132365D02*
X3136295D01*
X3211355Y2956644D02*
X3215285D01*
X3250725D02*
X3254655D01*
X3250725Y2990644D02*
X3254655D01*
X3211355D02*
X3215285D01*
X3125825Y2544654D02*
X3129755D01*
X3165205D02*
X3169135D01*
X3112205Y3406654D02*
X3116135D01*
X3072835D02*
X3076765D01*
X3112205Y3509654D02*
X3116135D01*
X3072835D02*
X3076765D01*
X3248195Y2544654D02*
X3252125D01*
X3208825D02*
X3212755D01*
X2834195Y2704964D02*
X2838125D01*
X2794825D02*
X2798755D01*
X2939585Y2810194D02*
X2943515D01*
X2900205D02*
X2904135D01*
X2934645Y2774964D02*
X2938575D01*
X2895275D02*
X2899205D01*
X2934645Y2704964D02*
X2938575D01*
X2895275D02*
X2899205D01*
X2934645Y2669964D02*
X2938575D01*
X2895275D02*
X2899205D01*
X2934645Y2634964D02*
X2938575D01*
X2895275D02*
X2899205D01*
X3376715Y2899644D02*
X3380645D01*
X3337345D02*
X3341275D01*
X2305195Y3077654D02*
X2309125D01*
X2265835D02*
X2269765D01*
X832645Y2646484D02*
X836575D01*
X872015D02*
X875945D01*
X3266835Y2725654D02*
X3270765D01*
X3306205D02*
X3310135D01*
X1723645Y2889484D02*
X1727575D01*
X1763015D02*
X1766945D01*
X1945275Y2821964D02*
X1949205D01*
X1984645D02*
X1988575D01*
X1984645Y2946484D02*
X1988575D01*
X1945275D02*
X1949205D01*
X1945275Y3023484D02*
X1949205D01*
X1984645D02*
X1988575D01*
X1984645Y3065484D02*
X1988575D01*
X1945275D02*
X1949205D01*
X1945275Y2721964D02*
X1949205D01*
X1984645D02*
X1988575D01*
X833345Y2687644D02*
X837275D01*
X872715D02*
X876645D01*
X1945275Y2761964D02*
X1949205D01*
X1984645D02*
X1988575D01*
X3127215Y3938654D02*
X3131145D01*
X3087845D02*
X3091775D01*
X3127215Y3974484D02*
X3131145D01*
X3087845D02*
X3091775D01*
X3211355Y3023644D02*
X3215285D01*
X3250725D02*
X3254655D01*
X2539645Y2371964D02*
X2543575D01*
X2500275D02*
X2504205D01*
X2500275Y2336964D02*
X2504205D01*
X2539645D02*
X2543575D01*
X1576825Y4014654D02*
X1580755D01*
X1616205D02*
X1620135D01*
X1576825Y3977654D02*
X1580755D01*
X1616205D02*
X1620135D01*
X3088195Y3721654D02*
X3092125D01*
X3048835D02*
X3052765D01*
X3149825Y3530654D02*
X3153755D01*
X3189195D02*
X3193125D01*
X3231215Y3891484D02*
X3235145D01*
X3191845D02*
X3195775D01*
X2060825Y3017654D02*
X2064755D01*
X2100195D02*
X2104125D01*
X2169825Y3016654D02*
X2173755D01*
X2209195D02*
X2213125D01*
X2204845Y2729484D02*
X2208775D01*
X2244215D02*
X2248145D01*
X3112205Y3316654D02*
X3116135D01*
X3072835D02*
X3076765D01*
X3111195Y3278654D02*
X3115125D01*
X3071835D02*
X3075765D01*
G54D10*
X1979800Y2547484D03*
X1914800D03*
X3259000Y3846484D03*
X3194000D03*
X3269980Y2645654D03*
X3334980D03*
X1734430Y3341964D03*
X1799430D03*
X541430Y2261964D03*
X476430D03*
X3334980Y2589654D03*
X3269980D03*
X3147980Y3362654D03*
X3082980D03*
X2971500Y2344644D03*
X2906500D03*
X2240980Y3216654D03*
X2305980D03*
Y3271654D03*
X2240980D03*
G54D12*
X2943895Y3059044D02*
X3048225D01*
X3247045Y2417314D02*
X3351375D01*
X2869095D02*
X2973425D01*
X2748030Y2621054D02*
Y2686015D01*
Y2754914D02*
Y2819875D01*
G54D13*
X154000Y2395644D03*
G54D11*
X3184480Y3722009D02*
Y3725939D01*
Y3761369D02*
Y3765299D01*
X2994480Y3493369D02*
Y3497299D01*
Y3454009D02*
Y3457939D01*
X3043480Y2539000D02*
Y2542929D01*
Y2578369D02*
Y2582299D01*
X2976480Y2560000D02*
Y2563929D01*
Y2599369D02*
Y2603299D01*
X3077000Y2367369D02*
Y2371299D01*
Y2328000D02*
Y2331929D01*
X2993000Y2929369D02*
Y2933299D01*
Y2890000D02*
Y2893929D01*
X3180000Y2890000D02*
Y2893929D01*
Y2929369D02*
Y2933299D01*
X3413000Y2900000D02*
Y2903929D01*
Y2939369D02*
Y2943299D01*
X3306000Y2899000D02*
Y2902929D01*
Y2938369D02*
Y2942299D01*
X2611930Y2330309D02*
Y2334239D01*
Y2369679D02*
Y2373609D01*
X2576930Y2330309D02*
Y2334239D01*
Y2369679D02*
Y2373609D01*
X1928480Y3996379D02*
Y4000309D01*
Y3957000D02*
Y3960929D01*
X859480Y2471379D02*
Y2475309D01*
Y2432009D02*
Y2435939D01*
X1664500Y3280119D02*
Y3284049D01*
Y3240739D02*
Y3244669D01*
X3222480Y2900369D02*
Y2904299D01*
Y2861000D02*
Y2864929D01*
X1611930Y3075309D02*
Y3079239D01*
Y3114679D02*
Y3118609D01*
X1651930Y3114679D02*
Y3118609D01*
Y3075309D02*
Y3079239D01*
X1566930Y3075309D02*
Y3079239D01*
Y3114679D02*
Y3118609D01*
X315500Y3635200D02*
Y3639129D01*
Y3595829D02*
Y3599759D01*
X414500Y3749750D02*
Y3753679D01*
Y3789109D02*
Y3793039D01*
X2751930Y3980309D02*
Y3984239D01*
Y4019679D02*
Y4023609D01*
X245500Y3596059D02*
Y3599989D01*
Y3635429D02*
Y3639359D01*
X280500Y3635429D02*
Y3639359D01*
Y3596059D02*
Y3599989D01*
X2621930Y2967839D02*
Y2971769D01*
Y3007209D02*
Y3011139D01*
X3273000Y2853000D02*
Y2856929D01*
Y2892369D02*
Y2896299D01*
X3305500Y3983200D02*
Y3987129D01*
Y3943829D02*
Y3947759D01*
X3340500Y3943829D02*
Y3947759D01*
Y3983200D02*
Y3987129D01*
X2393480Y3138009D02*
Y3141939D01*
Y3177379D02*
Y3181309D01*
X2327650Y2876369D02*
Y2880299D01*
Y2837000D02*
Y2840929D01*
X2104930Y2898479D02*
Y2902409D01*
Y2859109D02*
Y2863039D01*
X3191480Y3571009D02*
Y3574939D01*
Y3610369D02*
Y3614299D01*
X3148480Y3761369D02*
Y3765299D01*
Y3722009D02*
Y3725939D01*
G54D14*
X1133865Y2787394D02*
X1165355D01*
X1133865Y2338574D02*
X1165355D01*
G54D15*
X1777480Y3803654D03*
X2673230Y2334634D03*
X3149610Y3476374D03*
X3220470Y2342514D03*
X2952760Y3409444D03*
X1515750Y2350384D03*
X1610240D03*
X1688980D03*
X1767720D03*
X2496060Y2610224D03*
X2874020Y3291334D03*
X118110Y3960624D03*
X3141730Y2342514D03*
X157480Y2510904D03*
X1846460Y2350384D03*
X3307090Y3783454D03*
X2952760Y3645664D03*
X2846460Y3586604D03*
X3011810Y3979414D03*
X807090Y2759834D03*
X733480Y2326654D03*
X2874020Y3980304D03*
X3090550Y3783454D03*
X2507870Y3318894D03*
X2224410Y2531484D03*
X3425200Y3783454D03*
X2598420Y2429124D03*
X1377950Y3192904D03*
X2519690Y3200784D03*
X1503940Y3240154D03*
Y3161414D03*
X1673230Y3507864D03*
X2755900Y3291334D03*
X2125980Y3618104D03*
Y3980304D03*
X2283460Y2996054D03*
X2874020Y3173224D03*
X2905510Y2484244D03*
X3188980Y2476374D03*
X2791340Y2570854D03*
X2952760Y3291334D03*
X314960Y2858264D03*
X2677170Y3291334D03*
X1437010Y2282564D03*
X2696850Y3137784D03*
X1259840Y2278624D03*
X2125980Y2735314D03*
X1515750Y2282564D03*
X358270Y2267714D03*
X279530D03*
X200790D03*
X2145670Y2480304D03*
X614170Y3943974D03*
Y4022714D03*
G36*
X823990Y3331164D02*
X807290Y3347864D01*
X821210Y3361784D01*
X837910Y3345084D01*
X823990Y3331164D01*
G37*
G36*
X851830Y3303324D02*
X835130Y3320024D01*
X849050Y3333944D01*
X865750Y3317244D01*
X851830Y3303324D01*
G37*
G54D16*
X2051455Y3143564D02*
X2173505D01*
X2051455Y3257744D02*
X2173505D01*
X2381905Y2891844D02*
X2503955D01*
X2381905Y2777674D02*
X2503955D01*
G54D17*
X1871030Y3494594D02*
Y3513594D01*
X1851340Y3494594D02*
Y3513594D01*
X1831660Y3494594D02*
Y3513594D01*
X1811970Y3494594D02*
Y3513594D01*
Y3450114D02*
Y3469114D01*
X1831660Y3450114D02*
Y3469114D01*
X1851340Y3450114D02*
Y3469114D01*
X1871030Y3450114D02*
Y3469114D01*
X1777030Y3494594D02*
Y3513594D01*
X1757340Y3494594D02*
Y3513594D01*
X1737660Y3494594D02*
Y3513594D01*
X1717970Y3494594D02*
Y3513594D01*
Y3450114D02*
Y3469114D01*
X1737660Y3450114D02*
Y3469114D01*
X1757340Y3450114D02*
Y3469114D01*
X1777030Y3450114D02*
Y3469114D01*
G54D16*
X352410Y3864369D02*
Y3986419D01*
X466580Y3864369D02*
Y3986419D01*
G54D18*
X901595Y2548694D02*
X915365D01*
X901595Y2428614D02*
X915365D01*
G54D19*
X3132380Y2454654D03*
X3111510D03*
G54D12*
X2748030Y2453734D02*
Y2499015D01*
X2825790Y2874004D02*
X2867130D01*
X2893700Y2958654D02*
Y3009835D01*
X3243110Y3059044D02*
X3260830D01*
X3291340Y3018694D02*
Y3036415D01*
X3367125Y2996054D02*
X3388775D01*
X3437010Y2743099D02*
Y2847430D01*
Y2487199D02*
Y2591530D01*
X3067910Y2417314D02*
X3113190D01*
G54D20*
X3068150Y3439964D02*
Y3452964D01*
X3054370Y3439964D02*
Y3452964D01*
X3040590Y3439964D02*
Y3452964D01*
X3026810Y3439964D02*
Y3452964D01*
Y3466344D02*
Y3479344D01*
X3040590Y3466344D02*
Y3479344D01*
X3054370Y3466344D02*
Y3479344D01*
X3068150Y3466344D02*
Y3479344D01*
G54D21*
X2242930Y2883254D02*
Y2908254D01*
X2280330Y2883254D02*
Y2908254D01*
Y2771254D02*
Y2796254D01*
X2242930Y2771254D02*
Y2796254D01*
X2205530Y2771254D02*
Y2796254D01*
Y2883254D02*
Y2908254D01*
G54D22*
X3122060Y2905594D02*
X3129940D01*
X3039380D02*
X3047260D01*
X3039380Y2964644D02*
X3047260D01*
X3122060D02*
X3129940D01*
G54D23*
X2252020Y3176244D02*
X2268160D01*
X2252020Y3150654D02*
X2268160D01*
X2252020Y3125064D02*
X2268160D01*
X2328800D02*
X2344940D01*
X2328800Y3150654D02*
X2344940D01*
X2328800Y3176244D02*
X2344940D01*
G54D24*
X2298480Y3138844D02*
Y3162464D01*
G36*
X440160Y2311204D02*
X417960Y2319284D01*
X424700Y2337784D01*
X446900Y2329704D01*
X440160Y2311204D01*
G37*
G36*
X477160Y2297734D02*
X454960Y2305814D01*
X461700Y2324314D01*
X483900Y2316234D01*
X477160Y2297734D01*
G37*
G36*
X712290Y3595264D02*
X728990Y3611964D01*
X742910Y3598044D01*
X726210Y3581344D01*
X712290Y3595264D01*
G37*
G36*
X740130Y3623104D02*
X756830Y3639804D01*
X770750Y3625884D01*
X754050Y3609184D01*
X740130Y3623104D01*
G37*
G36*
X707290Y3512264D02*
X723990Y3528964D01*
X737910Y3515044D01*
X721210Y3498344D01*
X707290Y3512264D01*
G37*
G36*
X735130Y3540104D02*
X751830Y3556804D01*
X765750Y3542884D01*
X749050Y3526184D01*
X735130Y3540104D01*
G37*
G36*
X865130Y3405104D02*
X881830Y3421804D01*
X895750Y3407884D01*
X879050Y3391184D01*
X865130Y3405104D01*
G37*
G36*
X837290Y3377264D02*
X853990Y3393964D01*
X867910Y3380044D01*
X851210Y3363344D01*
X837290Y3377264D01*
G37*
G36*
X930130Y3470104D02*
X946830Y3486804D01*
X960750Y3472884D01*
X944050Y3456184D01*
X930130Y3470104D01*
G37*
G36*
X902290Y3442264D02*
X918990Y3458964D01*
X932910Y3445044D01*
X916210Y3428344D01*
X902290Y3442264D01*
G37*
G36*
X481740Y3343764D02*
X498440Y3360464D01*
X512360Y3346544D01*
X495660Y3329844D01*
X481740Y3343764D01*
G37*
G36*
X453910Y3315925D02*
X470610Y3332625D01*
X484530Y3318704D01*
X467830Y3302004D01*
X453910Y3315925D01*
G37*
G36*
X537290Y3397264D02*
X553990Y3413964D01*
X567910Y3400044D01*
X551210Y3383344D01*
X537290Y3397264D01*
G37*
G36*
X565130Y3425104D02*
X581830Y3441804D01*
X595750Y3427884D01*
X579050Y3411184D01*
X565130Y3425104D01*
G37*
G36*
X670130Y3390104D02*
X686830Y3406804D01*
X700750Y3392884D01*
X684050Y3376184D01*
X670130Y3390104D01*
G37*
G36*
X642290Y3362264D02*
X658990Y3378964D01*
X672910Y3365044D01*
X656210Y3348344D01*
X642290Y3362264D01*
G37*
G36*
X662410Y3195075D02*
X679110Y3211775D01*
X693030Y3197854D01*
X676330Y3181154D01*
X662410Y3195075D01*
G37*
G36*
X690250Y3222914D02*
X706950Y3239614D01*
X720870Y3225694D01*
X704170Y3208994D01*
X690250Y3222914D01*
G37*
G36*
X594610Y3134584D02*
X611310Y3151284D01*
X625230Y3137364D01*
X608530Y3120664D01*
X594610Y3134584D01*
G37*
G36*
X622450Y3162425D02*
X639150Y3179125D01*
X653070Y3165204D01*
X636370Y3148504D01*
X622450Y3162425D01*
G37*
G36*
X657210Y3523104D02*
X673910Y3539804D01*
X687830Y3525884D01*
X671130Y3509184D01*
X657210Y3523104D01*
G37*
G36*
X629370Y3495264D02*
X646070Y3511964D01*
X659990Y3498044D01*
X643290Y3481344D01*
X629370Y3495264D01*
G37*
G54D25*
X964570Y2710614D02*
X1043310D01*
X964570Y2651564D02*
X1043310D01*
X964570Y2592504D02*
X1043310D01*
X964570Y2533454D02*
X1043310D01*
X964570Y2474394D02*
X1043310D01*
X964570Y2415344D02*
X1043310D01*
G54D26*
X279090Y3684999D02*
Y3696809D01*
X355870Y3684999D02*
Y3696809D01*
X353900Y3779489D02*
Y3791299D01*
X316500Y3779489D02*
Y3791299D01*
X279090Y3779489D02*
Y3791299D01*
X3527555Y2779524D02*
X3543305D01*
G54D27*
X3554130Y2784439D02*
Y2790349D01*
X3516730Y2784439D02*
Y2790349D01*
G54D24*
X3519685Y2653534D02*
X3551175D01*
G54D26*
X3091890Y3571134D02*
Y3590814D01*
X3143070Y3571134D02*
Y3590814D01*
Y3659725D02*
Y3679404D01*
X3117480Y3659725D02*
Y3679404D01*
X3091890Y3659725D02*
Y3679404D01*
G54D28*
X3191970Y3984509D02*
Y3985499D01*
X3211650Y3984509D02*
Y3985499D01*
X3231340Y3984509D02*
Y3985499D01*
X3251020Y3984509D02*
Y3985499D01*
Y3925459D02*
Y3926449D01*
X3231340Y3925459D02*
Y3926449D01*
X3211650Y3925459D02*
Y3926449D01*
X3191970Y3925459D02*
Y3926449D01*
X3250535Y3965324D02*
X3251525D01*
X3250525Y3945634D02*
X3251515D01*
X3191475Y3945644D02*
X3192465D01*
X3191475Y3965324D02*
X3192465D01*
G54D24*
X2074080Y3065749D02*
Y3077559D01*
X2474530Y2956849D02*
Y2968659D01*
G54D14*
X2131165Y3071654D02*
X2166595D01*
X2531615Y2962754D02*
X2567045D01*
G54D29*
X3111930Y2719964D03*
G54D30*
X3180830Y2804604D02*
Y2826264D01*
X3161140Y2804604D02*
Y2826264D01*
X3141460Y2804604D02*
Y2826264D01*
X3121770Y2804604D02*
Y2826264D01*
X3102090Y2804604D02*
Y2826264D01*
X3082400Y2804604D02*
Y2826264D01*
X3062720Y2804604D02*
Y2826264D01*
X3043030Y2804604D02*
Y2826264D01*
Y2613654D02*
Y2635314D01*
X3062720Y2613654D02*
Y2635314D01*
X3082400Y2613654D02*
Y2635314D01*
X3102090Y2613654D02*
Y2635314D01*
X3121770Y2613654D02*
Y2635314D01*
X3141460Y2613654D02*
Y2635314D01*
X3161140Y2613654D02*
Y2635314D01*
X3180830Y2613654D02*
Y2635314D01*
X3005630Y2788864D02*
X3027290D01*
X3005630Y2769174D02*
X3027290D01*
X3005630Y2749494D02*
X3027290D01*
X3005630Y2729804D02*
X3027290D01*
X3005630Y2710114D02*
X3027290D01*
X3005630Y2690434D02*
X3027290D01*
X3005630Y2670744D02*
X3027290D01*
X3005630Y2651064D02*
X3027290D01*
X3196570D02*
X3218230D01*
X3196570Y2670744D02*
X3218230D01*
X3196570Y2690434D02*
X3218230D01*
X3196570Y2710114D02*
X3218230D01*
X3196570Y2729804D02*
X3218230D01*
X3196570Y2749494D02*
X3218230D01*
X3196570Y2769174D02*
X3218230D01*
X3196570Y2788864D02*
X3218230D01*
G54D10*
X3029480Y4283595D03*
Y4348595D03*
X3535430Y4554105D03*
Y4619105D03*
X2027480Y5921655D03*
Y5986655D03*
X1972480D03*
Y5921655D03*
X1116300Y5171485D03*
Y5236485D03*
X818480Y4396655D03*
Y4461655D03*
X409500Y5596395D03*
Y5661395D03*
X464500Y5759395D03*
Y5694395D03*
X2701930Y5952965D03*
Y6017965D03*
X2796930Y5955485D03*
Y6020485D03*
X520500Y5695395D03*
Y5760395D03*
X2567930Y4796755D03*
Y4861755D03*
X2148930Y4803755D03*
Y4868755D03*
G54D11*
X2834195Y4603465D02*
X2838125D01*
X2794825D02*
X2798755D01*
X2834195Y4638465D02*
X2838125D01*
X2794825D02*
X2798755D01*
X2834195Y4743465D02*
X2838125D01*
X2794825D02*
X2798755D01*
X2834195Y4778465D02*
X2838125D01*
X2794825D02*
X2798755D01*
X2939765Y4813325D02*
X2943695D01*
X2900385D02*
X2904315D01*
X3306205Y4659155D02*
X3310135D01*
X3266835D02*
X3270765D01*
X3092995Y4550145D02*
X3096925D01*
X3132365D02*
X3136295D01*
X3211355Y4925145D02*
X3215285D01*
X3250725D02*
X3254655D01*
X3250725Y4959145D02*
X3254655D01*
X3211355D02*
X3215285D01*
X3125825Y4513155D02*
X3129755D01*
X3165205D02*
X3169135D01*
X3112205Y5375155D02*
X3116135D01*
X3072835D02*
X3076765D01*
X3112205Y5478155D02*
X3116135D01*
X3072835D02*
X3076765D01*
X3248195Y4513155D02*
X3252125D01*
X3208825D02*
X3212755D01*
X2834195Y4673465D02*
X2838125D01*
X2794825D02*
X2798755D01*
X2939585Y4778695D02*
X2943515D01*
X2900205D02*
X2904135D01*
X2934645Y4743465D02*
X2938575D01*
X2895275D02*
X2899205D01*
X2934645Y4673465D02*
X2938575D01*
X2895275D02*
X2899205D01*
X2934645Y4638465D02*
X2938575D01*
X2895275D02*
X2899205D01*
X2934645Y4603465D02*
X2938575D01*
X2895275D02*
X2899205D01*
X3376715Y4868145D02*
X3380645D01*
X3337345D02*
X3341275D01*
X2305195Y5046155D02*
X2309125D01*
X2265835D02*
X2269765D01*
X832645Y4614985D02*
X836575D01*
X872015D02*
X875945D01*
X3266835Y4694155D02*
X3270765D01*
X3306205D02*
X3310135D01*
X1723645Y4857985D02*
X1727575D01*
X1763015D02*
X1766945D01*
X1945275Y4790465D02*
X1949205D01*
X1984645D02*
X1988575D01*
X1984645Y4914985D02*
X1988575D01*
X1945275D02*
X1949205D01*
X1945275Y4991985D02*
X1949205D01*
X1984645D02*
X1988575D01*
X1984645Y5033985D02*
X1988575D01*
X1945275D02*
X1949205D01*
X1945275Y4690465D02*
X1949205D01*
X1984645D02*
X1988575D01*
X833345Y4656145D02*
X837275D01*
X872715D02*
X876645D01*
X1945275Y4730465D02*
X1949205D01*
X1984645D02*
X1988575D01*
X3127215Y5907155D02*
X3131145D01*
X3087845D02*
X3091775D01*
X3127215Y5942985D02*
X3131145D01*
X3087845D02*
X3091775D01*
X3211355Y4992145D02*
X3215285D01*
X3250725D02*
X3254655D01*
X2539645Y4340465D02*
X2543575D01*
X2500275D02*
X2504205D01*
X2500275Y4305465D02*
X2504205D01*
X2539645D02*
X2543575D01*
X1576825Y5983155D02*
X1580755D01*
X1616205D02*
X1620135D01*
X1576825Y5946155D02*
X1580755D01*
X1616205D02*
X1620135D01*
X3088195Y5690155D02*
X3092125D01*
X3048835D02*
X3052765D01*
X3149825Y5499155D02*
X3153755D01*
X3189195D02*
X3193125D01*
X3231215Y5859985D02*
X3235145D01*
X3191845D02*
X3195775D01*
X2060825Y4986155D02*
X2064755D01*
X2100195D02*
X2104125D01*
X2169825Y4985155D02*
X2173755D01*
X2209195D02*
X2213125D01*
X2204845Y4697985D02*
X2208775D01*
X2244215D02*
X2248145D01*
X3112205Y5285155D02*
X3116135D01*
X3072835D02*
X3076765D01*
X3111195Y5247155D02*
X3115125D01*
X3071835D02*
X3075765D01*
G54D10*
X1979800Y4515985D03*
X1914800D03*
X3259000Y5814985D03*
X3194000D03*
X3269980Y4614155D03*
X3334980D03*
X1734430Y5310465D03*
X1799430D03*
X541430Y4230465D03*
X476430D03*
X3334980Y4558155D03*
X3269980D03*
X3147980Y5331155D03*
X3082980D03*
X2971500Y4313145D03*
X2906500D03*
X2240980Y5185155D03*
X2305980D03*
Y5240155D03*
X2240980D03*
G54D12*
X2943895Y5027545D02*
X3048225D01*
X3247045Y4385815D02*
X3351375D01*
X2869095D02*
X2973425D01*
X2748030Y4589554D02*
Y4654515D01*
Y4723414D02*
Y4788375D01*
G54D13*
X154000Y4364145D03*
G54D11*
X3184480Y5690510D02*
Y5694440D01*
Y5729870D02*
Y5733800D01*
X2994480Y5461870D02*
Y5465800D01*
Y5422510D02*
Y5426440D01*
X3043480Y4507500D02*
Y4511430D01*
Y4546870D02*
Y4550800D01*
X2976480Y4528500D02*
Y4532430D01*
Y4567870D02*
Y4571800D01*
X3077000Y4335870D02*
Y4339800D01*
Y4296500D02*
Y4300430D01*
X2993000Y4897870D02*
Y4901800D01*
Y4858500D02*
Y4862430D01*
X3180000Y4858500D02*
Y4862430D01*
Y4897870D02*
Y4901800D01*
X3413000Y4868500D02*
Y4872430D01*
Y4907870D02*
Y4911800D01*
X3306000Y4867500D02*
Y4871430D01*
Y4906870D02*
Y4910800D01*
X2611930Y4298810D02*
Y4302740D01*
Y4338180D02*
Y4342110D01*
X2576930Y4298810D02*
Y4302740D01*
Y4338180D02*
Y4342110D01*
X1928480Y5964880D02*
Y5968810D01*
Y5925500D02*
Y5929430D01*
X859480Y4439880D02*
Y4443810D01*
Y4400510D02*
Y4404440D01*
X1664500Y5248620D02*
Y5252550D01*
Y5209240D02*
Y5213170D01*
X3222480Y4868870D02*
Y4872800D01*
Y4829500D02*
Y4833430D01*
X1611930Y5043810D02*
Y5047740D01*
Y5083180D02*
Y5087110D01*
X1651930Y5083180D02*
Y5087110D01*
Y5043810D02*
Y5047740D01*
X1566930Y5043810D02*
Y5047740D01*
Y5083180D02*
Y5087110D01*
X315500Y5603700D02*
Y5607630D01*
Y5564330D02*
Y5568260D01*
X414500Y5718250D02*
Y5722180D01*
Y5757610D02*
Y5761540D01*
X2751930Y5948810D02*
Y5952740D01*
Y5988180D02*
Y5992110D01*
X245500Y5564560D02*
Y5568490D01*
Y5603930D02*
Y5607860D01*
X280500Y5603930D02*
Y5607860D01*
Y5564560D02*
Y5568490D01*
X2621930Y4936340D02*
Y4940270D01*
Y4975710D02*
Y4979640D01*
X3273000Y4821500D02*
Y4825430D01*
Y4860870D02*
Y4864800D01*
X3305500Y5951700D02*
Y5955630D01*
Y5912330D02*
Y5916260D01*
X3340500Y5912330D02*
Y5916260D01*
Y5951700D02*
Y5955630D01*
X2393480Y5106510D02*
Y5110440D01*
Y5145880D02*
Y5149810D01*
X2327650Y4844870D02*
Y4848800D01*
Y4805500D02*
Y4809430D01*
X2104930Y4866980D02*
Y4870910D01*
Y4827610D02*
Y4831540D01*
X3191480Y5539510D02*
Y5543440D01*
Y5578870D02*
Y5582800D01*
X3148480Y5729870D02*
Y5733800D01*
Y5690510D02*
Y5694440D01*
G54D14*
X1133865Y4755895D02*
X1165355D01*
X1133865Y4307075D02*
X1165355D01*
G54D15*
X1777480Y5772155D03*
X2673230Y4303135D03*
X3149610Y5444875D03*
X3220470Y4311015D03*
X2952760Y5377945D03*
X1515750Y4318885D03*
X1610240D03*
X1688980D03*
X1767720D03*
X2496060Y4578725D03*
X2874020Y5259835D03*
X118110Y5929125D03*
X3141730Y4311015D03*
X157480Y4479405D03*
X1846460Y4318885D03*
X3307090Y5751955D03*
X2952760Y5614165D03*
X2846460Y5555105D03*
X3011810Y5947915D03*
X807090Y4728335D03*
X733480Y4295155D03*
X2874020Y5948805D03*
X3090550Y5751955D03*
X2507870Y5287395D03*
X2224410Y4499985D03*
X3425200Y5751955D03*
X2598420Y4397625D03*
X1377950Y5161405D03*
X2519690Y5169285D03*
X1503940Y5208655D03*
Y5129915D03*
X1673230Y5476365D03*
X2755900Y5259835D03*
X2125980Y5586605D03*
Y5948805D03*
X2283460Y4964555D03*
X2874020Y5141725D03*
X2905510Y4452745D03*
X3188980Y4444875D03*
X2791340Y4539355D03*
X2952760Y5259835D03*
X314960Y4826765D03*
X2677170Y5259835D03*
X1437010Y4251065D03*
X2696850Y5106285D03*
X1259840Y4247125D03*
X2125980Y4703815D03*
X1515750Y4251065D03*
X358270Y4236215D03*
X279530D03*
X200790D03*
X2145670Y4448805D03*
X614170Y5912475D03*
Y5991215D03*
G36*
X823990Y5299665D02*
X807290Y5316365D01*
X821210Y5330285D01*
X837910Y5313585D01*
X823990Y5299665D01*
G37*
G36*
X851830Y5271825D02*
X835130Y5288525D01*
X849050Y5302445D01*
X865750Y5285745D01*
X851830Y5271825D01*
G37*
G54D16*
X2051455Y5112065D02*
X2173505D01*
X2051455Y5226245D02*
X2173505D01*
X2381905Y4860345D02*
X2503955D01*
X2381905Y4746175D02*
X2503955D01*
G54D17*
X1871030Y5463095D02*
Y5482095D01*
X1851340Y5463095D02*
Y5482095D01*
X1831660Y5463095D02*
Y5482095D01*
X1811970Y5463095D02*
Y5482095D01*
Y5418615D02*
Y5437615D01*
X1831660Y5418615D02*
Y5437615D01*
X1851340Y5418615D02*
Y5437615D01*
X1871030Y5418615D02*
Y5437615D01*
X1777030Y5463095D02*
Y5482095D01*
X1757340Y5463095D02*
Y5482095D01*
X1737660Y5463095D02*
Y5482095D01*
X1717970Y5463095D02*
Y5482095D01*
Y5418615D02*
Y5437615D01*
X1737660Y5418615D02*
Y5437615D01*
X1757340Y5418615D02*
Y5437615D01*
X1777030Y5418615D02*
Y5437615D01*
G54D16*
X352410Y5832870D02*
Y5954920D01*
X466580Y5832870D02*
Y5954920D01*
G54D18*
X901595Y4517195D02*
X915365D01*
X901595Y4397115D02*
X915365D01*
G54D19*
X3132380Y4423155D03*
X3111510D03*
G54D12*
X2748030Y4422234D02*
Y4467515D01*
X2825790Y4842505D02*
X2867130D01*
X2893700Y4927154D02*
Y4978335D01*
X3243110Y5027545D02*
X3260830D01*
X3291340Y4987194D02*
Y5004915D01*
X3367125Y4964555D02*
X3388775D01*
X3437010Y4711599D02*
Y4815930D01*
Y4455699D02*
Y4560030D01*
X3067910Y4385815D02*
X3113190D01*
G54D20*
X3068150Y5408465D02*
Y5421465D01*
X3054370Y5408465D02*
Y5421465D01*
X3040590Y5408465D02*
Y5421465D01*
X3026810Y5408465D02*
Y5421465D01*
Y5434845D02*
Y5447845D01*
X3040590Y5434845D02*
Y5447845D01*
X3054370Y5434845D02*
Y5447845D01*
X3068150Y5434845D02*
Y5447845D01*
G54D21*
X2242930Y4851755D02*
Y4876755D01*
X2280330Y4851755D02*
Y4876755D01*
Y4739755D02*
Y4764755D01*
X2242930Y4739755D02*
Y4764755D01*
X2205530Y4739755D02*
Y4764755D01*
Y4851755D02*
Y4876755D01*
G54D22*
X3122060Y4874095D02*
X3129940D01*
X3039380D02*
X3047260D01*
X3039380Y4933145D02*
X3047260D01*
X3122060D02*
X3129940D01*
G54D23*
X2252020Y5144745D02*
X2268160D01*
X2252020Y5119155D02*
X2268160D01*
X2252020Y5093565D02*
X2268160D01*
X2328800D02*
X2344940D01*
X2328800Y5119155D02*
X2344940D01*
X2328800Y5144745D02*
X2344940D01*
G54D24*
X2298480Y5107345D02*
Y5130965D01*
G36*
X440160Y4279705D02*
X417960Y4287785D01*
X424700Y4306285D01*
X446900Y4298205D01*
X440160Y4279705D01*
G37*
G36*
X477160Y4266235D02*
X454960Y4274315D01*
X461700Y4292815D01*
X483900Y4284735D01*
X477160Y4266235D01*
G37*
G36*
X712290Y5563765D02*
X728990Y5580465D01*
X742910Y5566545D01*
X726210Y5549845D01*
X712290Y5563765D01*
G37*
G36*
X740130Y5591605D02*
X756830Y5608305D01*
X770750Y5594385D01*
X754050Y5577685D01*
X740130Y5591605D01*
G37*
G36*
X707290Y5480765D02*
X723990Y5497465D01*
X737910Y5483545D01*
X721210Y5466845D01*
X707290Y5480765D01*
G37*
G36*
X735130Y5508605D02*
X751830Y5525305D01*
X765750Y5511385D01*
X749050Y5494685D01*
X735130Y5508605D01*
G37*
G36*
X865130Y5373605D02*
X881830Y5390305D01*
X895750Y5376385D01*
X879050Y5359685D01*
X865130Y5373605D01*
G37*
G36*
X837290Y5345765D02*
X853990Y5362465D01*
X867910Y5348545D01*
X851210Y5331845D01*
X837290Y5345765D01*
G37*
G36*
X930130Y5438605D02*
X946830Y5455305D01*
X960750Y5441385D01*
X944050Y5424685D01*
X930130Y5438605D01*
G37*
G36*
X902290Y5410765D02*
X918990Y5427465D01*
X932910Y5413545D01*
X916210Y5396845D01*
X902290Y5410765D01*
G37*
G36*
X481740Y5312265D02*
X498440Y5328965D01*
X512360Y5315045D01*
X495660Y5298345D01*
X481740Y5312265D01*
G37*
G36*
X453910Y5284425D02*
X470610Y5301125D01*
X484530Y5287205D01*
X467830Y5270505D01*
X453910Y5284425D01*
G37*
G36*
X537290Y5365765D02*
X553990Y5382465D01*
X567910Y5368545D01*
X551210Y5351845D01*
X537290Y5365765D01*
G37*
G36*
X565130Y5393605D02*
X581830Y5410305D01*
X595750Y5396385D01*
X579050Y5379685D01*
X565130Y5393605D01*
G37*
G36*
X670130Y5358605D02*
X686830Y5375305D01*
X700750Y5361385D01*
X684050Y5344685D01*
X670130Y5358605D01*
G37*
G36*
X642290Y5330765D02*
X658990Y5347465D01*
X672910Y5333545D01*
X656210Y5316845D01*
X642290Y5330765D01*
G37*
G36*
X662410Y5163575D02*
X679110Y5180275D01*
X693030Y5166355D01*
X676330Y5149655D01*
X662410Y5163575D01*
G37*
G36*
X690250Y5191415D02*
X706950Y5208115D01*
X720870Y5194195D01*
X704170Y5177495D01*
X690250Y5191415D01*
G37*
G36*
X594610Y5103085D02*
X611310Y5119785D01*
X625230Y5105865D01*
X608530Y5089165D01*
X594610Y5103085D01*
G37*
G36*
X622450Y5130925D02*
X639150Y5147625D01*
X653070Y5133705D01*
X636370Y5117005D01*
X622450Y5130925D01*
G37*
G36*
X657210Y5491605D02*
X673910Y5508305D01*
X687830Y5494385D01*
X671130Y5477685D01*
X657210Y5491605D01*
G37*
G36*
X629370Y5463765D02*
X646070Y5480465D01*
X659990Y5466545D01*
X643290Y5449845D01*
X629370Y5463765D01*
G37*
G54D25*
X964570Y4679115D02*
X1043310D01*
X964570Y4620065D02*
X1043310D01*
X964570Y4561005D02*
X1043310D01*
X964570Y4501955D02*
X1043310D01*
X964570Y4442895D02*
X1043310D01*
X964570Y4383845D02*
X1043310D01*
G54D26*
X279090Y5653500D02*
Y5665310D01*
X355870Y5653500D02*
Y5665310D01*
X353900Y5747990D02*
Y5759800D01*
X316500Y5747990D02*
Y5759800D01*
X279090Y5747990D02*
Y5759800D01*
X3527555Y4748025D02*
X3543305D01*
G54D27*
X3554130Y4752940D02*
Y4758850D01*
X3516730Y4752940D02*
Y4758850D01*
G54D24*
X3519685Y4622035D02*
X3551175D01*
G54D26*
X3091890Y5539635D02*
Y5559315D01*
X3143070Y5539635D02*
Y5559315D01*
Y5628225D02*
Y5647905D01*
X3117480Y5628225D02*
Y5647905D01*
X3091890Y5628225D02*
Y5647905D01*
G54D28*
X3191970Y5953010D02*
Y5954000D01*
X3211650Y5953010D02*
Y5954000D01*
X3231340Y5953010D02*
Y5954000D01*
X3251020Y5953010D02*
Y5954000D01*
Y5893960D02*
Y5894950D01*
X3231340Y5893960D02*
Y5894950D01*
X3211650Y5893960D02*
Y5894950D01*
X3191970Y5893960D02*
Y5894950D01*
X3250535Y5933825D02*
X3251525D01*
X3250525Y5914135D02*
X3251515D01*
X3191475Y5914145D02*
X3192465D01*
X3191475Y5933825D02*
X3192465D01*
G54D24*
X2074080Y5034250D02*
Y5046060D01*
X2474530Y4925350D02*
Y4937160D01*
G54D14*
X2131165Y5040155D02*
X2166595D01*
X2531615Y4931255D02*
X2567045D01*
G54D29*
X3111930Y4688465D03*
G54D30*
X3180830Y4773105D02*
Y4794765D01*
X3161140Y4773105D02*
Y4794765D01*
X3141460Y4773105D02*
Y4794765D01*
X3121770Y4773105D02*
Y4794765D01*
X3102090Y4773105D02*
Y4794765D01*
X3082400Y4773105D02*
Y4794765D01*
X3062720Y4773105D02*
Y4794765D01*
X3043030Y4773105D02*
Y4794765D01*
Y4582155D02*
Y4603815D01*
X3062720Y4582155D02*
Y4603815D01*
X3082400Y4582155D02*
Y4603815D01*
X3102090Y4582155D02*
Y4603815D01*
X3121770Y4582155D02*
Y4603815D01*
X3141460Y4582155D02*
Y4603815D01*
X3161140Y4582155D02*
Y4603815D01*
X3180830Y4582155D02*
Y4603815D01*
X3005630Y4757365D02*
X3027290D01*
X3005630Y4737675D02*
X3027290D01*
X3005630Y4717995D02*
X3027290D01*
X3005630Y4698305D02*
X3027290D01*
X3005630Y4678615D02*
X3027290D01*
X3005630Y4658935D02*
X3027290D01*
X3005630Y4639245D02*
X3027290D01*
X3005630Y4619565D02*
X3027290D01*
X3196570D02*
X3218230D01*
X3196570Y4639245D02*
X3218230D01*
X3196570Y4658935D02*
X3218230D01*
X3196570Y4678615D02*
X3218230D01*
X3196570Y4698305D02*
X3218230D01*
X3196570Y4717995D02*
X3218230D01*
X3196570Y4737675D02*
X3218230D01*
X3196570Y4757365D02*
X3218230D01*
G54D10*
X6706640Y346594D03*
Y411594D03*
X7212590Y617104D03*
Y682104D03*
X5704640Y1984654D03*
Y2049654D03*
X5649640D03*
Y1984654D03*
X4793460Y1234484D03*
Y1299484D03*
X4495640Y459654D03*
Y524654D03*
X4086660Y1659394D03*
Y1724394D03*
X4141660Y1822394D03*
Y1757394D03*
X6379090Y2015964D03*
Y2080964D03*
X6474090Y2018484D03*
Y2083484D03*
X4197660Y1758394D03*
Y1823394D03*
X6245090Y859754D03*
Y924754D03*
X5826090Y866754D03*
Y931754D03*
G54D11*
X6511355Y666464D02*
X6515285D01*
X6471985D02*
X6475915D01*
X6511355Y701464D02*
X6515285D01*
X6471985D02*
X6475915D01*
X6511355Y806464D02*
X6515285D01*
X6471985D02*
X6475915D01*
X6511355Y841464D02*
X6515285D01*
X6471985D02*
X6475915D01*
X6616925Y876324D02*
X6620855D01*
X6577545D02*
X6581475D01*
X6983365Y722154D02*
X6987295D01*
X6943995D02*
X6947925D01*
X6770155Y613144D02*
X6774085D01*
X6809525D02*
X6813455D01*
X6888515Y988144D02*
X6892445D01*
X6927885D02*
X6931815D01*
X6927885Y1022144D02*
X6931815D01*
X6888515D02*
X6892445D01*
X6802985Y576154D02*
X6806915D01*
X6842365D02*
X6846295D01*
X6789365Y1438154D02*
X6793295D01*
X6749995D02*
X6753925D01*
X6789365Y1541154D02*
X6793295D01*
X6749995D02*
X6753925D01*
X6925355Y576154D02*
X6929285D01*
X6885985D02*
X6889915D01*
X6511355Y736464D02*
X6515285D01*
X6471985D02*
X6475915D01*
X6616745Y841694D02*
X6620675D01*
X6577365D02*
X6581295D01*
X6611805Y806464D02*
X6615735D01*
X6572435D02*
X6576365D01*
X6611805Y736464D02*
X6615735D01*
X6572435D02*
X6576365D01*
X6611805Y701464D02*
X6615735D01*
X6572435D02*
X6576365D01*
X6611805Y666464D02*
X6615735D01*
X6572435D02*
X6576365D01*
X7053875Y931144D02*
X7057805D01*
X7014505D02*
X7018435D01*
X5982355Y1109154D02*
X5986285D01*
X5942995D02*
X5946925D01*
X4509805Y677984D02*
X4513735D01*
X4549175D02*
X4553105D01*
X6943995Y757154D02*
X6947925D01*
X6983365D02*
X6987295D01*
X5400805Y920984D02*
X5404735D01*
X5440175D02*
X5444105D01*
X5622435Y853464D02*
X5626365D01*
X5661805D02*
X5665735D01*
X5661805Y977984D02*
X5665735D01*
X5622435D02*
X5626365D01*
X5622435Y1054984D02*
X5626365D01*
X5661805D02*
X5665735D01*
X5661805Y1096984D02*
X5665735D01*
X5622435D02*
X5626365D01*
X5622435Y753464D02*
X5626365D01*
X5661805D02*
X5665735D01*
X4510505Y719144D02*
X4514435D01*
X4549875D02*
X4553805D01*
X5622435Y793464D02*
X5626365D01*
X5661805D02*
X5665735D01*
X6804375Y1970154D02*
X6808305D01*
X6765005D02*
X6768935D01*
X6804375Y2005984D02*
X6808305D01*
X6765005D02*
X6768935D01*
X6888515Y1055144D02*
X6892445D01*
X6927885D02*
X6931815D01*
X6216805Y403464D02*
X6220735D01*
X6177435D02*
X6181365D01*
X6177435Y368464D02*
X6181365D01*
X6216805D02*
X6220735D01*
X5253985Y2046154D02*
X5257915D01*
X5293365D02*
X5297295D01*
X5253985Y2009154D02*
X5257915D01*
X5293365D02*
X5297295D01*
X6765355Y1753154D02*
X6769285D01*
X6725995D02*
X6729925D01*
X6826985Y1562154D02*
X6830915D01*
X6866355D02*
X6870285D01*
X6908375Y1922984D02*
X6912305D01*
X6869005D02*
X6872935D01*
X5737985Y1049154D02*
X5741915D01*
X5777355D02*
X5781285D01*
X5846985Y1048154D02*
X5850915D01*
X5886355D02*
X5890285D01*
X5882005Y760984D02*
X5885935D01*
X5921375D02*
X5925305D01*
X6789365Y1348154D02*
X6793295D01*
X6749995D02*
X6753925D01*
X6788355Y1310154D02*
X6792285D01*
X6748995D02*
X6752925D01*
G54D10*
X5656960Y578984D03*
X5591960D03*
X6936160Y1877984D03*
X6871160D03*
X6947140Y677154D03*
X7012140D03*
X5411590Y1373464D03*
X5476590D03*
X4218590Y293464D03*
X4153590D03*
X7012140Y621154D03*
X6947140D03*
X6825140Y1394154D03*
X6760140D03*
X6648660Y376144D03*
X6583660D03*
X5918140Y1248154D03*
X5983140D03*
Y1303154D03*
X5918140D03*
G54D12*
X6621055Y1090544D02*
X6725386D01*
X6924205Y448814D02*
X7028536D01*
X6546255D02*
X6650586D01*
X6425190Y652554D02*
Y717515D01*
Y786414D02*
Y851375D01*
G54D13*
X3831160Y427144D03*
G54D11*
X6861640Y1753509D02*
Y1757439D01*
Y1792869D02*
Y1796799D01*
X6671640Y1524869D02*
Y1528799D01*
Y1485509D02*
Y1489439D01*
X6720640Y570499D02*
Y574429D01*
Y609869D02*
Y613799D01*
X6653640Y591499D02*
Y595429D01*
Y630869D02*
Y634799D01*
X6754160Y398869D02*
Y402799D01*
Y359499D02*
Y363429D01*
X6670160Y960869D02*
Y964799D01*
Y921499D02*
Y925429D01*
X6857160Y921499D02*
Y925429D01*
Y960869D02*
Y964799D01*
X7090160Y931499D02*
Y935429D01*
Y970869D02*
Y974799D01*
X6983160Y930499D02*
Y934429D01*
Y969869D02*
Y973799D01*
X6289090Y361809D02*
Y365739D01*
Y401179D02*
Y405109D01*
X6254090Y361809D02*
Y365739D01*
Y401179D02*
Y405109D01*
X5605640Y2027879D02*
Y2031809D01*
Y1988499D02*
Y1992429D01*
X4536640Y502879D02*
Y506809D01*
Y463509D02*
Y467439D01*
X5341660Y1311619D02*
Y1315549D01*
Y1272239D02*
Y1276169D01*
X6899640Y931869D02*
Y935799D01*
Y892499D02*
Y896429D01*
X5289090Y1106809D02*
Y1110739D01*
Y1146179D02*
Y1150109D01*
X5329090Y1146179D02*
Y1150109D01*
Y1106809D02*
Y1110739D01*
X5244090Y1106809D02*
Y1110739D01*
Y1146179D02*
Y1150109D01*
X3992660Y1666699D02*
Y1670629D01*
Y1627329D02*
Y1631259D01*
X4091660Y1781249D02*
Y1785179D01*
Y1820609D02*
Y1824539D01*
X6429090Y2011809D02*
Y2015739D01*
Y2051179D02*
Y2055109D01*
X3922660Y1627559D02*
Y1631489D01*
Y1666929D02*
Y1670859D01*
X3957660Y1666929D02*
Y1670859D01*
Y1627559D02*
Y1631489D01*
X6299090Y999339D02*
Y1003269D01*
Y1038709D02*
Y1042639D01*
X6950160Y884499D02*
Y888429D01*
Y923869D02*
Y927799D01*
X6982660Y2014699D02*
Y2018629D01*
Y1975329D02*
Y1979259D01*
X7017660Y1975329D02*
Y1979259D01*
Y2014699D02*
Y2018629D01*
X6070640Y1169509D02*
Y1173439D01*
Y1208879D02*
Y1212809D01*
X6004810Y907869D02*
Y911799D01*
Y868499D02*
Y872429D01*
X5782090Y929979D02*
Y933909D01*
Y890609D02*
Y894539D01*
X6868640Y1602509D02*
Y1606439D01*
Y1641869D02*
Y1645799D01*
X6825640Y1792869D02*
Y1796799D01*
Y1753509D02*
Y1757439D01*
G54D14*
X4811025Y818894D02*
X4842515D01*
X4811025Y370074D02*
X4842515D01*
G54D15*
X5454640Y1835154D03*
X6350390Y366134D03*
X6826770Y1507874D03*
X6897630Y374014D03*
X6629920Y1440944D03*
X5192910Y381884D03*
X5287400D03*
X5366140D03*
X5444880D03*
X6173220Y641724D03*
X6551180Y1322834D03*
X3795270Y1992124D03*
X6818890Y374014D03*
X3834640Y542404D03*
X5523620Y381884D03*
X6984250Y1814954D03*
X6629920Y1677164D03*
X6523620Y1618104D03*
X6688970Y2010914D03*
X4484250Y791334D03*
X4410640Y358154D03*
X6551180Y2011804D03*
X6767710Y1814954D03*
X6185030Y1350394D03*
X5901570Y562984D03*
X7102360Y1814954D03*
X6275580Y460624D03*
X5055110Y1224404D03*
X6196850Y1232284D03*
X5181100Y1271654D03*
Y1192914D03*
X5350390Y1539364D03*
X6433060Y1322834D03*
X5803140Y1649604D03*
Y2011804D03*
X5960620Y1027554D03*
X6551180Y1204724D03*
X6582670Y515744D03*
X6866140Y507874D03*
X6468500Y602354D03*
X6629920Y1322834D03*
X3992120Y889764D03*
X6354330Y1322834D03*
X5114170Y314064D03*
X6374010Y1169284D03*
X4937000Y310124D03*
X5803140Y766814D03*
X5192910Y314064D03*
X4035430Y299214D03*
X3956690D03*
X3877950D03*
X5822830Y511804D03*
X4291330Y1975474D03*
Y2054214D03*
G36*
X4501150Y1362664D02*
X4484450Y1379364D01*
X4498370Y1393284D01*
X4515070Y1376584D01*
X4501150Y1362664D01*
G37*
G36*
X4528990Y1334824D02*
X4512290Y1351524D01*
X4526210Y1365444D01*
X4542910Y1348744D01*
X4528990Y1334824D01*
G37*
G54D16*
X5728615Y1175064D02*
X5850665D01*
X5728615Y1289244D02*
X5850665D01*
X6059065Y923344D02*
X6181115D01*
X6059065Y809174D02*
X6181115D01*
G54D17*
X5548190Y1526094D02*
Y1545094D01*
X5528500Y1526094D02*
Y1545094D01*
X5508820Y1526094D02*
Y1545094D01*
X5489130Y1526094D02*
Y1545094D01*
Y1481614D02*
Y1500614D01*
X5508820Y1481614D02*
Y1500614D01*
X5528500Y1481614D02*
Y1500614D01*
X5548190Y1481614D02*
Y1500614D01*
X5454190Y1526094D02*
Y1545094D01*
X5434500Y1526094D02*
Y1545094D01*
X5414820Y1526094D02*
Y1545094D01*
X5395130Y1526094D02*
Y1545094D01*
Y1481614D02*
Y1500614D01*
X5414820Y1481614D02*
Y1500614D01*
X5434500Y1481614D02*
Y1500614D01*
X5454190Y1481614D02*
Y1500614D01*
G54D16*
X4029570Y1895869D02*
Y2017919D01*
X4143740Y1895869D02*
Y2017919D01*
G54D18*
X4578755Y580194D02*
X4592525D01*
X4578755Y460114D02*
X4592525D01*
G54D19*
X6809540Y486154D03*
X6788670D03*
G54D12*
X6425190Y485234D02*
Y530514D01*
X6502950Y905504D02*
X6544290D01*
X6570860Y990154D02*
Y1041334D01*
X6920270Y1090544D02*
X6937990D01*
X6968500Y1050194D02*
Y1067914D01*
X7044285Y1027554D02*
X7065935D01*
X7114170Y774599D02*
Y878930D01*
Y518699D02*
Y623030D01*
X6745070Y448814D02*
X6790350D01*
G54D20*
X6745310Y1471464D02*
Y1484464D01*
X6731530Y1471464D02*
Y1484464D01*
X6717750Y1471464D02*
Y1484464D01*
X6703970Y1471464D02*
Y1484464D01*
Y1497844D02*
Y1510844D01*
X6717750Y1497844D02*
Y1510844D01*
X6731530Y1497844D02*
Y1510844D01*
X6745310Y1497844D02*
Y1510844D01*
G54D21*
X5920090Y914754D02*
Y939754D01*
X5957490Y914754D02*
Y939754D01*
Y802754D02*
Y827754D01*
X5920090Y802754D02*
Y827754D01*
X5882690Y802754D02*
Y827754D01*
Y914754D02*
Y939754D01*
G54D22*
X6799220Y937094D02*
X6807100D01*
X6716540D02*
X6724420D01*
X6716540Y996144D02*
X6724420D01*
X6799220D02*
X6807100D01*
G54D23*
X5929180Y1207744D02*
X5945320D01*
X5929180Y1182154D02*
X5945320D01*
X5929180Y1156564D02*
X5945320D01*
X6005960D02*
X6022100D01*
X6005960Y1182154D02*
X6022100D01*
X6005960Y1207744D02*
X6022100D01*
G54D24*
X5975640Y1170344D02*
Y1193964D01*
G36*
X4117320Y342704D02*
X4095120Y350784D01*
X4101860Y369284D01*
X4124060Y361204D01*
X4117320Y342704D01*
G37*
G36*
X4154320Y329234D02*
X4132120Y337314D01*
X4138860Y355814D01*
X4161060Y347734D01*
X4154320Y329234D01*
G37*
G36*
X4389450Y1626764D02*
X4406150Y1643464D01*
X4420070Y1629544D01*
X4403370Y1612844D01*
X4389450Y1626764D01*
G37*
G36*
X4417290Y1654604D02*
X4433990Y1671304D01*
X4447910Y1657384D01*
X4431210Y1640684D01*
X4417290Y1654604D01*
G37*
G36*
X4384450Y1543764D02*
X4401150Y1560464D01*
X4415070Y1546544D01*
X4398370Y1529844D01*
X4384450Y1543764D01*
G37*
G36*
X4412290Y1571604D02*
X4428990Y1588304D01*
X4442910Y1574384D01*
X4426210Y1557684D01*
X4412290Y1571604D01*
G37*
G36*
X4542290Y1436604D02*
X4558990Y1453304D01*
X4572910Y1439384D01*
X4556210Y1422684D01*
X4542290Y1436604D01*
G37*
G36*
X4514450Y1408764D02*
X4531150Y1425464D01*
X4545070Y1411544D01*
X4528370Y1394844D01*
X4514450Y1408764D01*
G37*
G36*
X4607290Y1501604D02*
X4623990Y1518304D01*
X4637910Y1504384D01*
X4621210Y1487684D01*
X4607290Y1501604D01*
G37*
G36*
X4579450Y1473764D02*
X4596150Y1490464D01*
X4610070Y1476544D01*
X4593370Y1459844D01*
X4579450Y1473764D01*
G37*
G36*
X4158900Y1375264D02*
X4175600Y1391964D01*
X4189520Y1378044D01*
X4172820Y1361344D01*
X4158900Y1375264D01*
G37*
G36*
X4131070Y1347424D02*
X4147770Y1364124D01*
X4161690Y1350204D01*
X4144990Y1333504D01*
X4131070Y1347424D01*
G37*
G36*
X4214450Y1428764D02*
X4231150Y1445464D01*
X4245070Y1431544D01*
X4228370Y1414844D01*
X4214450Y1428764D01*
G37*
G36*
X4242290Y1456604D02*
X4258990Y1473304D01*
X4272910Y1459384D01*
X4256210Y1442684D01*
X4242290Y1456604D01*
G37*
G36*
X4347290Y1421604D02*
X4363990Y1438304D01*
X4377910Y1424384D01*
X4361210Y1407684D01*
X4347290Y1421604D01*
G37*
G36*
X4319450Y1393764D02*
X4336150Y1410464D01*
X4350070Y1396544D01*
X4333370Y1379844D01*
X4319450Y1393764D01*
G37*
G36*
X4339570Y1226574D02*
X4356270Y1243274D01*
X4370190Y1229354D01*
X4353490Y1212654D01*
X4339570Y1226574D01*
G37*
G36*
X4367410Y1254414D02*
X4384110Y1271114D01*
X4398030Y1257194D01*
X4381330Y1240494D01*
X4367410Y1254414D01*
G37*
G36*
X4271770Y1166084D02*
X4288470Y1182784D01*
X4302390Y1168864D01*
X4285690Y1152164D01*
X4271770Y1166084D01*
G37*
G36*
X4299610Y1193924D02*
X4316310Y1210624D01*
X4330230Y1196704D01*
X4313530Y1180004D01*
X4299610Y1193924D01*
G37*
G36*
X4334370Y1554604D02*
X4351070Y1571304D01*
X4364990Y1557384D01*
X4348290Y1540684D01*
X4334370Y1554604D01*
G37*
G36*
X4306530Y1526764D02*
X4323230Y1543464D01*
X4337150Y1529544D01*
X4320450Y1512844D01*
X4306530Y1526764D01*
G37*
G54D25*
X4641730Y742114D02*
X4720470D01*
X4641730Y683064D02*
X4720470D01*
X4641730Y624004D02*
X4720470D01*
X4641730Y564954D02*
X4720470D01*
X4641730Y505894D02*
X4720470D01*
X4641730Y446844D02*
X4720470D01*
G54D26*
X3956250Y1716499D02*
Y1728309D01*
X4033030Y1716499D02*
Y1728309D01*
X4031060Y1810989D02*
Y1822799D01*
X3993660Y1810989D02*
Y1822799D01*
X3956250Y1810989D02*
Y1822799D01*
X7204715Y811024D02*
X7220465D01*
G54D27*
X7231290Y815939D02*
Y821849D01*
X7193890Y815939D02*
Y821849D01*
G54D24*
X7196845Y685034D02*
X7228335D01*
G54D26*
X6769050Y1602634D02*
Y1622314D01*
X6820230Y1602634D02*
Y1622314D01*
Y1691224D02*
Y1710904D01*
X6794640Y1691224D02*
Y1710904D01*
X6769050Y1691224D02*
Y1710904D01*
G54D28*
X6869130Y2016009D02*
Y2016999D01*
X6888810Y2016009D02*
Y2016999D01*
X6908500Y2016009D02*
Y2016999D01*
X6928180Y2016009D02*
Y2016999D01*
Y1956959D02*
Y1957949D01*
X6908500Y1956959D02*
Y1957949D01*
X6888810Y1956959D02*
Y1957949D01*
X6869130Y1956959D02*
Y1957949D01*
X6927695Y1996824D02*
X6928685D01*
X6927685Y1977134D02*
X6928675D01*
X6868635Y1977144D02*
X6869625D01*
X6868635Y1996824D02*
X6869625D01*
G54D24*
X5751240Y1097249D02*
Y1109059D01*
X6151690Y988349D02*
Y1000159D01*
G54D14*
X5808325Y1103154D02*
X5843755D01*
X6208775Y994254D02*
X6244205D01*
G54D29*
X6789090Y751464D03*
G54D30*
X6857990Y836104D02*
Y857764D01*
X6838300Y836104D02*
Y857764D01*
X6818620Y836104D02*
Y857764D01*
X6798930Y836104D02*
Y857764D01*
X6779250Y836104D02*
Y857764D01*
X6759560Y836104D02*
Y857764D01*
X6739880Y836104D02*
Y857764D01*
X6720190Y836104D02*
Y857764D01*
Y645154D02*
Y666814D01*
X6739880Y645154D02*
Y666814D01*
X6759560Y645154D02*
Y666814D01*
X6779250Y645154D02*
Y666814D01*
X6798930Y645154D02*
Y666814D01*
X6818620Y645154D02*
Y666814D01*
X6838300Y645154D02*
Y666814D01*
X6857990Y645154D02*
Y666814D01*
X6682790Y820364D02*
X6704450D01*
X6682790Y800674D02*
X6704450D01*
X6682790Y780994D02*
X6704450D01*
X6682790Y761304D02*
X6704450D01*
X6682790Y741614D02*
X6704450D01*
X6682790Y721934D02*
X6704450D01*
X6682790Y702244D02*
X6704450D01*
X6682790Y682564D02*
X6704450D01*
X6873730D02*
X6895390D01*
X6873730Y702244D02*
X6895390D01*
X6873730Y721934D02*
X6895390D01*
X6873730Y741614D02*
X6895390D01*
X6873730Y761304D02*
X6895390D01*
X6873730Y780994D02*
X6895390D01*
X6873730Y800674D02*
X6895390D01*
X6873730Y820364D02*
X6895390D01*
G54D10*
X6706640Y2315094D03*
Y2380094D03*
X7212590Y2585604D03*
Y2650604D03*
X5704640Y3953154D03*
Y4018154D03*
X5649640D03*
Y3953154D03*
X4793460Y3202984D03*
Y3267984D03*
X4495640Y2428154D03*
Y2493154D03*
X4086660Y3627894D03*
Y3692894D03*
X4141660Y3790894D03*
Y3725894D03*
X6379090Y3984464D03*
Y4049464D03*
X6474090Y3986984D03*
Y4051984D03*
X4197660Y3726894D03*
Y3791894D03*
X6245090Y2828254D03*
Y2893254D03*
X5826090Y2835254D03*
Y2900254D03*
G54D11*
X6511355Y2634964D02*
X6515285D01*
X6471985D02*
X6475915D01*
X6511355Y2669964D02*
X6515285D01*
X6471985D02*
X6475915D01*
X6511355Y2774964D02*
X6515285D01*
X6471985D02*
X6475915D01*
X6511355Y2809964D02*
X6515285D01*
X6471985D02*
X6475915D01*
X6616925Y2844824D02*
X6620855D01*
X6577545D02*
X6581475D01*
X6983365Y2690654D02*
X6987295D01*
X6943995D02*
X6947925D01*
X6770155Y2581644D02*
X6774085D01*
X6809525D02*
X6813455D01*
X6888515Y2956644D02*
X6892445D01*
X6927885D02*
X6931815D01*
X6927885Y2990644D02*
X6931815D01*
X6888515D02*
X6892445D01*
X6802985Y2544654D02*
X6806915D01*
X6842365D02*
X6846295D01*
X6789365Y3406654D02*
X6793295D01*
X6749995D02*
X6753925D01*
X6789365Y3509654D02*
X6793295D01*
X6749995D02*
X6753925D01*
X6925355Y2544654D02*
X6929285D01*
X6885985D02*
X6889915D01*
X6511355Y2704964D02*
X6515285D01*
X6471985D02*
X6475915D01*
X6616745Y2810194D02*
X6620675D01*
X6577365D02*
X6581295D01*
X6611805Y2774964D02*
X6615735D01*
X6572435D02*
X6576365D01*
X6611805Y2704964D02*
X6615735D01*
X6572435D02*
X6576365D01*
X6611805Y2669964D02*
X6615735D01*
X6572435D02*
X6576365D01*
X6611805Y2634964D02*
X6615735D01*
X6572435D02*
X6576365D01*
X7053875Y2899644D02*
X7057805D01*
X7014505D02*
X7018435D01*
X5982355Y3077654D02*
X5986285D01*
X5942995D02*
X5946925D01*
X4509805Y2646484D02*
X4513735D01*
X4549175D02*
X4553105D01*
X6943995Y2725654D02*
X6947925D01*
X6983365D02*
X6987295D01*
X5400805Y2889484D02*
X5404735D01*
X5440175D02*
X5444105D01*
X5622435Y2821964D02*
X5626365D01*
X5661805D02*
X5665735D01*
X5661805Y2946484D02*
X5665735D01*
X5622435D02*
X5626365D01*
X5622435Y3023484D02*
X5626365D01*
X5661805D02*
X5665735D01*
X5661805Y3065484D02*
X5665735D01*
X5622435D02*
X5626365D01*
X5622435Y2721964D02*
X5626365D01*
X5661805D02*
X5665735D01*
X4510505Y2687644D02*
X4514435D01*
X4549875D02*
X4553805D01*
X5622435Y2761964D02*
X5626365D01*
X5661805D02*
X5665735D01*
X6804375Y3938654D02*
X6808305D01*
X6765005D02*
X6768935D01*
X6804375Y3974484D02*
X6808305D01*
X6765005D02*
X6768935D01*
X6888515Y3023644D02*
X6892445D01*
X6927885D02*
X6931815D01*
X6216805Y2371964D02*
X6220735D01*
X6177435D02*
X6181365D01*
X6177435Y2336964D02*
X6181365D01*
X6216805D02*
X6220735D01*
X5253985Y4014654D02*
X5257915D01*
X5293365D02*
X5297295D01*
X5253985Y3977654D02*
X5257915D01*
X5293365D02*
X5297295D01*
X6765355Y3721654D02*
X6769285D01*
X6725995D02*
X6729925D01*
X6826985Y3530654D02*
X6830915D01*
X6866355D02*
X6870285D01*
X6908375Y3891484D02*
X6912305D01*
X6869005D02*
X6872935D01*
X5737985Y3017654D02*
X5741915D01*
X5777355D02*
X5781285D01*
X5846985Y3016654D02*
X5850915D01*
X5886355D02*
X5890285D01*
X5882005Y2729484D02*
X5885935D01*
X5921375D02*
X5925305D01*
X6789365Y3316654D02*
X6793295D01*
X6749995D02*
X6753925D01*
X6788355Y3278654D02*
X6792285D01*
X6748995D02*
X6752925D01*
G54D10*
X5656960Y2547484D03*
X5591960D03*
X6936160Y3846484D03*
X6871160D03*
X6947140Y2645654D03*
X7012140D03*
X5411590Y3341964D03*
X5476590D03*
X4218590Y2261964D03*
X4153590D03*
X7012140Y2589654D03*
X6947140D03*
X6825140Y3362654D03*
X6760140D03*
X6648660Y2344644D03*
X6583660D03*
X5918140Y3216654D03*
X5983140D03*
Y3271654D03*
X5918140D03*
G54D12*
X6621055Y3059044D02*
X6725386D01*
X6924205Y2417314D02*
X7028536D01*
X6546255D02*
X6650586D01*
X6425190Y2621054D02*
Y2686015D01*
Y2754914D02*
Y2819875D01*
G54D13*
X3831160Y2395644D03*
G54D11*
X6861640Y3722009D02*
Y3725939D01*
Y3761369D02*
Y3765299D01*
X6671640Y3493369D02*
Y3497299D01*
Y3454009D02*
Y3457939D01*
X6720640Y2539000D02*
Y2542929D01*
Y2578369D02*
Y2582299D01*
X6653640Y2560000D02*
Y2563929D01*
Y2599369D02*
Y2603299D01*
X6754160Y2367369D02*
Y2371299D01*
Y2328000D02*
Y2331929D01*
X6670160Y2929369D02*
Y2933299D01*
Y2890000D02*
Y2893929D01*
X6857160Y2890000D02*
Y2893929D01*
Y2929369D02*
Y2933299D01*
X7090160Y2900000D02*
Y2903929D01*
Y2939369D02*
Y2943299D01*
X6983160Y2899000D02*
Y2902929D01*
Y2938369D02*
Y2942299D01*
X6289090Y2330309D02*
Y2334239D01*
Y2369679D02*
Y2373609D01*
X6254090Y2330309D02*
Y2334239D01*
Y2369679D02*
Y2373609D01*
X5605640Y3996379D02*
Y4000309D01*
Y3957000D02*
Y3960929D01*
X4536640Y2471379D02*
Y2475309D01*
Y2432009D02*
Y2435939D01*
X5341660Y3280119D02*
Y3284049D01*
Y3240739D02*
Y3244669D01*
X6899640Y2900369D02*
Y2904299D01*
Y2861000D02*
Y2864929D01*
X5289090Y3075309D02*
Y3079239D01*
Y3114679D02*
Y3118609D01*
X5329090Y3114679D02*
Y3118609D01*
Y3075309D02*
Y3079239D01*
X5244090Y3075309D02*
Y3079239D01*
Y3114679D02*
Y3118609D01*
X3992660Y3635200D02*
Y3639129D01*
Y3595829D02*
Y3599759D01*
X4091660Y3749750D02*
Y3753679D01*
Y3789109D02*
Y3793039D01*
X6429090Y3980309D02*
Y3984239D01*
Y4019679D02*
Y4023609D01*
X3922660Y3596059D02*
Y3599989D01*
Y3635429D02*
Y3639359D01*
X3957660Y3635429D02*
Y3639359D01*
Y3596059D02*
Y3599989D01*
X6299090Y2967839D02*
Y2971769D01*
Y3007209D02*
Y3011139D01*
X6950160Y2853000D02*
Y2856929D01*
Y2892369D02*
Y2896299D01*
X6982660Y3983200D02*
Y3987129D01*
Y3943829D02*
Y3947759D01*
X7017660Y3943829D02*
Y3947759D01*
Y3983200D02*
Y3987129D01*
X6070640Y3138009D02*
Y3141939D01*
Y3177379D02*
Y3181309D01*
X6004810Y2876369D02*
Y2880299D01*
Y2837000D02*
Y2840929D01*
X5782090Y2898479D02*
Y2902409D01*
Y2859109D02*
Y2863039D01*
X6868640Y3571009D02*
Y3574939D01*
Y3610369D02*
Y3614299D01*
X6825640Y3761369D02*
Y3765299D01*
Y3722009D02*
Y3725939D01*
G54D14*
X4811025Y2787394D02*
X4842515D01*
X4811025Y2338574D02*
X4842515D01*
G54D15*
X5454640Y3803654D03*
X6350390Y2334634D03*
X6826770Y3476374D03*
X6897630Y2342514D03*
X6629920Y3409444D03*
X5192910Y2350384D03*
X5287400D03*
X5366140D03*
X5444880D03*
X6173220Y2610224D03*
X6551180Y3291334D03*
X3795270Y3960624D03*
X6818890Y2342514D03*
X3834640Y2510904D03*
X5523620Y2350384D03*
X6984250Y3783454D03*
X6629920Y3645664D03*
X6523620Y3586604D03*
X6688970Y3979414D03*
X4484250Y2759834D03*
X4410640Y2326654D03*
X6551180Y3980304D03*
X6767710Y3783454D03*
X6185030Y3318894D03*
X5901570Y2531484D03*
X7102360Y3783454D03*
X6275580Y2429124D03*
X5055110Y3192904D03*
X6196850Y3200784D03*
X5181100Y3240154D03*
Y3161414D03*
X5350390Y3507864D03*
X6433060Y3291334D03*
X5803140Y3618104D03*
Y3980304D03*
X5960620Y2996054D03*
X6551180Y3173224D03*
X6582670Y2484244D03*
X6866140Y2476374D03*
X6468500Y2570854D03*
X6629920Y3291334D03*
X3992120Y2858264D03*
X6354330Y3291334D03*
X5114170Y2282564D03*
X6374010Y3137784D03*
X4937000Y2278624D03*
X5803140Y2735314D03*
X5192910Y2282564D03*
X4035430Y2267714D03*
X3956690D03*
X3877950D03*
X5822830Y2480304D03*
X4291330Y3943974D03*
Y4022714D03*
G36*
X4501150Y3331164D02*
X4484450Y3347864D01*
X4498370Y3361784D01*
X4515070Y3345084D01*
X4501150Y3331164D01*
G37*
G36*
X4528990Y3303324D02*
X4512290Y3320024D01*
X4526210Y3333944D01*
X4542910Y3317244D01*
X4528990Y3303324D01*
G37*
G54D16*
X5728615Y3143564D02*
X5850665D01*
X5728615Y3257744D02*
X5850665D01*
X6059065Y2891844D02*
X6181115D01*
X6059065Y2777674D02*
X6181115D01*
G54D17*
X5548190Y3494594D02*
Y3513594D01*
X5528500Y3494594D02*
Y3513594D01*
X5508820Y3494594D02*
Y3513594D01*
X5489130Y3494594D02*
Y3513594D01*
Y3450114D02*
Y3469114D01*
X5508820Y3450114D02*
Y3469114D01*
X5528500Y3450114D02*
Y3469114D01*
X5548190Y3450114D02*
Y3469114D01*
X5454190Y3494594D02*
Y3513594D01*
X5434500Y3494594D02*
Y3513594D01*
X5414820Y3494594D02*
Y3513594D01*
X5395130Y3494594D02*
Y3513594D01*
Y3450114D02*
Y3469114D01*
X5414820Y3450114D02*
Y3469114D01*
X5434500Y3450114D02*
Y3469114D01*
X5454190Y3450114D02*
Y3469114D01*
G54D16*
X4029570Y3864369D02*
Y3986419D01*
X4143740Y3864369D02*
Y3986419D01*
G54D18*
X4578755Y2548694D02*
X4592525D01*
X4578755Y2428614D02*
X4592525D01*
G54D19*
X6809540Y2454654D03*
X6788670D03*
G54D12*
X6425190Y2453734D02*
Y2499015D01*
X6502950Y2874004D02*
X6544290D01*
X6570860Y2958654D02*
Y3009835D01*
X6920270Y3059044D02*
X6937990D01*
X6968500Y3018694D02*
Y3036415D01*
X7044285Y2996054D02*
X7065935D01*
X7114170Y2743099D02*
Y2847430D01*
Y2487199D02*
Y2591530D01*
X6745070Y2417314D02*
X6790350D01*
G54D20*
X6745310Y3439964D02*
Y3452964D01*
X6731530Y3439964D02*
Y3452964D01*
X6717750Y3439964D02*
Y3452964D01*
X6703970Y3439964D02*
Y3452964D01*
Y3466344D02*
Y3479344D01*
X6717750Y3466344D02*
Y3479344D01*
X6731530Y3466344D02*
Y3479344D01*
X6745310Y3466344D02*
Y3479344D01*
G54D21*
X5920090Y2883254D02*
Y2908254D01*
X5957490Y2883254D02*
Y2908254D01*
Y2771254D02*
Y2796254D01*
X5920090Y2771254D02*
Y2796254D01*
X5882690Y2771254D02*
Y2796254D01*
Y2883254D02*
Y2908254D01*
G54D22*
X6799220Y2905594D02*
X6807100D01*
X6716540D02*
X6724420D01*
X6716540Y2964644D02*
X6724420D01*
X6799220D02*
X6807100D01*
G54D23*
X5929180Y3176244D02*
X5945320D01*
X5929180Y3150654D02*
X5945320D01*
X5929180Y3125064D02*
X5945320D01*
X6005960D02*
X6022100D01*
X6005960Y3150654D02*
X6022100D01*
X6005960Y3176244D02*
X6022100D01*
G54D24*
X5975640Y3138844D02*
Y3162464D01*
G36*
X4117320Y2311204D02*
X4095120Y2319284D01*
X4101860Y2337784D01*
X4124060Y2329704D01*
X4117320Y2311204D01*
G37*
G36*
X4154320Y2297734D02*
X4132120Y2305814D01*
X4138860Y2324314D01*
X4161060Y2316234D01*
X4154320Y2297734D01*
G37*
G36*
X4389450Y3595264D02*
X4406150Y3611964D01*
X4420070Y3598044D01*
X4403370Y3581344D01*
X4389450Y3595264D01*
G37*
G36*
X4417290Y3623104D02*
X4433990Y3639804D01*
X4447910Y3625884D01*
X4431210Y3609184D01*
X4417290Y3623104D01*
G37*
G36*
X4384450Y3512264D02*
X4401150Y3528964D01*
X4415070Y3515044D01*
X4398370Y3498344D01*
X4384450Y3512264D01*
G37*
G36*
X4412290Y3540104D02*
X4428990Y3556804D01*
X4442910Y3542884D01*
X4426210Y3526184D01*
X4412290Y3540104D01*
G37*
G36*
X4542290Y3405104D02*
X4558990Y3421804D01*
X4572910Y3407884D01*
X4556210Y3391184D01*
X4542290Y3405104D01*
G37*
G36*
X4514450Y3377264D02*
X4531150Y3393964D01*
X4545070Y3380044D01*
X4528370Y3363344D01*
X4514450Y3377264D01*
G37*
G36*
X4607290Y3470104D02*
X4623990Y3486804D01*
X4637910Y3472884D01*
X4621210Y3456184D01*
X4607290Y3470104D01*
G37*
G36*
X4579450Y3442264D02*
X4596150Y3458964D01*
X4610070Y3445044D01*
X4593370Y3428344D01*
X4579450Y3442264D01*
G37*
G36*
X4158900Y3343764D02*
X4175600Y3360464D01*
X4189520Y3346544D01*
X4172820Y3329844D01*
X4158900Y3343764D01*
G37*
G36*
X4131070Y3315925D02*
X4147770Y3332625D01*
X4161690Y3318704D01*
X4144990Y3302004D01*
X4131070Y3315925D01*
G37*
G36*
X4214450Y3397264D02*
X4231150Y3413964D01*
X4245070Y3400044D01*
X4228370Y3383344D01*
X4214450Y3397264D01*
G37*
G36*
X4242290Y3425104D02*
X4258990Y3441804D01*
X4272910Y3427884D01*
X4256210Y3411184D01*
X4242290Y3425104D01*
G37*
G36*
X4347290Y3390104D02*
X4363990Y3406804D01*
X4377910Y3392884D01*
X4361210Y3376184D01*
X4347290Y3390104D01*
G37*
G36*
X4319450Y3362264D02*
X4336150Y3378964D01*
X4350070Y3365044D01*
X4333370Y3348344D01*
X4319450Y3362264D01*
G37*
G36*
X4339570Y3195075D02*
X4356270Y3211775D01*
X4370190Y3197854D01*
X4353490Y3181154D01*
X4339570Y3195075D01*
G37*
G36*
X4367410Y3222914D02*
X4384110Y3239614D01*
X4398030Y3225694D01*
X4381330Y3208994D01*
X4367410Y3222914D01*
G37*
G36*
X4271770Y3134584D02*
X4288470Y3151284D01*
X4302390Y3137364D01*
X4285690Y3120664D01*
X4271770Y3134584D01*
G37*
G36*
X4299610Y3162425D02*
X4316310Y3179125D01*
X4330230Y3165204D01*
X4313530Y3148504D01*
X4299610Y3162425D01*
G37*
G36*
X4334370Y3523104D02*
X4351070Y3539804D01*
X4364990Y3525884D01*
X4348290Y3509184D01*
X4334370Y3523104D01*
G37*
G36*
X4306530Y3495264D02*
X4323230Y3511964D01*
X4337150Y3498044D01*
X4320450Y3481344D01*
X4306530Y3495264D01*
G37*
G54D25*
X4641730Y2710614D02*
X4720470D01*
X4641730Y2651564D02*
X4720470D01*
X4641730Y2592504D02*
X4720470D01*
X4641730Y2533454D02*
X4720470D01*
X4641730Y2474394D02*
X4720470D01*
X4641730Y2415344D02*
X4720470D01*
G54D26*
X3956250Y3684999D02*
Y3696809D01*
X4033030Y3684999D02*
Y3696809D01*
X4031060Y3779489D02*
Y3791299D01*
X3993660Y3779489D02*
Y3791299D01*
X3956250Y3779489D02*
Y3791299D01*
X7204715Y2779524D02*
X7220465D01*
G54D27*
X7231290Y2784439D02*
Y2790349D01*
X7193890Y2784439D02*
Y2790349D01*
G54D24*
X7196845Y2653534D02*
X7228335D01*
G54D26*
X6769050Y3571134D02*
Y3590814D01*
X6820230Y3571134D02*
Y3590814D01*
Y3659725D02*
Y3679404D01*
X6794640Y3659725D02*
Y3679404D01*
X6769050Y3659725D02*
Y3679404D01*
G54D28*
X6869130Y3984509D02*
Y3985499D01*
X6888810Y3984509D02*
Y3985499D01*
X6908500Y3984509D02*
Y3985499D01*
X6928180Y3984509D02*
Y3985499D01*
Y3925459D02*
Y3926449D01*
X6908500Y3925459D02*
Y3926449D01*
X6888810Y3925459D02*
Y3926449D01*
X6869130Y3925459D02*
Y3926449D01*
X6927695Y3965324D02*
X6928685D01*
X6927685Y3945634D02*
X6928675D01*
X6868635Y3945644D02*
X6869625D01*
X6868635Y3965324D02*
X6869625D01*
G54D24*
X5751240Y3065749D02*
Y3077559D01*
X6151690Y2956849D02*
Y2968659D01*
G54D14*
X5808325Y3071654D02*
X5843755D01*
X6208775Y2962754D02*
X6244205D01*
G54D29*
X6789090Y2719964D03*
G54D30*
X6857990Y2804604D02*
Y2826264D01*
X6838300Y2804604D02*
Y2826264D01*
X6818620Y2804604D02*
Y2826264D01*
X6798930Y2804604D02*
Y2826264D01*
X6779250Y2804604D02*
Y2826264D01*
X6759560Y2804604D02*
Y2826264D01*
X6739880Y2804604D02*
Y2826264D01*
X6720190Y2804604D02*
Y2826264D01*
Y2613654D02*
Y2635314D01*
X6739880Y2613654D02*
Y2635314D01*
X6759560Y2613654D02*
Y2635314D01*
X6779250Y2613654D02*
Y2635314D01*
X6798930Y2613654D02*
Y2635314D01*
X6818620Y2613654D02*
Y2635314D01*
X6838300Y2613654D02*
Y2635314D01*
X6857990Y2613654D02*
Y2635314D01*
X6682790Y2788864D02*
X6704450D01*
X6682790Y2769174D02*
X6704450D01*
X6682790Y2749494D02*
X6704450D01*
X6682790Y2729804D02*
X6704450D01*
X6682790Y2710114D02*
X6704450D01*
X6682790Y2690434D02*
X6704450D01*
X6682790Y2670744D02*
X6704450D01*
X6682790Y2651064D02*
X6704450D01*
X6873730D02*
X6895390D01*
X6873730Y2670744D02*
X6895390D01*
X6873730Y2690434D02*
X6895390D01*
X6873730Y2710114D02*
X6895390D01*
X6873730Y2729804D02*
X6895390D01*
X6873730Y2749494D02*
X6895390D01*
X6873730Y2769174D02*
X6895390D01*
X6873730Y2788864D02*
X6895390D01*
G54D10*
X6706640Y4283595D03*
Y4348595D03*
X7212590Y4554105D03*
Y4619105D03*
X5704640Y5921655D03*
Y5986655D03*
X5649640D03*
Y5921655D03*
X4793460Y5171485D03*
Y5236485D03*
X4495640Y4396655D03*
Y4461655D03*
X4086660Y5596395D03*
Y5661395D03*
X4141660Y5759395D03*
Y5694395D03*
X6379090Y5952965D03*
Y6017965D03*
X6474090Y5955485D03*
Y6020485D03*
X4197660Y5695395D03*
Y5760395D03*
X6245090Y4796755D03*
Y4861755D03*
X5826090Y4803755D03*
Y4868755D03*
G54D11*
X6511355Y4603465D02*
X6515285D01*
X6471985D02*
X6475915D01*
X6511355Y4638465D02*
X6515285D01*
X6471985D02*
X6475915D01*
X6511355Y4743465D02*
X6515285D01*
X6471985D02*
X6475915D01*
X6511355Y4778465D02*
X6515285D01*
X6471985D02*
X6475915D01*
X6616925Y4813325D02*
X6620855D01*
X6577545D02*
X6581475D01*
X6983365Y4659155D02*
X6987295D01*
X6943995D02*
X6947925D01*
X6770155Y4550145D02*
X6774085D01*
X6809525D02*
X6813455D01*
X6888515Y4925145D02*
X6892445D01*
X6927885D02*
X6931815D01*
X6927885Y4959145D02*
X6931815D01*
X6888515D02*
X6892445D01*
X6802985Y4513155D02*
X6806915D01*
X6842365D02*
X6846295D01*
X6789365Y5375155D02*
X6793295D01*
X6749995D02*
X6753925D01*
X6789365Y5478155D02*
X6793295D01*
X6749995D02*
X6753925D01*
X6925355Y4513155D02*
X6929285D01*
X6885985D02*
X6889915D01*
X6511355Y4673465D02*
X6515285D01*
X6471985D02*
X6475915D01*
X6616745Y4778695D02*
X6620675D01*
X6577365D02*
X6581295D01*
X6611805Y4743465D02*
X6615735D01*
X6572435D02*
X6576365D01*
X6611805Y4673465D02*
X6615735D01*
X6572435D02*
X6576365D01*
X6611805Y4638465D02*
X6615735D01*
X6572435D02*
X6576365D01*
X6611805Y4603465D02*
X6615735D01*
X6572435D02*
X6576365D01*
X7053875Y4868145D02*
X7057805D01*
X7014505D02*
X7018435D01*
X5982355Y5046155D02*
X5986285D01*
X5942995D02*
X5946925D01*
X4509805Y4614985D02*
X4513735D01*
X4549175D02*
X4553105D01*
X6943995Y4694155D02*
X6947925D01*
X6983365D02*
X6987295D01*
X5400805Y4857985D02*
X5404735D01*
X5440175D02*
X5444105D01*
X5622435Y4790465D02*
X5626365D01*
X5661805D02*
X5665735D01*
X5661805Y4914985D02*
X5665735D01*
X5622435D02*
X5626365D01*
X5622435Y4991985D02*
X5626365D01*
X5661805D02*
X5665735D01*
X5661805Y5033985D02*
X5665735D01*
X5622435D02*
X5626365D01*
X5622435Y4690465D02*
X5626365D01*
X5661805D02*
X5665735D01*
X4510505Y4656145D02*
X4514435D01*
X4549875D02*
X4553805D01*
X5622435Y4730465D02*
X5626365D01*
X5661805D02*
X5665735D01*
X6804375Y5907155D02*
X6808305D01*
X6765005D02*
X6768935D01*
X6804375Y5942985D02*
X6808305D01*
X6765005D02*
X6768935D01*
X6888515Y4992145D02*
X6892445D01*
X6927885D02*
X6931815D01*
X6216805Y4340465D02*
X6220735D01*
X6177435D02*
X6181365D01*
X6177435Y4305465D02*
X6181365D01*
X6216805D02*
X6220735D01*
X5253985Y5983155D02*
X5257915D01*
X5293365D02*
X5297295D01*
X5253985Y5946155D02*
X5257915D01*
X5293365D02*
X5297295D01*
X6765355Y5690155D02*
X6769285D01*
X6725995D02*
X6729925D01*
X6826985Y5499155D02*
X6830915D01*
X6866355D02*
X6870285D01*
X6908375Y5859985D02*
X6912305D01*
X6869005D02*
X6872935D01*
X5737985Y4986155D02*
X5741915D01*
X5777355D02*
X5781285D01*
X5846985Y4985155D02*
X5850915D01*
X5886355D02*
X5890285D01*
X5882005Y4697985D02*
X5885935D01*
X5921375D02*
X5925305D01*
X6789365Y5285155D02*
X6793295D01*
X6749995D02*
X6753925D01*
X6788355Y5247155D02*
X6792285D01*
X6748995D02*
X6752925D01*
G54D10*
X5656960Y4515985D03*
X5591960D03*
X6936160Y5814985D03*
X6871160D03*
X6947140Y4614155D03*
X7012140D03*
X5411590Y5310465D03*
X5476590D03*
X4218590Y4230465D03*
X4153590D03*
X7012140Y4558155D03*
X6947140D03*
X6825140Y5331155D03*
X6760140D03*
X6648660Y4313145D03*
X6583660D03*
X5918140Y5185155D03*
X5983140D03*
Y5240155D03*
X5918140D03*
G54D12*
X6621055Y5027545D02*
X6725386D01*
X6924205Y4385815D02*
X7028536D01*
X6546255D02*
X6650586D01*
X6425190Y4589554D02*
Y4654515D01*
Y4723414D02*
Y4788375D01*
G54D13*
X3831160Y4364145D03*
G54D11*
X6861640Y5690510D02*
Y5694440D01*
Y5729870D02*
Y5733800D01*
X6671640Y5461870D02*
Y5465800D01*
Y5422510D02*
Y5426440D01*
X6720640Y4507500D02*
Y4511430D01*
Y4546870D02*
Y4550800D01*
X6653640Y4528500D02*
Y4532430D01*
Y4567870D02*
Y4571800D01*
X6754160Y4335870D02*
Y4339800D01*
Y4296500D02*
Y4300430D01*
X6670160Y4897870D02*
Y4901800D01*
Y4858500D02*
Y4862430D01*
X6857160Y4858500D02*
Y4862430D01*
Y4897870D02*
Y4901800D01*
X7090160Y4868500D02*
Y4872430D01*
Y4907870D02*
Y4911800D01*
X6983160Y4867500D02*
Y4871430D01*
Y4906870D02*
Y4910800D01*
X6289090Y4298810D02*
Y4302740D01*
Y4338180D02*
Y4342110D01*
X6254090Y4298810D02*
Y4302740D01*
Y4338180D02*
Y4342110D01*
X5605640Y5964880D02*
Y5968810D01*
Y5925500D02*
Y5929430D01*
X4536640Y4439880D02*
Y4443810D01*
Y4400510D02*
Y4404440D01*
X5341660Y5248620D02*
Y5252550D01*
Y5209240D02*
Y5213170D01*
X6899640Y4868870D02*
Y4872800D01*
Y4829500D02*
Y4833430D01*
X5289090Y5043810D02*
Y5047740D01*
Y5083180D02*
Y5087110D01*
X5329090Y5083180D02*
Y5087110D01*
Y5043810D02*
Y5047740D01*
X5244090Y5043810D02*
Y5047740D01*
Y5083180D02*
Y5087110D01*
X3992660Y5603700D02*
Y5607630D01*
Y5564330D02*
Y5568260D01*
X4091660Y5718250D02*
Y5722180D01*
Y5757610D02*
Y5761540D01*
X6429090Y5948810D02*
Y5952740D01*
Y5988180D02*
Y5992110D01*
X3922660Y5564560D02*
Y5568490D01*
Y5603930D02*
Y5607860D01*
X3957660Y5603930D02*
Y5607860D01*
Y5564560D02*
Y5568490D01*
X6299090Y4936340D02*
Y4940270D01*
Y4975710D02*
Y4979640D01*
X6950160Y4821500D02*
Y4825430D01*
Y4860870D02*
Y4864800D01*
X6982660Y5951700D02*
Y5955630D01*
Y5912330D02*
Y5916260D01*
X7017660Y5912330D02*
Y5916260D01*
Y5951700D02*
Y5955630D01*
X6070640Y5106510D02*
Y5110440D01*
Y5145880D02*
Y5149810D01*
X6004810Y4844870D02*
Y4848800D01*
Y4805500D02*
Y4809430D01*
X5782090Y4866980D02*
Y4870910D01*
Y4827610D02*
Y4831540D01*
X6868640Y5539510D02*
Y5543440D01*
Y5578870D02*
Y5582800D01*
X6825640Y5729870D02*
Y5733800D01*
Y5690510D02*
Y5694440D01*
G54D14*
X4811025Y4755895D02*
X4842515D01*
X4811025Y4307075D02*
X4842515D01*
G54D15*
X5454640Y5772155D03*
X6350390Y4303135D03*
X6826770Y5444875D03*
X6897630Y4311015D03*
X6629920Y5377945D03*
X5192910Y4318885D03*
X5287400D03*
X5366140D03*
X5444880D03*
X6173220Y4578725D03*
X6551180Y5259835D03*
X3795270Y5929125D03*
X6818890Y4311015D03*
X3834640Y4479405D03*
X5523620Y4318885D03*
X6984250Y5751955D03*
X6629920Y5614165D03*
X6523620Y5555105D03*
X6688970Y5947915D03*
X4484250Y4728335D03*
X4410640Y4295155D03*
X6551180Y5948805D03*
X6767710Y5751955D03*
X6185030Y5287395D03*
X5901570Y4499985D03*
X7102360Y5751955D03*
X6275580Y4397625D03*
X5055110Y5161405D03*
X6196850Y5169285D03*
X5181100Y5208655D03*
Y5129915D03*
X5350390Y5476365D03*
X6433060Y5259835D03*
X5803140Y5586605D03*
Y5948805D03*
X5960620Y4964555D03*
X6551180Y5141725D03*
X6582670Y4452745D03*
X6866140Y4444875D03*
X6468500Y4539355D03*
X6629920Y5259835D03*
X3992120Y4826765D03*
X6354330Y5259835D03*
X5114170Y4251065D03*
X6374010Y5106285D03*
X4937000Y4247125D03*
X5803140Y4703815D03*
X5192910Y4251065D03*
X4035430Y4236215D03*
X3956690D03*
X3877950D03*
X5822830Y4448805D03*
X4291330Y5912475D03*
Y5991215D03*
G36*
X4501150Y5299665D02*
X4484450Y5316365D01*
X4498370Y5330285D01*
X4515070Y5313585D01*
X4501150Y5299665D01*
G37*
G36*
X4528990Y5271825D02*
X4512290Y5288525D01*
X4526210Y5302445D01*
X4542910Y5285745D01*
X4528990Y5271825D01*
G37*
G54D16*
X5728615Y5112065D02*
X5850665D01*
X5728615Y5226245D02*
X5850665D01*
X6059065Y4860345D02*
X6181115D01*
X6059065Y4746175D02*
X6181115D01*
G54D17*
X5548190Y5463095D02*
Y5482095D01*
X5528500Y5463095D02*
Y5482095D01*
X5508820Y5463095D02*
Y5482095D01*
X5489130Y5463095D02*
Y5482095D01*
Y5418615D02*
Y5437615D01*
X5508820Y5418615D02*
Y5437615D01*
X5528500Y5418615D02*
Y5437615D01*
X5548190Y5418615D02*
Y5437615D01*
X5454190Y5463095D02*
Y5482095D01*
X5434500Y5463095D02*
Y5482095D01*
X5414820Y5463095D02*
Y5482095D01*
X5395130Y5463095D02*
Y5482095D01*
Y5418615D02*
Y5437615D01*
X5414820Y5418615D02*
Y5437615D01*
X5434500Y5418615D02*
Y5437615D01*
X5454190Y5418615D02*
Y5437615D01*
G54D16*
X4029570Y5832870D02*
Y5954920D01*
X4143740Y5832870D02*
Y5954920D01*
G54D18*
X4578755Y4517195D02*
X4592525D01*
X4578755Y4397115D02*
X4592525D01*
G54D19*
X6809540Y4423155D03*
X6788670D03*
G54D12*
X6425190Y4422234D02*
Y4467515D01*
X6502950Y4842505D02*
X6544290D01*
X6570860Y4927154D02*
Y4978335D01*
X6920270Y5027545D02*
X6937990D01*
X6968500Y4987194D02*
Y5004915D01*
X7044285Y4964555D02*
X7065935D01*
X7114170Y4711599D02*
Y4815930D01*
Y4455699D02*
Y4560030D01*
X6745070Y4385815D02*
X6790350D01*
G54D20*
X6745310Y5408465D02*
Y5421465D01*
X6731530Y5408465D02*
Y5421465D01*
X6717750Y5408465D02*
Y5421465D01*
X6703970Y5408465D02*
Y5421465D01*
Y5434845D02*
Y5447845D01*
X6717750Y5434845D02*
Y5447845D01*
X6731530Y5434845D02*
Y5447845D01*
X6745310Y5434845D02*
Y5447845D01*
G54D21*
X5920090Y4851755D02*
Y4876755D01*
X5957490Y4851755D02*
Y4876755D01*
Y4739755D02*
Y4764755D01*
X5920090Y4739755D02*
Y4764755D01*
X5882690Y4739755D02*
Y4764755D01*
Y4851755D02*
Y4876755D01*
G54D22*
X6799220Y4874095D02*
X6807100D01*
X6716540D02*
X6724420D01*
X6716540Y4933145D02*
X6724420D01*
X6799220D02*
X6807100D01*
G54D23*
X5929180Y5144745D02*
X5945320D01*
X5929180Y5119155D02*
X5945320D01*
X5929180Y5093565D02*
X5945320D01*
X6005960D02*
X6022100D01*
X6005960Y5119155D02*
X6022100D01*
X6005960Y5144745D02*
X6022100D01*
G54D24*
X5975640Y5107345D02*
Y5130965D01*
G36*
X4117320Y4279705D02*
X4095120Y4287785D01*
X4101860Y4306285D01*
X4124060Y4298205D01*
X4117320Y4279705D01*
G37*
G36*
X4154320Y4266235D02*
X4132120Y4274315D01*
X4138860Y4292815D01*
X4161060Y4284735D01*
X4154320Y4266235D01*
G37*
G36*
X4389450Y5563765D02*
X4406150Y5580465D01*
X4420070Y5566545D01*
X4403370Y5549845D01*
X4389450Y5563765D01*
G37*
G36*
X4417290Y5591605D02*
X4433990Y5608305D01*
X4447910Y5594385D01*
X4431210Y5577685D01*
X4417290Y5591605D01*
G37*
G36*
X4384450Y5480765D02*
X4401150Y5497465D01*
X4415070Y5483545D01*
X4398370Y5466845D01*
X4384450Y5480765D01*
G37*
G36*
X4412290Y5508605D02*
X4428990Y5525305D01*
X4442910Y5511385D01*
X4426210Y5494685D01*
X4412290Y5508605D01*
G37*
G36*
X4542290Y5373605D02*
X4558990Y5390305D01*
X4572910Y5376385D01*
X4556210Y5359685D01*
X4542290Y5373605D01*
G37*
G36*
X4514450Y5345765D02*
X4531150Y5362465D01*
X4545070Y5348545D01*
X4528370Y5331845D01*
X4514450Y5345765D01*
G37*
G36*
X4607290Y5438605D02*
X4623990Y5455305D01*
X4637910Y5441385D01*
X4621210Y5424685D01*
X4607290Y5438605D01*
G37*
G36*
X4579450Y5410765D02*
X4596150Y5427465D01*
X4610070Y5413545D01*
X4593370Y5396845D01*
X4579450Y5410765D01*
G37*
G36*
X4158900Y5312265D02*
X4175600Y5328965D01*
X4189520Y5315045D01*
X4172820Y5298345D01*
X4158900Y5312265D01*
G37*
G36*
X4131070Y5284425D02*
X4147770Y5301125D01*
X4161690Y5287205D01*
X4144990Y5270505D01*
X4131070Y5284425D01*
G37*
G36*
X4214450Y5365765D02*
X4231150Y5382465D01*
X4245070Y5368545D01*
X4228370Y5351845D01*
X4214450Y5365765D01*
G37*
G36*
X4242290Y5393605D02*
X4258990Y5410305D01*
X4272910Y5396385D01*
X4256210Y5379685D01*
X4242290Y5393605D01*
G37*
G36*
X4347290Y5358605D02*
X4363990Y5375305D01*
X4377910Y5361385D01*
X4361210Y5344685D01*
X4347290Y5358605D01*
G37*
G36*
X4319450Y5330765D02*
X4336150Y5347465D01*
X4350070Y5333545D01*
X4333370Y5316845D01*
X4319450Y5330765D01*
G37*
G36*
X4339570Y5163575D02*
X4356270Y5180275D01*
X4370190Y5166355D01*
X4353490Y5149655D01*
X4339570Y5163575D01*
G37*
G36*
X4367410Y5191415D02*
X4384110Y5208115D01*
X4398030Y5194195D01*
X4381330Y5177495D01*
X4367410Y5191415D01*
G37*
G36*
X4271770Y5103085D02*
X4288470Y5119785D01*
X4302390Y5105865D01*
X4285690Y5089165D01*
X4271770Y5103085D01*
G37*
G36*
X4299610Y5130925D02*
X4316310Y5147625D01*
X4330230Y5133705D01*
X4313530Y5117005D01*
X4299610Y5130925D01*
G37*
G36*
X4334370Y5491605D02*
X4351070Y5508305D01*
X4364990Y5494385D01*
X4348290Y5477685D01*
X4334370Y5491605D01*
G37*
G36*
X4306530Y5463765D02*
X4323230Y5480465D01*
X4337150Y5466545D01*
X4320450Y5449845D01*
X4306530Y5463765D01*
G37*
G54D25*
X4641730Y4679115D02*
X4720470D01*
X4641730Y4620065D02*
X4720470D01*
X4641730Y4561005D02*
X4720470D01*
X4641730Y4501955D02*
X4720470D01*
X4641730Y4442895D02*
X4720470D01*
X4641730Y4383845D02*
X4720470D01*
G54D26*
X3956250Y5653500D02*
Y5665310D01*
X4033030Y5653500D02*
Y5665310D01*
X4031060Y5747990D02*
Y5759800D01*
X3993660Y5747990D02*
Y5759800D01*
X3956250Y5747990D02*
Y5759800D01*
X7204715Y4748025D02*
X7220465D01*
G54D27*
X7231290Y4752940D02*
Y4758850D01*
X7193890Y4752940D02*
Y4758850D01*
G54D24*
X7196845Y4622035D02*
X7228335D01*
G54D26*
X6769050Y5539635D02*
Y5559315D01*
X6820230Y5539635D02*
Y5559315D01*
Y5628225D02*
Y5647905D01*
X6794640Y5628225D02*
Y5647905D01*
X6769050Y5628225D02*
Y5647905D01*
G54D28*
X6869130Y5953010D02*
Y5954000D01*
X6888810Y5953010D02*
Y5954000D01*
X6908500Y5953010D02*
Y5954000D01*
X6928180Y5953010D02*
Y5954000D01*
Y5893960D02*
Y5894950D01*
X6908500Y5893960D02*
Y5894950D01*
X6888810Y5893960D02*
Y5894950D01*
X6869130Y5893960D02*
Y5894950D01*
X6927695Y5933825D02*
X6928685D01*
X6927685Y5914135D02*
X6928675D01*
X6868635Y5914145D02*
X6869625D01*
X6868635Y5933825D02*
X6869625D01*
G54D24*
X5751240Y5034250D02*
Y5046060D01*
X6151690Y4925350D02*
Y4937160D01*
G54D14*
X5808325Y5040155D02*
X5843755D01*
X6208775Y4931255D02*
X6244205D01*
G54D29*
X6789090Y4688465D03*
G54D30*
X6857990Y4773105D02*
Y4794765D01*
X6838300Y4773105D02*
Y4794765D01*
X6818620Y4773105D02*
Y4794765D01*
X6798930Y4773105D02*
Y4794765D01*
X6779250Y4773105D02*
Y4794765D01*
X6759560Y4773105D02*
Y4794765D01*
X6739880Y4773105D02*
Y4794765D01*
X6720190Y4773105D02*
Y4794765D01*
Y4582155D02*
Y4603815D01*
X6739880Y4582155D02*
Y4603815D01*
X6759560Y4582155D02*
Y4603815D01*
X6779250Y4582155D02*
Y4603815D01*
X6798930Y4582155D02*
Y4603815D01*
X6818620Y4582155D02*
Y4603815D01*
X6838300Y4582155D02*
Y4603815D01*
X6857990Y4582155D02*
Y4603815D01*
X6682790Y4757365D02*
X6704450D01*
X6682790Y4737675D02*
X6704450D01*
X6682790Y4717995D02*
X6704450D01*
X6682790Y4698305D02*
X6704450D01*
X6682790Y4678615D02*
X6704450D01*
X6682790Y4658935D02*
X6704450D01*
X6682790Y4639245D02*
X6704450D01*
X6682790Y4619565D02*
X6704450D01*
X6873730D02*
X6895390D01*
X6873730Y4639245D02*
X6895390D01*
X6873730Y4658935D02*
X6895390D01*
X6873730Y4678615D02*
X6895390D01*
X6873730Y4698305D02*
X6895390D01*
X6873730Y4717995D02*
X6895390D01*
X6873730Y4737675D02*
X6895390D01*
X6873730Y4757365D02*
X6895390D01*
G54D31*
X2728340Y303144D02*
G03X2708660Y283464I5J-19685D01*
X2685040Y240154D02*
G03X2708660Y259844I1970J21650D01*
X3255900D02*
G03X3275590Y240154I19690J0D01*
X3255900Y283464D02*
G03X3236220Y303144I-19685J-5D01*
X3551180Y1434164D02*
G03X3531490Y1413384I545J-20235D01*
X118110Y641724D02*
G03X137790Y661414I-5J19685D01*
X20730Y641724D02*
G03X0Y622044I-520J-20210D01*
X3263770Y1401174D02*
G03X3283460Y1381494I19685J5D01*
X3452750D02*
G03X3472440Y1401174I0J19690D01*
Y1413384D02*
G03X3452750Y1433154I-19730J40D01*
X3511810Y1318514D02*
G03X3531490Y1338184I5J19675D01*
X3598420Y1608354D02*
G03X3586610Y1620174I-11815J5D01*
X3586480Y1434154D02*
G03X3598290Y1445964I0J11810D01*
X3410480Y1445154D02*
G03X3422290Y1433344I11810J0D01*
X3422330Y1620174D02*
G03X3410520Y1608354I0J-11810D01*
X3440940Y1318514D02*
G03X3421250Y1299204I-190J-19500D01*
X3283460Y1732284D02*
G03X3263770Y1712594I0J-19690D01*
X3578740Y1732284D02*
G03X3598420Y1751964I-5J19685D01*
Y1972434D02*
G03X3440940Y2129914I-157480J0D01*
Y240154D02*
G03X3598420Y397634I0J157480D01*
X157480Y2129914D02*
G03X0Y1972434I0J-157480D01*
Y397634D02*
G03X157480Y240154I157480J-0D01*
X137790Y875154D02*
G03X118110Y895884I-20210J520D01*
X137790Y1639764D02*
G03X122040Y1659444I-17716J1964D01*
Y1344484D02*
G03X137790Y1364174I-1970J17720D01*
X23620Y1344484D02*
G03X0Y1324804I-1970J-21650D01*
Y1679134D02*
G03X23620Y1659444I21656J1965D01*
X0Y915674D02*
G03X19630Y896044I19630J-0D01*
X3598420Y1035364D02*
G03X3578740Y1055054I-19690J0D01*
X3421250Y1074804D02*
G03X3440940Y1055114I19690J0D01*
X2708660Y259844D02*
G01Y283464D01*
X3255900Y259844D02*
Y283464D01*
X20730Y641724D02*
X118110D01*
X3551180Y1434164D02*
X3588470D01*
X3283460Y1381494D02*
X3452750D01*
X3440940Y1318514D02*
X3511810D01*
X3472440Y1401174D02*
Y1413384D01*
X3531490Y1338184D02*
Y1413384D01*
X3424210Y1433154D02*
X3452750D01*
X3410520Y1446154D02*
Y1608354D01*
X3598420Y1446154D02*
Y1608354D01*
X137790Y1364174D02*
Y1639764D01*
X0Y915674D02*
Y1324804D01*
X19630Y895884D02*
X118110D01*
X137790Y661414D02*
Y876214D01*
X3422330Y1620174D02*
X3584740D01*
X3283460Y1732284D02*
X3578740D01*
X0Y1679134D02*
Y1972434D01*
X157480Y2129914D02*
X3440940D01*
X23620Y1659444D02*
X122040D01*
X23620Y1344484D02*
X122040D01*
X0Y397634D02*
Y622044D01*
X157480Y240154D02*
X2685040D01*
X3598420Y397634D02*
Y1035434D01*
X3440940Y1055114D02*
X3578740D01*
X3421250Y1074804D02*
Y1299204D01*
X3598420Y1751964D02*
Y1972434D01*
X2728340Y303144D02*
X3236220D01*
X3275590Y240154D02*
X3440940D01*
X3263770Y1401174D02*
Y1712594D01*
X2728340Y2271644D02*
G03X2708660Y2251964I5J-19685D01*
X2685040Y2208654D02*
G03X2708660Y2228344I1970J21650D01*
X3255900D02*
G03X3275590Y2208654I19690J0D01*
X3255900Y2251964D02*
G03X3236220Y2271644I-19685J-5D01*
X3551180Y3402664D02*
G03X3531490Y3381884I545J-20235D01*
X118110Y2610224D02*
G03X137790Y2629914I-5J19685D01*
X20730Y2610224D02*
G03X0Y2590544I-520J-20210D01*
X3263770Y3369674D02*
G03X3283460Y3349994I19685J5D01*
X3452750D02*
G03X3472440Y3369674I0J19690D01*
Y3381884D02*
G03X3452750Y3401654I-19730J40D01*
X3511810Y3287014D02*
G03X3531490Y3306684I5J19675D01*
X3598420Y3576854D02*
G03X3586610Y3588674I-11815J5D01*
X3586480Y3402654D02*
G03X3598290Y3414464I0J11810D01*
X3410480Y3413654D02*
G03X3422290Y3401844I11810J0D01*
X3422330Y3588674D02*
G03X3410520Y3576854I0J-11810D01*
X3440940Y3287014D02*
G03X3421250Y3267704I-190J-19500D01*
X3283460Y3700784D02*
G03X3263770Y3681094I0J-19690D01*
X3578740Y3700784D02*
G03X3598420Y3720464I-5J19685D01*
Y3940934D02*
G03X3440940Y4098414I-157480J0D01*
Y2208654D02*
G03X3598420Y2366134I0J157480D01*
X157480Y4098414D02*
G03X0Y3940934I0J-157480D01*
Y2366134D02*
G03X157480Y2208654I157480J-0D01*
X137790Y2843654D02*
G03X118110Y2864384I-20210J520D01*
X137790Y3608264D02*
G03X122040Y3627944I-17716J1964D01*
Y3312984D02*
G03X137790Y3332674I-1970J17720D01*
X23620Y3312984D02*
G03X0Y3293304I-1970J-21650D01*
Y3647634D02*
G03X23620Y3627944I21656J1965D01*
X0Y2884174D02*
G03X19630Y2864544I19630J-0D01*
X3598420Y3003864D02*
G03X3578740Y3023554I-19690J0D01*
X3421250Y3043304D02*
G03X3440940Y3023614I19690J0D01*
X2708660Y2228344D02*
G01Y2251964D01*
X3255900Y2228344D02*
Y2251964D01*
X20730Y2610224D02*
X118110D01*
X3551180Y3402664D02*
X3588470D01*
X3283460Y3349994D02*
X3452750D01*
X3440940Y3287014D02*
X3511810D01*
X3472440Y3369674D02*
Y3381884D01*
X3531490Y3306684D02*
Y3381884D01*
X3424210Y3401654D02*
X3452750D01*
X3410520Y3414654D02*
Y3576854D01*
X3598420Y3414654D02*
Y3576854D01*
X137790Y3332674D02*
Y3608264D01*
X0Y2884174D02*
Y3293304D01*
X19630Y2864384D02*
X118110D01*
X137790Y2629914D02*
Y2844714D01*
X3422330Y3588674D02*
X3584740D01*
X3283460Y3700784D02*
X3578740D01*
X0Y3647634D02*
Y3940934D01*
X157480Y4098414D02*
X3440940D01*
X23620Y3627944D02*
X122040D01*
X23620Y3312984D02*
X122040D01*
X0Y2366134D02*
Y2590544D01*
X157480Y2208654D02*
X2685040D01*
X3598420Y2366134D02*
Y3003934D01*
X3440940Y3023614D02*
X3578740D01*
X3421250Y3043304D02*
Y3267704D01*
X3598420Y3720464D02*
Y3940934D01*
X2728340Y2271644D02*
X3236220D01*
X3275590Y2208654D02*
X3440940D01*
X3263770Y3369674D02*
Y3681094D01*
X2728340Y4240145D02*
G03X2708660Y4220465I5J-19685D01*
X2685040Y4177155D02*
G03X2708660Y4196845I1970J21650D01*
X3255900D02*
G03X3275590Y4177155I19690J0D01*
X3255900Y4220465D02*
G03X3236220Y4240145I-19685J-5D01*
X3551180Y5371165D02*
G03X3531490Y5350385I545J-20235D01*
X118110Y4578725D02*
G03X137790Y4598415I-5J19685D01*
X20730Y4578725D02*
G03X0Y4559045I-520J-20210D01*
X3263770Y5338175D02*
G03X3283460Y5318495I19685J5D01*
X3452750D02*
G03X3472440Y5338175I0J19690D01*
Y5350385D02*
G03X3452750Y5370155I-19730J40D01*
X3511810Y5255515D02*
G03X3531490Y5275185I5J19675D01*
X3598420Y5545355D02*
G03X3586610Y5557175I-11815J5D01*
X3586480Y5371155D02*
G03X3598290Y5382965I0J11810D01*
X3410480Y5382155D02*
G03X3422290Y5370345I11810J0D01*
X3422330Y5557175D02*
G03X3410520Y5545355I0J-11810D01*
X3440940Y5255515D02*
G03X3421250Y5236205I-190J-19500D01*
X3283460Y5669285D02*
G03X3263770Y5649595I0J-19690D01*
X3578740Y5669285D02*
G03X3598420Y5688965I-5J19685D01*
Y5909435D02*
G03X3440940Y6066915I-157480J0D01*
Y4177155D02*
G03X3598420Y4334635I0J157480D01*
X157480Y6066915D02*
G03X0Y5909435I0J-157480D01*
Y4334635D02*
G03X157480Y4177155I157480J-0D01*
X137790Y4812155D02*
G03X118110Y4832885I-20210J520D01*
X137790Y5576765D02*
G03X122040Y5596445I-17716J1964D01*
Y5281485D02*
G03X137790Y5301175I-1970J17720D01*
X23620Y5281485D02*
G03X0Y5261805I-1970J-21650D01*
Y5616135D02*
G03X23620Y5596445I21656J1965D01*
X0Y4852675D02*
G03X19630Y4833045I19630J-0D01*
X3598420Y4972365D02*
G03X3578740Y4992055I-19690J0D01*
X3421250Y5011805D02*
G03X3440940Y4992115I19690J0D01*
X2708660Y4196845D02*
G01Y4220465D01*
X3255900Y4196845D02*
Y4220465D01*
X20730Y4578725D02*
X118110D01*
X3551180Y5371165D02*
X3588470D01*
X3283460Y5318495D02*
X3452750D01*
X3440940Y5255515D02*
X3511810D01*
X3472440Y5338175D02*
Y5350385D01*
X3531490Y5275185D02*
Y5350385D01*
X3424210Y5370155D02*
X3452750D01*
X3410520Y5383155D02*
Y5545355D01*
X3598420Y5383155D02*
Y5545355D01*
X137790Y5301175D02*
Y5576765D01*
X0Y4852675D02*
Y5261805D01*
X19630Y4832885D02*
X118110D01*
X137790Y4598415D02*
Y4813215D01*
X3422330Y5557175D02*
X3584740D01*
X3283460Y5669285D02*
X3578740D01*
X0Y5616135D02*
Y5909435D01*
X157480Y6066915D02*
X3440940D01*
X23620Y5596445D02*
X122040D01*
X23620Y5281485D02*
X122040D01*
X0Y4334635D02*
Y4559045D01*
X157480Y4177155D02*
X2685040D01*
X3598420Y4334635D02*
Y4972435D01*
X3440940Y4992115D02*
X3578740D01*
X3421250Y5011805D02*
Y5236205D01*
X3598420Y5688965D02*
Y5909435D01*
X2728340Y4240145D02*
X3236220D01*
X3275590Y4177155D02*
X3440940D01*
X3263770Y5338175D02*
Y5649595D01*
X6405500Y303144D02*
G03X6385820Y283464I5J-19685D01*
X6362200Y240154D02*
G03X6385820Y259844I1970J21650D01*
X6933060D02*
G03X6952750Y240154I19690J0D01*
X6933060Y283464D02*
G03X6913380Y303144I-19685J-5D01*
X7228340Y1434164D02*
G03X7208650Y1413384I545J-20235D01*
X3795270Y641724D02*
G03X3814950Y661414I-5J19685D01*
X3697890Y641724D02*
G03X3677160Y622044I-520J-20210D01*
X6940930Y1401174D02*
G03X6960620Y1381494I19685J5D01*
X7129910D02*
G03X7149600Y1401174I0J19690D01*
Y1413384D02*
G03X7129910Y1433154I-19730J40D01*
X7188970Y1318514D02*
G03X7208650Y1338184I5J19675D01*
X7275580Y1608354D02*
G03X7263770Y1620174I-11815J5D01*
X7263640Y1434154D02*
G03X7275450Y1445964I0J11810D01*
X7087640Y1445154D02*
G03X7099450Y1433344I11810J0D01*
X7099490Y1620174D02*
G03X7087680Y1608354I0J-11810D01*
X7118100Y1318514D02*
G03X7098410Y1299204I-190J-19500D01*
X6960620Y1732284D02*
G03X6940930Y1712594I0J-19690D01*
X7255900Y1732284D02*
G03X7275580Y1751964I-5J19685D01*
Y1972434D02*
G03X7118100Y2129914I-157480J0D01*
Y240154D02*
G03X7275580Y397634I0J157480D01*
X3834640Y2129914D02*
G03X3677160Y1972434I0J-157480D01*
Y397634D02*
G03X3834640Y240154I157480J-0D01*
X3814950Y875154D02*
G03X3795270Y895884I-20210J520D01*
X3814950Y1639764D02*
G03X3799200Y1659444I-17716J1964D01*
Y1344484D02*
G03X3814950Y1364174I-1970J17720D01*
X3700780Y1344484D02*
G03X3677160Y1324804I-1970J-21650D01*
Y1679134D02*
G03X3700780Y1659444I21656J1965D01*
X3677160Y915674D02*
G03X3696790Y896044I19630J-0D01*
X7275580Y1035364D02*
G03X7255900Y1055054I-19690J0D01*
X7098410Y1074804D02*
G03X7118100Y1055114I19690J0D01*
X6385820Y259844D02*
G01Y283464D01*
X6933060Y259844D02*
Y283464D01*
X3697890Y641724D02*
X3795270D01*
X7228340Y1434164D02*
X7265630D01*
X6960620Y1381494D02*
X7129910D01*
X7118100Y1318514D02*
X7188970D01*
X7149600Y1401174D02*
Y1413384D01*
X7208650Y1338184D02*
Y1413384D01*
X7101370Y1433154D02*
X7129910D01*
X7087680Y1446154D02*
Y1608354D01*
X7275580Y1446154D02*
Y1608354D01*
X3814950Y1364174D02*
Y1639764D01*
X3677160Y915674D02*
Y1324804D01*
X3696790Y895884D02*
X3795270D01*
X3814950Y661414D02*
Y876214D01*
X7099490Y1620174D02*
X7261900D01*
X6960620Y1732284D02*
X7255900D01*
X3677160Y1679134D02*
Y1972434D01*
X3834640Y2129914D02*
X7118100D01*
X3700780Y1659444D02*
X3799200D01*
X3700780Y1344484D02*
X3799200D01*
X3677160Y397634D02*
Y622044D01*
X3834640Y240154D02*
X6362200D01*
X7275580Y397634D02*
Y1035434D01*
X7118100Y1055114D02*
X7255900D01*
X7098410Y1074804D02*
Y1299204D01*
X7275580Y1751964D02*
Y1972434D01*
X6405500Y303144D02*
X6913380D01*
X6952750Y240154D02*
X7118100D01*
X6940930Y1401174D02*
Y1712594D01*
X6405500Y2271644D02*
G03X6385820Y2251964I5J-19685D01*
X6362200Y2208654D02*
G03X6385820Y2228344I1970J21650D01*
X6933060D02*
G03X6952750Y2208654I19690J0D01*
X6933060Y2251964D02*
G03X6913380Y2271644I-19685J-5D01*
X7228340Y3402664D02*
G03X7208650Y3381884I545J-20235D01*
X3795270Y2610224D02*
G03X3814950Y2629914I-5J19685D01*
X3697890Y2610224D02*
G03X3677160Y2590544I-520J-20210D01*
X6940930Y3369674D02*
G03X6960620Y3349994I19685J5D01*
X7129910D02*
G03X7149600Y3369674I0J19690D01*
Y3381884D02*
G03X7129910Y3401654I-19730J40D01*
X7188970Y3287014D02*
G03X7208650Y3306684I5J19675D01*
X7275580Y3576854D02*
G03X7263770Y3588674I-11815J5D01*
X7263640Y3402654D02*
G03X7275450Y3414464I0J11810D01*
X7087640Y3413654D02*
G03X7099450Y3401844I11810J0D01*
X7099490Y3588674D02*
G03X7087680Y3576854I0J-11810D01*
X7118100Y3287014D02*
G03X7098410Y3267704I-190J-19500D01*
X6960620Y3700784D02*
G03X6940930Y3681094I0J-19690D01*
X7255900Y3700784D02*
G03X7275580Y3720464I-5J19685D01*
Y3940934D02*
G03X7118100Y4098414I-157480J0D01*
Y2208654D02*
G03X7275580Y2366134I0J157480D01*
X3834640Y4098414D02*
G03X3677160Y3940934I0J-157480D01*
Y2366134D02*
G03X3834640Y2208654I157480J-0D01*
X3814950Y2843654D02*
G03X3795270Y2864384I-20210J520D01*
X3814950Y3608264D02*
G03X3799200Y3627944I-17716J1964D01*
Y3312984D02*
G03X3814950Y3332674I-1970J17720D01*
X3700780Y3312984D02*
G03X3677160Y3293304I-1970J-21650D01*
Y3647634D02*
G03X3700780Y3627944I21656J1965D01*
X3677160Y2884174D02*
G03X3696790Y2864544I19630J-0D01*
X7275580Y3003864D02*
G03X7255900Y3023554I-19690J0D01*
X7098410Y3043304D02*
G03X7118100Y3023614I19690J0D01*
X6385820Y2228344D02*
G01Y2251964D01*
X6933060Y2228344D02*
Y2251964D01*
X3697890Y2610224D02*
X3795270D01*
X7228340Y3402664D02*
X7265630D01*
X6960620Y3349994D02*
X7129910D01*
X7118100Y3287014D02*
X7188970D01*
X7149600Y3369674D02*
Y3381884D01*
X7208650Y3306684D02*
Y3381884D01*
X7101370Y3401654D02*
X7129910D01*
X7087680Y3414654D02*
Y3576854D01*
X7275580Y3414654D02*
Y3576854D01*
X3814950Y3332674D02*
Y3608264D01*
X3677160Y2884174D02*
Y3293304D01*
X3696790Y2864384D02*
X3795270D01*
X3814950Y2629914D02*
Y2844714D01*
X7099490Y3588674D02*
X7261900D01*
X6960620Y3700784D02*
X7255900D01*
X3677160Y3647634D02*
Y3940934D01*
X3834640Y4098414D02*
X7118100D01*
X3700780Y3627944D02*
X3799200D01*
X3700780Y3312984D02*
X3799200D01*
X3677160Y2366134D02*
Y2590544D01*
X3834640Y2208654D02*
X6362200D01*
X7275580Y2366134D02*
Y3003934D01*
X7118100Y3023614D02*
X7255900D01*
X7098410Y3043304D02*
Y3267704D01*
X7275580Y3720464D02*
Y3940934D01*
X6405500Y2271644D02*
X6913380D01*
X6952750Y2208654D02*
X7118100D01*
X6940930Y3369674D02*
Y3681094D01*
X6405500Y4240145D02*
G03X6385820Y4220465I5J-19685D01*
X6362200Y4177155D02*
G03X6385820Y4196845I1970J21650D01*
X6933060D02*
G03X6952750Y4177155I19690J0D01*
X6933060Y4220465D02*
G03X6913380Y4240145I-19685J-5D01*
X7228340Y5371165D02*
G03X7208650Y5350385I545J-20235D01*
X3795270Y4578725D02*
G03X3814950Y4598415I-5J19685D01*
X3697890Y4578725D02*
G03X3677160Y4559045I-520J-20210D01*
X6940930Y5338175D02*
G03X6960620Y5318495I19685J5D01*
X7129910D02*
G03X7149600Y5338175I0J19690D01*
Y5350385D02*
G03X7129910Y5370155I-19730J40D01*
X7188970Y5255515D02*
G03X7208650Y5275185I5J19675D01*
X7275580Y5545355D02*
G03X7263770Y5557175I-11815J5D01*
X7263640Y5371155D02*
G03X7275450Y5382965I0J11810D01*
X7087640Y5382155D02*
G03X7099450Y5370345I11810J0D01*
X7099490Y5557175D02*
G03X7087680Y5545355I0J-11810D01*
X7118100Y5255515D02*
G03X7098410Y5236205I-190J-19500D01*
X6960620Y5669285D02*
G03X6940930Y5649595I0J-19690D01*
X7255900Y5669285D02*
G03X7275580Y5688965I-5J19685D01*
Y5909435D02*
G03X7118100Y6066915I-157480J0D01*
Y4177155D02*
G03X7275580Y4334635I0J157480D01*
X3834640Y6066915D02*
G03X3677160Y5909435I0J-157480D01*
Y4334635D02*
G03X3834640Y4177155I157480J-0D01*
X3814950Y4812155D02*
G03X3795270Y4832885I-20210J520D01*
X3814950Y5576765D02*
G03X3799200Y5596445I-17716J1964D01*
Y5281485D02*
G03X3814950Y5301175I-1970J17720D01*
X3700780Y5281485D02*
G03X3677160Y5261805I-1970J-21650D01*
Y5616135D02*
G03X3700780Y5596445I21656J1965D01*
X3677160Y4852675D02*
G03X3696790Y4833045I19630J-0D01*
X7275580Y4972365D02*
G03X7255900Y4992055I-19690J0D01*
X7098410Y5011805D02*
G03X7118100Y4992115I19690J0D01*
X6385820Y4196845D02*
G01Y4220465D01*
X6933060Y4196845D02*
Y4220465D01*
X3697890Y4578725D02*
X3795270D01*
X7228340Y5371165D02*
X7265630D01*
X6960620Y5318495D02*
X7129910D01*
X7118100Y5255515D02*
X7188970D01*
X7149600Y5338175D02*
Y5350385D01*
X7208650Y5275185D02*
Y5350385D01*
X7101370Y5370155D02*
X7129910D01*
X7087680Y5383155D02*
Y5545355D01*
X7275580Y5383155D02*
Y5545355D01*
X3814950Y5301175D02*
Y5576765D01*
X3677160Y4852675D02*
Y5261805D01*
X3696790Y4832885D02*
X3795270D01*
X3814950Y4598415D02*
Y4813215D01*
X7099490Y5557175D02*
X7261900D01*
X6960620Y5669285D02*
X7255900D01*
X3677160Y5616135D02*
Y5909435D01*
X3834640Y6066915D02*
X7118100D01*
X3700780Y5596445D02*
X3799200D01*
X3700780Y5281485D02*
X3799200D01*
X3677160Y4334635D02*
Y4559045D01*
X3834640Y4177155D02*
X6362200D01*
X7275580Y4334635D02*
Y4972435D01*
X7118100Y4992115D02*
X7255900D01*
X7098410Y5011805D02*
Y5236205D01*
X7275580Y5688965D02*
Y5909435D01*
X6405500Y4240145D02*
X6913380D01*
X6952750Y4177155D02*
X7118100D01*
X6940930Y5338175D02*
Y5649595D01*
X3677146Y421265D02*
X3598409D01*
X3677146Y593304D02*
X3598409D01*
Y1799215D02*
X3677146D01*
X3598409Y1948815D02*
X3677146D01*
X775900Y161417D02*
Y240157D01*
X579050Y161417D02*
Y240157D01*
X2409285Y159659D02*
Y240157D01*
X2212435Y161417D02*
Y240157D01*
X1642042Y161417D02*
Y240157D01*
X1445192Y161417D02*
Y240157D01*
X0Y39370D02*
Y161417D01*
X775900Y2129921D02*
Y2208661D01*
X579050Y2129921D02*
Y2208661D01*
X2409285Y2129921D02*
Y2208661D01*
X2212435Y2129921D02*
Y2208661D01*
X1642042Y2129921D02*
Y2208661D01*
X1445192Y2129921D02*
Y2208661D01*
X4453066Y161417D02*
Y240157D01*
X4256215Y161417D02*
Y240157D01*
X6086451Y159659D02*
Y240157D01*
X5889600Y161417D02*
Y240157D01*
X5319207Y161417D02*
Y240157D01*
X5122357Y161417D02*
Y240157D01*
X7275585Y39370D02*
Y161417D01*
X4453066Y2129921D02*
Y2208661D01*
X4256215Y2129921D02*
Y2208661D01*
X6086451Y2129921D02*
Y2208661D01*
X5889600Y2129921D02*
Y2208661D01*
X5319207Y2129921D02*
Y2208661D01*
X5122357Y2129921D02*
Y2208661D01*
X3677146Y2389769D02*
X3598409D01*
X3677146Y2561808D02*
X3598409D01*
Y3767719D02*
X3677146D01*
X3598409Y3917319D02*
X3677146D01*
X775900Y2129921D02*
Y2208661D01*
X579050Y2129921D02*
Y2208661D01*
X2409285Y2128163D02*
Y2208661D01*
X2212435Y2129921D02*
Y2208661D01*
X1642042Y2129921D02*
Y2208661D01*
X1445192Y2129921D02*
Y2208661D01*
X775900Y4098425D02*
Y4177165D01*
X579050Y4098425D02*
Y4177165D01*
X2409285Y4098425D02*
Y4177165D01*
X2212435Y4098425D02*
Y4177165D01*
X1642042Y4098425D02*
Y4177165D01*
X1445192Y4098425D02*
Y4177165D01*
X4453066Y2129921D02*
Y2208661D01*
X4256215Y2129921D02*
Y2208661D01*
X6086451Y2128163D02*
Y2208661D01*
X5889600Y2129921D02*
Y2208661D01*
X5319207Y2129921D02*
Y2208661D01*
X5122357Y2129921D02*
Y2208661D01*
X4453066Y4098425D02*
Y4177165D01*
X4256215Y4098425D02*
Y4177165D01*
X6086451Y4098425D02*
Y4177165D01*
X5889600Y4098425D02*
Y4177165D01*
X5319207Y4098425D02*
Y4177165D01*
X5122357Y4098425D02*
Y4177165D01*
X3677146Y4358272D02*
X3598409D01*
X3677146Y4530312D02*
X3598409D01*
Y5736222D02*
X3677146D01*
X3598409Y5885822D02*
X3677146D01*
X775900Y4098425D02*
Y4177165D01*
X579050Y4098425D02*
Y4177165D01*
X2409285Y4096667D02*
Y4177165D01*
X2212435Y4098425D02*
Y4177165D01*
X1642042Y4098425D02*
Y4177165D01*
X1445192Y4098425D02*
Y4177165D01*
X775900Y6066929D02*
Y6145669D01*
X579050Y6066929D02*
Y6145669D01*
X2409285Y6066929D02*
Y6145669D01*
X2212435Y6066929D02*
Y6145669D01*
X1642042Y6066929D02*
Y6145669D01*
X1445192Y6066929D02*
Y6145669D01*
X4453066Y4098425D02*
Y4177165D01*
X4256215Y4098425D02*
Y4177165D01*
X6086451Y4096667D02*
Y4177165D01*
X5889600Y4098425D02*
Y4177165D01*
X5319207Y4098425D02*
Y4177165D01*
X5122357Y4098425D02*
Y4177165D01*
X4453066Y6066929D02*
Y6145669D01*
X4256215Y6066929D02*
Y6145669D01*
X6086451Y6066929D02*
Y6145669D01*
X5889600Y6066929D02*
Y6145669D01*
X5319207Y6066929D02*
Y6145669D01*
X5122357Y6066929D02*
Y6145669D01*
X0D02*
X7275585D01*
X657790Y161417D02*
X7275585D01*
X39370Y0D02*
X7236215D01*
X39370Y6307087D02*
X7236215D01*
X657790Y161417D02*
X0D01*
X7275585Y6145669D02*
Y6267717D01*
X0Y6145669D02*
Y6267717D01*
X39370Y6307087D02*
G03X0Y6267717I0J-39370D01*
X7275585D02*
G03X7236215Y6307087I-39370J0D01*
Y0D02*
G03X7275585Y39370I0J39370D01*
X0D02*
G03X39370Y0I39370J0D01*
X3598409Y161417D02*
G01Y0D01*
X3677160Y161417D02*
Y0D01*
Y6145669D02*
Y6307087D01*
X3598420Y6145669D02*
Y6307087D01*
G54D15*
X393701Y6226378D03*
X6881885D03*
Y80709D03*
X590551D03*
G54D32*
X196850Y6226378D03*
X7078735D03*
X393701Y80709D03*
X7078735D03*
M02*
