G04 Layer_Color=128*
%FSLAX25Y25*%
%MOIN*%
G70*
G01*
G75*
%ADD53C,0.00200*%
D53*
X48228Y-59193D02*
X49803D01*
X49016Y-59980D02*
Y-58406D01*
X60433Y-59193D02*
X62008D01*
X61221Y-59980D02*
Y-58406D01*
X54331Y-80020D02*
X55905D01*
X55118Y-80807D02*
Y-79232D01*
X85827Y-80020D02*
X87402D01*
X86614Y-80807D02*
Y-79232D01*
X91929Y-59193D02*
X93504D01*
X92716Y-59980D02*
Y-58406D01*
X79724Y-59193D02*
X81299D01*
X80512Y-59980D02*
Y-58406D01*
X16732Y-59193D02*
X18307D01*
X17520Y-59980D02*
Y-58406D01*
X28937Y-59193D02*
X30512D01*
X29724Y-59980D02*
Y-58406D01*
X22835Y-80020D02*
X24409D01*
X23622Y-80807D02*
Y-79232D01*
X68110Y-4921D02*
X70472D01*
X69291Y-6102D02*
Y-3740D01*
X39764Y-4921D02*
X42126D01*
X40945Y-6102D02*
Y-3740D01*
X63287Y-16339D02*
X66043D01*
X64665Y-17717D02*
Y-14961D01*
X44193Y-16339D02*
X46949D01*
X45571Y-17717D02*
Y-14961D01*
X104606Y-43898D02*
X111299D01*
X107953Y-47244D02*
Y-40551D01*
X-1061Y-43898D02*
X5632D01*
X2285Y-47244D02*
Y-40551D01*
X-335Y-7323D02*
X3799D01*
X1732Y-9390D02*
Y-5256D01*
X106437Y-7323D02*
X110571D01*
X108504Y-9390D02*
Y-5256D01*
X-335Y-98661D02*
X3799D01*
X1732Y-100728D02*
Y-96595D01*
X111065Y-15057D02*
X112265D01*
X111665Y-15657D02*
Y-14457D01*
X111065Y-11137D02*
X112265D01*
X111665Y-11738D02*
Y-10537D01*
X107533Y-15057D02*
X108733D01*
X108133Y-15657D02*
Y-14457D01*
X111065Y-18978D02*
X112265D01*
X111665Y-19578D02*
Y-18377D01*
X33575Y-12507D02*
X34775D01*
X34175Y-13107D02*
Y-11908D01*
X33575Y-8046D02*
X34775D01*
X34175Y-8647D02*
Y-7446D01*
X33575Y-17104D02*
X34775D01*
X34175Y-17704D02*
Y-16503D01*
X48640Y-23258D02*
X49841D01*
X49240Y-23858D02*
Y-22659D01*
X52596Y-23258D02*
X53796D01*
X53196Y-23858D02*
Y-22659D01*
X44685Y-23258D02*
X45885D01*
X45285Y-23858D02*
Y-22659D01*
X29644Y-3666D02*
X30844D01*
X30244Y-4265D02*
Y-3066D01*
X33575Y-3666D02*
X34775D01*
X34175Y-4265D02*
Y-3066D01*
X25631Y-3666D02*
X26831D01*
X26231Y-4265D02*
Y-3066D01*
X10293Y-3715D02*
X11493D01*
X10893Y-4315D02*
Y-3115D01*
X14215Y-3715D02*
X15415D01*
X14815Y-4315D02*
Y-3115D01*
X6280Y-3715D02*
X7480D01*
X6880Y-4315D02*
Y-3115D01*
X16994Y-31330D02*
X18194D01*
X17594Y-31929D02*
Y-30729D01*
X20916Y-31330D02*
X22116D01*
X21516Y-31929D02*
Y-30729D01*
X12981Y-31330D02*
X14181D01*
X13581Y-31929D02*
Y-30729D01*
X34364Y-31330D02*
X35564D01*
X34964Y-31929D02*
Y-30729D01*
X38275Y-31330D02*
X39475D01*
X38875Y-31929D02*
Y-30729D01*
X30490Y-31330D02*
X31690D01*
X31090Y-31929D02*
Y-30729D01*
X49231Y-31330D02*
X50431D01*
X49831Y-31929D02*
Y-30729D01*
X53111Y-31330D02*
X54311D01*
X53711Y-31929D02*
Y-30729D01*
X45213Y-31330D02*
X46413D01*
X45813Y-31929D02*
Y-30729D01*
X6118Y-55163D02*
X7318D01*
X6718Y-55762D02*
Y-54562D01*
X6118Y-59282D02*
X7318D01*
X6718Y-59882D02*
Y-58683D01*
X6118Y-63402D02*
X7318D01*
X6718Y-64003D02*
Y-62802D01*
X6118Y-67523D02*
X7318D01*
X6718Y-68123D02*
Y-66922D01*
X6118Y-71643D02*
X7318D01*
X6718Y-72242D02*
Y-71043D01*
X6118Y-75762D02*
X7318D01*
X6718Y-76363D02*
Y-75163D01*
X49217Y-89935D02*
X50417D01*
X49817Y-90535D02*
Y-89336D01*
X44812Y-89935D02*
X46012D01*
X45412Y-90535D02*
Y-89336D01*
X40311Y-89935D02*
X41511D01*
X40911Y-90535D02*
Y-89336D01*
X35858Y-89935D02*
X37058D01*
X36458Y-90535D02*
Y-89336D01*
X31405Y-89935D02*
X32605D01*
X32005Y-90535D02*
Y-89336D01*
X26952Y-89935D02*
X28152D01*
X27553Y-90535D02*
Y-89336D01*
X49217Y-94652D02*
X50417D01*
X49817Y-95252D02*
Y-94051D01*
X44812Y-94652D02*
X46012D01*
X45412Y-95252D02*
Y-94051D01*
X40311Y-94652D02*
X41511D01*
X40911Y-95252D02*
Y-94051D01*
X35858Y-94652D02*
X37058D01*
X36458Y-95252D02*
Y-94051D01*
X31405Y-94652D02*
X32605D01*
X32005Y-95252D02*
Y-94051D01*
X26952Y-94652D02*
X28152D01*
X27553Y-95252D02*
Y-94051D01*
X49217Y-99291D02*
X50417D01*
X49817Y-99892D02*
Y-98691D01*
X44812Y-99291D02*
X46012D01*
X45412Y-99892D02*
Y-98691D01*
X40311Y-99291D02*
X41511D01*
X40911Y-99892D02*
Y-98691D01*
X35858Y-99291D02*
X37058D01*
X36458Y-99892D02*
Y-98691D01*
X31405Y-99291D02*
X32605D01*
X32005Y-99892D02*
Y-98691D01*
X26952Y-99291D02*
X28152D01*
X27553Y-99892D02*
Y-98691D01*
X110985Y-3368D02*
X112185D01*
X111585Y-3968D02*
Y-2767D01*
X66731Y-11001D02*
X67931D01*
X67331Y-11601D02*
Y-10401D01*
X86076Y-103284D02*
X87276D01*
X86676Y-103884D02*
Y-102683D01*
X66782Y-103284D02*
X67982D01*
X67382Y-103884D02*
Y-102683D01*
X76429Y-103284D02*
X77629D01*
X77029Y-103884D02*
Y-102683D01*
X71606Y-103284D02*
X72806D01*
X72206Y-103884D02*
Y-102683D01*
X38271Y-75447D02*
X39471D01*
X38871Y-76047D02*
Y-74848D01*
X38271Y-83447D02*
X39471D01*
X38871Y-84048D02*
Y-82847D01*
X38271Y-79448D02*
X39471D01*
X38871Y-80048D02*
Y-78847D01*
X109400Y-82534D02*
X110600D01*
X110000Y-83134D02*
Y-81933D01*
X109400Y-91783D02*
X110600D01*
X110000Y-92383D02*
Y-91184D01*
X109400Y-87159D02*
X110600D01*
X110000Y-87758D02*
Y-86559D01*
X38400Y-60783D02*
X39600D01*
X39000Y-61383D02*
Y-60184D01*
X38400Y-68783D02*
X39600D01*
X39000Y-69384D02*
Y-68183D01*
X38400Y-64784D02*
X39600D01*
X39000Y-65383D02*
Y-64183D01*
X38400Y-43284D02*
X39600D01*
X39000Y-43883D02*
Y-42684D01*
X38400Y-51284D02*
X39600D01*
X39000Y-51884D02*
Y-50683D01*
X38400Y-47284D02*
X39600D01*
X39000Y-47883D02*
Y-46683D01*
X90900Y-103284D02*
X92100D01*
X91500Y-103884D02*
Y-102683D01*
X81253Y-103284D02*
X82453D01*
X81853Y-103884D02*
Y-102683D01*
X109400Y-77908D02*
X110600D01*
X110000Y-78509D02*
Y-77308D01*
X109400Y-68659D02*
X110600D01*
X110000Y-69258D02*
Y-68059D01*
X109400Y-73283D02*
X110600D01*
X110000Y-73883D02*
Y-72684D01*
X109400Y-64034D02*
X110600D01*
X110000Y-64634D02*
Y-63433D01*
X109400Y-54783D02*
X110600D01*
X110000Y-55383D02*
Y-54184D01*
X109400Y-59408D02*
X110600D01*
X110000Y-60009D02*
Y-58808D01*
X50329Y-6007D02*
X51529D01*
X50929Y-6607D02*
Y-5407D01*
X58329Y-6007D02*
X59529D01*
X58929Y-6607D02*
Y-5407D01*
X54329Y-6007D02*
X55529D01*
X54929Y-6607D02*
Y-5407D01*
X49217Y-103284D02*
X50417D01*
X49817Y-103884D02*
Y-102683D01*
X61959Y-103284D02*
X63159D01*
X62559Y-103884D02*
Y-102683D01*
X57135Y-103284D02*
X58335D01*
X57735Y-103884D02*
Y-102683D01*
X35858Y-103284D02*
X37058D01*
X36458Y-103884D02*
Y-102683D01*
X44812Y-103284D02*
X46012D01*
X45412Y-103884D02*
Y-102683D01*
X40311Y-103284D02*
X41511D01*
X40911Y-103884D02*
Y-102683D01*
X22500Y-103284D02*
X23700D01*
X23100Y-103884D02*
Y-102683D01*
X31405Y-103284D02*
X32605D01*
X32005Y-103884D02*
Y-102683D01*
X26952Y-103284D02*
X28152D01*
X27553Y-103884D02*
Y-102683D01*
X8900Y-103284D02*
X10100D01*
X9500Y-103884D02*
Y-102683D01*
X18047Y-103284D02*
X19247D01*
X18647Y-103884D02*
Y-102683D01*
X13594Y-103284D02*
X14794D01*
X14194Y-103884D02*
Y-102683D01*
X900Y-80033D02*
X2100D01*
X1500Y-80633D02*
Y-79434D01*
X900Y-88283D02*
X2100D01*
X1500Y-88884D02*
Y-87683D01*
X900Y-84158D02*
X2100D01*
X1500Y-84759D02*
Y-83558D01*
X900Y-67659D02*
X2100D01*
X1500Y-68259D02*
Y-67058D01*
X900Y-75908D02*
X2100D01*
X1500Y-76508D02*
Y-75309D01*
X900Y-71784D02*
X2100D01*
X1500Y-72383D02*
Y-71184D01*
X900Y-59408D02*
X2100D01*
X1500Y-60009D02*
Y-58808D01*
X900Y-63534D02*
X2100D01*
X1500Y-64134D02*
Y-62933D01*
X900Y-55283D02*
X2100D01*
X1500Y-55884D02*
Y-54684D01*
X900Y-12383D02*
X2100D01*
X1500Y-12983D02*
Y-11784D01*
X900Y-16503D02*
X2100D01*
X1500Y-17104D02*
Y-15903D01*
X900Y-20624D02*
X2100D01*
X1500Y-21224D02*
Y-20023D01*
X900Y-24744D02*
X2100D01*
X1500Y-25343D02*
Y-24144D01*
X900Y-28863D02*
X2100D01*
X1500Y-29463D02*
Y-28264D01*
X900Y-32983D02*
X2100D01*
X1500Y-33584D02*
Y-32383D01*
X102700Y-59341D02*
X103900D01*
X103300Y-59941D02*
Y-58741D01*
X102700Y-82126D02*
X103900D01*
X103300Y-82726D02*
Y-81526D01*
X102700Y-73012D02*
X103900D01*
X103300Y-73612D02*
Y-72412D01*
X102700Y-86683D02*
X103900D01*
X103300Y-87283D02*
Y-86084D01*
X102700Y-77569D02*
X103900D01*
X103300Y-78169D02*
Y-76969D01*
X18047Y-99325D02*
X19247D01*
X18647Y-99924D02*
Y-98725D01*
X22500Y-99325D02*
X23700D01*
X23100Y-99924D02*
Y-98725D01*
X13594Y-99325D02*
X14794D01*
X14194Y-99924D02*
Y-98725D01*
X8900Y-99325D02*
X10100D01*
X9500Y-99924D02*
Y-98725D01*
X102700Y-54783D02*
X103900D01*
X103300Y-55383D02*
Y-54184D01*
X102700Y-63898D02*
X103900D01*
X103300Y-64498D02*
Y-63298D01*
X102700Y-68455D02*
X103900D01*
X103300Y-69055D02*
Y-67855D01*
X70220Y-14250D02*
X71420D01*
X70820Y-14850D02*
Y-13650D01*
X70220Y-16717D02*
X71420D01*
X70820Y-17317D02*
Y-16117D01*
X70220Y-19184D02*
X71420D01*
X70820Y-19783D02*
Y-18584D01*
X70251Y-11001D02*
X71451D01*
X70851Y-11601D02*
Y-10401D01*
X60231Y-11001D02*
X61431D01*
X60831Y-11601D02*
Y-10401D01*
X63431Y-11001D02*
X64631D01*
X64031Y-11601D02*
Y-10401D01*
X82100Y-11784D02*
X83300D01*
X82700Y-12383D02*
Y-11184D01*
X74180Y-11784D02*
X75380D01*
X74780Y-12383D02*
Y-11184D01*
X78140Y-11784D02*
X79340D01*
X78740Y-12383D02*
Y-11184D01*
X107413Y-18978D02*
X108613D01*
X108013Y-19578D02*
Y-18377D01*
X105598Y-11667D02*
X106798D01*
X106198Y-12267D02*
Y-11067D01*
M02*
