G04 Layer_Color=8388736*
%FSLAX25Y25*%
%MOIN*%
G70*
G01*
G75*
%ADD27C,0.04134*%
%ADD37C,0.09449*%
%ADD38R,0.02375X0.06115*%
%ADD39C,0.04737*%
%ADD40C,0.05524*%
%ADD41R,0.03162X0.02769*%
%ADD42R,0.02769X0.03162*%
%ADD43R,0.06784X0.07099*%
%ADD44R,0.04343X0.04343*%
%ADD45R,0.08280X0.04737*%
%ADD46R,0.04400X0.05800*%
%ADD47R,0.05524X0.04147*%
%ADD48O,0.03556X0.06706*%
%ADD49O,0.06706X0.03556*%
%ADD50O,0.05524X0.08280*%
%ADD51C,0.05918*%
%ADD52C,0.10642*%
D27*
X1732Y-7323D02*
D03*
X108504D02*
D03*
X1732Y-98661D02*
D03*
D37*
X104500Y-100284D02*
D03*
D38*
X52559Y-15059D02*
D03*
X50000D02*
D03*
X55118Y-15059D02*
D03*
X57677Y-15059D02*
D03*
X60236Y-15059D02*
D03*
D39*
X61400Y-26783D02*
D03*
X109120Y-27119D02*
D03*
X86595Y-89983D02*
D03*
X23220Y-90364D02*
D03*
D40*
X104500Y-100284D02*
D03*
D41*
X94810Y-12886D02*
D03*
X98747D02*
D03*
X94837Y-9294D02*
D03*
X98774D02*
D03*
D42*
X102433Y-13191D02*
D03*
Y-9253D02*
D03*
D43*
X87264Y-25752D02*
D03*
X73800Y-25751D02*
D03*
D44*
X95223Y-4631D02*
D03*
X101723D02*
D03*
D45*
X79500Y-16789D02*
D03*
X79500Y-4978D02*
D03*
D46*
X98573Y-27011D02*
D03*
X102573Y-18211D02*
D03*
X95073D02*
D03*
D47*
X88445Y-5028D02*
D03*
Y-17035D02*
D03*
D48*
X49016Y-59193D02*
D03*
X61221D02*
D03*
X92716D02*
D03*
X80512D02*
D03*
X17520D02*
D03*
X29724D02*
D03*
D49*
X55118Y-80020D02*
D03*
X86614D02*
D03*
X23622D02*
D03*
D50*
X69291Y-4921D02*
D03*
X40945D02*
D03*
D51*
X64665Y-16339D02*
D03*
X45571D02*
D03*
D52*
X107953Y-43898D02*
D03*
X2285D02*
D03*
M02*
