M48
;Layer_Color=9474304
;FILE_FORMAT=2:5
INCH,LZ
;TYPE=PLATED
T1F00S00C0.01200
T4F00S00C0.02756
T5F00S00C0.06693
;TYPE=NON_PLATED
T6F00S00C0.04134
%
T01
X00095Y-0103284
Y-0099325
X0014194
Y-0103284
X0018647
Y-0099325
X00231
Y-0103284
X0027553
Y-0099291
X0032005
Y-0103284
X0036458
Y-0099291
X0040911
Y-0103284
X0045412
Y-0099291
X0049817
Y-0103284
X0057735
X0062559
X0067382
X0072206
X0077029
X0081853
X0086676
X00915
X01033Y-0086683
Y-0082126
Y-0077569
Y-0073012
Y-0068455
Y-0063898
Y-0059341
Y-0054783
X011Y-0054783
Y-0059408
Y-0064034
Y-0068659
Y-0073283
Y-0077908
Y-0082534
Y-0087159
Y-0091783
X0049817Y-0089935
X0045412
X0040911
X0036458
X0032005
X0027553
Y-0094652
X0032005
X0036458
X0040911
X0045412
X0049817
X0038871Y-0083447
Y-0079448
Y-0075447
X0039Y-0068783
Y-0064784
Y-0060783
Y-0051284
Y-0047284
Y-0043284
X0038875Y-003133
X0034964
X003109
X0021516
X0017594
X0013581
X00015Y-0032983
Y-0028863
Y-0024744
Y-0020624
Y-0016503
Y-0012383
X000688Y-0003715
X0010893
X0014815
X0026231Y-0003666
X0030244
X0034175
Y-0008046
Y-0012507
Y-0017104
X0045285Y-0023258
X004924
X0053196
X0053711Y-003133
X0049831
X0045813
X0050929Y-0006007
X0054929
X0058929
X0060831Y-0011001
X0064031
X0067331
X0070851
X007082Y-001425
Y-0016717
Y-0019184
X007478Y-0011784
X007874
X00827
X0106198Y-0011667
X0108133Y-0015057
X0111665
Y-0011137
Y-0018978
X0108013
X0111585Y-0003368
X0006718Y-0055163
Y-0059282
Y-0063402
Y-0067523
Y-0071643
Y-0075762
X00015Y-0075908
Y-0080033
Y-0084158
Y-0088283
Y-0071784
Y-0067659
Y-0063534
Y-0059408
Y-0055283
T04
X0045571Y-0016339
X0064665
T05
X0002285Y-0043898
X0107953
T06
X0001732Y-0098661
Y-0007323
X0108504
M30
