G04 Layer_Physical_Order=1*
G04 Layer_Color=255*
%FSLAX25Y25*%
%MOIN*%
G70*
G01*
G75*
%ADD10C,0.01500*%
%ADD11R,0.01575X0.05315*%
%ADD12C,0.03937*%
%ADD13C,0.04724*%
%ADD14R,0.02362X0.01969*%
%ADD15R,0.01969X0.02362*%
%ADD16R,0.05984X0.06299*%
%ADD17R,0.03543X0.03543*%
%ADD18R,0.07480X0.03937*%
%ADD19R,0.03600X0.05000*%
%ADD20R,0.04724X0.03347*%
%ADD21C,0.02000*%
%ADD22O,0.02756X0.05906*%
%ADD23O,0.05906X0.02756*%
%ADD24O,0.04724X0.07480*%
%ADD25C,0.05118*%
%ADD26C,0.09843*%
%ADD27C,0.04134*%
%ADD28C,0.02200*%
G36*
X97430Y-1681D02*
Y-7309D01*
X96593D01*
Y-10901D01*
X96566D01*
Y-14870D01*
X97255D01*
X97267Y-14877D01*
X97338Y-14949D01*
X97430Y-15010D01*
Y-21282D01*
X97406Y-21292D01*
Y-21292D01*
X97406Y-21292D01*
X92293D01*
X92293Y-21292D01*
X92293Y-21292D01*
X92246Y-21272D01*
Y-7662D01*
X74654D01*
X74301Y-7308D01*
X74324Y-1774D01*
X74441Y-1657D01*
X97406D01*
X97430Y-1681D01*
D02*
G37*
G36*
X104394Y-12747D02*
X104640Y-13115D01*
Y-21034D01*
X104560Y-21111D01*
X104533Y-21136D01*
X100356D01*
X100346Y-21111D01*
X100346D01*
X100346Y-21111D01*
Y-14311D01*
X98165D01*
X98151Y-14289D01*
X98067Y-14233D01*
X97996Y-14163D01*
X97946Y-14129D01*
X97904Y-14101D01*
X97833Y-14030D01*
X97821Y-14022D01*
X97729Y-13984D01*
X97657Y-13936D01*
D01*
X97645Y-13928D01*
X97585Y-13916D01*
Y-11528D01*
X103174D01*
X104394Y-12747D01*
D02*
G37*
G36*
X69884Y-21745D02*
X69912Y-21718D01*
X77697D01*
Y-30733D01*
X77697Y-30733D01*
X77697Y-30733D01*
X77696Y-30735D01*
X73668D01*
X73656Y-30748D01*
Y-32824D01*
Y-83843D01*
X73572Y-83928D01*
Y-83927D01*
X73572Y-83928D01*
X46132D01*
X46132Y-83927D01*
X46132Y-83928D01*
X46027Y-83884D01*
Y-60710D01*
Y-34729D01*
X46105Y-34650D01*
X46209Y-34547D01*
X64946D01*
Y-22054D01*
X65301Y-21702D01*
X69884Y-21745D01*
D02*
G37*
G36*
X112749Y-22408D02*
X112749Y-22408D01*
X112830Y-22441D01*
Y-23945D01*
Y-30826D01*
X112830Y-30826D01*
X112830Y-30827D01*
X112808Y-30880D01*
X84419D01*
X84065Y-30526D01*
X84067Y-22430D01*
X84121Y-22408D01*
Y-22408D01*
X84121Y-22408D01*
X112749D01*
X112749Y-22408D01*
D02*
G37*
G36*
X84600Y-15160D02*
X84600Y-15160D01*
X84700Y-15162D01*
Y-19863D01*
X68000D01*
Y-17588D01*
X68133Y-17268D01*
X68255Y-16339D01*
X68133Y-15409D01*
X68000Y-15089D01*
Y-13383D01*
X66660D01*
X66460Y-13230D01*
X65594Y-12871D01*
X64665Y-12749D01*
X63736Y-12871D01*
X62871Y-13230D01*
X62670Y-13383D01*
X61100D01*
Y-16153D01*
X61076Y-16339D01*
X61100Y-16524D01*
Y-19968D01*
X63600D01*
Y-29583D01*
X59400D01*
X59300Y-29479D01*
Y-29061D01*
Y-23731D01*
Y-18717D01*
X59465D01*
Y-11402D01*
X59300D01*
Y-9307D01*
X67767D01*
X68414Y-9575D01*
X69291Y-9690D01*
X70169Y-9575D01*
X70816Y-9307D01*
X84600D01*
Y-15160D01*
D02*
G37*
G36*
X73673Y-867D02*
X73707Y-949D01*
X73603Y-1053D01*
X73494Y-1217D01*
X73384Y-1380D01*
X73383Y-1383D01*
X73382Y-1384D01*
X73344Y-1577D01*
X73304Y-1770D01*
X73282Y-7304D01*
X73282Y-7305D01*
X73282Y-7306D01*
X73320Y-7501D01*
X73358Y-7694D01*
X73358Y-7695D01*
X73359Y-7696D01*
Y-7696D01*
X73440Y-7880D01*
X72826Y-8287D01*
X70816D01*
D01*
X70816D01*
X70738Y-8303D01*
X70425Y-8365D01*
X70425Y-8365D01*
X69903Y-8581D01*
X69291Y-8662D01*
X68680Y-8581D01*
X68157Y-8365D01*
X67767Y-8287D01*
X67767D01*
D01*
X59300D01*
X58910Y-8365D01*
X58579Y-8586D01*
X58358Y-8917D01*
X58280Y-9307D01*
Y-11402D01*
X55890D01*
Y-11402D01*
X54346D01*
Y-11402D01*
X50772D01*
Y-18717D01*
X53331D01*
Y-18717D01*
X56906D01*
Y-18717D01*
X58280D01*
Y-23731D01*
Y-29061D01*
Y-29479D01*
X58317Y-29663D01*
X58350Y-29848D01*
X58356Y-29858D01*
X58358Y-29869D01*
X58462Y-30025D01*
X58563Y-30184D01*
X58663Y-30288D01*
X58673Y-30295D01*
X58679Y-30304D01*
X58835Y-30409D01*
X58989Y-30517D01*
X59000Y-30519D01*
X59010Y-30525D01*
X59194Y-30562D01*
X59377Y-30603D01*
X59389Y-30601D01*
X59400Y-30603D01*
X63600D01*
X63926Y-30871D01*
Y-33527D01*
X46209D01*
X45819Y-33604D01*
X45488Y-33825D01*
X45384Y-33929D01*
X45306Y-34007D01*
X45085Y-34338D01*
X45007Y-34729D01*
Y-60710D01*
Y-83884D01*
X45054Y-84117D01*
X45085Y-84274D01*
X45085Y-84274D01*
X45085Y-84274D01*
X45218Y-84473D01*
X45306Y-84605D01*
X45306Y-84605D01*
X45306Y-84605D01*
X45470Y-84715D01*
X45637Y-84826D01*
X45742Y-84869D01*
X45742D01*
X45742Y-84869D01*
X45977Y-84916D01*
X46132Y-84947D01*
X46132Y-84947D01*
X46132Y-84947D01*
X46132D01*
X46132D01*
X73572D01*
D01*
X73572D01*
X73962Y-84869D01*
X74293Y-84648D01*
X74377Y-84564D01*
X74598Y-84234D01*
X74676Y-83843D01*
Y-32824D01*
Y-31755D01*
X77695D01*
X77696Y-31755D01*
X77696Y-31755D01*
X77696D01*
X77878Y-31719D01*
X78086Y-31678D01*
X78086Y-31677D01*
X78086Y-31677D01*
X78245Y-31571D01*
X78417Y-31457D01*
X78417Y-31457D01*
X78417Y-31456D01*
X78529Y-31289D01*
X78638Y-31126D01*
X78638Y-31126D01*
X78638Y-31126D01*
Y-31126D01*
X78639Y-31124D01*
X78639Y-31124D01*
X78639Y-31124D01*
X78677Y-30931D01*
X78717Y-30734D01*
X78716Y-30734D01*
X78717Y-30733D01*
Y-30733D01*
Y-30733D01*
Y-21718D01*
X78639Y-21327D01*
X78418Y-20997D01*
X78452Y-20883D01*
X84700D01*
X85090Y-20805D01*
X85421Y-20584D01*
X85642Y-20254D01*
X85720Y-19863D01*
Y-15162D01*
X85682Y-14975D01*
X85649Y-14788D01*
X85644Y-14780D01*
X85642Y-14772D01*
X85620Y-14738D01*
Y-9307D01*
X85542Y-8917D01*
X85668Y-8682D01*
X91226D01*
Y-21272D01*
X91131Y-21388D01*
X84121D01*
D01*
X84121D01*
X83921Y-21428D01*
X83731Y-21465D01*
X83731Y-21465D01*
X83731D01*
X83731Y-21465D01*
X83677Y-21488D01*
D01*
D01*
X83677Y-21488D01*
X83526Y-21589D01*
X83506Y-21602D01*
X83272D01*
Y-21819D01*
X83226Y-21888D01*
X83125Y-22039D01*
X83125Y-22039D01*
X83125Y-22039D01*
X83086Y-22235D01*
X83047Y-22430D01*
X83046Y-30526D01*
X83046Y-30526D01*
X83046Y-30526D01*
X83081Y-30705D01*
X83123Y-30916D01*
X83123Y-30916D01*
X83123Y-30916D01*
X83220Y-31061D01*
X83344Y-31247D01*
X83344Y-31247D01*
X83344Y-31247D01*
X83698Y-31600D01*
X83698Y-31600D01*
X83698Y-31600D01*
X83844Y-31698D01*
X84028Y-31821D01*
X84028Y-31821D01*
X84028Y-31821D01*
X84197Y-31855D01*
X84418Y-31899D01*
X84418Y-31899D01*
X84419Y-31899D01*
X112808D01*
X112899Y-31973D01*
Y-93207D01*
X98822D01*
X98791Y-93176D01*
Y-106009D01*
X0D01*
Y-106006D01*
X-688Y-105916D01*
X-1330Y-105650D01*
X-1881Y-105227D01*
X-2303Y-104676D01*
X-2569Y-104035D01*
X-2660Y-103347D01*
X-2662D01*
Y-3150D01*
X-2660D01*
X-2569Y-2461D01*
X-2303Y-1820D01*
X-1881Y-1269D01*
X-1330Y-846D01*
X-688Y-581D01*
X0Y-490D01*
Y-487D01*
X73420D01*
X73673Y-867D01*
D02*
G37*
G36*
X110236Y-490D02*
X110925Y-581D01*
X111566Y-846D01*
X112117Y-1269D01*
X112540Y-1820D01*
X112805Y-2461D01*
X112896Y-3150D01*
X112899D01*
Y-20789D01*
X112749Y-21388D01*
D01*
X112749D01*
X107445D01*
X105660Y-21033D01*
Y-14096D01*
X106046Y-13778D01*
X106198Y-13808D01*
X107018Y-13646D01*
X107712Y-13181D01*
X108176Y-12487D01*
X108339Y-11667D01*
X108176Y-10848D01*
X108165Y-10831D01*
X108429Y-10406D01*
X108504Y-10416D01*
X109305Y-10311D01*
X110051Y-10002D01*
X110691Y-9510D01*
X111183Y-8869D01*
X111492Y-8123D01*
X111597Y-7323D01*
X111492Y-6522D01*
X111183Y-5776D01*
X110691Y-5136D01*
X110051Y-4644D01*
X109305Y-4335D01*
X108504Y-4229D01*
X107703Y-4335D01*
X106957Y-4644D01*
X106317Y-5136D01*
X105825Y-5776D01*
X105516Y-6522D01*
X105411Y-7323D01*
X105420Y-7393D01*
X104995Y-7657D01*
X104565Y-7369D01*
X104417Y-7340D01*
Y-7072D01*
X100449D01*
Y-8977D01*
X100394Y-9253D01*
X100449Y-9530D01*
Y-10508D01*
X97613D01*
Y-8292D01*
X97820Y-8251D01*
X98151Y-8030D01*
X98372Y-7699D01*
X98450Y-7309D01*
Y-1681D01*
X98372Y-1291D01*
X98151Y-960D01*
X98127Y-936D01*
X97796Y-716D01*
X97406Y-638D01*
X97557Y-487D01*
X110236D01*
Y-490D01*
D02*
G37*
%LPC*%
G36*
X1732Y-95568D02*
X932Y-95673D01*
X186Y-95982D01*
X-455Y-96474D01*
X-947Y-97115D01*
X-1256Y-97861D01*
X-1361Y-98661D01*
X-1256Y-99462D01*
X-947Y-100208D01*
X-455Y-100849D01*
X186Y-101340D01*
X932Y-101649D01*
X1732Y-101755D01*
X2533Y-101649D01*
X3279Y-101340D01*
X3920Y-100849D01*
X4411Y-100208D01*
X4720Y-99462D01*
X4826Y-98661D01*
X4720Y-97861D01*
X4411Y-97115D01*
X3920Y-96474D01*
X3279Y-95982D01*
X2533Y-95673D01*
X1732Y-95568D01*
D02*
G37*
G36*
Y-4229D02*
X932Y-4335D01*
X186Y-4644D01*
X-455Y-5136D01*
X-947Y-5776D01*
X-1256Y-6522D01*
X-1361Y-7323D01*
X-1256Y-8123D01*
X-947Y-8869D01*
X-455Y-9510D01*
X186Y-10002D01*
X932Y-10311D01*
X1732Y-10416D01*
X2533Y-10311D01*
X3279Y-10002D01*
X3920Y-9510D01*
X4411Y-8869D01*
X4720Y-8123D01*
X4826Y-7323D01*
X4720Y-6522D01*
X4411Y-5776D01*
X3920Y-5136D01*
X3279Y-4644D01*
X2533Y-4335D01*
X1732Y-4229D01*
D02*
G37*
G36*
X95600Y-53863D02*
X77716D01*
X77653Y-53875D01*
X77588Y-53871D01*
X77459Y-53914D01*
X77326Y-53940D01*
X77272Y-53977D01*
X77210Y-53997D01*
X77108Y-54086D01*
X76995Y-54162D01*
X76959Y-54215D01*
X76910Y-54258D01*
X76850Y-54379D01*
X76774Y-54492D01*
X76764Y-54542D01*
X76758Y-54551D01*
Y-54551D01*
X76758Y-54551D01*
X76754Y-54571D01*
X76732Y-54614D01*
X76716Y-54673D01*
X76707Y-54808D01*
X76680Y-54941D01*
Y-84083D01*
X76758Y-84474D01*
X76979Y-84804D01*
X77310Y-85025D01*
X77700Y-85103D01*
X84916D01*
Y-87530D01*
X84478Y-87866D01*
X84002Y-88486D01*
X83703Y-89209D01*
X83601Y-89983D01*
X83703Y-90758D01*
X84002Y-91480D01*
X84478Y-92101D01*
X85098Y-92576D01*
X85820Y-92876D01*
X86595Y-92978D01*
X87370Y-92876D01*
X88092Y-92576D01*
X88712Y-92101D01*
X89188Y-91480D01*
X89487Y-90758D01*
X89589Y-89983D01*
X89487Y-89209D01*
X89188Y-88486D01*
X88712Y-87866D01*
X88484Y-87691D01*
Y-85103D01*
X95400D01*
X95471Y-85089D01*
X95543Y-85093D01*
X95664Y-85050D01*
X95790Y-85025D01*
X95850Y-84985D01*
X95918Y-84962D01*
X96018Y-84903D01*
X96118Y-84844D01*
X96214Y-84758D01*
X96321Y-84686D01*
X96361Y-84627D01*
X96415Y-84579D01*
X96470Y-84463D01*
X96542Y-84356D01*
X96556Y-84285D01*
X96587Y-84220D01*
X96595Y-84092D01*
X96620Y-83965D01*
Y-54883D01*
X96542Y-54492D01*
X96321Y-54162D01*
X95990Y-53940D01*
X95600Y-53863D01*
D02*
G37*
%LPD*%
G36*
Y-83965D02*
X95500Y-84025D01*
X95400Y-84083D01*
X77700D01*
Y-54941D01*
X77700Y-54941D01*
Y-54941D01*
X77716Y-54883D01*
X95600D01*
Y-83965D01*
D02*
G37*
D10*
X87337Y-81136D02*
G03*
X86700Y-82673I1537J-1537D01*
G01*
Y-83087D02*
G03*
X85892Y-81136I-2760J0D01*
G01*
X87196Y-81253D02*
G03*
X86606Y-82373I778J-1125D01*
G01*
Y-82373D02*
G03*
X86026Y-81249I-1368J6D01*
G01*
X86700Y-83087D02*
G03*
X85892Y-81136I-2760J0D01*
G01*
X87337Y-81136D02*
G03*
X86700Y-82673I1537J-1537D01*
G01*
X86606Y-82373D02*
X86614Y-80413D01*
X85627Y-80676D02*
X86606Y-82373D01*
X87599Y-80684D01*
X86606Y-82373D02*
X86614Y-80413D01*
X85627Y-80676D02*
X86606Y-82373D01*
X87599Y-80684D01*
X86606Y-82373D02*
X86614Y-80413D01*
X85627Y-80676D02*
X86606Y-82373D01*
X87599Y-80684D01*
X86606Y-82373D02*
X86614Y-80413D01*
X85627Y-80676D02*
X86606Y-82373D01*
X87599Y-80684D01*
X86606Y-82373D02*
X86614Y-80413D01*
X85627Y-80676D02*
X86606Y-82373D01*
X87599Y-80684D01*
X86614Y-80413D02*
X86700Y-80499D01*
Y-89983D02*
Y-80499D01*
X86606Y-82373D02*
X87599Y-80684D01*
X85627Y-80676D02*
X86606Y-82373D01*
X86614Y-80413D01*
D11*
X52559Y-15059D02*
D03*
X50000D02*
D03*
X55118Y-15059D02*
D03*
X57677Y-15059D02*
D03*
X60236Y-15059D02*
D03*
D12*
X61400Y-26783D02*
D03*
X109120Y-27119D02*
D03*
X86595Y-89983D02*
D03*
X23220Y-90364D02*
D03*
D13*
X104500Y-100284D02*
D03*
D14*
X94810Y-12886D02*
D03*
X98747D02*
D03*
X94837Y-9294D02*
D03*
X98774D02*
D03*
D15*
X102433Y-13191D02*
D03*
Y-9253D02*
D03*
D16*
X87264Y-25752D02*
D03*
X73800Y-25751D02*
D03*
D17*
X95223Y-4631D02*
D03*
X101723D02*
D03*
D18*
X79500Y-16789D02*
D03*
X79500Y-4978D02*
D03*
D19*
X98573Y-27011D02*
D03*
X102573Y-18211D02*
D03*
X95073D02*
D03*
D20*
X88445Y-5028D02*
D03*
Y-17035D02*
D03*
D21*
X103784Y-9253D02*
X106198Y-11667D01*
X103784Y-9253D02*
X106198Y-11667D01*
X102433Y-9253D02*
X103784D01*
X102433D02*
X103784D01*
X102433D02*
X103784D01*
X106198Y-11667D01*
X102433Y-9253D02*
X103784D01*
X106198Y-11667D01*
D22*
X49016Y-59193D02*
D03*
X61221D02*
D03*
X92716D02*
D03*
X80512D02*
D03*
X17520D02*
D03*
X29724D02*
D03*
D23*
X55118Y-80020D02*
D03*
X86614D02*
D03*
X23622D02*
D03*
D24*
X69291Y-4921D02*
D03*
X40945D02*
D03*
D25*
X64665Y-16339D02*
D03*
X45571D02*
D03*
D26*
X107953Y-43898D02*
D03*
X2285D02*
D03*
D27*
X1732Y-7323D02*
D03*
X108504D02*
D03*
X1732Y-98661D02*
D03*
D28*
X111665Y-15057D02*
D03*
Y-11137D02*
D03*
X108133Y-15057D02*
D03*
X111665Y-18978D02*
D03*
X34175Y-12507D02*
D03*
Y-8046D02*
D03*
Y-17104D02*
D03*
X49240Y-23258D02*
D03*
X53196D02*
D03*
X45285D02*
D03*
X30244Y-3666D02*
D03*
X34175D02*
D03*
X26231D02*
D03*
X10893Y-3715D02*
D03*
X14815D02*
D03*
X6880D02*
D03*
X17594Y-31330D02*
D03*
X21516D02*
D03*
X13581D02*
D03*
X34964D02*
D03*
X38875D02*
D03*
X31090D02*
D03*
X49831D02*
D03*
X53711D02*
D03*
X45813D02*
D03*
X6718Y-55163D02*
D03*
Y-59282D02*
D03*
Y-63402D02*
D03*
Y-67523D02*
D03*
Y-71643D02*
D03*
Y-75762D02*
D03*
X49817Y-89935D02*
D03*
X45412D02*
D03*
X40911D02*
D03*
X36458D02*
D03*
X32005D02*
D03*
X27553D02*
D03*
X49817Y-94652D02*
D03*
X45412D02*
D03*
X40911D02*
D03*
X36458D02*
D03*
X32005D02*
D03*
X27553D02*
D03*
X49817Y-99291D02*
D03*
X45412D02*
D03*
X40911D02*
D03*
X36458D02*
D03*
X32005D02*
D03*
X27553D02*
D03*
X111585Y-3368D02*
D03*
X67331Y-11001D02*
D03*
X86676Y-103284D02*
D03*
X67382D02*
D03*
X77029D02*
D03*
X72206D02*
D03*
X38871Y-75447D02*
D03*
Y-83447D02*
D03*
Y-79448D02*
D03*
X110000Y-82534D02*
D03*
Y-91783D02*
D03*
Y-87159D02*
D03*
X39000Y-60783D02*
D03*
Y-68783D02*
D03*
Y-64784D02*
D03*
Y-43284D02*
D03*
Y-51284D02*
D03*
Y-47284D02*
D03*
X91500Y-103284D02*
D03*
X81853D02*
D03*
X110000Y-77908D02*
D03*
Y-68659D02*
D03*
Y-73283D02*
D03*
Y-64034D02*
D03*
Y-54783D02*
D03*
Y-59408D02*
D03*
X50929Y-6007D02*
D03*
X58929D02*
D03*
X54929D02*
D03*
X49817Y-103284D02*
D03*
X62559D02*
D03*
X57735D02*
D03*
X36458D02*
D03*
X45412D02*
D03*
X40911D02*
D03*
X23100D02*
D03*
X32005D02*
D03*
X27553D02*
D03*
X9500D02*
D03*
X18647D02*
D03*
X14194D02*
D03*
X1500Y-80033D02*
D03*
Y-88283D02*
D03*
Y-84158D02*
D03*
Y-67659D02*
D03*
Y-75908D02*
D03*
Y-71784D02*
D03*
Y-59408D02*
D03*
Y-63534D02*
D03*
Y-55283D02*
D03*
Y-12383D02*
D03*
Y-16503D02*
D03*
Y-20624D02*
D03*
Y-24744D02*
D03*
Y-28863D02*
D03*
Y-32983D02*
D03*
X103300Y-59341D02*
D03*
Y-82126D02*
D03*
Y-73012D02*
D03*
Y-86683D02*
D03*
Y-77569D02*
D03*
X18647Y-99325D02*
D03*
X23100D02*
D03*
X14194D02*
D03*
X9500D02*
D03*
X103300Y-54783D02*
D03*
Y-63898D02*
D03*
Y-68455D02*
D03*
X70820Y-14250D02*
D03*
Y-16717D02*
D03*
Y-19184D02*
D03*
X70851Y-11001D02*
D03*
X60831D02*
D03*
X64031D02*
D03*
X82700Y-11784D02*
D03*
X74780D02*
D03*
X78740D02*
D03*
X108013Y-18978D02*
D03*
X106198Y-11667D02*
D03*
M02*
