G04 Layer_Physical_Order=2*
G04 Layer_Color=16711680*
%FSLAX25Y25*%
%MOIN*%
G70*
G01*
G75*
%ADD21C,0.02000*%
%ADD22O,0.02756X0.05906*%
%ADD23O,0.05906X0.02756*%
%ADD24O,0.04724X0.07480*%
%ADD25C,0.05118*%
%ADD26C,0.09843*%
%ADD27C,0.04134*%
%ADD28C,0.02200*%
G36*
X110236Y-490D02*
X110925Y-581D01*
X111566Y-846D01*
X112117Y-1269D01*
X112540Y-1820D01*
X112805Y-2461D01*
X112896Y-3150D01*
X112899D01*
Y-103347D01*
X112896D01*
X112805Y-104035D01*
X112540Y-104676D01*
X112117Y-105227D01*
X111566Y-105650D01*
X110925Y-105916D01*
X110236Y-106006D01*
Y-106009D01*
X0D01*
Y-106006D01*
X-688Y-105916D01*
X-1330Y-105650D01*
X-1881Y-105227D01*
X-2303Y-104676D01*
X-2569Y-104035D01*
X-2660Y-103347D01*
X-2662D01*
Y-3150D01*
X-2660D01*
X-2569Y-2461D01*
X-2303Y-1820D01*
X-1881Y-1269D01*
X-1330Y-846D01*
X-688Y-581D01*
X0Y-490D01*
Y-487D01*
X110236D01*
Y-490D01*
D02*
G37*
%LPC*%
G36*
X88189Y-77595D02*
X85039D01*
X84111Y-77780D01*
X83325Y-78305D01*
X82799Y-79092D01*
X82615Y-80020D01*
X82799Y-80948D01*
X83325Y-81734D01*
X84111Y-82260D01*
X85039Y-82444D01*
X88189D01*
X89117Y-82260D01*
X89903Y-81734D01*
X90429Y-80948D01*
X90614Y-80020D01*
X90429Y-79092D01*
X89903Y-78305D01*
X89117Y-77780D01*
X88189Y-77595D01*
D02*
G37*
G36*
X49016Y-55194D02*
X48088Y-55378D01*
X47301Y-55904D01*
X46776Y-56690D01*
X46591Y-57618D01*
Y-60768D01*
X46776Y-61696D01*
X47301Y-62482D01*
X48088Y-63008D01*
X49016Y-63192D01*
X49944Y-63008D01*
X50730Y-62482D01*
X51256Y-61696D01*
X51440Y-60768D01*
Y-57618D01*
X51256Y-56690D01*
X50730Y-55904D01*
X49944Y-55378D01*
X49016Y-55194D01*
D02*
G37*
G36*
X1732Y-95568D02*
X932Y-95673D01*
X186Y-95982D01*
X-455Y-96474D01*
X-947Y-97115D01*
X-1256Y-97861D01*
X-1361Y-98661D01*
X-1256Y-99462D01*
X-947Y-100208D01*
X-455Y-100849D01*
X186Y-101340D01*
X932Y-101649D01*
X1732Y-101755D01*
X2533Y-101649D01*
X3279Y-101340D01*
X3920Y-100849D01*
X4411Y-100208D01*
X4720Y-99462D01*
X4826Y-98661D01*
X4720Y-97861D01*
X4411Y-97115D01*
X3920Y-96474D01*
X3279Y-95982D01*
X2533Y-95673D01*
X1732Y-95568D01*
D02*
G37*
G36*
X56693Y-77595D02*
X53543D01*
X52615Y-77780D01*
X51829Y-78305D01*
X51303Y-79092D01*
X51119Y-80020D01*
X51303Y-80948D01*
X51829Y-81734D01*
X52615Y-82260D01*
X53543Y-82444D01*
X56693D01*
X57621Y-82260D01*
X58407Y-81734D01*
X58933Y-80948D01*
X59117Y-80020D01*
X58933Y-79092D01*
X58407Y-78305D01*
X57621Y-77780D01*
X56693Y-77595D01*
D02*
G37*
G36*
X61221Y-55194D02*
X60293Y-55378D01*
X59506Y-55904D01*
X58981Y-56690D01*
X58796Y-57618D01*
Y-60768D01*
X58981Y-61696D01*
X59506Y-62482D01*
X60293Y-63008D01*
X61221Y-63192D01*
X62148Y-63008D01*
X62935Y-62482D01*
X63460Y-61696D01*
X63645Y-60768D01*
Y-57618D01*
X63460Y-56690D01*
X62935Y-55904D01*
X62148Y-55378D01*
X61221Y-55194D01*
D02*
G37*
G36*
X108504Y-4229D02*
X107703Y-4335D01*
X106957Y-4644D01*
X106317Y-5136D01*
X105825Y-5776D01*
X105516Y-6522D01*
X105411Y-7323D01*
X105516Y-8123D01*
X105825Y-8869D01*
X106023Y-9128D01*
X105847Y-9596D01*
X105686Y-9628D01*
X99157D01*
X98377Y-9783D01*
X97715Y-10226D01*
X91668Y-16272D01*
X91226Y-16934D01*
X91071Y-17714D01*
Y-49847D01*
Y-55692D01*
X91054Y-55734D01*
X91054Y-55734D01*
D01*
X91054Y-55734D01*
X90681Y-56292D01*
X90654Y-56424D01*
X90477Y-56690D01*
X90292Y-57618D01*
Y-60768D01*
X90477Y-61696D01*
X91002Y-62482D01*
X91789Y-63008D01*
X92716Y-63192D01*
X93644Y-63008D01*
X94431Y-62482D01*
X94956Y-61696D01*
X95141Y-60768D01*
Y-59235D01*
X95149Y-59193D01*
Y-58437D01*
X95540Y-57853D01*
X95695Y-57073D01*
X95540Y-56292D01*
X95167Y-55734D01*
X95149Y-55692D01*
Y-18559D01*
X100002Y-13707D01*
X105686D01*
X106198Y-13808D01*
X107018Y-13646D01*
X107712Y-13181D01*
X108176Y-12487D01*
X108339Y-11667D01*
X108176Y-10848D01*
X108165Y-10831D01*
X108429Y-10406D01*
X108504Y-10416D01*
X109305Y-10311D01*
X110051Y-10002D01*
X110691Y-9510D01*
X111183Y-8869D01*
X111492Y-8123D01*
X111597Y-7323D01*
X111492Y-6522D01*
X111183Y-5776D01*
X110691Y-5136D01*
X110051Y-4644D01*
X109305Y-4335D01*
X108504Y-4229D01*
D02*
G37*
G36*
X70851Y-8860D02*
X70032Y-9023D01*
X69372Y-9464D01*
X68810D01*
X68150Y-9023D01*
X67331Y-8860D01*
X66512Y-9023D01*
X65852Y-9464D01*
X65510D01*
X64850Y-9023D01*
X64031Y-8860D01*
X63212Y-9023D01*
X62552Y-9464D01*
X62310D01*
X61650Y-9023D01*
X60831Y-8860D01*
X60012Y-9023D01*
X59317Y-9487D01*
X59307Y-9502D01*
X59110Y-9542D01*
X58779Y-9763D01*
X58558Y-10093D01*
X58480Y-10484D01*
Y-18683D01*
D01*
Y-18683D01*
Y-18684D01*
Y-18684D01*
X58511Y-18839D01*
X58558Y-19074D01*
X58558Y-19074D01*
Y-19074D01*
X58600Y-19174D01*
Y-19174D01*
X58600Y-19174D01*
X58600Y-19174D01*
X58689Y-19307D01*
X58820Y-19504D01*
X58820Y-19504D01*
X58820Y-19504D01*
X58944Y-19587D01*
X59151Y-19725D01*
X59151Y-19726D01*
D01*
X59231Y-19741D01*
X59541Y-19803D01*
X61100D01*
X61490Y-19725D01*
X61821Y-19504D01*
X62042Y-19174D01*
X62120Y-18783D01*
Y-18684D01*
Y-16524D01*
X62107Y-16458D01*
X62111Y-16391D01*
X62104Y-16339D01*
X62111Y-16286D01*
X62107Y-16219D01*
X62120Y-16153D01*
Y-15068D01*
X62169Y-15051D01*
X62300Y-15025D01*
X62356Y-14988D01*
X62419Y-14966D01*
X62520Y-14878D01*
X62631Y-14804D01*
X62668Y-14749D01*
X62719Y-14704D01*
X62854Y-14527D01*
X63385Y-14120D01*
X64002Y-13864D01*
X64665Y-13777D01*
X65328Y-13864D01*
X65946Y-14120D01*
X66477Y-14527D01*
X66612Y-14704D01*
X66663Y-14749D01*
X66700Y-14804D01*
X66811Y-14878D01*
X66911Y-14966D01*
X66975Y-14988D01*
X67031Y-15025D01*
X67162Y-15051D01*
X67288Y-15094D01*
X67355Y-15090D01*
X67421Y-15103D01*
X67780D01*
Y-20184D01*
X67858Y-20574D01*
X68079Y-20904D01*
X68179Y-21004D01*
X68510Y-21225D01*
X68900Y-21303D01*
X70712D01*
X70820Y-21325D01*
X70928Y-21303D01*
X84400D01*
X84790Y-21225D01*
X85121Y-21004D01*
X85342Y-20674D01*
X85420Y-20283D01*
Y-10583D01*
X85342Y-10193D01*
X85121Y-9862D01*
X85021Y-9763D01*
X84690Y-9542D01*
X84300Y-9464D01*
X72330D01*
X71670Y-9023D01*
X70851Y-8860D01*
D02*
G37*
G36*
X1732Y-4229D02*
X932Y-4335D01*
X186Y-4644D01*
X-455Y-5136D01*
X-947Y-5776D01*
X-1256Y-6522D01*
X-1361Y-7323D01*
X-1256Y-8123D01*
X-947Y-8869D01*
X-455Y-9510D01*
X186Y-10002D01*
X932Y-10311D01*
X1732Y-10416D01*
X2533Y-10311D01*
X3279Y-10002D01*
X3920Y-9510D01*
X4411Y-8869D01*
X4720Y-8123D01*
X4826Y-7323D01*
X4720Y-6522D01*
X4411Y-5776D01*
X3920Y-5136D01*
X3279Y-4644D01*
X2533Y-4335D01*
X1732Y-4229D01*
D02*
G37*
G36*
X80512Y-55194D02*
X79584Y-55378D01*
X78797Y-55904D01*
X78272Y-56690D01*
X78087Y-57618D01*
Y-60768D01*
X78272Y-61696D01*
X78797Y-62482D01*
X79584Y-63008D01*
X80512Y-63192D01*
X81440Y-63008D01*
X82226Y-62482D01*
X82752Y-61696D01*
X82936Y-60768D01*
Y-57618D01*
X82752Y-56690D01*
X82226Y-55904D01*
X81440Y-55378D01*
X80512Y-55194D01*
D02*
G37*
%LPD*%
G36*
X84400Y-10583D02*
Y-20283D01*
X68900D01*
X68800Y-20184D01*
Y-14084D01*
X67421D01*
X67204Y-13800D01*
X66460Y-13230D01*
X65594Y-12871D01*
X64665Y-12749D01*
X63736Y-12871D01*
X62871Y-13230D01*
X62127Y-13800D01*
X61910Y-14084D01*
X61100D01*
Y-16153D01*
X61076Y-16339D01*
X61100Y-16524D01*
Y-18684D01*
Y-18783D01*
X59541D01*
X59500Y-18683D01*
X59500D01*
X59500Y-18683D01*
Y-10484D01*
X84300D01*
X84400Y-10583D01*
D02*
G37*
D21*
X92565Y-57073D02*
G03*
X93110Y-55755I-1317J1317D01*
G01*
D02*
G03*
X93656Y-57073I1863J0D01*
G01*
X92565D02*
G03*
X93110Y-55755I-1317J1317D01*
G01*
D02*
G03*
X93656Y-57073I1863J0D01*
G01*
X93110Y-55755D02*
G03*
X93656Y-57073I1863J0D01*
G01*
X92565D02*
G03*
X93110Y-55755I-1317J1317D01*
G01*
X99157Y-11667D02*
X106198D01*
X99157D02*
X106198D01*
X93110Y-57618D02*
Y-49847D01*
Y-57618D02*
Y-49847D01*
Y-17714D02*
X99157Y-11667D01*
X106198D01*
X93110Y-59193D02*
Y-17714D01*
Y-57618D02*
Y-49847D01*
X99157Y-11667D02*
X106198D01*
D22*
X49016Y-59193D02*
D03*
X61221D02*
D03*
X92716D02*
D03*
X80512D02*
D03*
X17520D02*
D03*
X29724D02*
D03*
D23*
X55118Y-80020D02*
D03*
X86614D02*
D03*
X23622D02*
D03*
D24*
X69291Y-4921D02*
D03*
X40945D02*
D03*
D25*
X64665Y-16339D02*
D03*
X45571D02*
D03*
D26*
X107953Y-43898D02*
D03*
X2285D02*
D03*
D27*
X1732Y-7323D02*
D03*
X108504D02*
D03*
X1732Y-98661D02*
D03*
D28*
X111665Y-15057D02*
D03*
Y-11137D02*
D03*
X108133Y-15057D02*
D03*
X111665Y-18978D02*
D03*
X34175Y-12507D02*
D03*
Y-8046D02*
D03*
Y-17104D02*
D03*
X49240Y-23258D02*
D03*
X53196D02*
D03*
X45285D02*
D03*
X30244Y-3666D02*
D03*
X34175D02*
D03*
X26231D02*
D03*
X10893Y-3715D02*
D03*
X14815D02*
D03*
X6880D02*
D03*
X17594Y-31330D02*
D03*
X21516D02*
D03*
X13581D02*
D03*
X34964D02*
D03*
X38875D02*
D03*
X31090D02*
D03*
X49831D02*
D03*
X53711D02*
D03*
X45813D02*
D03*
X6718Y-55163D02*
D03*
Y-59282D02*
D03*
Y-63402D02*
D03*
Y-67523D02*
D03*
Y-71643D02*
D03*
Y-75762D02*
D03*
X49817Y-89935D02*
D03*
X45412D02*
D03*
X40911D02*
D03*
X36458D02*
D03*
X32005D02*
D03*
X27553D02*
D03*
X49817Y-94652D02*
D03*
X45412D02*
D03*
X40911D02*
D03*
X36458D02*
D03*
X32005D02*
D03*
X27553D02*
D03*
X49817Y-99291D02*
D03*
X45412D02*
D03*
X40911D02*
D03*
X36458D02*
D03*
X32005D02*
D03*
X27553D02*
D03*
X111585Y-3368D02*
D03*
X67331Y-11001D02*
D03*
X86676Y-103284D02*
D03*
X67382D02*
D03*
X77029D02*
D03*
X72206D02*
D03*
X38871Y-75447D02*
D03*
Y-83447D02*
D03*
Y-79448D02*
D03*
X110000Y-82534D02*
D03*
Y-91783D02*
D03*
Y-87159D02*
D03*
X39000Y-60783D02*
D03*
Y-68783D02*
D03*
Y-64784D02*
D03*
Y-43284D02*
D03*
Y-51284D02*
D03*
Y-47284D02*
D03*
X91500Y-103284D02*
D03*
X81853D02*
D03*
X110000Y-77908D02*
D03*
Y-68659D02*
D03*
Y-73283D02*
D03*
Y-64034D02*
D03*
Y-54783D02*
D03*
Y-59408D02*
D03*
X50929Y-6007D02*
D03*
X58929D02*
D03*
X54929D02*
D03*
X49817Y-103284D02*
D03*
X62559D02*
D03*
X57735D02*
D03*
X36458D02*
D03*
X45412D02*
D03*
X40911D02*
D03*
X23100D02*
D03*
X32005D02*
D03*
X27553D02*
D03*
X9500D02*
D03*
X18647D02*
D03*
X14194D02*
D03*
X1500Y-80033D02*
D03*
Y-88283D02*
D03*
Y-84158D02*
D03*
Y-67659D02*
D03*
Y-75908D02*
D03*
Y-71784D02*
D03*
Y-59408D02*
D03*
Y-63534D02*
D03*
Y-55283D02*
D03*
Y-12383D02*
D03*
Y-16503D02*
D03*
Y-20624D02*
D03*
Y-24744D02*
D03*
Y-28863D02*
D03*
Y-32983D02*
D03*
X103300Y-59341D02*
D03*
Y-82126D02*
D03*
Y-73012D02*
D03*
Y-86683D02*
D03*
Y-77569D02*
D03*
X18647Y-99325D02*
D03*
X23100D02*
D03*
X14194D02*
D03*
X9500D02*
D03*
X103300Y-54783D02*
D03*
Y-63898D02*
D03*
Y-68455D02*
D03*
X70820Y-14250D02*
D03*
Y-16717D02*
D03*
Y-19184D02*
D03*
X70851Y-11001D02*
D03*
X60831D02*
D03*
X64031D02*
D03*
X82700Y-11784D02*
D03*
X74780D02*
D03*
X78740D02*
D03*
X108013Y-18978D02*
D03*
X106198Y-11667D02*
D03*
M02*
