M48
;Layer_Color=9474304
;FILE_FORMAT=2:5
INCH,LZ
;TYPE=PLATED
T2F00S00C0.01575
T3F00S00C0.02362
;TYPE=NON_PLATED
%
G90
G05
T02
G00X0025197Y-008002
M15
G01X0022047
M16
G00X001752Y-0057618
M15
G01Y-0060768
M16
G00X0029724Y-0057618
M15
G01Y-0060768
M16
G00X0049016Y-0057618
M15
G01Y-0060768
M16
G00X0061221Y-0057618
M15
G01Y-0060768
M16
G00X0080512Y-0057618
M15
G01Y-0060768
M16
G00X0092716Y-0057618
M15
G01Y-0060768
M16
G00X0088189Y-008002
M15
G01X0085039
M16
G00X0056693Y-008002
M15
G01X0053543
M16
T03
G00X0040945Y-0003543
M15
G01Y-0006299
M16
G00X0069291Y-0003543
M15
G01Y-0006299
M16
M17
M30
