G04 Layer_Color=2752767*
%FSLAX25Y25*%
%MOIN*%
G70*
G01*
G75*
%ADD239C,0.00200*%
%ADD240C,0.00267*%
%ADD241C,0.00133*%
D239*
X230302Y116917D02*
Y118517D01*
X231902D01*
Y116917D01*
X230302D01*
X353137Y154318D02*
Y155918D01*
X354737D01*
Y154318D01*
X353137D01*
X5105D02*
Y155918D01*
X6706D01*
Y154318D01*
X5105D01*
Y33058D02*
Y34658D01*
X6706D01*
Y33058D01*
X5105D01*
X261193Y152031D02*
X260393Y153631D01*
X261993D01*
X261193Y152031D01*
X143052Y57892D02*
X143452Y58292D01*
X143852D01*
X143452Y58692D01*
X143852Y59092D01*
X143452D01*
X143052Y59492D01*
X142652Y59092D01*
X142252D01*
X142652Y58692D01*
X142252Y58292D01*
X142652D01*
X143052Y57892D01*
X16400Y74100D02*
X16800Y74900D01*
X16400Y75700D01*
X17200Y75300D01*
X18000Y75700D01*
X17600Y74900D01*
X18000Y74100D01*
X17200Y74500D01*
X16400Y74100D01*
Y76554D02*
X16800Y77354D01*
X16400Y78154D01*
X17200Y77754D01*
X18000Y78154D01*
X17600Y77354D01*
X18000Y76554D01*
X17200Y76954D01*
X16400Y76554D01*
Y71700D02*
X16800Y72500D01*
X16400Y73300D01*
X17200Y72900D01*
X18000Y73300D01*
X17600Y72500D01*
X18000Y71700D01*
X17200Y72100D01*
X16400Y71700D01*
X30800Y131700D02*
Y131300D01*
X31600D01*
Y131700D01*
X32000D01*
Y132500D01*
X31600D01*
Y132900D01*
X30800D01*
Y132500D01*
X30400D01*
Y131700D01*
X30800D01*
X16300Y137523D02*
X16700Y138323D01*
X16300Y139123D01*
X17100Y138723D01*
X17900Y139123D01*
X17500Y138323D01*
X17900Y137523D01*
X17100Y137923D01*
X16300Y137523D01*
Y135069D02*
X16700Y135869D01*
X16300Y136669D01*
X17100Y136269D01*
X17900Y136669D01*
X17500Y135869D01*
X17900Y135069D01*
X17100Y135469D01*
X16300Y135069D01*
Y132615D02*
X16700Y133415D01*
X16300Y134215D01*
X17100Y133815D01*
X17900Y134215D01*
X17500Y133415D01*
X17900Y132615D01*
X17100Y133015D01*
X16300Y132615D01*
Y130215D02*
X16700Y131015D01*
X16300Y131815D01*
X17100Y131415D01*
X17900Y131815D01*
X17500Y131015D01*
X17900Y130215D01*
X17100Y130615D01*
X16300Y130215D01*
Y127761D02*
X16700Y128561D01*
X16300Y129361D01*
X17100Y128962D01*
X17900Y129361D01*
X17500Y128561D01*
X17900Y127761D01*
X17100Y128162D01*
X16300Y127761D01*
Y125308D02*
X16700Y126108D01*
X16300Y126908D01*
X17100Y126508D01*
X17900Y126908D01*
X17500Y126108D01*
X17900Y125308D01*
X17100Y125708D01*
X16300Y125308D01*
Y118000D02*
X16700Y118800D01*
X16300Y119600D01*
X17100Y119200D01*
X17900Y119600D01*
X17500Y118800D01*
X17900Y118000D01*
X17100Y118400D01*
X16300Y118000D01*
Y120454D02*
X16700Y121254D01*
X16300Y122054D01*
X17100Y121654D01*
X17900Y122054D01*
X17500Y121254D01*
X17900Y120454D01*
X17100Y120854D01*
X16300Y120454D01*
Y122908D02*
X16700Y123708D01*
X16300Y124508D01*
X17100Y124108D01*
X17900Y124508D01*
X17500Y123708D01*
X17900Y122908D01*
X17100Y123308D01*
X16300Y122908D01*
Y115600D02*
X16700Y116400D01*
X16300Y117200D01*
X17100Y116800D01*
X17900Y117200D01*
X17500Y116400D01*
X17900Y115600D01*
X17100Y116000D01*
X16300Y115600D01*
X20300Y107000D02*
X20700Y107800D01*
X20300Y108600D01*
X21100Y108200D01*
X21900Y108600D01*
X21500Y107800D01*
X21900Y107000D01*
X21100Y107400D01*
X20300Y107000D01*
X16600Y96700D02*
X17000Y97500D01*
X16600Y98300D01*
X17400Y97900D01*
X18200Y98300D01*
X17800Y97500D01*
X18200Y96700D01*
X17400Y97100D01*
X16600Y96700D01*
Y99154D02*
X17000Y99954D01*
X16600Y100754D01*
X17400Y100354D01*
X18200Y100754D01*
X17800Y99954D01*
X18200Y99154D01*
X17400Y99554D01*
X16600Y99154D01*
Y101608D02*
X17000Y102408D01*
X16600Y103208D01*
X17400Y102808D01*
X18200Y103208D01*
X17800Y102408D01*
X18200Y101608D01*
X17400Y102008D01*
X16600Y101608D01*
Y94300D02*
X17000Y95100D01*
X16600Y95900D01*
X17400Y95500D01*
X18200Y95900D01*
X17800Y95100D01*
X18200Y94300D01*
X17400Y94700D01*
X16600Y94300D01*
X81400Y179600D02*
X81800D01*
X82200Y180000D01*
X82600Y179600D01*
X83000D01*
Y180000D01*
X82600Y180400D01*
X83000Y180800D01*
Y181200D01*
X82600D01*
X82200Y180800D01*
X81800Y181200D01*
X81400D01*
Y180800D01*
X81800Y180400D01*
X81400Y180000D01*
Y179600D01*
X3900Y74300D02*
X4300Y75100D01*
X3900Y75900D01*
X4700Y75500D01*
X5500Y75900D01*
X5100Y75100D01*
X5500Y74300D01*
X4700Y74700D01*
X3900Y74300D01*
Y69446D02*
X4300Y70246D01*
X3900Y71046D01*
X4700Y70646D01*
X5500Y71046D01*
X5100Y70246D01*
X5500Y69446D01*
X4700Y69846D01*
X3900Y69446D01*
Y71900D02*
X4300Y72700D01*
X3900Y73500D01*
X4700Y73100D01*
X5500Y73500D01*
X5100Y72700D01*
X5500Y71900D01*
X4700Y72300D01*
X3900Y71900D01*
X8500Y105500D02*
X8900Y106300D01*
X8500Y107100D01*
X9300Y106700D01*
X10100Y107100D01*
X9700Y106300D01*
X10100Y105500D01*
X9300Y105900D01*
X8500Y105500D01*
X3646D02*
X4046Y106300D01*
X3646Y107100D01*
X4446Y106700D01*
X5246Y107100D01*
X4846Y106300D01*
X5246Y105500D01*
X4446Y105900D01*
X3646Y105500D01*
X6100D02*
X6500Y106300D01*
X6100Y107100D01*
X6900Y106700D01*
X7700Y107100D01*
X7300Y106300D01*
X7700Y105500D01*
X6900Y105900D01*
X6100Y105500D01*
X3200Y90900D02*
X3600Y91700D01*
X3200Y92500D01*
X4000Y92100D01*
X4800Y92500D01*
X4400Y91700D01*
X4800Y90900D01*
X4000Y91300D01*
X3200Y90900D01*
Y98208D02*
X3600Y99008D01*
X3200Y99808D01*
X4000Y99408D01*
X4800Y99808D01*
X4400Y99008D01*
X4800Y98208D01*
X4000Y98608D01*
X3200Y98208D01*
Y95754D02*
X3600Y96554D01*
X3200Y97354D01*
X4000Y96954D01*
X4800Y97354D01*
X4400Y96554D01*
X4800Y95754D01*
X4000Y96154D01*
X3200Y95754D01*
Y93300D02*
X3600Y94100D01*
X3200Y94900D01*
X4000Y94500D01*
X4800Y94900D01*
X4400Y94100D01*
X4800Y93300D01*
X4000Y93700D01*
X3200Y93300D01*
X12100Y105200D02*
X12500Y106000D01*
X12100Y106800D01*
X12900Y106400D01*
X13700Y106800D01*
X13300Y106000D01*
X13700Y105200D01*
X12900Y105600D01*
X12100Y105200D01*
X15300Y90800D02*
X15700Y91600D01*
X15300Y92400D01*
X16100Y92000D01*
X16900Y92400D01*
X16500Y91600D01*
X16900Y90800D01*
X16100Y91200D01*
X15300Y90800D01*
X9400Y73500D02*
X9800Y74300D01*
X9400Y75100D01*
X10200Y74700D01*
X11000Y75100D01*
X10600Y74300D01*
X11000Y73500D01*
X10200Y73900D01*
X9400Y73500D01*
X172500Y60600D02*
X172900Y61400D01*
X172500Y62200D01*
X173300Y61800D01*
X174100Y62200D01*
X173700Y61400D01*
X174100Y60600D01*
X173300Y61000D01*
X172500Y60600D01*
X170600Y61500D02*
X171000Y62300D01*
X170600Y63100D01*
X171400Y62700D01*
X172200Y63100D01*
X171800Y62300D01*
X172200Y61500D01*
X171400Y61900D01*
X170600Y61500D01*
X66300Y49600D02*
X66700Y50400D01*
X66300Y51200D01*
X67100Y50800D01*
X67900Y51200D01*
X67500Y50400D01*
X67900Y49600D01*
X67100Y50000D01*
X66300Y49600D01*
X69300Y49800D02*
X69700Y50600D01*
X69300Y51400D01*
X70100Y51000D01*
X70900Y51400D01*
X70500Y50600D01*
X70900Y49800D01*
X70100Y50200D01*
X69300Y49800D01*
X72400Y49900D02*
X72800Y50700D01*
X72400Y51500D01*
X73200Y51100D01*
X74000Y51500D01*
X73600Y50700D01*
X74000Y49900D01*
X73200Y50300D01*
X72400Y49900D01*
X32300Y45900D02*
X32700Y46700D01*
X32300Y47500D01*
X33100Y47100D01*
X33900Y47500D01*
X33500Y46700D01*
X33900Y45900D01*
X33100Y46300D01*
X32300Y45900D01*
X29800Y49300D02*
X30200Y50100D01*
X29800Y50900D01*
X30600Y50500D01*
X31400Y50900D01*
X31000Y50100D01*
X31400Y49300D01*
X30600Y49700D01*
X29800Y49300D01*
X21900Y55200D02*
X22300Y56000D01*
X21900Y56800D01*
X22700Y56400D01*
X23500Y56800D01*
X23100Y56000D01*
X23500Y55200D01*
X22700Y55600D01*
X21900Y55200D01*
X27900Y51500D02*
X28300Y52300D01*
X27900Y53100D01*
X28700Y52700D01*
X29500Y53100D01*
X29100Y52300D01*
X29500Y51500D01*
X28700Y51900D01*
X27900Y51500D01*
X19152Y51552D02*
X19552Y52352D01*
X19152Y53152D01*
X19952Y52752D01*
X20752Y53152D01*
X20352Y52352D01*
X20752Y51552D01*
X19952Y51952D01*
X19152Y51552D01*
X20600Y53400D02*
X21000Y54200D01*
X20600Y55000D01*
X21400Y54600D01*
X22200Y55000D01*
X21800Y54200D01*
X22200Y53400D01*
X21400Y53800D01*
X20600Y53400D01*
X65595Y90700D02*
X65995Y91500D01*
X65595Y92300D01*
X66395Y91900D01*
X67194Y92300D01*
X66795Y91500D01*
X67194Y90700D01*
X66395Y91100D01*
X65595Y90700D01*
X186365Y105499D02*
X186765Y106299D01*
X186365Y107099D01*
X187165Y106699D01*
X187965Y107099D01*
X187565Y106299D01*
X187965Y105499D01*
X187165Y105899D01*
X186365Y105499D01*
X185965Y102099D02*
X186365Y102899D01*
X185965Y103699D01*
X186765Y103299D01*
X187565Y103699D01*
X187165Y102899D01*
X187565Y102099D01*
X186765Y102499D01*
X185965Y102099D01*
X317610Y158855D02*
Y158455D01*
X318410D01*
Y158855D01*
X318810D01*
Y159655D01*
X318410D01*
Y160055D01*
X317610D01*
Y159655D01*
X317210D01*
Y158855D01*
X317610D01*
X300387Y171941D02*
Y171541D01*
X301187D01*
Y171941D01*
X301587D01*
Y172741D01*
X301187D01*
Y173141D01*
X300387D01*
Y172741D01*
X299987D01*
Y171941D01*
X300387D01*
X303437D02*
Y171541D01*
X304237D01*
Y171941D01*
X304637D01*
Y172741D01*
X304237D01*
Y173141D01*
X303437D01*
Y172741D01*
X303037D01*
Y171941D01*
X303437D01*
X262810Y134728D02*
X263210Y135528D01*
X262810Y136328D01*
X263610Y135928D01*
X264410Y136328D01*
X264010Y135528D01*
X264410Y134728D01*
X263610Y135128D01*
X262810Y134728D01*
X257900Y136599D02*
X258300Y137399D01*
X257900Y138199D01*
X258700Y137799D01*
X259500Y138199D01*
X259100Y137399D01*
X259500Y136599D01*
X258700Y136999D01*
X257900Y136599D01*
X257200Y134999D02*
X257600Y135799D01*
X257200Y136599D01*
X258000Y136199D01*
X258800Y136599D01*
X258400Y135799D01*
X258800Y134999D01*
X258000Y135399D01*
X257200Y134999D01*
X262755Y136331D02*
X263155Y137131D01*
X262755Y137931D01*
X263555Y137531D01*
X264355Y137931D01*
X263955Y137131D01*
X264355Y136331D01*
X263555Y136731D01*
X262755Y136331D01*
X292994Y146400D02*
X293394Y147200D01*
X292994Y148000D01*
X293794Y147600D01*
X294595Y148000D01*
X294195Y147200D01*
X294595Y146400D01*
X293794Y146800D01*
X292994Y146400D01*
X314048Y107300D02*
Y106900D01*
X314848D01*
Y107300D01*
X315248D01*
Y108100D01*
X314848D01*
Y108500D01*
X314048D01*
Y108100D01*
X313648D01*
Y107300D01*
X314048D01*
X201400Y87399D02*
X202200Y88199D01*
X203000Y87399D01*
X202200Y86599D01*
X201400Y87399D01*
X273800Y22299D02*
X274600Y23099D01*
X275400Y22299D01*
X274600Y21499D01*
X273800Y22299D01*
X228856Y169351D02*
Y168951D01*
X229656D01*
Y169351D01*
X230056D01*
Y170151D01*
X229656D01*
Y170551D01*
X228856D01*
Y170151D01*
X228456D01*
Y169351D01*
X228856D01*
X244000Y151699D02*
X244400Y152499D01*
X244000Y153299D01*
X244800Y152899D01*
X245600Y153299D01*
X245200Y152499D01*
X245600Y151699D01*
X244800Y152099D01*
X244000Y151699D01*
X244490Y146799D02*
X244890Y147599D01*
X244490Y148399D01*
X245290Y147999D01*
X246090Y148399D01*
X245690Y147599D01*
X246090Y146799D01*
X245290Y147199D01*
X244490Y146799D01*
X245600Y151699D02*
X246000Y152499D01*
X245600Y153299D01*
X246400Y152899D01*
X247200Y153299D01*
X246800Y152499D01*
X247200Y151699D01*
X246400Y152099D01*
X245600Y151699D01*
X241400Y109699D02*
X241800D01*
X242200Y110099D01*
X242600Y109699D01*
X243000D01*
Y110099D01*
X242600Y110499D01*
X243000Y110899D01*
Y111299D01*
X242600D01*
X242200Y110899D01*
X241800Y111299D01*
X241400D01*
Y110899D01*
X241800Y110499D01*
X241400Y110099D01*
Y109699D01*
X244400Y109599D02*
X244800D01*
X245200Y109999D01*
X245600Y109599D01*
X246000D01*
Y109999D01*
X245600Y110399D01*
X246000Y110799D01*
Y111199D01*
X245600D01*
X245200Y110799D01*
X244800Y111199D01*
X244400D01*
Y110799D01*
X244800Y110399D01*
X244400Y109999D01*
Y109599D01*
X275800Y169699D02*
X276200Y170499D01*
X275800Y171299D01*
X276600Y170899D01*
X277400Y171299D01*
X277000Y170499D01*
X277400Y169699D01*
X276600Y170099D01*
X275800Y169699D01*
X273000Y169899D02*
X273400Y170699D01*
X273000Y171499D01*
X273800Y171099D01*
X274600Y171499D01*
X274200Y170699D01*
X274600Y169899D01*
X273800Y170299D01*
X273000Y169899D01*
X272900Y168099D02*
X273300Y168899D01*
X272900Y169699D01*
X273700Y169299D01*
X274500Y169699D01*
X274100Y168899D01*
X274500Y168099D01*
X273700Y168499D01*
X272900Y168099D01*
X244600Y148499D02*
X245000Y149299D01*
X244600Y150099D01*
X245400Y149699D01*
X246200Y150099D01*
X245800Y149299D01*
X246200Y148499D01*
X245400Y148899D01*
X244600Y148499D01*
X246100Y149199D02*
X246500Y149999D01*
X246100Y150799D01*
X246900Y150399D01*
X247700Y150799D01*
X247300Y149999D01*
X247700Y149199D01*
X246900Y149599D01*
X246100Y149199D01*
X211896Y170700D02*
X212296D01*
X212696Y171100D01*
X213096Y170700D01*
X213496D01*
Y171100D01*
X213096Y171500D01*
X213496Y171900D01*
Y172300D01*
X213096D01*
X212696Y171900D01*
X212296Y172300D01*
X211896D01*
Y171900D01*
X212296Y171500D01*
X211896Y171100D01*
Y170700D01*
X134750Y22031D02*
X135150Y22831D01*
X134750Y23631D01*
X135550Y23231D01*
X136350Y23631D01*
X135950Y22831D01*
X136350Y22031D01*
X135550Y22431D01*
X134750Y22031D01*
X132030D02*
X132430Y22831D01*
X132030Y23631D01*
X132830Y23231D01*
X133630Y23631D01*
X133230Y22831D01*
X133630Y22031D01*
X132830Y22431D01*
X132030Y22031D01*
X107500Y35799D02*
Y35399D01*
X108300D01*
Y35799D01*
X108700D01*
Y36599D01*
X108300D01*
Y36999D01*
X107500D01*
Y36599D01*
X107100D01*
Y35799D01*
X107500D01*
X146100Y10699D02*
X146500Y11499D01*
X146100Y12299D01*
X146900Y11899D01*
X147700Y12299D01*
X147300Y11499D01*
X147700Y10699D01*
X146900Y11099D01*
X146100Y10699D01*
X143000D02*
X143400Y11499D01*
X143000Y12299D01*
X143800Y11899D01*
X144600Y12299D01*
X144200Y11499D01*
X144600Y10699D01*
X143800Y11099D01*
X143000Y10699D01*
X261765Y41299D02*
Y40899D01*
X262565D01*
Y41299D01*
X262965D01*
Y42099D01*
X262565D01*
Y42499D01*
X261765D01*
Y42099D01*
X261365D01*
Y41299D01*
X261765D01*
Y44099D02*
Y43699D01*
X262565D01*
Y44099D01*
X262965D01*
Y44899D01*
X262565D01*
Y45299D01*
X261765D01*
Y44899D01*
X261365D01*
Y44099D01*
X261765D01*
X258565D02*
Y43699D01*
X259365D01*
Y44099D01*
X259765D01*
Y44899D01*
X259365D01*
Y45299D01*
X258565D01*
Y44899D01*
X258165D01*
Y44099D01*
X258565D01*
Y41199D02*
Y40799D01*
X259365D01*
Y41199D01*
X259765D01*
Y41999D01*
X259365D01*
Y42399D01*
X258565D01*
Y41999D01*
X258165D01*
Y41199D01*
X258565D01*
X280948Y85400D02*
Y85000D01*
X281748D01*
Y85400D01*
X282148D01*
Y86200D01*
X281748D01*
Y86600D01*
X280948D01*
Y86200D01*
X280548D01*
Y85400D01*
X280948D01*
X277965Y85299D02*
Y84899D01*
X278765D01*
Y85299D01*
X279165D01*
Y86099D01*
X278765D01*
Y86499D01*
X277965D01*
Y86099D01*
X277565D01*
Y85299D01*
X277965D01*
X274965D02*
Y84899D01*
X275765D01*
Y85299D01*
X276165D01*
Y86099D01*
X275765D01*
Y86499D01*
X274965D01*
Y86099D01*
X274565D01*
Y85299D01*
X274965D01*
X294100Y82599D02*
X294900Y83399D01*
X295700Y82599D01*
X294900Y81799D01*
X294100Y82599D01*
X291500D02*
X292300Y83399D01*
X293100Y82599D01*
X292300Y81799D01*
X291500Y82599D01*
X289000D02*
X289800Y83399D01*
X290600Y82599D01*
X289800Y81799D01*
X289000Y82599D01*
X285800Y78999D02*
X286600Y79799D01*
X287400Y78999D01*
X286600Y78199D01*
X285800Y78999D01*
X284200Y77099D02*
X285000Y77899D01*
X285800Y77099D01*
X285000Y76299D01*
X284200Y77099D01*
Y74633D02*
X285000Y75433D01*
X285800Y74633D01*
X285000Y73833D01*
X284200Y74633D01*
Y72166D02*
X285000Y72966D01*
X285800Y72166D01*
X285000Y71366D01*
X284200Y72166D01*
X286665D02*
X287465Y72966D01*
X288265Y72166D01*
X287465Y71366D01*
X286665Y72166D01*
X322165Y30599D02*
X322965Y31399D01*
X323765Y30599D01*
X322965Y29799D01*
X322165Y30599D01*
X324665D02*
X325465Y31399D01*
X326265Y30599D01*
X325465Y29799D01*
X324665Y30599D01*
X298465Y30399D02*
X299265Y31199D01*
X300065Y30399D01*
X299265Y29599D01*
X298465Y30399D01*
X300865D02*
X301665Y31199D01*
X302465Y30399D01*
X301665Y29599D01*
X300865Y30399D01*
X296065D02*
X296865Y31199D01*
X297665Y30399D01*
X296865Y29599D01*
X296065Y30399D01*
X285900Y40999D02*
X286700Y41799D01*
X287500Y40999D01*
X286700Y40199D01*
X285900Y40999D01*
X290365Y37199D02*
X291165Y37999D01*
X291965Y37199D01*
X291165Y36399D01*
X290365Y37199D01*
X287965D02*
X288765Y37999D01*
X289565Y37199D01*
X288765Y36399D01*
X287965Y37199D01*
X290465Y34799D02*
X291265Y35599D01*
X292065Y34799D01*
X291265Y33999D01*
X290465Y34799D01*
X287992D02*
X288792Y35599D01*
X289592Y34799D01*
X288792Y33999D01*
X287992Y34799D01*
X285494Y35300D02*
X286295Y36100D01*
X287094Y35300D01*
X286295Y34500D01*
X285494Y35300D01*
X283665Y53999D02*
X284465Y54799D01*
X285265Y53999D01*
X284465Y53199D01*
X283665Y53999D01*
X154700Y23500D02*
X155100Y24300D01*
X154700Y25100D01*
X155500Y24700D01*
X156300Y25100D01*
X155900Y24300D01*
X156300Y23500D01*
X155500Y23900D01*
X154700Y23500D01*
X152565Y116999D02*
X152965Y117799D01*
X152565Y118599D01*
X153365Y118199D01*
X154165Y118599D01*
X153765Y117799D01*
X154165Y116999D01*
X153365Y117399D01*
X152565Y116999D01*
X306065Y36499D02*
X306465Y37299D01*
X306065Y38099D01*
X306865Y37699D01*
X307665Y38099D01*
X307265Y37299D01*
X307665Y36499D01*
X306865Y36899D01*
X306065Y36499D01*
X165465Y95899D02*
X165865Y96699D01*
X165465Y97499D01*
X166265Y97099D01*
X167065Y97499D01*
X166665Y96699D01*
X167065Y95899D01*
X166265Y96299D01*
X165465Y95899D01*
X170650Y75074D02*
X171050D01*
X171450Y75474D01*
X171850Y75074D01*
X172250D01*
Y75474D01*
X171850Y75874D01*
X172250Y76274D01*
Y76674D01*
X171850D01*
X171450Y76274D01*
X171050Y76674D01*
X170650D01*
Y76274D01*
X171050Y75874D01*
X170650Y75474D01*
Y75074D01*
X230265Y89199D02*
Y88799D01*
X231065D01*
Y89199D01*
X231465D01*
Y89999D01*
X231065D01*
Y90399D01*
X230265D01*
Y89999D01*
X229865D01*
Y89199D01*
X230265D01*
X217765Y141999D02*
X218165D01*
X218565Y142399D01*
X218965Y141999D01*
X219365D01*
Y142399D01*
X218965Y142799D01*
X219365Y143199D01*
Y143599D01*
X218965D01*
X218565Y143199D01*
X218165Y143599D01*
X217765D01*
Y143199D01*
X218165Y142799D01*
X217765Y142399D01*
Y141999D01*
X221265D02*
X221665D01*
X222065Y142399D01*
X222465Y141999D01*
X222865D01*
Y142399D01*
X222465Y142799D01*
X222865Y143199D01*
Y143599D01*
X222465D01*
X222065Y143199D01*
X221665Y143599D01*
X221265D01*
Y143199D01*
X221665Y142799D01*
X221265Y142399D01*
Y141999D01*
X214765Y74199D02*
X215165D01*
X215565Y74599D01*
X215965Y74199D01*
X216365D01*
Y74599D01*
X215965Y74999D01*
X216365Y75399D01*
Y75799D01*
X215965D01*
X215565Y75399D01*
X215165Y75799D01*
X214765D01*
Y75399D01*
X215165Y74999D01*
X214765Y74599D01*
Y74199D01*
X144565Y77199D02*
X144965D01*
X145365Y77599D01*
X145765Y77199D01*
X146165D01*
Y77599D01*
X145765Y77999D01*
X146165Y78399D01*
Y78799D01*
X145765D01*
X145365Y78399D01*
X144965Y78799D01*
X144565D01*
Y78399D01*
X144965Y77999D01*
X144565Y77599D01*
Y77199D01*
X144465Y81499D02*
X144865D01*
X145265Y81899D01*
X145665Y81499D01*
X146065D01*
Y81899D01*
X145665Y82299D01*
X146065Y82699D01*
Y83099D01*
X145665D01*
X145265Y82699D01*
X144865Y83099D01*
X144465D01*
Y82699D01*
X144865Y82299D01*
X144465Y81899D01*
Y81499D01*
X144565Y73099D02*
X144965D01*
X145365Y73499D01*
X145765Y73099D01*
X146165D01*
Y73499D01*
X145765Y73899D01*
X146165Y74299D01*
Y74699D01*
X145765D01*
X145365Y74299D01*
X144965Y74699D01*
X144565D01*
Y74299D01*
X144965Y73899D01*
X144565Y73499D01*
Y73099D01*
X239965Y129099D02*
X240365Y129899D01*
X239965Y130699D01*
X240765Y130299D01*
X241565Y130699D01*
X241165Y129899D01*
X241565Y129099D01*
X240765Y129499D01*
X239965Y129099D01*
X242065D02*
X242465Y129899D01*
X242065Y130699D01*
X242865Y130299D01*
X243665Y130699D01*
X243265Y129899D01*
X243665Y129099D01*
X242865Y129499D01*
X242065Y129099D01*
Y130999D02*
X242465Y131799D01*
X242065Y132599D01*
X242865Y132199D01*
X243665Y132599D01*
X243265Y131799D01*
X243665Y130999D01*
X242865Y131399D01*
X242065Y130999D01*
X300765Y34799D02*
X301165Y35599D01*
X300765Y36399D01*
X301565Y35999D01*
X302365Y36399D01*
X301965Y35599D01*
X302365Y34799D01*
X301565Y35199D01*
X300765Y34799D01*
X300665Y36599D02*
X301065Y37399D01*
X300665Y38199D01*
X301465Y37799D01*
X302265Y38199D01*
X301865Y37399D01*
X302265Y36599D01*
X301465Y36999D01*
X300665Y36599D01*
X300365Y117099D02*
X300765Y117899D01*
X300365Y118699D01*
X301165Y118299D01*
X301965Y118699D01*
X301565Y117899D01*
X301965Y117099D01*
X301165Y117499D01*
X300365Y117099D01*
X303993Y118844D02*
X304393Y119644D01*
X303993Y120445D01*
X304792Y120045D01*
X305592Y120445D01*
X305192Y119644D01*
X305592Y118844D01*
X304792Y119245D01*
X303993Y118844D01*
X24748Y64000D02*
X25148D01*
X25548Y64400D01*
X25948Y64000D01*
X26348D01*
Y64400D01*
X25948Y64800D01*
X26348Y65200D01*
Y65600D01*
X25948D01*
X25548Y65200D01*
X25148Y65600D01*
X24748D01*
Y65200D01*
X25148Y64800D01*
X24748Y64400D01*
Y64000D01*
X272193Y102483D02*
X272993Y103284D01*
X273793Y102483D01*
X272993Y101683D01*
X272193Y102483D01*
X78593Y158731D02*
X78993D01*
X79393Y159131D01*
X79793Y158731D01*
X80193D01*
Y159131D01*
X79793Y159531D01*
X80193Y159931D01*
Y160331D01*
X79793D01*
X79393Y159931D01*
X78993Y160331D01*
X78593D01*
Y159931D01*
X78993Y159531D01*
X78593Y159131D01*
Y158731D01*
X87493Y180831D02*
X87893D01*
X88293Y181231D01*
X88693Y180831D01*
X89093D01*
Y181231D01*
X88693Y181631D01*
X89093Y182031D01*
Y182431D01*
X88693D01*
X88293Y182031D01*
X87893Y182431D01*
X87493D01*
Y182031D01*
X87893Y181631D01*
X87493Y181231D01*
Y180831D01*
X80986Y165256D02*
X81386D01*
X81786Y165656D01*
X82186Y165256D01*
X82586D01*
Y165656D01*
X82186Y166056D01*
X82586Y166456D01*
Y166856D01*
X82186D01*
X81786Y166456D01*
X81386Y166856D01*
X80986D01*
Y166456D01*
X81386Y166056D01*
X80986Y165656D01*
Y165256D01*
X83748Y162700D02*
X84148D01*
X84548Y163100D01*
X84948Y162700D01*
X85348D01*
Y163100D01*
X84948Y163500D01*
X85348Y163900D01*
Y164300D01*
X84948D01*
X84548Y163900D01*
X84148Y164300D01*
X83748D01*
Y163900D01*
X84148Y163500D01*
X83748Y163100D01*
Y162700D01*
X211948Y167200D02*
X212348D01*
X212748Y167600D01*
X213148Y167200D01*
X213548D01*
Y167600D01*
X213148Y168000D01*
X213548Y168400D01*
Y168800D01*
X213148D01*
X212748Y168400D01*
X212348Y168800D01*
X211948D01*
Y168400D01*
X212348Y168000D01*
X211948Y167600D01*
Y167200D01*
X218648Y154000D02*
X219048D01*
X219448Y154400D01*
X219848Y154000D01*
X220248D01*
Y154400D01*
X219848Y154800D01*
X220248Y155200D01*
Y155600D01*
X219848D01*
X219448Y155200D01*
X219048Y155600D01*
X218648D01*
Y155200D01*
X219048Y154800D01*
X218648Y154400D01*
Y154000D01*
X139248Y156800D02*
X139648Y157600D01*
X139248Y158400D01*
X140048Y158000D01*
X140848Y158400D01*
X140448Y157600D01*
X140848Y156800D01*
X140048Y157200D01*
X139248Y156800D01*
X137748Y171900D02*
X138148Y172700D01*
X137748Y173500D01*
X138548Y173100D01*
X139348Y173500D01*
X138948Y172700D01*
X139348Y171900D01*
X138548Y172300D01*
X137748Y171900D01*
X134748Y169600D02*
X135148Y170400D01*
X134748Y171200D01*
X135548Y170800D01*
X136348Y171200D01*
X135948Y170400D01*
X136348Y169600D01*
X135548Y170000D01*
X134748Y169600D01*
X150930Y24231D02*
X151330Y25031D01*
X150930Y25831D01*
X151730Y25431D01*
X152530Y25831D01*
X152130Y25031D01*
X152530Y24231D01*
X151730Y24631D01*
X150930Y24231D01*
X143348Y161500D02*
X143748Y162300D01*
X143348Y163100D01*
X144148Y162700D01*
X144948Y163100D01*
X144548Y162300D01*
X144948Y161500D01*
X144148Y161900D01*
X143348Y161500D01*
X144848Y165800D02*
Y165400D01*
X145648D01*
Y165800D01*
X146048D01*
Y166600D01*
X145648D01*
Y167000D01*
X144848D01*
Y166600D01*
X144448D01*
Y165800D01*
X144848D01*
X133948Y176500D02*
X134348D01*
X134748Y176900D01*
X135148Y176500D01*
X135548D01*
Y176900D01*
X135148Y177300D01*
X135548Y177700D01*
Y178100D01*
X135148D01*
X134748Y177700D01*
X134348Y178100D01*
X133948D01*
Y177700D01*
X134348Y177300D01*
X133948Y176900D01*
Y176500D01*
X137848Y180700D02*
X138248D01*
X138648Y181100D01*
X139048Y180700D01*
X139448D01*
Y181100D01*
X139048Y181500D01*
X139448Y181900D01*
Y182300D01*
X139048D01*
X138648Y181900D01*
X138248Y182300D01*
X137848D01*
Y181900D01*
X138248Y181500D01*
X137848Y181100D01*
Y180700D01*
X74648Y23500D02*
X75048D01*
X75448Y23900D01*
X75848Y23500D01*
X76248D01*
Y23900D01*
X75848Y24300D01*
X76248Y24700D01*
Y25100D01*
X75848D01*
X75448Y24700D01*
X75048Y25100D01*
X74648D01*
Y24700D01*
X75048Y24300D01*
X74648Y23900D01*
Y23500D01*
X211265Y74199D02*
X211665D01*
X212065Y74599D01*
X212465Y74199D01*
X212865D01*
Y74599D01*
X212465Y74999D01*
X212865Y75399D01*
Y75799D01*
X212465D01*
X212065Y75399D01*
X211665Y75799D01*
X211265D01*
Y75399D01*
X211665Y74999D01*
X211265Y74599D01*
Y74199D01*
X212248Y78300D02*
X212648Y79100D01*
X212248Y79900D01*
X213048Y79500D01*
X213848Y79900D01*
X213448Y79100D01*
X213848Y78300D01*
X213048Y78700D01*
X212248Y78300D01*
X71448Y23500D02*
X71848D01*
X72248Y23900D01*
X72648Y23500D01*
X73048D01*
Y23900D01*
X72648Y24300D01*
X73048Y24700D01*
Y25100D01*
X72648D01*
X72248Y24700D01*
X71848Y25100D01*
X71448D01*
Y24700D01*
X71848Y24300D01*
X71448Y23900D01*
Y23500D01*
X170100Y144099D02*
X170500Y144899D01*
X170100Y145699D01*
X170900Y145299D01*
X171700Y145699D01*
X171300Y144899D01*
X171700Y144099D01*
X170900Y144499D01*
X170100Y144099D01*
X170148Y136000D02*
X170548Y136800D01*
X170148Y137600D01*
X170948Y137200D01*
X171748Y137600D01*
X171348Y136800D01*
X171748Y136000D01*
X170948Y136400D01*
X170148Y136000D01*
X153948Y154847D02*
X154348Y155647D01*
X153948Y156447D01*
X154748Y156047D01*
X155548Y156447D01*
X155148Y155647D01*
X155548Y154847D01*
X154748Y155247D01*
X153948Y154847D01*
Y156923D02*
X154348Y157723D01*
X153948Y158523D01*
X154748Y158124D01*
X155548Y158523D01*
X155148Y157723D01*
X155548Y156923D01*
X154748Y157324D01*
X153948Y156923D01*
Y167200D02*
X154348Y168000D01*
X153948Y168800D01*
X154748Y168400D01*
X155548Y168800D01*
X155148Y168000D01*
X155548Y167200D01*
X154748Y167600D01*
X153948Y167200D01*
X154048Y169550D02*
X154448Y170350D01*
X154048Y171150D01*
X154848Y170750D01*
X155648Y171150D01*
X155248Y170350D01*
X155648Y169550D01*
X154848Y169950D01*
X154048Y169550D01*
X151665Y170800D02*
X152065Y171600D01*
X151665Y172400D01*
X152465Y172000D01*
X153265Y172400D01*
X152865Y171600D01*
X153265Y170800D01*
X152465Y171200D01*
X151665Y170800D01*
X168548Y174500D02*
X168948Y175300D01*
X168548Y176100D01*
X169348Y175700D01*
X170148Y176100D01*
X169748Y175300D01*
X170148Y174500D01*
X169348Y174900D01*
X168548Y174500D01*
X164465Y171284D02*
X164865Y172084D01*
X164465Y172884D01*
X165265Y172484D01*
X166065Y172884D01*
X165665Y172084D01*
X166065Y171284D01*
X165265Y171684D01*
X164465Y171284D01*
Y167400D02*
X164865Y168200D01*
X164465Y169000D01*
X165265Y168600D01*
X166065Y169000D01*
X165665Y168200D01*
X166065Y167400D01*
X165265Y167800D01*
X164465Y167400D01*
X170848Y174500D02*
X171248Y175300D01*
X170848Y176100D01*
X171648Y175700D01*
X172448Y176100D01*
X172048Y175300D01*
X172448Y174500D01*
X171648Y174900D01*
X170848Y174500D01*
X208848Y146400D02*
X209248D01*
X209648Y146800D01*
X210048Y146400D01*
X210448D01*
Y146800D01*
X210048Y147200D01*
X210448Y147600D01*
Y148000D01*
X210048D01*
X209648Y147600D01*
X209248Y148000D01*
X208848D01*
Y147600D01*
X209248Y147200D01*
X208848Y146800D01*
Y146400D01*
X206048Y168900D02*
Y168500D01*
X206848D01*
Y168900D01*
X207248D01*
Y169700D01*
X206848D01*
Y170100D01*
X206048D01*
Y169700D01*
X205648D01*
Y168900D01*
X206048D01*
X188248Y173900D02*
X188648D01*
X189048Y174300D01*
X189448Y173900D01*
X189848D01*
Y174300D01*
X189448Y174700D01*
X189848Y175100D01*
Y175500D01*
X189448D01*
X189048Y175100D01*
X188648Y175500D01*
X188248D01*
Y175100D01*
X188648Y174700D01*
X188248Y174300D01*
Y173900D01*
X169050Y111774D02*
X169450Y112574D01*
X169050Y113374D01*
X169850Y112974D01*
X170650Y113374D01*
X170250Y112574D01*
X170650Y111774D01*
X169850Y112174D01*
X169050Y111774D01*
X167548Y121300D02*
X167948Y122100D01*
X167548Y122900D01*
X168348Y122500D01*
X169148Y122900D01*
X168748Y122100D01*
X169148Y121300D01*
X168348Y121700D01*
X167548Y121300D01*
X221848Y86300D02*
X222248D01*
X222648Y86700D01*
X223048Y86300D01*
X223448D01*
Y86700D01*
X223048Y87100D01*
X223448Y87500D01*
Y87900D01*
X223048D01*
X222648Y87500D01*
X222248Y87900D01*
X221848D01*
Y87500D01*
X222248Y87100D01*
X221848Y86700D01*
Y86300D01*
X237448Y105400D02*
X237848D01*
X238248Y105800D01*
X238648Y105400D01*
X239048D01*
Y105800D01*
X238648Y106200D01*
X239048Y106600D01*
Y107000D01*
X238648D01*
X238248Y106600D01*
X237848Y107000D01*
X237448D01*
Y106600D01*
X237848Y106200D01*
X237448Y105800D01*
Y105400D01*
X306648Y132000D02*
X307048Y132800D01*
X306648Y133600D01*
X307448Y133200D01*
X308248Y133600D01*
X307848Y132800D01*
X308248Y132000D01*
X307448Y132400D01*
X306648Y132000D01*
X302448Y131300D02*
X302848Y132100D01*
X302448Y132900D01*
X303248Y132500D01*
X304048Y132900D01*
X303648Y132100D01*
X304048Y131300D01*
X303248Y131700D01*
X302448Y131300D01*
X302348Y128800D02*
X302748Y129600D01*
X302348Y130400D01*
X303148Y130000D01*
X303948Y130400D01*
X303548Y129600D01*
X303948Y128800D01*
X303148Y129200D01*
X302348Y128800D01*
X322500Y72199D02*
X323300Y72999D01*
X324100Y72199D01*
X323300Y71399D01*
X322500Y72199D01*
X326400Y72099D02*
X327200Y72899D01*
X328000Y72099D01*
X327200Y71299D01*
X326400Y72099D01*
X324048Y64800D02*
X324848Y65600D01*
X325648Y64800D01*
X324848Y64000D01*
X324048Y64800D01*
X318848Y63600D02*
X319648Y64400D01*
X320448Y63600D01*
X319648Y62800D01*
X318848Y63600D01*
X313293Y63283D02*
X313693Y64083D01*
X313293Y64883D01*
X314093Y64483D01*
X314893Y64883D01*
X314493Y64083D01*
X314893Y63283D01*
X314093Y63683D01*
X313293Y63283D01*
X260487Y27078D02*
X260887Y27878D01*
X260487Y28678D01*
X261287Y28278D01*
X262087Y28678D01*
X261687Y27878D01*
X262087Y27078D01*
X261287Y27478D01*
X260487Y27078D01*
X258519Y28758D02*
X258919Y29557D01*
X258519Y30358D01*
X259319Y29958D01*
X260119Y30358D01*
X259719Y29557D01*
X260119Y28758D01*
X259319Y29158D01*
X258519Y28758D01*
X243493Y25684D02*
X243893Y26484D01*
X243493Y27283D01*
X244293Y26884D01*
X245093Y27283D01*
X244693Y26484D01*
X245093Y25684D01*
X244293Y26083D01*
X243493Y25684D01*
X210948Y46500D02*
X211348Y47300D01*
X210948Y48100D01*
X211748Y47700D01*
X212548Y48100D01*
X212148Y47300D01*
X212548Y46500D01*
X211748Y46900D01*
X210948Y46500D01*
X210350Y48869D02*
X210750Y49669D01*
X210350Y50469D01*
X211150Y50069D01*
X211950Y50469D01*
X211550Y49669D01*
X211950Y48869D01*
X211150Y49269D01*
X210350Y48869D01*
X218193Y41383D02*
X218593Y42184D01*
X218193Y42983D01*
X218993Y42584D01*
X219793Y42983D01*
X219393Y42184D01*
X219793Y41383D01*
X218993Y41783D01*
X218193Y41383D01*
X229293Y51410D02*
X229693Y52210D01*
X229293Y53010D01*
X230093Y52610D01*
X230893Y53010D01*
X230493Y52210D01*
X230893Y51410D01*
X230093Y51810D01*
X229293Y51410D01*
X227993Y39783D02*
X228393Y40584D01*
X227993Y41383D01*
X228793Y40984D01*
X229593Y41383D01*
X229193Y40584D01*
X229593Y39783D01*
X228793Y40183D01*
X227993Y39783D01*
X231393Y36184D02*
X231793Y36983D01*
X231393Y37784D01*
X232193Y37383D01*
X232993Y37784D01*
X232593Y36983D01*
X232993Y36184D01*
X232193Y36584D01*
X231393Y36184D01*
X229693Y38284D02*
X230093Y39083D01*
X229693Y39884D01*
X230493Y39483D01*
X231293Y39884D01*
X230893Y39083D01*
X231293Y38284D01*
X230493Y38684D01*
X229693Y38284D01*
X283848Y38800D02*
X284648Y39600D01*
X285448Y38800D01*
X284648Y38000D01*
X283848Y38800D01*
X285848Y60100D02*
X286648Y60900D01*
X287448Y60100D01*
X286648Y59300D01*
X285848Y60100D01*
Y56600D02*
X286648Y57400D01*
X287448Y56600D01*
X286648Y55800D01*
X285848Y56600D01*
Y49600D02*
X286648Y50400D01*
X287448Y49600D01*
X286648Y48800D01*
X285848Y49600D01*
Y46100D02*
X286648Y46900D01*
X287448Y46100D01*
X286648Y45300D01*
X285848Y46100D01*
X323448Y57700D02*
X324248Y58500D01*
X325048Y57700D01*
X324248Y56900D01*
X323448Y57700D01*
X286844Y63027D02*
Y62627D01*
X287644D01*
Y63027D01*
X288044D01*
Y63827D01*
X287644D01*
Y64227D01*
X286844D01*
Y63827D01*
X286444D01*
Y63027D01*
X286844D01*
X297148Y59200D02*
Y58800D01*
X297948D01*
Y59200D01*
X298348D01*
Y60000D01*
X297948D01*
Y60400D01*
X297148D01*
Y60000D01*
X296748D01*
Y59200D01*
X297148D01*
X295150Y67000D02*
X295950Y67800D01*
X296750Y67000D01*
X295950Y66200D01*
X295150Y67000D01*
X297500Y65599D02*
X298300Y66399D01*
X299100Y65599D01*
X298300Y64799D01*
X297500Y65599D01*
X299800D02*
X300600Y66399D01*
X301400Y65599D01*
X300600Y64799D01*
X299800Y65599D01*
X297748Y51300D02*
X298148Y52100D01*
X297748Y52900D01*
X298548Y52500D01*
X299348Y52900D01*
X298948Y52100D01*
X299348Y51300D01*
X298548Y51700D01*
X297748Y51300D01*
X308848Y32900D02*
X309248Y33700D01*
X308848Y34500D01*
X309648Y34100D01*
X310448Y34500D01*
X310048Y33700D01*
X310448Y32900D01*
X309648Y33300D01*
X308848Y32900D01*
X306748D02*
X307148Y33700D01*
X306748Y34500D01*
X307548Y34100D01*
X308348Y34500D01*
X307948Y33700D01*
X308348Y32900D01*
X307548Y33300D01*
X306748Y32900D01*
X332748Y32400D02*
X333148D01*
X333548Y32800D01*
X333948Y32400D01*
X334348D01*
Y32800D01*
X333948Y33200D01*
X334348Y33600D01*
Y34000D01*
X333948D01*
X333548Y33600D01*
X333148Y34000D01*
X332748D01*
Y33600D01*
X333148Y33200D01*
X332748Y32800D01*
Y32400D01*
X328748Y54400D02*
X329548Y55200D01*
X330348Y54400D01*
X329548Y53600D01*
X328748Y54400D01*
X344448Y123800D02*
Y123400D01*
X345248D01*
Y123800D01*
X345648D01*
Y124600D01*
X345248D01*
Y125000D01*
X344448D01*
Y124600D01*
X344048D01*
Y123800D01*
X344448D01*
Y128150D02*
Y127750D01*
X345248D01*
Y128150D01*
X345648D01*
Y128950D01*
X345248D01*
Y129350D01*
X344448D01*
Y128950D01*
X344048D01*
Y128150D01*
X344448D01*
Y132500D02*
Y132100D01*
X345248D01*
Y132500D01*
X345648D01*
Y133300D01*
X345248D01*
Y133700D01*
X344448D01*
Y133300D01*
X344048D01*
Y132500D01*
X344448D01*
X354148Y121400D02*
Y121000D01*
X354948D01*
Y121400D01*
X355348D01*
Y122200D01*
X354948D01*
Y122600D01*
X354148D01*
Y122200D01*
X353748D01*
Y121400D01*
X354148D01*
X116848Y7300D02*
Y6900D01*
X117648D01*
Y7300D01*
X118048D01*
Y8100D01*
X117648D01*
Y8500D01*
X116848D01*
Y8100D01*
X116448D01*
Y7300D01*
X116848D01*
X275593Y102884D02*
X276393Y103683D01*
X277193Y102884D01*
X276393Y102084D01*
X275593Y102884D01*
X280450Y100983D02*
X281250Y101783D01*
X282050Y100983D01*
X281250Y100183D01*
X280450Y100983D01*
X172350Y93483D02*
X172750Y94283D01*
X172350Y95083D01*
X173150Y94683D01*
X173950Y95083D01*
X173550Y94283D01*
X173950Y93483D01*
X173150Y93883D01*
X172350Y93483D01*
X200850Y133174D02*
X201250Y133974D01*
X200850Y134774D01*
X201650Y134374D01*
X202450Y134774D01*
X202050Y133974D01*
X202450Y133174D01*
X201650Y133574D01*
X200850Y133174D01*
X200800Y137174D02*
X201200Y137974D01*
X200800Y138774D01*
X201600Y138374D01*
X202400Y138774D01*
X202000Y137974D01*
X202400Y137174D01*
X201600Y137574D01*
X200800Y137174D01*
X200850Y139174D02*
X201250Y139974D01*
X200850Y140774D01*
X201650Y140374D01*
X202450Y140774D01*
X202050Y139974D01*
X202450Y139174D01*
X201650Y139574D01*
X200850Y139174D01*
Y141474D02*
X201250Y142274D01*
X200850Y143074D01*
X201650Y142674D01*
X202450Y143074D01*
X202050Y142274D01*
X202450Y141474D01*
X201650Y141874D01*
X200850Y141474D01*
X217665Y145599D02*
X218065D01*
X218465Y145999D01*
X218865Y145599D01*
X219265D01*
Y145999D01*
X218865Y146399D01*
X219265Y146799D01*
Y147199D01*
X218865D01*
X218465Y146799D01*
X218065Y147199D01*
X217665D01*
Y146799D01*
X218065Y146399D01*
X217665Y145999D01*
Y145599D01*
X200850Y131174D02*
X201250Y131974D01*
X200850Y132774D01*
X201650Y132374D01*
X202450Y132774D01*
X202050Y131974D01*
X202450Y131174D01*
X201650Y131574D01*
X200850Y131174D01*
X192200Y125799D02*
X192600Y126599D01*
X192200Y127399D01*
X193000Y126999D01*
X193800Y127399D01*
X193400Y126599D01*
X193800Y125799D01*
X193000Y126199D01*
X192200Y125799D01*
Y128019D02*
X192600Y128819D01*
X192200Y129619D01*
X193000Y129219D01*
X193800Y129619D01*
X193400Y128819D01*
X193800Y128019D01*
X193000Y128419D01*
X192200Y128019D01*
X191650Y108483D02*
X192050Y109283D01*
X191650Y110083D01*
X192450Y109683D01*
X193250Y110083D01*
X192850Y109283D01*
X193250Y108483D01*
X192450Y108883D01*
X191650Y108483D01*
X186150Y121283D02*
X186550Y122083D01*
X186150Y122883D01*
X186950Y122483D01*
X187750Y122883D01*
X187350Y122083D01*
X187750Y121283D01*
X186950Y121683D01*
X186150Y121283D01*
X45065Y142099D02*
Y143699D01*
X46665D01*
Y142099D01*
X45065D01*
X45465Y142499D02*
Y143299D01*
X46265D01*
Y142499D01*
X45465D01*
X46350Y135874D02*
X46750Y136674D01*
X46350Y137474D01*
X47150Y137074D01*
X47950Y137474D01*
X47550Y136674D01*
X47950Y135874D01*
X47150Y136274D01*
X46350Y135874D01*
X250650Y88583D02*
Y88183D01*
X251450D01*
Y88583D01*
X251850D01*
Y89383D01*
X251450D01*
Y89783D01*
X250650D01*
Y89383D01*
X250250D01*
Y88583D01*
X250650D01*
X194930Y38183D02*
X195330Y38983D01*
X194930Y39783D01*
X195730Y39383D01*
X196530Y39783D01*
X196130Y38983D01*
X196530Y38183D01*
X195730Y38583D01*
X194930Y38183D01*
X189250Y125083D02*
X189650Y125883D01*
X189250Y126683D01*
X190050Y126283D01*
X190850Y126683D01*
X190450Y125883D01*
X190850Y125083D01*
X190050Y125483D01*
X189250Y125083D01*
X285750Y111983D02*
Y111583D01*
X286550D01*
Y111983D01*
X286950D01*
Y112783D01*
X286550D01*
Y113183D01*
X285750D01*
Y112783D01*
X285350D01*
Y111983D01*
X285750D01*
X295050Y177283D02*
X295450D01*
X295850Y177683D01*
X296250Y177283D01*
X296650D01*
Y177683D01*
X296250Y178083D01*
X296650Y178483D01*
Y178883D01*
X296250D01*
X295850Y178483D01*
X295450Y178883D01*
X295050D01*
Y178483D01*
X295450Y178083D01*
X295050Y177683D01*
Y177283D01*
X240015Y130999D02*
X240415Y131799D01*
X240015Y132599D01*
X240815Y132199D01*
X241615Y132599D01*
X241215Y131799D01*
X241615Y130999D01*
X240815Y131399D01*
X240015Y130999D01*
X181350Y121274D02*
X181750Y122074D01*
X181350Y122874D01*
X182150Y122474D01*
X182950Y122874D01*
X182550Y122074D01*
X182950Y121274D01*
X182150Y121674D01*
X181350Y121274D01*
X176850D02*
X177250Y122074D01*
X176850Y122874D01*
X177650Y122474D01*
X178450Y122874D01*
X178050Y122074D01*
X178450Y121274D01*
X177650Y121674D01*
X176850Y121274D01*
X172050Y121283D02*
X172450Y122083D01*
X172050Y122883D01*
X172850Y122483D01*
X173650Y122883D01*
X173250Y122083D01*
X173650Y121283D01*
X172850Y121683D01*
X172050Y121283D01*
X168100Y148299D02*
X168500Y149099D01*
X168100Y149899D01*
X168900Y149499D01*
X169700Y149899D01*
X169300Y149099D01*
X169700Y148299D01*
X168900Y148699D01*
X168100Y148299D01*
X171400Y149174D02*
X171800Y149974D01*
X171400Y150774D01*
X172200Y150374D01*
X173000Y150774D01*
X172600Y149974D01*
X173000Y149174D01*
X172200Y149574D01*
X171400Y149174D01*
X29950Y163883D02*
X30350D01*
X30750Y164283D01*
X31150Y163883D01*
X31550D01*
Y164283D01*
X31150Y164683D01*
X31550Y165083D01*
Y165483D01*
X31150D01*
X30750Y165083D01*
X30350Y165483D01*
X29950D01*
Y165083D01*
X30350Y164683D01*
X29950Y164283D01*
Y163883D01*
X26093Y164031D02*
X26493D01*
X26893Y164431D01*
X27293Y164031D01*
X27693D01*
Y164431D01*
X27293Y164831D01*
X27693Y165231D01*
Y165631D01*
X27293D01*
X26893Y165231D01*
X26493Y165631D01*
X26093D01*
Y165231D01*
X26493Y164831D01*
X26093Y164431D01*
Y164031D01*
X149330Y22031D02*
X149730Y22831D01*
X149330Y23631D01*
X150130Y23231D01*
X150930Y23631D01*
X150530Y22831D01*
X150930Y22031D01*
X150130Y22431D01*
X149330Y22031D01*
X143893Y24231D02*
X144293Y25031D01*
X143893Y25831D01*
X144693Y25431D01*
X145493Y25831D01*
X145093Y25031D01*
X145493Y24231D01*
X144693Y24631D01*
X143893Y24231D01*
X136293Y4583D02*
X136693Y5384D01*
X136293Y6183D01*
X137093Y5784D01*
X137893Y6183D01*
X137493Y5384D01*
X137893Y4583D01*
X137093Y4984D01*
X136293Y4583D01*
X138300Y8399D02*
X138700Y9199D01*
X138300Y9999D01*
X139100Y9599D01*
X139900Y9999D01*
X139500Y9199D01*
X139900Y8399D01*
X139100Y8799D01*
X138300Y8399D01*
X219493Y8083D02*
X219893D01*
X220293Y8484D01*
X220693Y8083D01*
X221093D01*
Y8484D01*
X220693Y8884D01*
X221093Y9284D01*
Y9684D01*
X220693D01*
X220293Y9284D01*
X219893Y9684D01*
X219493D01*
Y9284D01*
X219893Y8884D01*
X219493Y8484D01*
Y8083D01*
X221093Y23483D02*
X221493Y24284D01*
X221093Y25084D01*
X221893Y24683D01*
X222693Y25084D01*
X222293Y24284D01*
X222693Y23483D01*
X221893Y23884D01*
X221093Y23483D01*
X207330Y30383D02*
X207730Y31183D01*
X207330Y31983D01*
X208130Y31583D01*
X208930Y31983D01*
X208530Y31183D01*
X208930Y30383D01*
X208130Y30783D01*
X207330Y30383D01*
X205730Y31883D02*
X206130Y32683D01*
X205730Y33483D01*
X206530Y33083D01*
X207330Y33483D01*
X206930Y32683D01*
X207330Y31883D01*
X206530Y32283D01*
X205730Y31883D01*
X232948Y22000D02*
X233348Y22800D01*
X232948Y23600D01*
X233748Y23200D01*
X234548Y23600D01*
X234148Y22800D01*
X234548Y22000D01*
X233748Y22400D01*
X232948Y22000D01*
X262246Y25231D02*
X262646Y26030D01*
X262246Y26831D01*
X263046Y26430D01*
X263846Y26831D01*
X263446Y26030D01*
X263846Y25231D01*
X263046Y25631D01*
X262246Y25231D01*
X243493Y28084D02*
X243893Y28883D01*
X243493Y29684D01*
X244293Y29283D01*
X245093Y29684D01*
X244693Y28883D01*
X245093Y28084D01*
X244293Y28484D01*
X243493Y28084D01*
X243393Y30483D02*
X243793Y31284D01*
X243393Y32083D01*
X244193Y31683D01*
X244993Y32083D01*
X244593Y31284D01*
X244993Y30483D01*
X244193Y30883D01*
X243393Y30483D01*
X232893Y33884D02*
X233293Y34683D01*
X232893Y35484D01*
X233693Y35083D01*
X234493Y35484D01*
X234093Y34683D01*
X234493Y33884D01*
X233693Y34284D01*
X232893Y33884D01*
X234893Y20784D02*
X235293Y21584D01*
X234893Y22384D01*
X235693Y21983D01*
X236493Y22384D01*
X236093Y21584D01*
X236493Y20784D01*
X235693Y21183D01*
X234893Y20784D01*
X236865Y19411D02*
X237265Y20211D01*
X236865Y21011D01*
X237665Y20611D01*
X238465Y21011D01*
X238065Y20211D01*
X238465Y19411D01*
X237665Y19811D01*
X236865Y19411D01*
X41093Y25984D02*
Y25583D01*
X41893D01*
Y25984D01*
X42293D01*
Y26783D01*
X41893D01*
Y27183D01*
X41093D01*
Y26783D01*
X40693D01*
Y25984D01*
X41093D01*
X247650Y177174D02*
X248050Y177974D01*
X247650Y178774D01*
X248450Y178374D01*
X249250Y178774D01*
X248850Y177974D01*
X249250Y177174D01*
X248450Y177574D01*
X247650Y177174D01*
Y175374D02*
X248050Y176174D01*
X247650Y176974D01*
X248450Y176574D01*
X249250Y176974D01*
X248850Y176174D01*
X249250Y175374D01*
X248450Y175774D01*
X247650Y175374D01*
X172348Y139400D02*
X172748Y140200D01*
X172348Y141000D01*
X173148Y140600D01*
X173948Y141000D01*
X173548Y140200D01*
X173948Y139400D01*
X173148Y139800D01*
X172348Y139400D01*
X352648Y6800D02*
X353448Y7600D01*
X354248Y6800D01*
X353448Y6000D01*
X352648Y6800D01*
X339215Y2500D02*
X340015Y3300D01*
X340815Y2500D01*
X340015Y1700D01*
X339215Y2500D01*
X341831D02*
X342631Y3300D01*
X343431Y2500D01*
X342631Y1700D01*
X341831Y2500D01*
X344448D02*
X345248Y3300D01*
X346048Y2500D01*
X345248Y1700D01*
X344448Y2500D01*
X350248Y5100D02*
X351048Y5900D01*
X351848Y5100D01*
X351048Y4300D01*
X350248Y5100D01*
X306648Y8900D02*
X307448Y9700D01*
X308248Y8900D01*
X307448Y8100D01*
X306648Y8900D01*
X309048D02*
X309848Y9700D01*
X310648Y8900D01*
X309848Y8100D01*
X309048Y8900D01*
X347648Y3700D02*
X348448Y4500D01*
X349248Y3700D01*
X348448Y2900D01*
X347648Y3700D01*
X333148Y50250D02*
X333948Y51050D01*
X334748Y50250D01*
X333948Y49450D01*
X333148Y50250D01*
Y52700D02*
X333948Y53500D01*
X334748Y52700D01*
X333948Y51900D01*
X333148Y52700D01*
Y47800D02*
X333948Y48600D01*
X334748Y47800D01*
X333948Y47000D01*
X333148Y47800D01*
X336598Y2500D02*
X337398Y3300D01*
X338198Y2500D01*
X337398Y1700D01*
X336598Y2500D01*
X331481Y18262D02*
X332281Y19062D01*
X333081Y18262D01*
X332281Y17462D01*
X331481Y18262D01*
X331529Y15697D02*
X332329Y16497D01*
X333129Y15697D01*
X332329Y14897D01*
X331529Y15697D01*
X334215Y18262D02*
X335015Y19062D01*
X335815Y18262D01*
X335015Y17462D01*
X334215Y18262D01*
X328748Y13000D02*
X329548Y13800D01*
X330348Y13000D01*
X329548Y12200D01*
X328748Y13000D01*
Y15700D02*
X329548Y16500D01*
X330348Y15700D01*
X329548Y14900D01*
X328748Y15700D01*
X333981Y2500D02*
X334781Y3300D01*
X335581Y2500D01*
X334781Y1700D01*
X333981Y2500D01*
X328748Y4900D02*
X329548Y5700D01*
X330348Y4900D01*
X329548Y4100D01*
X328748Y4900D01*
Y10300D02*
X329548Y11100D01*
X330348Y10300D01*
X329548Y9500D01*
X328748Y10300D01*
X331365Y2500D02*
X332165Y3300D01*
X332965Y2500D01*
X332165Y1700D01*
X331365Y2500D01*
X328748D02*
X329548Y3300D01*
X330348Y2500D01*
X329548Y1700D01*
X328748Y2500D01*
Y7600D02*
X329548Y8400D01*
X330348Y7600D01*
X329548Y6800D01*
X328748Y7600D01*
X126550Y72999D02*
X127350Y73799D01*
X128150Y72999D01*
X127350Y72199D01*
X126550Y72999D01*
X129000D02*
X129800Y73799D01*
X130600Y72999D01*
X129800Y72199D01*
X129000Y72999D01*
X131990Y72999D02*
X132790Y73799D01*
X133590Y72999D01*
X132790Y72199D01*
X131990Y72999D01*
X134910D02*
X135710Y73799D01*
X136510Y72999D01*
X135710Y72199D01*
X134910Y72999D01*
X137830D02*
X138630Y73799D01*
X139430Y72999D01*
X138630Y72199D01*
X137830Y72999D01*
X140500D02*
X141300Y73799D01*
X142100Y72999D01*
X141300Y72199D01*
X140500Y72999D01*
X126550Y61566D02*
X127350Y62366D01*
X128150Y61566D01*
X127350Y60766D01*
X126550Y61566D01*
Y47274D02*
X127350Y48074D01*
X128150Y47274D01*
X127350Y46474D01*
X126550Y47274D01*
Y50132D02*
X127350Y50932D01*
X128150Y50132D01*
X127350Y49332D01*
X126550Y50132D01*
Y55849D02*
X127350Y56649D01*
X128150Y55849D01*
X127350Y55049D01*
X126550Y55849D01*
Y58707D02*
X127350Y59507D01*
X128150Y58707D01*
X127350Y57907D01*
X126550Y58707D01*
Y64424D02*
X127350Y65224D01*
X128150Y64424D01*
X127350Y63624D01*
X126550Y64424D01*
Y67282D02*
X127350Y68082D01*
X128150Y67282D01*
X127350Y66482D01*
X126550Y67282D01*
Y70141D02*
X127350Y70941D01*
X128150Y70141D01*
X127350Y69341D01*
X126550Y70141D01*
X34050Y136374D02*
Y135974D01*
X34850D01*
Y136374D01*
X35250D01*
Y137174D01*
X34850D01*
Y137574D01*
X34050D01*
Y137174D01*
X33650D01*
Y136374D01*
X34050D01*
X27500Y134699D02*
Y134299D01*
X28300D01*
Y134699D01*
X28700D01*
Y135499D01*
X28300D01*
Y135899D01*
X27500D01*
Y135499D01*
X27100D01*
Y134699D01*
X27500D01*
X13648Y185202D02*
Y184802D01*
X14448D01*
Y185202D01*
X14848D01*
Y186002D01*
X14448D01*
Y186402D01*
X13648D01*
Y186002D01*
X13248D01*
Y185202D01*
X13648D01*
X31050Y147374D02*
Y146974D01*
X31850D01*
Y147374D01*
X32250D01*
Y148174D01*
X31850D01*
Y148574D01*
X31050D01*
Y148174D01*
X30650D01*
Y147374D01*
X31050D01*
X37574Y151687D02*
Y151287D01*
X38374D01*
Y151687D01*
X38774D01*
Y152487D01*
X38374D01*
Y152887D01*
X37574D01*
Y152487D01*
X37174D01*
Y151687D01*
X37574D01*
X37669Y154550D02*
Y154150D01*
X38469D01*
Y154550D01*
X38869D01*
Y155350D01*
X38469D01*
Y155750D01*
X37669D01*
Y155350D01*
X37269D01*
Y154550D01*
X37669D01*
X130300Y45099D02*
X131100Y45899D01*
X131900Y45099D01*
X131100Y44299D01*
X130300Y45099D01*
X132870D02*
X133670Y45899D01*
X134470Y45099D01*
X133670Y44299D01*
X132870Y45099D01*
X135480D02*
X136280Y45899D01*
X137080Y45099D01*
X136280Y44299D01*
X135480Y45099D01*
X138090D02*
X138890Y45899D01*
X139690Y45099D01*
X138890Y44299D01*
X138090Y45099D01*
X143310D02*
X144110Y45899D01*
X144910Y45099D01*
X144110Y44299D01*
X143310Y45099D01*
X145920D02*
X146720Y45899D01*
X147520Y45099D01*
X146720Y44299D01*
X145920Y45099D01*
X151140D02*
X151940Y45899D01*
X152740Y45099D01*
X151940Y44299D01*
X151140Y45099D01*
X140700D02*
X141500Y45899D01*
X142300Y45099D01*
X141500Y44299D01*
X140700Y45099D01*
X148530D02*
X149330Y45899D01*
X150130Y45099D01*
X149330Y44299D01*
X148530Y45099D01*
X156150Y68454D02*
X156950Y69254D01*
X157750Y68454D01*
X156950Y67654D01*
X156150Y68454D01*
Y65844D02*
X156950Y66644D01*
X157750Y65844D01*
X156950Y65044D01*
X156150Y65844D01*
Y63234D02*
X156950Y64034D01*
X157750Y63234D01*
X156950Y62434D01*
X156150Y63234D01*
Y60624D02*
X156950Y61424D01*
X157750Y60624D01*
X156950Y59824D01*
X156150Y60624D01*
Y52794D02*
X156950Y53594D01*
X157750Y52794D01*
X156950Y51994D01*
X156150Y52794D01*
X129000Y52991D02*
X129800Y53791D01*
X130600Y52991D01*
X129800Y52191D01*
X129000Y52991D01*
Y61566D02*
X129800Y62366D01*
X130600Y61566D01*
X129800Y60766D01*
X129000Y61566D01*
Y47274D02*
X129800Y48074D01*
X130600Y47274D01*
X129800Y46474D01*
X129000Y47274D01*
Y55849D02*
X129800Y56649D01*
X130600Y55849D01*
X129800Y55049D01*
X129000Y55849D01*
Y58707D02*
X129800Y59507D01*
X130600Y58707D01*
X129800Y57907D01*
X129000Y58707D01*
Y64424D02*
X129800Y65224D01*
X130600Y64424D01*
X129800Y63624D01*
X129000Y64424D01*
Y67282D02*
X129800Y68082D01*
X130600Y67282D01*
X129800Y66482D01*
X129000Y67282D01*
Y70141D02*
X129800Y70941D01*
X130600Y70141D01*
X129800Y69341D01*
X129000Y70141D01*
X22574Y185202D02*
Y184802D01*
X23374D01*
Y185202D01*
X23774D01*
Y186002D01*
X23374D01*
Y186402D01*
X22574D01*
Y186002D01*
X22174D01*
Y185202D01*
X22574D01*
X19674D02*
Y184802D01*
X20474D01*
Y185202D01*
X20874D01*
Y186002D01*
X20474D01*
Y186402D01*
X19674D01*
Y186002D01*
X19274D01*
Y185202D01*
X19674D01*
X16774D02*
Y184802D01*
X17574D01*
Y185202D01*
X17974D01*
Y186002D01*
X17574D01*
Y186402D01*
X16774D01*
Y186002D01*
X16374D01*
Y185202D01*
X16774D01*
X353148Y33700D02*
X353948Y34500D01*
X354748Y33700D01*
X353948Y32900D01*
X353148Y33700D01*
X356148D02*
X356948Y34500D01*
X357748Y33700D01*
X356948Y32900D01*
X356148Y33700D01*
X345448Y37223D02*
X346248Y38023D01*
X347048Y37223D01*
X346248Y36423D01*
X345448Y37223D01*
Y39746D02*
X346248Y40546D01*
X347048Y39746D01*
X346248Y38946D01*
X345448Y39746D01*
Y42269D02*
X346248Y43069D01*
X347048Y42269D01*
X346248Y41469D01*
X345448Y42269D01*
Y44792D02*
X346248Y45592D01*
X347048Y44792D01*
X346248Y43992D01*
X345448Y44792D01*
Y47315D02*
X346248Y48115D01*
X347048Y47315D01*
X346248Y46515D01*
X345448Y47315D01*
Y49838D02*
X346248Y50638D01*
X347048Y49838D01*
X346248Y49038D01*
X345448Y49838D01*
X341957Y75900D02*
X342757Y76700D01*
X343557Y75900D01*
X342757Y75100D01*
X341957Y75900D01*
X295150Y77481D02*
X295950Y78281D01*
X296750Y77481D01*
X295950Y76681D01*
X295150Y77481D01*
Y74862D02*
X295950Y75662D01*
X296750Y74862D01*
X295950Y74062D01*
X295150Y74862D01*
X317050Y75900D02*
X317850Y76700D01*
X318650Y75900D01*
X317850Y75100D01*
X317050Y75900D01*
X314450Y80200D02*
X315250Y81000D01*
X316050Y80200D01*
X315250Y79400D01*
X314450Y80200D01*
X154048Y171900D02*
X154448Y172700D01*
X154048Y173500D01*
X154848Y173100D01*
X155648Y173500D01*
X155248Y172700D01*
X155648Y171900D01*
X154848Y172300D01*
X154048Y171900D01*
X178100Y138699D02*
X178500Y139499D01*
X178100Y140299D01*
X178900Y139899D01*
X179700Y140299D01*
X179300Y139499D01*
X179700Y138699D01*
X178900Y139099D01*
X178100Y138699D01*
X199300Y167499D02*
X199700Y168299D01*
X199300Y169099D01*
X200100Y168699D01*
X200900Y169099D01*
X200500Y168299D01*
X200900Y167499D01*
X200100Y167899D01*
X199300Y167499D01*
X249400Y135399D02*
X249800Y136199D01*
X249400Y136999D01*
X250200Y136599D01*
X251000Y136999D01*
X250600Y136199D01*
X251000Y135399D01*
X250200Y135799D01*
X249400Y135399D01*
X56152Y148092D02*
X56552Y148892D01*
X56152Y149692D01*
X56952Y149292D01*
X57752Y149692D01*
X57352Y148892D01*
X57752Y148092D01*
X56952Y148492D01*
X56152Y148092D01*
X221165Y145699D02*
X221565D01*
X221965Y146099D01*
X222365Y145699D01*
X222765D01*
Y146099D01*
X222365Y146499D01*
X222765Y146899D01*
Y147299D01*
X222365D01*
X221965Y146899D01*
X221565Y147299D01*
X221165D01*
Y146899D01*
X221565Y146499D01*
X221165Y146099D01*
Y145699D01*
X154350Y106183D02*
X154750Y106983D01*
X154350Y107783D01*
X155150Y107383D01*
X155950Y107783D01*
X155550Y106983D01*
X155950Y106183D01*
X155150Y106583D01*
X154350Y106183D01*
X163893Y94531D02*
X164293Y95331D01*
X163893Y96131D01*
X164693Y95731D01*
X165493Y96131D01*
X165093Y95331D01*
X165493Y94531D01*
X164693Y94931D01*
X163893Y94531D01*
X311593Y64283D02*
X311993Y65083D01*
X311593Y65883D01*
X312393Y65483D01*
X313193Y65883D01*
X312793Y65083D01*
X313193Y64283D01*
X312393Y64683D01*
X311593Y64283D01*
X234105Y154531D02*
X234506Y155331D01*
X234105Y156131D01*
X234906Y155731D01*
X235705Y156131D01*
X235306Y155331D01*
X235705Y154531D01*
X234906Y154931D01*
X234105Y154531D01*
X68552Y154192D02*
X68952Y154992D01*
X68552Y155792D01*
X69352Y155392D01*
X70152Y155792D01*
X69752Y154992D01*
X70152Y154192D01*
X69352Y154592D01*
X68552Y154192D01*
X65452Y151192D02*
X65852Y151992D01*
X65452Y152792D01*
X66252Y152392D01*
X67052Y152792D01*
X66652Y151992D01*
X67052Y151192D01*
X66252Y151592D01*
X65452Y151192D01*
X62552Y148192D02*
X62952Y148992D01*
X62552Y149792D01*
X63352Y149392D01*
X64152Y149792D01*
X63752Y148992D01*
X64152Y148192D01*
X63352Y148592D01*
X62552Y148192D01*
X71450Y177274D02*
X71850Y178074D01*
X71450Y178874D01*
X72250Y178474D01*
X73050Y178874D01*
X72650Y178074D01*
X73050Y177274D01*
X72250Y177674D01*
X71450Y177274D01*
X317050Y78574D02*
X317850Y79374D01*
X318650Y78574D01*
X317850Y77774D01*
X317050Y78574D01*
X344448Y75900D02*
X345248Y76700D01*
X346048Y75900D01*
X345248Y75100D01*
X344448Y75900D01*
X344495Y73800D02*
X345294Y74600D01*
X346094Y73800D01*
X345294Y73000D01*
X344495Y73800D01*
X345448Y34700D02*
X346248Y35500D01*
X347048Y34700D01*
X346248Y33900D01*
X345448Y34700D01*
X350300Y33699D02*
X351100Y34499D01*
X351900Y33699D01*
X351100Y32899D01*
X350300Y33699D01*
X345448Y52362D02*
X346248Y53162D01*
X347048Y52362D01*
X346248Y51561D01*
X345448Y52362D01*
X335648Y47800D02*
X336448Y48600D01*
X337248Y47800D01*
X336448Y47000D01*
X335648Y47800D01*
X336948Y45700D02*
X337748Y46500D01*
X338548Y45700D01*
X337748Y44900D01*
X336948Y45700D01*
X295150Y69599D02*
X295950Y70399D01*
X296750Y69599D01*
X295950Y68799D01*
X295150Y69599D01*
X60265Y8899D02*
X60665D01*
X61065Y9299D01*
X61465Y8899D01*
X61865D01*
Y9299D01*
X61465Y9699D01*
X61865Y10099D01*
Y10499D01*
X61465D01*
X61065Y10099D01*
X60665Y10499D01*
X60265D01*
Y10099D01*
X60665Y9699D01*
X60265Y9299D01*
Y8899D01*
X250893Y19031D02*
X251293Y19831D01*
X250893Y20631D01*
X251693Y20231D01*
X252493Y20631D01*
X252093Y19831D01*
X252493Y19031D01*
X251693Y19431D01*
X250893Y19031D01*
X243048Y19500D02*
X243848Y20300D01*
X244648Y19500D01*
X243848Y18700D01*
X243048Y19500D01*
X109393Y47531D02*
X109793Y48331D01*
X109393Y49131D01*
X110193Y48731D01*
X110993Y49131D01*
X110593Y48331D01*
X110993Y47531D01*
X110193Y47931D01*
X109393Y47531D01*
X245893Y171283D02*
X246293D01*
X246693Y171683D01*
X247093Y171283D01*
X247493D01*
Y171683D01*
X247093Y172083D01*
X247493Y172483D01*
Y172883D01*
X247093D01*
X246693Y172483D01*
X246293Y172883D01*
X245893D01*
Y172483D01*
X246293Y172083D01*
X245893Y171683D01*
Y171283D01*
X276900Y170999D02*
X277300Y171799D01*
X276900Y172599D01*
X277700Y172199D01*
X278500Y172599D01*
X278100Y171799D01*
X278500Y170999D01*
X277700Y171399D01*
X276900Y170999D01*
X274377Y185515D02*
X274777Y186315D01*
X274377Y187115D01*
X275177Y186715D01*
X275977Y187115D01*
X275577Y186315D01*
X275977Y185515D01*
X275177Y185915D01*
X274377Y185515D01*
X345448Y54885D02*
X346248Y55685D01*
X347048Y54885D01*
X346248Y54085D01*
X345448Y54885D01*
X331248Y54400D02*
X332048Y55200D01*
X332848Y54400D01*
X332048Y53600D01*
X331248Y54400D01*
X345448Y57408D02*
X346248Y58208D01*
X347048Y57408D01*
X346248Y56608D01*
X345448Y57408D01*
Y59931D02*
X346248Y60731D01*
X347048Y59931D01*
X346248Y59131D01*
X345448Y59931D01*
Y62454D02*
X346248Y63254D01*
X347048Y62454D01*
X346248Y61654D01*
X345448Y62454D01*
Y64977D02*
X346248Y65777D01*
X347048Y64977D01*
X346248Y64177D01*
X345448Y64977D01*
X269393Y168369D02*
X269793Y169169D01*
X269393Y169969D01*
X270193Y169569D01*
X270993Y169969D01*
X270593Y169169D01*
X270993Y168369D01*
X270193Y168769D01*
X269393Y168369D01*
X261393Y167531D02*
X261793Y168331D01*
X261393Y169131D01*
X262193Y168731D01*
X262993Y169131D01*
X262593Y168331D01*
X262993Y167531D01*
X262193Y167931D01*
X261393Y167531D01*
X248676Y22314D02*
X249076D01*
X249476Y22714D01*
X249876Y22314D01*
X250276D01*
Y22714D01*
X249876Y23114D01*
X250276Y23514D01*
Y23914D01*
X249876D01*
X249476Y23514D01*
X249076Y23914D01*
X248676D01*
Y23514D01*
X249076Y23114D01*
X248676Y22714D01*
Y22314D01*
X266648Y123400D02*
X267048Y124200D01*
X266648Y125000D01*
X267448Y124600D01*
X268248Y125000D01*
X267848Y124200D01*
X268248Y123400D01*
X267448Y123800D01*
X266648Y123400D01*
X244900Y153299D02*
X245300Y154099D01*
X244900Y154899D01*
X245700Y154499D01*
X246500Y154899D01*
X246100Y154099D01*
X246500Y153299D01*
X245700Y153699D01*
X244900Y153299D01*
X228993Y20684D02*
Y20283D01*
X229793D01*
Y20684D01*
X230193D01*
Y21484D01*
X229793D01*
Y21883D01*
X228993D01*
Y21484D01*
X228593D01*
Y20684D01*
X228993D01*
X145393Y88531D02*
X145793Y89331D01*
X145393Y90131D01*
X146193Y89731D01*
X146993Y90131D01*
X146593Y89331D01*
X146993Y88531D01*
X146193Y88931D01*
X145393Y88531D01*
X296048Y150300D02*
X296448Y151100D01*
X296048Y151900D01*
X296848Y151500D01*
X297648Y151900D01*
X297248Y151100D01*
X297648Y150300D01*
X296848Y150700D01*
X296048Y150300D01*
X94148Y6700D02*
Y6300D01*
X94948D01*
Y6700D01*
X95348D01*
Y7500D01*
X94948D01*
Y7900D01*
X94148D01*
Y7500D01*
X93748D01*
Y6700D01*
X94148D01*
X83393Y62031D02*
X83793Y62831D01*
X83393Y63631D01*
X84193Y63231D01*
X84993Y63631D01*
X84593Y62831D01*
X84993Y62031D01*
X84193Y62431D01*
X83393Y62031D01*
X118530Y113283D02*
X118930Y114083D01*
X118530Y114883D01*
X119330Y114483D01*
X120130Y114883D01*
X119730Y114083D01*
X120130Y113283D01*
X119330Y113683D01*
X118530Y113283D01*
X123893Y117031D02*
X124293Y117831D01*
X123893Y118631D01*
X124693Y118231D01*
X125493Y118631D01*
X125093Y117831D01*
X125493Y117031D01*
X124693Y117431D01*
X123893Y117031D01*
X83430Y78983D02*
X83830Y79783D01*
X83430Y80583D01*
X84230Y80183D01*
X85030Y80583D01*
X84630Y79783D01*
X85030Y78983D01*
X84230Y79383D01*
X83430Y78983D01*
X190893Y60031D02*
X191293Y60831D01*
X190893Y61631D01*
X191693Y61231D01*
X192493Y61631D01*
X192093Y60831D01*
X192493Y60031D01*
X191693Y60431D01*
X190893Y60031D01*
X190393Y49531D02*
X190793Y50331D01*
X190393Y51131D01*
X191193Y50731D01*
X191993Y51131D01*
X191593Y50331D01*
X191993Y49531D01*
X191193Y49931D01*
X190393Y49531D01*
X191393Y47531D02*
X191793Y48331D01*
X191393Y49131D01*
X192193Y48731D01*
X192993Y49131D01*
X192593Y48331D01*
X192993Y47531D01*
X192193Y47931D01*
X191393Y47531D01*
X190930Y38183D02*
X191330Y38983D01*
X190930Y39783D01*
X191730Y39383D01*
X192530Y39783D01*
X192130Y38983D01*
X192530Y38183D01*
X191730Y38583D01*
X190930Y38183D01*
X194393Y44531D02*
X194793Y45331D01*
X194393Y46131D01*
X195193Y45731D01*
X195993Y46131D01*
X195593Y45331D01*
X195993Y44531D01*
X195193Y44931D01*
X194393Y44531D01*
X192893Y46031D02*
X193293Y46831D01*
X192893Y47631D01*
X193693Y47231D01*
X194493Y47631D01*
X194093Y46831D01*
X194493Y46031D01*
X193693Y46431D01*
X192893Y46031D01*
X95093Y40163D02*
X95493Y40963D01*
X95093Y41763D01*
X95893Y41363D01*
X96693Y41763D01*
X96293Y40963D01*
X96693Y40163D01*
X95893Y40563D01*
X95093Y40163D01*
X152393Y105531D02*
X152793Y106331D01*
X152393Y107131D01*
X153193Y106731D01*
X153993Y107131D01*
X153593Y106331D01*
X153993Y105531D01*
X153193Y105931D01*
X152393Y105531D01*
X269393Y173031D02*
X269793Y173831D01*
X269393Y174631D01*
X270193Y174231D01*
X270993Y174631D01*
X270593Y173831D01*
X270993Y173031D01*
X270193Y173431D01*
X269393Y173031D01*
X41352Y121592D02*
X41752Y122392D01*
X41352Y123192D01*
X42152Y122792D01*
X42952Y123192D01*
X42552Y122392D01*
X42952Y121592D01*
X42152Y121992D01*
X41352Y121592D01*
X63594Y110367D02*
X63994Y111167D01*
X63594Y111967D01*
X64394Y111567D01*
X65194Y111967D01*
X64794Y111167D01*
X65194Y110367D01*
X64394Y110767D01*
X63594Y110367D01*
X152548Y110500D02*
X152948Y111300D01*
X152548Y112100D01*
X153348Y111700D01*
X154148Y112100D01*
X153748Y111300D01*
X154148Y110500D01*
X153348Y110900D01*
X152548Y110500D01*
X204430Y33483D02*
X204830Y34283D01*
X204430Y35083D01*
X205230Y34683D01*
X206030Y35083D01*
X205630Y34283D01*
X206030Y33483D01*
X205230Y33883D01*
X204430Y33483D01*
X200730Y36583D02*
X201130Y37383D01*
X200730Y38183D01*
X201530Y37783D01*
X202330Y38183D01*
X201930Y37383D01*
X202330Y36583D01*
X201530Y36983D01*
X200730Y36583D01*
X264450Y100274D02*
X265250Y101074D01*
X266050Y100274D01*
X265250Y99474D01*
X264450Y100274D01*
X141087Y115284D02*
X141887Y116084D01*
X142687Y115284D01*
X141887Y114484D01*
X141087Y115284D01*
X62138Y89699D02*
X62538Y90499D01*
X62138Y91299D01*
X62938Y90899D01*
X63738Y91299D01*
X63338Y90499D01*
X63738Y89699D01*
X62938Y90099D01*
X62138Y89699D01*
X66592Y94153D02*
X66992Y94953D01*
X66592Y95753D01*
X67392Y95353D01*
X68192Y95753D01*
X67792Y94953D01*
X68192Y94153D01*
X67392Y94553D01*
X66592Y94153D01*
X71046Y98607D02*
X71446Y99407D01*
X71046Y100207D01*
X71846Y99807D01*
X72646Y100207D01*
X72246Y99407D01*
X72646Y98607D01*
X71846Y99007D01*
X71046Y98607D01*
X84409Y111970D02*
X84809Y112770D01*
X84409Y113570D01*
X85209Y113170D01*
X86009Y113570D01*
X85609Y112770D01*
X86009Y111970D01*
X85209Y112370D01*
X84409Y111970D01*
X82352Y109592D02*
X82752Y110392D01*
X82352Y111192D01*
X83152Y110792D01*
X83952Y111192D01*
X83552Y110392D01*
X83952Y109592D01*
X83152Y109992D01*
X82352Y109592D01*
X78488Y115492D02*
X78888Y116292D01*
X78488Y117092D01*
X79288Y116692D01*
X80088Y117092D01*
X79688Y116292D01*
X80088Y115492D01*
X79288Y115892D01*
X78488Y115492D01*
X71730Y130983D02*
X72130Y131783D01*
X71730Y132583D01*
X72530Y132183D01*
X73330Y132583D01*
X72930Y131783D01*
X73330Y130983D01*
X72530Y131383D01*
X71730Y130983D01*
X83084Y119837D02*
X83484Y120637D01*
X83084Y121437D01*
X83884Y121037D01*
X84684Y121437D01*
X84284Y120637D01*
X84684Y119837D01*
X83884Y120237D01*
X83084Y119837D01*
X95459Y123191D02*
X95859Y123991D01*
X95459Y124791D01*
X96259Y124391D01*
X97059Y124791D01*
X96659Y123991D01*
X97059Y123191D01*
X96259Y123591D01*
X95459Y123191D01*
X107052Y104992D02*
X107452Y105792D01*
X107052Y106592D01*
X107852Y106192D01*
X108652Y106592D01*
X108252Y105792D01*
X108652Y104992D01*
X107852Y105392D01*
X107052Y104992D01*
X93317Y120878D02*
X93717Y121678D01*
X93317Y122478D01*
X94117Y122078D01*
X94917Y122478D01*
X94517Y121678D01*
X94917Y120878D01*
X94117Y121278D01*
X93317Y120878D01*
X80630Y135614D02*
X81030Y136414D01*
X80630Y137214D01*
X81430Y136814D01*
X82230Y137214D01*
X81830Y136414D01*
X82230Y135614D01*
X81430Y136014D01*
X80630Y135614D01*
X80652Y122392D02*
X81052Y123192D01*
X80652Y123992D01*
X81452Y123592D01*
X82252Y123992D01*
X81852Y123192D01*
X82252Y122392D01*
X81452Y122792D01*
X80652Y122392D01*
X74125Y141959D02*
X74525Y142759D01*
X74125Y143559D01*
X74925Y143159D01*
X75725Y143559D01*
X75325Y142759D01*
X75725Y141959D01*
X74925Y142359D01*
X74125Y141959D01*
X61834Y130090D02*
X62234Y130890D01*
X61834Y131690D01*
X62634Y131290D01*
X63434Y131690D01*
X63034Y130890D01*
X63434Y130090D01*
X62634Y130490D01*
X61834Y130090D01*
X67911Y112292D02*
X68311Y113092D01*
X67911Y113892D01*
X68711Y113492D01*
X69511Y113892D01*
X69111Y113092D01*
X69511Y112292D01*
X68711Y112692D01*
X67911Y112292D01*
X62932Y122312D02*
X63332Y123112D01*
X62932Y123912D01*
X63732Y123512D01*
X64532Y123912D01*
X64132Y123112D01*
X64532Y122312D01*
X63732Y122712D01*
X62932Y122312D01*
X66148Y134686D02*
X66548Y135486D01*
X66148Y136286D01*
X66948Y135886D01*
X67748Y136286D01*
X67348Y135486D01*
X67748Y134686D01*
X66948Y135086D01*
X66148Y134686D01*
X59752Y141592D02*
X60152Y142392D01*
X59752Y143192D01*
X60552Y142792D01*
X61352Y143192D01*
X60952Y142392D01*
X61352Y141592D01*
X60552Y141992D01*
X59752Y141592D01*
X56340Y116004D02*
X56740Y116804D01*
X56340Y117604D01*
X57140Y117204D01*
X57940Y117604D01*
X57540Y116804D01*
X57940Y116004D01*
X57140Y116404D01*
X56340Y116004D01*
X46211Y114534D02*
X46611Y115334D01*
X46211Y116134D01*
X47011Y115734D01*
X47811Y116134D01*
X47411Y115334D01*
X47811Y114534D01*
X47011Y114934D01*
X46211Y114534D01*
X28452Y104992D02*
X28852Y105792D01*
X28452Y106592D01*
X29252Y106192D01*
X30052Y106592D01*
X29652Y105792D01*
X30052Y104992D01*
X29252Y105392D01*
X28452Y104992D01*
X31252Y108292D02*
X31652Y109092D01*
X31252Y109892D01*
X32052Y109492D01*
X32852Y109892D01*
X32452Y109092D01*
X32852Y108292D01*
X32052Y108692D01*
X31252Y108292D01*
X37252Y114292D02*
X37652Y115092D01*
X37252Y115892D01*
X38052Y115492D01*
X38852Y115892D01*
X38452Y115092D01*
X38852Y114292D01*
X38052Y114692D01*
X37252Y114292D01*
X41718Y110118D02*
X42118Y110918D01*
X41718Y111718D01*
X42518Y111318D01*
X43318Y111718D01*
X42918Y110918D01*
X43318Y110118D01*
X42518Y110518D01*
X41718Y110118D01*
X50557Y119096D02*
X50957Y119896D01*
X50557Y120696D01*
X51357Y120296D01*
X52157Y120696D01*
X51757Y119896D01*
X52157Y119096D01*
X51357Y119496D01*
X50557Y119096D01*
X34152Y111292D02*
X34552Y112092D01*
X34152Y112892D01*
X34952Y112492D01*
X35752Y112892D01*
X35352Y112092D01*
X35752Y111292D01*
X34952Y111692D01*
X34152Y111292D01*
X38252Y125292D02*
X38652Y126092D01*
X38252Y126892D01*
X39052Y126492D01*
X39852Y126892D01*
X39452Y126092D01*
X39852Y125292D01*
X39052Y125692D01*
X38252Y125292D01*
X41652Y128492D02*
X42052Y129292D01*
X41652Y130092D01*
X42452Y129692D01*
X43252Y130092D01*
X42852Y129292D01*
X43252Y128492D01*
X42452Y128892D01*
X41652Y128492D01*
X44652Y131492D02*
X45052Y132292D01*
X44652Y133092D01*
X45452Y132692D01*
X46252Y133092D01*
X45852Y132292D01*
X46252Y131492D01*
X45452Y131892D01*
X44652Y131492D01*
X44130Y112183D02*
X44530Y112983D01*
X44130Y113783D01*
X44930Y113383D01*
X45730Y113783D01*
X45330Y112983D01*
X45730Y112183D01*
X44930Y112583D01*
X44130Y112183D01*
X68820Y96380D02*
X69220Y97180D01*
X68820Y97980D01*
X69620Y97580D01*
X70420Y97980D01*
X70020Y97180D01*
X70420Y96380D01*
X69620Y96780D01*
X68820Y96380D01*
X79955Y107516D02*
X80355Y108316D01*
X79955Y109116D01*
X80755Y108716D01*
X81555Y109116D01*
X81155Y108316D01*
X81555Y107516D01*
X80755Y107916D01*
X79955Y107516D01*
X86620Y114214D02*
X87020Y115014D01*
X86620Y115814D01*
X87420Y115414D01*
X88220Y115814D01*
X87820Y115014D01*
X88220Y114214D01*
X87420Y114614D01*
X86620Y114214D01*
X91091Y118651D02*
X91491Y119451D01*
X91091Y120251D01*
X91891Y119851D01*
X92691Y120251D01*
X92291Y119451D01*
X92691Y118651D01*
X91891Y119051D01*
X91091Y118651D01*
X63992Y132387D02*
X64392Y133187D01*
X63992Y133987D01*
X64792Y133587D01*
X65592Y133987D01*
X65192Y133187D01*
X65592Y132387D01*
X64792Y132787D01*
X63992Y132387D01*
X74356Y133558D02*
X74756Y134358D01*
X74356Y135158D01*
X75156Y134758D01*
X75956Y135158D01*
X75556Y134358D01*
X75956Y133558D01*
X75156Y133958D01*
X74356Y133558D01*
X88863Y116424D02*
X89263Y117224D01*
X88863Y118024D01*
X89663Y117624D01*
X90463Y118024D01*
X90063Y117224D01*
X90463Y116424D01*
X89663Y116824D01*
X88863Y116424D01*
X78303Y137830D02*
X78703Y138630D01*
X78303Y139430D01*
X79103Y139030D01*
X79903Y139430D01*
X79503Y138630D01*
X79903Y137830D01*
X79103Y138230D01*
X78303Y137830D01*
X71930Y104514D02*
X72330Y105314D01*
X71930Y106114D01*
X72730Y105714D01*
X73530Y106114D01*
X73130Y105314D01*
X73530Y104514D01*
X72730Y104914D01*
X71930Y104514D01*
X74852Y116992D02*
X75252Y117792D01*
X74852Y118592D01*
X75652Y118192D01*
X76452Y118592D01*
X76052Y117792D01*
X76452Y116992D01*
X75652Y117392D01*
X74852Y116992D01*
X60605Y119996D02*
X61005Y120796D01*
X60605Y121596D01*
X61405Y121196D01*
X62205Y121596D01*
X61805Y120796D01*
X62205Y119996D01*
X61405Y120396D01*
X60605Y119996D01*
X29852Y121592D02*
X30252Y122392D01*
X29852Y123192D01*
X30652Y122792D01*
X31452Y123192D01*
X31052Y122392D01*
X31452Y121592D01*
X30652Y121992D01*
X29852Y121592D01*
X60810Y124433D02*
X61210Y125233D01*
X60810Y126033D01*
X61610Y125633D01*
X62410Y126033D01*
X62010Y125233D01*
X62410Y124433D01*
X61610Y124833D01*
X60810Y124433D01*
X48436Y116764D02*
X48836Y117564D01*
X48436Y118364D01*
X49236Y117964D01*
X50036Y118364D01*
X49636Y117564D01*
X50036Y116764D01*
X49236Y117164D01*
X48436Y116764D01*
X93894Y126677D02*
X94294Y127477D01*
X93894Y128277D01*
X94694Y127877D01*
X95494Y128277D01*
X95094Y127477D01*
X95494Y126677D01*
X94694Y127077D01*
X93894Y126677D01*
X50540Y140804D02*
X50940Y141604D01*
X50540Y142404D01*
X51340Y142004D01*
X52140Y142404D01*
X51740Y141604D01*
X52140Y140804D01*
X51340Y141204D01*
X50540Y140804D01*
X59252Y151892D02*
X60052Y152692D01*
X60852Y151892D01*
X60052Y151092D01*
X59252Y151892D01*
X77252Y144492D02*
X77652Y145292D01*
X77252Y146092D01*
X78052Y145692D01*
X78852Y146092D01*
X78452Y145292D01*
X78852Y144492D01*
X78052Y144892D01*
X77252Y144492D01*
X63190Y112530D02*
X63590Y113330D01*
X63190Y114130D01*
X63990Y113730D01*
X64790Y114130D01*
X64390Y113330D01*
X64790Y112530D01*
X63990Y112930D01*
X63190Y112530D01*
X58352Y128092D02*
X58752Y128892D01*
X58352Y129692D01*
X59152Y129292D01*
X59952Y129692D01*
X59552Y128892D01*
X59952Y128092D01*
X59152Y128492D01*
X58352Y128092D01*
X154248Y112000D02*
X154648Y112800D01*
X154248Y113600D01*
X155048Y113200D01*
X155848Y113600D01*
X155448Y112800D01*
X155848Y112000D01*
X155048Y112400D01*
X154248Y112000D01*
X159539Y137705D02*
X159939Y138505D01*
X159539Y139305D01*
X160339Y138905D01*
X161139Y139305D01*
X160739Y138505D01*
X161139Y137705D01*
X160339Y138105D01*
X159539Y137705D01*
X159548Y129288D02*
X159948Y130088D01*
X159548Y130888D01*
X160348Y130488D01*
X161148Y130888D01*
X160748Y130088D01*
X161148Y129288D01*
X160348Y129688D01*
X159548Y129288D01*
X269393Y170531D02*
X269793Y171331D01*
X269393Y172131D01*
X270193Y171731D01*
X270993Y172131D01*
X270593Y171331D01*
X270993Y170531D01*
X270193Y170931D01*
X269393Y170531D01*
X91100Y46123D02*
X91500D01*
X91900Y46523D01*
X92300Y46123D01*
X92700D01*
Y46523D01*
X92300Y46923D01*
X92700Y47323D01*
Y47723D01*
X92300D01*
X91900Y47323D01*
X91500Y47723D01*
X91100D01*
Y47323D01*
X91500Y46923D01*
X91100Y46523D01*
Y46123D01*
X152530Y22031D02*
X152930Y22831D01*
X152530Y23631D01*
X153330Y23231D01*
X154130Y23631D01*
X153730Y22831D01*
X154130Y22031D01*
X153330Y22431D01*
X152530Y22031D01*
X190893Y25157D02*
X191293Y25957D01*
X190893Y26757D01*
X191693Y26357D01*
X192493Y26757D01*
X192093Y25957D01*
X192493Y25157D01*
X191693Y25557D01*
X190893Y25157D01*
X196393Y43031D02*
X196793Y43831D01*
X196393Y44631D01*
X197193Y44231D01*
X197993Y44631D01*
X197593Y43831D01*
X197993Y43031D01*
X197193Y43431D01*
X196393Y43031D01*
X199144Y39782D02*
X199544Y40582D01*
X199144Y41382D01*
X199944Y40982D01*
X200744Y41382D01*
X200344Y40582D01*
X200744Y39782D01*
X199944Y40182D01*
X199144Y39782D01*
X190893Y87031D02*
X191293Y87831D01*
X190893Y88631D01*
X191693Y88231D01*
X192493Y88631D01*
X192093Y87831D01*
X192493Y87031D01*
X191693Y87431D01*
X190893Y87031D01*
X151424Y89999D02*
X151824D01*
X152224Y90399D01*
X152624Y89999D01*
X153024D01*
Y90399D01*
X152624Y90799D01*
X153024Y91199D01*
Y91599D01*
X152624D01*
X152224Y91199D01*
X151824Y91599D01*
X151424D01*
Y91199D01*
X151824Y90799D01*
X151424Y90399D01*
Y89999D01*
X283948Y27800D02*
X284348Y28600D01*
X283948Y29400D01*
X284748Y29000D01*
X285548Y29400D01*
X285148Y28600D01*
X285548Y27800D01*
X284748Y28200D01*
X283948Y27800D01*
X159552Y125092D02*
X159952Y125892D01*
X159552Y126692D01*
X160352Y126292D01*
X161152Y126692D01*
X160752Y125892D01*
X161152Y125092D01*
X160352Y125492D01*
X159552Y125092D01*
X244893Y161031D02*
X245293Y161831D01*
X244893Y162631D01*
X245693Y162231D01*
X246493Y162631D01*
X246093Y161831D01*
X246493Y161031D01*
X245693Y161431D01*
X244893Y161031D01*
X78500Y42999D02*
X79300Y43799D01*
X80100Y42999D01*
X79300Y42199D01*
X78500Y42999D01*
X244700Y155968D02*
X245100Y156768D01*
X244700Y157568D01*
X245500Y157168D01*
X246300Y157568D01*
X245900Y156768D01*
X246300Y155968D01*
X245500Y156368D01*
X244700Y155968D01*
X70103Y138715D02*
X70503Y139515D01*
X70103Y140315D01*
X70903Y139915D01*
X71703Y140315D01*
X71303Y139515D01*
X71703Y138715D01*
X70903Y139115D01*
X70103Y138715D01*
X68480Y136807D02*
X68880Y137607D01*
X68480Y138407D01*
X69280Y138007D01*
X70080Y138407D01*
X69680Y137607D01*
X70080Y136807D01*
X69280Y137207D01*
X68480Y136807D01*
X189589Y80727D02*
X189989Y81527D01*
X189589Y82327D01*
X190389Y81927D01*
X191189Y82327D01*
X190789Y81527D01*
X191189Y80727D01*
X190389Y81127D01*
X189589Y80727D01*
X255893Y167531D02*
X256293Y168331D01*
X255893Y169131D01*
X256693Y168731D01*
X257493Y169131D01*
X257093Y168331D01*
X257493Y167531D01*
X256693Y167931D01*
X255893Y167531D01*
X254393D02*
X254793Y168331D01*
X254393Y169131D01*
X255193Y168731D01*
X255993Y169131D01*
X255593Y168331D01*
X255993Y167531D01*
X255193Y167931D01*
X254393Y167531D01*
X171600Y54623D02*
X172000D01*
X172400Y55023D01*
X172800Y54623D01*
X173200D01*
Y55023D01*
X172800Y55423D01*
X173200Y55823D01*
Y56223D01*
X172800D01*
X172400Y55823D01*
X172000Y56223D01*
X171600D01*
Y55823D01*
X172000Y55423D01*
X171600Y55023D01*
Y54623D01*
X174300Y58900D02*
X174700Y59700D01*
X174300Y60500D01*
X175100Y60100D01*
X175900Y60500D01*
X175500Y59700D01*
X175900Y58900D01*
X175100Y59300D01*
X174300Y58900D01*
X174693Y64531D02*
X175093Y65331D01*
X174693Y66131D01*
X175493Y65731D01*
X176293Y66131D01*
X175893Y65331D01*
X176293Y64531D01*
X175493Y64931D01*
X174693Y64531D01*
X345448Y67500D02*
X346248Y68300D01*
X347048Y67500D01*
X346248Y66700D01*
X345448Y67500D01*
X31193Y134931D02*
Y134531D01*
X31993D01*
Y134931D01*
X32393D01*
Y135731D01*
X31993D01*
Y136131D01*
X31193D01*
Y135731D01*
X30793D01*
Y134931D01*
X31193D01*
X170100Y147399D02*
X170500Y148199D01*
X170100Y148999D01*
X170900Y148599D01*
X171700Y148999D01*
X171300Y148199D01*
X171700Y147399D01*
X170900Y147799D01*
X170100Y147399D01*
X197750Y41374D02*
X198150Y42174D01*
X197750Y42974D01*
X198550Y42574D01*
X199350Y42974D01*
X198950Y42174D01*
X199350Y41374D01*
X198550Y41774D01*
X197750Y41374D01*
X202530Y35083D02*
X202930Y35883D01*
X202530Y36683D01*
X203330Y36283D01*
X204130Y36683D01*
X203730Y35883D01*
X204130Y35083D01*
X203330Y35483D01*
X202530Y35083D01*
X202200Y168849D02*
X202600Y169649D01*
X202200Y170449D01*
X203000Y170049D01*
X203800Y170449D01*
X203400Y169649D01*
X203800Y168849D01*
X203000Y169249D01*
X202200Y168849D01*
X178450Y136074D02*
X178850Y136874D01*
X178450Y137674D01*
X179250Y137274D01*
X180050Y137674D01*
X179650Y136874D01*
X180050Y136074D01*
X179250Y136474D01*
X178450Y136074D01*
X172750Y107674D02*
X173550Y108474D01*
X174350Y107674D01*
X173550Y106874D01*
X172750Y107674D01*
X169893Y107331D02*
X170693Y108131D01*
X171493Y107331D01*
X170693Y106531D01*
X169893Y107331D01*
X171148Y169161D02*
X171548Y169961D01*
X171148Y170761D01*
X171948Y170361D01*
X172748Y170761D01*
X172348Y169961D01*
X172748Y169161D01*
X171948Y169561D01*
X171148Y169161D01*
X169465Y167574D02*
X169865Y168374D01*
X169465Y169174D01*
X170265Y168774D01*
X171065Y169174D01*
X170665Y168374D01*
X171065Y167574D01*
X170265Y167974D01*
X169465Y167574D01*
X190050Y162274D02*
X190450Y163074D01*
X190050Y163874D01*
X190850Y163474D01*
X191650Y163874D01*
X191250Y163074D01*
X191650Y162274D01*
X190850Y162674D01*
X190050Y162274D01*
X188050Y153724D02*
X188450Y154524D01*
X188050Y155324D01*
X188850Y154924D01*
X189650Y155324D01*
X189250Y154524D01*
X189650Y153724D01*
X188850Y154124D01*
X188050Y153724D01*
X190050Y156674D02*
X190450Y157474D01*
X190050Y158274D01*
X190850Y157874D01*
X191650Y158274D01*
X191250Y157474D01*
X191650Y156674D01*
X190850Y157074D01*
X190050Y156674D01*
Y154574D02*
X190450Y155374D01*
X190050Y156174D01*
X190850Y155774D01*
X191650Y156174D01*
X191250Y155374D01*
X191650Y154574D01*
X190850Y154974D01*
X190050Y154574D01*
X203550Y149074D02*
Y148674D01*
X204350D01*
Y149074D01*
X204750D01*
Y149874D01*
X204350D01*
Y150274D01*
X203550D01*
Y149874D01*
X203150D01*
Y149074D01*
X203550D01*
X200750Y153374D02*
X201150Y154174D01*
X200750Y154974D01*
X201550Y154574D01*
X202350Y154974D01*
X201950Y154174D01*
X202350Y153374D01*
X201550Y153774D01*
X200750Y153374D01*
Y155474D02*
X201150Y156274D01*
X200750Y157074D01*
X201550Y156674D01*
X202350Y157074D01*
X201950Y156274D01*
X202350Y155474D01*
X201550Y155874D01*
X200750Y155474D01*
Y157674D02*
X201150Y158474D01*
X200750Y159274D01*
X201550Y158874D01*
X202350Y159274D01*
X201950Y158474D01*
X202350Y157674D01*
X201550Y158074D01*
X200750Y157674D01*
Y159974D02*
X201150Y160774D01*
X200750Y161574D01*
X201550Y161174D01*
X202350Y161574D01*
X201950Y160774D01*
X202350Y159974D01*
X201550Y160374D01*
X200750Y159974D01*
X202200Y166699D02*
X202600Y167499D01*
X202200Y168299D01*
X203000Y167899D01*
X203800Y168299D01*
X203400Y167499D01*
X203800Y166699D01*
X203000Y167099D01*
X202200Y166699D01*
X59552Y145292D02*
X59952Y146092D01*
X59552Y146892D01*
X60352Y146492D01*
X61152Y146892D01*
X60752Y146092D01*
X61152Y145292D01*
X60352Y145692D01*
X59552Y145292D01*
X53650Y143432D02*
X54050D01*
X54450Y143833D01*
X54850Y143432D01*
X55250D01*
Y143833D01*
X54850Y144232D01*
X55250Y144632D01*
Y145033D01*
X54850D01*
X54450Y144632D01*
X54050Y145033D01*
X53650D01*
Y144632D01*
X54050Y144232D01*
X53650Y143833D01*
Y143432D01*
X190050Y168674D02*
X190450Y169474D01*
X190050Y170274D01*
X190850Y169874D01*
X191650Y170274D01*
X191250Y169474D01*
X191650Y168674D01*
X190850Y169074D01*
X190050Y168674D01*
Y152574D02*
X190450Y153374D01*
X190050Y154174D01*
X190850Y153774D01*
X191650Y154174D01*
X191250Y153374D01*
X191650Y152574D01*
X190850Y152974D01*
X190050Y152574D01*
Y150574D02*
X190450Y151374D01*
X190050Y152174D01*
X190850Y151774D01*
X191650Y152174D01*
X191250Y151374D01*
X191650Y150574D01*
X190850Y150974D01*
X190050Y150574D01*
X188050Y150074D02*
X188450Y150874D01*
X188050Y151674D01*
X188850Y151274D01*
X189650Y151674D01*
X189250Y150874D01*
X189650Y150074D01*
X188850Y150474D01*
X188050Y150074D01*
X186500Y148674D02*
X186900Y149474D01*
X186500Y150274D01*
X187300Y149874D01*
X188100Y150274D01*
X187700Y149474D01*
X188100Y148674D01*
X187300Y149074D01*
X186500Y148674D01*
X191000Y147199D02*
X191400Y147999D01*
X191000Y148799D01*
X191800Y148399D01*
X192600Y148799D01*
X192200Y147999D01*
X192600Y147199D01*
X191800Y147599D01*
X191000Y147199D01*
X200750Y148474D02*
X201150Y149274D01*
X200750Y150074D01*
X201550Y149674D01*
X202350Y150074D01*
X201950Y149274D01*
X202350Y148474D01*
X201550Y148874D01*
X200750Y148474D01*
X62152Y154892D02*
X62952Y155692D01*
X63752Y154892D01*
X62952Y154092D01*
X62152Y154892D01*
X65152Y157892D02*
X65952Y158692D01*
X66752Y157892D01*
X65952Y157092D01*
X65152Y157892D01*
X68452Y160292D02*
X68852Y161092D01*
X68452Y161892D01*
X69252Y161492D01*
X70052Y161892D01*
X69652Y161092D01*
X70052Y160292D01*
X69252Y160692D01*
X68452Y160292D01*
X52450Y161774D02*
Y161374D01*
X53250D01*
Y161774D01*
X53650D01*
Y162574D01*
X53250D01*
Y162974D01*
X52450D01*
Y162574D01*
X52050D01*
Y161774D01*
X52450D01*
X151665Y168300D02*
X152065Y169100D01*
X151665Y169900D01*
X152465Y169500D01*
X153265Y169900D01*
X152865Y169100D01*
X153265Y168300D01*
X152465Y168700D01*
X151665Y168300D01*
X110250Y181774D02*
X110650D01*
X111050Y182174D01*
X111450Y181774D01*
X111850D01*
Y182174D01*
X111450Y182574D01*
X111850Y182974D01*
Y183374D01*
X111450D01*
X111050Y182974D01*
X110650Y183374D01*
X110250D01*
Y182974D01*
X110650Y182574D01*
X110250Y182174D01*
Y181774D01*
X24150Y153774D02*
Y153374D01*
X24950D01*
Y153774D01*
X25350D01*
Y154574D01*
X24950D01*
Y154974D01*
X24150D01*
Y154574D01*
X23750D01*
Y153774D01*
X24150D01*
X50984Y145950D02*
X51384D01*
X51784Y146350D01*
X52184Y145950D01*
X52584D01*
Y146350D01*
X52184Y146750D01*
X52584Y147150D01*
Y147550D01*
X52184D01*
X51784Y147150D01*
X51384Y147550D01*
X50984D01*
Y147150D01*
X51384Y146750D01*
X50984Y146350D01*
Y145950D01*
X202200Y164549D02*
X202600Y165349D01*
X202200Y166149D01*
X203000Y165749D01*
X203800Y166149D01*
X203400Y165349D01*
X203800Y164549D01*
X203000Y164949D01*
X202200Y164549D01*
X71450Y173774D02*
X71850Y174574D01*
X71450Y175374D01*
X72250Y174974D01*
X73050Y175374D01*
X72650Y174574D01*
X73050Y173774D01*
X72250Y174174D01*
X71450Y173774D01*
X90006Y170188D02*
X90406D01*
X90806Y170588D01*
X91206Y170188D01*
X91606D01*
Y170588D01*
X91206Y170988D01*
X91606Y171388D01*
Y171788D01*
X91206D01*
X90806Y171388D01*
X90406Y171788D01*
X90006D01*
Y171388D01*
X90406Y170988D01*
X90006Y170588D01*
Y170188D01*
X231450Y185374D02*
X231850Y186174D01*
X231450Y186974D01*
X232250Y186574D01*
X233050Y186974D01*
X232650Y186174D01*
X233050Y185374D01*
X232250Y185774D01*
X231450Y185374D01*
X237550Y171074D02*
X237950D01*
X238350Y171474D01*
X238750Y171074D01*
X239150D01*
Y171474D01*
X238750Y171874D01*
X239150Y172274D01*
Y172674D01*
X238750D01*
X238350Y172274D01*
X237950Y172674D01*
X237550D01*
Y172274D01*
X237950Y171874D01*
X237550Y171474D01*
Y171074D01*
X234350D02*
X234750D01*
X235150Y171474D01*
X235550Y171074D01*
X235950D01*
Y171474D01*
X235550Y171874D01*
X235950Y172274D01*
Y172674D01*
X235550D01*
X235150Y172274D01*
X234750Y172674D01*
X234350D01*
Y172274D01*
X234750Y171874D01*
X234350Y171474D01*
Y171074D01*
X121550Y91974D02*
X121950Y92774D01*
X121550Y93574D01*
X122350Y93174D01*
X123150Y93574D01*
X122750Y92774D01*
X123150Y91974D01*
X122350Y92374D01*
X121550Y91974D01*
X137848Y176500D02*
X138248D01*
X138648Y176900D01*
X139048Y176500D01*
X139448D01*
Y176900D01*
X139048Y177300D01*
X139448Y177700D01*
Y178100D01*
X139048D01*
X138648Y177700D01*
X138248Y178100D01*
X137848D01*
Y177700D01*
X138248Y177300D01*
X137848Y176900D01*
Y176500D01*
X133848Y180700D02*
X134248D01*
X134648Y181100D01*
X135048Y180700D01*
X135448D01*
Y181100D01*
X135048Y181500D01*
X135448Y181900D01*
Y182300D01*
X135048D01*
X134648Y181900D01*
X134248Y182300D01*
X133848D01*
Y181900D01*
X134248Y181500D01*
X133848Y181100D01*
Y180700D01*
X228900Y165799D02*
X229300D01*
X229700Y166199D01*
X230100Y165799D01*
X230500D01*
Y166199D01*
X230100Y166599D01*
X230500Y166999D01*
Y167399D01*
X230100D01*
X229700Y166999D01*
X229300Y167399D01*
X228900D01*
Y166999D01*
X229300Y166599D01*
X228900Y166199D01*
Y165799D01*
X234448Y162931D02*
X234848Y163731D01*
X234448Y164531D01*
X235248Y164131D01*
X236048Y164531D01*
X235648Y163731D01*
X236048Y162931D01*
X235248Y163331D01*
X234448Y162931D01*
X225500Y165899D02*
X225900D01*
X226300Y166299D01*
X226700Y165899D01*
X227100D01*
Y166299D01*
X226700Y166699D01*
X227100Y167099D01*
Y167499D01*
X226700D01*
X226300Y167099D01*
X225900Y167499D01*
X225500D01*
Y167099D01*
X225900Y166699D01*
X225500Y166299D01*
Y165899D01*
X225600Y169399D02*
X226000D01*
X226400Y169799D01*
X226800Y169399D01*
X227200D01*
Y169799D01*
X226800Y170199D01*
X227200Y170599D01*
Y170999D01*
X226800D01*
X226400Y170599D01*
X226000Y170999D01*
X225600D01*
Y170599D01*
X226000Y170199D01*
X225600Y169799D01*
Y169399D01*
X169750Y121274D02*
X170150Y122074D01*
X169750Y122874D01*
X170550Y122474D01*
X171350Y122874D01*
X170950Y122074D01*
X171350Y121274D01*
X170550Y121674D01*
X169750Y121274D01*
X179150D02*
X179550Y122074D01*
X179150Y122874D01*
X179950Y122474D01*
X180750Y122874D01*
X180350Y122074D01*
X180750Y121274D01*
X179950Y121674D01*
X179150Y121274D01*
X173348Y134521D02*
X173748Y135321D01*
X173348Y136121D01*
X174148Y135721D01*
X174948Y136121D01*
X174548Y135321D01*
X174948Y134521D01*
X174148Y134921D01*
X173348Y134521D01*
X176903D02*
X177303Y135321D01*
X176903Y136121D01*
X177703Y135721D01*
X178503Y136121D01*
X178103Y135321D01*
X178503Y134521D01*
X177703Y134921D01*
X176903Y134521D01*
X192200Y136899D02*
X192600Y137699D01*
X192200Y138499D01*
X193000Y138099D01*
X193800Y138499D01*
X193400Y137699D01*
X193800Y136899D01*
X193000Y137299D01*
X192200Y136899D01*
X182350Y134574D02*
X182750Y135374D01*
X182350Y136174D01*
X183150Y135774D01*
X183950Y136174D01*
X183550Y135374D01*
X183950Y134574D01*
X183150Y134974D01*
X182350Y134574D01*
X42693Y4531D02*
X43093D01*
X43493Y4931D01*
X43893Y4531D01*
X44293D01*
Y4931D01*
X43893Y5331D01*
X44293Y5731D01*
Y6131D01*
X43893D01*
X43493Y5731D01*
X43093Y6131D01*
X42693D01*
Y5731D01*
X43093Y5331D01*
X42693Y4931D01*
Y4531D01*
X191793Y27246D02*
X192193Y28046D01*
X191793Y28846D01*
X192593Y28446D01*
X193393Y28846D01*
X192993Y28046D01*
X193393Y27246D01*
X192593Y27646D01*
X191793Y27246D01*
X145893Y24231D02*
X146293Y25031D01*
X145893Y25831D01*
X146693Y25431D01*
X147493Y25831D01*
X147093Y25031D01*
X147493Y24231D01*
X146693Y24631D01*
X145893Y24231D01*
X140393Y23031D02*
X140793D01*
X141193Y23431D01*
X141593Y23031D01*
X141993D01*
Y23431D01*
X141593Y23831D01*
X141993Y24231D01*
Y24631D01*
X141593D01*
X141193Y24231D01*
X140793Y24631D01*
X140393D01*
Y24231D01*
X140793Y23831D01*
X140393Y23431D01*
Y23031D01*
X147893Y24231D02*
X148293Y25031D01*
X147893Y25831D01*
X148693Y25431D01*
X149493Y25831D01*
X149093Y25031D01*
X149493Y24231D01*
X148693Y24631D01*
X147893Y24231D01*
X60265Y4499D02*
X60665D01*
X61065Y4899D01*
X61465Y4499D01*
X61865D01*
Y4899D01*
X61465Y5299D01*
X61865Y5699D01*
Y6099D01*
X61465D01*
X61065Y5699D01*
X60665Y6099D01*
X60265D01*
Y5699D01*
X60665Y5299D01*
X60265Y4899D01*
Y4499D01*
X243393Y23531D02*
X243793Y24331D01*
X243393Y25131D01*
X244193Y24731D01*
X244993Y25131D01*
X244593Y24331D01*
X244993Y23531D01*
X244193Y23931D01*
X243393Y23531D01*
X267893Y76083D02*
X268693Y76884D01*
X269493Y76083D01*
X268693Y75283D01*
X267893Y76083D01*
X176893Y22031D02*
X177293Y22831D01*
X176893Y23631D01*
X177693Y23231D01*
X178493Y23631D01*
X178093Y22831D01*
X178493Y22031D01*
X177693Y22431D01*
X176893Y22031D01*
X207630Y27683D02*
X208030Y28483D01*
X207630Y29283D01*
X208430Y28883D01*
X209230Y29283D01*
X208830Y28483D01*
X209230Y27683D01*
X208430Y28083D01*
X207630Y27683D01*
X263993Y79184D02*
X264393Y79984D01*
X263993Y80783D01*
X264793Y80383D01*
X265593Y80783D01*
X265193Y79984D01*
X265593Y79184D01*
X264793Y79584D01*
X263993Y79184D01*
X217393Y71310D02*
X217793Y72110D01*
X217393Y72910D01*
X218193Y72510D01*
X218993Y72910D01*
X218593Y72110D01*
X218993Y71310D01*
X218193Y71710D01*
X217393Y71310D01*
X212893Y44531D02*
X213293Y45331D01*
X212893Y46131D01*
X213693Y45731D01*
X214493Y46131D01*
X214093Y45331D01*
X214493Y44531D01*
X213693Y44931D01*
X212893Y44531D01*
X216493Y40084D02*
X216893Y40883D01*
X216493Y41684D01*
X217293Y41284D01*
X218093Y41684D01*
X217693Y40883D01*
X218093Y40084D01*
X217293Y40483D01*
X216493Y40084D01*
X129761Y6913D02*
Y6513D01*
X130561D01*
Y6913D01*
X130961D01*
Y7713D01*
X130561D01*
Y8113D01*
X129761D01*
Y7713D01*
X129361D01*
Y6913D01*
X129761D01*
X230365Y74399D02*
X231165Y75199D01*
X231965Y74399D01*
X231165Y73599D01*
X230365Y74399D01*
X111550Y43583D02*
X111950Y44383D01*
X111550Y45183D01*
X112350Y44783D01*
X113150Y45183D01*
X112750Y44383D01*
X113150Y43583D01*
X112350Y43983D01*
X111550Y43583D01*
X43765Y140099D02*
Y141699D01*
X45365D01*
Y140099D01*
X43765D01*
X44165Y140499D02*
Y141299D01*
X44965D01*
Y140499D01*
X44165D01*
X88150Y172974D02*
X88550D01*
X88950Y173374D01*
X89350Y172974D01*
X89750D01*
Y173374D01*
X89350Y173774D01*
X89750Y174174D01*
Y174574D01*
X89350D01*
X88950Y174174D01*
X88550Y174574D01*
X88150D01*
Y174174D01*
X88550Y173774D01*
X88150Y173374D01*
Y172974D01*
X130393Y23531D02*
X130793Y24331D01*
X130393Y25131D01*
X131193Y24731D01*
X131993Y25131D01*
X131593Y24331D01*
X131993Y23531D01*
X131193Y23931D01*
X130393Y23531D01*
X113330Y21783D02*
X113730Y22583D01*
X113330Y23383D01*
X114130Y22983D01*
X114930Y23383D01*
X114530Y22583D01*
X114930Y21783D01*
X114130Y22183D01*
X113330Y21783D01*
X115830D02*
X116230Y22583D01*
X115830Y23383D01*
X116630Y22983D01*
X117430Y23383D01*
X117030Y22583D01*
X117430Y21783D01*
X116630Y22183D01*
X115830Y21783D01*
X126850Y23083D02*
X127250Y23883D01*
X126850Y24683D01*
X127650Y24283D01*
X128450Y24683D01*
X128050Y23883D01*
X128450Y23083D01*
X127650Y23483D01*
X126850Y23083D01*
X171530Y72083D02*
X172330Y72883D01*
X173130Y72083D01*
X172330Y71283D01*
X171530Y72083D01*
X172393Y90783D02*
X172793Y91583D01*
X172393Y92383D01*
X173193Y91983D01*
X173993Y92383D01*
X173593Y91583D01*
X173993Y90783D01*
X173193Y91183D01*
X172393Y90783D01*
X192200Y134679D02*
X192600Y135479D01*
X192200Y136279D01*
X193000Y135879D01*
X193800Y136279D01*
X193400Y135479D01*
X193800Y134679D01*
X193000Y135079D01*
X192200Y134679D01*
Y130239D02*
X192600Y131039D01*
X192200Y131839D01*
X193000Y131439D01*
X193800Y131839D01*
X193400Y131039D01*
X193800Y130239D01*
X193000Y130639D01*
X192200Y130239D01*
X276630Y153683D02*
X277430Y154483D01*
X278230Y153683D01*
X277430Y152883D01*
X276630Y153683D01*
X278979Y146116D02*
X279379Y146916D01*
X278979Y147716D01*
X279779Y147317D01*
X280579Y147716D01*
X280179Y146916D01*
X280579Y146116D01*
X279779Y146517D01*
X278979Y146116D01*
X278630Y153743D02*
X279430Y154543D01*
X280230Y153743D01*
X279430Y152943D01*
X278630Y153743D01*
X276850Y146383D02*
X277250Y147183D01*
X276850Y147983D01*
X277650Y147583D01*
X278450Y147983D01*
X278050Y147183D01*
X278450Y146383D01*
X277650Y146783D01*
X276850Y146383D01*
X237965Y130999D02*
X238365Y131799D01*
X237965Y132599D01*
X238765Y132199D01*
X239565Y132599D01*
X239165Y131799D01*
X239565Y130999D01*
X238765Y131399D01*
X237965Y130999D01*
X128893Y22031D02*
X129293Y22831D01*
X128893Y23631D01*
X129693Y23231D01*
X130493Y23631D01*
X130093Y22831D01*
X130493Y22031D01*
X129693Y22431D01*
X128893Y22031D01*
X137050D02*
X137450Y22831D01*
X137050Y23631D01*
X137850Y23231D01*
X138650Y23631D01*
X138250Y22831D01*
X138650Y22031D01*
X137850Y22431D01*
X137050Y22031D01*
X68765Y4499D02*
X69165D01*
X69565Y4899D01*
X69965Y4499D01*
X70365D01*
Y4899D01*
X69965Y5299D01*
X70365Y5699D01*
Y6099D01*
X69965D01*
X69565Y5699D01*
X69165Y6099D01*
X68765D01*
Y5699D01*
X69165Y5299D01*
X68765Y4899D01*
Y4499D01*
X173850Y75123D02*
X174250D01*
X174650Y75523D01*
X175050Y75123D01*
X175450D01*
Y75523D01*
X175050Y75923D01*
X175450Y76323D01*
Y76723D01*
X175050D01*
X174650Y76323D01*
X174250Y76723D01*
X173850D01*
Y76323D01*
X174250Y75923D01*
X173850Y75523D01*
Y75123D01*
X156150Y58014D02*
X156950Y58814D01*
X157750Y58014D01*
X156950Y57214D01*
X156150Y58014D01*
Y55404D02*
X156950Y56204D01*
X157750Y55404D01*
X156950Y54604D01*
X156150Y55404D01*
X189350Y122983D02*
X189750Y123783D01*
X189350Y124583D01*
X190150Y124183D01*
X190950Y124583D01*
X190550Y123783D01*
X190950Y122983D01*
X190150Y123383D01*
X189350Y122983D01*
X311789Y80200D02*
X312589Y81000D01*
X313389Y80200D01*
X312589Y79400D01*
X311789Y80200D01*
X309129D02*
X309929Y81000D01*
X310729Y80200D01*
X309929Y79400D01*
X309129Y80200D01*
X306469D02*
X307269Y81000D01*
X308069Y80200D01*
X307269Y79400D01*
X306469Y80200D01*
X347700Y33699D02*
X348500Y34499D01*
X349300Y33699D01*
X348500Y32899D01*
X347700Y33699D01*
X354100Y68899D02*
X354900Y69699D01*
X355700Y68899D01*
X354900Y68099D01*
X354100Y68899D01*
X351700D02*
X352500Y69699D01*
X353300Y68899D01*
X352500Y68099D01*
X351700Y68899D01*
X356500D02*
X357300Y69699D01*
X358100Y68899D01*
X357300Y68099D01*
X356500Y68899D01*
X344495Y71500D02*
X345294Y72300D01*
X346094Y71500D01*
X345294Y70700D01*
X344495Y71500D01*
X346994Y71400D02*
X347795Y72200D01*
X348594Y71400D01*
X347795Y70600D01*
X346994Y71400D01*
X331994Y75900D02*
X332794Y76700D01*
X333594Y75900D01*
X332794Y75100D01*
X331994Y75900D01*
X334485D02*
X335285Y76700D01*
X336085Y75900D01*
X335285Y75100D01*
X334485Y75900D01*
X336976D02*
X337776Y76700D01*
X338576Y75900D01*
X337776Y75100D01*
X336976Y75900D01*
X339466Y76000D02*
X340266Y76800D01*
X341066Y76000D01*
X340266Y75200D01*
X339466Y76000D01*
X334900Y72199D02*
X335700Y72999D01*
X336500Y72199D01*
X335700Y71399D01*
X334900Y72199D01*
X301148Y80200D02*
X301948Y81000D01*
X302748Y80200D01*
X301948Y79400D01*
X301148Y80200D01*
X303808D02*
X304608Y81000D01*
X305408Y80200D01*
X304608Y79400D01*
X303808Y80200D01*
X329548Y66300D02*
X330348Y67100D01*
X331148Y66300D01*
X330348Y65500D01*
X329548Y66300D01*
X331948D02*
X332748Y67100D01*
X333548Y66300D01*
X332748Y65500D01*
X331948Y66300D01*
X334348D02*
X335148Y67100D01*
X335948Y66300D01*
X335148Y65500D01*
X334348Y66300D01*
X336748D02*
X337548Y67100D01*
X338348Y66300D01*
X337548Y65500D01*
X336748Y66300D01*
X339148D02*
X339948Y67100D01*
X340748Y66300D01*
X339948Y65500D01*
X339148Y66300D01*
X341548D02*
X342348Y67100D01*
X343148Y66300D01*
X342348Y65500D01*
X341548Y66300D01*
X329548Y63900D02*
X330348Y64700D01*
X331148Y63900D01*
X330348Y63100D01*
X329548Y63900D01*
X328348Y61700D02*
X329148Y62500D01*
X329948Y61700D01*
X329148Y60900D01*
X328348Y61700D01*
Y59300D02*
X329148Y60100D01*
X329948Y59300D01*
X329148Y58500D01*
X328348Y59300D01*
Y56800D02*
X329148Y57600D01*
X329948Y56800D01*
X329148Y56000D01*
X328348Y56800D01*
X324048Y69700D02*
X324848Y70500D01*
X325648Y69700D01*
X324848Y68900D01*
X324048Y69700D01*
X324848Y59700D02*
X325648Y60500D01*
X326448Y59700D01*
X325648Y58900D01*
X324848Y59700D01*
Y62200D02*
X325648Y63000D01*
X326448Y62200D01*
X325648Y61400D01*
X324848Y62200D01*
X329503Y75900D02*
X330303Y76700D01*
X331103Y75900D01*
X330303Y75100D01*
X329503Y75900D01*
X324048Y67200D02*
X324848Y68000D01*
X325648Y67200D01*
X324848Y66400D01*
X324048Y67200D01*
X349394Y70100D02*
X350195Y70900D01*
X350994Y70100D01*
X350195Y69300D01*
X349394Y70100D01*
X337300Y72199D02*
X338100Y72999D01*
X338900Y72199D01*
X338100Y71399D01*
X337300Y72199D01*
X332500Y72299D02*
X333300Y73099D01*
X334100Y72299D01*
X333300Y71499D01*
X332500Y72299D01*
X314148Y27200D02*
Y26800D01*
X314948D01*
Y27200D01*
X315348D01*
Y28000D01*
X314948D01*
Y28400D01*
X314148D01*
Y28000D01*
X313748D01*
Y27200D01*
X314148D01*
X272248Y63900D02*
X273048Y64700D01*
X273848Y63900D01*
X273048Y63100D01*
X272248Y63900D01*
X276393Y99383D02*
X277193Y100183D01*
X277993Y99383D01*
X277193Y98584D01*
X276393Y99383D01*
X275648Y38400D02*
X276448Y39200D01*
X277248Y38400D01*
X276448Y37600D01*
X275648Y38400D01*
X273948Y35800D02*
X274748Y36600D01*
X275548Y35800D01*
X274748Y35000D01*
X273948Y35800D01*
X270148Y34100D02*
X270948Y34900D01*
X271748Y34100D01*
X270948Y33300D01*
X270148Y34100D01*
X270248Y29500D02*
X271048Y30300D01*
X271848Y29500D01*
X271048Y28700D01*
X270248Y29500D01*
X295150Y72166D02*
X295950Y72966D01*
X296750Y72166D01*
X295950Y71366D01*
X295150Y72166D01*
X295148Y80200D02*
X295948Y81000D01*
X296748Y80200D01*
X295948Y79400D01*
X295148Y80200D01*
X297548D02*
X298348Y81000D01*
X299148Y80200D01*
X298348Y79400D01*
X297548Y80200D01*
X25474Y185202D02*
Y184802D01*
X26274D01*
Y185202D01*
X26674D01*
Y186002D01*
X26274D01*
Y186402D01*
X25474D01*
Y186002D01*
X25074D01*
Y185202D01*
X25474D01*
X13265Y157239D02*
Y156839D01*
X14065D01*
Y157239D01*
X14465D01*
Y158039D01*
X14065D01*
Y158439D01*
X13265D01*
Y158039D01*
X12865D01*
Y157239D01*
X13265D01*
X312548Y179300D02*
Y178900D01*
X313348D01*
Y179300D01*
X313748D01*
Y180100D01*
X313348D01*
Y180500D01*
X312548D01*
Y180100D01*
X312148D01*
Y179300D01*
X312548D01*
X324948Y179700D02*
X325348Y180500D01*
X324948Y181300D01*
X325748Y180900D01*
X326548Y181300D01*
X326148Y180500D01*
X326548Y179700D01*
X325748Y180100D01*
X324948Y179700D01*
X318397Y180449D02*
X318797Y181249D01*
X318397Y182049D01*
X319197Y181649D01*
X319997Y182049D01*
X319597Y181249D01*
X319997Y180449D01*
X319197Y180849D01*
X318397Y180449D01*
X306579Y104269D02*
X307380Y105069D01*
X308179Y104269D01*
X307380Y103469D01*
X306579Y104269D01*
X300948Y103100D02*
X301748Y103900D01*
X302548Y103100D01*
X301748Y102300D01*
X300948Y103100D01*
X278448Y148100D02*
X278848Y148900D01*
X278448Y149700D01*
X279248Y149300D01*
X280048Y149700D01*
X279648Y148900D01*
X280048Y148100D01*
X279248Y148500D01*
X278448Y148100D01*
X296094Y147000D02*
X296495Y147800D01*
X296094Y148600D01*
X296895Y148200D01*
X297694Y148600D01*
X297294Y147800D01*
X297694Y147000D01*
X296895Y147400D01*
X296094Y147000D01*
X274048Y138300D02*
X274448Y139100D01*
X274048Y139900D01*
X274848Y139500D01*
X275648Y139900D01*
X275248Y139100D01*
X275648Y138300D01*
X274848Y138700D01*
X274048Y138300D01*
X290048Y147800D02*
X290448Y148600D01*
X290048Y149400D01*
X290848Y149000D01*
X291648Y149400D01*
X291248Y148600D01*
X291648Y147800D01*
X290848Y148200D01*
X290048Y147800D01*
X296348Y139900D02*
X296748Y140700D01*
X296348Y141500D01*
X297148Y141100D01*
X297948Y141500D01*
X297548Y140700D01*
X297948Y139900D01*
X297148Y140300D01*
X296348Y139900D01*
X287748Y134200D02*
X288148Y135000D01*
X287748Y135800D01*
X288548Y135400D01*
X289348Y135800D01*
X288948Y135000D01*
X289348Y134200D01*
X288548Y134600D01*
X287748Y134200D01*
X289548Y137000D02*
X289948Y137800D01*
X289548Y138600D01*
X290348Y138200D01*
X291148Y138600D01*
X290748Y137800D01*
X291148Y137000D01*
X290348Y137400D01*
X289548Y137000D01*
X291348Y135100D02*
X291748Y135900D01*
X291348Y136700D01*
X292148Y136300D01*
X292948Y136700D01*
X292548Y135900D01*
X292948Y135100D01*
X292148Y135500D01*
X291348Y135100D01*
X58848Y22900D02*
X59648Y23700D01*
X60448Y22900D01*
X59648Y22100D01*
X58848Y22900D01*
X61148Y35500D02*
Y35100D01*
X61948D01*
Y35500D01*
X62348D01*
Y36300D01*
X61948D01*
Y36700D01*
X61148D01*
Y36300D01*
X60748D01*
Y35500D01*
X61148D01*
X55648Y33000D02*
Y32600D01*
X56448D01*
Y33000D01*
X56848D01*
Y33800D01*
X56448D01*
Y34200D01*
X55648D01*
Y33800D01*
X55248D01*
Y33000D01*
X55648D01*
X56876Y35428D02*
Y35028D01*
X57676D01*
Y35428D01*
X58076D01*
Y36228D01*
X57676D01*
Y36628D01*
X56876D01*
Y36228D01*
X56476D01*
Y35428D01*
X56876D01*
X79607Y4428D02*
Y4028D01*
X80407D01*
Y4428D01*
X80807D01*
Y5228D01*
X80407D01*
Y5628D01*
X79607D01*
Y5228D01*
X79207D01*
Y4428D01*
X79607D01*
X229411Y23563D02*
X229811Y24363D01*
X229411Y25163D01*
X230211Y24763D01*
X231011Y25163D01*
X230611Y24363D01*
X231011Y23563D01*
X230211Y23963D01*
X229411Y23563D01*
X28374Y185202D02*
Y184802D01*
X29174D01*
Y185202D01*
X29574D01*
Y186002D01*
X29174D01*
Y186402D01*
X28374D01*
Y186002D01*
X27974D01*
Y185202D01*
X28374D01*
X189550Y107783D02*
X189950Y108583D01*
X189550Y109383D01*
X190350Y108983D01*
X191150Y109383D01*
X190750Y108583D01*
X191150Y107783D01*
X190350Y108183D01*
X189550Y107783D01*
X189350Y120783D02*
X189750Y121583D01*
X189350Y122383D01*
X190150Y121983D01*
X190950Y122383D01*
X190550Y121583D01*
X190950Y120783D01*
X190150Y121183D01*
X189350Y120783D01*
X188365Y106099D02*
X188765Y106899D01*
X188365Y107699D01*
X189165Y107299D01*
X189965Y107699D01*
X189565Y106899D01*
X189965Y106099D01*
X189165Y106499D01*
X188365Y106099D01*
X222348Y93800D02*
Y93400D01*
X223148D01*
Y93800D01*
X223548D01*
Y94600D01*
X223148D01*
Y95000D01*
X222348D01*
Y94600D01*
X221948D01*
Y93800D01*
X222348D01*
X274848Y92500D02*
X275648Y93300D01*
X276448Y92500D01*
X275648Y91700D01*
X274848Y92500D01*
X232948Y134400D02*
X233348Y135200D01*
X232948Y136000D01*
X233748Y135600D01*
X234548Y136000D01*
X234148Y135200D01*
X234548Y134400D01*
X233748Y134800D01*
X232948Y134400D01*
Y124600D02*
X233348Y125400D01*
X232948Y126200D01*
X233748Y125800D01*
X234548Y126200D01*
X234148Y125400D01*
X234548Y124600D01*
X233748Y125000D01*
X232948Y124600D01*
X242393Y136974D02*
X242793Y137774D01*
X242393Y138574D01*
X243193Y138174D01*
X243993Y138574D01*
X243593Y137774D01*
X243993Y136974D01*
X243193Y137374D01*
X242393Y136974D01*
X242350Y135174D02*
X242750Y135974D01*
X242350Y136774D01*
X243150Y136374D01*
X243950Y136774D01*
X243550Y135974D01*
X243950Y135174D01*
X243150Y135574D01*
X242350Y135174D01*
X247893Y138531D02*
X248293Y139331D01*
X247893Y140131D01*
X248693Y139731D01*
X249493Y140131D01*
X249093Y139331D01*
X249493Y138531D01*
X248693Y138931D01*
X247893Y138531D01*
X280148Y13000D02*
X280948Y13800D01*
X281748Y13000D01*
X280948Y12200D01*
X280148Y13000D01*
X281848Y11000D02*
X282648Y11800D01*
X283448Y11000D01*
X282648Y10200D01*
X281848Y11000D01*
X300148Y148400D02*
X300548Y149200D01*
X300148Y150000D01*
X300948Y149600D01*
X301748Y150000D01*
X301348Y149200D01*
X301748Y148400D01*
X300948Y148800D01*
X300148Y148400D01*
X155048Y116600D02*
X155448Y117400D01*
X155048Y118200D01*
X155848Y117800D01*
X156648Y118200D01*
X156248Y117400D01*
X156648Y116600D01*
X155848Y117000D01*
X155048Y116600D01*
X160348Y121200D02*
X160748Y122000D01*
X160348Y122800D01*
X161148Y122400D01*
X161948Y122800D01*
X161548Y122000D01*
X161948Y121200D01*
X161148Y121600D01*
X160348Y121200D01*
X145848Y161500D02*
X146248Y162300D01*
X145848Y163100D01*
X146648Y162700D01*
X147448Y163100D01*
X147048Y162300D01*
X147448Y161500D01*
X146648Y161900D01*
X145848Y161500D01*
X153948Y159000D02*
X154348Y159800D01*
X153948Y160600D01*
X154748Y160200D01*
X155548Y160600D01*
X155148Y159800D01*
X155548Y159000D01*
X154748Y159400D01*
X153948Y159000D01*
Y162100D02*
X154348Y162900D01*
X153948Y163700D01*
X154748Y163300D01*
X155548Y163700D01*
X155148Y162900D01*
X155548Y162100D01*
X154748Y162500D01*
X153948Y162100D01*
X238834Y18342D02*
X239234Y19142D01*
X238834Y19942D01*
X239634Y19543D01*
X240434Y19942D01*
X240034Y19142D01*
X240434Y18342D01*
X239634Y18743D01*
X238834Y18342D01*
X259200Y167999D02*
X259600Y168799D01*
X259200Y169599D01*
X260000Y169199D01*
X260800Y169599D01*
X260400Y168799D01*
X260800Y167999D01*
X260000Y168399D01*
X259200Y167999D01*
X308581Y178967D02*
Y178567D01*
X309381D01*
Y178967D01*
X309781D01*
Y179767D01*
X309381D01*
Y180167D01*
X308581D01*
Y179767D01*
X308181D01*
Y178967D01*
X308581D01*
X337048Y173300D02*
Y172900D01*
X337848D01*
Y173300D01*
X338248D01*
Y174100D01*
X337848D01*
Y174500D01*
X337048D01*
Y174100D01*
X336648D01*
Y173300D01*
X337048D01*
X314048Y163300D02*
Y162900D01*
X314848D01*
Y163300D01*
X315248D01*
Y164100D01*
X314848D01*
Y164500D01*
X314048D01*
Y164100D01*
X313648D01*
Y163300D01*
X314048D01*
X282248Y106900D02*
X282648D01*
X283048Y107300D01*
X283448Y106900D01*
X283848D01*
Y107300D01*
X283448Y107700D01*
X283848Y108100D01*
Y108500D01*
X283448D01*
X283048Y108100D01*
X282648Y108500D01*
X282248D01*
Y108100D01*
X282648Y107700D01*
X282248Y107300D01*
Y106900D01*
X191348Y102700D02*
X191748D01*
X192148Y103100D01*
X192548Y102700D01*
X192948D01*
Y103100D01*
X192548Y103500D01*
X192948Y103900D01*
Y104300D01*
X192548D01*
X192148Y103900D01*
X191748Y104300D01*
X191348D01*
Y103900D01*
X191748Y103500D01*
X191348Y103100D01*
Y102700D01*
X91393Y30245D02*
X91793Y31045D01*
X91393Y31845D01*
X92193Y31445D01*
X92993Y31845D01*
X92593Y31045D01*
X92993Y30245D01*
X92193Y30645D01*
X91393Y30245D01*
X91348Y36700D02*
X91748Y37500D01*
X91348Y38300D01*
X92148Y37900D01*
X92948Y38300D01*
X92548Y37500D01*
X92948Y36700D01*
X92148Y37100D01*
X91348Y36700D01*
X267893Y103283D02*
X268293D01*
X268693Y103683D01*
X269093Y103283D01*
X269493D01*
Y103683D01*
X269093Y104083D01*
X269493Y104483D01*
Y104883D01*
X269093D01*
X268693Y104483D01*
X268293Y104883D01*
X267893D01*
Y104483D01*
X268293Y104083D01*
X267893Y103683D01*
Y103283D01*
X60265Y13199D02*
X60665D01*
X61065Y13599D01*
X61465Y13199D01*
X61865D01*
Y13599D01*
X61465Y13999D01*
X61865Y14399D01*
Y14799D01*
X61465D01*
X61065Y14399D01*
X60665Y14799D01*
X60265D01*
Y14399D01*
X60665Y13999D01*
X60265Y13599D01*
Y13199D01*
X64515Y4499D02*
X64915D01*
X65315Y4899D01*
X65715Y4499D01*
X66115D01*
Y4899D01*
X65715Y5299D01*
X66115Y5699D01*
Y6099D01*
X65715D01*
X65315Y5699D01*
X64915Y6099D01*
X64515D01*
Y5699D01*
X64915Y5299D01*
X64515Y4899D01*
Y4499D01*
X246393Y135399D02*
X246793Y136199D01*
X246393Y136999D01*
X247193Y136599D01*
X247993Y136999D01*
X247593Y136199D01*
X247993Y135399D01*
X247193Y135799D01*
X246393Y135399D01*
X247893D02*
X248293Y136199D01*
X247893Y136999D01*
X248693Y136599D01*
X249493Y136999D01*
X249093Y136199D01*
X249493Y135399D01*
X248693Y135799D01*
X247893Y135399D01*
X251100Y121699D02*
X251500Y122499D01*
X251100Y123299D01*
X251900Y122899D01*
X252700Y123299D01*
X252300Y122499D01*
X252700Y121699D01*
X251900Y122099D01*
X251100Y121699D01*
X252800D02*
X253200Y122499D01*
X252800Y123299D01*
X253600Y122899D01*
X254400Y123299D01*
X254000Y122499D01*
X254400Y121699D01*
X253600Y122099D01*
X252800Y121699D01*
X64515Y8899D02*
X64915D01*
X65315Y9299D01*
X65715Y8899D01*
X66115D01*
Y9299D01*
X65715Y9699D01*
X66115Y10099D01*
Y10499D01*
X65715D01*
X65315Y10099D01*
X64915Y10499D01*
X64515D01*
Y10099D01*
X64915Y9699D01*
X64515Y9299D01*
Y8899D01*
X157213Y10373D02*
X157613Y11173D01*
X157213Y11973D01*
X158013Y11573D01*
X158813Y11973D01*
X158413Y11173D01*
X158813Y10373D01*
X158013Y10773D01*
X157213Y10373D01*
X154063Y7573D02*
X154463Y8373D01*
X154063Y9173D01*
X154863Y8773D01*
X155663Y9173D01*
X155263Y8373D01*
X155663Y7573D01*
X154863Y7973D01*
X154063Y7573D01*
X155638Y8973D02*
X156038Y9773D01*
X155638Y10573D01*
X156438Y10173D01*
X157238Y10573D01*
X156838Y9773D01*
X157238Y8973D01*
X156438Y9373D01*
X155638Y8973D01*
X158193Y5184D02*
X158593Y5984D01*
X158193Y6784D01*
X158993Y6384D01*
X159793Y6784D01*
X159393Y5984D01*
X159793Y5184D01*
X158993Y5584D01*
X158193Y5184D01*
X163512Y10373D02*
X163912Y11173D01*
X163512Y11973D01*
X164312Y11573D01*
X165112Y11973D01*
X164712Y11173D01*
X165112Y10373D01*
X164312Y10773D01*
X163512Y10373D01*
X160362Y5300D02*
X160762Y6100D01*
X160362Y6900D01*
X161162Y6500D01*
X161962Y6900D01*
X161562Y6100D01*
X161962Y5300D01*
X161162Y5700D01*
X160362Y5300D01*
X174530Y22031D02*
X174930Y22831D01*
X174530Y23631D01*
X175330Y23231D01*
X176130Y23631D01*
X175730Y22831D01*
X176130Y22031D01*
X175330Y22431D01*
X174530Y22031D01*
X190893Y23031D02*
X191293Y23831D01*
X190893Y24631D01*
X191693Y24231D01*
X192493Y24631D01*
X192093Y23831D01*
X192493Y23031D01*
X191693Y23431D01*
X190893Y23031D01*
X172930Y24231D02*
X173330Y25031D01*
X172930Y25831D01*
X173730Y25431D01*
X174530Y25831D01*
X174130Y25031D01*
X174530Y24231D01*
X173730Y24631D01*
X172930Y24231D01*
X171430Y22031D02*
X171830Y22831D01*
X171430Y23631D01*
X172230Y23231D01*
X173030Y23631D01*
X172630Y22831D01*
X173030Y22031D01*
X172230Y22431D01*
X171430Y22031D01*
X169830Y24231D02*
X170230Y25031D01*
X169830Y25831D01*
X170630Y25431D01*
X171430Y25831D01*
X171030Y25031D01*
X171430Y24231D01*
X170630Y24631D01*
X169830Y24231D01*
X168230Y22031D02*
X168630Y22831D01*
X168230Y23631D01*
X169030Y23231D01*
X169830Y23631D01*
X169430Y22831D01*
X169830Y22031D01*
X169030Y22431D01*
X168230Y22031D01*
X166630Y24231D02*
X167030Y25031D01*
X166630Y25831D01*
X167430Y25431D01*
X168230Y25831D01*
X167830Y25031D01*
X168230Y24231D01*
X167430Y24631D01*
X166630Y24231D01*
X211548Y21500D02*
X211948Y22300D01*
X211548Y23100D01*
X212348Y22700D01*
X213148Y23100D01*
X212748Y22300D01*
X213148Y21500D01*
X212348Y21900D01*
X211548Y21500D01*
X198448Y9800D02*
X199248Y10600D01*
X200048Y9800D01*
X199248Y9000D01*
X198448Y9800D01*
X282748Y21300D02*
X283148Y22100D01*
X282748Y22900D01*
X283548Y22500D01*
X284348Y22900D01*
X283948Y22100D01*
X284348Y21300D01*
X283548Y21700D01*
X282748Y21300D01*
X298648Y121200D02*
X299048Y122000D01*
X298648Y122800D01*
X299448Y122400D01*
X300248Y122800D01*
X299848Y122000D01*
X300248Y121200D01*
X299448Y121600D01*
X298648Y121200D01*
X309848Y121800D02*
X310248Y122600D01*
X309848Y123400D01*
X310648Y123000D01*
X311448Y123400D01*
X311048Y122600D01*
X311448Y121800D01*
X310648Y122200D01*
X309848Y121800D01*
X320454Y153537D02*
X320853Y154337D01*
X320454Y155137D01*
X321253Y154737D01*
X322054Y155137D01*
X321654Y154337D01*
X322054Y153537D01*
X321253Y153937D01*
X320454Y153537D01*
X39148Y45100D02*
X39548D01*
X39948Y45500D01*
X40348Y45100D01*
X40748D01*
Y45500D01*
X40348Y45900D01*
X40748Y46300D01*
Y46700D01*
X40348D01*
X39948Y46300D01*
X39548Y46700D01*
X39148D01*
Y46300D01*
X39548Y45900D01*
X39148Y45500D01*
Y45100D01*
X27852Y102092D02*
X28252Y102892D01*
X27852Y103692D01*
X28652Y103292D01*
X29452Y103692D01*
X29052Y102892D01*
X29452Y102092D01*
X28652Y102492D01*
X27852Y102092D01*
X22893Y113283D02*
X23293Y114083D01*
X22893Y114883D01*
X23693Y114483D01*
X24493Y114883D01*
X24093Y114083D01*
X24493Y113283D01*
X23693Y113683D01*
X22893Y113283D01*
X23852Y115592D02*
X24252Y116392D01*
X23852Y117192D01*
X24652Y116792D01*
X25452Y117192D01*
X25052Y116392D01*
X25452Y115592D01*
X24652Y115992D01*
X23852Y115592D01*
X26852Y118592D02*
X27252Y119392D01*
X26852Y120192D01*
X27652Y119792D01*
X28452Y120192D01*
X28052Y119392D01*
X28452Y118592D01*
X27652Y118992D01*
X26852Y118592D01*
X13265Y160499D02*
Y160099D01*
X14065D01*
Y160499D01*
X14465D01*
Y161299D01*
X14065D01*
Y161699D01*
X13265D01*
Y161299D01*
X12865D01*
Y160499D01*
X13265D01*
X336948Y43200D02*
X337748Y44000D01*
X338548Y43200D01*
X337748Y42400D01*
X336948Y43200D01*
Y40700D02*
X337748Y41500D01*
X338548Y40700D01*
X337748Y39900D01*
X336948Y40700D01*
Y38200D02*
X337748Y39000D01*
X338548Y38200D01*
X337748Y37400D01*
X336948Y38200D01*
Y35700D02*
X337748Y36500D01*
X338548Y35700D01*
X337748Y34900D01*
X336948Y35700D01*
Y33200D02*
X337748Y34000D01*
X338548Y33200D01*
X337748Y32400D01*
X336948Y33200D01*
Y30700D02*
X337748Y31500D01*
X338548Y30700D01*
X337748Y29900D01*
X336948Y30700D01*
Y28200D02*
X337748Y29000D01*
X338548Y28200D01*
X337748Y27400D01*
X336948Y28200D01*
Y25700D02*
X337748Y26500D01*
X338548Y25700D01*
X337748Y24900D01*
X336948Y25700D01*
Y23200D02*
X337748Y24000D01*
X338548Y23200D01*
X337748Y22400D01*
X336948Y23200D01*
X356148Y31300D02*
X356948Y32100D01*
X357748Y31300D01*
X356948Y30500D01*
X356148Y31300D01*
Y28600D02*
X356948Y29400D01*
X357748Y28600D01*
X356948Y27800D01*
X356148Y28600D01*
Y25900D02*
X356948Y26700D01*
X357748Y25900D01*
X356948Y25100D01*
X356148Y25900D01*
Y23200D02*
X356948Y24000D01*
X357748Y23200D01*
X356948Y22400D01*
X356148Y23200D01*
Y20500D02*
X356948Y21300D01*
X357748Y20500D01*
X356948Y19700D01*
X356148Y20500D01*
Y17800D02*
X356948Y18600D01*
X357748Y17800D01*
X356948Y17000D01*
X356148Y17800D01*
X356048Y14600D02*
X356848Y15400D01*
X357648Y14600D01*
X356848Y13800D01*
X356048Y14600D01*
Y11700D02*
X356848Y12500D01*
X357648Y11700D01*
X356848Y10900D01*
X356048Y11700D01*
X354648Y8700D02*
X355448Y9500D01*
X356248Y8700D01*
X355448Y7900D01*
X354648Y8700D01*
X329448Y78400D02*
X330248Y79200D01*
X331048Y78400D01*
X330248Y77600D01*
X329448Y78400D01*
X317048Y81000D02*
X317848Y81800D01*
X318648Y81000D01*
X317848Y80200D01*
X317048Y81000D01*
Y83600D02*
X317848Y84400D01*
X318648Y83600D01*
X317848Y82800D01*
X317048Y83600D01*
X319248Y85100D02*
X320048Y85900D01*
X320848Y85100D01*
X320048Y84300D01*
X319248Y85100D01*
X328300Y85699D02*
X329100Y86499D01*
X329900Y85699D01*
X329100Y84899D01*
X328300Y85699D01*
X330848Y85699D02*
X331648Y86499D01*
X332448Y85699D01*
X331648Y84899D01*
X330848Y85699D01*
Y83150D02*
X331648Y83950D01*
X332448Y83150D01*
X331648Y82350D01*
X330848Y83150D01*
Y80600D02*
X331648Y81400D01*
X332448Y80600D01*
X331648Y79800D01*
X330848Y80600D01*
X334375Y25695D02*
X335175Y26495D01*
X335975Y25695D01*
X335175Y24895D01*
X334375Y25695D01*
X329148Y34600D02*
X329948Y35400D01*
X330748Y34600D01*
X329948Y33800D01*
X329148Y34600D01*
X292500Y69599D02*
X293300Y70399D01*
X294100Y69599D01*
X293300Y68799D01*
X292500Y69599D01*
X290100D02*
X290900Y70399D01*
X291700Y69599D01*
X290900Y68799D01*
X290100Y69599D01*
X286648D02*
X287448Y70399D01*
X288248Y69599D01*
X287448Y68799D01*
X286648Y69599D01*
X284200D02*
X285000Y70399D01*
X285800Y69599D01*
X285000Y68799D01*
X284200Y69599D01*
X275100Y68699D02*
X275900Y69499D01*
X276700Y68699D01*
X275900Y67899D01*
X275100Y68699D01*
Y66399D02*
X275900Y67199D01*
X276700Y66399D01*
X275900Y65599D01*
X275100Y66399D01*
X296100Y27999D02*
X296900Y28799D01*
X297700Y27999D01*
X296900Y27199D01*
X296100Y27999D01*
X298500D02*
X299300Y28799D01*
X300100Y27999D01*
X299300Y27199D01*
X298500Y27999D01*
X300900D02*
X301700Y28799D01*
X302500Y27999D01*
X301700Y27199D01*
X300900Y27999D01*
X293600D02*
X294400Y28799D01*
X295200Y27999D01*
X294400Y27199D01*
X293600Y27999D01*
X306148Y28000D02*
X306948Y28800D01*
X307748Y28000D01*
X306948Y27200D01*
X306148Y28000D01*
X308548D02*
X309348Y28800D01*
X310148Y28000D01*
X309348Y27200D01*
X308548Y28000D01*
X322165Y27899D02*
X322965Y28699D01*
X323765Y27899D01*
X322965Y27099D01*
X322165Y27899D01*
X327200Y32899D02*
X328000Y33699D01*
X328800Y32899D01*
X328000Y32099D01*
X327200Y32899D01*
X283295Y35300D02*
X284095Y36100D01*
X284894Y35300D01*
X284095Y34500D01*
X283295Y35300D01*
X336948Y20800D02*
X337748Y21600D01*
X338548Y20800D01*
X337748Y20000D01*
X336948Y20800D01*
X336948Y18262D02*
X337748Y19062D01*
X338548Y18262D01*
X337748Y17462D01*
X336948Y18262D01*
X328748D02*
X329548Y19062D01*
X330348Y18262D01*
X329548Y17462D01*
X328748Y18262D01*
X311548Y8900D02*
X312348Y9700D01*
X313148Y8900D01*
X312348Y8100D01*
X311548Y8900D01*
X313948D02*
X314748Y9700D01*
X315548Y8900D01*
X314748Y8100D01*
X313948Y8900D01*
X316348D02*
X317148Y9700D01*
X317948Y8900D01*
X317148Y8100D01*
X316348Y8900D01*
X318748D02*
X319548Y9700D01*
X320348Y8900D01*
X319548Y8100D01*
X318748Y8900D01*
X321148D02*
X321948Y9700D01*
X322748Y8900D01*
X321948Y8100D01*
X321148Y8900D01*
X323648D02*
X324448Y9700D01*
X325248Y8900D01*
X324448Y8100D01*
X323648Y8900D01*
X326048D02*
X326848Y9700D01*
X327648Y8900D01*
X326848Y8100D01*
X326048Y8900D01*
X297748D02*
X298548Y9700D01*
X299348Y8900D01*
X298548Y8100D01*
X297748Y8900D01*
X294971D02*
X295771Y9700D01*
X296571Y8900D01*
X295771Y8100D01*
X294971Y8900D01*
X292195D02*
X292995Y9700D01*
X293795Y8900D01*
X292995Y8100D01*
X292195Y8900D01*
X289418D02*
X290218Y9700D01*
X291018Y8900D01*
X290218Y8100D01*
X289418Y8900D01*
X283865D02*
X284665Y9700D01*
X285465Y8900D01*
X284665Y8100D01*
X283865Y8900D01*
X286641D02*
X287441Y9700D01*
X288241Y8900D01*
X287441Y8100D01*
X286641Y8900D01*
X278448D02*
X279248Y9700D01*
X280048Y8900D01*
X279248Y8100D01*
X278448Y8900D01*
X275848D02*
X276648Y9700D01*
X277448Y8900D01*
X276648Y8100D01*
X275848Y8900D01*
X213848Y128100D02*
X214248Y128900D01*
X213848Y129700D01*
X214648Y129300D01*
X215448Y129700D01*
X215048Y128900D01*
X215448Y128100D01*
X214648Y128500D01*
X213848Y128100D01*
X16446Y48926D02*
Y48526D01*
X17246D01*
Y48926D01*
X17646D01*
Y49726D01*
X17246D01*
Y50126D01*
X16446D01*
Y49726D01*
X16046D01*
Y48926D01*
X16446D01*
Y46026D02*
Y45626D01*
X17246D01*
Y46026D01*
X17646D01*
Y46826D01*
X17246D01*
Y47226D01*
X16446D01*
Y46826D01*
X16046D01*
Y46026D01*
X16446D01*
Y37326D02*
Y36926D01*
X17246D01*
Y37326D01*
X17646D01*
Y38126D01*
X17246D01*
Y38526D01*
X16446D01*
Y38126D01*
X16046D01*
Y37326D01*
X16446D01*
Y40226D02*
Y39826D01*
X17246D01*
Y40226D01*
X17646D01*
Y41026D01*
X17246D01*
Y41426D01*
X16446D01*
Y41026D01*
X16046D01*
Y40226D01*
X16446D01*
Y43126D02*
Y42726D01*
X17246D01*
Y43126D01*
X17646D01*
Y43926D01*
X17246D01*
Y44326D01*
X16446D01*
Y43926D01*
X16046D01*
Y43126D01*
X16446D01*
X16448Y34200D02*
Y33800D01*
X17248D01*
Y34200D01*
X17648D01*
Y35000D01*
X17248D01*
Y35400D01*
X16448D01*
Y35000D01*
X16048D01*
Y34200D01*
X16448D01*
X51474Y186102D02*
Y185702D01*
X52274D01*
Y186102D01*
X52674D01*
Y186902D01*
X52274D01*
Y187302D01*
X51474D01*
Y186902D01*
X51074D01*
Y186102D01*
X51474D01*
X54374D02*
Y185702D01*
X55174D01*
Y186102D01*
X55574D01*
Y186902D01*
X55174D01*
Y187302D01*
X54374D01*
Y186902D01*
X53974D01*
Y186102D01*
X54374D01*
X57274D02*
Y185702D01*
X58074D01*
Y186102D01*
X58474D01*
Y186902D01*
X58074D01*
Y187302D01*
X57274D01*
Y186902D01*
X56874D01*
Y186102D01*
X57274D01*
X48348D02*
Y185702D01*
X49148D01*
Y186102D01*
X49548D01*
Y186902D01*
X49148D01*
Y187302D01*
X48348D01*
Y186902D01*
X47948D01*
Y186102D01*
X48348D01*
X300248Y185302D02*
Y184902D01*
X301048D01*
Y185302D01*
X301448D01*
Y186102D01*
X301048D01*
Y186502D01*
X300248D01*
Y186102D01*
X299848D01*
Y185302D01*
X300248D01*
X309491D02*
Y184902D01*
X310291D01*
Y185302D01*
X310691D01*
Y186102D01*
X310291D01*
Y186502D01*
X309491D01*
Y186102D01*
X309091D01*
Y185302D01*
X309491D01*
X306410D02*
Y184902D01*
X307210D01*
Y185302D01*
X307610D01*
Y186102D01*
X307210D01*
Y186502D01*
X306410D01*
Y186102D01*
X306010D01*
Y185302D01*
X306410D01*
X303329D02*
Y184902D01*
X304129D01*
Y185302D01*
X304529D01*
Y186102D01*
X304129D01*
Y186502D01*
X303329D01*
Y186102D01*
X302929D01*
Y185302D01*
X303329D01*
X312572D02*
Y184902D01*
X313372D01*
Y185302D01*
X313772D01*
Y186102D01*
X313372D01*
Y186502D01*
X312572D01*
Y186102D01*
X312172D01*
Y185302D01*
X312572D01*
X315653D02*
Y184902D01*
X316454D01*
Y185302D01*
X316853D01*
Y186102D01*
X316454D01*
Y186502D01*
X315653D01*
Y186102D01*
X315253D01*
Y185302D01*
X315653D01*
X327978D02*
Y184902D01*
X328778D01*
Y185302D01*
X329178D01*
Y186102D01*
X328778D01*
Y186502D01*
X327978D01*
Y186102D01*
X327578D01*
Y185302D01*
X327978D01*
X337221D02*
Y184902D01*
X338021D01*
Y185302D01*
X338421D01*
Y186102D01*
X338021D01*
Y186502D01*
X337221D01*
Y186102D01*
X336821D01*
Y185302D01*
X337221D01*
X334140D02*
Y184902D01*
X334940D01*
Y185302D01*
X335340D01*
Y186102D01*
X334940D01*
Y186502D01*
X334140D01*
Y186102D01*
X333740D01*
Y185302D01*
X334140D01*
X331059D02*
Y184902D01*
X331859D01*
Y185302D01*
X332259D01*
Y186102D01*
X331859D01*
Y186502D01*
X331059D01*
Y186102D01*
X330659D01*
Y185302D01*
X331059D01*
X340302D02*
Y184902D01*
X341102D01*
Y185302D01*
X341502D01*
Y186102D01*
X341102D01*
Y186502D01*
X340302D01*
Y186102D01*
X339902D01*
Y185302D01*
X340302D01*
X343383D02*
Y184902D01*
X344183D01*
Y185302D01*
X344583D01*
Y186102D01*
X344183D01*
Y186502D01*
X343383D01*
Y186102D01*
X342983D01*
Y185302D01*
X343383D01*
X349765Y166899D02*
Y166499D01*
X350565D01*
Y166899D01*
X350965D01*
Y167699D01*
X350565D01*
Y168099D01*
X349765D01*
Y167699D01*
X349365D01*
Y166899D01*
X349765D01*
X319394Y124200D02*
Y123800D01*
X320195D01*
Y124200D01*
X320595D01*
Y125000D01*
X320195D01*
Y125400D01*
X319394D01*
Y125000D01*
X318994D01*
Y124200D01*
X319394D01*
X288947Y115900D02*
Y115500D01*
X289746D01*
Y115900D01*
X290146D01*
Y116700D01*
X289746D01*
Y117100D01*
X288947D01*
Y116700D01*
X288546D01*
Y115900D01*
X288947D01*
X291848D02*
Y115500D01*
X292648D01*
Y115900D01*
X293048D01*
Y116700D01*
X292648D01*
Y117100D01*
X291848D01*
Y116700D01*
X291448D01*
Y115900D01*
X291848D01*
X293148Y102800D02*
Y102400D01*
X293948D01*
Y102800D01*
X294348D01*
Y103600D01*
X293948D01*
Y104000D01*
X293148D01*
Y103600D01*
X292748D01*
Y102800D01*
X293148D01*
X293048Y100000D02*
Y99600D01*
X293848D01*
Y100000D01*
X294248D01*
Y100800D01*
X293848D01*
Y101200D01*
X293048D01*
Y100800D01*
X292648D01*
Y100000D01*
X293048D01*
X274948Y88100D02*
Y87700D01*
X275748D01*
Y88100D01*
X276148D01*
Y88900D01*
X275748D01*
Y89300D01*
X274948D01*
Y88900D01*
X274548D01*
Y88100D01*
X274948D01*
X277948D02*
Y87700D01*
X278748D01*
Y88100D01*
X279148D01*
Y88900D01*
X278748D01*
Y89300D01*
X277948D01*
Y88900D01*
X277548D01*
Y88100D01*
X277948D01*
X280948Y88200D02*
Y87800D01*
X281748D01*
Y88200D01*
X282148D01*
Y89000D01*
X281748D01*
Y89400D01*
X280948D01*
Y89000D01*
X280548D01*
Y88200D01*
X280948D01*
X299148Y87900D02*
Y87500D01*
X299948D01*
Y87900D01*
X300348D01*
Y88700D01*
X299948D01*
Y89100D01*
X299148D01*
Y88700D01*
X298748D01*
Y87900D01*
X299148D01*
X302148D02*
Y87500D01*
X302948D01*
Y87900D01*
X303348D01*
Y88700D01*
X302948D01*
Y89100D01*
X302148D01*
Y88700D01*
X301748D01*
Y87900D01*
X302148D01*
X95865Y3499D02*
Y3099D01*
X96665D01*
Y3499D01*
X97065D01*
Y4299D01*
X96665D01*
Y4699D01*
X95865D01*
Y4299D01*
X95465D01*
Y3499D01*
X95865D01*
X98765D02*
Y3099D01*
X99565D01*
Y3499D01*
X99965D01*
Y4299D01*
X99565D01*
Y4699D01*
X98765D01*
Y4299D01*
X98365D01*
Y3499D01*
X98765D01*
X116064Y2271D02*
Y1871D01*
X116864D01*
Y2271D01*
X117264D01*
Y3071D01*
X116864D01*
Y3471D01*
X116064D01*
Y3071D01*
X115664D01*
Y2271D01*
X116064D01*
X118897D02*
Y1871D01*
X119697D01*
Y2271D01*
X120097D01*
Y3071D01*
X119697D01*
Y3471D01*
X118897D01*
Y3071D01*
X118497D01*
Y2271D01*
X118897D01*
X121730D02*
Y1871D01*
X122530D01*
Y2271D01*
X122930D01*
Y3071D01*
X122530D01*
Y3471D01*
X121730D01*
Y3071D01*
X121330D01*
Y2271D01*
X121730D01*
X124564D02*
Y1871D01*
X125364D01*
Y2271D01*
X125764D01*
Y3071D01*
X125364D01*
Y3471D01*
X124564D01*
Y3071D01*
X124164D01*
Y2271D01*
X124564D01*
X5046Y177926D02*
Y177526D01*
X5847D01*
Y177926D01*
X6247D01*
Y178726D01*
X5847D01*
Y179126D01*
X5046D01*
Y178726D01*
X4646D01*
Y177926D01*
X5046D01*
Y175026D02*
Y174626D01*
X5847D01*
Y175026D01*
X6247D01*
Y175826D01*
X5847D01*
Y176226D01*
X5046D01*
Y175826D01*
X4646D01*
Y175026D01*
X5046D01*
Y166326D02*
Y165926D01*
X5847D01*
Y166326D01*
X6247D01*
Y167126D01*
X5847D01*
Y167526D01*
X5046D01*
Y167126D01*
X4646D01*
Y166326D01*
X5046D01*
Y169226D02*
Y168826D01*
X5847D01*
Y169226D01*
X6247D01*
Y170026D01*
X5847D01*
Y170426D01*
X5046D01*
Y170026D01*
X4646D01*
Y169226D01*
X5046D01*
Y172126D02*
Y171726D01*
X5847D01*
Y172126D01*
X6247D01*
Y172926D01*
X5847D01*
Y173326D01*
X5046D01*
Y172926D01*
X4646D01*
Y172126D01*
X5046D01*
Y163200D02*
Y162800D01*
X5847D01*
Y163200D01*
X6247D01*
Y164000D01*
X5847D01*
Y164400D01*
X5046D01*
Y164000D01*
X4646D01*
Y163200D01*
X5046D01*
X13922Y2798D02*
Y2398D01*
X14722D01*
Y2798D01*
X15122D01*
Y3598D01*
X14722D01*
Y3998D01*
X13922D01*
Y3598D01*
X13522D01*
Y2798D01*
X13922D01*
X263350Y2699D02*
Y2299D01*
X264150D01*
Y2699D01*
X264550D01*
Y3499D01*
X264150D01*
Y3899D01*
X263350D01*
Y3499D01*
X262950D01*
Y2699D01*
X263350D01*
X266300D02*
Y2299D01*
X267100D01*
Y2699D01*
X267500D01*
Y3499D01*
X267100D01*
Y3899D01*
X266300D01*
Y3499D01*
X265900D01*
Y2699D01*
X266300D01*
X247132Y7400D02*
Y7000D01*
X247932D01*
Y7400D01*
X248332D01*
Y8200D01*
X247932D01*
Y8600D01*
X247132D01*
Y8200D01*
X246732D01*
Y7400D01*
X247132D01*
X250374D02*
Y7000D01*
X251174D01*
Y7400D01*
X251574D01*
Y8200D01*
X251174D01*
Y8600D01*
X250374D01*
Y8200D01*
X249974D01*
Y7400D01*
X250374D01*
X240648D02*
Y7000D01*
X241448D01*
Y7400D01*
X241848D01*
Y8200D01*
X241448D01*
Y8600D01*
X240648D01*
Y8200D01*
X240248D01*
Y7400D01*
X240648D01*
X243890D02*
Y7000D01*
X244690D01*
Y7400D01*
X245090D01*
Y8200D01*
X244690D01*
Y8600D01*
X243890D01*
Y8200D01*
X243490D01*
Y7400D01*
X243890D01*
X321465Y59199D02*
X321865Y59999D01*
X321465Y60799D01*
X322265Y60399D01*
X323065Y60799D01*
X322665Y59999D01*
X323065Y59199D01*
X322265Y59599D01*
X321465Y59199D01*
Y61399D02*
X321865Y62199D01*
X321465Y62999D01*
X322265Y62599D01*
X323065Y62999D01*
X322665Y62199D01*
X323065Y61399D01*
X322265Y61799D01*
X321465Y61399D01*
X323265Y52899D02*
X323665Y53699D01*
X323265Y54499D01*
X324065Y54099D01*
X324865Y54499D01*
X324465Y53699D01*
X324865Y52899D01*
X324065Y53299D01*
X323265Y52899D01*
Y51049D02*
X323665Y51849D01*
X323265Y52649D01*
X324065Y52249D01*
X324865Y52649D01*
X324465Y51849D01*
X324865Y51049D01*
X324065Y51449D01*
X323265Y51049D01*
Y49199D02*
X323665Y49999D01*
X323265Y50799D01*
X324065Y50399D01*
X324865Y50799D01*
X324465Y49999D01*
X324865Y49199D01*
X324065Y49599D01*
X323265Y49199D01*
X188260Y143964D02*
X188660Y144764D01*
X188260Y145564D01*
X189060Y145164D01*
X189860Y145564D01*
X189460Y144764D01*
X189860Y143964D01*
X189060Y144364D01*
X188260Y143964D01*
X189650Y145574D02*
X190050Y146374D01*
X189650Y147174D01*
X190450Y146774D01*
X191250Y147174D01*
X190850Y146374D01*
X191250Y145574D01*
X190450Y145974D01*
X189650Y145574D01*
X186500Y151899D02*
X186900Y152699D01*
X186500Y153499D01*
X187300Y153099D01*
X188100Y153499D01*
X187700Y152699D01*
X188100Y151899D01*
X187300Y152299D01*
X186500Y151899D01*
Y155299D02*
X186900Y156099D01*
X186500Y156899D01*
X187300Y156499D01*
X188100Y156899D01*
X187700Y156099D01*
X188100Y155299D01*
X187300Y155699D01*
X186500Y155299D01*
X190450Y159374D02*
Y158974D01*
X191250D01*
Y159374D01*
X191650D01*
Y160174D01*
X191250D01*
Y160574D01*
X190450D01*
Y160174D01*
X190050D01*
Y159374D01*
X190450D01*
X190050Y165474D02*
X190450Y166274D01*
X190050Y167074D01*
X190850Y166674D01*
X191650Y167074D01*
X191250Y166274D01*
X191650Y165474D01*
X190850Y165874D01*
X190050Y165474D01*
X186548Y162900D02*
X186948Y163700D01*
X186548Y164500D01*
X187348Y164100D01*
X188148Y164500D01*
X187748Y163700D01*
X188148Y162900D01*
X187348Y163300D01*
X186548Y162900D01*
X188050Y157374D02*
X188450Y158174D01*
X188050Y158974D01*
X188850Y158574D01*
X189650Y158974D01*
X189250Y158174D01*
X189650Y157374D01*
X188850Y157774D01*
X188050Y157374D01*
X171148Y166000D02*
X171548Y166800D01*
X171148Y167600D01*
X171948Y167200D01*
X172748Y167600D01*
X172348Y166800D01*
X172748Y166000D01*
X171948Y166400D01*
X171148Y166000D01*
X164465Y154847D02*
X164865Y155647D01*
X164465Y156447D01*
X165265Y156047D01*
X166065Y156447D01*
X165665Y155647D01*
X166065Y154847D01*
X165265Y155247D01*
X164465Y154847D01*
Y158800D02*
X164865Y159600D01*
X164465Y160400D01*
X165265Y160000D01*
X166065Y160400D01*
X165665Y159600D01*
X166065Y158800D01*
X165265Y159200D01*
X164465Y158800D01*
X170650Y161074D02*
Y160674D01*
X171450D01*
Y161074D01*
X171850D01*
Y161874D01*
X171450D01*
Y162274D01*
X170650D01*
Y161874D01*
X170250D01*
Y161074D01*
X170650D01*
X164465Y163299D02*
X164865Y164099D01*
X164465Y164899D01*
X165265Y164499D01*
X166065Y164899D01*
X165665Y164099D01*
X166065Y163299D01*
X165265Y163699D01*
X164465Y163299D01*
Y165350D02*
X164865Y166150D01*
X164465Y166950D01*
X165265Y166550D01*
X166065Y166950D01*
X165665Y166150D01*
X166065Y165350D01*
X165265Y165750D01*
X164465Y165350D01*
X169465Y164799D02*
X169865Y165599D01*
X169465Y166399D01*
X170265Y165999D01*
X171065Y166399D01*
X170665Y165599D01*
X171065Y164799D01*
X170265Y165199D01*
X169465Y164799D01*
X151665Y165799D02*
X152065Y166599D01*
X151665Y167399D01*
X152465Y166999D01*
X153265Y167399D01*
X152865Y166599D01*
X153265Y165799D01*
X152465Y166199D01*
X151665Y165799D01*
X169465Y158099D02*
X169865Y158899D01*
X169465Y159699D01*
X170265Y159299D01*
X171065Y159699D01*
X170665Y158899D01*
X171065Y158099D01*
X170265Y158499D01*
X169465Y158099D01*
X133165Y5999D02*
X133565D01*
X133965Y6399D01*
X134365Y5999D01*
X134765D01*
Y6399D01*
X134365Y6799D01*
X134765Y7199D01*
Y7599D01*
X134365D01*
X133965Y7199D01*
X133565Y7599D01*
X133165D01*
Y7199D01*
X133565Y6799D01*
X133165Y6399D01*
Y5999D01*
X246165Y35799D02*
X246565Y36599D01*
X246165Y37399D01*
X246965Y36999D01*
X247765Y37399D01*
X247365Y36599D01*
X247765Y35799D01*
X246965Y36199D01*
X246165Y35799D01*
X241965Y84899D02*
X242365D01*
X242765Y85299D01*
X243165Y84899D01*
X243565D01*
Y85299D01*
X243165Y85699D01*
X243565Y86099D01*
Y86499D01*
X243165D01*
X242765Y86099D01*
X242365Y86499D01*
X241965D01*
Y86099D01*
X242365Y85699D01*
X241965Y85299D01*
Y84899D01*
X245565D02*
X245965D01*
X246365Y85299D01*
X246765Y84899D01*
X247165D01*
Y85299D01*
X246765Y85699D01*
X247165Y86099D01*
Y86499D01*
X246765D01*
X246365Y86099D01*
X245965Y86499D01*
X245565D01*
Y86099D01*
X245965Y85699D01*
X245565Y85299D01*
Y84899D01*
X177765Y174599D02*
X178165Y175399D01*
X177765Y176199D01*
X178565Y175799D01*
X179365Y176199D01*
X178965Y175399D01*
X179365Y174599D01*
X178565Y174999D01*
X177765Y174599D01*
X234865Y139399D02*
X235265Y140199D01*
X234865Y140999D01*
X235665Y140599D01*
X236465Y140999D01*
X236065Y140199D01*
X236465Y139399D01*
X235665Y139799D01*
X234865Y139399D01*
X310200Y125799D02*
X310600Y126599D01*
X310200Y127399D01*
X311000Y126999D01*
X311800Y127399D01*
X311400Y126599D01*
X311800Y125799D01*
X311000Y126199D01*
X310200Y125799D01*
X318317Y128447D02*
X318717Y129247D01*
X318317Y130047D01*
X319116Y129647D01*
X319917Y130047D01*
X319516Y129247D01*
X319917Y128447D01*
X319116Y128847D01*
X318317Y128447D01*
X300465Y119799D02*
X300865Y120599D01*
X300465Y121399D01*
X301265Y120999D01*
X302065Y121399D01*
X301665Y120599D01*
X302065Y119799D01*
X301265Y120199D01*
X300465Y119799D01*
X292465Y112400D02*
Y112000D01*
X293265D01*
Y112400D01*
X293665D01*
Y113200D01*
X293265D01*
Y113600D01*
X292465D01*
Y113200D01*
X292065D01*
Y112400D01*
X292465D01*
X4148Y10600D02*
Y10200D01*
X4948D01*
Y10600D01*
X5348D01*
Y11400D01*
X4948D01*
Y11800D01*
X4148D01*
Y11400D01*
X3748D01*
Y10600D01*
X4148D01*
X4146Y19526D02*
Y19126D01*
X4947D01*
Y19526D01*
X5347D01*
Y20326D01*
X4947D01*
Y20726D01*
X4146D01*
Y20326D01*
X3746D01*
Y19526D01*
X4146D01*
Y16626D02*
Y16226D01*
X4947D01*
Y16626D01*
X5347D01*
Y17426D01*
X4947D01*
Y17826D01*
X4146D01*
Y17426D01*
X3746D01*
Y16626D01*
X4146D01*
Y13726D02*
Y13326D01*
X4947D01*
Y13726D01*
X5347D01*
Y14526D01*
X4947D01*
Y14926D01*
X4146D01*
Y14526D01*
X3746D01*
Y13726D01*
X4146D01*
Y22426D02*
Y22026D01*
X4947D01*
Y22426D01*
X5347D01*
Y23226D01*
X4947D01*
Y23626D01*
X4146D01*
Y23226D01*
X3746D01*
Y22426D01*
X4146D01*
Y25326D02*
Y24926D01*
X4947D01*
Y25326D01*
X5347D01*
Y26126D01*
X4947D01*
Y26526D01*
X4146D01*
Y26126D01*
X3746D01*
Y25326D01*
X4146D01*
X80856Y155486D02*
X81256Y156286D01*
X80856Y157086D01*
X81656Y156686D01*
X82456Y157086D01*
X82056Y156286D01*
X82456Y155486D01*
X81656Y155886D01*
X80856Y155486D01*
X78637Y155496D02*
X79037Y156296D01*
X78637Y157096D01*
X79437Y156696D01*
X80237Y157096D01*
X79837Y156296D01*
X80237Y155496D01*
X79437Y155896D01*
X78637Y155496D01*
X76271Y155948D02*
X76671Y156748D01*
X76271Y157548D01*
X77071Y157148D01*
X77871Y157548D01*
X77471Y156748D01*
X77871Y155948D01*
X77071Y156348D01*
X76271Y155948D01*
X57331Y161799D02*
X57731Y162599D01*
X57331Y163399D01*
X58131Y162999D01*
X58931Y163399D01*
X58531Y162599D01*
X58931Y161799D01*
X58131Y162199D01*
X57331Y161799D01*
X59598D02*
X59998Y162599D01*
X59598Y163399D01*
X60398Y162999D01*
X61198Y163399D01*
X60798Y162599D01*
X61198Y161799D01*
X60398Y162199D01*
X59598Y161799D01*
X57331Y159599D02*
X57731Y160399D01*
X57331Y161199D01*
X58131Y160799D01*
X58931Y161199D01*
X58531Y160399D01*
X58931Y159599D01*
X58131Y159999D01*
X57331Y159599D01*
X61865Y161799D02*
X62265Y162599D01*
X61865Y163399D01*
X62665Y162999D01*
X63464Y163399D01*
X63064Y162599D01*
X63464Y161799D01*
X62665Y162199D01*
X61865Y161799D01*
X93165Y156399D02*
X93565Y157199D01*
X93165Y157999D01*
X93965Y157599D01*
X94765Y157999D01*
X94365Y157199D01*
X94765Y156399D01*
X93965Y156799D01*
X93165Y156399D01*
X96215D02*
X96615Y157199D01*
X96215Y157999D01*
X97015Y157599D01*
X97815Y157999D01*
X97415Y157199D01*
X97815Y156399D01*
X97015Y156799D01*
X96215Y156399D01*
X99265D02*
X99664Y157199D01*
X99265Y157999D01*
X100065Y157599D01*
X100865Y157999D01*
X100464Y157199D01*
X100865Y156399D01*
X100065Y156799D01*
X99265Y156399D01*
X118265D02*
X118665Y157199D01*
X118265Y157999D01*
X119065Y157599D01*
X119865Y157999D01*
X119465Y157199D01*
X119865Y156399D01*
X119065Y156799D01*
X118265Y156399D01*
X120465D02*
X120865Y157199D01*
X120465Y157999D01*
X121265Y157599D01*
X122065Y157999D01*
X121665Y157199D01*
X122065Y156399D01*
X121265Y156799D01*
X120465Y156399D01*
X122665D02*
X123065Y157199D01*
X122665Y157999D01*
X123465Y157599D01*
X124265Y157999D01*
X123865Y157199D01*
X124265Y156399D01*
X123465Y156799D01*
X122665Y156399D01*
X124865D02*
X125265Y157199D01*
X124865Y157999D01*
X125665Y157599D01*
X126465Y157999D01*
X126065Y157199D01*
X126465Y156399D01*
X125665Y156799D01*
X124865Y156399D01*
X127065D02*
X127465Y157199D01*
X127065Y157999D01*
X127865Y157599D01*
X128665Y157999D01*
X128265Y157199D01*
X128665Y156399D01*
X127865Y156799D01*
X127065Y156399D01*
X141900Y158599D02*
X142300Y159399D01*
X141900Y160199D01*
X142700Y159799D01*
X143500Y160199D01*
X143100Y159399D01*
X143500Y158599D01*
X142700Y158999D01*
X141900Y158599D01*
Y156399D02*
X142300Y157199D01*
X141900Y157999D01*
X142700Y157599D01*
X143500Y157999D01*
X143100Y157199D01*
X143500Y156399D01*
X142700Y156799D01*
X141900Y156399D01*
X13265Y153979D02*
Y153579D01*
X14065D01*
Y153979D01*
X14465D01*
Y154779D01*
X14065D01*
Y155179D01*
X13265D01*
Y154779D01*
X12865D01*
Y153979D01*
X13265D01*
Y150719D02*
Y150319D01*
X14065D01*
Y150719D01*
X14465D01*
Y151519D01*
X14065D01*
Y151919D01*
X13265D01*
Y151519D01*
X12865D01*
Y150719D01*
X13265D01*
Y144199D02*
Y143799D01*
X14065D01*
Y144199D01*
X14465D01*
Y144999D01*
X14065D01*
Y145399D01*
X13265D01*
Y144999D01*
X12865D01*
Y144199D01*
X13265D01*
Y147459D02*
Y147059D01*
X14065D01*
Y147459D01*
X14465D01*
Y148259D01*
X14065D01*
Y148659D01*
X13265D01*
Y148259D01*
X12865D01*
Y147459D01*
X13265D01*
X25100Y127100D02*
Y126700D01*
X25900D01*
Y127100D01*
X26300D01*
Y127900D01*
X25900D01*
Y128300D01*
X25100D01*
Y127900D01*
X24700D01*
Y127100D01*
X25100D01*
X59598Y159599D02*
X59998Y160399D01*
X59598Y161199D01*
X60398Y160799D01*
X61198Y161199D01*
X60798Y160399D01*
X61198Y159599D01*
X60398Y159999D01*
X59598Y159599D01*
X200850Y135174D02*
X201250Y135974D01*
X200850Y136774D01*
X201650Y136374D01*
X202450Y136774D01*
X202050Y135974D01*
X202450Y135174D01*
X201650Y135574D01*
X200850Y135174D01*
X107500Y38499D02*
Y38099D01*
X108300D01*
Y38499D01*
X108700D01*
Y39299D01*
X108300D01*
Y39699D01*
X107500D01*
Y39299D01*
X107100D01*
Y38499D01*
X107500D01*
X150065Y2399D02*
Y1999D01*
X150865D01*
Y2399D01*
X151265D01*
Y3199D01*
X150865D01*
Y3599D01*
X150065D01*
Y3199D01*
X149665D01*
Y2399D01*
X150065D01*
X147265D02*
Y1999D01*
X148065D01*
Y2399D01*
X148465D01*
Y3199D01*
X148065D01*
Y3599D01*
X147265D01*
Y3199D01*
X146865D01*
Y2399D01*
X147265D01*
X144465D02*
Y1999D01*
X145265D01*
Y2399D01*
X145665D01*
Y3199D01*
X145265D01*
Y3599D01*
X144465D01*
Y3199D01*
X144065D01*
Y2399D01*
X144465D01*
X141665D02*
Y1999D01*
X142465D01*
Y2399D01*
X142865D01*
Y3199D01*
X142465D01*
Y3599D01*
X141665D01*
Y3199D01*
X141265D01*
Y2399D01*
X141665D01*
X167565Y1999D02*
Y1599D01*
X168365D01*
Y1999D01*
X168765D01*
Y2799D01*
X168365D01*
Y3199D01*
X167565D01*
Y2799D01*
X167165D01*
Y1999D01*
X167565D01*
X170598D02*
Y1599D01*
X171398D01*
Y1999D01*
X171798D01*
Y2799D01*
X171398D01*
Y3199D01*
X170598D01*
Y2799D01*
X170198D01*
Y1999D01*
X170598D01*
X173631D02*
Y1599D01*
X174431D01*
Y1999D01*
X174831D01*
Y2799D01*
X174431D01*
Y3199D01*
X173631D01*
Y2799D01*
X173231D01*
Y1999D01*
X173631D01*
X176665D02*
Y1599D01*
X177465D01*
Y1999D01*
X177865D01*
Y2799D01*
X177465D01*
Y3199D01*
X176665D01*
Y2799D01*
X176265D01*
Y1999D01*
X176665D01*
X193465Y2099D02*
Y1699D01*
X194265D01*
Y2099D01*
X194665D01*
Y2899D01*
X194265D01*
Y3299D01*
X193465D01*
Y2899D01*
X193065D01*
Y2099D01*
X193465D01*
X196774D02*
Y1699D01*
X197574D01*
Y2099D01*
X197974D01*
Y2899D01*
X197574D01*
Y3299D01*
X196774D01*
Y2899D01*
X196374D01*
Y2099D01*
X196774D01*
X200084D02*
Y1699D01*
X200884D01*
Y2099D01*
X201284D01*
Y2899D01*
X200884D01*
Y3299D01*
X200084D01*
Y2899D01*
X199684D01*
Y2099D01*
X200084D01*
X203393D02*
Y1699D01*
X204193D01*
Y2099D01*
X204593D01*
Y2899D01*
X204193D01*
Y3299D01*
X203393D01*
Y2899D01*
X202993D01*
Y2099D01*
X203393D01*
X206703D02*
Y1699D01*
X207503D01*
Y2099D01*
X207903D01*
Y2899D01*
X207503D01*
Y3299D01*
X206703D01*
Y2899D01*
X206303D01*
Y2099D01*
X206703D01*
X210012D02*
Y1699D01*
X210812D01*
Y2099D01*
X211212D01*
Y2899D01*
X210812D01*
Y3299D01*
X210012D01*
Y2899D01*
X209612D01*
Y2099D01*
X210012D01*
X213322D02*
Y1699D01*
X214122D01*
Y2099D01*
X214522D01*
Y2899D01*
X214122D01*
Y3299D01*
X213322D01*
Y2899D01*
X212922D01*
Y2099D01*
X213322D01*
X216631D02*
Y1699D01*
X217431D01*
Y2099D01*
X217831D01*
Y2899D01*
X217431D01*
Y3299D01*
X216631D01*
Y2899D01*
X216231D01*
Y2099D01*
X216631D01*
X219941D02*
Y1699D01*
X220741D01*
Y2099D01*
X221141D01*
Y2899D01*
X220741D01*
Y3299D01*
X219941D01*
Y2899D01*
X219541D01*
Y2099D01*
X219941D01*
X223250D02*
Y1699D01*
X224050D01*
Y2099D01*
X224450D01*
Y2899D01*
X224050D01*
Y3299D01*
X223250D01*
Y2899D01*
X222850D01*
Y2099D01*
X223250D01*
X226560D02*
Y1699D01*
X227360D01*
Y2099D01*
X227760D01*
Y2899D01*
X227360D01*
Y3299D01*
X226560D01*
Y2899D01*
X226160D01*
Y2099D01*
X226560D01*
X229869D02*
Y1699D01*
X230669D01*
Y2099D01*
X231069D01*
Y2899D01*
X230669D01*
Y3299D01*
X229869D01*
Y2899D01*
X229469D01*
Y2099D01*
X229869D01*
X233179D02*
Y1699D01*
X233979D01*
Y2099D01*
X234379D01*
Y2899D01*
X233979D01*
Y3299D01*
X233179D01*
Y2899D01*
X232779D01*
Y2099D01*
X233179D01*
X236488D02*
Y1699D01*
X237288D01*
Y2099D01*
X237688D01*
Y2899D01*
X237288D01*
Y3299D01*
X236488D01*
Y2899D01*
X236088D01*
Y2099D01*
X236488D01*
X239798D02*
Y1699D01*
X240598D01*
Y2099D01*
X240998D01*
Y2899D01*
X240598D01*
Y3299D01*
X239798D01*
Y2899D01*
X239398D01*
Y2099D01*
X239798D01*
X243107D02*
Y1699D01*
X243907D01*
Y2099D01*
X244307D01*
Y2899D01*
X243907D01*
Y3299D01*
X243107D01*
Y2899D01*
X242707D01*
Y2099D01*
X243107D01*
X246417D02*
Y1699D01*
X247217D01*
Y2099D01*
X247617D01*
Y2899D01*
X247217D01*
Y3299D01*
X246417D01*
Y2899D01*
X246017D01*
Y2099D01*
X246417D01*
X249726D02*
Y1699D01*
X250526D01*
Y2099D01*
X250926D01*
Y2899D01*
X250526D01*
Y3299D01*
X249726D01*
Y2899D01*
X249326D01*
Y2099D01*
X249726D01*
X260400Y2699D02*
Y2299D01*
X261200D01*
Y2699D01*
X261600D01*
Y3499D01*
X261200D01*
Y3899D01*
X260400D01*
Y3499D01*
X260000D01*
Y2699D01*
X260400D01*
X256345Y2099D02*
Y1699D01*
X257145D01*
Y2099D01*
X257545D01*
Y2899D01*
X257145D01*
Y3299D01*
X256345D01*
Y2899D01*
X255945D01*
Y2099D01*
X256345D01*
X253036D02*
Y1699D01*
X253836D01*
Y2099D01*
X254236D01*
Y2899D01*
X253836D01*
Y3299D01*
X253036D01*
Y2899D01*
X252636D01*
Y2099D01*
X253036D01*
X5465Y7599D02*
Y7199D01*
X6265D01*
Y7599D01*
X6665D01*
Y8399D01*
X6265D01*
Y8799D01*
X5465D01*
Y8399D01*
X5065D01*
Y7599D01*
X5465D01*
X7665Y5499D02*
Y5099D01*
X8465D01*
Y5499D01*
X8865D01*
Y6299D01*
X8465D01*
Y6699D01*
X7665D01*
Y6299D01*
X7265D01*
Y5499D01*
X7665D01*
X10365Y3699D02*
Y3299D01*
X11165D01*
Y3699D01*
X11565D01*
Y4499D01*
X11165D01*
Y4899D01*
X10365D01*
Y4499D01*
X9965D01*
Y3699D01*
X10365D01*
X337765Y94299D02*
Y93899D01*
X338565D01*
Y94299D01*
X338965D01*
Y95099D01*
X338565D01*
Y95499D01*
X337765D01*
Y95099D01*
X337365D01*
Y94299D01*
X337765D01*
Y91299D02*
Y90899D01*
X338565D01*
Y91299D01*
X338965D01*
Y92099D01*
X338565D01*
Y92499D01*
X337765D01*
Y92099D01*
X337365D01*
Y91299D01*
X337765D01*
Y88299D02*
Y87899D01*
X338565D01*
Y88299D01*
X338965D01*
Y89099D01*
X338565D01*
Y89499D01*
X337765D01*
Y89099D01*
X337365D01*
Y88299D01*
X337765D01*
Y85299D02*
Y84899D01*
X338565D01*
Y85299D01*
X338965D01*
Y86099D01*
X338565D01*
Y86499D01*
X337765D01*
Y86099D01*
X337365D01*
Y85299D01*
X337765D01*
Y82299D02*
Y81899D01*
X338565D01*
Y82299D01*
X338965D01*
Y83099D01*
X338565D01*
Y83499D01*
X337765D01*
Y83099D01*
X337365D01*
Y82299D01*
X337765D01*
X319365Y121399D02*
Y120999D01*
X320165D01*
Y121399D01*
X320565D01*
Y122199D01*
X320165D01*
Y122599D01*
X319365D01*
Y122199D01*
X318965D01*
Y121399D01*
X319365D01*
X319465Y118599D02*
Y118199D01*
X320265D01*
Y118599D01*
X320665D01*
Y119399D01*
X320265D01*
Y119799D01*
X319465D01*
Y119399D01*
X319065D01*
Y118599D01*
X319465D01*
X346665Y158599D02*
Y158199D01*
X347465D01*
Y158599D01*
X347865D01*
Y159399D01*
X347465D01*
Y159799D01*
X346665D01*
Y159399D01*
X346265D01*
Y158599D01*
X346665D01*
X349765Y163999D02*
Y163599D01*
X350565D01*
Y163999D01*
X350965D01*
Y164799D01*
X350565D01*
Y165199D01*
X349765D01*
Y164799D01*
X349365D01*
Y163999D01*
X349765D01*
Y161099D02*
Y160699D01*
X350565D01*
Y161099D01*
X350965D01*
Y161899D01*
X350565D01*
Y162299D01*
X349765D01*
Y161899D01*
X349365D01*
Y161099D01*
X349765D01*
X318735Y185302D02*
Y184902D01*
X319535D01*
Y185302D01*
X319935D01*
Y186102D01*
X319535D01*
Y186502D01*
X318735D01*
Y186102D01*
X318335D01*
Y185302D01*
X318735D01*
X321816D02*
Y184902D01*
X322616D01*
Y185302D01*
X323016D01*
Y186102D01*
X322616D01*
Y186502D01*
X321816D01*
Y186102D01*
X321416D01*
Y185302D01*
X321816D01*
X324897D02*
Y184902D01*
X325697D01*
Y185302D01*
X326097D01*
Y186102D01*
X325697D01*
Y186502D01*
X324897D01*
Y186102D01*
X324497D01*
Y185302D01*
X324897D01*
X346464D02*
Y184902D01*
X347265D01*
Y185302D01*
X347664D01*
Y186102D01*
X347265D01*
Y186502D01*
X346464D01*
Y186102D01*
X346064D01*
Y185302D01*
X346464D01*
X344865Y78199D02*
Y77799D01*
X345665D01*
Y78199D01*
X346065D01*
Y78999D01*
X345665D01*
Y79399D01*
X344865D01*
Y78999D01*
X344465D01*
Y78199D01*
X344865D01*
X348698D02*
Y77799D01*
X349498D01*
Y78199D01*
X349898D01*
Y78999D01*
X349498D01*
Y79399D01*
X348698D01*
Y78999D01*
X348298D01*
Y78199D01*
X348698D01*
X352531D02*
Y77799D01*
X353331D01*
Y78199D01*
X353731D01*
Y78999D01*
X353331D01*
Y79399D01*
X352531D01*
Y78999D01*
X352131D01*
Y78199D01*
X352531D01*
X356365D02*
Y77799D01*
X357165D01*
Y78199D01*
X357565D01*
Y78999D01*
X357165D01*
Y79399D01*
X356365D01*
Y78999D01*
X355965D01*
Y78199D01*
X356365D01*
X356365Y75099D02*
Y74699D01*
X357165D01*
Y75099D01*
X357565D01*
Y75899D01*
X357165D01*
Y76299D01*
X356365D01*
Y75899D01*
X355965D01*
Y75099D01*
X356365D01*
Y71999D02*
Y71599D01*
X357165D01*
Y71999D01*
X357565D01*
Y72799D01*
X357165D01*
Y73199D01*
X356365D01*
Y72799D01*
X355965D01*
Y71999D01*
X356365D01*
X204365Y25799D02*
X204765Y26599D01*
X204365Y27399D01*
X205165Y26999D01*
X205965Y27399D01*
X205565Y26599D01*
X205965Y25799D01*
X205165Y26199D01*
X204365Y25799D01*
X193365Y24299D02*
X193765Y25099D01*
X193365Y25899D01*
X194165Y25499D01*
X194965Y25899D01*
X194565Y25099D01*
X194965Y24299D01*
X194165Y24699D01*
X193365Y24299D01*
X215365Y21899D02*
X215765Y22699D01*
X215365Y23499D01*
X216165Y23099D01*
X216965Y23499D01*
X216565Y22699D01*
X216965Y21899D01*
X216165Y22299D01*
X215365Y21899D01*
X217565D02*
X217965Y22699D01*
X217565Y23499D01*
X218365Y23099D01*
X219165Y23499D01*
X218765Y22699D01*
X219165Y21899D01*
X218365Y22299D01*
X217565Y21899D01*
X222965Y20999D02*
X223365Y21799D01*
X222965Y22599D01*
X223765Y22199D01*
X224565Y22599D01*
X224165Y21799D01*
X224565Y20999D01*
X223765Y21399D01*
X222965Y20999D01*
Y18799D02*
X223365Y19599D01*
X222965Y20399D01*
X223765Y19999D01*
X224565Y20399D01*
X224165Y19599D01*
X224565Y18799D01*
X223765Y19199D01*
X222965Y18799D01*
X204465Y7099D02*
X204865Y7899D01*
X204465Y8699D01*
X205265Y8299D01*
X206065Y8699D01*
X205665Y7899D01*
X206065Y7099D01*
X205265Y7499D01*
X204465Y7099D01*
X206698D02*
X207098Y7899D01*
X206698Y8699D01*
X207498Y8299D01*
X208298Y8699D01*
X207898Y7899D01*
X208298Y7099D01*
X207498Y7499D01*
X206698Y7099D01*
X208931D02*
X209331Y7899D01*
X208931Y8699D01*
X209731Y8299D01*
X210531Y8699D01*
X210131Y7899D01*
X210531Y7099D01*
X209731Y7499D01*
X208931Y7099D01*
X211165D02*
X211565Y7899D01*
X211165Y8699D01*
X211965Y8299D01*
X212765Y8699D01*
X212365Y7899D01*
X212765Y7099D01*
X211965Y7499D01*
X211165Y7099D01*
X179065Y26599D02*
X179465Y27399D01*
X179065Y28199D01*
X179865Y27799D01*
X180665Y28199D01*
X180265Y27399D01*
X180665Y26599D01*
X179865Y26999D01*
X179065Y26599D01*
Y24399D02*
X179465Y25199D01*
X179065Y25999D01*
X179865Y25599D01*
X180665Y25999D01*
X180265Y25199D01*
X180665Y24399D01*
X179865Y24799D01*
X179065Y24399D01*
X157000Y23500D02*
X157400Y24300D01*
X157000Y25100D01*
X157800Y24700D01*
X158600Y25100D01*
X158200Y24300D01*
X158600Y23500D01*
X157800Y23900D01*
X157000Y23500D01*
X39590Y55899D02*
X39990Y56699D01*
X39590Y57499D01*
X40390Y57099D01*
X41190Y57499D01*
X40790Y56699D01*
X41190Y55899D01*
X40390Y56299D01*
X39590Y55899D01*
X42265D02*
X42665Y56699D01*
X42265Y57499D01*
X43065Y57099D01*
X43865Y57499D01*
X43465Y56699D01*
X43865Y55899D01*
X43065Y56299D01*
X42265Y55899D01*
X36915D02*
X37315Y56699D01*
X36915Y57499D01*
X37715Y57099D01*
X38515Y57499D01*
X38115Y56699D01*
X38515Y55899D01*
X37715Y56299D01*
X36915Y55899D01*
X34240D02*
X34640Y56699D01*
X34240Y57499D01*
X35040Y57099D01*
X35840Y57499D01*
X35440Y56699D01*
X35840Y55899D01*
X35040Y56299D01*
X34240Y55899D01*
X36800Y53599D02*
X37200Y54399D01*
X36800Y55199D01*
X37600Y54799D01*
X38400Y55199D01*
X38000Y54399D01*
X38400Y53599D01*
X37600Y53999D01*
X36800Y53599D01*
X254100Y114499D02*
X254500Y115299D01*
X254100Y116099D01*
X254900Y115699D01*
X255700Y116099D01*
X255300Y115299D01*
X255700Y114499D01*
X254900Y114899D01*
X254100Y114499D01*
X256000D02*
X256400Y115299D01*
X256000Y116099D01*
X256800Y115699D01*
X257600Y116099D01*
X257200Y115299D01*
X257600Y114499D01*
X256800Y114899D01*
X256000Y114499D01*
X171400Y145699D02*
X171800Y146499D01*
X171400Y147299D01*
X172200Y146899D01*
X173000Y147299D01*
X172600Y146499D01*
X173000Y145699D01*
X172200Y146099D01*
X171400Y145699D01*
X192200Y132459D02*
X192600Y133259D01*
X192200Y134059D01*
X193000Y133659D01*
X193800Y134059D01*
X193400Y133259D01*
X193800Y132459D01*
X193000Y132859D01*
X192200Y132459D01*
X254600Y121699D02*
X255000Y122499D01*
X254600Y123299D01*
X255400Y122899D01*
X256200Y123299D01*
X255800Y122499D01*
X256200Y121699D01*
X255400Y122099D01*
X254600Y121699D01*
X251000Y135399D02*
X251400Y136199D01*
X251000Y136999D01*
X251800Y136599D01*
X252600Y136999D01*
X252200Y136199D01*
X252600Y135399D01*
X251800Y135799D01*
X251000Y135399D01*
X129000Y50132D02*
X129800Y50932D01*
X130600Y50132D01*
X129800Y49332D01*
X129000Y50132D01*
X126550Y52991D02*
X127350Y53791D01*
X128150Y52991D01*
X127350Y52191D01*
X126550Y52991D01*
X234200Y166999D02*
X234600D01*
X235000Y167399D01*
X235400Y166999D01*
X235800D01*
Y167399D01*
X235400Y167799D01*
X235800Y168199D01*
Y168599D01*
X235400D01*
X235000Y168199D01*
X234600Y168599D01*
X234200D01*
Y168199D01*
X234600Y167799D01*
X234200Y167399D01*
Y166999D01*
X141148Y162000D02*
Y161600D01*
X141948D01*
Y162000D01*
X142348D01*
Y162800D01*
X141948D01*
Y163200D01*
X141148D01*
Y162800D01*
X140748D01*
Y162000D01*
X141148D01*
X256800Y112699D02*
X257200Y113499D01*
X256800Y114299D01*
X257600Y113899D01*
X258400Y114299D01*
X258000Y113499D01*
X258400Y112699D01*
X257600Y113099D01*
X256800Y112699D01*
X255100D02*
X255500Y113499D01*
X255100Y114299D01*
X255900Y113899D01*
X256700Y114299D01*
X256300Y113499D01*
X256700Y112699D01*
X255900Y113099D01*
X255100Y112699D01*
X253400D02*
X253800Y113499D01*
X253400Y114299D01*
X254200Y113899D01*
X255000Y114299D01*
X254600Y113499D01*
X255000Y112699D01*
X254200Y113099D01*
X253400Y112699D01*
X281088Y8900D02*
X281888Y9700D01*
X282688Y8900D01*
X281888Y8100D01*
X281088Y8900D01*
X31700Y9999D02*
Y9599D01*
X32500D01*
Y9999D01*
X32900D01*
Y10799D01*
X32500D01*
Y11199D01*
X31700D01*
Y10799D01*
X31300D01*
Y9999D01*
X31700D01*
X28000D02*
Y9599D01*
X28800D01*
Y9999D01*
X29200D01*
Y10799D01*
X28800D01*
Y11199D01*
X28000D01*
Y10799D01*
X27600D01*
Y9999D01*
X28000D01*
X55800Y174299D02*
X56200Y175099D01*
X55800Y175899D01*
X56600Y175499D01*
X57400Y175899D01*
X57000Y175099D01*
X57400Y174299D01*
X56600Y174699D01*
X55800Y174299D01*
Y178799D02*
X56200Y179599D01*
X55800Y180399D01*
X56600Y179999D01*
X57400Y180399D01*
X57000Y179599D01*
X57400Y178799D01*
X56600Y179199D01*
X55800Y178799D01*
X320048Y17800D02*
X320448D01*
X320848Y18200D01*
X321248Y17800D01*
X321648D01*
Y18200D01*
X321248Y18600D01*
X321648Y19000D01*
Y19400D01*
X321248D01*
X320848Y19000D01*
X320448Y19400D01*
X320048D01*
Y19000D01*
X320448Y18600D01*
X320048Y18200D01*
Y17800D01*
X306862Y46000D02*
X306062Y47600D01*
X307662D01*
X306862Y46000D01*
Y46400D02*
X306462Y47200D01*
X307262D01*
X306862Y46400D01*
X311193Y46000D02*
X310393Y47600D01*
X311993D01*
X311193Y46000D01*
Y46400D02*
X310793Y47200D01*
X311593D01*
X311193Y46400D01*
X315524Y46000D02*
X314724Y47600D01*
X316324D01*
X315524Y46000D01*
Y46400D02*
X315124Y47200D01*
X315924D01*
X315524Y46400D01*
X306862Y50331D02*
X306062Y51931D01*
X307662D01*
X306862Y50331D01*
Y50731D02*
X306462Y51531D01*
X307262D01*
X306862Y50731D01*
X311193Y50331D02*
X310393Y51931D01*
X311993D01*
X311193Y50331D01*
Y50731D02*
X310793Y51531D01*
X311593D01*
X311193Y50731D01*
X315524Y50331D02*
X314724Y51931D01*
X316324D01*
X315524Y50331D01*
Y50731D02*
X315124Y51531D01*
X315924D01*
X315524Y50731D01*
X306862Y54661D02*
X306062Y56261D01*
X307662D01*
X306862Y54661D01*
Y55061D02*
X306462Y55861D01*
X307262D01*
X306862Y55061D01*
X311193Y54661D02*
X310393Y56261D01*
X311993D01*
X311193Y54661D01*
Y55061D02*
X310793Y55861D01*
X311593D01*
X311193Y55061D01*
X315524Y54661D02*
X314724Y56261D01*
X316324D01*
X315524Y54661D01*
Y55061D02*
X315124Y55861D01*
X315924D01*
X315524Y55061D01*
X323195Y99900D02*
Y99500D01*
X323994D01*
Y99900D01*
X324394D01*
Y100700D01*
X323994D01*
Y101100D01*
X323195D01*
Y100700D01*
X322795D01*
Y99900D01*
X323195D01*
X326195D02*
Y99500D01*
X326994D01*
Y99900D01*
X327395D01*
Y100700D01*
X326994D01*
Y101100D01*
X326195D01*
Y100700D01*
X325795D01*
Y99900D01*
X326195D01*
X329194D02*
Y99500D01*
X329995D01*
Y99900D01*
X330395D01*
Y100700D01*
X329995D01*
Y101100D01*
X329194D01*
Y100700D01*
X328795D01*
Y99900D01*
X329194D01*
X319394Y142600D02*
X319795Y143400D01*
X319394Y144200D01*
X320195Y143800D01*
X320994Y144200D01*
X320595Y143400D01*
X320994Y142600D01*
X320195Y143000D01*
X319394Y142600D01*
X319295Y145100D02*
X319694Y145900D01*
X319295Y146700D01*
X320094Y146300D01*
X320895Y146700D01*
X320495Y145900D01*
X320895Y145100D01*
X320094Y145500D01*
X319295Y145100D01*
X319195Y148000D02*
X319595Y148800D01*
X319195Y149600D01*
X319994Y149200D01*
X320795Y149600D01*
X320394Y148800D01*
X320795Y148000D01*
X319994Y148400D01*
X319195Y148000D01*
D240*
X55128Y16015D02*
G03*
X55128Y16015I-800J0D01*
G01*
X45879Y19382D02*
G03*
X45879Y19382I-800J0D01*
G01*
X36630Y22748D02*
G03*
X36630Y22748I-800J0D01*
G01*
X162230Y106483D02*
G03*
X162230Y106483I-800J0D01*
G01*
X108993Y79831D02*
G03*
X108993Y79831I-800J0D01*
G01*
X128330Y90083D02*
G03*
X128330Y90083I-800J0D01*
G01*
X112352Y95183D02*
G03*
X112352Y95183I-800J0D01*
G01*
X132030D02*
G03*
X132030Y95183I-800J0D01*
G01*
X143030D02*
G03*
X143030Y95183I-800J0D01*
G01*
X161406Y134138D02*
G03*
X161406Y134138I-800J0D01*
G01*
X160535Y142618D02*
G03*
X160535Y142618I-800J0D01*
G01*
X108993Y65831D02*
G03*
X108993Y65831I-800J0D01*
G01*
X173493Y80583D02*
G03*
X173493Y80583I-800J0D01*
G01*
X171493Y82083D02*
G03*
X171493Y82083I-800J0D01*
G01*
D241*
X161830Y106483D02*
G03*
X161830Y106483I-400J0D01*
G01*
X108593Y79831D02*
G03*
X108593Y79831I-400J0D01*
G01*
X127930Y90083D02*
G03*
X127930Y90083I-400J0D01*
G01*
X111952Y95183D02*
G03*
X111952Y95183I-400J0D01*
G01*
X131630D02*
G03*
X131630Y95183I-400J0D01*
G01*
X142630D02*
G03*
X142630Y95183I-400J0D01*
G01*
X161006Y134138D02*
G03*
X161006Y134138I-400J0D01*
G01*
X160135Y142618D02*
G03*
X160135Y142618I-400J0D01*
G01*
X108593Y65831D02*
G03*
X108593Y65831I-400J0D01*
G01*
X173093Y80583D02*
G03*
X173093Y80583I-400J0D01*
G01*
X171093Y82083D02*
G03*
X171093Y82083I-400J0D01*
G01*
M02*
