G04 Layer_Color=32896*
%FSLAX25Y25*%
%MOIN*%
G70*
G01*
G75*
%ADD11C,0.00500*%
%ADD12C,0.00600*%
%ADD13C,0.01000*%
%ADD18C,0.00787*%
%ADD142C,0.00984*%
%ADD143C,0.00984*%
%ADD144C,0.00394*%
%ADD147C,0.00400*%
%ADD148C,0.00787*%
%ADD149C,0.00402*%
%ADD237C,0.00100*%
%ADD238C,0.00591*%
G36*
X94860Y74824D02*
X94907Y74813D01*
X94954Y74799D01*
X94996Y74782D01*
X95035Y74760D01*
X95071Y74738D01*
X95104Y74713D01*
X95135Y74691D01*
X95159Y74666D01*
X95182Y74643D01*
X95201Y74621D01*
X95218Y74602D01*
X95229Y74585D01*
X95237Y74574D01*
X95243Y74566D01*
X95245Y74563D01*
Y74796D01*
X95470D01*
Y73522D01*
X95245D01*
Y74281D01*
X95234Y74342D01*
X95218Y74394D01*
X95195Y74441D01*
X95170Y74483D01*
X95143Y74519D01*
X95112Y74549D01*
X95082Y74574D01*
X95049Y74594D01*
X95018Y74610D01*
X94988Y74624D01*
X94960Y74632D01*
X94935Y74641D01*
X94916Y74643D01*
X94899Y74646D01*
X94888Y74649D01*
X94885D01*
X94830Y74646D01*
X94780Y74635D01*
X94738Y74619D01*
X94705Y74596D01*
X94675Y74569D01*
X94650Y74538D01*
X94628Y74505D01*
X94614Y74472D01*
X94600Y74439D01*
X94592Y74405D01*
X94586Y74375D01*
X94581Y74347D01*
X94578Y74322D01*
Y74306D01*
Y74295D01*
Y74289D01*
Y73522D01*
X94356D01*
Y74325D01*
Y74372D01*
X94359Y74416D01*
X94364Y74455D01*
X94373Y74494D01*
X94395Y74563D01*
X94423Y74621D01*
X94456Y74668D01*
X94495Y74710D01*
X94536Y74743D01*
X94578Y74768D01*
X94619Y74790D01*
X94661Y74804D01*
X94700Y74815D01*
X94736Y74824D01*
X94766Y74826D01*
X94788Y74829D01*
X94808D01*
X94860Y74824D01*
D02*
G37*
G36*
X90675D02*
X90714Y74815D01*
X90750Y74801D01*
X90780Y74782D01*
X90811Y74763D01*
X90835Y74738D01*
X90860Y74716D01*
X90882Y74688D01*
X90916Y74641D01*
X90930Y74616D01*
X90938Y74596D01*
X90946Y74580D01*
X90952Y74566D01*
X90957Y74558D01*
Y74555D01*
X90968Y74563D01*
Y74796D01*
X91190D01*
Y73522D01*
X90968D01*
Y74195D01*
X90963Y74267D01*
X90952Y74328D01*
X90935Y74383D01*
X90916Y74430D01*
X90894Y74472D01*
X90869Y74505D01*
X90841Y74533D01*
X90813Y74558D01*
X90786Y74574D01*
X90758Y74588D01*
X90733Y74599D01*
X90711Y74607D01*
X90694Y74613D01*
X90677D01*
X90669Y74616D01*
X90667D01*
X90625Y74613D01*
X90589Y74607D01*
X90558Y74599D01*
X90531Y74591D01*
X90511Y74580D01*
X90497Y74572D01*
X90489Y74566D01*
X90486Y74563D01*
X90400Y74760D01*
X90437Y74782D01*
X90475Y74799D01*
X90514Y74813D01*
X90553Y74821D01*
X90583Y74826D01*
X90611Y74829D01*
X90633D01*
X90675Y74824D01*
D02*
G37*
G36*
X90162Y73522D02*
X89913D01*
Y73785D01*
X90162D01*
Y73522D01*
D02*
G37*
G36*
X85728Y74826D02*
X85777Y74818D01*
X85825Y74807D01*
X85872Y74793D01*
X85913Y74777D01*
X85952Y74757D01*
X86021Y74713D01*
X86082Y74660D01*
X86132Y74602D01*
X86176Y74541D01*
X86209Y74477D01*
X86237Y74416D01*
X86257Y74355D01*
X86273Y74300D01*
X86284Y74247D01*
X86293Y74206D01*
Y74189D01*
X86295Y74173D01*
X86298Y74161D01*
Y74153D01*
Y74148D01*
Y74145D01*
X86293Y74089D01*
X86287Y74034D01*
X86276Y73984D01*
X86262Y73937D01*
X86246Y73896D01*
X86226Y73854D01*
X86207Y73815D01*
X86185Y73782D01*
X86135Y73718D01*
X86079Y73666D01*
X86021Y73621D01*
X85960Y73588D01*
X85902Y73561D01*
X85844Y73538D01*
X85791Y73522D01*
X85741Y73511D01*
X85703Y73502D01*
X85686Y73500D01*
X85672D01*
X85661Y73497D01*
X85645D01*
X85561Y73502D01*
X85484Y73513D01*
X85414Y73533D01*
X85351Y73558D01*
X85298Y73585D01*
X85248Y73619D01*
X85207Y73652D01*
X85168Y73688D01*
X85137Y73724D01*
X85110Y73757D01*
X85091Y73790D01*
X85074Y73818D01*
X85060Y73843D01*
X85052Y73862D01*
X85049Y73874D01*
X85046Y73879D01*
X85284Y73921D01*
X85301Y73876D01*
X85320Y73840D01*
X85345Y73807D01*
X85370Y73779D01*
X85401Y73754D01*
X85431Y73735D01*
X85464Y73718D01*
X85495Y73704D01*
X85528Y73693D01*
X85556Y73688D01*
X85584Y73682D01*
X85609Y73677D01*
X85628D01*
X85642Y73674D01*
X85655D01*
X85725Y73682D01*
X85783Y73696D01*
X85836Y73718D01*
X85880Y73746D01*
X85919Y73779D01*
X85952Y73813D01*
X85980Y73851D01*
X86002Y73890D01*
X86018Y73929D01*
X86032Y73965D01*
X86041Y73998D01*
X86049Y74029D01*
X86052Y74056D01*
X86054Y74076D01*
X86057Y74087D01*
Y74092D01*
X85046D01*
Y74109D01*
Y74125D01*
Y74139D01*
Y74142D01*
Y74145D01*
X85049Y74206D01*
X85054Y74264D01*
X85063Y74317D01*
X85077Y74369D01*
X85091Y74416D01*
X85107Y74458D01*
X85127Y74499D01*
X85149Y74538D01*
X85171Y74572D01*
X85196Y74602D01*
X85248Y74657D01*
X85304Y74704D01*
X85362Y74740D01*
X85420Y74768D01*
X85475Y74790D01*
X85528Y74807D01*
X85575Y74818D01*
X85614Y74824D01*
X85645Y74826D01*
X85655Y74829D01*
X85672D01*
X85728Y74826D01*
D02*
G37*
G36*
X83381Y75189D02*
Y74796D01*
X83586D01*
Y74624D01*
X83381D01*
Y73818D01*
X83379Y73760D01*
X83370Y73710D01*
X83356Y73666D01*
X83337Y73627D01*
X83315Y73597D01*
X83290Y73571D01*
X83262Y73549D01*
X83235Y73533D01*
X83207Y73519D01*
X83179Y73511D01*
X83154Y73505D01*
X83129Y73500D01*
X83110Y73497D01*
X83082D01*
X83030Y73500D01*
X82982Y73505D01*
X82941Y73516D01*
X82908Y73527D01*
X82880Y73536D01*
X82858Y73547D01*
X82847Y73552D01*
X82841Y73555D01*
X82894Y73699D01*
X82930Y73682D01*
X82966Y73674D01*
X82980Y73668D01*
X82994D01*
X83002Y73666D01*
X83032D01*
X83057Y73671D01*
X83079Y73680D01*
X83099Y73693D01*
X83113Y73707D01*
X83126Y73724D01*
X83143Y73760D01*
X83154Y73799D01*
X83160Y73832D01*
Y73843D01*
Y73854D01*
Y73860D01*
Y73862D01*
Y74624D01*
X82875D01*
Y74796D01*
X83160D01*
Y75258D01*
X83381Y75189D01*
D02*
G37*
G36*
X98650Y73522D02*
X97979D01*
X97902Y73527D01*
X97833Y73538D01*
X97766Y73552D01*
X97705Y73571D01*
X97647Y73594D01*
X97594Y73621D01*
X97547Y73649D01*
X97503Y73682D01*
X97461Y73716D01*
X97425Y73754D01*
X97389Y73793D01*
X97362Y73832D01*
X97334Y73874D01*
X97309Y73915D01*
X97287Y73957D01*
X97251Y74042D01*
X97226Y74123D01*
X97206Y74200D01*
X97195Y74270D01*
X97193Y74300D01*
X97190Y74328D01*
X97187Y74350D01*
X97184Y74372D01*
Y74389D01*
Y74400D01*
Y74408D01*
Y74411D01*
X97187Y74488D01*
X97198Y74560D01*
X97209Y74627D01*
X97229Y74691D01*
X97248Y74752D01*
X97273Y74804D01*
X97301Y74857D01*
X97328Y74904D01*
X97362Y74948D01*
X97395Y74987D01*
X97431Y75023D01*
X97470Y75056D01*
X97508Y75087D01*
X97547Y75114D01*
X97589Y75139D01*
X97630Y75161D01*
X97711Y75197D01*
X97788Y75225D01*
X97860Y75245D01*
X97927Y75258D01*
X97954Y75264D01*
X97979Y75267D01*
X98004Y75270D01*
X98024Y75272D01*
X98037Y75275D01*
X98650D01*
Y73522D01*
D02*
G37*
G36*
X81761D02*
X81528D01*
Y74796D01*
X81761D01*
Y73522D01*
D02*
G37*
G36*
X302806Y82186D02*
X303091D01*
X303124Y82033D01*
X302842D01*
X302928Y81604D01*
X303210D01*
X303244Y81449D01*
X302961D01*
X303072Y80931D01*
X302911D01*
X302798Y81449D01*
X302499D01*
X302609Y80931D01*
X302446D01*
X302335Y81449D01*
X302061D01*
X302028Y81604D01*
X302302D01*
X302208Y82033D01*
X301942D01*
X301908Y82186D01*
X302183D01*
X302069Y82684D01*
X302233D01*
X302343Y82186D01*
X302645D01*
X302543Y82684D01*
X302703D01*
X302806Y82186D01*
D02*
G37*
G36*
X304651Y81432D02*
Y81277D01*
X303812D01*
Y80948D01*
X303604D01*
Y81277D01*
X303329D01*
Y81477D01*
X303604D01*
Y82701D01*
X303759D01*
X304651Y81432D01*
D02*
G37*
G36*
X88387Y73522D02*
X87060D01*
Y73716D01*
X88148D01*
Y74333D01*
X87154D01*
Y74522D01*
X88148D01*
Y75078D01*
X87093D01*
Y75275D01*
X88387Y75283D01*
Y73522D01*
D02*
G37*
G36*
X86769D02*
X86536D01*
Y75319D01*
X86769D01*
Y73522D01*
D02*
G37*
G36*
X82179Y74824D02*
X82218Y74815D01*
X82254Y74801D01*
X82284Y74782D01*
X82315Y74763D01*
X82340Y74738D01*
X82365Y74716D01*
X82387Y74688D01*
X82420Y74641D01*
X82434Y74616D01*
X82442Y74596D01*
X82451Y74580D01*
X82456Y74566D01*
X82462Y74558D01*
Y74555D01*
X82473Y74563D01*
Y74796D01*
X82694D01*
Y73522D01*
X82473D01*
Y74195D01*
X82467Y74267D01*
X82456Y74328D01*
X82440Y74383D01*
X82420Y74430D01*
X82398Y74472D01*
X82373Y74505D01*
X82345Y74533D01*
X82318Y74558D01*
X82290Y74574D01*
X82262Y74588D01*
X82237Y74599D01*
X82215Y74607D01*
X82199Y74613D01*
X82182D01*
X82174Y74616D01*
X82171D01*
X82129Y74613D01*
X82093Y74607D01*
X82063Y74599D01*
X82035Y74591D01*
X82016Y74580D01*
X82002Y74572D01*
X81994Y74566D01*
X81991Y74563D01*
X81905Y74760D01*
X81941Y74782D01*
X81980Y74799D01*
X82019Y74813D01*
X82057Y74821D01*
X82088Y74826D01*
X82116Y74829D01*
X82138D01*
X82179Y74824D01*
D02*
G37*
G36*
X96417Y74826D02*
X96497Y74815D01*
X96567Y74799D01*
X96630Y74777D01*
X96686Y74749D01*
X96733Y74716D01*
X96774Y74682D01*
X96810Y74649D01*
X96838Y74613D01*
X96863Y74580D01*
X96882Y74547D01*
X96896Y74519D01*
X96907Y74497D01*
X96913Y74477D01*
X96918Y74466D01*
Y74461D01*
X96705Y74419D01*
X96691Y74461D01*
X96672Y74497D01*
X96650Y74530D01*
X96622Y74558D01*
X96592Y74580D01*
X96561Y74599D01*
X96531Y74616D01*
X96497Y74627D01*
X96467Y74638D01*
X96436Y74643D01*
X96409Y74649D01*
X96386Y74655D01*
X96364D01*
X96351Y74657D01*
X96276D01*
X96220Y74652D01*
X96176Y74638D01*
X96137Y74624D01*
X96104Y74602D01*
X96079Y74580D01*
X96057Y74555D01*
X96040Y74530D01*
X96029Y74505D01*
X96021Y74480D01*
X96015Y74458D01*
X96013Y74436D01*
X96010Y74416D01*
Y74402D01*
Y74394D01*
Y74391D01*
X96026Y74378D01*
X96051Y74364D01*
X96079Y74350D01*
X96115Y74339D01*
X96154Y74328D01*
X96195Y74317D01*
X96279Y74295D01*
X96320Y74286D01*
X96362Y74278D01*
X96398Y74272D01*
X96431Y74267D01*
X96459Y74261D01*
X96478Y74259D01*
X96492Y74256D01*
X96497D01*
X96578Y74242D01*
X96647Y74222D01*
X96708Y74200D01*
X96760Y74170D01*
X96805Y74139D01*
X96844Y74103D01*
X96874Y74070D01*
X96899Y74034D01*
X96918Y73998D01*
X96932Y73965D01*
X96943Y73934D01*
X96952Y73907D01*
X96957Y73884D01*
X96960Y73868D01*
Y73854D01*
Y73851D01*
X96952Y73790D01*
X96938Y73741D01*
X96916Y73693D01*
X96888Y73655D01*
X96857Y73619D01*
X96824Y73591D01*
X96785Y73566D01*
X96749Y73547D01*
X96711Y73533D01*
X96675Y73519D01*
X96641Y73511D01*
X96611Y73505D01*
X96586Y73500D01*
X96567D01*
X96556Y73497D01*
X96550D01*
X96478Y73502D01*
X96412Y73511D01*
X96351Y73524D01*
X96295Y73541D01*
X96245Y73561D01*
X96201Y73583D01*
X96159Y73607D01*
X96126Y73630D01*
X96096Y73655D01*
X96068Y73677D01*
X96049Y73699D01*
X96032Y73718D01*
X96018Y73735D01*
X96010Y73746D01*
X96004Y73754D01*
X96001Y73757D01*
X95999Y73702D01*
X95990Y73655D01*
X95979Y73613D01*
X95965Y73580D01*
X95954Y73555D01*
X95943Y73536D01*
X95935Y73524D01*
X95932Y73522D01*
X95719D01*
X95741Y73571D01*
X95758Y73619D01*
X95772Y73666D01*
X95780Y73710D01*
X95785Y73746D01*
X95788Y73777D01*
Y73788D01*
Y73796D01*
Y73799D01*
Y73801D01*
Y73909D01*
Y74012D01*
Y74059D01*
Y74103D01*
Y74145D01*
Y74184D01*
Y74220D01*
Y74250D01*
Y74278D01*
Y74300D01*
Y74317D01*
Y74331D01*
Y74339D01*
Y74342D01*
Y74389D01*
X95791Y74430D01*
X95794Y74472D01*
X95802Y74511D01*
X95827Y74577D01*
X95860Y74635D01*
X95902Y74682D01*
X95946Y74721D01*
X95996Y74752D01*
X96049Y74777D01*
X96098Y74796D01*
X96151Y74810D01*
X96198Y74818D01*
X96240Y74826D01*
X96276Y74829D01*
X96328D01*
X96417Y74826D01*
D02*
G37*
G36*
X90135Y74023D02*
X89946D01*
X89905Y75283D01*
X90171D01*
X90135Y74023D01*
D02*
G37*
G36*
X81761Y75045D02*
X81528D01*
Y75292D01*
X81761D01*
Y75045D01*
D02*
G37*
G36*
X93608Y74826D02*
X93652Y74818D01*
X93697Y74807D01*
X93736Y74796D01*
X93810Y74763D01*
X93871Y74718D01*
X93927Y74671D01*
X93971Y74619D01*
X94007Y74560D01*
X94038Y74502D01*
X94063Y74444D01*
X94082Y74389D01*
X94093Y74336D01*
X94104Y74292D01*
X94110Y74250D01*
X94112Y74222D01*
X94115Y74209D01*
Y74203D01*
Y74198D01*
Y74195D01*
X94112Y74139D01*
X94107Y74089D01*
X94101Y74040D01*
X94090Y73995D01*
X94076Y73954D01*
X94063Y73912D01*
X94046Y73876D01*
X94029Y73843D01*
X93988Y73782D01*
X93943Y73732D01*
X93896Y73691D01*
X93846Y73657D01*
X93797Y73630D01*
X93749Y73610D01*
X93705Y73594D01*
X93666Y73585D01*
X93630Y73577D01*
X93605Y73574D01*
X93589Y73571D01*
X93583D01*
X93525Y73574D01*
X93470Y73583D01*
X93423Y73594D01*
X93375Y73607D01*
X93337Y73624D01*
X93301Y73644D01*
X93270Y73666D01*
X93243Y73688D01*
X93218Y73707D01*
X93198Y73729D01*
X93182Y73749D01*
X93168Y73765D01*
X93157Y73779D01*
X93151Y73790D01*
X93146Y73799D01*
Y73633D01*
X93148Y73561D01*
X93160Y73497D01*
X93176Y73444D01*
X93201Y73397D01*
X93229Y73358D01*
X93262Y73325D01*
X93295Y73300D01*
X93331Y73278D01*
X93367Y73261D01*
X93401Y73250D01*
X93434Y73242D01*
X93461Y73236D01*
X93486Y73234D01*
X93506Y73231D01*
X93522D01*
X93567Y73234D01*
X93605Y73239D01*
X93644Y73247D01*
X93678Y73259D01*
X93708Y73272D01*
X93736Y73286D01*
X93763Y73300D01*
X93786Y73314D01*
X93805Y73328D01*
X93822Y73342D01*
X93846Y73366D01*
X93860Y73386D01*
X93866Y73389D01*
Y73391D01*
X94071Y73358D01*
X94046Y73308D01*
X94015Y73261D01*
X93982Y73223D01*
X93943Y73189D01*
X93899Y73159D01*
X93858Y73137D01*
X93810Y73115D01*
X93766Y73101D01*
X93725Y73087D01*
X93683Y73079D01*
X93647Y73070D01*
X93614Y73065D01*
X93586Y73062D01*
X93564Y73059D01*
X93486D01*
X93431Y73062D01*
X93378Y73067D01*
X93328Y73076D01*
X93284Y73089D01*
X93240Y73106D01*
X93201Y73126D01*
X93168Y73148D01*
X93134Y73170D01*
X93104Y73195D01*
X93079Y73223D01*
X93054Y73250D01*
X93013Y73311D01*
X92982Y73375D01*
X92957Y73436D01*
X92941Y73500D01*
X92927Y73555D01*
X92921Y73607D01*
X92916Y73652D01*
Y73671D01*
Y73685D01*
Y73699D01*
Y73707D01*
Y73713D01*
Y73716D01*
Y74796D01*
X93146D01*
Y74607D01*
X93168Y74646D01*
X93195Y74679D01*
X93226Y74707D01*
X93256Y74732D01*
X93290Y74754D01*
X93326Y74771D01*
X93359Y74788D01*
X93392Y74799D01*
X93456Y74815D01*
X93484Y74821D01*
X93508Y74824D01*
X93531Y74826D01*
X93545Y74829D01*
X93558D01*
X93608Y74826D01*
D02*
G37*
G36*
X84293D02*
X84345Y74818D01*
X84392Y74807D01*
X84437Y74793D01*
X84478Y74777D01*
X84517Y74757D01*
X84586Y74716D01*
X84645Y74663D01*
X84694Y74607D01*
X84736Y74547D01*
X84769Y74486D01*
X84794Y74425D01*
X84816Y74366D01*
X84830Y74311D01*
X84841Y74261D01*
X84850Y74222D01*
X84852Y74203D01*
Y74189D01*
X84855Y74178D01*
Y74170D01*
Y74164D01*
Y74161D01*
X84852Y74103D01*
X84844Y74048D01*
X84836Y73995D01*
X84825Y73948D01*
X84808Y73901D01*
X84791Y73860D01*
X84772Y73821D01*
X84753Y73785D01*
X84730Y73752D01*
X84705Y73721D01*
X84653Y73666D01*
X84597Y73621D01*
X84542Y73585D01*
X84484Y73558D01*
X84431Y73536D01*
X84379Y73522D01*
X84334Y73511D01*
X84295Y73502D01*
X84265Y73500D01*
X84254Y73497D01*
X84196D01*
X84151Y73500D01*
X84071Y73511D01*
X83999Y73533D01*
X83938Y73561D01*
X83883Y73594D01*
X83833Y73633D01*
X83791Y73677D01*
X83755Y73718D01*
X83728Y73763D01*
X83703Y73807D01*
X83683Y73846D01*
X83669Y73882D01*
X83658Y73912D01*
X83653Y73937D01*
X83647Y73951D01*
Y73957D01*
X83888Y73990D01*
X83897Y73937D01*
X83913Y73890D01*
X83933Y73851D01*
X83955Y73815D01*
X83982Y73785D01*
X84010Y73760D01*
X84041Y73741D01*
X84071Y73724D01*
X84102Y73710D01*
X84132Y73702D01*
X84160Y73693D01*
X84182Y73688D01*
X84204Y73685D01*
X84218Y73682D01*
X84232D01*
X84298Y73688D01*
X84356Y73704D01*
X84406Y73729D01*
X84451Y73760D01*
X84487Y73796D01*
X84520Y73838D01*
X84545Y73882D01*
X84564Y73926D01*
X84581Y73970D01*
X84595Y74012D01*
X84603Y74054D01*
X84609Y74087D01*
X84614Y74117D01*
X84617Y74142D01*
Y74156D01*
Y74161D01*
X84611Y74245D01*
X84597Y74317D01*
X84578Y74380D01*
X84553Y74436D01*
X84523Y74483D01*
X84492Y74522D01*
X84456Y74555D01*
X84420Y74583D01*
X84387Y74602D01*
X84351Y74619D01*
X84320Y74630D01*
X84290Y74638D01*
X84268Y74643D01*
X84248Y74646D01*
X84234Y74649D01*
X84232D01*
X84187Y74643D01*
X84146Y74632D01*
X84107Y74619D01*
X84074Y74602D01*
X84043Y74580D01*
X84016Y74558D01*
X83991Y74533D01*
X83971Y74511D01*
X83952Y74486D01*
X83938Y74463D01*
X83924Y74441D01*
X83913Y74422D01*
X83905Y74405D01*
X83899Y74394D01*
X83897Y74386D01*
Y74383D01*
X83664Y74427D01*
X83694Y74497D01*
X83728Y74555D01*
X83769Y74607D01*
X83814Y74652D01*
X83858Y74691D01*
X83908Y74724D01*
X83955Y74752D01*
X84005Y74774D01*
X84052Y74790D01*
X84093Y74804D01*
X84135Y74813D01*
X84168Y74821D01*
X84198Y74826D01*
X84221Y74829D01*
X84240D01*
X84293Y74826D01*
D02*
G37*
G36*
X80717D02*
X80769Y74818D01*
X80816Y74807D01*
X80861Y74793D01*
X80902Y74777D01*
X80941Y74757D01*
X81010Y74716D01*
X81068Y74663D01*
X81118Y74607D01*
X81160Y74547D01*
X81193Y74486D01*
X81218Y74425D01*
X81240Y74366D01*
X81254Y74311D01*
X81265Y74261D01*
X81273Y74222D01*
X81276Y74203D01*
Y74189D01*
X81279Y74178D01*
Y74170D01*
Y74164D01*
Y74161D01*
X81276Y74103D01*
X81268Y74048D01*
X81260Y73995D01*
X81248Y73948D01*
X81232Y73901D01*
X81215Y73860D01*
X81196Y73821D01*
X81176Y73785D01*
X81154Y73752D01*
X81129Y73721D01*
X81077Y73666D01*
X81021Y73621D01*
X80966Y73585D01*
X80908Y73558D01*
X80855Y73536D01*
X80803Y73522D01*
X80758Y73511D01*
X80719Y73502D01*
X80689Y73500D01*
X80678Y73497D01*
X80620D01*
X80575Y73500D01*
X80495Y73511D01*
X80423Y73533D01*
X80362Y73561D01*
X80307Y73594D01*
X80257Y73633D01*
X80215Y73677D01*
X80179Y73718D01*
X80151Y73763D01*
X80127Y73807D01*
X80107Y73846D01*
X80093Y73882D01*
X80082Y73912D01*
X80077Y73937D01*
X80071Y73951D01*
Y73957D01*
X80312Y73990D01*
X80321Y73937D01*
X80337Y73890D01*
X80357Y73851D01*
X80379Y73815D01*
X80406Y73785D01*
X80434Y73760D01*
X80465Y73741D01*
X80495Y73724D01*
X80525Y73710D01*
X80556Y73702D01*
X80584Y73693D01*
X80606Y73688D01*
X80628Y73685D01*
X80642Y73682D01*
X80656D01*
X80722Y73688D01*
X80780Y73704D01*
X80830Y73729D01*
X80875Y73760D01*
X80910Y73796D01*
X80944Y73838D01*
X80969Y73882D01*
X80988Y73926D01*
X81005Y73970D01*
X81019Y74012D01*
X81027Y74054D01*
X81032Y74087D01*
X81038Y74117D01*
X81041Y74142D01*
Y74156D01*
Y74161D01*
X81035Y74245D01*
X81021Y74317D01*
X81002Y74380D01*
X80977Y74436D01*
X80946Y74483D01*
X80916Y74522D01*
X80880Y74555D01*
X80844Y74583D01*
X80811Y74602D01*
X80775Y74619D01*
X80744Y74630D01*
X80714Y74638D01*
X80692Y74643D01*
X80672Y74646D01*
X80659Y74649D01*
X80656D01*
X80611Y74643D01*
X80570Y74632D01*
X80531Y74619D01*
X80498Y74602D01*
X80467Y74580D01*
X80440Y74558D01*
X80415Y74533D01*
X80395Y74511D01*
X80376Y74486D01*
X80362Y74463D01*
X80348Y74441D01*
X80337Y74422D01*
X80329Y74405D01*
X80323Y74394D01*
X80321Y74386D01*
Y74383D01*
X80088Y74427D01*
X80118Y74497D01*
X80151Y74555D01*
X80193Y74607D01*
X80237Y74652D01*
X80282Y74691D01*
X80332Y74724D01*
X80379Y74752D01*
X80428Y74774D01*
X80476Y74790D01*
X80517Y74804D01*
X80559Y74813D01*
X80592Y74821D01*
X80623Y74826D01*
X80645Y74829D01*
X80664D01*
X80717Y74826D01*
D02*
G37*
G36*
X92104D02*
X92154Y74818D01*
X92201Y74807D01*
X92248Y74793D01*
X92290Y74777D01*
X92329Y74757D01*
X92398Y74713D01*
X92459Y74660D01*
X92509Y74602D01*
X92553Y74541D01*
X92586Y74477D01*
X92614Y74416D01*
X92633Y74355D01*
X92650Y74300D01*
X92661Y74247D01*
X92669Y74206D01*
Y74189D01*
X92672Y74173D01*
X92675Y74161D01*
Y74153D01*
Y74148D01*
Y74145D01*
X92669Y74089D01*
X92664Y74034D01*
X92653Y73984D01*
X92639Y73937D01*
X92622Y73896D01*
X92603Y73854D01*
X92583Y73815D01*
X92561Y73782D01*
X92511Y73718D01*
X92456Y73666D01*
X92398Y73621D01*
X92337Y73588D01*
X92279Y73561D01*
X92220Y73538D01*
X92168Y73522D01*
X92118Y73511D01*
X92079Y73502D01*
X92062Y73500D01*
X92049D01*
X92038Y73497D01*
X92021D01*
X91938Y73502D01*
X91860Y73513D01*
X91791Y73533D01*
X91727Y73558D01*
X91675Y73585D01*
X91625Y73619D01*
X91583Y73652D01*
X91545Y73688D01*
X91514Y73724D01*
X91486Y73757D01*
X91467Y73790D01*
X91450Y73818D01*
X91436Y73843D01*
X91428Y73862D01*
X91426Y73874D01*
X91423Y73879D01*
X91661Y73921D01*
X91677Y73876D01*
X91697Y73840D01*
X91722Y73807D01*
X91747Y73779D01*
X91777Y73754D01*
X91808Y73735D01*
X91841Y73718D01*
X91871Y73704D01*
X91905Y73693D01*
X91932Y73688D01*
X91960Y73682D01*
X91985Y73677D01*
X92004D01*
X92018Y73674D01*
X92032D01*
X92101Y73682D01*
X92159Y73696D01*
X92212Y73718D01*
X92256Y73746D01*
X92295Y73779D01*
X92329Y73813D01*
X92356Y73851D01*
X92378Y73890D01*
X92395Y73929D01*
X92409Y73965D01*
X92417Y73998D01*
X92425Y74029D01*
X92428Y74056D01*
X92431Y74076D01*
X92434Y74087D01*
Y74092D01*
X91423D01*
Y74109D01*
Y74125D01*
Y74139D01*
Y74142D01*
Y74145D01*
X91426Y74206D01*
X91431Y74264D01*
X91439Y74317D01*
X91453Y74369D01*
X91467Y74416D01*
X91484Y74458D01*
X91503Y74499D01*
X91525Y74538D01*
X91547Y74572D01*
X91572Y74602D01*
X91625Y74657D01*
X91680Y74704D01*
X91738Y74740D01*
X91797Y74768D01*
X91852Y74790D01*
X91905Y74807D01*
X91952Y74818D01*
X91991Y74824D01*
X92021Y74826D01*
X92032Y74829D01*
X92049D01*
X92104Y74826D01*
D02*
G37*
%LPC*%
G36*
X85667Y74657D02*
X85664D01*
X85597Y74649D01*
X85542Y74635D01*
X85492Y74613D01*
X85448Y74585D01*
X85412Y74555D01*
X85378Y74522D01*
X85354Y74483D01*
X85331Y74447D01*
X85315Y74408D01*
X85301Y74372D01*
X85293Y74339D01*
X85284Y74308D01*
X85279Y74283D01*
Y74264D01*
X85276Y74253D01*
Y74247D01*
X86057D01*
X86049Y74317D01*
X86032Y74378D01*
X86013Y74430D01*
X85985Y74477D01*
X85955Y74516D01*
X85922Y74549D01*
X85886Y74577D01*
X85852Y74599D01*
X85816Y74619D01*
X85783Y74632D01*
X85750Y74641D01*
X85722Y74649D01*
X85697Y74655D01*
X85681D01*
X85667Y74657D01*
D02*
G37*
G36*
X98420Y75078D02*
X98068D01*
X98010Y75076D01*
X97957Y75067D01*
X97907Y75059D01*
X97860Y75045D01*
X97816Y75029D01*
X97777Y75009D01*
X97738Y74990D01*
X97702Y74965D01*
X97641Y74915D01*
X97589Y74857D01*
X97547Y74796D01*
X97511Y74732D01*
X97483Y74671D01*
X97464Y74610D01*
X97447Y74555D01*
X97436Y74502D01*
X97431Y74461D01*
X97428Y74444D01*
Y74427D01*
X97425Y74416D01*
Y74408D01*
Y74402D01*
Y74400D01*
X97428Y74339D01*
X97434Y74281D01*
X97442Y74225D01*
X97453Y74175D01*
X97467Y74125D01*
X97483Y74084D01*
X97503Y74042D01*
X97525Y74004D01*
X97550Y73970D01*
X97575Y73937D01*
X97628Y73882D01*
X97686Y73838D01*
X97747Y73801D01*
X97808Y73774D01*
X97866Y73752D01*
X97918Y73738D01*
X97968Y73727D01*
X98010Y73721D01*
X98026Y73718D01*
X98040D01*
X98051Y73716D01*
X98420D01*
Y75078D01*
D02*
G37*
G36*
X302703Y82033D02*
X302404D01*
X302490Y81604D01*
X302789D01*
X302703Y82033D01*
D02*
G37*
G36*
X303812Y82299D02*
Y81477D01*
X304393D01*
X303812Y82299D01*
D02*
G37*
G36*
X95993Y74247D02*
Y74067D01*
X96004Y74001D01*
X96024Y73943D01*
X96049Y73890D01*
X96079Y73846D01*
X96115Y73810D01*
X96154Y73777D01*
X96195Y73752D01*
X96237Y73729D01*
X96279Y73713D01*
X96317Y73699D01*
X96356Y73691D01*
X96389Y73682D01*
X96417Y73677D01*
X96436D01*
X96450Y73674D01*
X96506D01*
X96550Y73680D01*
X96589Y73688D01*
X96622Y73699D01*
X96650Y73713D01*
X96672Y73729D01*
X96691Y73746D01*
X96705Y73765D01*
X96716Y73782D01*
X96724Y73801D01*
X96736Y73832D01*
X96738Y73843D01*
Y73854D01*
Y73860D01*
Y73862D01*
Y73898D01*
X96727Y73932D01*
X96711Y73962D01*
X96691Y73990D01*
X96663Y74012D01*
X96633Y74034D01*
X96569Y74067D01*
X96503Y74089D01*
X96472Y74101D01*
X96445Y74106D01*
X96420Y74112D01*
X96403Y74114D01*
X96389Y74117D01*
X96386D01*
X96334Y74125D01*
X96287Y74134D01*
X96242Y74142D01*
X96201Y74153D01*
X96168Y74164D01*
X96135Y74175D01*
X96107Y74186D01*
X96082Y74195D01*
X96060Y74206D01*
X96040Y74217D01*
X96026Y74225D01*
X96013Y74234D01*
X96004Y74239D01*
X95999Y74245D01*
X95993Y74247D01*
D02*
G37*
G36*
X93500Y74649D02*
X93497D01*
X93439Y74641D01*
X93389Y74627D01*
X93342Y74607D01*
X93304Y74583D01*
X93270Y74555D01*
X93243Y74524D01*
X93218Y74491D01*
X93198Y74461D01*
X93184Y74427D01*
X93171Y74397D01*
X93162Y74366D01*
X93154Y74342D01*
X93151Y74319D01*
X93148Y74303D01*
X93146Y74292D01*
Y74289D01*
Y74153D01*
X93151Y74081D01*
X93162Y74020D01*
X93182Y73965D01*
X93207Y73918D01*
X93231Y73879D01*
X93262Y73846D01*
X93295Y73818D01*
X93328Y73796D01*
X93362Y73777D01*
X93395Y73765D01*
X93423Y73754D01*
X93450Y73749D01*
X93472Y73743D01*
X93492Y73741D01*
X93506D01*
X93569Y73746D01*
X93628Y73763D01*
X93678Y73785D01*
X93719Y73815D01*
X93755Y73848D01*
X93786Y73887D01*
X93813Y73929D01*
X93833Y73970D01*
X93849Y74012D01*
X93860Y74054D01*
X93869Y74092D01*
X93874Y74125D01*
X93880Y74153D01*
X93882Y74175D01*
Y74189D01*
Y74195D01*
X93874Y74272D01*
X93860Y74339D01*
X93841Y74400D01*
X93816Y74450D01*
X93786Y74494D01*
X93752Y74530D01*
X93719Y74560D01*
X93683Y74585D01*
X93650Y74605D01*
X93614Y74621D01*
X93583Y74632D01*
X93556Y74641D01*
X93531Y74643D01*
X93514Y74646D01*
X93500Y74649D01*
D02*
G37*
G36*
X92043Y74657D02*
X92040D01*
X91974Y74649D01*
X91918Y74635D01*
X91869Y74613D01*
X91824Y74585D01*
X91788Y74555D01*
X91755Y74522D01*
X91730Y74483D01*
X91708Y74447D01*
X91691Y74408D01*
X91677Y74372D01*
X91669Y74339D01*
X91661Y74308D01*
X91655Y74283D01*
Y74264D01*
X91653Y74253D01*
Y74247D01*
X92434D01*
X92425Y74317D01*
X92409Y74378D01*
X92389Y74430D01*
X92362Y74477D01*
X92331Y74516D01*
X92298Y74549D01*
X92262Y74577D01*
X92229Y74599D01*
X92193Y74619D01*
X92159Y74632D01*
X92126Y74641D01*
X92099Y74649D01*
X92074Y74655D01*
X92057D01*
X92043Y74657D01*
D02*
G37*
%LPD*%
D11*
X309579Y123600D02*
G03*
X309579Y123600I-500J0D01*
G01*
X26821Y154581D02*
G03*
X27912Y154071I292J-797D01*
G01*
Y154071D02*
G03*
X26821Y154581I-810J-311D01*
G01*
X317150Y177683D02*
G03*
X317150Y177683I-500J0D01*
G01*
X307898Y122088D02*
Y128112D01*
X301598D02*
X307898D01*
X301598Y122088D02*
X307898D01*
X301598D02*
Y128112D01*
X217793Y60610D02*
X230793D01*
Y65610D01*
X217793D02*
X230793D01*
X217793Y60610D02*
Y65610D01*
X224348Y97700D02*
X235348D01*
Y90700D02*
Y97700D01*
X224348Y90700D02*
X235348D01*
X224348Y92200D02*
Y96200D01*
Y97700D01*
Y90700D02*
Y92200D01*
X24191Y20700D02*
X35233Y51036D01*
X72968Y37302D01*
X64486Y13998D02*
X72968Y37302D01*
X54894Y9525D02*
X64486Y13998D01*
X24191Y20700D02*
X54894Y9525D01*
X25547Y150587D02*
Y155312D01*
Y150587D02*
X37752D01*
Y155312D01*
X25547D02*
X37752D01*
D12*
X317070Y157043D02*
X319826D01*
X317070Y149956D02*
X319826D01*
Y152515D01*
Y154484D02*
Y157043D01*
X317070Y149956D02*
Y152515D01*
Y154484D02*
Y157043D01*
X298070Y123157D02*
X300826D01*
X298070Y130244D02*
X300826D01*
X298070Y127685D02*
Y130244D01*
Y123157D02*
Y125716D01*
X300826Y127685D02*
Y130244D01*
Y123157D02*
Y125716D01*
X278104Y41253D02*
Y44009D01*
X285191Y41253D02*
Y44009D01*
X282632D02*
X285191D01*
X278104D02*
X280663D01*
X282632Y41253D02*
X285191D01*
X278104D02*
X280663D01*
X278104Y44753D02*
Y47509D01*
X285191Y44753D02*
Y47509D01*
X282632D02*
X285191D01*
X278104D02*
X280663D01*
X282632Y44753D02*
X285191D01*
X278104D02*
X280663D01*
X278104Y55253D02*
Y58009D01*
X285191Y55253D02*
Y58009D01*
X282632D02*
X285191D01*
X278104D02*
X280663D01*
X282632Y55253D02*
X285191D01*
X278104D02*
X280663D01*
X278104Y58753D02*
Y61509D01*
X285191Y58753D02*
Y61509D01*
X282632D02*
X285191D01*
X278104D02*
X280663D01*
X282632Y58753D02*
X285191D01*
X278104D02*
X280663D01*
X288661Y62239D02*
Y64995D01*
X295748Y62239D02*
Y64995D01*
X293189D02*
X295748D01*
X288661D02*
X291220D01*
X293189Y62239D02*
X295748D01*
X288661D02*
X291220D01*
X302970Y38743D02*
X305726D01*
X302970Y31656D02*
X305726D01*
Y34215D01*
Y36184D02*
Y38743D01*
X302970Y31656D02*
Y34215D01*
Y36184D02*
Y38743D01*
X299026Y33757D02*
Y36316D01*
Y38285D02*
Y40844D01*
X296270Y33757D02*
Y36316D01*
Y38285D02*
Y40844D01*
X299026D01*
X296270Y33757D02*
X299026D01*
X306322Y15083D02*
Y17642D01*
Y10556D02*
Y13115D01*
X309078Y15083D02*
Y17642D01*
Y10556D02*
Y13115D01*
X306322Y10556D02*
X309078D01*
X306322Y17642D02*
X309078D01*
X329832Y49578D02*
X332391D01*
X325304D02*
X327864D01*
X329832Y46822D02*
X332391D01*
X325304D02*
X327864D01*
X325304D02*
Y49578D01*
X332391Y46822D02*
Y49578D01*
X307922Y35921D02*
X310481D01*
X312449D02*
X315008D01*
X307922Y38677D02*
X310481D01*
X312449D02*
X315008D01*
Y35921D02*
Y38677D01*
X307922Y35921D02*
Y38677D01*
X319757Y73421D02*
X322316D01*
X324285D02*
X326844D01*
X319757Y76177D02*
X322316D01*
X324285D02*
X326844D01*
Y73421D02*
Y76177D01*
X319757Y73421D02*
Y76177D01*
Y76821D02*
Y79577D01*
X326844Y76821D02*
Y79577D01*
X324285D02*
X326844D01*
X319757D02*
X322316D01*
X324285Y76821D02*
X326844D01*
X319757D02*
X322316D01*
X318291Y32222D02*
Y34978D01*
X311204Y32222D02*
Y34978D01*
Y32222D02*
X313763D01*
X315732D02*
X318291D01*
X311204Y34978D02*
X313763D01*
X315732D02*
X318291D01*
X310432Y121178D02*
X312991D01*
X305904D02*
X308464D01*
X310432Y118422D02*
X312991D01*
X305904D02*
X308464D01*
X305904D02*
Y121178D01*
X312991Y118422D02*
Y121178D01*
X310432Y131478D02*
X312991D01*
X305904D02*
X308464D01*
X310432Y128722D02*
X312991D01*
X305904D02*
X308464D01*
X305904D02*
Y131478D01*
X312991Y128722D02*
Y131478D01*
X324032Y34978D02*
X326591D01*
X319504D02*
X322063D01*
X324032Y32222D02*
X326591D01*
X319504D02*
X322063D01*
X319504D02*
Y34978D01*
X326591Y32222D02*
Y34978D01*
X282632Y51009D02*
X285191D01*
X278104D02*
X280663D01*
X282632Y48253D02*
X285191D01*
X278104D02*
X280663D01*
X278104D02*
Y51009D01*
X285191Y48253D02*
Y51009D01*
X41292Y10827D02*
X43697Y9952D01*
X45547Y9278D02*
X47951Y8403D01*
X42235Y13417D02*
X44640Y12541D01*
X46489Y11868D02*
X48894Y10993D01*
X47951Y8403D02*
X48894Y10993D01*
X41292Y10827D02*
X42235Y13417D01*
X293170Y61532D02*
X295729D01*
X288642D02*
X291201D01*
X293170Y58777D02*
X295729D01*
X288642D02*
X291201D01*
X288642D02*
Y61532D01*
X295729Y58777D02*
Y61532D01*
X292677Y58009D02*
X295236D01*
X288149D02*
X290708D01*
X292677Y55253D02*
X295236D01*
X288149D02*
X290708D01*
X288149D02*
Y58009D01*
X295236Y55253D02*
Y58009D01*
X292677Y51009D02*
X295236D01*
X288149D02*
X290708D01*
X292677Y48253D02*
X295236D01*
X288149D02*
X290708D01*
X288149D02*
Y51009D01*
X295236Y48253D02*
Y51009D01*
X292677Y47509D02*
X295236D01*
X288149D02*
X290708D01*
X292677Y44753D02*
X295236D01*
X288149D02*
X290708D01*
X288149D02*
Y47509D01*
X295236Y44753D02*
Y47509D01*
X292677Y44009D02*
X295236D01*
X288149D02*
X290708D01*
X292677Y41253D02*
X295236D01*
X288149D02*
X290708D01*
X288149D02*
Y44009D01*
X295236Y41253D02*
Y44009D01*
X297922Y66756D02*
X300678D01*
X297922Y73843D02*
X300678D01*
X297922Y71284D02*
Y73843D01*
Y66756D02*
Y69315D01*
X300678Y71284D02*
Y73843D01*
Y66756D02*
Y69315D01*
X316622Y73843D02*
X319378D01*
X316622Y66756D02*
X319378D01*
Y69315D01*
Y71284D02*
Y73843D01*
X316622Y66756D02*
Y69315D01*
Y71284D02*
Y73843D01*
X339922Y74842D02*
X342678D01*
X339922Y67756D02*
X342678D01*
Y70315D01*
Y72283D02*
Y74842D01*
X339922Y67756D02*
Y70315D01*
Y72283D02*
Y74842D01*
X329222Y74742D02*
X331978D01*
X329222Y67656D02*
X331978D01*
Y70215D01*
Y72183D02*
Y74742D01*
X329222Y67656D02*
Y70215D01*
Y72183D02*
Y74742D01*
X336884Y70477D02*
X339443D01*
X332356D02*
X334915D01*
X336884Y67722D02*
X339443D01*
X332356D02*
X334915D01*
X332356D02*
Y70477D01*
X339443Y67722D02*
Y70477D01*
X259815Y17874D02*
X262571D01*
X259815Y10787D02*
X262571D01*
Y13346D01*
Y15315D02*
Y17874D01*
X259815Y10787D02*
Y13346D01*
Y15315D02*
Y17874D01*
X256315D02*
X259071D01*
X256315Y10787D02*
X259071D01*
Y13346D01*
Y15315D02*
Y17874D01*
X256315Y10787D02*
Y13346D01*
Y15315D02*
Y17874D01*
X75683Y143672D02*
X77631Y141723D01*
X70672Y138661D02*
X72620Y136712D01*
X74430Y138521D01*
X75822Y139913D02*
X77631Y141723D01*
X70672Y138661D02*
X72481Y140470D01*
X73873Y141862D02*
X75683Y143672D01*
X72121Y128412D02*
X73931Y130221D01*
X75323Y131613D02*
X77132Y133423D01*
X70173Y130360D02*
X71982Y132170D01*
X73374Y133562D02*
X75183Y135371D01*
X77132Y133423D01*
X70173Y130360D02*
X72121Y128412D01*
X225205Y85522D02*
Y88278D01*
X232292Y85522D02*
Y88278D01*
X229733D02*
X232292D01*
X225205D02*
X227764D01*
X229733Y85522D02*
X232292D01*
X225205D02*
X227764D01*
X81887Y42404D02*
X84446D01*
X86414D02*
X88974D01*
X81887Y45160D02*
X84446D01*
X86414D02*
X88974D01*
Y42404D02*
Y45160D01*
X81887Y42404D02*
Y45160D01*
X191470Y173457D02*
X194226D01*
X191470Y180544D02*
X194226D01*
X191470Y177985D02*
Y180544D01*
Y173457D02*
Y176016D01*
X194226Y177985D02*
Y180544D01*
Y173457D02*
Y176016D01*
X84570Y20957D02*
X87326D01*
X84570Y28044D02*
X87326D01*
X84570Y25485D02*
Y28044D01*
Y20957D02*
Y23516D01*
X87326Y25485D02*
Y28044D01*
Y20957D02*
Y23516D01*
X165071Y106358D02*
Y108917D01*
Y101830D02*
Y104389D01*
X167827Y106358D02*
Y108917D01*
Y101830D02*
Y104389D01*
X165071Y101830D02*
X167827D01*
X165071Y108917D02*
X167827D01*
X320870Y68384D02*
Y70943D01*
Y63856D02*
Y66415D01*
X323626Y68384D02*
Y70943D01*
Y63856D02*
Y66415D01*
X320870Y63856D02*
X323626D01*
X320870Y70943D02*
X323626D01*
X332391Y50322D02*
Y53078D01*
X325304Y50322D02*
Y53078D01*
Y50322D02*
X327864D01*
X329832D02*
X332391D01*
X325304Y53078D02*
X327864D01*
X329832D02*
X332391D01*
X170987Y66704D02*
X173546D01*
X175514D02*
X178074D01*
X170987Y69460D02*
X173546D01*
X175514D02*
X178074D01*
Y66704D02*
Y69460D01*
X170987Y66704D02*
Y69460D01*
X159815Y92374D02*
X162571D01*
X159815Y85287D02*
X162571D01*
Y87846D01*
Y89815D02*
Y92374D01*
X159815Y85287D02*
Y87846D01*
Y89815D02*
Y92374D01*
X163815Y89815D02*
Y92374D01*
Y85287D02*
Y87846D01*
X166571Y89815D02*
Y92374D01*
Y85287D02*
Y87846D01*
X163815Y85287D02*
X166571D01*
X163815Y92374D02*
X166571D01*
X155315D02*
X158071D01*
X155315Y85287D02*
X158071D01*
Y87846D01*
Y89815D02*
Y92374D01*
X155315Y85287D02*
Y87846D01*
Y89815D02*
Y92374D01*
X193150Y59952D02*
X195709D01*
X197678D02*
X200237D01*
X193150Y62708D02*
X195709D01*
X197678D02*
X200237D01*
Y59952D02*
Y62708D01*
X193150Y59952D02*
Y62708D01*
Y72404D02*
Y75160D01*
X200237Y72404D02*
Y75160D01*
X197678D02*
X200237D01*
X193150D02*
X195709D01*
X197678Y72404D02*
X200237D01*
X193150D02*
X195709D01*
X193150Y80104D02*
X195709D01*
X197678D02*
X200237D01*
X193150Y82860D02*
X195709D01*
X197678D02*
X200237D01*
Y80104D02*
Y82860D01*
X193150Y80104D02*
Y82860D01*
Y84304D02*
Y87060D01*
X200237Y84304D02*
Y87060D01*
X197678D02*
X200237D01*
X193150D02*
X195709D01*
X197678Y84304D02*
X200237D01*
X193150D02*
X195709D01*
X193150Y49952D02*
X195709D01*
X197678D02*
X200237D01*
X193150Y52708D02*
X195709D01*
X197678D02*
X200237D01*
Y49952D02*
Y52708D01*
X193150Y49952D02*
Y52708D01*
X89043Y46522D02*
Y49277D01*
X81956Y46522D02*
Y49277D01*
Y46522D02*
X84515D01*
X86484D02*
X89043D01*
X81956Y49277D02*
X84515D01*
X86484D02*
X89043D01*
X193150Y53952D02*
X195709D01*
X197678D02*
X200237D01*
X193150Y56708D02*
X195709D01*
X197678D02*
X200237D01*
Y53952D02*
Y56708D01*
X193150Y53952D02*
Y56708D01*
X30171Y141867D02*
Y144426D01*
Y137339D02*
Y139898D01*
X32927Y141867D02*
Y144426D01*
Y137339D02*
Y139898D01*
X30171Y137339D02*
X32927D01*
X30171Y144426D02*
X32927D01*
X42828Y152731D02*
Y155290D01*
Y157259D02*
Y159818D01*
X40072Y152731D02*
Y155290D01*
Y157259D02*
Y159818D01*
X42828D01*
X40072Y152731D02*
X42828D01*
X273815Y182874D02*
X276571D01*
X273815Y175787D02*
X276571D01*
Y178346D01*
Y180315D02*
Y182874D01*
X273815Y175787D02*
Y178346D01*
Y180315D02*
Y182874D01*
X86373Y120062D02*
X88183Y121871D01*
X83172Y116860D02*
X84981Y118670D01*
X88322Y118113D02*
X90131Y119923D01*
X85120Y114912D02*
X86930Y116721D01*
X83172Y116860D02*
X85120Y114912D01*
X88183Y121871D02*
X90131Y119923D01*
X89672Y123361D02*
X91621Y121412D01*
X94683Y128372D02*
X96632Y126423D01*
X92874Y126562D02*
X94683Y128372D01*
X89672Y123361D02*
X91482Y125170D01*
X94823Y124613D02*
X96632Y126423D01*
X91621Y121412D02*
X93431Y123221D01*
X48035Y113928D02*
X49844Y115738D01*
X44833Y110727D02*
X46643Y112537D01*
X49983Y111980D02*
X51793Y113789D01*
X46782Y108778D02*
X48591Y110588D01*
X44833Y110727D02*
X46782Y108778D01*
X49844Y115738D02*
X51793Y113789D01*
X85183Y108910D02*
X87132Y110859D01*
X80172Y113921D02*
X82121Y115870D01*
X80172Y113921D02*
X81982Y112112D01*
X83373Y110720D02*
X85183Y108910D01*
X82121Y115870D02*
X83930Y114060D01*
X85322Y112669D02*
X87132Y110859D01*
X55121Y116912D02*
X56931Y118721D01*
X58323Y120113D02*
X60132Y121923D01*
X53172Y118860D02*
X54982Y120670D01*
X56374Y122062D02*
X58183Y123872D01*
X60132Y121923D01*
X53172Y118860D02*
X55121Y116912D01*
X66873Y118562D02*
X68683Y120371D01*
X63672Y115360D02*
X65481Y117170D01*
X68822Y116613D02*
X70631Y118423D01*
X65620Y113412D02*
X67430Y115221D01*
X63672Y115360D02*
X65620Y113412D01*
X68683Y120371D02*
X70631Y118423D01*
X70695Y103653D02*
X72643Y101704D01*
X65684Y98642D02*
X67632Y96693D01*
X69442Y98502D01*
X70834Y99894D02*
X72643Y101704D01*
X65684Y98642D02*
X67493Y100451D01*
X68885Y101843D02*
X70695Y103653D01*
X60853Y90644D02*
X62663Y92453D01*
X64055Y93845D02*
X65864Y95655D01*
X58904Y92593D02*
X60714Y94402D01*
X62106Y95794D02*
X63915Y97603D01*
X65864Y95655D01*
X58904Y92593D02*
X60853Y90644D01*
X62380Y128661D02*
X64329Y126712D01*
X67392Y133671D02*
X69340Y131723D01*
X65582Y131862D02*
X67392Y133671D01*
X62380Y128661D02*
X64190Y130470D01*
X67531Y129913D02*
X69340Y131723D01*
X64329Y126712D02*
X66139Y128521D01*
X23171Y144448D02*
X25927D01*
X23171Y137362D02*
X25927D01*
Y139921D01*
Y141889D02*
Y144448D01*
X23171Y137362D02*
Y139921D01*
Y141889D02*
Y144448D01*
X311933Y174378D02*
X314493D01*
X307406D02*
X309965D01*
X311933Y171622D02*
X314493D01*
X307406D02*
X309965D01*
X307406D02*
Y174378D01*
X314493Y171622D02*
Y174378D01*
X26672Y137363D02*
X29428D01*
X26672Y144449D02*
X29428D01*
X26672Y141890D02*
Y144449D01*
Y137363D02*
Y139922D01*
X29428Y141890D02*
Y144449D01*
Y137363D02*
Y139922D01*
X311933Y177961D02*
X314493D01*
X307406D02*
X309965D01*
X311933Y175205D02*
X314493D01*
X307406D02*
X309965D01*
X307406D02*
Y177961D01*
X314493Y175205D02*
Y177961D01*
X260815Y81626D02*
X263571D01*
X260815Y74540D02*
X263571D01*
Y77099D01*
Y79067D02*
Y81626D01*
X260815Y74540D02*
Y77099D01*
Y79067D02*
Y81626D01*
X319757Y80121D02*
X322316D01*
X324285D02*
X326844D01*
X319757Y82877D02*
X322316D01*
X324285D02*
X326844D01*
Y80121D02*
Y82877D01*
X319757Y80121D02*
Y82877D01*
X325922Y70142D02*
X328678D01*
X325922Y63056D02*
X328678D01*
Y65615D01*
Y67583D02*
Y70142D01*
X325922Y63056D02*
Y65615D01*
Y67583D02*
Y70142D01*
X329171Y176667D02*
Y179226D01*
Y172139D02*
Y174698D01*
X331927Y176667D02*
Y179226D01*
Y172139D02*
Y174698D01*
X329171Y172139D02*
X331927D01*
X329171Y179226D02*
X331927D01*
X248650Y14952D02*
Y17708D01*
X255736Y14952D02*
Y17708D01*
X253177D02*
X255736D01*
X248650D02*
X251209D01*
X253177Y14952D02*
X255736D01*
X248650D02*
X251209D01*
X255736Y11453D02*
Y14209D01*
X248649Y11453D02*
Y14209D01*
Y11453D02*
X251208D01*
X253177D02*
X255736D01*
X248649Y14209D02*
X251208D01*
X253177D02*
X255736D01*
X332671Y179226D02*
X335427D01*
X332671Y172139D02*
X335427D01*
Y174698D01*
Y176667D02*
Y179226D01*
X332671Y172139D02*
Y174698D01*
Y176667D02*
Y179226D01*
X156305Y179222D02*
X158864D01*
X160833D02*
X163392D01*
X156305Y181978D02*
X158864D01*
X160833D02*
X163392D01*
Y179222D02*
Y181978D01*
X156305Y179222D02*
Y181978D01*
Y175522D02*
X158864D01*
X160833D02*
X163392D01*
X156305Y178278D02*
X158864D01*
X160833D02*
X163392D01*
Y175522D02*
Y178278D01*
X156305Y175522D02*
Y178278D01*
X237970Y98643D02*
X240726D01*
X237970Y91556D02*
X240726D01*
Y94115D01*
Y96084D02*
Y98643D01*
X237970Y91556D02*
Y94115D01*
Y96084D02*
Y98643D01*
X231387Y61456D02*
X234143D01*
X231387Y68543D02*
X234143D01*
X231387Y65984D02*
Y68543D01*
Y61456D02*
Y64015D01*
X234143Y65984D02*
Y68543D01*
Y61456D02*
Y64015D01*
X209115Y63667D02*
X211871D01*
X209115Y70754D02*
X211871D01*
X209115Y68195D02*
Y70754D01*
Y63667D02*
Y66226D01*
X211871Y68195D02*
Y70754D01*
Y63667D02*
Y66226D01*
X303505Y149922D02*
Y152678D01*
X310592Y149922D02*
Y152678D01*
X308033D02*
X310592D01*
X303505D02*
X306064D01*
X308033Y149922D02*
X310592D01*
X303505D02*
X306064D01*
X320691Y130822D02*
Y133578D01*
X313604Y130822D02*
Y133578D01*
Y130822D02*
X316163D01*
X318132D02*
X320691D01*
X313604Y133578D02*
X316163D01*
X318132D02*
X320691D01*
X317770Y141943D02*
X320526D01*
X317770Y134856D02*
X320526D01*
Y137415D01*
Y139384D02*
Y141943D01*
X317770Y134856D02*
Y137415D01*
Y139384D02*
Y141943D01*
X317807Y166904D02*
Y169660D01*
X324893Y166904D02*
Y169660D01*
X322334D02*
X324893D01*
X317807D02*
X320366D01*
X322334Y166904D02*
X324893D01*
X317807D02*
X320366D01*
X211791Y79522D02*
Y82278D01*
X204704Y79522D02*
Y82278D01*
Y79522D02*
X207263D01*
X209232D02*
X211791D01*
X204704Y82278D02*
X207263D01*
X209232D02*
X211791D01*
X222691Y79422D02*
Y82178D01*
X215604Y79422D02*
Y82178D01*
Y79422D02*
X218163D01*
X220132D02*
X222691D01*
X215604Y82178D02*
X218163D01*
X220132D02*
X222691D01*
X226193Y50705D02*
Y53461D01*
X219106Y50705D02*
Y53461D01*
Y50705D02*
X221665D01*
X223634D02*
X226193D01*
X219106Y53461D02*
X221665D01*
X223634D02*
X226193D01*
X305905Y109422D02*
Y112178D01*
X312992Y109422D02*
Y112178D01*
X310433D02*
X312992D01*
X305905D02*
X308464D01*
X310433Y109422D02*
X312992D01*
X305905D02*
X308464D01*
X305805Y105622D02*
Y108378D01*
X312892Y105622D02*
Y108378D01*
X310333D02*
X312892D01*
X305805D02*
X308364D01*
X310333Y105622D02*
X312892D01*
X305805D02*
X308364D01*
X313470Y149957D02*
X316226D01*
X313470Y157044D02*
X316226D01*
X313470Y154485D02*
Y157044D01*
Y149957D02*
Y152516D01*
X316226Y154485D02*
Y157044D01*
Y149957D02*
Y152516D01*
D13*
X229993Y61910D02*
G03*
X229993Y61910I-500J0D01*
G01*
X236757Y96700D02*
G03*
X236757Y96700I-394J0D01*
G01*
X336221Y20866D02*
X343701D01*
Y26378D01*
X312598Y20866D02*
X323228D01*
X298819D02*
X305512D01*
X274803D02*
X285433D01*
X274803D02*
Y22835D01*
Y49213D02*
Y53150D01*
Y30709D02*
Y39764D01*
Y62598D02*
Y66535D01*
X281048D01*
X287795D02*
X289370D01*
Y73622D01*
Y81102D02*
Y85039D01*
X293307D01*
X306299D02*
X322835D01*
X327559D02*
X329134D01*
Y84252D02*
Y85039D01*
Y78740D02*
Y79803D01*
Y78740D02*
X335039D01*
X340551D02*
X343701D01*
Y40157D02*
Y51968D01*
Y65354D02*
Y78740D01*
D18*
X201799Y89948D02*
Y108452D01*
X220697D01*
Y89948D02*
Y108452D01*
X201799Y89948D02*
X220697D01*
X31698Y181123D02*
X50202D01*
Y162225D02*
Y181123D01*
X31698Y162225D02*
X50202D01*
X31698D02*
Y181123D01*
X234844Y53358D02*
X253742D01*
Y71862D01*
X234844D02*
X253742D01*
X234844Y53358D02*
Y71862D01*
X307417Y134661D02*
X316079D01*
X307417Y148661D02*
X316079D01*
Y134661D02*
Y148661D01*
X307417Y134661D02*
Y148661D01*
X320150Y40599D02*
X321724D01*
Y42174D01*
X300661Y40599D02*
X302236D01*
X300661D02*
Y42174D01*
Y60087D02*
Y61662D01*
X302236D01*
X320150D02*
X321724D01*
Y60087D02*
Y61662D01*
D142*
X306240Y146153D02*
G03*
X306240Y146153I-492J0D01*
G01*
X324776Y61072D02*
G03*
X324776Y61072I-492J0D01*
G01*
D143*
X187596Y121414D02*
G03*
X187596Y121414I-493J0D01*
G01*
D02*
G03*
X187596Y121414I-493J0D01*
G01*
X178196D02*
G03*
X178196Y121414I-493J0D01*
G01*
D02*
G03*
X178196Y121414I-493J0D01*
G01*
D144*
X180701Y159500D02*
G03*
X180701Y159500I-2953J0D01*
G01*
X270276Y12598D02*
G03*
X270276Y12598I-2953J0D01*
G01*
X317913Y126772D02*
G03*
X317913Y126772I-2953J0D01*
G01*
X325000Y13386D02*
G03*
X325000Y13386I-2953J0D01*
G01*
X298228Y120079D02*
G03*
X298228Y120079I-2953J0D01*
G01*
X154528Y14173D02*
G03*
X154528Y14173I-2953J0D01*
G01*
X163976D02*
G03*
X163976Y14173I-2953J0D01*
G01*
X171850D02*
G03*
X171850Y14173I-2953J0D01*
G01*
X179724D02*
G03*
X179724Y14173I-2953J0D01*
G01*
X252559Y40157D02*
G03*
X252559Y40157I-2953J0D01*
G01*
X290354Y108268D02*
G03*
X290354Y108268I-2953J0D01*
G01*
X14764Y175197D02*
G03*
X14764Y175197I-2953J0D01*
G01*
X317126Y13386D02*
G03*
X317126Y13386I-2953J0D01*
G01*
X18701Y30225D02*
G03*
X18701Y30225I-2953J0D01*
G01*
X187598Y14173D02*
G03*
X187598Y14173I-2953J0D01*
G01*
X333661Y157480D02*
G03*
X333661Y157480I-2953J0D01*
G01*
X298228Y143701D02*
G03*
X298228Y143701I-2953J0D01*
G01*
X287598Y137795D02*
G03*
X287598Y137795I-2953J0D01*
G01*
X304134Y177076D02*
G03*
X304134Y177076I-2953J0D01*
G01*
X83661Y55118D02*
G03*
X83661Y55118I-2953J0D01*
G01*
X76301Y11800D02*
G03*
X76301Y11800I-2953J0D01*
G01*
X290354Y177165D02*
G03*
X290354Y177165I-2953J0D01*
G01*
X312008Y157480D02*
G03*
X312008Y157480I-2953J0D01*
G01*
X253740Y111024D02*
G03*
X253740Y111024I-2953J0D01*
G01*
X225394Y32283D02*
G03*
X225394Y32283I-2953J0D01*
G01*
X345472Y157480D02*
G03*
X345472Y157480I-2953J0D01*
G01*
X262795Y22047D02*
G03*
X262795Y22047I-2953J0D01*
G01*
X140748Y98425D02*
G03*
X140748Y98425I-2953J0D01*
G01*
X254921Y99213D02*
G03*
X254921Y99213I-2953J0D01*
G01*
X153347Y103150D02*
G03*
X153347Y103150I-2953J0D01*
G01*
Y95276D02*
G03*
X153347Y95276I-2953J0D01*
G01*
X170276Y129921D02*
G03*
X170276Y129921I-2953J0D01*
G01*
X278543Y108268D02*
G03*
X278543Y108268I-2953J0D01*
G01*
X215551Y140945D02*
G03*
X215551Y140945I-2953J0D01*
G01*
Y177165D02*
G03*
X215551Y177165I-2953J0D01*
G01*
X231299Y78740D02*
G03*
X231299Y78740I-2953J0D01*
G01*
X290354Y96457D02*
G03*
X290354Y96457I-2953J0D01*
G01*
X293504Y27559D02*
G03*
X293504Y27559I-2953J0D01*
G01*
X321850Y26772D02*
G03*
X321850Y26772I-2953J0D01*
G01*
X282087Y36220D02*
G03*
X282087Y36220I-2953J0D01*
G01*
X298228Y108268D02*
G03*
X298228Y108268I-2953J0D01*
G01*
X34449Y64961D02*
G03*
X34449Y64961I-2953J0D01*
G01*
X270669Y108268D02*
G03*
X270669Y108268I-2953J0D01*
G01*
X146653Y7391D02*
G03*
X146653Y7391I-2953J0D01*
G01*
X272638Y92913D02*
G03*
X272638Y92913I-2953J0D01*
G01*
X128937Y6997D02*
G03*
X128937Y6997I-2953J0D01*
G01*
X215551Y52666D02*
G03*
X215551Y52666I-2953J0D01*
G01*
X154528Y7391D02*
G03*
X154528Y7391I-2953J0D01*
G01*
X38780Y5906D02*
G03*
X38780Y5906I-2953J0D01*
G01*
X30906D02*
G03*
X30906Y5906I-2953J0D01*
G01*
X23031D02*
G03*
X23031Y5906I-2953J0D01*
G01*
X217520Y27165D02*
G03*
X217520Y27165I-2953J0D01*
G01*
X64370Y173532D02*
G03*
X64370Y173532I-2953J0D01*
G01*
Y181406D02*
G03*
X64370Y181406I-2953J0D01*
G01*
X354134Y56181D02*
Y59681D01*
X352953Y56181D02*
Y59681D01*
X349543Y60181D02*
X357543D01*
Y42181D02*
Y61181D01*
X349543D02*
X357543D01*
X349543Y42181D02*
Y61181D01*
Y42181D02*
X357543D01*
X317650Y170183D02*
X326650D01*
X317650D02*
Y179183D01*
X326650D01*
Y170183D02*
Y179183D01*
D147*
X305448Y8144D02*
Y12644D01*
X300448Y8144D02*
Y12644D01*
Y15144D02*
Y19644D01*
X305448Y15144D02*
Y19644D01*
X300448Y8144D02*
X305448D01*
X300448Y19644D02*
X305448D01*
X301189Y66694D02*
X316100D01*
X301189D02*
Y78694D01*
X316100D01*
Y66694D02*
Y78694D01*
X351043Y35195D02*
X356043D01*
X351043D02*
Y39695D01*
X356043Y35195D02*
Y39695D01*
X200248Y171950D02*
X205248D01*
X200248Y183450D02*
X205248D01*
X200248Y171950D02*
Y176450D01*
X205248Y171950D02*
Y176450D01*
Y178950D02*
Y183450D01*
X200248Y178950D02*
Y183450D01*
X194748Y178950D02*
Y183450D01*
X199748Y178950D02*
Y183450D01*
Y171950D02*
Y176450D01*
X194748Y171950D02*
Y176450D01*
Y183450D02*
X199748D01*
X194748Y171950D02*
X199748D01*
X109130Y96933D02*
X114130D01*
X109130Y108433D02*
X114130D01*
X109130Y96933D02*
Y101433D01*
X114130Y96933D02*
Y101433D01*
Y103933D02*
Y108433D01*
X109130Y103933D02*
Y108433D01*
X200480Y31383D02*
Y36383D01*
X188980Y31383D02*
Y36383D01*
X195980Y31383D02*
X200480D01*
X195980Y36383D02*
X200480D01*
X188980D02*
X193480D01*
X188980Y31383D02*
X193480D01*
X323900Y166283D02*
X328400D01*
X323900Y161283D02*
X328400D01*
X316900D02*
X321400D01*
X316900Y166283D02*
X321400D01*
X328400Y161283D02*
Y166283D01*
X316900Y161283D02*
Y166283D01*
X79348Y18700D02*
X84348D01*
Y19450D02*
Y23950D01*
X79348Y19450D02*
Y23950D01*
Y26450D02*
Y30950D01*
X84348Y26450D02*
Y30950D01*
X79348Y19450D02*
X84348D01*
X79348Y30950D02*
X84348D01*
X324498Y41200D02*
X328998D01*
X324498Y46200D02*
X328998D01*
X331498D02*
X335998D01*
X331498Y41200D02*
X335998D01*
X324498D02*
Y46200D01*
X335998Y41200D02*
Y46200D01*
X170943Y110831D02*
Y115831D01*
X182443Y110831D02*
Y115831D01*
X170943D02*
X175443D01*
X170943Y110831D02*
X175443D01*
X177943D02*
X182443D01*
X177943Y115831D02*
X182443D01*
X56643Y2831D02*
Y7831D01*
X45143Y2831D02*
Y7831D01*
X52143Y2831D02*
X56643D01*
X52143Y7831D02*
X56643D01*
X45143D02*
X49643D01*
X45143Y2831D02*
X49643D01*
X43450Y139424D02*
Y143924D01*
X38450Y139424D02*
Y143924D01*
Y146424D02*
Y150924D01*
X43450Y146424D02*
Y150924D01*
X38450Y139424D02*
X43450D01*
X38450Y150924D02*
X43450D01*
X43950Y161474D02*
X48950D01*
X43950Y156224D02*
Y160724D01*
X48950Y156224D02*
Y160724D01*
Y149224D02*
Y153724D01*
X43950Y149224D02*
Y153724D01*
Y160724D02*
X48950D01*
X43950Y149224D02*
X48950D01*
X272693Y175081D02*
Y179581D01*
X267693Y175081D02*
Y179581D01*
Y182081D02*
Y186581D01*
X272693Y182081D02*
Y186581D01*
X267693Y175081D02*
X272693D01*
X267693Y186581D02*
X272693D01*
X282193Y175333D02*
Y179833D01*
X277193Y175333D02*
Y179833D01*
Y182333D02*
Y186833D01*
X282193Y182333D02*
Y186833D01*
X277193Y175333D02*
X282193D01*
X277193Y186833D02*
X282193D01*
X54550Y149324D02*
Y153824D01*
X49550Y149324D02*
Y153824D01*
Y156324D02*
Y160824D01*
X54550Y156324D02*
Y160824D01*
X49550Y149324D02*
X54550D01*
X49550Y160824D02*
X54550D01*
X331498Y40600D02*
X335998D01*
X331498Y35600D02*
X335998D01*
X324498D02*
X328998D01*
X324498Y40600D02*
X328998D01*
X335998Y35600D02*
Y40600D01*
X324498Y35600D02*
Y40600D01*
X254293Y59460D02*
X259293D01*
X254293Y70960D02*
X259293D01*
X254293Y59460D02*
Y63960D01*
X259293Y59460D02*
Y63960D01*
Y66460D02*
Y70960D01*
X254293Y66460D02*
Y70960D01*
X212393Y60160D02*
X217393D01*
X212393Y71660D02*
X217393D01*
X212393Y60160D02*
Y64660D01*
X217393Y60160D02*
Y64660D01*
Y67160D02*
Y71660D01*
X212393Y67160D02*
Y71660D01*
Y72410D02*
X217393D01*
X317298Y112900D02*
Y117900D01*
X305798Y112900D02*
Y117900D01*
X312798Y112900D02*
X317298D01*
X312798Y117900D02*
X317298D01*
X305798D02*
X310298D01*
X305798Y112900D02*
X310298D01*
X295150Y16099D02*
X299650D01*
X295150Y11099D02*
X299650D01*
X288150D02*
X292650D01*
X288150Y16099D02*
X292650D01*
X299650Y11099D02*
Y16099D01*
X288150Y11099D02*
Y16099D01*
X221598Y98300D02*
Y103300D01*
X233098Y98300D02*
Y103300D01*
X221598D02*
X226098D01*
X221598Y98300D02*
X226098D01*
X228598D02*
X233098D01*
X228598Y103300D02*
X233098D01*
Y103800D02*
Y108800D01*
X221598Y103800D02*
Y108800D01*
X228598Y103800D02*
X233098D01*
X228598Y108800D02*
X233098D01*
X221598D02*
X226098D01*
X221598Y103800D02*
X226098D01*
X87895Y32783D02*
Y36268D01*
X93801D01*
Y32783D02*
Y36268D01*
X87895Y19732D02*
Y23217D01*
Y19732D02*
X93801D01*
Y23217D01*
X87895Y18496D02*
X93801D01*
Y19732D01*
X87895Y18496D02*
Y19732D01*
X88895Y18496D02*
Y19732D01*
X89895Y18496D02*
Y19732D01*
X90895Y18496D02*
Y19732D01*
X91895Y18496D02*
Y19732D01*
X92895Y18496D02*
Y19732D01*
X219648Y83300D02*
X220565D01*
X219648Y89300D02*
X220565D01*
X219648Y88300D02*
X220565D01*
X219648Y87300D02*
X220565D01*
X219648Y86300D02*
X220565D01*
X219648Y85300D02*
X220565D01*
X219648Y84300D02*
X220565D01*
X259693Y73410D02*
X260610D01*
X259693Y74410D02*
X260610D01*
X259693Y75410D02*
X260610D01*
X259693Y76410D02*
X260610D01*
X259693Y77410D02*
X260610D01*
X259693Y78410D02*
X260610D01*
X259693Y72410D02*
X260610D01*
X310194Y23600D02*
Y25600D01*
X314194Y23600D02*
Y25600D01*
X310194D02*
X314194D01*
X310194Y23600D02*
X314194D01*
D148*
X180213Y125351D02*
Y129288D01*
X188087Y125843D02*
Y128796D01*
X180213Y125843D02*
Y128796D01*
X188087Y125351D02*
Y129288D01*
X170813Y125351D02*
Y129288D01*
X178687Y125843D02*
Y128796D01*
X170813Y125843D02*
Y128796D01*
X178687Y125351D02*
Y129288D01*
D149*
X80348Y18950D02*
Y19450D01*
X81348Y18700D02*
Y19450D01*
X82348Y18950D02*
Y19450D01*
X83348Y18950D02*
Y19450D01*
X79348Y18700D02*
Y19700D01*
X84348Y18700D02*
Y19450D01*
X47950Y160724D02*
Y161224D01*
X46950Y160724D02*
Y161474D01*
X45950Y160724D02*
Y161224D01*
X44950Y160724D02*
Y161224D01*
X48950Y160474D02*
Y161474D01*
X43950Y160724D02*
Y161474D01*
X212393Y71660D02*
Y72410D01*
X217393Y71410D02*
Y72410D01*
X213393Y71660D02*
Y72160D01*
X214393Y71660D02*
Y72160D01*
X215393Y71660D02*
Y72410D01*
X216393Y71660D02*
Y72160D01*
X220565Y83300D02*
Y89300D01*
X205148Y83300D02*
X219648D01*
X205148D02*
Y89300D01*
X219648D01*
Y83300D02*
Y89300D01*
X259693Y72410D02*
Y78410D01*
X245193D02*
X259693D01*
X245193Y72410D02*
Y78410D01*
Y72410D02*
X259693D01*
X260610D02*
Y78410D01*
D237*
X91293Y101631D02*
X91693D01*
X91193Y101531D02*
X91693D01*
X91193Y101431D02*
X91793D01*
X91093Y101331D02*
X91893D01*
X91093Y101231D02*
X91893D01*
X90993Y101131D02*
X91993D01*
X90893Y101031D02*
X92093D01*
X90793Y100931D02*
X92093D01*
X90793Y100831D02*
X92193D01*
X90693Y100731D02*
X92193D01*
X90693Y100631D02*
X92293D01*
X90593Y100531D02*
X92293D01*
X90593Y100431D02*
X92393D01*
X90493Y100331D02*
X92493D01*
X90393Y100231D02*
X92493D01*
X90393Y100131D02*
X92593D01*
X90293Y100031D02*
X92593D01*
X90293Y99931D02*
X92693D01*
X90193Y99831D02*
X92693D01*
X90193Y99731D02*
X92793D01*
X90093Y99631D02*
X92893D01*
X90093Y99531D02*
X92893D01*
X89993Y99431D02*
X92993D01*
X89893Y99331D02*
X92993D01*
X89893Y99231D02*
X93093D01*
X89793Y99131D02*
X93093D01*
X89793Y99031D02*
X93193D01*
X89693Y98931D02*
X93193D01*
X89693Y98831D02*
X93293D01*
X89593Y98731D02*
X93293D01*
X89593Y98631D02*
X93393D01*
X89493Y98531D02*
X93393D01*
X89493Y98431D02*
X93493D01*
X89393Y98331D02*
X93593D01*
X89293Y98231D02*
X93593D01*
X89293Y98131D02*
X93693D01*
X89193Y98031D02*
X93693D01*
X89193Y97931D02*
X93793D01*
X89093Y97831D02*
X93793D01*
X89093Y97731D02*
X93893D01*
X88993Y97631D02*
X93893D01*
X88893Y97531D02*
X93993D01*
X88893Y97431D02*
X93993D01*
X88793Y97331D02*
X94093D01*
X88693Y97231D02*
X94193D01*
X88693Y97131D02*
X94193D01*
X88593Y97031D02*
X94293D01*
X88593Y96931D02*
X94293D01*
X88493Y96831D02*
X94393D01*
X88493Y96731D02*
X91293D01*
X91493D02*
X94393D01*
X88393Y96631D02*
X91293D01*
X91593D02*
X94493D01*
X88393Y96531D02*
X91193D01*
X91593D02*
X94493D01*
X88293Y96431D02*
X91193D01*
X91693D02*
X94593D01*
X88293Y96331D02*
X91093D01*
X91693D02*
X94593D01*
X88193Y96231D02*
X90993D01*
X91793D02*
X94693D01*
X88093Y96131D02*
X90993D01*
X91893D02*
X94793D01*
X88093Y96031D02*
X90893D01*
X91893D02*
X94793D01*
X87993Y95931D02*
X90893D01*
X91893D02*
X94893D01*
X87993Y95831D02*
X90793D01*
X91993D02*
X94893D01*
X87893Y95731D02*
X90793D01*
X92093D02*
X94993D01*
X87893Y95631D02*
X90693D01*
X92093D02*
X94993D01*
X87793Y95531D02*
X90593D01*
X92193D02*
X95093D01*
X87793Y95431D02*
X90593D01*
X92193D02*
X95093D01*
X87693Y95331D02*
X90593D01*
X92293D02*
X95193D01*
X87593Y95231D02*
X90493D01*
X92293D02*
X95293D01*
X87593Y95131D02*
X90393D01*
X92393D02*
X95293D01*
X87493Y95031D02*
X90393D01*
X92493D02*
X95393D01*
X87493Y94931D02*
X90293D01*
X92493D02*
X95393D01*
X87393Y94831D02*
X90193D01*
X92593D02*
X95493D01*
X87393Y94731D02*
X90193D01*
X92593D02*
X95493D01*
X87293Y94631D02*
X90193D01*
X92693D02*
X95593D01*
X87193Y94531D02*
X90093D01*
X92693D02*
X95593D01*
X87193Y94431D02*
X89993D01*
X92793D02*
X95693D01*
X87093Y94331D02*
X89993D01*
X92793D02*
X95693D01*
X87093Y94231D02*
X89893D01*
X92893D02*
X95793D01*
X86993Y94131D02*
X89893D01*
X92993D02*
X95893D01*
X86993Y94031D02*
X89793D01*
X92993D02*
X95893D01*
X86893Y93931D02*
X89793D01*
X93093D02*
X95993D01*
X86893Y93831D02*
X89693D01*
X93093D02*
X95993D01*
X86793Y93731D02*
X89593D01*
X93193D02*
X96093D01*
X86793Y93631D02*
X89593D01*
X93193D02*
X96093D01*
X86693Y93531D02*
X89493D01*
X93293D02*
X96193D01*
X86593Y93431D02*
X89493D01*
X93393D02*
X96193D01*
X86593Y93331D02*
X89393D01*
X93393D02*
X96293D01*
X86493Y93231D02*
X89393D01*
X93393D02*
X96293D01*
X86493Y93131D02*
X89293D01*
X93493D02*
X96393D01*
X86393Y93031D02*
X89193D01*
X93593D02*
X96493D01*
X86393Y92931D02*
X89193D01*
X93593D02*
X96493D01*
X86293Y92831D02*
X89093D01*
X93693D02*
X96593D01*
X86293Y92731D02*
X89093D01*
X93793D02*
X96593D01*
X86193Y92631D02*
X88993D01*
X93793D02*
X96693D01*
X86093Y92531D02*
X88993D01*
X93793D02*
X96693D01*
X86093Y92431D02*
X88893D01*
X93893D02*
X96793D01*
X85993Y92331D02*
X88793D01*
X93993D02*
X96793D01*
X85993Y92231D02*
X88793D01*
X89493D02*
X92893D01*
X93993D02*
X96893D01*
X85893Y92131D02*
X88693D01*
X89293D02*
X92993D01*
X94093D02*
X96893D01*
X85893Y92031D02*
X88693D01*
X89293D02*
X92993D01*
X94093D02*
X96993D01*
X85793Y91931D02*
X88593D01*
X89293D02*
X92993D01*
X94193D02*
X96993D01*
X85693Y91831D02*
X88493D01*
X89293D02*
X92893D01*
X94193D02*
X97093D01*
X85693Y91731D02*
X88493D01*
X89193D02*
X92793D01*
X94293D02*
X97193D01*
X85593Y91631D02*
X88393D01*
X89193D02*
X92793D01*
X94293D02*
X97193D01*
X85593Y91531D02*
X88393D01*
X89193D02*
X92693D01*
X94393D02*
X97293D01*
X85493Y91431D02*
X88293D01*
X89193D02*
X92693D01*
X94493D02*
X97293D01*
X85493Y91331D02*
X88293D01*
X89093D02*
X92593D01*
X94493D02*
X97393D01*
X85393Y91231D02*
X88193D01*
X89093D02*
X92593D01*
X94593D02*
X97393D01*
X85293Y91131D02*
X88193D01*
X89093D02*
X92493D01*
X94593D02*
X97493D01*
X85293Y91031D02*
X88093D01*
X89093D02*
X92493D01*
X94693D02*
X97493D01*
X85193Y90931D02*
X87993D01*
X89093D02*
X92393D01*
X94693D02*
X97593D01*
X85193Y90831D02*
X87993D01*
X88993D02*
X92393D01*
X94793D02*
X97593D01*
X85093Y90731D02*
X87893D01*
X88993D02*
X92293D01*
X94793D02*
X97693D01*
X85093Y90631D02*
X87893D01*
X88993D02*
X92293D01*
X94893D02*
X97793D01*
X84993Y90531D02*
X87793D01*
X88993D02*
X92193D01*
X94993D02*
X97793D01*
X84993Y90431D02*
X87793D01*
X88893D02*
X92193D01*
X94993D02*
X97893D01*
X84893Y90331D02*
X87693D01*
X88893D02*
X92093D01*
X95093D02*
X97893D01*
X84793Y90231D02*
X87593D01*
X88893D02*
X92093D01*
X95093D02*
X97993D01*
X84793Y90131D02*
X87593D01*
X88893D02*
X91993D01*
X95193D02*
X97993D01*
X84693Y90031D02*
X87493D01*
X88793D02*
X91993D01*
X95193D02*
X98093D01*
X84693Y89931D02*
X87393D01*
X88793D02*
X91893D01*
X95293D02*
X98193D01*
X84593Y89831D02*
X87393D01*
X88793D02*
X91793D01*
X95393D02*
X98193D01*
X84593Y89731D02*
X87393D01*
X88793D02*
X91793D01*
X95393D02*
X98293D01*
X84493Y89631D02*
X87293D01*
X88693D02*
X91693D01*
X95493D02*
X98293D01*
X84493Y89531D02*
X87193D01*
X88693D02*
X91693D01*
X95493D02*
X98393D01*
X84393Y89431D02*
X87193D01*
X88693D02*
X91593D01*
X95593D02*
X98393D01*
X84293Y89331D02*
X87093D01*
X88693D02*
X91593D01*
X95593D02*
X98493D01*
X84293Y89231D02*
X87093D01*
X88693D02*
X91593D01*
X95693D02*
X98493D01*
X84193Y89131D02*
X86993D01*
X88693D02*
X91493D01*
X95693D02*
X98593D01*
X84193Y89031D02*
X86993D01*
X88593D02*
X91393D01*
X95793D02*
X98593D01*
X84093Y88931D02*
X86893D01*
X88593D02*
X91393D01*
X95893D02*
X98693D01*
X84093Y88831D02*
X86893D01*
X88593D02*
X91393D01*
X95893D02*
X98693D01*
X83993Y88731D02*
X86793D01*
X88493D02*
X91293D01*
X95993D02*
X98793D01*
X83993Y88631D02*
X86693D01*
X88493D02*
X91193D01*
X95993D02*
X98893D01*
X83893Y88531D02*
X86693D01*
X88493D02*
X91193D01*
X96093D02*
X98893D01*
X83793Y88431D02*
X86593D01*
X88493D02*
X91193D01*
X96093D02*
X98993D01*
X83793Y88331D02*
X86593D01*
X88493D02*
X91093D01*
X96193D02*
X98993D01*
X83693Y88231D02*
X86493D01*
X88393D02*
X90993D01*
X96293D02*
X99093D01*
X83693Y88131D02*
X86493D01*
X88393D02*
X90993D01*
X96293D02*
X99093D01*
X83593Y88031D02*
X86393D01*
X88393D02*
X90893D01*
X96393D02*
X99193D01*
X83593Y87931D02*
X86293D01*
X88293D02*
X90893D01*
X94593D02*
X94693D01*
X96393D02*
X99293D01*
X83493Y87831D02*
X86293D01*
X88293D02*
X90793D01*
X94393D02*
X94793D01*
X96493D02*
X99293D01*
X83493Y87731D02*
X86193D01*
X88293D02*
X90793D01*
X94093D02*
X94793D01*
X96493D02*
X99393D01*
X83393Y87631D02*
X86193D01*
X88293D02*
X90693D01*
X93893D02*
X94693D01*
X96593D02*
X99393D01*
X83393Y87531D02*
X86093D01*
X88293D02*
X90693D01*
X93693D02*
X94693D01*
X96593D02*
X99493D01*
X83293Y87431D02*
X86093D01*
X88193D02*
X90593D01*
X93493D02*
X94693D01*
X96693D02*
X99493D01*
X83193Y87331D02*
X85993D01*
X88193D02*
X90593D01*
X93193D02*
X94593D01*
X96793D02*
X99593D01*
X83193Y87231D02*
X85893D01*
X88193D02*
X90493D01*
X92993D02*
X94593D01*
X96793D02*
X99593D01*
X83093Y87131D02*
X85893D01*
X88193D02*
X90393D01*
X92793D02*
X94593D01*
X96893D02*
X99693D01*
X83093Y87031D02*
X85793D01*
X88093D02*
X90393D01*
X92493D02*
X94493D01*
X96893D02*
X99693D01*
X82993Y86931D02*
X85793D01*
X88093D02*
X90393D01*
X92293D02*
X94493D01*
X96993D02*
X99793D01*
X82993Y86831D02*
X85693D01*
X88093D02*
X90293D01*
X92093D02*
X94393D01*
X96993D02*
X99793D01*
X82893Y86731D02*
X85693D01*
X88093D02*
X90293D01*
X91893D02*
X94393D01*
X97093D02*
X99893D01*
X82793Y86631D02*
X85593D01*
X88093D02*
X90193D01*
X91593D02*
X94393D01*
X97093D02*
X99993D01*
X82793Y86531D02*
X85593D01*
X87993D02*
X90193D01*
X91393D02*
X94393D01*
X97193D02*
X99993D01*
X82693Y86431D02*
X85493D01*
X87993D02*
X90093D01*
X91193D02*
X94293D01*
X97193D02*
X100093D01*
X82693Y86331D02*
X85393D01*
X87993D02*
X90093D01*
X90993D02*
X94293D01*
X97293D02*
X100093D01*
X82593Y86231D02*
X85393D01*
X87993D02*
X89993D01*
X90693D02*
X94193D01*
X97393D02*
X100193D01*
X82593Y86131D02*
X85293D01*
X87893D02*
X89893D01*
X90493D02*
X94193D01*
X97393D02*
X100193D01*
X82493Y86031D02*
X85293D01*
X87893D02*
X89893D01*
X90193D02*
X94193D01*
X97493D02*
X100293D01*
X82493Y85931D02*
X85193D01*
X87893D02*
X89893D01*
X90093D02*
X94093D01*
X97493D02*
X100293D01*
X82393Y85831D02*
X85193D01*
X87893D02*
X94093D01*
X97593D02*
X100393D01*
X82293Y85731D02*
X85093D01*
X87793D02*
X94093D01*
X97593D02*
X100393D01*
X82293Y85631D02*
X84993D01*
X87793D02*
X93993D01*
X97693D02*
X100493D01*
X82193Y85531D02*
X84993D01*
X87793D02*
X93993D01*
X97693D02*
X100593D01*
X82193Y85431D02*
X84893D01*
X87793D02*
X93993D01*
X97793D02*
X100593D01*
X82093Y85331D02*
X84893D01*
X87793D02*
X93893D01*
X97893D02*
X100593D01*
X82093Y85231D02*
X84793D01*
X87693D02*
X93893D01*
X97893D02*
X100693D01*
X81993Y85131D02*
X84793D01*
X87693D02*
X93793D01*
X97993D02*
X100793D01*
X81893Y85031D02*
X84693D01*
X87693D02*
X93793D01*
X97993D02*
X100793D01*
X81893Y84931D02*
X84593D01*
X87693D02*
X93793D01*
X98093D02*
X100893D01*
X81793Y84831D02*
X84593D01*
X87593D02*
X93693D01*
X98093D02*
X100993D01*
X81793Y84731D02*
X84493D01*
X87593D02*
X93693D01*
X98193D02*
X100993D01*
X81693Y84631D02*
X84493D01*
X87593D02*
X93693D01*
X98293D02*
X100993D01*
X81693Y84531D02*
X84393D01*
X87593D02*
X93593D01*
X98293D02*
X101093D01*
X81593Y84431D02*
X84393D01*
X87493D02*
X93593D01*
X98393D02*
X101193D01*
X81593Y84331D02*
X84293D01*
X87493D02*
X91293D01*
X91593D02*
X93593D01*
X98393D02*
X101193D01*
X81493Y84231D02*
X84193D01*
X87493D02*
X91193D01*
X91593D02*
X93493D01*
X98493D02*
X101293D01*
X81493Y84131D02*
X84193D01*
X87493D02*
X90893D01*
X91593D02*
X93493D01*
X98493D02*
X101293D01*
X81393Y84031D02*
X84193D01*
X87393D02*
X90693D01*
X91493D02*
X93493D01*
X98593D02*
X101393D01*
X81393Y83931D02*
X84093D01*
X87393D02*
X90493D01*
X91493D02*
X93393D01*
X98593D02*
X101393D01*
X81293Y83831D02*
X83993D01*
X87393D02*
X90293D01*
X91493D02*
X93393D01*
X98693D02*
X101493D01*
X81193Y83731D02*
X83993D01*
X87393D02*
X90093D01*
X91493D02*
X93293D01*
X98693D02*
X101493D01*
X81193Y83631D02*
X83893D01*
X87393D02*
X89893D01*
X91493D02*
X93293D01*
X98793D02*
X101593D01*
X81093Y83531D02*
X83893D01*
X87393D02*
X89693D01*
X91393D02*
X93293D01*
X98893D02*
X101593D01*
X81093Y83431D02*
X83793D01*
X87293D02*
X89593D01*
X91393D02*
X93293D01*
X98893D02*
X101693D01*
X80993Y83331D02*
X83693D01*
X87293D02*
X89293D01*
X91393D02*
X93193D01*
X98893D02*
X101693D01*
X80893Y83231D02*
X83693D01*
X87293D02*
X89093D01*
X91393D02*
X93193D01*
X98993D02*
X101793D01*
X80893Y83131D02*
X83593D01*
X87193D02*
X88893D01*
X91293D02*
X93093D01*
X99093D02*
X101893D01*
X80793Y83031D02*
X83593D01*
X87193D02*
X88693D01*
X91293D02*
X93093D01*
X99093D02*
X101893D01*
X80793Y82931D02*
X83493D01*
X87193D02*
X88393D01*
X91293D02*
X93093D01*
X99193D02*
X101993D01*
X80693Y82831D02*
X83393D01*
X87193D02*
X88193D01*
X91193D02*
X92993D01*
X99193D02*
X101993D01*
X80593Y82731D02*
X83393D01*
X87193D02*
X87993D01*
X91193D02*
X92993D01*
X99293D02*
X102093D01*
X80593Y82631D02*
X83293D01*
X87093D02*
X87793D01*
X91193D02*
X92993D01*
X99393D02*
X102093D01*
X80593Y82531D02*
X83293D01*
X87093D02*
X87593D01*
X91193D02*
X92893D01*
X99393D02*
X102193D01*
X80493Y82431D02*
X83193D01*
X87193D02*
X87393D01*
X91193D02*
X92893D01*
X99493D02*
X102293D01*
X80393Y82331D02*
X83093D01*
X91093D02*
X92893D01*
X99493D02*
X102293D01*
X80393Y82231D02*
X83093D01*
X89693D02*
X89793D01*
X91093D02*
X92793D01*
X99593D02*
X102393D01*
X80293Y82131D02*
X83093D01*
X89593D02*
X89993D01*
X91093D02*
X92793D01*
X93793D02*
X94093D01*
X99593D02*
X102393D01*
X80293Y82031D02*
X82993D01*
X89593D02*
X90293D01*
X90993D02*
X92693D01*
X93493D02*
X94093D01*
X99693D02*
X102493D01*
X80193Y81931D02*
X82893D01*
X89693D02*
X90593D01*
X90993D02*
X92693D01*
X93093D02*
X94093D01*
X99793D02*
X102493D01*
X80193Y81831D02*
X82893D01*
X89693D02*
X90693D01*
X90893D02*
X92693D01*
X92893D02*
X93893D01*
X99793D02*
X102593D01*
X80093Y81731D02*
X82793D01*
X89793D02*
X93793D01*
X99793D02*
X102593D01*
X80093Y81631D02*
X82793D01*
X89793D02*
X93693D01*
X99893D02*
X102693D01*
X79993Y81531D02*
X82693D01*
X89793D02*
X93593D01*
X99993D02*
X102693D01*
X79893Y81431D02*
X82593D01*
X89893D02*
X93493D01*
X99993D02*
X102793D01*
X79893Y81331D02*
X82593D01*
X89993D02*
X93393D01*
X100093D02*
X102893D01*
X79793Y81231D02*
X82493D01*
X89993D02*
X93293D01*
X100093D02*
X102893D01*
X79793Y81131D02*
X82493D01*
X89993D02*
X93093D01*
X100193D02*
X102893D01*
X79693Y81031D02*
X82393D01*
X90093D02*
X92993D01*
X100193D02*
X102993D01*
X79693Y80931D02*
X82393D01*
X90093D02*
X92893D01*
X100293D02*
X103093D01*
X79593Y80831D02*
X82293D01*
X90193D02*
X92793D01*
X100393D02*
X103093D01*
X79593Y80731D02*
X82293D01*
X90193D02*
X92693D01*
X100393D02*
X103193D01*
X79493Y80631D02*
X82193D01*
X90293D02*
X92593D01*
X100493D02*
X103193D01*
X79393Y80531D02*
X82193D01*
X90293D02*
X92493D01*
X100493D02*
X103293D01*
X79393Y80431D02*
X82093D01*
X90293D02*
X92393D01*
X100593D02*
X103293D01*
X79293Y80331D02*
X81993D01*
X90393D02*
X92193D01*
X100593D02*
X103393D01*
X79293Y80231D02*
X81993D01*
X90393D02*
X92093D01*
X100693D02*
X103393D01*
X79193Y80131D02*
X81893D01*
X90493D02*
X91993D01*
X100793D02*
X103493D01*
X79193Y80031D02*
X81893D01*
X90493D02*
X91893D01*
X100793D02*
X103593D01*
X79093Y79931D02*
X81793D01*
X90593D02*
X91793D01*
X100793D02*
X103593D01*
X79093Y79831D02*
X81793D01*
X90593D02*
X91693D01*
X100893D02*
X103693D01*
X78993Y79731D02*
X81693D01*
X90593D02*
X91593D01*
X100993D02*
X103693D01*
X78893Y79631D02*
X81593D01*
X90693D02*
X91493D01*
X100993D02*
X103793D01*
X78893Y79531D02*
X81593D01*
X90693D02*
X91393D01*
X101093D02*
X103793D01*
X78793Y79431D02*
X81493D01*
X90793D02*
X91193D01*
X101093D02*
X103893D01*
X78793Y79331D02*
X81493D01*
X90793D02*
X91093D01*
X101193D02*
X103993D01*
X78693Y79231D02*
X81393D01*
X101193D02*
X103993D01*
X78693Y79131D02*
X81293D01*
X101293D02*
X104093D01*
X78593Y79031D02*
X81293D01*
X101393D02*
X104093D01*
X78493Y78931D02*
X81393D01*
X101393D02*
X104193D01*
X78493Y78831D02*
X104193D01*
X78393Y78731D02*
X104293D01*
X78393Y78631D02*
X104293D01*
X78293Y78531D02*
X104393D01*
X78293Y78431D02*
X104393D01*
X78193Y78331D02*
X104493D01*
X78093Y78231D02*
X104493D01*
X78093Y78131D02*
X104593D01*
X77993Y78031D02*
X104693D01*
X77993Y77931D02*
X104693D01*
X77893Y77831D02*
X104793D01*
X77893Y77731D02*
X104793D01*
X77793Y77631D02*
X104893D01*
X77793Y77531D02*
X104893D01*
X77693Y77431D02*
X104993D01*
X77593Y77331D02*
X104993D01*
X77593Y77231D02*
X105093D01*
X77493Y77131D02*
X105093D01*
X77393Y76931D02*
X105293D01*
X77393Y76831D02*
X105293D01*
X77293Y76731D02*
X105293D01*
X77293Y76631D02*
X105393D01*
X77393Y76531D02*
X105393D01*
X90793Y79231D02*
X90993D01*
X90793Y79131D02*
X90893D01*
X91393Y101731D02*
X91593D01*
X77493Y77031D02*
X105193D01*
D238*
X94489Y9055D02*
X122638D01*
X94489D02*
Y61811D01*
X122638D01*
Y9055D02*
Y61811D01*
M02*
