G04 Layer_Color=128*
%FSLAX25Y25*%
%MOIN*%
G70*
G01*
G75*
%ADD239C,0.00200*%
D239*
X227559Y117717D02*
X234646D01*
X231102Y114173D02*
Y121260D01*
X350394Y155118D02*
X357480D01*
X353937Y151575D02*
Y158661D01*
X2362Y155118D02*
X9449D01*
X5906Y151575D02*
Y158661D01*
X2362Y33858D02*
X9449D01*
X5906Y30315D02*
Y37402D01*
X52556Y16015D02*
X56099D01*
X54328Y14244D02*
Y17787D01*
X43307Y19382D02*
X46850D01*
X45079Y17610D02*
Y21154D01*
X34058Y22748D02*
X37602D01*
X35830Y20977D02*
Y24520D01*
X256693Y152831D02*
X265693D01*
X261193Y148331D02*
Y157331D01*
X139115Y58692D02*
X146989D01*
X143052Y54755D02*
Y62629D01*
X16800Y74900D02*
X17600D01*
X17200Y74500D02*
Y75300D01*
X16800Y77354D02*
X17600D01*
X17200Y76954D02*
Y77754D01*
X16800Y72500D02*
X17600D01*
X17200Y72100D02*
Y72900D01*
X30600Y132100D02*
X31800D01*
X31200Y131500D02*
Y132700D01*
X16700Y138323D02*
X17500D01*
X17100Y137923D02*
Y138723D01*
X16700Y135869D02*
X17500D01*
X17100Y135469D02*
Y136269D01*
X16700Y133415D02*
X17500D01*
X17100Y133015D02*
Y133815D01*
X16700Y131015D02*
X17500D01*
X17100Y130615D02*
Y131415D01*
X16700Y128561D02*
X17500D01*
X17100Y128162D02*
Y128962D01*
X16700Y126108D02*
X17500D01*
X17100Y125708D02*
Y126508D01*
X16700Y118800D02*
X17500D01*
X17100Y118400D02*
Y119200D01*
X16700Y121254D02*
X17500D01*
X17100Y120854D02*
Y121654D01*
X16700Y123708D02*
X17500D01*
X17100Y123308D02*
Y124108D01*
X16700Y116400D02*
X17500D01*
X17100Y116000D02*
Y116800D01*
X20700Y107800D02*
X21500D01*
X21100Y107400D02*
Y108200D01*
X17000Y97500D02*
X17800D01*
X17400Y97100D02*
Y97900D01*
X17000Y99954D02*
X17800D01*
X17400Y99554D02*
Y100354D01*
X17000Y102408D02*
X17800D01*
X17400Y102008D02*
Y102808D01*
X17000Y95100D02*
X17800D01*
X17400Y94700D02*
Y95500D01*
X81300Y180400D02*
X83100D01*
X82200Y179500D02*
Y181300D01*
X4300Y75100D02*
X5100D01*
X4700Y74700D02*
Y75500D01*
X4300Y70246D02*
X5100D01*
X4700Y69846D02*
Y70646D01*
X4300Y72700D02*
X5100D01*
X4700Y72300D02*
Y73100D01*
X8900Y106300D02*
X9700D01*
X9300Y105900D02*
Y106700D01*
X4046Y106300D02*
X4846D01*
X4446Y105900D02*
Y106700D01*
X6500Y106300D02*
X7300D01*
X6900Y105900D02*
Y106700D01*
X3600Y91700D02*
X4400D01*
X4000Y91300D02*
Y92100D01*
X3600Y99008D02*
X4400D01*
X4000Y98608D02*
Y99408D01*
X3600Y96554D02*
X4400D01*
X4000Y96154D02*
Y96954D01*
X3600Y94100D02*
X4400D01*
X4000Y93700D02*
Y94500D01*
X12500Y106000D02*
X13300D01*
X12900Y105600D02*
Y106400D01*
X15700Y91600D02*
X16500D01*
X16100Y91200D02*
Y92000D01*
X9800Y74300D02*
X10600D01*
X10200Y73900D02*
Y74700D01*
X172900Y61400D02*
X173700D01*
X173300Y61000D02*
Y61800D01*
X171000Y62300D02*
X171800D01*
X171400Y61900D02*
Y62700D01*
X66700Y50400D02*
X67500D01*
X67100Y50000D02*
Y50800D01*
X69700Y50600D02*
X70500D01*
X70100Y50200D02*
Y51000D01*
X72800Y50700D02*
X73600D01*
X73200Y50300D02*
Y51100D01*
X32700Y46700D02*
X33500D01*
X33100Y46300D02*
Y47100D01*
X30200Y50100D02*
X31000D01*
X30600Y49700D02*
Y50500D01*
X22300Y56000D02*
X23100D01*
X22700Y55600D02*
Y56400D01*
X28300Y52300D02*
X29100D01*
X28700Y51900D02*
Y52700D01*
X19552Y52352D02*
X20352D01*
X19952Y51952D02*
Y52752D01*
X21000Y54200D02*
X21800D01*
X21400Y53800D02*
Y54600D01*
X65995Y91500D02*
X66795D01*
X66395Y91100D02*
Y91900D01*
X186765Y106299D02*
X187565D01*
X187165Y105899D02*
Y106699D01*
X186365Y102899D02*
X187165D01*
X186765Y102499D02*
Y103299D01*
X317410Y159255D02*
X318610D01*
X318010Y158655D02*
Y159855D01*
X300187Y172341D02*
X301387D01*
X300787Y171741D02*
Y172941D01*
X303237Y172341D02*
X304437D01*
X303837Y171741D02*
Y172941D01*
X263210Y135528D02*
X264010D01*
X263610Y135128D02*
Y135928D01*
X258300Y137399D02*
X259100D01*
X258700Y136999D02*
Y137799D01*
X257600Y135799D02*
X258400D01*
X258000Y135399D02*
Y136199D01*
X263155Y137131D02*
X263955D01*
X263555Y136731D02*
Y137531D01*
X293394Y147200D02*
X294195D01*
X293794Y146800D02*
Y147600D01*
X313848Y107700D02*
X315048D01*
X314448Y107100D02*
Y108300D01*
X201700Y87399D02*
X202700D01*
X202200Y86899D02*
Y87899D01*
X274100Y22299D02*
X275100D01*
X274600Y21799D02*
Y22799D01*
X228656Y169751D02*
X229856D01*
X229256Y169151D02*
Y170351D01*
X244400Y152499D02*
X245200D01*
X244800Y152099D02*
Y152899D01*
X244890Y147599D02*
X245690D01*
X245290Y147199D02*
Y147999D01*
X246000Y152499D02*
X246800D01*
X246400Y152099D02*
Y152899D01*
X241300Y110499D02*
X243100D01*
X242200Y109599D02*
Y111399D01*
X244300Y110399D02*
X246100D01*
X245200Y109499D02*
Y111299D01*
X276200Y170499D02*
X277000D01*
X276600Y170099D02*
Y170899D01*
X273400Y170699D02*
X274200D01*
X273800Y170299D02*
Y171099D01*
X273300Y168899D02*
X274100D01*
X273700Y168499D02*
Y169299D01*
X245000Y149299D02*
X245800D01*
X245400Y148899D02*
Y149699D01*
X246500Y149999D02*
X247300D01*
X246900Y149599D02*
Y150399D01*
X211796Y171500D02*
X213596D01*
X212696Y170600D02*
Y172400D01*
X135150Y22831D02*
X135950D01*
X135550Y22431D02*
Y23231D01*
X132430Y22831D02*
X133230D01*
X132830Y22431D02*
Y23231D01*
X107300Y36199D02*
X108500D01*
X107900Y35599D02*
Y36799D01*
X146500Y11499D02*
X147300D01*
X146900Y11099D02*
Y11899D01*
X143400Y11499D02*
X144200D01*
X143800Y11099D02*
Y11899D01*
X261565Y41699D02*
X262765D01*
X262165Y41099D02*
Y42299D01*
X261565Y44499D02*
X262765D01*
X262165Y43899D02*
Y45099D01*
X258365Y44499D02*
X259565D01*
X258965Y43899D02*
Y45099D01*
X258365Y41599D02*
X259565D01*
X258965Y40999D02*
Y42199D01*
X280748Y85800D02*
X281948D01*
X281348Y85200D02*
Y86400D01*
X277765Y85699D02*
X278965D01*
X278365Y85099D02*
Y86299D01*
X274765Y85699D02*
X275965D01*
X275365Y85099D02*
Y86299D01*
X294400Y82599D02*
X295400D01*
X294900Y82099D02*
Y83099D01*
X291800Y82599D02*
X292800D01*
X292300Y82099D02*
Y83099D01*
X289300Y82599D02*
X290300D01*
X289800Y82099D02*
Y83099D01*
X286100Y78999D02*
X287100D01*
X286600Y78499D02*
Y79499D01*
X284500Y77099D02*
X285500D01*
X285000Y76599D02*
Y77599D01*
X284500Y74633D02*
X285500D01*
X285000Y74133D02*
Y75133D01*
X284500Y72166D02*
X285500D01*
X285000Y71666D02*
Y72666D01*
X286965Y72166D02*
X287965D01*
X287465Y71666D02*
Y72666D01*
X322465Y30599D02*
X323465D01*
X322965Y30099D02*
Y31099D01*
X324965Y30599D02*
X325965D01*
X325465Y30099D02*
Y31099D01*
X298765Y30399D02*
X299765D01*
X299265Y29899D02*
Y30899D01*
X301165Y30399D02*
X302165D01*
X301665Y29899D02*
Y30899D01*
X296365Y30399D02*
X297365D01*
X296865Y29899D02*
Y30899D01*
X286200Y40999D02*
X287200D01*
X286700Y40499D02*
Y41499D01*
X290665Y37199D02*
X291665D01*
X291165Y36699D02*
Y37699D01*
X288265Y37199D02*
X289265D01*
X288765Y36699D02*
Y37699D01*
X290765Y34799D02*
X291765D01*
X291265Y34299D02*
Y35299D01*
X288292Y34799D02*
X289292D01*
X288792Y34299D02*
Y35299D01*
X285794Y35300D02*
X286794D01*
X286295Y34800D02*
Y35800D01*
X283965Y53999D02*
X284965D01*
X284465Y53499D02*
Y54499D01*
X155100Y24300D02*
X155900D01*
X155500Y23900D02*
Y24700D01*
X152965Y117799D02*
X153765D01*
X153365Y117399D02*
Y118199D01*
X306465Y37299D02*
X307265D01*
X306865Y36899D02*
Y37699D01*
X165865Y96699D02*
X166665D01*
X166265Y96299D02*
Y97099D01*
X170550Y75874D02*
X172350D01*
X171450Y74974D02*
Y76774D01*
X230065Y89599D02*
X231265D01*
X230665Y88999D02*
Y90199D01*
X217665Y142799D02*
X219465D01*
X218565Y141899D02*
Y143699D01*
X221165Y142799D02*
X222965D01*
X222065Y141899D02*
Y143699D01*
X214665Y74999D02*
X216465D01*
X215565Y74099D02*
Y75899D01*
X144465Y77999D02*
X146265D01*
X145365Y77099D02*
Y78899D01*
X144365Y82299D02*
X146165D01*
X145265Y81399D02*
Y83199D01*
X144465Y73899D02*
X146265D01*
X145365Y72999D02*
Y74799D01*
X240365Y129899D02*
X241165D01*
X240765Y129499D02*
Y130299D01*
X242465Y129899D02*
X243265D01*
X242865Y129499D02*
Y130299D01*
X242465Y131799D02*
X243265D01*
X242865Y131399D02*
Y132199D01*
X301165Y35599D02*
X301965D01*
X301565Y35199D02*
Y35999D01*
X301065Y37399D02*
X301865D01*
X301465Y36999D02*
Y37799D01*
X300765Y117899D02*
X301565D01*
X301165Y117499D02*
Y118299D01*
X304393Y119644D02*
X305192D01*
X304792Y119245D02*
Y120045D01*
X24648Y64800D02*
X26448D01*
X25548Y63900D02*
Y65700D01*
X272493Y102483D02*
X273493D01*
X272993Y101983D02*
Y102983D01*
X78493Y159531D02*
X80293D01*
X79393Y158631D02*
Y160431D01*
X87393Y181631D02*
X89193D01*
X88293Y180731D02*
Y182531D01*
X80886Y166056D02*
X82686D01*
X81786Y165156D02*
Y166956D01*
X83648Y163500D02*
X85448D01*
X84548Y162600D02*
Y164400D01*
X211848Y168000D02*
X213648D01*
X212748Y167100D02*
Y168900D01*
X218548Y154800D02*
X220348D01*
X219448Y153900D02*
Y155700D01*
X139648Y157600D02*
X140448D01*
X140048Y157200D02*
Y158000D01*
X138148Y172700D02*
X138948D01*
X138548Y172300D02*
Y173100D01*
X135148Y170400D02*
X135948D01*
X135548Y170000D02*
Y170800D01*
X151330Y25031D02*
X152130D01*
X151730Y24631D02*
Y25431D01*
X143748Y162300D02*
X144548D01*
X144148Y161900D02*
Y162700D01*
X144648Y166200D02*
X145848D01*
X145248Y165600D02*
Y166800D01*
X133848Y177300D02*
X135648D01*
X134748Y176400D02*
Y178200D01*
X137748Y181500D02*
X139548D01*
X138648Y180600D02*
Y182400D01*
X74548Y24300D02*
X76348D01*
X75448Y23400D02*
Y25200D01*
X211165Y74999D02*
X212965D01*
X212065Y74099D02*
Y75899D01*
X212648Y79100D02*
X213448D01*
X213048Y78700D02*
Y79500D01*
X71348Y24300D02*
X73148D01*
X72248Y23400D02*
Y25200D01*
X170500Y144899D02*
X171300D01*
X170900Y144499D02*
Y145299D01*
X170548Y136800D02*
X171348D01*
X170948Y136400D02*
Y137200D01*
X154348Y155647D02*
X155148D01*
X154748Y155247D02*
Y156047D01*
X154348Y157723D02*
X155148D01*
X154748Y157324D02*
Y158124D01*
X154348Y168000D02*
X155148D01*
X154748Y167600D02*
Y168400D01*
X154448Y170350D02*
X155248D01*
X154848Y169950D02*
Y170750D01*
X152065Y171600D02*
X152865D01*
X152465Y171200D02*
Y172000D01*
X168948Y175300D02*
X169748D01*
X169348Y174900D02*
Y175700D01*
X164865Y172084D02*
X165665D01*
X165265Y171684D02*
Y172484D01*
X164865Y168200D02*
X165665D01*
X165265Y167800D02*
Y168600D01*
X171248Y175300D02*
X172048D01*
X171648Y174900D02*
Y175700D01*
X208748Y147200D02*
X210548D01*
X209648Y146300D02*
Y148100D01*
X205848Y169300D02*
X207048D01*
X206448Y168700D02*
Y169900D01*
X188148Y174700D02*
X189948D01*
X189048Y173800D02*
Y175600D01*
X169450Y112574D02*
X170250D01*
X169850Y112174D02*
Y112974D01*
X167948Y122100D02*
X168748D01*
X168348Y121700D02*
Y122500D01*
X221748Y87100D02*
X223548D01*
X222648Y86200D02*
Y88000D01*
X237348Y106200D02*
X239148D01*
X238248Y105300D02*
Y107100D01*
X307048Y132800D02*
X307848D01*
X307448Y132400D02*
Y133200D01*
X302848Y132100D02*
X303648D01*
X303248Y131700D02*
Y132500D01*
X302748Y129600D02*
X303548D01*
X303148Y129200D02*
Y130000D01*
X322800Y72199D02*
X323800D01*
X323300Y71699D02*
Y72699D01*
X326700Y72099D02*
X327700D01*
X327200Y71599D02*
Y72599D01*
X324348Y64800D02*
X325348D01*
X324848Y64300D02*
Y65300D01*
X319148Y63600D02*
X320148D01*
X319648Y63100D02*
Y64100D01*
X313693Y64083D02*
X314493D01*
X314093Y63683D02*
Y64483D01*
X260887Y27878D02*
X261687D01*
X261287Y27478D02*
Y28278D01*
X258919Y29557D02*
X259719D01*
X259319Y29158D02*
Y29958D01*
X243893Y26484D02*
X244693D01*
X244293Y26083D02*
Y26884D01*
X211348Y47300D02*
X212148D01*
X211748Y46900D02*
Y47700D01*
X210750Y49669D02*
X211550D01*
X211150Y49269D02*
Y50069D01*
X218593Y42184D02*
X219393D01*
X218993Y41783D02*
Y42584D01*
X229693Y52210D02*
X230493D01*
X230093Y51810D02*
Y52610D01*
X228393Y40584D02*
X229193D01*
X228793Y40183D02*
Y40984D01*
X231793Y36983D02*
X232593D01*
X232193Y36584D02*
Y37383D01*
X230093Y39083D02*
X230893D01*
X230493Y38684D02*
Y39483D01*
X284148Y38800D02*
X285148D01*
X284648Y38300D02*
Y39300D01*
X286148Y60100D02*
X287148D01*
X286648Y59600D02*
Y60600D01*
X286148Y56600D02*
X287148D01*
X286648Y56100D02*
Y57100D01*
X286148Y49600D02*
X287148D01*
X286648Y49100D02*
Y50100D01*
X286148Y46100D02*
X287148D01*
X286648Y45600D02*
Y46600D01*
X323748Y57700D02*
X324748D01*
X324248Y57200D02*
Y58200D01*
X286644Y63427D02*
X287844D01*
X287244Y62827D02*
Y64027D01*
X296948Y59600D02*
X298148D01*
X297548Y59000D02*
Y60200D01*
X295450Y67000D02*
X296450D01*
X295950Y66500D02*
Y67500D01*
X297800Y65599D02*
X298800D01*
X298300Y65099D02*
Y66099D01*
X300100Y65599D02*
X301100D01*
X300600Y65099D02*
Y66099D01*
X298148Y52100D02*
X298948D01*
X298548Y51700D02*
Y52500D01*
X309248Y33700D02*
X310048D01*
X309648Y33300D02*
Y34100D01*
X307148Y33700D02*
X307948D01*
X307548Y33300D02*
Y34100D01*
X332648Y33200D02*
X334448D01*
X333548Y32300D02*
Y34100D01*
X329048Y54400D02*
X330048D01*
X329548Y53900D02*
Y54900D01*
X344248Y124200D02*
X345448D01*
X344848Y123600D02*
Y124800D01*
X344248Y128550D02*
X345448D01*
X344848Y127950D02*
Y129150D01*
X344248Y132900D02*
X345448D01*
X344848Y132300D02*
Y133500D01*
X353948Y121800D02*
X355148D01*
X354548Y121200D02*
Y122400D01*
X116648Y7700D02*
X117848D01*
X117248Y7100D02*
Y8300D01*
X275893Y102884D02*
X276893D01*
X276393Y102383D02*
Y103384D01*
X280750Y100983D02*
X281750D01*
X281250Y100483D02*
Y101483D01*
X172750Y94283D02*
X173550D01*
X173150Y93883D02*
Y94683D01*
X201250Y133974D02*
X202050D01*
X201650Y133574D02*
Y134374D01*
X201200Y137974D02*
X202000D01*
X201600Y137574D02*
Y138374D01*
X201250Y139974D02*
X202050D01*
X201650Y139574D02*
Y140374D01*
X201250Y142274D02*
X202050D01*
X201650Y141874D02*
Y142674D01*
X217565Y146399D02*
X219365D01*
X218465Y145499D02*
Y147299D01*
X201250Y131974D02*
X202050D01*
X201650Y131574D02*
Y132374D01*
X192600Y126599D02*
X193400D01*
X193000Y126199D02*
Y126999D01*
X192600Y128819D02*
X193400D01*
X193000Y128419D02*
Y129219D01*
X192050Y109283D02*
X192850D01*
X192450Y108883D02*
Y109683D01*
X186550Y122083D02*
X187350D01*
X186950Y121683D02*
Y122483D01*
X45264Y142899D02*
X46465D01*
X45865Y142299D02*
Y143500D01*
X46750Y136674D02*
X47550D01*
X47150Y136274D02*
Y137074D01*
X250450Y88983D02*
X251650D01*
X251050Y88383D02*
Y89583D01*
X195330Y38983D02*
X196130D01*
X195730Y38583D02*
Y39383D01*
X189650Y125883D02*
X190450D01*
X190050Y125483D02*
Y126283D01*
X285550Y112383D02*
X286750D01*
X286150Y111783D02*
Y112983D01*
X294950Y178083D02*
X296750D01*
X295850Y177183D02*
Y178983D01*
X240415Y131799D02*
X241215D01*
X240815Y131399D02*
Y132199D01*
X181750Y122074D02*
X182550D01*
X182150Y121674D02*
Y122474D01*
X177250Y122074D02*
X178050D01*
X177650Y121674D02*
Y122474D01*
X172450Y122083D02*
X173250D01*
X172850Y121683D02*
Y122483D01*
X168500Y149099D02*
X169300D01*
X168900Y148699D02*
Y149499D01*
X171800Y149974D02*
X172600D01*
X172200Y149574D02*
Y150374D01*
X29850Y164683D02*
X31650D01*
X30750Y163783D02*
Y165583D01*
X25993Y164831D02*
X27793D01*
X26893Y163931D02*
Y165731D01*
X149730Y22831D02*
X150530D01*
X150130Y22431D02*
Y23231D01*
X144293Y25031D02*
X145093D01*
X144693Y24631D02*
Y25431D01*
X136693Y5384D02*
X137493D01*
X137093Y4984D02*
Y5784D01*
X138700Y9199D02*
X139500D01*
X139100Y8799D02*
Y9599D01*
X219393Y8884D02*
X221193D01*
X220293Y7983D02*
Y9783D01*
X221493Y24284D02*
X222293D01*
X221893Y23884D02*
Y24683D01*
X207730Y31183D02*
X208530D01*
X208130Y30783D02*
Y31583D01*
X206130Y32683D02*
X206930D01*
X206530Y32283D02*
Y33083D01*
X233348Y22800D02*
X234148D01*
X233748Y22400D02*
Y23200D01*
X262646Y26030D02*
X263446D01*
X263046Y25631D02*
Y26430D01*
X243893Y28883D02*
X244693D01*
X244293Y28484D02*
Y29283D01*
X243793Y31284D02*
X244593D01*
X244193Y30883D02*
Y31683D01*
X233293Y34683D02*
X234093D01*
X233693Y34284D02*
Y35083D01*
X235293Y21584D02*
X236093D01*
X235693Y21183D02*
Y21983D01*
X237265Y20211D02*
X238065D01*
X237665Y19811D02*
Y20611D01*
X40893Y26384D02*
X42093D01*
X41493Y25784D02*
Y26983D01*
X248050Y177974D02*
X248850D01*
X248450Y177574D02*
Y178374D01*
X248050Y176174D02*
X248850D01*
X248450Y175774D02*
Y176574D01*
X172748Y140200D02*
X173548D01*
X173148Y139800D02*
Y140600D01*
X352948Y6800D02*
X353948D01*
X353448Y6300D02*
Y7300D01*
X339515Y2500D02*
X340515D01*
X340015Y2000D02*
Y3000D01*
X342131Y2500D02*
X343131D01*
X342631Y2000D02*
Y3000D01*
X344748Y2500D02*
X345748D01*
X345248Y2000D02*
Y3000D01*
X350548Y5100D02*
X351548D01*
X351048Y4600D02*
Y5600D01*
X306948Y8900D02*
X307948D01*
X307448Y8400D02*
Y9400D01*
X309348Y8900D02*
X310348D01*
X309848Y8400D02*
Y9400D01*
X347948Y3700D02*
X348948D01*
X348448Y3200D02*
Y4200D01*
X333448Y50250D02*
X334448D01*
X333948Y49750D02*
Y50750D01*
X333448Y52700D02*
X334448D01*
X333948Y52200D02*
Y53200D01*
X333448Y47800D02*
X334448D01*
X333948Y47300D02*
Y48300D01*
X336898Y2500D02*
X337898D01*
X337398Y2000D02*
Y3000D01*
X331781Y18262D02*
X332781D01*
X332281Y17762D02*
Y18762D01*
X331829Y15697D02*
X332829D01*
X332329Y15197D02*
Y16197D01*
X334515Y18262D02*
X335515D01*
X335015Y17762D02*
Y18762D01*
X329048Y13000D02*
X330048D01*
X329548Y12500D02*
Y13500D01*
X329048Y15700D02*
X330048D01*
X329548Y15200D02*
Y16200D01*
X334281Y2500D02*
X335281D01*
X334781Y2000D02*
Y3000D01*
X329048Y4900D02*
X330048D01*
X329548Y4400D02*
Y5400D01*
X329048Y10300D02*
X330048D01*
X329548Y9800D02*
Y10800D01*
X331665Y2500D02*
X332665D01*
X332165Y2000D02*
Y3000D01*
X329048Y2500D02*
X330048D01*
X329548Y2000D02*
Y3000D01*
X329048Y7600D02*
X330048D01*
X329548Y7100D02*
Y8100D01*
X126850Y72999D02*
X127850D01*
X127350Y72499D02*
Y73499D01*
X129300Y72999D02*
X130300D01*
X129800Y72499D02*
Y73499D01*
X132290Y72999D02*
X133290D01*
X132790Y72499D02*
Y73499D01*
X135210Y72999D02*
X136210D01*
X135710Y72499D02*
Y73499D01*
X138130Y72999D02*
X139130D01*
X138630Y72499D02*
Y73499D01*
X140800Y72999D02*
X141800D01*
X141300Y72499D02*
Y73499D01*
X126850Y61566D02*
X127850D01*
X127350Y61066D02*
Y62066D01*
X126850Y47274D02*
X127850D01*
X127350Y46774D02*
Y47774D01*
X126850Y50132D02*
X127850D01*
X127350Y49632D02*
Y50632D01*
X126850Y55849D02*
X127850D01*
X127350Y55349D02*
Y56349D01*
X126850Y58707D02*
X127850D01*
X127350Y58207D02*
Y59207D01*
X126850Y64424D02*
X127850D01*
X127350Y63924D02*
Y64924D01*
X126850Y67282D02*
X127850D01*
X127350Y66782D02*
Y67782D01*
X126850Y70141D02*
X127850D01*
X127350Y69641D02*
Y70641D01*
X33850Y136774D02*
X35050D01*
X34450Y136174D02*
Y137374D01*
X27300Y135099D02*
X28500D01*
X27900Y134499D02*
Y135699D01*
X13448Y185602D02*
X14648D01*
X14048Y185002D02*
Y186202D01*
X30850Y147774D02*
X32050D01*
X31450Y147174D02*
Y148374D01*
X37374Y152087D02*
X38574D01*
X37974Y151487D02*
Y152687D01*
X37469Y154950D02*
X38669D01*
X38069Y154350D02*
Y155550D01*
X130600Y45099D02*
X131600D01*
X131100Y44599D02*
Y45599D01*
X133170Y45099D02*
X134170D01*
X133670Y44599D02*
Y45599D01*
X135780Y45099D02*
X136780D01*
X136280Y44599D02*
Y45599D01*
X138390Y45099D02*
X139390D01*
X138890Y44599D02*
Y45599D01*
X143610Y45099D02*
X144610D01*
X144110Y44599D02*
Y45599D01*
X146220Y45099D02*
X147220D01*
X146720Y44599D02*
Y45599D01*
X151440Y45099D02*
X152440D01*
X151940Y44599D02*
Y45599D01*
X141000Y45099D02*
X142000D01*
X141500Y44599D02*
Y45599D01*
X148830Y45099D02*
X149830D01*
X149330Y44599D02*
Y45599D01*
X156450Y68454D02*
X157450D01*
X156950Y67954D02*
Y68954D01*
X156450Y65844D02*
X157450D01*
X156950Y65344D02*
Y66344D01*
X156450Y63234D02*
X157450D01*
X156950Y62734D02*
Y63734D01*
X156450Y60624D02*
X157450D01*
X156950Y60124D02*
Y61124D01*
X156450Y52794D02*
X157450D01*
X156950Y52294D02*
Y53294D01*
X129300Y52991D02*
X130300D01*
X129800Y52491D02*
Y53491D01*
X129300Y61566D02*
X130300D01*
X129800Y61066D02*
Y62066D01*
X129300Y47274D02*
X130300D01*
X129800Y46774D02*
Y47774D01*
X129300Y55849D02*
X130300D01*
X129800Y55349D02*
Y56349D01*
X129300Y58707D02*
X130300D01*
X129800Y58207D02*
Y59207D01*
X129300Y64424D02*
X130300D01*
X129800Y63924D02*
Y64924D01*
X129300Y67282D02*
X130300D01*
X129800Y66782D02*
Y67782D01*
X129300Y70141D02*
X130300D01*
X129800Y69641D02*
Y70641D01*
X22374Y185602D02*
X23574D01*
X22974Y185002D02*
Y186202D01*
X19474Y185602D02*
X20674D01*
X20074Y185002D02*
Y186202D01*
X16574Y185602D02*
X17774D01*
X17174Y185002D02*
Y186202D01*
X353448Y33700D02*
X354448D01*
X353948Y33200D02*
Y34200D01*
X356448Y33700D02*
X357448D01*
X356948Y33200D02*
Y34200D01*
X345748Y37223D02*
X346748D01*
X346248Y36723D02*
Y37723D01*
X345748Y39746D02*
X346748D01*
X346248Y39246D02*
Y40246D01*
X345748Y42269D02*
X346748D01*
X346248Y41769D02*
Y42769D01*
X345748Y44792D02*
X346748D01*
X346248Y44292D02*
Y45292D01*
X345748Y47315D02*
X346748D01*
X346248Y46815D02*
Y47815D01*
X345748Y49838D02*
X346748D01*
X346248Y49338D02*
Y50338D01*
X342257Y75900D02*
X343257D01*
X342757Y75400D02*
Y76400D01*
X295450Y77481D02*
X296450D01*
X295950Y76981D02*
Y77981D01*
X295450Y74862D02*
X296450D01*
X295950Y74362D02*
Y75362D01*
X317350Y75900D02*
X318350D01*
X317850Y75400D02*
Y76400D01*
X314750Y80200D02*
X315750D01*
X315250Y79700D02*
Y80700D01*
X154448Y172700D02*
X155248D01*
X154848Y172300D02*
Y173100D01*
X178500Y139499D02*
X179300D01*
X178900Y139099D02*
Y139899D01*
X199700Y168299D02*
X200500D01*
X200100Y167899D02*
Y168699D01*
X249800Y136199D02*
X250600D01*
X250200Y135799D02*
Y136599D01*
X56552Y148892D02*
X57352D01*
X56952Y148492D02*
Y149292D01*
X221065Y146499D02*
X222865D01*
X221965Y145599D02*
Y147399D01*
X160780Y106483D02*
X162080D01*
X161430Y105833D02*
Y107133D01*
X154750Y106983D02*
X155550D01*
X155150Y106583D02*
Y107383D01*
X164293Y95331D02*
X165093D01*
X164693Y94931D02*
Y95731D01*
X311993Y65083D02*
X312793D01*
X312393Y64683D02*
Y65483D01*
X234506Y155331D02*
X235306D01*
X234906Y154931D02*
Y155731D01*
X68952Y154992D02*
X69752D01*
X69352Y154592D02*
Y155392D01*
X65852Y151992D02*
X66652D01*
X66252Y151592D02*
Y152392D01*
X62952Y148992D02*
X63752D01*
X63352Y148592D02*
Y149392D01*
X71850Y178074D02*
X72650D01*
X72250Y177674D02*
Y178474D01*
X317350Y78574D02*
X318350D01*
X317850Y78074D02*
Y79074D01*
X344748Y75900D02*
X345748D01*
X345248Y75400D02*
Y76400D01*
X344795Y73800D02*
X345795D01*
X345294Y73300D02*
Y74300D01*
X345748Y34700D02*
X346748D01*
X346248Y34200D02*
Y35200D01*
X350600Y33699D02*
X351600D01*
X351100Y33199D02*
Y34199D01*
X345748Y52362D02*
X346748D01*
X346248Y51862D02*
Y52861D01*
X335948Y47800D02*
X336948D01*
X336448Y47300D02*
Y48300D01*
X337248Y45700D02*
X338248D01*
X337748Y45200D02*
Y46200D01*
X295450Y69599D02*
X296450D01*
X295950Y69099D02*
Y70099D01*
X60165Y9699D02*
X61965D01*
X61065Y8799D02*
Y10599D01*
X251293Y19831D02*
X252093D01*
X251693Y19431D02*
Y20231D01*
X243348Y19500D02*
X244348D01*
X243848Y19000D02*
Y20000D01*
X109793Y48331D02*
X110593D01*
X110193Y47931D02*
Y48731D01*
X245793Y172083D02*
X247593D01*
X246693Y171183D02*
Y172983D01*
X277300Y171799D02*
X278100D01*
X277700Y171399D02*
Y172199D01*
X274777Y186315D02*
X275577D01*
X275177Y185915D02*
Y186715D01*
X345748Y54885D02*
X346748D01*
X346248Y54385D02*
Y55385D01*
X331548Y54400D02*
X332548D01*
X332048Y53900D02*
Y54900D01*
X345748Y57408D02*
X346748D01*
X346248Y56908D02*
Y57908D01*
X345748Y59931D02*
X346748D01*
X346248Y59431D02*
Y60431D01*
X345748Y62454D02*
X346748D01*
X346248Y61954D02*
Y62954D01*
X345748Y64977D02*
X346748D01*
X346248Y64477D02*
Y65477D01*
X269793Y169169D02*
X270593D01*
X270193Y168769D02*
Y169569D01*
X261793Y168331D02*
X262593D01*
X262193Y167931D02*
Y168731D01*
X248576Y23114D02*
X250376D01*
X249476Y22214D02*
Y24014D01*
X267048Y124200D02*
X267848D01*
X267448Y123800D02*
Y124600D01*
X245300Y154099D02*
X246100D01*
X245700Y153699D02*
Y154499D01*
X228793Y21083D02*
X229993D01*
X229393Y20483D02*
Y21684D01*
X145793Y89331D02*
X146593D01*
X146193Y88931D02*
Y89731D01*
X296448Y151100D02*
X297248D01*
X296848Y150700D02*
Y151500D01*
X93948Y7100D02*
X95148D01*
X94548Y6500D02*
Y7700D01*
X83793Y62831D02*
X84593D01*
X84193Y62431D02*
Y63231D01*
X118930Y114083D02*
X119730D01*
X119330Y113683D02*
Y114483D01*
X124293Y117831D02*
X125093D01*
X124693Y117431D02*
Y118231D01*
X83830Y79783D02*
X84630D01*
X84230Y79383D02*
Y80183D01*
X191293Y60831D02*
X192093D01*
X191693Y60431D02*
Y61231D01*
X190793Y50331D02*
X191593D01*
X191193Y49931D02*
Y50731D01*
X191793Y48331D02*
X192593D01*
X192193Y47931D02*
Y48731D01*
X191330Y38983D02*
X192130D01*
X191730Y38583D02*
Y39383D01*
X194793Y45331D02*
X195593D01*
X195193Y44931D02*
Y45731D01*
X193293Y46831D02*
X194093D01*
X193693Y46431D02*
Y47231D01*
X95493Y40963D02*
X96293D01*
X95893Y40563D02*
Y41363D01*
X152793Y106331D02*
X153593D01*
X153193Y105931D02*
Y106731D01*
X269793Y173831D02*
X270593D01*
X270193Y173431D02*
Y174231D01*
X41752Y122392D02*
X42552D01*
X42152Y121992D02*
Y122792D01*
X63994Y111167D02*
X64794D01*
X64394Y110767D02*
Y111567D01*
X152948Y111300D02*
X153748D01*
X153348Y110900D02*
Y111700D01*
X204830Y34283D02*
X205630D01*
X205230Y33883D02*
Y34683D01*
X201130Y37383D02*
X201930D01*
X201530Y36983D02*
Y37783D01*
X264750Y100274D02*
X265750D01*
X265250Y99774D02*
Y100774D01*
X141387Y115284D02*
X142387D01*
X141887Y114784D02*
Y115784D01*
X62538Y90499D02*
X63338D01*
X62938Y90099D02*
Y90899D01*
X66992Y94953D02*
X67792D01*
X67392Y94553D02*
Y95353D01*
X71446Y99407D02*
X72246D01*
X71846Y99007D02*
Y99807D01*
X84809Y112770D02*
X85609D01*
X85209Y112370D02*
Y113170D01*
X82752Y110392D02*
X83552D01*
X83152Y109992D02*
Y110792D01*
X78888Y116292D02*
X79688D01*
X79288Y115892D02*
Y116692D01*
X72130Y131783D02*
X72930D01*
X72530Y131383D02*
Y132183D01*
X83484Y120637D02*
X84284D01*
X83884Y120237D02*
Y121037D01*
X95859Y123991D02*
X96659D01*
X96259Y123591D02*
Y124391D01*
X107452Y105792D02*
X108252D01*
X107852Y105392D02*
Y106192D01*
X93717Y121678D02*
X94517D01*
X94117Y121278D02*
Y122078D01*
X81030Y136414D02*
X81830D01*
X81430Y136014D02*
Y136814D01*
X81052Y123192D02*
X81852D01*
X81452Y122792D02*
Y123592D01*
X74525Y142759D02*
X75325D01*
X74925Y142359D02*
Y143159D01*
X62234Y130890D02*
X63034D01*
X62634Y130490D02*
Y131290D01*
X68311Y113092D02*
X69111D01*
X68711Y112692D02*
Y113492D01*
X63332Y123112D02*
X64132D01*
X63732Y122712D02*
Y123512D01*
X66548Y135486D02*
X67348D01*
X66948Y135086D02*
Y135886D01*
X60152Y142392D02*
X60952D01*
X60552Y141992D02*
Y142792D01*
X56740Y116804D02*
X57540D01*
X57140Y116404D02*
Y117204D01*
X46611Y115334D02*
X47411D01*
X47011Y114934D02*
Y115734D01*
X28852Y105792D02*
X29652D01*
X29252Y105392D02*
Y106192D01*
X31652Y109092D02*
X32452D01*
X32052Y108692D02*
Y109492D01*
X37652Y115092D02*
X38452D01*
X38052Y114692D02*
Y115492D01*
X42118Y110918D02*
X42918D01*
X42518Y110518D02*
Y111318D01*
X50957Y119896D02*
X51757D01*
X51357Y119496D02*
Y120296D01*
X34552Y112092D02*
X35352D01*
X34952Y111692D02*
Y112492D01*
X38652Y126092D02*
X39452D01*
X39052Y125692D02*
Y126492D01*
X42052Y129292D02*
X42852D01*
X42452Y128892D02*
Y129692D01*
X45052Y132292D02*
X45852D01*
X45452Y131892D02*
Y132692D01*
X44530Y112983D02*
X45330D01*
X44930Y112583D02*
Y113383D01*
X69220Y97180D02*
X70020D01*
X69620Y96780D02*
Y97580D01*
X80355Y108316D02*
X81155D01*
X80755Y107916D02*
Y108716D01*
X87020Y115014D02*
X87820D01*
X87420Y114614D02*
Y115414D01*
X91491Y119451D02*
X92291D01*
X91891Y119051D02*
Y119851D01*
X64392Y133187D02*
X65192D01*
X64792Y132787D02*
Y133587D01*
X74756Y134358D02*
X75556D01*
X75156Y133958D02*
Y134758D01*
X89263Y117224D02*
X90063D01*
X89663Y116824D02*
Y117624D01*
X78703Y138630D02*
X79503D01*
X79103Y138230D02*
Y139030D01*
X72330Y105314D02*
X73130D01*
X72730Y104914D02*
Y105714D01*
X75252Y117792D02*
X76052D01*
X75652Y117392D02*
Y118192D01*
X61005Y120796D02*
X61805D01*
X61405Y120396D02*
Y121196D01*
X30252Y122392D02*
X31052D01*
X30652Y121992D02*
Y122792D01*
X61210Y125233D02*
X62010D01*
X61610Y124833D02*
Y125633D01*
X48836Y117564D02*
X49636D01*
X49236Y117164D02*
Y117964D01*
X94294Y127477D02*
X95094D01*
X94694Y127077D02*
Y127877D01*
X50940Y141604D02*
X51740D01*
X51340Y141204D02*
Y142004D01*
X59552Y151892D02*
X60552D01*
X60052Y151392D02*
Y152392D01*
X77652Y145292D02*
X78452D01*
X78052Y144892D02*
Y145692D01*
X107543Y79831D02*
X108843D01*
X108193Y79181D02*
Y80481D01*
X63590Y113330D02*
X64390D01*
X63990Y112930D02*
Y113730D01*
X58752Y128892D02*
X59552D01*
X59152Y128492D02*
Y129292D01*
X126880Y90083D02*
X128180D01*
X127530Y89433D02*
Y90733D01*
X110902Y95183D02*
X112202D01*
X111552Y94533D02*
Y95833D01*
X154648Y112800D02*
X155448D01*
X155048Y112400D02*
Y113200D01*
X130580Y95183D02*
X131880D01*
X131230Y94533D02*
Y95833D01*
X141580Y95183D02*
X142880D01*
X142230Y94533D02*
Y95833D01*
X159939Y138505D02*
X160739D01*
X160339Y138105D02*
Y138905D01*
X159948Y130088D02*
X160748D01*
X160348Y129688D02*
Y130488D01*
X159956Y134138D02*
X161256D01*
X160606Y133488D02*
Y134788D01*
X159085Y142618D02*
X160385D01*
X159735Y141968D02*
Y143268D01*
X269793Y171331D02*
X270593D01*
X270193Y170931D02*
Y171731D01*
X91000Y46923D02*
X92800D01*
X91900Y46023D02*
Y47823D01*
X152930Y22831D02*
X153730D01*
X153330Y22431D02*
Y23231D01*
X191293Y25957D02*
X192093D01*
X191693Y25557D02*
Y26357D01*
X196793Y43831D02*
X197593D01*
X197193Y43431D02*
Y44231D01*
X199544Y40582D02*
X200344D01*
X199944Y40182D02*
Y40982D01*
X191293Y87831D02*
X192093D01*
X191693Y87431D02*
Y88231D01*
X107543Y65831D02*
X108843D01*
X108193Y65181D02*
Y66481D01*
X151324Y90799D02*
X153124D01*
X152224Y89899D02*
Y91699D01*
X284348Y28600D02*
X285148D01*
X284748Y28200D02*
Y29000D01*
X159952Y125892D02*
X160752D01*
X160352Y125492D02*
Y126292D01*
X245293Y161831D02*
X246093D01*
X245693Y161431D02*
Y162231D01*
X78800Y42999D02*
X79800D01*
X79300Y42499D02*
Y43499D01*
X245100Y156768D02*
X245900D01*
X245500Y156368D02*
Y157168D01*
X70503Y139515D02*
X71303D01*
X70903Y139115D02*
Y139915D01*
X68880Y137607D02*
X69680D01*
X69280Y137207D02*
Y138007D01*
X189989Y81527D02*
X190789D01*
X190389Y81127D02*
Y81927D01*
X256293Y168331D02*
X257093D01*
X256693Y167931D02*
Y168731D01*
X254793Y168331D02*
X255593D01*
X255193Y167931D02*
Y168731D01*
X171500Y55423D02*
X173300D01*
X172400Y54523D02*
Y56323D01*
X174700Y59700D02*
X175500D01*
X175100Y59300D02*
Y60100D01*
X175093Y65331D02*
X175893D01*
X175493Y64931D02*
Y65731D01*
X345748Y67500D02*
X346748D01*
X346248Y67000D02*
Y68000D01*
X30993Y135331D02*
X32193D01*
X31593Y134731D02*
Y135931D01*
X170500Y148199D02*
X171300D01*
X170900Y147799D02*
Y148599D01*
X198150Y42174D02*
X198950D01*
X198550Y41774D02*
Y42574D01*
X202930Y35883D02*
X203730D01*
X203330Y35483D02*
Y36283D01*
X202600Y169649D02*
X203400D01*
X203000Y169249D02*
Y170049D01*
X178850Y136874D02*
X179650D01*
X179250Y136474D02*
Y137274D01*
X173050Y107674D02*
X174050D01*
X173550Y107174D02*
Y108174D01*
X170193Y107331D02*
X171193D01*
X170693Y106831D02*
Y107831D01*
X171548Y169961D02*
X172348D01*
X171948Y169561D02*
Y170361D01*
X169865Y168374D02*
X170665D01*
X170265Y167974D02*
Y168774D01*
X190450Y163074D02*
X191250D01*
X190850Y162674D02*
Y163474D01*
X188450Y154524D02*
X189250D01*
X188850Y154124D02*
Y154924D01*
X190450Y157474D02*
X191250D01*
X190850Y157074D02*
Y157874D01*
X190450Y155374D02*
X191250D01*
X190850Y154974D02*
Y155774D01*
X203350Y149474D02*
X204550D01*
X203950Y148874D02*
Y150074D01*
X201150Y154174D02*
X201950D01*
X201550Y153774D02*
Y154574D01*
X201150Y156274D02*
X201950D01*
X201550Y155874D02*
Y156674D01*
X201150Y158474D02*
X201950D01*
X201550Y158074D02*
Y158874D01*
X201150Y160774D02*
X201950D01*
X201550Y160374D02*
Y161174D01*
X202600Y167499D02*
X203400D01*
X203000Y167099D02*
Y167899D01*
X59952Y146092D02*
X60752D01*
X60352Y145692D02*
Y146492D01*
X53550Y144232D02*
X55350D01*
X54450Y143333D02*
Y145133D01*
X190450Y169474D02*
X191250D01*
X190850Y169074D02*
Y169874D01*
X190450Y153374D02*
X191250D01*
X190850Y152974D02*
Y153774D01*
X190450Y151374D02*
X191250D01*
X190850Y150974D02*
Y151774D01*
X188450Y150874D02*
X189250D01*
X188850Y150474D02*
Y151274D01*
X186900Y149474D02*
X187700D01*
X187300Y149074D02*
Y149874D01*
X191400Y147999D02*
X192200D01*
X191800Y147599D02*
Y148399D01*
X201150Y149274D02*
X201950D01*
X201550Y148874D02*
Y149674D01*
X62452Y154892D02*
X63452D01*
X62952Y154392D02*
Y155392D01*
X65452Y157892D02*
X66452D01*
X65952Y157392D02*
Y158392D01*
X68852Y161092D02*
X69652D01*
X69252Y160692D02*
Y161492D01*
X52250Y162174D02*
X53450D01*
X52850Y161574D02*
Y162774D01*
X152065Y169100D02*
X152865D01*
X152465Y168700D02*
Y169500D01*
X110150Y182574D02*
X111950D01*
X111050Y181674D02*
Y183474D01*
X23950Y154174D02*
X25150D01*
X24550Y153574D02*
Y154774D01*
X50884Y146750D02*
X52684D01*
X51784Y145850D02*
Y147650D01*
X202600Y165349D02*
X203400D01*
X203000Y164949D02*
Y165749D01*
X71850Y174574D02*
X72650D01*
X72250Y174174D02*
Y174974D01*
X89906Y170988D02*
X91706D01*
X90806Y170088D02*
Y171888D01*
X231850Y186174D02*
X232650D01*
X232250Y185774D02*
Y186574D01*
X237450Y171874D02*
X239250D01*
X238350Y170974D02*
Y172774D01*
X234250Y171874D02*
X236050D01*
X235150Y170974D02*
Y172774D01*
X121950Y92774D02*
X122750D01*
X122350Y92374D02*
Y93174D01*
X137748Y177300D02*
X139548D01*
X138648Y176400D02*
Y178200D01*
X133748Y181500D02*
X135548D01*
X134648Y180600D02*
Y182400D01*
X228800Y166599D02*
X230600D01*
X229700Y165699D02*
Y167499D01*
X234848Y163731D02*
X235648D01*
X235248Y163331D02*
Y164131D01*
X225400Y166699D02*
X227200D01*
X226300Y165799D02*
Y167599D01*
X225500Y170199D02*
X227300D01*
X226400Y169299D02*
Y171099D01*
X170150Y122074D02*
X170950D01*
X170550Y121674D02*
Y122474D01*
X179550Y122074D02*
X180350D01*
X179950Y121674D02*
Y122474D01*
X173748Y135321D02*
X174548D01*
X174148Y134921D02*
Y135721D01*
X177303Y135321D02*
X178103D01*
X177703Y134921D02*
Y135721D01*
X192600Y137699D02*
X193400D01*
X193000Y137299D02*
Y138099D01*
X182750Y135374D02*
X183550D01*
X183150Y134974D02*
Y135774D01*
X42593Y5331D02*
X44393D01*
X43493Y4431D02*
Y6231D01*
X192193Y28046D02*
X192993D01*
X192593Y27646D02*
Y28446D01*
X146293Y25031D02*
X147093D01*
X146693Y24631D02*
Y25431D01*
X140293Y23831D02*
X142093D01*
X141193Y22931D02*
Y24731D01*
X148293Y25031D02*
X149093D01*
X148693Y24631D02*
Y25431D01*
X60165Y5299D02*
X61965D01*
X61065Y4399D02*
Y6199D01*
X243793Y24331D02*
X244593D01*
X244193Y23931D02*
Y24731D01*
X268193Y76083D02*
X269193D01*
X268693Y75583D02*
Y76583D01*
X177293Y22831D02*
X178093D01*
X177693Y22431D02*
Y23231D01*
X208030Y28483D02*
X208830D01*
X208430Y28083D02*
Y28883D01*
X264393Y79984D02*
X265193D01*
X264793Y79584D02*
Y80383D01*
X217793Y72110D02*
X218593D01*
X218193Y71710D02*
Y72510D01*
X213293Y45331D02*
X214093D01*
X213693Y44931D02*
Y45731D01*
X216893Y40883D02*
X217693D01*
X217293Y40483D02*
Y41284D01*
X129561Y7313D02*
X130761D01*
X130161Y6713D02*
Y7913D01*
X230665Y74399D02*
X231665D01*
X231165Y73899D02*
Y74899D01*
X111950Y44383D02*
X112750D01*
X112350Y43983D02*
Y44783D01*
X43964Y140899D02*
X45165D01*
X44565Y140299D02*
Y141500D01*
X88050Y173774D02*
X89850D01*
X88950Y172874D02*
Y174674D01*
X130793Y24331D02*
X131593D01*
X131193Y23931D02*
Y24731D01*
X113730Y22583D02*
X114530D01*
X114130Y22183D02*
Y22983D01*
X116230Y22583D02*
X117030D01*
X116630Y22183D02*
Y22983D01*
X127250Y23883D02*
X128050D01*
X127650Y23483D02*
Y24283D01*
X171830Y72083D02*
X172830D01*
X172330Y71583D02*
Y72583D01*
X172043Y80583D02*
X173343D01*
X172693Y79933D02*
Y81233D01*
X172793Y91583D02*
X173593D01*
X173193Y91183D02*
Y91983D01*
X192600Y135479D02*
X193400D01*
X193000Y135079D02*
Y135879D01*
X192600Y131039D02*
X193400D01*
X193000Y130639D02*
Y131439D01*
X276930Y153683D02*
X277930D01*
X277430Y153183D02*
Y154183D01*
X279379Y146916D02*
X280179D01*
X279779Y146517D02*
Y147317D01*
X278930Y153743D02*
X279930D01*
X279430Y153243D02*
Y154243D01*
X277250Y147183D02*
X278050D01*
X277650Y146783D02*
Y147583D01*
X238365Y131799D02*
X239165D01*
X238765Y131399D02*
Y132199D01*
X129293Y22831D02*
X130093D01*
X129693Y22431D02*
Y23231D01*
X137450Y22831D02*
X138250D01*
X137850Y22431D02*
Y23231D01*
X68665Y5299D02*
X70465D01*
X69565Y4399D02*
Y6199D01*
X173750Y75923D02*
X175550D01*
X174650Y75023D02*
Y76823D01*
X156450Y58014D02*
X157450D01*
X156950Y57514D02*
Y58514D01*
X156450Y55404D02*
X157450D01*
X156950Y54904D02*
Y55904D01*
X189750Y123783D02*
X190550D01*
X190150Y123383D02*
Y124183D01*
X312089Y80200D02*
X313089D01*
X312589Y79700D02*
Y80700D01*
X309429Y80200D02*
X310429D01*
X309929Y79700D02*
Y80700D01*
X306769Y80200D02*
X307769D01*
X307269Y79700D02*
Y80700D01*
X348000Y33699D02*
X349000D01*
X348500Y33199D02*
Y34199D01*
X354400Y68899D02*
X355400D01*
X354900Y68399D02*
Y69399D01*
X352000Y68899D02*
X353000D01*
X352500Y68399D02*
Y69399D01*
X356800Y68899D02*
X357800D01*
X357300Y68399D02*
Y69399D01*
X344795Y71500D02*
X345795D01*
X345294Y71000D02*
Y72000D01*
X347294Y71400D02*
X348294D01*
X347795Y70900D02*
Y71900D01*
X332294Y75900D02*
X333294D01*
X332794Y75400D02*
Y76400D01*
X334785Y75900D02*
X335785D01*
X335285Y75400D02*
Y76400D01*
X337276Y75900D02*
X338276D01*
X337776Y75400D02*
Y76400D01*
X339766Y76000D02*
X340766D01*
X340266Y75500D02*
Y76500D01*
X335200Y72199D02*
X336200D01*
X335700Y71699D02*
Y72699D01*
X301448Y80200D02*
X302448D01*
X301948Y79700D02*
Y80700D01*
X304108Y80200D02*
X305108D01*
X304608Y79700D02*
Y80700D01*
X329848Y66300D02*
X330848D01*
X330348Y65800D02*
Y66800D01*
X332248Y66300D02*
X333248D01*
X332748Y65800D02*
Y66800D01*
X334648Y66300D02*
X335648D01*
X335148Y65800D02*
Y66800D01*
X337048Y66300D02*
X338048D01*
X337548Y65800D02*
Y66800D01*
X339448Y66300D02*
X340448D01*
X339948Y65800D02*
Y66800D01*
X341848Y66300D02*
X342848D01*
X342348Y65800D02*
Y66800D01*
X329848Y63900D02*
X330848D01*
X330348Y63400D02*
Y64400D01*
X328648Y61700D02*
X329648D01*
X329148Y61200D02*
Y62200D01*
X328648Y59300D02*
X329648D01*
X329148Y58800D02*
Y59800D01*
X328648Y56800D02*
X329648D01*
X329148Y56300D02*
Y57300D01*
X324348Y69700D02*
X325348D01*
X324848Y69200D02*
Y70200D01*
X325148Y59700D02*
X326148D01*
X325648Y59200D02*
Y60200D01*
X325148Y62200D02*
X326148D01*
X325648Y61700D02*
Y62700D01*
X329803Y75900D02*
X330803D01*
X330303Y75400D02*
Y76400D01*
X324348Y67200D02*
X325348D01*
X324848Y66700D02*
Y67700D01*
X349694Y70100D02*
X350694D01*
X350195Y69600D02*
Y70600D01*
X337600Y72199D02*
X338600D01*
X338100Y71699D02*
Y72699D01*
X332800Y72299D02*
X333800D01*
X333300Y71799D02*
Y72799D01*
X313948Y27600D02*
X315148D01*
X314548Y27000D02*
Y28200D01*
X272548Y63900D02*
X273548D01*
X273048Y63400D02*
Y64400D01*
X276693Y99383D02*
X277693D01*
X277193Y98883D02*
Y99884D01*
X275948Y38400D02*
X276948D01*
X276448Y37900D02*
Y38900D01*
X274248Y35800D02*
X275248D01*
X274748Y35300D02*
Y36300D01*
X270448Y34100D02*
X271448D01*
X270948Y33600D02*
Y34600D01*
X270548Y29500D02*
X271548D01*
X271048Y29000D02*
Y30000D01*
X295450Y72166D02*
X296450D01*
X295950Y71666D02*
Y72666D01*
X295448Y80200D02*
X296448D01*
X295948Y79700D02*
Y80700D01*
X297848Y80200D02*
X298848D01*
X298348Y79700D02*
Y80700D01*
X25274Y185602D02*
X26474D01*
X25874Y185002D02*
Y186202D01*
X13065Y157639D02*
X14265D01*
X13665Y157039D02*
Y158239D01*
X312348Y179700D02*
X313548D01*
X312948Y179100D02*
Y180300D01*
X325348Y180500D02*
X326148D01*
X325748Y180100D02*
Y180900D01*
X318797Y181249D02*
X319597D01*
X319197Y180849D02*
Y181649D01*
X306879Y104269D02*
X307879D01*
X307380Y103769D02*
Y104769D01*
X301248Y103100D02*
X302248D01*
X301748Y102600D02*
Y103600D01*
X278848Y148900D02*
X279648D01*
X279248Y148500D02*
Y149300D01*
X296495Y147800D02*
X297294D01*
X296895Y147400D02*
Y148200D01*
X274448Y139100D02*
X275248D01*
X274848Y138700D02*
Y139500D01*
X290448Y148600D02*
X291248D01*
X290848Y148200D02*
Y149000D01*
X296748Y140700D02*
X297548D01*
X297148Y140300D02*
Y141100D01*
X288148Y135000D02*
X288948D01*
X288548Y134600D02*
Y135400D01*
X289948Y137800D02*
X290748D01*
X290348Y137400D02*
Y138200D01*
X291748Y135900D02*
X292548D01*
X292148Y135500D02*
Y136300D01*
X59148Y22900D02*
X60148D01*
X59648Y22400D02*
Y23400D01*
X60948Y35900D02*
X62148D01*
X61548Y35300D02*
Y36500D01*
X55448Y33400D02*
X56648D01*
X56048Y32800D02*
Y34000D01*
X56676Y35828D02*
X57876D01*
X57276Y35228D02*
Y36428D01*
X79407Y4828D02*
X80607D01*
X80007Y4228D02*
Y5428D01*
X229811Y24363D02*
X230611D01*
X230211Y23963D02*
Y24763D01*
X28174Y185602D02*
X29374D01*
X28774Y185002D02*
Y186202D01*
X189950Y108583D02*
X190750D01*
X190350Y108183D02*
Y108983D01*
X189750Y121583D02*
X190550D01*
X190150Y121183D02*
Y121983D01*
X188765Y106899D02*
X189565D01*
X189165Y106499D02*
Y107299D01*
X222148Y94200D02*
X223348D01*
X222748Y93600D02*
Y94800D01*
X275148Y92500D02*
X276148D01*
X275648Y92000D02*
Y93000D01*
X233348Y135200D02*
X234148D01*
X233748Y134800D02*
Y135600D01*
X233348Y125400D02*
X234148D01*
X233748Y125000D02*
Y125800D01*
X242793Y137774D02*
X243593D01*
X243193Y137374D02*
Y138174D01*
X242750Y135974D02*
X243550D01*
X243150Y135574D02*
Y136374D01*
X248293Y139331D02*
X249093D01*
X248693Y138931D02*
Y139731D01*
X280448Y13000D02*
X281448D01*
X280948Y12500D02*
Y13500D01*
X282148Y11000D02*
X283148D01*
X282648Y10500D02*
Y11500D01*
X300548Y149200D02*
X301348D01*
X300948Y148800D02*
Y149600D01*
X155448Y117400D02*
X156248D01*
X155848Y117000D02*
Y117800D01*
X160748Y122000D02*
X161548D01*
X161148Y121600D02*
Y122400D01*
X146248Y162300D02*
X147048D01*
X146648Y161900D02*
Y162700D01*
X154348Y159800D02*
X155148D01*
X154748Y159400D02*
Y160200D01*
X154348Y162900D02*
X155148D01*
X154748Y162500D02*
Y163300D01*
X239234Y19142D02*
X240034D01*
X239634Y18743D02*
Y19543D01*
X259600Y168799D02*
X260400D01*
X260000Y168399D02*
Y169199D01*
X308381Y179367D02*
X309581D01*
X308981Y178767D02*
Y179967D01*
X336848Y173700D02*
X338048D01*
X337448Y173100D02*
Y174300D01*
X313848Y163700D02*
X315048D01*
X314448Y163100D02*
Y164300D01*
X282148Y107700D02*
X283948D01*
X283048Y106800D02*
Y108600D01*
X191248Y103500D02*
X193048D01*
X192148Y102600D02*
Y104400D01*
X91793Y31045D02*
X92593D01*
X92193Y30645D02*
Y31445D01*
X91748Y37500D02*
X92548D01*
X92148Y37100D02*
Y37900D01*
X267793Y104083D02*
X269593D01*
X268693Y103183D02*
Y104983D01*
X60165Y13999D02*
X61965D01*
X61065Y13099D02*
Y14899D01*
X64415Y5299D02*
X66215D01*
X65315Y4399D02*
Y6199D01*
X246793Y136199D02*
X247593D01*
X247193Y135799D02*
Y136599D01*
X248293Y136199D02*
X249093D01*
X248693Y135799D02*
Y136599D01*
X251500Y122499D02*
X252300D01*
X251900Y122099D02*
Y122899D01*
X253200Y122499D02*
X254000D01*
X253600Y122099D02*
Y122899D01*
X64415Y9699D02*
X66215D01*
X65315Y8799D02*
Y10599D01*
X157613Y11173D02*
X158413D01*
X158013Y10773D02*
Y11573D01*
X154463Y8373D02*
X155263D01*
X154863Y7973D02*
Y8773D01*
X156038Y9773D02*
X156838D01*
X156438Y9373D02*
Y10173D01*
X158593Y5984D02*
X159393D01*
X158993Y5584D02*
Y6384D01*
X163912Y11173D02*
X164712D01*
X164312Y10773D02*
Y11573D01*
X160762Y6100D02*
X161562D01*
X161162Y5700D02*
Y6500D01*
X174930Y22831D02*
X175730D01*
X175330Y22431D02*
Y23231D01*
X191293Y23831D02*
X192093D01*
X191693Y23431D02*
Y24231D01*
X173330Y25031D02*
X174130D01*
X173730Y24631D02*
Y25431D01*
X171830Y22831D02*
X172630D01*
X172230Y22431D02*
Y23231D01*
X170230Y25031D02*
X171030D01*
X170630Y24631D02*
Y25431D01*
X168630Y22831D02*
X169430D01*
X169030Y22431D02*
Y23231D01*
X167030Y25031D02*
X167830D01*
X167430Y24631D02*
Y25431D01*
X211948Y22300D02*
X212748D01*
X212348Y21900D02*
Y22700D01*
X198748Y9800D02*
X199748D01*
X199248Y9300D02*
Y10300D01*
X283148Y22100D02*
X283948D01*
X283548Y21700D02*
Y22500D01*
X299048Y122000D02*
X299848D01*
X299448Y121600D02*
Y122400D01*
X310248Y122600D02*
X311048D01*
X310648Y122200D02*
Y123000D01*
X320853Y154337D02*
X321654D01*
X321253Y153937D02*
Y154737D01*
X39048Y45900D02*
X40848D01*
X39948Y45000D02*
Y46800D01*
X28252Y102892D02*
X29052D01*
X28652Y102492D02*
Y103292D01*
X23293Y114083D02*
X24093D01*
X23693Y113683D02*
Y114483D01*
X24252Y116392D02*
X25052D01*
X24652Y115992D02*
Y116792D01*
X27252Y119392D02*
X28052D01*
X27652Y118992D02*
Y119792D01*
X13065Y160899D02*
X14265D01*
X13665Y160299D02*
Y161499D01*
X337248Y43200D02*
X338248D01*
X337748Y42700D02*
Y43700D01*
X337248Y40700D02*
X338248D01*
X337748Y40200D02*
Y41200D01*
X337248Y38200D02*
X338248D01*
X337748Y37700D02*
Y38700D01*
X337248Y35700D02*
X338248D01*
X337748Y35200D02*
Y36200D01*
X337248Y33200D02*
X338248D01*
X337748Y32700D02*
Y33700D01*
X337248Y30700D02*
X338248D01*
X337748Y30200D02*
Y31200D01*
X337248Y28200D02*
X338248D01*
X337748Y27700D02*
Y28700D01*
X337248Y25700D02*
X338248D01*
X337748Y25200D02*
Y26200D01*
X337248Y23200D02*
X338248D01*
X337748Y22700D02*
Y23700D01*
X356448Y31300D02*
X357448D01*
X356948Y30800D02*
Y31800D01*
X356448Y28600D02*
X357448D01*
X356948Y28100D02*
Y29100D01*
X356448Y25900D02*
X357448D01*
X356948Y25400D02*
Y26400D01*
X356448Y23200D02*
X357448D01*
X356948Y22700D02*
Y23700D01*
X356448Y20500D02*
X357448D01*
X356948Y20000D02*
Y21000D01*
X356448Y17800D02*
X357448D01*
X356948Y17300D02*
Y18300D01*
X356348Y14600D02*
X357348D01*
X356848Y14100D02*
Y15100D01*
X356348Y11700D02*
X357348D01*
X356848Y11200D02*
Y12200D01*
X354948Y8700D02*
X355948D01*
X355448Y8200D02*
Y9200D01*
X329748Y78400D02*
X330748D01*
X330248Y77900D02*
Y78900D01*
X317348Y81000D02*
X318348D01*
X317848Y80500D02*
Y81500D01*
X317348Y83600D02*
X318348D01*
X317848Y83100D02*
Y84100D01*
X319548Y85100D02*
X320548D01*
X320048Y84600D02*
Y85600D01*
X328600Y85699D02*
X329600D01*
X329100Y85199D02*
Y86199D01*
X331148Y85699D02*
X332148D01*
X331648Y85199D02*
Y86199D01*
X331148Y83150D02*
X332148D01*
X331648Y82650D02*
Y83650D01*
X331148Y80600D02*
X332148D01*
X331648Y80100D02*
Y81100D01*
X334675Y25695D02*
X335675D01*
X335175Y25195D02*
Y26195D01*
X329448Y34600D02*
X330448D01*
X329948Y34100D02*
Y35100D01*
X292800Y69599D02*
X293800D01*
X293300Y69099D02*
Y70099D01*
X290400Y69599D02*
X291400D01*
X290900Y69099D02*
Y70099D01*
X286948Y69599D02*
X287948D01*
X287448Y69099D02*
Y70099D01*
X284500Y69599D02*
X285500D01*
X285000Y69099D02*
Y70099D01*
X275400Y68699D02*
X276400D01*
X275900Y68199D02*
Y69199D01*
X275400Y66399D02*
X276400D01*
X275900Y65899D02*
Y66899D01*
X296400Y27999D02*
X297400D01*
X296900Y27499D02*
Y28499D01*
X298800Y27999D02*
X299800D01*
X299300Y27499D02*
Y28499D01*
X301200Y27999D02*
X302200D01*
X301700Y27499D02*
Y28499D01*
X293900Y27999D02*
X294900D01*
X294400Y27499D02*
Y28499D01*
X306448Y28000D02*
X307448D01*
X306948Y27500D02*
Y28500D01*
X308848Y28000D02*
X309848D01*
X309348Y27500D02*
Y28500D01*
X322465Y27899D02*
X323465D01*
X322965Y27399D02*
Y28399D01*
X327500Y32899D02*
X328500D01*
X328000Y32399D02*
Y33399D01*
X283594Y35300D02*
X284594D01*
X284095Y34800D02*
Y35800D01*
X337248Y20800D02*
X338248D01*
X337748Y20300D02*
Y21300D01*
X337248Y18262D02*
X338248D01*
X337748Y17762D02*
Y18762D01*
X329048Y18262D02*
X330048D01*
X329548Y17762D02*
Y18762D01*
X311848Y8900D02*
X312848D01*
X312348Y8400D02*
Y9400D01*
X314248Y8900D02*
X315248D01*
X314748Y8400D02*
Y9400D01*
X316648Y8900D02*
X317648D01*
X317148Y8400D02*
Y9400D01*
X319048Y8900D02*
X320048D01*
X319548Y8400D02*
Y9400D01*
X321448Y8900D02*
X322448D01*
X321948Y8400D02*
Y9400D01*
X323948Y8900D02*
X324948D01*
X324448Y8400D02*
Y9400D01*
X326348Y8900D02*
X327348D01*
X326848Y8400D02*
Y9400D01*
X298048Y8900D02*
X299048D01*
X298548Y8400D02*
Y9400D01*
X295271Y8900D02*
X296271D01*
X295771Y8400D02*
Y9400D01*
X292495Y8900D02*
X293495D01*
X292995Y8400D02*
Y9400D01*
X289718Y8900D02*
X290718D01*
X290218Y8400D02*
Y9400D01*
X284165Y8900D02*
X285165D01*
X284665Y8400D02*
Y9400D01*
X286941Y8900D02*
X287941D01*
X287441Y8400D02*
Y9400D01*
X278748Y8900D02*
X279748D01*
X279248Y8400D02*
Y9400D01*
X276148Y8900D02*
X277148D01*
X276648Y8400D02*
Y9400D01*
X214248Y128900D02*
X215048D01*
X214648Y128500D02*
Y129300D01*
X16246Y49326D02*
X17446D01*
X16846Y48726D02*
Y49926D01*
X16246Y46426D02*
X17446D01*
X16846Y45826D02*
Y47026D01*
X16246Y37726D02*
X17446D01*
X16846Y37126D02*
Y38326D01*
X16246Y40626D02*
X17446D01*
X16846Y40026D02*
Y41226D01*
X16246Y43526D02*
X17446D01*
X16846Y42926D02*
Y44126D01*
X16248Y34600D02*
X17448D01*
X16848Y34000D02*
Y35200D01*
X51274Y186502D02*
X52474D01*
X51874Y185902D02*
Y187102D01*
X54174Y186502D02*
X55374D01*
X54774Y185902D02*
Y187102D01*
X57074Y186502D02*
X58274D01*
X57674Y185902D02*
Y187102D01*
X48148Y186502D02*
X49348D01*
X48748Y185902D02*
Y187102D01*
X300048Y185702D02*
X301248D01*
X300648Y185102D02*
Y186302D01*
X309291Y185702D02*
X310491D01*
X309891Y185102D02*
Y186302D01*
X306210Y185702D02*
X307410D01*
X306810Y185102D02*
Y186302D01*
X303129Y185702D02*
X304329D01*
X303729Y185102D02*
Y186302D01*
X312372Y185702D02*
X313572D01*
X312972Y185102D02*
Y186302D01*
X315454Y185702D02*
X316653D01*
X316054Y185102D02*
Y186302D01*
X327778Y185702D02*
X328978D01*
X328378Y185102D02*
Y186302D01*
X337021Y185702D02*
X338221D01*
X337621Y185102D02*
Y186302D01*
X333940Y185702D02*
X335140D01*
X334540Y185102D02*
Y186302D01*
X330859Y185702D02*
X332059D01*
X331459Y185102D02*
Y186302D01*
X340102Y185702D02*
X341302D01*
X340702Y185102D02*
Y186302D01*
X343183Y185702D02*
X344383D01*
X343783Y185102D02*
Y186302D01*
X349565Y167299D02*
X350765D01*
X350165Y166699D02*
Y167899D01*
X319195Y124600D02*
X320394D01*
X319795Y124000D02*
Y125200D01*
X288747Y116300D02*
X289947D01*
X289347Y115700D02*
Y116900D01*
X291648Y116300D02*
X292848D01*
X292248Y115700D02*
Y116900D01*
X292948Y103200D02*
X294148D01*
X293548Y102600D02*
Y103800D01*
X292848Y100400D02*
X294048D01*
X293448Y99800D02*
Y101000D01*
X274748Y88500D02*
X275948D01*
X275348Y87900D02*
Y89100D01*
X277748Y88500D02*
X278948D01*
X278348Y87900D02*
Y89100D01*
X280748Y88600D02*
X281948D01*
X281348Y88000D02*
Y89200D01*
X298948Y88300D02*
X300148D01*
X299548Y87700D02*
Y88900D01*
X301948Y88300D02*
X303148D01*
X302548Y87700D02*
Y88900D01*
X95665Y3899D02*
X96865D01*
X96265Y3299D02*
Y4499D01*
X98565Y3899D02*
X99765D01*
X99165Y3299D02*
Y4499D01*
X115864Y2671D02*
X117064D01*
X116464Y2071D02*
Y3271D01*
X118697Y2671D02*
X119897D01*
X119297Y2071D02*
Y3271D01*
X121530Y2671D02*
X122730D01*
X122130Y2071D02*
Y3271D01*
X124364Y2671D02*
X125564D01*
X124964Y2071D02*
Y3271D01*
X4846Y178326D02*
X6047D01*
X5446Y177726D02*
Y178926D01*
X4846Y175426D02*
X6047D01*
X5446Y174826D02*
Y176026D01*
X4846Y166726D02*
X6047D01*
X5446Y166126D02*
Y167326D01*
X4846Y169626D02*
X6047D01*
X5446Y169026D02*
Y170226D01*
X4846Y172526D02*
X6047D01*
X5446Y171926D02*
Y173126D01*
X4846Y163600D02*
X6047D01*
X5446Y163000D02*
Y164200D01*
X13722Y3198D02*
X14922D01*
X14322Y2598D02*
Y3798D01*
X263150Y3099D02*
X264350D01*
X263750Y2499D02*
Y3699D01*
X266100Y3099D02*
X267300D01*
X266700Y2499D02*
Y3699D01*
X246932Y7800D02*
X248132D01*
X247532Y7200D02*
Y8400D01*
X250174Y7800D02*
X251374D01*
X250774Y7200D02*
Y8400D01*
X240448Y7800D02*
X241648D01*
X241048Y7200D02*
Y8400D01*
X243690Y7800D02*
X244890D01*
X244290Y7200D02*
Y8400D01*
X170043Y82083D02*
X171343D01*
X170693Y81433D02*
Y82733D01*
X321865Y59999D02*
X322665D01*
X322265Y59599D02*
Y60399D01*
X321865Y62199D02*
X322665D01*
X322265Y61799D02*
Y62599D01*
X323665Y53699D02*
X324465D01*
X324065Y53299D02*
Y54099D01*
X323665Y51849D02*
X324465D01*
X324065Y51449D02*
Y52249D01*
X323665Y49999D02*
X324465D01*
X324065Y49599D02*
Y50399D01*
X188660Y144764D02*
X189460D01*
X189060Y144364D02*
Y145164D01*
X190050Y146374D02*
X190850D01*
X190450Y145974D02*
Y146774D01*
X186900Y152699D02*
X187700D01*
X187300Y152299D02*
Y153099D01*
X186900Y156099D02*
X187700D01*
X187300Y155699D02*
Y156499D01*
X190250Y159774D02*
X191450D01*
X190850Y159174D02*
Y160374D01*
X190450Y166274D02*
X191250D01*
X190850Y165874D02*
Y166674D01*
X186948Y163700D02*
X187748D01*
X187348Y163300D02*
Y164100D01*
X188450Y158174D02*
X189250D01*
X188850Y157774D02*
Y158574D01*
X171548Y166800D02*
X172348D01*
X171948Y166400D02*
Y167200D01*
X164865Y155647D02*
X165665D01*
X165265Y155247D02*
Y156047D01*
X164865Y159600D02*
X165665D01*
X165265Y159200D02*
Y160000D01*
X170450Y161474D02*
X171650D01*
X171050Y160874D02*
Y162074D01*
X164865Y164099D02*
X165665D01*
X165265Y163699D02*
Y164499D01*
X164865Y166150D02*
X165665D01*
X165265Y165750D02*
Y166550D01*
X169865Y165599D02*
X170665D01*
X170265Y165199D02*
Y165999D01*
X152065Y166599D02*
X152865D01*
X152465Y166199D02*
Y166999D01*
X169865Y158899D02*
X170665D01*
X170265Y158499D02*
Y159299D01*
X133065Y6799D02*
X134865D01*
X133965Y5899D02*
Y7699D01*
X246565Y36599D02*
X247365D01*
X246965Y36199D02*
Y36999D01*
X241865Y85699D02*
X243665D01*
X242765Y84799D02*
Y86599D01*
X245465Y85699D02*
X247265D01*
X246365Y84799D02*
Y86599D01*
X178165Y175399D02*
X178965D01*
X178565Y174999D02*
Y175799D01*
X235265Y140199D02*
X236065D01*
X235665Y139799D02*
Y140599D01*
X310600Y126599D02*
X311400D01*
X311000Y126199D02*
Y126999D01*
X318717Y129247D02*
X319516D01*
X319116Y128847D02*
Y129647D01*
X300865Y120599D02*
X301665D01*
X301265Y120199D02*
Y120999D01*
X292265Y112800D02*
X293465D01*
X292865Y112200D02*
Y113400D01*
X3948Y11000D02*
X5148D01*
X4548Y10400D02*
Y11600D01*
X3946Y19926D02*
X5147D01*
X4546Y19326D02*
Y20526D01*
X3946Y17026D02*
X5147D01*
X4546Y16426D02*
Y17626D01*
X3946Y14126D02*
X5147D01*
X4546Y13526D02*
Y14726D01*
X3946Y22826D02*
X5147D01*
X4546Y22226D02*
Y23426D01*
X3946Y25726D02*
X5147D01*
X4546Y25126D02*
Y26326D01*
X81256Y156286D02*
X82056D01*
X81656Y155886D02*
Y156686D01*
X79037Y156296D02*
X79837D01*
X79437Y155896D02*
Y156696D01*
X76671Y156748D02*
X77471D01*
X77071Y156348D02*
Y157148D01*
X57731Y162599D02*
X58531D01*
X58131Y162199D02*
Y162999D01*
X59998Y162599D02*
X60798D01*
X60398Y162199D02*
Y162999D01*
X57731Y160399D02*
X58531D01*
X58131Y159999D02*
Y160799D01*
X62265Y162599D02*
X63064D01*
X62665Y162199D02*
Y162999D01*
X93565Y157199D02*
X94365D01*
X93965Y156799D02*
Y157599D01*
X96615Y157199D02*
X97415D01*
X97015Y156799D02*
Y157599D01*
X99664Y157199D02*
X100464D01*
X100065Y156799D02*
Y157599D01*
X118665Y157199D02*
X119465D01*
X119065Y156799D02*
Y157599D01*
X120865Y157199D02*
X121665D01*
X121265Y156799D02*
Y157599D01*
X123065Y157199D02*
X123865D01*
X123465Y156799D02*
Y157599D01*
X125265Y157199D02*
X126065D01*
X125665Y156799D02*
Y157599D01*
X127465Y157199D02*
X128265D01*
X127865Y156799D02*
Y157599D01*
X142300Y159399D02*
X143100D01*
X142700Y158999D02*
Y159799D01*
X142300Y157199D02*
X143100D01*
X142700Y156799D02*
Y157599D01*
X13065Y154379D02*
X14265D01*
X13665Y153779D02*
Y154979D01*
X13065Y151119D02*
X14265D01*
X13665Y150519D02*
Y151719D01*
X13065Y144599D02*
X14265D01*
X13665Y143999D02*
Y145199D01*
X13065Y147859D02*
X14265D01*
X13665Y147259D02*
Y148459D01*
X24900Y127500D02*
X26100D01*
X25500Y126900D02*
Y128100D01*
X59998Y160399D02*
X60798D01*
X60398Y159999D02*
Y160799D01*
X201250Y135974D02*
X202050D01*
X201650Y135574D02*
Y136374D01*
X107300Y38899D02*
X108500D01*
X107900Y38299D02*
Y39499D01*
X149865Y2799D02*
X151065D01*
X150465Y2199D02*
Y3399D01*
X147065Y2799D02*
X148265D01*
X147665Y2199D02*
Y3399D01*
X144265Y2799D02*
X145465D01*
X144865Y2199D02*
Y3399D01*
X141465Y2799D02*
X142665D01*
X142065Y2199D02*
Y3399D01*
X167365Y2399D02*
X168565D01*
X167965Y1799D02*
Y2999D01*
X170398Y2399D02*
X171598D01*
X170998Y1799D02*
Y2999D01*
X173431Y2399D02*
X174631D01*
X174031Y1799D02*
Y2999D01*
X176465Y2399D02*
X177665D01*
X177065Y1799D02*
Y2999D01*
X193265Y2499D02*
X194465D01*
X193865Y1899D02*
Y3099D01*
X196574Y2499D02*
X197774D01*
X197174Y1899D02*
Y3099D01*
X199884Y2499D02*
X201084D01*
X200484Y1899D02*
Y3099D01*
X203193Y2499D02*
X204393D01*
X203793Y1899D02*
Y3099D01*
X206503Y2499D02*
X207703D01*
X207103Y1899D02*
Y3099D01*
X209812Y2499D02*
X211012D01*
X210412Y1899D02*
Y3099D01*
X213122Y2499D02*
X214322D01*
X213722Y1899D02*
Y3099D01*
X216431Y2499D02*
X217631D01*
X217031Y1899D02*
Y3099D01*
X219741Y2499D02*
X220941D01*
X220341Y1899D02*
Y3099D01*
X223050Y2499D02*
X224250D01*
X223650Y1899D02*
Y3099D01*
X226360Y2499D02*
X227560D01*
X226960Y1899D02*
Y3099D01*
X229669Y2499D02*
X230869D01*
X230269Y1899D02*
Y3099D01*
X232979Y2499D02*
X234179D01*
X233579Y1899D02*
Y3099D01*
X236288Y2499D02*
X237488D01*
X236888Y1899D02*
Y3099D01*
X239598Y2499D02*
X240798D01*
X240198Y1899D02*
Y3099D01*
X242907Y2499D02*
X244107D01*
X243507Y1899D02*
Y3099D01*
X246217Y2499D02*
X247417D01*
X246817Y1899D02*
Y3099D01*
X249526Y2499D02*
X250726D01*
X250126Y1899D02*
Y3099D01*
X260200D02*
X261400D01*
X260800Y2499D02*
Y3699D01*
X256145Y2499D02*
X257345D01*
X256745Y1899D02*
Y3099D01*
X252836Y2499D02*
X254036D01*
X253436Y1899D02*
Y3099D01*
X5265Y7999D02*
X6465D01*
X5865Y7399D02*
Y8599D01*
X7465Y5899D02*
X8665D01*
X8065Y5299D02*
Y6499D01*
X10165Y4099D02*
X11365D01*
X10765Y3499D02*
Y4699D01*
X337565Y94699D02*
X338765D01*
X338165Y94099D02*
Y95299D01*
X337565Y91699D02*
X338765D01*
X338165Y91099D02*
Y92299D01*
X337565Y88699D02*
X338765D01*
X338165Y88099D02*
Y89299D01*
X337565Y85699D02*
X338765D01*
X338165Y85099D02*
Y86299D01*
X337565Y82699D02*
X338765D01*
X338165Y82099D02*
Y83299D01*
X319165Y121799D02*
X320365D01*
X319765Y121199D02*
Y122399D01*
X319265Y118999D02*
X320465D01*
X319865Y118399D02*
Y119599D01*
X346465Y158999D02*
X347665D01*
X347065Y158399D02*
Y159599D01*
X349565Y164399D02*
X350765D01*
X350165Y163799D02*
Y164999D01*
X349565Y161499D02*
X350765D01*
X350165Y160899D02*
Y162099D01*
X318535Y185702D02*
X319735D01*
X319135Y185102D02*
Y186302D01*
X321616Y185702D02*
X322816D01*
X322216Y185102D02*
Y186302D01*
X324697Y185702D02*
X325897D01*
X325297Y185102D02*
Y186302D01*
X346265Y185702D02*
X347464D01*
X346865Y185102D02*
Y186302D01*
X344665Y78599D02*
X345865D01*
X345265Y77999D02*
Y79199D01*
X348498Y78599D02*
X349698D01*
X349098Y77999D02*
Y79199D01*
X352331Y78599D02*
X353531D01*
X352931Y77999D02*
Y79199D01*
X356165Y78599D02*
X357365D01*
X356765Y77999D02*
Y79199D01*
X356165Y75499D02*
X357365D01*
X356765Y74899D02*
Y76099D01*
X356165Y72399D02*
X357365D01*
X356765Y71799D02*
Y72999D01*
X204765Y26599D02*
X205565D01*
X205165Y26199D02*
Y26999D01*
X193765Y25099D02*
X194565D01*
X194165Y24699D02*
Y25499D01*
X215765Y22699D02*
X216565D01*
X216165Y22299D02*
Y23099D01*
X217965Y22699D02*
X218765D01*
X218365Y22299D02*
Y23099D01*
X223365Y21799D02*
X224165D01*
X223765Y21399D02*
Y22199D01*
X223365Y19599D02*
X224165D01*
X223765Y19199D02*
Y19999D01*
X204865Y7899D02*
X205665D01*
X205265Y7499D02*
Y8299D01*
X207098Y7899D02*
X207898D01*
X207498Y7499D02*
Y8299D01*
X209331Y7899D02*
X210131D01*
X209731Y7499D02*
Y8299D01*
X211565Y7899D02*
X212365D01*
X211965Y7499D02*
Y8299D01*
X179465Y27399D02*
X180265D01*
X179865Y26999D02*
Y27799D01*
X179465Y25199D02*
X180265D01*
X179865Y24799D02*
Y25599D01*
X157400Y24300D02*
X158200D01*
X157800Y23900D02*
Y24700D01*
X39990Y56699D02*
X40790D01*
X40390Y56299D02*
Y57099D01*
X42665Y56699D02*
X43465D01*
X43065Y56299D02*
Y57099D01*
X37315Y56699D02*
X38115D01*
X37715Y56299D02*
Y57099D01*
X34640Y56699D02*
X35440D01*
X35040Y56299D02*
Y57099D01*
X37200Y54399D02*
X38000D01*
X37600Y53999D02*
Y54799D01*
X254500Y115299D02*
X255300D01*
X254900Y114899D02*
Y115699D01*
X256400Y115299D02*
X257200D01*
X256800Y114899D02*
Y115699D01*
X171800Y146499D02*
X172600D01*
X172200Y146099D02*
Y146899D01*
X192600Y133259D02*
X193400D01*
X193000Y132859D02*
Y133659D01*
X255000Y122499D02*
X255800D01*
X255400Y122099D02*
Y122899D01*
X251400Y136199D02*
X252200D01*
X251800Y135799D02*
Y136599D01*
X129300Y50132D02*
X130300D01*
X129800Y49632D02*
Y50632D01*
X126850Y52991D02*
X127850D01*
X127350Y52491D02*
Y53491D01*
X234100Y167799D02*
X235900D01*
X235000Y166899D02*
Y168699D01*
X140948Y162400D02*
X142148D01*
X141548Y161800D02*
Y163000D01*
X257200Y113499D02*
X258000D01*
X257600Y113099D02*
Y113899D01*
X255500Y113499D02*
X256300D01*
X255900Y113099D02*
Y113899D01*
X253800Y113499D02*
X254600D01*
X254200Y113099D02*
Y113899D01*
X281388Y8900D02*
X282388D01*
X281888Y8400D02*
Y9400D01*
X31500Y10399D02*
X32700D01*
X32100Y9799D02*
Y10999D01*
X27800Y10399D02*
X29000D01*
X28400Y9799D02*
Y10999D01*
X56200Y175099D02*
X57000D01*
X56600Y174699D02*
Y175499D01*
X56200Y179599D02*
X57000D01*
X56600Y179199D02*
Y179999D01*
X319948Y18600D02*
X321748D01*
X320848Y17700D02*
Y19500D01*
X306469Y46800D02*
X307256D01*
X306862Y46406D02*
Y47194D01*
X310799Y46800D02*
X311587D01*
X311193Y46406D02*
Y47194D01*
X315130Y46800D02*
X315917D01*
X315524Y46406D02*
Y47194D01*
X306469Y51131D02*
X307256D01*
X306862Y50737D02*
Y51524D01*
X310799Y51131D02*
X311587D01*
X311193Y50737D02*
Y51524D01*
X315130Y51131D02*
X315917D01*
X315524Y50737D02*
Y51524D01*
X306469Y55461D02*
X307256D01*
X306862Y55068D02*
Y55855D01*
X310799Y55461D02*
X311587D01*
X311193Y55068D02*
Y55855D01*
X315130Y55461D02*
X315917D01*
X315524Y55068D02*
Y55855D01*
X322994Y100300D02*
X324195D01*
X323594Y99700D02*
Y100900D01*
X325994Y100300D02*
X327194D01*
X326594Y99700D02*
Y100900D01*
X328994Y100300D02*
X330194D01*
X329594Y99700D02*
Y100900D01*
X319795Y143400D02*
X320595D01*
X320195Y143000D02*
Y143800D01*
X319694Y145900D02*
X320495D01*
X320094Y145500D02*
Y146300D01*
X319595Y148800D02*
X320394D01*
X319994Y148400D02*
Y149200D01*
M02*
