M48
;Layer_Color=9474304
;FILE_FORMAT=2:5
INCH,LZ
;TYPE=PLATED
T1F00S00C0.00787
T2F00S00C0.00800
T3F00S00C0.01000
T4F00S00C0.01200
T5F00S00C0.01201
T6F00S00C0.01300
T7F00S00C0.01800
T8F00S00C0.03543
T9F00S00C0.07087
T10F00S00C0.07874
T11F00S00C0.09000
%
T01
X0306862Y00468
X0311193
X0315524
Y0051131
X0311193
Y0055461
X0315524
X0306862
Y0051131
T02
X0283548Y00221
X0284748Y00286
X0301565Y0035599
X0301465Y0037399
X0306865Y0037299
X0307548Y00337
X0309648
X0298548Y00521
X0324065Y0051849
Y0053699
Y0049999
X0322265Y0059999
Y0062199
X0314093Y0064083
X0312393Y0065083
X0261287Y0027878
X0263046Y002603
X0259319Y0029557
X0244293Y0028883
Y0026484
X0244193Y0024331
Y0031284
X0246965Y0036599
X0232193Y0036983
X0230493Y0039083
X0228793Y0040584
X0233693Y0034683
X0233748Y00228
X0235693Y0021584
X0237665Y0020211
X0239634Y0019142
X0251693Y0019831
X0230211Y0024363
X0221893Y0024284
X0223765Y0021799
Y0019599
X0218365Y0022699
X0216165
X0212348Y00223
X020843Y0028483
X020813Y0031183
X020653Y0032683
X020523Y0034283
X020333Y0035883
X020153Y0037383
X0199944Y0040582
X019855Y0042174
X0197193Y0043831
X0195193Y0045331
X0193693Y0046831
X0192193Y0048331
X0191193Y0050331
X0191693Y0060831
X01751Y00597
X01733Y00614
X01714Y00623
X0175493Y0065331
X017373Y0025031
X017063
X016743
X016903Y0022831
X017223
X017533
X0177693
X0179865Y0025199
Y0027399
X0191693Y0025957
Y0023831
X0194165Y0025099
X0192593Y0028046
X019173Y0038983
X019573
X0205165Y0026599
X0205265Y0007899
X0207498
X0209731
X0211965
X0217293Y0040883
X0218993Y0042184
X0213693Y0045331
X0211748Y00473
X021115Y0049669
X0230093Y005221
X0218193Y007211
X01578Y00243
X01555
X015333Y0022831
X015013
X0148693Y0025031
X0146693
X0144693
X015173
X013785Y0022831
X013555
X013283
X0131193Y0024331
X0129693Y0022831
X012765Y0023883
X01391Y0009199
X0137093Y0005384
X01438Y0011499
X01469
X0154863Y0008373
X0156438Y0009773
X0158013Y0011173
X0158993Y0005984
X0161162Y00061
X0164312Y0011173
X011663Y0022583
X011413
X011235Y0044383
X0110193Y0048331
X0095893Y0040963
X0092148Y00375
X0092193Y0031045
X00732Y00507
X00701Y00506
X00671Y00504
X0084193Y0062831
X0043065Y0056699
X004039
X0037715
X00376Y0054399
X003504Y0056699
X00287Y00523
X00306Y00501
X00331Y00467
X0019952Y0052352
X00214Y00542
X00227Y0056
X00172Y00725
Y00749
X00102Y00743
X00047Y00751
Y00727
Y0070246
X00172Y0077354
X00161Y00916
X00174Y00951
Y00975
Y0099954
Y0102408
X00129Y0106
X00093Y01063
X00069
X0004446
X0004Y0099008
Y0096554
Y00941
Y00917
X00211Y01078
X0023693Y0114083
X0024652Y0116392
X0027652Y0119392
X0030652Y0122392
X0042152
X0039052Y0126092
X0042452Y0129292
X0045452Y0132292
X004715Y0136674
X005134Y0141604
X0060552Y0142392
X0060352Y0146092
X0063352Y0148992
X0066252Y0151992
X0069352Y0154992
X0069252Y0161092
X0062665Y0162599
X0060398
Y0160399
X0058131
Y0162599
X00566Y0175099
Y0179599
X007225Y0178074
Y0174574
X0077071Y0156748
X0079437Y0156296
X0081656Y0156286
X0093965Y0157199
X0097015
X0100065
X0119065
X0121265
X0123465
X0124693Y0117831
X011933Y0114083
X0107852Y0105792
X012235Y0092774
X008423Y0079783
X0066395Y00915
X0067392Y0094953
X006962Y009718
X0071846Y0099407
X007273Y0105314
X0080755Y0108316
X0083152Y0110392
X0085209Y011277
X008742Y0115014
X0089663Y0117224
X0091891Y0119451
X0094117Y0121678
X0096259Y0123991
X0094694Y0127477
X0081452Y0123192
X0083884Y0120637
X0079288Y0116292
X0075652Y0117792
X0068711Y0113092
X006399Y011333
X0064394Y0111167
X0063732Y0123112
X006161Y0125233
X0061405Y0120796
X005714Y0116804
X0049236Y0117564
X0051357Y0119896
X0047011Y0115334
X004493Y0112983
X0042518Y0110918
X0038052Y0115092
X0034952Y0112092
X0032052Y0109092
X0029252Y0105792
X0028652Y0102892
X00171Y01164
Y01188
Y0121254
Y0123708
Y0126108
Y0128561
Y0131015
Y0133415
Y0135869
Y0138323
X0056952Y0148892
X0059152Y0128892
X0062634Y013089
X0064792Y0133187
X0066948Y0135486
X006928Y0137607
X0070903Y0139515
X0074925Y0142759
X0078052Y0145292
X0079103Y013863
X008143Y0136414
X0075156Y0134358
X007253Y0131783
X0062938Y0090499
X0146193Y0089331
X0153193Y0106331
X015515Y0106983
X0155048Y01128
X0153348Y01113
X0153365Y0117799
X0155848Y01174
X0161148Y0122
X0160352Y0125892
X0160348Y0130088
X0160339Y0138505
X0170948Y01368
X0174148Y0135321
X0177703
X017925Y0136874
X01789Y0139499
X0173148Y01402
X01709Y0144899
X01722Y0146499
X01709Y0148199
X01689Y0149099
X01722Y0149974
X0170265Y0158899
X0165265Y01596
Y0155647
Y0164099
Y016615
Y01682
Y0172084
X0169348Y01753
X0171648
X0171948Y0169961
Y01668
X0170265Y0165599
Y0168374
X0178565Y0175399
X019085Y0169474
Y0166274
Y0163074
X0187348Y01637
X018885Y0158174
X019085Y0157474
Y0155374
Y0153374
Y0151374
X018885Y0150874
X01873Y0149474
Y0152699
X018885Y0154524
X01873Y0156099
X01918Y0147999
X019045Y0146374
X018906Y0144764
X0193Y0137699
Y0135479
Y0133259
Y0131039
Y0128819
Y0126599
X019005Y0125883
X019015Y0123783
Y0121583
X018695Y0122083
X018215Y0122074
X017995
X017765
X017285Y0122083
X017055Y0122074
X0168348Y01221
X016985Y0112574
X0166265Y0096699
X0164693Y0095331
X017315Y0094283
X0173193Y0091583
X0191693Y0087831
X0190389Y0081527
X0186765Y0102899
X0187165Y0106299
X0189165Y0106899
X019035Y0108583
X019245Y0109283
X020165Y0131974
Y0133974
Y0135974
X02016Y0137974
X020165Y0139974
Y0142274
X020155Y0149274
Y0154174
Y0156274
Y0158474
Y0160774
X0203Y0165349
Y0167499
Y0169649
X02001Y0168299
X0235248Y0163731
X0234906Y0155331
X02457Y0154099
X02464Y0152499
X02448
X02454Y0149299
X024529Y0147599
X02469Y0149999
X02455Y0156768
X0245693Y0161831
X0255193Y0168331
X0256693
X026Y0168799
X0262193Y0168331
X0270193Y0169169
Y0171331
Y0173831
X02738Y0170699
X02737Y0168899
X02766Y0170499
X02777Y0171799
X0275177Y0186315
X024845Y0177974
Y0176174
X023225Y0186174
X0235665Y0140199
X0233748Y01352
X0238765Y0131799
X0240815
X0240765Y0129899
X0242865
Y0131799
X024315Y0135974
X0243193Y0137774
X0247193Y0136199
X0248693
X02502
X02518
X0248693Y0139331
X02587Y0137399
X0258Y0135799
X026361Y0135528
X0263555Y0137131
X0274848Y01391
X027765Y0147183
X0279779Y0146916
X0279248Y01489
X0267448Y01242
X02554Y0122499
X02536
X02519
X02549Y0115299
X02568
X02576Y0113499
X02559
X02542
X0233748Y01254
X0214648Y01289
X018315Y0135374
X0154748Y0155647
Y0157723
Y01598
Y01629
Y0168
X0154848Y017035
Y01727
X0152465Y01716
Y01691
Y0166599
X0146648Y01623
X0144148
X01427Y0159399
Y0157199
X0140048Y01576
X0127865Y0157199
X0125665
X0135548Y01704
X0138548Y01727
X0213048Y00791
X0264793Y0079984
X0301165Y0117899
X0301265Y0120599
X0299448Y0122
X0304792Y0119644
X0310648Y01226
X0311Y0126599
X0307448Y01328
X0303248Y01321
X0303148Y01296
X0319116Y0129247
X0320195Y01434
X0320094Y01459
X0319994Y01488
X0321253Y0154337
X0300948Y01492
X0296895Y01478
X0296848Y01511
X0293794Y01472
X0290848Y01486
X0290348Y01378
X0292148Y01359
X0288548Y0135
X0297148Y01407
X0319197Y0181249
X0325748Y01805
T03
X0281888Y00089
X0284665
X0287441
X0290218
X0292995
X0295771
X0298548
X0307448
X0309848
X0312348
X0314748
X0317148
X0319548
X0321948
X0324448
X0326848
X0329548Y00076
Y00049
Y00025
X0332165
X0334781
X0337398
X0340015
X0342631
X0345248
X0348448Y00037
X0351048Y00051
X0353448Y00068
X0355448Y00087
X0356848Y00117
Y00146
X0356948Y00178
Y00205
Y00232
Y00259
Y00286
Y00313
Y00337
X0353948
X03511Y0033699
X03485
X0346248Y00347
Y0037223
Y0039746
Y0042269
Y0044792
Y0047315
Y0049838
Y0052362
Y0054885
Y0057408
Y0059931
Y0062454
Y0064977
Y00675
X0345294Y00715
Y00738
X0347795Y00714
X0350195Y00701
X03525Y0068899
X03549
X03573
X0342348Y00663
X0339948
X0337548
X0335148
X0332748
X0330348
Y00639
X0329148Y00617
Y00593
Y00568
X0329548Y00544
X0332048
X0333948Y00527
Y005025
Y00478
X0336448
X0337748Y00457
Y00432
Y00407
Y00382
Y00357
Y00332
Y00307
Y00282
Y00257
Y00232
Y00208
X0337748Y0018262
X0335015
X0332281
X0332329Y0015697
X0329548Y00157
Y0018262
Y0013
Y00103
X0335175Y0025695
X0329948Y00346
X0328Y0032899
X0325465Y0030599
X0322965
Y0027899
X0309348Y0028
X0306948
X03017Y0027999
X02993
X02969
X0296865Y0030399
X0299265
X0301665
X02944Y0027999
X0291265Y0034799
X0288792
X0288765Y0037199
X0291165
X0286295Y00353
X0284095
X0284648Y00388
X02867Y0040999
X0286648Y00461
Y00496
X0284465Y0053999
X0286648Y00566
Y00601
X0287448Y0069599
X0285
Y0072166
X0287465
X0285Y0074633
X02909Y0069599
X02933
X029595
Y0072166
Y0074862
Y0067
X02983Y0065599
X03006
X0319648Y00636
X0324848Y00648
Y00672
Y00697
X03233Y0072199
X03272Y0072099
X03333Y0072299
X03357Y0072199
X03381
X0325648Y00622
Y00597
X0324248Y00577
X0282648Y0011
X0280948Y0013
X0279248Y00089
X0276648
X02746Y0022299
X0271048Y00295
X0270948Y00341
X0274748Y00358
X0276448Y00384
X02759Y0066399
Y0068699
X0273048Y00639
X0231165Y0074399
X017233Y0072083
X015695Y0068454
Y0065844
Y0063234
Y0060624
Y0058014
Y0055404
Y0052794
X015194Y0045099
X014933
X014672
X014411
X01415
X013889
X013628
X013367
X01311
X01298Y0047274
X012735
Y0050132
X01298
Y0052991
X012735
Y0055849
X01298
Y0058707
X012735
Y0061566
X01298
Y0064424
X012735
Y0067282
X01298
Y0070141
X012735
Y0072999
X01298
X013279Y0072999
X013571
X013863
X01413
X0199248Y00098
X0243848Y00195
X0059648Y00229
X00793Y0042999
X0060052Y0151892
X0062952Y0154892
X0065952Y0157892
X0141887Y0115284
X0170693Y0107331
X017355Y0107674
X02022Y0087399
X026525Y0100274
X0272993Y0102483
X0276393Y0102884
X0277193Y0099383
X028125Y0100983
X0275648Y00925
X0268693Y0076083
X027743Y0153683
X027943Y0153743
X0301748Y01031
X030738Y0104269
X0307269Y00802
X0309929
X0312589
X031525
X0317848Y0081
X031785Y0078574
Y00759
X0317848Y00836
X0320048Y00851
X03291Y0085699
X0331648Y0085699
Y008315
Y00806
X0330248Y00784
X0330303Y00759
X0332794
X0335285
X0337776
X0340266Y0076
X0342757Y00759
X0345248
X0304608Y00802
X0301948
X0298348
X0295948
X029595Y0077481
X02949Y0082599
X02923
X02898
X02866Y0078999
X0285Y0077099
T04
X0314548Y00276
X0297548Y00596
X0287244Y0063427
X0356765Y0072399
Y0075499
X0262165Y0044499
Y0041699
X0258965Y0041599
Y0044499
X02608Y0003099
X026375
X02667
X0256745Y0002499
X0253436
X0250126
X0246817
X0243507
X0240198
X0236888
X0233579
X0230269
X022696
X022365
X0220341
X0217031
X0213722
X0210412
X0207103
X0203793
X0200484
X0197174
X0193865
X0177065Y0002399
X0174031
X0170998
X0167965
X0150465Y0002799
X0147665
X0144865
X0142065
X0130161Y0007313
X0241048Y00078
X024429
X0247532
X0250774
X0229393Y0021083
X0124964Y0002671
X012213
X0119297
X0116464
X0117248Y00077
X0099165Y0003899
X0096265
X0094548Y00071
X0080007Y0004828
X0061548Y00359
X0057276Y0035828
X0056048Y00334
X0041493Y0026384
X00321Y0010399
X00284
X0014322Y0003198
X0010765Y0004099
X0008065Y0005899
X0005865Y0007999
X0004548Y0011
X0004546Y0014126
Y0017026
Y0019926
Y0022826
Y0025726
X0016848Y00346
X0016846Y0037726
Y0040626
Y0043526
Y0046426
Y0049326
X01079Y0038899
Y0036199
X00312Y01321
X0031593Y0135331
X00279Y0135099
X003445Y0136774
X003145Y0147774
X0037974Y0152087
X0038069Y015495
X002455Y0154174
X0013665Y0154379
Y0157639
Y0160899
Y0151119
Y0147859
Y0144599
X0005446Y01636
Y0166726
Y0169626
Y0172526
Y0175426
Y0178326
X0014048Y0185602
X0017174
X0020074
X0022974
X0025874
X0028774
X0048748Y0186502
X0051874
X0054774
X0057674
X005285Y0162174
X00255Y01275
X0141548Y01624
X0145248Y01662
X017105Y0161474
X019085Y0159774
X020395Y0149474
X0206448Y01693
X0229256Y0169751
X0230665Y0089599
X0222748Y00942
X025105Y0088983
X0275348Y00885
X0275365Y0085699
X0278365
X0278348Y00885
X0281348Y00886
Y00858
X0299548Y00883
X0302548
X0293448Y01004
X0293548Y01032
X0292865Y01128
X0292248Y01163
X0289347
X028615Y0112383
X0314448Y01077
X0323594Y01003
X0326594
X0329594
X0338165Y0094699
Y0091699
Y0088699
Y0085699
Y0082699
X0345265Y0078599
X0349098
X0352931
X0356765
X0354548Y01218
X0344848Y01242
Y012855
Y01329
X0347065Y0158999
X0350165Y0161499
Y0164399
Y0167299
X0337448Y01737
X0337621Y0185702
X033454
X0331459
X0328378
X0325297
X0322216
X0319135
X0316054
X0312972
X0309891
X030681
X0303729
X0300648
X0300787Y0172341
X0303837
X0308981Y0179367
X0312948Y01797
X0314448Y01637
X031801Y0159255
X0319795Y01246
X0319765Y0121799
X0319865Y0118999
X0340702Y0185702
X0343783
X0346865
T05
X0044565Y0140899
X0045865Y0142899
T06
X0108193Y0065831
Y0079831
X0111552Y0095183
X013123
X012753Y0090083
X014223Y0095183
X016143Y0106483
X0160606Y0134138
X0159735Y0142618
X0170693Y0082083
X0172693Y0080583
T07
X0320848Y00186
X0333548Y00332
X0249476Y0023114
X0220293Y0008884
X0215565Y0074999
X0212065
X01724Y0055423
X0145365Y0073899
X0141193Y0023831
X0133965Y0006799
X0069565Y0005299
X0065315
X0061065
Y0009699
X0065315
X0061065Y0013999
X0072248Y00243
X0075448
X00919Y0046923
X0039948Y00459
X0025548Y00648
X0043493Y0005331
X0051784Y014675
X005445Y0144232
X0079393Y0159531
X0081786Y0166056
X0084548Y01635
X0090806Y0170988
X008895Y0173774
X0088293Y0181631
X00822Y01804
X011105Y0182574
X003075Y0164683
X0026893Y0164831
X0134748Y01773
X0138648
Y01815
X0134648
X0189048Y01747
X0212696Y01715
X0212748Y0168
X02263Y0166699
X02297Y0166599
X0235Y0167799
X023515Y0171874
X023835
X0246693Y0172083
X02264Y0170199
X0219448Y01548
X0218465Y0146399
X0221965Y0146499
X0222065Y0142799
X0218565
X0209648Y01472
X0192148Y01035
X017465Y0075923
X017145Y0075874
X0145365Y0077999
X0145265Y0082299
X0152224Y0090799
X0222648Y00871
X0242765Y0085699
X0246365
X02452Y0110399
X02422Y0110499
X0238248Y01062
X0268693Y0104083
X0283048Y01077
X029585Y0178083
T08
X003583Y0022748
X0045079Y0019382
X0054328Y0016015
T09
X0005906Y0033858
Y0155118
X0231102Y0117717
X0353937Y0155118
T10
X0143052Y0058692
T11
X0261193Y0152831
M30
