G04 Layer_Physical_Order=5*
G04 Layer_Color=16737945*
%FSLAX25Y25*%
%MOIN*%
G70*
G01*
G75*
%ADD84C,0.09843*%
%ADD85C,0.06693*%
G04:AMPARAMS|DCode=87|XSize=236.22mil|YSize=236.22mil|CornerRadius=0mil|HoleSize=0mil|Usage=FLASHONLY|Rotation=0.000|XOffset=0mil|YOffset=0mil|HoleType=Round|Shape=RoundedRectangle|*
%AMROUNDEDRECTD87*
21,1,0.23622,0.23622,0,0,0.0*
21,1,0.23622,0.23622,0,0,0.0*
1,1,0.00000,0.11811,-0.11811*
1,1,0.00000,-0.11811,-0.11811*
1,1,0.00000,-0.11811,0.11811*
1,1,0.00000,0.11811,0.11811*
%
%ADD87ROUNDEDRECTD87*%
%ADD88C,0.01600*%
%ADD89C,0.02200*%
%ADD90C,0.03000*%
%ADD91C,0.01800*%
%ADD92C,0.02400*%
%ADD93C,0.02000*%
%ADD94C,0.01799*%
%ADD95C,0.01969*%
%ADD96C,0.12000*%
G36*
X358313Y120930D02*
X355118D01*
X355037Y120914D01*
X354253Y120811D01*
X353396Y120456D01*
X353193Y120300D01*
X347102D01*
X347023Y120361D01*
X346178Y120711D01*
X345279Y120829D01*
Y120829D01*
X345279Y120829D01*
X345276Y120829D01*
X342581D01*
Y136472D01*
X358313D01*
Y120930D01*
D02*
G37*
G36*
X346322Y187295D02*
X348496Y186773D01*
X350560Y185918D01*
X352466Y184750D01*
X354165Y183299D01*
X355616Y181599D01*
X356784Y179694D01*
X357639Y177629D01*
X358161Y175456D01*
X358330Y173312D01*
X358313Y173228D01*
Y151181D01*
X358318Y151158D01*
X358194Y150861D01*
X357897Y150738D01*
X357874Y150742D01*
D01*
X347665D01*
Y152799D01*
X334949D01*
Y169799D01*
X318949D01*
Y152579D01*
X320866D01*
X321253Y152502D01*
X321565Y152246D01*
Y112999D01*
X326775D01*
X327441Y112723D01*
X328346Y112604D01*
Y112604D01*
X340094D01*
Y105000D01*
X340242Y105001D01*
X340597Y104648D01*
Y83465D01*
X340596D01*
X340715Y82559D01*
X341065Y81715D01*
X341621Y80991D01*
X342345Y80435D01*
X343189Y80085D01*
X344094Y79966D01*
Y79967D01*
X357842D01*
X357874Y79960D01*
X357874Y79960D01*
X358194Y79842D01*
X358317Y79546D01*
X358313Y79528D01*
Y66999D01*
X347265D01*
X347165Y66899D01*
X347165Y35599D01*
X358313D01*
Y15748D01*
X358330Y15664D01*
X358161Y13520D01*
X357639Y11347D01*
X356784Y9282D01*
X355616Y7377D01*
X354165Y5677D01*
X352466Y4226D01*
X350560Y3058D01*
X348496Y2203D01*
X346322Y1681D01*
X344178Y1513D01*
X344094Y1529D01*
X327559D01*
X327536Y1525D01*
X327239Y1648D01*
X327115Y1946D01*
X327120Y1969D01*
Y4331D01*
X327120D01*
X327001Y5236D01*
X326652Y6080D01*
X326096Y6804D01*
X325371Y7360D01*
X324528Y7710D01*
X323622Y7829D01*
Y7829D01*
X272835D01*
Y7829D01*
X271929Y7710D01*
X271085Y7360D01*
X270361Y6804D01*
X269805Y6080D01*
X269455Y5236D01*
X269336Y4331D01*
X269337D01*
Y2118D01*
X269326Y2108D01*
X269326D01*
X269326Y2108D01*
X269289Y1922D01*
X269151Y1715D01*
X268944Y1577D01*
X268701Y1529D01*
X268644Y1540D01*
Y1540D01*
X268603Y1510D01*
X268504Y1529D01*
X15748D01*
X15664Y1513D01*
X13520Y1681D01*
X11347Y2203D01*
X9282Y3058D01*
X7377Y4226D01*
X5677Y5677D01*
X4226Y7377D01*
X3058Y9282D01*
X2203Y11347D01*
X1681Y13520D01*
X1513Y15664D01*
X1529Y15748D01*
Y38182D01*
X1660Y38497D01*
X2007Y38641D01*
X2034Y38636D01*
D01*
X2073Y38628D01*
X11811D01*
X11811Y38628D01*
Y38627D01*
D01*
D01*
Y38627D01*
X11811D01*
X11811D01*
X11811D01*
X11811Y38627D01*
X11811Y38628D01*
D01*
X12717Y38747D01*
X13560Y39096D01*
X14285Y39652D01*
X14841Y40377D01*
X15190Y41221D01*
X15310Y42126D01*
X15309D01*
Y42126D01*
X15309Y42126D01*
Y63540D01*
X15311Y63552D01*
X15309Y63565D01*
Y63606D01*
X15293Y63687D01*
X15190Y64472D01*
X14835Y65328D01*
X14270Y66064D01*
X13535Y66628D01*
X12678Y66983D01*
X11889Y67087D01*
X11811Y67103D01*
X2043D01*
X1963Y67119D01*
Y67119D01*
X1951Y67110D01*
X1647Y67236D01*
X1525Y67530D01*
X1529Y67552D01*
Y108315D01*
X1540Y108325D01*
X1540D01*
X1540Y108325D01*
X1577Y108511D01*
X1715Y108718D01*
X1922Y108856D01*
X2165Y108904D01*
X2222Y108893D01*
Y108893D01*
X2263Y108923D01*
X2362Y108904D01*
X12205D01*
X12444Y108951D01*
X12865Y109007D01*
X13663Y109337D01*
X14349Y109864D01*
X14875Y110549D01*
X15206Y111348D01*
X15319Y112205D01*
X15299Y112353D01*
X15309Y112402D01*
Y139961D01*
X15299Y140009D01*
X15319Y140157D01*
X15206Y141014D01*
X14875Y141813D01*
X14349Y142499D01*
X13663Y143025D01*
X12865Y143356D01*
X12444Y143411D01*
X12205Y143458D01*
X2362D01*
X2263Y143439D01*
X2222Y143469D01*
Y143469D01*
X2165Y143458D01*
X1922Y143506D01*
X1715Y143644D01*
X1577Y143851D01*
X1540Y144038D01*
X1540Y144038D01*
X1540D01*
X1529Y144047D01*
Y173228D01*
X1513Y173312D01*
X1681Y175456D01*
X2203Y177629D01*
X3058Y179694D01*
X4226Y181599D01*
X5677Y183299D01*
X7377Y184750D01*
X9282Y185918D01*
X11347Y186773D01*
X13520Y187295D01*
X15664Y187464D01*
X15748Y187447D01*
X344094D01*
X344178Y187464D01*
X346322Y187295D01*
D02*
G37*
%LPC*%
G36*
X170693Y84326D02*
X169834Y84155D01*
X169107Y83669D01*
X168621Y82941D01*
X168450Y82083D01*
X168621Y81224D01*
X169107Y80497D01*
X169834Y80010D01*
X170594Y79859D01*
X170621Y79724D01*
X171107Y78997D01*
X171304Y78865D01*
X171206Y78375D01*
X170474Y78229D01*
X169647Y77676D01*
X169095Y76850D01*
X168901Y75874D01*
X169095Y74899D01*
X169647Y74072D01*
X170474Y73519D01*
X170501Y73514D01*
X170692Y73052D01*
X170540Y72824D01*
X170393Y72083D01*
X170540Y71341D01*
X170960Y70713D01*
X171589Y70293D01*
X172330Y70145D01*
X173071Y70293D01*
X173700Y70713D01*
X174120Y71341D01*
X174267Y72083D01*
X174120Y72824D01*
X173977Y73037D01*
X174255Y73453D01*
X174650Y73374D01*
X175625Y73568D01*
X176452Y74121D01*
X177005Y74948D01*
X177199Y75923D01*
X177005Y76899D01*
X176452Y77726D01*
X175625Y78278D01*
X174650Y78472D01*
X174261Y78395D01*
X174070Y78857D01*
X174279Y78997D01*
X174765Y79724D01*
X174936Y80583D01*
X174765Y81441D01*
X174279Y82169D01*
X173551Y82655D01*
X172792Y82806D01*
X172765Y82941D01*
X172279Y83669D01*
X171551Y84155D01*
X170693Y84326D01*
D02*
G37*
G36*
X268693Y78021D02*
X267952Y77873D01*
X267323Y77453D01*
X266903Y76825D01*
X266756Y76083D01*
X266903Y75342D01*
X267323Y74714D01*
X267952Y74294D01*
X268693Y74146D01*
X269434Y74294D01*
X270063Y74714D01*
X270483Y75342D01*
X270630Y76083D01*
X270483Y76825D01*
X270063Y77453D01*
X269434Y77873D01*
X268693Y78021D01*
D02*
G37*
G36*
X213048Y80935D02*
X212346Y80796D01*
X211750Y80398D01*
X211352Y79802D01*
X211213Y79100D01*
X211352Y78398D01*
X211687Y77897D01*
X211496Y77435D01*
X211089Y77354D01*
X210262Y76802D01*
X209710Y75975D01*
X209516Y74999D01*
X209710Y74024D01*
X210262Y73197D01*
X211089Y72644D01*
X212065Y72450D01*
X213040Y72644D01*
X213815Y73162D01*
X214589Y72644D01*
X215565Y72450D01*
X216019Y72541D01*
X216373Y72187D01*
X216358Y72110D01*
X216497Y71408D01*
X216895Y70812D01*
X217491Y70415D01*
X218193Y70275D01*
X218895Y70415D01*
X219491Y70812D01*
X219888Y71408D01*
X220028Y72110D01*
X219888Y72813D01*
X219491Y73408D01*
X218895Y73806D01*
X218193Y73945D01*
X218048Y74672D01*
X218113Y74999D01*
X217919Y75975D01*
X217367Y76802D01*
X216540Y77354D01*
X215565Y77548D01*
X214589Y77354D01*
X214153Y77063D01*
X213738Y77341D01*
X213750Y77404D01*
X214346Y77802D01*
X214744Y78398D01*
X214883Y79100D01*
X214744Y79802D01*
X214346Y80398D01*
X213750Y80796D01*
X213048Y80935D01*
D02*
G37*
G36*
X145265Y84848D02*
X144289Y84654D01*
X143462Y84102D01*
X142910Y83275D01*
X142716Y82299D01*
X142910Y81324D01*
X143462Y80497D01*
X143658Y80366D01*
Y79866D01*
X143562Y79802D01*
X143010Y78975D01*
X142816Y77999D01*
X143010Y77024D01*
X143562Y76197D01*
Y75702D01*
X143010Y74875D01*
X142816Y73899D01*
X143010Y72924D01*
X143562Y72097D01*
X144389Y71544D01*
X145365Y71350D01*
X146340Y71544D01*
X147167Y72097D01*
X147720Y72924D01*
X147914Y73899D01*
X147720Y74875D01*
X147167Y75702D01*
Y76197D01*
X147720Y77024D01*
X147914Y77999D01*
X147720Y78975D01*
X147167Y79802D01*
X146971Y79933D01*
Y80433D01*
X147067Y80497D01*
X147619Y81324D01*
X147814Y82299D01*
X147619Y83275D01*
X147067Y84102D01*
X146240Y84654D01*
X145265Y84848D01*
D02*
G37*
G36*
X10200Y76135D02*
X9498Y75996D01*
X8902Y75598D01*
X8504Y75002D01*
X8365Y74300D01*
X8504Y73598D01*
X8902Y73002D01*
X9498Y72604D01*
X10200Y72465D01*
X10902Y72604D01*
X11498Y73002D01*
X11896Y73598D01*
X12035Y74300D01*
X11896Y75002D01*
X11498Y75598D01*
X10902Y75996D01*
X10200Y76135D01*
D02*
G37*
G36*
X108193Y82074D02*
X107334Y81903D01*
X106607Y81417D01*
X106121Y80689D01*
X105950Y79831D01*
X106121Y78972D01*
X106607Y78245D01*
X107334Y77758D01*
X108193Y77588D01*
X109051Y77758D01*
X109779Y78245D01*
X110265Y78972D01*
X110436Y79831D01*
X110265Y80689D01*
X109779Y81417D01*
X109051Y81903D01*
X108193Y82074D01*
D02*
G37*
G36*
X191693Y89666D02*
X190991Y89526D01*
X190395Y89128D01*
X189997Y88533D01*
X189858Y87831D01*
X189997Y87128D01*
X190395Y86533D01*
X190991Y86135D01*
X191693Y85996D01*
X192395Y86135D01*
X192991Y86533D01*
X193388Y87128D01*
X193528Y87831D01*
X193388Y88533D01*
X192991Y89128D01*
X192395Y89526D01*
X191693Y89666D01*
D02*
G37*
G36*
X246365Y88248D02*
X245389Y88054D01*
X244565Y87503D01*
X243740Y88054D01*
X242765Y88248D01*
X241789Y88054D01*
X240962Y87502D01*
X240410Y86675D01*
X240216Y85699D01*
X240410Y84724D01*
X240962Y83897D01*
X241789Y83344D01*
X242765Y83150D01*
X243740Y83344D01*
X244565Y83895D01*
X245389Y83344D01*
X246365Y83150D01*
X247340Y83344D01*
X248167Y83897D01*
X248720Y84724D01*
X248914Y85699D01*
X248720Y86675D01*
X248167Y87502D01*
X247340Y88054D01*
X246365Y88248D01*
D02*
G37*
G36*
X127530Y92326D02*
X126672Y92155D01*
X125944Y91669D01*
X125458Y90941D01*
X125287Y90083D01*
X125458Y89224D01*
X125944Y88497D01*
X126672Y88010D01*
X127530Y87840D01*
X128388Y88010D01*
X129116Y88497D01*
X129602Y89224D01*
X129773Y90083D01*
X129602Y90941D01*
X129116Y91669D01*
X128388Y92155D01*
X127530Y92326D01*
D02*
G37*
G36*
X264793Y81819D02*
X264091Y81679D01*
X263495Y81281D01*
X263097Y80686D01*
X262958Y79984D01*
X263097Y79281D01*
X263495Y78686D01*
X264091Y78288D01*
X264793Y78148D01*
X265495Y78288D01*
X266091Y78686D01*
X266489Y79281D01*
X266628Y79984D01*
X266489Y80686D01*
X266091Y81281D01*
X265495Y81679D01*
X264793Y81819D01*
D02*
G37*
G36*
X190389Y83362D02*
X189687Y83223D01*
X189092Y82825D01*
X188694Y82230D01*
X188554Y81527D01*
X188694Y80825D01*
X189092Y80229D01*
X189687Y79832D01*
X190389Y79692D01*
X191092Y79832D01*
X191687Y80229D01*
X192085Y80825D01*
X192225Y81527D01*
X192085Y82230D01*
X191687Y82825D01*
X191092Y83223D01*
X190389Y83362D01*
D02*
G37*
G36*
X222648Y89649D02*
X221673Y89455D01*
X220846Y88902D01*
X220293Y88076D01*
X220099Y87100D01*
X220293Y86124D01*
X220846Y85298D01*
X221673Y84745D01*
X222648Y84551D01*
X223623Y84745D01*
X224450Y85298D01*
X225003Y86124D01*
X225197Y87100D01*
X225003Y88076D01*
X224450Y88902D01*
X223623Y89455D01*
X222648Y89649D01*
D02*
G37*
G36*
X287244Y65568D02*
X286425Y65405D01*
X285730Y64941D01*
X285266Y64247D01*
X285103Y63427D01*
X285266Y62608D01*
X285599Y62109D01*
X285501Y61619D01*
X285278Y61470D01*
X284858Y60841D01*
X284711Y60100D01*
X284858Y59359D01*
X285278Y58730D01*
X285473Y58600D01*
Y58100D01*
X285278Y57970D01*
X284858Y57341D01*
X284711Y56600D01*
X284858Y55859D01*
X285278Y55230D01*
X285907Y54810D01*
X286648Y54663D01*
X287389Y54810D01*
X288018Y55230D01*
X288438Y55859D01*
X288585Y56600D01*
X288438Y57341D01*
X288018Y57970D01*
X287823Y58100D01*
Y58600D01*
X288018Y58730D01*
X288438Y59359D01*
X288585Y60100D01*
X288438Y60841D01*
X288051Y61420D01*
X288063Y61449D01*
X288758Y61913D01*
X289222Y62608D01*
X289385Y63427D01*
X289222Y64247D01*
X288758Y64941D01*
X288063Y65405D01*
X287244Y65568D01*
D02*
G37*
G36*
X297548Y61741D02*
X296729Y61578D01*
X296034Y61114D01*
X295570Y60419D01*
X295407Y59600D01*
X295570Y58781D01*
X296034Y58086D01*
X296729Y57622D01*
X297548Y57459D01*
X298367Y57622D01*
X299062Y58086D01*
X299526Y58781D01*
X299689Y59600D01*
X299526Y60419D01*
X299062Y61114D01*
X298367Y61578D01*
X297548Y61741D01*
D02*
G37*
G36*
X171400Y64135D02*
X170698Y63996D01*
X170102Y63598D01*
X169704Y63002D01*
X169565Y62300D01*
X169704Y61598D01*
X170102Y61002D01*
X170698Y60604D01*
X171400Y60465D01*
X171718Y60528D01*
X172002Y60102D01*
X172598Y59704D01*
X173291Y59566D01*
X173404Y58998D01*
X173802Y58402D01*
X174398Y58004D01*
X175100Y57865D01*
X175802Y58004D01*
X176398Y58402D01*
X176796Y58998D01*
X176935Y59700D01*
X176796Y60402D01*
X176398Y60998D01*
X175802Y61396D01*
X175109Y61533D01*
X174996Y62102D01*
X174598Y62698D01*
X174002Y63096D01*
X173300Y63235D01*
X172982Y63172D01*
X172698Y63598D01*
X172102Y63996D01*
X171400Y64135D01*
D02*
G37*
G36*
X298548Y53935D02*
X297846Y53796D01*
X297250Y53398D01*
X296852Y52802D01*
X296713Y52100D01*
X296852Y51398D01*
X297250Y50802D01*
X297846Y50404D01*
X298548Y50265D01*
X299250Y50404D01*
X299846Y50802D01*
X300244Y51398D01*
X300383Y52100D01*
X300244Y52802D01*
X299846Y53398D01*
X299250Y53796D01*
X298548Y53935D01*
D02*
G37*
G36*
X21400Y56035D02*
X20698Y55896D01*
X20102Y55498D01*
X19704Y54902D01*
X19565Y54200D01*
X19582Y54114D01*
X19250Y54048D01*
X18654Y53650D01*
X18257Y53054D01*
X18117Y52352D01*
X18257Y51650D01*
X18654Y51054D01*
X19250Y50656D01*
X19952Y50517D01*
X20654Y50656D01*
X21250Y51054D01*
X21648Y51650D01*
X21787Y52352D01*
X21770Y52438D01*
X22102Y52504D01*
X22698Y52902D01*
X23096Y53498D01*
X23235Y54200D01*
X23096Y54902D01*
X22698Y55498D01*
X22102Y55896D01*
X21400Y56035D01*
D02*
G37*
G36*
X172400Y57972D02*
X171424Y57778D01*
X170597Y57226D01*
X170045Y56399D01*
X169851Y55423D01*
X170045Y54448D01*
X170597Y53621D01*
X171424Y53068D01*
X172400Y52874D01*
X173375Y53068D01*
X174202Y53621D01*
X174755Y54448D01*
X174949Y55423D01*
X174755Y56399D01*
X174202Y57226D01*
X173375Y57778D01*
X172400Y57972D01*
D02*
G37*
G36*
X319648Y65537D02*
X318907Y65390D01*
X318278Y64970D01*
X317858Y64341D01*
X317711Y63600D01*
X317858Y62859D01*
X318278Y62230D01*
X318907Y61810D01*
X319648Y61663D01*
X320389Y61810D01*
D01*
Y61810D01*
X320569Y61497D01*
Y61497D01*
X320569Y61497D01*
X320835Y61099D01*
X320569Y60702D01*
X320429Y59999D01*
X320569Y59297D01*
X320967Y58701D01*
X321562Y58304D01*
X322265Y58164D01*
X322967Y58304D01*
X323562Y58701D01*
X323960Y59297D01*
X324100Y59999D01*
X323960Y60702D01*
X323694Y61099D01*
X323960Y61497D01*
X324100Y62199D01*
X323960Y62902D01*
X323562Y63497D01*
X322967Y63895D01*
X322265Y64034D01*
X321562Y63895D01*
X321523Y63911D01*
X321438Y64341D01*
X321018Y64970D01*
X320389Y65390D01*
X319648Y65537D01*
D02*
G37*
G36*
X25548Y67349D02*
X24573Y67155D01*
X23746Y66602D01*
X23193Y65776D01*
X22999Y64800D01*
X23193Y63824D01*
X23746Y62998D01*
X24573Y62445D01*
X25548Y62251D01*
X26524Y62445D01*
X27350Y62998D01*
X27903Y63824D01*
X28097Y64800D01*
X27903Y65776D01*
X27350Y66602D01*
X26524Y67155D01*
X25548Y67349D01*
D02*
G37*
G36*
X108193Y68074D02*
X107334Y67903D01*
X106607Y67417D01*
X106121Y66689D01*
X105950Y65831D01*
X106121Y64972D01*
X106607Y64245D01*
X107334Y63758D01*
X108193Y63588D01*
X109051Y63758D01*
X109779Y64245D01*
X110265Y64972D01*
X110436Y65831D01*
X110265Y66689D01*
X109779Y67417D01*
X109051Y67903D01*
X108193Y68074D01*
D02*
G37*
G36*
X323300Y74136D02*
X322559Y73989D01*
X321930Y73569D01*
X321510Y72940D01*
X321363Y72199D01*
X321510Y71458D01*
X321930Y70829D01*
X322559Y70410D01*
X323300Y70262D01*
X324041Y70410D01*
X324670Y70829D01*
X325090Y71458D01*
X325237Y72199D01*
X325090Y72940D01*
X324670Y73569D01*
X324041Y73989D01*
X323300Y74136D01*
D02*
G37*
G36*
X191693Y62666D02*
X190991Y62526D01*
X190395Y62128D01*
X189997Y61533D01*
X189858Y60831D01*
X189997Y60128D01*
X190395Y59533D01*
X190991Y59135D01*
X191693Y58995D01*
X192395Y59135D01*
X192991Y59533D01*
X193388Y60128D01*
X193528Y60831D01*
X193388Y61533D01*
X192991Y62128D01*
X192395Y62526D01*
X191693Y62666D01*
D02*
G37*
G36*
X273048Y65837D02*
X272307Y65690D01*
X271678Y65270D01*
X271258Y64641D01*
X271111Y63900D01*
X271258Y63159D01*
X271678Y62530D01*
X272307Y62110D01*
X273048Y61963D01*
X273789Y62110D01*
X274418Y62530D01*
X274838Y63159D01*
X274985Y63900D01*
X274838Y64641D01*
X274418Y65270D01*
X273789Y65690D01*
X273048Y65837D01*
D02*
G37*
G36*
X312393Y66918D02*
X311691Y66778D01*
X311095Y66380D01*
X310697Y65785D01*
X310558Y65083D01*
X310697Y64380D01*
X311095Y63785D01*
X311691Y63387D01*
X312393Y63247D01*
X312475Y63264D01*
X312795Y62785D01*
X313391Y62387D01*
X314093Y62247D01*
X314795Y62387D01*
X315391Y62785D01*
X315789Y63380D01*
X315928Y64083D01*
X315789Y64785D01*
X315391Y65380D01*
X314795Y65778D01*
X314093Y65918D01*
X314011Y65902D01*
X313691Y66380D01*
X313095Y66778D01*
X312393Y66918D01*
D02*
G37*
G36*
X238248Y108749D02*
X237273Y108555D01*
X236446Y108002D01*
X235893Y107176D01*
X235699Y106200D01*
X235893Y105225D01*
X236446Y104398D01*
X237273Y103845D01*
X238248Y103651D01*
X239224Y103845D01*
X240050Y104398D01*
X240603Y105225D01*
X240797Y106200D01*
X240603Y107176D01*
X240050Y108002D01*
X239224Y108555D01*
X238248Y108749D01*
D02*
G37*
G36*
X12900Y107835D02*
X12198Y107696D01*
X11602Y107298D01*
X11204Y106702D01*
X11065Y106000D01*
X11204Y105298D01*
X11602Y104702D01*
X12198Y104304D01*
X12900Y104165D01*
X13602Y104304D01*
X14198Y104702D01*
X14596Y105298D01*
X14735Y106000D01*
X14596Y106702D01*
X14198Y107298D01*
X13602Y107696D01*
X12900Y107835D01*
D02*
G37*
G36*
X161430Y108726D02*
X160572Y108555D01*
X159844Y108069D01*
X159358Y107341D01*
X159187Y106483D01*
X159358Y105624D01*
X159844Y104897D01*
X160572Y104410D01*
X161430Y104240D01*
X162288Y104410D01*
X163016Y104897D01*
X163502Y105624D01*
X163673Y106483D01*
X163502Y107341D01*
X163016Y108069D01*
X162288Y108555D01*
X161430Y108726D01*
D02*
G37*
G36*
X301748Y105037D02*
X301007Y104890D01*
X300378Y104470D01*
X299958Y103841D01*
X299811Y103100D01*
X299958Y102359D01*
X300378Y101730D01*
X301007Y101310D01*
X301748Y101163D01*
X302489Y101310D01*
X303118Y101730D01*
X303538Y102359D01*
X303685Y103100D01*
X303538Y103841D01*
X303118Y104470D01*
X302489Y104890D01*
X301748Y105037D01*
D02*
G37*
G36*
X307380Y106206D02*
X306638Y106058D01*
X306010Y105638D01*
X305590Y105010D01*
X305442Y104269D01*
X305590Y103527D01*
X306010Y102899D01*
X306638Y102479D01*
X307380Y102331D01*
X308121Y102479D01*
X308749Y102899D01*
X309169Y103527D01*
X309317Y104269D01*
X309169Y105010D01*
X308749Y105638D01*
X308121Y106058D01*
X307380Y106206D01*
D02*
G37*
G36*
X72730Y107149D02*
X72027Y107010D01*
X71432Y106612D01*
X71034Y106017D01*
X70894Y105314D01*
X71034Y104612D01*
X71432Y104016D01*
X72027Y103619D01*
X72730Y103479D01*
X73432Y103619D01*
X74027Y104016D01*
X74425Y104612D01*
X74565Y105314D01*
X74425Y106017D01*
X74027Y106612D01*
X73432Y107010D01*
X72730Y107149D01*
D02*
G37*
G36*
X80755Y110151D02*
X80052Y110012D01*
X79457Y109614D01*
X79059Y109019D01*
X78919Y108316D01*
X79059Y107614D01*
X79457Y107018D01*
X80052Y106621D01*
X80755Y106481D01*
X81457Y106621D01*
X82052Y107018D01*
X82450Y107614D01*
X82590Y108316D01*
X82450Y109019D01*
X82052Y109614D01*
X81457Y110012D01*
X80755Y110151D01*
D02*
G37*
G36*
X242200Y113048D02*
X241225Y112854D01*
X240398Y112302D01*
X239845Y111475D01*
X239651Y110499D01*
X239845Y109524D01*
X240398Y108697D01*
X241225Y108144D01*
X242200Y107950D01*
X243176Y108144D01*
X243625Y108445D01*
X244225Y108044D01*
X245200Y107850D01*
X246176Y108044D01*
X247002Y108597D01*
X247555Y109424D01*
X247749Y110399D01*
X247555Y111375D01*
X247002Y112202D01*
X246176Y112754D01*
X245200Y112948D01*
X244225Y112754D01*
X243775Y112454D01*
X243176Y112854D01*
X242200Y113048D01*
D02*
G37*
G36*
X155150Y108818D02*
X154447Y108678D01*
X153852Y108280D01*
X153707Y108064D01*
X153193Y108166D01*
X152491Y108026D01*
X151895Y107628D01*
X151497Y107033D01*
X151358Y106331D01*
X151497Y105628D01*
X151895Y105033D01*
X152491Y104635D01*
X153193Y104496D01*
X153895Y104635D01*
X154491Y105033D01*
X154635Y105250D01*
X155150Y105147D01*
X155852Y105287D01*
X156447Y105685D01*
X156845Y106280D01*
X156985Y106983D01*
X156845Y107685D01*
X156447Y108280D01*
X155852Y108678D01*
X155150Y108818D01*
D02*
G37*
G36*
X283048Y110249D02*
X282073Y110055D01*
X281246Y109502D01*
X280693Y108676D01*
X280499Y107700D01*
X280693Y106725D01*
X281246Y105898D01*
X282073Y105345D01*
X283048Y105151D01*
X284023Y105345D01*
X284850Y105898D01*
X285403Y106725D01*
X285597Y107700D01*
X285403Y108676D01*
X284850Y109502D01*
X284023Y110055D01*
X283048Y110249D01*
D02*
G37*
G36*
X314448Y109841D02*
X313629Y109678D01*
X312934Y109214D01*
X312470Y108519D01*
X312307Y107700D01*
X312470Y106881D01*
X312934Y106186D01*
X313629Y105722D01*
X314448Y105559D01*
X315267Y105722D01*
X315962Y106186D01*
X316426Y106881D01*
X316589Y107700D01*
X316426Y108519D01*
X315962Y109214D01*
X315267Y109678D01*
X314448Y109841D01*
D02*
G37*
G36*
X21100Y109635D02*
X20398Y109496D01*
X19802Y109098D01*
X19404Y108502D01*
X19265Y107800D01*
X19404Y107098D01*
X19802Y106502D01*
X20398Y106104D01*
X21100Y105965D01*
X21802Y106104D01*
X22398Y106502D01*
X22796Y107098D01*
X22935Y107800D01*
X22796Y108502D01*
X22398Y109098D01*
X21802Y109496D01*
X21100Y109635D01*
D02*
G37*
G36*
X268693Y106632D02*
X267718Y106438D01*
X266891Y105885D01*
X266338Y105058D01*
X266144Y104083D01*
X266338Y103107D01*
X266891Y102280D01*
X267718Y101728D01*
X268693Y101534D01*
X269668Y101728D01*
X270495Y102280D01*
X270595Y102430D01*
X271086Y102332D01*
X271203Y101742D01*
X271623Y101114D01*
X272252Y100694D01*
X272993Y100546D01*
X273734Y100694D01*
X274363Y101114D01*
X274555Y101401D01*
X275045Y101499D01*
X275652Y101094D01*
X275483Y100243D01*
X275403Y100125D01*
X275256Y99383D01*
X275403Y98642D01*
X275823Y98014D01*
X276452Y97594D01*
X277193Y97446D01*
X277934Y97594D01*
X278563Y98014D01*
X278983Y98642D01*
X279130Y99383D01*
X278997Y100051D01*
X279011Y100056D01*
Y100056D01*
X279460Y100241D01*
X279880Y99613D01*
X280508Y99193D01*
X281250Y99045D01*
X281991Y99193D01*
X282619Y99613D01*
X283039Y100241D01*
X283187Y100983D01*
X283039Y101724D01*
X282619Y102352D01*
X281991Y102772D01*
X281250Y102920D01*
X280508Y102772D01*
X279880Y102352D01*
X279460Y101724D01*
X279312Y100983D01*
X279445Y100315D01*
X279432Y100310D01*
Y100310D01*
X278983Y100125D01*
D01*
X278563Y100753D01*
X277934Y101173D01*
X277826Y101195D01*
X277763Y101514D01*
X278183Y102142D01*
X278330Y102884D01*
X278183Y103625D01*
X277763Y104253D01*
X277134Y104673D01*
X276393Y104821D01*
X275652Y104673D01*
X275023Y104253D01*
X274787Y103901D01*
X274363Y103853D01*
X274363Y103853D01*
Y103853D01*
X274363D01*
D01*
X273734Y104273D01*
X272993Y104421D01*
X272252Y104273D01*
X271701Y103905D01*
X271239Y104097D01*
X271048Y105058D01*
X270495Y105885D01*
X269668Y106438D01*
X268693Y106632D01*
D02*
G37*
G36*
X16100Y93435D02*
X15398Y93296D01*
X14802Y92898D01*
X14404Y92302D01*
X14265Y91600D01*
X14404Y90898D01*
X14802Y90302D01*
X15398Y89904D01*
X16100Y89765D01*
X16802Y89904D01*
X17398Y90302D01*
X17796Y90898D01*
X17935Y91600D01*
X17796Y92302D01*
X17398Y92898D01*
X16802Y93296D01*
X16100Y93435D01*
D02*
G37*
G36*
X275648Y94437D02*
X274907Y94290D01*
X274278Y93870D01*
X273858Y93241D01*
X273711Y92500D01*
X273858Y91759D01*
X274278Y91130D01*
X274907Y90710D01*
X275648Y90563D01*
X276389Y90710D01*
X277018Y91130D01*
X277438Y91759D01*
X277585Y92500D01*
X277438Y93241D01*
X277018Y93870D01*
X276389Y94290D01*
X275648Y94437D01*
D02*
G37*
G36*
X122350Y94609D02*
X121647Y94470D01*
X121052Y94072D01*
X120654Y93476D01*
X120514Y92774D01*
X120654Y92072D01*
X121052Y91476D01*
X121647Y91079D01*
X122350Y90939D01*
X123052Y91079D01*
X123647Y91476D01*
X124045Y92072D01*
X124185Y92774D01*
X124045Y93476D01*
X123647Y94072D01*
X123052Y94470D01*
X122350Y94609D01*
D02*
G37*
G36*
X152224Y93348D02*
X151249Y93154D01*
X150422Y92602D01*
X149870Y91775D01*
X149675Y90799D01*
X149870Y89824D01*
X150422Y88997D01*
X151249Y88444D01*
X152224Y88250D01*
X153200Y88444D01*
X154027Y88997D01*
X154579Y89824D01*
X154773Y90799D01*
X154579Y91775D01*
X154027Y92602D01*
X153200Y93154D01*
X152224Y93348D01*
D02*
G37*
G36*
X66395Y93335D02*
X65692Y93196D01*
X65097Y92798D01*
X64699Y92202D01*
X64559Y91500D01*
X64699Y90798D01*
X65097Y90202D01*
X65692Y89804D01*
X66395Y89665D01*
X67097Y89804D01*
X67692Y90202D01*
X68090Y90798D01*
X68230Y91500D01*
X68090Y92202D01*
X67692Y92798D01*
X67097Y93196D01*
X66395Y93335D01*
D02*
G37*
G36*
X173150Y96118D02*
X172447Y95978D01*
X171852Y95580D01*
X171454Y94985D01*
X171314Y94283D01*
X171454Y93580D01*
X171852Y92985D01*
X171852Y92985D01*
X171852D01*
X171895Y92880D01*
Y92880D01*
D01*
X171497Y92285D01*
X171358Y91583D01*
X171497Y90880D01*
X171895Y90285D01*
X172491Y89887D01*
X173193Y89747D01*
X173895Y89887D01*
X174491Y90285D01*
X174889Y90880D01*
X175028Y91583D01*
X174889Y92285D01*
X174491Y92880D01*
X174447Y92909D01*
Y92985D01*
X174845Y93580D01*
X174985Y94283D01*
X174845Y94985D01*
X174447Y95580D01*
X173852Y95978D01*
X173150Y96118D01*
D02*
G37*
G36*
X142230Y97426D02*
X141372Y97255D01*
X140644Y96769D01*
X140158Y96041D01*
X139987Y95183D01*
X140158Y94324D01*
X140644Y93597D01*
X141372Y93110D01*
X142230Y92940D01*
X143088Y93110D01*
X143816Y93597D01*
X144302Y94324D01*
X144473Y95183D01*
X144302Y96041D01*
X143816Y96769D01*
X143088Y97255D01*
X142230Y97426D01*
D02*
G37*
G36*
X164693Y97166D02*
X163991Y97026D01*
X163395Y96628D01*
X162997Y96033D01*
X162858Y95331D01*
X162997Y94628D01*
X163395Y94033D01*
X163991Y93635D01*
X164693Y93496D01*
X165395Y93635D01*
X165991Y94033D01*
X166388Y94628D01*
X166528Y95331D01*
X166388Y96033D01*
X165991Y96628D01*
X165395Y97026D01*
X164693Y97166D01*
D02*
G37*
G36*
X69620Y99015D02*
X68917Y98876D01*
X68322Y98478D01*
X67924Y97882D01*
X67784Y97180D01*
X67924Y96478D01*
X68322Y95882D01*
X68917Y95485D01*
X69620Y95345D01*
X70322Y95485D01*
X70917Y95882D01*
X71315Y96478D01*
X71455Y97180D01*
X71315Y97882D01*
X70917Y98478D01*
X70322Y98876D01*
X69620Y99015D01*
D02*
G37*
G36*
X222748Y96341D02*
X221929Y96178D01*
X221234Y95714D01*
X220770Y95019D01*
X220607Y94200D01*
X220770Y93381D01*
X221234Y92686D01*
X221929Y92222D01*
X222748Y92059D01*
X223567Y92222D01*
X224262Y92686D01*
X224726Y93381D01*
X224889Y94200D01*
X224726Y95019D01*
X224262Y95714D01*
X223567Y96178D01*
X222748Y96341D01*
D02*
G37*
G36*
X111552Y97426D02*
X110693Y97255D01*
X109966Y96769D01*
X109479Y96041D01*
X109309Y95183D01*
X109479Y94324D01*
X109966Y93597D01*
X110693Y93110D01*
X111552Y92940D01*
X112410Y93110D01*
X113138Y93597D01*
X113624Y94324D01*
X113795Y95183D01*
X113624Y96041D01*
X113138Y96769D01*
X112410Y97255D01*
X111552Y97426D01*
D02*
G37*
G36*
X131230D02*
X130371Y97255D01*
X129644Y96769D01*
X129158Y96041D01*
X128987Y95183D01*
X129158Y94324D01*
X129644Y93597D01*
X130371Y93110D01*
X131230Y92940D01*
X132088Y93110D01*
X132816Y93597D01*
X133302Y94324D01*
X133473Y95183D01*
X133302Y96041D01*
X132816Y96769D01*
X132088Y97255D01*
X131230Y97426D01*
D02*
G37*
G36*
X324065Y55534D02*
X323362Y55395D01*
X322767Y54997D01*
X322369Y54401D01*
X322229Y53699D01*
X322369Y52997D01*
X322518Y52774D01*
X322369Y52552D01*
X322229Y51849D01*
X322369Y51147D01*
X322518Y50924D01*
X322369Y50701D01*
X322229Y49999D01*
X322369Y49297D01*
X322767Y48702D01*
X323362Y48304D01*
X324065Y48164D01*
X324767Y48304D01*
X325362Y48702D01*
X325760Y49297D01*
X325900Y49999D01*
X325760Y50701D01*
X325611Y50924D01*
X325760Y51147D01*
X325900Y51849D01*
X325760Y52552D01*
X325611Y52774D01*
X325760Y52997D01*
X325900Y53699D01*
X325760Y54401D01*
X325362Y54997D01*
X324767Y55395D01*
X324065Y55534D01*
D02*
G37*
G36*
X212348Y24135D02*
X211646Y23996D01*
X211050Y23598D01*
X210652Y23002D01*
X210513Y22300D01*
X210652Y21598D01*
X211050Y21002D01*
X211646Y20604D01*
X212348Y20465D01*
X213050Y20604D01*
X213646Y21002D01*
X214044Y21598D01*
X214183Y22300D01*
X214044Y23002D01*
X213646Y23598D01*
X213050Y23996D01*
X212348Y24135D01*
D02*
G37*
G36*
X59648Y24837D02*
X58907Y24690D01*
X58278Y24270D01*
X57858Y23641D01*
X57711Y22900D01*
X57858Y22159D01*
X58278Y21530D01*
X58907Y21110D01*
X59648Y20963D01*
X60389Y21110D01*
X61018Y21530D01*
X61438Y22159D01*
X61585Y22900D01*
X61438Y23641D01*
X61018Y24270D01*
X60389Y24690D01*
X59648Y24837D01*
D02*
G37*
G36*
X192593Y29881D02*
X191891Y29741D01*
X191295Y29343D01*
X190897Y28748D01*
X190758Y28046D01*
X190854Y27561D01*
X190395Y27254D01*
X189997Y26659D01*
X189858Y25957D01*
X189997Y25254D01*
X190238Y24894D01*
X189997Y24533D01*
X189858Y23831D01*
X189997Y23128D01*
X190395Y22533D01*
X190991Y22135D01*
X191693Y21995D01*
X192395Y22135D01*
X192991Y22533D01*
X193388Y23128D01*
X193528Y23831D01*
X193388Y24533D01*
X193148Y24894D01*
X193388Y25254D01*
X193528Y25957D01*
X193432Y26441D01*
X193891Y26748D01*
X194289Y27343D01*
X194428Y28046D01*
X194289Y28748D01*
X193891Y29343D01*
X193295Y29741D01*
X192593Y29881D01*
D02*
G37*
G36*
X230211Y26198D02*
X229509Y26059D01*
X228913Y25661D01*
X228516Y25065D01*
X228376Y24363D01*
X228516Y23661D01*
X228913Y23065D01*
X229509Y22668D01*
X230211Y22528D01*
X230913Y22668D01*
X231509Y23065D01*
D01*
X231509Y23065D01*
D01*
X231916Y22818D01*
X231913Y22800D01*
X232052Y22098D01*
X232450Y21502D01*
X233046Y21104D01*
X233748Y20965D01*
X233844Y20984D01*
X233997Y20881D01*
Y20881D01*
X233997Y20881D01*
X234395Y20286D01*
X234991Y19888D01*
X235693Y19748D01*
X235693Y19748D01*
X235693Y19748D01*
X235957Y19571D01*
X235970Y19509D01*
X236368Y18913D01*
X236963Y18516D01*
X237665Y18376D01*
X237944Y18431D01*
X238336Y17845D01*
X238931Y17447D01*
X239634Y17307D01*
X240336Y17447D01*
X240932Y17845D01*
X241329Y18440D01*
X241424Y18918D01*
X241925D01*
X241964Y18720D01*
X242406Y18058D01*
X243068Y17616D01*
X243848Y17461D01*
X244628Y17616D01*
X245290Y18058D01*
X245732Y18720D01*
X245887Y19500D01*
X245732Y20280D01*
X245290Y20942D01*
X244628Y21384D01*
X243848Y21539D01*
X243068Y21384D01*
X242406Y20942D01*
X241964Y20280D01*
X241853Y19724D01*
X241353Y19724D01*
X241329Y19845D01*
X240932Y20440D01*
X240336Y20838D01*
X239634Y20978D01*
X239355Y20922D01*
X238963Y21509D01*
X238368Y21907D01*
X237665Y22046D01*
X237665Y22046D01*
X237665Y22046D01*
X237401Y22223D01*
X237388Y22286D01*
X236991Y22881D01*
X236395Y23279D01*
X235693Y23419D01*
X235469Y23374D01*
X235444Y23502D01*
X235046Y24098D01*
X234450Y24496D01*
X233748Y24635D01*
X233046Y24496D01*
X232450Y24098D01*
D01*
X232450Y24098D01*
D01*
X232043Y24345D01*
X232046Y24363D01*
X231907Y25065D01*
X231509Y25661D01*
X230913Y26059D01*
X230211Y26198D01*
D02*
G37*
G36*
X249476Y25663D02*
X248501Y25469D01*
X247674Y24917D01*
X247121Y24090D01*
X246927Y23114D01*
X247121Y22139D01*
X247674Y21312D01*
X248501Y20759D01*
X249476Y20565D01*
X249584Y20587D01*
X249938Y20233D01*
X249858Y19831D01*
X249997Y19128D01*
X250395Y18533D01*
X250991Y18135D01*
X251693Y17995D01*
X252395Y18135D01*
X252991Y18533D01*
X253389Y19128D01*
X253528Y19831D01*
X253389Y20533D01*
X252991Y21128D01*
X252395Y21526D01*
X251693Y21666D01*
X251604Y21799D01*
X251831Y22139D01*
X252025Y23114D01*
X251831Y24090D01*
X251279Y24917D01*
X250452Y25469D01*
X249476Y25663D01*
D02*
G37*
G36*
X283548Y23935D02*
X282846Y23796D01*
X282250Y23398D01*
X281853Y22802D01*
X281713Y22100D01*
X281853Y21398D01*
X282250Y20802D01*
X282846Y20404D01*
X283548Y20265D01*
X284250Y20404D01*
X284846Y20802D01*
X285244Y21398D01*
X285383Y22100D01*
X285244Y22802D01*
X284846Y23398D01*
X284250Y23796D01*
X283548Y23935D01*
D02*
G37*
G36*
X41493Y28525D02*
X40674Y28362D01*
X39979Y27898D01*
X39515Y27203D01*
X39352Y26384D01*
X39515Y25564D01*
X39979Y24870D01*
X40674Y24405D01*
X41493Y24242D01*
X42312Y24405D01*
X43007Y24870D01*
X43471Y25564D01*
X43634Y26384D01*
X43471Y27203D01*
X43007Y27898D01*
X42312Y28362D01*
X41493Y28525D01*
D02*
G37*
G36*
X244193Y33119D02*
X243491Y32979D01*
X242895Y32581D01*
X242497Y31986D01*
X242358Y31284D01*
X242497Y30581D01*
X242880Y30009D01*
X242597Y29586D01*
X242458Y28883D01*
X242597Y28181D01*
X242930Y27683D01*
X242597Y27186D01*
X242458Y26484D01*
X242597Y25781D01*
X242995Y25186D01*
X243591Y24788D01*
X244293Y24648D01*
X244995Y24788D01*
X245591Y25186D01*
X245988Y25781D01*
X246128Y26484D01*
X245988Y27186D01*
X245656Y27683D01*
X245988Y28181D01*
X246128Y28883D01*
X245988Y29586D01*
X245606Y30158D01*
X245888Y30581D01*
X246028Y31284D01*
X245888Y31986D01*
X245491Y32581D01*
X244895Y32979D01*
X244193Y33119D01*
D02*
G37*
G36*
X314548Y29741D02*
X313729Y29578D01*
X313034Y29114D01*
X312570Y28419D01*
X312407Y27600D01*
X312570Y26781D01*
X313034Y26086D01*
X313729Y25622D01*
X314548Y25459D01*
X315367Y25622D01*
X316062Y26086D01*
X316526Y26781D01*
X316689Y27600D01*
X316526Y28419D01*
X316062Y29114D01*
X315367Y29578D01*
X314548Y29741D01*
D02*
G37*
G36*
X221893Y26119D02*
X221191Y25979D01*
X220595Y25581D01*
X220197Y24986D01*
X220058Y24284D01*
X220197Y23581D01*
X220595Y22986D01*
X221191Y22588D01*
X221893Y22448D01*
X222595Y22588D01*
X223191Y22986D01*
X223588Y23581D01*
X223728Y24284D01*
X223588Y24986D01*
X223191Y25581D01*
X222595Y25979D01*
X221893Y26119D01*
D02*
G37*
G36*
X116630Y24418D02*
X115928Y24278D01*
X115380Y23912D01*
X114832Y24278D01*
X114130Y24418D01*
X113428Y24278D01*
X112832Y23880D01*
X112434Y23285D01*
X112295Y22583D01*
X112434Y21880D01*
X112832Y21285D01*
X113428Y20887D01*
X114130Y20747D01*
X114832Y20887D01*
X115380Y21253D01*
X115928Y20887D01*
X116630Y20747D01*
X117332Y20887D01*
X117928Y21285D01*
X118325Y21880D01*
X118465Y22583D01*
X118325Y23285D01*
X117928Y23880D01*
X117332Y24278D01*
X116630Y24418D01*
D02*
G37*
G36*
X259319Y31393D02*
X258617Y31253D01*
X258021Y30855D01*
X257623Y30260D01*
X257484Y29557D01*
X257623Y28855D01*
X258021Y28260D01*
X258617Y27862D01*
X259319Y27722D01*
X259477Y27754D01*
X259592Y27176D01*
X259990Y26580D01*
X260585Y26182D01*
X261216Y26057D01*
X261211Y26030D01*
X261350Y25328D01*
X261748Y24733D01*
X262344Y24335D01*
X263046Y24195D01*
X263748Y24335D01*
X264344Y24733D01*
X264741Y25328D01*
X264881Y26030D01*
X264741Y26733D01*
X264344Y27328D01*
X263748Y27726D01*
X263117Y27852D01*
X263123Y27878D01*
X262983Y28580D01*
X262585Y29176D01*
X261990Y29574D01*
X261287Y29713D01*
X261129Y29682D01*
X261015Y30260D01*
X260617Y30855D01*
X260021Y31253D01*
X259319Y31393D01*
D02*
G37*
G36*
X320848Y21149D02*
X319873Y20955D01*
X319046Y20402D01*
X318493Y19576D01*
X318299Y18600D01*
X318493Y17625D01*
X319046Y16798D01*
X319873Y16245D01*
X320848Y16051D01*
X321824Y16245D01*
X322650Y16798D01*
X323203Y17625D01*
X323397Y18600D01*
X323203Y19576D01*
X322650Y20402D01*
X321824Y20955D01*
X320848Y21149D01*
D02*
G37*
G36*
X158013Y13009D02*
X157310Y12869D01*
X156715Y12471D01*
X156317Y11875D01*
X156257Y11573D01*
X155735Y11469D01*
X155140Y11071D01*
X154742Y10475D01*
X154682Y10172D01*
X154160Y10069D01*
X153565Y9671D01*
X153167Y9076D01*
X153027Y8373D01*
X153167Y7671D01*
X153565Y7075D01*
X154160Y6678D01*
X154863Y6538D01*
X155565Y6678D01*
X156160Y7075D01*
X156558Y7671D01*
X156618Y7974D01*
X157140Y8078D01*
X157735Y8476D01*
X158133Y9071D01*
X158194Y9374D01*
X158715Y9478D01*
X159310Y9876D01*
X159708Y10471D01*
X159848Y11173D01*
X159708Y11875D01*
X159310Y12471D01*
X158715Y12869D01*
X158013Y13009D01*
D02*
G37*
G36*
X139100Y11034D02*
X138398Y10895D01*
X137802Y10497D01*
X137404Y9901D01*
X137265Y9199D01*
X137404Y8497D01*
X137802Y7902D01*
X138398Y7504D01*
X139100Y7364D01*
X139802Y7504D01*
X140398Y7902D01*
X140796Y8497D01*
X140935Y9199D01*
X140796Y9901D01*
X140398Y10497D01*
X139802Y10895D01*
X139100Y11034D01*
D02*
G37*
G36*
X161162Y7935D02*
X160459Y7796D01*
X159990Y7482D01*
X159695Y7679D01*
X158993Y7819D01*
X158291Y7679D01*
X157695Y7281D01*
X157297Y6686D01*
X157158Y5984D01*
X157297Y5281D01*
X157695Y4686D01*
X158291Y4288D01*
X158993Y4148D01*
X159695Y4288D01*
X160164Y4602D01*
X160459Y4404D01*
X161162Y4265D01*
X161864Y4404D01*
X162459Y4802D01*
X162857Y5398D01*
X162997Y6100D01*
X162857Y6802D01*
X162459Y7398D01*
X161864Y7796D01*
X161162Y7935D01*
D02*
G37*
G36*
X54710Y20383D02*
X53566Y20333D01*
X52475Y19989D01*
X51510Y19374D01*
X50736Y18530D01*
X50208Y17515D01*
X49960Y16398D01*
X50010Y15254D01*
X50354Y14163D01*
X50969Y13198D01*
X51813Y12424D01*
X52828Y11896D01*
X53946Y11648D01*
X55089Y11698D01*
X56180Y12042D01*
X57146Y12657D01*
X57919Y13501D01*
X58074Y13800D01*
X58569Y13729D01*
X58710Y13024D01*
X59262Y12197D01*
X59408Y12099D01*
Y11599D01*
X59262Y11502D01*
X58710Y10675D01*
X58516Y9699D01*
X58710Y8724D01*
X59262Y7897D01*
X59483Y7749D01*
Y7249D01*
X59262Y7102D01*
X58710Y6275D01*
X58516Y5299D01*
X58710Y4324D01*
X59262Y3497D01*
X60089Y2944D01*
X61065Y2750D01*
X62040Y2944D01*
X62867Y3497D01*
X62940Y3605D01*
X63440D01*
X63512Y3497D01*
X64339Y2944D01*
X65315Y2750D01*
X66290Y2944D01*
X67117Y3497D01*
X67190Y3605D01*
X67690D01*
X67762Y3497D01*
X68589Y2944D01*
X69565Y2750D01*
X70540Y2944D01*
X71367Y3497D01*
X71920Y4324D01*
X72114Y5299D01*
X71920Y6275D01*
X71367Y7102D01*
X70540Y7654D01*
X69565Y7848D01*
X68589Y7654D01*
X67762Y7102D01*
X67690Y6993D01*
X67190D01*
X67117Y7102D01*
X66896Y7249D01*
Y7749D01*
X67117Y7897D01*
X67669Y8724D01*
X67864Y9699D01*
X67669Y10675D01*
X67117Y11502D01*
X66290Y12054D01*
X65315Y12248D01*
X64339Y12054D01*
X63512Y11502D01*
X63440Y11393D01*
X62940D01*
X62867Y11502D01*
X62721Y11599D01*
Y12099D01*
X62867Y12197D01*
X63420Y13024D01*
X63613Y13999D01*
X63420Y14975D01*
X62867Y15802D01*
X62040Y16354D01*
X61065Y16548D01*
X60089Y16354D01*
X59262Y15802D01*
X59169Y15663D01*
X58688Y15797D01*
X58645Y16777D01*
X58301Y17868D01*
X57686Y18834D01*
X56842Y19607D01*
X55827Y20135D01*
X54710Y20383D01*
D02*
G37*
G36*
X133965Y9348D02*
X132989Y9154D01*
X132162Y8602D01*
X131610Y7775D01*
X131416Y6799D01*
X131610Y5824D01*
X132162Y4997D01*
X132989Y4444D01*
X133965Y4250D01*
X134940Y4444D01*
X135334Y4707D01*
X135397Y4681D01*
X135795Y4086D01*
X136391Y3688D01*
X137093Y3548D01*
X137795Y3688D01*
X138391Y4086D01*
X138788Y4681D01*
X138928Y5384D01*
X138788Y6086D01*
X138391Y6681D01*
X137795Y7079D01*
X137093Y7219D01*
X136455Y7092D01*
X136319Y7775D01*
X135767Y8602D01*
X134940Y9154D01*
X133965Y9348D01*
D02*
G37*
G36*
X220293Y11433D02*
X219318Y11238D01*
X218491Y10686D01*
X217938Y9859D01*
X217744Y8884D01*
X217938Y7908D01*
X218491Y7081D01*
X219318Y6528D01*
X220293Y6335D01*
X221268Y6528D01*
X222095Y7081D01*
X222648Y7908D01*
X222842Y8884D01*
X222648Y9859D01*
X222095Y10686D01*
X221268Y11238D01*
X220293Y11433D01*
D02*
G37*
G36*
X32100Y12540D02*
X31281Y12377D01*
X30586Y11913D01*
X30500Y11784D01*
X30000D01*
X29914Y11913D01*
X29219Y12377D01*
X28400Y12540D01*
X27581Y12377D01*
X26886Y11913D01*
X26422Y11219D01*
X26259Y10399D01*
X26422Y9580D01*
X26886Y8885D01*
X27581Y8421D01*
X28400Y8258D01*
X29219Y8421D01*
X29914Y8885D01*
X30000Y9014D01*
X30500D01*
X30586Y8885D01*
X31281Y8421D01*
X32100Y8258D01*
X32919Y8421D01*
X33614Y8885D01*
X34078Y9580D01*
X34241Y10399D01*
X34078Y11219D01*
X33614Y11913D01*
X32919Y12377D01*
X32100Y12540D01*
D02*
G37*
G36*
X146900Y13334D02*
X146198Y13195D01*
X145602Y12797D01*
X145600Y12794D01*
X145100D01*
X145098Y12797D01*
X144502Y13195D01*
X143800Y13334D01*
X143098Y13195D01*
X142502Y12797D01*
X142104Y12201D01*
X141965Y11499D01*
X142104Y10797D01*
X142502Y10202D01*
X143098Y9804D01*
X143800Y9664D01*
X144502Y9804D01*
X145098Y10202D01*
X145100Y10205D01*
X145600D01*
X145602Y10202D01*
X146198Y9804D01*
X146900Y9664D01*
X147602Y9804D01*
X148198Y10202D01*
X148596Y10797D01*
X148735Y11499D01*
X148596Y12201D01*
X148198Y12797D01*
X147602Y13195D01*
X146900Y13334D01*
D02*
G37*
G36*
X45461Y23749D02*
X44317Y23699D01*
X43226Y23355D01*
X42261Y22740D01*
X41488Y21896D01*
X40959Y20881D01*
X40712Y19764D01*
X40761Y18621D01*
X41105Y17529D01*
X41720Y16564D01*
X42564Y15791D01*
X43579Y15262D01*
X44697Y15015D01*
X45840Y15065D01*
X46931Y15409D01*
X47897Y16024D01*
X48670Y16867D01*
X49198Y17883D01*
X49446Y19000D01*
X49396Y20143D01*
X49052Y21235D01*
X48437Y22200D01*
X47593Y22973D01*
X46578Y23502D01*
X45461Y23749D01*
D02*
G37*
G36*
X199248Y11737D02*
X198507Y11590D01*
X197878Y11170D01*
X197458Y10541D01*
X197311Y9800D01*
X197458Y9059D01*
X197878Y8430D01*
X198507Y8010D01*
X199248Y7863D01*
X199989Y8010D01*
X200618Y8430D01*
X201038Y9059D01*
X201185Y9800D01*
X201038Y10541D01*
X200618Y11170D01*
X199989Y11590D01*
X199248Y11737D01*
D02*
G37*
G36*
X280948Y14937D02*
X280207Y14790D01*
X279578Y14370D01*
X279158Y13741D01*
X279011Y13000D01*
X279158Y12259D01*
X279578Y11630D01*
X280207Y11210D01*
X280732Y11106D01*
X280711Y11000D01*
X280858Y10259D01*
X281278Y9630D01*
X281907Y9210D01*
X282648Y9063D01*
X283389Y9210D01*
X284018Y9630D01*
X284438Y10259D01*
X284585Y11000D01*
X284438Y11741D01*
X284018Y12370D01*
X283389Y12790D01*
X282864Y12894D01*
X282885Y13000D01*
X282738Y13741D01*
X282318Y14370D01*
X281689Y14790D01*
X280948Y14937D01*
D02*
G37*
G36*
X164312Y13009D02*
X163609Y12869D01*
X163014Y12471D01*
X162616Y11875D01*
X162476Y11173D01*
X162616Y10471D01*
X163014Y9876D01*
X163609Y9478D01*
X164312Y9338D01*
X165014Y9478D01*
X165609Y9876D01*
X166007Y10471D01*
X166147Y11173D01*
X166007Y11875D01*
X165609Y12471D01*
X165014Y12869D01*
X164312Y13009D01*
D02*
G37*
G36*
X75448Y26849D02*
X74473Y26655D01*
X73848Y26238D01*
X73224Y26655D01*
X72248Y26849D01*
X71273Y26655D01*
X70446Y26102D01*
X69893Y25275D01*
X69699Y24300D01*
X69893Y23325D01*
X70446Y22498D01*
X71273Y21945D01*
X72248Y21751D01*
X73224Y21945D01*
X73848Y22362D01*
X74473Y21945D01*
X75448Y21751D01*
X76424Y21945D01*
X77250Y22498D01*
X77803Y23325D01*
X77997Y24300D01*
X77803Y25275D01*
X77250Y26102D01*
X76424Y26655D01*
X75448Y26849D01*
D02*
G37*
G36*
X218993Y44019D02*
X218291Y43879D01*
X217695Y43481D01*
X217297Y42886D01*
X217263Y42713D01*
X216591Y42579D01*
X215995Y42181D01*
X215597Y41586D01*
X215458Y40883D01*
X215597Y40181D01*
X215995Y39586D01*
X216591Y39188D01*
X217293Y39048D01*
X217995Y39188D01*
X218591Y39586D01*
X218988Y40181D01*
X219023Y40354D01*
X219695Y40488D01*
X220291Y40886D01*
X220689Y41481D01*
X220828Y42184D01*
X220689Y42886D01*
X220291Y43481D01*
X219695Y43879D01*
X218993Y44019D01*
D02*
G37*
G36*
X95893Y42799D02*
X95191Y42659D01*
X94595Y42261D01*
X94197Y41666D01*
X94058Y40963D01*
X94197Y40261D01*
X94595Y39666D01*
X95191Y39268D01*
X95893Y39128D01*
X96595Y39268D01*
X97191Y39666D01*
X97588Y40261D01*
X97728Y40963D01*
X97588Y41666D01*
X97191Y42261D01*
X96595Y42659D01*
X95893Y42799D01*
D02*
G37*
G36*
X79300Y44936D02*
X78559Y44789D01*
X77930Y44369D01*
X77510Y43741D01*
X77363Y42999D01*
X77510Y42258D01*
X77930Y41629D01*
X78559Y41209D01*
X79300Y41062D01*
X80041Y41209D01*
X80670Y41629D01*
X81090Y42258D01*
X81237Y42999D01*
X81090Y43741D01*
X80670Y44369D01*
X80041Y44789D01*
X79300Y44936D01*
D02*
G37*
G36*
X92148Y39335D02*
X91446Y39196D01*
X90850Y38798D01*
X90452Y38202D01*
X90313Y37500D01*
X90452Y36798D01*
X90850Y36202D01*
X91446Y35804D01*
X92148Y35665D01*
X92850Y35804D01*
X93446Y36202D01*
X93844Y36798D01*
X93983Y37500D01*
X93844Y38202D01*
X93446Y38798D01*
X92850Y39196D01*
X92148Y39335D01*
D02*
G37*
G36*
X284648Y40737D02*
X283907Y40590D01*
X283278Y40170D01*
X282858Y39541D01*
X282711Y38800D01*
X282858Y38059D01*
X283278Y37430D01*
X283907Y37010D01*
X284648Y36863D01*
X285389Y37010D01*
X286018Y37430D01*
X286438Y38059D01*
X286585Y38800D01*
X286438Y39541D01*
X286018Y40170D01*
X285389Y40590D01*
X284648Y40737D01*
D02*
G37*
G36*
X191730Y40818D02*
X191028Y40678D01*
X190432Y40280D01*
X190034Y39685D01*
X189895Y38983D01*
X190034Y38280D01*
X190432Y37685D01*
X191028Y37287D01*
X191730Y37147D01*
X192432Y37287D01*
X193028Y37685D01*
X193426Y38280D01*
X193565Y38983D01*
X193426Y39685D01*
X193028Y40280D01*
X192432Y40678D01*
X191730Y40818D01*
D02*
G37*
G36*
X286648Y51537D02*
X285907Y51390D01*
X285278Y50970D01*
X284858Y50341D01*
X284711Y49600D01*
X284858Y48859D01*
X285278Y48230D01*
X285473Y48100D01*
Y47600D01*
X285278Y47470D01*
X284858Y46841D01*
X284711Y46100D01*
X284858Y45359D01*
X285278Y44730D01*
X285907Y44310D01*
X286648Y44163D01*
X287389Y44310D01*
X288018Y44730D01*
X288438Y45359D01*
X288585Y46100D01*
X288438Y46841D01*
X288018Y47470D01*
X287823Y47600D01*
Y48100D01*
X288018Y48230D01*
X288438Y48859D01*
X288585Y49600D01*
X288438Y50341D01*
X288018Y50970D01*
X287389Y51390D01*
X286648Y51537D01*
D02*
G37*
G36*
X91900Y49472D02*
X90924Y49278D01*
X90097Y48726D01*
X89545Y47899D01*
X89351Y46923D01*
X89545Y45948D01*
X90097Y45121D01*
X90924Y44568D01*
X91900Y44374D01*
X92875Y44568D01*
X93702Y45121D01*
X94255Y45948D01*
X94449Y46923D01*
X94255Y47899D01*
X93702Y48726D01*
X92875Y49278D01*
X91900Y49472D01*
D02*
G37*
G36*
X110193Y50166D02*
X109491Y50026D01*
X108895Y49628D01*
X108497Y49033D01*
X108358Y48331D01*
X108497Y47628D01*
X108895Y47033D01*
X109491Y46635D01*
X110193Y46495D01*
X110895Y46635D01*
X111491Y47033D01*
X111889Y47628D01*
X112028Y48331D01*
X111889Y49033D01*
X111491Y49628D01*
X110895Y50026D01*
X110193Y50166D01*
D02*
G37*
G36*
X112350Y46218D02*
X111647Y46078D01*
X111052Y45680D01*
X110654Y45085D01*
X110514Y44383D01*
X110654Y43680D01*
X111052Y43085D01*
X111647Y42687D01*
X112350Y42547D01*
X113052Y42687D01*
X113647Y43085D01*
X114045Y43680D01*
X114185Y44383D01*
X114045Y45085D01*
X113647Y45680D01*
X113052Y46078D01*
X112350Y46218D01*
D02*
G37*
G36*
X39948Y48449D02*
X38973Y48255D01*
X38146Y47702D01*
X37593Y46876D01*
X37399Y45900D01*
X37593Y44925D01*
X38146Y44098D01*
X38973Y43545D01*
X39948Y43351D01*
X40924Y43545D01*
X41750Y44098D01*
X42303Y44925D01*
X42497Y45900D01*
X42303Y46876D01*
X41750Y47702D01*
X40924Y48255D01*
X39948Y48449D01*
D02*
G37*
G36*
X211748Y49135D02*
X211046Y48996D01*
X210450Y48598D01*
X210052Y48002D01*
X209913Y47300D01*
X210052Y46598D01*
X210450Y46002D01*
X211046Y45604D01*
X211748Y45465D01*
X211862Y45351D01*
X211858Y45331D01*
X211997Y44628D01*
X212395Y44033D01*
X212991Y43635D01*
X213693Y43495D01*
X214395Y43635D01*
X214991Y44033D01*
X215388Y44628D01*
X215528Y45331D01*
X215388Y46033D01*
X214991Y46628D01*
X214395Y47026D01*
X213693Y47166D01*
X213579Y47280D01*
X213583Y47300D01*
X213444Y48002D01*
X213046Y48598D01*
X212450Y48996D01*
X211748Y49135D01*
D02*
G37*
G36*
X276448Y40337D02*
X275707Y40190D01*
X275078Y39770D01*
X274658Y39141D01*
X274511Y38400D01*
X274578Y38064D01*
X274300Y37648D01*
X274007Y37590D01*
X273378Y37170D01*
X272958Y36541D01*
X272811Y35800D01*
X272863Y35536D01*
X272401Y35345D01*
X272318Y35470D01*
X271689Y35890D01*
X270948Y36037D01*
X270207Y35890D01*
X269578Y35470D01*
X269158Y34841D01*
X269011Y34100D01*
X269158Y33359D01*
X269578Y32730D01*
X270207Y32310D01*
X270948Y32163D01*
X271689Y32310D01*
X272318Y32730D01*
X272738Y33359D01*
X272885Y34100D01*
X272833Y34364D01*
X273295Y34555D01*
X273378Y34430D01*
X274007Y34010D01*
X274748Y33863D01*
X275489Y34010D01*
X276118Y34430D01*
X276538Y35059D01*
X276685Y35800D01*
X276618Y36136D01*
X276896Y36552D01*
X277189Y36610D01*
X277818Y37030D01*
X278238Y37659D01*
X278385Y38400D01*
X278238Y39141D01*
X277818Y39770D01*
X277189Y40190D01*
X276448Y40337D01*
D02*
G37*
G36*
X284748Y30435D02*
X284046Y30296D01*
X283450Y29898D01*
X283052Y29302D01*
X282913Y28600D01*
X283052Y27898D01*
X283450Y27302D01*
X284046Y26904D01*
X284748Y26765D01*
X285450Y26904D01*
X286046Y27302D01*
X286444Y27898D01*
X286583Y28600D01*
X286444Y29302D01*
X286046Y29898D01*
X285450Y30296D01*
X284748Y30435D01*
D02*
G37*
G36*
X271048Y31437D02*
X270307Y31290D01*
X269678Y30870D01*
X269258Y30241D01*
X269111Y29500D01*
X269258Y28759D01*
X269678Y28130D01*
X270307Y27710D01*
X271048Y27563D01*
X271789Y27710D01*
X272418Y28130D01*
X272838Y28759D01*
X272985Y29500D01*
X272838Y30241D01*
X272418Y30870D01*
X271789Y31290D01*
X271048Y31437D01*
D02*
G37*
G36*
X92193Y32880D02*
X91491Y32740D01*
X90895Y32343D01*
X90497Y31747D01*
X90358Y31045D01*
X90497Y30343D01*
X90895Y29747D01*
X91491Y29349D01*
X92193Y29210D01*
X92895Y29349D01*
X93491Y29747D01*
X93888Y30343D01*
X94028Y31045D01*
X93888Y31747D01*
X93491Y32343D01*
X92895Y32740D01*
X92193Y32880D01*
D02*
G37*
G36*
X173730Y26866D02*
X173028Y26726D01*
X172432Y26328D01*
X172430Y26325D01*
X171930D01*
X171928Y26328D01*
X171332Y26726D01*
X170630Y26866D01*
X169928Y26726D01*
X169332Y26328D01*
X169280Y26250D01*
X168780D01*
X168728Y26328D01*
X168132Y26726D01*
X167430Y26866D01*
X166728Y26726D01*
X166132Y26328D01*
X165734Y25733D01*
X165595Y25031D01*
X165734Y24328D01*
X166132Y23733D01*
X166728Y23335D01*
X167273Y23227D01*
X167195Y22831D01*
X167334Y22128D01*
X167732Y21533D01*
X168328Y21135D01*
X169030Y20995D01*
X169732Y21135D01*
X170328Y21533D01*
X170380Y21611D01*
X170880D01*
X170932Y21533D01*
X171528Y21135D01*
X172230Y20995D01*
X172932Y21135D01*
X173528Y21533D01*
X173530Y21536D01*
X174030D01*
X174032Y21533D01*
X174628Y21135D01*
X175330Y20995D01*
X176032Y21135D01*
X176511Y21455D01*
X176991Y21135D01*
X177693Y20995D01*
X178395Y21135D01*
X178991Y21533D01*
X179388Y22128D01*
X179528Y22831D01*
X179388Y23533D01*
X178991Y24128D01*
X178395Y24526D01*
X177693Y24666D01*
X176991Y24526D01*
X176511Y24206D01*
X176032Y24526D01*
X175486Y24635D01*
X175565Y25031D01*
X175426Y25733D01*
X175028Y26328D01*
X174432Y26726D01*
X173730Y26866D01*
D02*
G37*
G36*
X151730D02*
X151028Y26726D01*
X150432Y26328D01*
X149991D01*
X149395Y26726D01*
X148693Y26866D01*
X147991Y26726D01*
X147693Y26527D01*
X147395Y26726D01*
X146693Y26866D01*
X145991Y26726D01*
X145693Y26527D01*
X145395Y26726D01*
X144693Y26866D01*
X143991Y26726D01*
X143395Y26328D01*
X142997Y25733D01*
X142904Y25694D01*
X142168Y26186D01*
X141193Y26380D01*
X140217Y26186D01*
X139391Y25633D01*
X138838Y24806D01*
D01*
X138552Y24526D01*
X137850Y24666D01*
X137147Y24526D01*
X136700Y24227D01*
X136252Y24526D01*
X135550Y24666D01*
X134847Y24526D01*
X134252Y24128D01*
X134128D01*
X133532Y24526D01*
X132967Y24639D01*
X132888Y25033D01*
X132491Y25628D01*
X131895Y26026D01*
X131193Y26166D01*
X130491Y26026D01*
X129895Y25628D01*
X129522Y25069D01*
X129315D01*
X128977Y25137D01*
X128947Y25180D01*
X128352Y25578D01*
X127650Y25718D01*
X126947Y25578D01*
X126352Y25180D01*
X125954Y24585D01*
X125814Y23883D01*
X125954Y23180D01*
X126352Y22585D01*
X126947Y22187D01*
X127650Y22047D01*
X128004Y22118D01*
X128395Y21533D01*
X128991Y21135D01*
X129693Y20995D01*
X130395Y21135D01*
X130991Y21533D01*
X131011Y21564D01*
X131511D01*
X131532Y21533D01*
X132128Y21135D01*
X132830Y20995D01*
X133532Y21135D01*
X134128Y21533D01*
X134252D01*
X134847Y21135D01*
X135550Y20995D01*
X136252Y21135D01*
X136700Y21434D01*
X137147Y21135D01*
X137850Y20995D01*
X138552Y21135D01*
X139147Y21533D01*
X139451Y21988D01*
X140217Y21476D01*
X141193Y21282D01*
X142168Y21476D01*
X142995Y22028D01*
X143548Y22855D01*
X143588Y23055D01*
X144003Y23333D01*
X144693Y23195D01*
X145395Y23335D01*
X145693Y23534D01*
X145991Y23335D01*
X146693Y23195D01*
X147395Y23335D01*
X147693Y23534D01*
X147991Y23335D01*
X148380Y23258D01*
X148295Y22831D01*
X148434Y22128D01*
X148832Y21533D01*
X149428Y21135D01*
X150130Y20995D01*
X150832Y21135D01*
X151428Y21533D01*
X151480Y21611D01*
X151980D01*
X152032Y21533D01*
X152628Y21135D01*
X153330Y20995D01*
X154032Y21135D01*
X154628Y21533D01*
X155025Y22128D01*
X155165Y22831D01*
X155025Y23533D01*
X154628Y24128D01*
X154032Y24526D01*
X153486Y24635D01*
X153565Y25031D01*
X153426Y25733D01*
X153028Y26328D01*
X152432Y26726D01*
X151730Y26866D01*
D02*
G37*
G36*
X191193Y52166D02*
X190491Y52026D01*
X189895Y51628D01*
X189497Y51033D01*
X189358Y50331D01*
X189497Y49628D01*
X189895Y49033D01*
X190427Y48678D01*
X190358Y48331D01*
X190497Y47628D01*
X190895Y47033D01*
X191491Y46635D01*
X191913Y46551D01*
X191997Y46128D01*
X192395Y45533D01*
X192991Y45135D01*
X193413Y45051D01*
X193497Y44628D01*
X193895Y44033D01*
X194491Y43635D01*
X195193Y43495D01*
X195415Y43540D01*
X195497Y43128D01*
X195895Y42533D01*
X196491Y42135D01*
X196732Y42087D01*
X196854Y41472D01*
X197252Y40876D01*
X197847Y40479D01*
X198141Y40420D01*
X198249Y39880D01*
X198647Y39284D01*
X199242Y38887D01*
X199796Y38776D01*
X199988Y38314D01*
X199834Y38085D01*
X199695Y37383D01*
X199834Y36680D01*
X200232Y36085D01*
X200828Y35687D01*
X201530Y35547D01*
X201530Y35547D01*
X201530Y35547D01*
X201566Y35523D01*
X201634Y35180D01*
X202032Y34585D01*
X202628Y34187D01*
X203330Y34047D01*
X203437Y34069D01*
X203534Y33580D01*
X203932Y32985D01*
X204528Y32587D01*
X204721Y32549D01*
X204834Y31980D01*
X205232Y31385D01*
X205828Y30987D01*
X206354Y30882D01*
X206434Y30480D01*
X206832Y29885D01*
X206917Y29458D01*
X206734Y29185D01*
X206595Y28483D01*
X206734Y27780D01*
X207132Y27185D01*
X207728Y26787D01*
X208430Y26647D01*
X209132Y26787D01*
X209728Y27185D01*
X210125Y27780D01*
X210265Y28483D01*
X210125Y29185D01*
X209728Y29780D01*
X209643Y30207D01*
X209825Y30480D01*
X209965Y31183D01*
X209825Y31885D01*
X209428Y32480D01*
X208832Y32878D01*
X208305Y32983D01*
X208225Y33385D01*
X207828Y33980D01*
X207232Y34378D01*
X207038Y34417D01*
X206926Y34985D01*
X206528Y35580D01*
X205932Y35978D01*
X205230Y36118D01*
X205230Y36118D01*
X205230Y36118D01*
X205101Y36204D01*
X205026Y36585D01*
X204628Y37180D01*
X204032Y37578D01*
X203330Y37718D01*
D01*
D01*
X203239Y38019D01*
X203225Y38085D01*
X203213Y38104D01*
X203213Y38104D01*
X202828Y38680D01*
X202828Y38680D01*
X202232Y39078D01*
X201530Y39218D01*
X201454Y39601D01*
X201640Y39880D01*
X201780Y40582D01*
X201640Y41284D01*
X201242Y41880D01*
X200647Y42278D01*
X200353Y42336D01*
X200245Y42876D01*
X199847Y43472D01*
X199252Y43870D01*
X199011Y43918D01*
X198889Y44533D01*
X198491Y45128D01*
X197895Y45526D01*
X197193Y45666D01*
X196970Y45622D01*
X196888Y46033D01*
X196491Y46628D01*
X195895Y47026D01*
X195473Y47110D01*
X195388Y47533D01*
X194991Y48128D01*
X194395Y48526D01*
X193973Y48610D01*
X193888Y49033D01*
X193491Y49628D01*
X192959Y49984D01*
X193028Y50331D01*
X192888Y51033D01*
X192491Y51628D01*
X191895Y52026D01*
X191193Y52166D01*
D02*
G37*
G36*
X301465Y39235D02*
X300762Y39095D01*
X300167Y38697D01*
X299769Y38102D01*
X299629Y37399D01*
X299769Y36697D01*
X299951Y36424D01*
X299869Y36301D01*
X299729Y35599D01*
X299869Y34897D01*
X300267Y34301D01*
X300862Y33904D01*
X301565Y33764D01*
X302267Y33904D01*
X302862Y34301D01*
X303260Y34897D01*
X303400Y35599D01*
X303260Y36301D01*
X303078Y36574D01*
X303160Y36697D01*
X303300Y37399D01*
X303160Y38102D01*
X302762Y38697D01*
X302167Y39095D01*
X301465Y39235D01*
D02*
G37*
G36*
X246965Y38434D02*
X246262Y38295D01*
X245667Y37897D01*
X245269Y37301D01*
X245129Y36599D01*
X245269Y35897D01*
X245667Y35302D01*
X246262Y34904D01*
X246965Y34764D01*
X247667Y34904D01*
X248262Y35302D01*
X248660Y35897D01*
X248800Y36599D01*
X248660Y37301D01*
X248262Y37897D01*
X247667Y38295D01*
X246965Y38434D01*
D02*
G37*
G36*
X309648Y35535D02*
X308946Y35396D01*
X308598Y35163D01*
X308250Y35396D01*
X307548Y35535D01*
X306846Y35396D01*
X306250Y34998D01*
X305853Y34402D01*
X305713Y33700D01*
X305853Y32998D01*
X306250Y32402D01*
X306846Y32004D01*
X307548Y31865D01*
X308250Y32004D01*
X308598Y32237D01*
X308946Y32004D01*
X309648Y31865D01*
X310350Y32004D01*
X310946Y32402D01*
X311344Y32998D01*
X311483Y33700D01*
X311344Y34402D01*
X310946Y34998D01*
X310350Y35396D01*
X309648Y35535D01*
D02*
G37*
G36*
X333548Y35749D02*
X332573Y35555D01*
X331746Y35002D01*
X331193Y34176D01*
X330999Y33200D01*
X331193Y32225D01*
X331746Y31398D01*
X332573Y30845D01*
X333548Y30651D01*
X334524Y30845D01*
X335350Y31398D01*
X335903Y32225D01*
X336097Y33200D01*
X335903Y34176D01*
X335350Y35002D01*
X334524Y35555D01*
X333548Y35749D01*
D02*
G37*
G36*
X57276Y37969D02*
X56457Y37806D01*
X55762Y37342D01*
X55298Y36648D01*
X55135Y35828D01*
X55225Y35376D01*
X54534Y34914D01*
X54070Y34219D01*
X53907Y33400D01*
X54070Y32581D01*
X54534Y31886D01*
X55229Y31422D01*
X56048Y31259D01*
X56867Y31422D01*
X57562Y31886D01*
X58026Y32581D01*
X58189Y33400D01*
X58099Y33852D01*
X58790Y34314D01*
X59254Y35009D01*
X59417Y35828D01*
X59254Y36648D01*
X58790Y37342D01*
X58096Y37806D01*
X57276Y37969D01*
D02*
G37*
G36*
X228793Y42419D02*
X228091Y42279D01*
X227495Y41881D01*
X227097Y41286D01*
X226958Y40584D01*
X227097Y39881D01*
X227495Y39286D01*
X228091Y38888D01*
X228721Y38762D01*
X228797Y38381D01*
X229195Y37786D01*
X229791Y37388D01*
X230414Y37264D01*
X230358Y36983D01*
X230497Y36281D01*
X230895Y35686D01*
X231491Y35288D01*
X231613Y35264D01*
X231890Y34848D01*
X231858Y34683D01*
X231997Y33981D01*
X232395Y33386D01*
X232991Y32988D01*
X233693Y32848D01*
X234395Y32988D01*
X234991Y33386D01*
X235388Y33981D01*
X235528Y34683D01*
X235388Y35386D01*
X234991Y35981D01*
X234395Y36379D01*
X234273Y36403D01*
X233996Y36819D01*
X234028Y36983D01*
X233889Y37686D01*
X233491Y38281D01*
X232895Y38679D01*
X232272Y38803D01*
X232328Y39083D01*
X232189Y39786D01*
X231791Y40381D01*
X231195Y40779D01*
X230564Y40905D01*
X230488Y41286D01*
X230091Y41881D01*
X229495Y42279D01*
X228793Y42419D01*
D02*
G37*
G36*
X173550Y109611D02*
X172808Y109464D01*
X172180Y109044D01*
X172180D01*
Y109044D01*
X171694Y108947D01*
X171434Y109121D01*
X170693Y109268D01*
X169952Y109121D01*
X169323Y108701D01*
X168903Y108072D01*
X168756Y107331D01*
X168903Y106589D01*
X169323Y105961D01*
X169952Y105541D01*
X170693Y105394D01*
X171434Y105541D01*
X172063Y105961D01*
X172063D01*
Y105961D01*
X172549Y106058D01*
X172808Y105884D01*
X173550Y105737D01*
X174291Y105884D01*
X174919Y106304D01*
X175339Y106933D01*
X175487Y107674D01*
X175339Y108415D01*
X174919Y109044D01*
X174291Y109464D01*
X173550Y109611D01*
D02*
G37*
G36*
X140048Y159435D02*
X139346Y159296D01*
X138750Y158898D01*
X138353Y158302D01*
X138213Y157600D01*
X138353Y156898D01*
X138750Y156302D01*
X139346Y155904D01*
X140048Y155765D01*
X140750Y155904D01*
X141346Y156302D01*
X141744Y156898D01*
X141883Y157600D01*
X141744Y158302D01*
X141346Y158898D01*
X140750Y159296D01*
X140048Y159435D01*
D02*
G37*
G36*
X65952Y159829D02*
X65210Y159682D01*
X64582Y159262D01*
X64162Y158633D01*
X64014Y157892D01*
X64162Y157151D01*
X64394Y156803D01*
X64041Y156450D01*
X63693Y156682D01*
X62952Y156829D01*
X62210Y156682D01*
X61582Y156262D01*
X61162Y155633D01*
X61014Y154892D01*
X61162Y154151D01*
X61313Y153924D01*
X60960Y153570D01*
X60793Y153682D01*
X60052Y153829D01*
X59310Y153682D01*
X58682Y153262D01*
X58262Y152634D01*
X58114Y151892D01*
X58262Y151151D01*
X58682Y150522D01*
X59310Y150102D01*
X60052Y149955D01*
X60793Y150102D01*
X61422Y150522D01*
X61841Y151151D01*
X61989Y151892D01*
X61841Y152634D01*
X61690Y152860D01*
X62043Y153214D01*
X62210Y153102D01*
X62952Y152955D01*
X63693Y153102D01*
X64322Y153522D01*
X64741Y154151D01*
X64889Y154892D01*
X64741Y155633D01*
X64509Y155981D01*
X64863Y156335D01*
X65210Y156102D01*
X65952Y155955D01*
X66693Y156102D01*
X67321Y156522D01*
X67741Y157151D01*
X67889Y157892D01*
X67741Y158633D01*
X67321Y159262D01*
X66693Y159682D01*
X65952Y159829D01*
D02*
G37*
G36*
X79393Y162080D02*
X78417Y161886D01*
X77591Y161333D01*
X77038Y160506D01*
X76844Y159531D01*
X77038Y158555D01*
X77591Y157728D01*
X78417Y157176D01*
X79393Y156982D01*
X80368Y157176D01*
X81195Y157728D01*
X81748Y158555D01*
X81942Y159531D01*
X81748Y160506D01*
X81195Y161333D01*
X80368Y161886D01*
X79393Y162080D01*
D02*
G37*
G36*
X154748Y164735D02*
X154046Y164596D01*
X153450Y164198D01*
X153052Y163602D01*
X152913Y162900D01*
X153052Y162198D01*
X153450Y161602D01*
X153454Y161600D01*
Y161100D01*
X153450Y161098D01*
X153052Y160502D01*
X152913Y159800D01*
X153052Y159098D01*
X153277Y158762D01*
X153052Y158426D01*
X152913Y157723D01*
X153052Y157021D01*
X153277Y156685D01*
X153052Y156349D01*
X152913Y155647D01*
X153052Y154945D01*
X153450Y154349D01*
X154046Y153951D01*
X154748Y153812D01*
X155450Y153951D01*
X156046Y154349D01*
X156444Y154945D01*
X156583Y155647D01*
X156444Y156349D01*
X156219Y156685D01*
X156444Y157021D01*
X156583Y157723D01*
X156444Y158426D01*
X156219Y158762D01*
X156444Y159098D01*
X156583Y159800D01*
X156444Y160502D01*
X156046Y161098D01*
X156042Y161100D01*
Y161600D01*
X156046Y161602D01*
X156444Y162198D01*
X156583Y162900D01*
X156444Y163602D01*
X156046Y164198D01*
X155450Y164596D01*
X154748Y164735D01*
D02*
G37*
G36*
X165265Y161435D02*
X164562Y161296D01*
X163967Y160898D01*
X163569Y160302D01*
X163429Y159600D01*
X163569Y158898D01*
X163967Y158302D01*
X164562Y157904D01*
X164718Y157873D01*
Y157373D01*
X164562Y157343D01*
X163967Y156945D01*
X163569Y156349D01*
X163429Y155647D01*
X163569Y154945D01*
X163967Y154349D01*
X164562Y153951D01*
X165265Y153812D01*
X165967Y153951D01*
X166562Y154349D01*
X166960Y154945D01*
X167100Y155647D01*
X166960Y156349D01*
X166562Y156945D01*
X165967Y157343D01*
X165811Y157373D01*
Y157873D01*
X165967Y157904D01*
X166562Y158302D01*
X166960Y158898D01*
X167100Y159600D01*
X166960Y160302D01*
X166562Y160898D01*
X165967Y161296D01*
X165265Y161435D01*
D02*
G37*
G36*
X279430Y155681D02*
X278689Y155533D01*
X278384Y155330D01*
X278171Y155472D01*
X277430Y155620D01*
X276689Y155472D01*
X276060Y155052D01*
X275640Y154424D01*
X275493Y153683D01*
X275640Y152941D01*
X276060Y152313D01*
X276689Y151893D01*
X277430Y151745D01*
X278171Y151893D01*
X278475Y152096D01*
X278689Y151953D01*
X279430Y151806D01*
X280171Y151953D01*
X280800Y152374D01*
X281220Y153002D01*
X281367Y153743D01*
X281220Y154485D01*
X280800Y155113D01*
X280171Y155533D01*
X279430Y155681D01*
D02*
G37*
G36*
X52850Y164315D02*
X52030Y164152D01*
X51336Y163688D01*
X50871Y162993D01*
X50709Y162174D01*
X50871Y161355D01*
X51336Y160660D01*
X52030Y160196D01*
X52850Y160033D01*
X53669Y160196D01*
X54364Y160660D01*
X54828Y161355D01*
X54991Y162174D01*
X54828Y162993D01*
X54364Y163688D01*
X53669Y164152D01*
X52850Y164315D01*
D02*
G37*
G36*
X81786Y168605D02*
X80811Y168411D01*
X79984Y167859D01*
X79431Y167032D01*
X79237Y166056D01*
X79431Y165081D01*
X79984Y164254D01*
X80811Y163701D01*
X81786Y163507D01*
X81786D01*
X81999Y163500D01*
D01*
X82193Y162524D01*
X82746Y161698D01*
X83573Y161145D01*
X84548Y160951D01*
X85523Y161145D01*
X86350Y161698D01*
X86903Y162524D01*
X87097Y163500D01*
X86903Y164476D01*
X86350Y165302D01*
X85523Y165855D01*
X84548Y166049D01*
X84548D01*
X84335Y166056D01*
X84141Y167032D01*
X83588Y167859D01*
X82762Y168411D01*
X81786Y168605D01*
D02*
G37*
G36*
X314448Y165841D02*
X313629Y165678D01*
X312934Y165214D01*
X312470Y164519D01*
X312307Y163700D01*
X312470Y162881D01*
X312934Y162186D01*
X313629Y161722D01*
X314448Y161559D01*
X315267Y161722D01*
X315962Y162186D01*
X316426Y162881D01*
X316589Y163700D01*
X316426Y164519D01*
X315962Y165214D01*
X315267Y165678D01*
X314448Y165841D01*
D02*
G37*
G36*
X171948Y171796D02*
X171246Y171656D01*
X170650Y171258D01*
X170253Y170663D01*
X170158Y170188D01*
X169562Y170070D01*
X168967Y169672D01*
X168569Y169076D01*
X168429Y168374D01*
X168569Y167672D01*
X168967Y167076D01*
Y166897D01*
X168569Y166302D01*
X168429Y165599D01*
X168569Y164897D01*
X168967Y164302D01*
X169562Y163904D01*
X169957Y163825D01*
X170054Y163335D01*
X169536Y162988D01*
X169071Y162293D01*
X168909Y161474D01*
X169071Y160655D01*
X169071Y160655D01*
X169071Y160655D01*
X168983Y160207D01*
X168967Y160197D01*
X168569Y159601D01*
X168429Y158899D01*
X168569Y158197D01*
X168967Y157601D01*
X169562Y157204D01*
X170265Y157064D01*
X170967Y157204D01*
X171562Y157601D01*
X171960Y158197D01*
X172100Y158899D01*
X171968Y159562D01*
X172564Y159960D01*
X173028Y160655D01*
X173191Y161474D01*
X173028Y162293D01*
X172564Y162988D01*
X171869Y163452D01*
X171294Y163567D01*
X171196Y164057D01*
X171562Y164302D01*
X171960Y164897D01*
X171975Y164970D01*
X172650Y165104D01*
X173246Y165502D01*
X173644Y166098D01*
X173783Y166800D01*
X173644Y167502D01*
X173246Y168098D01*
X173197Y168130D01*
Y168630D01*
X173246Y168663D01*
X173644Y169258D01*
X173783Y169961D01*
X173644Y170663D01*
X173246Y171258D01*
X172650Y171656D01*
X171948Y171796D01*
D02*
G37*
G36*
X69252Y162927D02*
X68549Y162788D01*
X67954Y162390D01*
X67556Y161794D01*
X67416Y161092D01*
X67556Y160390D01*
X67954Y159794D01*
X68549Y159397D01*
X69252Y159257D01*
X69954Y159397D01*
X70549Y159794D01*
X70947Y160390D01*
X71087Y161092D01*
X70947Y161794D01*
X70549Y162390D01*
X69954Y162788D01*
X69252Y162927D01*
D02*
G37*
G36*
X245693Y163666D02*
X244991Y163526D01*
X244395Y163128D01*
X243997Y162533D01*
X243858Y161831D01*
X243997Y161128D01*
X244395Y160533D01*
X244991Y160135D01*
X245693Y159995D01*
X246395Y160135D01*
X246991Y160533D01*
X247389Y161128D01*
X247528Y161831D01*
X247389Y162533D01*
X246991Y163128D01*
X246395Y163526D01*
X245693Y163666D01*
D02*
G37*
G36*
X201550Y162609D02*
X200847Y162470D01*
X200252Y162072D01*
X199854Y161476D01*
X199714Y160774D01*
X199854Y160072D01*
X200153Y159624D01*
X199854Y159176D01*
X199714Y158474D01*
X199854Y157772D01*
X200120Y157374D01*
X199854Y156976D01*
X199714Y156274D01*
X199854Y155572D01*
X200086Y155224D01*
X199854Y154876D01*
X199714Y154174D01*
X199854Y153472D01*
X200252Y152876D01*
X200847Y152479D01*
X201550Y152339D01*
X202252Y152479D01*
X202847Y152876D01*
X203245Y153472D01*
X203385Y154174D01*
X203245Y154876D01*
X203013Y155224D01*
X203245Y155572D01*
X203385Y156274D01*
X203245Y156976D01*
X202979Y157374D01*
X203245Y157772D01*
X203385Y158474D01*
X203245Y159176D01*
X202946Y159624D01*
X203245Y160072D01*
X203385Y160774D01*
X203245Y161476D01*
X202847Y162072D01*
X202252Y162470D01*
X201550Y162609D01*
D02*
G37*
G36*
X245500Y158603D02*
X244798Y158463D01*
X244202Y158065D01*
X243804Y157470D01*
X243665Y156768D01*
X243804Y156065D01*
X244202Y155470D01*
X244374Y155355D01*
X244004Y154801D01*
X243865Y154099D01*
X243875Y154046D01*
X243502Y153797D01*
X243104Y153201D01*
X242965Y152499D01*
X243104Y151797D01*
X243502Y151201D01*
X244098Y150804D01*
X244134Y150619D01*
X244102Y150597D01*
X243704Y150002D01*
X243565Y149299D01*
X243704Y148597D01*
X243748Y148532D01*
X243594Y148301D01*
X243454Y147599D01*
X243594Y146897D01*
X243992Y146301D01*
X244587Y145904D01*
X245290Y145764D01*
X245992Y145904D01*
X246587Y146301D01*
X246985Y146897D01*
X247125Y147599D01*
X247077Y147839D01*
X247355Y148255D01*
X247602Y148304D01*
X248198Y148702D01*
X248596Y149297D01*
X248735Y149999D01*
X248596Y150701D01*
X248198Y151297D01*
X248190Y151302D01*
X248093Y151792D01*
X248096Y151797D01*
X248235Y152499D01*
X248096Y153201D01*
X247698Y153797D01*
X247501Y153928D01*
X247535Y154099D01*
X247396Y154801D01*
X246998Y155397D01*
X246826Y155512D01*
X247196Y156065D01*
X247335Y156768D01*
X247196Y157470D01*
X246798Y158065D01*
X246202Y158463D01*
X245500Y158603D01*
D02*
G37*
G36*
X296895Y149635D02*
X296192Y149496D01*
X295597Y149098D01*
X295199Y148502D01*
X295059Y147800D01*
X295199Y147098D01*
X295597Y146502D01*
X296192Y146104D01*
X296895Y145965D01*
X297597Y146104D01*
X298192Y146502D01*
X298590Y147098D01*
X298730Y147800D01*
X298590Y148502D01*
X298192Y149098D01*
X297597Y149496D01*
X296895Y149635D01*
D02*
G37*
G36*
X290848Y150435D02*
X290146Y150296D01*
X289550Y149898D01*
X289153Y149302D01*
X289013Y148600D01*
X289153Y147898D01*
X289550Y147302D01*
X290146Y146904D01*
X290848Y146765D01*
X291550Y146904D01*
X292146Y147302D01*
X292544Y147898D01*
X292683Y148600D01*
X292544Y149302D01*
X292146Y149898D01*
X291550Y150296D01*
X290848Y150435D01*
D02*
G37*
G36*
X78052Y147127D02*
X77349Y146988D01*
X76754Y146590D01*
X76356Y145994D01*
X76216Y145292D01*
X76356Y144590D01*
X76754Y143994D01*
X77349Y143597D01*
X78052Y143457D01*
X78754Y143597D01*
X79349Y143994D01*
X79747Y144590D01*
X79887Y145292D01*
X79747Y145994D01*
X79349Y146590D01*
X78754Y146988D01*
X78052Y147127D01*
D02*
G37*
G36*
X209648Y149749D02*
X208673Y149555D01*
X207846Y149002D01*
X207293Y148176D01*
X207099Y147200D01*
X207293Y146224D01*
X207846Y145398D01*
X208673Y144845D01*
X209648Y144651D01*
X210624Y144845D01*
X211450Y145398D01*
X212003Y146224D01*
X212197Y147200D01*
X212003Y148176D01*
X211450Y149002D01*
X210624Y149555D01*
X209648Y149749D01*
D02*
G37*
G36*
X279248Y150735D02*
X278546Y150596D01*
X277950Y150198D01*
X277553Y149602D01*
X277427Y148974D01*
X276947Y148878D01*
X276352Y148480D01*
X275954Y147885D01*
X275814Y147183D01*
X275954Y146480D01*
X276352Y145885D01*
X276947Y145487D01*
X277650Y145347D01*
X278352Y145487D01*
X278515Y145596D01*
X279076Y145221D01*
X279779Y145081D01*
X280481Y145221D01*
X281076Y145619D01*
X281474Y146214D01*
X281614Y146916D01*
X281474Y147619D01*
X281076Y148214D01*
X280962Y148291D01*
X281083Y148900D01*
X280944Y149602D01*
X280546Y150198D01*
X279950Y150596D01*
X279248Y150735D01*
D02*
G37*
G36*
X203950Y151615D02*
X203130Y151452D01*
X202436Y150988D01*
X202370Y150890D01*
X202252Y150970D01*
X201550Y151109D01*
X200847Y150970D01*
X200252Y150572D01*
X199854Y149976D01*
X199714Y149274D01*
X199854Y148572D01*
X200252Y147976D01*
X200847Y147579D01*
X201550Y147439D01*
X202252Y147579D01*
X202629Y147831D01*
X203130Y147496D01*
X203950Y147333D01*
X204769Y147496D01*
X205464Y147960D01*
X205928Y148655D01*
X206091Y149474D01*
X205928Y150293D01*
X205464Y150988D01*
X204769Y151452D01*
X203950Y151615D01*
D02*
G37*
G36*
X24550Y156315D02*
X23730Y156152D01*
X23036Y155688D01*
X22571Y154993D01*
X22409Y154174D01*
X22571Y153355D01*
X23036Y152660D01*
X23730Y152196D01*
X24550Y152033D01*
X25369Y152196D01*
X26064Y152660D01*
X26528Y153355D01*
X26691Y154174D01*
X26528Y154993D01*
X26064Y155688D01*
X25369Y156152D01*
X24550Y156315D01*
D02*
G37*
G36*
X219448Y157349D02*
X218473Y157155D01*
X217646Y156602D01*
X217093Y155775D01*
X216899Y154800D01*
X217093Y153824D01*
X217646Y152998D01*
X218473Y152445D01*
X219448Y152251D01*
X220424Y152445D01*
X221250Y152998D01*
X221803Y153824D01*
X221997Y154800D01*
X221803Y155775D01*
X221250Y156602D01*
X220424Y157155D01*
X219448Y157349D01*
D02*
G37*
G36*
X56952Y150727D02*
X56249Y150588D01*
X55654Y150190D01*
X55256Y149594D01*
X55116Y148892D01*
X55256Y148190D01*
X55654Y147594D01*
X56249Y147197D01*
X56952Y147057D01*
X57654Y147197D01*
X58249Y147594D01*
X58647Y148190D01*
X58787Y148892D01*
X58647Y149594D01*
X58249Y150190D01*
X57654Y150588D01*
X56952Y150727D01*
D02*
G37*
G36*
X300948Y151035D02*
X300246Y150896D01*
X299650Y150498D01*
X299253Y149902D01*
X299113Y149200D01*
X299253Y148498D01*
X299650Y147902D01*
X300246Y147504D01*
X300948Y147365D01*
X301650Y147504D01*
X302246Y147902D01*
X302644Y148498D01*
X302783Y149200D01*
X302644Y149902D01*
X302246Y150498D01*
X301650Y150896D01*
X300948Y151035D01*
D02*
G37*
G36*
X221965Y149048D02*
X220989Y148854D01*
X220162Y148302D01*
X220148Y148281D01*
X219440Y148754D01*
X218465Y148948D01*
X217489Y148754D01*
X216662Y148202D01*
X216110Y147375D01*
X215916Y146399D01*
X216110Y145424D01*
X216662Y144597D01*
Y144597D01*
X216662D01*
X216684Y144485D01*
X216210Y143775D01*
X216016Y142799D01*
X216210Y141824D01*
X216762Y140997D01*
X217589Y140444D01*
X218565Y140250D01*
X219540Y140444D01*
X220315Y140962D01*
X221089Y140444D01*
X222065Y140250D01*
X223040Y140444D01*
X223867Y140997D01*
X224419Y141824D01*
X224613Y142799D01*
X224419Y143775D01*
X223867Y144602D01*
X223767Y144668D01*
Y144697D01*
X224320Y145524D01*
X224514Y146499D01*
X224320Y147475D01*
X223767Y148302D01*
X222940Y148854D01*
X221965Y149048D01*
D02*
G37*
G36*
X26893Y167380D02*
X25918Y167186D01*
X25091Y166633D01*
X24538Y165806D01*
X24344Y164831D01*
X24538Y163855D01*
X25091Y163028D01*
X25918Y162476D01*
X26893Y162282D01*
X27868Y162476D01*
X28695Y163028D01*
X28947Y162880D01*
X28947Y162880D01*
X29774Y162328D01*
X30750Y162134D01*
X31725Y162328D01*
X32552Y162880D01*
X33105Y163707D01*
X33299Y164683D01*
X33105Y165658D01*
X32552Y166485D01*
X31725Y167038D01*
X30750Y167232D01*
X29774Y167038D01*
X28947Y166485D01*
X28695Y166633D01*
X28695Y166633D01*
X27868Y167186D01*
X26893Y167380D01*
D02*
G37*
G36*
X72250Y179909D02*
X71547Y179770D01*
X70952Y179372D01*
X70554Y178776D01*
X70414Y178074D01*
X70554Y177372D01*
X70952Y176776D01*
X71255Y176574D01*
Y176074D01*
X70952Y175872D01*
X70554Y175276D01*
X70414Y174574D01*
X70554Y173872D01*
X70952Y173276D01*
X71547Y172879D01*
X72250Y172739D01*
X72952Y172879D01*
X73547Y173276D01*
X73945Y173872D01*
X74085Y174574D01*
X73945Y175276D01*
X73547Y175872D01*
X72952Y176270D01*
X73547Y176776D01*
D01*
D01*
X73547Y176776D01*
X73547Y176776D01*
X73547Y176776D01*
X73547Y176776D01*
D01*
X73945Y177372D01*
X74085Y178074D01*
X73945Y178776D01*
X73547Y179372D01*
X72952Y179770D01*
X72250Y179909D01*
D02*
G37*
G36*
X56600Y181435D02*
X55898Y181295D01*
X55302Y180897D01*
X54904Y180301D01*
X54765Y179599D01*
X54904Y178897D01*
X55302Y178302D01*
X55898Y177904D01*
X56600Y177764D01*
X57302Y177904D01*
X57898Y178302D01*
X58296Y178897D01*
X58435Y179599D01*
X58296Y180301D01*
X57898Y180897D01*
X57302Y181295D01*
X56600Y181435D01*
D02*
G37*
G36*
X82200Y182949D02*
X81225Y182755D01*
X80398Y182202D01*
X79845Y181376D01*
X79651Y180400D01*
X79845Y179425D01*
X80398Y178598D01*
X81225Y178045D01*
X82200Y177851D01*
X83175Y178045D01*
X84002Y178598D01*
X84555Y179425D01*
X84749Y180400D01*
X84555Y181376D01*
X84002Y182202D01*
X83175Y182755D01*
X82200Y182949D01*
D02*
G37*
G36*
X248450Y179809D02*
X247747Y179670D01*
X247152Y179272D01*
X246754Y178676D01*
X246614Y177974D01*
X246754Y177272D01*
X246886Y177074D01*
X246754Y176876D01*
X246614Y176174D01*
X246754Y175472D01*
X247048Y175032D01*
X246770Y174616D01*
X246693Y174632D01*
X245718Y174438D01*
X244890Y173885D01*
X244338Y173058D01*
X244144Y172083D01*
X244338Y171107D01*
X244890Y170280D01*
X245718Y169728D01*
X246693Y169534D01*
X247668Y169728D01*
X248495Y170280D01*
X249048Y171107D01*
X249242Y172083D01*
X249048Y173058D01*
X248495Y173885D01*
X248852Y174419D01*
X249152Y174478D01*
X249747Y174876D01*
X250145Y175472D01*
X250285Y176174D01*
X250145Y176876D01*
X250013Y177074D01*
X250145Y177272D01*
X250285Y177974D01*
X250145Y178676D01*
X249747Y179272D01*
X249152Y179670D01*
X248450Y179809D01*
D02*
G37*
G36*
X295850Y180632D02*
X294874Y180438D01*
X294047Y179885D01*
X293495Y179058D01*
X293301Y178083D01*
X293495Y177107D01*
X294047Y176280D01*
X294874Y175728D01*
X295850Y175534D01*
X296825Y175728D01*
X297652Y176280D01*
X298205Y177107D01*
X298399Y178083D01*
X298205Y179058D01*
X297652Y179885D01*
X296825Y180438D01*
X295850Y180632D01*
D02*
G37*
G36*
X171648Y177135D02*
X170946Y176996D01*
X170498Y176696D01*
X170050Y176996D01*
X169348Y177135D01*
X168646Y176996D01*
X168050Y176598D01*
X167652Y176002D01*
X167513Y175300D01*
X167652Y174598D01*
X168050Y174002D01*
X168646Y173604D01*
X169348Y173465D01*
X170050Y173604D01*
X170498Y173904D01*
X170946Y173604D01*
X171648Y173465D01*
X172350Y173604D01*
X172946Y174002D01*
X173344Y174598D01*
X173483Y175300D01*
X173344Y176002D01*
X172946Y176598D01*
X172350Y176996D01*
X171648Y177135D01*
D02*
G37*
G36*
X111050Y185123D02*
X110074Y184929D01*
X109247Y184376D01*
X108695Y183549D01*
X108501Y182574D01*
X108695Y181599D01*
X109247Y180772D01*
X110074Y180219D01*
X111050Y180025D01*
X112025Y180219D01*
X112852Y180772D01*
X113405Y181599D01*
X113599Y182574D01*
X113405Y183549D01*
X112852Y184376D01*
X112025Y184929D01*
X111050Y185123D01*
D02*
G37*
G36*
X312948Y181841D02*
X312129Y181678D01*
X311434Y181214D01*
X311103Y180719D01*
X310603D01*
X310495Y180881D01*
X309801Y181345D01*
X308981Y181508D01*
X308162Y181345D01*
X307467Y180881D01*
X307003Y180186D01*
X306840Y179367D01*
X307003Y178548D01*
X307467Y177853D01*
X308162Y177389D01*
X308981Y177226D01*
X309801Y177389D01*
X310495Y177853D01*
X310826Y178348D01*
X311326D01*
X311434Y178186D01*
X312129Y177722D01*
X312948Y177559D01*
X313767Y177722D01*
X314462Y178186D01*
X314926Y178881D01*
X315089Y179700D01*
X314926Y180519D01*
X314462Y181214D01*
X313767Y181678D01*
X312948Y181841D01*
D02*
G37*
G36*
X138648Y184049D02*
X137673Y183855D01*
X136846Y183302D01*
X136450D01*
X135624Y183855D01*
X134648Y184049D01*
X133673Y183855D01*
X132846Y183302D01*
X132293Y182475D01*
X132099Y181500D01*
X132293Y180525D01*
X132846Y179698D01*
X132967Y179617D01*
Y179117D01*
X132946Y179102D01*
X132393Y178276D01*
X132199Y177300D01*
X132393Y176324D01*
X132946Y175498D01*
X133773Y174945D01*
X134748Y174751D01*
X135723Y174945D01*
X136550Y175498D01*
X136846D01*
X137673Y174945D01*
X137883Y174903D01*
Y174403D01*
X137846Y174396D01*
X137250Y173998D01*
X136853Y173402D01*
X136713Y172700D01*
X136795Y172287D01*
X136379Y172010D01*
X136250Y172096D01*
X135548Y172235D01*
X134846Y172096D01*
X134250Y171698D01*
X133853Y171102D01*
X133713Y170400D01*
X133853Y169698D01*
X134250Y169102D01*
X134846Y168704D01*
X135548Y168565D01*
X136250Y168704D01*
X136846Y169102D01*
X137244Y169698D01*
X137383Y170400D01*
X137301Y170813D01*
X137717Y171090D01*
X137846Y171004D01*
X138548Y170865D01*
X139250Y171004D01*
X139846Y171402D01*
X140244Y171998D01*
X140383Y172700D01*
X140244Y173402D01*
X139846Y173998D01*
X139250Y174396D01*
X139349Y174890D01*
X139623Y174945D01*
X140450Y175498D01*
X141003Y176324D01*
X141197Y177300D01*
X141003Y178276D01*
X140450Y179102D01*
X140379Y179150D01*
Y179650D01*
X140450Y179698D01*
X141003Y180525D01*
X141197Y181500D01*
X141003Y182475D01*
X140450Y183302D01*
X139623Y183855D01*
X138648Y184049D01*
D02*
G37*
G36*
X325748Y182335D02*
X325046Y182196D01*
X324450Y181798D01*
X324053Y181202D01*
X323913Y180500D01*
X324053Y179798D01*
X324450Y179202D01*
X325046Y178804D01*
X325748Y178665D01*
X326450Y178804D01*
X327046Y179202D01*
X327444Y179798D01*
X327583Y180500D01*
X327444Y181202D01*
X327046Y181798D01*
X326450Y182196D01*
X325748Y182335D01*
D02*
G37*
G36*
X88293Y184180D02*
X87317Y183986D01*
X86490Y183433D01*
X85938Y182606D01*
X85744Y181631D01*
X85938Y180655D01*
X86490Y179828D01*
X87317Y179276D01*
X88293Y179082D01*
X89268Y179276D01*
X90095Y179828D01*
X90648Y180655D01*
X90842Y181631D01*
X90648Y182606D01*
X90095Y183433D01*
X89268Y183986D01*
X88293Y184180D01*
D02*
G37*
G36*
X319197Y183084D02*
X318495Y182944D01*
X317899Y182547D01*
X317501Y181951D01*
X317362Y181249D01*
X317501Y180546D01*
X317899Y179951D01*
X318495Y179553D01*
X319197Y179414D01*
X319899Y179553D01*
X320495Y179951D01*
X320892Y180546D01*
X321032Y181249D01*
X320892Y181951D01*
X320495Y182547D01*
X319899Y182944D01*
X319197Y183084D01*
D02*
G37*
G36*
X238350Y174423D02*
X237374Y174229D01*
X236750Y173812D01*
X236125Y174229D01*
X235150Y174423D01*
X234174Y174229D01*
X233347Y173676D01*
X232795Y172850D01*
X232601Y171874D01*
X232795Y170899D01*
X233322Y170110D01*
X233224Y169619D01*
X233198Y169602D01*
X232645Y168775D01*
X232453Y167810D01*
X231963Y167713D01*
X231502Y168402D01*
X231315Y168527D01*
X231234Y168932D01*
X231234D01*
X231234Y168932D01*
X231397Y169751D01*
X231234Y170571D01*
X230770Y171265D01*
X230075Y171729D01*
X229256Y171892D01*
X228437Y171729D01*
X228437Y171729D01*
X228437Y171729D01*
X228376Y171741D01*
X228202Y172002D01*
X227376Y172554D01*
X226400Y172748D01*
X225425Y172554D01*
X224598Y172002D01*
X224045Y171175D01*
X223851Y170199D01*
X224045Y169224D01*
X224504Y168536D01*
X224498Y168502D01*
X224498Y168502D01*
X224498D01*
X223945Y167675D01*
X223751Y166699D01*
X223945Y165724D01*
X224498Y164897D01*
X225325Y164344D01*
X226300Y164150D01*
X227275Y164344D01*
X227925Y164778D01*
X228725Y164244D01*
X229700Y164050D01*
X230676Y164244D01*
X231502Y164797D01*
X232055Y165624D01*
X232247Y166588D01*
X232737Y166686D01*
X233198Y165997D01*
X234025Y165444D01*
X235000Y165250D01*
X235976Y165444D01*
X236802Y165997D01*
X237355Y166824D01*
X237549Y167799D01*
X237355Y168775D01*
X237141Y169094D01*
X237419Y169510D01*
X238350Y169325D01*
X239325Y169519D01*
X240152Y170072D01*
X240705Y170899D01*
X240899Y171874D01*
X240705Y172850D01*
X240152Y173676D01*
X239325Y174229D01*
X238350Y174423D01*
D02*
G37*
G36*
X212696Y174049D02*
X211721Y173855D01*
X210894Y173302D01*
X210341Y172476D01*
X210147Y171500D01*
X210341Y170525D01*
X210885Y169711D01*
X210393Y168975D01*
X210199Y168000D01*
X210393Y167025D01*
X210946Y166198D01*
X211773Y165645D01*
X212748Y165451D01*
X213723Y165645D01*
X214550Y166198D01*
X215103Y167025D01*
X215297Y168000D01*
X215103Y168975D01*
X214560Y169789D01*
X215051Y170525D01*
X215245Y171500D01*
X215051Y172476D01*
X214498Y173302D01*
X213671Y173855D01*
X212696Y174049D01*
D02*
G37*
G36*
X152465Y173435D02*
X151762Y173296D01*
X151167Y172898D01*
X150769Y172302D01*
X150629Y171600D01*
X150769Y170898D01*
X151135Y170350D01*
X150769Y169802D01*
X150629Y169100D01*
X150769Y168397D01*
X151135Y167849D01*
X150769Y167301D01*
X150629Y166599D01*
X150769Y165897D01*
X151167Y165302D01*
X151762Y164904D01*
X152465Y164764D01*
X153167Y164904D01*
X153762Y165302D01*
X154160Y165897D01*
X154165Y165920D01*
X154580Y166198D01*
X154748Y166165D01*
X155450Y166304D01*
X156046Y166702D01*
X156444Y167298D01*
X156583Y168000D01*
X156444Y168702D01*
X156178Y169100D01*
X156544Y169648D01*
X156683Y170350D01*
X156544Y171052D01*
X156146Y171648D01*
X155550Y172046D01*
X154848Y172185D01*
X154209Y172058D01*
X154160Y172302D01*
X153762Y172898D01*
X153167Y173296D01*
X152465Y173435D01*
D02*
G37*
G36*
X203000Y171484D02*
X202298Y171345D01*
X201702Y170947D01*
X201304Y170352D01*
X201165Y169649D01*
X201304Y168947D01*
X201554Y168574D01*
X201304Y168201D01*
X201165Y167499D01*
X201304Y166797D01*
X201554Y166424D01*
X201304Y166051D01*
X201165Y165349D01*
X201304Y164647D01*
X201702Y164051D01*
X202298Y163654D01*
X203000Y163514D01*
X203702Y163654D01*
X204298Y164051D01*
X204696Y164647D01*
X204835Y165349D01*
X204696Y166051D01*
X204447Y166424D01*
X204696Y166797D01*
X204809Y167369D01*
X205271Y167561D01*
X205629Y167322D01*
X206448Y167159D01*
X207267Y167322D01*
X207962Y167786D01*
X208426Y168481D01*
X208589Y169300D01*
X208426Y170119D01*
X207962Y170814D01*
X207267Y171278D01*
X206448Y171441D01*
X205629Y171278D01*
X204934Y170814D01*
X204910Y170779D01*
X204410D01*
X204298Y170947D01*
X203702Y171345D01*
X203000Y171484D01*
D02*
G37*
G36*
X165265Y173919D02*
X164562Y173780D01*
X163967Y173382D01*
X163569Y172786D01*
X163429Y172084D01*
X163569Y171382D01*
X163967Y170786D01*
X164557Y170392D01*
Y169892D01*
X163967Y169498D01*
X163569Y168902D01*
X163429Y168200D01*
X163569Y167498D01*
X163785Y167175D01*
X163569Y166852D01*
X163429Y166150D01*
X163569Y165447D01*
X163785Y165124D01*
X163569Y164802D01*
X163429Y164099D01*
X163569Y163397D01*
X163967Y162802D01*
X164562Y162404D01*
X165265Y162264D01*
X165967Y162404D01*
X166562Y162802D01*
X166960Y163397D01*
X167100Y164099D01*
X166960Y164802D01*
X166744Y165124D01*
X166960Y165447D01*
X167100Y166150D01*
X166960Y166852D01*
X166744Y167175D01*
X166960Y167498D01*
X167100Y168200D01*
X166960Y168902D01*
X166562Y169498D01*
X165972Y169892D01*
Y170392D01*
X166562Y170786D01*
X166960Y171382D01*
X167100Y172084D01*
X166960Y172786D01*
X166562Y173382D01*
X165967Y173780D01*
X165265Y173919D01*
D02*
G37*
G36*
X145248Y168341D02*
X144429Y168178D01*
X143734Y167714D01*
X143270Y167019D01*
X143107Y166200D01*
X143270Y165381D01*
X143734Y164686D01*
X143921Y164561D01*
X143823Y164071D01*
X143446Y163996D01*
X143143Y163793D01*
X143062Y163914D01*
X142367Y164378D01*
X141548Y164541D01*
X140729Y164378D01*
X140034Y163914D01*
X139570Y163219D01*
X139407Y162400D01*
X139570Y161581D01*
X140034Y160886D01*
X140729Y160422D01*
X141548Y160259D01*
X142367Y160422D01*
X143043Y160873D01*
X143446Y160604D01*
X144148Y160465D01*
X144850Y160604D01*
X145398Y160970D01*
X145946Y160604D01*
X146648Y160465D01*
X147350Y160604D01*
X147946Y161002D01*
X148344Y161598D01*
X148483Y162300D01*
X148344Y163002D01*
X147946Y163598D01*
X147350Y163996D01*
X146741Y164117D01*
X146644Y164607D01*
X146762Y164686D01*
X147226Y165381D01*
X147389Y166200D01*
X147226Y167019D01*
X146762Y167714D01*
X146067Y168178D01*
X145248Y168341D01*
D02*
G37*
G36*
X190850Y171309D02*
X190147Y171170D01*
X189552Y170772D01*
X189154Y170176D01*
X189014Y169474D01*
X189154Y168772D01*
X189552Y168176D01*
X189630Y168124D01*
Y167624D01*
X189552Y167572D01*
X189154Y166976D01*
X189014Y166274D01*
X189154Y165572D01*
X189552Y164976D01*
X189630Y164924D01*
Y164680D01*
X189244Y164363D01*
X189044Y164402D01*
X188646Y164998D01*
X188050Y165396D01*
X187348Y165535D01*
X186646Y165396D01*
X186050Y164998D01*
X185652Y164402D01*
X185513Y163700D01*
X185652Y162998D01*
X186050Y162402D01*
X186646Y162004D01*
X187348Y161865D01*
X188050Y162004D01*
X188646Y162402D01*
X188687Y162464D01*
X189154Y162372D01*
X189514Y161833D01*
X189417Y161342D01*
X189336Y161288D01*
X188872Y160593D01*
X188751Y159990D01*
X188147Y159870D01*
X187552Y159472D01*
X187154Y158876D01*
X187014Y158174D01*
X187071Y157889D01*
X186598Y157795D01*
X186002Y157397D01*
X185604Y156801D01*
X185465Y156099D01*
X185604Y155397D01*
X186002Y154801D01*
X186230Y154649D01*
Y154149D01*
X186002Y153997D01*
X185604Y153402D01*
X185465Y152699D01*
X185604Y151997D01*
X186002Y151401D01*
X186099Y151337D01*
Y150837D01*
X186002Y150772D01*
X185604Y150176D01*
X185465Y149474D01*
X185604Y148772D01*
X186002Y148176D01*
X186598Y147778D01*
X187300Y147639D01*
X188002Y147778D01*
X188598Y148176D01*
X188996Y148772D01*
X189057Y149080D01*
X189552Y149179D01*
X190060Y149518D01*
X190414Y149165D01*
X190104Y148702D01*
X189988Y148117D01*
X189747Y148070D01*
X189152Y147672D01*
X188754Y147076D01*
X188643Y146516D01*
X188357Y146459D01*
X187762Y146062D01*
X187364Y145466D01*
X187225Y144764D01*
X187364Y144062D01*
X187762Y143466D01*
X188357Y143068D01*
X189060Y142929D01*
X189762Y143068D01*
X190358Y143466D01*
X190755Y144062D01*
X190867Y144622D01*
X191152Y144678D01*
X191747Y145076D01*
X192145Y145672D01*
X192261Y146256D01*
X192502Y146304D01*
X193098Y146702D01*
X193496Y147297D01*
X193635Y147999D01*
X193496Y148702D01*
X193098Y149297D01*
X192502Y149695D01*
X191800Y149835D01*
X192147Y150076D01*
X192147Y150076D01*
X192545Y150672D01*
X192685Y151374D01*
X192545Y152076D01*
X192346Y152374D01*
X192545Y152672D01*
X192685Y153374D01*
X192545Y154076D01*
X192346Y154374D01*
X192545Y154672D01*
X192685Y155374D01*
X192545Y156076D01*
X192313Y156424D01*
X192545Y156772D01*
X192685Y157474D01*
X192545Y158176D01*
X192426Y158354D01*
X192828Y158955D01*
X192991Y159774D01*
X192828Y160593D01*
X192364Y161288D01*
X192147Y161433D01*
Y161776D01*
X192545Y162372D01*
X192685Y163074D01*
X192545Y163776D01*
X192147Y164372D01*
X192069Y164424D01*
Y164924D01*
X192147Y164976D01*
X192545Y165572D01*
X192685Y166274D01*
X192545Y166976D01*
X192147Y167572D01*
X192069Y167624D01*
Y168124D01*
X192147Y168176D01*
X192545Y168772D01*
X192685Y169474D01*
X192545Y170176D01*
X192147Y170772D01*
X191552Y171170D01*
X190850Y171309D01*
D02*
G37*
G36*
X337448Y175841D02*
X336629Y175678D01*
X335934Y175214D01*
X335470Y174519D01*
X335307Y173700D01*
X335470Y172881D01*
X335934Y172186D01*
X336629Y171722D01*
X337448Y171559D01*
X338267Y171722D01*
X338962Y172186D01*
X339426Y172881D01*
X339589Y173700D01*
X339426Y174519D01*
X338962Y175214D01*
X338267Y175678D01*
X337448Y175841D01*
D02*
G37*
G36*
X189048Y177249D02*
X188073Y177055D01*
X187246Y176502D01*
X186693Y175675D01*
X186499Y174700D01*
X186693Y173724D01*
X187246Y172898D01*
X188073Y172345D01*
X189048Y172151D01*
X190024Y172345D01*
X190850Y172898D01*
X191403Y173724D01*
X191597Y174700D01*
X191403Y175675D01*
X190850Y176502D01*
X190024Y177055D01*
X189048Y177249D01*
D02*
G37*
G36*
X56600Y176935D02*
X55898Y176795D01*
X55302Y176397D01*
X54904Y175802D01*
X54765Y175099D01*
X54904Y174397D01*
X55302Y173802D01*
X55898Y173404D01*
X56600Y173264D01*
X57302Y173404D01*
X57898Y173802D01*
X58296Y174397D01*
X58435Y175099D01*
X58296Y175802D01*
X57898Y176397D01*
X57302Y176795D01*
X56600Y176935D01*
D02*
G37*
G36*
X88950Y176323D02*
X87974Y176129D01*
X87147Y175576D01*
X86595Y174750D01*
X86401Y173774D01*
X86595Y172799D01*
X87147Y171972D01*
X87974Y171419D01*
X87982Y171417D01*
X88260Y171002D01*
X88257Y170988D01*
X88451Y170013D01*
X89004Y169186D01*
X89831Y168633D01*
X90806Y168439D01*
X91781Y168633D01*
X92608Y169186D01*
X93161Y170013D01*
X93355Y170988D01*
X93161Y171964D01*
X92608Y172791D01*
X91781Y173343D01*
X91427Y173414D01*
X91499Y173774D01*
X91305Y174750D01*
X90752Y175576D01*
X89925Y176129D01*
X88950Y176323D01*
D02*
G37*
G36*
X270193Y175666D02*
X269491Y175526D01*
X268895Y175128D01*
X268497Y174533D01*
X268358Y173831D01*
X268497Y173128D01*
X268863Y172581D01*
X268497Y172033D01*
X268358Y171331D01*
X268497Y170628D01*
X268750Y170250D01*
X268497Y169872D01*
X268358Y169169D01*
X268497Y168467D01*
X268895Y167872D01*
X269491Y167474D01*
X270193Y167334D01*
X270895Y167474D01*
X271491Y167872D01*
X271606Y168045D01*
X272106D01*
X272402Y167602D01*
X272998Y167204D01*
X273700Y167064D01*
X274402Y167204D01*
X274998Y167602D01*
X275396Y168197D01*
X275464Y168541D01*
X275888Y168806D01*
X275898Y168804D01*
X275898Y168804D01*
X275898Y168804D01*
X276600Y168664D01*
X277302Y168804D01*
X277898Y169202D01*
X278296Y169797D01*
X278355Y170094D01*
X278402Y170104D01*
X278998Y170501D01*
X279396Y171097D01*
X279535Y171799D01*
X279396Y172502D01*
X278998Y173097D01*
X278402Y173495D01*
X277700Y173635D01*
X276998Y173495D01*
X276402Y173097D01*
X276004Y172502D01*
X275945Y172204D01*
X275898Y172195D01*
X275302Y171797D01*
X275098Y171997D01*
X275098Y171997D01*
X274502Y172395D01*
X273800Y172535D01*
X273098Y172395D01*
X272502Y171997D01*
X272398Y171841D01*
X271907Y171938D01*
X271888Y172033D01*
X271522Y172581D01*
X271888Y173128D01*
X272028Y173831D01*
X271888Y174533D01*
X271491Y175128D01*
X270895Y175526D01*
X270193Y175666D01*
D02*
G37*
G36*
X260000Y170634D02*
X259298Y170495D01*
X258702Y170097D01*
X258304Y169501D01*
D01*
X257991Y169628D01*
X257991Y169628D01*
Y169628D01*
X257395Y170026D01*
X256693Y170166D01*
X255991Y170026D01*
X255943Y169994D01*
X255895Y170026D01*
X255193Y170166D01*
X254491Y170026D01*
X253895Y169628D01*
X253497Y169033D01*
X253358Y168331D01*
X253497Y167628D01*
X253895Y167033D01*
X254491Y166635D01*
X255193Y166496D01*
X255895Y166635D01*
X255943Y166667D01*
X255991Y166635D01*
X256693Y166496D01*
X257395Y166635D01*
X257991Y167033D01*
X258388Y167628D01*
X258388D01*
D01*
X258702Y167501D01*
X258702Y167501D01*
Y167501D01*
X259298Y167104D01*
X260000Y166964D01*
X260702Y167104D01*
X260803Y167171D01*
X260895Y167033D01*
X261491Y166635D01*
X262193Y166496D01*
X262895Y166635D01*
X263491Y167033D01*
X263889Y167628D01*
X264028Y168331D01*
X263889Y169033D01*
X263491Y169628D01*
X262895Y170026D01*
X262193Y170166D01*
X261491Y170026D01*
X261390Y169959D01*
X261298Y170097D01*
X260702Y170495D01*
X260000Y170634D01*
D02*
G37*
G36*
X168348Y123935D02*
X167646Y123796D01*
X167050Y123398D01*
X166653Y122802D01*
X166513Y122100D01*
X166653Y121398D01*
X167050Y120802D01*
X167646Y120404D01*
X168348Y120265D01*
X169050Y120404D01*
X169429Y120658D01*
X169847Y120378D01*
X170550Y120239D01*
X171252Y120378D01*
X171706Y120682D01*
X172147Y120387D01*
X172850Y120247D01*
X173552Y120387D01*
X174147Y120785D01*
X174545Y121380D01*
X174685Y122083D01*
X174545Y122785D01*
X174147Y123380D01*
X173552Y123778D01*
X172850Y123918D01*
X172147Y123778D01*
X171693Y123475D01*
X171252Y123770D01*
X170550Y123909D01*
X169847Y123770D01*
X169468Y123516D01*
X169050Y123796D01*
X168348Y123935D01*
D02*
G37*
G36*
X30652Y124227D02*
X29949Y124088D01*
X29354Y123690D01*
X28956Y123094D01*
X28816Y122392D01*
X28956Y121690D01*
X29354Y121095D01*
X29949Y120697D01*
X30652Y120557D01*
X31354Y120697D01*
X31949Y121095D01*
X32347Y121690D01*
X32487Y122392D01*
X32347Y123094D01*
X31949Y123690D01*
X31354Y124088D01*
X30652Y124227D01*
D02*
G37*
G36*
X42152D02*
X41449Y124088D01*
X40854Y123690D01*
X40456Y123094D01*
X40316Y122392D01*
X40456Y121690D01*
X40854Y121095D01*
X41449Y120697D01*
X42152Y120557D01*
X42854Y120697D01*
X43449Y121095D01*
X43847Y121690D01*
X43987Y122392D01*
X43847Y123094D01*
X43449Y123690D01*
X42854Y124088D01*
X42152Y124227D01*
D02*
G37*
G36*
X91891Y121286D02*
X91188Y121147D01*
X90593Y120749D01*
X90195Y120153D01*
X90055Y119451D01*
X90065Y119403D01*
X89711Y119050D01*
X89663Y119059D01*
X88960Y118920D01*
X88365Y118522D01*
X87967Y117927D01*
X87827Y117224D01*
X87834Y117191D01*
X87480Y116837D01*
X87420Y116849D01*
X86717Y116710D01*
X86122Y116312D01*
X85724Y115717D01*
X85584Y115014D01*
X85724Y114312D01*
X86122Y113716D01*
X86717Y113319D01*
X87420Y113179D01*
X88122Y113319D01*
X88717Y113716D01*
X89115Y114312D01*
X89255Y115014D01*
X89248Y115048D01*
X89602Y115401D01*
X89663Y115389D01*
X90365Y115529D01*
X90960Y115926D01*
X91358Y116522D01*
X91498Y117224D01*
X91488Y117272D01*
X91842Y117626D01*
X91891Y117616D01*
X92593Y117756D01*
X93188Y118153D01*
X93586Y118749D01*
X93726Y119451D01*
X93586Y120153D01*
X93188Y120749D01*
X92593Y121147D01*
X91891Y121286D01*
D02*
G37*
G36*
X161148Y123835D02*
X160446Y123696D01*
X159850Y123298D01*
X159452Y122702D01*
X159313Y122000D01*
X159452Y121298D01*
X159850Y120702D01*
X160446Y120304D01*
X161148Y120165D01*
X161850Y120304D01*
X162446Y120702D01*
X162844Y121298D01*
X162983Y122000D01*
X162844Y122702D01*
X162446Y123298D01*
X161850Y123696D01*
X161148Y123835D01*
D02*
G37*
G36*
X299448D02*
X298746Y123696D01*
X298150Y123298D01*
X297752Y122702D01*
X297613Y122000D01*
X297752Y121298D01*
X298150Y120702D01*
X298746Y120304D01*
X299448Y120165D01*
X300150Y120304D01*
X300746Y120702D01*
X301144Y121298D01*
X301283Y122000D01*
X301144Y122702D01*
X300746Y123298D01*
X300150Y123696D01*
X299448Y123835D01*
D02*
G37*
G36*
X233748Y127235D02*
X233046Y127096D01*
X232450Y126698D01*
X232052Y126102D01*
X231913Y125400D01*
X232052Y124698D01*
X232450Y124102D01*
X233046Y123704D01*
X233748Y123565D01*
X234450Y123704D01*
X235046Y124102D01*
X235444Y124698D01*
X235583Y125400D01*
X235444Y126102D01*
X235046Y126698D01*
X234450Y127096D01*
X233748Y127235D01*
D02*
G37*
G36*
X255400Y124335D02*
X254698Y124195D01*
X254500Y124063D01*
X254302Y124195D01*
X253600Y124335D01*
X252898Y124195D01*
X252750Y124096D01*
X252602Y124195D01*
X251900Y124335D01*
X251198Y124195D01*
X250602Y123797D01*
X250204Y123202D01*
X250065Y122499D01*
X250204Y121797D01*
X250602Y121202D01*
X251198Y120804D01*
X251900Y120664D01*
X252602Y120804D01*
X252750Y120902D01*
X252898Y120804D01*
X253600Y120664D01*
X254302Y120804D01*
X254500Y120936D01*
X254698Y120804D01*
X255400Y120664D01*
X256102Y120804D01*
X256698Y121202D01*
X257096Y121797D01*
X257235Y122499D01*
X257096Y123202D01*
X256698Y123797D01*
X256102Y124195D01*
X255400Y124335D01*
D02*
G37*
G36*
X193000Y139534D02*
X192298Y139395D01*
X191702Y138997D01*
X191304Y138401D01*
X191165Y137699D01*
X191304Y136997D01*
X191577Y136589D01*
X191304Y136181D01*
X191165Y135479D01*
X191304Y134777D01*
X191577Y134369D01*
X191304Y133961D01*
X191165Y133259D01*
X191304Y132557D01*
X191577Y132149D01*
X191304Y131741D01*
X191165Y131039D01*
X191304Y130337D01*
X191577Y129929D01*
X191304Y129522D01*
X191165Y128819D01*
X191304Y128117D01*
X191577Y127709D01*
X191304Y127302D01*
X191165Y126599D01*
X191304Y125897D01*
X191463Y125660D01*
X191109Y125306D01*
X190852Y125478D01*
X190150Y125618D01*
X189447Y125478D01*
X188852Y125080D01*
X188454Y124485D01*
X188324Y123829D01*
X188115Y123743D01*
X187799Y123680D01*
X187652Y123778D01*
X186950Y123918D01*
X186247Y123778D01*
X185652Y123380D01*
X185254Y122785D01*
X185114Y122083D01*
X185254Y121380D01*
X185652Y120785D01*
X186247Y120387D01*
X186950Y120247D01*
X187652Y120387D01*
X188247Y120785D01*
X188736Y120458D01*
X188852Y120285D01*
X189447Y119887D01*
X190150Y119747D01*
X190852Y119887D01*
X191447Y120285D01*
X191845Y120880D01*
X191985Y121583D01*
X191845Y122285D01*
X191579Y122683D01*
X191845Y123080D01*
X191985Y123783D01*
X191845Y124485D01*
X191687Y124722D01*
X192040Y125076D01*
X192298Y124904D01*
X193000Y124764D01*
X193702Y124904D01*
X194298Y125302D01*
X194696Y125897D01*
X194835Y126599D01*
X194696Y127302D01*
X194423Y127709D01*
X194696Y128117D01*
X194835Y128819D01*
X194696Y129522D01*
X194423Y129929D01*
X194696Y130337D01*
X194835Y131039D01*
X194696Y131741D01*
X194423Y132149D01*
X194696Y132557D01*
X194835Y133259D01*
X194696Y133961D01*
X194423Y134369D01*
X194696Y134777D01*
X194835Y135479D01*
X194696Y136181D01*
X194423Y136589D01*
X194696Y136997D01*
X194835Y137699D01*
X194696Y138401D01*
X194298Y138997D01*
X193702Y139395D01*
X193000Y139534D01*
D02*
G37*
G36*
X310648Y124435D02*
X309946Y124296D01*
X309350Y123898D01*
X308952Y123302D01*
X308813Y122600D01*
X308952Y121898D01*
X309350Y121302D01*
X309946Y120904D01*
X310648Y120765D01*
X311350Y120904D01*
X311946Y121302D01*
X312344Y121898D01*
X312483Y122600D01*
X312344Y123302D01*
X311946Y123898D01*
X311350Y124296D01*
X310648Y124435D01*
D02*
G37*
G36*
X61610Y127068D02*
X60907Y126929D01*
X60312Y126531D01*
X59914Y125935D01*
X59774Y125233D01*
X59914Y124531D01*
X60312Y123935D01*
X60907Y123538D01*
X61610Y123398D01*
X62312Y123538D01*
X62907Y123935D01*
X63305Y124531D01*
X63445Y125233D01*
X63305Y125935D01*
X62907Y126531D01*
X62312Y126929D01*
X61610Y127068D01*
D02*
G37*
G36*
X182150Y123909D02*
X181447Y123770D01*
X181050Y123504D01*
X180652Y123770D01*
X179950Y123909D01*
X179247Y123770D01*
X178800Y123470D01*
X178352Y123770D01*
X177650Y123909D01*
X176947Y123770D01*
X176352Y123372D01*
X175954Y122776D01*
X175814Y122074D01*
X175954Y121372D01*
X176352Y120776D01*
X176947Y120378D01*
X177650Y120239D01*
X178352Y120378D01*
X178800Y120678D01*
X179247Y120378D01*
X179950Y120239D01*
X180652Y120378D01*
X181050Y120644D01*
X181447Y120378D01*
X182150Y120239D01*
X182852Y120378D01*
X183447Y120776D01*
X183845Y121372D01*
X183985Y122074D01*
X183845Y122776D01*
X183447Y123372D01*
X182852Y123770D01*
X182150Y123909D01*
D02*
G37*
G36*
X304792Y121480D02*
X304090Y121340D01*
X303495Y120942D01*
X303097Y120347D01*
X302957Y119644D01*
X303044Y119209D01*
X302582Y119018D01*
X302462Y119197D01*
X301867Y119595D01*
X301165Y119735D01*
X300462Y119595D01*
X299867Y119197D01*
X299469Y118602D01*
X299329Y117899D01*
X299469Y117197D01*
X299867Y116602D01*
X300462Y116204D01*
X301165Y116064D01*
X301867Y116204D01*
X302462Y116602D01*
X302860Y117197D01*
X303000Y117899D01*
X302913Y118334D01*
X303375Y118526D01*
X303495Y118347D01*
X304090Y117949D01*
X304792Y117809D01*
X305495Y117949D01*
X306090Y118347D01*
X306488Y118942D01*
X306628Y119644D01*
X306488Y120347D01*
X306090Y120942D01*
X305495Y121340D01*
X304792Y121480D01*
D02*
G37*
G36*
X169850Y114409D02*
X169147Y114270D01*
X168552Y113872D01*
X168154Y113276D01*
X168014Y112574D01*
X168154Y111872D01*
X168552Y111276D01*
X169147Y110879D01*
X169850Y110739D01*
X170552Y110879D01*
X171147Y111276D01*
X171545Y111872D01*
X171685Y112574D01*
X171545Y113276D01*
X171147Y113872D01*
X170552Y114270D01*
X169850Y114409D01*
D02*
G37*
G36*
X44930Y114818D02*
X44228Y114678D01*
X43632Y114280D01*
X43234Y113685D01*
X43095Y112983D01*
X43234Y112280D01*
X43632Y111685D01*
X44228Y111287D01*
X44930Y111147D01*
X45632Y111287D01*
X46228Y111685D01*
X46626Y112280D01*
X46765Y112983D01*
X46626Y113685D01*
X46228Y114280D01*
X45632Y114678D01*
X44930Y114818D01*
D02*
G37*
G36*
X24652Y118227D02*
X23949Y118088D01*
X23354Y117690D01*
X22956Y117095D01*
X22816Y116392D01*
X22945Y115747D01*
X22395Y115380D01*
X21997Y114785D01*
X21858Y114083D01*
X21997Y113380D01*
X22395Y112785D01*
X22991Y112387D01*
X23693Y112247D01*
X24395Y112387D01*
X24991Y112785D01*
X25389Y113380D01*
X25528Y114083D01*
X25400Y114727D01*
X25949Y115094D01*
X26347Y115690D01*
X26487Y116392D01*
X26347Y117095D01*
X25949Y117690D01*
X25354Y118088D01*
X24652Y118227D01*
D02*
G37*
G36*
X63990Y115165D02*
X63287Y115026D01*
X62692Y114628D01*
X62294Y114032D01*
X62154Y113330D01*
X62294Y112628D01*
X62692Y112032D01*
X62771Y111979D01*
X62698Y111870D01*
X62558Y111167D01*
X62698Y110465D01*
X63096Y109870D01*
X63691Y109472D01*
X64394Y109332D01*
X65096Y109472D01*
X65691Y109870D01*
X66089Y110465D01*
X66229Y111167D01*
X66089Y111870D01*
X65691Y112465D01*
X65612Y112518D01*
X65685Y112628D01*
X65825Y113330D01*
X65685Y114032D01*
X65287Y114628D01*
X64692Y115026D01*
X63990Y115165D01*
D02*
G37*
G36*
X155048Y114635D02*
X154346Y114496D01*
X153750Y114098D01*
X153352Y113502D01*
X153277Y113121D01*
X152646Y112996D01*
X152050Y112598D01*
X151653Y112002D01*
X151513Y111300D01*
X151653Y110598D01*
X152050Y110002D01*
X152646Y109604D01*
X153348Y109465D01*
X154050Y109604D01*
X154646Y110002D01*
X155044Y110598D01*
X155119Y110979D01*
X155750Y111104D01*
X156346Y111502D01*
X156744Y112098D01*
X156883Y112800D01*
X156744Y113502D01*
X156346Y114098D01*
X155750Y114496D01*
X155048Y114635D01*
D02*
G37*
G36*
X192450Y111118D02*
X191747Y110978D01*
X191152Y110580D01*
X190962Y110296D01*
X190350Y110418D01*
X189647Y110278D01*
X189052Y109880D01*
X188654Y109285D01*
X188519Y108606D01*
X188462Y108595D01*
X187867Y108197D01*
X187469Y107601D01*
X187329Y106899D01*
X187469Y106197D01*
X187867Y105602D01*
X188462Y105204D01*
X189165Y105064D01*
X189702Y105171D01*
X189980Y104755D01*
X189793Y104475D01*
X189599Y103500D01*
X189793Y102524D01*
X190346Y101698D01*
X191173Y101145D01*
X192148Y100951D01*
X193123Y101145D01*
X193950Y101698D01*
X194503Y102524D01*
X194697Y103500D01*
X194503Y104475D01*
X193950Y105302D01*
X193123Y105855D01*
X192148Y106049D01*
X191218Y105864D01*
X190864Y106218D01*
X190995Y106876D01*
X191052Y106887D01*
X191647Y107285D01*
X191837Y107569D01*
X192450Y107447D01*
X193152Y107587D01*
X193747Y107985D01*
X194145Y108580D01*
X194285Y109283D01*
X194145Y109985D01*
X193747Y110580D01*
X193152Y110978D01*
X192450Y111118D01*
D02*
G37*
G36*
X256800Y117134D02*
X256098Y116995D01*
X255850Y116829D01*
X255602Y116995D01*
X254900Y117134D01*
X254198Y116995D01*
X253602Y116597D01*
X253204Y116001D01*
X253065Y115299D01*
X253134Y114952D01*
X252902Y114797D01*
X252504Y114201D01*
X252365Y113499D01*
X252504Y112797D01*
X252902Y112201D01*
X253498Y111804D01*
X254200Y111664D01*
X254902Y111804D01*
X255050Y111902D01*
X255198Y111804D01*
X255900Y111664D01*
X256602Y111804D01*
X256750Y111902D01*
X256898Y111804D01*
X257600Y111664D01*
X258302Y111804D01*
X258898Y112201D01*
X259296Y112797D01*
X259435Y113499D01*
X259296Y114201D01*
X258898Y114797D01*
X258578Y115011D01*
X258635Y115299D01*
X258496Y116001D01*
X258098Y116597D01*
X257502Y116995D01*
X256800Y117134D01*
D02*
G37*
G36*
X27652Y121227D02*
X26949Y121088D01*
X26354Y120690D01*
X25956Y120095D01*
X25816Y119392D01*
X25956Y118690D01*
X26354Y118095D01*
X26949Y117697D01*
X27652Y117557D01*
X28354Y117697D01*
X28949Y118095D01*
X29347Y118690D01*
X29487Y119392D01*
X29347Y120095D01*
X28949Y120690D01*
X28354Y121088D01*
X27652Y121227D01*
D02*
G37*
G36*
X61405Y122631D02*
X60702Y122492D01*
X60107Y122094D01*
X59709Y121499D01*
X59569Y120796D01*
X59709Y120094D01*
X60107Y119499D01*
X60702Y119101D01*
X61405Y118961D01*
X62107Y119101D01*
X62702Y119499D01*
X63100Y120094D01*
X63240Y120796D01*
X63100Y121499D01*
X62702Y122094D01*
X62107Y122492D01*
X61405Y122631D01*
D02*
G37*
G36*
X155848Y119235D02*
X155146Y119096D01*
X154550Y118698D01*
X154153Y118102D01*
X154013Y117400D01*
X154153Y116698D01*
X154550Y116102D01*
X155146Y115704D01*
X155848Y115565D01*
X156550Y115704D01*
X157146Y116102D01*
X157544Y116698D01*
X157683Y117400D01*
X157544Y118102D01*
X157146Y118698D01*
X156550Y119096D01*
X155848Y119235D01*
D02*
G37*
G36*
X49236Y119399D02*
X48533Y119260D01*
X47938Y118862D01*
X47540Y118266D01*
X47400Y117564D01*
X47540Y116862D01*
X47938Y116267D01*
X48533Y115869D01*
X49236Y115729D01*
X49938Y115869D01*
X50533Y116267D01*
X50931Y116862D01*
X51071Y117564D01*
X50931Y118266D01*
X50533Y118862D01*
X49938Y119260D01*
X49236Y119399D01*
D02*
G37*
G36*
X75652Y119627D02*
X74949Y119488D01*
X74354Y119090D01*
X73956Y118494D01*
X73816Y117792D01*
X73956Y117090D01*
X74354Y116495D01*
X74949Y116097D01*
X75652Y115957D01*
X76354Y116097D01*
X76949Y116495D01*
X77347Y117090D01*
X77487Y117792D01*
X77347Y118494D01*
X76949Y119090D01*
X76354Y119488D01*
X75652Y119627D01*
D02*
G37*
G36*
X94694Y129312D02*
X93991Y129173D01*
X93396Y128775D01*
X92998Y128180D01*
X92858Y127477D01*
X92998Y126775D01*
X93396Y126179D01*
X93991Y125782D01*
X94694Y125642D01*
X95396Y125782D01*
X95991Y126179D01*
X96389Y126775D01*
X96529Y127477D01*
X96389Y128180D01*
X95991Y128775D01*
X95396Y129173D01*
X94694Y129312D01*
D02*
G37*
G36*
X248693Y141166D02*
X247991Y141026D01*
X247395Y140628D01*
X246997Y140033D01*
X246858Y139331D01*
X246997Y138628D01*
X247121Y138444D01*
X246929Y137982D01*
X246491Y137895D01*
X245895Y137497D01*
X245497Y136901D01*
X245399Y136406D01*
X244974D01*
X244854Y136631D01*
X244845Y136676D01*
X244769Y136790D01*
X244739Y136847D01*
X244888Y137072D01*
X245028Y137774D01*
X244888Y138476D01*
X244491Y139072D01*
X243895Y139470D01*
X243193Y139609D01*
X242491Y139470D01*
X241895Y139072D01*
X241497Y138476D01*
X241358Y137774D01*
X241497Y137072D01*
X241608Y136906D01*
X241454Y136676D01*
X241314Y135974D01*
X241454Y135272D01*
X241852Y134676D01*
X242447Y134279D01*
X243150Y134139D01*
X243852Y134279D01*
X244447Y134676D01*
X244845Y135272D01*
X244944Y135767D01*
X245444D01*
X245497Y135497D01*
X245895Y134901D01*
X246491Y134504D01*
X247193Y134364D01*
X247895Y134504D01*
X247943Y134536D01*
X247991Y134504D01*
X248693Y134364D01*
X249395Y134504D01*
X249447Y134538D01*
X249498Y134504D01*
X250200Y134364D01*
X250902Y134504D01*
X251000Y134569D01*
X251098Y134504D01*
X251800Y134364D01*
X252502Y134504D01*
X253098Y134901D01*
X253496Y135497D01*
X253635Y136199D01*
X253496Y136901D01*
X253098Y137497D01*
X252502Y137895D01*
X251800Y138034D01*
X251098Y137895D01*
X251000Y137829D01*
X250902Y137895D01*
X250200Y138034D01*
D01*
D01*
D01*
X250152Y138275D01*
X250389Y138628D01*
X250528Y139331D01*
X250389Y140033D01*
X249991Y140628D01*
X249395Y141026D01*
X248693Y141166D01*
D02*
G37*
G36*
X79103Y140465D02*
X78400Y140326D01*
X77805Y139928D01*
X77407Y139332D01*
X77267Y138630D01*
X77407Y137928D01*
X77805Y137332D01*
X78400Y136935D01*
X79103Y136795D01*
X79805Y136935D01*
X80400Y137332D01*
X80798Y137928D01*
X80938Y138630D01*
X80798Y139332D01*
X80400Y139928D01*
X79805Y140326D01*
X79103Y140465D01*
D02*
G37*
G36*
X274848Y140935D02*
X274146Y140796D01*
X273550Y140398D01*
X273152Y139802D01*
X273013Y139100D01*
X273152Y138398D01*
X273550Y137802D01*
X274146Y137404D01*
X274848Y137265D01*
X275550Y137404D01*
X276146Y137802D01*
X276544Y138398D01*
X276683Y139100D01*
X276544Y139802D01*
X276146Y140398D01*
X275550Y140796D01*
X274848Y140935D01*
D02*
G37*
G36*
X290348Y139635D02*
X289646Y139496D01*
X289050Y139098D01*
X288652Y138502D01*
X288513Y137800D01*
X288652Y137098D01*
X289050Y136502D01*
X289646Y136104D01*
X290258Y135983D01*
X290313Y135900D01*
X290313Y135900D01*
X290313D01*
X290453Y135198D01*
X290850Y134602D01*
X291446Y134204D01*
X292148Y134065D01*
X292850Y134204D01*
X293446Y134602D01*
X293844Y135198D01*
X293983Y135900D01*
X293844Y136602D01*
X293446Y137198D01*
X292850Y137596D01*
X292239Y137717D01*
X292183Y137800D01*
X292183Y137800D01*
X292183D01*
X292044Y138502D01*
X291646Y139098D01*
X291050Y139496D01*
X290348Y139635D01*
D02*
G37*
G36*
X47150Y138509D02*
X46447Y138370D01*
X45852Y137972D01*
X45454Y137376D01*
X45314Y136674D01*
X45454Y135972D01*
X45852Y135376D01*
X46447Y134978D01*
X47150Y134839D01*
X47852Y134978D01*
X48447Y135376D01*
X48845Y135972D01*
X48985Y136674D01*
X48845Y137376D01*
X48447Y137972D01*
X47852Y138370D01*
X47150Y138509D01*
D02*
G37*
G36*
X179250Y138709D02*
X178547Y138570D01*
X177952Y138172D01*
X177554Y137576D01*
X177461Y137108D01*
X177000Y137017D01*
X176405Y136619D01*
X176175Y136275D01*
X175675D01*
X175446Y136619D01*
X174850Y137017D01*
X174148Y137156D01*
X173446Y137017D01*
X173197Y136851D01*
X172735Y137042D01*
X172644Y137502D01*
X172246Y138098D01*
X171650Y138496D01*
X170948Y138635D01*
X170246Y138496D01*
X169650Y138098D01*
X169253Y137502D01*
X169113Y136800D01*
X169253Y136098D01*
X169650Y135502D01*
X170246Y135104D01*
X170948Y134965D01*
X171650Y135104D01*
X171899Y135271D01*
X172361Y135079D01*
X172452Y134619D01*
X172850Y134023D01*
X173446Y133625D01*
X174148Y133486D01*
X174850Y133625D01*
X175446Y134023D01*
X175675Y134367D01*
X176175D01*
X176405Y134023D01*
X177000Y133625D01*
X177703Y133486D01*
X178405Y133625D01*
X179000Y134023D01*
X179398Y134619D01*
X179491Y135087D01*
X179952Y135178D01*
X180547Y135576D01*
X180945Y136172D01*
X181085Y136874D01*
X180945Y137576D01*
X180547Y138172D01*
X179952Y138570D01*
X179250Y138709D01*
D02*
G37*
G36*
X159735Y144861D02*
X158877Y144691D01*
X158149Y144204D01*
X157663Y143477D01*
X157492Y142618D01*
X157663Y141760D01*
X158149Y141032D01*
X158877Y140546D01*
X159735Y140375D01*
X160593Y140546D01*
X161321Y141032D01*
X161807Y141760D01*
X161978Y142618D01*
X161807Y143477D01*
X161321Y144204D01*
X160593Y144691D01*
X159735Y144861D01*
D02*
G37*
G36*
X172200Y151810D02*
X171498Y151670D01*
X170902Y151272D01*
X170504Y150677D01*
X170365Y149974D01*
X170374Y149930D01*
X170198Y149895D01*
X169602Y149497D01*
X169204Y148901D01*
X169065Y148199D01*
X169204Y147497D01*
X169602Y146902D01*
X169755Y146799D01*
Y146299D01*
X169602Y146197D01*
X169204Y145601D01*
X169065Y144899D01*
X169204Y144197D01*
X169602Y143602D01*
X170198Y143204D01*
X170900Y143064D01*
X171602Y143204D01*
X172198Y143602D01*
X172596Y144197D01*
X172709Y144765D01*
X172902Y144804D01*
X173498Y145202D01*
X173896Y145797D01*
X174035Y146499D01*
X173896Y147202D01*
X173498Y147797D01*
X172902Y148195D01*
X172729Y148229D01*
X172726Y148244D01*
X172902Y148279D01*
X173498Y148677D01*
X173896Y149272D01*
X174035Y149974D01*
X173896Y150677D01*
X173498Y151272D01*
X172902Y151670D01*
X172200Y151810D01*
D02*
G37*
G36*
X51784Y149299D02*
X50809Y149105D01*
X49982Y148553D01*
X49429Y147726D01*
X49235Y146750D01*
X49429Y145775D01*
X49982Y144948D01*
X50809Y144395D01*
X51784Y144201D01*
X51902Y144225D01*
X52000Y143732D01*
X51647Y143378D01*
X51340Y143439D01*
X50637Y143300D01*
X50042Y142902D01*
X49644Y142306D01*
X49504Y141604D01*
X49644Y140902D01*
X50042Y140306D01*
X50637Y139909D01*
X51340Y139769D01*
X52042Y139909D01*
X52637Y140306D01*
X53035Y140902D01*
X53170Y141578D01*
X53585Y141855D01*
X54450Y141683D01*
X55425Y141877D01*
X56252Y142430D01*
X56805Y143257D01*
X56999Y144232D01*
X56805Y145208D01*
X56252Y146035D01*
X55425Y146587D01*
X54450Y146781D01*
X54331Y146758D01*
X54139Y147726D01*
X53586Y148553D01*
X52759Y149105D01*
X51784Y149299D01*
D02*
G37*
G36*
X70903Y141350D02*
X70200Y141211D01*
X69605Y140813D01*
X69207Y140217D01*
X69067Y139515D01*
X69207Y138813D01*
X69605Y138217D01*
X70200Y137820D01*
X70903Y137680D01*
X71605Y137820D01*
X72200Y138217D01*
X72598Y138813D01*
X72738Y139515D01*
X72598Y140217D01*
X72200Y140813D01*
X71605Y141211D01*
X70903Y141350D01*
D02*
G37*
G36*
X45865Y145040D02*
X45045Y144877D01*
X44351Y144413D01*
X43886Y143719D01*
X43723Y142899D01*
X43730Y142867D01*
X43051Y142413D01*
X42586Y141719D01*
X42423Y140899D01*
X42586Y140080D01*
X43051Y139385D01*
X43745Y138921D01*
X44565Y138758D01*
X45384Y138921D01*
X46079Y139385D01*
X46543Y140080D01*
X46706Y140899D01*
X46699Y140931D01*
X47379Y141385D01*
X47843Y142080D01*
X48006Y142899D01*
X47843Y143719D01*
X47379Y144413D01*
X46684Y144877D01*
X45865Y145040D01*
D02*
G37*
G36*
X297148Y142535D02*
X296446Y142396D01*
X295850Y141998D01*
X295452Y141402D01*
X295313Y140700D01*
X295452Y139998D01*
X295850Y139402D01*
X296446Y139004D01*
X297148Y138865D01*
X297850Y139004D01*
X298446Y139402D01*
X298844Y139998D01*
X298983Y140700D01*
X298844Y141402D01*
X298446Y141998D01*
X297850Y142396D01*
X297148Y142535D01*
D02*
G37*
G36*
X258700Y139234D02*
X257998Y139095D01*
X257402Y138697D01*
X257004Y138101D01*
X256865Y137399D01*
X256899Y137228D01*
X256702Y137097D01*
X256304Y136502D01*
X256165Y135799D01*
X256304Y135097D01*
X256702Y134502D01*
X257298Y134104D01*
X258000Y133964D01*
X258702Y134104D01*
X259298Y134502D01*
X259696Y135097D01*
X259835Y135799D01*
X259801Y135970D01*
X259998Y136101D01*
X260396Y136697D01*
X260535Y137399D01*
X260396Y138101D01*
X259998Y138697D01*
X259402Y139095D01*
X258700Y139234D01*
D02*
G37*
G36*
X307448Y134635D02*
X306746Y134496D01*
X306150Y134098D01*
X305752Y133502D01*
X305613Y132800D01*
X305752Y132098D01*
X306150Y131502D01*
X306746Y131104D01*
X307448Y130965D01*
X308150Y131104D01*
X308746Y131502D01*
X309144Y132098D01*
X309283Y132800D01*
X309144Y133502D01*
X308746Y134098D01*
X308150Y134496D01*
X307448Y134635D01*
D02*
G37*
G36*
X64792Y135022D02*
X64089Y134883D01*
X63494Y134485D01*
X63096Y133889D01*
X62956Y133187D01*
X63096Y132485D01*
X63494Y131889D01*
X64089Y131492D01*
X64792Y131352D01*
X65494Y131492D01*
X66089Y131889D01*
X66487Y132485D01*
X66627Y133187D01*
X66487Y133889D01*
X66089Y134485D01*
X65494Y134883D01*
X64792Y135022D01*
D02*
G37*
G36*
X160606Y136381D02*
X159747Y136211D01*
X159020Y135724D01*
X158533Y134997D01*
X158363Y134138D01*
X158533Y133280D01*
X159020Y132552D01*
X159747Y132066D01*
X160606Y131895D01*
X161464Y132066D01*
X162192Y132552D01*
X162678Y133280D01*
X162849Y134138D01*
X162678Y134997D01*
X162192Y135724D01*
X161464Y136211D01*
X160606Y136381D01*
D02*
G37*
G36*
X59152Y130727D02*
X58449Y130588D01*
X57854Y130190D01*
X57456Y129595D01*
X57316Y128892D01*
X57456Y128190D01*
X57854Y127594D01*
X58449Y127197D01*
X59152Y127057D01*
X59854Y127197D01*
X60449Y127594D01*
X60847Y128190D01*
X60987Y128892D01*
X60847Y129595D01*
X60449Y130190D01*
X59854Y130588D01*
X59152Y130727D01*
D02*
G37*
G36*
X303248Y133935D02*
X302546Y133796D01*
X301950Y133398D01*
X301553Y132802D01*
X301413Y132100D01*
X301553Y131398D01*
X301859Y130939D01*
X301850Y130898D01*
X301850Y130898D01*
X301850D01*
X301452Y130302D01*
X301313Y129600D01*
X301452Y128898D01*
X301850Y128302D01*
X302446Y127904D01*
X303148Y127765D01*
X303850Y127904D01*
X304446Y128302D01*
X304844Y128898D01*
X304983Y129600D01*
X304844Y130302D01*
X304537Y130761D01*
X304546Y130802D01*
X304546Y130802D01*
X304546D01*
X304944Y131398D01*
X305083Y132100D01*
X304944Y132802D01*
X304546Y133398D01*
X303950Y133796D01*
X303248Y133935D01*
D02*
G37*
G36*
X201650Y144109D02*
X200947Y143970D01*
X200352Y143572D01*
X199954Y142976D01*
X199814Y142274D01*
X199954Y141572D01*
X200253Y141124D01*
X199954Y140676D01*
X199814Y139974D01*
X199954Y139272D01*
X200128Y139011D01*
X199905Y138676D01*
X199765Y137974D01*
X199905Y137272D01*
X200128Y136937D01*
X199954Y136676D01*
X199814Y135974D01*
X199954Y135272D01*
X200153Y134974D01*
X199954Y134676D01*
X199814Y133974D01*
X199954Y133272D01*
X200153Y132974D01*
X199954Y132676D01*
X199814Y131974D01*
X199954Y131272D01*
X200352Y130676D01*
X200947Y130279D01*
X201650Y130139D01*
X202352Y130279D01*
X202947Y130676D01*
X203345Y131272D01*
X203485Y131974D01*
X203345Y132676D01*
X203146Y132974D01*
X203345Y133272D01*
X203485Y133974D01*
X203345Y134676D01*
X203146Y134974D01*
X203345Y135272D01*
X203485Y135974D01*
X203345Y136676D01*
X203122Y137011D01*
X203296Y137272D01*
X203435Y137974D01*
X203296Y138676D01*
X203122Y138937D01*
X203345Y139272D01*
X203485Y139974D01*
X203345Y140676D01*
X203046Y141124D01*
X203345Y141572D01*
X203485Y142274D01*
X203345Y142976D01*
X202947Y143572D01*
X202352Y143970D01*
X201650Y144109D01*
D02*
G37*
G36*
X233748Y137035D02*
X233046Y136896D01*
X232450Y136498D01*
X232052Y135902D01*
X231913Y135200D01*
X232052Y134498D01*
X232450Y133902D01*
X233046Y133504D01*
X233748Y133365D01*
X234450Y133504D01*
X235046Y133902D01*
X235444Y134498D01*
X235583Y135200D01*
X235444Y135902D01*
X235046Y136498D01*
X234450Y136896D01*
X233748Y137035D01*
D02*
G37*
G36*
X183150Y137209D02*
X182447Y137070D01*
X181852Y136672D01*
X181454Y136076D01*
X181314Y135374D01*
X181454Y134672D01*
X181852Y134076D01*
X182447Y133678D01*
X183150Y133539D01*
X183852Y133678D01*
X184447Y134076D01*
X184845Y134672D01*
X184985Y135374D01*
X184845Y136076D01*
X184447Y136672D01*
X183852Y137070D01*
X183150Y137209D01*
D02*
G37*
G36*
X263555Y138966D02*
X262853Y138826D01*
X262257Y138428D01*
X261859Y137833D01*
X261720Y137131D01*
X261859Y136428D01*
X261953Y136288D01*
X261914Y136231D01*
X261775Y135528D01*
X261914Y134826D01*
X262312Y134231D01*
X262908Y133833D01*
X263610Y133693D01*
X264312Y133833D01*
X264908Y134231D01*
X265306Y134826D01*
X265445Y135528D01*
X265306Y136231D01*
X265212Y136371D01*
X265251Y136428D01*
X265390Y137131D01*
X265251Y137833D01*
X264853Y138428D01*
X264257Y138826D01*
X263555Y138966D01*
D02*
G37*
G36*
X75156Y136193D02*
X74453Y136054D01*
X73858Y135656D01*
X73460Y135061D01*
X73320Y134358D01*
X73460Y133656D01*
X73858Y133060D01*
X74453Y132663D01*
X75156Y132523D01*
X75858Y132663D01*
X76453Y133060D01*
X76851Y133656D01*
X76991Y134358D01*
X76851Y135061D01*
X76453Y135656D01*
X75858Y136054D01*
X75156Y136193D01*
D02*
G37*
G36*
X31593Y137472D02*
X30773Y137309D01*
X30079Y136845D01*
X29615Y136150D01*
X29452Y135331D01*
X29615Y134511D01*
X30079Y133817D01*
X30773Y133352D01*
X31593Y133190D01*
X32412Y133352D01*
X33107Y133817D01*
X33571Y134511D01*
X33734Y135331D01*
X33571Y136150D01*
X33107Y136845D01*
X32412Y137309D01*
X31593Y137472D01*
D02*
G37*
G36*
X242865Y133634D02*
X242162Y133495D01*
X241840Y133279D01*
X241517Y133495D01*
X240815Y133634D01*
X240112Y133495D01*
X239790Y133279D01*
X239467Y133495D01*
X238765Y133634D01*
X238062Y133495D01*
X237467Y133097D01*
X237069Y132501D01*
X236929Y131799D01*
X237069Y131097D01*
X237467Y130501D01*
X238062Y130104D01*
X238765Y129964D01*
X238765Y129964D01*
X238765Y129964D01*
X238929Y129899D01*
D01*
D01*
X239069Y129197D01*
X239467Y128602D01*
X240062Y128204D01*
X240765Y128064D01*
X241467Y128204D01*
X241815Y128436D01*
X242162Y128204D01*
X242865Y128064D01*
X243567Y128204D01*
X244162Y128602D01*
X244560Y129197D01*
X244700Y129899D01*
X244560Y130602D01*
X244395Y130849D01*
X244560Y131097D01*
X244700Y131799D01*
X244560Y132501D01*
X244162Y133097D01*
X243567Y133495D01*
X242865Y133634D01*
D02*
G37*
%LPD*%
D84*
X231102Y117717D02*
D03*
X353937Y155118D02*
D03*
X5906D02*
D03*
Y33858D02*
D03*
D85*
X54328Y16015D02*
D03*
X45079Y19382D02*
D03*
X35830Y22748D02*
D03*
D87*
X143052Y58692D02*
D03*
D88*
X17200Y74900D02*
D03*
Y77354D02*
D03*
Y72500D02*
D03*
X17100Y138323D02*
D03*
Y135869D02*
D03*
Y133415D02*
D03*
Y131015D02*
D03*
Y128561D02*
D03*
Y126108D02*
D03*
Y118800D02*
D03*
Y121254D02*
D03*
Y123708D02*
D03*
Y116400D02*
D03*
X21100Y107800D02*
D03*
X17400Y97500D02*
D03*
Y99954D02*
D03*
Y102408D02*
D03*
Y95100D02*
D03*
X4700Y75100D02*
D03*
Y70246D02*
D03*
Y72700D02*
D03*
X9300Y106300D02*
D03*
X4446D02*
D03*
X6900D02*
D03*
X4000Y91700D02*
D03*
Y99008D02*
D03*
Y96554D02*
D03*
Y94100D02*
D03*
X12900Y106000D02*
D03*
X16100Y91600D02*
D03*
X10200Y74300D02*
D03*
X173300Y61400D02*
D03*
X171400Y62300D02*
D03*
X67100Y50400D02*
D03*
X70100Y50600D02*
D03*
X73200Y50700D02*
D03*
X33100Y46700D02*
D03*
X30600Y50100D02*
D03*
X22700Y56000D02*
D03*
X28700Y52300D02*
D03*
X19952Y52352D02*
D03*
X21400Y54200D02*
D03*
X66395Y91500D02*
D03*
X187165Y106299D02*
D03*
X186765Y102899D02*
D03*
X263610Y135528D02*
D03*
X258700Y137399D02*
D03*
X258000Y135799D02*
D03*
X263555Y137131D02*
D03*
X293794Y147200D02*
D03*
X244800Y152499D02*
D03*
X245290Y147599D02*
D03*
X246400Y152499D02*
D03*
X276600Y170499D02*
D03*
X273800Y170699D02*
D03*
X273700Y168899D02*
D03*
X245400Y149299D02*
D03*
X246900Y149999D02*
D03*
X135550Y22831D02*
D03*
X132830D02*
D03*
X146900Y11499D02*
D03*
X143800D02*
D03*
X155500Y24300D02*
D03*
X153365Y117799D02*
D03*
X306865Y37299D02*
D03*
X166265Y96699D02*
D03*
X240765Y129899D02*
D03*
X242865D02*
D03*
Y131799D02*
D03*
X301565Y35599D02*
D03*
X301465Y37399D02*
D03*
X301165Y117899D02*
D03*
X304792Y119644D02*
D03*
X140048Y157600D02*
D03*
X138548Y172700D02*
D03*
X135548Y170400D02*
D03*
X151730Y25031D02*
D03*
X144148Y162300D02*
D03*
X213048Y79100D02*
D03*
X170900Y144899D02*
D03*
X170948Y136800D02*
D03*
X154748Y155647D02*
D03*
Y157723D02*
D03*
Y168000D02*
D03*
X154848Y170350D02*
D03*
X152465Y171600D02*
D03*
X169348Y175300D02*
D03*
X165265Y172084D02*
D03*
Y168200D02*
D03*
X171648Y175300D02*
D03*
X169850Y112574D02*
D03*
X168348Y122100D02*
D03*
X307448Y132800D02*
D03*
X303248Y132100D02*
D03*
X303148Y129600D02*
D03*
X314093Y64083D02*
D03*
X261287Y27878D02*
D03*
X259319Y29557D02*
D03*
X244293Y26484D02*
D03*
X211748Y47300D02*
D03*
X211150Y49669D02*
D03*
X218993Y42184D02*
D03*
X230093Y52210D02*
D03*
X228793Y40584D02*
D03*
X232193Y36983D02*
D03*
X230493Y39083D02*
D03*
X298548Y52100D02*
D03*
X309648Y33700D02*
D03*
X307548D02*
D03*
X173150Y94283D02*
D03*
X201650Y133974D02*
D03*
X201600Y137974D02*
D03*
X201650Y139974D02*
D03*
Y142274D02*
D03*
Y131974D02*
D03*
X193000Y126599D02*
D03*
Y128819D02*
D03*
X192450Y109283D02*
D03*
X186950Y122083D02*
D03*
X47150Y136674D02*
D03*
X195730Y38983D02*
D03*
X190050Y125883D02*
D03*
X240815Y131799D02*
D03*
X182150Y122074D02*
D03*
X177650D02*
D03*
X172850Y122083D02*
D03*
X168900Y149099D02*
D03*
X172200Y149974D02*
D03*
X150130Y22831D02*
D03*
X144693Y25031D02*
D03*
X137093Y5384D02*
D03*
X139100Y9199D02*
D03*
X221893Y24284D02*
D03*
X208130Y31183D02*
D03*
X206530Y32683D02*
D03*
X233748Y22800D02*
D03*
X263046Y26030D02*
D03*
X244293Y28883D02*
D03*
X244193Y31284D02*
D03*
X233693Y34683D02*
D03*
X235693Y21584D02*
D03*
X237665Y20211D02*
D03*
X248450Y177974D02*
D03*
Y176174D02*
D03*
X173148Y140200D02*
D03*
X154848Y172700D02*
D03*
X178900Y139499D02*
D03*
X200100Y168299D02*
D03*
X250200Y136199D02*
D03*
X56952Y148892D02*
D03*
X155150Y106983D02*
D03*
X164693Y95331D02*
D03*
X312393Y65083D02*
D03*
X234906Y155331D02*
D03*
X69352Y154992D02*
D03*
X66252Y151992D02*
D03*
X63352Y148992D02*
D03*
X72250Y178074D02*
D03*
X251693Y19831D02*
D03*
X110193Y48331D02*
D03*
X277700Y171799D02*
D03*
X275177Y186315D02*
D03*
X270193Y169169D02*
D03*
X262193Y168331D02*
D03*
X267448Y124200D02*
D03*
X245700Y154099D02*
D03*
X146193Y89331D02*
D03*
X296848Y151100D02*
D03*
X84193Y62831D02*
D03*
X119330Y114083D02*
D03*
X124693Y117831D02*
D03*
X84230Y79783D02*
D03*
X191693Y60831D02*
D03*
X191193Y50331D02*
D03*
X192193Y48331D02*
D03*
X191730Y38983D02*
D03*
X195193Y45331D02*
D03*
X193693Y46831D02*
D03*
X95893Y40963D02*
D03*
X153193Y106331D02*
D03*
X270193Y173831D02*
D03*
X42152Y122392D02*
D03*
X64394Y111167D02*
D03*
X153348Y111300D02*
D03*
X205230Y34283D02*
D03*
X201530Y37383D02*
D03*
X62938Y90499D02*
D03*
X67392Y94953D02*
D03*
X71846Y99407D02*
D03*
X85209Y112770D02*
D03*
X83152Y110392D02*
D03*
X79288Y116292D02*
D03*
X72530Y131783D02*
D03*
X83884Y120637D02*
D03*
X96259Y123991D02*
D03*
X107852Y105792D02*
D03*
X94117Y121678D02*
D03*
X81430Y136414D02*
D03*
X81452Y123192D02*
D03*
X74925Y142759D02*
D03*
X62634Y130890D02*
D03*
X68711Y113092D02*
D03*
X63732Y123112D02*
D03*
X66948Y135486D02*
D03*
X60552Y142392D02*
D03*
X57140Y116804D02*
D03*
X47011Y115334D02*
D03*
X29252Y105792D02*
D03*
X32052Y109092D02*
D03*
X38052Y115092D02*
D03*
X42518Y110918D02*
D03*
X51357Y119896D02*
D03*
X34952Y112092D02*
D03*
X39052Y126092D02*
D03*
X42452Y129292D02*
D03*
X45452Y132292D02*
D03*
X44930Y112983D02*
D03*
X69620Y97180D02*
D03*
X80755Y108316D02*
D03*
X87420Y115014D02*
D03*
X91891Y119451D02*
D03*
X64792Y133187D02*
D03*
X75156Y134358D02*
D03*
X89663Y117224D02*
D03*
X79103Y138630D02*
D03*
X72730Y105314D02*
D03*
X75652Y117792D02*
D03*
X61405Y120796D02*
D03*
X30652Y122392D02*
D03*
X61610Y125233D02*
D03*
X49236Y117564D02*
D03*
X94694Y127477D02*
D03*
X51340Y141604D02*
D03*
X78052Y145292D02*
D03*
X63990Y113330D02*
D03*
X59152Y128892D02*
D03*
X155048Y112800D02*
D03*
X160339Y138505D02*
D03*
X160348Y130088D02*
D03*
X270193Y171331D02*
D03*
X153330Y22831D02*
D03*
X191693Y25957D02*
D03*
X197193Y43831D02*
D03*
X199944Y40582D02*
D03*
X191693Y87831D02*
D03*
X284748Y28600D02*
D03*
X160352Y125892D02*
D03*
X245693Y161831D02*
D03*
X245500Y156768D02*
D03*
X70903Y139515D02*
D03*
X69280Y137607D02*
D03*
X190389Y81527D02*
D03*
X256693Y168331D02*
D03*
X255193D02*
D03*
X175100Y59700D02*
D03*
X175493Y65331D02*
D03*
X170900Y148199D02*
D03*
X198550Y42174D02*
D03*
X203330Y35883D02*
D03*
X203000Y169649D02*
D03*
X179250Y136874D02*
D03*
X171948Y169961D02*
D03*
X170265Y168374D02*
D03*
X190850Y163074D02*
D03*
X188850Y154524D02*
D03*
X190850Y157474D02*
D03*
Y155374D02*
D03*
X201550Y154174D02*
D03*
Y156274D02*
D03*
Y158474D02*
D03*
Y160774D02*
D03*
X203000Y167499D02*
D03*
X60352Y146092D02*
D03*
X190850Y169474D02*
D03*
Y153374D02*
D03*
Y151374D02*
D03*
X188850Y150874D02*
D03*
X187300Y149474D02*
D03*
X191800Y147999D02*
D03*
X201550Y149274D02*
D03*
X69252Y161092D02*
D03*
X152465Y169100D02*
D03*
X203000Y165349D02*
D03*
X72250Y174574D02*
D03*
X232250Y186174D02*
D03*
X122350Y92774D02*
D03*
X235248Y163731D02*
D03*
X170550Y122074D02*
D03*
X179950D02*
D03*
X174148Y135321D02*
D03*
X177703D02*
D03*
X193000Y137699D02*
D03*
X183150Y135374D02*
D03*
X192593Y28046D02*
D03*
X146693Y25031D02*
D03*
X148693D02*
D03*
X244193Y24331D02*
D03*
X177693Y22831D02*
D03*
X208430Y28483D02*
D03*
X264793Y79984D02*
D03*
X218193Y72110D02*
D03*
X213693Y45331D02*
D03*
X217293Y40883D02*
D03*
X112350Y44383D02*
D03*
X131193Y24331D02*
D03*
X114130Y22583D02*
D03*
X116630D02*
D03*
X127650Y23883D02*
D03*
X173193Y91583D02*
D03*
X193000Y135479D02*
D03*
Y131039D02*
D03*
X279779Y146916D02*
D03*
X277650Y147183D02*
D03*
X238765Y131799D02*
D03*
X129693Y22831D02*
D03*
X137850D02*
D03*
X190150Y123783D02*
D03*
X325748Y180500D02*
D03*
X319197Y181249D02*
D03*
X279248Y148900D02*
D03*
X296895Y147800D02*
D03*
X274848Y139100D02*
D03*
X290848Y148600D02*
D03*
X297148Y140700D02*
D03*
X288548Y135000D02*
D03*
X290348Y137800D02*
D03*
X292148Y135900D02*
D03*
X230211Y24363D02*
D03*
X190350Y108583D02*
D03*
X190150Y121583D02*
D03*
X189165Y106899D02*
D03*
X233748Y135200D02*
D03*
Y125400D02*
D03*
X243193Y137774D02*
D03*
X243150Y135974D02*
D03*
X248693Y139331D02*
D03*
X300948Y149200D02*
D03*
X155848Y117400D02*
D03*
X161148Y122000D02*
D03*
X146648Y162300D02*
D03*
X154748Y159800D02*
D03*
Y162900D02*
D03*
X239634Y19142D02*
D03*
X260000Y168799D02*
D03*
X92193Y31045D02*
D03*
X92148Y37500D02*
D03*
X247193Y136199D02*
D03*
X248693D02*
D03*
X251900Y122499D02*
D03*
X253600D02*
D03*
X158013Y11173D02*
D03*
X154863Y8373D02*
D03*
X156438Y9773D02*
D03*
X158993Y5984D02*
D03*
X164312Y11173D02*
D03*
X161162Y6100D02*
D03*
X175330Y22831D02*
D03*
X191693Y23831D02*
D03*
X173730Y25031D02*
D03*
X172230Y22831D02*
D03*
X170630Y25031D02*
D03*
X169030Y22831D02*
D03*
X167430Y25031D02*
D03*
X212348Y22300D02*
D03*
X283548Y22100D02*
D03*
X299448Y122000D02*
D03*
X310648Y122600D02*
D03*
X321253Y154337D02*
D03*
X28652Y102892D02*
D03*
X23693Y114083D02*
D03*
X24652Y116392D02*
D03*
X27652Y119392D02*
D03*
X214648Y128900D02*
D03*
X322265Y59999D02*
D03*
Y62199D02*
D03*
X324065Y53699D02*
D03*
Y51849D02*
D03*
Y49999D02*
D03*
X189060Y144764D02*
D03*
X190450Y146374D02*
D03*
X187300Y152699D02*
D03*
Y156099D02*
D03*
X190850Y166274D02*
D03*
X187348Y163700D02*
D03*
X188850Y158174D02*
D03*
X171948Y166800D02*
D03*
X165265Y155647D02*
D03*
Y159600D02*
D03*
Y164099D02*
D03*
Y166150D02*
D03*
X170265Y165599D02*
D03*
X152465Y166599D02*
D03*
X170265Y158899D02*
D03*
X246965Y36599D02*
D03*
X178565Y175399D02*
D03*
X235665Y140199D02*
D03*
X311000Y126599D02*
D03*
X319116Y129247D02*
D03*
X301265Y120599D02*
D03*
X81656Y156286D02*
D03*
X79437Y156296D02*
D03*
X77071Y156748D02*
D03*
X58131Y162599D02*
D03*
X60398D02*
D03*
X58131Y160399D02*
D03*
X62665Y162599D02*
D03*
X93965Y157199D02*
D03*
X97015D02*
D03*
X100065D02*
D03*
X119065D02*
D03*
X121265D02*
D03*
X123465D02*
D03*
X125665D02*
D03*
X127865D02*
D03*
X142700Y159399D02*
D03*
Y157199D02*
D03*
X60398Y160399D02*
D03*
X201650Y135974D02*
D03*
X205165Y26599D02*
D03*
X194165Y25099D02*
D03*
X216165Y22699D02*
D03*
X218365D02*
D03*
X223765Y21799D02*
D03*
Y19599D02*
D03*
X205265Y7899D02*
D03*
X207498D02*
D03*
X209731D02*
D03*
X211965D02*
D03*
X179865Y27399D02*
D03*
Y25199D02*
D03*
X157800Y24300D02*
D03*
X40390Y56699D02*
D03*
X43065D02*
D03*
X37715D02*
D03*
X35040D02*
D03*
X37600Y54399D02*
D03*
X254900Y115299D02*
D03*
X256800D02*
D03*
X172200Y146499D02*
D03*
X193000Y133259D02*
D03*
X255400Y122499D02*
D03*
X251800Y136199D02*
D03*
X257600Y113499D02*
D03*
X255900D02*
D03*
X254200D02*
D03*
X56600Y175099D02*
D03*
Y179599D02*
D03*
X320195Y143400D02*
D03*
X320094Y145900D02*
D03*
X319994Y148800D02*
D03*
D89*
X31200Y132100D02*
D03*
X318010Y159255D02*
D03*
X300787Y172341D02*
D03*
X303837D02*
D03*
X314448Y107700D02*
D03*
X229256Y169751D02*
D03*
X107900Y36199D02*
D03*
X262165Y41699D02*
D03*
Y44499D02*
D03*
X258965D02*
D03*
Y41599D02*
D03*
X281348Y85800D02*
D03*
X278365Y85699D02*
D03*
X275365D02*
D03*
X230665Y89599D02*
D03*
X145248Y166200D02*
D03*
X206448Y169300D02*
D03*
X287244Y63427D02*
D03*
X297548Y59600D02*
D03*
X344848Y124200D02*
D03*
Y128550D02*
D03*
Y132900D02*
D03*
X354548Y121800D02*
D03*
X117248Y7700D02*
D03*
X45865Y142899D02*
D03*
X251050Y88983D02*
D03*
X286150Y112383D02*
D03*
X41493Y26384D02*
D03*
X34450Y136774D02*
D03*
X27900Y135099D02*
D03*
X14048Y185602D02*
D03*
X31450Y147774D02*
D03*
X37974Y152087D02*
D03*
X38069Y154950D02*
D03*
X22974Y185602D02*
D03*
X20074D02*
D03*
X17174D02*
D03*
X229393Y21083D02*
D03*
X94548Y7100D02*
D03*
X31593Y135331D02*
D03*
X203950Y149474D02*
D03*
X52850Y162174D02*
D03*
X24550Y154174D02*
D03*
X130161Y7313D02*
D03*
X44565Y140899D02*
D03*
X314548Y27600D02*
D03*
X25874Y185602D02*
D03*
X13665Y157639D02*
D03*
X312948Y179700D02*
D03*
X61548Y35900D02*
D03*
X56048Y33400D02*
D03*
X57276Y35828D02*
D03*
X80007Y4828D02*
D03*
X28774Y185602D02*
D03*
X222748Y94200D02*
D03*
X308981Y179367D02*
D03*
X337448Y173700D02*
D03*
X314448Y163700D02*
D03*
X13665Y160899D02*
D03*
X16846Y49326D02*
D03*
Y46426D02*
D03*
Y37726D02*
D03*
Y40626D02*
D03*
Y43526D02*
D03*
X16848Y34600D02*
D03*
X51874Y186502D02*
D03*
X54774D02*
D03*
X57674D02*
D03*
X48748D02*
D03*
X300648Y185702D02*
D03*
X309891D02*
D03*
X306810D02*
D03*
X303729D02*
D03*
X312972D02*
D03*
X316054D02*
D03*
X328378D02*
D03*
X337621D02*
D03*
X334540D02*
D03*
X331459D02*
D03*
X340702D02*
D03*
X343783D02*
D03*
X350165Y167299D02*
D03*
X319795Y124600D02*
D03*
X289347Y116300D02*
D03*
X292248D02*
D03*
X293548Y103200D02*
D03*
X293448Y100400D02*
D03*
X275348Y88500D02*
D03*
X278348D02*
D03*
X281348Y88600D02*
D03*
X299548Y88300D02*
D03*
X302548D02*
D03*
X96265Y3899D02*
D03*
X99165D02*
D03*
X116464Y2671D02*
D03*
X119297D02*
D03*
X122130D02*
D03*
X124964D02*
D03*
X5446Y178326D02*
D03*
Y175426D02*
D03*
Y166726D02*
D03*
Y169626D02*
D03*
Y172526D02*
D03*
Y163600D02*
D03*
X14322Y3198D02*
D03*
X263750Y3099D02*
D03*
X266700D02*
D03*
X247532Y7800D02*
D03*
X250774D02*
D03*
X241048D02*
D03*
X244290D02*
D03*
X190850Y159774D02*
D03*
X171050Y161474D02*
D03*
X292865Y112800D02*
D03*
X4548Y11000D02*
D03*
X4546Y19926D02*
D03*
Y17026D02*
D03*
Y14126D02*
D03*
Y22826D02*
D03*
Y25726D02*
D03*
X13665Y154379D02*
D03*
Y151119D02*
D03*
Y144599D02*
D03*
Y147859D02*
D03*
X25500Y127500D02*
D03*
X107900Y38899D02*
D03*
X150465Y2799D02*
D03*
X147665D02*
D03*
X144865D02*
D03*
X142065D02*
D03*
X167965Y2399D02*
D03*
X170998D02*
D03*
X174031D02*
D03*
X177065D02*
D03*
X193865Y2499D02*
D03*
X197174D02*
D03*
X200484D02*
D03*
X203793D02*
D03*
X207103D02*
D03*
X210412D02*
D03*
X213722D02*
D03*
X217031D02*
D03*
X220341D02*
D03*
X223650D02*
D03*
X226960D02*
D03*
X230269D02*
D03*
X233579D02*
D03*
X236888D02*
D03*
X240198D02*
D03*
X243507D02*
D03*
X246817D02*
D03*
X250126D02*
D03*
X260800Y3099D02*
D03*
X256745Y2499D02*
D03*
X253436D02*
D03*
X5865Y7999D02*
D03*
X8065Y5899D02*
D03*
X10765Y4099D02*
D03*
X338165Y94699D02*
D03*
Y91699D02*
D03*
Y88699D02*
D03*
Y85699D02*
D03*
Y82699D02*
D03*
X319765Y121799D02*
D03*
X319865Y118999D02*
D03*
X347065Y158999D02*
D03*
X350165Y164399D02*
D03*
Y161499D02*
D03*
X319135Y185702D02*
D03*
X322216D02*
D03*
X325297D02*
D03*
X346865D02*
D03*
X345265Y78599D02*
D03*
X349098D02*
D03*
X352931D02*
D03*
X356765D02*
D03*
X356765Y75499D02*
D03*
Y72399D02*
D03*
X141548Y162400D02*
D03*
X32100Y10399D02*
D03*
X28400D02*
D03*
X323594Y100300D02*
D03*
X326594D02*
D03*
X329594D02*
D03*
D90*
X82200Y180400D02*
D03*
X242200Y110499D02*
D03*
X245200Y110399D02*
D03*
X212696Y171500D02*
D03*
X171450Y75874D02*
D03*
X218565Y142799D02*
D03*
X222065D02*
D03*
X215565Y74999D02*
D03*
X145365Y77999D02*
D03*
X145265Y82299D02*
D03*
X145365Y73899D02*
D03*
X25548Y64800D02*
D03*
X79393Y159531D02*
D03*
X88293Y181631D02*
D03*
X81786Y166056D02*
D03*
X84548Y163500D02*
D03*
X212748Y168000D02*
D03*
X219448Y154800D02*
D03*
X134748Y177300D02*
D03*
X138648Y181500D02*
D03*
X75448Y24300D02*
D03*
X212065Y74999D02*
D03*
X72248Y24300D02*
D03*
X209648Y147200D02*
D03*
X189048Y174700D02*
D03*
X222648Y87100D02*
D03*
X238248Y106200D02*
D03*
X333548Y33200D02*
D03*
X218465Y146399D02*
D03*
X295850Y178083D02*
D03*
X30750Y164683D02*
D03*
X26893Y164831D02*
D03*
X220293Y8884D02*
D03*
X221965Y146499D02*
D03*
X61065Y9699D02*
D03*
X246693Y172083D02*
D03*
X249476Y23114D02*
D03*
X91900Y46923D02*
D03*
X152224Y90799D02*
D03*
X172400Y55423D02*
D03*
X54450Y144232D02*
D03*
X111050Y182574D02*
D03*
X51784Y146750D02*
D03*
X90806Y170988D02*
D03*
X238350Y171874D02*
D03*
X235150D02*
D03*
X138648Y177300D02*
D03*
X134648Y181500D02*
D03*
X229700Y166599D02*
D03*
X226300Y166699D02*
D03*
X226400Y170199D02*
D03*
X43493Y5331D02*
D03*
X141193Y23831D02*
D03*
X61065Y5299D02*
D03*
X88950Y173774D02*
D03*
X69565Y5299D02*
D03*
X174650Y75923D02*
D03*
X283048Y107700D02*
D03*
X192148Y103500D02*
D03*
X268693Y104083D02*
D03*
X61065Y13999D02*
D03*
X65315Y5299D02*
D03*
Y9699D02*
D03*
X39948Y45900D02*
D03*
X133965Y6799D02*
D03*
X242765Y85699D02*
D03*
X246365D02*
D03*
X235000Y167799D02*
D03*
X320848Y18600D02*
D03*
D91*
X202200Y87399D02*
D03*
X274600Y22299D02*
D03*
X294900Y82599D02*
D03*
X292300D02*
D03*
X289800D02*
D03*
X286600Y78999D02*
D03*
X285000Y77099D02*
D03*
Y74633D02*
D03*
Y72166D02*
D03*
X287465D02*
D03*
X322965Y30599D02*
D03*
X325465D02*
D03*
X299265Y30399D02*
D03*
X301665D02*
D03*
X296865D02*
D03*
X286700Y40999D02*
D03*
X291165Y37199D02*
D03*
X288765D02*
D03*
X291265Y34799D02*
D03*
X288792D02*
D03*
X286295Y35300D02*
D03*
X284465Y53999D02*
D03*
X272993Y102483D02*
D03*
X323300Y72199D02*
D03*
X327200Y72099D02*
D03*
X324848Y64800D02*
D03*
X319648Y63600D02*
D03*
X284648Y38800D02*
D03*
X286648Y60100D02*
D03*
Y56600D02*
D03*
Y49600D02*
D03*
Y46100D02*
D03*
X324248Y57700D02*
D03*
X295950Y67000D02*
D03*
X298300Y65599D02*
D03*
X300600D02*
D03*
X329548Y54400D02*
D03*
X276393Y102884D02*
D03*
X281250Y100983D02*
D03*
X353448Y6800D02*
D03*
X340015Y2500D02*
D03*
X342631D02*
D03*
X345248D02*
D03*
X351048Y5100D02*
D03*
X307448Y8900D02*
D03*
X309848D02*
D03*
X348448Y3700D02*
D03*
X333948Y50250D02*
D03*
Y52700D02*
D03*
Y47800D02*
D03*
X337398Y2500D02*
D03*
X332281Y18262D02*
D03*
X332329Y15697D02*
D03*
X335015Y18262D02*
D03*
X329548Y13000D02*
D03*
Y15700D02*
D03*
X334781Y2500D02*
D03*
X329548Y4900D02*
D03*
Y10300D02*
D03*
X332165Y2500D02*
D03*
X329548D02*
D03*
Y7600D02*
D03*
X127350Y72999D02*
D03*
X129800D02*
D03*
X132790Y72999D02*
D03*
X135710D02*
D03*
X138630D02*
D03*
X141300D02*
D03*
X127350Y61566D02*
D03*
Y47274D02*
D03*
Y50132D02*
D03*
Y55849D02*
D03*
Y58707D02*
D03*
Y64424D02*
D03*
Y67282D02*
D03*
Y70141D02*
D03*
X131100Y45099D02*
D03*
X133670D02*
D03*
X136280D02*
D03*
X138890D02*
D03*
X144110D02*
D03*
X146720D02*
D03*
X151940D02*
D03*
X141500D02*
D03*
X149330D02*
D03*
X156950Y68454D02*
D03*
Y65844D02*
D03*
Y63234D02*
D03*
Y60624D02*
D03*
Y52794D02*
D03*
X129800Y52991D02*
D03*
Y61566D02*
D03*
Y47274D02*
D03*
Y55849D02*
D03*
Y58707D02*
D03*
Y64424D02*
D03*
Y67282D02*
D03*
Y70141D02*
D03*
X353948Y33700D02*
D03*
X356948D02*
D03*
X346248Y37223D02*
D03*
Y39746D02*
D03*
Y42269D02*
D03*
Y44792D02*
D03*
Y47315D02*
D03*
Y49838D02*
D03*
X342757Y75900D02*
D03*
X295950Y77481D02*
D03*
Y74862D02*
D03*
X317850Y75900D02*
D03*
X315250Y80200D02*
D03*
X317850Y78574D02*
D03*
X345248Y75900D02*
D03*
X345294Y73800D02*
D03*
X346248Y34700D02*
D03*
X351100Y33699D02*
D03*
X346248Y52362D02*
D03*
X336448Y47800D02*
D03*
X337748Y45700D02*
D03*
X295950Y69599D02*
D03*
X346248Y54885D02*
D03*
X332048Y54400D02*
D03*
X346248Y57408D02*
D03*
Y59931D02*
D03*
Y62454D02*
D03*
Y64977D02*
D03*
X265250Y100274D02*
D03*
X60052Y151892D02*
D03*
X79300Y42999D02*
D03*
X346248Y67500D02*
D03*
X173550Y107674D02*
D03*
X170693Y107331D02*
D03*
X62952Y154892D02*
D03*
X65952Y157892D02*
D03*
X268693Y76083D02*
D03*
X231165Y74399D02*
D03*
X172330Y72083D02*
D03*
X277430Y153683D02*
D03*
X279430Y153743D02*
D03*
X156950Y58014D02*
D03*
Y55404D02*
D03*
X312589Y80200D02*
D03*
X309929D02*
D03*
X307269D02*
D03*
X348500Y33699D02*
D03*
X354900Y68899D02*
D03*
X352500D02*
D03*
X357300D02*
D03*
X345294Y71500D02*
D03*
X347795Y71400D02*
D03*
X332794Y75900D02*
D03*
X335285D02*
D03*
X337776D02*
D03*
X340266Y76000D02*
D03*
X335700Y72199D02*
D03*
X301948Y80200D02*
D03*
X304608D02*
D03*
X330348Y66300D02*
D03*
X332748D02*
D03*
X335148D02*
D03*
X337548D02*
D03*
X339948D02*
D03*
X342348D02*
D03*
X330348Y63900D02*
D03*
X329148Y61700D02*
D03*
Y59300D02*
D03*
Y56800D02*
D03*
X324848Y69700D02*
D03*
X325648Y59700D02*
D03*
Y62200D02*
D03*
X330303Y75900D02*
D03*
X324848Y67200D02*
D03*
X350195Y70100D02*
D03*
X338100Y72199D02*
D03*
X333300Y72299D02*
D03*
X273048Y63900D02*
D03*
X277193Y99383D02*
D03*
X276448Y38400D02*
D03*
X274748Y35800D02*
D03*
X270948Y34100D02*
D03*
X271048Y29500D02*
D03*
X295950Y72166D02*
D03*
X295948Y80200D02*
D03*
X298348D02*
D03*
X307380Y104269D02*
D03*
X301748Y103100D02*
D03*
X59648Y22900D02*
D03*
X275648Y92500D02*
D03*
X280948Y13000D02*
D03*
X282648Y11000D02*
D03*
X199248Y9800D02*
D03*
X337748Y43200D02*
D03*
Y40700D02*
D03*
Y38200D02*
D03*
Y35700D02*
D03*
Y33200D02*
D03*
Y30700D02*
D03*
Y28200D02*
D03*
Y25700D02*
D03*
Y23200D02*
D03*
X356948Y31300D02*
D03*
Y28600D02*
D03*
Y25900D02*
D03*
Y23200D02*
D03*
Y20500D02*
D03*
Y17800D02*
D03*
X356848Y14600D02*
D03*
Y11700D02*
D03*
X355448Y8700D02*
D03*
X330248Y78400D02*
D03*
X317848Y81000D02*
D03*
Y83600D02*
D03*
X320048Y85100D02*
D03*
X329100Y85699D02*
D03*
X331648Y85699D02*
D03*
Y83150D02*
D03*
Y80600D02*
D03*
X335175Y25695D02*
D03*
X329948Y34600D02*
D03*
X293300Y69599D02*
D03*
X290900D02*
D03*
X287448D02*
D03*
X285000D02*
D03*
X275900Y68699D02*
D03*
Y66399D02*
D03*
X296900Y27999D02*
D03*
X299300D02*
D03*
X301700D02*
D03*
X294400D02*
D03*
X306948Y28000D02*
D03*
X309348D02*
D03*
X322965Y27899D02*
D03*
X328000Y32899D02*
D03*
X284095Y35300D02*
D03*
X337748Y20800D02*
D03*
X337748Y18262D02*
D03*
X329548D02*
D03*
X312348Y8900D02*
D03*
X314748D02*
D03*
X317148D02*
D03*
X319548D02*
D03*
X321948D02*
D03*
X324448D02*
D03*
X326848D02*
D03*
X298548D02*
D03*
X295771D02*
D03*
X292995D02*
D03*
X290218D02*
D03*
X284665D02*
D03*
X287441D02*
D03*
X279248D02*
D03*
X276648D02*
D03*
X129800Y50132D02*
D03*
X127350Y52991D02*
D03*
X281888Y8900D02*
D03*
D92*
X161430Y106483D02*
D03*
X108193Y79831D02*
D03*
X127530Y90083D02*
D03*
X111552Y95183D02*
D03*
X131230D02*
D03*
X142230D02*
D03*
X160606Y134138D02*
D03*
X159735Y142618D02*
D03*
X108193Y65831D02*
D03*
X172693Y80583D02*
D03*
X170693Y82083D02*
D03*
D93*
X243848Y19500D02*
D03*
D94*
X141887Y115284D02*
D03*
D95*
X306862Y46800D02*
D03*
X311193D02*
D03*
X315524D02*
D03*
X306862Y51131D02*
D03*
X311193D02*
D03*
X315524D02*
D03*
X306862Y55461D02*
D03*
X311193D02*
D03*
X315524D02*
D03*
D96*
X261193Y152831D02*
D03*
M02*
