G04 Layer_Physical_Order=3*
G04 Layer_Color=36540*
%FSLAX25Y25*%
%MOIN*%
G70*
G01*
G75*
%ADD10C,0.00800*%
%ADD11C,0.00500*%
%ADD12C,0.00600*%
%ADD13C,0.01000*%
%ADD15C,0.02000*%
%ADD17C,0.04000*%
%ADD19C,0.03000*%
%ADD73C,0.06000*%
%ADD84C,0.09843*%
%ADD85C,0.06693*%
G04:AMPARAMS|DCode=87|XSize=236.22mil|YSize=236.22mil|CornerRadius=0mil|HoleSize=0mil|Usage=FLASHONLY|Rotation=0.000|XOffset=0mil|YOffset=0mil|HoleType=Round|Shape=RoundedRectangle|*
%AMROUNDEDRECTD87*
21,1,0.23622,0.23622,0,0,0.0*
21,1,0.23622,0.23622,0,0,0.0*
1,1,0.00000,0.11811,-0.11811*
1,1,0.00000,-0.11811,-0.11811*
1,1,0.00000,-0.11811,0.11811*
1,1,0.00000,0.11811,0.11811*
%
%ADD87ROUNDEDRECTD87*%
%ADD88C,0.01600*%
%ADD89C,0.02200*%
%ADD90C,0.03000*%
%ADD91C,0.01800*%
%ADD92C,0.02400*%
%ADD93C,0.02000*%
%ADD94C,0.01799*%
%ADD95C,0.01969*%
%ADD96C,0.12000*%
G36*
X193010Y109854D02*
X191890D01*
X192050Y110456D01*
X192850D01*
X193010Y109854D01*
D02*
G37*
G36*
X154402Y110600D02*
X154048Y110247D01*
X153356Y110500D01*
X154148Y111292D01*
X154402Y110600D01*
D02*
G37*
G36*
X191462Y108036D02*
X190896Y107471D01*
X190358Y107783D01*
X191150Y108575D01*
X191462Y108036D01*
D02*
G37*
G36*
X189225Y107697D02*
X188382Y107063D01*
X188400Y107991D01*
X188900Y108134D01*
X189225Y107697D01*
D02*
G37*
G36*
X239298Y107271D02*
X237198D01*
X237248Y108218D01*
X239248D01*
X239298Y107271D01*
D02*
G37*
G36*
X191122Y25397D02*
X190453Y25707D01*
Y26207D01*
X191122Y26517D01*
Y25397D01*
D02*
G37*
G36*
X108508Y164560D02*
X109135Y164079D01*
X109865Y163777D01*
X110648Y163674D01*
X139343D01*
X139579Y163233D01*
X139570Y163219D01*
X139407Y162400D01*
X139570Y161581D01*
X140034Y160886D01*
X140729Y160422D01*
X141548Y160259D01*
X142367Y160422D01*
X142438Y160469D01*
X142879Y160234D01*
Y159940D01*
X142976Y159452D01*
X143253Y159039D01*
X144204Y158088D01*
Y123585D01*
X144301Y123098D01*
X144577Y122684D01*
X153463Y113798D01*
X153523Y113758D01*
X153352Y113502D01*
X153277Y113121D01*
X152646Y112996D01*
X152050Y112598D01*
X151653Y112002D01*
X151513Y111300D01*
X151653Y110598D01*
X152050Y110002D01*
X152646Y109604D01*
X153063Y109521D01*
X153475Y109371D01*
X154001Y108845D01*
X153956Y108392D01*
X153555Y108094D01*
X153193Y108166D01*
X152491Y108026D01*
X151895Y107628D01*
X151497Y107033D01*
X151358Y106331D01*
X151497Y105628D01*
X151895Y105033D01*
X152491Y104635D01*
X152829Y104568D01*
X153086Y104419D01*
X154822Y102683D01*
Y92273D01*
X154344Y92127D01*
X154027Y92602D01*
X153200Y93154D01*
X152224Y93348D01*
X151249Y93154D01*
X150422Y92602D01*
X149870Y91775D01*
X149675Y90799D01*
X149870Y89824D01*
X150422Y88997D01*
X151249Y88444D01*
X152224Y88250D01*
X153200Y88444D01*
X154027Y88997D01*
X154344Y89471D01*
X154822Y89326D01*
Y88099D01*
X154822Y88098D01*
X154931Y87552D01*
X155240Y87089D01*
X157366Y84964D01*
Y37419D01*
X152557Y32610D01*
X138850D01*
X138303Y32501D01*
X137840Y32192D01*
X137840Y32192D01*
X134540Y28892D01*
X134231Y28429D01*
X134122Y27883D01*
X134122Y27883D01*
Y27357D01*
X133660Y27166D01*
X125504Y35322D01*
Y88260D01*
X125945Y88495D01*
X126672Y88010D01*
X127530Y87840D01*
X128388Y88010D01*
X129116Y88497D01*
X129602Y89224D01*
X129773Y90083D01*
X129602Y90941D01*
X129116Y91669D01*
X128388Y92155D01*
X127530Y92326D01*
X126672Y92155D01*
X125945Y91670D01*
X125504Y91905D01*
Y100655D01*
X140949Y116100D01*
X140949Y116100D01*
X140949Y116100D01*
X141226Y116513D01*
X141323Y117001D01*
Y156146D01*
X141507Y156543D01*
X141744Y156898D01*
X141883Y157600D01*
X141744Y158302D01*
X141346Y158898D01*
X140750Y159296D01*
X140048Y159435D01*
X139346Y159296D01*
X138750Y158898D01*
X138353Y158302D01*
X138213Y157600D01*
X138353Y156898D01*
X138589Y156544D01*
X138774Y156146D01*
Y117529D01*
X123329Y102084D01*
X123052Y101670D01*
X122955Y101183D01*
Y94883D01*
X122569Y94566D01*
X122350Y94609D01*
X121647Y94470D01*
X121052Y94072D01*
X120654Y93476D01*
X120568Y93042D01*
X120370Y92509D01*
X120271Y92360D01*
X120174Y91872D01*
Y85299D01*
X116036D01*
X115931Y85457D01*
X105204Y96183D01*
Y165394D01*
X105107Y165881D01*
X104831Y166295D01*
X93151Y177975D01*
X92971Y178096D01*
X93116Y178574D01*
X94495D01*
X108508Y164560D01*
D02*
G37*
G36*
X156902Y116700D02*
X156548Y116347D01*
X155856Y116600D01*
X156648Y117392D01*
X156902Y116700D01*
D02*
G37*
G36*
X131753Y24902D02*
X130633D01*
X130943Y25571D01*
X131443D01*
X131753Y24902D01*
D02*
G37*
G36*
X155298Y111560D02*
X154798D01*
X154488Y112229D01*
X155608D01*
X155298Y111560D01*
D02*
G37*
G36*
X167422Y25831D02*
X166630Y25039D01*
X166376Y25731D01*
X166730Y26084D01*
X167422Y25831D01*
D02*
G37*
G36*
X280607Y100353D02*
X279903Y100583D01*
Y101383D01*
X280607Y101613D01*
Y100353D01*
D02*
G37*
G36*
X303094Y103500D02*
Y102700D01*
X302391Y102470D01*
Y103730D01*
X303094Y103500D01*
D02*
G37*
G36*
X278428Y100052D02*
X278093Y99392D01*
X277202Y100283D01*
X277862Y100618D01*
X278428Y100052D01*
D02*
G37*
G36*
X166726Y109320D02*
Y96390D01*
X166247Y96245D01*
X165991Y96628D01*
X165395Y97026D01*
X164693Y97166D01*
X163991Y97026D01*
X163395Y96628D01*
X162997Y96033D01*
X162858Y95331D01*
X162997Y94628D01*
X163395Y94033D01*
X163991Y93635D01*
X164693Y93496D01*
X165395Y93635D01*
X165991Y94033D01*
X166247Y94417D01*
X166726Y94272D01*
Y91728D01*
X163963Y88966D01*
X163761Y88663D01*
X163264Y88614D01*
X161754Y90124D01*
Y101304D01*
X164718Y104268D01*
X164995Y104681D01*
X165092Y105169D01*
X165092Y105169D01*
X165092Y105169D01*
Y105169D01*
Y107798D01*
X164995Y108286D01*
X164718Y108699D01*
X159854Y113564D01*
X160045Y114025D01*
X162020D01*
X166726Y109320D01*
D02*
G37*
G36*
X277184Y98484D02*
X276524Y98149D01*
X275958Y98714D01*
X276293Y99375D01*
X277184Y98484D01*
D02*
G37*
G36*
X307370Y103369D02*
X306710Y103034D01*
X306145Y103599D01*
X306480Y104260D01*
X307370Y103369D01*
D02*
G37*
G36*
X156262Y106436D02*
X155696Y105870D01*
X155158Y106183D01*
X155950Y106975D01*
X156262Y106436D01*
D02*
G37*
G36*
X149253Y25602D02*
X148133D01*
X148443Y26271D01*
X148943D01*
X149253Y25602D01*
D02*
G37*
G36*
X154305Y105784D02*
X153739Y105219D01*
X153201Y105531D01*
X153993Y106323D01*
X154305Y105784D01*
D02*
G37*
G36*
X171190Y25602D02*
X170070D01*
X170380Y26271D01*
X170880D01*
X171190Y25602D01*
D02*
G37*
G36*
X277023Y103526D02*
X275763D01*
X275893Y104172D01*
X276893D01*
X277023Y103526D01*
D02*
G37*
G36*
X187200Y120843D02*
X186700D01*
X186390Y121511D01*
X187510D01*
X187200Y120843D01*
D02*
G37*
G36*
X191322Y121983D02*
Y121183D01*
X190721Y121023D01*
Y122143D01*
X191322Y121983D01*
D02*
G37*
G36*
X173100Y120843D02*
X172600D01*
X172290Y121511D01*
X173410D01*
X173100Y120843D01*
D02*
G37*
G36*
X180200Y120834D02*
X179700D01*
X179390Y121503D01*
X180510D01*
X180200Y120834D01*
D02*
G37*
G36*
X182400D02*
X181900D01*
X181590Y121503D01*
X182710D01*
X182400Y120834D01*
D02*
G37*
G36*
X162388Y122250D02*
Y121750D01*
X161719Y121440D01*
Y122560D01*
X162388Y122250D01*
D02*
G37*
G36*
X233811Y124602D02*
X233117Y124316D01*
X232731Y124636D01*
X232952Y125321D01*
X233811Y124602D01*
D02*
G37*
G36*
X172790Y23402D02*
X171670D01*
X171980Y24071D01*
X172480D01*
X172790Y23402D01*
D02*
G37*
G36*
X175890D02*
X174770D01*
X175080Y24071D01*
X175580D01*
X175890Y23402D01*
D02*
G37*
G36*
X191322Y124183D02*
Y123383D01*
X190721Y123223D01*
Y124343D01*
X191322Y124183D01*
D02*
G37*
G36*
X153450Y154349D02*
X154046Y153951D01*
X154748Y153812D01*
X155450Y153951D01*
X155533Y154006D01*
X155973Y153771D01*
Y151400D01*
X156071Y150912D01*
X156347Y150499D01*
X163673Y143172D01*
Y130912D01*
X163673Y130912D01*
X163673D01*
X163771Y130424D01*
X164047Y130010D01*
X167413Y126644D01*
X167364Y126146D01*
X167147Y126001D01*
X164420Y123275D01*
X162602D01*
X162205Y123459D01*
X161850Y123696D01*
X161148Y123835D01*
X160446Y123696D01*
X159850Y123298D01*
X159849Y123296D01*
X159352Y123247D01*
X152839Y129760D01*
Y154403D01*
X153317Y154548D01*
X153450Y154349D01*
D02*
G37*
G36*
X163590Y33441D02*
Y28775D01*
X158920Y24105D01*
X154784D01*
X154386Y24290D01*
X154032Y24526D01*
X154030Y24534D01*
X154370Y24874D01*
X154419Y24912D01*
X154413Y24917D01*
X154413Y24917D01*
X155167Y25672D01*
X155226Y25717D01*
X155279Y25758D01*
X155266Y25771D01*
X163128Y33633D01*
X163590Y33441D01*
D02*
G37*
G36*
X147093Y23858D02*
X146293D01*
X146133Y24459D01*
X147253D01*
X147093Y23858D01*
D02*
G37*
G36*
X222962Y24950D02*
X222693Y24306D01*
X221886Y25083D01*
X222530Y25366D01*
X222962Y24950D01*
D02*
G37*
G36*
X269796Y32585D02*
X270207Y32310D01*
X270948Y32163D01*
X270988Y32171D01*
X271160Y32029D01*
Y31529D01*
X271048Y31437D01*
X270307Y31290D01*
X269678Y30870D01*
X269258Y30241D01*
X269111Y29500D01*
X269258Y28759D01*
X269520Y28367D01*
X269723Y27909D01*
Y21649D01*
X266932Y18858D01*
X253729D01*
X253412Y19245D01*
X253528Y19831D01*
X253389Y20533D01*
X252991Y21128D01*
X252395Y21526D01*
X251693Y21666D01*
X251604Y21799D01*
X251831Y22139D01*
X252025Y23114D01*
X251831Y24090D01*
X251279Y24917D01*
X250452Y25469D01*
X249476Y25663D01*
X248501Y25469D01*
X247674Y24917D01*
X247121Y24090D01*
X246927Y23114D01*
X247121Y22139D01*
X247674Y21312D01*
X248501Y20759D01*
X249476Y20565D01*
X249584Y20587D01*
X249938Y20233D01*
X249858Y19831D01*
X249974Y19245D01*
X249657Y18858D01*
X246154D01*
X245836Y19245D01*
X245887Y19500D01*
X245732Y20280D01*
X245290Y20942D01*
X244628Y21384D01*
X243848Y21539D01*
X243068Y21384D01*
X242406Y20942D01*
X241964Y20280D01*
X241853Y19724D01*
X241353Y19724D01*
X241329Y19845D01*
X240932Y20440D01*
X240336Y20838D01*
X239634Y20978D01*
X239355Y20922D01*
X238963Y21509D01*
X238368Y21907D01*
X237665Y22046D01*
X237665Y22046D01*
X237665Y22046D01*
X237401Y22223D01*
X237388Y22286D01*
X236991Y22881D01*
X236395Y23279D01*
X236113Y23335D01*
X236093Y23432D01*
X242075Y29414D01*
X242516Y29178D01*
X242458Y28883D01*
X242597Y28181D01*
X242930Y27683D01*
X242597Y27186D01*
X242458Y26484D01*
X242597Y25781D01*
X242995Y25186D01*
X243591Y24788D01*
X244293Y24648D01*
X244995Y24788D01*
X245591Y25186D01*
X245988Y25781D01*
X246128Y26484D01*
X245988Y27186D01*
X245656Y27683D01*
X245988Y28181D01*
X246128Y28883D01*
X245988Y29586D01*
X245606Y30158D01*
X245888Y30581D01*
X246028Y31284D01*
X245888Y31986D01*
X245491Y32581D01*
X245468Y32807D01*
X245487Y32825D01*
X269313D01*
X269796Y32585D01*
D02*
G37*
G36*
X155840Y118200D02*
X155048Y117408D01*
X154795Y118100D01*
X155148Y118454D01*
X155840Y118200D01*
D02*
G37*
G36*
X145093Y23858D02*
X144293D01*
X144133Y24459D01*
X145253D01*
X145093Y23858D01*
D02*
G37*
G36*
X170800Y120834D02*
X170300D01*
X169990Y121503D01*
X171110D01*
X170800Y120834D01*
D02*
G37*
G36*
X177900D02*
X177400D01*
X177090Y121503D01*
X178210D01*
X177900Y120834D01*
D02*
G37*
G36*
X178253Y23402D02*
X177133D01*
X177443Y24071D01*
X177943D01*
X178253Y23402D01*
D02*
G37*
G36*
X358313Y120930D02*
X355118D01*
X355037Y120914D01*
X354253Y120811D01*
X353396Y120456D01*
X353193Y120300D01*
X347102D01*
X347023Y120361D01*
X346178Y120711D01*
X345279Y120829D01*
Y120829D01*
X345279Y120829D01*
X345276Y120829D01*
X342581D01*
Y136472D01*
X358313D01*
Y120930D01*
D02*
G37*
G36*
X231460Y24584D02*
X231441Y24083D01*
X230761Y23782D01*
X230803Y24902D01*
X231460Y24584D01*
D02*
G37*
G36*
X174290Y25602D02*
X173170D01*
X173480Y26271D01*
X173980D01*
X174290Y25602D01*
D02*
G37*
G36*
X212824Y47952D02*
X212548Y47308D01*
X211756Y48100D01*
X212400Y48376D01*
X212824Y47952D01*
D02*
G37*
G36*
X193246Y49031D02*
X192993Y48339D01*
X192201Y49131D01*
X192893Y49384D01*
X193246Y49031D01*
D02*
G37*
G36*
X194746Y47531D02*
X194493Y46839D01*
X193701Y47631D01*
X194393Y47884D01*
X194746Y47531D01*
D02*
G37*
G36*
X39933Y47400D02*
X38448Y45915D01*
X37814Y46620D01*
X39228Y48034D01*
X39933Y47400D01*
D02*
G37*
G36*
X202584Y38083D02*
X202330Y37391D01*
X201538Y38183D01*
X202230Y38436D01*
X202584Y38083D01*
D02*
G37*
G36*
X286005Y48970D02*
X285260Y49300D01*
Y49900D01*
X286005Y50230D01*
Y48970D01*
D02*
G37*
G36*
X246957Y35799D02*
X246265Y35546D01*
X245911Y35899D01*
X246165Y36591D01*
X246957Y35799D01*
D02*
G37*
G36*
X286005Y59470D02*
X285260Y59800D01*
Y60400D01*
X286005Y60730D01*
Y59470D01*
D02*
G37*
G36*
Y55970D02*
X285260Y56300D01*
Y56900D01*
X286005Y57230D01*
Y55970D01*
D02*
G37*
G36*
X276748Y37012D02*
X276148D01*
X275818Y37757D01*
X277078D01*
X276748Y37012D01*
D02*
G37*
G36*
X204383Y36583D02*
X204130Y35891D01*
X203338Y36683D01*
X204030Y36936D01*
X204383Y36583D01*
D02*
G37*
G36*
X220166Y42584D02*
Y41783D01*
X219564Y41623D01*
Y42744D01*
X220166Y42584D01*
D02*
G37*
G36*
X273985Y93432D02*
X273858Y93241D01*
X273762Y92757D01*
X273591Y92245D01*
X263892Y82546D01*
X263615Y82133D01*
X263518Y81645D01*
Y81438D01*
X263334Y81040D01*
X263097Y80686D01*
X262958Y79984D01*
X263097Y79281D01*
X263321Y78946D01*
X263467Y78580D01*
Y66532D01*
X238456Y41521D01*
X238168Y41091D01*
X238067Y40584D01*
Y32147D01*
X235730Y29809D01*
X226072D01*
X225564Y29708D01*
X225134Y29421D01*
X221930Y26216D01*
X221554Y26051D01*
X221191Y25979D01*
X220595Y25581D01*
X220197Y24986D01*
X220058Y24284D01*
X220197Y23581D01*
X220595Y22986D01*
X221191Y22588D01*
X221893Y22448D01*
X222595Y22588D01*
X223191Y22986D01*
X223588Y23581D01*
X223674Y24010D01*
X223819Y24356D01*
X226621Y27158D01*
X235561D01*
X235753Y26696D01*
X234664Y25608D01*
X231684D01*
X231336Y25776D01*
X230913Y26059D01*
X230211Y26198D01*
X229509Y26059D01*
X228913Y25661D01*
X228516Y25065D01*
X228376Y24363D01*
X228516Y23661D01*
X228913Y23065D01*
X229509Y22668D01*
X230211Y22528D01*
X230913Y22668D01*
X231211Y22866D01*
X231325Y22917D01*
X231785Y22825D01*
X231922Y22754D01*
X232052Y22098D01*
X232450Y21502D01*
X233046Y21104D01*
X233748Y20965D01*
X233972Y21009D01*
X233997Y20881D01*
X234395Y20286D01*
X234991Y19888D01*
X235693Y19748D01*
X235693Y19748D01*
X235693Y19748D01*
X235957Y19571D01*
X235970Y19509D01*
X236110Y19299D01*
X235874Y18858D01*
X208309D01*
X208118Y19320D01*
X210271Y21473D01*
X210768Y21424D01*
X211050Y21002D01*
X211646Y20604D01*
X212348Y20465D01*
X213050Y20604D01*
X213646Y21002D01*
X214044Y21598D01*
X214183Y22300D01*
X214044Y23002D01*
X213646Y23598D01*
X213050Y23996D01*
X212990Y24193D01*
X215790Y26992D01*
X216232Y27654D01*
X216387Y28434D01*
X216387Y28434D01*
X216387Y28434D01*
Y28434D01*
Y38834D01*
X216774Y39151D01*
X217293Y39048D01*
X217735Y39136D01*
X218063Y39156D01*
X218969D01*
X218983Y39154D01*
Y39156D01*
X222288D01*
X222288Y39156D01*
X222834Y39265D01*
X223297Y39574D01*
X227525Y43803D01*
X238241D01*
X238241Y43803D01*
X238280Y43810D01*
X238303Y43806D01*
X238791Y43903D01*
X239205Y44179D01*
X239238Y44212D01*
X239251Y44221D01*
X261102Y66072D01*
X261102Y66072D01*
X261412Y66536D01*
X261520Y67082D01*
X261520Y67082D01*
Y83354D01*
X272039Y93873D01*
X273750D01*
X273985Y93432D01*
D02*
G37*
G36*
X200300Y41779D02*
X200575Y41075D01*
X199464Y41222D01*
X199800Y41849D01*
X200300Y41779D01*
D02*
G37*
G36*
X203875Y89372D02*
Y41530D01*
X202104Y39759D01*
X201663Y39995D01*
X201780Y40582D01*
X201640Y41284D01*
X201513Y41474D01*
X201324Y41958D01*
Y42158D01*
X201325Y42164D01*
X201324D01*
Y91270D01*
X201786Y91461D01*
X203875Y89372D01*
D02*
G37*
G36*
X218567Y40984D02*
X218160Y40183D01*
X217613Y40150D01*
X218033Y41188D01*
X218567Y40984D01*
D02*
G37*
G36*
X198247Y44531D02*
X197993Y43839D01*
X197201Y44631D01*
X197893Y44884D01*
X198247Y44531D01*
D02*
G37*
G36*
X214769Y45982D02*
X214493Y45339D01*
X213701Y46131D01*
X214345Y46407D01*
X214769Y45982D01*
D02*
G37*
G36*
X286005Y45470D02*
X285260Y45800D01*
Y46400D01*
X286005Y46730D01*
Y45470D01*
D02*
G37*
G36*
X196247Y46031D02*
X195993Y45339D01*
X195201Y46131D01*
X195893Y46384D01*
X196247Y46031D01*
D02*
G37*
G36*
X213685Y44531D02*
X213041Y44255D01*
X212617Y44679D01*
X212893Y45323D01*
X213685Y44531D01*
D02*
G37*
G36*
X286037Y39100D02*
Y38500D01*
X285291Y38170D01*
Y39430D01*
X286037Y39100D01*
D02*
G37*
G36*
X187375Y118052D02*
Y107749D01*
X187362Y107083D01*
X187364Y107073D01*
X187329Y106899D01*
X187469Y106197D01*
X187867Y105602D01*
X188462Y105204D01*
X189165Y105064D01*
X189702Y105171D01*
X189980Y104755D01*
X189793Y104475D01*
X189599Y103500D01*
X189793Y102524D01*
X190346Y101698D01*
X191173Y101145D01*
X192148Y100951D01*
X193123Y101145D01*
X193584Y101453D01*
X194025Y101217D01*
Y87883D01*
X193527Y87834D01*
X193388Y88533D01*
X192991Y89128D01*
X192395Y89526D01*
X191693Y89666D01*
X190991Y89526D01*
X190395Y89128D01*
X189997Y88533D01*
X189858Y87831D01*
X189997Y87128D01*
X190395Y86533D01*
X190991Y86135D01*
X191693Y85996D01*
X192395Y86135D01*
X192991Y86533D01*
X193388Y87128D01*
X193527Y87827D01*
X194025Y87779D01*
Y60883D01*
X193527Y60834D01*
X193388Y61533D01*
X192991Y62128D01*
X192395Y62526D01*
X191693Y62666D01*
X190991Y62526D01*
X190395Y62128D01*
X189997Y61533D01*
X189858Y60831D01*
X189997Y60128D01*
X190395Y59533D01*
X190991Y59135D01*
X191693Y58995D01*
X192395Y59135D01*
X192991Y59533D01*
X193388Y60128D01*
X193527Y60827D01*
X194025Y60778D01*
Y51965D01*
X193249Y51189D01*
X192751Y51238D01*
X192491Y51628D01*
X191895Y52026D01*
X191193Y52166D01*
X190491Y52026D01*
X189895Y51628D01*
X189497Y51033D01*
X189358Y50331D01*
X189497Y49628D01*
X189895Y49033D01*
X190427Y48678D01*
X190358Y48331D01*
X190497Y47628D01*
X190895Y47033D01*
X191491Y46635D01*
X191913Y46551D01*
X191997Y46128D01*
X192395Y45533D01*
X192991Y45135D01*
X193413Y45051D01*
X193497Y44628D01*
X193895Y44033D01*
X194491Y43635D01*
X195193Y43495D01*
X195193Y43495D01*
X195193Y43495D01*
X195460Y43317D01*
X195497Y43128D01*
X195895Y42533D01*
X196491Y42135D01*
X196732Y42087D01*
X196854Y41472D01*
X197252Y40876D01*
X197847Y40479D01*
X198141Y40420D01*
X198249Y39880D01*
X198647Y39284D01*
X199242Y38887D01*
X199796Y38776D01*
X199988Y38314D01*
X199834Y38085D01*
X199695Y37383D01*
X199834Y36680D01*
X200232Y36085D01*
X200828Y35687D01*
X201530Y35547D01*
X201530Y35547D01*
X201530Y35547D01*
X201566Y35523D01*
X201634Y35180D01*
X202032Y34585D01*
X202628Y34187D01*
X203330Y34047D01*
X203330Y34047D01*
X203330Y34047D01*
X203458Y33961D01*
X203534Y33580D01*
X203932Y32985D01*
X204528Y32587D01*
X204721Y32549D01*
X204834Y31980D01*
X205232Y31385D01*
X205828Y30987D01*
X206354Y30882D01*
X206434Y30480D01*
X206832Y29885D01*
X206917Y29458D01*
X206734Y29185D01*
X206595Y28483D01*
X206734Y27780D01*
X207132Y27185D01*
X207154Y26960D01*
X203850Y23656D01*
X193671D01*
X193528Y23831D01*
X193388Y24533D01*
X193148Y24894D01*
X193388Y25254D01*
X193528Y25957D01*
X193432Y26441D01*
X193891Y26748D01*
X194289Y27343D01*
X194428Y28046D01*
X194289Y28748D01*
X193891Y29343D01*
X193295Y29741D01*
X192593Y29881D01*
X191891Y29741D01*
X191536Y29505D01*
X191139Y29320D01*
X189006D01*
X185839Y32487D01*
Y117170D01*
X186913Y118244D01*
X187375Y118052D01*
D02*
G37*
G36*
X209484Y29183D02*
X209230Y28491D01*
X208438Y29283D01*
X209130Y29536D01*
X209484Y29183D01*
D02*
G37*
G36*
X221577Y86050D02*
X220630Y86100D01*
Y88100D01*
X221577Y88150D01*
Y86050D01*
D02*
G37*
G36*
X265093Y78762D02*
X264493D01*
X264233Y79412D01*
X265353D01*
X265093Y78762D01*
D02*
G37*
G36*
X265353Y80555D02*
X264233D01*
X264543Y81223D01*
X265043D01*
X265353Y80555D01*
D02*
G37*
G36*
X275639Y91600D02*
X274832Y91330D01*
X274478Y91684D01*
X274748Y92491D01*
X275639Y91600D01*
D02*
G37*
G36*
X43211Y26684D02*
Y26083D01*
X42279Y25613D01*
Y27154D01*
X43211Y26684D01*
D02*
G37*
G36*
X222737Y95300D02*
X221648Y94211D01*
X221347Y95247D01*
X221701Y95601D01*
X222737Y95300D01*
D02*
G37*
G36*
X192022Y27486D02*
X191353Y27796D01*
Y28296D01*
X192022Y28606D01*
Y27486D01*
D02*
G37*
G36*
X122334Y91974D02*
X121650Y91720D01*
X121296Y92074D01*
X121550Y92758D01*
X122334Y91974D01*
D02*
G37*
G36*
X271348Y28111D02*
X270748D01*
X270418Y28857D01*
X271678D01*
X271348Y28111D01*
D02*
G37*
G36*
X206283Y34983D02*
X206030Y34291D01*
X205238Y35083D01*
X205930Y35336D01*
X206283Y34983D01*
D02*
G37*
G36*
X270305Y33470D02*
X269543Y33850D01*
Y34350D01*
X270305Y34730D01*
Y33470D01*
D02*
G37*
G36*
X58750Y34920D02*
X58185Y34354D01*
X57287Y34728D01*
X58376Y35817D01*
X58750Y34920D01*
D02*
G37*
G36*
X319948Y62212D02*
X319348D01*
X319018Y62957D01*
X320278D01*
X319948Y62212D01*
D02*
G37*
G36*
X274739Y34900D02*
X273978Y34606D01*
X273554Y35030D01*
X273848Y35791D01*
X274739Y34900D01*
D02*
G37*
G36*
X214589Y72644D02*
X215565Y72450D01*
X216019Y72541D01*
X216373Y72187D01*
X216358Y72110D01*
X216497Y71408D01*
X216895Y70812D01*
X216982Y70755D01*
X217031Y70257D01*
X214511Y67737D01*
X214224Y67307D01*
X214123Y66800D01*
Y51549D01*
X211803Y49229D01*
X211441Y49074D01*
X211311Y49048D01*
X210924Y49365D01*
Y72283D01*
X211311Y72600D01*
X212065Y72450D01*
X213040Y72644D01*
X213815Y73162D01*
X214589Y72644D01*
D02*
G37*
G36*
X57733Y33800D02*
Y33000D01*
X56834Y32630D01*
Y34170D01*
X57733Y33800D01*
D02*
G37*
G36*
X214153Y79600D02*
Y78600D01*
X213619Y78540D01*
Y79660D01*
X214153Y79600D01*
D02*
G37*
G36*
X207583Y33383D02*
X207330Y32691D01*
X206538Y33483D01*
X207230Y33736D01*
X207583Y33383D01*
D02*
G37*
G36*
X218753Y72682D02*
X217633D01*
X217693Y73215D01*
X218693D01*
X218753Y72682D01*
D02*
G37*
G36*
X175855Y73220D02*
Y61779D01*
X175547Y61526D01*
X175077Y61695D01*
X174996Y62102D01*
X174598Y62698D01*
X174002Y63096D01*
X173300Y63235D01*
X172982Y63172D01*
X172698Y63598D01*
X172102Y63996D01*
X171400Y64135D01*
X170698Y63996D01*
X170102Y63598D01*
X169704Y63002D01*
X169565Y62300D01*
X169704Y61598D01*
X170102Y61002D01*
X170698Y60604D01*
X171400Y60465D01*
X171718Y60528D01*
X172002Y60102D01*
X172598Y59704D01*
X173291Y59566D01*
X173404Y58998D01*
X173802Y58402D01*
X174398Y58004D01*
X175100Y57865D01*
X175469Y57938D01*
X175855Y57621D01*
Y36111D01*
X168179Y28435D01*
X167847Y28572D01*
X167717Y28659D01*
Y70778D01*
X168179Y70969D01*
X168508Y70641D01*
X168508Y70641D01*
X168904Y70376D01*
X169169Y70199D01*
X169950Y70043D01*
X172330D01*
X173110Y70199D01*
X173772Y70641D01*
X174214Y71302D01*
X174369Y72083D01*
X174214Y72863D01*
X174116Y73009D01*
X174394Y73425D01*
X174650Y73374D01*
X175469Y73537D01*
X175855Y73220D01*
D02*
G37*
G36*
X245122Y161271D02*
X244471Y161531D01*
Y162131D01*
X245122Y162391D01*
Y161271D01*
D02*
G37*
G36*
X157514Y9122D02*
X157089Y8697D01*
X156446Y8973D01*
X157238Y9765D01*
X157514Y9122D01*
D02*
G37*
G36*
X146898Y161060D02*
X146398D01*
X146088Y161729D01*
X147208D01*
X146898Y161060D01*
D02*
G37*
G36*
X155988Y160050D02*
Y159550D01*
X155319Y159240D01*
Y160360D01*
X155988Y160050D01*
D02*
G37*
G36*
X144404Y161062D02*
X143904Y161058D01*
X143592Y161725D01*
X144712Y161733D01*
X144404Y161062D01*
D02*
G37*
G36*
X155988Y163150D02*
Y162650D01*
X155319Y162340D01*
Y163460D01*
X155988Y163150D01*
D02*
G37*
G36*
X201304Y170352D02*
X201165Y169649D01*
X201304Y168947D01*
X201554Y168574D01*
X201304Y168201D01*
X201221Y167784D01*
X201070Y167372D01*
X200472Y166774D01*
X198402D01*
X197914Y166677D01*
X197501Y166400D01*
X196144Y165044D01*
X195666Y165189D01*
X195577Y165636D01*
X195301Y166050D01*
X192725Y168625D01*
X192533Y168754D01*
X192545Y168772D01*
X192685Y169474D01*
X192545Y170176D01*
X192147Y170772D01*
X192154Y170792D01*
X200645D01*
X201304Y170352D01*
D02*
G37*
G36*
X152445Y165799D02*
X151765Y165546D01*
X151411Y165899D01*
X151665Y166579D01*
X152445Y165799D01*
D02*
G37*
G36*
X202992Y164549D02*
X202300Y164296D01*
X201946Y164649D01*
X202200Y165341D01*
X202992Y164549D01*
D02*
G37*
G36*
X192089Y163324D02*
Y162824D01*
X191421Y162514D01*
Y163634D01*
X192089Y163324D01*
D02*
G37*
G36*
X166505Y164349D02*
Y163849D01*
X165836Y163539D01*
Y164659D01*
X166505Y164349D01*
D02*
G37*
G36*
X165566Y10973D02*
X165416Y10373D01*
X164488Y10393D01*
X165108Y11253D01*
X165566Y10973D01*
D02*
G37*
G36*
X200978Y155714D02*
X200310Y156024D01*
Y156524D01*
X200978Y156834D01*
Y155714D01*
D02*
G37*
G36*
X155988Y155897D02*
Y155397D01*
X155319Y155087D01*
Y156207D01*
X155988Y155897D01*
D02*
G37*
G36*
X188278Y153964D02*
X187610Y154274D01*
Y154774D01*
X188278Y155084D01*
Y153964D01*
D02*
G37*
G36*
X192089Y155624D02*
Y155124D01*
X191421Y154814D01*
Y155934D01*
X192089Y155624D01*
D02*
G37*
G36*
X140298Y156360D02*
X139798D01*
X139488Y157029D01*
X140608D01*
X140298Y156360D01*
D02*
G37*
G36*
X188278Y157614D02*
X187610Y157924D01*
Y158424D01*
X188278Y158734D01*
Y157614D01*
D02*
G37*
G36*
X200978Y157914D02*
X200310Y158224D01*
Y158724D01*
X200978Y159034D01*
Y157914D01*
D02*
G37*
G36*
X155958Y158050D02*
X156009Y157550D01*
X155370Y157221D01*
X155263Y158336D01*
X155958Y158050D01*
D02*
G37*
G36*
X159089Y10522D02*
X158664Y10097D01*
X158021Y10373D01*
X158813Y11165D01*
X159089Y10522D01*
D02*
G37*
G36*
X192050Y157724D02*
Y157224D01*
X191499Y157007D01*
Y157941D01*
X192050Y157724D01*
D02*
G37*
G36*
X139748Y172950D02*
Y172450D01*
X139198Y172233D01*
Y173167D01*
X139748Y172950D01*
D02*
G37*
G36*
X138314Y5683D02*
Y5083D01*
X137664Y4823D01*
Y5943D01*
X138314Y5683D01*
D02*
G37*
G36*
X160069Y5332D02*
X159645Y4907D01*
X159001Y5184D01*
X159793Y5976D01*
X160069Y5332D01*
D02*
G37*
G36*
X203560Y170220D02*
X202440D01*
X202750Y170889D01*
X203250D01*
X203560Y170220D01*
D02*
G37*
G36*
X151893Y172160D02*
D01*
Y171040D01*
X151225Y171350D01*
Y171350D01*
X151225D01*
X151225Y171850D01*
X151893Y172160D01*
Y172160D01*
D02*
G37*
G36*
X73303Y175274D02*
X73050Y174582D01*
X72258Y175374D01*
X72950Y175628D01*
X73303Y175274D01*
D02*
G37*
G36*
X319189Y180449D02*
X318650Y180137D01*
X318085Y180702D01*
X318397Y181241D01*
X319189Y180449D01*
D02*
G37*
G36*
X346322Y187295D02*
X348496Y186773D01*
X350560Y185918D01*
X352466Y184750D01*
X354165Y183299D01*
X355616Y181599D01*
X356784Y179694D01*
X357639Y177629D01*
X358161Y175456D01*
X358330Y173312D01*
X358313Y173228D01*
Y151181D01*
X358318Y151158D01*
X358194Y150861D01*
X357897Y150738D01*
X357874Y150742D01*
D01*
X347665D01*
Y152799D01*
X334949D01*
Y169799D01*
X318949D01*
Y152579D01*
X320866D01*
X321253Y152502D01*
X321565Y152246D01*
Y112999D01*
X326775D01*
X327441Y112723D01*
X328346Y112604D01*
Y112604D01*
X340094D01*
Y105000D01*
X340242Y105001D01*
X340597Y104648D01*
Y83465D01*
X340596D01*
X340715Y82559D01*
X341065Y81715D01*
X341621Y80991D01*
X342345Y80435D01*
X343189Y80085D01*
X344094Y79966D01*
Y79967D01*
X357842D01*
X357874Y79960D01*
X357874Y79960D01*
X358194Y79842D01*
X358317Y79546D01*
X358313Y79528D01*
Y67099D01*
X347265D01*
X347165Y66999D01*
X347165Y35699D01*
X358313D01*
Y15748D01*
X358330Y15664D01*
X358161Y13520D01*
X357639Y11347D01*
X356784Y9282D01*
X355616Y7377D01*
X354165Y5677D01*
X352466Y4226D01*
X350560Y3058D01*
X348496Y2203D01*
X346322Y1681D01*
X344178Y1513D01*
X344094Y1529D01*
X327559D01*
X327536Y1525D01*
X327239Y1648D01*
X327115Y1946D01*
X327120Y1969D01*
Y4331D01*
X327120D01*
X327001Y5236D01*
X326652Y6080D01*
X326096Y6804D01*
X325371Y7360D01*
X324528Y7710D01*
X323622Y7829D01*
Y7829D01*
X272835D01*
Y7829D01*
X271929Y7710D01*
X271085Y7360D01*
X270361Y6804D01*
X269805Y6080D01*
X269455Y5236D01*
X269336Y4331D01*
X269337D01*
Y2118D01*
X269326Y2108D01*
X269326D01*
X269326Y2108D01*
X269289Y1922D01*
X269151Y1715D01*
X268944Y1577D01*
X268701Y1529D01*
X268644Y1540D01*
Y1540D01*
X268603Y1510D01*
X268504Y1529D01*
X15748D01*
X15664Y1513D01*
X13520Y1681D01*
X11347Y2203D01*
X9282Y3058D01*
X7377Y4226D01*
X5677Y5677D01*
X4226Y7377D01*
X3058Y9282D01*
X2203Y11347D01*
X1681Y13520D01*
X1513Y15664D01*
X1529Y15748D01*
Y38182D01*
X1660Y38497D01*
X2007Y38641D01*
X2034Y38636D01*
D01*
X2073Y38628D01*
X11811D01*
X11811Y38628D01*
Y38627D01*
D01*
D01*
Y38627D01*
X11811D01*
X11811D01*
X11811D01*
X11811Y38627D01*
X11811Y38628D01*
D01*
X12717Y38747D01*
X13560Y39096D01*
X14285Y39652D01*
X14841Y40377D01*
X15190Y41221D01*
X15310Y42126D01*
X15309D01*
Y42126D01*
X15309Y42126D01*
Y63540D01*
X15311Y63552D01*
X15309Y63565D01*
Y63606D01*
X15293Y63687D01*
X15190Y64472D01*
X14835Y65328D01*
X14270Y66064D01*
X13535Y66628D01*
X12678Y66983D01*
X11889Y67087D01*
X11811Y67103D01*
X2043D01*
X1963Y67119D01*
Y67119D01*
X1951Y67110D01*
X1647Y67236D01*
X1525Y67530D01*
X1529Y67552D01*
Y108315D01*
X1540Y108325D01*
X1540D01*
X1540Y108325D01*
X1577Y108511D01*
X1715Y108718D01*
X1922Y108856D01*
X2165Y108904D01*
X2222Y108893D01*
Y108893D01*
X2263Y108923D01*
X2362Y108904D01*
X12205D01*
X12444Y108951D01*
X12865Y109007D01*
X13523Y109279D01*
X13801Y108863D01*
X12755Y107818D01*
X12700Y107796D01*
X12198Y107696D01*
X11602Y107298D01*
X11204Y106702D01*
X11065Y106000D01*
X11204Y105298D01*
X11602Y104702D01*
X12198Y104304D01*
X12900Y104165D01*
X13602Y104304D01*
X14198Y104702D01*
X14596Y105298D01*
X14604Y105341D01*
X14835Y105572D01*
D01*
X14835Y105572D01*
X21681Y112419D01*
X22013Y112915D01*
X22013D01*
D01*
X22395Y112785D01*
X22395Y112785D01*
Y112785D01*
X22991Y112387D01*
X23693Y112247D01*
X24395Y112387D01*
X24991Y112785D01*
X25389Y113380D01*
X25528Y114083D01*
X25400Y114727D01*
X25949Y115094D01*
X26347Y115690D01*
X26487Y116392D01*
X26347Y117095D01*
X25949Y117690D01*
X25354Y118088D01*
X24652Y118227D01*
X23949Y118088D01*
X23354Y117690D01*
X22956Y117095D01*
X22816Y116392D01*
X22931Y115817D01*
X22529Y115519D01*
X22129Y115733D01*
Y132865D01*
X22627Y132914D01*
X22666Y132720D01*
X23108Y132058D01*
X30516Y124650D01*
X30371Y124171D01*
X29949Y124088D01*
X29354Y123690D01*
X28956Y123094D01*
X28816Y122392D01*
X28956Y121690D01*
X29354Y121095D01*
X29949Y120697D01*
X30652Y120557D01*
X30812Y120425D01*
Y116395D01*
X23124Y108707D01*
X22626Y108756D01*
X22398Y109098D01*
X21802Y109496D01*
X21100Y109635D01*
X20398Y109496D01*
X19802Y109098D01*
X19404Y108502D01*
X19265Y107800D01*
X19404Y107098D01*
X19802Y106502D01*
X20398Y106104D01*
X20746Y106035D01*
X20651Y105559D01*
X20609Y105347D01*
Y63200D01*
X20609Y63200D01*
X20609D01*
X20764Y62420D01*
X21206Y61758D01*
X37322Y45642D01*
X37487Y45459D01*
X37593Y44925D01*
X38146Y44098D01*
X38973Y43545D01*
X39948Y43351D01*
X40924Y43545D01*
X41750Y44098D01*
X42303Y44925D01*
X42497Y45900D01*
X42303Y46876D01*
X41750Y47702D01*
X40924Y48255D01*
X40389Y48361D01*
X40206Y48526D01*
X26468Y62264D01*
X26524Y62445D01*
X27350Y62998D01*
X27903Y63824D01*
X28097Y64800D01*
X27903Y65776D01*
X27350Y66602D01*
X26524Y67155D01*
X25548Y67349D01*
X25074Y67255D01*
X24687Y67572D01*
Y104503D01*
X34294Y114109D01*
X34736Y114770D01*
X34891Y115551D01*
X34891Y115551D01*
X34891Y115551D01*
Y115551D01*
Y125198D01*
X34736Y125978D01*
X34294Y126640D01*
X26589Y134345D01*
Y153429D01*
X28844Y155685D01*
X31624D01*
X32404Y155840D01*
X33066Y156282D01*
X33066Y156282D01*
X33066Y156282D01*
X40431Y163647D01*
X50778D01*
X51014Y163206D01*
X50871Y162993D01*
X50709Y162174D01*
X50871Y161355D01*
X51336Y160660D01*
X52030Y160196D01*
X52850Y160033D01*
X53669Y160196D01*
X54364Y160660D01*
X54828Y161355D01*
X54991Y162174D01*
X54828Y162993D01*
X54686Y163206D01*
X54921Y163647D01*
X74117D01*
X77126Y160638D01*
X77038Y160506D01*
X76844Y159531D01*
X77038Y158555D01*
X77591Y157728D01*
X78417Y157176D01*
X79393Y156982D01*
X80368Y157176D01*
X81195Y157728D01*
X81748Y158555D01*
X81942Y159531D01*
X81748Y160506D01*
X81432Y160979D01*
Y161255D01*
X81338Y161728D01*
X81779Y161963D01*
X82095Y161647D01*
X82931Y161006D01*
X83904Y160603D01*
X84948Y160466D01*
X85992Y160603D01*
X86965Y161006D01*
X87801Y161647D01*
X88442Y162483D01*
X88845Y163456D01*
X88983Y164500D01*
X88845Y165544D01*
X88442Y166517D01*
X87801Y167353D01*
X81927Y173227D01*
X81091Y173868D01*
X80118Y174271D01*
X79074Y174408D01*
Y174546D01*
X79428Y174899D01*
X86230D01*
X86548Y174513D01*
X86401Y173774D01*
X86595Y172799D01*
X87147Y171972D01*
X87974Y171419D01*
X87982Y171417D01*
X88260Y171002D01*
X88257Y170988D01*
X88451Y170013D01*
X89004Y169186D01*
X89831Y168633D01*
X90806Y168439D01*
X91781Y168633D01*
X92608Y169186D01*
X93161Y170013D01*
X93355Y170988D01*
X93161Y171964D01*
X92608Y172791D01*
X91781Y173343D01*
X91427Y173414D01*
X91499Y173774D01*
X91456Y173989D01*
X91897Y174224D01*
X101755Y164366D01*
Y95283D01*
X101755Y95283D01*
X101755D01*
X101852Y94795D01*
X102129Y94381D01*
X112855Y83655D01*
Y46511D01*
X112469Y46194D01*
X112350Y46218D01*
X111647Y46078D01*
X111052Y45680D01*
X110654Y45085D01*
X110514Y44383D01*
X110654Y43680D01*
X111052Y43085D01*
X111647Y42687D01*
X112350Y42547D01*
X112469Y42571D01*
X112855Y42254D01*
Y24037D01*
X112671Y23639D01*
X112434Y23285D01*
X112295Y22583D01*
X112431Y21897D01*
X112114Y21510D01*
X76634D01*
X76489Y21989D01*
X77250Y22498D01*
X77803Y23325D01*
X77997Y24300D01*
X77803Y25275D01*
X77250Y26102D01*
X76424Y26655D01*
X75448Y26849D01*
X74473Y26655D01*
X73848Y26238D01*
X73224Y26655D01*
X72248Y26849D01*
X71273Y26655D01*
X70446Y26102D01*
X70094Y25576D01*
X69596Y25527D01*
X69596D01*
X69596D01*
X59606Y35517D01*
X59364Y36098D01*
X59254Y36648D01*
X58790Y37342D01*
X58096Y37806D01*
X57276Y37969D01*
X56457Y37806D01*
X55762Y37342D01*
X55298Y36648D01*
X55135Y35828D01*
X55225Y35376D01*
X54534Y34914D01*
X54070Y34219D01*
X53907Y33400D01*
X54070Y32581D01*
X54534Y31886D01*
X55057Y31537D01*
X54912Y31058D01*
X32313D01*
X32313Y31058D01*
X31767Y30950D01*
X31304Y30640D01*
X31304Y30640D01*
X27391Y26727D01*
X27081Y26264D01*
X26973Y25717D01*
X26973Y25717D01*
Y12266D01*
X26733Y11684D01*
X26422Y11219D01*
X26259Y10399D01*
X26422Y9580D01*
X26886Y8885D01*
X27581Y8421D01*
X28400Y8258D01*
X29219Y8421D01*
X29914Y8885D01*
X30000Y9014D01*
X30500D01*
X30586Y8885D01*
X31281Y8421D01*
X32100Y8258D01*
X32919Y8421D01*
X33614Y8885D01*
X34078Y9580D01*
X34241Y10399D01*
X34078Y11219D01*
X33614Y11913D01*
X32919Y12377D01*
X32370Y12487D01*
X31789Y12729D01*
X31027Y13490D01*
Y24629D01*
X33402Y27003D01*
X39081D01*
X39398Y26617D01*
X39352Y26384D01*
X39515Y25564D01*
X39979Y24870D01*
X40674Y24405D01*
X41493Y24242D01*
X42312Y24405D01*
X42820Y24745D01*
X43442Y25058D01*
X48227D01*
X48355Y24750D01*
X48115Y24311D01*
X44930Y23731D01*
X44915Y23725D01*
X44317Y23699D01*
X43226Y23355D01*
X42261Y22740D01*
X41488Y21896D01*
X40959Y20881D01*
X40712Y19764D01*
X40761Y18621D01*
X41105Y17529D01*
X41720Y16564D01*
X42564Y15791D01*
X43579Y15262D01*
X44697Y15015D01*
X45840Y15065D01*
X46931Y15409D01*
X47897Y16024D01*
X48670Y16867D01*
X49198Y17883D01*
X49446Y19000D01*
X49434Y19267D01*
X50012Y22440D01*
X51629Y24057D01*
X57445D01*
X57762Y23671D01*
X57609Y22900D01*
X57764Y22120D01*
X58206Y21458D01*
X68423Y11241D01*
X69085Y10799D01*
X69865Y10644D01*
X137370D01*
X137606Y10203D01*
X137404Y9901D01*
X137265Y9199D01*
X137404Y8497D01*
X137802Y7902D01*
X138398Y7504D01*
X139100Y7364D01*
X139802Y7504D01*
X140398Y7902D01*
X140796Y8497D01*
X140935Y9199D01*
X140796Y9901D01*
X140398Y10497D01*
X140442Y10644D01*
X141566D01*
X142132Y10756D01*
X142502Y10202D01*
X143098Y9804D01*
X143800Y9664D01*
X144502Y9804D01*
X145098Y10202D01*
X145100Y10205D01*
X145600D01*
X145602Y10202D01*
X146198Y9804D01*
X146900Y9664D01*
X147602Y9804D01*
X147964Y10045D01*
X148281Y9659D01*
X145331Y6709D01*
X138496D01*
X138130Y6855D01*
X137795Y7079D01*
X137093Y7219D01*
X136455Y7092D01*
X136319Y7775D01*
X135767Y8602D01*
X134940Y9154D01*
X133965Y9348D01*
X132989Y9154D01*
X132162Y8602D01*
X131610Y7775D01*
X131416Y6799D01*
X131610Y5824D01*
X132162Y4997D01*
X132989Y4444D01*
X133965Y4250D01*
X134940Y4444D01*
X135334Y4707D01*
X135397Y4681D01*
X135795Y4086D01*
X136391Y3688D01*
X137093Y3548D01*
X137795Y3688D01*
X138130Y3912D01*
X138496Y4058D01*
X145880D01*
X146388Y4159D01*
X146818Y4446D01*
X146818Y4446D01*
X146818Y4446D01*
X156329Y13958D01*
X178044D01*
X178235Y13496D01*
X176738Y11999D01*
X166695D01*
X166115Y12114D01*
X165984Y12201D01*
X165632Y12437D01*
X165609Y12471D01*
X165014Y12869D01*
X164312Y13009D01*
X163609Y12869D01*
X163014Y12471D01*
X162616Y11875D01*
X162476Y11173D01*
X162333Y10999D01*
X160062D01*
X159942Y11118D01*
X159787Y11480D01*
X159708Y11875D01*
X159310Y12471D01*
X158715Y12869D01*
X158013Y13009D01*
X157310Y12869D01*
X156715Y12471D01*
X156317Y11875D01*
X156257Y11573D01*
X155735Y11469D01*
X155140Y11071D01*
X154742Y10475D01*
X154682Y10172D01*
X154160Y10069D01*
X153565Y9671D01*
X153167Y9076D01*
X153027Y8373D01*
X153167Y7671D01*
X153565Y7075D01*
X154160Y6678D01*
X154863Y6538D01*
X154908Y6547D01*
X155055Y6449D01*
X155563Y6348D01*
X156859D01*
X157158Y5984D01*
X157297Y5281D01*
X157695Y4686D01*
X158291Y4288D01*
X158686Y4209D01*
X159048Y4054D01*
X159439Y3663D01*
X159869Y3375D01*
X160376Y3274D01*
X178285D01*
X178792Y3375D01*
X179222Y3663D01*
X179222Y3663D01*
X179222Y3663D01*
X185767Y10207D01*
X196998D01*
X197315Y9821D01*
X197311Y9800D01*
X197458Y9059D01*
X197878Y8430D01*
X198507Y8010D01*
X199248Y7863D01*
X199989Y8010D01*
X200618Y8430D01*
X201038Y9059D01*
X201185Y9800D01*
X201181Y9821D01*
X201498Y10207D01*
X217613D01*
X217930Y9821D01*
X217744Y8884D01*
X217938Y7908D01*
X218491Y7081D01*
X219318Y6528D01*
X220293Y6335D01*
X221268Y6528D01*
X222095Y7081D01*
X222648Y7908D01*
X222842Y8884D01*
X222648Y9859D01*
X222834Y10207D01*
X273481D01*
X273988Y10308D01*
X274418Y10595D01*
X274418Y10595D01*
X274418Y10595D01*
X282885Y19063D01*
X283173Y19493D01*
X283274Y20000D01*
X283274Y20000D01*
X283274Y20000D01*
Y20000D01*
Y20039D01*
X283548Y20265D01*
X284250Y20404D01*
X284846Y20802D01*
X285244Y21398D01*
X285383Y22100D01*
X285244Y22802D01*
X284846Y23398D01*
X284250Y23796D01*
X283548Y23935D01*
X283274Y24161D01*
Y26890D01*
X283715Y27126D01*
X284046Y26904D01*
X284748Y26765D01*
X285450Y26904D01*
X286046Y27302D01*
X286444Y27898D01*
X286583Y28600D01*
X286444Y29302D01*
X286046Y29898D01*
X285450Y30296D01*
X284748Y30435D01*
X284046Y30296D01*
X283715Y30074D01*
X283274Y30310D01*
Y36903D01*
X283715Y37139D01*
X283907Y37010D01*
X284648Y36863D01*
X285389Y37010D01*
X285781Y37272D01*
X286239Y37475D01*
X298565D01*
X299073Y37575D01*
X299147Y37625D01*
X299615Y37450D01*
X299629Y37399D01*
X299629Y37399D01*
X299629D01*
X299769Y36697D01*
X299951Y36424D01*
X299869Y36301D01*
X299729Y35599D01*
X299869Y34897D01*
X300267Y34301D01*
X300862Y33904D01*
X301565Y33764D01*
X302267Y33904D01*
X302862Y34301D01*
X303260Y34897D01*
X303400Y35599D01*
X303260Y36301D01*
X303078Y36574D01*
X303160Y36697D01*
X303300Y37399D01*
X303160Y38102D01*
X302762Y38697D01*
X302167Y39095D01*
X301465Y39235D01*
X301367Y39727D01*
X305235Y43595D01*
X305235Y43595D01*
X305235Y43595D01*
X305523Y44025D01*
X305624Y44533D01*
Y55201D01*
X306697Y56274D01*
X318248D01*
X318755Y56375D01*
X319185Y56663D01*
X319185Y56663D01*
X319185Y56663D01*
X320585Y58063D01*
X320802Y58387D01*
X321104Y58447D01*
X321452Y58378D01*
X321562Y58304D01*
X322265Y58164D01*
X322967Y58304D01*
X323562Y58701D01*
X323960Y59297D01*
X324100Y59999D01*
X323960Y60702D01*
X323694Y61099D01*
X323960Y61497D01*
X324100Y62199D01*
X323960Y62902D01*
X323562Y63497D01*
X322967Y63895D01*
X322265Y64034D01*
X321562Y63895D01*
X321523Y63911D01*
X321438Y64341D01*
X321018Y64970D01*
X320389Y65390D01*
X319648Y65537D01*
X318907Y65390D01*
X318278Y64970D01*
X317858Y64341D01*
X317711Y63600D01*
X317858Y62859D01*
X318120Y62467D01*
X318323Y62009D01*
Y59549D01*
X317699Y58925D01*
X306148D01*
X306148Y58925D01*
X305641Y58825D01*
X305211Y58537D01*
X303361Y56687D01*
X303074Y56257D01*
X302973Y55750D01*
Y45082D01*
X298016Y40126D01*
X286239D01*
X285781Y40328D01*
X285389Y40590D01*
X284648Y40737D01*
X283907Y40590D01*
X283715Y40461D01*
X283274Y40697D01*
Y43151D01*
X284897Y44774D01*
X285057D01*
X285515Y44572D01*
X285907Y44310D01*
X286648Y44163D01*
X287389Y44310D01*
X288018Y44730D01*
X288438Y45359D01*
X288585Y46100D01*
X288438Y46841D01*
X288018Y47470D01*
X287823Y47600D01*
Y48100D01*
X288018Y48230D01*
X288438Y48859D01*
X288585Y49600D01*
X288438Y50341D01*
X288018Y50970D01*
X287389Y51390D01*
X286648Y51537D01*
X285907Y51390D01*
X285515Y51128D01*
X285057Y50925D01*
X282848D01*
X282341Y50825D01*
X281911Y50537D01*
X281735Y50362D01*
X281274Y50553D01*
Y53851D01*
X282697Y55274D01*
X285057D01*
X285515Y55072D01*
X285907Y54810D01*
X286648Y54663D01*
X287389Y54810D01*
X288018Y55230D01*
X288438Y55859D01*
X288585Y56600D01*
X288438Y57341D01*
X288018Y57970D01*
X287823Y58100D01*
Y58600D01*
X288018Y58730D01*
X288438Y59359D01*
X288585Y60100D01*
X288438Y60841D01*
X288051Y61420D01*
X288063Y61449D01*
X288758Y61913D01*
X289222Y62608D01*
X289385Y63427D01*
X289222Y64247D01*
X288758Y64941D01*
X288063Y65405D01*
X287244Y65568D01*
X286425Y65405D01*
X285730Y64941D01*
X285266Y64247D01*
X285103Y63427D01*
X285266Y62608D01*
X285612Y62090D01*
X285473Y61609D01*
X285057Y61426D01*
X281848D01*
X281341Y61325D01*
X280911Y61037D01*
X278011Y58137D01*
X277724Y57707D01*
X277623Y57200D01*
Y40421D01*
X277189Y40190D01*
X276448Y40337D01*
X275707Y40190D01*
X275078Y39770D01*
X274658Y39141D01*
X274511Y38400D01*
X274578Y38064D01*
X274300Y37648D01*
X274007Y37590D01*
X273378Y37170D01*
X272958Y36541D01*
X272866Y36079D01*
X272711Y35677D01*
X272234Y35526D01*
X271689Y35890D01*
X270948Y36037D01*
X270207Y35890D01*
X269796Y35615D01*
X269313Y35375D01*
X248841D01*
X248606Y35816D01*
X248660Y35897D01*
X248800Y36599D01*
X248660Y37301D01*
X248262Y37897D01*
X247667Y38295D01*
X246965Y38434D01*
X246262Y38295D01*
X245667Y37897D01*
X245269Y37301D01*
X245186Y36884D01*
X245024Y36441D01*
X244787Y36087D01*
X244690Y35599D01*
Y35321D01*
X244471Y35278D01*
X244058Y35001D01*
X241180Y32124D01*
X240718Y32315D01*
Y40034D01*
X265730Y65046D01*
X266018Y65476D01*
X266118Y65983D01*
Y78580D01*
X266265Y78946D01*
X266489Y79281D01*
X266628Y79984D01*
X266489Y80686D01*
X266252Y81040D01*
X266169Y81219D01*
X275393Y90443D01*
X275905Y90614D01*
X276389Y90710D01*
X277018Y91130D01*
X277438Y91759D01*
X277585Y92500D01*
X277438Y93241D01*
X277018Y93870D01*
X276523Y94200D01*
Y94291D01*
X278301Y96068D01*
X278459Y96174D01*
X280669Y98384D01*
X280669Y98384D01*
X280979Y98848D01*
X281027Y99090D01*
X281250Y99045D01*
X281991Y99193D01*
X282619Y99613D01*
X283039Y100241D01*
X283187Y100983D01*
X283039Y101724D01*
X282619Y102352D01*
X281991Y102772D01*
X281250Y102920D01*
X281087Y103053D01*
Y105473D01*
X281528Y105709D01*
X282073Y105345D01*
X283048Y105151D01*
X300536D01*
X300682Y104673D01*
X300378Y104470D01*
X299958Y103841D01*
X299811Y103100D01*
X299958Y102359D01*
X300378Y101730D01*
X301007Y101310D01*
X301748Y101163D01*
X302489Y101310D01*
X302839Y101544D01*
X303233Y101673D01*
X306211D01*
X306211Y101673D01*
X306757Y101781D01*
X307220Y102091D01*
X307339Y102209D01*
X307708Y102397D01*
X308121Y102479D01*
X308749Y102899D01*
X309169Y103527D01*
X309317Y104269D01*
X309169Y105010D01*
X309245Y105151D01*
X314448D01*
X315423Y105345D01*
X316250Y105898D01*
X316803Y106725D01*
X316997Y107700D01*
X316803Y108676D01*
X316250Y109502D01*
X315423Y110055D01*
X314448Y110249D01*
X283048D01*
X282073Y110055D01*
X281528Y109691D01*
X281087Y109927D01*
Y114321D01*
X292222Y125455D01*
X300431D01*
X300431Y125455D01*
X300977Y125564D01*
X301440Y125873D01*
X303255Y127688D01*
X303512Y127837D01*
X303850Y127904D01*
X304446Y128302D01*
X304844Y128898D01*
X304911Y129236D01*
X305060Y129493D01*
X306701Y131134D01*
X306746Y131104D01*
X307448Y130965D01*
X308150Y131104D01*
X308746Y131502D01*
X309144Y132098D01*
X309283Y132800D01*
X309144Y133502D01*
X308746Y134098D01*
X308150Y134496D01*
X307448Y134635D01*
X307175Y134859D01*
Y165512D01*
X319486Y177823D01*
X319798D01*
X319798Y177823D01*
X320344Y177931D01*
X320807Y178241D01*
X321639Y179073D01*
X324471D01*
X324759Y178996D01*
X325046Y178804D01*
X325748Y178665D01*
X326450Y178804D01*
X327046Y179202D01*
X327444Y179798D01*
X327583Y180500D01*
X327444Y181202D01*
X327046Y181798D01*
X326450Y182196D01*
X325748Y182335D01*
X325046Y182196D01*
X324759Y182004D01*
X324471Y181927D01*
X321048D01*
X321048Y181927D01*
X320955Y181909D01*
X320892Y181951D01*
Y181951D01*
X320892Y181951D01*
X320495Y182547D01*
X319899Y182944D01*
X319197Y183084D01*
X318495Y182944D01*
X317899Y182547D01*
X317501Y181951D01*
X317434Y181613D01*
X317285Y181356D01*
X315554Y179624D01*
X315075Y179770D01*
X314926Y180519D01*
X314462Y181214D01*
X313767Y181678D01*
X313137Y181804D01*
X312522Y181982D01*
X312406Y182060D01*
X312401Y182055D01*
X312398Y182052D01*
X311249Y183201D01*
X310836Y183477D01*
X310348Y183574D01*
X219776D01*
X218549Y184801D01*
X218136Y185078D01*
X217648Y185175D01*
X150948D01*
X150460Y185078D01*
X150047Y184801D01*
X141471Y176225D01*
X141030Y176461D01*
X141197Y177300D01*
X141003Y178276D01*
X140450Y179102D01*
X140379Y179150D01*
Y179650D01*
X140450Y179698D01*
X141003Y180525D01*
X141197Y181500D01*
X141003Y182475D01*
X140450Y183302D01*
X139623Y183855D01*
X138648Y184049D01*
X137673Y183855D01*
X136846Y183302D01*
X136450D01*
X135624Y183855D01*
X134648Y184049D01*
X133673Y183855D01*
X132846Y183302D01*
X132293Y182475D01*
X132099Y181500D01*
X132293Y180525D01*
X132846Y179698D01*
X132967Y179617D01*
Y179117D01*
X132946Y179102D01*
X132393Y178276D01*
X132199Y177300D01*
X132393Y176324D01*
X132946Y175498D01*
X133773Y174945D01*
X134748Y174751D01*
X135723Y174945D01*
X136550Y175498D01*
X136846D01*
X137673Y174945D01*
X137883Y174903D01*
Y174403D01*
X137846Y174396D01*
X137250Y173998D01*
X136853Y173402D01*
X136713Y172700D01*
X136795Y172287D01*
X136379Y172010D01*
X136250Y172096D01*
X135548Y172235D01*
X134846Y172096D01*
X134250Y171698D01*
X133853Y171102D01*
X133713Y170400D01*
X133770Y170112D01*
X133453Y169726D01*
X111901D01*
X97888Y183740D01*
X97261Y184221D01*
X96531Y184523D01*
X95748Y184626D01*
X88348D01*
X87565Y184523D01*
X86835Y184221D01*
X86208Y183740D01*
X86055Y183540D01*
X85556Y183507D01*
X84881Y184181D01*
X84385Y184513D01*
X83800Y184629D01*
X56700D01*
X56115Y184513D01*
X55619Y184181D01*
X48467Y177029D01*
X31400D01*
X30815Y176913D01*
X30319Y176581D01*
X19519Y165781D01*
X19187Y165285D01*
X19071Y164700D01*
Y114134D01*
X15349Y110412D01*
X14933Y110690D01*
X15206Y111348D01*
X15319Y112205D01*
X15299Y112353D01*
X15309Y112402D01*
Y139961D01*
X15299Y140009D01*
X15319Y140157D01*
X15206Y141014D01*
X14875Y141813D01*
X14349Y142499D01*
X13663Y143025D01*
X12865Y143356D01*
X12444Y143411D01*
X12205Y143458D01*
X2362D01*
X2263Y143439D01*
X2222Y143469D01*
Y143469D01*
X2165Y143458D01*
X1922Y143506D01*
X1715Y143644D01*
X1577Y143851D01*
X1540Y144038D01*
X1540Y144038D01*
X1540D01*
X1529Y144047D01*
Y173228D01*
X1513Y173312D01*
X1681Y175456D01*
X2203Y177629D01*
X3058Y179694D01*
X4226Y181599D01*
X5677Y183299D01*
X7377Y184750D01*
X9282Y185918D01*
X11347Y186773D01*
X13520Y187295D01*
X15664Y187464D01*
X15748Y187447D01*
X344094D01*
X344178Y187464D01*
X346322Y187295D01*
D02*
G37*
G36*
X325177Y179940D02*
X324575Y180100D01*
Y180900D01*
X325177Y181060D01*
Y179940D01*
D02*
G37*
G36*
X307269Y180585D02*
X307003Y180186D01*
X306840Y179367D01*
X307003Y178548D01*
X307467Y177853D01*
X308162Y177389D01*
X308981Y177226D01*
X309801Y177389D01*
X310495Y177853D01*
X310826Y178348D01*
X311326D01*
X311434Y178186D01*
X312129Y177722D01*
X312878Y177573D01*
X313024Y177094D01*
X303539Y167609D01*
X303229Y167146D01*
X303121Y166600D01*
X303121Y166600D01*
Y150050D01*
X302642Y149905D01*
X302246Y150498D01*
X301650Y150896D01*
X300948Y151035D01*
X300246Y150896D01*
X299650Y150498D01*
X299253Y149902D01*
X299113Y149200D01*
X299253Y148498D01*
X299650Y147902D01*
X300246Y147504D01*
X300948Y147365D01*
X301650Y147504D01*
X302246Y147902D01*
X302642Y148495D01*
X303121Y148350D01*
Y134000D01*
X302884Y133863D01*
X302546Y133796D01*
X301950Y133398D01*
X301553Y132802D01*
X301485Y132464D01*
X301336Y132207D01*
X298639Y129510D01*
X293174D01*
X292983Y129972D01*
X298230Y135219D01*
X298561Y135715D01*
X298677Y136300D01*
X298677Y136300D01*
X298677Y136300D01*
Y136300D01*
Y139625D01*
X298694Y139774D01*
X298844Y139998D01*
X298983Y140700D01*
X298844Y141402D01*
X298446Y141998D01*
X297850Y142396D01*
X297148Y142535D01*
X296446Y142396D01*
X295850Y141998D01*
X295452Y141402D01*
X295313Y140700D01*
X295452Y139998D01*
X295602Y139774D01*
X295619Y139625D01*
Y136934D01*
X294485Y135800D01*
X294146Y135868D01*
X293980Y135918D01*
X293844Y136602D01*
X293446Y137198D01*
X292850Y137596D01*
X292239Y137717D01*
X292183Y137800D01*
X292183Y137800D01*
X292183D01*
X292044Y138502D01*
X291646Y139098D01*
X291050Y139496D01*
X290348Y139635D01*
X289646Y139496D01*
X289050Y139098D01*
X288652Y138502D01*
X288513Y137800D01*
X288652Y137098D01*
X289050Y136502D01*
X289646Y136104D01*
X290258Y135983D01*
X290313Y135900D01*
X290313Y135900D01*
X290313D01*
X290453Y135198D01*
X290850Y134602D01*
X291446Y134204D01*
X292130Y134068D01*
X292180Y133902D01*
X292248Y133563D01*
X275549Y116864D01*
X275087Y117055D01*
Y132055D01*
X278842Y135810D01*
X278842Y135810D01*
X279107Y136207D01*
X279284Y136472D01*
X279439Y137252D01*
Y140491D01*
X287479D01*
X288259Y140647D01*
X288921Y141089D01*
X288921Y141089D01*
X288921Y141089D01*
X292290Y144458D01*
X292290Y144458D01*
X292732Y145120D01*
X292732Y145120D01*
X292732Y145120D01*
X292887Y145900D01*
X292887Y145900D01*
Y148500D01*
X292732Y149280D01*
X292290Y149942D01*
X291628Y150384D01*
X290848Y150539D01*
X290068Y150384D01*
X289406Y149942D01*
X288964Y149280D01*
X288809Y148500D01*
Y146745D01*
X286634Y144570D01*
X253338D01*
X252732Y145175D01*
Y154831D01*
X252577Y155611D01*
X252135Y156273D01*
X250135Y158273D01*
X249473Y158715D01*
X248693Y158870D01*
X245193D01*
X244413Y158715D01*
X243751Y158273D01*
X243309Y157611D01*
X243154Y156831D01*
X243309Y156050D01*
X243751Y155389D01*
X243909Y155283D01*
X244004Y154801D01*
X244004D01*
X244004Y154801D01*
X243865Y154099D01*
X243875Y154046D01*
X243502Y153797D01*
X243104Y153201D01*
X242965Y152499D01*
X243104Y151797D01*
X243502Y151201D01*
X244098Y150804D01*
X244134Y150619D01*
X244102Y150597D01*
X243704Y150002D01*
X243565Y149299D01*
X243704Y148597D01*
X243748Y148532D01*
X243594Y148301D01*
X243454Y147599D01*
X243594Y146897D01*
X243992Y146301D01*
X244587Y145904D01*
X245290Y145764D01*
X245992Y145904D01*
X246587Y146301D01*
X246985Y146897D01*
X247125Y147599D01*
X247077Y147839D01*
X247355Y148255D01*
X247602Y148304D01*
X248198Y148702D01*
X248654Y148397D01*
Y144331D01*
X248654Y144331D01*
X248654D01*
X248809Y143550D01*
X249251Y142889D01*
X249522Y142618D01*
X249330Y142156D01*
X247193D01*
X246686Y142055D01*
X246256Y141768D01*
X244756Y140268D01*
X244468Y139838D01*
X244424Y139616D01*
X243962Y139425D01*
X243895Y139470D01*
X243193Y139609D01*
X242491Y139470D01*
X241895Y139072D01*
X241497Y138476D01*
X241497D01*
X241018Y138621D01*
Y158282D01*
X243242Y160505D01*
X244290D01*
X244656Y160359D01*
X244991Y160135D01*
X245693Y159995D01*
X246395Y160135D01*
X246991Y160533D01*
X247389Y161128D01*
X247528Y161831D01*
X247389Y162533D01*
X246991Y163128D01*
X246395Y163526D01*
X245693Y163666D01*
X244991Y163526D01*
X244656Y163303D01*
X244290Y163156D01*
X242693D01*
X242186Y163055D01*
X241756Y162768D01*
X238756Y159768D01*
X238468Y159338D01*
X238367Y158831D01*
Y137309D01*
X238468Y136802D01*
X238756Y136372D01*
X238756Y136372D01*
X238756Y136372D01*
X241053Y134075D01*
X240817Y133634D01*
X240815Y133634D01*
X240112Y133495D01*
X239790Y133279D01*
X239467Y133495D01*
X238765Y133634D01*
X238062Y133495D01*
X237467Y133097D01*
X237069Y132501D01*
X236929Y131799D01*
X237009Y131400D01*
X236568Y131164D01*
X235190Y132542D01*
X234528Y132984D01*
X233748Y133139D01*
X219396D01*
X208592Y143943D01*
X208825Y144291D01*
X208905Y144344D01*
X209066Y144277D01*
X209850Y144174D01*
X213148D01*
X213931Y144277D01*
X214661Y144580D01*
X215288Y145060D01*
X215647Y145420D01*
X216145Y145371D01*
X216662Y144597D01*
X216729Y144552D01*
X216210Y143775D01*
X216016Y142799D01*
X216210Y141824D01*
X216762Y140997D01*
X217589Y140444D01*
X218565Y140250D01*
X219540Y140444D01*
X220315Y140962D01*
X221089Y140444D01*
X222065Y140250D01*
X223040Y140444D01*
X223867Y140997D01*
X224419Y141824D01*
X224613Y142799D01*
X224419Y143775D01*
X223867Y144602D01*
X223767Y144668D01*
Y144697D01*
X224320Y145524D01*
X224514Y146499D01*
X224320Y147475D01*
X223767Y148302D01*
X222940Y148854D01*
X221965Y149048D01*
X220989Y148854D01*
X220162Y148302D01*
X220148Y148281D01*
X219440Y148754D01*
X219333Y149106D01*
X221388Y151160D01*
X221868Y151787D01*
X222171Y152517D01*
X222274Y153300D01*
Y173500D01*
X222274Y173500D01*
X222183Y174192D01*
X222171Y174283D01*
X221868Y175013D01*
X221388Y175640D01*
X217721Y179306D01*
X217824Y179499D01*
X246773D01*
X247009Y179058D01*
X246754Y178676D01*
X246614Y177974D01*
X246754Y177272D01*
X246886Y177074D01*
X246754Y176876D01*
X246614Y176174D01*
X246754Y175472D01*
X247048Y175032D01*
X246770Y174616D01*
X246693Y174632D01*
X245718Y174438D01*
X244890Y173885D01*
X244338Y173058D01*
X244144Y172083D01*
X244338Y171107D01*
X244890Y170280D01*
X245718Y169728D01*
X246693Y169534D01*
X247668Y169728D01*
X248495Y170280D01*
X249048Y171107D01*
X249242Y172083D01*
X249048Y173058D01*
X248495Y173885D01*
X248852Y174419D01*
X249152Y174478D01*
X249747Y174876D01*
X250145Y175472D01*
X250285Y176174D01*
X250145Y176876D01*
X250013Y177074D01*
X250145Y177272D01*
X250285Y177974D01*
X250145Y178676D01*
X249747Y179272D01*
X249816Y179499D01*
X256626D01*
X258675Y177450D01*
Y170202D01*
X258528Y169836D01*
X258304Y169501D01*
D01*
X257991Y169628D01*
X257991Y169628D01*
Y169628D01*
X257395Y170026D01*
X256693Y170166D01*
X255991Y170026D01*
X255943Y169994D01*
X255895Y170026D01*
X255193Y170166D01*
X254491Y170026D01*
X253895Y169628D01*
X253497Y169033D01*
X253358Y168331D01*
X253497Y167628D01*
X253895Y167033D01*
X254491Y166635D01*
X255193Y166496D01*
X255895Y166635D01*
X255943Y166667D01*
X255991Y166635D01*
X256693Y166496D01*
X257395Y166635D01*
X257991Y167033D01*
X258388Y167628D01*
X258388D01*
D01*
X258702Y167501D01*
X258702Y167501D01*
Y167501D01*
X259298Y167104D01*
X260000Y166964D01*
X260702Y167104D01*
X260803Y167171D01*
X260895Y167033D01*
X261491Y166635D01*
X262193Y166496D01*
X262895Y166635D01*
X263491Y167033D01*
X263889Y167628D01*
X264028Y168331D01*
X263889Y169033D01*
X263491Y169628D01*
X262895Y170026D01*
X262193Y170166D01*
X261712Y170070D01*
X261326Y170387D01*
Y177999D01*
X261225Y178506D01*
X260937Y178937D01*
X259310Y180564D01*
X259502Y181026D01*
X295279D01*
X295328Y180528D01*
X294874Y180438D01*
X294047Y179885D01*
X293495Y179058D01*
X293301Y178083D01*
X293495Y177107D01*
X294047Y176280D01*
X294874Y175728D01*
X295850Y175534D01*
X296825Y175728D01*
X297652Y176280D01*
X298205Y177107D01*
X298399Y178083D01*
X298205Y179058D01*
X297652Y179885D01*
X296825Y180438D01*
X296371Y180528D01*
X296420Y181026D01*
X307033D01*
X307269Y180585D01*
D02*
G37*
G36*
X312937Y180800D02*
X311848Y179711D01*
X311547Y180747D01*
X311901Y181101D01*
X312937Y180800D01*
D02*
G37*
G36*
X155988Y168250D02*
Y167750D01*
X155319Y167440D01*
Y168560D01*
X155988Y168250D01*
D02*
G37*
G36*
X164545Y167851D02*
X164165Y167950D01*
Y168450D01*
X164165D01*
Y168450D01*
X164545Y168549D01*
Y167851D01*
D02*
G37*
G36*
X202992Y166699D02*
X202300Y166446D01*
X201946Y166799D01*
X202200Y167491D01*
X202992Y166699D01*
D02*
G37*
G36*
X170257Y166399D02*
X169465Y165607D01*
X169211Y166299D01*
X169565Y166653D01*
X170257Y166399D01*
D02*
G37*
G36*
X173184Y167061D02*
X173191Y166561D01*
X172527Y166248D01*
X172512Y167368D01*
X173184Y167061D01*
D02*
G37*
G36*
X152457Y168300D02*
X151765Y168046D01*
X151411Y168400D01*
X151665Y169092D01*
X152457Y168300D01*
D02*
G37*
G36*
X155776Y169776D02*
X155422Y169422D01*
X155155Y169611D01*
X155587Y170043D01*
X155776Y169776D01*
D02*
G37*
G36*
X136803Y170600D02*
X136721Y170000D01*
X136045Y169773D01*
X136185Y170884D01*
X136803Y170600D01*
D02*
G37*
G36*
X260560Y169370D02*
X259440D01*
X259700Y170021D01*
X260300D01*
X260560Y169370D01*
D02*
G37*
G36*
X164364Y173647D02*
X163967Y173382D01*
X163569Y172786D01*
X163429Y172084D01*
X163569Y171382D01*
X163967Y170786D01*
X164557Y170392D01*
Y169892D01*
X163967Y169498D01*
X163930Y169442D01*
X163908Y169437D01*
X163908D01*
X163908Y169437D01*
X163861Y169414D01*
X163678Y169378D01*
X163264Y169101D01*
Y169101D01*
X163264D01*
X162607Y168444D01*
X160550Y170500D01*
X160137Y170777D01*
X159649Y170874D01*
X156579D01*
X156544Y171052D01*
X156146Y171648D01*
X155550Y172046D01*
X154848Y172185D01*
X154209Y172058D01*
X154160Y172302D01*
X153762Y172898D01*
X153167Y173296D01*
X153063Y173637D01*
X153551Y174126D01*
X164219D01*
X164364Y173647D01*
D02*
G37*
G36*
X162383Y6400D02*
Y5800D01*
X161733Y5540D01*
Y6660D01*
X162383Y6400D01*
D02*
G37*
G36*
X200922Y153678D02*
X200324Y153924D01*
Y154424D01*
X200922Y154670D01*
Y153678D01*
D02*
G37*
G36*
X191122Y23271D02*
X190453Y23581D01*
Y24081D01*
X191122Y24391D01*
Y23271D01*
D02*
G37*
G36*
X273811Y137628D02*
X274131Y137414D01*
X274181Y136916D01*
X271606Y134342D01*
X271164Y133680D01*
X271009Y132900D01*
Y105978D01*
X270530Y105833D01*
X270495Y105885D01*
X269668Y106438D01*
X268693Y106632D01*
X267718Y106438D01*
X266891Y105885D01*
X266338Y105058D01*
X266144Y104083D01*
X266338Y103107D01*
X266891Y102280D01*
X267718Y101728D01*
X268594Y101553D01*
X268739Y101075D01*
X255006Y87342D01*
X254564Y86680D01*
X254409Y85900D01*
Y68945D01*
X237514Y52049D01*
X223308D01*
X222528Y51894D01*
X221866Y51452D01*
X221737Y51323D01*
X221275Y51514D01*
Y65952D01*
X239985Y84663D01*
X240483Y84614D01*
X240962Y83897D01*
X241789Y83344D01*
X242765Y83150D01*
X243740Y83344D01*
X244565Y83895D01*
X245389Y83344D01*
X246365Y83150D01*
X247340Y83344D01*
X248167Y83897D01*
X248720Y84724D01*
X248914Y85699D01*
X248720Y86675D01*
X248167Y87502D01*
X247340Y88054D01*
X246365Y88248D01*
X245389Y88054D01*
X244565Y87503D01*
X243740Y88054D01*
X243655Y88333D01*
X251112Y95789D01*
X251112Y95789D01*
X251112Y95789D01*
X251399Y96219D01*
X251500Y96726D01*
Y120350D01*
X251886Y120667D01*
X251900Y120664D01*
X252602Y120804D01*
X252750Y120902D01*
X252898Y120804D01*
X253600Y120664D01*
X254302Y120804D01*
X254500Y120936D01*
X254698Y120804D01*
X255400Y120664D01*
X256102Y120804D01*
X256698Y121202D01*
X257096Y121797D01*
X257235Y122499D01*
X257096Y123202D01*
X256698Y123797D01*
X256102Y124195D01*
X255400Y124335D01*
X254698Y124195D01*
X254500Y124063D01*
X254302Y124195D01*
X253600Y124335D01*
X252898Y124195D01*
X252750Y124096D01*
X252602Y124195D01*
X251900Y124335D01*
X251886Y124332D01*
X251500Y124649D01*
Y125425D01*
X256485Y130410D01*
X256773Y130840D01*
X256873Y131347D01*
X256873Y131347D01*
X256873Y131347D01*
Y131347D01*
Y133877D01*
X257298Y134104D01*
X258000Y133964D01*
X258702Y134104D01*
X259298Y134502D01*
X259696Y135097D01*
X259835Y135799D01*
X259801Y135970D01*
X259998Y136101D01*
X260396Y136697D01*
X260535Y137399D01*
X260843Y137775D01*
X261454D01*
X261771Y137388D01*
X261720Y137131D01*
X261859Y136428D01*
X261953Y136288D01*
X261914Y136231D01*
X261775Y135528D01*
X261914Y134826D01*
X262312Y134231D01*
X262908Y133833D01*
X263610Y133693D01*
X264312Y133833D01*
X264908Y134231D01*
X265306Y134826D01*
X265445Y135528D01*
X265306Y136231D01*
X265212Y136371D01*
X265251Y136428D01*
X265390Y137131D01*
X265339Y137388D01*
X265656Y137775D01*
X273445D01*
X273811Y137628D01*
D02*
G37*
G36*
X150393Y24066D02*
X150699Y23393D01*
X149579Y23411D01*
X149893Y24075D01*
X150393Y24066D01*
D02*
G37*
G36*
X133390Y23402D02*
X132270D01*
X132580Y24071D01*
X133080D01*
X133390Y23402D01*
D02*
G37*
G36*
X192429Y132699D02*
X191760Y133009D01*
Y133509D01*
X192429Y133819D01*
Y132699D01*
D02*
G37*
G36*
X174398Y134081D02*
X173898D01*
X173588Y134750D01*
X174708D01*
X174398Y134081D01*
D02*
G37*
G36*
X192992Y136899D02*
X192300Y136646D01*
X191946Y136999D01*
X192200Y137691D01*
X192992Y136899D01*
D02*
G37*
G36*
X116622Y23383D02*
X115830Y22591D01*
X115576Y23283D01*
X115930Y23636D01*
X116622Y23383D01*
D02*
G37*
G36*
X163569Y154945D02*
X163967Y154349D01*
X164562Y153951D01*
X165265Y153812D01*
X165967Y153951D01*
X166562Y154349D01*
X166684Y154531D01*
X167181Y154580D01*
X168139Y153623D01*
X168139D01*
X168139Y153623D01*
X168139Y153623D01*
Y153623D01*
X168552Y153347D01*
X169040Y153250D01*
X185180D01*
X185497Y152863D01*
X185465Y152699D01*
X185604Y151997D01*
X186002Y151401D01*
X186099Y151337D01*
Y150837D01*
X186002Y150772D01*
X185604Y150176D01*
X185465Y149474D01*
X185599Y148800D01*
X182898Y146100D01*
X182622Y145687D01*
X182525Y145199D01*
Y137085D01*
X182447Y137070D01*
X181852Y136672D01*
X181454Y136076D01*
X181314Y135374D01*
X181247Y135292D01*
X180749Y135341D01*
X180589Y135640D01*
X180945Y136172D01*
X181085Y136874D01*
X180945Y137576D01*
X180547Y138172D01*
X179952Y138570D01*
X179534Y138653D01*
X179122Y138804D01*
X178625Y139301D01*
X178211Y139577D01*
X177724Y139674D01*
X172548D01*
X172060Y139577D01*
X171647Y139301D01*
X171185Y138839D01*
X170722Y139030D01*
Y142918D01*
X170900Y143064D01*
X171602Y143204D01*
X172198Y143602D01*
X172596Y144197D01*
X172709Y144765D01*
X172902Y144804D01*
X173498Y145202D01*
X173896Y145797D01*
X174035Y146499D01*
X173896Y147202D01*
X173498Y147797D01*
X172902Y148195D01*
X172729Y148229D01*
X172726Y148244D01*
X172902Y148279D01*
X173498Y148677D01*
X173896Y149272D01*
X174035Y149974D01*
X173896Y150677D01*
X173498Y151272D01*
X172902Y151670D01*
X172200Y151810D01*
X171498Y151670D01*
X170902Y151272D01*
X170504Y150677D01*
X170365Y149974D01*
X170374Y149930D01*
X170198Y149895D01*
X169602Y149497D01*
X169204Y148901D01*
X169123Y148491D01*
X168644Y148346D01*
X163022Y153967D01*
Y155141D01*
X163520Y155191D01*
X163569Y154945D01*
D02*
G37*
G36*
X114690Y23154D02*
X113570D01*
X113880Y23823D01*
X114380D01*
X114690Y23154D01*
D02*
G37*
G36*
X192429Y134919D02*
X191760Y135229D01*
Y135729D01*
X192429Y136039D01*
Y134919D01*
D02*
G37*
G36*
X304360Y132647D02*
X304048Y132108D01*
X303256Y132900D01*
X303795Y133212D01*
X304360Y132647D01*
D02*
G37*
G36*
X192429Y128259D02*
X191760Y128569D01*
Y129069D01*
X192429Y129379D01*
Y128259D01*
D02*
G37*
G36*
X303140Y128800D02*
X302602Y128488D01*
X302036Y129053D01*
X302348Y129592D01*
X303140Y128800D01*
D02*
G37*
G36*
X217109Y129658D02*
X217109D01*
X217109Y129658D01*
X217109D01*
X217109Y129658D01*
Y129658D01*
X217109Y129658D01*
Y129658D01*
X217771Y129216D01*
X218551Y129061D01*
X232903D01*
X234364Y127601D01*
X234128Y127160D01*
X233748Y127235D01*
X233046Y127096D01*
X232450Y126698D01*
X232052Y126102D01*
X231924Y125456D01*
X231898Y125374D01*
X224748D01*
X224260Y125277D01*
X223847Y125001D01*
X220347Y121501D01*
X220071Y121088D01*
X219973Y120600D01*
Y95700D01*
X220071Y95212D01*
X220347Y94799D01*
X220396Y94750D01*
X220388Y94742D01*
X220466Y94626D01*
X220644Y94011D01*
X220770Y93381D01*
X221234Y92686D01*
X221929Y92222D01*
X222748Y92059D01*
X223567Y92222D01*
X224262Y92686D01*
X224726Y93381D01*
X224889Y94200D01*
X224726Y95019D01*
X224262Y95714D01*
X223567Y96178D01*
X222937Y96303D01*
X222522Y96424D01*
Y120072D01*
X225276Y122826D01*
X232548D01*
X233036Y122923D01*
X233449Y123199D01*
X233706Y123456D01*
X234175Y123650D01*
X234450Y123704D01*
X235046Y124102D01*
X235444Y124698D01*
X235583Y125400D01*
X235508Y125780D01*
X235780Y125925D01*
X236209Y125668D01*
Y107874D01*
X236196Y107629D01*
X235893Y107176D01*
X235699Y106200D01*
X235893Y105225D01*
X236446Y104398D01*
X237273Y103845D01*
X238248Y103651D01*
X239224Y103845D01*
X240050Y104398D01*
X240603Y105225D01*
X240797Y106200D01*
X240603Y107176D01*
X240300Y107629D01*
X240287Y107874D01*
Y108240D01*
X240728Y108476D01*
X241225Y108144D01*
X242200Y107950D01*
X243176Y108144D01*
X243625Y108445D01*
X244225Y108044D01*
X245200Y107850D01*
X245736Y107957D01*
X246123Y107640D01*
Y99349D01*
X220184Y73411D01*
X219722Y73602D01*
Y77255D01*
X219625Y77743D01*
X219606Y77840D01*
X219274Y78337D01*
X217429Y80181D01*
X216933Y80513D01*
X216348Y80629D01*
X214123D01*
X213974Y80646D01*
X213750Y80796D01*
X213048Y80935D01*
X212346Y80796D01*
X211750Y80398D01*
X211403Y79877D01*
X210924Y80023D01*
Y91138D01*
X211386Y91330D01*
X217058Y85658D01*
X217058Y85658D01*
X217719Y85216D01*
X218500Y85061D01*
X218500Y85061D01*
X220974D01*
X221219Y85048D01*
X221673Y84745D01*
X222648Y84551D01*
X223623Y84745D01*
X224450Y85298D01*
X225003Y86124D01*
X225197Y87100D01*
X225003Y88076D01*
X224450Y88902D01*
X223623Y89455D01*
X222648Y89649D01*
X221673Y89455D01*
X221219Y89152D01*
X220974Y89139D01*
X219344D01*
X210539Y97945D01*
Y135575D01*
X211001Y135767D01*
X217109Y129658D01*
D02*
G37*
G36*
X192429Y126039D02*
X191760Y126349D01*
Y126849D01*
X192429Y127159D01*
Y126039D01*
D02*
G37*
G36*
X169590Y23402D02*
X168470D01*
X168780Y24071D01*
X169280D01*
X169590Y23402D01*
D02*
G37*
G36*
X304260Y130147D02*
X303948Y129608D01*
X303156Y130400D01*
X303695Y130712D01*
X304260Y130147D01*
D02*
G37*
G36*
X138410Y23402D02*
X137290D01*
X137450Y24003D01*
X138250D01*
X138410Y23402D01*
D02*
G37*
G36*
X136110D02*
X134990D01*
X135150Y24003D01*
X135950D01*
X136110Y23402D01*
D02*
G37*
G36*
X303240Y131300D02*
X302702Y130988D01*
X302136Y131553D01*
X302448Y132092D01*
X303240Y131300D01*
D02*
G37*
G36*
X192429Y130479D02*
X191760Y130789D01*
Y131289D01*
X192429Y131599D01*
Y130479D01*
D02*
G37*
G36*
X201900Y130734D02*
X201400D01*
X201090Y131403D01*
X202210D01*
X201900Y130734D01*
D02*
G37*
G36*
X172002Y137500D02*
X171748Y136808D01*
X170956Y137600D01*
X171648Y137854D01*
X172002Y137500D01*
D02*
G37*
G36*
X49067Y22946D02*
X48425Y19415D01*
X45112Y22728D01*
X48643Y23371D01*
X49067Y22946D01*
D02*
G37*
G36*
X188488Y144204D02*
X187820Y144514D01*
Y145014D01*
X188488Y145324D01*
Y144204D01*
D02*
G37*
G36*
X275511Y33862D02*
X275511Y33862D01*
X275511Y33862D01*
X276623Y32750D01*
Y22206D01*
X274455Y20038D01*
X274014Y20274D01*
X274026Y20333D01*
Y33203D01*
X274560Y33738D01*
X275027Y33918D01*
X275421Y33997D01*
X275511Y33862D01*
D02*
G37*
G36*
X135949Y22138D02*
X135353Y21421D01*
X134687Y21886D01*
X134898Y22366D01*
X135949Y22138D01*
D02*
G37*
G36*
X202703Y141574D02*
X202350Y141220D01*
X201658Y141474D01*
X202450Y142266D01*
X202703Y141574D01*
D02*
G37*
G36*
X189878Y145814D02*
X189210Y146124D01*
Y146624D01*
X189878Y146934D01*
Y145814D01*
D02*
G37*
G36*
X201542Y148474D02*
X200850Y148221D01*
X200496Y148574D01*
X200750Y149266D01*
X201542Y148474D01*
D02*
G37*
G36*
X192089Y153624D02*
Y153124D01*
X191421Y152814D01*
Y153934D01*
X192089Y153624D01*
D02*
G37*
G36*
X191229Y147439D02*
X190560Y147749D01*
Y148249D01*
X191229Y148559D01*
Y147439D01*
D02*
G37*
G36*
X29170Y11185D02*
X27630D01*
X28000Y12084D01*
X28800D01*
X29170Y11185D01*
D02*
G37*
G36*
X32089Y11499D02*
X31000Y10410D01*
X30626Y11308D01*
X31192Y11873D01*
X32089Y11499D01*
D02*
G37*
G36*
X138203Y22113D02*
X137572Y21440D01*
X136936Y21935D01*
X137154Y22436D01*
X138203Y22113D01*
D02*
G37*
G36*
X249915Y139631D02*
Y139031D01*
X249264Y138771D01*
Y139891D01*
X249915Y139631D01*
D02*
G37*
G36*
X274277Y138540D02*
X273626Y138800D01*
Y139400D01*
X274277Y139660D01*
Y138540D01*
D02*
G37*
G36*
X179242Y137674D02*
X178450Y136882D01*
X178196Y137574D01*
X178550Y137928D01*
X179242Y137674D01*
D02*
G37*
G36*
X154570Y23081D02*
Y22581D01*
X153901Y22271D01*
Y23391D01*
X154570Y23081D01*
D02*
G37*
G36*
X297648Y139595D02*
X296648D01*
X296588Y140129D01*
X297708D01*
X297648Y139595D01*
D02*
G37*
%LPC*%
G36*
X145265Y84848D02*
X144289Y84654D01*
X143462Y84102D01*
X142910Y83275D01*
X142716Y82299D01*
X142910Y81324D01*
X143462Y80497D01*
X143658Y80366D01*
Y79866D01*
X143562Y79802D01*
X143010Y78975D01*
X142816Y77999D01*
X143010Y77024D01*
X143562Y76197D01*
Y75702D01*
X143010Y74875D01*
X142816Y73899D01*
X143010Y72924D01*
X143562Y72097D01*
X144389Y71544D01*
X145365Y71350D01*
X146340Y71544D01*
X147167Y72097D01*
X147720Y72924D01*
X147914Y73899D01*
X147720Y74875D01*
X147167Y75702D01*
Y76197D01*
X147720Y77024D01*
X147914Y77999D01*
X147720Y78975D01*
X147167Y79802D01*
X146971Y79933D01*
Y80433D01*
X147067Y80497D01*
X147619Y81324D01*
X147814Y82299D01*
X147619Y83275D01*
X147067Y84102D01*
X146240Y84654D01*
X145265Y84848D01*
D02*
G37*
G36*
X111552Y97426D02*
X110693Y97255D01*
X109966Y96769D01*
X109479Y96041D01*
X109309Y95183D01*
X109479Y94324D01*
X109966Y93597D01*
X110693Y93110D01*
X111552Y92940D01*
X112410Y93110D01*
X113138Y93597D01*
X113624Y94324D01*
X113795Y95183D01*
X113624Y96041D01*
X113138Y96769D01*
X112410Y97255D01*
X111552Y97426D01*
D02*
G37*
G36*
X142230D02*
X141372Y97255D01*
X140644Y96769D01*
X140158Y96041D01*
X139987Y95183D01*
X140158Y94324D01*
X140644Y93597D01*
X141372Y93110D01*
X142230Y92940D01*
X143088Y93110D01*
X143816Y93597D01*
X144302Y94324D01*
X144473Y95183D01*
X144302Y96041D01*
X143816Y96769D01*
X143088Y97255D01*
X142230Y97426D01*
D02*
G37*
G36*
X131230D02*
X130371Y97255D01*
X129644Y96769D01*
X129158Y96041D01*
X128987Y95183D01*
X129158Y94324D01*
X129644Y93597D01*
X130371Y93110D01*
X131230Y92940D01*
X132088Y93110D01*
X132816Y93597D01*
X133302Y94324D01*
X133473Y95183D01*
X133302Y96041D01*
X132816Y96769D01*
X132088Y97255D01*
X131230Y97426D01*
D02*
G37*
G36*
X160606Y136381D02*
X159747Y136211D01*
X159020Y135724D01*
X158533Y134997D01*
X158363Y134138D01*
X158533Y133280D01*
X159020Y132552D01*
X159747Y132066D01*
X160606Y131895D01*
X161464Y132066D01*
X162192Y132552D01*
X162678Y133280D01*
X162849Y134138D01*
X162678Y134997D01*
X162192Y135724D01*
X161464Y136211D01*
X160606Y136381D01*
D02*
G37*
G36*
X159735Y144861D02*
X158877Y144691D01*
X158149Y144204D01*
X157663Y143477D01*
X157492Y142618D01*
X157663Y141760D01*
X158149Y141032D01*
X158877Y140546D01*
X159735Y140375D01*
X160593Y140546D01*
X161321Y141032D01*
X161807Y141760D01*
X161978Y142618D01*
X161807Y143477D01*
X161321Y144204D01*
X160593Y144691D01*
X159735Y144861D01*
D02*
G37*
G36*
X259319Y31393D02*
X258617Y31253D01*
X258021Y30855D01*
X257623Y30260D01*
X257484Y29557D01*
X257623Y28855D01*
X258021Y28260D01*
X258617Y27862D01*
X259319Y27722D01*
X259477Y27754D01*
X259592Y27176D01*
X259990Y26580D01*
X260585Y26182D01*
X261216Y26057D01*
X261211Y26030D01*
X261350Y25328D01*
X261748Y24733D01*
X262344Y24335D01*
X263046Y24195D01*
X263748Y24335D01*
X264344Y24733D01*
X264741Y25328D01*
X264881Y26030D01*
X264741Y26733D01*
X264344Y27328D01*
X263748Y27726D01*
X263117Y27852D01*
X263123Y27878D01*
X262983Y28580D01*
X262585Y29176D01*
X261990Y29574D01*
X261287Y29713D01*
X261129Y29682D01*
X261015Y30260D01*
X260617Y30855D01*
X260021Y31253D01*
X259319Y31393D01*
D02*
G37*
G36*
X228793Y42419D02*
X228091Y42279D01*
X227495Y41881D01*
X227097Y41286D01*
X226958Y40584D01*
X227097Y39881D01*
X227495Y39286D01*
X228091Y38888D01*
X228721Y38762D01*
X228797Y38381D01*
X229195Y37786D01*
X229791Y37388D01*
X230414Y37264D01*
X230358Y36983D01*
X230497Y36281D01*
X230895Y35686D01*
X231491Y35288D01*
X231613Y35264D01*
X231890Y34848D01*
X231858Y34683D01*
X231997Y33981D01*
X232395Y33386D01*
X232991Y32988D01*
X233693Y32848D01*
X234395Y32988D01*
X234991Y33386D01*
X235388Y33981D01*
X235528Y34683D01*
X235388Y35386D01*
X234991Y35981D01*
X234395Y36379D01*
X234273Y36403D01*
X233996Y36819D01*
X234028Y36983D01*
X233889Y37686D01*
X233491Y38281D01*
X232895Y38679D01*
X232272Y38803D01*
X232328Y39083D01*
X232189Y39786D01*
X231791Y40381D01*
X231195Y40779D01*
X230564Y40905D01*
X230488Y41286D01*
X230091Y41881D01*
X229495Y42279D01*
X228793Y42419D01*
D02*
G37*
G36*
X191730Y40818D02*
X191028Y40678D01*
X190432Y40280D01*
X190034Y39685D01*
X189895Y38983D01*
X190034Y38280D01*
X190432Y37685D01*
X191028Y37287D01*
X191730Y37147D01*
X192432Y37287D01*
X193028Y37685D01*
X193426Y38280D01*
X193565Y38983D01*
X193426Y39685D01*
X193028Y40280D01*
X192432Y40678D01*
X191730Y40818D01*
D02*
G37*
G36*
X190389Y83362D02*
X189687Y83223D01*
X189092Y82825D01*
X188694Y82230D01*
X188554Y81527D01*
X188694Y80825D01*
X189092Y80229D01*
X189687Y79832D01*
X190389Y79692D01*
X191092Y79832D01*
X191687Y80229D01*
X192085Y80825D01*
X192225Y81527D01*
X192085Y82230D01*
X191687Y82825D01*
X191092Y83223D01*
X190389Y83362D01*
D02*
G37*
G36*
X172400Y57972D02*
X171424Y57778D01*
X170597Y57226D01*
X170045Y56399D01*
X169851Y55423D01*
X170045Y54448D01*
X170597Y53621D01*
X171424Y53068D01*
X172400Y52874D01*
X173375Y53068D01*
X174202Y53621D01*
X174755Y54448D01*
X174949Y55423D01*
X174755Y56399D01*
X174202Y57226D01*
X173375Y57778D01*
X172400Y57972D01*
D02*
G37*
G36*
X54710Y20383D02*
X53566Y20333D01*
X52475Y19989D01*
X51510Y19374D01*
X50736Y18530D01*
X50208Y17515D01*
X49960Y16398D01*
X50010Y15254D01*
X50354Y14163D01*
X50969Y13198D01*
X51813Y12424D01*
X52828Y11896D01*
X53946Y11648D01*
X55089Y11698D01*
X56180Y12042D01*
X57146Y12657D01*
X57919Y13501D01*
X58074Y13800D01*
X58569Y13729D01*
X58710Y13024D01*
X59262Y12197D01*
X59408Y12099D01*
Y11599D01*
X59262Y11502D01*
X58710Y10675D01*
X58516Y9699D01*
X58710Y8724D01*
X59262Y7897D01*
X59483Y7749D01*
Y7249D01*
X59262Y7102D01*
X58710Y6275D01*
X58516Y5299D01*
X58710Y4324D01*
X59262Y3497D01*
X60089Y2944D01*
X61065Y2750D01*
X62040Y2944D01*
X62867Y3497D01*
X62940Y3605D01*
X63440D01*
X63512Y3497D01*
X64339Y2944D01*
X65315Y2750D01*
X66290Y2944D01*
X67117Y3497D01*
X67190Y3605D01*
X67690D01*
X67762Y3497D01*
X68589Y2944D01*
X69565Y2750D01*
X70540Y2944D01*
X71367Y3497D01*
X71920Y4324D01*
X72114Y5299D01*
X71920Y6275D01*
X71367Y7102D01*
X70540Y7654D01*
X69565Y7848D01*
X68589Y7654D01*
X67762Y7102D01*
X67690Y6993D01*
X67190D01*
X67117Y7102D01*
X66896Y7249D01*
Y7749D01*
X67117Y7897D01*
X67669Y8724D01*
X67864Y9699D01*
X67669Y10675D01*
X67117Y11502D01*
X66290Y12054D01*
X65315Y12248D01*
X64339Y12054D01*
X63512Y11502D01*
X63440Y11393D01*
X62940D01*
X62867Y11502D01*
X62721Y11599D01*
Y12099D01*
X62867Y12197D01*
X63420Y13024D01*
X63613Y13999D01*
X63420Y14975D01*
X62867Y15802D01*
X62040Y16354D01*
X61065Y16548D01*
X60089Y16354D01*
X59262Y15802D01*
X59169Y15663D01*
X58688Y15797D01*
X58645Y16777D01*
X58301Y17868D01*
X57686Y18834D01*
X56842Y19607D01*
X55827Y20135D01*
X54710Y20383D01*
D02*
G37*
G36*
X309648Y35535D02*
X308946Y35396D01*
X308598Y35163D01*
X308250Y35396D01*
X307548Y35535D01*
X306846Y35396D01*
X306250Y34998D01*
X305853Y34402D01*
X305713Y33700D01*
X305853Y32998D01*
X306250Y32402D01*
X306846Y32004D01*
X307548Y31865D01*
X308250Y32004D01*
X308598Y32237D01*
X308946Y32004D01*
X309648Y31865D01*
X310350Y32004D01*
X310946Y32402D01*
X311344Y32998D01*
X311483Y33700D01*
X311344Y34402D01*
X310946Y34998D01*
X310350Y35396D01*
X309648Y35535D01*
D02*
G37*
G36*
X280948Y14937D02*
X280207Y14790D01*
X279578Y14370D01*
X279158Y13741D01*
X279011Y13000D01*
X279158Y12259D01*
X279578Y11630D01*
X280207Y11210D01*
X280732Y11106D01*
X280711Y11000D01*
X280858Y10259D01*
X281278Y9630D01*
X281907Y9210D01*
X282648Y9063D01*
X283389Y9210D01*
X284018Y9630D01*
X284438Y10259D01*
X284585Y11000D01*
X284438Y11741D01*
X284018Y12370D01*
X283389Y12790D01*
X282864Y12894D01*
X282885Y13000D01*
X282738Y13741D01*
X282318Y14370D01*
X281689Y14790D01*
X280948Y14937D01*
D02*
G37*
G36*
X95893Y42799D02*
X95191Y42659D01*
X94595Y42261D01*
X94197Y41666D01*
X94058Y40963D01*
X94197Y40261D01*
X94595Y39666D01*
X95191Y39268D01*
X95893Y39128D01*
X96595Y39268D01*
X97191Y39666D01*
X97588Y40261D01*
X97728Y40963D01*
X97588Y41666D01*
X97191Y42261D01*
X96595Y42659D01*
X95893Y42799D01*
D02*
G37*
G36*
X314548Y29741D02*
X313729Y29578D01*
X313034Y29114D01*
X312570Y28419D01*
X312407Y27600D01*
X312570Y26781D01*
X313034Y26086D01*
X313729Y25622D01*
X314548Y25459D01*
X315367Y25622D01*
X316062Y26086D01*
X316526Y26781D01*
X316689Y27600D01*
X316526Y28419D01*
X316062Y29114D01*
X315367Y29578D01*
X314548Y29741D01*
D02*
G37*
G36*
X92148Y39335D02*
X91446Y39196D01*
X90850Y38798D01*
X90452Y38202D01*
X90313Y37500D01*
X90452Y36798D01*
X90850Y36202D01*
X91446Y35804D01*
X92148Y35665D01*
X92850Y35804D01*
X93446Y36202D01*
X93844Y36798D01*
X93983Y37500D01*
X93844Y38202D01*
X93446Y38798D01*
X92850Y39196D01*
X92148Y39335D01*
D02*
G37*
G36*
X92193Y32880D02*
X91491Y32740D01*
X90895Y32343D01*
X90497Y31747D01*
X90358Y31045D01*
X90497Y30343D01*
X90895Y29747D01*
X91491Y29349D01*
X92193Y29210D01*
X92895Y29349D01*
X93491Y29747D01*
X93888Y30343D01*
X94028Y31045D01*
X93888Y31747D01*
X93491Y32343D01*
X92895Y32740D01*
X92193Y32880D01*
D02*
G37*
G36*
X333548Y35749D02*
X332573Y35555D01*
X331746Y35002D01*
X331193Y34176D01*
X330999Y33200D01*
X331193Y32225D01*
X331746Y31398D01*
X332573Y30845D01*
X333548Y30651D01*
X334524Y30845D01*
X335350Y31398D01*
X335903Y32225D01*
X336097Y33200D01*
X335903Y34176D01*
X335350Y35002D01*
X334524Y35555D01*
X333548Y35749D01*
D02*
G37*
G36*
X320848Y21149D02*
X319873Y20955D01*
X319046Y20402D01*
X318493Y19576D01*
X318299Y18600D01*
X318493Y17625D01*
X319046Y16798D01*
X319873Y16245D01*
X320848Y16051D01*
X321824Y16245D01*
X322650Y16798D01*
X323203Y17625D01*
X323397Y18600D01*
X323203Y19576D01*
X322650Y20402D01*
X321824Y20955D01*
X320848Y21149D01*
D02*
G37*
G36*
X75156Y136193D02*
X74453Y136054D01*
X73858Y135656D01*
X73460Y135061D01*
X73320Y134358D01*
X73460Y133656D01*
X73858Y133060D01*
X74453Y132663D01*
X75156Y132523D01*
X75858Y132663D01*
X76453Y133060D01*
X76851Y133656D01*
X76991Y134358D01*
X76851Y135061D01*
X76453Y135656D01*
X75858Y136054D01*
X75156Y136193D01*
D02*
G37*
G36*
X64792Y135022D02*
X64089Y134883D01*
X63494Y134485D01*
X63096Y133889D01*
X62956Y133187D01*
X63096Y132485D01*
X63494Y131889D01*
X64089Y131492D01*
X64792Y131352D01*
X65494Y131492D01*
X66089Y131889D01*
X66487Y132485D01*
X66627Y133187D01*
X66487Y133889D01*
X66089Y134485D01*
X65494Y134883D01*
X64792Y135022D01*
D02*
G37*
G36*
X31593Y137472D02*
X30773Y137309D01*
X30079Y136845D01*
X29615Y136150D01*
X29452Y135331D01*
X29615Y134511D01*
X30079Y133817D01*
X30773Y133352D01*
X31593Y133190D01*
X32412Y133352D01*
X33107Y133817D01*
X33571Y134511D01*
X33734Y135331D01*
X33571Y136150D01*
X33107Y136845D01*
X32412Y137309D01*
X31593Y137472D01*
D02*
G37*
G36*
X79103Y140465D02*
X78400Y140326D01*
X77805Y139928D01*
X77407Y139332D01*
X77267Y138630D01*
X77407Y137928D01*
X77805Y137332D01*
X78400Y136935D01*
X79103Y136795D01*
X79805Y136935D01*
X80400Y137332D01*
X80798Y137928D01*
X80938Y138630D01*
X80798Y139332D01*
X80400Y139928D01*
X79805Y140326D01*
X79103Y140465D01*
D02*
G37*
G36*
X47150Y138509D02*
X46447Y138370D01*
X45852Y137972D01*
X45454Y137376D01*
X45314Y136674D01*
X45454Y135972D01*
X45852Y135376D01*
X46447Y134978D01*
X47150Y134839D01*
X47852Y134978D01*
X48447Y135376D01*
X48845Y135972D01*
X48985Y136674D01*
X48845Y137376D01*
X48447Y137972D01*
X47852Y138370D01*
X47150Y138509D01*
D02*
G37*
G36*
X59152Y130727D02*
X58449Y130588D01*
X57854Y130190D01*
X57456Y129595D01*
X57316Y128892D01*
X57456Y128190D01*
X57854Y127594D01*
X58449Y127197D01*
X59152Y127057D01*
X59854Y127197D01*
X60449Y127594D01*
X60847Y128190D01*
X60987Y128892D01*
X60847Y129595D01*
X60449Y130190D01*
X59854Y130588D01*
X59152Y130727D01*
D02*
G37*
G36*
X299448Y123835D02*
X298746Y123696D01*
X298150Y123298D01*
X297752Y122702D01*
X297613Y122000D01*
X297752Y121298D01*
X298150Y120702D01*
X298746Y120304D01*
X299448Y120165D01*
X300150Y120304D01*
X300746Y120702D01*
X301144Y121298D01*
X301283Y122000D01*
X301144Y122702D01*
X300746Y123298D01*
X300150Y123696D01*
X299448Y123835D01*
D02*
G37*
G36*
X91891Y121286D02*
X91188Y121147D01*
X90593Y120749D01*
X90195Y120153D01*
X90055Y119451D01*
X90065Y119403D01*
X89711Y119050D01*
X89663Y119059D01*
X88960Y118920D01*
X88365Y118522D01*
X87967Y117927D01*
X87827Y117224D01*
X87834Y117191D01*
X87480Y116837D01*
X87420Y116849D01*
X86717Y116710D01*
X86122Y116312D01*
X85724Y115717D01*
X85584Y115014D01*
X85724Y114312D01*
X86122Y113716D01*
X86717Y113319D01*
X87420Y113179D01*
X88122Y113319D01*
X88717Y113716D01*
X89115Y114312D01*
X89255Y115014D01*
X89248Y115048D01*
X89602Y115401D01*
X89663Y115389D01*
X90365Y115529D01*
X90960Y115926D01*
X91358Y116522D01*
X91498Y117224D01*
X91488Y117272D01*
X91842Y117626D01*
X91891Y117616D01*
X92593Y117756D01*
X93188Y118153D01*
X93586Y118749D01*
X93726Y119451D01*
X93586Y120153D01*
X93188Y120749D01*
X92593Y121147D01*
X91891Y121286D01*
D02*
G37*
G36*
X304792Y121480D02*
X304090Y121340D01*
X303495Y120942D01*
X303097Y120347D01*
X302957Y119644D01*
X303044Y119209D01*
X302582Y119018D01*
X302462Y119197D01*
X301867Y119595D01*
X301165Y119735D01*
X300462Y119595D01*
X299867Y119197D01*
X299469Y118602D01*
X299329Y117899D01*
X299469Y117197D01*
X299867Y116602D01*
X300462Y116204D01*
X301165Y116064D01*
X301867Y116204D01*
X302462Y116602D01*
X302860Y117197D01*
X303000Y117899D01*
X302913Y118334D01*
X303375Y118526D01*
X303495Y118347D01*
X304090Y117949D01*
X304792Y117809D01*
X305495Y117949D01*
X306090Y118347D01*
X306488Y118942D01*
X306628Y119644D01*
X306488Y120347D01*
X306090Y120942D01*
X305495Y121340D01*
X304792Y121480D01*
D02*
G37*
G36*
X42152Y124227D02*
X41449Y124088D01*
X40854Y123690D01*
X40456Y123094D01*
X40316Y122392D01*
X40456Y121690D01*
X40854Y121095D01*
X41449Y120697D01*
X42152Y120557D01*
X42854Y120697D01*
X43449Y121095D01*
X43847Y121690D01*
X43987Y122392D01*
X43847Y123094D01*
X43449Y123690D01*
X42854Y124088D01*
X42152Y124227D01*
D02*
G37*
G36*
X94694Y129312D02*
X93991Y129173D01*
X93396Y128775D01*
X92998Y128180D01*
X92858Y127477D01*
X92998Y126775D01*
X93396Y126179D01*
X93991Y125782D01*
X94694Y125642D01*
X95396Y125782D01*
X95991Y126179D01*
X96389Y126775D01*
X96529Y127477D01*
X96389Y128180D01*
X95991Y128775D01*
X95396Y129173D01*
X94694Y129312D01*
D02*
G37*
G36*
X61610Y127068D02*
X60907Y126929D01*
X60312Y126531D01*
X59914Y125935D01*
X59774Y125233D01*
X59914Y124531D01*
X60312Y123935D01*
X60907Y123538D01*
X61610Y123398D01*
X62312Y123538D01*
X62907Y123935D01*
X63305Y124531D01*
X63445Y125233D01*
X63305Y125935D01*
X62907Y126531D01*
X62312Y126929D01*
X61610Y127068D01*
D02*
G37*
G36*
X310648Y124435D02*
X309946Y124296D01*
X309350Y123898D01*
X308952Y123302D01*
X308813Y122600D01*
X308952Y121898D01*
X309350Y121302D01*
X309946Y120904D01*
X310648Y120765D01*
X311350Y120904D01*
X311946Y121302D01*
X312344Y121898D01*
X312483Y122600D01*
X312344Y123302D01*
X311946Y123898D01*
X311350Y124296D01*
X310648Y124435D01*
D02*
G37*
G36*
X70903Y141350D02*
X70200Y141211D01*
X69605Y140813D01*
X69207Y140217D01*
X69067Y139515D01*
X69207Y138813D01*
X69605Y138217D01*
X70200Y137820D01*
X70903Y137680D01*
X71605Y137820D01*
X72200Y138217D01*
X72598Y138813D01*
X72738Y139515D01*
X72598Y140217D01*
X72200Y140813D01*
X71605Y141211D01*
X70903Y141350D01*
D02*
G37*
G36*
X314448Y165841D02*
X313629Y165678D01*
X312934Y165214D01*
X312470Y164519D01*
X312307Y163700D01*
X312470Y162881D01*
X312934Y162186D01*
X313629Y161722D01*
X314448Y161559D01*
X315267Y161722D01*
X315962Y162186D01*
X316426Y162881D01*
X316589Y163700D01*
X316426Y164519D01*
X315962Y165214D01*
X315267Y165678D01*
X314448Y165841D01*
D02*
G37*
G36*
X69252Y162927D02*
X68549Y162788D01*
X67954Y162390D01*
X67556Y161794D01*
X67416Y161092D01*
X67556Y160390D01*
X67954Y159794D01*
X68549Y159397D01*
X69252Y159257D01*
X69954Y159397D01*
X70549Y159794D01*
X70947Y160390D01*
X71087Y161092D01*
X70947Y161794D01*
X70549Y162390D01*
X69954Y162788D01*
X69252Y162927D01*
D02*
G37*
G36*
X65952Y159829D02*
X65210Y159682D01*
X64582Y159262D01*
X64162Y158633D01*
X64014Y157892D01*
X64162Y157151D01*
X64394Y156803D01*
X64041Y156450D01*
X63693Y156682D01*
X62952Y156829D01*
X62210Y156682D01*
X61582Y156262D01*
X61162Y155633D01*
X61014Y154892D01*
X61162Y154151D01*
X61313Y153924D01*
X60960Y153570D01*
X60793Y153682D01*
X60052Y153829D01*
X59310Y153682D01*
X58682Y153262D01*
X58262Y152634D01*
X58114Y151892D01*
X58262Y151151D01*
X58682Y150522D01*
X59310Y150102D01*
X60052Y149955D01*
X60793Y150102D01*
X61422Y150522D01*
X61841Y151151D01*
X61989Y151892D01*
X61841Y152634D01*
X61690Y152860D01*
X62043Y153214D01*
X62210Y153102D01*
X62952Y152955D01*
X63693Y153102D01*
X64322Y153522D01*
X64741Y154151D01*
X64889Y154892D01*
X64741Y155633D01*
X64509Y155981D01*
X64863Y156335D01*
X65210Y156102D01*
X65952Y155955D01*
X66693Y156102D01*
X67321Y156522D01*
X67741Y157151D01*
X67889Y157892D01*
X67741Y158633D01*
X67321Y159262D01*
X66693Y159682D01*
X65952Y159829D01*
D02*
G37*
G36*
X111050Y185123D02*
X110074Y184929D01*
X109247Y184376D01*
X108695Y183549D01*
X108501Y182574D01*
X108695Y181599D01*
X109247Y180772D01*
X110074Y180219D01*
X111050Y180025D01*
X112025Y180219D01*
X112852Y180772D01*
X113405Y181599D01*
X113599Y182574D01*
X113405Y183549D01*
X112852Y184376D01*
X112025Y184929D01*
X111050Y185123D01*
D02*
G37*
G36*
X337448Y175841D02*
X336629Y175678D01*
X335934Y175214D01*
X335470Y174519D01*
X335307Y173700D01*
X335470Y172881D01*
X335934Y172186D01*
X336629Y171722D01*
X337448Y171559D01*
X338267Y171722D01*
X338962Y172186D01*
X339426Y172881D01*
X339589Y173700D01*
X339426Y174519D01*
X338962Y175214D01*
X338267Y175678D01*
X337448Y175841D01*
D02*
G37*
G36*
X51784Y149299D02*
X50809Y149105D01*
X49982Y148553D01*
X49429Y147726D01*
X49235Y146750D01*
X49429Y145775D01*
X49982Y144948D01*
X50809Y144395D01*
X51784Y144201D01*
X51902Y144225D01*
X52000Y143732D01*
X51647Y143378D01*
X51340Y143439D01*
X50637Y143300D01*
X50042Y142902D01*
X49644Y142306D01*
X49504Y141604D01*
X49644Y140902D01*
X50042Y140306D01*
X50637Y139909D01*
X51340Y139769D01*
X52042Y139909D01*
X52637Y140306D01*
X53035Y140902D01*
X53170Y141578D01*
X53585Y141855D01*
X54450Y141683D01*
X55425Y141877D01*
X56252Y142430D01*
X56805Y143257D01*
X56999Y144232D01*
X56805Y145208D01*
X56252Y146035D01*
X55425Y146587D01*
X54450Y146781D01*
X54331Y146758D01*
X54139Y147726D01*
X53586Y148553D01*
X52759Y149105D01*
X51784Y149299D01*
D02*
G37*
G36*
X45865Y145040D02*
X45045Y144877D01*
X44351Y144413D01*
X43886Y143719D01*
X43723Y142899D01*
X43730Y142867D01*
X43051Y142413D01*
X42586Y141719D01*
X42423Y140899D01*
X42586Y140080D01*
X43051Y139385D01*
X43745Y138921D01*
X44565Y138758D01*
X45384Y138921D01*
X46079Y139385D01*
X46543Y140080D01*
X46706Y140899D01*
X46699Y140931D01*
X47379Y141385D01*
X47843Y142080D01*
X48006Y142899D01*
X47843Y143719D01*
X47379Y144413D01*
X46684Y144877D01*
X45865Y145040D01*
D02*
G37*
G36*
X78052Y147127D02*
X77349Y146988D01*
X76754Y146590D01*
X76356Y145994D01*
X76216Y145292D01*
X76356Y144590D01*
X76754Y143994D01*
X77349Y143597D01*
X78052Y143457D01*
X78754Y143597D01*
X79349Y143994D01*
X79747Y144590D01*
X79887Y145292D01*
X79747Y145994D01*
X79349Y146590D01*
X78754Y146988D01*
X78052Y147127D01*
D02*
G37*
G36*
X56952Y150727D02*
X56249Y150588D01*
X55654Y150190D01*
X55256Y149594D01*
X55116Y148892D01*
X55256Y148190D01*
X55654Y147594D01*
X56249Y147197D01*
X56952Y147057D01*
X57654Y147197D01*
X58249Y147594D01*
X58647Y148190D01*
X58787Y148892D01*
X58647Y149594D01*
X58249Y150190D01*
X57654Y150588D01*
X56952Y150727D01*
D02*
G37*
G36*
X61405Y122631D02*
X60702Y122492D01*
X60107Y122094D01*
X59709Y121499D01*
X59569Y120796D01*
X59709Y120094D01*
X60107Y119499D01*
X60702Y119101D01*
X61405Y118961D01*
X62107Y119101D01*
X62702Y119499D01*
X63100Y120094D01*
X63240Y120796D01*
X63100Y121499D01*
X62702Y122094D01*
X62107Y122492D01*
X61405Y122631D01*
D02*
G37*
G36*
X108193Y68074D02*
X107334Y67903D01*
X106607Y67417D01*
X106121Y66689D01*
X105950Y65831D01*
X106121Y64972D01*
X106607Y64245D01*
X107334Y63758D01*
X108193Y63588D01*
X109051Y63758D01*
X109779Y64245D01*
X110265Y64972D01*
X110436Y65831D01*
X110265Y66689D01*
X109779Y67417D01*
X109051Y67903D01*
X108193Y68074D01*
D02*
G37*
G36*
X312393Y66918D02*
X311691Y66778D01*
X311095Y66380D01*
X310697Y65785D01*
X310558Y65083D01*
X310697Y64380D01*
X311095Y63785D01*
X311691Y63387D01*
X312393Y63247D01*
X312475Y63264D01*
X312795Y62785D01*
X313391Y62387D01*
X314093Y62247D01*
X314795Y62387D01*
X315391Y62785D01*
X315789Y63380D01*
X315928Y64083D01*
X315789Y64785D01*
X315391Y65380D01*
X314795Y65778D01*
X314093Y65918D01*
X314011Y65902D01*
X313691Y66380D01*
X313095Y66778D01*
X312393Y66918D01*
D02*
G37*
G36*
X273048Y65837D02*
X272307Y65690D01*
X271678Y65270D01*
X271258Y64641D01*
X271111Y63900D01*
X271258Y63159D01*
X271678Y62530D01*
X272307Y62110D01*
X273048Y61963D01*
X273789Y62110D01*
X274418Y62530D01*
X274838Y63159D01*
X274985Y63900D01*
X274838Y64641D01*
X274418Y65270D01*
X273789Y65690D01*
X273048Y65837D01*
D02*
G37*
G36*
X323300Y74136D02*
X322559Y73989D01*
X321930Y73569D01*
X321510Y72940D01*
X321363Y72199D01*
X321510Y71458D01*
X321930Y70829D01*
X322559Y70410D01*
X323300Y70262D01*
X324041Y70410D01*
X324670Y70829D01*
X325090Y71458D01*
X325237Y72199D01*
X325090Y72940D01*
X324670Y73569D01*
X324041Y73989D01*
X323300Y74136D01*
D02*
G37*
G36*
X268693Y78021D02*
X267952Y77873D01*
X267323Y77453D01*
X266903Y76825D01*
X266756Y76083D01*
X266903Y75342D01*
X267323Y74714D01*
X267952Y74294D01*
X268693Y74146D01*
X269434Y74294D01*
X270063Y74714D01*
X270483Y75342D01*
X270630Y76083D01*
X270483Y76825D01*
X270063Y77453D01*
X269434Y77873D01*
X268693Y78021D01*
D02*
G37*
G36*
X10200Y76135D02*
X9498Y75996D01*
X8902Y75598D01*
X8504Y75002D01*
X8365Y74300D01*
X8504Y73598D01*
X8902Y73002D01*
X9498Y72604D01*
X10200Y72465D01*
X10902Y72604D01*
X11498Y73002D01*
X11896Y73598D01*
X12035Y74300D01*
X11896Y75002D01*
X11498Y75598D01*
X10902Y75996D01*
X10200Y76135D01*
D02*
G37*
G36*
X297548Y61741D02*
X296729Y61578D01*
X296034Y61114D01*
X295570Y60419D01*
X295407Y59600D01*
X295570Y58781D01*
X296034Y58086D01*
X296729Y57622D01*
X297548Y57459D01*
X298367Y57622D01*
X299062Y58086D01*
X299526Y58781D01*
X299689Y59600D01*
X299526Y60419D01*
X299062Y61114D01*
X298367Y61578D01*
X297548Y61741D01*
D02*
G37*
G36*
X110193Y50166D02*
X109491Y50026D01*
X108895Y49628D01*
X108497Y49033D01*
X108358Y48331D01*
X108497Y47628D01*
X108895Y47033D01*
X109491Y46635D01*
X110193Y46495D01*
X110895Y46635D01*
X111491Y47033D01*
X111889Y47628D01*
X112028Y48331D01*
X111889Y49033D01*
X111491Y49628D01*
X110895Y50026D01*
X110193Y50166D01*
D02*
G37*
G36*
X91900Y49472D02*
X90924Y49278D01*
X90097Y48726D01*
X89545Y47899D01*
X89351Y46923D01*
X89545Y45948D01*
X90097Y45121D01*
X90924Y44568D01*
X91900Y44374D01*
X92875Y44568D01*
X93702Y45121D01*
X94255Y45948D01*
X94449Y46923D01*
X94255Y47899D01*
X93702Y48726D01*
X92875Y49278D01*
X91900Y49472D01*
D02*
G37*
G36*
X79300Y44936D02*
X78559Y44789D01*
X77930Y44369D01*
X77510Y43741D01*
X77363Y42999D01*
X77510Y42258D01*
X77930Y41629D01*
X78559Y41209D01*
X79300Y41062D01*
X80041Y41209D01*
X80670Y41629D01*
X81090Y42258D01*
X81237Y42999D01*
X81090Y43741D01*
X80670Y44369D01*
X80041Y44789D01*
X79300Y44936D01*
D02*
G37*
G36*
X324065Y55534D02*
X323362Y55395D01*
X322767Y54997D01*
X322369Y54401D01*
X322229Y53699D01*
X322369Y52997D01*
X322518Y52774D01*
X322369Y52552D01*
X322229Y51849D01*
X322369Y51147D01*
X322518Y50924D01*
X322369Y50701D01*
X322229Y49999D01*
X322369Y49297D01*
X322767Y48702D01*
X323362Y48304D01*
X324065Y48164D01*
X324767Y48304D01*
X325362Y48702D01*
X325760Y49297D01*
X325900Y49999D01*
X325760Y50701D01*
X325611Y50924D01*
X325760Y51147D01*
X325900Y51849D01*
X325760Y52552D01*
X325611Y52774D01*
X325760Y52997D01*
X325900Y53699D01*
X325760Y54401D01*
X325362Y54997D01*
X324767Y55395D01*
X324065Y55534D01*
D02*
G37*
G36*
X21400Y56035D02*
X20698Y55896D01*
X20102Y55498D01*
X19704Y54902D01*
X19565Y54200D01*
X19582Y54114D01*
X19250Y54048D01*
X18654Y53650D01*
X18257Y53054D01*
X18117Y52352D01*
X18257Y51650D01*
X18654Y51054D01*
X19250Y50656D01*
X19952Y50517D01*
X20654Y50656D01*
X21250Y51054D01*
X21648Y51650D01*
X21787Y52352D01*
X21770Y52438D01*
X22102Y52504D01*
X22698Y52902D01*
X23096Y53498D01*
X23235Y54200D01*
X23096Y54902D01*
X22698Y55498D01*
X22102Y55896D01*
X21400Y56035D01*
D02*
G37*
G36*
X298548Y53935D02*
X297846Y53796D01*
X297250Y53398D01*
X296852Y52802D01*
X296713Y52100D01*
X296852Y51398D01*
X297250Y50802D01*
X297846Y50404D01*
X298548Y50265D01*
X299250Y50404D01*
X299846Y50802D01*
X300244Y51398D01*
X300383Y52100D01*
X300244Y52802D01*
X299846Y53398D01*
X299250Y53796D01*
X298548Y53935D01*
D02*
G37*
G36*
X108193Y82074D02*
X107334Y81903D01*
X106607Y81417D01*
X106121Y80689D01*
X105950Y79831D01*
X106121Y78972D01*
X106607Y78245D01*
X107334Y77758D01*
X108193Y77588D01*
X109051Y77758D01*
X109779Y78245D01*
X110265Y78972D01*
X110436Y79831D01*
X110265Y80689D01*
X109779Y81417D01*
X109051Y81903D01*
X108193Y82074D01*
D02*
G37*
G36*
X44930Y114818D02*
X44228Y114678D01*
X43632Y114280D01*
X43234Y113685D01*
X43095Y112983D01*
X43234Y112280D01*
X43632Y111685D01*
X44228Y111287D01*
X44930Y111147D01*
X45632Y111287D01*
X46228Y111685D01*
X46626Y112280D01*
X46765Y112983D01*
X46626Y113685D01*
X46228Y114280D01*
X45632Y114678D01*
X44930Y114818D01*
D02*
G37*
G36*
X63990Y115165D02*
X63287Y115026D01*
X62692Y114628D01*
X62294Y114032D01*
X62154Y113330D01*
X62294Y112628D01*
X62692Y112032D01*
X62771Y111979D01*
X62698Y111870D01*
X62558Y111167D01*
X62698Y110465D01*
X63096Y109870D01*
X63691Y109472D01*
X64394Y109332D01*
X65096Y109472D01*
X65691Y109870D01*
X66089Y110465D01*
X66229Y111167D01*
X66089Y111870D01*
X65691Y112465D01*
X65612Y112518D01*
X65685Y112628D01*
X65825Y113330D01*
X65685Y114032D01*
X65287Y114628D01*
X64692Y115026D01*
X63990Y115165D01*
D02*
G37*
G36*
X80755Y110151D02*
X80052Y110012D01*
X79457Y109614D01*
X79059Y109019D01*
X78919Y108316D01*
X79059Y107614D01*
X79457Y107018D01*
X80052Y106621D01*
X80755Y106481D01*
X81457Y106621D01*
X82052Y107018D01*
X82450Y107614D01*
X82590Y108316D01*
X82450Y109019D01*
X82052Y109614D01*
X81457Y110012D01*
X80755Y110151D01*
D02*
G37*
G36*
X49236Y119399D02*
X48533Y119260D01*
X47938Y118862D01*
X47540Y118266D01*
X47400Y117564D01*
X47540Y116862D01*
X47938Y116267D01*
X48533Y115869D01*
X49236Y115729D01*
X49938Y115869D01*
X50533Y116267D01*
X50931Y116862D01*
X51071Y117564D01*
X50931Y118266D01*
X50533Y118862D01*
X49938Y119260D01*
X49236Y119399D01*
D02*
G37*
G36*
X27652Y121227D02*
X26949Y121088D01*
X26354Y120690D01*
X25956Y120095D01*
X25816Y119392D01*
X25956Y118690D01*
X26354Y118095D01*
X26949Y117697D01*
X27652Y117557D01*
X28354Y117697D01*
X28949Y118095D01*
X29347Y118690D01*
X29487Y119392D01*
X29347Y120095D01*
X28949Y120690D01*
X28354Y121088D01*
X27652Y121227D01*
D02*
G37*
G36*
X75652Y119627D02*
X74949Y119488D01*
X74354Y119090D01*
X73956Y118494D01*
X73816Y117792D01*
X73956Y117090D01*
X74354Y116495D01*
X74949Y116097D01*
X75652Y115957D01*
X76354Y116097D01*
X76949Y116495D01*
X77347Y117090D01*
X77487Y117792D01*
X77347Y118494D01*
X76949Y119090D01*
X76354Y119488D01*
X75652Y119627D01*
D02*
G37*
G36*
X72730Y107149D02*
X72027Y107010D01*
X71432Y106612D01*
X71034Y106017D01*
X70894Y105314D01*
X71034Y104612D01*
X71432Y104016D01*
X72027Y103619D01*
X72730Y103479D01*
X73432Y103619D01*
X74027Y104016D01*
X74425Y104612D01*
X74565Y105314D01*
X74425Y106017D01*
X74027Y106612D01*
X73432Y107010D01*
X72730Y107149D01*
D02*
G37*
G36*
X16100Y93435D02*
X15398Y93296D01*
X14802Y92898D01*
X14404Y92302D01*
X14265Y91600D01*
X14404Y90898D01*
X14802Y90302D01*
X15398Y89904D01*
X16100Y89765D01*
X16802Y89904D01*
X17398Y90302D01*
X17796Y90898D01*
X17935Y91600D01*
X17796Y92302D01*
X17398Y92898D01*
X16802Y93296D01*
X16100Y93435D01*
D02*
G37*
G36*
X66395Y93335D02*
X65692Y93196D01*
X65097Y92798D01*
X64699Y92202D01*
X64559Y91500D01*
X64699Y90798D01*
X65097Y90202D01*
X65692Y89804D01*
X66395Y89665D01*
X67097Y89804D01*
X67692Y90202D01*
X68090Y90798D01*
X68230Y91500D01*
X68090Y92202D01*
X67692Y92798D01*
X67097Y93196D01*
X66395Y93335D01*
D02*
G37*
G36*
X69620Y99015D02*
X68917Y98876D01*
X68322Y98478D01*
X67924Y97882D01*
X67784Y97180D01*
X67924Y96478D01*
X68322Y95882D01*
X68917Y95485D01*
X69620Y95345D01*
X70322Y95485D01*
X70917Y95882D01*
X71315Y96478D01*
X71455Y97180D01*
X71315Y97882D01*
X70917Y98478D01*
X70322Y98876D01*
X69620Y99015D01*
D02*
G37*
G36*
X233748Y137035D02*
X233046Y136896D01*
X232450Y136498D01*
X232052Y135902D01*
X231913Y135200D01*
X232052Y134498D01*
X232450Y133902D01*
X233046Y133504D01*
X233748Y133365D01*
X234450Y133504D01*
X235046Y133902D01*
X235444Y134498D01*
X235583Y135200D01*
X235444Y135902D01*
X235046Y136498D01*
X234450Y136896D01*
X233748Y137035D01*
D02*
G37*
G36*
X270193Y175666D02*
X269491Y175526D01*
X268895Y175128D01*
X268497Y174533D01*
X268358Y173831D01*
X268497Y173128D01*
X268863Y172581D01*
X268497Y172033D01*
X268358Y171331D01*
X268497Y170628D01*
X268750Y170250D01*
X268497Y169872D01*
X268358Y169169D01*
X268497Y168467D01*
X268895Y167872D01*
X269491Y167474D01*
X270193Y167334D01*
X270895Y167474D01*
X271491Y167872D01*
X271606Y168045D01*
X272106D01*
X272402Y167602D01*
X272998Y167204D01*
X273700Y167064D01*
X274402Y167204D01*
X274998Y167602D01*
X275396Y168197D01*
X275464Y168541D01*
X275888Y168806D01*
X275898Y168804D01*
X275898Y168804D01*
X275898Y168804D01*
X276600Y168664D01*
X277302Y168804D01*
X277898Y169202D01*
X278296Y169797D01*
X278355Y170094D01*
X278402Y170104D01*
X278998Y170501D01*
X279396Y171097D01*
X279535Y171799D01*
X279396Y172502D01*
X278998Y173097D01*
X278402Y173495D01*
X277700Y173635D01*
X276998Y173495D01*
X276402Y173097D01*
X276004Y172502D01*
X275945Y172204D01*
X275898Y172195D01*
X275302Y171797D01*
X275098Y171997D01*
X275098Y171997D01*
X274502Y172395D01*
X273800Y172535D01*
X273098Y172395D01*
X272502Y171997D01*
X272398Y171841D01*
X271907Y171938D01*
X271888Y172033D01*
X271522Y172581D01*
X271888Y173128D01*
X272028Y173831D01*
X271888Y174533D01*
X271491Y175128D01*
X270895Y175526D01*
X270193Y175666D01*
D02*
G37*
G36*
X238350Y174423D02*
X237374Y174229D01*
X236750Y173812D01*
X236125Y174229D01*
X235150Y174423D01*
X234174Y174229D01*
X233347Y173676D01*
X232795Y172850D01*
X232601Y171874D01*
X232795Y170899D01*
X233322Y170110D01*
X233224Y169619D01*
X233198Y169602D01*
X232645Y168775D01*
X232453Y167810D01*
X231963Y167713D01*
X231502Y168402D01*
X231315Y168527D01*
X231234Y168932D01*
X231234D01*
X231234Y168932D01*
X231397Y169751D01*
X231234Y170571D01*
X230770Y171265D01*
X230075Y171729D01*
X229256Y171892D01*
X228437Y171729D01*
X228437Y171729D01*
X228437Y171729D01*
X228376Y171741D01*
X228202Y172002D01*
X227376Y172554D01*
X226400Y172748D01*
X225425Y172554D01*
X224598Y172002D01*
X224045Y171175D01*
X223851Y170199D01*
X224045Y169224D01*
X224504Y168536D01*
X224498Y168502D01*
X224498Y168502D01*
X224498D01*
X223945Y167675D01*
X223751Y166699D01*
X223945Y165724D01*
X224498Y164897D01*
X225325Y164344D01*
X226300Y164150D01*
X227275Y164344D01*
X227925Y164778D01*
X228725Y164244D01*
X229700Y164050D01*
X230676Y164244D01*
X231502Y164797D01*
X232055Y165624D01*
X232247Y166588D01*
X232737Y166686D01*
X233198Y165997D01*
X234025Y165444D01*
X235000Y165250D01*
X235976Y165444D01*
X236802Y165997D01*
X237355Y166824D01*
X237549Y167799D01*
X237355Y168775D01*
X237141Y169094D01*
X237419Y169510D01*
X238350Y169325D01*
X239325Y169519D01*
X240152Y170072D01*
X240705Y170899D01*
X240899Y171874D01*
X240705Y172850D01*
X240152Y173676D01*
X239325Y174229D01*
X238350Y174423D01*
D02*
G37*
G36*
X279430Y155681D02*
X278689Y155533D01*
X278384Y155330D01*
X278171Y155472D01*
X277430Y155620D01*
X276689Y155472D01*
X276060Y155052D01*
X275640Y154424D01*
X275493Y153683D01*
X275640Y152941D01*
X276060Y152313D01*
X276689Y151893D01*
X277430Y151745D01*
X278171Y151893D01*
X278475Y152096D01*
X278689Y151953D01*
X279430Y151806D01*
X280171Y151953D01*
X280800Y152374D01*
X281220Y153002D01*
X281367Y153743D01*
X281220Y154485D01*
X280800Y155113D01*
X280171Y155533D01*
X279430Y155681D01*
D02*
G37*
G36*
X296895Y149635D02*
X296192Y149496D01*
X295597Y149098D01*
X295199Y148502D01*
X295059Y147800D01*
X295199Y147098D01*
X295597Y146502D01*
X296192Y146104D01*
X296895Y145965D01*
X297597Y146104D01*
X298192Y146502D01*
X298590Y147098D01*
X298730Y147800D01*
X298590Y148502D01*
X298192Y149098D01*
X297597Y149496D01*
X296895Y149635D01*
D02*
G37*
G36*
X279248Y150735D02*
X278546Y150596D01*
X277950Y150198D01*
X277553Y149602D01*
X277427Y148974D01*
X276947Y148878D01*
X276352Y148480D01*
X275954Y147885D01*
X275814Y147183D01*
X275954Y146480D01*
X276352Y145885D01*
X276947Y145487D01*
X277650Y145347D01*
X278352Y145487D01*
X278515Y145596D01*
X279076Y145221D01*
X279779Y145081D01*
X280481Y145221D01*
X281076Y145619D01*
X281474Y146214D01*
X281614Y146916D01*
X281474Y147619D01*
X281076Y148214D01*
X280962Y148291D01*
X281083Y148900D01*
X280944Y149602D01*
X280546Y150198D01*
X279950Y150596D01*
X279248Y150735D01*
D02*
G37*
G36*
X256800Y117134D02*
X256098Y116995D01*
X255850Y116829D01*
X255602Y116995D01*
X254900Y117134D01*
X254198Y116995D01*
X253602Y116597D01*
X253204Y116001D01*
X253065Y115299D01*
X253134Y114952D01*
X252902Y114797D01*
X252504Y114201D01*
X252365Y113499D01*
X252504Y112797D01*
X252902Y112201D01*
X253498Y111804D01*
X254200Y111664D01*
X254902Y111804D01*
X255050Y111902D01*
X255198Y111804D01*
X255900Y111664D01*
X256602Y111804D01*
X256750Y111902D01*
X256898Y111804D01*
X257600Y111664D01*
X258302Y111804D01*
X258898Y112201D01*
X259296Y112797D01*
X259435Y113499D01*
X259296Y114201D01*
X258898Y114797D01*
X258578Y115011D01*
X258635Y115299D01*
X258496Y116001D01*
X258098Y116597D01*
X257502Y116995D01*
X256800Y117134D01*
D02*
G37*
%LPD*%
D10*
X27905Y10894D02*
G03*
X28400Y12089I-1195J1195D01*
G01*
D02*
G03*
X28895Y10894I1690J0D01*
G01*
X31400Y10399D02*
G03*
X30905Y11594I-1690J0D01*
G01*
X30905Y11594D02*
G03*
X32100Y11099I1195J1195D01*
G01*
X190433Y121865D02*
G03*
X191115Y121583I683J683D01*
G01*
D02*
G03*
X190433Y121300I0J-966D01*
G01*
X190750Y108583D02*
G03*
X191033Y107900I966J0D01*
G01*
X191033Y107900D02*
G03*
X190350Y108183I-683J-683D01*
G01*
X57976Y35828D02*
G03*
X58471Y34633I1690J0D01*
G01*
X58471Y34633D02*
G03*
X57276Y35128I-1195J-1195D01*
G01*
X56543Y33895D02*
G03*
X57738Y33400I1195J1195D01*
G01*
D02*
G03*
X56543Y32905I0J-1690D01*
G01*
X302102Y103454D02*
G03*
X302955Y103100I854J854D01*
G01*
D02*
G03*
X302102Y102746I0J-1207D01*
G01*
X307380Y103769D02*
G03*
X306526Y103415I0J-1207D01*
G01*
X306526Y103415D02*
G03*
X306879Y104269I-854J854D01*
G01*
X319197Y180849D02*
G03*
X318514Y180566I0J-966D01*
G01*
X318514Y180566D02*
G03*
X318797Y181249I-683J683D01*
G01*
X325465Y180217D02*
G03*
X324782Y180500I-683J-683D01*
G01*
D02*
G03*
X325465Y180783I0J966D01*
G01*
X277193Y99884D02*
G03*
X278046Y100237I0J1207D01*
G01*
X278046Y100237D02*
G03*
X277693Y99383I854J-854D01*
G01*
X277193Y98883D02*
G03*
X276339Y98530I0J-1207D01*
G01*
X276339Y98530D02*
G03*
X276693Y99383I-854J854D01*
G01*
X190433Y124065D02*
G03*
X191115Y123783I683J683D01*
G01*
D02*
G03*
X190433Y123500I0J-966D01*
G01*
X136779Y21212D02*
G03*
X137450Y22831I-1618J1618D01*
G01*
X137567Y23114D02*
G03*
X137850Y23796I-683J683D01*
G01*
D02*
G03*
X138133Y23114I966J0D01*
G01*
X217576Y41166D02*
G03*
X218983Y40584I1407J1407D01*
G01*
X146976Y24748D02*
G03*
X146693Y24065I683J-683D01*
G01*
D02*
G03*
X146410Y24748I-966J0D01*
G01*
X153593Y106331D02*
G03*
X153876Y105648I966J0D01*
G01*
X153876Y105648D02*
G03*
X153193Y105931I-683J-683D01*
G01*
X155550Y106983D02*
G03*
X155833Y106300I966J0D01*
G01*
X155833Y106300D02*
G03*
X155150Y106583I-683J-683D01*
G01*
X144976Y24748D02*
G03*
X144693Y24065I683J-683D01*
G01*
D02*
G03*
X144410Y24748I-966J0D01*
G01*
X192167Y109565D02*
G03*
X192450Y110248I-683J683D01*
G01*
D02*
G03*
X192733Y109565I966J0D01*
G01*
X280896Y100629D02*
G03*
X280043Y100983I-854J-854D01*
G01*
D02*
G03*
X280896Y101336I0J1207D01*
G01*
X219276Y42466D02*
G03*
X219959Y42184I683J683D01*
G01*
D02*
G03*
X219276Y41901I0J-966D01*
G01*
X303148Y129200D02*
G03*
X302465Y128917I0J-966D01*
G01*
X302465Y128917D02*
G03*
X302748Y129600I-683J683D01*
G01*
X303148Y130000D02*
G03*
X303831Y130283I0J966D01*
G01*
X303831Y130283D02*
G03*
X303548Y129600I683J-683D01*
G01*
X303248Y131700D02*
G03*
X302565Y131417I0J-966D01*
G01*
X302565Y131417D02*
G03*
X302848Y132100I-683J683D01*
G01*
X303248Y132500D02*
G03*
X303931Y132783I0J966D01*
G01*
X303931Y132783D02*
G03*
X303648Y132100I683J-683D01*
G01*
X134408Y21042D02*
G03*
X135150Y22831I-1789J1789D01*
G01*
X135267Y23114D02*
G03*
X135550Y23796I-683J683D01*
G01*
D02*
G03*
X135833Y23114I966J0D01*
G01*
X27905Y10894D02*
G03*
X28400Y12089I-1195J1195D01*
G01*
D02*
G03*
X28895Y10894I1690J0D01*
G01*
X31400Y10399D02*
G03*
X30905Y11594I-1690J0D01*
G01*
X30905Y11594D02*
G03*
X32100Y11099I1195J1195D01*
G01*
X190433Y121865D02*
G03*
X191115Y121583I683J683D01*
G01*
D02*
G03*
X190433Y121300I0J-966D01*
G01*
X190750Y108583D02*
G03*
X191033Y107900I966J0D01*
G01*
X191033Y107900D02*
G03*
X190350Y108183I-683J-683D01*
G01*
X57976Y35828D02*
G03*
X58471Y34633I1690J0D01*
G01*
X58471Y34633D02*
G03*
X57276Y35128I-1195J-1195D01*
G01*
X56543Y33895D02*
G03*
X57738Y33400I1195J1195D01*
G01*
D02*
G03*
X56543Y32905I0J-1690D01*
G01*
X302102Y103454D02*
G03*
X302955Y103100I854J854D01*
G01*
D02*
G03*
X302102Y102746I0J-1207D01*
G01*
X307380Y103769D02*
G03*
X306526Y103415I0J-1207D01*
G01*
X306526Y103415D02*
G03*
X306879Y104269I-854J854D01*
G01*
X319197Y180849D02*
G03*
X318514Y180566I0J-966D01*
G01*
X318514Y180566D02*
G03*
X318797Y181249I-683J683D01*
G01*
X325465Y180217D02*
G03*
X324782Y180500I-683J-683D01*
G01*
D02*
G03*
X325465Y180783I0J966D01*
G01*
X277193Y99884D02*
G03*
X278046Y100237I0J1207D01*
G01*
X278046Y100237D02*
G03*
X277693Y99383I854J-854D01*
G01*
X277193Y98883D02*
G03*
X276339Y98530I0J-1207D01*
G01*
X276339Y98530D02*
G03*
X276693Y99383I-854J854D01*
G01*
X190433Y124065D02*
G03*
X191115Y123783I683J683D01*
G01*
D02*
G03*
X190433Y123500I0J-966D01*
G01*
X136779Y21212D02*
G03*
X137450Y22831I-1618J1618D01*
G01*
X137567Y23114D02*
G03*
X137850Y23796I-683J683D01*
G01*
D02*
G03*
X138133Y23114I966J0D01*
G01*
X217576Y41166D02*
G03*
X218983Y40584I1407J1407D01*
G01*
X146976Y24748D02*
G03*
X146693Y24065I683J-683D01*
G01*
D02*
G03*
X146410Y24748I-966J0D01*
G01*
X153593Y106331D02*
G03*
X153876Y105648I966J0D01*
G01*
X153876Y105648D02*
G03*
X153193Y105931I-683J-683D01*
G01*
X155550Y106983D02*
G03*
X155833Y106300I966J0D01*
G01*
X155833Y106300D02*
G03*
X155150Y106583I-683J-683D01*
G01*
X144976Y24748D02*
G03*
X144693Y24065I683J-683D01*
G01*
D02*
G03*
X144410Y24748I-966J0D01*
G01*
X192167Y109565D02*
G03*
X192450Y110248I-683J683D01*
G01*
D02*
G03*
X192733Y109565I966J0D01*
G01*
X280896Y100629D02*
G03*
X280043Y100983I-854J-854D01*
G01*
D02*
G03*
X280896Y101336I0J1207D01*
G01*
X219276Y42466D02*
G03*
X219959Y42184I683J683D01*
G01*
D02*
G03*
X219276Y41901I0J-966D01*
G01*
X303148Y129200D02*
G03*
X302465Y128917I0J-966D01*
G01*
X302465Y128917D02*
G03*
X302748Y129600I-683J683D01*
G01*
X303148Y130000D02*
G03*
X303831Y130283I0J966D01*
G01*
X303831Y130283D02*
G03*
X303548Y129600I683J-683D01*
G01*
X303248Y131700D02*
G03*
X302565Y131417I0J-966D01*
G01*
X302565Y131417D02*
G03*
X302848Y132100I-683J683D01*
G01*
X303248Y132500D02*
G03*
X303931Y132783I0J966D01*
G01*
X303931Y132783D02*
G03*
X303648Y132100I683J-683D01*
G01*
X134408Y21042D02*
G03*
X135150Y22831I-1789J1789D01*
G01*
X135267Y23114D02*
G03*
X135550Y23796I-683J683D01*
G01*
D02*
G03*
X135833Y23114I966J0D01*
G01*
X135550Y22183D02*
Y22831D01*
Y27883D01*
X133450Y20083D02*
X135550Y22183D01*
Y27883D02*
X138850Y31183D01*
X137850Y22283D02*
Y22831D01*
X159993Y36331D02*
Y86052D01*
X158793Y36828D02*
Y85555D01*
X157630Y88415D02*
Y104502D01*
Y88415D02*
X159993Y86052D01*
X153645Y29983D02*
X159993Y36331D01*
X139702Y29983D02*
X153645D01*
X156250Y88098D02*
Y103274D01*
X138850Y31183D02*
X153148D01*
X158793Y36828D01*
X156250Y88098D02*
X158793Y85555D01*
X303148Y129600D02*
X305748Y132200D01*
X303248Y132100D02*
X304548Y133400D01*
X299231Y128083D02*
X303248Y132100D01*
X300431Y126883D02*
X303148Y129600D01*
X218993Y42184D02*
X222190D01*
X217593Y40584D02*
X222288D01*
X238241Y45230D02*
X260093Y67082D01*
X226934Y45230D02*
X238241D01*
X226490Y46483D02*
X237797D01*
X279660Y100983D02*
X281250D01*
X237797Y46483D02*
X258893Y67579D01*
X222190Y42184D02*
X226490Y46483D01*
X217293Y40883D02*
X217593Y40584D01*
X222288D02*
X226934Y45230D01*
X279660Y99394D02*
Y100983D01*
X277450Y97184D02*
X279660Y99394D01*
X192450Y109283D02*
Y120983D01*
X191850Y121583D02*
X192450Y120983D01*
X194150Y108183D02*
Y121383D01*
X190150Y123783D02*
X191750D01*
X146693Y23183D02*
Y25031D01*
X144693Y22881D02*
Y25031D01*
X137850Y22831D02*
Y28131D01*
X134450Y18883D02*
X137850Y22283D01*
X139495Y17683D02*
X144693Y22881D01*
X139992Y16483D02*
X146693Y23183D01*
X32313Y29631D02*
X60080D01*
X72028Y17683D02*
X139495D01*
X60080Y29631D02*
X72028Y17683D01*
X32810Y28431D02*
X59583D01*
X71531Y16483D01*
X139992D01*
X137850Y28131D02*
X139702Y29983D01*
X153193Y106331D02*
X156250Y103274D01*
X155150Y106983D02*
X157630Y104502D01*
X277193Y99383D02*
X278460Y100651D01*
X274309Y96500D02*
X277193Y99383D01*
X321048Y180500D02*
X325748D01*
X304548Y166600D02*
X319197Y181249D01*
X305748Y166103D02*
X318895Y179250D01*
X319798D02*
X321048Y180500D01*
X318895Y179250D02*
X319798D01*
X301748Y103100D02*
X306211D01*
X307380Y104269D01*
X279660Y100983D02*
Y114912D01*
X291631Y126883D01*
X300431D01*
X278460Y100651D02*
Y115412D01*
X291131Y128083D01*
X299231D01*
X73022Y20083D02*
X133450D01*
X57276Y35828D02*
X73022Y20083D01*
X58008Y33400D02*
X72525Y18883D01*
X56048Y33400D02*
X58008D01*
X72525Y18883D02*
X134450D01*
X191450Y107483D02*
X193450D01*
X194150Y108183D01*
X190350Y108583D02*
X191450Y107483D01*
X191750Y123783D02*
X194150Y121383D01*
X190150Y121583D02*
X191850D01*
X260093Y67082D02*
Y83945D01*
X277450Y97184D02*
Y97236D01*
X278673Y98459D01*
X258893Y67579D02*
Y84442D01*
X275514Y95300D02*
X277450Y97236D01*
X271448Y95300D02*
X275514D01*
X260093Y83945D02*
X271448Y95300D01*
X270951Y96500D02*
X274309D01*
X258893Y84442D02*
X270951Y96500D01*
X305748Y132200D02*
Y166103D01*
X304548Y133400D02*
Y166600D01*
X28400Y10399D02*
Y25717D01*
X32313Y29631D01*
X29600Y12899D02*
Y25220D01*
Y12899D02*
X32100Y10399D01*
X29600Y25220D02*
X32810Y28431D01*
D11*
X192611Y132870D02*
G03*
X191672Y133259I-939J-939D01*
G01*
D02*
G03*
X192611Y133648I0J1328D01*
G01*
X202200Y135974D02*
G03*
X202553Y135122I1206J0D01*
G01*
X202675Y134999D02*
G03*
X201650Y135424I-1025J-1025D01*
G01*
X246965Y36049D02*
G03*
X246026Y35660I0J-1328D01*
G01*
D02*
G03*
X246415Y36599I-939J939D01*
G01*
X152448Y166050D02*
G03*
X151565Y165699I-36J-1197D01*
G01*
X151565Y165699D02*
G03*
X151915Y166583I-847J847D01*
G01*
X169715Y165599D02*
G03*
X169326Y166538I-1328J0D01*
G01*
D02*
G03*
X170265Y166149I939J939D01*
G01*
X165654Y164488D02*
G03*
X166592Y164099I939J939D01*
G01*
D02*
G03*
X165654Y163710I0J-1328D01*
G01*
X172337Y167189D02*
G03*
X173249Y166811I912J912D01*
G01*
X173302D02*
G03*
X172337Y166411I0J-1365D01*
G01*
X188461Y157785D02*
G03*
X187522Y158174I-939J-939D01*
G01*
D02*
G03*
X188461Y158563I0J1328D01*
G01*
X190061Y145985D02*
G03*
X189122Y146374I-939J-939D01*
G01*
D02*
G03*
X190061Y146763I0J1328D01*
G01*
X188671Y144375D02*
G03*
X187732Y144764I-939J-939D01*
G01*
D02*
G03*
X188671Y145153I0J1328D01*
G01*
X166880Y25031D02*
G03*
X166491Y25970I-1328J0D01*
G01*
D02*
G03*
X167430Y25581I939J939D01*
G01*
X168641Y23220D02*
G03*
X169030Y24159I-939J939D01*
G01*
D02*
G03*
X169419Y23220I1328J0D01*
G01*
X170241Y25420D02*
G03*
X170630Y26359I-939J939D01*
G01*
D02*
G03*
X171019Y25420I1328J0D01*
G01*
X171841Y23220D02*
G03*
X172230Y24159I-939J939D01*
G01*
D02*
G03*
X172619Y23220I1328J0D01*
G01*
X173341Y25420D02*
G03*
X173730Y26359I-939J939D01*
G01*
D02*
G03*
X174119Y25420I1328J0D01*
G01*
X191304Y23442D02*
G03*
X190365Y23831I-939J-939D01*
G01*
D02*
G03*
X191304Y24220I0J1328D01*
G01*
X174941Y23220D02*
G03*
X175330Y24159I-939J939D01*
G01*
D02*
G03*
X175719Y23220I1328J0D01*
G01*
X155137Y163289D02*
G03*
X156076Y162900I939J939D01*
G01*
D02*
G03*
X155137Y162511I0J-1328D01*
G01*
Y160189D02*
G03*
X156076Y159800I939J939D01*
G01*
D02*
G03*
X155137Y159411I0J-1328D01*
G01*
X147037Y161911D02*
G03*
X146648Y160972I939J-939D01*
G01*
D02*
G03*
X146259Y161911I-1328J0D01*
G01*
X161537Y122389D02*
G03*
X162476Y122000I939J939D01*
G01*
D02*
G03*
X161537Y121611I0J-1328D01*
G01*
X156398Y117400D02*
G03*
X156787Y116461I1328J0D01*
G01*
D02*
G03*
X155848Y116850I-939J-939D01*
G01*
X155298Y117400D02*
G03*
X154909Y118339I-1328J0D01*
G01*
D02*
G03*
X155848Y117950I939J939D01*
G01*
X233748Y124850D02*
G03*
X232980Y124532I0J-1086D01*
G01*
X232738Y124290D02*
G03*
X233198Y125400I-1110J1110D01*
G01*
X275648Y91850D02*
G03*
X274538Y91390I0J-1569D01*
G01*
D02*
G03*
X274998Y92500I-1110J1110D01*
G01*
X221898Y94200D02*
G03*
X221297Y95651I-2052J0D01*
G01*
D02*
G03*
X222748Y95050I1451J1451D01*
G01*
X221674Y95036D02*
G03*
X222718Y94053I1318J353D01*
G01*
X222895Y94230D02*
G03*
X221912Y95274I-1336J-274D01*
G01*
X230600Y24752D02*
G03*
X231610Y24333I1010J1010D01*
G01*
X231467D02*
G03*
X230600Y23974I0J-1227D01*
G01*
X312098Y179700D02*
G03*
X311497Y181151I-2052J0D01*
G01*
D02*
G03*
X312948Y180550I1451J1451D01*
G01*
X311874Y180536D02*
G03*
X312918Y179553I1318J353D01*
G01*
X313095Y179730D02*
G03*
X312112Y180774I-1336J-274D01*
G01*
X270488Y33640D02*
G03*
X269379Y34100I-1110J-1110D01*
G01*
D02*
G03*
X270488Y34560I0J1569D01*
G01*
X192611Y130650D02*
G03*
X191672Y131039I-939J-939D01*
G01*
D02*
G03*
X192611Y131428I0J1328D01*
G01*
Y135090D02*
G03*
X191672Y135479I-939J-939D01*
G01*
D02*
G03*
X192611Y135868I0J1328D01*
G01*
X116080Y22583D02*
G03*
X115691Y23522I-1328J0D01*
G01*
D02*
G03*
X116630Y23133I939J939D01*
G01*
X113741Y22972D02*
G03*
X114130Y23911I-939J939D01*
G01*
D02*
G03*
X114519Y22972I1328J0D01*
G01*
X130804Y24720D02*
G03*
X131193Y25659I-939J939D01*
G01*
D02*
G03*
X131582Y24720I1328J0D01*
G01*
X264404Y80372D02*
G03*
X264793Y81311I-939J939D01*
G01*
D02*
G03*
X265182Y80372I1328J0D01*
G01*
X208430Y29033D02*
G03*
X209369Y29422I0J1328D01*
G01*
D02*
G03*
X208980Y28483I939J-939D01*
G01*
X177304Y23220D02*
G03*
X177693Y24159I-939J939D01*
G01*
D02*
G03*
X178082Y23220I1328J0D01*
G01*
X148304Y25420D02*
G03*
X148693Y26359I-939J939D01*
G01*
D02*
G03*
X149082Y25420I1328J0D01*
G01*
X192204Y27657D02*
G03*
X191265Y28046I-939J-939D01*
G01*
D02*
G03*
X192204Y28435I0J1328D01*
G01*
X193000Y137149D02*
G03*
X192061Y136760I0J-1328D01*
G01*
D02*
G03*
X192450Y137699I-939J939D01*
G01*
X177743Y135291D02*
G03*
X177814Y134334I591J-437D01*
G01*
X178145Y134994D02*
G03*
X178224Y133924I660J-489D01*
G01*
X177941Y134826D02*
G03*
X177703Y134446I183J-380D01*
G01*
D02*
G03*
X177464Y134826I-422J0D01*
G01*
X174537Y134932D02*
G03*
X174148Y133993I939J-939D01*
G01*
D02*
G03*
X173759Y134932I-1328J0D01*
G01*
X180339Y121685D02*
G03*
X179950Y120746I939J-939D01*
G01*
D02*
G03*
X179561Y121685I-1328J0D01*
G01*
X170935Y121682D02*
G03*
X170550Y120763I902J-919D01*
G01*
D02*
G03*
X170164Y121682I-1287J0D01*
G01*
X122334Y92224D02*
G03*
X121448Y91873I-35J-1202D01*
G01*
X121448Y91873D02*
G03*
X121800Y92758I-850J850D01*
G01*
X72250Y175124D02*
G03*
X73189Y175513I0J1328D01*
G01*
D02*
G03*
X72800Y174574I939J-939D01*
G01*
X203000Y164799D02*
G03*
X202061Y164410I0J-1328D01*
G01*
D02*
G03*
X202450Y165349I-939J939D01*
G01*
X152465Y168550D02*
G03*
X151526Y168161I0J-1328D01*
G01*
D02*
G03*
X151915Y169100I-939J939D01*
G01*
X201550Y148724D02*
G03*
X200611Y148335I0J-1328D01*
G01*
D02*
G03*
X201000Y149274I-939J939D01*
G01*
X191411Y147610D02*
G03*
X190472Y147999I-939J-939D01*
G01*
D02*
G03*
X191411Y148388I0J1328D01*
G01*
X191238Y153763D02*
G03*
X192177Y153374I939J939D01*
G01*
D02*
G03*
X191238Y152985I0J-1328D01*
G01*
X203000Y166949D02*
G03*
X202061Y166560I0J-1328D01*
G01*
D02*
G03*
X202450Y167499I-939J939D01*
G01*
X201161Y158085D02*
G03*
X200222Y158474I-939J-939D01*
G01*
D02*
G03*
X201161Y158863I0J1328D01*
G01*
Y155885D02*
G03*
X200222Y156274I-939J-939D01*
G01*
D02*
G03*
X201161Y156663I0J1328D01*
G01*
X201139Y153808D02*
G03*
X200325Y154174I-814J-724D01*
G01*
D02*
G03*
X201139Y154540I0J1089D01*
G01*
X191238Y155763D02*
G03*
X192177Y155374I939J939D01*
G01*
D02*
G03*
X191238Y154985I0J-1328D01*
G01*
X191266Y157833D02*
G03*
X192050Y157474I783J675D01*
G01*
D02*
G03*
X191266Y157115I0J-1034D01*
G01*
X188461Y154135D02*
G03*
X187522Y154524I-939J-939D01*
G01*
D02*
G03*
X188461Y154913I0J1328D01*
G01*
X191238Y163463D02*
G03*
X192177Y163074I939J939D01*
G01*
D02*
G03*
X191238Y162685I0J-1328D01*
G01*
X178700Y136874D02*
G03*
X178311Y137813I-1328J0D01*
G01*
D02*
G03*
X179250Y137424I939J939D01*
G01*
X202611Y170038D02*
G03*
X203000Y170977I-939J939D01*
G01*
D02*
G03*
X203389Y170038I1328J0D01*
G01*
X203330Y36433D02*
G03*
X204269Y36822I0J1328D01*
G01*
D02*
G03*
X203880Y35883I939J-939D01*
G01*
X198514Y42209D02*
G03*
X199150Y43743I-1534J1534D01*
G01*
X198161Y42563D02*
G03*
X199150Y44950I-2387J2387D01*
G01*
X198442Y42713D02*
G03*
X199062Y43158I-181J906D01*
G01*
X199062Y43158D02*
G03*
X199041Y42421I671J-387D01*
G01*
X198515Y43177D02*
G03*
X198589Y42205I748J-432D01*
G01*
X198881Y43811D02*
G03*
X198979Y42518I996J-575D01*
G01*
X199556Y40971D02*
G03*
X200050Y42164I-1193J1193D01*
G01*
Y41656D02*
G03*
X200333Y40971I969J0D01*
G01*
X197193Y44381D02*
G03*
X198132Y44770I0J1328D01*
G01*
D02*
G03*
X197743Y43831I939J-939D01*
G01*
X191304Y25568D02*
G03*
X190365Y25957I-939J-939D01*
G01*
D02*
G03*
X191304Y26346I0J1328D01*
G01*
X153719Y23220D02*
G03*
X154658Y22831I939J939D01*
G01*
D02*
G03*
X153719Y22442I0J-1328D01*
G01*
X155437Y112411D02*
G03*
X155048Y111472I939J-939D01*
G01*
D02*
G03*
X154659Y112411I-1328J0D01*
G01*
X201530Y37933D02*
G03*
X202469Y38322I0J1328D01*
G01*
D02*
G03*
X202080Y37383I939J-939D01*
G01*
X205230Y34833D02*
G03*
X206169Y35222I0J1328D01*
G01*
D02*
G03*
X205780Y34283I939J-939D01*
G01*
X153898Y111300D02*
G03*
X154287Y110361I1328J0D01*
G01*
D02*
G03*
X153348Y110750I-939J-939D01*
G01*
X193693Y47381D02*
G03*
X194632Y47770I0J1328D01*
G01*
D02*
G03*
X194243Y46831I939J-939D01*
G01*
X195193Y45881D02*
G03*
X196132Y46270I0J1328D01*
G01*
D02*
G03*
X195743Y45331I939J-939D01*
G01*
X192193Y48881D02*
G03*
X193132Y49270I0J1328D01*
G01*
D02*
G03*
X192743Y48331I939J-939D01*
G01*
X72800Y178074D02*
G03*
X73189Y177135I1328J0D01*
G01*
D02*
G03*
X72250Y177524I-939J-939D01*
G01*
X206530Y33233D02*
G03*
X207469Y33622I0J1328D01*
G01*
D02*
G03*
X207080Y32683I939J-939D01*
G01*
X208095Y31218D02*
G03*
X208750Y32800I-1581J1581D01*
G01*
X207741Y31572D02*
G03*
X208750Y34007I-2435J2435D01*
G01*
X208010Y31719D02*
G03*
X208659Y32196I-218J978D01*
G01*
X208660Y32196D02*
G03*
X208627Y31418I728J-420D01*
G01*
X208105Y32202D02*
G03*
X208170Y31213I772J-446D01*
G01*
X208479Y32850D02*
G03*
X208566Y31517I1040J-601D01*
G01*
X149741Y23220D02*
G03*
X150143Y24190I-970J970D01*
G01*
Y24127D02*
G03*
X150519Y23220I1283J0D01*
G01*
X173239Y121694D02*
G03*
X172850Y120755I939J-939D01*
G01*
D02*
G03*
X172461Y121694I-1328J0D01*
G01*
X178039Y121685D02*
G03*
X177650Y120746I939J-939D01*
G01*
D02*
G03*
X177261Y121685I-1328J0D01*
G01*
X182538D02*
G03*
X182150Y120746I939J-939D01*
G01*
D02*
G03*
X181761Y121685I-1328J0D01*
G01*
X187338Y121694D02*
G03*
X186950Y120755I939J-939D01*
G01*
D02*
G03*
X186561Y121694I-1328J0D01*
G01*
X192611Y128430D02*
G03*
X191672Y128819I-939J-939D01*
G01*
D02*
G03*
X192611Y129208I0J1328D01*
G01*
Y126210D02*
G03*
X191672Y126599I-939J-939D01*
G01*
D02*
G03*
X192611Y126988I0J1328D01*
G01*
X202039Y131585D02*
G03*
X201650Y130646I939J-939D01*
G01*
D02*
G03*
X201261Y131585I-1328J0D01*
G01*
X202200Y142274D02*
G03*
X202589Y141335I1328J0D01*
G01*
D02*
G03*
X201650Y141724I-939J-939D01*
G01*
X202200Y139974D02*
G03*
X202518Y139206I1086J0D01*
G01*
X202759Y138964D02*
G03*
X201650Y139424I-1110J-1110D01*
G01*
X202200Y133974D02*
G03*
X202553Y133122I1206J0D01*
G01*
X202675Y132999D02*
G03*
X201650Y133424I-1025J-1025D01*
G01*
X164824Y167870D02*
G03*
X164165Y168200I-659J-494D01*
G01*
D02*
G03*
X164824Y168530I0J823D01*
G01*
Y167870D02*
G03*
X164165Y168200I-659J-494D01*
G01*
X164165D02*
G03*
X164824Y168530I0J823D01*
G01*
X152076Y171211D02*
G03*
X151137Y171600I-939J-939D01*
G01*
D02*
G03*
X152076Y171989I0J1328D01*
G01*
Y171211D02*
G03*
X151137Y171600I-939J-939D01*
G01*
X151137D02*
G03*
X152076Y171989I0J1328D01*
G01*
X155137Y168389D02*
G03*
X156076Y168000I939J939D01*
G01*
D02*
G03*
X155137Y167611I0J-1328D01*
G01*
Y158112D02*
G03*
X155891Y157800I754J754D01*
G01*
X156261D02*
G03*
X155137Y157335I0J-1589D01*
G01*
Y156036D02*
G03*
X156076Y155647I939J939D01*
G01*
D02*
G03*
X155137Y155258I0J-1328D01*
G01*
X170948Y137350D02*
G03*
X171887Y137739I0J1328D01*
G01*
D02*
G03*
X171498Y136800I939J-939D01*
G01*
X144537Y161911D02*
G03*
X144154Y160986I925J-925D01*
G01*
Y160958D02*
G03*
X143759Y161911I-1348J0D01*
G01*
X151730Y24581D02*
G03*
X152658Y24965I0J1313D01*
G01*
X151730Y25081D02*
G03*
X153512Y25819I0J2520D01*
G01*
X151730Y25581D02*
G03*
X154365Y26672I0J3727D01*
G01*
X152196Y25323D02*
G03*
X152724Y25031I528J331D01*
G01*
D02*
G03*
X152196Y24739I0J-623D01*
G01*
X152005Y25507D02*
G03*
X152887Y25391I581J1007D01*
G01*
X153070Y25440D02*
G03*
X152212Y24766I359J-1342D01*
G01*
X152948Y25907D02*
G03*
X151773Y25006I501J-1869D01*
G01*
X138965Y173059D02*
G03*
X139748Y172700I783J675D01*
G01*
D02*
G03*
X138965Y172341I0J-1034D01*
G01*
X140437Y157211D02*
G03*
X140048Y156272I939J-939D01*
G01*
D02*
G03*
X139659Y157211I-1328J0D01*
G01*
X132441Y23220D02*
G03*
X132830Y24159I-939J939D01*
G01*
D02*
G03*
X133219Y23220I1328J0D01*
G01*
X192611Y132870D02*
G03*
X191672Y133259I-939J-939D01*
G01*
D02*
G03*
X192611Y133648I0J1328D01*
G01*
X202200Y135974D02*
G03*
X202553Y135122I1206J0D01*
G01*
X202675Y134999D02*
G03*
X201650Y135424I-1025J-1025D01*
G01*
X246965Y36049D02*
G03*
X246026Y35660I0J-1328D01*
G01*
D02*
G03*
X246415Y36599I-939J939D01*
G01*
X152448Y166050D02*
G03*
X151565Y165699I-36J-1197D01*
G01*
X151565Y165699D02*
G03*
X151915Y166583I-847J847D01*
G01*
X169715Y165599D02*
G03*
X169326Y166538I-1328J0D01*
G01*
D02*
G03*
X170265Y166149I939J939D01*
G01*
X165654Y164488D02*
G03*
X166592Y164099I939J939D01*
G01*
D02*
G03*
X165654Y163710I0J-1328D01*
G01*
X172337Y167189D02*
G03*
X173249Y166811I912J912D01*
G01*
X173302D02*
G03*
X172337Y166411I0J-1365D01*
G01*
X188461Y157785D02*
G03*
X187522Y158174I-939J-939D01*
G01*
D02*
G03*
X188461Y158563I0J1328D01*
G01*
X190061Y145985D02*
G03*
X189122Y146374I-939J-939D01*
G01*
D02*
G03*
X190061Y146763I0J1328D01*
G01*
X188671Y144375D02*
G03*
X187732Y144764I-939J-939D01*
G01*
D02*
G03*
X188671Y145153I0J1328D01*
G01*
X166880Y25031D02*
G03*
X166491Y25970I-1328J0D01*
G01*
D02*
G03*
X167430Y25581I939J939D01*
G01*
X168641Y23220D02*
G03*
X169030Y24159I-939J939D01*
G01*
D02*
G03*
X169419Y23220I1328J0D01*
G01*
X170241Y25420D02*
G03*
X170630Y26359I-939J939D01*
G01*
D02*
G03*
X171019Y25420I1328J0D01*
G01*
X171841Y23220D02*
G03*
X172230Y24159I-939J939D01*
G01*
D02*
G03*
X172619Y23220I1328J0D01*
G01*
X173341Y25420D02*
G03*
X173730Y26359I-939J939D01*
G01*
D02*
G03*
X174119Y25420I1328J0D01*
G01*
X191304Y23442D02*
G03*
X190365Y23831I-939J-939D01*
G01*
D02*
G03*
X191304Y24220I0J1328D01*
G01*
X174941Y23220D02*
G03*
X175330Y24159I-939J939D01*
G01*
D02*
G03*
X175719Y23220I1328J0D01*
G01*
X155137Y163289D02*
G03*
X156076Y162900I939J939D01*
G01*
D02*
G03*
X155137Y162511I0J-1328D01*
G01*
Y160189D02*
G03*
X156076Y159800I939J939D01*
G01*
D02*
G03*
X155137Y159411I0J-1328D01*
G01*
X147037Y161911D02*
G03*
X146648Y160972I939J-939D01*
G01*
D02*
G03*
X146259Y161911I-1328J0D01*
G01*
X161537Y122389D02*
G03*
X162476Y122000I939J939D01*
G01*
D02*
G03*
X161537Y121611I0J-1328D01*
G01*
X156398Y117400D02*
G03*
X156787Y116461I1328J0D01*
G01*
D02*
G03*
X155848Y116850I-939J-939D01*
G01*
X155298Y117400D02*
G03*
X154909Y118339I-1328J0D01*
G01*
D02*
G03*
X155848Y117950I939J939D01*
G01*
X233748Y124850D02*
G03*
X232980Y124532I0J-1086D01*
G01*
X232738Y124290D02*
G03*
X233198Y125400I-1110J1110D01*
G01*
X275648Y91850D02*
G03*
X274538Y91390I0J-1569D01*
G01*
D02*
G03*
X274998Y92500I-1110J1110D01*
G01*
X221898Y94200D02*
G03*
X221297Y95651I-2052J0D01*
G01*
D02*
G03*
X222748Y95050I1451J1451D01*
G01*
X230600Y24752D02*
G03*
X231610Y24333I1010J1010D01*
G01*
X231467D02*
G03*
X230600Y23974I0J-1227D01*
G01*
X312098Y179700D02*
G03*
X311497Y181151I-2052J0D01*
G01*
D02*
G03*
X312948Y180550I1451J1451D01*
G01*
X270488Y33640D02*
G03*
X269379Y34100I-1110J-1110D01*
G01*
D02*
G03*
X270488Y34560I0J1569D01*
G01*
X192611Y130650D02*
G03*
X191672Y131039I-939J-939D01*
G01*
D02*
G03*
X192611Y131428I0J1328D01*
G01*
Y135090D02*
G03*
X191672Y135479I-939J-939D01*
G01*
D02*
G03*
X192611Y135868I0J1328D01*
G01*
X116080Y22583D02*
G03*
X115691Y23522I-1328J0D01*
G01*
D02*
G03*
X116630Y23133I939J939D01*
G01*
X113741Y22972D02*
G03*
X114130Y23911I-939J939D01*
G01*
D02*
G03*
X114519Y22972I1328J0D01*
G01*
X130804Y24720D02*
G03*
X131193Y25659I-939J939D01*
G01*
D02*
G03*
X131582Y24720I1328J0D01*
G01*
X264404Y80372D02*
G03*
X264793Y81311I-939J939D01*
G01*
D02*
G03*
X265182Y80372I1328J0D01*
G01*
X208430Y29033D02*
G03*
X209369Y29422I0J1328D01*
G01*
D02*
G03*
X208980Y28483I939J-939D01*
G01*
X177304Y23220D02*
G03*
X177693Y24159I-939J939D01*
G01*
D02*
G03*
X178082Y23220I1328J0D01*
G01*
X148304Y25420D02*
G03*
X148693Y26359I-939J939D01*
G01*
D02*
G03*
X149082Y25420I1328J0D01*
G01*
X192204Y27657D02*
G03*
X191265Y28046I-939J-939D01*
G01*
D02*
G03*
X192204Y28435I0J1328D01*
G01*
X193000Y137149D02*
G03*
X192061Y136760I0J-1328D01*
G01*
D02*
G03*
X192450Y137699I-939J939D01*
G01*
X177743Y135291D02*
G03*
X177814Y134334I591J-437D01*
G01*
X178145Y134994D02*
G03*
X178224Y133924I660J-489D01*
G01*
X177941Y134826D02*
G03*
X177703Y134446I183J-380D01*
G01*
D02*
G03*
X177464Y134826I-422J0D01*
G01*
X174537Y134932D02*
G03*
X174148Y133993I939J-939D01*
G01*
D02*
G03*
X173759Y134932I-1328J0D01*
G01*
X180339Y121685D02*
G03*
X179950Y120746I939J-939D01*
G01*
D02*
G03*
X179561Y121685I-1328J0D01*
G01*
X170935Y121682D02*
G03*
X170550Y120763I902J-919D01*
G01*
D02*
G03*
X170164Y121682I-1287J0D01*
G01*
X122334Y92224D02*
G03*
X121448Y91873I-35J-1202D01*
G01*
X121448Y91873D02*
G03*
X121800Y92758I-850J850D01*
G01*
X72250Y175124D02*
G03*
X73189Y175513I0J1328D01*
G01*
D02*
G03*
X72800Y174574I939J-939D01*
G01*
X203000Y164799D02*
G03*
X202061Y164410I0J-1328D01*
G01*
D02*
G03*
X202450Y165349I-939J939D01*
G01*
X152465Y168550D02*
G03*
X151526Y168161I0J-1328D01*
G01*
D02*
G03*
X151915Y169100I-939J939D01*
G01*
X201550Y148724D02*
G03*
X200611Y148335I0J-1328D01*
G01*
D02*
G03*
X201000Y149274I-939J939D01*
G01*
X191411Y147610D02*
G03*
X190472Y147999I-939J-939D01*
G01*
D02*
G03*
X191411Y148388I0J1328D01*
G01*
X191238Y153763D02*
G03*
X192177Y153374I939J939D01*
G01*
D02*
G03*
X191238Y152985I0J-1328D01*
G01*
X203000Y166949D02*
G03*
X202061Y166560I0J-1328D01*
G01*
D02*
G03*
X202450Y167499I-939J939D01*
G01*
X201161Y158085D02*
G03*
X200222Y158474I-939J-939D01*
G01*
D02*
G03*
X201161Y158863I0J1328D01*
G01*
Y155885D02*
G03*
X200222Y156274I-939J-939D01*
G01*
D02*
G03*
X201161Y156663I0J1328D01*
G01*
X201139Y153808D02*
G03*
X200325Y154174I-814J-724D01*
G01*
D02*
G03*
X201139Y154540I0J1089D01*
G01*
X191238Y155763D02*
G03*
X192177Y155374I939J939D01*
G01*
D02*
G03*
X191238Y154985I0J-1328D01*
G01*
X191266Y157833D02*
G03*
X192050Y157474I783J675D01*
G01*
D02*
G03*
X191266Y157115I0J-1034D01*
G01*
X188461Y154135D02*
G03*
X187522Y154524I-939J-939D01*
G01*
D02*
G03*
X188461Y154913I0J1328D01*
G01*
X191238Y163463D02*
G03*
X192177Y163074I939J939D01*
G01*
D02*
G03*
X191238Y162685I0J-1328D01*
G01*
X178700Y136874D02*
G03*
X178311Y137813I-1328J0D01*
G01*
D02*
G03*
X179250Y137424I939J939D01*
G01*
X202611Y170038D02*
G03*
X203000Y170977I-939J939D01*
G01*
D02*
G03*
X203389Y170038I1328J0D01*
G01*
X203330Y36433D02*
G03*
X204269Y36822I0J1328D01*
G01*
D02*
G03*
X203880Y35883I939J-939D01*
G01*
X198514Y42209D02*
G03*
X199150Y43743I-1534J1534D01*
G01*
X198161Y42563D02*
G03*
X199150Y44950I-2387J2387D01*
G01*
X199556Y40971D02*
G03*
X200050Y42164I-1193J1193D01*
G01*
Y41656D02*
G03*
X200333Y40971I969J0D01*
G01*
X197193Y44381D02*
G03*
X198132Y44770I0J1328D01*
G01*
D02*
G03*
X197743Y43831I939J-939D01*
G01*
X191304Y25568D02*
G03*
X190365Y25957I-939J-939D01*
G01*
D02*
G03*
X191304Y26346I0J1328D01*
G01*
X153719Y23220D02*
G03*
X154658Y22831I939J939D01*
G01*
D02*
G03*
X153719Y22442I0J-1328D01*
G01*
X155437Y112411D02*
G03*
X155048Y111472I939J-939D01*
G01*
D02*
G03*
X154659Y112411I-1328J0D01*
G01*
X201530Y37933D02*
G03*
X202469Y38322I0J1328D01*
G01*
D02*
G03*
X202080Y37383I939J-939D01*
G01*
X205230Y34833D02*
G03*
X206169Y35222I0J1328D01*
G01*
D02*
G03*
X205780Y34283I939J-939D01*
G01*
X153898Y111300D02*
G03*
X154287Y110361I1328J0D01*
G01*
D02*
G03*
X153348Y110750I-939J-939D01*
G01*
X193693Y47381D02*
G03*
X194632Y47770I0J1328D01*
G01*
D02*
G03*
X194243Y46831I939J-939D01*
G01*
X195193Y45881D02*
G03*
X196132Y46270I0J1328D01*
G01*
D02*
G03*
X195743Y45331I939J-939D01*
G01*
X192193Y48881D02*
G03*
X193132Y49270I0J1328D01*
G01*
D02*
G03*
X192743Y48331I939J-939D01*
G01*
X206530Y33233D02*
G03*
X207469Y33622I0J1328D01*
G01*
D02*
G03*
X207080Y32683I939J-939D01*
G01*
X208095Y31218D02*
G03*
X208750Y32800I-1581J1581D01*
G01*
X207741Y31572D02*
G03*
X208750Y34007I-2435J2435D01*
G01*
X149741Y23220D02*
G03*
X150143Y24190I-970J970D01*
G01*
Y24127D02*
G03*
X150519Y23220I1283J0D01*
G01*
X173239Y121694D02*
G03*
X172850Y120755I939J-939D01*
G01*
D02*
G03*
X172461Y121694I-1328J0D01*
G01*
X178039Y121685D02*
G03*
X177650Y120746I939J-939D01*
G01*
D02*
G03*
X177261Y121685I-1328J0D01*
G01*
X182538D02*
G03*
X182150Y120746I939J-939D01*
G01*
D02*
G03*
X181761Y121685I-1328J0D01*
G01*
X187338Y121694D02*
G03*
X186950Y120755I939J-939D01*
G01*
D02*
G03*
X186561Y121694I-1328J0D01*
G01*
X192611Y128430D02*
G03*
X191672Y128819I-939J-939D01*
G01*
D02*
G03*
X192611Y129208I0J1328D01*
G01*
Y126210D02*
G03*
X191672Y126599I-939J-939D01*
G01*
D02*
G03*
X192611Y126988I0J1328D01*
G01*
X202039Y131585D02*
G03*
X201650Y130646I939J-939D01*
G01*
D02*
G03*
X201261Y131585I-1328J0D01*
G01*
X202200Y142274D02*
G03*
X202589Y141335I1328J0D01*
G01*
D02*
G03*
X201650Y141724I-939J-939D01*
G01*
X202200Y139974D02*
G03*
X202518Y139206I1086J0D01*
G01*
X202759Y138964D02*
G03*
X201650Y139424I-1110J-1110D01*
G01*
X202200Y133974D02*
G03*
X202553Y133122I1206J0D01*
G01*
X202675Y132999D02*
G03*
X201650Y133424I-1025J-1025D01*
G01*
X164824Y167870D02*
G03*
X164165Y168200I-659J-494D01*
G01*
D02*
G03*
X164824Y168530I0J823D01*
G01*
Y167870D02*
G03*
X164165Y168200I-659J-494D01*
G01*
X164165D02*
G03*
X164824Y168530I0J823D01*
G01*
X152076Y171211D02*
G03*
X151137Y171600I-939J-939D01*
G01*
D02*
G03*
X152076Y171989I0J1328D01*
G01*
Y171211D02*
G03*
X151137Y171600I-939J-939D01*
G01*
X151137D02*
G03*
X152076Y171989I0J1328D01*
G01*
X155137Y168389D02*
G03*
X156076Y168000I939J939D01*
G01*
D02*
G03*
X155137Y167611I0J-1328D01*
G01*
Y158112D02*
G03*
X155891Y157800I754J754D01*
G01*
X156261D02*
G03*
X155137Y157335I0J-1589D01*
G01*
Y156036D02*
G03*
X156076Y155647I939J939D01*
G01*
D02*
G03*
X155137Y155258I0J-1328D01*
G01*
X170948Y137350D02*
G03*
X171887Y137739I0J1328D01*
G01*
D02*
G03*
X171498Y136800I939J-939D01*
G01*
X144537Y161911D02*
G03*
X144154Y160986I925J-925D01*
G01*
Y160958D02*
G03*
X143759Y161911I-1348J0D01*
G01*
X151730Y24581D02*
G03*
X152658Y24965I0J1313D01*
G01*
X151730Y25081D02*
G03*
X153512Y25819I0J2520D01*
G01*
X151730Y25581D02*
G03*
X154365Y26672I0J3727D01*
G01*
X152196Y25323D02*
G03*
X152724Y25031I528J331D01*
G01*
D02*
G03*
X152196Y24739I0J-623D01*
G01*
X138965Y173059D02*
G03*
X139748Y172700I783J675D01*
G01*
D02*
G03*
X138965Y172341I0J-1034D01*
G01*
X140437Y157211D02*
G03*
X140048Y156272I939J-939D01*
G01*
D02*
G03*
X139659Y157211I-1328J0D01*
G01*
X132441Y23220D02*
G03*
X132830Y24159I-939J939D01*
G01*
D02*
G03*
X133219Y23220I1328J0D01*
G01*
X162548Y115300D02*
X168000Y109848D01*
Y91200D02*
Y109848D01*
X164865Y88065D02*
X168000Y91200D01*
X164865Y28247D02*
Y88065D01*
X73850Y176174D02*
X91750D01*
X73250Y177074D02*
X92250D01*
X184565Y31959D02*
Y117698D01*
X183665Y30359D02*
Y113470D01*
X182765Y29259D02*
Y113098D01*
X181733Y33053D02*
Y112856D01*
X180730Y33322D02*
Y112583D01*
X179830Y33695D02*
Y111483D01*
X178930Y34068D02*
Y111094D01*
X178030Y35168D02*
Y110721D01*
X177130Y35583D02*
Y110348D01*
X169868Y118883D02*
X178030Y110721D01*
X169495Y117983D02*
X177130Y110348D01*
X209650Y29702D02*
Y91998D01*
X206850Y94798D02*
X209650Y91998D01*
X196350Y49487D02*
Y162174D01*
X163817Y105169D02*
Y107798D01*
X160480Y101832D02*
X163817Y105169D01*
X156916Y114699D02*
X163817Y107798D01*
X163590Y116783D02*
X169048Y111325D01*
X160195Y116783D02*
X163590D01*
X154365Y114699D02*
X156916D01*
X144154Y159940D02*
X145478Y158616D01*
Y123585D02*
Y158616D01*
Y123585D02*
X154365Y114699D01*
X132830Y22831D02*
Y26194D01*
X121448Y35828D02*
X131193Y26083D01*
Y24331D02*
Y26083D01*
X121448Y35828D02*
Y91872D01*
X148800Y171176D02*
X153023Y175400D01*
X148800Y128178D02*
Y171176D01*
Y128178D02*
X160195Y116783D01*
X149700Y128551D02*
Y170524D01*
Y128551D02*
X160268Y117983D01*
X150665Y128859D02*
X160641Y118883D01*
X151565Y129232D02*
X161014Y119783D01*
X151565Y165699D02*
X152465Y166599D01*
X151565Y129232D02*
Y165699D01*
X188650Y107414D02*
Y123398D01*
Y107414D02*
X189165Y106899D01*
X184565Y117698D02*
X186950Y120083D01*
X184565Y31959D02*
X188478Y28046D01*
X182765Y29259D02*
X188193Y23831D01*
X179950Y115913D02*
X182765Y113098D01*
X182150Y114985D02*
X183665Y113470D01*
Y30359D02*
X188067Y25957D01*
X177650Y116940D02*
X181733Y112856D01*
X177693Y29012D02*
X181733Y33053D01*
X169030Y27483D02*
X177130Y35583D01*
X170630Y27768D02*
X178030Y35168D01*
X170241Y119783D02*
X178930Y111094D01*
X172230Y27368D02*
X178930Y34068D01*
X170550Y120763D02*
X179830Y111483D01*
X173730Y27595D02*
X179830Y33695D01*
X175330Y27922D02*
X180730Y33322D01*
X166443Y26018D02*
Y87995D01*
X161948Y35528D02*
Y86855D01*
X161048Y35901D02*
Y86482D01*
X140048Y117001D02*
Y157600D01*
X124230Y101183D02*
X140048Y117001D01*
X138548Y172700D02*
X139748D01*
X150948Y183900D02*
X217648D01*
X139748Y172700D02*
X150948Y183900D01*
X144148Y162600D02*
X144154Y162594D01*
X151730Y25031D02*
X152724D01*
X162848Y35155D01*
X183150Y135374D02*
X183800Y136024D01*
X185600Y134279D02*
Y143524D01*
X174724Y133024D02*
X184345D01*
X185600Y134279D01*
X184700Y134652D02*
Y144824D01*
X183972Y133924D02*
X184700Y134652D01*
X178224Y133924D02*
X183972D01*
X177703Y134445D02*
X178224Y133924D01*
X177703Y134445D02*
Y135321D01*
X174148Y133600D02*
Y135321D01*
Y133600D02*
X174724Y133024D01*
X177724Y138400D02*
X179250Y136874D01*
X170948Y136800D02*
X172548Y138400D01*
X177724D01*
X169448Y133274D02*
Y145740D01*
Y133274D02*
X170648Y132074D01*
X161748Y153440D02*
Y167500D01*
Y153440D02*
X169448Y145740D01*
X160848Y153067D02*
Y166700D01*
Y153067D02*
X168548Y145367D01*
Y132403D02*
Y145367D01*
Y132403D02*
X169777Y131174D01*
X167648Y132030D02*
X169404Y130274D01*
X167648Y132030D02*
Y144994D01*
X159948Y152694D02*
X167648Y144994D01*
X159048Y152321D02*
Y158500D01*
Y152321D02*
X166748Y144621D01*
Y131657D02*
Y144621D01*
Y131657D02*
X169131Y129274D01*
X165848Y131284D02*
X168758Y128374D01*
X165848Y131284D02*
Y144248D01*
X158148Y151948D02*
X165848Y144248D01*
X154795Y155647D02*
X156501D01*
X157248Y154900D01*
Y151400D02*
Y154900D01*
Y151400D02*
X164948Y143700D01*
Y130912D02*
Y143700D01*
Y130912D02*
X168386Y127474D01*
X157048Y157800D02*
X158148Y156700D01*
Y151948D02*
Y156700D01*
X157748Y159800D02*
X159048Y158500D01*
X159548Y168000D02*
X160848Y166700D01*
X153023Y175400D02*
X166748D01*
X168348Y173800D02*
X178145D01*
X166748Y175400D02*
X168348Y173800D01*
X171913Y166811D02*
X171924Y166800D01*
X169048Y108019D02*
Y111325D01*
X169043Y108014D02*
X169048Y108019D01*
X169043Y90595D02*
Y108014D01*
X166443Y87995D02*
X169043Y90595D01*
X153330Y22831D02*
X159448D01*
X159580Y89223D02*
Y106341D01*
X154351Y27931D02*
X161948Y35528D01*
X159580Y89223D02*
X161948Y86855D01*
X151793Y27931D02*
X154351D01*
X153978Y28831D02*
X161048Y35901D01*
X150193Y28831D02*
X153978D01*
X158680Y88850D02*
Y105968D01*
Y88850D02*
X161048Y86482D01*
X155048Y110873D02*
X159580Y106341D01*
X155048Y110873D02*
Y112800D01*
X153348Y111300D02*
X158680Y105968D01*
X206850Y94798D02*
Y137074D01*
X205950Y94191D02*
Y135774D01*
Y94191D02*
X208750Y91391D01*
Y31802D02*
Y91391D01*
X205050Y93818D02*
Y134625D01*
Y93818D02*
X207850Y91018D01*
Y34002D02*
Y91018D01*
X204150Y93446D02*
Y133525D01*
Y93446D02*
X206950Y90646D01*
Y36002D02*
Y90646D01*
X203250Y93073D02*
X206050Y90273D01*
X203250Y93073D02*
Y132425D01*
X206050Y38602D02*
Y90273D01*
X201700Y133974D02*
X203250Y132425D01*
X201650Y133974D02*
X201700D01*
X205150Y41002D02*
Y89900D01*
X201650Y93400D02*
X205150Y89900D01*
X201650Y93400D02*
Y131974D01*
X179261Y171411D02*
X182948Y167724D01*
X191824D01*
X194400Y165148D01*
Y155124D02*
Y165148D01*
X201530Y37383D02*
X205150Y41002D01*
X203330Y35883D02*
X206050Y38602D01*
X238303Y45080D02*
X260193Y66970D01*
Y69026D01*
X201650Y142274D02*
X206850Y137074D01*
X201750Y139974D02*
X205950Y135774D01*
X192193Y48331D02*
X195300Y51437D01*
X186950Y120083D02*
Y122083D01*
X182150Y114985D02*
Y122074D01*
X177650Y116940D02*
Y122074D01*
X172850Y120351D02*
Y122083D01*
Y120351D02*
X175780Y117420D01*
X161014Y119783D02*
X170241D01*
X160641Y118883D02*
X169868D01*
X160268Y117983D02*
X169495D01*
X206530Y32683D02*
X207850Y34002D01*
X205230Y34283D02*
X206950Y36002D01*
X150130Y22831D02*
X150143Y22844D01*
X124230Y34794D02*
Y101183D01*
X208430Y28483D02*
X209650Y29702D01*
X208130Y31183D02*
X208750Y31802D01*
X148693Y27331D02*
X150193Y28831D01*
X188067Y25957D02*
X191693D01*
X175780Y117420D02*
X180730Y112583D01*
X177013Y166811D02*
X182850Y160974D01*
X192050Y157474D02*
X192600Y158024D01*
X196350Y162174D02*
X198350Y164174D01*
X199944Y40582D02*
X200050Y40687D01*
X198550Y42174D02*
X199150Y42774D01*
X197193Y43831D02*
X198150Y44787D01*
X195193Y45331D02*
X197250Y47387D01*
X193693Y46831D02*
X196350Y49487D01*
X192250Y155374D02*
X193500Y156624D01*
X192650Y153374D02*
X194400Y155124D01*
X190850Y157474D02*
X192050D01*
X190850Y155374D02*
X192250D01*
X190850Y153374D02*
X192650D01*
X200050Y147774D02*
X201550Y149274D01*
X201700Y137974D02*
X205050Y134625D01*
X72250Y174574D02*
X73850Y176174D01*
X185600Y143524D02*
X186839Y144764D01*
X170550Y120763D02*
Y122074D01*
X179950Y115913D02*
Y122074D01*
X188478Y28046D02*
X192593D01*
X150143Y22844D02*
Y25631D01*
X150130Y25644D02*
X150143Y25631D01*
X150130Y25644D02*
Y26268D01*
X151793Y27931D01*
X148693Y25031D02*
Y27331D01*
X72250Y178074D02*
X73250Y177074D01*
X91750Y176174D02*
X103030Y164894D01*
X92250Y177074D02*
X103930Y165394D01*
Y95656D02*
Y165394D01*
X103030Y95283D02*
X114130Y84183D01*
X103030Y95283D02*
Y164894D01*
X103930Y95656D02*
X115030Y84556D01*
Y24183D02*
Y84556D01*
X114130Y22583D02*
Y84183D01*
X115030Y24183D02*
X116630Y22583D01*
X124230Y34794D02*
X132830Y26194D01*
X201700Y135974D02*
X204150Y133525D01*
X235192Y24333D02*
X244959Y34100D01*
X230241Y24333D02*
X235192D01*
X200050Y40687D02*
Y147774D01*
X198150Y44787D02*
Y154574D01*
X195300Y51437D02*
Y162397D01*
X264793Y81645D02*
X275648Y92500D01*
X264793Y79984D02*
Y81645D01*
X233748Y125300D02*
Y125400D01*
X232548Y124100D02*
X233748Y125300D01*
X224748Y124100D02*
X232548D01*
X221248Y120600D02*
X224748Y124100D01*
X221248Y95700D02*
X222748Y94200D01*
X221248Y95700D02*
Y120600D01*
X121448Y91872D02*
X122350Y92774D01*
X157948Y115300D02*
X162548D01*
X155848Y117400D02*
X157948Y115300D01*
X146648Y126600D02*
X155848Y117400D01*
X161148Y122000D02*
X164948D01*
X168048Y125100D01*
X186948D02*
X188650Y123398D01*
X168048Y125100D02*
X186948D01*
X146648Y126600D02*
Y162300D01*
X155248Y162900D02*
X157748D01*
X159948Y160700D01*
Y152694D02*
Y160700D01*
X217648Y183900D02*
X219248Y182300D01*
X310348D01*
X312948Y179700D01*
X188193Y23831D02*
X191693D01*
X175330Y22831D02*
Y27922D01*
X173730Y25031D02*
Y27595D01*
X172230Y22831D02*
Y27368D01*
X170630Y25031D02*
Y27768D01*
X169030Y22831D02*
Y27483D01*
X166443Y26018D02*
X167430Y25031D01*
X162965Y158599D02*
Y166999D01*
X186839Y144764D02*
X189060D01*
X192600Y158024D02*
Y160499D01*
X191575Y161524D02*
X192600Y160499D01*
X171924Y166800D02*
X171948D01*
X162965Y158599D02*
X164265Y157299D01*
X166265D01*
X245965Y35599D02*
X246965Y36599D01*
X245965Y34100D02*
Y35599D01*
X244959Y34100D02*
X245965D01*
X270948D01*
X178145Y173800D02*
X179878Y172066D01*
X159448Y22831D02*
X164865Y28247D01*
X160480Y89596D02*
Y101832D01*
Y89596D02*
X162848Y87227D01*
Y35155D02*
Y87227D01*
X177693Y22831D02*
Y29012D01*
X150776Y171600D02*
X152465D01*
X149700Y170524D02*
X150776Y171600D01*
X150665Y167300D02*
X152465Y169100D01*
X150665Y128859D02*
Y167300D01*
X154848Y170350D02*
X155599Y169599D01*
X159649D02*
X161748Y167500D01*
X155599Y169599D02*
X159649D01*
X154848Y168000D02*
X159548D01*
X162965Y166999D02*
X164165Y168200D01*
X165265D01*
X154748Y159800D02*
X157748D01*
X168200Y169899D02*
X169711Y171411D01*
X168200Y167664D02*
Y169899D01*
Y167664D02*
X170265Y165599D01*
X169711Y171411D02*
X179261D01*
X197250Y47387D02*
Y156374D01*
X199350Y158474D01*
X201550D01*
X199850Y156274D02*
X201550D01*
X198150Y154574D02*
X199850Y156274D01*
X199150Y152999D02*
X200324Y154174D01*
X199150Y42774D02*
Y152999D01*
X200324Y154174D02*
X201550D01*
X198350Y164174D02*
X201825D01*
X198402Y165499D02*
X201000D01*
X195300Y162397D02*
X198402Y165499D01*
X201933Y172066D02*
X203000Y170999D01*
Y169649D02*
Y170999D01*
X179878Y172066D02*
X201933D01*
X201825Y164174D02*
X203000Y165349D01*
X201000Y165499D02*
X203000Y167499D01*
X183800Y136024D02*
Y145199D01*
X186600Y147999D01*
X191800D01*
X186250Y146374D02*
X190450D01*
X184700Y144824D02*
X186250Y146374D01*
X166265Y157299D02*
X169040Y154524D01*
X188850D01*
X165265Y164099D02*
X176100D01*
X182025Y158174D01*
X188850D01*
X192325Y163074D02*
X193500Y161899D01*
Y156624D02*
Y161899D01*
X190850Y163074D02*
X192325D01*
X182850Y160974D02*
X186700D01*
X187250Y161524D01*
X191575D01*
X191600Y126599D02*
X193000D01*
X168386Y127474D02*
X190725D01*
X191600Y126599D01*
X170648Y132074D02*
X185675D01*
X186048Y131174D02*
X190353Y135479D01*
X193000D01*
X169777Y131174D02*
X186048D01*
X189406Y133259D02*
X193000D01*
X169404Y130274D02*
X186420D01*
X189406Y133259D01*
X188565Y131039D02*
X193000D01*
X186800Y129274D02*
X188565Y131039D01*
X169131Y129274D02*
X186800D01*
X192000Y136699D02*
X193000Y137699D01*
X190300Y136699D02*
X192000D01*
X185675Y132074D02*
X190300Y136699D01*
X187600Y128374D02*
X188045Y128819D01*
X168758Y128374D02*
X187600D01*
X188045Y128819D02*
X193000D01*
X154748Y157800D02*
X157048D01*
X150776Y171600D02*
X152465D01*
X152848D01*
X144154Y159940D02*
Y162300D01*
Y162594D01*
X164165Y168200D02*
X165265D01*
X165348D01*
X171913Y166811D02*
X171948D01*
X177013D01*
D12*
X161515Y6453D02*
G03*
X162369Y6100I854J854D01*
G01*
D02*
G03*
X161515Y5746I0J-1207D01*
G01*
X164241Y11102D02*
G03*
X165277Y10673I1036J1036D01*
G01*
X164665Y11527D02*
G03*
X166726Y10673I2061J2061D01*
G01*
X159493Y5984D02*
G03*
X159846Y5130I1207J0D01*
G01*
X159846Y5130D02*
G03*
X158993Y5483I-854J-854D01*
G01*
X156938Y9773D02*
G03*
X157291Y8920I1207J0D01*
G01*
X157291Y8920D02*
G03*
X156438Y9273I-854J-854D01*
G01*
X158513Y11173D02*
G03*
X158866Y10320I1207J0D01*
G01*
X158866Y10320D02*
G03*
X158013Y10673I-854J-854D01*
G01*
X259647Y169153D02*
G03*
X260000Y170006I-854J854D01*
G01*
D02*
G03*
X260353Y169153I1207J0D01*
G01*
X249046Y139684D02*
G03*
X249900Y139331I854J854D01*
G01*
D02*
G03*
X249046Y138977I0J-1207D01*
G01*
X274495Y138747D02*
G03*
X273641Y139100I-854J-854D01*
G01*
D02*
G03*
X274495Y139453I0J1207D01*
G01*
X271472Y29076D02*
G03*
X271048Y28051I1024J-1024D01*
G01*
D02*
G03*
X270624Y29076I-1448J0D01*
G01*
X274748Y35200D02*
G03*
X273724Y34776I0J-1448D01*
G01*
X273724Y34776D02*
G03*
X274148Y35800I-1024J1024D01*
G01*
X276872Y37976D02*
G03*
X276448Y36952I1024J-1024D01*
G01*
D02*
G03*
X276024Y37976I-1448J0D01*
G01*
X213693Y44831D02*
G03*
X212839Y44477I0J-1207D01*
G01*
X212839Y44477D02*
G03*
X213193Y45331I-854J854D01*
G01*
X213693Y45831D02*
G03*
X214546Y46184I0J1207D01*
G01*
X214546Y46184D02*
G03*
X214193Y45331I854J-854D01*
G01*
X265146Y79630D02*
G03*
X264793Y78776I854J-854D01*
G01*
D02*
G03*
X264439Y79630I-1207J0D01*
G01*
X245339Y161477D02*
G03*
X244486Y161831I-854J-854D01*
G01*
D02*
G03*
X245339Y162184I0J1207D01*
G01*
X42059Y26949D02*
G03*
X43424Y26384I1366J1366D01*
G01*
D02*
G03*
X42059Y25818I0J-1931D01*
G01*
X221893Y24783D02*
G03*
X222710Y25122I0J1156D01*
G01*
X222762Y25173D02*
G03*
X222393Y24284I890J-890D01*
G01*
X137446Y5737D02*
G03*
X138300Y5384I854J854D01*
G01*
D02*
G03*
X137446Y5030I0J-1207D01*
G01*
X286224Y45676D02*
G03*
X285199Y46100I-1024J-1024D01*
G01*
D02*
G03*
X286224Y46524I0J1448D01*
G01*
Y49176D02*
G03*
X285199Y49600I-1024J-1024D01*
G01*
D02*
G03*
X286224Y50024I0J1448D01*
G01*
Y56176D02*
G03*
X285199Y56600I-1024J-1024D01*
G01*
D02*
G03*
X286224Y57024I0J1448D01*
G01*
Y59676D02*
G03*
X285199Y60100I-1024J-1024D01*
G01*
D02*
G03*
X286224Y60524I0J1448D01*
G01*
X285072Y39224D02*
G03*
X286097Y38800I1024J1024D01*
G01*
D02*
G03*
X285072Y38376I0J-1448D01*
G01*
X211748Y47800D02*
G03*
X212602Y48154I0J1207D01*
G01*
X212602Y48154D02*
G03*
X212248Y47300I854J-854D01*
G01*
X320072Y63176D02*
G03*
X319648Y62151I1024J-1024D01*
G01*
D02*
G03*
X319224Y63176I-1448J0D01*
G01*
X135902Y170754D02*
G03*
X136997Y170300I1095J1095D01*
G01*
X136514D02*
G03*
X135902Y170046I0J-866D01*
G01*
X161515Y6453D02*
G03*
X162369Y6100I854J854D01*
G01*
D02*
G03*
X161515Y5746I0J-1207D01*
G01*
X164241Y11102D02*
G03*
X165277Y10673I1036J1036D01*
G01*
X164665Y11527D02*
G03*
X166726Y10673I2061J2061D01*
G01*
X159493Y5984D02*
G03*
X159846Y5130I1207J0D01*
G01*
X159846Y5130D02*
G03*
X158993Y5483I-854J-854D01*
G01*
X156938Y9773D02*
G03*
X157291Y8920I1207J0D01*
G01*
X157291Y8920D02*
G03*
X156438Y9273I-854J-854D01*
G01*
X158513Y11173D02*
G03*
X158866Y10320I1207J0D01*
G01*
X158866Y10320D02*
G03*
X158013Y10673I-854J-854D01*
G01*
X259647Y169153D02*
G03*
X260000Y170006I-854J854D01*
G01*
D02*
G03*
X260353Y169153I1207J0D01*
G01*
X249046Y139684D02*
G03*
X249900Y139331I854J854D01*
G01*
D02*
G03*
X249046Y138977I0J-1207D01*
G01*
X274495Y138747D02*
G03*
X273641Y139100I-854J-854D01*
G01*
D02*
G03*
X274495Y139453I0J1207D01*
G01*
X271472Y29076D02*
G03*
X271048Y28051I1024J-1024D01*
G01*
D02*
G03*
X270624Y29076I-1448J0D01*
G01*
X274748Y35200D02*
G03*
X273724Y34776I0J-1448D01*
G01*
X273724Y34776D02*
G03*
X274148Y35800I-1024J1024D01*
G01*
X276872Y37976D02*
G03*
X276448Y36952I1024J-1024D01*
G01*
D02*
G03*
X276024Y37976I-1448J0D01*
G01*
X213693Y44831D02*
G03*
X212839Y44477I0J-1207D01*
G01*
X212839Y44477D02*
G03*
X213193Y45331I-854J854D01*
G01*
X213693Y45831D02*
G03*
X214546Y46184I0J1207D01*
G01*
X214546Y46184D02*
G03*
X214193Y45331I854J-854D01*
G01*
X265146Y79630D02*
G03*
X264793Y78776I854J-854D01*
G01*
D02*
G03*
X264439Y79630I-1207J0D01*
G01*
X245339Y161477D02*
G03*
X244486Y161831I-854J-854D01*
G01*
D02*
G03*
X245339Y162184I0J1207D01*
G01*
X42059Y26949D02*
G03*
X43424Y26384I1366J1366D01*
G01*
D02*
G03*
X42059Y25818I0J-1931D01*
G01*
X221893Y24783D02*
G03*
X222710Y25122I0J1156D01*
G01*
X222762Y25173D02*
G03*
X222393Y24284I890J-890D01*
G01*
X137446Y5737D02*
G03*
X138300Y5384I854J854D01*
G01*
D02*
G03*
X137446Y5030I0J-1207D01*
G01*
X286224Y45676D02*
G03*
X285199Y46100I-1024J-1024D01*
G01*
D02*
G03*
X286224Y46524I0J1448D01*
G01*
Y49176D02*
G03*
X285199Y49600I-1024J-1024D01*
G01*
D02*
G03*
X286224Y50024I0J1448D01*
G01*
Y56176D02*
G03*
X285199Y56600I-1024J-1024D01*
G01*
D02*
G03*
X286224Y57024I0J1448D01*
G01*
Y59676D02*
G03*
X285199Y60100I-1024J-1024D01*
G01*
D02*
G03*
X286224Y60524I0J1448D01*
G01*
X285072Y39224D02*
G03*
X286097Y38800I1024J1024D01*
G01*
D02*
G03*
X285072Y38376I0J-1448D01*
G01*
X211748Y47800D02*
G03*
X212602Y48154I0J1207D01*
G01*
X212602Y48154D02*
G03*
X212248Y47300I854J-854D01*
G01*
X320072Y63176D02*
G03*
X319648Y62151I1024J-1024D01*
G01*
D02*
G03*
X319224Y63176I-1448J0D01*
G01*
X135902Y170754D02*
G03*
X136997Y170300I1095J1095D01*
G01*
X136514D02*
G03*
X135902Y170046I0J-866D01*
G01*
X253717Y139331D02*
X255548Y137500D01*
Y131347D02*
Y137500D01*
X276448Y34799D02*
X277948Y33299D01*
X271824Y15533D02*
X277948Y21657D01*
Y33299D01*
X178285Y4600D02*
X185218Y11533D01*
X160376Y4600D02*
X178285D01*
X158993Y5984D02*
X160376Y4600D01*
X178371Y6100D02*
X184803Y12533D01*
X161162Y6100D02*
X178371D01*
X217824Y180824D02*
X257175D01*
X260000Y177999D01*
Y168799D02*
Y177999D01*
X250174Y125974D02*
X255548Y131347D01*
X250174Y96726D02*
Y125974D01*
X219950Y66502D02*
X250174Y96726D01*
X245693Y135455D02*
X249174Y131974D01*
Y97141D02*
Y131974D01*
X218950Y66916D02*
X249174Y97141D01*
X239693Y158831D02*
X242693Y161831D01*
X245693D01*
X239693Y137309D02*
X247448Y129554D01*
X239693Y137309D02*
Y158831D01*
X247448Y98800D02*
Y129554D01*
X304298Y44533D02*
Y55750D01*
X298565Y38800D02*
X304298Y44533D01*
X284648Y38800D02*
X298565D01*
X135648Y170300D02*
X140248D01*
X152248Y182300D01*
X216348D01*
X318248Y57600D02*
X319648Y59000D01*
X213693Y45331D02*
X218950Y50587D01*
X211600Y41116D02*
X219950Y49466D01*
X304298Y55750D02*
X306148Y57600D01*
X318248D01*
X286648Y60100D02*
X286748D01*
X281848D02*
X286648D01*
X282148Y56600D02*
X286648D01*
X282848Y49600D02*
X286648D01*
X284348Y46100D02*
X286648D01*
X210600Y28531D02*
Y42237D01*
X211600Y28090D02*
Y41116D01*
X239393Y40584D02*
X264793Y65983D01*
Y79984D01*
X204399Y22331D02*
X210600Y28531D01*
X180164Y19783D02*
X181711Y21331D01*
X179750Y20784D02*
X181297Y22331D01*
X204840Y21331D02*
X211600Y28090D01*
X226072Y28484D02*
X236279D01*
X221893Y24284D02*
Y24305D01*
X226072Y28484D01*
X236279D02*
X239393Y31598D01*
Y40584D01*
X210600Y42237D02*
X213693Y45331D01*
X45079Y19382D02*
X51079Y25383D01*
X140448Y15383D02*
X145849Y20784D01*
X140862Y14383D02*
X146263Y19783D01*
X51079Y25383D02*
X59661D01*
X70661Y14383D01*
X140862D01*
X41493Y26384D02*
X60074D01*
X71075Y15383D01*
X140448D01*
X281948Y20000D02*
Y43700D01*
X273481Y11533D02*
X281948Y20000D01*
Y43700D02*
X284348Y46100D01*
X280948Y20414D02*
Y47700D01*
X273066Y12533D02*
X280948Y20414D01*
Y47700D02*
X282848Y49600D01*
X279948Y20828D02*
Y54400D01*
X282148Y56600D01*
X272652Y13533D02*
X279948Y20828D01*
X278948Y21243D02*
Y57200D01*
X281848Y60100D01*
X272238Y14533D02*
X278948Y21243D01*
X271048Y21100D02*
Y29500D01*
X219950Y49466D02*
Y66502D01*
X218950Y50587D02*
Y66916D01*
X254017Y140831D02*
X255748Y139100D01*
X245693Y139331D02*
X247193Y140831D01*
X245693Y135455D02*
Y139331D01*
X215448Y51000D02*
Y66800D01*
X211748Y47300D02*
X215448Y51000D01*
Y66800D02*
X247448Y98800D01*
X255748Y139100D02*
X274848D01*
X247193Y140831D02*
X254017D01*
X177701Y9673D02*
X183561Y15533D01*
X177287Y10673D02*
X183147Y16533D01*
X267481Y17533D02*
X271048Y21100D01*
X180483Y15283D02*
X182732Y17533D01*
X216348Y182300D02*
X217824Y180824D01*
X154863Y8373D02*
X155563Y7673D01*
X156438Y9773D02*
X157538Y8673D01*
X164812Y10673D02*
X177287D01*
X158013Y11173D02*
X159513Y9673D01*
X177701D01*
X164312Y11173D02*
X164812Y10673D01*
X178115Y8673D02*
X183975Y14533D01*
X157538Y8673D02*
X178115D01*
X178530Y7673D02*
X184389Y13533D01*
X155563Y7673D02*
X178530D01*
X155780Y15283D02*
X180483D01*
X137093Y5384D02*
X145880D01*
X155780Y15283D01*
X146263Y19783D02*
X180164D01*
X145849Y20784D02*
X179750D01*
X185218Y11533D02*
X273481D01*
X184803Y12533D02*
X273066D01*
X184389Y13533D02*
X272652D01*
X183975Y14533D02*
X272238D01*
X183561Y15533D02*
X271824D01*
X182732Y17533D02*
X267481D01*
X181711Y21331D02*
X204840D01*
X181297Y22331D02*
X204399D01*
X319648Y59000D02*
Y63600D01*
X248693Y139331D02*
X253717D01*
X276448Y34799D02*
Y38400D01*
X183147Y16533D02*
X268900D01*
X272700Y20333D01*
Y33752D01*
X274748Y35800D01*
D13*
X276110Y103166D02*
G03*
X276393Y103849I-683J683D01*
G01*
D02*
G03*
X276676Y103166I966J0D01*
G01*
X87586Y180924D02*
G03*
X85953Y181600I-1633J-1633D01*
G01*
X85804D02*
G03*
X87586Y182338I0J2519D01*
G01*
X12900Y106300D02*
G03*
X13754Y106653I0J1207D01*
G01*
X276110Y103166D02*
G03*
X276393Y103849I-683J683D01*
G01*
D02*
G03*
X276676Y103166I966J0D01*
G01*
X16000Y111063D02*
X18600Y113663D01*
X12937Y108000D02*
X16000Y111063D01*
X18600Y113663D02*
Y115400D01*
X8400Y108000D02*
X12937D01*
X12900Y105800D02*
Y106000D01*
X20600Y164700D02*
X31400Y175500D01*
X20600Y113500D02*
Y164700D01*
X31400Y175500D02*
X49100D01*
X56700Y183100D02*
X83800D01*
X49100Y175500D02*
X56700Y183100D01*
X83800D02*
X85300Y181600D01*
X216348Y79100D02*
X218193Y77255D01*
X213048Y79100D02*
X216348D01*
X218193Y72110D02*
Y77255D01*
X276393Y102884D02*
Y115545D01*
X297148Y136300D01*
Y140700D01*
X16000Y111063D02*
Y116400D01*
X12900Y105800D02*
X13000Y105900D01*
X20600Y113500D01*
X85300Y181600D02*
X88293D01*
X88348D01*
D15*
X277400Y137252D02*
Y142400D01*
X39586Y165686D02*
X74962D01*
X31624Y157724D02*
X39586Y165686D01*
X28000Y157724D02*
X31624D01*
X24550Y133500D02*
Y154174D01*
X32852Y115551D02*
Y125198D01*
X22648Y63200D02*
Y105347D01*
X32852Y115551D01*
X168093Y73939D02*
Y84545D01*
Y73939D02*
X169950Y72083D01*
X208500Y97100D02*
X218500Y87100D01*
X222648D01*
X79393Y159531D02*
Y161255D01*
X74962Y165686D02*
X79393Y161255D01*
X170693Y87145D02*
Y107331D01*
X168093Y84545D02*
X170693Y87145D01*
X218551Y131100D02*
X233748D01*
X206450Y143202D02*
Y169298D01*
Y143202D02*
X218551Y131100D01*
X206448Y169300D02*
X206450Y169298D01*
X233748Y131100D02*
X238248Y126600D01*
X208500Y97100D02*
Y137758D01*
X238248Y106200D02*
Y126600D01*
Y106000D02*
Y106200D01*
X204050Y142208D02*
Y149374D01*
Y142208D02*
X208500Y137758D01*
X250693Y144331D02*
Y154831D01*
X248693Y156831D02*
X250693Y154831D01*
X203950Y149474D02*
X204050Y149374D01*
X24550Y154274D02*
X28000Y157724D01*
X24550Y154174D02*
Y154274D01*
X169950Y72083D02*
X172330D01*
X287479Y142531D02*
X290848Y145900D01*
Y148500D01*
X238358Y50010D02*
X256448Y68100D01*
X223308Y50010D02*
X238358D01*
X214348Y41050D02*
X223308Y50010D01*
X214348Y28434D02*
Y41050D01*
X205146Y19233D02*
X214348Y28434D01*
X252493Y142531D02*
X287479D01*
X59648Y22900D02*
X69865Y12683D01*
X141566D01*
X250693Y144331D02*
X252493Y142531D01*
X256448Y68100D02*
Y85900D01*
X273048Y132900D02*
X277400Y137252D01*
X273048Y102500D02*
Y132900D01*
X182028Y19233D02*
X205146D01*
X180296Y17500D02*
X182028Y19233D01*
X141566Y12683D02*
X146383Y17500D01*
X180296D01*
X24550Y133500D02*
X32852Y125198D01*
X22648Y63200D02*
X39948Y45900D01*
X245193Y156831D02*
X245500D01*
X248693D01*
X256448Y85900D02*
X273012Y102464D01*
X273048Y102500D01*
D17*
X95748Y181600D02*
X110648Y166700D01*
X88348Y181600D02*
X95748D01*
X145248Y171372D02*
X153076Y179200D01*
X145248Y166200D02*
Y171372D01*
X110648Y166700D02*
X144748D01*
X209850Y147200D02*
X213148D01*
X219248Y153300D01*
X213548Y179200D02*
X219248Y173500D01*
X189065Y174716D02*
Y179200D01*
X153076D02*
X189065D01*
X213548D01*
X219248Y153300D02*
Y154800D01*
Y173500D01*
D19*
X283048Y107700D02*
X314448D01*
D73*
X26893Y163331D02*
G03*
X31169Y165102I0J6047D01*
G01*
X26893Y163331D02*
G03*
X31169Y165102I0J6047D01*
G01*
X36441Y170374D02*
X79074D01*
X31241Y165174D02*
X36441Y170374D01*
X27750Y165174D02*
X30750D01*
X31241D01*
X82589Y166859D02*
X84948Y164500D01*
X79074Y170374D02*
X82589Y166859D01*
D84*
X231102Y117717D02*
D03*
X353937Y155118D02*
D03*
X5906D02*
D03*
Y33858D02*
D03*
D85*
X54328Y16015D02*
D03*
X45079Y19382D02*
D03*
X35830Y22748D02*
D03*
D87*
X143052Y58692D02*
D03*
D88*
X17200Y74900D02*
D03*
Y77354D02*
D03*
Y72500D02*
D03*
X17100Y138323D02*
D03*
Y135869D02*
D03*
Y133415D02*
D03*
Y131015D02*
D03*
Y128561D02*
D03*
Y126108D02*
D03*
Y118800D02*
D03*
Y121254D02*
D03*
Y123708D02*
D03*
Y116400D02*
D03*
X21100Y107800D02*
D03*
X17400Y97500D02*
D03*
Y99954D02*
D03*
Y102408D02*
D03*
Y95100D02*
D03*
X4700Y75100D02*
D03*
Y70246D02*
D03*
Y72700D02*
D03*
X9300Y106300D02*
D03*
X4446D02*
D03*
X6900D02*
D03*
X4000Y91700D02*
D03*
Y99008D02*
D03*
Y96554D02*
D03*
Y94100D02*
D03*
X12900Y106000D02*
D03*
X16100Y91600D02*
D03*
X10200Y74300D02*
D03*
X173300Y61400D02*
D03*
X171400Y62300D02*
D03*
X67100Y50400D02*
D03*
X70100Y50600D02*
D03*
X73200Y50700D02*
D03*
X33100Y46700D02*
D03*
X30600Y50100D02*
D03*
X22700Y56000D02*
D03*
X28700Y52300D02*
D03*
X19952Y52352D02*
D03*
X21400Y54200D02*
D03*
X66395Y91500D02*
D03*
X187165Y106299D02*
D03*
X186765Y102899D02*
D03*
X263610Y135528D02*
D03*
X258700Y137399D02*
D03*
X258000Y135799D02*
D03*
X263555Y137131D02*
D03*
X293794Y147200D02*
D03*
X244800Y152499D02*
D03*
X245290Y147599D02*
D03*
X246400Y152499D02*
D03*
X276600Y170499D02*
D03*
X273800Y170699D02*
D03*
X273700Y168899D02*
D03*
X245400Y149299D02*
D03*
X246900Y149999D02*
D03*
X135550Y22831D02*
D03*
X132830D02*
D03*
X146900Y11499D02*
D03*
X143800D02*
D03*
X155500Y24300D02*
D03*
X153365Y117799D02*
D03*
X306865Y37299D02*
D03*
X166265Y96699D02*
D03*
X240765Y129899D02*
D03*
X242865D02*
D03*
Y131799D02*
D03*
X301565Y35599D02*
D03*
X301465Y37399D02*
D03*
X301165Y117899D02*
D03*
X304792Y119644D02*
D03*
X140048Y157600D02*
D03*
X138548Y172700D02*
D03*
X135548Y170400D02*
D03*
X151730Y25031D02*
D03*
X144148Y162300D02*
D03*
X213048Y79100D02*
D03*
X170900Y144899D02*
D03*
X170948Y136800D02*
D03*
X154748Y155647D02*
D03*
Y157723D02*
D03*
Y168000D02*
D03*
X154848Y170350D02*
D03*
X152465Y171600D02*
D03*
X169348Y175300D02*
D03*
X165265Y172084D02*
D03*
Y168200D02*
D03*
X171648Y175300D02*
D03*
X169850Y112574D02*
D03*
X168348Y122100D02*
D03*
X307448Y132800D02*
D03*
X303248Y132100D02*
D03*
X303148Y129600D02*
D03*
X314093Y64083D02*
D03*
X261287Y27878D02*
D03*
X259319Y29557D02*
D03*
X244293Y26484D02*
D03*
X211748Y47300D02*
D03*
X211150Y49669D02*
D03*
X218993Y42184D02*
D03*
X230093Y52210D02*
D03*
X228793Y40584D02*
D03*
X232193Y36983D02*
D03*
X230493Y39083D02*
D03*
X298548Y52100D02*
D03*
X309648Y33700D02*
D03*
X307548D02*
D03*
X173150Y94283D02*
D03*
X201650Y133974D02*
D03*
X201600Y137974D02*
D03*
X201650Y139974D02*
D03*
Y142274D02*
D03*
Y131974D02*
D03*
X193000Y126599D02*
D03*
Y128819D02*
D03*
X192450Y109283D02*
D03*
X186950Y122083D02*
D03*
X47150Y136674D02*
D03*
X195730Y38983D02*
D03*
X190050Y125883D02*
D03*
X240815Y131799D02*
D03*
X182150Y122074D02*
D03*
X177650D02*
D03*
X172850Y122083D02*
D03*
X168900Y149099D02*
D03*
X172200Y149974D02*
D03*
X150130Y22831D02*
D03*
X144693Y25031D02*
D03*
X137093Y5384D02*
D03*
X139100Y9199D02*
D03*
X221893Y24284D02*
D03*
X208130Y31183D02*
D03*
X206530Y32683D02*
D03*
X233748Y22800D02*
D03*
X263046Y26030D02*
D03*
X244293Y28883D02*
D03*
X244193Y31284D02*
D03*
X233693Y34683D02*
D03*
X235693Y21584D02*
D03*
X237665Y20211D02*
D03*
X248450Y177974D02*
D03*
Y176174D02*
D03*
X173148Y140200D02*
D03*
X154848Y172700D02*
D03*
X178900Y139499D02*
D03*
X200100Y168299D02*
D03*
X250200Y136199D02*
D03*
X56952Y148892D02*
D03*
X155150Y106983D02*
D03*
X164693Y95331D02*
D03*
X312393Y65083D02*
D03*
X234906Y155331D02*
D03*
X69352Y154992D02*
D03*
X66252Y151992D02*
D03*
X63352Y148992D02*
D03*
X72250Y178074D02*
D03*
X251693Y19831D02*
D03*
X110193Y48331D02*
D03*
X277700Y171799D02*
D03*
X275177Y186315D02*
D03*
X270193Y169169D02*
D03*
X262193Y168331D02*
D03*
X267448Y124200D02*
D03*
X245700Y154099D02*
D03*
X146193Y89331D02*
D03*
X296848Y151100D02*
D03*
X84193Y62831D02*
D03*
X119330Y114083D02*
D03*
X124693Y117831D02*
D03*
X84230Y79783D02*
D03*
X191693Y60831D02*
D03*
X191193Y50331D02*
D03*
X192193Y48331D02*
D03*
X191730Y38983D02*
D03*
X195193Y45331D02*
D03*
X193693Y46831D02*
D03*
X95893Y40963D02*
D03*
X153193Y106331D02*
D03*
X270193Y173831D02*
D03*
X42152Y122392D02*
D03*
X64394Y111167D02*
D03*
X153348Y111300D02*
D03*
X205230Y34283D02*
D03*
X201530Y37383D02*
D03*
X62938Y90499D02*
D03*
X67392Y94953D02*
D03*
X71846Y99407D02*
D03*
X85209Y112770D02*
D03*
X83152Y110392D02*
D03*
X79288Y116292D02*
D03*
X72530Y131783D02*
D03*
X83884Y120637D02*
D03*
X96259Y123991D02*
D03*
X107852Y105792D02*
D03*
X94117Y121678D02*
D03*
X81430Y136414D02*
D03*
X81452Y123192D02*
D03*
X74925Y142759D02*
D03*
X62634Y130890D02*
D03*
X68711Y113092D02*
D03*
X63732Y123112D02*
D03*
X66948Y135486D02*
D03*
X60552Y142392D02*
D03*
X57140Y116804D02*
D03*
X47011Y115334D02*
D03*
X29252Y105792D02*
D03*
X32052Y109092D02*
D03*
X38052Y115092D02*
D03*
X42518Y110918D02*
D03*
X51357Y119896D02*
D03*
X34952Y112092D02*
D03*
X39052Y126092D02*
D03*
X42452Y129292D02*
D03*
X45452Y132292D02*
D03*
X44930Y112983D02*
D03*
X69620Y97180D02*
D03*
X80755Y108316D02*
D03*
X87420Y115014D02*
D03*
X91891Y119451D02*
D03*
X64792Y133187D02*
D03*
X75156Y134358D02*
D03*
X89663Y117224D02*
D03*
X79103Y138630D02*
D03*
X72730Y105314D02*
D03*
X75652Y117792D02*
D03*
X61405Y120796D02*
D03*
X30652Y122392D02*
D03*
X61610Y125233D02*
D03*
X49236Y117564D02*
D03*
X94694Y127477D02*
D03*
X51340Y141604D02*
D03*
X78052Y145292D02*
D03*
X63990Y113330D02*
D03*
X59152Y128892D02*
D03*
X155048Y112800D02*
D03*
X160339Y138505D02*
D03*
X160348Y130088D02*
D03*
X270193Y171331D02*
D03*
X153330Y22831D02*
D03*
X191693Y25957D02*
D03*
X197193Y43831D02*
D03*
X199944Y40582D02*
D03*
X191693Y87831D02*
D03*
X284748Y28600D02*
D03*
X160352Y125892D02*
D03*
X245693Y161831D02*
D03*
X245500Y156768D02*
D03*
X70903Y139515D02*
D03*
X69280Y137607D02*
D03*
X190389Y81527D02*
D03*
X256693Y168331D02*
D03*
X255193D02*
D03*
X175100Y59700D02*
D03*
X175493Y65331D02*
D03*
X170900Y148199D02*
D03*
X198550Y42174D02*
D03*
X203330Y35883D02*
D03*
X203000Y169649D02*
D03*
X179250Y136874D02*
D03*
X171948Y169961D02*
D03*
X170265Y168374D02*
D03*
X190850Y163074D02*
D03*
X188850Y154524D02*
D03*
X190850Y157474D02*
D03*
Y155374D02*
D03*
X201550Y154174D02*
D03*
Y156274D02*
D03*
Y158474D02*
D03*
Y160774D02*
D03*
X203000Y167499D02*
D03*
X60352Y146092D02*
D03*
X190850Y169474D02*
D03*
Y153374D02*
D03*
Y151374D02*
D03*
X188850Y150874D02*
D03*
X187300Y149474D02*
D03*
X191800Y147999D02*
D03*
X201550Y149274D02*
D03*
X69252Y161092D02*
D03*
X152465Y169100D02*
D03*
X203000Y165349D02*
D03*
X72250Y174574D02*
D03*
X232250Y186174D02*
D03*
X122350Y92774D02*
D03*
X235248Y163731D02*
D03*
X170550Y122074D02*
D03*
X179950D02*
D03*
X174148Y135321D02*
D03*
X177703D02*
D03*
X193000Y137699D02*
D03*
X183150Y135374D02*
D03*
X192593Y28046D02*
D03*
X146693Y25031D02*
D03*
X148693D02*
D03*
X244193Y24331D02*
D03*
X177693Y22831D02*
D03*
X208430Y28483D02*
D03*
X264793Y79984D02*
D03*
X218193Y72110D02*
D03*
X213693Y45331D02*
D03*
X217293Y40883D02*
D03*
X112350Y44383D02*
D03*
X131193Y24331D02*
D03*
X114130Y22583D02*
D03*
X116630D02*
D03*
X127650Y23883D02*
D03*
X173193Y91583D02*
D03*
X193000Y135479D02*
D03*
Y131039D02*
D03*
X279779Y146916D02*
D03*
X277650Y147183D02*
D03*
X238765Y131799D02*
D03*
X129693Y22831D02*
D03*
X137850D02*
D03*
X190150Y123783D02*
D03*
X325748Y180500D02*
D03*
X319197Y181249D02*
D03*
X279248Y148900D02*
D03*
X296895Y147800D02*
D03*
X274848Y139100D02*
D03*
X290848Y148600D02*
D03*
X297148Y140700D02*
D03*
X288548Y135000D02*
D03*
X290348Y137800D02*
D03*
X292148Y135900D02*
D03*
X230211Y24363D02*
D03*
X190350Y108583D02*
D03*
X190150Y121583D02*
D03*
X189165Y106899D02*
D03*
X233748Y135200D02*
D03*
Y125400D02*
D03*
X243193Y137774D02*
D03*
X243150Y135974D02*
D03*
X248693Y139331D02*
D03*
X300948Y149200D02*
D03*
X155848Y117400D02*
D03*
X161148Y122000D02*
D03*
X146648Y162300D02*
D03*
X154748Y159800D02*
D03*
Y162900D02*
D03*
X239634Y19142D02*
D03*
X260000Y168799D02*
D03*
X92193Y31045D02*
D03*
X92148Y37500D02*
D03*
X247193Y136199D02*
D03*
X248693D02*
D03*
X251900Y122499D02*
D03*
X253600D02*
D03*
X158013Y11173D02*
D03*
X154863Y8373D02*
D03*
X156438Y9773D02*
D03*
X158993Y5984D02*
D03*
X164312Y11173D02*
D03*
X161162Y6100D02*
D03*
X175330Y22831D02*
D03*
X191693Y23831D02*
D03*
X173730Y25031D02*
D03*
X172230Y22831D02*
D03*
X170630Y25031D02*
D03*
X169030Y22831D02*
D03*
X167430Y25031D02*
D03*
X212348Y22300D02*
D03*
X283548Y22100D02*
D03*
X299448Y122000D02*
D03*
X310648Y122600D02*
D03*
X321253Y154337D02*
D03*
X28652Y102892D02*
D03*
X23693Y114083D02*
D03*
X24652Y116392D02*
D03*
X27652Y119392D02*
D03*
X214648Y128900D02*
D03*
X322265Y59999D02*
D03*
Y62199D02*
D03*
X324065Y53699D02*
D03*
Y51849D02*
D03*
Y49999D02*
D03*
X189060Y144764D02*
D03*
X190450Y146374D02*
D03*
X187300Y152699D02*
D03*
Y156099D02*
D03*
X190850Y166274D02*
D03*
X187348Y163700D02*
D03*
X188850Y158174D02*
D03*
X171948Y166800D02*
D03*
X165265Y155647D02*
D03*
Y159600D02*
D03*
Y164099D02*
D03*
Y166150D02*
D03*
X170265Y165599D02*
D03*
X152465Y166599D02*
D03*
X170265Y158899D02*
D03*
X246965Y36599D02*
D03*
X178565Y175399D02*
D03*
X235665Y140199D02*
D03*
X311000Y126599D02*
D03*
X319116Y129247D02*
D03*
X301265Y120599D02*
D03*
X81656Y156286D02*
D03*
X79437Y156296D02*
D03*
X77071Y156748D02*
D03*
X58131Y162599D02*
D03*
X60398D02*
D03*
X58131Y160399D02*
D03*
X62665Y162599D02*
D03*
X93965Y157199D02*
D03*
X97015D02*
D03*
X100065D02*
D03*
X119065D02*
D03*
X121265D02*
D03*
X123465D02*
D03*
X125665D02*
D03*
X127865D02*
D03*
X142700Y159399D02*
D03*
Y157199D02*
D03*
X60398Y160399D02*
D03*
X201650Y135974D02*
D03*
X205165Y26599D02*
D03*
X194165Y25099D02*
D03*
X216165Y22699D02*
D03*
X218365D02*
D03*
X223765Y21799D02*
D03*
Y19599D02*
D03*
X205265Y7899D02*
D03*
X207498D02*
D03*
X209731D02*
D03*
X211965D02*
D03*
X179865Y27399D02*
D03*
Y25199D02*
D03*
X157800Y24300D02*
D03*
X40390Y56699D02*
D03*
X43065D02*
D03*
X37715D02*
D03*
X35040D02*
D03*
X37600Y54399D02*
D03*
X254900Y115299D02*
D03*
X256800D02*
D03*
X172200Y146499D02*
D03*
X193000Y133259D02*
D03*
X255400Y122499D02*
D03*
X251800Y136199D02*
D03*
X257600Y113499D02*
D03*
X255900D02*
D03*
X254200D02*
D03*
X56600Y175099D02*
D03*
Y179599D02*
D03*
X320195Y143400D02*
D03*
X320094Y145900D02*
D03*
X319994Y148800D02*
D03*
D89*
X31200Y132100D02*
D03*
X318010Y159255D02*
D03*
X300787Y172341D02*
D03*
X303837D02*
D03*
X314448Y107700D02*
D03*
X229256Y169751D02*
D03*
X107900Y36199D02*
D03*
X262165Y41699D02*
D03*
Y44499D02*
D03*
X258965D02*
D03*
Y41599D02*
D03*
X281348Y85800D02*
D03*
X278365Y85699D02*
D03*
X275365D02*
D03*
X230665Y89599D02*
D03*
X145248Y166200D02*
D03*
X206448Y169300D02*
D03*
X287244Y63427D02*
D03*
X297548Y59600D02*
D03*
X344848Y124200D02*
D03*
Y128550D02*
D03*
Y132900D02*
D03*
X354548Y121800D02*
D03*
X117248Y7700D02*
D03*
X45865Y142899D02*
D03*
X251050Y88983D02*
D03*
X286150Y112383D02*
D03*
X41493Y26384D02*
D03*
X34450Y136774D02*
D03*
X27900Y135099D02*
D03*
X14048Y185602D02*
D03*
X31450Y147774D02*
D03*
X37974Y152087D02*
D03*
X38069Y154950D02*
D03*
X22974Y185602D02*
D03*
X20074D02*
D03*
X17174D02*
D03*
X229393Y21083D02*
D03*
X94548Y7100D02*
D03*
X31593Y135331D02*
D03*
X203950Y149474D02*
D03*
X52850Y162174D02*
D03*
X24550Y154174D02*
D03*
X130161Y7313D02*
D03*
X44565Y140899D02*
D03*
X314548Y27600D02*
D03*
X25874Y185602D02*
D03*
X13665Y157639D02*
D03*
X312948Y179700D02*
D03*
X61548Y35900D02*
D03*
X56048Y33400D02*
D03*
X57276Y35828D02*
D03*
X80007Y4828D02*
D03*
X28774Y185602D02*
D03*
X222748Y94200D02*
D03*
X308981Y179367D02*
D03*
X337448Y173700D02*
D03*
X314448Y163700D02*
D03*
X13665Y160899D02*
D03*
X16846Y49326D02*
D03*
Y46426D02*
D03*
Y37726D02*
D03*
Y40626D02*
D03*
Y43526D02*
D03*
X16848Y34600D02*
D03*
X51874Y186502D02*
D03*
X54774D02*
D03*
X57674D02*
D03*
X48748D02*
D03*
X300648Y185702D02*
D03*
X309891D02*
D03*
X306810D02*
D03*
X303729D02*
D03*
X312972D02*
D03*
X316054D02*
D03*
X328378D02*
D03*
X337621D02*
D03*
X334540D02*
D03*
X331459D02*
D03*
X340702D02*
D03*
X343783D02*
D03*
X350165Y167299D02*
D03*
X319795Y124600D02*
D03*
X289347Y116300D02*
D03*
X292248D02*
D03*
X293548Y103200D02*
D03*
X293448Y100400D02*
D03*
X275348Y88500D02*
D03*
X278348D02*
D03*
X281348Y88600D02*
D03*
X299548Y88300D02*
D03*
X302548D02*
D03*
X96265Y3899D02*
D03*
X99165D02*
D03*
X116464Y2671D02*
D03*
X119297D02*
D03*
X122130D02*
D03*
X124964D02*
D03*
X5446Y178326D02*
D03*
Y175426D02*
D03*
Y166726D02*
D03*
Y169626D02*
D03*
Y172526D02*
D03*
Y163600D02*
D03*
X14322Y3198D02*
D03*
X263750Y3099D02*
D03*
X266700D02*
D03*
X247532Y7800D02*
D03*
X250774D02*
D03*
X241048D02*
D03*
X244290D02*
D03*
X190850Y159774D02*
D03*
X171050Y161474D02*
D03*
X292865Y112800D02*
D03*
X4548Y11000D02*
D03*
X4546Y19926D02*
D03*
Y17026D02*
D03*
Y14126D02*
D03*
Y22826D02*
D03*
Y25726D02*
D03*
X13665Y154379D02*
D03*
Y151119D02*
D03*
Y144599D02*
D03*
Y147859D02*
D03*
X25500Y127500D02*
D03*
X107900Y38899D02*
D03*
X150465Y2799D02*
D03*
X147665D02*
D03*
X144865D02*
D03*
X142065D02*
D03*
X167965Y2399D02*
D03*
X170998D02*
D03*
X174031D02*
D03*
X177065D02*
D03*
X193865Y2499D02*
D03*
X197174D02*
D03*
X200484D02*
D03*
X203793D02*
D03*
X207103D02*
D03*
X210412D02*
D03*
X213722D02*
D03*
X217031D02*
D03*
X220341D02*
D03*
X223650D02*
D03*
X226960D02*
D03*
X230269D02*
D03*
X233579D02*
D03*
X236888D02*
D03*
X240198D02*
D03*
X243507D02*
D03*
X246817D02*
D03*
X250126D02*
D03*
X260800Y3099D02*
D03*
X256745Y2499D02*
D03*
X253436D02*
D03*
X5865Y7999D02*
D03*
X8065Y5899D02*
D03*
X10765Y4099D02*
D03*
X338165Y94699D02*
D03*
Y91699D02*
D03*
Y88699D02*
D03*
Y85699D02*
D03*
Y82699D02*
D03*
X319765Y121799D02*
D03*
X319865Y118999D02*
D03*
X347065Y158999D02*
D03*
X350165Y164399D02*
D03*
Y161499D02*
D03*
X319135Y185702D02*
D03*
X322216D02*
D03*
X325297D02*
D03*
X346865D02*
D03*
X345265Y78599D02*
D03*
X349098D02*
D03*
X352931D02*
D03*
X356765D02*
D03*
X356765Y75499D02*
D03*
Y72399D02*
D03*
X141548Y162400D02*
D03*
X32100Y10399D02*
D03*
X28400D02*
D03*
X323594Y100300D02*
D03*
X326594D02*
D03*
X329594D02*
D03*
D90*
X82200Y180400D02*
D03*
X242200Y110499D02*
D03*
X245200Y110399D02*
D03*
X212696Y171500D02*
D03*
X171450Y75874D02*
D03*
X218565Y142799D02*
D03*
X222065D02*
D03*
X215565Y74999D02*
D03*
X145365Y77999D02*
D03*
X145265Y82299D02*
D03*
X145365Y73899D02*
D03*
X25548Y64800D02*
D03*
X79393Y159531D02*
D03*
X88293Y181631D02*
D03*
X81786Y166056D02*
D03*
X84548Y163500D02*
D03*
X212748Y168000D02*
D03*
X219448Y154800D02*
D03*
X134748Y177300D02*
D03*
X138648Y181500D02*
D03*
X75448Y24300D02*
D03*
X212065Y74999D02*
D03*
X72248Y24300D02*
D03*
X209648Y147200D02*
D03*
X189048Y174700D02*
D03*
X222648Y87100D02*
D03*
X238248Y106200D02*
D03*
X333548Y33200D02*
D03*
X218465Y146399D02*
D03*
X295850Y178083D02*
D03*
X30750Y164683D02*
D03*
X26893Y164831D02*
D03*
X220293Y8884D02*
D03*
X221965Y146499D02*
D03*
X61065Y9699D02*
D03*
X246693Y172083D02*
D03*
X249476Y23114D02*
D03*
X91900Y46923D02*
D03*
X152224Y90799D02*
D03*
X172400Y55423D02*
D03*
X54450Y144232D02*
D03*
X111050Y182574D02*
D03*
X51784Y146750D02*
D03*
X90806Y170988D02*
D03*
X238350Y171874D02*
D03*
X235150D02*
D03*
X138648Y177300D02*
D03*
X134648Y181500D02*
D03*
X229700Y166599D02*
D03*
X226300Y166699D02*
D03*
X226400Y170199D02*
D03*
X43493Y5331D02*
D03*
X141193Y23831D02*
D03*
X61065Y5299D02*
D03*
X88950Y173774D02*
D03*
X69565Y5299D02*
D03*
X174650Y75923D02*
D03*
X283048Y107700D02*
D03*
X192148Y103500D02*
D03*
X268693Y104083D02*
D03*
X61065Y13999D02*
D03*
X65315Y5299D02*
D03*
Y9699D02*
D03*
X39948Y45900D02*
D03*
X133965Y6799D02*
D03*
X242765Y85699D02*
D03*
X246365D02*
D03*
X235000Y167799D02*
D03*
X320848Y18600D02*
D03*
D91*
X202200Y87399D02*
D03*
X274600Y22299D02*
D03*
X294900Y82599D02*
D03*
X292300D02*
D03*
X289800D02*
D03*
X286600Y78999D02*
D03*
X285000Y77099D02*
D03*
Y74633D02*
D03*
Y72166D02*
D03*
X287465D02*
D03*
X322965Y30599D02*
D03*
X325465D02*
D03*
X299265Y30399D02*
D03*
X301665D02*
D03*
X296865D02*
D03*
X286700Y40999D02*
D03*
X291165Y37199D02*
D03*
X288765D02*
D03*
X291265Y34799D02*
D03*
X288792D02*
D03*
X286295Y35300D02*
D03*
X284465Y53999D02*
D03*
X272993Y102483D02*
D03*
X323300Y72199D02*
D03*
X327200Y72099D02*
D03*
X324848Y64800D02*
D03*
X319648Y63600D02*
D03*
X284648Y38800D02*
D03*
X286648Y60100D02*
D03*
Y56600D02*
D03*
Y49600D02*
D03*
Y46100D02*
D03*
X324248Y57700D02*
D03*
X295950Y67000D02*
D03*
X298300Y65599D02*
D03*
X300600D02*
D03*
X329548Y54400D02*
D03*
X276393Y102884D02*
D03*
X281250Y100983D02*
D03*
X353448Y6800D02*
D03*
X340015Y2500D02*
D03*
X342631D02*
D03*
X345248D02*
D03*
X351048Y5100D02*
D03*
X307448Y8900D02*
D03*
X309848D02*
D03*
X348448Y3700D02*
D03*
X333948Y50250D02*
D03*
Y52700D02*
D03*
Y47800D02*
D03*
X337398Y2500D02*
D03*
X332281Y18262D02*
D03*
X332329Y15697D02*
D03*
X335015Y18262D02*
D03*
X329548Y13000D02*
D03*
Y15700D02*
D03*
X334781Y2500D02*
D03*
X329548Y4900D02*
D03*
Y10300D02*
D03*
X332165Y2500D02*
D03*
X329548D02*
D03*
Y7600D02*
D03*
X127350Y72999D02*
D03*
X129800D02*
D03*
X132790Y72999D02*
D03*
X135710D02*
D03*
X138630D02*
D03*
X141300D02*
D03*
X127350Y61566D02*
D03*
Y47274D02*
D03*
Y50132D02*
D03*
Y55849D02*
D03*
Y58707D02*
D03*
Y64424D02*
D03*
Y67282D02*
D03*
Y70141D02*
D03*
X131100Y45099D02*
D03*
X133670D02*
D03*
X136280D02*
D03*
X138890D02*
D03*
X144110D02*
D03*
X146720D02*
D03*
X151940D02*
D03*
X141500D02*
D03*
X149330D02*
D03*
X156950Y68454D02*
D03*
Y65844D02*
D03*
Y63234D02*
D03*
Y60624D02*
D03*
Y52794D02*
D03*
X129800Y52991D02*
D03*
Y61566D02*
D03*
Y47274D02*
D03*
Y55849D02*
D03*
Y58707D02*
D03*
Y64424D02*
D03*
Y67282D02*
D03*
Y70141D02*
D03*
X353948Y33700D02*
D03*
X356948D02*
D03*
X346248Y37223D02*
D03*
Y39746D02*
D03*
Y42269D02*
D03*
Y44792D02*
D03*
Y47315D02*
D03*
Y49838D02*
D03*
X342757Y75900D02*
D03*
X295950Y77481D02*
D03*
Y74862D02*
D03*
X317850Y75900D02*
D03*
X315250Y80200D02*
D03*
X317850Y78574D02*
D03*
X345248Y75900D02*
D03*
X345294Y73800D02*
D03*
X346248Y34700D02*
D03*
X351100Y33699D02*
D03*
X346248Y52362D02*
D03*
X336448Y47800D02*
D03*
X337748Y45700D02*
D03*
X295950Y69599D02*
D03*
X346248Y54885D02*
D03*
X332048Y54400D02*
D03*
X346248Y57408D02*
D03*
Y59931D02*
D03*
Y62454D02*
D03*
Y64977D02*
D03*
X265250Y100274D02*
D03*
X60052Y151892D02*
D03*
X79300Y42999D02*
D03*
X346248Y67500D02*
D03*
X173550Y107674D02*
D03*
X170693Y107331D02*
D03*
X62952Y154892D02*
D03*
X65952Y157892D02*
D03*
X268693Y76083D02*
D03*
X231165Y74399D02*
D03*
X172330Y72083D02*
D03*
X277430Y153683D02*
D03*
X279430Y153743D02*
D03*
X156950Y58014D02*
D03*
Y55404D02*
D03*
X312589Y80200D02*
D03*
X309929D02*
D03*
X307269D02*
D03*
X348500Y33699D02*
D03*
X354900Y68899D02*
D03*
X352500D02*
D03*
X357300D02*
D03*
X345294Y71500D02*
D03*
X347795Y71400D02*
D03*
X332794Y75900D02*
D03*
X335285D02*
D03*
X337776D02*
D03*
X340266Y76000D02*
D03*
X335700Y72199D02*
D03*
X301948Y80200D02*
D03*
X304608D02*
D03*
X330348Y66300D02*
D03*
X332748D02*
D03*
X335148D02*
D03*
X337548D02*
D03*
X339948D02*
D03*
X342348D02*
D03*
X330348Y63900D02*
D03*
X329148Y61700D02*
D03*
Y59300D02*
D03*
Y56800D02*
D03*
X324848Y69700D02*
D03*
X325648Y59700D02*
D03*
Y62200D02*
D03*
X330303Y75900D02*
D03*
X324848Y67200D02*
D03*
X350195Y70100D02*
D03*
X338100Y72199D02*
D03*
X333300Y72299D02*
D03*
X273048Y63900D02*
D03*
X277193Y99383D02*
D03*
X276448Y38400D02*
D03*
X274748Y35800D02*
D03*
X270948Y34100D02*
D03*
X271048Y29500D02*
D03*
X295950Y72166D02*
D03*
X295948Y80200D02*
D03*
X298348D02*
D03*
X307380Y104269D02*
D03*
X301748Y103100D02*
D03*
X59648Y22900D02*
D03*
X275648Y92500D02*
D03*
X280948Y13000D02*
D03*
X282648Y11000D02*
D03*
X199248Y9800D02*
D03*
X337748Y43200D02*
D03*
Y40700D02*
D03*
Y38200D02*
D03*
Y35700D02*
D03*
Y33200D02*
D03*
Y30700D02*
D03*
Y28200D02*
D03*
Y25700D02*
D03*
Y23200D02*
D03*
X356948Y31300D02*
D03*
Y28600D02*
D03*
Y25900D02*
D03*
Y23200D02*
D03*
Y20500D02*
D03*
Y17800D02*
D03*
X356848Y14600D02*
D03*
Y11700D02*
D03*
X355448Y8700D02*
D03*
X330248Y78400D02*
D03*
X317848Y81000D02*
D03*
Y83600D02*
D03*
X320048Y85100D02*
D03*
X329100Y85699D02*
D03*
X331648Y85699D02*
D03*
Y83150D02*
D03*
Y80600D02*
D03*
X335175Y25695D02*
D03*
X329948Y34600D02*
D03*
X293300Y69599D02*
D03*
X290900D02*
D03*
X287448D02*
D03*
X285000D02*
D03*
X275900Y68699D02*
D03*
Y66399D02*
D03*
X296900Y27999D02*
D03*
X299300D02*
D03*
X301700D02*
D03*
X294400D02*
D03*
X306948Y28000D02*
D03*
X309348D02*
D03*
X322965Y27899D02*
D03*
X328000Y32899D02*
D03*
X284095Y35300D02*
D03*
X337748Y20800D02*
D03*
X337748Y18262D02*
D03*
X329548D02*
D03*
X312348Y8900D02*
D03*
X314748D02*
D03*
X317148D02*
D03*
X319548D02*
D03*
X321948D02*
D03*
X324448D02*
D03*
X326848D02*
D03*
X298548D02*
D03*
X295771D02*
D03*
X292995D02*
D03*
X290218D02*
D03*
X284665D02*
D03*
X287441D02*
D03*
X279248D02*
D03*
X276648D02*
D03*
X129800Y50132D02*
D03*
X127350Y52991D02*
D03*
X281888Y8900D02*
D03*
D92*
X161430Y106483D02*
D03*
X108193Y79831D02*
D03*
X127530Y90083D02*
D03*
X111552Y95183D02*
D03*
X131230D02*
D03*
X142230D02*
D03*
X160606Y134138D02*
D03*
X159735Y142618D02*
D03*
X108193Y65831D02*
D03*
X172693Y80583D02*
D03*
X170693Y82083D02*
D03*
D93*
X243848Y19500D02*
D03*
D94*
X141887Y115284D02*
D03*
D95*
X306862Y46800D02*
D03*
X311193D02*
D03*
X315524D02*
D03*
X306862Y51131D02*
D03*
X311193D02*
D03*
X315524D02*
D03*
X306862Y55461D02*
D03*
X311193D02*
D03*
X315524D02*
D03*
D96*
X261193Y152831D02*
D03*
M02*
