%FSLAX25Y25*%
%MOIN*%
G70*
G01*
G75*
%ADD10C,0.01969*%
%ADD11R,0.01102X0.01575*%
%ADD12R,0.02000X0.02000*%
%ADD13C,0.01000*%
%ADD14C,0.02000*%
%ADD15C,0.02200*%
%ADD16R,0.07874X0.01378*%
%ADD17C,0.01400*%
%ADD18C,0.00984*%
%ADD19C,0.00500*%
%ADD20C,0.00400*%
G36*
X30600Y7344D02*
X30616D01*
X30632Y7343D01*
X30650Y7342D01*
X30692Y7338D01*
X30734Y7332D01*
X30775Y7324D01*
X30795Y7319D01*
X30814Y7312D01*
X30816D01*
X30818Y7311D01*
X30823Y7308D01*
X30830Y7306D01*
X30839Y7303D01*
X30848Y7298D01*
X30870Y7288D01*
X30893Y7275D01*
X30919Y7258D01*
X30942Y7239D01*
X30964Y7215D01*
Y7214D01*
X30966Y7213D01*
X30969Y7209D01*
X30972Y7204D01*
X30975Y7198D01*
X30981Y7191D01*
X30990Y7172D01*
X30999Y7148D01*
X31008Y7121D01*
X31013Y7089D01*
X31016Y7054D01*
Y7053D01*
Y7049D01*
Y7041D01*
X31014Y7032D01*
X31013Y7022D01*
X31010Y7009D01*
X31008Y6995D01*
X31004Y6979D01*
X30999Y6964D01*
X30994Y6947D01*
X30986Y6930D01*
X30977Y6914D01*
X30966Y6897D01*
X30954Y6880D01*
X30939Y6865D01*
X30924Y6850D01*
X30923Y6849D01*
X30919Y6847D01*
X30912Y6843D01*
X30902Y6836D01*
X30890Y6830D01*
X30875Y6823D01*
X30857Y6814D01*
X30836Y6807D01*
X30813Y6799D01*
X30786Y6791D01*
X30756Y6783D01*
X30723Y6777D01*
X30687Y6770D01*
X30648Y6767D01*
X30605Y6764D01*
X30560Y6763D01*
X30534D01*
X30520Y6764D01*
X30505D01*
X30488Y6765D01*
X30468Y6767D01*
X30428Y6770D01*
X30386Y6777D01*
X30343Y6785D01*
X30324Y6790D01*
X30305Y6795D01*
X30303D01*
X30301Y6796D01*
X30296Y6799D01*
X30289Y6801D01*
X30280Y6804D01*
X30271Y6809D01*
X30249Y6820D01*
X30226Y6832D01*
X30202Y6849D01*
X30177Y6869D01*
X30156Y6892D01*
Y6893D01*
X30154Y6894D01*
X30151Y6898D01*
X30149Y6903D01*
X30143Y6910D01*
X30140Y6917D01*
X30129Y6937D01*
X30120Y6960D01*
X30111Y6987D01*
X30106Y7019D01*
X30103Y7054D01*
Y7056D01*
Y7057D01*
Y7061D01*
Y7066D01*
X30105Y7080D01*
X30107Y7097D01*
X30111Y7116D01*
X30116Y7137D01*
X30123Y7159D01*
X30133Y7179D01*
Y7181D01*
X30134Y7182D01*
X30138Y7188D01*
X30145Y7199D01*
X30154Y7212D01*
X30167Y7226D01*
X30181Y7241D01*
X30198Y7255D01*
X30217Y7270D01*
X30220Y7271D01*
X30226Y7276D01*
X30238Y7281D01*
X30254Y7290D01*
X30274Y7298D01*
X30296Y7308D01*
X30321Y7317D01*
X30350Y7325D01*
X30351D01*
X30354Y7326D01*
X30358Y7328D01*
X30364Y7329D01*
X30372Y7330D01*
X30381Y7332D01*
X30392Y7334D01*
X30405Y7335D01*
X30419Y7338D01*
X30435Y7339D01*
X30453Y7341D01*
X30471Y7343D01*
X30492Y7344D01*
X30512D01*
X30536Y7346D01*
X30586D01*
X30600Y7344D01*
D02*
G37*
G36*
X31000Y7760D02*
X30302D01*
X30303Y7759D01*
X30309Y7752D01*
X30316Y7744D01*
X30325Y7732D01*
X30337Y7717D01*
X30350Y7699D01*
X30364Y7679D01*
X30378Y7655D01*
Y7654D01*
X30380Y7653D01*
X30385Y7645D01*
X30391Y7632D01*
X30399Y7617D01*
X30408Y7599D01*
X30417Y7579D01*
X30426Y7560D01*
X30434Y7541D01*
X30328D01*
Y7542D01*
X30325Y7544D01*
X30324Y7550D01*
X30320Y7556D01*
X30316Y7564D01*
X30311Y7573D01*
X30298Y7595D01*
X30284Y7621D01*
X30266Y7646D01*
X30245Y7673D01*
X30223Y7700D01*
X30222Y7702D01*
X30221Y7703D01*
X30217Y7707D01*
X30213Y7712D01*
X30200Y7724D01*
X30185Y7739D01*
X30167Y7755D01*
X30146Y7772D01*
X30125Y7786D01*
X30103Y7799D01*
Y7869D01*
X31000D01*
Y7760D01*
D02*
G37*
G36*
Y6053D02*
X30986D01*
X30975Y6055D01*
X30964Y6056D01*
X30951Y6058D01*
X30938Y6061D01*
X30924Y6066D01*
X30923D01*
X30921Y6067D01*
X30914Y6070D01*
X30902Y6075D01*
X30887Y6083D01*
X30868Y6093D01*
X30848Y6106D01*
X30827Y6120D01*
X30805Y6138D01*
X30804D01*
X30803Y6141D01*
X30795Y6147D01*
X30783Y6159D01*
X30766Y6176D01*
X30747Y6195D01*
X30724Y6220D01*
X30698Y6249D01*
X30671Y6282D01*
X30670Y6283D01*
X30666Y6288D01*
X30659Y6296D01*
X30652Y6305D01*
X30641Y6316D01*
X30630Y6331D01*
X30617Y6345D01*
X30603Y6362D01*
X30572Y6394D01*
X30541Y6426D01*
X30525Y6442D01*
X30510Y6456D01*
X30496Y6469D01*
X30481Y6479D01*
X30480D01*
X30479Y6481D01*
X30475Y6484D01*
X30470Y6487D01*
X30456Y6496D01*
X30439Y6506D01*
X30418Y6515D01*
X30396Y6524D01*
X30372Y6529D01*
X30349Y6532D01*
X30346D01*
X30338Y6531D01*
X30325Y6529D01*
X30311Y6525D01*
X30293Y6520D01*
X30275Y6511D01*
X30257Y6500D01*
X30239Y6484D01*
X30236Y6481D01*
X30231Y6475D01*
X30225Y6466D01*
X30216Y6452D01*
X30208Y6434D01*
X30200Y6413D01*
X30195Y6389D01*
X30194Y6362D01*
Y6360D01*
Y6358D01*
Y6354D01*
X30195Y6349D01*
X30196Y6333D01*
X30200Y6315D01*
X30205Y6296D01*
X30214Y6274D01*
X30226Y6253D01*
X30242Y6234D01*
X30244Y6231D01*
X30250Y6226D01*
X30261Y6218D01*
X30276Y6211D01*
X30294Y6202D01*
X30318Y6194D01*
X30343Y6189D01*
X30373Y6186D01*
X30362Y6074D01*
X30360D01*
X30356Y6075D01*
X30350D01*
X30341Y6076D01*
X30331Y6079D01*
X30319Y6082D01*
X30305Y6086D01*
X30290Y6089D01*
X30259Y6100D01*
X30229Y6115D01*
X30213Y6124D01*
X30198Y6136D01*
X30183Y6147D01*
X30171Y6160D01*
X30169Y6162D01*
X30168Y6164D01*
X30164Y6168D01*
X30160Y6174D01*
X30155Y6182D01*
X30150Y6191D01*
X30143Y6202D01*
X30137Y6214D01*
X30130Y6229D01*
X30124Y6244D01*
X30119Y6261D01*
X30114Y6279D01*
X30110Y6298D01*
X30106Y6319D01*
X30105Y6341D01*
X30103Y6364D01*
Y6365D01*
Y6369D01*
Y6377D01*
X30105Y6386D01*
X30106Y6396D01*
X30107Y6409D01*
X30110Y6423D01*
X30112Y6438D01*
X30121Y6471D01*
X30134Y6505D01*
X30142Y6521D01*
X30151Y6538D01*
X30163Y6554D01*
X30176Y6568D01*
X30177Y6569D01*
X30178Y6572D01*
X30183Y6574D01*
X30189Y6579D01*
X30195Y6586D01*
X30204Y6592D01*
X30213Y6599D01*
X30225Y6607D01*
X30249Y6620D01*
X30280Y6632D01*
X30296Y6638D01*
X30314Y6640D01*
X30332Y6643D01*
X30351Y6644D01*
X30360D01*
X30371Y6643D01*
X30385Y6641D01*
X30400Y6639D01*
X30418Y6634D01*
X30438Y6629D01*
X30457Y6621D01*
X30459Y6620D01*
X30466Y6617D01*
X30476Y6612D01*
X30490Y6604D01*
X30506Y6594D01*
X30525Y6581D01*
X30545Y6565D01*
X30567Y6547D01*
X30569Y6545D01*
X30577Y6538D01*
X30583Y6532D01*
X30590Y6525D01*
X30597Y6518D01*
X30608Y6507D01*
X30618Y6497D01*
X30630Y6484D01*
X30643Y6471D01*
X30657Y6456D01*
X30671Y6439D01*
X30688Y6421D01*
X30705Y6400D01*
X30723Y6380D01*
X30724Y6378D01*
X30727Y6376D01*
X30730Y6371D01*
X30736Y6364D01*
X30743Y6356D01*
X30751Y6347D01*
X30768Y6327D01*
X30787Y6305D01*
X30806Y6284D01*
X30823Y6266D01*
X30830Y6258D01*
X30836Y6252D01*
X30838Y6251D01*
X30841Y6247D01*
X30847Y6242D01*
X30854Y6235D01*
X30863Y6229D01*
X30872Y6221D01*
X30894Y6205D01*
Y6645D01*
X31000D01*
Y6053D01*
D02*
G37*
G36*
Y5469D02*
X30729Y5364D01*
Y4990D01*
X31000Y4893D01*
Y4768D01*
X30107Y5109D01*
Y5238D01*
X31000Y5603D01*
Y5469D01*
D02*
G37*
G36*
X30732Y5640D02*
X30622D01*
Y5980D01*
X30732D01*
Y5640D01*
D02*
G37*
G36*
X31000Y10217D02*
X30986D01*
X30975Y10219D01*
X30964Y10220D01*
X30951Y10222D01*
X30938Y10225D01*
X30924Y10230D01*
X30923D01*
X30921Y10232D01*
X30914Y10234D01*
X30902Y10239D01*
X30887Y10247D01*
X30868Y10257D01*
X30848Y10270D01*
X30827Y10284D01*
X30805Y10302D01*
X30804D01*
X30803Y10305D01*
X30795Y10311D01*
X30783Y10323D01*
X30766Y10340D01*
X30747Y10359D01*
X30724Y10384D01*
X30698Y10413D01*
X30671Y10446D01*
X30670Y10447D01*
X30666Y10452D01*
X30659Y10460D01*
X30652Y10469D01*
X30641Y10481D01*
X30630Y10495D01*
X30617Y10509D01*
X30603Y10526D01*
X30572Y10558D01*
X30541Y10590D01*
X30525Y10606D01*
X30510Y10620D01*
X30496Y10633D01*
X30481Y10643D01*
X30480D01*
X30479Y10646D01*
X30475Y10648D01*
X30470Y10651D01*
X30456Y10660D01*
X30439Y10670D01*
X30418Y10679D01*
X30396Y10688D01*
X30372Y10693D01*
X30349Y10696D01*
X30346D01*
X30338Y10695D01*
X30325Y10693D01*
X30311Y10689D01*
X30293Y10684D01*
X30275Y10675D01*
X30257Y10664D01*
X30239Y10648D01*
X30236Y10646D01*
X30231Y10639D01*
X30225Y10630D01*
X30216Y10616D01*
X30208Y10598D01*
X30200Y10577D01*
X30195Y10553D01*
X30194Y10526D01*
Y10524D01*
Y10522D01*
Y10518D01*
X30195Y10513D01*
X30196Y10497D01*
X30200Y10479D01*
X30205Y10460D01*
X30214Y10438D01*
X30226Y10417D01*
X30242Y10398D01*
X30244Y10395D01*
X30250Y10390D01*
X30261Y10383D01*
X30276Y10375D01*
X30294Y10366D01*
X30318Y10358D01*
X30343Y10353D01*
X30373Y10350D01*
X30362Y10238D01*
X30360D01*
X30356Y10239D01*
X30350D01*
X30341Y10241D01*
X30331Y10243D01*
X30319Y10246D01*
X30305Y10250D01*
X30290Y10254D01*
X30259Y10264D01*
X30229Y10279D01*
X30213Y10288D01*
X30198Y10300D01*
X30183Y10311D01*
X30171Y10324D01*
X30169Y10326D01*
X30168Y10328D01*
X30164Y10332D01*
X30160Y10339D01*
X30155Y10346D01*
X30150Y10355D01*
X30143Y10366D01*
X30137Y10379D01*
X30130Y10393D01*
X30124Y10408D01*
X30119Y10425D01*
X30114Y10443D01*
X30110Y10462D01*
X30106Y10483D01*
X30105Y10505D01*
X30103Y10528D01*
Y10530D01*
Y10533D01*
Y10541D01*
X30105Y10550D01*
X30106Y10560D01*
X30107Y10573D01*
X30110Y10588D01*
X30112Y10602D01*
X30121Y10635D01*
X30134Y10669D01*
X30142Y10686D01*
X30151Y10702D01*
X30163Y10718D01*
X30176Y10732D01*
X30177Y10733D01*
X30178Y10736D01*
X30183Y10739D01*
X30189Y10744D01*
X30195Y10750D01*
X30204Y10757D01*
X30213Y10763D01*
X30225Y10771D01*
X30249Y10784D01*
X30280Y10797D01*
X30296Y10802D01*
X30314Y10804D01*
X30332Y10807D01*
X30351Y10808D01*
X30360D01*
X30371Y10807D01*
X30385Y10806D01*
X30400Y10803D01*
X30418Y10798D01*
X30438Y10793D01*
X30457Y10785D01*
X30459Y10784D01*
X30466Y10781D01*
X30476Y10776D01*
X30490Y10768D01*
X30506Y10758D01*
X30525Y10745D01*
X30545Y10729D01*
X30567Y10711D01*
X30569Y10709D01*
X30577Y10702D01*
X30583Y10696D01*
X30590Y10689D01*
X30597Y10682D01*
X30608Y10671D01*
X30618Y10661D01*
X30630Y10648D01*
X30643Y10635D01*
X30657Y10620D01*
X30671Y10603D01*
X30688Y10585D01*
X30705Y10564D01*
X30723Y10544D01*
X30724Y10542D01*
X30727Y10540D01*
X30730Y10535D01*
X30736Y10528D01*
X30743Y10520D01*
X30751Y10511D01*
X30768Y10491D01*
X30787Y10469D01*
X30806Y10448D01*
X30823Y10430D01*
X30830Y10423D01*
X30836Y10416D01*
X30838Y10415D01*
X30841Y10411D01*
X30847Y10406D01*
X30854Y10399D01*
X30863Y10393D01*
X30872Y10385D01*
X30894Y10370D01*
Y10809D01*
X31000D01*
Y10217D01*
D02*
G37*
G36*
X30719Y11518D02*
X30729Y11516D01*
X30741Y11515D01*
X30755Y11513D01*
X30769Y11510D01*
X30803Y11502D01*
X30838Y11489D01*
X30856Y11481D01*
X30872Y11471D01*
X30890Y11461D01*
X30907Y11448D01*
X30908Y11447D01*
X30912Y11444D01*
X30917Y11439D01*
X30924Y11433D01*
X30932Y11423D01*
X30942Y11413D01*
X30951Y11400D01*
X30961Y11386D01*
X30972Y11371D01*
X30981Y11353D01*
X30990Y11333D01*
X30999Y11313D01*
X31005Y11291D01*
X31010Y11266D01*
X31014Y11240D01*
X31016Y11213D01*
Y11212D01*
Y11208D01*
Y11202D01*
X31014Y11193D01*
X31013Y11182D01*
X31012Y11171D01*
X31010Y11157D01*
X31007Y11142D01*
X30999Y11110D01*
X30987Y11078D01*
X30979Y11061D01*
X30970Y11044D01*
X30960Y11029D01*
X30948Y11013D01*
X30947Y11012D01*
X30946Y11009D01*
X30941Y11007D01*
X30935Y11002D01*
X30929Y10995D01*
X30921Y10989D01*
X30911Y10981D01*
X30899Y10975D01*
X30888Y10967D01*
X30874Y10959D01*
X30843Y10945D01*
X30806Y10933D01*
X30787Y10929D01*
X30766Y10927D01*
X30757Y11042D01*
X30761D01*
X30765Y11043D01*
X30772Y11044D01*
X30786Y11048D01*
X30805Y11053D01*
X30825Y11061D01*
X30847Y11071D01*
X30866Y11084D01*
X30884Y11100D01*
X30885Y11102D01*
X30890Y11107D01*
X30897Y11118D01*
X30904Y11132D01*
X30912Y11147D01*
X30919Y11167D01*
X30924Y11189D01*
X30925Y11213D01*
Y11214D01*
Y11217D01*
Y11221D01*
X30924Y11226D01*
X30923Y11242D01*
X30917Y11260D01*
X30911Y11282D01*
X30901Y11304D01*
X30885Y11327D01*
X30876Y11337D01*
X30866Y11347D01*
X30865Y11349D01*
X30863Y11350D01*
X30859Y11353D01*
X30856Y11356D01*
X30841Y11365D01*
X30823Y11376D01*
X30801Y11385D01*
X30774Y11394D01*
X30742Y11400D01*
X30725Y11403D01*
X30698D01*
X30692Y11402D01*
X30684D01*
X30675Y11400D01*
X30654Y11396D01*
X30630Y11390D01*
X30605Y11381D01*
X30582Y11368D01*
X30560Y11350D01*
X30559D01*
X30558Y11347D01*
X30551Y11341D01*
X30542Y11329D01*
X30532Y11314D01*
X30523Y11293D01*
X30514Y11270D01*
X30507Y11243D01*
X30505Y11227D01*
Y11212D01*
Y11209D01*
Y11203D01*
X30506Y11193D01*
X30507Y11180D01*
X30511Y11164D01*
X30515Y11149D01*
X30521Y11132D01*
X30529Y11115D01*
X30530Y11114D01*
X30533Y11109D01*
X30540Y11101D01*
X30546Y11091D01*
X30555Y11080D01*
X30567Y11070D01*
X30578Y11058D01*
X30592Y11049D01*
X30578Y10946D01*
X30119Y11033D01*
Y11476D01*
X30223D01*
Y11119D01*
X30465Y11071D01*
X30463Y11073D01*
X30462Y11075D01*
X30459Y11079D01*
X30456Y11085D01*
X30452Y11093D01*
X30447Y11102D01*
X30436Y11123D01*
X30426Y11149D01*
X30417Y11177D01*
X30411Y11208D01*
X30408Y11224D01*
Y11240D01*
Y11242D01*
Y11246D01*
Y11252D01*
X30409Y11260D01*
X30411Y11270D01*
X30412Y11282D01*
X30414Y11294D01*
X30418Y11309D01*
X30427Y11340D01*
X30434Y11356D01*
X30443Y11373D01*
X30452Y11390D01*
X30462Y11407D01*
X30475Y11422D01*
X30489Y11438D01*
X30490Y11439D01*
X30493Y11441D01*
X30497Y11445D01*
X30503Y11451D01*
X30512Y11457D01*
X30521Y11463D01*
X30533Y11471D01*
X30546Y11479D01*
X30560Y11485D01*
X30576Y11493D01*
X30594Y11500D01*
X30612Y11506D01*
X30631Y11511D01*
X30653Y11515D01*
X30675Y11518D01*
X30698Y11519D01*
X30710D01*
X30719Y11518D01*
D02*
G37*
G36*
X30733Y10123D02*
X30741D01*
X30761Y10119D01*
X30786Y10115D01*
X30812Y10109D01*
X30840Y10100D01*
X30867Y10087D01*
X30868D01*
X30870Y10086D01*
X30874Y10083D01*
X30879Y10081D01*
X30892Y10073D01*
X30908Y10061D01*
X30926Y10047D01*
X30944Y10030D01*
X30963Y10010D01*
X30978Y9988D01*
Y9986D01*
X30979Y9985D01*
X30982Y9981D01*
X30983Y9976D01*
X30990Y9963D01*
X30996Y9946D01*
X31004Y9924D01*
X31009Y9900D01*
X31014Y9873D01*
X31016Y9843D01*
Y9842D01*
Y9837D01*
X31014Y9830D01*
Y9820D01*
X31013Y9808D01*
X31010Y9796D01*
X31007Y9780D01*
X31003Y9764D01*
X30997Y9747D01*
X30991Y9728D01*
X30983Y9710D01*
X30973Y9691D01*
X30961Y9673D01*
X30948Y9655D01*
X30933Y9637D01*
X30915Y9620D01*
X30914Y9619D01*
X30910Y9616D01*
X30904Y9612D01*
X30896Y9607D01*
X30884Y9599D01*
X30871Y9593D01*
X30854Y9585D01*
X30836Y9578D01*
X30814Y9568D01*
X30790Y9561D01*
X30763Y9554D01*
X30733Y9548D01*
X30699Y9541D01*
X30663Y9538D01*
X30625Y9535D01*
X30583Y9534D01*
X30572D01*
X30559Y9535D01*
X30541D01*
X30520Y9536D01*
X30496Y9539D01*
X30468Y9541D01*
X30439Y9545D01*
X30409Y9550D01*
X30377Y9557D01*
X30346Y9565D01*
X30315Y9574D01*
X30285Y9585D01*
X30257Y9598D01*
X30230Y9612D01*
X30207Y9629D01*
X30205Y9630D01*
X30203Y9633D01*
X30198Y9638D01*
X30190Y9645D01*
X30182Y9652D01*
X30174Y9663D01*
X30164Y9675D01*
X30155Y9688D01*
X30146Y9704D01*
X30136Y9721D01*
X30128Y9740D01*
X30119Y9759D01*
X30112Y9781D01*
X30107Y9804D01*
X30105Y9829D01*
X30103Y9855D01*
Y9856D01*
Y9860D01*
Y9865D01*
X30105Y9873D01*
Y9882D01*
X30106Y9892D01*
X30111Y9917D01*
X30118Y9944D01*
X30128Y9972D01*
X30143Y10001D01*
X30152Y10015D01*
X30163Y10028D01*
X30164Y10029D01*
X30165Y10030D01*
X30169Y10034D01*
X30173Y10038D01*
X30180Y10045D01*
X30187Y10050D01*
X30205Y10064D01*
X30229Y10078D01*
X30257Y10091D01*
X30289Y10103D01*
X30325Y10110D01*
X30334Y10001D01*
X30333D01*
X30332Y9999D01*
X30324Y9998D01*
X30312Y9994D01*
X30298Y9989D01*
X30283Y9984D01*
X30267Y9976D01*
X30253Y9967D01*
X30242Y9958D01*
X30239Y9956D01*
X30234Y9950D01*
X30226Y9941D01*
X30217Y9928D01*
X30209Y9912D01*
X30202Y9894D01*
X30196Y9872D01*
X30194Y9848D01*
Y9846D01*
Y9839D01*
X30195Y9829D01*
X30198Y9817D01*
X30202Y9802D01*
X30207Y9787D01*
X30213Y9771D01*
X30223Y9755D01*
X30225Y9753D01*
X30230Y9747D01*
X30239Y9737D01*
X30252Y9726D01*
X30267Y9713D01*
X30285Y9699D01*
X30309Y9686D01*
X30334Y9673D01*
X30336D01*
X30338Y9672D01*
X30342Y9670D01*
X30347Y9668D01*
X30355Y9667D01*
X30364Y9664D01*
X30374Y9661D01*
X30387Y9659D01*
X30401Y9655D01*
X30417Y9652D01*
X30434Y9650D01*
X30452Y9648D01*
X30472Y9646D01*
X30493Y9645D01*
X30516Y9643D01*
X30540D01*
X30538Y9645D01*
X30530Y9650D01*
X30520Y9659D01*
X30507Y9670D01*
X30492Y9683D01*
X30478Y9700D01*
X30463Y9718D01*
X30450Y9739D01*
Y9740D01*
X30449Y9741D01*
X30445Y9749D01*
X30441Y9761D01*
X30435Y9776D01*
X30430Y9794D01*
X30426Y9815D01*
X30422Y9837D01*
X30421Y9860D01*
Y9861D01*
Y9865D01*
Y9870D01*
X30422Y9878D01*
X30423Y9888D01*
X30425Y9899D01*
X30427Y9912D01*
X30431Y9924D01*
X30440Y9954D01*
X30447Y9970D01*
X30456Y9985D01*
X30465Y10001D01*
X30475Y10017D01*
X30488Y10033D01*
X30502Y10047D01*
X30503Y10048D01*
X30506Y10051D01*
X30510Y10055D01*
X30516Y10059D01*
X30525Y10065D01*
X30534Y10072D01*
X30546Y10078D01*
X30559Y10086D01*
X30573Y10093D01*
X30588Y10100D01*
X30606Y10106D01*
X30625Y10113D01*
X30644Y10117D01*
X30666Y10121D01*
X30688Y10123D01*
X30711Y10125D01*
X30725D01*
X30733Y10123D01*
D02*
G37*
G36*
Y8735D02*
X30741D01*
X30761Y8731D01*
X30786Y8727D01*
X30812Y8721D01*
X30840Y8712D01*
X30867Y8699D01*
X30868D01*
X30870Y8698D01*
X30874Y8695D01*
X30879Y8693D01*
X30892Y8685D01*
X30908Y8673D01*
X30926Y8659D01*
X30944Y8642D01*
X30963Y8622D01*
X30978Y8600D01*
Y8598D01*
X30979Y8597D01*
X30982Y8593D01*
X30983Y8588D01*
X30990Y8575D01*
X30996Y8558D01*
X31004Y8536D01*
X31009Y8512D01*
X31014Y8485D01*
X31016Y8455D01*
Y8454D01*
Y8449D01*
X31014Y8442D01*
Y8432D01*
X31013Y8420D01*
X31010Y8407D01*
X31007Y8392D01*
X31003Y8377D01*
X30997Y8359D01*
X30991Y8340D01*
X30983Y8322D01*
X30973Y8303D01*
X30961Y8285D01*
X30948Y8267D01*
X30933Y8249D01*
X30915Y8232D01*
X30914Y8231D01*
X30910Y8228D01*
X30904Y8224D01*
X30896Y8219D01*
X30884Y8211D01*
X30871Y8205D01*
X30854Y8197D01*
X30836Y8190D01*
X30814Y8180D01*
X30790Y8173D01*
X30763Y8166D01*
X30733Y8160D01*
X30699Y8153D01*
X30663Y8150D01*
X30625Y8147D01*
X30583Y8146D01*
X30572D01*
X30559Y8147D01*
X30541D01*
X30520Y8148D01*
X30496Y8151D01*
X30468Y8153D01*
X30439Y8157D01*
X30409Y8162D01*
X30377Y8169D01*
X30346Y8177D01*
X30315Y8186D01*
X30285Y8197D01*
X30257Y8210D01*
X30230Y8224D01*
X30207Y8241D01*
X30205Y8242D01*
X30203Y8245D01*
X30198Y8250D01*
X30190Y8257D01*
X30182Y8264D01*
X30174Y8275D01*
X30164Y8287D01*
X30155Y8300D01*
X30146Y8316D01*
X30136Y8333D01*
X30128Y8352D01*
X30119Y8371D01*
X30112Y8393D01*
X30107Y8416D01*
X30105Y8441D01*
X30103Y8467D01*
Y8468D01*
Y8472D01*
Y8477D01*
X30105Y8485D01*
Y8494D01*
X30106Y8504D01*
X30111Y8529D01*
X30118Y8556D01*
X30128Y8584D01*
X30143Y8613D01*
X30152Y8627D01*
X30163Y8640D01*
X30164Y8641D01*
X30165Y8642D01*
X30169Y8646D01*
X30173Y8650D01*
X30180Y8656D01*
X30187Y8662D01*
X30205Y8676D01*
X30229Y8690D01*
X30257Y8703D01*
X30289Y8715D01*
X30325Y8722D01*
X30334Y8613D01*
X30333D01*
X30332Y8611D01*
X30324Y8610D01*
X30312Y8606D01*
X30298Y8601D01*
X30283Y8596D01*
X30267Y8588D01*
X30253Y8579D01*
X30242Y8570D01*
X30239Y8567D01*
X30234Y8562D01*
X30226Y8553D01*
X30217Y8540D01*
X30209Y8524D01*
X30202Y8506D01*
X30196Y8484D01*
X30194Y8460D01*
Y8458D01*
Y8451D01*
X30195Y8441D01*
X30198Y8429D01*
X30202Y8414D01*
X30207Y8398D01*
X30213Y8383D01*
X30223Y8367D01*
X30225Y8365D01*
X30230Y8359D01*
X30239Y8349D01*
X30252Y8338D01*
X30267Y8325D01*
X30285Y8311D01*
X30309Y8298D01*
X30334Y8285D01*
X30336D01*
X30338Y8284D01*
X30342Y8282D01*
X30347Y8280D01*
X30355Y8279D01*
X30364Y8276D01*
X30374Y8273D01*
X30387Y8271D01*
X30401Y8267D01*
X30417Y8264D01*
X30434Y8262D01*
X30452Y8260D01*
X30472Y8258D01*
X30493Y8257D01*
X30516Y8255D01*
X30540D01*
X30538Y8257D01*
X30530Y8262D01*
X30520Y8271D01*
X30507Y8282D01*
X30492Y8295D01*
X30478Y8312D01*
X30463Y8330D01*
X30450Y8351D01*
Y8352D01*
X30449Y8353D01*
X30445Y8361D01*
X30441Y8373D01*
X30435Y8388D01*
X30430Y8406D01*
X30426Y8427D01*
X30422Y8449D01*
X30421Y8472D01*
Y8473D01*
Y8477D01*
Y8482D01*
X30422Y8490D01*
X30423Y8500D01*
X30425Y8511D01*
X30427Y8524D01*
X30431Y8536D01*
X30440Y8566D01*
X30447Y8582D01*
X30456Y8597D01*
X30465Y8613D01*
X30475Y8629D01*
X30488Y8645D01*
X30502Y8659D01*
X30503Y8660D01*
X30506Y8663D01*
X30510Y8667D01*
X30516Y8671D01*
X30525Y8677D01*
X30534Y8683D01*
X30546Y8690D01*
X30559Y8698D01*
X30573Y8705D01*
X30588Y8712D01*
X30606Y8718D01*
X30625Y8725D01*
X30644Y8729D01*
X30666Y8733D01*
X30688Y8735D01*
X30711Y8736D01*
X30725D01*
X30733Y8735D01*
D02*
G37*
G36*
X30600Y9427D02*
X30616D01*
X30632Y9425D01*
X30650Y9424D01*
X30692Y9420D01*
X30734Y9414D01*
X30775Y9406D01*
X30795Y9401D01*
X30814Y9394D01*
X30816D01*
X30818Y9393D01*
X30823Y9390D01*
X30830Y9388D01*
X30839Y9385D01*
X30848Y9380D01*
X30870Y9370D01*
X30893Y9357D01*
X30919Y9340D01*
X30942Y9321D01*
X30964Y9298D01*
Y9296D01*
X30966Y9295D01*
X30969Y9291D01*
X30972Y9286D01*
X30975Y9279D01*
X30981Y9273D01*
X30990Y9254D01*
X30999Y9230D01*
X31008Y9203D01*
X31013Y9171D01*
X31016Y9136D01*
Y9135D01*
Y9131D01*
Y9123D01*
X31014Y9114D01*
X31013Y9104D01*
X31010Y9091D01*
X31008Y9077D01*
X31004Y9061D01*
X30999Y9046D01*
X30994Y9029D01*
X30986Y9013D01*
X30977Y8996D01*
X30966Y8979D01*
X30954Y8962D01*
X30939Y8947D01*
X30924Y8933D01*
X30923Y8931D01*
X30919Y8929D01*
X30912Y8925D01*
X30902Y8918D01*
X30890Y8912D01*
X30875Y8905D01*
X30857Y8896D01*
X30836Y8889D01*
X30813Y8881D01*
X30786Y8873D01*
X30756Y8865D01*
X30723Y8859D01*
X30687Y8852D01*
X30648Y8849D01*
X30605Y8846D01*
X30560Y8845D01*
X30534D01*
X30520Y8846D01*
X30505D01*
X30488Y8847D01*
X30468Y8849D01*
X30428Y8852D01*
X30386Y8859D01*
X30343Y8867D01*
X30324Y8872D01*
X30305Y8877D01*
X30303D01*
X30301Y8878D01*
X30296Y8881D01*
X30289Y8884D01*
X30280Y8886D01*
X30271Y8891D01*
X30249Y8901D01*
X30226Y8914D01*
X30202Y8931D01*
X30177Y8951D01*
X30156Y8974D01*
Y8975D01*
X30154Y8976D01*
X30151Y8980D01*
X30149Y8985D01*
X30143Y8992D01*
X30140Y9000D01*
X30129Y9019D01*
X30120Y9042D01*
X30111Y9069D01*
X30106Y9102D01*
X30103Y9136D01*
Y9138D01*
Y9139D01*
Y9143D01*
Y9148D01*
X30105Y9162D01*
X30107Y9179D01*
X30111Y9198D01*
X30116Y9219D01*
X30123Y9241D01*
X30133Y9262D01*
Y9263D01*
X30134Y9264D01*
X30138Y9270D01*
X30145Y9281D01*
X30154Y9294D01*
X30167Y9308D01*
X30181Y9323D01*
X30198Y9338D01*
X30217Y9352D01*
X30220Y9353D01*
X30226Y9358D01*
X30238Y9363D01*
X30254Y9372D01*
X30274Y9380D01*
X30296Y9390D01*
X30321Y9399D01*
X30350Y9407D01*
X30351D01*
X30354Y9409D01*
X30358Y9410D01*
X30364Y9411D01*
X30372Y9412D01*
X30381Y9414D01*
X30392Y9416D01*
X30405Y9418D01*
X30419Y9420D01*
X30435Y9421D01*
X30453Y9423D01*
X30471Y9425D01*
X30492Y9427D01*
X30512D01*
X30536Y9428D01*
X30586D01*
X30600Y9427D01*
D02*
G37*
G36*
X31000Y-180D02*
X30814Y-297D01*
X30813D01*
X30810Y-300D01*
X30806Y-303D01*
X30801Y-307D01*
X30787Y-316D01*
X30769Y-327D01*
X30750Y-341D01*
X30729Y-356D01*
X30710Y-370D01*
X30692Y-383D01*
X30690Y-384D01*
X30685Y-388D01*
X30678Y-394D01*
X30669Y-403D01*
X30649Y-423D01*
X30640Y-433D01*
X30632Y-443D01*
X30631Y-445D01*
X30630Y-447D01*
X30627Y-452D01*
X30623Y-460D01*
X30619Y-468D01*
X30616Y-477D01*
X30609Y-497D01*
Y-499D01*
X30608Y-501D01*
Y-506D01*
X30606Y-513D01*
X30605Y-522D01*
Y-532D01*
X30604Y-546D01*
Y-562D01*
Y-699D01*
X31000D01*
Y-817D01*
X30107D01*
Y-423D01*
Y-421D01*
Y-417D01*
Y-411D01*
Y-403D01*
X30109Y-393D01*
Y-381D01*
X30110Y-354D01*
X30114Y-326D01*
X30118Y-295D01*
X30124Y-267D01*
X30128Y-252D01*
X30132Y-241D01*
Y-239D01*
X30133Y-238D01*
X30137Y-230D01*
X30142Y-219D01*
X30151Y-205D01*
X30163Y-189D01*
X30178Y-172D01*
X30196Y-157D01*
X30217Y-141D01*
X30218D01*
X30220Y-140D01*
X30227Y-135D01*
X30240Y-130D01*
X30257Y-122D01*
X30276Y-116D01*
X30299Y-109D01*
X30324Y-105D01*
X30351Y-104D01*
X30360D01*
X30367Y-105D01*
X30376D01*
X30385Y-106D01*
X30407Y-112D01*
X30432Y-119D01*
X30459Y-130D01*
X30487Y-145D01*
X30500Y-156D01*
X30512Y-166D01*
X30514Y-167D01*
X30515Y-169D01*
X30519Y-172D01*
X30523Y-178D01*
X30528Y-184D01*
X30533Y-192D01*
X30540Y-202D01*
X30547Y-212D01*
X30554Y-225D01*
X30560Y-239D01*
X30568Y-255D01*
X30574Y-272D01*
X30580Y-291D01*
X30586Y-310D01*
X30590Y-332D01*
X30594Y-356D01*
X30595Y-353D01*
X30597Y-348D01*
X30603Y-340D01*
X30608Y-330D01*
X30622Y-307D01*
X30631Y-295D01*
X30639Y-285D01*
X30641Y-282D01*
X30648Y-276D01*
X30658Y-265D01*
X30671Y-252D01*
X30689Y-238D01*
X30709Y-221D01*
X30732Y-205D01*
X30757Y-186D01*
X31000Y-33D01*
Y-180D01*
D02*
G37*
G36*
Y684D02*
X30729Y580D01*
Y206D01*
X31000Y109D01*
Y-16D01*
X30107Y324D01*
Y453D01*
X31000Y818D01*
Y684D01*
D02*
G37*
G36*
X30764Y-982D02*
X30779Y-985D01*
X30797Y-988D01*
X30817Y-993D01*
X30838Y-999D01*
X30858Y-1008D01*
X30861Y-1010D01*
X30867Y-1013D01*
X30876Y-1019D01*
X30889Y-1026D01*
X30902Y-1037D01*
X30916Y-1047D01*
X30930Y-1060D01*
X30942Y-1074D01*
X30943Y-1075D01*
X30947Y-1080D01*
X30952Y-1089D01*
X30957Y-1101D01*
X30965Y-1115D01*
X30973Y-1132D01*
X30979Y-1150D01*
X30986Y-1172D01*
Y-1175D01*
X30988Y-1182D01*
X30990Y-1195D01*
X30992Y-1212D01*
X30995Y-1233D01*
X30997Y-1257D01*
X30999Y-1284D01*
X31000Y-1315D01*
Y-1656D01*
X30107D01*
Y-1322D01*
Y-1320D01*
Y-1316D01*
Y-1311D01*
Y-1305D01*
X30109Y-1296D01*
Y-1286D01*
X30111Y-1262D01*
X30114Y-1237D01*
X30119Y-1209D01*
X30125Y-1182D01*
X30134Y-1158D01*
Y-1157D01*
X30136Y-1155D01*
X30140Y-1148D01*
X30146Y-1136D01*
X30155Y-1123D01*
X30167Y-1108D01*
X30181Y-1091D01*
X30199Y-1075D01*
X30218Y-1061D01*
X30221Y-1060D01*
X30229Y-1056D01*
X30239Y-1049D01*
X30254Y-1043D01*
X30272Y-1037D01*
X30292Y-1030D01*
X30314Y-1026D01*
X30336Y-1025D01*
X30345D01*
X30356Y-1026D01*
X30371Y-1029D01*
X30387Y-1033D01*
X30405Y-1039D01*
X30423Y-1047D01*
X30443Y-1057D01*
X30445Y-1058D01*
X30450Y-1062D01*
X30461Y-1070D01*
X30471Y-1080D01*
X30484Y-1093D01*
X30498Y-1109D01*
X30511Y-1128D01*
X30524Y-1150D01*
Y-1149D01*
X30525Y-1146D01*
X30527Y-1142D01*
X30529Y-1137D01*
X30534Y-1122D01*
X30543Y-1104D01*
X30555Y-1084D01*
X30569Y-1062D01*
X30586Y-1043D01*
X30606Y-1025D01*
X30609Y-1024D01*
X30617Y-1019D01*
X30628Y-1011D01*
X30644Y-1003D01*
X30665Y-995D01*
X30687Y-988D01*
X30712Y-982D01*
X30741Y-981D01*
X30751D01*
X30764Y-982D01*
D02*
G37*
G36*
X31000Y-2781D02*
X30302D01*
X30303Y-2782D01*
X30309Y-2788D01*
X30316Y-2796D01*
X30325Y-2809D01*
X30337Y-2823D01*
X30350Y-2841D01*
X30364Y-2862D01*
X30378Y-2885D01*
Y-2887D01*
X30380Y-2888D01*
X30385Y-2895D01*
X30391Y-2908D01*
X30399Y-2924D01*
X30408Y-2942D01*
X30417Y-2961D01*
X30426Y-2981D01*
X30434Y-3000D01*
X30328D01*
Y-2999D01*
X30325Y-2996D01*
X30324Y-2991D01*
X30320Y-2984D01*
X30316Y-2977D01*
X30311Y-2968D01*
X30298Y-2946D01*
X30284Y-2920D01*
X30266Y-2894D01*
X30245Y-2867D01*
X30223Y-2840D01*
X30222Y-2839D01*
X30221Y-2837D01*
X30217Y-2834D01*
X30213Y-2828D01*
X30200Y-2817D01*
X30185Y-2801D01*
X30167Y-2786D01*
X30146Y-2769D01*
X30125Y-2755D01*
X30103Y-2742D01*
Y-2671D01*
X31000D01*
Y-2781D01*
D02*
G37*
G36*
Y-2087D02*
X30302D01*
X30303Y-2088D01*
X30309Y-2094D01*
X30316Y-2102D01*
X30325Y-2115D01*
X30337Y-2129D01*
X30350Y-2147D01*
X30364Y-2168D01*
X30378Y-2191D01*
Y-2193D01*
X30380Y-2194D01*
X30385Y-2201D01*
X30391Y-2214D01*
X30399Y-2230D01*
X30408Y-2248D01*
X30417Y-2267D01*
X30426Y-2287D01*
X30434Y-2306D01*
X30328D01*
Y-2305D01*
X30325Y-2302D01*
X30324Y-2297D01*
X30320Y-2290D01*
X30316Y-2283D01*
X30311Y-2274D01*
X30298Y-2252D01*
X30284Y-2226D01*
X30266Y-2200D01*
X30245Y-2173D01*
X30223Y-2146D01*
X30222Y-2145D01*
X30221Y-2143D01*
X30217Y-2140D01*
X30213Y-2134D01*
X30200Y-2123D01*
X30185Y-2107D01*
X30167Y-2092D01*
X30146Y-2075D01*
X30125Y-2061D01*
X30103Y-2048D01*
Y-1977D01*
X31000D01*
Y-2087D01*
D02*
G37*
G36*
X30733Y4018D02*
X30741D01*
X30761Y4014D01*
X30786Y4010D01*
X30812Y4003D01*
X30840Y3994D01*
X30867Y3982D01*
X30868D01*
X30870Y3980D01*
X30874Y3978D01*
X30879Y3975D01*
X30892Y3967D01*
X30908Y3956D01*
X30926Y3941D01*
X30944Y3925D01*
X30963Y3904D01*
X30978Y3882D01*
Y3881D01*
X30979Y3880D01*
X30982Y3876D01*
X30983Y3870D01*
X30990Y3858D01*
X30996Y3841D01*
X31004Y3819D01*
X31009Y3794D01*
X31014Y3767D01*
X31016Y3738D01*
Y3736D01*
Y3731D01*
X31014Y3725D01*
Y3714D01*
X31013Y3703D01*
X31010Y3690D01*
X31007Y3675D01*
X31003Y3659D01*
X30997Y3641D01*
X30991Y3623D01*
X30983Y3605D01*
X30973Y3585D01*
X30961Y3567D01*
X30948Y3549D01*
X30933Y3531D01*
X30915Y3514D01*
X30914Y3513D01*
X30910Y3511D01*
X30904Y3507D01*
X30896Y3502D01*
X30884Y3494D01*
X30871Y3487D01*
X30854Y3480D01*
X30836Y3472D01*
X30814Y3463D01*
X30790Y3455D01*
X30763Y3449D01*
X30733Y3442D01*
X30699Y3436D01*
X30663Y3432D01*
X30625Y3429D01*
X30583Y3428D01*
X30572D01*
X30559Y3429D01*
X30541D01*
X30520Y3431D01*
X30496Y3433D01*
X30468Y3436D01*
X30439Y3440D01*
X30409Y3445D01*
X30377Y3451D01*
X30346Y3459D01*
X30315Y3468D01*
X30285Y3480D01*
X30257Y3493D01*
X30230Y3507D01*
X30207Y3523D01*
X30205Y3525D01*
X30203Y3527D01*
X30198Y3533D01*
X30190Y3539D01*
X30182Y3547D01*
X30174Y3557D01*
X30164Y3570D01*
X30155Y3583D01*
X30146Y3598D01*
X30136Y3615D01*
X30128Y3635D01*
X30119Y3654D01*
X30112Y3676D01*
X30107Y3699D01*
X30105Y3723D01*
X30103Y3749D01*
Y3751D01*
Y3754D01*
Y3760D01*
X30105Y3767D01*
Y3776D01*
X30106Y3787D01*
X30111Y3811D01*
X30118Y3838D01*
X30128Y3867D01*
X30143Y3895D01*
X30152Y3909D01*
X30163Y3922D01*
X30164Y3923D01*
X30165Y3925D01*
X30169Y3929D01*
X30173Y3932D01*
X30180Y3939D01*
X30187Y3944D01*
X30205Y3958D01*
X30229Y3972D01*
X30257Y3985D01*
X30289Y3997D01*
X30325Y4005D01*
X30334Y3895D01*
X30333D01*
X30332Y3894D01*
X30324Y3892D01*
X30312Y3889D01*
X30298Y3883D01*
X30283Y3878D01*
X30267Y3870D01*
X30253Y3861D01*
X30242Y3853D01*
X30239Y3850D01*
X30234Y3845D01*
X30226Y3836D01*
X30217Y3823D01*
X30209Y3806D01*
X30202Y3788D01*
X30196Y3766D01*
X30194Y3743D01*
Y3740D01*
Y3734D01*
X30195Y3723D01*
X30198Y3712D01*
X30202Y3696D01*
X30207Y3681D01*
X30213Y3665D01*
X30223Y3650D01*
X30225Y3647D01*
X30230Y3641D01*
X30239Y3632D01*
X30252Y3620D01*
X30267Y3607D01*
X30285Y3593D01*
X30309Y3580D01*
X30334Y3567D01*
X30336D01*
X30338Y3566D01*
X30342Y3565D01*
X30347Y3562D01*
X30355Y3561D01*
X30364Y3558D01*
X30374Y3556D01*
X30387Y3553D01*
X30401Y3549D01*
X30417Y3547D01*
X30434Y3544D01*
X30452Y3543D01*
X30472Y3540D01*
X30493Y3539D01*
X30516Y3538D01*
X30540D01*
X30538Y3539D01*
X30530Y3544D01*
X30520Y3553D01*
X30507Y3565D01*
X30492Y3578D01*
X30478Y3594D01*
X30463Y3613D01*
X30450Y3633D01*
Y3635D01*
X30449Y3636D01*
X30445Y3644D01*
X30441Y3655D01*
X30435Y3671D01*
X30430Y3689D01*
X30426Y3709D01*
X30422Y3731D01*
X30421Y3754D01*
Y3756D01*
Y3760D01*
Y3765D01*
X30422Y3773D01*
X30423Y3783D01*
X30425Y3793D01*
X30427Y3806D01*
X30431Y3819D01*
X30440Y3849D01*
X30447Y3864D01*
X30456Y3880D01*
X30465Y3895D01*
X30475Y3912D01*
X30488Y3927D01*
X30502Y3941D01*
X30503Y3943D01*
X30506Y3945D01*
X30510Y3949D01*
X30516Y3953D01*
X30525Y3960D01*
X30534Y3966D01*
X30546Y3972D01*
X30559Y3980D01*
X30573Y3988D01*
X30588Y3994D01*
X30606Y4001D01*
X30625Y4007D01*
X30644Y4011D01*
X30666Y4015D01*
X30688Y4018D01*
X30711Y4019D01*
X30725D01*
X30733Y4018D01*
D02*
G37*
G36*
X30600Y4709D02*
X30616D01*
X30632Y4708D01*
X30650Y4707D01*
X30692Y4703D01*
X30734Y4696D01*
X30775Y4688D01*
X30795Y4683D01*
X30814Y4677D01*
X30816D01*
X30818Y4676D01*
X30823Y4673D01*
X30830Y4670D01*
X30839Y4668D01*
X30848Y4663D01*
X30870Y4652D01*
X30893Y4639D01*
X30919Y4623D01*
X30942Y4603D01*
X30964Y4580D01*
Y4579D01*
X30966Y4578D01*
X30969Y4574D01*
X30972Y4568D01*
X30975Y4562D01*
X30981Y4555D01*
X30990Y4536D01*
X30999Y4513D01*
X31008Y4486D01*
X31013Y4454D01*
X31016Y4419D01*
Y4417D01*
Y4414D01*
Y4406D01*
X31014Y4397D01*
X31013Y4386D01*
X31010Y4374D01*
X31008Y4359D01*
X31004Y4344D01*
X30999Y4329D01*
X30994Y4312D01*
X30986Y4295D01*
X30977Y4278D01*
X30966Y4261D01*
X30954Y4245D01*
X30939Y4229D01*
X30924Y4215D01*
X30923Y4214D01*
X30919Y4211D01*
X30912Y4207D01*
X30902Y4201D01*
X30890Y4194D01*
X30875Y4188D01*
X30857Y4179D01*
X30836Y4171D01*
X30813Y4163D01*
X30786Y4156D01*
X30756Y4148D01*
X30723Y4141D01*
X30687Y4135D01*
X30648Y4131D01*
X30605Y4129D01*
X30560Y4127D01*
X30534D01*
X30520Y4129D01*
X30505D01*
X30488Y4130D01*
X30468Y4131D01*
X30428Y4135D01*
X30386Y4141D01*
X30343Y4149D01*
X30324Y4154D01*
X30305Y4160D01*
X30303D01*
X30301Y4161D01*
X30296Y4163D01*
X30289Y4166D01*
X30280Y4169D01*
X30271Y4174D01*
X30249Y4184D01*
X30226Y4197D01*
X30202Y4214D01*
X30177Y4233D01*
X30156Y4256D01*
Y4258D01*
X30154Y4259D01*
X30151Y4263D01*
X30149Y4268D01*
X30143Y4274D01*
X30140Y4282D01*
X30129Y4301D01*
X30120Y4325D01*
X30111Y4352D01*
X30106Y4384D01*
X30103Y4419D01*
Y4420D01*
Y4421D01*
Y4425D01*
Y4430D01*
X30105Y4445D01*
X30107Y4461D01*
X30111Y4481D01*
X30116Y4501D01*
X30123Y4523D01*
X30133Y4544D01*
Y4545D01*
X30134Y4546D01*
X30138Y4553D01*
X30145Y4563D01*
X30154Y4576D01*
X30167Y4590D01*
X30181Y4606D01*
X30198Y4620D01*
X30217Y4634D01*
X30220Y4636D01*
X30226Y4641D01*
X30238Y4646D01*
X30254Y4655D01*
X30274Y4663D01*
X30296Y4673D01*
X30321Y4682D01*
X30350Y4690D01*
X30351D01*
X30354Y4691D01*
X30358Y4692D01*
X30364Y4694D01*
X30372Y4695D01*
X30381Y4696D01*
X30392Y4699D01*
X30405Y4700D01*
X30419Y4703D01*
X30435Y4704D01*
X30453Y4705D01*
X30471Y4708D01*
X30492Y4709D01*
X30512D01*
X30536Y4710D01*
X30586D01*
X30600Y4709D01*
D02*
G37*
G36*
X31000Y2779D02*
X30107D01*
Y2898D01*
X30894D01*
Y3338D01*
X31000D01*
Y2779D01*
D02*
G37*
G36*
Y1493D02*
X30299Y1026D01*
X31000D01*
Y913D01*
X30107D01*
Y1034D01*
X30809Y1502D01*
X30107D01*
Y1616D01*
X31000D01*
Y1493D01*
D02*
G37*
G36*
X30580Y2631D02*
X30591D01*
X30605Y2630D01*
X30621Y2627D01*
X30637Y2626D01*
X30675Y2619D01*
X30716Y2609D01*
X30757Y2595D01*
X30778Y2587D01*
X30799Y2577D01*
X30800D01*
X30804Y2574D01*
X30809Y2572D01*
X30817Y2566D01*
X30826Y2561D01*
X30835Y2555D01*
X30859Y2537D01*
X30885Y2515D01*
X30912Y2489D01*
X30938Y2458D01*
X30961Y2422D01*
Y2421D01*
X30964Y2418D01*
X30966Y2412D01*
X30970Y2404D01*
X30974Y2395D01*
X30978Y2385D01*
X30983Y2372D01*
X30988Y2357D01*
X30994Y2342D01*
X30999Y2325D01*
X31007Y2288D01*
X31013Y2248D01*
X31016Y2205D01*
Y2204D01*
Y2200D01*
Y2192D01*
X31014Y2184D01*
Y2173D01*
X31012Y2160D01*
X31010Y2146D01*
X31008Y2129D01*
X31000Y2094D01*
X30990Y2057D01*
X30974Y2018D01*
X30965Y1999D01*
X30955Y1979D01*
X30954Y1978D01*
X30952Y1976D01*
X30948Y1970D01*
X30943Y1963D01*
X30938Y1955D01*
X30930Y1946D01*
X30911Y1924D01*
X30888Y1899D01*
X30859Y1874D01*
X30827Y1850D01*
X30790Y1829D01*
X30788D01*
X30785Y1826D01*
X30779Y1823D01*
X30772Y1821D01*
X30761Y1817D01*
X30750Y1813D01*
X30737Y1808D01*
X30723Y1804D01*
X30706Y1799D01*
X30689Y1794D01*
X30650Y1786D01*
X30610Y1781D01*
X30567Y1778D01*
X30556D01*
X30545Y1779D01*
X30529D01*
X30511Y1782D01*
X30489Y1785D01*
X30465Y1788D01*
X30439Y1794D01*
X30412Y1799D01*
X30383Y1806D01*
X30355Y1817D01*
X30325Y1829D01*
X30297Y1841D01*
X30269Y1858D01*
X30243Y1876D01*
X30218Y1897D01*
X30217Y1898D01*
X30213Y1902D01*
X30207Y1910D01*
X30199Y1919D01*
X30189Y1930D01*
X30178Y1945D01*
X30167Y1961D01*
X30155Y1981D01*
X30143Y2001D01*
X30132Y2025D01*
X30121Y2050D01*
X30111Y2077D01*
X30103Y2107D01*
X30097Y2138D01*
X30093Y2170D01*
X30092Y2205D01*
Y2206D01*
Y2210D01*
Y2217D01*
X30093Y2226D01*
Y2237D01*
X30094Y2249D01*
X30097Y2265D01*
X30100Y2280D01*
X30106Y2314D01*
X30116Y2352D01*
X30132Y2390D01*
X30141Y2409D01*
X30151Y2428D01*
X30152Y2430D01*
X30154Y2432D01*
X30158Y2437D01*
X30161Y2445D01*
X30168Y2453D01*
X30176Y2463D01*
X30194Y2485D01*
X30217Y2508D01*
X30245Y2534D01*
X30279Y2559D01*
X30316Y2579D01*
X30318D01*
X30321Y2582D01*
X30327Y2584D01*
X30334Y2587D01*
X30345Y2592D01*
X30356Y2596D01*
X30371Y2601D01*
X30386Y2606D01*
X30403Y2610D01*
X30421Y2615D01*
X30441Y2620D01*
X30462Y2624D01*
X30507Y2630D01*
X30556Y2632D01*
X30569D01*
X30580Y2631D01*
D02*
G37*
G36*
X30732Y11608D02*
X30622D01*
Y11947D01*
X30732D01*
Y11608D01*
D02*
G37*
G36*
X32500Y2168D02*
X32499Y2167D01*
X32493Y2165D01*
X32486Y2163D01*
X32475Y2158D01*
X32463Y2154D01*
X32448Y2152D01*
X32431Y2149D01*
X32413Y2146D01*
Y2145D01*
X32416Y2143D01*
X32423Y2135D01*
X32432Y2123D01*
X32445Y2106D01*
X32457Y2085D01*
X32471Y2065D01*
X32483Y2042D01*
X32493Y2019D01*
X32495Y2016D01*
X32496Y2008D01*
X32500Y1996D01*
X32504Y1980D01*
X32508Y1961D01*
X32511Y1939D01*
X32514Y1914D01*
X32515Y1889D01*
Y1888D01*
Y1884D01*
Y1878D01*
X32514Y1870D01*
Y1860D01*
X32512Y1849D01*
X32508Y1825D01*
X32501Y1797D01*
X32492Y1767D01*
X32478Y1739D01*
X32460Y1714D01*
X32457Y1711D01*
X32450Y1704D01*
X32438Y1695D01*
X32421Y1684D01*
X32401Y1673D01*
X32377Y1663D01*
X32348Y1656D01*
X32334Y1655D01*
X32318Y1653D01*
X32310D01*
X32300Y1655D01*
X32287Y1656D01*
X32272Y1659D01*
X32257Y1663D01*
X32241Y1668D01*
X32225Y1675D01*
X32224Y1677D01*
X32219Y1680D01*
X32210Y1685D01*
X32201Y1692D01*
X32190Y1700D01*
X32179Y1711D01*
X32167Y1722D01*
X32158Y1736D01*
X32156Y1737D01*
X32154Y1743D01*
X32148Y1750D01*
X32143Y1761D01*
X32137Y1773D01*
X32130Y1789D01*
X32125Y1804D01*
X32119Y1822D01*
Y1823D01*
X32118Y1829D01*
X32115Y1837D01*
X32114Y1848D01*
X32111Y1862D01*
X32108Y1880D01*
X32104Y1900D01*
X32101Y1925D01*
Y1927D01*
X32100Y1932D01*
Y1939D01*
X32098Y1949D01*
X32097Y1960D01*
X32094Y1973D01*
X32093Y1989D01*
X32090Y2005D01*
X32083Y2038D01*
X32076Y2074D01*
X32068Y2106D01*
X32064Y2121D01*
X32060Y2135D01*
X32056D01*
X32047Y2136D01*
X32018D01*
X32005Y2135D01*
X31989Y2132D01*
X31973Y2128D01*
X31956Y2121D01*
X31941Y2113D01*
X31929Y2102D01*
X31927Y2101D01*
X31922Y2094D01*
X31916Y2083D01*
X31908Y2069D01*
X31901Y2049D01*
X31894Y2027D01*
X31890Y2000D01*
X31889Y1968D01*
Y1967D01*
Y1964D01*
Y1960D01*
Y1954D01*
X31890Y1940D01*
X31893Y1921D01*
X31896Y1902D01*
X31901Y1881D01*
X31908Y1862D01*
X31918Y1845D01*
X31919Y1844D01*
X31923Y1838D01*
X31930Y1831D01*
X31941Y1823D01*
X31955Y1815D01*
X31973Y1805D01*
X31995Y1797D01*
X32020Y1789D01*
X32005Y1674D01*
X32003D01*
X32002Y1675D01*
X31998D01*
X31992Y1677D01*
X31980Y1681D01*
X31962Y1687D01*
X31944Y1693D01*
X31925Y1702D01*
X31905Y1713D01*
X31887Y1725D01*
X31886Y1726D01*
X31880Y1732D01*
X31872Y1740D01*
X31861Y1751D01*
X31850Y1767D01*
X31839Y1784D01*
X31827Y1805D01*
X31817Y1829D01*
Y1830D01*
X31815Y1831D01*
X31814Y1836D01*
X31813Y1841D01*
X31809Y1855D01*
X31804Y1874D01*
X31800Y1896D01*
X31796Y1924D01*
X31793Y1953D01*
X31792Y1986D01*
Y1987D01*
Y1990D01*
Y1994D01*
Y2001D01*
X31793Y2016D01*
X31795Y2037D01*
X31798Y2060D01*
X31802Y2084D01*
X31807Y2107D01*
X31814Y2129D01*
X31815Y2132D01*
X31818Y2139D01*
X31822Y2149D01*
X31828Y2161D01*
X31836Y2175D01*
X31844Y2189D01*
X31855Y2201D01*
X31867Y2212D01*
X31868Y2214D01*
X31872Y2216D01*
X31879Y2221D01*
X31887Y2226D01*
X31900Y2233D01*
X31912Y2238D01*
X31927Y2244D01*
X31945Y2248D01*
X31947D01*
X31951Y2249D01*
X31959Y2251D01*
X31970Y2252D01*
X31985D01*
X32003Y2254D01*
X32027Y2255D01*
X32264D01*
X32297Y2256D01*
X32332D01*
X32366Y2258D01*
X32381Y2259D01*
X32395D01*
X32408Y2261D01*
X32417Y2262D01*
X32419D01*
X32424Y2263D01*
X32432Y2265D01*
X32443Y2269D01*
X32456Y2272D01*
X32470Y2277D01*
X32485Y2284D01*
X32500Y2291D01*
Y2168D01*
D02*
G37*
G36*
X32369Y1077D02*
X32370Y1074D01*
X32374Y1068D01*
X32380Y1061D01*
X32386Y1053D01*
X32392Y1043D01*
X32401Y1031D01*
X32409Y1019D01*
X32427Y990D01*
X32446Y957D01*
X32464Y922D01*
X32479Y885D01*
Y883D01*
X32481Y881D01*
X32482Y875D01*
X32485Y868D01*
X32488Y859D01*
X32492Y847D01*
X32495Y835D01*
X32497Y823D01*
X32504Y792D01*
X32511Y758D01*
X32515Y721D01*
X32517Y682D01*
Y680D01*
Y675D01*
Y668D01*
X32515Y658D01*
Y646D01*
X32514Y631D01*
X32511Y614D01*
X32510Y596D01*
X32501Y556D01*
X32492Y514D01*
X32476Y469D01*
X32468Y447D01*
X32457Y425D01*
X32456Y424D01*
X32454Y420D01*
X32450Y414D01*
X32446Y406D01*
X32439Y396D01*
X32432Y387D01*
X32413Y360D01*
X32388Y333D01*
X32358Y304D01*
X32323Y276D01*
X32283Y251D01*
X32282D01*
X32278Y249D01*
X32272Y246D01*
X32263Y242D01*
X32253Y237D01*
X32239Y233D01*
X32225Y228D01*
X32209Y222D01*
X32191Y217D01*
X32170Y211D01*
X32149Y207D01*
X32127Y203D01*
X32079Y196D01*
X32028Y193D01*
X32014D01*
X32005Y195D01*
X31992D01*
X31977Y196D01*
X31962Y199D01*
X31944Y200D01*
X31925Y204D01*
X31904Y207D01*
X31860Y218D01*
X31814Y232D01*
X31769Y251D01*
X31767Y253D01*
X31763Y254D01*
X31758Y257D01*
X31749Y262D01*
X31738Y268D01*
X31727Y275D01*
X31701Y294D01*
X31671Y317D01*
X31642Y347D01*
X31613Y380D01*
X31600Y399D01*
X31588Y418D01*
X31586Y420D01*
X31585Y424D01*
X31582Y429D01*
X31578Y438D01*
X31574Y449D01*
X31569Y461D01*
X31563Y475D01*
X31558Y491D01*
X31552Y509D01*
X31548Y529D01*
X31542Y549D01*
X31538Y571D01*
X31531Y620D01*
X31528Y645D01*
Y671D01*
Y672D01*
Y675D01*
Y680D01*
Y689D01*
X31530Y697D01*
Y708D01*
X31533Y734D01*
X31537Y763D01*
X31544Y794D01*
X31552Y827D01*
X31563Y859D01*
Y860D01*
X31564Y863D01*
X31566Y867D01*
X31569Y872D01*
X31577Y888D01*
X31586Y907D01*
X31600Y927D01*
X31617Y950D01*
X31635Y970D01*
X31657Y990D01*
X31660Y992D01*
X31668Y998D01*
X31680Y1006D01*
X31698Y1017D01*
X31720Y1028D01*
X31748Y1041D01*
X31778Y1053D01*
X31813Y1063D01*
X31843Y948D01*
X31842D01*
X31840Y947D01*
X31836Y945D01*
X31831Y944D01*
X31818Y940D01*
X31802Y934D01*
X31782Y926D01*
X31765Y916D01*
X31745Y907D01*
X31729Y894D01*
X31727Y893D01*
X31722Y889D01*
X31715Y881D01*
X31705Y871D01*
X31694Y859D01*
X31683Y842D01*
X31672Y824D01*
X31662Y803D01*
X31661Y800D01*
X31658Y794D01*
X31654Y781D01*
X31648Y765D01*
X31644Y745D01*
X31640Y723D01*
X31637Y698D01*
X31636Y672D01*
Y671D01*
Y668D01*
Y664D01*
Y657D01*
X31637Y650D01*
Y642D01*
X31639Y621D01*
X31643Y598D01*
X31647Y571D01*
X31654Y547D01*
X31664Y522D01*
X31665Y519D01*
X31668Y511D01*
X31675Y500D01*
X31682Y486D01*
X31693Y469D01*
X31704Y451D01*
X31718Y435D01*
X31733Y420D01*
X31734Y418D01*
X31740Y413D01*
X31749Y406D01*
X31760Y398D01*
X31774Y388D01*
X31791Y378D01*
X31809Y369D01*
X31828Y359D01*
X31829D01*
X31832Y357D01*
X31836Y356D01*
X31843Y353D01*
X31851Y351D01*
X31861Y348D01*
X31872Y344D01*
X31885Y341D01*
X31914Y334D01*
X31947Y329D01*
X31981Y324D01*
X32020Y323D01*
X32032D01*
X32041Y324D01*
X32052D01*
X32065Y326D01*
X32079Y327D01*
X32094Y329D01*
X32129Y334D01*
X32165Y341D01*
X32201Y352D01*
X32235Y366D01*
X32236D01*
X32239Y369D01*
X32243Y370D01*
X32249Y374D01*
X32264Y384D01*
X32283Y399D01*
X32304Y417D01*
X32325Y439D01*
X32344Y465D01*
X32362Y494D01*
Y495D01*
X32363Y498D01*
X32366Y502D01*
X32369Y509D01*
X32372Y516D01*
X32374Y526D01*
X32383Y548D01*
X32390Y576D01*
X32397Y606D01*
X32402Y639D01*
X32403Y674D01*
Y675D01*
Y678D01*
Y682D01*
Y687D01*
X32402Y696D01*
Y704D01*
X32399Y725D01*
X32397Y750D01*
X32391Y776D01*
X32383Y805D01*
X32373Y834D01*
Y835D01*
X32372Y838D01*
X32370Y840D01*
X32368Y846D01*
X32361Y861D01*
X32352Y878D01*
X32343Y897D01*
X32332Y918D01*
X32319Y937D01*
X32305Y954D01*
X32126D01*
Y672D01*
X32013D01*
Y1078D01*
X32368D01*
X32369Y1077D01*
D02*
G37*
G36*
X32214Y6153D02*
X32223D01*
X32245Y6149D01*
X32271Y6145D01*
X32298Y6138D01*
X32329Y6128D01*
X32358Y6115D01*
X32359D01*
X32361Y6113D01*
X32365Y6111D01*
X32370Y6108D01*
X32384Y6099D01*
X32402Y6087D01*
X32421Y6072D01*
X32441Y6054D01*
X32460Y6032D01*
X32476Y6008D01*
Y6007D01*
X32478Y6006D01*
X32481Y6001D01*
X32482Y5996D01*
X32489Y5982D01*
X32496Y5964D01*
X32504Y5941D01*
X32510Y5914D01*
X32515Y5886D01*
X32517Y5854D01*
Y5852D01*
Y5847D01*
X32515Y5840D01*
Y5829D01*
X32514Y5816D01*
X32511Y5803D01*
X32507Y5786D01*
X32503Y5770D01*
X32497Y5750D01*
X32490Y5731D01*
X32482Y5712D01*
X32471Y5691D01*
X32459Y5672D01*
X32445Y5652D01*
X32428Y5633D01*
X32409Y5615D01*
X32408Y5614D01*
X32403Y5611D01*
X32398Y5607D01*
X32388Y5601D01*
X32376Y5593D01*
X32362Y5586D01*
X32344Y5578D01*
X32325Y5570D01*
X32301Y5560D01*
X32275Y5552D01*
X32246Y5545D01*
X32214Y5538D01*
X32179Y5531D01*
X32140Y5527D01*
X32098Y5524D01*
X32054Y5523D01*
X32042D01*
X32028Y5524D01*
X32009D01*
X31987Y5525D01*
X31960Y5528D01*
X31931Y5531D01*
X31900Y5535D01*
X31868Y5540D01*
X31833Y5547D01*
X31800Y5556D01*
X31767Y5565D01*
X31736Y5578D01*
X31705Y5592D01*
X31676Y5607D01*
X31651Y5625D01*
X31650Y5626D01*
X31647Y5629D01*
X31642Y5634D01*
X31633Y5641D01*
X31625Y5649D01*
X31617Y5661D01*
X31606Y5674D01*
X31596Y5688D01*
X31586Y5705D01*
X31575Y5723D01*
X31567Y5743D01*
X31558Y5764D01*
X31551Y5787D01*
X31545Y5812D01*
X31542Y5839D01*
X31541Y5866D01*
Y5868D01*
Y5872D01*
Y5877D01*
X31542Y5886D01*
Y5895D01*
X31544Y5906D01*
X31549Y5932D01*
X31556Y5961D01*
X31567Y5992D01*
X31584Y6022D01*
X31593Y6037D01*
X31604Y6051D01*
X31606Y6053D01*
X31607Y6054D01*
X31611Y6058D01*
X31615Y6062D01*
X31622Y6069D01*
X31631Y6075D01*
X31650Y6090D01*
X31675Y6105D01*
X31705Y6119D01*
X31740Y6131D01*
X31778Y6139D01*
X31788Y6022D01*
X31787D01*
X31785Y6021D01*
X31777Y6019D01*
X31765Y6015D01*
X31749Y6010D01*
X31733Y6004D01*
X31716Y5996D01*
X31701Y5986D01*
X31689Y5977D01*
X31686Y5974D01*
X31680Y5968D01*
X31672Y5959D01*
X31662Y5945D01*
X31654Y5927D01*
X31646Y5908D01*
X31640Y5884D01*
X31637Y5859D01*
Y5856D01*
Y5850D01*
X31639Y5839D01*
X31642Y5826D01*
X31646Y5810D01*
X31651Y5793D01*
X31658Y5776D01*
X31669Y5760D01*
X31671Y5757D01*
X31676Y5750D01*
X31686Y5741D01*
X31700Y5728D01*
X31716Y5714D01*
X31736Y5699D01*
X31760Y5685D01*
X31788Y5672D01*
X31789D01*
X31792Y5670D01*
X31796Y5669D01*
X31802Y5666D01*
X31810Y5665D01*
X31820Y5662D01*
X31831Y5659D01*
X31844Y5656D01*
X31860Y5652D01*
X31876Y5649D01*
X31894Y5647D01*
X31914Y5645D01*
X31936Y5643D01*
X31958Y5641D01*
X31982Y5640D01*
X32007D01*
X32006Y5641D01*
X31998Y5647D01*
X31987Y5656D01*
X31973Y5669D01*
X31956Y5683D01*
X31941Y5701D01*
X31926Y5720D01*
X31912Y5742D01*
Y5743D01*
X31911Y5745D01*
X31907Y5753D01*
X31903Y5765D01*
X31896Y5782D01*
X31890Y5801D01*
X31886Y5823D01*
X31882Y5847D01*
X31880Y5872D01*
Y5873D01*
Y5877D01*
Y5883D01*
X31882Y5891D01*
X31883Y5902D01*
X31885Y5913D01*
X31887Y5927D01*
X31891Y5941D01*
X31901Y5973D01*
X31908Y5989D01*
X31918Y6006D01*
X31927Y6022D01*
X31938Y6040D01*
X31952Y6057D01*
X31967Y6072D01*
X31969Y6073D01*
X31971Y6076D01*
X31976Y6080D01*
X31982Y6084D01*
X31992Y6091D01*
X32002Y6098D01*
X32014Y6105D01*
X32028Y6113D01*
X32043Y6121D01*
X32060Y6128D01*
X32079Y6135D01*
X32098Y6142D01*
X32119Y6146D01*
X32143Y6151D01*
X32166Y6153D01*
X32191Y6155D01*
X32206D01*
X32214Y6153D01*
D02*
G37*
G36*
X32205Y-2157D02*
X32213Y-2160D01*
X32224Y-2164D01*
X32236Y-2168D01*
X32252Y-2173D01*
X32268Y-2180D01*
X32286Y-2189D01*
X32325Y-2208D01*
X32363Y-2233D01*
X32383Y-2248D01*
X32402Y-2263D01*
X32419Y-2280D01*
X32435Y-2299D01*
X32436Y-2300D01*
X32439Y-2303D01*
X32442Y-2310D01*
X32448Y-2317D01*
X32454Y-2328D01*
X32461Y-2339D01*
X32468Y-2354D01*
X32475Y-2369D01*
X32483Y-2387D01*
X32490Y-2407D01*
X32497Y-2427D01*
X32504Y-2449D01*
X32510Y-2473D01*
X32512Y-2498D01*
X32515Y-2524D01*
X32517Y-2551D01*
Y-2553D01*
Y-2558D01*
Y-2567D01*
X32515Y-2578D01*
Y-2590D01*
X32514Y-2605D01*
X32511Y-2622D01*
X32508Y-2641D01*
X32501Y-2681D01*
X32490Y-2723D01*
X32475Y-2764D01*
X32465Y-2783D01*
X32454Y-2803D01*
X32453Y-2804D01*
X32452Y-2807D01*
X32448Y-2812D01*
X32442Y-2818D01*
X32436Y-2826D01*
X32428Y-2836D01*
X32419Y-2847D01*
X32408Y-2858D01*
X32395Y-2869D01*
X32383Y-2881D01*
X32351Y-2906D01*
X32314Y-2930D01*
X32272Y-2950D01*
X32271D01*
X32267Y-2953D01*
X32260Y-2954D01*
X32252Y-2959D01*
X32241Y-2961D01*
X32227Y-2966D01*
X32212Y-2971D01*
X32195Y-2975D01*
X32177Y-2979D01*
X32156Y-2985D01*
X32114Y-2992D01*
X32065Y-2997D01*
X32016Y-3000D01*
X32000D01*
X31991Y-2999D01*
X31977D01*
X31963Y-2997D01*
X31945Y-2996D01*
X31927Y-2993D01*
X31887Y-2986D01*
X31843Y-2977D01*
X31799Y-2963D01*
X31756Y-2943D01*
X31755Y-2942D01*
X31751Y-2941D01*
X31745Y-2938D01*
X31738Y-2932D01*
X31729Y-2927D01*
X31718Y-2920D01*
X31693Y-2902D01*
X31665Y-2879D01*
X31637Y-2851D01*
X31610Y-2819D01*
X31586Y-2782D01*
X31585Y-2781D01*
X31584Y-2776D01*
X31581Y-2771D01*
X31577Y-2764D01*
X31573Y-2753D01*
X31569Y-2742D01*
X31563Y-2728D01*
X31558Y-2713D01*
X31552Y-2696D01*
X31546Y-2678D01*
X31538Y-2640D01*
X31531Y-2596D01*
X31528Y-2550D01*
Y-2549D01*
Y-2543D01*
Y-2536D01*
X31530Y-2527D01*
X31531Y-2514D01*
X31533Y-2499D01*
X31534Y-2484D01*
X31538Y-2466D01*
X31546Y-2429D01*
X31559Y-2387D01*
X31567Y-2367D01*
X31577Y-2347D01*
X31589Y-2328D01*
X31602Y-2309D01*
X31603Y-2307D01*
X31604Y-2304D01*
X31609Y-2299D01*
X31615Y-2292D01*
X31622Y-2285D01*
X31632Y-2276D01*
X31643Y-2266D01*
X31654Y-2255D01*
X31668Y-2244D01*
X31684Y-2233D01*
X31701Y-2220D01*
X31719Y-2209D01*
X31740Y-2200D01*
X31760Y-2189D01*
X31782Y-2180D01*
X31807Y-2172D01*
X31836Y-2296D01*
X31835D01*
X31832Y-2298D01*
X31827Y-2300D01*
X31820Y-2303D01*
X31811Y-2306D01*
X31800Y-2310D01*
X31778Y-2321D01*
X31753Y-2335D01*
X31729Y-2351D01*
X31705Y-2372D01*
X31684Y-2394D01*
X31682Y-2397D01*
X31676Y-2405D01*
X31669Y-2419D01*
X31660Y-2437D01*
X31651Y-2460D01*
X31643Y-2487D01*
X31637Y-2518D01*
X31636Y-2553D01*
Y-2554D01*
Y-2558D01*
Y-2564D01*
X31637Y-2571D01*
Y-2581D01*
X31639Y-2592D01*
X31643Y-2618D01*
X31648Y-2647D01*
X31658Y-2677D01*
X31672Y-2709D01*
X31690Y-2738D01*
Y-2739D01*
X31693Y-2741D01*
X31700Y-2750D01*
X31711Y-2763D01*
X31727Y-2778D01*
X31748Y-2796D01*
X31771Y-2812D01*
X31800Y-2827D01*
X31832Y-2841D01*
X31833D01*
X31836Y-2843D01*
X31840Y-2844D01*
X31847Y-2845D01*
X31855Y-2848D01*
X31865Y-2851D01*
X31889Y-2855D01*
X31916Y-2861D01*
X31947Y-2866D01*
X31980Y-2869D01*
X32016Y-2870D01*
X32036D01*
X32046Y-2869D01*
X32058D01*
X32072Y-2867D01*
X32087Y-2866D01*
X32120Y-2862D01*
X32156Y-2855D01*
X32192Y-2847D01*
X32228Y-2836D01*
X32230D01*
X32232Y-2834D01*
X32236Y-2832D01*
X32243Y-2829D01*
X32260Y-2821D01*
X32279Y-2808D01*
X32301Y-2793D01*
X32325Y-2774D01*
X32345Y-2752D01*
X32365Y-2725D01*
Y-2724D01*
X32366Y-2721D01*
X32369Y-2717D01*
X32372Y-2712D01*
X32374Y-2705D01*
X32379Y-2696D01*
X32387Y-2677D01*
X32395Y-2652D01*
X32402Y-2625D01*
X32408Y-2594D01*
X32409Y-2562D01*
Y-2561D01*
Y-2558D01*
Y-2553D01*
X32408Y-2545D01*
Y-2535D01*
X32406Y-2525D01*
X32401Y-2500D01*
X32394Y-2472D01*
X32383Y-2442D01*
X32368Y-2412D01*
X32359Y-2397D01*
X32348Y-2383D01*
X32347Y-2382D01*
X32345Y-2380D01*
X32341Y-2376D01*
X32337Y-2371D01*
X32330Y-2365D01*
X32322Y-2358D01*
X32314Y-2350D01*
X32303Y-2343D01*
X32290Y-2335D01*
X32276Y-2325D01*
X32263Y-2317D01*
X32246Y-2309D01*
X32228Y-2302D01*
X32209Y-2295D01*
X32188Y-2288D01*
X32166Y-2282D01*
X32198Y-2155D01*
X32199D01*
X32205Y-2157D01*
D02*
G37*
G36*
X32184Y-1120D02*
Y-1638D01*
X32190D01*
X32195Y-1637D01*
X32203D01*
X32213Y-1635D01*
X32224Y-1632D01*
X32249Y-1628D01*
X32276Y-1620D01*
X32307Y-1609D01*
X32334Y-1594D01*
X32359Y-1575D01*
Y-1573D01*
X32362Y-1572D01*
X32369Y-1563D01*
X32379Y-1551D01*
X32388Y-1534D01*
X32399Y-1512D01*
X32409Y-1488D01*
X32416Y-1460D01*
X32417Y-1445D01*
X32419Y-1428D01*
Y-1427D01*
Y-1425D01*
Y-1417D01*
X32417Y-1405D01*
X32414Y-1390D01*
X32410Y-1373D01*
X32405Y-1354D01*
X32397Y-1336D01*
X32386Y-1318D01*
X32384Y-1316D01*
X32379Y-1309D01*
X32370Y-1301D01*
X32359Y-1292D01*
X32344Y-1280D01*
X32325Y-1268D01*
X32303Y-1256D01*
X32276Y-1245D01*
X32292Y-1123D01*
X32293D01*
X32296Y-1125D01*
X32301Y-1126D01*
X32310Y-1129D01*
X32318Y-1133D01*
X32329Y-1137D01*
X32352Y-1148D01*
X32379Y-1162D01*
X32406Y-1181D01*
X32432Y-1203D01*
X32457Y-1231D01*
Y-1232D01*
X32460Y-1235D01*
X32463Y-1239D01*
X32467Y-1245D01*
X32471Y-1253D01*
X32475Y-1261D01*
X32481Y-1272D01*
X32486Y-1285D01*
X32492Y-1299D01*
X32497Y-1312D01*
X32506Y-1347D01*
X32512Y-1385D01*
X32515Y-1428D01*
Y-1430D01*
Y-1435D01*
Y-1443D01*
X32514Y-1453D01*
X32512Y-1465D01*
X32510Y-1481D01*
X32507Y-1497D01*
X32504Y-1515D01*
X32493Y-1554D01*
X32485Y-1575D01*
X32476Y-1594D01*
X32465Y-1615D01*
X32453Y-1634D01*
X32439Y-1652D01*
X32423Y-1670D01*
X32421Y-1671D01*
X32419Y-1674D01*
X32413Y-1678D01*
X32405Y-1684D01*
X32395Y-1690D01*
X32384Y-1697D01*
X32370Y-1706D01*
X32355Y-1714D01*
X32337Y-1722D01*
X32318Y-1730D01*
X32296Y-1737D01*
X32272Y-1744D01*
X32247Y-1750D01*
X32220Y-1754D01*
X32191Y-1757D01*
X32160Y-1758D01*
X32144D01*
X32131Y-1757D01*
X32116Y-1755D01*
X32100Y-1754D01*
X32081Y-1751D01*
X32061Y-1747D01*
X32017Y-1736D01*
X31995Y-1729D01*
X31971Y-1721D01*
X31949Y-1710D01*
X31929Y-1697D01*
X31908Y-1684D01*
X31889Y-1668D01*
X31887Y-1667D01*
X31885Y-1664D01*
X31880Y-1659D01*
X31874Y-1652D01*
X31867Y-1643D01*
X31858Y-1632D01*
X31849Y-1620D01*
X31840Y-1605D01*
X31831Y-1590D01*
X31822Y-1572D01*
X31814Y-1552D01*
X31807Y-1532D01*
X31800Y-1510D01*
X31796Y-1486D01*
X31793Y-1461D01*
X31792Y-1435D01*
Y-1434D01*
Y-1430D01*
Y-1421D01*
X31793Y-1412D01*
X31795Y-1401D01*
X31798Y-1387D01*
X31800Y-1372D01*
X31804Y-1354D01*
X31809Y-1337D01*
X31815Y-1318D01*
X31822Y-1300D01*
X31832Y-1280D01*
X31843Y-1261D01*
X31855Y-1242D01*
X31871Y-1224D01*
X31887Y-1207D01*
X31889Y-1206D01*
X31891Y-1203D01*
X31897Y-1199D01*
X31905Y-1194D01*
X31915Y-1187D01*
X31926Y-1180D01*
X31940Y-1171D01*
X31956Y-1163D01*
X31974Y-1155D01*
X31993Y-1147D01*
X32016Y-1140D01*
X32039Y-1133D01*
X32065Y-1127D01*
X32093Y-1123D01*
X32122Y-1120D01*
X32154Y-1119D01*
X32170D01*
X32184Y-1120D01*
D02*
G37*
G36*
X31938Y1580D02*
X31937Y1579D01*
X31934Y1573D01*
X31930Y1565D01*
X31926Y1554D01*
X31922Y1542D01*
X31918Y1526D01*
X31915Y1511D01*
X31914Y1496D01*
Y1495D01*
Y1489D01*
X31915Y1482D01*
X31916Y1473D01*
X31919Y1463D01*
X31923Y1450D01*
X31929Y1438D01*
X31937Y1427D01*
X31938Y1426D01*
X31941Y1421D01*
X31947Y1417D01*
X31953Y1410D01*
X31963Y1404D01*
X31974Y1397D01*
X31987Y1390D01*
X32002Y1384D01*
X32005Y1383D01*
X32013Y1381D01*
X32025Y1379D01*
X32042Y1375D01*
X32063Y1371D01*
X32086Y1368D01*
X32111Y1366D01*
X32138Y1365D01*
X32500D01*
Y1248D01*
X31807D01*
Y1354D01*
X31912D01*
X31911Y1355D01*
X31901Y1361D01*
X31889Y1368D01*
X31874Y1379D01*
X31858Y1390D01*
X31842Y1402D01*
X31828Y1415D01*
X31817Y1427D01*
X31815Y1428D01*
X31813Y1433D01*
X31809Y1441D01*
X31804Y1449D01*
X31800Y1460D01*
X31796Y1474D01*
X31793Y1488D01*
X31792Y1503D01*
Y1506D01*
Y1513D01*
X31793Y1525D01*
X31796Y1540D01*
X31802Y1558D01*
X31809Y1578D01*
X31818Y1599D01*
X31831Y1623D01*
X31938Y1580D01*
D02*
G37*
G36*
X32500Y-2017D02*
X31545D01*
Y-1900D01*
X32500D01*
Y-2017D01*
D02*
G37*
G36*
X31938Y98D02*
X31937Y97D01*
X31934Y91D01*
X31930Y83D01*
X31926Y72D01*
X31922Y59D01*
X31918Y44D01*
X31915Y29D01*
X31914Y14D01*
Y13D01*
Y7D01*
X31915Y0D01*
X31916Y-10D01*
X31919Y-19D01*
X31923Y-32D01*
X31929Y-44D01*
X31937Y-55D01*
X31938Y-56D01*
X31941Y-61D01*
X31947Y-65D01*
X31953Y-72D01*
X31963Y-78D01*
X31974Y-85D01*
X31987Y-92D01*
X32002Y-98D01*
X32005Y-99D01*
X32013Y-101D01*
X32025Y-103D01*
X32042Y-108D01*
X32063Y-112D01*
X32086Y-114D01*
X32111Y-116D01*
X32138Y-117D01*
X32500D01*
Y-234D01*
X31807D01*
Y-128D01*
X31912D01*
X31911Y-127D01*
X31901Y-121D01*
X31889Y-114D01*
X31874Y-103D01*
X31858Y-92D01*
X31842Y-80D01*
X31828Y-68D01*
X31817Y-55D01*
X31815Y-54D01*
X31813Y-50D01*
X31809Y-41D01*
X31804Y-33D01*
X31800Y-22D01*
X31796Y-8D01*
X31793Y6D01*
X31792Y21D01*
Y24D01*
Y30D01*
X31793Y43D01*
X31796Y58D01*
X31802Y76D01*
X31809Y95D01*
X31818Y117D01*
X31831Y141D01*
X31938Y98D01*
D02*
G37*
G36*
X32318Y2963D02*
X32333Y2960D01*
X32350Y2956D01*
X32368Y2949D01*
X32388Y2941D01*
X32408Y2930D01*
X32410Y2929D01*
X32416Y2923D01*
X32425Y2916D01*
X32436Y2905D01*
X32449Y2890D01*
X32463Y2873D01*
X32475Y2854D01*
X32488Y2830D01*
Y2829D01*
X32489Y2828D01*
X32492Y2819D01*
X32496Y2806D01*
X32501Y2788D01*
X32507Y2766D01*
X32511Y2741D01*
X32514Y2715D01*
X32515Y2684D01*
Y2683D01*
Y2679D01*
Y2672D01*
X32514Y2662D01*
Y2651D01*
X32512Y2637D01*
X32511Y2623D01*
X32508Y2608D01*
X32501Y2575D01*
X32492Y2541D01*
X32478Y2508D01*
X32470Y2492D01*
X32460Y2479D01*
X32459Y2477D01*
X32457Y2476D01*
X32449Y2468D01*
X32436Y2455D01*
X32417Y2441D01*
X32394Y2426D01*
X32366Y2411D01*
X32332Y2399D01*
X32293Y2389D01*
X32275Y2505D01*
X32278D01*
X32286Y2508D01*
X32300Y2510D01*
X32315Y2516D01*
X32332Y2523D01*
X32350Y2531D01*
X32368Y2544D01*
X32383Y2559D01*
X32384Y2561D01*
X32388Y2567D01*
X32394Y2578D01*
X32401Y2592D01*
X32408Y2610D01*
X32413Y2630D01*
X32417Y2655D01*
X32419Y2684D01*
Y2686D01*
Y2688D01*
Y2692D01*
Y2698D01*
X32417Y2712D01*
X32414Y2730D01*
X32410Y2749D01*
X32405Y2770D01*
X32398Y2788D01*
X32387Y2804D01*
X32386Y2806D01*
X32381Y2811D01*
X32374Y2817D01*
X32365Y2825D01*
X32354Y2832D01*
X32340Y2839D01*
X32326Y2843D01*
X32310Y2844D01*
X32303D01*
X32296Y2843D01*
X32286Y2840D01*
X32276Y2836D01*
X32267Y2829D01*
X32256Y2821D01*
X32247Y2808D01*
X32246Y2807D01*
X32245Y2803D01*
X32241Y2796D01*
X32236Y2785D01*
X32231Y2768D01*
X32227Y2759D01*
X32224Y2748D01*
X32220Y2735D01*
X32216Y2722D01*
X32212Y2706D01*
X32207Y2688D01*
Y2687D01*
X32206Y2683D01*
X32205Y2676D01*
X32202Y2668D01*
X32199Y2657D01*
X32195Y2644D01*
X32188Y2618D01*
X32179Y2588D01*
X32170Y2559D01*
X32160Y2531D01*
X32155Y2519D01*
X32151Y2509D01*
X32149Y2506D01*
X32147Y2501D01*
X32141Y2492D01*
X32134Y2481D01*
X32125Y2469D01*
X32114Y2457D01*
X32101Y2444D01*
X32086Y2433D01*
X32085Y2432D01*
X32079Y2429D01*
X32069Y2425D01*
X32058Y2421D01*
X32045Y2417D01*
X32028Y2412D01*
X32012Y2410D01*
X31992Y2408D01*
X31984D01*
X31976Y2410D01*
X31963Y2411D01*
X31951Y2414D01*
X31936Y2417D01*
X31922Y2422D01*
X31907Y2429D01*
X31905Y2430D01*
X31900Y2433D01*
X31893Y2437D01*
X31883Y2444D01*
X31874Y2452D01*
X31861Y2462D01*
X31850Y2473D01*
X31840Y2487D01*
X31839Y2488D01*
X31838Y2492D01*
X31833Y2498D01*
X31829Y2506D01*
X31824Y2517D01*
X31818Y2530D01*
X31813Y2545D01*
X31807Y2561D01*
X31806Y2564D01*
X31804Y2570D01*
X31802Y2579D01*
X31799Y2592D01*
X31796Y2607D01*
X31795Y2623D01*
X31792Y2643D01*
Y2662D01*
Y2664D01*
Y2666D01*
Y2670D01*
Y2676D01*
X31793Y2691D01*
X31795Y2712D01*
X31798Y2734D01*
X31803Y2757D01*
X31809Y2782D01*
X31817Y2806D01*
Y2807D01*
X31818Y2808D01*
X31821Y2815D01*
X31827Y2826D01*
X31833Y2840D01*
X31843Y2855D01*
X31854Y2871D01*
X31867Y2884D01*
X31880Y2897D01*
X31882Y2898D01*
X31887Y2901D01*
X31897Y2906D01*
X31908Y2913D01*
X31925Y2920D01*
X31942Y2927D01*
X31963Y2933D01*
X31987Y2938D01*
X32002Y2824D01*
X31999D01*
X31993Y2822D01*
X31984Y2819D01*
X31971Y2815D01*
X31959Y2808D01*
X31945Y2800D01*
X31931Y2791D01*
X31919Y2777D01*
X31918Y2775D01*
X31915Y2770D01*
X31909Y2761D01*
X31904Y2749D01*
X31898Y2735D01*
X31893Y2717D01*
X31890Y2695D01*
X31889Y2672D01*
Y2670D01*
Y2668D01*
Y2664D01*
Y2658D01*
X31890Y2644D01*
X31891Y2626D01*
X31896Y2608D01*
X31900Y2589D01*
X31907Y2571D01*
X31916Y2556D01*
X31918Y2554D01*
X31920Y2550D01*
X31926Y2545D01*
X31934Y2539D01*
X31942Y2532D01*
X31953Y2527D01*
X31966Y2523D01*
X31978Y2521D01*
X31982D01*
X31987Y2523D01*
X31992D01*
X32006Y2527D01*
X32020Y2535D01*
X32021Y2537D01*
X32023Y2538D01*
X32027Y2541D01*
X32031Y2546D01*
X32035Y2552D01*
X32041Y2560D01*
X32045Y2570D01*
X32050Y2581D01*
Y2582D01*
X32052Y2585D01*
X32053Y2590D01*
X32057Y2600D01*
X32061Y2614D01*
X32065Y2632D01*
X32069Y2643D01*
X32072Y2655D01*
X32076Y2669D01*
X32081Y2684D01*
Y2686D01*
X32082Y2690D01*
X32083Y2697D01*
X32086Y2705D01*
X32089Y2715D01*
X32092Y2727D01*
X32100Y2753D01*
X32108Y2782D01*
X32118Y2811D01*
X32127Y2837D01*
X32131Y2848D01*
X32136Y2858D01*
X32137Y2861D01*
X32140Y2866D01*
X32144Y2875D01*
X32151Y2887D01*
X32159Y2899D01*
X32170Y2912D01*
X32183Y2924D01*
X32196Y2935D01*
X32198Y2937D01*
X32203Y2939D01*
X32212Y2945D01*
X32224Y2951D01*
X32239Y2955D01*
X32256Y2960D01*
X32275Y2963D01*
X32297Y2964D01*
X32307D01*
X32318Y2963D01*
D02*
G37*
G36*
Y3631D02*
X32333Y3628D01*
X32350Y3624D01*
X32368Y3617D01*
X32388Y3609D01*
X32408Y3598D01*
X32410Y3596D01*
X32416Y3591D01*
X32425Y3584D01*
X32436Y3573D01*
X32449Y3558D01*
X32463Y3541D01*
X32475Y3522D01*
X32488Y3498D01*
Y3497D01*
X32489Y3496D01*
X32492Y3487D01*
X32496Y3474D01*
X32501Y3456D01*
X32507Y3434D01*
X32511Y3409D01*
X32514Y3382D01*
X32515Y3352D01*
Y3351D01*
Y3347D01*
Y3340D01*
X32514Y3330D01*
Y3319D01*
X32512Y3305D01*
X32511Y3291D01*
X32508Y3276D01*
X32501Y3243D01*
X32492Y3209D01*
X32478Y3176D01*
X32470Y3160D01*
X32460Y3147D01*
X32459Y3145D01*
X32457Y3144D01*
X32449Y3136D01*
X32436Y3123D01*
X32417Y3109D01*
X32394Y3094D01*
X32366Y3079D01*
X32332Y3067D01*
X32293Y3057D01*
X32275Y3173D01*
X32278D01*
X32286Y3176D01*
X32300Y3178D01*
X32315Y3184D01*
X32332Y3191D01*
X32350Y3199D01*
X32368Y3211D01*
X32383Y3227D01*
X32384Y3229D01*
X32388Y3235D01*
X32394Y3246D01*
X32401Y3260D01*
X32408Y3278D01*
X32413Y3298D01*
X32417Y3323D01*
X32419Y3352D01*
Y3353D01*
Y3356D01*
Y3360D01*
Y3366D01*
X32417Y3380D01*
X32414Y3398D01*
X32410Y3417D01*
X32405Y3438D01*
X32398Y3456D01*
X32387Y3472D01*
X32386Y3474D01*
X32381Y3479D01*
X32374Y3485D01*
X32365Y3493D01*
X32354Y3500D01*
X32340Y3507D01*
X32326Y3511D01*
X32310Y3512D01*
X32303D01*
X32296Y3511D01*
X32286Y3508D01*
X32276Y3504D01*
X32267Y3497D01*
X32256Y3489D01*
X32247Y3476D01*
X32246Y3475D01*
X32245Y3471D01*
X32241Y3464D01*
X32236Y3453D01*
X32231Y3436D01*
X32227Y3427D01*
X32224Y3416D01*
X32220Y3403D01*
X32216Y3389D01*
X32212Y3374D01*
X32207Y3356D01*
Y3355D01*
X32206Y3351D01*
X32205Y3344D01*
X32202Y3336D01*
X32199Y3325D01*
X32195Y3312D01*
X32188Y3286D01*
X32179Y3255D01*
X32170Y3227D01*
X32160Y3199D01*
X32155Y3187D01*
X32151Y3177D01*
X32149Y3174D01*
X32147Y3169D01*
X32141Y3160D01*
X32134Y3149D01*
X32125Y3137D01*
X32114Y3124D01*
X32101Y3112D01*
X32086Y3101D01*
X32085Y3100D01*
X32079Y3097D01*
X32069Y3093D01*
X32058Y3089D01*
X32045Y3084D01*
X32028Y3080D01*
X32012Y3077D01*
X31992Y3076D01*
X31984D01*
X31976Y3077D01*
X31963Y3079D01*
X31951Y3082D01*
X31936Y3084D01*
X31922Y3090D01*
X31907Y3097D01*
X31905Y3098D01*
X31900Y3101D01*
X31893Y3105D01*
X31883Y3112D01*
X31874Y3120D01*
X31861Y3130D01*
X31850Y3141D01*
X31840Y3155D01*
X31839Y3156D01*
X31838Y3160D01*
X31833Y3166D01*
X31829Y3174D01*
X31824Y3185D01*
X31818Y3198D01*
X31813Y3213D01*
X31807Y3229D01*
X31806Y3232D01*
X31804Y3238D01*
X31802Y3247D01*
X31799Y3260D01*
X31796Y3275D01*
X31795Y3291D01*
X31792Y3311D01*
Y3330D01*
Y3331D01*
Y3334D01*
Y3338D01*
Y3344D01*
X31793Y3359D01*
X31795Y3380D01*
X31798Y3402D01*
X31803Y3425D01*
X31809Y3450D01*
X31817Y3474D01*
Y3475D01*
X31818Y3476D01*
X31821Y3483D01*
X31827Y3494D01*
X31833Y3508D01*
X31843Y3523D01*
X31854Y3538D01*
X31867Y3552D01*
X31880Y3565D01*
X31882Y3566D01*
X31887Y3569D01*
X31897Y3574D01*
X31908Y3581D01*
X31925Y3588D01*
X31942Y3595D01*
X31963Y3601D01*
X31987Y3606D01*
X32002Y3492D01*
X31999D01*
X31993Y3490D01*
X31984Y3487D01*
X31971Y3483D01*
X31959Y3476D01*
X31945Y3468D01*
X31931Y3458D01*
X31919Y3445D01*
X31918Y3443D01*
X31915Y3438D01*
X31909Y3429D01*
X31904Y3417D01*
X31898Y3403D01*
X31893Y3385D01*
X31890Y3363D01*
X31889Y3340D01*
Y3338D01*
Y3336D01*
Y3331D01*
Y3326D01*
X31890Y3312D01*
X31891Y3294D01*
X31896Y3276D01*
X31900Y3257D01*
X31907Y3239D01*
X31916Y3224D01*
X31918Y3222D01*
X31920Y3218D01*
X31926Y3213D01*
X31934Y3207D01*
X31942Y3200D01*
X31953Y3195D01*
X31966Y3191D01*
X31978Y3189D01*
X31982D01*
X31987Y3191D01*
X31992D01*
X32006Y3195D01*
X32020Y3203D01*
X32021Y3204D01*
X32023Y3206D01*
X32027Y3209D01*
X32031Y3214D01*
X32035Y3220D01*
X32041Y3228D01*
X32045Y3238D01*
X32050Y3249D01*
Y3250D01*
X32052Y3253D01*
X32053Y3258D01*
X32057Y3268D01*
X32061Y3282D01*
X32065Y3300D01*
X32069Y3311D01*
X32072Y3323D01*
X32076Y3337D01*
X32081Y3352D01*
Y3353D01*
X32082Y3358D01*
X32083Y3365D01*
X32086Y3373D01*
X32089Y3382D01*
X32092Y3395D01*
X32100Y3421D01*
X32108Y3450D01*
X32118Y3479D01*
X32127Y3505D01*
X32131Y3516D01*
X32136Y3526D01*
X32137Y3529D01*
X32140Y3534D01*
X32144Y3543D01*
X32151Y3555D01*
X32159Y3567D01*
X32170Y3580D01*
X32183Y3592D01*
X32196Y3603D01*
X32198Y3605D01*
X32203Y3607D01*
X32212Y3613D01*
X32224Y3619D01*
X32239Y3623D01*
X32256Y3628D01*
X32275Y3631D01*
X32297Y3632D01*
X32307D01*
X32318Y3631D01*
D02*
G37*
G36*
X30386Y12761D02*
X30395Y12760D01*
X30407Y12759D01*
X30419Y12756D01*
X30434Y12754D01*
X30463Y12744D01*
X30479Y12739D01*
X30496Y12732D01*
X30512Y12722D01*
X30528Y12713D01*
X30543Y12702D01*
X30559Y12689D01*
X30560Y12688D01*
X30563Y12685D01*
X30567Y12681D01*
X30570Y12675D01*
X30577Y12667D01*
X30583Y12657D01*
X30591Y12644D01*
X30597Y12630D01*
X30605Y12613D01*
X30613Y12594D01*
X30619Y12573D01*
X30625Y12548D01*
X30630Y12523D01*
X30634Y12494D01*
X30636Y12462D01*
X30637Y12428D01*
Y12200D01*
X31000D01*
Y12081D01*
X30107D01*
Y12417D01*
Y12418D01*
Y12421D01*
Y12426D01*
Y12431D01*
Y12439D01*
Y12448D01*
X30109Y12467D01*
X30110Y12489D01*
X30111Y12512D01*
X30114Y12534D01*
X30116Y12553D01*
Y12555D01*
Y12556D01*
X30119Y12565D01*
X30121Y12577D01*
X30125Y12592D01*
X30132Y12609D01*
X30140Y12627D01*
X30149Y12646D01*
X30159Y12663D01*
X30160Y12666D01*
X30164Y12671D01*
X30172Y12679D01*
X30181Y12689D01*
X30193Y12701D01*
X30208Y12712D01*
X30225Y12725D01*
X30244Y12735D01*
X30247Y12737D01*
X30253Y12739D01*
X30265Y12744D01*
X30280Y12750D01*
X30298Y12754D01*
X30319Y12759D01*
X30342Y12761D01*
X30367Y12763D01*
X30377D01*
X30386Y12761D01*
D02*
G37*
G36*
X31000Y13171D02*
X30302D01*
X30303Y13170D01*
X30309Y13164D01*
X30316Y13156D01*
X30325Y13143D01*
X30337Y13129D01*
X30350Y13111D01*
X30364Y13090D01*
X30378Y13067D01*
Y13066D01*
X30380Y13064D01*
X30385Y13057D01*
X30391Y13044D01*
X30399Y13028D01*
X30408Y13010D01*
X30417Y12991D01*
X30426Y12971D01*
X30434Y12952D01*
X30328D01*
Y12953D01*
X30325Y12956D01*
X30324Y12961D01*
X30320Y12968D01*
X30316Y12975D01*
X30311Y12984D01*
X30298Y13006D01*
X30284Y13032D01*
X30266Y13058D01*
X30245Y13085D01*
X30223Y13112D01*
X30222Y13113D01*
X30221Y13115D01*
X30217Y13118D01*
X30213Y13124D01*
X30200Y13135D01*
X30185Y13151D01*
X30167Y13166D01*
X30146Y13183D01*
X30125Y13197D01*
X30103Y13210D01*
Y13281D01*
X31000D01*
Y13171D01*
D02*
G37*
G36*
X32500Y-501D02*
X32499Y-502D01*
X32493Y-504D01*
X32486Y-506D01*
X32475Y-510D01*
X32463Y-515D01*
X32448Y-517D01*
X32431Y-520D01*
X32413Y-523D01*
Y-524D01*
X32416Y-526D01*
X32423Y-534D01*
X32432Y-546D01*
X32445Y-563D01*
X32457Y-584D01*
X32471Y-604D01*
X32483Y-626D01*
X32493Y-650D01*
X32495Y-653D01*
X32496Y-661D01*
X32500Y-673D01*
X32504Y-689D01*
X32508Y-708D01*
X32511Y-730D01*
X32514Y-755D01*
X32515Y-780D01*
Y-781D01*
Y-785D01*
Y-791D01*
X32514Y-799D01*
Y-809D01*
X32512Y-820D01*
X32508Y-844D01*
X32501Y-872D01*
X32492Y-902D01*
X32478Y-930D01*
X32460Y-955D01*
X32457Y-958D01*
X32450Y-965D01*
X32438Y-974D01*
X32421Y-985D01*
X32401Y-996D01*
X32377Y-1006D01*
X32348Y-1013D01*
X32334Y-1014D01*
X32318Y-1016D01*
X32310D01*
X32300Y-1014D01*
X32287Y-1013D01*
X32272Y-1010D01*
X32257Y-1006D01*
X32241Y-1000D01*
X32225Y-993D01*
X32224Y-992D01*
X32219Y-989D01*
X32210Y-984D01*
X32201Y-977D01*
X32190Y-969D01*
X32179Y-958D01*
X32167Y-947D01*
X32158Y-933D01*
X32156Y-931D01*
X32154Y-926D01*
X32148Y-919D01*
X32143Y-908D01*
X32137Y-895D01*
X32130Y-880D01*
X32125Y-865D01*
X32119Y-847D01*
Y-846D01*
X32118Y-840D01*
X32115Y-832D01*
X32114Y-821D01*
X32111Y-807D01*
X32108Y-789D01*
X32104Y-769D01*
X32101Y-744D01*
Y-742D01*
X32100Y-737D01*
Y-730D01*
X32098Y-720D01*
X32097Y-709D01*
X32094Y-695D01*
X32093Y-680D01*
X32090Y-664D01*
X32083Y-630D01*
X32076Y-595D01*
X32068Y-563D01*
X32064Y-548D01*
X32060Y-534D01*
X32056D01*
X32047Y-533D01*
X32018D01*
X32005Y-534D01*
X31989Y-537D01*
X31973Y-541D01*
X31956Y-548D01*
X31941Y-556D01*
X31929Y-567D01*
X31927Y-568D01*
X31922Y-575D01*
X31916Y-586D01*
X31908Y-600D01*
X31901Y-619D01*
X31894Y-642D01*
X31890Y-669D01*
X31889Y-701D01*
Y-702D01*
Y-705D01*
Y-709D01*
Y-715D01*
X31890Y-728D01*
X31893Y-748D01*
X31896Y-767D01*
X31901Y-788D01*
X31908Y-807D01*
X31918Y-824D01*
X31919Y-825D01*
X31923Y-831D01*
X31930Y-838D01*
X31941Y-846D01*
X31955Y-854D01*
X31973Y-864D01*
X31995Y-872D01*
X32020Y-880D01*
X32005Y-995D01*
X32003D01*
X32002Y-993D01*
X31998D01*
X31992Y-992D01*
X31980Y-988D01*
X31962Y-982D01*
X31944Y-975D01*
X31925Y-967D01*
X31905Y-956D01*
X31887Y-944D01*
X31886Y-942D01*
X31880Y-937D01*
X31872Y-929D01*
X31861Y-918D01*
X31850Y-902D01*
X31839Y-884D01*
X31827Y-864D01*
X31817Y-840D01*
Y-839D01*
X31815Y-838D01*
X31814Y-833D01*
X31813Y-828D01*
X31809Y-814D01*
X31804Y-795D01*
X31800Y-773D01*
X31796Y-745D01*
X31793Y-716D01*
X31792Y-683D01*
Y-682D01*
Y-679D01*
Y-675D01*
Y-668D01*
X31793Y-653D01*
X31795Y-632D01*
X31798Y-609D01*
X31802Y-585D01*
X31807Y-562D01*
X31814Y-539D01*
X31815Y-537D01*
X31818Y-530D01*
X31822Y-520D01*
X31828Y-508D01*
X31836Y-494D01*
X31844Y-480D01*
X31855Y-468D01*
X31867Y-457D01*
X31868Y-455D01*
X31872Y-453D01*
X31879Y-448D01*
X31887Y-443D01*
X31900Y-436D01*
X31912Y-430D01*
X31927Y-425D01*
X31945Y-421D01*
X31947D01*
X31951Y-419D01*
X31959Y-418D01*
X31970Y-417D01*
X31985D01*
X32003Y-415D01*
X32027Y-414D01*
X32264D01*
X32297Y-412D01*
X32332D01*
X32366Y-411D01*
X32381Y-410D01*
X32395D01*
X32408Y-408D01*
X32417Y-407D01*
X32419D01*
X32424Y-406D01*
X32432Y-404D01*
X32443Y-400D01*
X32456Y-397D01*
X32470Y-392D01*
X32485Y-385D01*
X32500Y-378D01*
Y-501D01*
D02*
G37*
G36*
X32050Y5412D02*
X32063D01*
X32078Y5411D01*
X32094Y5408D01*
X32112Y5407D01*
X32152Y5400D01*
X32196Y5389D01*
X32241Y5373D01*
X32263Y5365D01*
X32285Y5354D01*
X32286D01*
X32290Y5351D01*
X32296Y5349D01*
X32304Y5343D01*
X32314Y5338D01*
X32323Y5331D01*
X32350Y5311D01*
X32377Y5288D01*
X32406Y5260D01*
X32434Y5227D01*
X32459Y5189D01*
Y5187D01*
X32461Y5184D01*
X32464Y5178D01*
X32468Y5169D01*
X32472Y5160D01*
X32476Y5149D01*
X32482Y5135D01*
X32488Y5120D01*
X32493Y5103D01*
X32499Y5085D01*
X32507Y5045D01*
X32514Y5002D01*
X32517Y4957D01*
Y4955D01*
Y4951D01*
Y4943D01*
X32515Y4935D01*
Y4922D01*
X32512Y4908D01*
X32511Y4893D01*
X32508Y4875D01*
X32500Y4838D01*
X32489Y4798D01*
X32472Y4757D01*
X32463Y4736D01*
X32452Y4715D01*
X32450Y4714D01*
X32449Y4711D01*
X32445Y4706D01*
X32439Y4697D01*
X32434Y4689D01*
X32425Y4679D01*
X32405Y4656D01*
X32380Y4630D01*
X32350Y4602D01*
X32315Y4577D01*
X32275Y4554D01*
X32274D01*
X32269Y4551D01*
X32264Y4548D01*
X32256Y4546D01*
X32245Y4541D01*
X32232Y4537D01*
X32219Y4532D01*
X32203Y4528D01*
X32185Y4522D01*
X32167Y4517D01*
X32126Y4508D01*
X32083Y4503D01*
X32036Y4500D01*
X32025D01*
X32013Y4501D01*
X31996D01*
X31977Y4504D01*
X31953Y4507D01*
X31927Y4511D01*
X31900Y4517D01*
X31871Y4522D01*
X31840Y4530D01*
X31810Y4541D01*
X31778Y4554D01*
X31748Y4568D01*
X31718Y4586D01*
X31690Y4605D01*
X31664Y4627D01*
X31662Y4628D01*
X31658Y4632D01*
X31651Y4641D01*
X31643Y4650D01*
X31632Y4663D01*
X31621Y4678D01*
X31609Y4696D01*
X31596Y4717D01*
X31584Y4739D01*
X31571Y4764D01*
X31560Y4791D01*
X31549Y4820D01*
X31541Y4852D01*
X31534Y4885D01*
X31530Y4919D01*
X31528Y4957D01*
Y4958D01*
Y4962D01*
Y4969D01*
X31530Y4979D01*
Y4991D01*
X31531Y5004D01*
X31534Y5020D01*
X31537Y5037D01*
X31544Y5073D01*
X31555Y5114D01*
X31571Y5154D01*
X31581Y5175D01*
X31592Y5195D01*
X31593Y5197D01*
X31595Y5200D01*
X31599Y5205D01*
X31603Y5213D01*
X31610Y5222D01*
X31618Y5233D01*
X31637Y5256D01*
X31662Y5281D01*
X31693Y5309D01*
X31729Y5335D01*
X31769Y5357D01*
X31770D01*
X31774Y5360D01*
X31780Y5362D01*
X31788Y5365D01*
X31799Y5371D01*
X31811Y5375D01*
X31827Y5380D01*
X31843Y5386D01*
X31861Y5390D01*
X31880Y5396D01*
X31903Y5401D01*
X31925Y5405D01*
X31973Y5411D01*
X32025Y5414D01*
X32039D01*
X32050Y5412D01*
D02*
G37*
%LPC*%
G36*
X30555Y2511D02*
X30537D01*
X30528Y2510D01*
X30516D01*
X30505Y2508D01*
X30490Y2506D01*
X30461Y2502D01*
X30430Y2495D01*
X30396Y2486D01*
X30365Y2473D01*
X30364D01*
X30362Y2472D01*
X30358Y2470D01*
X30352Y2467D01*
X30337Y2458D01*
X30319Y2446D01*
X30298Y2431D01*
X30278Y2412D01*
X30257Y2390D01*
X30239Y2365D01*
Y2364D01*
X30236Y2362D01*
X30235Y2359D01*
X30231Y2352D01*
X30229Y2346D01*
X30225Y2338D01*
X30216Y2319D01*
X30208Y2295D01*
X30200Y2268D01*
X30195Y2237D01*
X30194Y2205D01*
Y2204D01*
Y2200D01*
Y2193D01*
X30195Y2184D01*
X30196Y2173D01*
X30199Y2161D01*
X30202Y2147D01*
X30204Y2132D01*
X30214Y2098D01*
X30222Y2080D01*
X30230Y2062D01*
X30240Y2043D01*
X30252Y2025D01*
X30265Y2007D01*
X30280Y1990D01*
X30281Y1988D01*
X30284Y1986D01*
X30289Y1982D01*
X30297Y1976D01*
X30306Y1969D01*
X30318Y1961D01*
X30332Y1954D01*
X30349Y1945D01*
X30367Y1937D01*
X30389Y1928D01*
X30412Y1920D01*
X30438Y1914D01*
X30466Y1907D01*
X30498Y1903D01*
X30532Y1901D01*
X30568Y1899D01*
X30583D01*
X30595Y1901D01*
X30608Y1902D01*
X30623Y1905D01*
X30641Y1907D01*
X30659Y1910D01*
X30701Y1920D01*
X30721Y1928D01*
X30743Y1936D01*
X30764Y1946D01*
X30785Y1957D01*
X30804Y1970D01*
X30822Y1986D01*
X30823Y1987D01*
X30826Y1990D01*
X30831Y1995D01*
X30836Y2001D01*
X30844Y2010D01*
X30852Y2021D01*
X30859Y2032D01*
X30868Y2045D01*
X30877Y2061D01*
X30885Y2077D01*
X30893Y2096D01*
X30901Y2115D01*
X30906Y2135D01*
X30911Y2156D01*
X30914Y2179D01*
X30915Y2204D01*
Y2205D01*
Y2210D01*
X30914Y2217D01*
Y2226D01*
X30912Y2237D01*
X30910Y2250D01*
X30907Y2266D01*
X30903Y2281D01*
X30898Y2299D01*
X30892Y2316D01*
X30885Y2335D01*
X30876Y2354D01*
X30865Y2372D01*
X30853Y2390D01*
X30839Y2408D01*
X30822Y2424D01*
X30821Y2426D01*
X30818Y2428D01*
X30812Y2432D01*
X30804Y2439D01*
X30795Y2445D01*
X30783Y2451D01*
X30769Y2459D01*
X30754Y2468D01*
X30736Y2476D01*
X30715Y2484D01*
X30693Y2490D01*
X30670Y2498D01*
X30644Y2503D01*
X30616Y2507D01*
X30586Y2510D01*
X30555Y2511D01*
D02*
G37*
G36*
X30632Y542D02*
X30387Y450D01*
X30386D01*
X30382Y448D01*
X30376Y446D01*
X30368Y443D01*
X30359Y439D01*
X30347Y435D01*
X30334Y431D01*
X30321Y426D01*
X30292Y416D01*
X30261Y406D01*
X30230Y395D01*
X30200Y386D01*
X30202D01*
X30204Y385D01*
X30209D01*
X30214Y382D01*
X30223Y381D01*
X30233Y378D01*
X30254Y373D01*
X30280Y367D01*
X30309Y358D01*
X30340Y349D01*
X30372Y337D01*
X30632Y240D01*
Y542D01*
D02*
G37*
G36*
X30741Y-1102D02*
X30733D01*
X30723Y-1104D01*
X30711Y-1106D01*
X30698Y-1109D01*
X30684Y-1114D01*
X30670Y-1120D01*
X30656Y-1130D01*
X30654Y-1131D01*
X30649Y-1135D01*
X30643Y-1140D01*
X30635Y-1148D01*
X30626Y-1158D01*
X30617Y-1171D01*
X30609Y-1185D01*
X30603Y-1202D01*
X30601Y-1204D01*
X30600Y-1209D01*
X30597Y-1221D01*
X30595Y-1235D01*
X30592Y-1253D01*
X30590Y-1275D01*
X30587Y-1302D01*
Y-1332D01*
Y-1537D01*
X30894D01*
Y-1315D01*
Y-1314D01*
Y-1313D01*
Y-1306D01*
Y-1296D01*
Y-1283D01*
X30893Y-1256D01*
X30892Y-1244D01*
X30890Y-1234D01*
Y-1233D01*
X30889Y-1228D01*
X30888Y-1220D01*
X30885Y-1211D01*
X30877Y-1189D01*
X30867Y-1167D01*
X30866Y-1166D01*
X30863Y-1162D01*
X30859Y-1157D01*
X30854Y-1150D01*
X30847Y-1144D01*
X30839Y-1135D01*
X30828Y-1128D01*
X30817Y-1120D01*
X30816Y-1119D01*
X30812Y-1118D01*
X30804Y-1115D01*
X30795Y-1111D01*
X30785Y-1108D01*
X30772Y-1105D01*
X30756Y-1104D01*
X30741Y-1102D01*
D02*
G37*
G36*
X30350Y-1141D02*
X30342D01*
X30334Y-1142D01*
X30324Y-1144D01*
X30311Y-1146D01*
X30298Y-1150D01*
X30285Y-1155D01*
X30272Y-1163D01*
X30271Y-1164D01*
X30267Y-1167D01*
X30261Y-1172D01*
X30254Y-1178D01*
X30247Y-1188D01*
X30239Y-1198D01*
X30231Y-1211D01*
X30226Y-1225D01*
Y-1226D01*
X30223Y-1233D01*
X30222Y-1242D01*
X30220Y-1256D01*
X30217Y-1275D01*
X30216Y-1297D01*
X30213Y-1326D01*
Y-1342D01*
Y-1359D01*
Y-1537D01*
X30481D01*
Y-1345D01*
Y-1344D01*
Y-1341D01*
Y-1337D01*
Y-1332D01*
Y-1318D01*
X30480Y-1301D01*
X30479Y-1283D01*
X30478Y-1265D01*
X30475Y-1247D01*
X30472Y-1233D01*
X30471Y-1230D01*
X30470Y-1225D01*
X30466Y-1217D01*
X30461Y-1207D01*
X30456Y-1197D01*
X30448Y-1185D01*
X30438Y-1173D01*
X30427Y-1164D01*
X30426Y-1163D01*
X30422Y-1161D01*
X30414Y-1157D01*
X30405Y-1153D01*
X30395Y-1149D01*
X30382Y-1145D01*
X30367Y-1142D01*
X30350Y-1141D01*
D02*
G37*
G36*
X30352Y-225D02*
X30350D01*
X30342Y-227D01*
X30331Y-228D01*
X30315Y-230D01*
X30299Y-237D01*
X30281Y-245D01*
X30265Y-256D01*
X30248Y-272D01*
X30247Y-274D01*
X30242Y-281D01*
X30235Y-291D01*
X30227Y-308D01*
X30220Y-327D01*
X30213Y-353D01*
X30208Y-383D01*
X30207Y-417D01*
Y-699D01*
X30502D01*
Y-446D01*
Y-445D01*
Y-442D01*
Y-438D01*
Y-433D01*
X30501Y-417D01*
X30500Y-399D01*
X30498Y-379D01*
X30496Y-358D01*
X30492Y-337D01*
X30487Y-319D01*
X30485Y-317D01*
X30483Y-312D01*
X30479Y-304D01*
X30474Y-294D01*
X30466Y-282D01*
X30457Y-270D01*
X30445Y-259D01*
X30432Y-250D01*
X30431Y-248D01*
X30426Y-246D01*
X30418Y-242D01*
X30408Y-237D01*
X30396Y-233D01*
X30383Y-229D01*
X30368Y-227D01*
X30352Y-225D01*
D02*
G37*
G36*
X32152Y2136D02*
Y2135D01*
X32154Y2134D01*
X32155Y2129D01*
X32156Y2124D01*
X32159Y2117D01*
X32162Y2109D01*
X32165Y2099D01*
X32167Y2088D01*
X32172Y2076D01*
X32174Y2060D01*
X32179Y2045D01*
X32183Y2027D01*
X32187Y2008D01*
X32191Y1989D01*
X32194Y1967D01*
X32198Y1943D01*
Y1942D01*
Y1940D01*
X32199Y1932D01*
X32202Y1918D01*
X32205Y1903D01*
X32207Y1887D01*
X32212Y1870D01*
X32216Y1855D01*
X32221Y1841D01*
Y1840D01*
X32224Y1836D01*
X32227Y1830D01*
X32231Y1825D01*
X32242Y1808D01*
X32258Y1794D01*
X32260D01*
X32263Y1791D01*
X32268Y1790D01*
X32275Y1787D01*
X32283Y1784D01*
X32292Y1782D01*
X32303Y1780D01*
X32314Y1779D01*
X32322D01*
X32330Y1780D01*
X32341Y1783D01*
X32354Y1787D01*
X32366Y1794D01*
X32380Y1802D01*
X32392Y1813D01*
X32394Y1815D01*
X32397Y1820D01*
X32402Y1829D01*
X32408Y1840D01*
X32413Y1855D01*
X32419Y1873D01*
X32421Y1894D01*
X32423Y1918D01*
Y1920D01*
Y1921D01*
Y1929D01*
X32421Y1943D01*
X32419Y1958D01*
X32416Y1978D01*
X32410Y1997D01*
X32403Y2018D01*
X32394Y2038D01*
X32392Y2041D01*
X32388Y2047D01*
X32381Y2056D01*
X32372Y2067D01*
X32361Y2080D01*
X32347Y2094D01*
X32330Y2105D01*
X32312Y2116D01*
X32311Y2117D01*
X32305Y2118D01*
X32296Y2121D01*
X32283Y2125D01*
X32267Y2129D01*
X32247Y2132D01*
X32224Y2134D01*
X32196Y2135D01*
X32152Y2136D01*
D02*
G37*
G36*
X30718Y8624D02*
X30709D01*
X30702Y8623D01*
X30694D01*
X30685Y8622D01*
X30665Y8618D01*
X30641Y8613D01*
X30617Y8603D01*
X30594Y8591D01*
X30572Y8574D01*
X30569Y8571D01*
X30563Y8565D01*
X30555Y8555D01*
X30545Y8540D01*
X30534Y8522D01*
X30527Y8502D01*
X30520Y8477D01*
X30518Y8450D01*
Y8449D01*
Y8446D01*
Y8442D01*
X30519Y8437D01*
X30520Y8424D01*
X30524Y8406D01*
X30530Y8387D01*
X30541Y8365D01*
X30554Y8344D01*
X30572Y8324D01*
X30574Y8321D01*
X30581Y8316D01*
X30592Y8307D01*
X30609Y8298D01*
X30628Y8289D01*
X30653Y8280D01*
X30680Y8275D01*
X30711Y8272D01*
X30720D01*
X30732Y8273D01*
X30746Y8275D01*
X30763Y8277D01*
X30781Y8282D01*
X30800Y8287D01*
X30819Y8295D01*
X30822Y8297D01*
X30828Y8300D01*
X30838Y8306D01*
X30849Y8313D01*
X30861Y8322D01*
X30875Y8334D01*
X30887Y8347D01*
X30898Y8362D01*
X30899Y8365D01*
X30902Y8370D01*
X30907Y8379D01*
X30911Y8391D01*
X30916Y8404D01*
X30921Y8419D01*
X30924Y8436D01*
X30925Y8454D01*
Y8455D01*
Y8456D01*
Y8460D01*
X30924Y8466D01*
X30923Y8478D01*
X30919Y8495D01*
X30911Y8513D01*
X30902Y8534D01*
X30888Y8555D01*
X30880Y8565D01*
X30870Y8574D01*
X30868D01*
X30867Y8576D01*
X30859Y8582D01*
X30847Y8589D01*
X30830Y8600D01*
X30808Y8609D01*
X30782Y8617D01*
X30752Y8622D01*
X30718Y8624D01*
D02*
G37*
G36*
X32024Y5284D02*
X32005D01*
X31995Y5283D01*
X31982D01*
X31970Y5281D01*
X31955Y5278D01*
X31923Y5274D01*
X31890Y5267D01*
X31854Y5258D01*
X31821Y5244D01*
X31820D01*
X31817Y5242D01*
X31813Y5240D01*
X31807Y5237D01*
X31791Y5227D01*
X31771Y5215D01*
X31749Y5198D01*
X31727Y5178D01*
X31705Y5154D01*
X31686Y5128D01*
Y5127D01*
X31683Y5125D01*
X31682Y5121D01*
X31677Y5114D01*
X31675Y5107D01*
X31671Y5099D01*
X31661Y5078D01*
X31653Y5053D01*
X31644Y5024D01*
X31639Y4991D01*
X31637Y4957D01*
Y4955D01*
Y4951D01*
Y4944D01*
X31639Y4935D01*
X31640Y4922D01*
X31643Y4910D01*
X31646Y4895D01*
X31648Y4878D01*
X31660Y4842D01*
X31668Y4823D01*
X31676Y4804D01*
X31687Y4783D01*
X31700Y4764D01*
X31713Y4744D01*
X31730Y4726D01*
X31731Y4725D01*
X31734Y4722D01*
X31740Y4718D01*
X31748Y4711D01*
X31758Y4704D01*
X31770Y4696D01*
X31785Y4688D01*
X31803Y4678D01*
X31822Y4670D01*
X31846Y4660D01*
X31871Y4652D01*
X31898Y4645D01*
X31929Y4638D01*
X31963Y4634D01*
X31999Y4631D01*
X32038Y4630D01*
X32054D01*
X32067Y4631D01*
X32081Y4632D01*
X32097Y4635D01*
X32116Y4638D01*
X32136Y4641D01*
X32180Y4652D01*
X32202Y4660D01*
X32225Y4668D01*
X32247Y4679D01*
X32269Y4692D01*
X32290Y4706D01*
X32310Y4722D01*
X32311Y4724D01*
X32314Y4726D01*
X32319Y4732D01*
X32325Y4739D01*
X32333Y4748D01*
X32341Y4759D01*
X32350Y4772D01*
X32359Y4786D01*
X32369Y4802D01*
X32377Y4820D01*
X32386Y4840D01*
X32394Y4860D01*
X32399Y4882D01*
X32405Y4904D01*
X32408Y4929D01*
X32409Y4955D01*
Y4957D01*
Y4962D01*
X32408Y4969D01*
Y4979D01*
X32406Y4991D01*
X32403Y5005D01*
X32401Y5022D01*
X32397Y5038D01*
X32391Y5057D01*
X32384Y5076D01*
X32377Y5096D01*
X32368Y5116D01*
X32355Y5135D01*
X32343Y5154D01*
X32327Y5173D01*
X32310Y5191D01*
X32308Y5193D01*
X32305Y5195D01*
X32298Y5200D01*
X32290Y5207D01*
X32281Y5213D01*
X32268Y5220D01*
X32253Y5229D01*
X32236Y5238D01*
X32217Y5247D01*
X32195Y5255D01*
X32172Y5262D01*
X32147Y5270D01*
X32119Y5276D01*
X32089Y5280D01*
X32057Y5283D01*
X32024Y5284D01*
D02*
G37*
G36*
X30600Y7234D02*
X30540D01*
X30524Y7232D01*
X30507D01*
X30487Y7231D01*
X30465Y7230D01*
X30440Y7227D01*
X30391Y7221D01*
X30367Y7217D01*
X30343Y7212D01*
X30321Y7207D01*
X30301Y7199D01*
X30283Y7191D01*
X30267Y7182D01*
X30266D01*
X30265Y7179D01*
X30261Y7177D01*
X30256Y7173D01*
X30244Y7161D01*
X30230Y7147D01*
X30217Y7128D01*
X30205Y7106D01*
X30200Y7094D01*
X30196Y7081D01*
X30195Y7067D01*
X30194Y7053D01*
Y7052D01*
Y7049D01*
Y7045D01*
X30195Y7040D01*
X30198Y7026D01*
X30202Y7009D01*
X30209Y6990D01*
X30221Y6969D01*
X30229Y6959D01*
X30236Y6949D01*
X30247Y6939D01*
X30258Y6930D01*
X30259D01*
X30262Y6928D01*
X30267Y6925D01*
X30274Y6921D01*
X30284Y6917D01*
X30296Y6912D01*
X30310Y6909D01*
X30327Y6903D01*
X30346Y6898D01*
X30368Y6893D01*
X30392Y6888D01*
X30419Y6884D01*
X30450Y6880D01*
X30484Y6877D01*
X30520Y6876D01*
X30560Y6875D01*
X30581D01*
X30596Y6876D01*
X30613D01*
X30634Y6877D01*
X30656Y6879D01*
X30679Y6881D01*
X30729Y6888D01*
X30754Y6892D01*
X30777Y6897D01*
X30799Y6902D01*
X30819Y6910D01*
X30838Y6917D01*
X30853Y6927D01*
X30854D01*
X30856Y6929D01*
X30865Y6936D01*
X30876Y6947D01*
X30889Y6961D01*
X30902Y6981D01*
X30914Y7003D01*
X30923Y7027D01*
X30924Y7040D01*
X30925Y7054D01*
Y7056D01*
Y7058D01*
Y7062D01*
X30924Y7067D01*
X30921Y7080D01*
X30916Y7098D01*
X30907Y7118D01*
X30894Y7139D01*
X30887Y7150D01*
X30876Y7160D01*
X30866Y7170D01*
X30853Y7181D01*
X30852D01*
X30849Y7183D01*
X30845Y7186D01*
X30839Y7188D01*
X30830Y7194D01*
X30818Y7198D01*
X30805Y7203D01*
X30790Y7208D01*
X30770Y7212D01*
X30750Y7217D01*
X30725Y7222D01*
X30699Y7226D01*
X30669Y7228D01*
X30636Y7231D01*
X30600Y7234D01*
D02*
G37*
G36*
X30371Y12641D02*
X30362D01*
X30350Y12640D01*
X30337Y12637D01*
X30323Y12635D01*
X30306Y12630D01*
X30290Y12622D01*
X30275Y12613D01*
X30274Y12612D01*
X30269Y12608D01*
X30262Y12601D01*
X30253Y12594D01*
X30244Y12582D01*
X30236Y12569D01*
X30229Y12555D01*
X30222Y12538D01*
Y12537D01*
X30221Y12532D01*
X30220Y12524D01*
X30217Y12514D01*
X30216Y12498D01*
X30214Y12479D01*
X30213Y12455D01*
Y12427D01*
Y12200D01*
X30532D01*
Y12430D01*
Y12431D01*
Y12435D01*
Y12440D01*
X30530Y12449D01*
Y12458D01*
X30529Y12468D01*
X30527Y12493D01*
X30521Y12520D01*
X30514Y12547D01*
X30503Y12572D01*
X30497Y12583D01*
X30489Y12592D01*
X30487Y12595D01*
X30481Y12600D01*
X30471Y12608D01*
X30458Y12617D01*
X30441Y12626D01*
X30421Y12633D01*
X30398Y12639D01*
X30371Y12641D01*
D02*
G37*
G36*
X30718Y10012D02*
X30709D01*
X30702Y10011D01*
X30694D01*
X30685Y10010D01*
X30665Y10006D01*
X30641Y10001D01*
X30617Y9992D01*
X30594Y9979D01*
X30572Y9962D01*
X30569Y9959D01*
X30563Y9953D01*
X30555Y9943D01*
X30545Y9928D01*
X30534Y9910D01*
X30527Y9890D01*
X30520Y9865D01*
X30518Y9838D01*
Y9837D01*
Y9834D01*
Y9830D01*
X30519Y9825D01*
X30520Y9812D01*
X30524Y9794D01*
X30530Y9775D01*
X30541Y9753D01*
X30554Y9732D01*
X30572Y9712D01*
X30574Y9709D01*
X30581Y9704D01*
X30592Y9695D01*
X30609Y9686D01*
X30628Y9677D01*
X30653Y9668D01*
X30680Y9663D01*
X30711Y9660D01*
X30720D01*
X30732Y9661D01*
X30746Y9663D01*
X30763Y9665D01*
X30781Y9670D01*
X30800Y9675D01*
X30819Y9683D01*
X30822Y9685D01*
X30828Y9688D01*
X30838Y9694D01*
X30849Y9701D01*
X30861Y9710D01*
X30875Y9722D01*
X30887Y9735D01*
X30898Y9750D01*
X30899Y9753D01*
X30902Y9758D01*
X30907Y9767D01*
X30911Y9779D01*
X30916Y9792D01*
X30921Y9807D01*
X30924Y9824D01*
X30925Y9842D01*
Y9843D01*
Y9844D01*
Y9848D01*
X30924Y9854D01*
X30923Y9866D01*
X30919Y9883D01*
X30911Y9901D01*
X30902Y9922D01*
X30888Y9943D01*
X30880Y9953D01*
X30870Y9962D01*
X30868D01*
X30867Y9965D01*
X30859Y9970D01*
X30847Y9977D01*
X30830Y9988D01*
X30808Y9997D01*
X30782Y10005D01*
X30752Y10010D01*
X30718Y10012D01*
D02*
G37*
G36*
X30600Y9316D02*
X30540D01*
X30524Y9314D01*
X30507D01*
X30487Y9313D01*
X30465Y9312D01*
X30440Y9309D01*
X30391Y9303D01*
X30367Y9299D01*
X30343Y9294D01*
X30321Y9289D01*
X30301Y9281D01*
X30283Y9273D01*
X30267Y9264D01*
X30266D01*
X30265Y9262D01*
X30261Y9259D01*
X30256Y9255D01*
X30244Y9243D01*
X30230Y9229D01*
X30217Y9210D01*
X30205Y9188D01*
X30200Y9176D01*
X30196Y9163D01*
X30195Y9149D01*
X30194Y9135D01*
Y9134D01*
Y9131D01*
Y9127D01*
X30195Y9122D01*
X30198Y9108D01*
X30202Y9091D01*
X30209Y9072D01*
X30221Y9051D01*
X30229Y9041D01*
X30236Y9031D01*
X30247Y9021D01*
X30258Y9013D01*
X30259D01*
X30262Y9010D01*
X30267Y9007D01*
X30274Y9003D01*
X30284Y9000D01*
X30296Y8994D01*
X30310Y8991D01*
X30327Y8985D01*
X30346Y8980D01*
X30368Y8975D01*
X30392Y8970D01*
X30419Y8966D01*
X30450Y8962D01*
X30484Y8960D01*
X30520Y8958D01*
X30560Y8957D01*
X30581D01*
X30596Y8958D01*
X30613D01*
X30634Y8960D01*
X30656Y8961D01*
X30679Y8963D01*
X30729Y8970D01*
X30754Y8974D01*
X30777Y8979D01*
X30799Y8984D01*
X30819Y8992D01*
X30838Y9000D01*
X30853Y9009D01*
X30854D01*
X30856Y9011D01*
X30865Y9018D01*
X30876Y9029D01*
X30889Y9043D01*
X30902Y9063D01*
X30914Y9085D01*
X30923Y9109D01*
X30924Y9122D01*
X30925Y9136D01*
Y9138D01*
Y9140D01*
Y9144D01*
X30924Y9149D01*
X30921Y9162D01*
X30916Y9180D01*
X30907Y9200D01*
X30894Y9222D01*
X30887Y9232D01*
X30876Y9242D01*
X30866Y9252D01*
X30853Y9263D01*
X30852D01*
X30849Y9265D01*
X30845Y9268D01*
X30839Y9270D01*
X30830Y9276D01*
X30818Y9279D01*
X30805Y9285D01*
X30790Y9290D01*
X30770Y9294D01*
X30750Y9299D01*
X30725Y9304D01*
X30699Y9308D01*
X30669Y9311D01*
X30636Y9313D01*
X30600Y9316D01*
D02*
G37*
G36*
X32087Y-1243D02*
X32083D01*
X32079Y-1245D01*
X32074D01*
X32057Y-1247D01*
X32039Y-1252D01*
X32017Y-1258D01*
X31996Y-1265D01*
X31976Y-1276D01*
X31958Y-1289D01*
X31956D01*
X31955Y-1292D01*
X31947Y-1299D01*
X31936Y-1311D01*
X31923Y-1327D01*
X31911Y-1348D01*
X31900Y-1373D01*
X31891Y-1402D01*
X31890Y-1417D01*
X31889Y-1434D01*
Y-1435D01*
Y-1438D01*
Y-1442D01*
X31890Y-1448D01*
X31891Y-1463D01*
X31896Y-1481D01*
X31903Y-1503D01*
X31912Y-1526D01*
X31926Y-1548D01*
X31944Y-1570D01*
X31947Y-1573D01*
X31953Y-1579D01*
X31966Y-1588D01*
X31982Y-1598D01*
X32002Y-1609D01*
X32027Y-1619D01*
X32056Y-1627D01*
X32087Y-1631D01*
Y-1243D01*
D02*
G37*
G36*
X30718Y3907D02*
X30709D01*
X30702Y3905D01*
X30694D01*
X30685Y3904D01*
X30665Y3900D01*
X30641Y3895D01*
X30617Y3886D01*
X30594Y3873D01*
X30572Y3856D01*
X30569Y3854D01*
X30563Y3847D01*
X30555Y3837D01*
X30545Y3823D01*
X30534Y3805D01*
X30527Y3784D01*
X30520Y3760D01*
X30518Y3732D01*
Y3731D01*
Y3729D01*
Y3725D01*
X30519Y3720D01*
X30520Y3707D01*
X30524Y3689D01*
X30530Y3669D01*
X30541Y3647D01*
X30554Y3627D01*
X30572Y3606D01*
X30574Y3604D01*
X30581Y3598D01*
X30592Y3589D01*
X30609Y3580D01*
X30628Y3571D01*
X30653Y3562D01*
X30680Y3557D01*
X30711Y3554D01*
X30720D01*
X30732Y3556D01*
X30746Y3557D01*
X30763Y3560D01*
X30781Y3565D01*
X30800Y3570D01*
X30819Y3578D01*
X30822Y3579D01*
X30828Y3583D01*
X30838Y3588D01*
X30849Y3596D01*
X30861Y3605D01*
X30875Y3616D01*
X30887Y3629D01*
X30898Y3645D01*
X30899Y3647D01*
X30902Y3652D01*
X30907Y3662D01*
X30911Y3673D01*
X30916Y3686D01*
X30921Y3702D01*
X30924Y3718D01*
X30925Y3736D01*
Y3738D01*
Y3739D01*
Y3743D01*
X30924Y3748D01*
X30923Y3761D01*
X30919Y3778D01*
X30911Y3796D01*
X30902Y3816D01*
X30888Y3837D01*
X30880Y3847D01*
X30870Y3856D01*
X30868D01*
X30867Y3859D01*
X30859Y3864D01*
X30847Y3872D01*
X30830Y3882D01*
X30808Y3891D01*
X30782Y3899D01*
X30752Y3904D01*
X30718Y3907D01*
D02*
G37*
G36*
X32152Y-533D02*
Y-534D01*
X32154Y-535D01*
X32155Y-539D01*
X32156Y-545D01*
X32159Y-552D01*
X32162Y-560D01*
X32165Y-570D01*
X32167Y-581D01*
X32172Y-593D01*
X32174Y-609D01*
X32179Y-624D01*
X32183Y-642D01*
X32187Y-661D01*
X32191Y-680D01*
X32194Y-702D01*
X32198Y-726D01*
Y-727D01*
Y-728D01*
X32199Y-737D01*
X32202Y-751D01*
X32205Y-766D01*
X32207Y-782D01*
X32212Y-799D01*
X32216Y-814D01*
X32221Y-828D01*
Y-829D01*
X32224Y-833D01*
X32227Y-839D01*
X32231Y-844D01*
X32242Y-861D01*
X32258Y-875D01*
X32260D01*
X32263Y-878D01*
X32268Y-879D01*
X32275Y-882D01*
X32283Y-884D01*
X32292Y-887D01*
X32303Y-889D01*
X32314Y-890D01*
X32322D01*
X32330Y-889D01*
X32341Y-886D01*
X32354Y-882D01*
X32366Y-875D01*
X32380Y-867D01*
X32392Y-855D01*
X32394Y-854D01*
X32397Y-849D01*
X32402Y-840D01*
X32408Y-829D01*
X32413Y-814D01*
X32419Y-796D01*
X32421Y-775D01*
X32423Y-751D01*
Y-749D01*
Y-748D01*
Y-740D01*
X32421Y-726D01*
X32419Y-711D01*
X32416Y-691D01*
X32410Y-672D01*
X32403Y-651D01*
X32394Y-630D01*
X32392Y-628D01*
X32388Y-622D01*
X32381Y-613D01*
X32372Y-602D01*
X32361Y-589D01*
X32347Y-575D01*
X32330Y-564D01*
X32312Y-553D01*
X32311Y-552D01*
X32305Y-550D01*
X32296Y-548D01*
X32283Y-544D01*
X32267Y-539D01*
X32247Y-537D01*
X32224Y-535D01*
X32196Y-534D01*
X32152Y-533D01*
D02*
G37*
G36*
X32198Y6035D02*
X32188D01*
X32181Y6033D01*
X32173D01*
X32163Y6032D01*
X32141Y6028D01*
X32116Y6022D01*
X32090Y6013D01*
X32065Y5999D01*
X32042Y5981D01*
X32039Y5978D01*
X32032Y5971D01*
X32024Y5960D01*
X32013Y5945D01*
X32002Y5926D01*
X31993Y5903D01*
X31987Y5877D01*
X31984Y5848D01*
Y5847D01*
Y5844D01*
Y5840D01*
X31985Y5835D01*
X31987Y5821D01*
X31991Y5801D01*
X31998Y5781D01*
X32009Y5757D01*
X32023Y5735D01*
X32042Y5713D01*
X32045Y5710D01*
X32052Y5705D01*
X32064Y5695D01*
X32082Y5685D01*
X32103Y5676D01*
X32129Y5666D01*
X32158Y5661D01*
X32191Y5658D01*
X32201D01*
X32213Y5659D01*
X32228Y5661D01*
X32246Y5663D01*
X32265Y5669D01*
X32286Y5674D01*
X32307Y5683D01*
X32310Y5684D01*
X32316Y5688D01*
X32326Y5694D01*
X32339Y5702D01*
X32351Y5712D01*
X32366Y5724D01*
X32379Y5738D01*
X32391Y5754D01*
X32392Y5757D01*
X32395Y5763D01*
X32401Y5772D01*
X32405Y5785D01*
X32410Y5799D01*
X32416Y5815D01*
X32419Y5833D01*
X32420Y5852D01*
Y5854D01*
Y5855D01*
Y5859D01*
X32419Y5865D01*
X32417Y5879D01*
X32413Y5897D01*
X32405Y5916D01*
X32395Y5938D01*
X32380Y5960D01*
X32372Y5971D01*
X32361Y5981D01*
X32359D01*
X32358Y5984D01*
X32350Y5989D01*
X32336Y5997D01*
X32318Y6008D01*
X32294Y6018D01*
X32267Y6026D01*
X32235Y6032D01*
X32198Y6035D01*
D02*
G37*
G36*
X30632Y5327D02*
X30387Y5234D01*
X30386D01*
X30382Y5233D01*
X30376Y5230D01*
X30368Y5228D01*
X30359Y5224D01*
X30347Y5220D01*
X30334Y5216D01*
X30321Y5211D01*
X30292Y5201D01*
X30261Y5190D01*
X30230Y5180D01*
X30200Y5171D01*
X30202D01*
X30204Y5170D01*
X30209D01*
X30214Y5167D01*
X30223Y5166D01*
X30233Y5163D01*
X30254Y5158D01*
X30280Y5152D01*
X30309Y5142D01*
X30340Y5133D01*
X30372Y5122D01*
X30632Y5025D01*
Y5327D01*
D02*
G37*
G36*
X30600Y4598D02*
X30540D01*
X30524Y4597D01*
X30507D01*
X30487Y4595D01*
X30465Y4594D01*
X30440Y4592D01*
X30391Y4585D01*
X30367Y4581D01*
X30343Y4576D01*
X30321Y4571D01*
X30301Y4563D01*
X30283Y4555D01*
X30267Y4546D01*
X30266D01*
X30265Y4544D01*
X30261Y4541D01*
X30256Y4538D01*
X30244Y4526D01*
X30230Y4512D01*
X30217Y4492D01*
X30205Y4470D01*
X30200Y4459D01*
X30196Y4446D01*
X30195Y4432D01*
X30194Y4417D01*
Y4416D01*
Y4414D01*
Y4410D01*
X30195Y4405D01*
X30198Y4390D01*
X30202Y4374D01*
X30209Y4354D01*
X30221Y4334D01*
X30229Y4323D01*
X30236Y4313D01*
X30247Y4304D01*
X30258Y4295D01*
X30259D01*
X30262Y4292D01*
X30267Y4290D01*
X30274Y4286D01*
X30284Y4282D01*
X30296Y4277D01*
X30310Y4273D01*
X30327Y4268D01*
X30346Y4263D01*
X30368Y4258D01*
X30392Y4252D01*
X30419Y4248D01*
X30450Y4245D01*
X30484Y4242D01*
X30520Y4241D01*
X30560Y4239D01*
X30581D01*
X30596Y4241D01*
X30613D01*
X30634Y4242D01*
X30656Y4243D01*
X30679Y4246D01*
X30729Y4252D01*
X30754Y4256D01*
X30777Y4261D01*
X30799Y4267D01*
X30819Y4274D01*
X30838Y4282D01*
X30853Y4291D01*
X30854D01*
X30856Y4294D01*
X30865Y4300D01*
X30876Y4312D01*
X30889Y4326D01*
X30902Y4345D01*
X30914Y4367D01*
X30923Y4392D01*
X30924Y4405D01*
X30925Y4419D01*
Y4420D01*
Y4423D01*
Y4426D01*
X30924Y4432D01*
X30921Y4445D01*
X30916Y4463D01*
X30907Y4482D01*
X30894Y4504D01*
X30887Y4514D01*
X30876Y4525D01*
X30866Y4535D01*
X30853Y4545D01*
X30852D01*
X30849Y4548D01*
X30845Y4550D01*
X30839Y4553D01*
X30830Y4558D01*
X30818Y4562D01*
X30805Y4567D01*
X30790Y4572D01*
X30770Y4576D01*
X30750Y4581D01*
X30725Y4586D01*
X30699Y4590D01*
X30669Y4593D01*
X30636Y4595D01*
X30600Y4598D01*
D02*
G37*
%LPD*%
D18*
X57733Y7618D02*
G03*
X57733Y7618I-394J0D01*
G01*
D19*
X27953Y-1181D02*
Y10630D01*
X28768Y11083D02*
X28768Y-1181D01*
X56311Y224D02*
Y9224D01*
X49311Y224D02*
X56311D01*
X49311D02*
Y9224D01*
X56311D01*
X46906Y-3682D02*
Y13247D01*
X43756Y-3682D02*
Y13247D01*
X42941Y-3682D02*
Y13247D01*
X5512Y-1181D02*
Y10630D01*
X11811Y-1181D02*
Y10630D01*
D20*
X54649Y-3484D02*
Y-184D01*
X47348Y-3484D02*
Y-184D01*
X52323Y-3484D02*
X54649D01*
X52323Y-184D02*
X54649D01*
X47398D02*
X49724D01*
X47348Y-3484D02*
X49674D01*
X47249Y9716D02*
Y13016D01*
X54549Y9716D02*
Y13016D01*
X47249D02*
X49574D01*
X47249Y9716D02*
X49574D01*
X52173D02*
X54498D01*
X52223Y13016D02*
X54549D01*
M02*
