M48
;Layer_Color=9474304
;FILE_FORMAT=2:5
INCH,LZ
;TYPE=PLATED
T1F00S00C0.00787
T2F00S00C0.00800
T3F00S00C0.01000
T4F00S00C0.01200
T5F00S00C0.01299
T6F00S00C0.01300
T7F00S00C0.01800
T8F00S00C0.02756
T9F00S00C0.02913
T10F00S00C0.07087
T11F00S00C0.07874
T12F00S00C0.09000
%
T01
X0299126Y-0147303
Y-0142972
X0303457
X0307787
Y-0147303
X0303457
Y-0138642
X0307787
X0299126
T02
X0278Y-0171315
X02845Y-0168815
X0284Y-0150815
X0278Y-0156815
X0293299Y-0154815
X0290748Y-0144067
X0289457Y-0132815
X0294457Y-0128559
X0298957Y-0126972
X0301457
X0303957
X0306457
X0308457Y-0128472
X0310457Y-0129972
X0316957Y-0131858
X0318Y-0125315
X03115Y-0121315
X0295988Y-0112803
X0292957Y-0113472
X0325425Y-014424
X0325311Y-0149004
X0339Y-0152315
X0321425Y-016374
X0315Y-0163315
X0316457Y-0174772
X03065Y-0175815
X02965Y-0175315
X02705Y-0172315
X0269Y-0168315
X02625Y-0175815
X0259Y-0161315
X02565Y-0162315
X02545Y-0164815
X0252637Y-0163663
X0250637Y-0164452
X0245Y-0164815
X02365Y-0165315
X0233037Y-0165063
X0230837Y-0162663
X0226737Y-0162763
X0228837Y-0165463
X0225Y-0159315
X02375Y-0160315
X0233037Y-0151763
X0230837Y-0148663
X0228837Y-0146863
X0229Y-0143315
X0226837Y-0144963
X0233Y-0146315
X02415Y-0147815
X0241Y-0134815
X02425Y-0121815
Y-0120315
X02445
X02565Y-0117266
X02695Y-0112068
X0275Y-0143315
X02715Y-0147815
X02589Y-0142715
X0250637Y-0155363
X0252737Y-0157663
X0254537Y-0159563
X0239Y-0179315
X02085Y-0163815
X02055Y-0160815
X02105Y-0159764
X0209Y-0153315
X0201437Y-0153463
X0201737Y-0156163
X0199837Y-0151963
X0198537Y-0150363
X0196637Y-0148763
X0194837Y-0147263
X0193252Y-0144063
X0192Y-0142315
X01905Y-0140815
X01885Y-0139315
X0187Y-0137815
X01855Y-0136315
X01845Y-0134315
X0185Y-0125815
Y-0123815
X01665Y-0124315
X0164Y-0121315
X01505Y-0136815
X0145037Y-0159615
X0142
X014
X0138
X01313
X0129237Y-0161815
X0127737Y-0160315
X0126137Y-0161815
X01245Y-0160315
X0123Y-0161815
X01215Y-0160315
X0128Y-0173315
X01325Y-0174315
X0137
X014817Y-0176272
X0149745Y-0174872
X015132Y-0173472
X0151437Y-0178763
X0154437Y-0180463
X0161Y-0178515
X0163
X01655
X0168
X01785Y-0174815
X0171Y-0161815
X0168637
X0165537
X0162337
X0160737Y-0159615
X0163937
X0167037
X0185Y-0158689
Y-0156563
Y-0160815
X0185037Y-0145663
X0189037
X01965Y-0135315
X0207Y-0136815
Y-0139315
X021Y-0142815
X02085Y-0144815
X0146637Y-0161815
X0143437
X0157619Y-0173472
X012Y-0118815
X01115Y-0136315
Y-0139315
X01055Y-0140815
X01035Y-0137315
X0101Y-0149815
X01015Y-0159315
X0100937Y-0163563
X0107437Y-0162063
X0109937
X00855Y-0147815
X0082Y-0148315
X00892Y-0143682
X00775Y-0121815
X0048737Y-0153363
X0056245Y-0094147
X0058453Y-00919
X0060699Y-0089692
X0062927Y-0087466
X0065153Y-0085238
X0066037Y-0079331
X0074062Y-0076329
X0076459Y-0074253
X0078516Y-0071876
X0080727Y-0069631
X008297Y-0067422
X0085198Y-0065194
X0087424Y-0062967
X0089566Y-0060654
X0088001Y-0057169
X0074759Y-0061453
X0077191Y-0064008
X0072595Y-0068353
X0068959Y-0066853
X0062018Y-0071553
X0057297Y-0071315
X0057701Y-0073479
X0057039Y-0061533
X0054917Y-0059412
X0054712Y-006385
X0050447Y-0067842
X0042543Y-0067081
X0044664Y-0064749
X0040318Y-0069311
X0038237Y-0071663
X0035825Y-0073728
X0031359Y-0069554
X0028259Y-0072553
X0025359Y-0075554
X0022559Y-0078853
X0021959Y-0081753
X0014459Y-0076753
X0014959Y-0071254
X0017959Y-0068253
X0020959Y-0065254
X0023959Y-0062253
X0035459
X0032359Y-0058553
X0035759Y-0055353
X0038759Y-0052354
X0041697Y-0046091
X0044647Y-0043042
X0053859Y-0042254
X0053659Y-0038554
X0056659Y-0035653
X0059559Y-0032653
X0062659Y-0029653
X0062559Y-0023553
X00675Y-0008315
Y-0006315
X0068232Y-0041886
X0071359Y-0039353
X007241Y-0046016
X0074737Y-0048232
X0068463Y-0050287
X0065837Y-0052863
X0062587Y-0047038
X006421Y-0045131
X0060255Y-004916
X0058099Y-0051459
X0055941Y-0053755
X0052459Y-0055753
X0050259Y-0035754
X0101159Y-0078853
X0112637Y-0070563
X0118Y-0066815
X0110737Y-0098563
X0077537Y-0104863
X01395Y-0095315
X01465Y-0078315
X01485Y-0076815
Y-0071315
X01465Y-0070315
X0163Y-0071315
X0166Y-0062815
X01675Y-0061315
X01695Y-0060815
X0168237Y-0057063
X0172637Y-0050863
X0171Y-0048815
Y-0046163
X0174837Y-0044478
X0174637Y-0042163
X0173437Y-0040263
X0171Y-0039063
X0176537Y-0036763
X0174937Y-0034363
X0174113Y-0029409
X0176277Y-0028814
X0171526Y-0029815
X01635Y-0033315
X0164237Y-0043863
X0159537Y-0049763
X0153646Y-0046141
X0153655Y-0054558
X0153659Y-0058754
X01555Y-0060815
X0173Y-0063815
X0175
X0181588Y-0064314
X0183037Y-0054463
X01835Y-0047315
X0183Y-0044315
X01825Y-0041815
X0184Y-0037315
X0187Y-0035815
X0182437Y-0033815
X01835Y-0031815
X0182437Y-0028463
X0186512Y-0025175
X01825Y-0018315
X01835Y-0014315
Y-0008663
Y-0004815
X0176
Y-0007315
X01725Y-0008815
X0171Y-0010815
Y-0012815
Y-0015472
Y-0017815
X0161537Y-0016363
X0154Y-0014815
X0153Y-0007315
Y-0004963
X01545Y-0002815
X0157137Y-0001763
X0160137Y-0002363
X0158Y-0025315
X01465Y-0026815
X01455Y-0018315
X01325Y-0015315
X0145Y-0036815
X0198337Y-0029463
X0197237Y-0027563
X02Y-0025315
X0202837Y-0025211
X02025Y-0027815
X0203437Y-0039663
X0202437Y-0041663
X0201637Y-0043663
X0200737Y-0045663
X0212Y-0051815
X0217Y-0049815
X0229Y-0048815
X0232Y-0053315
X0234
X0236
X02365Y-0047315
X0241Y-0048315
X02425Y-0048815
X02435Y-0047815
X0242Y-0045315
X02395Y-0042315
X0239663Y-0032374
X0238117Y-0032517
X0239Y-0030815
X02385Y-0027815
X0239Y-0022815
X0238Y-0011815
X0242Y-00085
Y-00065
X02485Y-0016315
X025
X0252Y-0015815
X0254
X02555Y-0016315
X02635Y-0015476
Y-0013315
Y-0010815
X0267Y-0014815
X0269Y-0018815
X0271Y-0011465
X027Y-0033315
X02725Y-0034315
X02715Y-003651
X0273086Y-0037729
X027Y-0045315
X0256862Y-0048315
X02515Y-0048815
X0247Y-0062315
X02475Y-0068315
X0249
X02505Y-0069315
X026125Y-0058565
X02665Y-0085315
X0269Y-0085815
X0271465Y-008685
X02295Y-0102815
X02245
X0223
X0213Y-0102284
X02135Y-0095315
X0216Y-0089815
X0185Y-0096815
X0183696Y-0103119
X0165Y-0098315
Y-0096315
Y-0094315
Y-0092315
Y-0090315
X0158Y-0089315
X0182Y-0077315
X01885Y-0059815
X02265Y-0061815
X0228213Y-0029315
X02195Y-0017315
X0197Y-0018315
Y-0016163
Y-0014163
Y-0012163
Y-0008815
Y-0006815
X01955Y-0004315
X02275Y0002037
X02895Y-0005815
X0292Y-0004965
X03085Y-0006831
X0313984Y-0007799
X03125Y-0001815
X0314484Y0000169
X03195Y0000185
X0318Y-0003315
X03245Y-0002815
X0335Y-0008815
X0316Y-0013815
X031Y-0014815
X0313Y-0018315
X0311185Y-00205
Y-0030815
X0313Y-0034815
X0308937Y-0034563
X0308Y-0041315
X0297
X029Y-0037815
X02865Y-0036729
X0283414Y-0037643
X0281Y-0040315
Y-0048815
X02835Y-0047315
X02895Y-0056815
X0295Y-0054815
X0297957Y-0057358
X031Y-0065815
X03405Y-0048315
X03425Y-0033815
X0295Y-0021815
T03
X0331957Y-0142972
Y-0139584
Y-0136195
Y-0132806
Y-0129417
Y-0126028
Y-0122639
Y-011925
Y-0115861
Y-0111472
X0335082
X0338207
X0344457
X03435Y-0148315
X0341
X0339Y-0149815
X0336Y-01465
X0165637Y-0112563
X0072437Y-0143963
X00565Y-0140815
X0047
X00375
X00605Y-0155315
X0053359Y-0032754
X0056259Y-0029754
X0059259Y-0026754
X0048437Y-0000563
X0041437Y0000937
X0037437
X0034437
X0018937Y0000437
X013Y-0034815
X0135194Y-0069362
X0159837Y-0071963
X0164Y-0077315
X01665
X0163137Y-0050663
X0183837Y-0024963
X0270737Y-0030963
X0273015Y-00853
X0268937Y-0092263
X0259Y-0101815
X0258937Y-0082763
X0318957Y-0083472
Y-0080472
Y-0077472
Y-0074472
X0321457Y-0072472
X0324582
X0327707
X0330832
X0333957
X0316457Y-0085972
X0318957Y-0089472
Y-0092472
Y-0095972
Y-0099472
X0324957Y-0108472
X0330957
X0333957
X031Y-0108315
T04
X03235Y-0174969
Y-0171142
Y-0167315
X0219184Y-0164091
X0197Y-0124315
X0073Y-0134815
X0058Y-0153815
X00645Y-0181315
X0092
X01015
X0015Y-0141315
X00065Y-0140815
X0004Y-0124815
Y-0121161
Y-0117507
Y-0113853
Y-01102
Y-0106546
Y-0102892
Y-0099238
Y-0095584
X0003Y-0038815
Y-0034982
Y-0031148
Y-0027315
X0017Y-0029815
X00105Y-0008315
X00055Y0000185
X0031284Y-0009031
X00915Y-0009815
X0137Y-0039815
X0227Y-0046315
X0239046Y-0035689
X0295Y-0008815
X02875Y0001685
T05
X028187Y-0104559
Y-0099835
X0286595
Y-0104559
X0291319
Y-0099835
Y-009511
X0296043
Y-0090386
X0291319
X0286595
X028187
Y-009511
X0286595
X0296043Y-0099835
Y-0104559
T06
X0101237Y-0145663
X01015Y-0118815
Y-0104815
X0104859Y-0089463
X0100531Y-0027283
X0153694Y-0042018
X0153913Y-0050507
X0154737Y-0078163
X0135537Y-0089463
X0124537
X0120837Y-0094563
X0165Y-0102315
X01665Y-0104315
X0184737Y-0079463
X0183Y-0060315
T07
X0293Y-0157815
X0309957Y-0156472
X0316957Y-0143972
X0327957Y-0124472
X0305707Y-0112722
X0304457Y-0108972
X0278795Y-0114634
X0283957Y-0130472
X0279Y-0140815
X0334Y-0168815
X0335Y-0174315
X0273957Y-0140472
X0264Y-0125315
X0254707Y-0126722
X0251207Y-0131222
X0234Y-0128315
X0229831Y-0129146
X0225707Y-0111222
X0259Y-0113315
X0268Y-0115315
X02525Y-0151315
X0242783Y-0161531
X0236403Y-0145336
X0165707Y-0129222
X01345Y-0160815
X0067
X0057457Y-0176972
X00535Y-0175815
X0022707Y-0157722
X0022468Y-0133346
X0085207Y-0137722
X0072837Y-0021763
X0081Y-0006815
X0093Y-0003315
X0105Y0000685
X0045437Y-0013063
X0119Y-0007315
X01325Y-0001315
X0137Y-0015315
X01225Y-0026115
X0173Y-0026315
X02135Y-0028315
Y-0015815
X0223Y-0012815
X0231
X0205Y-0010815
X02095Y-0003815
X02125Y-0039815
X02175
X0251Y-0079815
X0261
X0265Y-0077815
X0165207Y-0108722
X0139Y-0106815
X0145531Y-0093846
X0279457Y-0081472
X0285957Y-0070972
X0282Y-0064815
X02865Y-0047815
X0303457Y-0057972
X0305457Y-0081972
X029875Y-0015565
X0328031Y-0009783
X03245Y-0026315
T08
X01235Y-0180315
X01285
X01335
X01385
X01435
X0192037Y-0159763
X0197037
X01185Y-0180315
X01135
X00275Y-0177315
X00225
X00175
X00125
X0268457Y-0106972
Y-0101972
Y-0096972
X0324Y-0064815
X0329
X0334
X0339
X03335Y-0041815
Y-0036815
T09
X0036395Y-0165263
X0046237
X005608
T10
X033937Y-0161024
X0007087
X0007087Y-0019291
X0220472Y-0069291
X033937Y-0019291
T11
X0136359Y-0125953
T12
X02545Y-0031815
M30
