G04 Layer_Color=32768*
%FSLAX25Y25*%
%MOIN*%
G70*
G01*
G75*
%ADD108C,0.00394*%
%ADD184C,0.00197*%
D108*
X253122Y-173858D02*
Y-166772D01*
X255878Y-173858D02*
Y-166772D01*
X253122D02*
X255878D01*
X253122Y-173858D02*
X255878D01*
X254500Y-171398D02*
Y-169232D01*
X253417Y-170315D02*
X255583D01*
X249622Y-173858D02*
Y-166772D01*
X252378Y-173858D02*
Y-166772D01*
X249622D02*
X252378D01*
X249622Y-173858D02*
X252378D01*
X251000Y-171398D02*
Y-169232D01*
X249917Y-170315D02*
X252083D01*
X251811Y-8283D02*
Y-4346D01*
X249843Y-6315D02*
X253780D01*
X84417Y-161815D02*
X86583D01*
X85500Y-162898D02*
Y-160732D01*
X84122Y-165358D02*
X86878D01*
X84122Y-158272D02*
X86878D01*
Y-165358D02*
Y-158272D01*
X84122Y-165358D02*
Y-158272D01*
X131622Y-34858D02*
Y-27772D01*
X134378Y-34858D02*
Y-27772D01*
X131622Y-34858D02*
X134378D01*
X131622Y-27772D02*
X134378D01*
X133000Y-32398D02*
Y-30232D01*
X131917Y-31315D02*
X134083D01*
X119000Y-9972D02*
Y-6035D01*
X117032Y-8004D02*
X120968D01*
X59917Y-7315D02*
X62083D01*
X61000Y-8398D02*
Y-6232D01*
X59622Y-10858D02*
X62378D01*
X59622Y-3772D02*
X62378D01*
Y-10858D02*
Y-3772D01*
X59622Y-10858D02*
Y-3772D01*
X281031Y-19126D02*
X284968D01*
X283000Y-21094D02*
Y-17157D01*
X73000Y-8095D02*
Y-4157D01*
X71031Y-6126D02*
X74968D01*
X242342Y-99315D02*
X246280D01*
X244311Y-101284D02*
Y-97347D01*
X219189Y-130783D02*
Y-126847D01*
X217220Y-128815D02*
X221158D01*
X270500Y-60594D02*
Y-56657D01*
X268531Y-58626D02*
X272468D01*
X83378Y-165358D02*
Y-158272D01*
X80622Y-165358D02*
Y-158272D01*
Y-165358D02*
X83378D01*
X80622Y-158272D02*
X83378D01*
X82000Y-162898D02*
Y-160732D01*
X80917Y-161815D02*
X83083D01*
X245000Y-125398D02*
Y-123232D01*
X243917Y-124315D02*
X246083D01*
X248543Y-125693D02*
Y-122937D01*
X241457Y-125693D02*
Y-122937D01*
X248543D01*
X241457Y-125693D02*
X248543D01*
X245000Y-128898D02*
Y-126732D01*
X243917Y-127815D02*
X246083D01*
X241457Y-129193D02*
Y-126437D01*
X248543Y-129193D02*
Y-126437D01*
X241457Y-129193D02*
X248543D01*
X241457Y-126437D02*
X248543D01*
X282417Y-42315D02*
X284583D01*
X283500Y-43398D02*
Y-41232D01*
X282122Y-45858D02*
X284878D01*
X282122Y-38772D02*
X284878D01*
X282122Y-45858D02*
Y-38772D01*
X284878Y-45858D02*
Y-38772D01*
X287878Y-45858D02*
Y-38772D01*
X285122Y-45858D02*
Y-38772D01*
X287878D01*
X285122Y-45858D02*
X287878D01*
X286500Y-43398D02*
Y-41232D01*
X285417Y-42315D02*
X287583D01*
X250457Y-84555D02*
Y-82390D01*
X249374Y-83472D02*
X251539D01*
X246913Y-84850D02*
Y-82095D01*
X254000Y-84850D02*
Y-82095D01*
X246913D02*
X254000D01*
X246913Y-84850D02*
X254000D01*
X239622Y-84858D02*
Y-77772D01*
X242378Y-84858D02*
Y-77772D01*
X239622Y-84858D02*
X242378D01*
X239622Y-77772D02*
X242378D01*
X241000Y-82398D02*
Y-80232D01*
X239917Y-81315D02*
X242083D01*
X36815Y-10606D02*
Y-3520D01*
X34059Y-10606D02*
Y-3520D01*
Y-10606D02*
X36815D01*
X34059Y-3520D02*
X36815D01*
X35437Y-8146D02*
Y-5980D01*
X34354Y-7063D02*
X36520D01*
X39354D02*
X41520D01*
X40437Y-8146D02*
Y-5980D01*
X39059Y-3520D02*
X41815D01*
X39059Y-10606D02*
X41815D01*
X39059D02*
Y-3520D01*
X41815Y-10606D02*
Y-3520D01*
X17394Y-1685D02*
X24480D01*
X17394Y-4441D02*
X24480D01*
X17394D02*
Y-1685D01*
X24480Y-4441D02*
Y-1685D01*
X19854Y-3063D02*
X22020D01*
X20937Y-4146D02*
Y-1980D01*
X293917Y-26421D02*
X296083D01*
X295000Y-27504D02*
Y-25339D01*
X293622Y-29965D02*
X296378D01*
X293622Y-22878D02*
X296378D01*
X293622Y-29965D02*
Y-22878D01*
X296378Y-29965D02*
Y-22878D01*
X288579Y-71016D02*
Y-63929D01*
X291335Y-71016D02*
Y-63929D01*
X288579D02*
X291335D01*
X288579Y-71016D02*
X291335D01*
X289957Y-68555D02*
Y-66390D01*
X288874Y-67472D02*
X291039D01*
X210917Y-45315D02*
X213083D01*
X212000Y-46398D02*
Y-44232D01*
X210622Y-41772D02*
X213378D01*
X210622Y-48858D02*
X213378D01*
Y-41772D01*
X210622Y-48858D02*
Y-41772D01*
X292079Y-71016D02*
Y-63929D01*
X294835Y-71016D02*
Y-63929D01*
X292079D02*
X294835D01*
X292079Y-71016D02*
X294835D01*
X293457Y-68555D02*
Y-66390D01*
X292374Y-67472D02*
X294539D01*
X273000Y-83898D02*
Y-81732D01*
X271917Y-82815D02*
X274083D01*
X276543Y-84193D02*
Y-81437D01*
X269457Y-84193D02*
Y-81437D01*
Y-84193D02*
X276543D01*
X269457Y-81437D02*
X276543D01*
X294413Y-110350D02*
X301500D01*
X294413Y-107595D02*
X301500D01*
Y-110350D02*
Y-107595D01*
X294413Y-110350D02*
Y-107595D01*
X296874Y-108972D02*
X299039D01*
X297957Y-110055D02*
Y-107890D01*
X319457Y-159055D02*
Y-156890D01*
X318374Y-157973D02*
X320539D01*
X315913Y-159350D02*
Y-156595D01*
X323000Y-159350D02*
Y-156595D01*
X315913Y-159350D02*
X323000D01*
X315913Y-156595D02*
X323000D01*
X330874Y-150972D02*
X333039D01*
X331957Y-152055D02*
Y-149890D01*
X330579Y-147429D02*
X333335D01*
X330579Y-154516D02*
X333335D01*
X330579D02*
Y-147429D01*
X333335Y-154516D02*
Y-147429D01*
X62054Y-142163D02*
X64220D01*
X63137Y-143246D02*
Y-141080D01*
X61759Y-138620D02*
X64515D01*
X61759Y-145706D02*
X64515D01*
Y-138620D01*
X61759Y-145706D02*
Y-138620D01*
X319913Y-141350D02*
X327000D01*
X319913Y-138594D02*
X327000D01*
X319913Y-141350D02*
Y-138594D01*
X327000Y-141350D02*
Y-138594D01*
X322374Y-139972D02*
X324539D01*
X323457Y-141055D02*
Y-138890D01*
X41337Y-176546D02*
Y-174380D01*
X40254Y-175463D02*
X42420D01*
X44880Y-176841D02*
Y-174085D01*
X37794Y-176841D02*
Y-174085D01*
Y-176841D02*
X44880D01*
X37794Y-174085D02*
X44880D01*
X102122Y-16858D02*
Y-9772D01*
X104878Y-16858D02*
Y-9772D01*
X102122D02*
X104878D01*
X102122Y-16858D02*
X104878D01*
X103500Y-14398D02*
Y-12232D01*
X102417Y-13315D02*
X104583D01*
X319417Y-7815D02*
X321583D01*
X320500Y-8898D02*
Y-6732D01*
X319122Y-11358D02*
X321878D01*
X319122Y-4272D02*
X321878D01*
Y-11358D02*
Y-4272D01*
X319122Y-11358D02*
Y-4272D01*
X101378Y-16858D02*
Y-9772D01*
X98622Y-16858D02*
Y-9772D01*
Y-16858D02*
X101378D01*
X98622Y-9772D02*
X101378D01*
X100000Y-14398D02*
Y-12232D01*
X98917Y-13315D02*
X101083D01*
X318437Y-49646D02*
Y-47480D01*
X317354Y-48563D02*
X319520D01*
X321980Y-49941D02*
Y-47185D01*
X314894Y-49941D02*
Y-47185D01*
Y-49941D02*
X321980D01*
X314894Y-47185D02*
X321980D01*
X314894Y-42185D02*
X321980D01*
X314894Y-44941D02*
X321980D01*
X314894D02*
Y-42185D01*
X321980Y-44941D02*
Y-42185D01*
X317354Y-43563D02*
X319520D01*
X318437Y-44646D02*
Y-42480D01*
X234000Y-38398D02*
Y-36232D01*
X232917Y-37315D02*
X235083D01*
X230457Y-38693D02*
Y-35937D01*
X237543Y-38693D02*
Y-35937D01*
X230457D02*
X237543D01*
X230457Y-38693D02*
X237543D01*
X230457Y-32437D02*
X237543D01*
X230457Y-35193D02*
X237543D01*
X230457D02*
Y-32437D01*
X237543Y-35193D02*
Y-32437D01*
X232917Y-33815D02*
X235083D01*
X234000Y-34898D02*
Y-32732D01*
X278500Y-37898D02*
Y-35732D01*
X277417Y-36815D02*
X279583D01*
X282043Y-38193D02*
Y-35437D01*
X274957Y-38193D02*
Y-35437D01*
Y-38193D02*
X282043D01*
X274957Y-35437D02*
X282043D01*
X281913Y-141350D02*
X289000D01*
X281913Y-138594D02*
X289000D01*
X281913Y-141350D02*
Y-138594D01*
X289000Y-141350D02*
Y-138594D01*
X284374Y-139972D02*
X286539D01*
X285457Y-141055D02*
Y-138890D01*
X293374Y-123472D02*
X295539D01*
X294457Y-124555D02*
Y-122390D01*
X293079Y-127016D02*
X295835D01*
X293079Y-119929D02*
X295835D01*
Y-127016D02*
Y-119929D01*
X293079Y-127016D02*
Y-119929D01*
X318913Y-154350D02*
X326000D01*
X318913Y-151594D02*
X326000D01*
X318913Y-154350D02*
Y-151594D01*
X326000Y-154350D02*
Y-151594D01*
X321374Y-152972D02*
X323539D01*
X322457Y-154055D02*
Y-151890D01*
X56500Y-14398D02*
Y-12232D01*
X55417Y-13315D02*
X57583D01*
X52957Y-14693D02*
Y-11937D01*
X60043Y-14693D02*
Y-11937D01*
X52957D02*
X60043D01*
X52957Y-14693D02*
X60043D01*
X52957Y-10693D02*
X60043D01*
X52957Y-7937D02*
X60043D01*
Y-10693D02*
Y-7937D01*
X52957Y-10693D02*
Y-7937D01*
X55417Y-9315D02*
X57583D01*
X56500Y-10398D02*
Y-8232D01*
X218417Y-100315D02*
X220583D01*
X219500Y-101398D02*
Y-99232D01*
X218122Y-103858D02*
X220878D01*
X218122Y-96772D02*
X220878D01*
Y-103858D02*
Y-96772D01*
X218122Y-103858D02*
Y-96772D01*
X216878Y-103858D02*
Y-96772D01*
X214122Y-103858D02*
Y-96772D01*
Y-103858D02*
X216878D01*
X214122Y-96772D02*
X216878D01*
X215500Y-101398D02*
Y-99232D01*
X214417Y-100315D02*
X216583D01*
X232917Y-6815D02*
X235083D01*
X234000Y-7898D02*
Y-5732D01*
X232622Y-3272D02*
X235378D01*
X232622Y-10358D02*
X235378D01*
Y-3272D01*
X232622Y-10358D02*
Y-3272D01*
X79594Y-164041D02*
X86680D01*
X79594Y-161285D02*
X86680D01*
Y-164041D02*
Y-161285D01*
X79594Y-164041D02*
Y-161285D01*
X82054Y-162663D02*
X84220D01*
X83137Y-163746D02*
Y-161580D01*
X227417Y-54315D02*
X229583D01*
X228500Y-55398D02*
Y-53232D01*
X227122Y-50772D02*
X229878D01*
X227122Y-57858D02*
X229878D01*
Y-50772D01*
X227122Y-57858D02*
Y-50772D01*
X272163Y-41693D02*
X279250D01*
X272163Y-38937D02*
X279250D01*
Y-41693D02*
Y-38937D01*
X272163Y-41693D02*
Y-38937D01*
X274624Y-40315D02*
X276789D01*
X275707Y-41398D02*
Y-39232D01*
Y-48398D02*
Y-46232D01*
X274624Y-47315D02*
X276789D01*
X272163Y-48693D02*
Y-45937D01*
X279250Y-48693D02*
Y-45937D01*
X272163D02*
X279250D01*
X272163Y-48693D02*
X279250D01*
X20457Y-135437D02*
X27543D01*
X20457Y-138193D02*
X27543D01*
X20457D02*
Y-135437D01*
X27543Y-138193D02*
Y-135437D01*
X22917Y-136815D02*
X25083D01*
X24000Y-137898D02*
Y-135732D01*
X318437Y-39646D02*
Y-37480D01*
X317354Y-38563D02*
X319520D01*
X321980Y-39941D02*
Y-37185D01*
X314894Y-39941D02*
Y-37185D01*
Y-39941D02*
X321980D01*
X314894Y-37185D02*
X321980D01*
X210837Y-88846D02*
Y-86680D01*
X209754Y-87763D02*
X211920D01*
X214380Y-89141D02*
Y-86385D01*
X207294Y-89141D02*
Y-86385D01*
Y-89141D02*
X214380D01*
X207294Y-86385D02*
X214380D01*
X314894Y-32185D02*
X321980D01*
X314894Y-34941D02*
X321980D01*
X314894D02*
Y-32185D01*
X321980Y-34941D02*
Y-32185D01*
X317354Y-33563D02*
X319520D01*
X318437Y-34646D02*
Y-32480D01*
X159337Y-246D02*
Y1920D01*
X158254Y837D02*
X160420D01*
X162880Y-541D02*
Y2215D01*
X155794Y-541D02*
Y2215D01*
X162880D01*
X155794Y-541D02*
X162880D01*
X155894Y-6341D02*
X162980D01*
X155894Y-3585D02*
X162980D01*
X155894Y-6341D02*
Y-3585D01*
X162980Y-6341D02*
Y-3585D01*
X158354Y-4963D02*
X160520D01*
X159437Y-6046D02*
Y-3880D01*
X159337Y-10346D02*
Y-8180D01*
X158254Y-9263D02*
X160420D01*
X162880Y-10641D02*
Y-7885D01*
X155794Y-10641D02*
Y-7885D01*
X162880D01*
X155794Y-10641D02*
X162880D01*
X120957Y-34193D02*
X128043D01*
X120957Y-31437D02*
X128043D01*
Y-34193D02*
Y-31437D01*
X120957Y-34193D02*
Y-31437D01*
X123417Y-32815D02*
X125583D01*
X124500Y-33898D02*
Y-31732D01*
Y-37398D02*
Y-35232D01*
X123417Y-36315D02*
X125583D01*
X128043Y-37693D02*
Y-34937D01*
X120957Y-37693D02*
Y-34937D01*
Y-37693D02*
X128043D01*
X120957Y-34937D02*
X128043D01*
X98957Y-22437D02*
X106043D01*
X98957Y-25193D02*
X106043D01*
X98957D02*
Y-22437D01*
X106043Y-25193D02*
Y-22437D01*
X101417Y-23815D02*
X103583D01*
X102500Y-24898D02*
Y-22732D01*
X187737Y-69446D02*
Y-67280D01*
X186654Y-68363D02*
X188820D01*
X191280Y-69741D02*
Y-66985D01*
X184194Y-69741D02*
Y-66985D01*
Y-69741D02*
X191280D01*
X184194Y-66985D02*
X191280D01*
X98957Y-17937D02*
X106043D01*
X98957Y-20693D02*
X106043D01*
X98957D02*
Y-17937D01*
X106043Y-20693D02*
Y-17937D01*
X101417Y-19315D02*
X103583D01*
X102500Y-20398D02*
Y-18232D01*
X148417Y-13315D02*
X150583D01*
X149500Y-14398D02*
Y-12232D01*
X148122Y-16858D02*
X150878D01*
X148122Y-9772D02*
X150878D01*
Y-16858D02*
Y-9772D01*
X148122Y-16858D02*
Y-9772D01*
X184194Y-61985D02*
X191280D01*
X184194Y-64741D02*
X191280D01*
X184194D02*
Y-61985D01*
X191280Y-64741D02*
Y-61985D01*
X186654Y-63363D02*
X188820D01*
X187737Y-64446D02*
Y-62280D01*
X81320Y-88863D02*
Y-86698D01*
X80237Y-87780D02*
X82402D01*
X84863Y-89158D02*
Y-86403D01*
X77776Y-89158D02*
Y-86403D01*
Y-89158D02*
X84863D01*
X77776Y-86403D02*
X84863D01*
X77775Y-82102D02*
X84862D01*
X77775Y-84857D02*
X84862D01*
X77775D02*
Y-82102D01*
X84862Y-84857D02*
Y-82102D01*
X80236Y-83479D02*
X82401D01*
X81319Y-84562D02*
Y-82397D01*
X28879Y-60622D02*
X33890Y-65633D01*
X30828Y-58674D02*
X35839Y-63685D01*
X33890Y-65633D02*
X35839Y-63685D01*
X28879Y-60622D02*
X30828Y-58674D01*
X31593Y-61388D02*
X33124Y-62919D01*
X31593D02*
X33124Y-61388D01*
X103693Y-49919D02*
X105224Y-48388D01*
X103693D02*
X105224Y-49919D01*
X105990Y-52633D02*
X107939Y-50685D01*
X100979Y-47622D02*
X102928Y-45674D01*
X100979Y-47622D02*
X105990Y-52633D01*
X102928Y-45674D02*
X107939Y-50685D01*
X100228Y-48574D02*
X105239Y-53585D01*
X98279Y-50522D02*
X103290Y-55533D01*
X98279Y-50522D02*
X100228Y-48574D01*
X103290Y-55533D02*
X105239Y-53585D01*
X100993Y-51288D02*
X102524Y-52819D01*
X100993Y-52819D02*
X102524Y-51288D01*
X98193Y-55819D02*
X99724Y-54288D01*
X98193D02*
X99724Y-55819D01*
X100490Y-58533D02*
X102439Y-56585D01*
X95479Y-53522D02*
X97428Y-51574D01*
X95479Y-53522D02*
X100490Y-58533D01*
X97428Y-51574D02*
X102439Y-56585D01*
X94528Y-54374D02*
X99539Y-59385D01*
X92579Y-56322D02*
X97590Y-61333D01*
X92579Y-56322D02*
X94528Y-54374D01*
X97590Y-61333D02*
X99539Y-59385D01*
X95293Y-57088D02*
X96824Y-58619D01*
X95293Y-58619D02*
X96824Y-57088D01*
X116593Y-62519D02*
X118124Y-60988D01*
X116593D02*
X118124Y-62519D01*
X118890Y-65233D02*
X120839Y-63285D01*
X113879Y-60222D02*
X115828Y-58274D01*
X113879Y-60222D02*
X118890Y-65233D01*
X115828Y-58274D02*
X120839Y-63285D01*
X118828Y-55274D02*
X123839Y-60285D01*
X116879Y-57222D02*
X121890Y-62233D01*
X116879Y-57222D02*
X118828Y-55274D01*
X121890Y-62233D02*
X123839Y-60285D01*
X119593Y-57988D02*
X121124Y-59519D01*
X119593Y-59519D02*
X121124Y-57988D01*
X187737Y-50746D02*
Y-48580D01*
X186654Y-49663D02*
X188820D01*
X191280Y-51041D02*
Y-48285D01*
X184194Y-51041D02*
Y-48285D01*
Y-51041D02*
X191280D01*
X184194Y-48285D02*
X191280D01*
X187737Y-55546D02*
Y-53380D01*
X186654Y-54463D02*
X188820D01*
X191280Y-55841D02*
Y-53085D01*
X184194Y-55841D02*
Y-53085D01*
Y-55841D02*
X191280D01*
X184194Y-53085D02*
X191280D01*
X47193Y-47219D02*
X48724Y-45688D01*
X47193D02*
X48724Y-47219D01*
X49490Y-49933D02*
X51439Y-47985D01*
X44479Y-44922D02*
X46428Y-42974D01*
X44479Y-44922D02*
X49490Y-49933D01*
X46428Y-42974D02*
X51439Y-47985D01*
X145108Y-43396D02*
X152195D01*
X145108Y-40641D02*
X152195D01*
Y-43396D02*
Y-40641D01*
X145108Y-43396D02*
Y-40641D01*
X147569Y-42018D02*
X149734D01*
X148652Y-43101D02*
Y-40936D01*
X87417Y-169815D02*
X89583D01*
X88500Y-170898D02*
Y-168732D01*
X87122Y-173358D02*
X89878D01*
X87122Y-166272D02*
X89878D01*
X87122Y-173358D02*
Y-166272D01*
X89878Y-173358D02*
Y-166272D01*
X35479Y-53922D02*
X40490Y-58933D01*
X37428Y-51974D02*
X42439Y-56985D01*
X40490Y-58933D02*
X42439Y-56985D01*
X35479Y-53922D02*
X37428Y-51974D01*
X38193Y-54688D02*
X39724Y-56219D01*
X38193D02*
X39724Y-54688D01*
X148797Y-55640D02*
Y-53475D01*
X147714Y-54558D02*
X149879D01*
X152340Y-55936D02*
Y-53180D01*
X145253Y-55936D02*
Y-53180D01*
Y-55936D02*
X152340D01*
X145253Y-53180D02*
X152340D01*
X145215Y-61776D02*
X152302D01*
X145215Y-64531D02*
X152302D01*
X145215D02*
Y-61776D01*
X152302Y-64531D02*
Y-61776D01*
X147676Y-63153D02*
X149841D01*
X148759Y-64236D02*
Y-62071D01*
X44354Y-7063D02*
X46520D01*
X45437Y-8146D02*
Y-5980D01*
X44059Y-3520D02*
X46815D01*
X44059Y-10606D02*
X46815D01*
X44059D02*
Y-3520D01*
X46815Y-10606D02*
Y-3520D01*
X283413Y-115594D02*
X290500D01*
X283413Y-118350D02*
X290500D01*
Y-115594D01*
X283413Y-118350D02*
Y-115594D01*
X285874Y-116972D02*
X288039D01*
X286957Y-118055D02*
Y-115890D01*
X77000Y-149398D02*
Y-147232D01*
X75917Y-148315D02*
X78083D01*
X73457Y-149693D02*
Y-146937D01*
X80543Y-149693D02*
Y-146937D01*
X73457D02*
X80543D01*
X73457Y-149693D02*
X80543D01*
X63979Y-45985D02*
X68990Y-40974D01*
X65928Y-47934D02*
X70939Y-42923D01*
X68990Y-40974D02*
X70939Y-42923D01*
X63979Y-45985D02*
X65928Y-47934D01*
X66693Y-45220D02*
X68225Y-43688D01*
X66693D02*
X68225Y-45220D01*
X66193Y-51988D02*
X67725Y-53520D01*
X66193D02*
X67725Y-51988D01*
X68490Y-49274D02*
X70439Y-51223D01*
X63479Y-54285D02*
X65428Y-56234D01*
X63479Y-54285D02*
X68490Y-49274D01*
X65428Y-56234D02*
X70439Y-51223D01*
X46979Y-37222D02*
X51990Y-42233D01*
X48928Y-35274D02*
X53939Y-40285D01*
X51990Y-42233D02*
X53939Y-40285D01*
X46979Y-37222D02*
X48928Y-35274D01*
X49693Y-37988D02*
X51224Y-39519D01*
X49693D02*
X51224Y-37988D01*
X52693Y-36519D02*
X54224Y-34988D01*
X52693Y-34988D02*
X54224Y-36519D01*
X49979Y-34222D02*
X51928Y-32274D01*
X54990Y-39233D02*
X56939Y-37285D01*
X51928Y-32274D02*
X56939Y-37285D01*
X49979Y-34222D02*
X54990Y-39233D01*
X52979Y-31222D02*
X57990Y-36233D01*
X54928Y-29274D02*
X59939Y-34285D01*
X57990Y-36233D02*
X59939Y-34285D01*
X52979Y-31222D02*
X54928Y-29274D01*
X55693Y-31988D02*
X57224Y-33519D01*
X55693D02*
X57224Y-31988D01*
X58693Y-30519D02*
X60224Y-28988D01*
X58693Y-28988D02*
X60224Y-30519D01*
X55979Y-28222D02*
X57928Y-26274D01*
X60990Y-33233D02*
X62939Y-31285D01*
X57928Y-26274D02*
X62939Y-31285D01*
X55979Y-28222D02*
X60990Y-33233D01*
X58979Y-25222D02*
X63990Y-30233D01*
X60928Y-23274D02*
X65939Y-28285D01*
X63990Y-30233D02*
X65939Y-28285D01*
X58979Y-25222D02*
X60928Y-23274D01*
X61693Y-25988D02*
X63224Y-27519D01*
X61693D02*
X63224Y-25988D01*
X86536Y-85782D02*
X88701D01*
X87619Y-86864D02*
Y-84699D01*
X86241Y-82238D02*
X88997D01*
X86241Y-89325D02*
X88997D01*
Y-82238D01*
X86241Y-89325D02*
Y-82238D01*
X207294Y-90985D02*
X214380D01*
X207294Y-93741D02*
X214380D01*
X207294D02*
Y-90985D01*
X214380Y-93741D02*
Y-90985D01*
X209754Y-92363D02*
X211920D01*
X210837Y-93446D02*
Y-91280D01*
X124500Y-15898D02*
Y-13732D01*
X123417Y-14815D02*
X125583D01*
X128043Y-16193D02*
Y-13437D01*
X120957Y-16193D02*
Y-13437D01*
Y-16193D02*
X128043D01*
X120957Y-13437D02*
X128043D01*
X78737Y-141946D02*
Y-139780D01*
X77654Y-140863D02*
X79820D01*
X82280Y-142241D02*
Y-139485D01*
X75194Y-142241D02*
Y-139485D01*
X82280D01*
X75194Y-142241D02*
X82280D01*
X112457Y-28193D02*
X119543D01*
X112457Y-25437D02*
X119543D01*
Y-28193D02*
Y-25437D01*
X112457Y-28193D02*
Y-25437D01*
X114917Y-26815D02*
X117083D01*
X116000Y-27898D02*
Y-25732D01*
X20437Y-17146D02*
Y-14980D01*
X19354Y-16063D02*
X21520D01*
X16894Y-17441D02*
Y-14685D01*
X23980Y-17441D02*
Y-14685D01*
X16894D02*
X23980D01*
X16894Y-17441D02*
X23980D01*
X145215Y-57376D02*
X152302D01*
X145215Y-60132D02*
X152302D01*
X145215D02*
Y-57376D01*
X152302Y-60132D02*
Y-57376D01*
X147676Y-58754D02*
X149841D01*
X148759Y-59836D02*
Y-57671D01*
X304854Y-26422D02*
X307020D01*
X305937Y-27505D02*
Y-25339D01*
X304559Y-22879D02*
X307315D01*
X304559Y-29965D02*
X307315D01*
Y-22879D01*
X304559Y-29965D02*
Y-22879D01*
X159154Y-77563D02*
X161320D01*
X160237Y-78646D02*
Y-76480D01*
X158859Y-74020D02*
X161615D01*
X158859Y-81106D02*
X161615D01*
X158859D02*
Y-74020D01*
X161615Y-81106D02*
Y-74020D01*
X318335Y-141516D02*
Y-134429D01*
X315579Y-141516D02*
Y-134429D01*
Y-141516D02*
X318335D01*
X315579Y-134429D02*
X318335D01*
X316957Y-139055D02*
Y-136890D01*
X315874Y-137972D02*
X318039D01*
X287957Y-163055D02*
Y-160890D01*
X286874Y-161972D02*
X289039D01*
X284413Y-163350D02*
Y-160594D01*
X291500Y-163350D02*
Y-160594D01*
X284413Y-163350D02*
X291500D01*
X284413Y-160594D02*
X291500D01*
X284413Y-164094D02*
X291500D01*
X284413Y-166850D02*
X291500D01*
Y-164094D01*
X284413Y-166850D02*
Y-164094D01*
X286874Y-165472D02*
X289039D01*
X287957Y-166555D02*
Y-164390D01*
X167837Y-117646D02*
Y-115480D01*
X166754Y-116563D02*
X168920D01*
X171380Y-117941D02*
Y-115185D01*
X164294Y-117941D02*
Y-115185D01*
X171380D01*
X164294Y-117941D02*
X171380D01*
X327079Y-154516D02*
Y-147429D01*
X329835Y-154516D02*
Y-147429D01*
X327079D02*
X329835D01*
X327079Y-154516D02*
X329835D01*
X328457Y-152055D02*
Y-149890D01*
X327374Y-150972D02*
X329539D01*
X334374D02*
X336539D01*
X335457Y-152055D02*
Y-149890D01*
X334079Y-147429D02*
X336835D01*
X334079Y-154516D02*
X336835D01*
X334079D02*
Y-147429D01*
X336835Y-154516D02*
Y-147429D01*
X275335Y-116516D02*
Y-109429D01*
X272579Y-116516D02*
Y-109429D01*
Y-116516D02*
X275335D01*
X272579Y-109429D02*
X275335D01*
X273957Y-114055D02*
Y-111890D01*
X272874Y-112972D02*
X275039D01*
X306079Y-95516D02*
Y-88429D01*
X308835Y-95516D02*
Y-88429D01*
X306079D02*
X308835D01*
X306079Y-95516D02*
X308835D01*
X307457Y-93055D02*
Y-90890D01*
X306374Y-91972D02*
X308539D01*
X312457Y-98555D02*
Y-96390D01*
X311374Y-97473D02*
X313539D01*
X308913Y-98850D02*
Y-96095D01*
X316000Y-98850D02*
Y-96095D01*
X308913Y-98850D02*
X316000D01*
X308913Y-96095D02*
X316000D01*
X117957Y-172937D02*
X125043D01*
X117957Y-175693D02*
X125043D01*
X117957D02*
Y-172937D01*
X125043Y-175693D02*
Y-172937D01*
X120417Y-174315D02*
X122583D01*
X121500Y-175398D02*
Y-173232D01*
X312457Y-102055D02*
Y-99890D01*
X311374Y-100972D02*
X313539D01*
X308913Y-102350D02*
Y-99594D01*
X316000Y-102350D02*
Y-99594D01*
X308913Y-102350D02*
X316000D01*
X308913Y-99594D02*
X316000D01*
X315957Y-123555D02*
Y-121390D01*
X314874Y-122472D02*
X317039D01*
X319500Y-123850D02*
Y-121095D01*
X312413Y-123850D02*
Y-121095D01*
X319500D01*
X312413Y-123850D02*
X319500D01*
X312913Y-105850D02*
X320000D01*
X312913Y-103094D02*
X320000D01*
X312913Y-105850D02*
Y-103094D01*
X320000Y-105850D02*
Y-103094D01*
X315374Y-104472D02*
X317539D01*
X316457Y-105555D02*
Y-103390D01*
X286957Y-114555D02*
Y-112390D01*
X285874Y-113472D02*
X288039D01*
X290500Y-114850D02*
Y-112094D01*
X283413Y-114850D02*
Y-112094D01*
X290500D01*
X283413Y-114850D02*
X290500D01*
X297835Y-172516D02*
Y-165429D01*
X295079Y-172516D02*
Y-165429D01*
Y-172516D02*
X297835D01*
X295079Y-165429D02*
X297835D01*
X296457Y-170055D02*
Y-167890D01*
X295374Y-168972D02*
X297539D01*
X315374D02*
X317539D01*
X316457Y-170055D02*
Y-167890D01*
X315079Y-165429D02*
X317835D01*
X315079Y-172516D02*
X317835D01*
X315079D02*
Y-165429D01*
X317835Y-172516D02*
Y-165429D01*
X232622Y-118358D02*
Y-111272D01*
X235378Y-118358D02*
Y-111272D01*
X232622D02*
X235378D01*
X232622Y-118358D02*
X235378D01*
X234000Y-115898D02*
Y-113732D01*
X232917Y-114815D02*
X235083D01*
X245000Y-132398D02*
Y-130232D01*
X243917Y-131315D02*
X246083D01*
X248543Y-132693D02*
Y-129937D01*
X241457Y-132693D02*
Y-129937D01*
X248543D01*
X241457Y-132693D02*
X248543D01*
X313374Y-91972D02*
X315539D01*
X314457Y-93055D02*
Y-90890D01*
X313079Y-88429D02*
X315835D01*
X313079Y-95516D02*
X315835D01*
X313079D02*
Y-88429D01*
X315835Y-95516D02*
Y-88429D01*
X153122Y-99358D02*
Y-92272D01*
X155878Y-99358D02*
Y-92272D01*
X153122D02*
X155878D01*
X153122Y-99358D02*
X155878D01*
X154500Y-96898D02*
Y-94732D01*
X153417Y-95815D02*
X155583D01*
X157417D02*
X159583D01*
X158500Y-96898D02*
Y-94732D01*
X157122Y-99358D02*
X159878D01*
X157122Y-92272D02*
X159878D01*
Y-99358D02*
Y-92272D01*
X157122Y-99358D02*
Y-92272D01*
X148622Y-99358D02*
Y-92272D01*
X151378Y-99358D02*
Y-92272D01*
X148622D02*
X151378D01*
X148622Y-99358D02*
X151378D01*
X150000Y-96898D02*
Y-94732D01*
X148917Y-95815D02*
X151083D01*
X190000Y-124398D02*
Y-122232D01*
X188917Y-123315D02*
X191083D01*
X193543Y-124693D02*
Y-121937D01*
X186457Y-124693D02*
Y-121937D01*
X193543D01*
X186457Y-124693D02*
X193543D01*
X186457Y-112241D02*
X193543D01*
X186457Y-109485D02*
X193543D01*
X186457Y-112241D02*
Y-109485D01*
X193543Y-112241D02*
Y-109485D01*
X188917Y-110863D02*
X191083D01*
X190000Y-111946D02*
Y-109780D01*
Y-104246D02*
Y-102080D01*
X188917Y-103163D02*
X191083D01*
X193543Y-104541D02*
Y-101785D01*
X186457Y-104541D02*
Y-101785D01*
X193543D01*
X186457Y-104541D02*
X193543D01*
X186457Y-100341D02*
X193543D01*
X186457Y-97585D02*
X193543D01*
X186457Y-100341D02*
Y-97585D01*
X193543Y-100341D02*
Y-97585D01*
X188917Y-98963D02*
X191083D01*
X190000Y-100046D02*
Y-97880D01*
Y-134398D02*
Y-132232D01*
X188917Y-133315D02*
X191083D01*
X193543Y-134693D02*
Y-131937D01*
X186457Y-134693D02*
Y-131937D01*
X193543D01*
X186457Y-134693D02*
X193543D01*
X75501Y-134889D02*
X82587D01*
X75501Y-137644D02*
X82587D01*
Y-134889D01*
X75501Y-137644D02*
Y-134889D01*
X77961Y-136266D02*
X80127D01*
X79044Y-137349D02*
Y-135184D01*
X190000Y-130398D02*
Y-128232D01*
X188917Y-129315D02*
X191083D01*
X193543Y-130693D02*
Y-127937D01*
X186457Y-130693D02*
Y-127937D01*
X193543D01*
X186457Y-130693D02*
X193543D01*
X78043Y-106206D02*
X85130D01*
X78043Y-103451D02*
X85130D01*
Y-106206D02*
Y-103451D01*
X78043Y-106206D02*
Y-103451D01*
X80504Y-104829D02*
X82669D01*
X81587Y-105911D02*
Y-103746D01*
X122093Y-71619D02*
X123624Y-70088D01*
X122093Y-70088D02*
X123624Y-71619D01*
X119379Y-69322D02*
X121328Y-67374D01*
X124390Y-74333D02*
X126339Y-72385D01*
X121328Y-67374D02*
X126339Y-72385D01*
X119379Y-69322D02*
X124390Y-74333D01*
X133581Y-77797D02*
Y-70710D01*
X136337Y-77797D02*
Y-70710D01*
X133581Y-77797D02*
X136337D01*
X133581Y-70710D02*
X136337D01*
X134959Y-75336D02*
Y-73171D01*
X133876Y-74253D02*
X136041D01*
X81585Y-120628D02*
Y-118463D01*
X80502Y-119545D02*
X82667D01*
X78041Y-120923D02*
Y-118167D01*
X85128Y-120923D02*
Y-118167D01*
X78041D02*
X85128D01*
X78041Y-120923D02*
X85128D01*
X86378Y-181358D02*
Y-174272D01*
X83622Y-181358D02*
Y-174272D01*
X86378D01*
X83622Y-181358D02*
X86378D01*
X85000Y-178898D02*
Y-176732D01*
X83917Y-177815D02*
X86083D01*
X83917Y-169815D02*
X86083D01*
X85000Y-170898D02*
Y-168732D01*
X83622Y-166272D02*
X86378D01*
X83622Y-173358D02*
X86378D01*
Y-166272D01*
X83622Y-173358D02*
Y-166272D01*
X95417Y-13315D02*
X97583D01*
X96500Y-14398D02*
Y-12232D01*
X95122Y-16858D02*
X97878D01*
X95122Y-9772D02*
X97878D01*
Y-16858D02*
Y-9772D01*
X95122Y-16858D02*
Y-9772D01*
X114395Y-74722D02*
X115926Y-73191D01*
X114395D02*
X115926Y-74722D01*
X116692Y-77436D02*
X118641Y-75488D01*
X111681Y-72425D02*
X113630Y-70477D01*
X111681Y-72425D02*
X116692Y-77436D01*
X113630Y-70477D02*
X118641Y-75488D01*
X70115Y-158606D02*
Y-151520D01*
X67359Y-158606D02*
Y-151520D01*
X70115D01*
X67359Y-158606D02*
X70115D01*
X68737Y-156146D02*
Y-153980D01*
X67654Y-155063D02*
X69820D01*
X209417Y-100315D02*
X211583D01*
X210500Y-101398D02*
Y-99232D01*
X209122Y-103858D02*
X211878D01*
X209122Y-96772D02*
X211878D01*
Y-103858D02*
Y-96772D01*
X209122Y-103858D02*
Y-96772D01*
X230457Y-31693D02*
X237543D01*
X230457Y-28937D02*
X237543D01*
Y-31693D02*
Y-28937D01*
X230457Y-31693D02*
Y-28937D01*
X232917Y-30315D02*
X235083D01*
X234000Y-31398D02*
Y-29232D01*
Y-27898D02*
Y-25732D01*
X232917Y-26815D02*
X235083D01*
X237543Y-28193D02*
Y-25437D01*
X230457Y-28193D02*
Y-25437D01*
Y-28193D02*
X237543D01*
X230457Y-25437D02*
X237543D01*
X230457Y-17693D02*
X237543D01*
X230457Y-14937D02*
X237543D01*
Y-17693D02*
Y-14937D01*
X230457Y-17693D02*
Y-14937D01*
X232917Y-16315D02*
X235083D01*
X234000Y-17398D02*
Y-15232D01*
X242417Y-113315D02*
X244583D01*
X243500Y-114398D02*
Y-112232D01*
X242122Y-109772D02*
X244878D01*
X242122Y-116858D02*
X244878D01*
X242122D02*
Y-109772D01*
X244878Y-116858D02*
Y-109772D01*
X186694Y-117985D02*
X193780D01*
X186694Y-120741D02*
X193780D01*
X186694D02*
Y-117985D01*
X193780Y-120741D02*
Y-117985D01*
X189154Y-119363D02*
X191320D01*
X190237Y-120446D02*
Y-118280D01*
X275706Y-44898D02*
Y-42732D01*
X274623Y-43815D02*
X276789D01*
X279249Y-45193D02*
Y-42437D01*
X272163Y-45193D02*
Y-42437D01*
Y-45193D02*
X279249D01*
X272163Y-42437D02*
X279249D01*
X230457Y-21193D02*
X237543D01*
X230457Y-18437D02*
X237543D01*
Y-21193D02*
Y-18437D01*
X230457Y-21193D02*
Y-18437D01*
X232917Y-19815D02*
X235083D01*
X234000Y-20898D02*
Y-18732D01*
X44293Y-50219D02*
X45824Y-48688D01*
X44293D02*
X45824Y-50219D01*
X46590Y-52933D02*
X48539Y-50985D01*
X41579Y-47922D02*
X43528Y-45974D01*
X41579Y-47922D02*
X46590Y-52933D01*
X43528Y-45974D02*
X48539Y-50985D01*
X145253Y-49130D02*
X152340D01*
X145253Y-51885D02*
X152340D01*
X145253D02*
Y-49130D01*
X152340Y-51885D02*
Y-49130D01*
X147714Y-50507D02*
X149879D01*
X148797Y-51590D02*
Y-49425D01*
X40993Y-53219D02*
X42524Y-51688D01*
X40993Y-51688D02*
X42524Y-53219D01*
X38279Y-50922D02*
X40228Y-48974D01*
X43290Y-55933D02*
X45239Y-53985D01*
X40228Y-48974D02*
X45239Y-53985D01*
X38279Y-50922D02*
X43290Y-55933D01*
X145160Y-47518D02*
X152247D01*
X145160Y-44763D02*
X152247D01*
Y-47518D02*
Y-44763D01*
X145160Y-47518D02*
Y-44763D01*
X147621Y-46141D02*
X149786D01*
X148704Y-47223D02*
Y-45058D01*
X79193Y-65488D02*
X80725Y-67020D01*
X79193D02*
X80725Y-65488D01*
X76479Y-67785D02*
X78428Y-69734D01*
X81490Y-62774D02*
X83439Y-64723D01*
X78428Y-69734D02*
X83439Y-64723D01*
X76479Y-67785D02*
X81490Y-62774D01*
X84928Y-63234D02*
X89939Y-58223D01*
X82979Y-61285D02*
X87990Y-56274D01*
X82979Y-61285D02*
X84928Y-63234D01*
X87990Y-56274D02*
X89939Y-58223D01*
X85693Y-60520D02*
X87225Y-58988D01*
X85693D02*
X87225Y-60520D01*
X40855Y-71622D02*
X42386Y-73153D01*
X40855D02*
X42386Y-71622D01*
X38141Y-73919D02*
X40089Y-75867D01*
X43152Y-68908D02*
X45100Y-70856D01*
X40089Y-75867D02*
X45100Y-70856D01*
X38141Y-73919D02*
X43152Y-68908D01*
X75428Y-68776D02*
X80439Y-73787D01*
X73479Y-70725D02*
X78490Y-75736D01*
X80439Y-73787D01*
X73479Y-70725D02*
X75428Y-68776D01*
X76193Y-71490D02*
X77725Y-73022D01*
X76193D02*
X77725Y-71490D01*
X49193Y-63488D02*
X50725Y-65020D01*
X49193D02*
X50725Y-63488D01*
X51490Y-60774D02*
X53439Y-62723D01*
X46479Y-65785D02*
X48428Y-67734D01*
X46479Y-65785D02*
X51490Y-60774D01*
X48428Y-67734D02*
X53439Y-62723D01*
X75494Y-138141D02*
X82580D01*
X75494Y-135385D02*
X82580D01*
Y-138141D02*
Y-135385D01*
X75494Y-138141D02*
Y-135385D01*
X77954Y-136763D02*
X80120D01*
X79037Y-137846D02*
Y-135680D01*
X17693Y-81519D02*
X19224Y-79988D01*
X17693Y-79988D02*
X19224Y-81519D01*
X14979Y-79222D02*
X16928Y-77274D01*
X19990Y-84233D02*
X21939Y-82285D01*
X16928Y-77274D02*
X21939Y-82285D01*
X14979Y-79222D02*
X19990Y-84233D01*
X15479Y-73722D02*
X20490Y-78733D01*
X17428Y-71774D02*
X22439Y-76785D01*
X20490Y-78733D02*
X22439Y-76785D01*
X15479Y-73722D02*
X17428Y-71774D01*
X18193Y-74488D02*
X19724Y-76019D01*
X18193D02*
X19724Y-74488D01*
X21193Y-73019D02*
X22724Y-71488D01*
X21193Y-71488D02*
X22724Y-73019D01*
X18479Y-70722D02*
X20428Y-68774D01*
X23490Y-75733D02*
X25439Y-73785D01*
X20428Y-68774D02*
X25439Y-73785D01*
X18479Y-70722D02*
X23490Y-75733D01*
X21479Y-67722D02*
X26490Y-72733D01*
X23428Y-65774D02*
X28439Y-70785D01*
X26490Y-72733D02*
X28439Y-70785D01*
X21479Y-67722D02*
X23428Y-65774D01*
X24193Y-68488D02*
X25724Y-70019D01*
X24193D02*
X25724Y-68488D01*
X27193Y-67019D02*
X28724Y-65488D01*
X27193Y-65488D02*
X28724Y-67019D01*
X24479Y-64722D02*
X26428Y-62774D01*
X29490Y-69733D02*
X31439Y-67785D01*
X26428Y-62774D02*
X31439Y-67785D01*
X24479Y-64722D02*
X29490Y-69733D01*
X34528Y-54974D02*
X39539Y-59985D01*
X32579Y-56922D02*
X37590Y-61933D01*
X32579Y-56922D02*
X34528Y-54974D01*
X37590Y-61933D02*
X39539Y-59985D01*
X35293Y-57688D02*
X36824Y-59219D01*
X35293Y-59219D02*
X36824Y-57688D01*
X59693Y-66988D02*
X61225Y-68520D01*
X59693D02*
X61225Y-66988D01*
X56979Y-69285D02*
X58928Y-71234D01*
X61990Y-64274D02*
X63939Y-66223D01*
X58928Y-71234D02*
X63939Y-66223D01*
X56979Y-69285D02*
X61990Y-64274D01*
X58991Y-86004D02*
X64002Y-80993D01*
X60940Y-87953D02*
X65951Y-82942D01*
X64002Y-80993D02*
X65951Y-82942D01*
X58991Y-86004D02*
X60940Y-87953D01*
X61705Y-85239D02*
X63237Y-83707D01*
X61705D02*
X63237Y-85239D01*
X54925Y-89756D02*
X56457Y-91288D01*
X54925D02*
X56457Y-89756D01*
X57222Y-87042D02*
X59171Y-88991D01*
X52211Y-92053D02*
X54160Y-94002D01*
X52211Y-92053D02*
X57222Y-87042D01*
X54160Y-94002D02*
X59171Y-88991D01*
X57636Y-57934D02*
X62647Y-52923D01*
X55687Y-55985D02*
X60698Y-50974D01*
X55687Y-55985D02*
X57636Y-57934D01*
X60698Y-50974D02*
X62647Y-52923D01*
X58401Y-55220D02*
X59933Y-53688D01*
X58401D02*
X59933Y-55220D01*
X257622Y-111358D02*
Y-104272D01*
X260378Y-111358D02*
Y-104272D01*
X257622D02*
X260378D01*
X257622Y-111358D02*
X260378D01*
X259000Y-108898D02*
Y-106732D01*
X257917Y-107815D02*
X260083D01*
X108957Y-175692D02*
X116043D01*
X108957Y-172936D02*
X116043D01*
Y-175692D02*
Y-172936D01*
X108957Y-175692D02*
Y-172936D01*
X111417Y-174314D02*
X113583D01*
X112500Y-175397D02*
Y-173232D01*
X40269Y-135437D02*
X47356D01*
X40269Y-138193D02*
X47356D01*
X40269D02*
Y-135437D01*
X47356Y-138193D02*
Y-135437D01*
X42730Y-136815D02*
X44895D01*
X43812Y-137898D02*
Y-135732D01*
X34125Y-137898D02*
Y-135732D01*
X33042Y-136815D02*
X35207D01*
X37668Y-138193D02*
Y-135437D01*
X30581Y-138193D02*
Y-135437D01*
Y-138193D02*
X37668D01*
X30581Y-135437D02*
X37668D01*
X155957Y-15193D02*
X163043D01*
X155957Y-12437D02*
X163043D01*
X155957Y-15193D02*
Y-12437D01*
X163043Y-15193D02*
Y-12437D01*
X158417Y-13815D02*
X160583D01*
X159500Y-14898D02*
Y-12732D01*
X86515Y-160506D02*
Y-153420D01*
X83759Y-160506D02*
Y-153420D01*
X86515D01*
X83759Y-160506D02*
X86515D01*
X85137Y-158046D02*
Y-155880D01*
X84054Y-156963D02*
X86220D01*
X65515Y-158506D02*
Y-151420D01*
X62759Y-158506D02*
Y-151420D01*
X65515D01*
X62759Y-158506D02*
X65515D01*
X64137Y-156046D02*
Y-153880D01*
X63054Y-154963D02*
X65220D01*
X53500Y-137898D02*
Y-135732D01*
X52417Y-136815D02*
X54583D01*
X57043Y-138193D02*
Y-135437D01*
X49957Y-138193D02*
Y-135437D01*
Y-138193D02*
X57043D01*
X49957Y-135437D02*
X57043D01*
X309874Y-91972D02*
X312039D01*
X310957Y-93055D02*
Y-90890D01*
X309579Y-88429D02*
X312335D01*
X309579Y-95516D02*
X312335D01*
X309579D02*
Y-88429D01*
X312335Y-95516D02*
Y-88429D01*
X274783Y-111646D02*
Y-83299D01*
X303130Y-111646D02*
Y-83299D01*
X274783Y-111646D02*
X303130D01*
X274783Y-83299D02*
X303130D01*
X286988Y-97473D02*
X290925D01*
X288957Y-99441D02*
Y-95504D01*
X252957Y-72937D02*
X260043D01*
X252957Y-75693D02*
X260043D01*
X252957D02*
Y-72937D01*
X260043Y-75693D02*
Y-72937D01*
X255417Y-74315D02*
X257583D01*
X256500Y-75398D02*
Y-73232D01*
X286878Y-8358D02*
Y-1272D01*
X284122Y-8358D02*
Y-1272D01*
X286878D01*
X284122Y-8358D02*
X286878D01*
X285500Y-5898D02*
Y-3732D01*
X284417Y-4815D02*
X286583D01*
X230457Y-21937D02*
X237543D01*
X230457Y-24693D02*
X237543D01*
X230457D02*
Y-21937D01*
X237543Y-24693D02*
Y-21937D01*
X232917Y-23315D02*
X235083D01*
X234000Y-24398D02*
Y-22232D01*
X267122Y-8858D02*
Y-1772D01*
X269878Y-8858D02*
Y-1772D01*
X267122D02*
X269878D01*
X267122Y-8858D02*
X269878D01*
X268500Y-6398D02*
Y-4232D01*
X267417Y-5315D02*
X269583D01*
X340378Y-43358D02*
Y-36272D01*
X337622Y-43358D02*
Y-36272D01*
X340378D01*
X337622Y-43358D02*
X340378D01*
X339000Y-40898D02*
Y-38732D01*
X337917Y-39815D02*
X340083D01*
X343878Y-43358D02*
Y-36272D01*
X341122Y-43358D02*
Y-36272D01*
X343878D01*
X341122Y-43358D02*
X343878D01*
X342500Y-40898D02*
Y-38732D01*
X341417Y-39815D02*
X343583D01*
X241957Y-170437D02*
X249043D01*
X241957Y-173193D02*
X249043D01*
Y-170437D01*
X241957Y-173193D02*
Y-170437D01*
X244417Y-171815D02*
X246583D01*
X245500Y-172898D02*
Y-170732D01*
X241957Y-169693D02*
X249043D01*
X241957Y-166937D02*
X249043D01*
X241957Y-169693D02*
Y-166937D01*
X249043Y-169693D02*
Y-166937D01*
X244417Y-168315D02*
X246583D01*
X245500Y-169398D02*
Y-167232D01*
X323417Y-7815D02*
X325583D01*
X324500Y-8898D02*
Y-6732D01*
X323122Y-11358D02*
X325878D01*
X323122Y-4272D02*
X325878D01*
Y-11358D02*
Y-4272D01*
X323122Y-11358D02*
Y-4272D01*
X276917Y-151847D02*
X279083D01*
X278000Y-152929D02*
Y-150764D01*
X276622Y-155390D02*
X279378D01*
X276622Y-148303D02*
X279378D01*
X276622Y-155390D02*
Y-148303D01*
X279378Y-155390D02*
Y-148303D01*
X144417Y-13315D02*
X146583D01*
X145500Y-14398D02*
Y-12232D01*
X144122Y-9772D02*
X146878D01*
X144122Y-16858D02*
X146878D01*
X144122D02*
Y-9772D01*
X146878Y-16858D02*
Y-9772D01*
X150878Y-8858D02*
Y-1772D01*
X148122Y-8858D02*
Y-1772D01*
Y-8858D02*
X150878D01*
X148122Y-1772D02*
X150878D01*
X149500Y-6398D02*
Y-4232D01*
X148417Y-5315D02*
X150583D01*
X120957Y-27937D02*
X128043D01*
X120957Y-30693D02*
X128043D01*
X120957D02*
Y-27937D01*
X128043Y-30693D02*
Y-27937D01*
X123417Y-29315D02*
X125583D01*
X124500Y-30398D02*
Y-28232D01*
X303457Y-144941D02*
Y-141004D01*
X301488Y-142972D02*
X305425D01*
X340417Y-113315D02*
X342583D01*
X341500Y-114398D02*
Y-112232D01*
X340122Y-109772D02*
X342878D01*
X340122Y-116858D02*
X342878D01*
X340122D02*
Y-109772D01*
X342878Y-116858D02*
Y-109772D01*
X326417Y-105815D02*
X328583D01*
X327500Y-106898D02*
Y-104732D01*
X326122Y-109358D02*
X328878D01*
X326122Y-102272D02*
X328878D01*
Y-109358D02*
Y-102272D01*
X326122Y-109358D02*
Y-102272D01*
X235622Y-84858D02*
Y-77772D01*
X238378Y-84858D02*
Y-77772D01*
X235622Y-84858D02*
X238378D01*
X235622Y-77772D02*
X238378D01*
X237000Y-82398D02*
Y-80232D01*
X235917Y-81315D02*
X238083D01*
D184*
X291252Y-155177D02*
X315661D01*
X291252Y-130768D02*
X315661D01*
Y-155177D02*
Y-130768D01*
X291252Y-155177D02*
Y-130768D01*
M02*
