G04 Layer_Physical_Order=3*
G04 Layer_Color=36540*
%FSLAX25Y25*%
%MOIN*%
G70*
G01*
G75*
%ADD44C,0.00800*%
%ADD45C,0.04000*%
%ADD46C,0.02000*%
%ADD47C,0.01000*%
%ADD48C,0.00600*%
%ADD49C,0.00500*%
%ADD66C,0.11811*%
%ADD67C,0.03740*%
G04:AMPARAMS|DCode=68|XSize=236.22mil|YSize=236.22mil|CornerRadius=0mil|HoleSize=0mil|Usage=FLASHONLY|Rotation=0.000|XOffset=0mil|YOffset=0mil|HoleType=Round|Shape=RoundedRectangle|*
%AMROUNDEDRECTD68*
21,1,0.23622,0.23622,0,0,0.0*
21,1,0.23622,0.23622,0,0,0.0*
1,1,0.00000,0.11811,-0.11811*
1,1,0.00000,-0.11811,-0.11811*
1,1,0.00000,-0.11811,0.11811*
1,1,0.00000,0.11811,0.11811*
%
%ADD68ROUNDEDRECTD68*%
%ADD69C,0.05906*%
%ADD71C,0.01600*%
%ADD72C,0.03000*%
%ADD73C,0.02200*%
%ADD74C,0.01800*%
%ADD75C,0.02400*%
%ADD76C,0.01799*%
%ADD77C,0.02598*%
%ADD78C,0.01969*%
%ADD79C,0.12000*%
G36*
X342520Y3013D02*
X343299Y2910D01*
X344026Y2609D01*
X344650Y2130D01*
X345129Y1506D01*
X345430Y780D01*
X345532Y0D01*
X345539D01*
Y-70472D01*
X345532D01*
X345430Y-71252D01*
X345129Y-71979D01*
X344650Y-72603D01*
X344026Y-73082D01*
X343299Y-73383D01*
X342520Y-73485D01*
Y-73492D01*
X336221D01*
Y-73468D01*
X334958Y-73634D01*
X333781Y-74121D01*
X332771Y-74897D01*
X332757Y-74915D01*
X332283Y-74754D01*
Y-73716D01*
X332500Y-73500D01*
X320000D01*
Y-82000D01*
X326347D01*
X326538Y-82462D01*
X326500Y-82500D01*
Y-86000D01*
X320000D01*
Y-105000D01*
X325500D01*
X326000Y-105500D01*
Y-99000D01*
X329000D01*
Y-105000D01*
X332450D01*
X332771Y-105418D01*
X333781Y-106194D01*
X334958Y-106681D01*
X336221Y-106847D01*
Y-106823D01*
X342520D01*
Y-106830D01*
X343299Y-106932D01*
X344026Y-107233D01*
X344650Y-107712D01*
X345129Y-108336D01*
X345430Y-109063D01*
X345532Y-109843D01*
X345539D01*
Y-113500D01*
X343000D01*
Y-121500D01*
X340000D01*
Y-113500D01*
X333000D01*
Y-132500D01*
Y-145000D01*
X338000D01*
Y-133000D01*
X341500D01*
Y-145000D01*
X345539D01*
Y-176772D01*
X345532D01*
X345430Y-177551D01*
X345129Y-178278D01*
X344650Y-178902D01*
X344026Y-179381D01*
X343299Y-179682D01*
X342520Y-179784D01*
Y-179791D01*
X257874D01*
Y-179784D01*
X257125Y-179883D01*
X256427Y-180172D01*
X255828Y-180631D01*
X255368Y-181230D01*
X255079Y-181928D01*
X254981Y-182677D01*
X254988D01*
Y-183334D01*
X3937D01*
Y-183328D01*
X3157Y-183225D01*
X2431Y-182924D01*
X1807Y-182445D01*
X1328Y-181821D01*
X1027Y-181095D01*
X924Y-180315D01*
X918D01*
Y-76378D01*
X930D01*
X1009Y-75981D01*
X1234Y-75644D01*
X1571Y-75419D01*
X1969Y-75340D01*
Y-75327D01*
X7087D01*
Y-75351D01*
X8349Y-75185D01*
X9526Y-74698D01*
X10536Y-73922D01*
X11312Y-72912D01*
X11799Y-71735D01*
X11965Y-70472D01*
X11941D01*
Y-46850D01*
X11941Y-46850D01*
D01*
D01*
X11941Y-46850D01*
Y-46850D01*
X11965D01*
X11965Y-46847D01*
X11943Y-46679D01*
X11917Y-46486D01*
Y-46486D01*
Y-46486D01*
Y-46486D01*
D01*
X11799Y-45588D01*
Y-45588D01*
X11312Y-44411D01*
X10536Y-43401D01*
X9526Y-42625D01*
X8349Y-42138D01*
X7087Y-41972D01*
Y-41996D01*
X7087Y-41996D01*
X1969D01*
Y-41983D01*
X1571Y-41904D01*
X1234Y-41679D01*
X1009Y-41342D01*
X930Y-40945D01*
X918D01*
Y0D01*
X924D01*
X1027Y780D01*
X1328Y1506D01*
X1807Y2130D01*
X2431Y2609D01*
X3157Y2910D01*
X3937Y3013D01*
Y3019D01*
X104446D01*
X104495Y2522D01*
X104259Y2475D01*
X103630Y2055D01*
X103210Y1426D01*
X103063Y685D01*
X103210Y-56D01*
X103630Y-685D01*
X104259Y-1105D01*
X105000Y-1252D01*
X105741Y-1105D01*
X106370Y-685D01*
X106790Y-56D01*
X106937Y685D01*
X106790Y1426D01*
X106370Y2055D01*
X105741Y2475D01*
X105505Y2522D01*
X105554Y3019D01*
X342520D01*
Y3013D01*
D02*
G37*
%LPC*%
G36*
X184737Y-77832D02*
X184113Y-77956D01*
X183583Y-78310D01*
X183230Y-78839D01*
X183106Y-79463D01*
X183230Y-80087D01*
X183583Y-80616D01*
X184113Y-80970D01*
X184737Y-81094D01*
X185361Y-80970D01*
X185891Y-80616D01*
X186244Y-80087D01*
X186368Y-79463D01*
X186244Y-78839D01*
X185891Y-78310D01*
X185361Y-77956D01*
X184737Y-77832D01*
D02*
G37*
G36*
X66037Y-78108D02*
X65569Y-78201D01*
X65172Y-78466D01*
X64906Y-78863D01*
X64813Y-79331D01*
X64906Y-79800D01*
X65172Y-80197D01*
X65569Y-80462D01*
X66037Y-80555D01*
X66505Y-80462D01*
X66902Y-80197D01*
X67167Y-79800D01*
X67260Y-79331D01*
X67167Y-78863D01*
X66902Y-78466D01*
X66505Y-78201D01*
X66037Y-78108D01*
D02*
G37*
G36*
X251000Y-77878D02*
X250259Y-78025D01*
X249630Y-78445D01*
X249210Y-79074D01*
X249063Y-79815D01*
X249210Y-80556D01*
X249630Y-81185D01*
X250259Y-81605D01*
X251000Y-81752D01*
X251741Y-81605D01*
X252370Y-81185D01*
X252790Y-80556D01*
X252937Y-79815D01*
X252790Y-79074D01*
X252370Y-78445D01*
X251741Y-78025D01*
X251000Y-77878D01*
D02*
G37*
G36*
X261000D02*
X260259Y-78025D01*
X259630Y-78445D01*
X259210Y-79074D01*
X259063Y-79815D01*
X259210Y-80556D01*
X259630Y-81185D01*
X260259Y-81605D01*
X261000Y-81752D01*
X261741Y-81605D01*
X262370Y-81185D01*
X262790Y-80556D01*
X262937Y-79815D01*
X262790Y-79074D01*
X262370Y-78445D01*
X261741Y-78025D01*
X261000Y-77878D01*
D02*
G37*
G36*
X265000Y-75878D02*
X264259Y-76025D01*
X263630Y-76445D01*
X263210Y-77074D01*
X263063Y-77815D01*
X263210Y-78556D01*
X263630Y-79185D01*
X264259Y-79605D01*
X265000Y-79752D01*
X265741Y-79605D01*
X266370Y-79185D01*
X266790Y-78556D01*
X266937Y-77815D01*
X266790Y-77074D01*
X266370Y-76445D01*
X265741Y-76025D01*
X265000Y-75878D01*
D02*
G37*
G36*
X57297Y-70092D02*
X56828Y-70185D01*
X56432Y-70450D01*
X56166Y-70847D01*
X56073Y-71315D01*
X56166Y-71784D01*
X56432Y-72181D01*
X56828Y-72446D01*
X56859Y-72598D01*
X56836Y-72613D01*
X56570Y-73010D01*
X56477Y-73479D01*
X56570Y-73947D01*
X56836Y-74344D01*
X57232Y-74609D01*
X57701Y-74702D01*
X58169Y-74609D01*
X58566Y-74344D01*
X58831Y-73947D01*
X58924Y-73479D01*
X58831Y-73010D01*
X58566Y-72613D01*
X58169Y-72348D01*
X58139Y-72196D01*
X58162Y-72181D01*
X58427Y-71784D01*
X58520Y-71315D01*
X58427Y-70847D01*
X58162Y-70450D01*
X57765Y-70185D01*
X57297Y-70092D01*
D02*
G37*
G36*
X311024Y-73485D02*
Y-73492D01*
X287402D01*
Y-73485D01*
X286653Y-73583D01*
X285955Y-73872D01*
X285356Y-74332D01*
X284896Y-74931D01*
X284607Y-75629D01*
X284508Y-76378D01*
X284607Y-77127D01*
X284896Y-77825D01*
X285356Y-78424D01*
X285955Y-78884D01*
X286653Y-79173D01*
X287402Y-79271D01*
Y-79264D01*
X311024D01*
Y-79271D01*
X311772Y-79173D01*
X312470Y-78884D01*
X313070Y-78424D01*
X313529Y-77825D01*
X313818Y-77127D01*
X313917Y-76378D01*
X313818Y-75629D01*
X313529Y-74931D01*
X313070Y-74332D01*
X312470Y-73872D01*
X311772Y-73583D01*
X311024Y-73485D01*
D02*
G37*
G36*
X14459Y-75530D02*
X13991Y-75623D01*
X13594Y-75888D01*
X13328Y-76285D01*
X13235Y-76753D01*
X13328Y-77222D01*
X13594Y-77619D01*
X13991Y-77884D01*
X14459Y-77977D01*
X14927Y-77884D01*
X15324Y-77619D01*
X15589Y-77222D01*
X15682Y-76753D01*
X15589Y-76285D01*
X15324Y-75888D01*
X14927Y-75623D01*
X14459Y-75530D01*
D02*
G37*
G36*
X74062Y-75106D02*
X73593Y-75199D01*
X73197Y-75464D01*
X72931Y-75861D01*
X72838Y-76329D01*
X72931Y-76798D01*
X73197Y-77195D01*
X73593Y-77460D01*
X74062Y-77553D01*
X74530Y-77460D01*
X74927Y-77195D01*
X75192Y-76798D01*
X75285Y-76329D01*
X75192Y-75861D01*
X74927Y-75464D01*
X74530Y-75199D01*
X74062Y-75106D01*
D02*
G37*
G36*
X213000Y-101060D02*
X212532Y-101153D01*
X212135Y-101418D01*
X211870Y-101815D01*
X211776Y-102284D01*
X211870Y-102752D01*
X212135Y-103149D01*
X212532Y-103414D01*
X213000Y-103507D01*
X213468Y-103414D01*
X213865Y-103149D01*
X214130Y-102752D01*
X214224Y-102284D01*
X214130Y-101815D01*
X213865Y-101418D01*
X213468Y-101153D01*
X213000Y-101060D01*
D02*
G37*
G36*
X185000Y-95591D02*
X184532Y-95685D01*
X184135Y-95950D01*
X183870Y-96347D01*
X183776Y-96815D01*
X183870Y-97283D01*
X184135Y-97680D01*
X184532Y-97945D01*
X185000Y-98039D01*
X185468Y-97945D01*
X185865Y-97680D01*
X186130Y-97283D01*
X186223Y-96815D01*
X186130Y-96347D01*
X185865Y-95950D01*
X185468Y-95685D01*
X185000Y-95591D01*
D02*
G37*
G36*
X101500Y-103184D02*
X100876Y-103308D01*
X100347Y-103661D01*
X99993Y-104191D01*
X99869Y-104815D01*
X99993Y-105439D01*
X100347Y-105968D01*
X100876Y-106322D01*
X101500Y-106446D01*
X102124Y-106322D01*
X102654Y-105968D01*
X103007Y-105439D01*
X103131Y-104815D01*
X103007Y-104191D01*
X102654Y-103661D01*
X102124Y-103308D01*
X101500Y-103184D01*
D02*
G37*
G36*
X183696Y-101895D02*
X183228Y-101988D01*
X182831Y-102253D01*
X182566Y-102650D01*
X182473Y-103119D01*
X182566Y-103587D01*
X182831Y-103984D01*
X183228Y-104249D01*
X183696Y-104342D01*
X184165Y-104249D01*
X184562Y-103984D01*
X184827Y-103587D01*
X184920Y-103119D01*
X184827Y-102650D01*
X184562Y-102253D01*
X184165Y-101988D01*
X183696Y-101895D01*
D02*
G37*
G36*
X58453Y-90676D02*
X57985Y-90769D01*
X57588Y-91034D01*
X57322Y-91431D01*
X57229Y-91900D01*
X57322Y-92368D01*
X57588Y-92765D01*
X57985Y-93030D01*
X58453Y-93123D01*
X58921Y-93030D01*
X59318Y-92765D01*
X59583Y-92368D01*
X59676Y-91900D01*
X59583Y-91431D01*
X59318Y-91034D01*
X58921Y-90769D01*
X58453Y-90676D01*
D02*
G37*
G36*
X305457Y-80035D02*
X304715Y-80183D01*
X304087Y-80603D01*
X303667Y-81231D01*
X303520Y-81972D01*
X303667Y-82714D01*
X304087Y-83342D01*
X304715Y-83762D01*
X305457Y-83910D01*
X306198Y-83762D01*
X306826Y-83342D01*
X307246Y-82714D01*
X307394Y-81972D01*
X307246Y-81231D01*
X306826Y-80603D01*
X306198Y-80183D01*
X305457Y-80035D01*
D02*
G37*
G36*
X279457Y-79535D02*
X278715Y-79683D01*
X278087Y-80103D01*
X277667Y-80731D01*
X277519Y-81472D01*
X277667Y-82214D01*
X278087Y-82842D01*
X278715Y-83262D01*
X279457Y-83410D01*
X280198Y-83262D01*
X280826Y-82842D01*
X281246Y-82214D01*
X281394Y-81472D01*
X281246Y-80731D01*
X280826Y-80103D01*
X280198Y-79683D01*
X279457Y-79535D01*
D02*
G37*
G36*
X104859Y-87832D02*
X104235Y-87956D01*
X103705Y-88310D01*
X103352Y-88839D01*
X103227Y-89463D01*
X103352Y-90087D01*
X103705Y-90617D01*
X104235Y-90970D01*
X104859Y-91094D01*
X105483Y-90970D01*
X106012Y-90617D01*
X106366Y-90087D01*
X106490Y-89463D01*
X106366Y-88839D01*
X106012Y-88310D01*
X105483Y-87956D01*
X104859Y-87832D01*
D02*
G37*
G36*
X62927Y-86242D02*
X62458Y-86335D01*
X62062Y-86600D01*
X61796Y-86997D01*
X61703Y-87466D01*
X61796Y-87934D01*
X62062Y-88331D01*
X62458Y-88596D01*
X62927Y-88689D01*
X63395Y-88596D01*
X63792Y-88331D01*
X64057Y-87934D01*
X64150Y-87466D01*
X64057Y-86997D01*
X63792Y-86600D01*
X63395Y-86335D01*
X62927Y-86242D01*
D02*
G37*
G36*
X285957Y-69035D02*
X285215Y-69183D01*
X284587Y-69603D01*
X284167Y-70231D01*
X284019Y-70972D01*
X284167Y-71714D01*
X284587Y-72342D01*
X285215Y-72762D01*
X285957Y-72910D01*
X286698Y-72762D01*
X287327Y-72342D01*
X287747Y-71714D01*
X287894Y-70972D01*
X287747Y-70231D01*
X287327Y-69603D01*
X286698Y-69183D01*
X285957Y-69035D01*
D02*
G37*
G36*
X54712Y-62626D02*
X54243Y-62719D01*
X53847Y-62984D01*
X53581Y-63381D01*
X53488Y-63850D01*
X53581Y-64318D01*
X53847Y-64715D01*
X54243Y-64980D01*
X54712Y-65073D01*
X55180Y-64980D01*
X55577Y-64715D01*
X55842Y-64318D01*
X55935Y-63850D01*
X55842Y-63381D01*
X55577Y-62984D01*
X55180Y-62719D01*
X54712Y-62626D01*
D02*
G37*
G36*
X339000Y-62500D02*
X338114Y-62677D01*
X337363Y-63178D01*
X336862Y-63929D01*
X336750Y-64490D01*
X336250D01*
X336138Y-63929D01*
X335637Y-63178D01*
X334886Y-62677D01*
X334000Y-62500D01*
X333114Y-62677D01*
X332363Y-63178D01*
X331862Y-63929D01*
X331750Y-64490D01*
X331250D01*
X331138Y-63929D01*
X330637Y-63178D01*
X329886Y-62677D01*
X329000Y-62500D01*
X328114Y-62677D01*
X327363Y-63178D01*
X326862Y-63929D01*
X326685Y-64815D01*
X326862Y-65701D01*
X327363Y-66452D01*
X328114Y-66953D01*
X329000Y-67129D01*
X329886Y-66953D01*
X330637Y-66452D01*
X331138Y-65701D01*
X331250Y-65140D01*
X331750D01*
X331862Y-65701D01*
X332363Y-66452D01*
X333114Y-66953D01*
X334000Y-67129D01*
X334886Y-66953D01*
X335637Y-66452D01*
X336138Y-65701D01*
X336250Y-65140D01*
X336750D01*
X336862Y-65701D01*
X337363Y-66452D01*
X338114Y-66953D01*
X339000Y-67129D01*
X339886Y-66953D01*
X340637Y-66452D01*
X341138Y-65701D01*
X341315Y-64815D01*
X341138Y-63929D01*
X340637Y-63178D01*
X339886Y-62677D01*
X339000Y-62500D01*
D02*
G37*
G36*
X20959Y-64030D02*
X20491Y-64123D01*
X20094Y-64388D01*
X19828Y-64785D01*
X19735Y-65254D01*
X19828Y-65722D01*
X20094Y-66119D01*
X20491Y-66384D01*
X20959Y-66477D01*
X21427Y-66384D01*
X21824Y-66119D01*
X22089Y-65722D01*
X22182Y-65254D01*
X22089Y-64785D01*
X21824Y-64388D01*
X21427Y-64123D01*
X20959Y-64030D01*
D02*
G37*
G36*
X85198Y-63971D02*
X84729Y-64064D01*
X84333Y-64329D01*
X84067Y-64726D01*
X83974Y-65194D01*
X84067Y-65663D01*
X84333Y-66060D01*
X84729Y-66325D01*
X85198Y-66418D01*
X85666Y-66325D01*
X86063Y-66060D01*
X86328Y-65663D01*
X86421Y-65194D01*
X86328Y-64726D01*
X86063Y-64329D01*
X85666Y-64064D01*
X85198Y-63971D01*
D02*
G37*
G36*
X247000Y-61091D02*
X246532Y-61185D01*
X246135Y-61450D01*
X245870Y-61847D01*
X245777Y-62315D01*
X245870Y-62783D01*
X246135Y-63180D01*
X246532Y-63445D01*
X247000Y-63538D01*
X247468Y-63445D01*
X247865Y-63180D01*
X248130Y-62783D01*
X248223Y-62315D01*
X248130Y-61847D01*
X247865Y-61450D01*
X247468Y-61185D01*
X247000Y-61091D01*
D02*
G37*
G36*
X155500Y-59591D02*
X155032Y-59685D01*
X154635Y-59950D01*
X154370Y-60347D01*
X154277Y-60815D01*
X154370Y-61283D01*
X154635Y-61680D01*
X155032Y-61945D01*
X155500Y-62038D01*
X155968Y-61945D01*
X156365Y-61680D01*
X156630Y-61283D01*
X156723Y-60815D01*
X156630Y-60347D01*
X156365Y-59950D01*
X155968Y-59685D01*
X155500Y-59591D01*
D02*
G37*
G36*
X183000Y-58684D02*
X182376Y-58808D01*
X181846Y-59161D01*
X181493Y-59691D01*
X181369Y-60315D01*
X181493Y-60939D01*
X181846Y-61468D01*
X182376Y-61822D01*
X183000Y-61946D01*
X183624Y-61822D01*
X184153Y-61468D01*
X184507Y-60939D01*
X184631Y-60315D01*
X184507Y-59691D01*
X184153Y-59161D01*
X183624Y-58808D01*
X183000Y-58684D01*
D02*
G37*
G36*
X23959Y-61030D02*
X23491Y-61123D01*
X23094Y-61388D01*
X22828Y-61785D01*
X22735Y-62253D01*
X22828Y-62722D01*
X23094Y-63119D01*
X23491Y-63384D01*
X23959Y-63477D01*
X24427Y-63384D01*
X24824Y-63119D01*
X25089Y-62722D01*
X25182Y-62253D01*
X25089Y-61785D01*
X24824Y-61388D01*
X24427Y-61123D01*
X23959Y-61030D01*
D02*
G37*
G36*
X35459D02*
X34991Y-61123D01*
X34594Y-61388D01*
X34328Y-61785D01*
X34235Y-62253D01*
X34328Y-62722D01*
X34594Y-63119D01*
X34991Y-63384D01*
X35459Y-63477D01*
X35927Y-63384D01*
X36324Y-63119D01*
X36589Y-62722D01*
X36682Y-62253D01*
X36589Y-61785D01*
X36324Y-61388D01*
X35927Y-61123D01*
X35459Y-61030D01*
D02*
G37*
G36*
X80727Y-68408D02*
X80259Y-68501D01*
X79862Y-68766D01*
X79596Y-69163D01*
X79503Y-69631D01*
X79596Y-70100D01*
X79862Y-70497D01*
X80259Y-70762D01*
X80727Y-70855D01*
X81195Y-70762D01*
X81592Y-70497D01*
X81857Y-70100D01*
X81950Y-69631D01*
X81857Y-69163D01*
X81592Y-68766D01*
X81195Y-68501D01*
X80727Y-68408D01*
D02*
G37*
G36*
X17959Y-67030D02*
X17491Y-67123D01*
X17094Y-67388D01*
X16828Y-67785D01*
X16735Y-68253D01*
X16828Y-68722D01*
X17094Y-69119D01*
X17491Y-69384D01*
X17959Y-69477D01*
X18427Y-69384D01*
X18824Y-69119D01*
X19089Y-68722D01*
X19182Y-68253D01*
X19089Y-67785D01*
X18824Y-67388D01*
X18427Y-67123D01*
X17959Y-67030D01*
D02*
G37*
G36*
X38237Y-70439D02*
X37769Y-70533D01*
X37372Y-70798D01*
X37107Y-71195D01*
X37014Y-71663D01*
X37107Y-72131D01*
X37372Y-72528D01*
X37769Y-72793D01*
X38237Y-72887D01*
X38705Y-72793D01*
X39102Y-72528D01*
X39367Y-72131D01*
X39461Y-71663D01*
X39367Y-71195D01*
X39102Y-70798D01*
X38705Y-70533D01*
X38237Y-70439D01*
D02*
G37*
G36*
X14959Y-70030D02*
X14491Y-70123D01*
X14094Y-70388D01*
X13828Y-70785D01*
X13735Y-71254D01*
X13828Y-71722D01*
X14094Y-72119D01*
X14491Y-72384D01*
X14959Y-72477D01*
X15427Y-72384D01*
X15824Y-72119D01*
X16089Y-71722D01*
X16182Y-71254D01*
X16089Y-70785D01*
X15824Y-70388D01*
X15427Y-70123D01*
X14959Y-70030D01*
D02*
G37*
G36*
X82970Y-66198D02*
X82502Y-66291D01*
X82105Y-66556D01*
X81839Y-66953D01*
X81746Y-67422D01*
X81839Y-67890D01*
X82105Y-68287D01*
X82502Y-68552D01*
X82970Y-68645D01*
X83438Y-68552D01*
X83835Y-68287D01*
X84100Y-67890D01*
X84193Y-67422D01*
X84100Y-66953D01*
X83835Y-66556D01*
X83438Y-66291D01*
X82970Y-66198D01*
D02*
G37*
G36*
X249000Y-67091D02*
X248532Y-67185D01*
X248250Y-67373D01*
X247968Y-67185D01*
X247500Y-67091D01*
X247032Y-67185D01*
X246635Y-67450D01*
X246370Y-67847D01*
X246276Y-68315D01*
X246370Y-68783D01*
X246635Y-69180D01*
X247032Y-69445D01*
X247500Y-69538D01*
X247968Y-69445D01*
X248250Y-69257D01*
X248532Y-69445D01*
X249000Y-69538D01*
X249309Y-69477D01*
X249370Y-69783D01*
X249635Y-70180D01*
X250032Y-70445D01*
X250500Y-70539D01*
X250968Y-70445D01*
X251365Y-70180D01*
X251630Y-69783D01*
X251724Y-69315D01*
X251630Y-68847D01*
X251365Y-68450D01*
X250968Y-68185D01*
X250500Y-68091D01*
X250191Y-68153D01*
X250130Y-67847D01*
X249865Y-67450D01*
X249468Y-67185D01*
X249000Y-67091D01*
D02*
G37*
G36*
X282000Y-62878D02*
X281259Y-63025D01*
X280630Y-63445D01*
X280210Y-64074D01*
X280063Y-64815D01*
X280210Y-65556D01*
X280630Y-66185D01*
X281259Y-66605D01*
X282000Y-66752D01*
X282741Y-66605D01*
X283370Y-66185D01*
X283790Y-65556D01*
X283937Y-64815D01*
X283790Y-64074D01*
X283370Y-63445D01*
X282741Y-63025D01*
X282000Y-62878D01*
D02*
G37*
G36*
X42543Y-65858D02*
X42074Y-65951D01*
X41678Y-66216D01*
X41412Y-66613D01*
X41319Y-67081D01*
X41412Y-67550D01*
X41678Y-67947D01*
X42074Y-68212D01*
X42543Y-68305D01*
X43011Y-68212D01*
X43408Y-67947D01*
X43673Y-67550D01*
X43766Y-67081D01*
X43673Y-66613D01*
X43408Y-66216D01*
X43011Y-65951D01*
X42543Y-65858D01*
D02*
G37*
G36*
X68959Y-65630D02*
X68490Y-65723D01*
X68094Y-65988D01*
X67828Y-66385D01*
X67735Y-66853D01*
X67828Y-67322D01*
X68094Y-67719D01*
X68490Y-67984D01*
X68959Y-68077D01*
X69427Y-67984D01*
X69824Y-67719D01*
X70089Y-67322D01*
X70182Y-66853D01*
X70089Y-66385D01*
X69824Y-65988D01*
X69427Y-65723D01*
X68959Y-65630D01*
D02*
G37*
G36*
X268457Y-99658D02*
X267571Y-99834D01*
X266820Y-100336D01*
X266318Y-101087D01*
X266142Y-101972D01*
X266318Y-102858D01*
X266820Y-103609D01*
X267571Y-104111D01*
X268132Y-104222D01*
Y-104722D01*
X267571Y-104834D01*
X266820Y-105336D01*
X266318Y-106087D01*
X266142Y-106972D01*
X266318Y-107858D01*
X266820Y-108609D01*
X267571Y-109111D01*
X268457Y-109287D01*
X269342Y-109111D01*
X270093Y-108609D01*
X270595Y-107858D01*
X270771Y-106972D01*
X270595Y-106087D01*
X270093Y-105336D01*
X269342Y-104834D01*
X268781Y-104722D01*
Y-104222D01*
X269342Y-104111D01*
X270093Y-103609D01*
X270595Y-102858D01*
X270771Y-101972D01*
X270595Y-101087D01*
X270093Y-100336D01*
X269342Y-99834D01*
X268457Y-99658D01*
D02*
G37*
G36*
X252500Y-149378D02*
X251759Y-149525D01*
X251130Y-149945D01*
X250710Y-150574D01*
X250563Y-151315D01*
X250710Y-152056D01*
X251130Y-152685D01*
X251759Y-153105D01*
X252500Y-153252D01*
X253241Y-153105D01*
X253870Y-152685D01*
X254290Y-152056D01*
X254437Y-151315D01*
X254290Y-150574D01*
X253870Y-149945D01*
X253241Y-149525D01*
X252500Y-149378D01*
D02*
G37*
G36*
X236403Y-143399D02*
X235662Y-143546D01*
X235033Y-143966D01*
X234613Y-144595D01*
X234466Y-145336D01*
X234613Y-146078D01*
X235033Y-146706D01*
X235662Y-147126D01*
X236403Y-147274D01*
X237144Y-147126D01*
X237773Y-146706D01*
X238193Y-146078D01*
X238340Y-145336D01*
X238193Y-144595D01*
X237773Y-143966D01*
X237144Y-143546D01*
X236403Y-143399D01*
D02*
G37*
G36*
X309957Y-154535D02*
X309215Y-154683D01*
X308587Y-155103D01*
X308167Y-155731D01*
X308019Y-156472D01*
X308167Y-157214D01*
X308587Y-157842D01*
X309215Y-158262D01*
X309957Y-158410D01*
X310698Y-158262D01*
X311327Y-157842D01*
X311747Y-157214D01*
X311894Y-156472D01*
X311747Y-155731D01*
X311327Y-155103D01*
X310698Y-154683D01*
X309957Y-154535D01*
D02*
G37*
G36*
X226837Y-143739D02*
X226369Y-143833D01*
X225972Y-144098D01*
X225707Y-144495D01*
X225613Y-144963D01*
X225707Y-145431D01*
X225972Y-145828D01*
X226074Y-145897D01*
Y-158059D01*
X225633Y-158295D01*
X225468Y-158185D01*
X225000Y-158091D01*
X224532Y-158185D01*
X224135Y-158450D01*
X223870Y-158847D01*
X223777Y-159315D01*
X223870Y-159783D01*
X224135Y-160180D01*
X224532Y-160445D01*
X225000Y-160538D01*
X225468Y-160445D01*
X225633Y-160335D01*
X226074Y-160571D01*
Y-161763D01*
X225872Y-161898D01*
X225607Y-162295D01*
X225514Y-162763D01*
X225607Y-163231D01*
X225872Y-163628D01*
X226269Y-163893D01*
X226737Y-163987D01*
X227205Y-163893D01*
X227602Y-163628D01*
X227696Y-163488D01*
X228174Y-163633D01*
Y-164463D01*
X227972Y-164598D01*
X227707Y-164995D01*
X227613Y-165463D01*
X227707Y-165931D01*
X227972Y-166328D01*
X228369Y-166593D01*
X228837Y-166686D01*
X229305Y-166593D01*
X229702Y-166328D01*
X229967Y-165931D01*
X230061Y-165463D01*
X229967Y-164995D01*
X229702Y-164598D01*
X229500Y-164463D01*
Y-163844D01*
X229972Y-163528D01*
X230369Y-163793D01*
X230837Y-163886D01*
X231305Y-163793D01*
X231702Y-163528D01*
X231896Y-163238D01*
X232374Y-163383D01*
Y-164063D01*
X232172Y-164198D01*
X231907Y-164595D01*
X231814Y-165063D01*
X231907Y-165531D01*
X232172Y-165928D01*
X232569Y-166193D01*
X233037Y-166287D01*
X233505Y-166193D01*
X233902Y-165928D01*
X234167Y-165531D01*
X234261Y-165063D01*
X234167Y-164595D01*
X233902Y-164198D01*
X233700Y-164063D01*
Y-152763D01*
X233902Y-152628D01*
X234167Y-152231D01*
X234261Y-151763D01*
X234167Y-151295D01*
X233902Y-150898D01*
X233505Y-150633D01*
X233037Y-150540D01*
X232569Y-150633D01*
X232172Y-150898D01*
X231978Y-151188D01*
X231500Y-151042D01*
Y-149663D01*
X231702Y-149528D01*
X231967Y-149131D01*
X232061Y-148663D01*
X231967Y-148195D01*
X231702Y-147798D01*
X231305Y-147533D01*
X230837Y-147440D01*
X230369Y-147533D01*
X230029Y-147023D01*
X230061Y-146863D01*
X229967Y-146395D01*
X229702Y-145998D01*
X229305Y-145733D01*
X228837Y-145640D01*
X228369Y-145733D01*
X227968Y-145520D01*
X227967Y-145431D01*
X227967Y-145431D01*
X227967Y-145431D01*
X228061Y-144963D01*
X227967Y-144495D01*
X227702Y-144098D01*
X227305Y-143833D01*
X226837Y-143739D01*
D02*
G37*
G36*
X185037Y-144439D02*
X184569Y-144533D01*
X184172Y-144798D01*
X183907Y-145195D01*
X183814Y-145663D01*
X183907Y-146131D01*
X184172Y-146528D01*
X184569Y-146793D01*
X185037Y-146887D01*
X185505Y-146793D01*
X185902Y-146528D01*
X186167Y-146131D01*
X186260Y-145663D01*
X186167Y-145195D01*
X185902Y-144798D01*
X185505Y-144533D01*
X185037Y-144439D01*
D02*
G37*
G36*
X89200Y-142459D02*
X88732Y-142552D01*
X88335Y-142817D01*
X88070Y-143214D01*
X87976Y-143682D01*
X88070Y-144151D01*
X88335Y-144547D01*
X88732Y-144813D01*
X89200Y-144906D01*
X89668Y-144813D01*
X90065Y-144547D01*
X90330Y-144151D01*
X90424Y-143682D01*
X90330Y-143214D01*
X90065Y-142817D01*
X89668Y-142552D01*
X89200Y-142459D01*
D02*
G37*
G36*
X279000Y-138878D02*
X278259Y-139025D01*
X277630Y-139445D01*
X277210Y-140074D01*
X277063Y-140815D01*
X277210Y-141556D01*
X277630Y-142185D01*
X278259Y-142605D01*
X279000Y-142752D01*
X279741Y-142605D01*
X280370Y-142185D01*
X280790Y-141556D01*
X280937Y-140815D01*
X280790Y-140074D01*
X280370Y-139445D01*
X279741Y-139025D01*
X279000Y-138878D01*
D02*
G37*
G36*
X316957Y-142035D02*
X316215Y-142183D01*
X315587Y-142603D01*
X315167Y-143231D01*
X315019Y-143972D01*
X315167Y-144714D01*
X315587Y-145342D01*
X316215Y-145762D01*
X316957Y-145910D01*
X317698Y-145762D01*
X318326Y-145342D01*
X318746Y-144714D01*
X318894Y-143972D01*
X318746Y-143231D01*
X318326Y-142603D01*
X317698Y-142183D01*
X316957Y-142035D01*
D02*
G37*
G36*
X72437Y-142638D02*
X71930Y-142738D01*
X71500Y-143026D01*
X71212Y-143456D01*
X71112Y-143963D01*
X71212Y-144470D01*
X71500Y-144900D01*
X71930Y-145188D01*
X72437Y-145289D01*
X72944Y-145188D01*
X73374Y-144900D01*
X73662Y-144470D01*
X73763Y-143963D01*
X73662Y-143456D01*
X73374Y-143026D01*
X72944Y-142738D01*
X72437Y-142638D01*
D02*
G37*
G36*
X236500Y-164092D02*
X236032Y-164185D01*
X235635Y-164450D01*
X235370Y-164847D01*
X235277Y-165315D01*
X235370Y-165783D01*
X235635Y-166180D01*
X236032Y-166445D01*
X236500Y-166539D01*
X236968Y-166445D01*
X237365Y-166180D01*
X237630Y-165783D01*
X237723Y-165315D01*
X237630Y-164847D01*
X237365Y-164450D01*
X236968Y-164185D01*
X236500Y-164092D01*
D02*
G37*
G36*
X245000Y-163592D02*
X244532Y-163685D01*
X244135Y-163950D01*
X243870Y-164347D01*
X243776Y-164815D01*
X243870Y-165283D01*
X244135Y-165680D01*
X244532Y-165945D01*
X245000Y-166039D01*
X245468Y-165945D01*
X245865Y-165680D01*
X246130Y-165283D01*
X246223Y-164815D01*
X246130Y-164347D01*
X245865Y-163950D01*
X245468Y-163685D01*
X245000Y-163592D01*
D02*
G37*
G36*
X53500Y-173878D02*
X52759Y-174025D01*
X52130Y-174445D01*
X51710Y-175074D01*
X51563Y-175815D01*
X51710Y-176556D01*
X52130Y-177185D01*
X52759Y-177605D01*
X53500Y-177752D01*
X54241Y-177605D01*
X54870Y-177185D01*
X55040Y-176930D01*
X55530Y-177028D01*
X55667Y-177714D01*
X56087Y-178342D01*
X56715Y-178762D01*
X57457Y-178910D01*
X58198Y-178762D01*
X58827Y-178342D01*
X59246Y-177714D01*
X59394Y-176972D01*
X59246Y-176231D01*
X58827Y-175603D01*
X58198Y-175183D01*
X57457Y-175035D01*
X56715Y-175183D01*
X56087Y-175603D01*
X55917Y-175857D01*
X55426Y-175760D01*
X55290Y-175074D01*
X54870Y-174445D01*
X54241Y-174025D01*
X53500Y-173878D01*
D02*
G37*
G36*
X278000Y-170091D02*
X277532Y-170185D01*
X277135Y-170450D01*
X276870Y-170847D01*
X276777Y-171315D01*
X276870Y-171783D01*
X277135Y-172180D01*
X277532Y-172445D01*
X278000Y-172538D01*
X278468Y-172445D01*
X278865Y-172180D01*
X279130Y-171783D01*
X279223Y-171315D01*
X279130Y-170847D01*
X278865Y-170450D01*
X278468Y-170185D01*
X278000Y-170091D01*
D02*
G37*
G36*
X250637Y-154139D02*
X250169Y-154233D01*
X249772Y-154498D01*
X249507Y-154895D01*
X249413Y-155363D01*
X249507Y-155831D01*
X249772Y-156228D01*
X249974Y-156363D01*
Y-163452D01*
X249772Y-163587D01*
X249507Y-163984D01*
X249413Y-164452D01*
X249507Y-164920D01*
X249772Y-165317D01*
X250169Y-165582D01*
X250637Y-165675D01*
X251105Y-165582D01*
X251502Y-165317D01*
X251767Y-164920D01*
X252132Y-164769D01*
X252169Y-164793D01*
X252637Y-164886D01*
X253105Y-164793D01*
X253343Y-165149D01*
X253370Y-165283D01*
X253635Y-165680D01*
X254032Y-165945D01*
X254500Y-166039D01*
X254968Y-165945D01*
X255365Y-165680D01*
X255630Y-165283D01*
X255724Y-164815D01*
X255630Y-164347D01*
X255365Y-163950D01*
X255214Y-163849D01*
Y-160554D01*
X255402Y-160428D01*
X255667Y-160031D01*
X255761Y-159563D01*
X255667Y-159095D01*
X255402Y-158698D01*
X255005Y-158433D01*
X254537Y-158340D01*
X254537Y-158340D01*
X254537Y-158340D01*
X254017Y-158178D01*
X253885Y-158045D01*
X253960Y-157663D01*
X253867Y-157195D01*
X253602Y-156798D01*
X253205Y-156533D01*
X252737Y-156439D01*
X252269Y-156533D01*
X251872Y-156798D01*
X251778Y-156938D01*
X251300Y-156793D01*
Y-156363D01*
X251502Y-156228D01*
X251767Y-155831D01*
X251860Y-155363D01*
X251767Y-154895D01*
X251502Y-154498D01*
X251105Y-154233D01*
X250637Y-154139D01*
D02*
G37*
G36*
X293000Y-155878D02*
X292259Y-156025D01*
X291630Y-156445D01*
X291210Y-157074D01*
X291063Y-157815D01*
X291210Y-158556D01*
X291630Y-159185D01*
X292259Y-159605D01*
X293000Y-159752D01*
X293741Y-159605D01*
X294370Y-159185D01*
X294790Y-158556D01*
X294937Y-157815D01*
X294790Y-157074D01*
X294370Y-156445D01*
X293741Y-156025D01*
X293000Y-155878D01*
D02*
G37*
G36*
X22707Y-155785D02*
X21965Y-155933D01*
X21337Y-156353D01*
X20917Y-156981D01*
X20770Y-157722D01*
X20917Y-158464D01*
X21337Y-159092D01*
X21965Y-159512D01*
X22707Y-159660D01*
X23448Y-159512D01*
X24077Y-159092D01*
X24497Y-158464D01*
X24644Y-157722D01*
X24497Y-156981D01*
X24077Y-156353D01*
X23448Y-155933D01*
X22707Y-155785D01*
D02*
G37*
G36*
X242783Y-159594D02*
X242042Y-159742D01*
X241414Y-160162D01*
X240994Y-160790D01*
X240846Y-161531D01*
X240994Y-162273D01*
X241414Y-162901D01*
X242042Y-163321D01*
X242783Y-163469D01*
X243525Y-163321D01*
X244153Y-162901D01*
X244573Y-162273D01*
X244721Y-161531D01*
X244573Y-160790D01*
X244153Y-160162D01*
X243525Y-159742D01*
X242783Y-159594D01*
D02*
G37*
G36*
X67000Y-158878D02*
X66259Y-159025D01*
X65630Y-159445D01*
X65210Y-160074D01*
X65063Y-160815D01*
X65210Y-161556D01*
X65630Y-162185D01*
X66259Y-162605D01*
X67000Y-162752D01*
X67741Y-162605D01*
X68370Y-162185D01*
X68790Y-161556D01*
X68937Y-160815D01*
X68790Y-160074D01*
X68370Y-159445D01*
X67741Y-159025D01*
X67000Y-158878D01*
D02*
G37*
G36*
X273957Y-138535D02*
X273215Y-138683D01*
X272587Y-139103D01*
X272167Y-139731D01*
X272020Y-140472D01*
X272167Y-141214D01*
X272587Y-141842D01*
X273215Y-142262D01*
X273957Y-142410D01*
X274698Y-142262D01*
X275326Y-141842D01*
X275746Y-141214D01*
X275894Y-140472D01*
X275746Y-139731D01*
X275326Y-139103D01*
X274698Y-138683D01*
X273957Y-138535D01*
D02*
G37*
G36*
X327957Y-122535D02*
X327215Y-122683D01*
X326587Y-123103D01*
X326167Y-123731D01*
X326020Y-124472D01*
X326167Y-125214D01*
X326587Y-125842D01*
X327215Y-126262D01*
X327957Y-126410D01*
X328698Y-126262D01*
X329327Y-125842D01*
X329747Y-125214D01*
X329894Y-124472D01*
X329747Y-123731D01*
X329327Y-123103D01*
X328698Y-122683D01*
X327957Y-122535D01*
D02*
G37*
G36*
X306457Y-125749D02*
X305989Y-125842D01*
X305592Y-126107D01*
X305457Y-126309D01*
X304957D01*
X304822Y-126107D01*
X304425Y-125842D01*
X303957Y-125749D01*
X303488Y-125842D01*
X303092Y-126107D01*
X302957Y-126309D01*
X302457D01*
X302322Y-126107D01*
X301925Y-125842D01*
X301457Y-125749D01*
X300989Y-125842D01*
X300591Y-126107D01*
X300457Y-126309D01*
X299957D01*
X299822Y-126107D01*
X299425Y-125842D01*
X298957Y-125749D01*
X298488Y-125842D01*
X298092Y-126107D01*
X297826Y-126504D01*
X297733Y-126972D01*
X297769Y-127151D01*
X296120Y-128800D01*
X295679Y-128564D01*
X295680Y-128559D01*
X295587Y-128091D01*
X295322Y-127694D01*
X294925Y-127429D01*
X294457Y-127336D01*
X293988Y-127429D01*
X293592Y-127694D01*
X293490Y-127845D01*
X288370D01*
X288097Y-127900D01*
X287865Y-128054D01*
X286298Y-129621D01*
X285943Y-129692D01*
X285705Y-129668D01*
X285327Y-129103D01*
X284698Y-128683D01*
X283957Y-128535D01*
X283215Y-128683D01*
X282587Y-129103D01*
X282167Y-129731D01*
X282019Y-130472D01*
X282167Y-131214D01*
X282587Y-131842D01*
X283215Y-132262D01*
X283957Y-132410D01*
X284698Y-132262D01*
X285302Y-131859D01*
X285743Y-132094D01*
Y-138091D01*
X283973Y-139861D01*
X283973Y-139862D01*
X272676Y-151158D01*
X272214Y-150967D01*
Y-148781D01*
X272365Y-148680D01*
X272630Y-148283D01*
X272724Y-147815D01*
X272630Y-147347D01*
X272365Y-146950D01*
X271968Y-146685D01*
X271500Y-146591D01*
X271032Y-146685D01*
X270635Y-146950D01*
X270370Y-147347D01*
X270276Y-147815D01*
X270370Y-148283D01*
X270635Y-148680D01*
X270786Y-148781D01*
Y-151634D01*
X260614Y-161806D01*
X260173Y-161570D01*
X260224Y-161315D01*
X260130Y-160847D01*
X259865Y-160450D01*
X259468Y-160185D01*
X259000Y-160091D01*
X258532Y-160185D01*
X258135Y-160450D01*
X257870Y-160847D01*
X257776Y-161315D01*
X257870Y-161783D01*
X258038Y-162035D01*
X258038Y-162047D01*
X258286Y-162668D01*
Y-164134D01*
X255020Y-167399D01*
X175037D01*
X174764Y-167454D01*
X174532Y-167608D01*
X168882Y-173259D01*
X158800D01*
X158749Y-173004D01*
X158484Y-172607D01*
X158087Y-172342D01*
X157619Y-172249D01*
X157150Y-172342D01*
X156754Y-172607D01*
X156488Y-173004D01*
X156395Y-173472D01*
X156475Y-173872D01*
X156158Y-174259D01*
X153115D01*
X152508Y-173651D01*
X152543Y-173472D01*
X152450Y-173004D01*
X152185Y-172607D01*
X151788Y-172342D01*
X151320Y-172249D01*
X150852Y-172342D01*
X150455Y-172607D01*
X150189Y-173004D01*
X150096Y-173472D01*
X149891Y-173678D01*
X149745Y-173649D01*
X149276Y-173742D01*
X148880Y-174007D01*
X148614Y-174404D01*
X148521Y-174872D01*
X148170Y-175049D01*
D01*
X147702Y-175142D01*
X147304Y-175407D01*
X147039Y-175804D01*
X146946Y-176272D01*
X147039Y-176741D01*
X147304Y-177138D01*
X147702Y-177403D01*
X148170Y-177496D01*
X148348Y-177460D01*
X148365Y-177477D01*
X148597Y-177632D01*
X148870Y-177686D01*
X150183D01*
X150419Y-178127D01*
X150307Y-178295D01*
X150214Y-178763D01*
X150307Y-179231D01*
X150572Y-179628D01*
X150723Y-179729D01*
Y-179953D01*
X150778Y-180226D01*
X150932Y-180457D01*
X152952Y-182477D01*
X152952D01*
X152952Y-182477D01*
X152952Y-182477D01*
Y-182477D01*
X153184Y-182632D01*
X153457Y-182686D01*
X168842D01*
X169116Y-182632D01*
X169347Y-182477D01*
X176857Y-174967D01*
X177336Y-175112D01*
X177370Y-175283D01*
X177635Y-175680D01*
X178032Y-175945D01*
X178500Y-176039D01*
X178968Y-175945D01*
X179365Y-175680D01*
X179630Y-175283D01*
X179724Y-174815D01*
X179630Y-174347D01*
X179365Y-173950D01*
X179402Y-173827D01*
X240286D01*
Y-177019D01*
X239179Y-178127D01*
X239000Y-178092D01*
X238532Y-178185D01*
X238135Y-178450D01*
X237870Y-178847D01*
X237776Y-179315D01*
X237870Y-179783D01*
X238135Y-180180D01*
X238532Y-180445D01*
X239000Y-180538D01*
X239468Y-180445D01*
X239865Y-180180D01*
X240130Y-179783D01*
X240224Y-179315D01*
X240188Y-179136D01*
X241505Y-177820D01*
X241659Y-177588D01*
X241714Y-177315D01*
Y-173827D01*
X257387D01*
X257661Y-173772D01*
X257892Y-173618D01*
X269324Y-162185D01*
X269786Y-162377D01*
Y-166854D01*
X269400Y-167171D01*
X269000Y-167092D01*
X268532Y-167185D01*
X268135Y-167450D01*
X267870Y-167847D01*
X267776Y-168315D01*
X267870Y-168783D01*
X268135Y-169180D01*
X268532Y-169445D01*
X269000Y-169538D01*
X269400Y-169459D01*
X269786Y-169776D01*
Y-171349D01*
X269635Y-171450D01*
X269370Y-171847D01*
X269276Y-172315D01*
X269370Y-172783D01*
X269635Y-173180D01*
X270032Y-173445D01*
X270500Y-173538D01*
X270968Y-173445D01*
X271365Y-173180D01*
X271630Y-172783D01*
X271724Y-172315D01*
X271630Y-171847D01*
X271365Y-171450D01*
X271214Y-171349D01*
Y-161710D01*
X276220Y-156704D01*
X276777Y-156815D01*
X276870Y-157283D01*
X277135Y-157680D01*
X277532Y-157945D01*
X278000Y-158038D01*
X278468Y-157945D01*
X278865Y-157680D01*
X279130Y-157283D01*
X279223Y-156815D01*
X279130Y-156347D01*
X278865Y-155950D01*
X278468Y-155685D01*
X278000Y-155591D01*
X277889Y-155035D01*
X291961Y-140963D01*
X292116Y-140731D01*
X292170Y-140458D01*
Y-136482D01*
X293624Y-135029D01*
X301943D01*
X302216Y-134974D01*
X302447Y-134820D01*
X306581Y-130686D01*
X309490D01*
X309592Y-130838D01*
X309988Y-131103D01*
X310457Y-131196D01*
X310925Y-131103D01*
X311322Y-130838D01*
X311587Y-130441D01*
X311680Y-129972D01*
X311587Y-129504D01*
X311322Y-129107D01*
X310925Y-128842D01*
X310457Y-128749D01*
X310032Y-128833D01*
X309679Y-128480D01*
X309680Y-128472D01*
X309587Y-128004D01*
X309322Y-127607D01*
X308925Y-127342D01*
X308457Y-127249D01*
X308032Y-127333D01*
X307679Y-126980D01*
X307680Y-126972D01*
X307587Y-126504D01*
X307322Y-126107D01*
X306925Y-125842D01*
X306457Y-125749D01*
D02*
G37*
G36*
X234000Y-126378D02*
X233259Y-126525D01*
X232630Y-126945D01*
X232210Y-127574D01*
X232075Y-128253D01*
X231585Y-128350D01*
X231201Y-127777D01*
X230573Y-127357D01*
X229831Y-127209D01*
X229090Y-127357D01*
X228462Y-127777D01*
X228042Y-128405D01*
X227894Y-129146D01*
X228042Y-129888D01*
X228462Y-130516D01*
X229090Y-130936D01*
X229831Y-131084D01*
X230573Y-130936D01*
X231201Y-130516D01*
X231621Y-129888D01*
X231756Y-129208D01*
X232247Y-129111D01*
X232630Y-129685D01*
X233259Y-130105D01*
X234000Y-130252D01*
X234741Y-130105D01*
X235370Y-129685D01*
X235790Y-129056D01*
X235937Y-128315D01*
X235790Y-127574D01*
X235370Y-126945D01*
X234741Y-126525D01*
X234000Y-126378D01*
D02*
G37*
G36*
X264000Y-123378D02*
X263259Y-123525D01*
X262630Y-123945D01*
X262210Y-124574D01*
X262063Y-125315D01*
X262210Y-126056D01*
X262630Y-126685D01*
X263259Y-127105D01*
X264000Y-127252D01*
X264741Y-127105D01*
X265370Y-126685D01*
X265790Y-126056D01*
X265937Y-125315D01*
X265790Y-124574D01*
X265370Y-123945D01*
X264741Y-123525D01*
X264000Y-123378D01*
D02*
G37*
G36*
X101500Y-117184D02*
X100876Y-117308D01*
X100347Y-117661D01*
X99993Y-118191D01*
X99869Y-118815D01*
X99993Y-119439D01*
X100347Y-119968D01*
X100876Y-120322D01*
X101500Y-120446D01*
X102124Y-120322D01*
X102654Y-119968D01*
X103007Y-119439D01*
X103131Y-118815D01*
X103007Y-118191D01*
X102654Y-117661D01*
X102124Y-117308D01*
X101500Y-117184D01*
D02*
G37*
G36*
X259000Y-111378D02*
X258259Y-111525D01*
X257630Y-111945D01*
X257210Y-112574D01*
X257063Y-113315D01*
X257210Y-114056D01*
X257630Y-114685D01*
X258259Y-115105D01*
X259000Y-115252D01*
X259741Y-115105D01*
X260370Y-114685D01*
X260790Y-114056D01*
X260937Y-113315D01*
X260790Y-112574D01*
X260370Y-111945D01*
X259741Y-111525D01*
X259000Y-111378D01*
D02*
G37*
G36*
X304457Y-107035D02*
X303715Y-107183D01*
X303087Y-107603D01*
X302667Y-108231D01*
X302519Y-108972D01*
X302667Y-109714D01*
X303087Y-110342D01*
X303715Y-110762D01*
X303977Y-110814D01*
X304337Y-111353D01*
X303917Y-111981D01*
X303769Y-112722D01*
X303917Y-113464D01*
X304337Y-114092D01*
X304965Y-114512D01*
X305707Y-114660D01*
X306448Y-114512D01*
X307077Y-114092D01*
X307497Y-113464D01*
X307644Y-112722D01*
X307497Y-111981D01*
X307077Y-111353D01*
X306448Y-110933D01*
X306186Y-110881D01*
X305826Y-110342D01*
X306246Y-109714D01*
X306394Y-108972D01*
X306246Y-108231D01*
X305826Y-107603D01*
X305198Y-107183D01*
X304457Y-107035D01*
D02*
G37*
G36*
X268000Y-113378D02*
X267259Y-113525D01*
X266630Y-113945D01*
X266210Y-114574D01*
X266063Y-115315D01*
X266210Y-116056D01*
X266630Y-116685D01*
X267259Y-117105D01*
X268000Y-117252D01*
X268741Y-117105D01*
X269370Y-116685D01*
X269790Y-116056D01*
X269937Y-115315D01*
X269790Y-114574D01*
X269370Y-113945D01*
X268741Y-113525D01*
X268000Y-113378D01*
D02*
G37*
G36*
X278795Y-112697D02*
X278054Y-112844D01*
X277426Y-113264D01*
X277006Y-113892D01*
X276858Y-114634D01*
X277006Y-115375D01*
X277426Y-116004D01*
X278054Y-116424D01*
X278795Y-116571D01*
X279537Y-116424D01*
X280165Y-116004D01*
X280585Y-115375D01*
X280732Y-114634D01*
X280585Y-113892D01*
X280165Y-113264D01*
X279537Y-112844D01*
X278795Y-112697D01*
D02*
G37*
G36*
X67500Y-5091D02*
X67032Y-5185D01*
X66635Y-5450D01*
X66370Y-5847D01*
X66277Y-6315D01*
X66370Y-6783D01*
X66635Y-7180D01*
Y-7450D01*
X66370Y-7847D01*
X66277Y-8315D01*
X66370Y-8783D01*
X66635Y-9180D01*
X67032Y-9445D01*
X67500Y-9539D01*
X67968Y-9445D01*
X68365Y-9180D01*
X68500Y-8978D01*
X74225D01*
X78579Y-13332D01*
X78794Y-13475D01*
X79048Y-13526D01*
X89262D01*
X95674Y-19938D01*
Y-89363D01*
X95725Y-89617D01*
X95868Y-89832D01*
X95868Y-89832D01*
X95868Y-89832D01*
X106774Y-100738D01*
Y-139676D01*
X106651Y-139759D01*
X106333Y-139928D01*
X105968Y-139685D01*
X105500Y-139592D01*
X105032Y-139685D01*
X104635Y-139950D01*
X104370Y-140347D01*
X104277Y-140815D01*
X104370Y-141283D01*
X104635Y-141680D01*
X105032Y-141945D01*
X105500Y-142039D01*
X105968Y-141945D01*
X106333Y-141701D01*
X106651Y-141872D01*
X106774Y-141954D01*
Y-161063D01*
X106572Y-161198D01*
X106307Y-161595D01*
X106213Y-162063D01*
X106307Y-162531D01*
X106572Y-162928D01*
X106969Y-163193D01*
X107437Y-163286D01*
X107905Y-163193D01*
X108302Y-162928D01*
X108437Y-162726D01*
X108937D01*
X109072Y-162928D01*
X109469Y-163193D01*
X109937Y-163286D01*
X110405Y-163193D01*
X110802Y-162928D01*
X111067Y-162531D01*
X111161Y-162063D01*
X111067Y-161595D01*
X110802Y-161198D01*
X110405Y-160933D01*
X109937Y-160839D01*
X109698Y-160887D01*
X109000Y-160188D01*
Y-100090D01*
X108949Y-99837D01*
X108806Y-99622D01*
X97900Y-88716D01*
Y-19290D01*
X97849Y-19037D01*
X97706Y-18822D01*
X90378Y-11494D01*
X90163Y-11351D01*
X89910Y-11300D01*
X79922D01*
X74469Y-5846D01*
X74254Y-5703D01*
X74000Y-5652D01*
X68500D01*
X68365Y-5450D01*
X67968Y-5185D01*
X67500Y-5091D01*
D02*
G37*
G36*
X85207Y-135785D02*
X84465Y-135933D01*
X83837Y-136353D01*
X83417Y-136981D01*
X83270Y-137722D01*
X83417Y-138464D01*
X83837Y-139092D01*
X84465Y-139512D01*
X85207Y-139660D01*
X85948Y-139512D01*
X86576Y-139092D01*
X86997Y-138464D01*
X87144Y-137722D01*
X86997Y-136981D01*
X86576Y-136353D01*
X85948Y-135933D01*
X85207Y-135785D01*
D02*
G37*
G36*
X47000Y-139489D02*
X46493Y-139590D01*
X46063Y-139878D01*
X45775Y-140308D01*
X45674Y-140815D01*
X45775Y-141322D01*
X46063Y-141752D01*
X46493Y-142040D01*
X47000Y-142140D01*
X47507Y-142040D01*
X47937Y-141752D01*
X48225Y-141322D01*
X48325Y-140815D01*
X48225Y-140308D01*
X47937Y-139878D01*
X47507Y-139590D01*
X47000Y-139489D01*
D02*
G37*
G36*
X111500Y-138092D02*
X111032Y-138185D01*
X110635Y-138450D01*
X110370Y-138847D01*
X110276Y-139315D01*
X110370Y-139783D01*
X110635Y-140180D01*
X111032Y-140445D01*
X111500Y-140539D01*
X111968Y-140445D01*
X112365Y-140180D01*
X112630Y-139783D01*
X112724Y-139315D01*
X112630Y-138847D01*
X112365Y-138450D01*
X111968Y-138185D01*
X111500Y-138092D01*
D02*
G37*
G36*
X103500Y-136091D02*
X103032Y-136185D01*
X102635Y-136450D01*
X102370Y-136847D01*
X102277Y-137315D01*
X102370Y-137783D01*
X102635Y-138180D01*
X103032Y-138445D01*
X103500Y-138539D01*
X103968Y-138445D01*
X104365Y-138180D01*
X104630Y-137783D01*
X104724Y-137315D01*
X104630Y-136847D01*
X104365Y-136450D01*
X103968Y-136185D01*
X103500Y-136091D01*
D02*
G37*
G36*
X251207Y-129285D02*
X250465Y-129433D01*
X249837Y-129853D01*
X249417Y-130481D01*
X249270Y-131222D01*
X249417Y-131964D01*
X249837Y-132592D01*
X250465Y-133012D01*
X251207Y-133160D01*
X251948Y-133012D01*
X252576Y-132592D01*
X252996Y-131964D01*
X253144Y-131222D01*
X252996Y-130481D01*
X252576Y-129853D01*
X251948Y-129433D01*
X251207Y-129285D01*
D02*
G37*
G36*
X254707Y-124785D02*
X253965Y-124933D01*
X253337Y-125353D01*
X252917Y-125981D01*
X252769Y-126722D01*
X252917Y-127464D01*
X253337Y-128092D01*
X253965Y-128512D01*
X254707Y-128660D01*
X255448Y-128512D01*
X256077Y-128092D01*
X256497Y-127464D01*
X256644Y-126722D01*
X256497Y-125981D01*
X256077Y-125353D01*
X255448Y-124933D01*
X254707Y-124785D01*
D02*
G37*
G36*
X111500Y-135091D02*
X111032Y-135185D01*
X110635Y-135450D01*
X110370Y-135847D01*
X110276Y-136315D01*
X110370Y-136783D01*
X110635Y-137180D01*
X111032Y-137445D01*
X111500Y-137539D01*
X111968Y-137445D01*
X112365Y-137180D01*
X112630Y-136783D01*
X112724Y-136315D01*
X112630Y-135847D01*
X112365Y-135450D01*
X111968Y-135185D01*
X111500Y-135091D01*
D02*
G37*
G36*
X22468Y-131409D02*
X21727Y-131557D01*
X21099Y-131977D01*
X20679Y-132605D01*
X20531Y-133346D01*
X20679Y-134088D01*
X21099Y-134716D01*
X21727Y-135136D01*
X22468Y-135284D01*
X23210Y-135136D01*
X23838Y-134716D01*
X24258Y-134088D01*
X24406Y-133346D01*
X24258Y-132605D01*
X23838Y-131977D01*
X23210Y-131557D01*
X22468Y-131409D01*
D02*
G37*
G36*
X269000Y-17592D02*
X268532Y-17685D01*
X268135Y-17950D01*
X267870Y-18347D01*
X267776Y-18815D01*
X267870Y-19283D01*
X268135Y-19680D01*
X268532Y-19945D01*
X269000Y-20039D01*
X269468Y-19945D01*
X269865Y-19680D01*
X270130Y-19283D01*
X270223Y-18815D01*
X270130Y-18347D01*
X269865Y-17950D01*
X269468Y-17685D01*
X269000Y-17592D01*
D02*
G37*
G36*
X213500Y-13878D02*
X212759Y-14025D01*
X212130Y-14445D01*
X211710Y-15074D01*
X211563Y-15815D01*
X211710Y-16556D01*
X212130Y-17185D01*
X212759Y-17605D01*
X213500Y-17752D01*
X214241Y-17605D01*
X214870Y-17185D01*
X215290Y-16556D01*
X215437Y-15815D01*
X215290Y-15074D01*
X214870Y-14445D01*
X214241Y-14025D01*
X213500Y-13878D01*
D02*
G37*
G36*
X62559Y-22330D02*
X62090Y-22423D01*
X61694Y-22688D01*
X61428Y-23085D01*
X61335Y-23553D01*
X61428Y-24022D01*
X61694Y-24419D01*
X62090Y-24684D01*
X62559Y-24777D01*
X63027Y-24684D01*
X63424Y-24419D01*
X63689Y-24022D01*
X63782Y-23553D01*
X63689Y-23085D01*
X63424Y-22688D01*
X63027Y-22423D01*
X62559Y-22330D01*
D02*
G37*
G36*
X72837Y-19826D02*
X72096Y-19973D01*
X71467Y-20393D01*
X71047Y-21022D01*
X70900Y-21763D01*
X71047Y-22504D01*
X71467Y-23133D01*
X72096Y-23553D01*
X72837Y-23700D01*
X73578Y-23553D01*
X74207Y-23133D01*
X74627Y-22504D01*
X74774Y-21763D01*
X74627Y-21022D01*
X74207Y-20393D01*
X73578Y-19973D01*
X72837Y-19826D01*
D02*
G37*
G36*
X161537Y-15139D02*
X161069Y-15233D01*
X160672Y-15498D01*
X160407Y-15895D01*
X160313Y-16363D01*
X160407Y-16831D01*
X160672Y-17228D01*
X161069Y-17493D01*
X161537Y-17586D01*
X162005Y-17493D01*
X162402Y-17228D01*
X162667Y-16831D01*
X162760Y-16363D01*
X162667Y-15895D01*
X162402Y-15498D01*
X162005Y-15233D01*
X161537Y-15139D01*
D02*
G37*
G36*
X267000Y-13591D02*
X266532Y-13685D01*
X266135Y-13950D01*
X265870Y-14347D01*
X265776Y-14815D01*
X265870Y-15283D01*
X266135Y-15680D01*
X266532Y-15945D01*
X267000Y-16038D01*
X267468Y-15945D01*
X267865Y-15680D01*
X268130Y-15283D01*
X268224Y-14815D01*
X268130Y-14347D01*
X267865Y-13950D01*
X267468Y-13685D01*
X267000Y-13591D01*
D02*
G37*
G36*
X316000Y-12592D02*
X315532Y-12685D01*
X315135Y-12950D01*
X314870Y-13347D01*
X314776Y-13815D01*
X314870Y-14283D01*
X315135Y-14680D01*
X315532Y-14945D01*
X316000Y-15039D01*
X316468Y-14945D01*
X316865Y-14680D01*
X317130Y-14283D01*
X317224Y-13815D01*
X317130Y-13347D01*
X316865Y-12950D01*
X316468Y-12685D01*
X316000Y-12592D01*
D02*
G37*
G36*
X298750Y-13628D02*
X298009Y-13775D01*
X297380Y-14195D01*
X296960Y-14824D01*
X296813Y-15565D01*
X296960Y-16306D01*
X297380Y-16935D01*
X298009Y-17355D01*
X298750Y-17502D01*
X299491Y-17355D01*
X300120Y-16935D01*
X300540Y-16306D01*
X300687Y-15565D01*
X300540Y-14824D01*
X300120Y-14195D01*
X299491Y-13775D01*
X298750Y-13628D01*
D02*
G37*
G36*
X263500Y-9591D02*
X263032Y-9685D01*
X262635Y-9950D01*
X262370Y-10347D01*
X262277Y-10815D01*
X262370Y-11283D01*
X262635Y-11680D01*
X262837Y-11815D01*
Y-12315D01*
X262635Y-12450D01*
X262370Y-12847D01*
X262277Y-13315D01*
X262370Y-13783D01*
X262635Y-14180D01*
Y-14611D01*
X262370Y-15008D01*
X262277Y-15476D01*
X262370Y-15945D01*
X262635Y-16341D01*
X263032Y-16607D01*
X263500Y-16700D01*
X263968Y-16607D01*
X264365Y-16341D01*
X264630Y-15945D01*
X264723Y-15476D01*
X264630Y-15008D01*
X264365Y-14611D01*
Y-14180D01*
X264630Y-13783D01*
X264723Y-13315D01*
X264630Y-12847D01*
X264365Y-12450D01*
X264163Y-12315D01*
Y-11815D01*
X264365Y-11680D01*
X264630Y-11283D01*
X264723Y-10815D01*
X264630Y-10347D01*
X264365Y-9950D01*
X263968Y-9685D01*
X263500Y-9591D01*
D02*
G37*
G36*
X158000Y-24092D02*
X157532Y-24185D01*
X157135Y-24450D01*
X156870Y-24847D01*
X156776Y-25315D01*
X156870Y-25783D01*
X157135Y-26180D01*
X157532Y-26445D01*
X158000Y-26539D01*
X158468Y-26445D01*
X158865Y-26180D01*
X159130Y-25783D01*
X159223Y-25315D01*
X159130Y-24847D01*
X158865Y-24450D01*
X158468Y-24185D01*
X158000Y-24092D01*
D02*
G37*
G36*
X56259Y-28428D02*
X55752Y-28529D01*
X55322Y-28816D01*
X55034Y-29246D01*
X54933Y-29754D01*
X55034Y-30261D01*
X55322Y-30691D01*
X55752Y-30978D01*
X56259Y-31079D01*
X56766Y-30978D01*
X57196Y-30691D01*
X57483Y-30261D01*
X57584Y-29754D01*
X57483Y-29246D01*
X57196Y-28816D01*
X56766Y-28529D01*
X56259Y-28428D01*
D02*
G37*
G36*
X213500Y-26378D02*
X212759Y-26525D01*
X212130Y-26945D01*
X211710Y-27574D01*
X211563Y-28315D01*
X211710Y-29056D01*
X212130Y-29685D01*
X212759Y-30105D01*
X213500Y-30252D01*
X214241Y-30105D01*
X214870Y-29685D01*
X215290Y-29056D01*
X215437Y-28315D01*
X215290Y-27574D01*
X214870Y-26945D01*
X214241Y-26525D01*
X213500Y-26378D01*
D02*
G37*
G36*
X50259Y-34530D02*
X49790Y-34623D01*
X49394Y-34888D01*
X49128Y-35285D01*
X49035Y-35754D01*
X49128Y-36222D01*
X49394Y-36619D01*
X49790Y-36884D01*
X50259Y-36977D01*
X50727Y-36884D01*
X51124Y-36619D01*
X51389Y-36222D01*
X51482Y-35754D01*
X51389Y-35285D01*
X51124Y-34888D01*
X50727Y-34623D01*
X50259Y-34530D01*
D02*
G37*
G36*
X53359Y-31428D02*
X52851Y-31529D01*
X52421Y-31816D01*
X52134Y-32246D01*
X52033Y-32754D01*
X52134Y-33261D01*
X52421Y-33691D01*
X52851Y-33978D01*
X53359Y-34079D01*
X53866Y-33978D01*
X54296Y-33691D01*
X54583Y-33261D01*
X54684Y-32754D01*
X54583Y-32246D01*
X54296Y-31816D01*
X53866Y-31529D01*
X53359Y-31428D01*
D02*
G37*
G36*
X100531Y-25652D02*
X99907Y-25776D01*
X99378Y-26130D01*
X99024Y-26659D01*
X98900Y-27283D01*
X99024Y-27908D01*
X99378Y-28437D01*
X99907Y-28791D01*
X100531Y-28915D01*
X101156Y-28791D01*
X101685Y-28437D01*
X102039Y-27908D01*
X102163Y-27283D01*
X102039Y-26659D01*
X101685Y-26130D01*
X101156Y-25776D01*
X100531Y-25652D01*
D02*
G37*
G36*
X59259Y-25428D02*
X58751Y-25529D01*
X58321Y-25816D01*
X58034Y-26246D01*
X57933Y-26754D01*
X58034Y-27261D01*
X58321Y-27691D01*
X58751Y-27978D01*
X59259Y-28079D01*
X59766Y-27978D01*
X60196Y-27691D01*
X60483Y-27261D01*
X60584Y-26754D01*
X60483Y-26246D01*
X60196Y-25816D01*
X59766Y-25529D01*
X59259Y-25428D01*
D02*
G37*
G36*
X122500Y-24178D02*
X121759Y-24325D01*
X121130Y-24745D01*
X120710Y-25374D01*
X120563Y-26115D01*
X120710Y-26856D01*
X121130Y-27485D01*
X121759Y-27905D01*
X122500Y-28052D01*
X123241Y-27905D01*
X123870Y-27485D01*
X124290Y-26856D01*
X124437Y-26115D01*
X124290Y-25374D01*
X123870Y-24745D01*
X123241Y-24325D01*
X122500Y-24178D01*
D02*
G37*
G36*
X186512Y-23952D02*
X186044Y-24045D01*
X185647Y-24310D01*
X185382Y-24707D01*
X185289Y-25175D01*
X185336Y-25414D01*
X184529Y-26220D01*
X176757D01*
X176504Y-26271D01*
X176288Y-26414D01*
X175809Y-26894D01*
X175665Y-27109D01*
X175615Y-27363D01*
Y-27814D01*
X175412Y-27949D01*
X175147Y-28346D01*
X175147Y-28346D01*
Y-28346D01*
X174978Y-28544D01*
D01*
X174581Y-28279D01*
X174113Y-28186D01*
X174055Y-27895D01*
X174370Y-27685D01*
X174790Y-27056D01*
X174937Y-26315D01*
X174790Y-25574D01*
X174370Y-24945D01*
X173741Y-24525D01*
X173000Y-24378D01*
X172259Y-24525D01*
X171630Y-24945D01*
X171210Y-25574D01*
X171063Y-26315D01*
X171210Y-27056D01*
X171630Y-27685D01*
X172259Y-28105D01*
X173000Y-28252D01*
X173102Y-28763D01*
X172983Y-28941D01*
X172973Y-28989D01*
X172483Y-29086D01*
X172391Y-28950D01*
X171995Y-28685D01*
X171526Y-28591D01*
X171058Y-28685D01*
X170661Y-28950D01*
X170396Y-29347D01*
X170303Y-29815D01*
X170396Y-30283D01*
X170661Y-30680D01*
X171058Y-30945D01*
X171526Y-31038D01*
X171765Y-30991D01*
X173058Y-32284D01*
X173273Y-32427D01*
X173526Y-32478D01*
X181256D01*
X181572Y-32950D01*
X181307Y-33347D01*
X181213Y-33815D01*
X181307Y-34283D01*
X181572Y-34680D01*
X181969Y-34945D01*
X182437Y-35039D01*
X182771Y-34972D01*
X183524Y-35725D01*
X183475Y-36223D01*
X183135Y-36450D01*
X183000Y-36652D01*
X177738D01*
X177667Y-36295D01*
X177402Y-35898D01*
X177005Y-35633D01*
X176537Y-35539D01*
X176090Y-35628D01*
X175813Y-35213D01*
X176067Y-34831D01*
X176161Y-34363D01*
X176067Y-33895D01*
X175802Y-33498D01*
X175405Y-33233D01*
X174937Y-33140D01*
X174469Y-33233D01*
X174072Y-33498D01*
X173807Y-33895D01*
X173714Y-34363D01*
X173807Y-34831D01*
X174072Y-35228D01*
X174274Y-35363D01*
Y-38463D01*
X174325Y-38717D01*
X174453Y-38909D01*
X174168Y-39195D01*
X174168D01*
X174100Y-39263D01*
X173905Y-39133D01*
X173437Y-39039D01*
X172969Y-39133D01*
X172636Y-39355D01*
X172221Y-39077D01*
X172223Y-39063D01*
X172130Y-38595D01*
X171865Y-38198D01*
X171468Y-37933D01*
X171000Y-37839D01*
X170532Y-37933D01*
X170135Y-38198D01*
X169870Y-38595D01*
X169776Y-39063D01*
X169870Y-39531D01*
X170135Y-39928D01*
X170532Y-40193D01*
X171000Y-40286D01*
X171468Y-40193D01*
X171800Y-39971D01*
X172216Y-40249D01*
X172213Y-40263D01*
X172307Y-40731D01*
X172572Y-41128D01*
X172969Y-41393D01*
X173092Y-41418D01*
X173507Y-41695D01*
X173414Y-42163D01*
X173507Y-42631D01*
X173772Y-43028D01*
X174169Y-43293D01*
X174169Y-43293D01*
X173972Y-43613D01*
X173972Y-43613D01*
X173972D01*
X173707Y-44010D01*
X173614Y-44478D01*
X173707Y-44946D01*
X173972Y-45343D01*
X174369Y-45608D01*
X174837Y-45702D01*
X175305Y-45608D01*
X175702Y-45343D01*
X175967Y-44946D01*
X176060Y-44478D01*
X175967Y-44010D01*
X175702Y-43613D01*
X175305Y-43348D01*
Y-43348D01*
X175305Y-43348D01*
X175305Y-43348D01*
X175305Y-43348D01*
X175305D01*
X175277Y-43178D01*
X175502Y-43028D01*
Y-43028D01*
X175502Y-43028D01*
X175502Y-43028D01*
X175767Y-42631D01*
X175861Y-42163D01*
X175767Y-41695D01*
X175502Y-41298D01*
X175105Y-41033D01*
X174637Y-40940D01*
X174533Y-40783D01*
X174567Y-40731D01*
X174661Y-40263D01*
X174567Y-39795D01*
X174446Y-39613D01*
X174504Y-39565D01*
X174504D01*
X174832Y-39295D01*
X180320Y-44784D01*
X180535Y-44927D01*
X180789Y-44978D01*
X182000D01*
X182135Y-45180D01*
X182532Y-45445D01*
X183000Y-45538D01*
X183468Y-45445D01*
X183865Y-45180D01*
X184130Y-44783D01*
X184223Y-44315D01*
X184130Y-43847D01*
X183865Y-43450D01*
X183468Y-43185D01*
X183000Y-43091D01*
X182532Y-43185D01*
X182135Y-43450D01*
X182000Y-43652D01*
X181063D01*
X175600Y-38188D01*
Y-38110D01*
X176041Y-37875D01*
X176069Y-37893D01*
X176537Y-37986D01*
X176835Y-37927D01*
X176835Y-37927D01*
X177089Y-37978D01*
X183000D01*
X183135Y-38180D01*
X183532Y-38445D01*
X184000Y-38539D01*
X184468Y-38445D01*
X184865Y-38180D01*
X185092Y-37840D01*
X185590Y-37791D01*
X186574Y-38776D01*
Y-46088D01*
X186263Y-46400D01*
X184291D01*
X183968Y-46185D01*
X183500Y-46091D01*
X183032Y-46185D01*
X182635Y-46450D01*
X182370Y-46847D01*
X182276Y-47315D01*
X182370Y-47783D01*
X182635Y-48180D01*
X183032Y-48445D01*
X183500Y-48539D01*
X183968Y-48445D01*
X184365Y-48180D01*
X184630Y-47783D01*
X184642Y-47726D01*
X186537D01*
X186791Y-47675D01*
X187006Y-47532D01*
X187006Y-47532D01*
X187006Y-47532D01*
X187706Y-46832D01*
X187706Y-46832D01*
X187706Y-46832D01*
X187849Y-46617D01*
X187900Y-46363D01*
Y-38501D01*
X187849Y-38248D01*
X187706Y-38033D01*
X186899Y-37227D01*
X187000Y-37038D01*
X187468Y-36945D01*
X187865Y-36680D01*
X188130Y-36283D01*
X188224Y-35815D01*
X188130Y-35347D01*
X187865Y-34950D01*
X187663Y-34815D01*
Y-29815D01*
X187612Y-29561D01*
X187469Y-29346D01*
X186117Y-27994D01*
X185902Y-27851D01*
X185648Y-27800D01*
X185572D01*
X185322Y-27426D01*
X185286Y-27338D01*
X186273Y-26351D01*
X186512Y-26399D01*
X186980Y-26305D01*
X187377Y-26040D01*
X187642Y-25643D01*
X187735Y-25175D01*
X187642Y-24707D01*
X187377Y-24310D01*
X186980Y-24045D01*
X186512Y-23952D01*
D02*
G37*
G36*
X324500Y-24378D02*
X323759Y-24525D01*
X323130Y-24945D01*
X322710Y-25574D01*
X322563Y-26315D01*
X322710Y-27056D01*
X323130Y-27685D01*
X323759Y-28105D01*
X324500Y-28252D01*
X325241Y-28105D01*
X325870Y-27685D01*
X326290Y-27056D01*
X326437Y-26315D01*
X326290Y-25574D01*
X325870Y-24945D01*
X325241Y-24525D01*
X324500Y-24378D01*
D02*
G37*
G36*
X41437Y2262D02*
X40930Y2162D01*
X40500Y1874D01*
X40212Y1444D01*
X40112Y937D01*
X40212Y430D01*
X40500Y-0D01*
X40930Y-288D01*
X41437Y-389D01*
X41944Y-288D01*
X42374Y-0D01*
X42590Y323D01*
X84204D01*
X114923Y-30396D01*
Y-65635D01*
X114886Y-65821D01*
Y-67809D01*
X114886Y-67809D01*
X114886D01*
X114923Y-67995D01*
Y-72767D01*
X111632Y-76058D01*
X111478Y-76290D01*
X111423Y-76563D01*
Y-96867D01*
X110916Y-97375D01*
X110737Y-97339D01*
X110269Y-97433D01*
X109872Y-97698D01*
X109607Y-98095D01*
X109513Y-98563D01*
X109607Y-99031D01*
X109872Y-99428D01*
X110269Y-99693D01*
X110737Y-99787D01*
X111205Y-99693D01*
X111602Y-99428D01*
X111867Y-99031D01*
X111960Y-98563D01*
X111925Y-98384D01*
X112642Y-97668D01*
X112796Y-97436D01*
X112851Y-97163D01*
Y-76859D01*
X116142Y-73568D01*
X116296Y-73336D01*
X116351Y-73063D01*
X116351Y-73063D01*
X116351Y-73063D01*
Y-73063D01*
Y-67846D01*
X116314Y-67660D01*
Y-65970D01*
X116351Y-65784D01*
Y-30100D01*
X116351Y-30100D01*
X116351Y-30100D01*
X116296Y-29827D01*
X116244Y-29749D01*
X116244Y-29749D01*
X116142Y-29595D01*
Y-29595D01*
X116142Y-29595D01*
X93746Y-7199D01*
X93981Y-6758D01*
X94000Y-6762D01*
X109500D01*
X110281Y-6607D01*
X110436Y-6576D01*
X111230Y-6045D01*
X113514Y-3762D01*
X132500D01*
X133436Y-3576D01*
X134230Y-3045D01*
X134761Y-2251D01*
X134947Y-1315D01*
X134761Y-378D01*
X134230Y415D01*
X133436Y946D01*
X132500Y1132D01*
X112500D01*
X111719Y977D01*
X111564Y946D01*
X110770Y415D01*
X108486Y-1868D01*
X95014D01*
X94730Y-1585D01*
X93936Y-1054D01*
X93000Y-868D01*
X92064Y-1054D01*
X91270Y-1585D01*
X90739Y-2379D01*
X90553Y-3315D01*
X90557Y-3334D01*
X90116Y-3569D01*
X85005Y1542D01*
X84773Y1696D01*
X84500Y1751D01*
X42457D01*
X42374Y1874D01*
X41944Y2162D01*
X41437Y2262D01*
D02*
G37*
G36*
X183500Y-3591D02*
X183032Y-3685D01*
X182635Y-3950D01*
X182370Y-4347D01*
X182276Y-4815D01*
X182324Y-5054D01*
X177225Y-10152D01*
X172000D01*
X171865Y-9950D01*
X171468Y-9685D01*
X171000Y-9591D01*
X170532Y-9685D01*
X170135Y-9950D01*
X169870Y-10347D01*
X169776Y-10815D01*
X169870Y-11283D01*
X170135Y-11680D01*
Y-11950D01*
X169870Y-12347D01*
X169776Y-12815D01*
X169870Y-13283D01*
X170135Y-13680D01*
X170455Y-13894D01*
Y-14394D01*
X170135Y-14607D01*
X169870Y-15004D01*
X169776Y-15472D01*
X169870Y-15941D01*
X170135Y-16338D01*
X170219Y-16394D01*
Y-16894D01*
X170135Y-16950D01*
X169870Y-17347D01*
X169776Y-17815D01*
X169870Y-18283D01*
X170135Y-18680D01*
X170532Y-18945D01*
X171000Y-19038D01*
X171468Y-18945D01*
X171865Y-18680D01*
X172130Y-18283D01*
X172223Y-17815D01*
X172176Y-17576D01*
X172775Y-16978D01*
X180226D01*
X181324Y-18076D01*
X181277Y-18315D01*
X181370Y-18783D01*
X181635Y-19180D01*
X182032Y-19445D01*
X182500Y-19538D01*
X182968Y-19445D01*
X183365Y-19180D01*
X183630Y-18783D01*
X183723Y-18315D01*
X183630Y-17847D01*
X183365Y-17450D01*
X182968Y-17185D01*
X182500Y-17091D01*
X182261Y-17139D01*
X180969Y-15846D01*
X180754Y-15703D01*
X180500Y-15652D01*
X172500D01*
X172361Y-15562D01*
X172182Y-15228D01*
X172432Y-14978D01*
X182500D01*
X182635Y-15180D01*
X183032Y-15445D01*
X183500Y-15539D01*
X183968Y-15445D01*
X184365Y-15180D01*
X184630Y-14783D01*
X184723Y-14315D01*
X184630Y-13847D01*
X184365Y-13450D01*
X183968Y-13185D01*
X183500Y-13092D01*
X183032Y-13185D01*
X182635Y-13450D01*
X182500Y-13652D01*
X180101D01*
X179910Y-13190D01*
X183261Y-9839D01*
X183500Y-9887D01*
X183968Y-9793D01*
X184365Y-9528D01*
X184537Y-9271D01*
X184542Y-9268D01*
X184696Y-9036D01*
X184751Y-8763D01*
X184696Y-8490D01*
X184686Y-8474D01*
X184630Y-8195D01*
X184365Y-7798D01*
X183968Y-7533D01*
X183500Y-7440D01*
X183032Y-7533D01*
X182635Y-7798D01*
X182370Y-8195D01*
X182276Y-8663D01*
X182324Y-8902D01*
X179074Y-12152D01*
X172181D01*
X171865Y-11680D01*
D01*
X172000Y-11478D01*
X177500D01*
X177754Y-11427D01*
X177969Y-11284D01*
X177969Y-11284D01*
X177969Y-11284D01*
X183261Y-5991D01*
X183500Y-6038D01*
X183968Y-5945D01*
X184365Y-5680D01*
X184630Y-5283D01*
X184723Y-4815D01*
X184630Y-4347D01*
X184365Y-3950D01*
X183968Y-3685D01*
X183500Y-3591D01*
D02*
G37*
G36*
X176000D02*
X175532Y-3685D01*
X175135Y-3950D01*
X174870Y-4347D01*
X174776Y-4815D01*
X174870Y-5283D01*
X175135Y-5680D01*
X175337Y-5815D01*
Y-6315D01*
X175135Y-6450D01*
X174870Y-6847D01*
X174776Y-7315D01*
X174870Y-7783D01*
X175135Y-8180D01*
X175532Y-8445D01*
X176000Y-8539D01*
X176468Y-8445D01*
X176865Y-8180D01*
X177130Y-7783D01*
X177224Y-7315D01*
X177130Y-6847D01*
X176865Y-6450D01*
X176663Y-6315D01*
Y-5815D01*
X176865Y-5680D01*
X177130Y-5283D01*
X177224Y-4815D01*
X177130Y-4347D01*
X176865Y-3950D01*
X176468Y-3685D01*
X176000Y-3591D01*
D02*
G37*
G36*
X308500Y-5607D02*
X308032Y-5700D01*
X307635Y-5966D01*
X307370Y-6363D01*
X307277Y-6831D01*
X307370Y-7299D01*
X307635Y-7696D01*
X308032Y-7961D01*
X308500Y-8054D01*
X308968Y-7961D01*
X309365Y-7696D01*
X309630Y-7299D01*
X309723Y-6831D01*
X309630Y-6363D01*
X309365Y-5966D01*
X308968Y-5700D01*
X308500Y-5607D01*
D02*
G37*
G36*
X209500Y-1878D02*
X208759Y-2025D01*
X208130Y-2445D01*
X207710Y-3074D01*
X207563Y-3815D01*
X207710Y-4556D01*
X208130Y-5185D01*
X208759Y-5605D01*
X209500Y-5752D01*
X210241Y-5605D01*
X210870Y-5185D01*
X211290Y-4556D01*
X211437Y-3815D01*
X211290Y-3074D01*
X210870Y-2445D01*
X210241Y-2025D01*
X209500Y-1878D01*
D02*
G37*
G36*
X160137Y-1139D02*
X159669Y-1233D01*
X159272Y-1498D01*
X159007Y-1895D01*
X158914Y-2363D01*
X159007Y-2831D01*
X159272Y-3228D01*
X159669Y-3493D01*
X160137Y-3587D01*
X160605Y-3493D01*
X161002Y-3228D01*
X161267Y-2831D01*
X161361Y-2363D01*
X161267Y-1895D01*
X161002Y-1498D01*
X160605Y-1233D01*
X160137Y-1139D01*
D02*
G37*
G36*
X37437Y2262D02*
X36930Y2162D01*
X36500Y1874D01*
X36212Y1444D01*
X36187Y1316D01*
X35687D01*
X35662Y1444D01*
X35374Y1874D01*
X34944Y2162D01*
X34437Y2262D01*
X33930Y2162D01*
X33500Y1874D01*
X33212Y1444D01*
X33112Y937D01*
X33212Y430D01*
X33500Y-0D01*
X33930Y-288D01*
X34437Y-389D01*
X34944Y-288D01*
X35374Y-0D01*
X35662Y430D01*
X35687Y558D01*
X36187D01*
X36212Y430D01*
X36500Y-0D01*
X36930Y-288D01*
X37437Y-389D01*
X37944Y-288D01*
X38374Y-0D01*
X38662Y430D01*
X38763Y937D01*
X38662Y1444D01*
X38374Y1874D01*
X37944Y2162D01*
X37437Y2262D01*
D02*
G37*
G36*
X292000Y-3741D02*
X291532Y-3835D01*
X291135Y-4100D01*
X290870Y-4497D01*
X290843Y-4631D01*
X290401Y-4926D01*
X290357Y-4944D01*
X289968Y-4685D01*
X289500Y-4591D01*
X289032Y-4685D01*
X288635Y-4950D01*
X288370Y-5347D01*
X288277Y-5815D01*
X288370Y-6283D01*
X288635Y-6680D01*
X289032Y-6945D01*
X289500Y-7039D01*
X289968Y-6945D01*
X290365Y-6680D01*
X290630Y-6283D01*
X290657Y-6149D01*
X291099Y-5854D01*
X291143Y-5836D01*
X291532Y-6095D01*
X292000Y-6188D01*
X292468Y-6095D01*
X292865Y-5830D01*
X293130Y-5433D01*
X293224Y-4965D01*
X293130Y-4497D01*
X292865Y-4100D01*
X292468Y-3835D01*
X292000Y-3741D01*
D02*
G37*
G36*
X216998Y1850D02*
X155002D01*
X154748Y1799D01*
X154533Y1656D01*
X151628Y-1250D01*
X144814D01*
X144561Y-1301D01*
X144346Y-1444D01*
X139031Y-6759D01*
X138888Y-6974D01*
X138837Y-7227D01*
Y-13633D01*
X138370Y-13945D01*
X137741Y-13525D01*
X137000Y-13378D01*
X136259Y-13525D01*
X135630Y-13945D01*
X135210Y-14574D01*
X135063Y-15315D01*
X135210Y-16056D01*
X135630Y-16685D01*
X136259Y-17105D01*
X137000Y-17252D01*
X137741Y-17105D01*
X138370Y-16685D01*
X138837Y-16997D01*
Y-28768D01*
X131125Y-36480D01*
X130663Y-36289D01*
Y-35936D01*
X130937Y-35752D01*
X131225Y-35322D01*
X131325Y-34815D01*
X131225Y-34308D01*
X130937Y-33878D01*
X130507Y-33590D01*
X130000Y-33490D01*
X129493Y-33590D01*
X129063Y-33878D01*
X128775Y-34308D01*
X128674Y-34815D01*
X128775Y-35322D01*
X129063Y-35752D01*
X129337Y-35936D01*
Y-36995D01*
X123868Y-42464D01*
X123725Y-42679D01*
X123674Y-42932D01*
Y-73203D01*
X115268Y-81609D01*
X115125Y-81824D01*
X115074Y-82078D01*
Y-157052D01*
X115125Y-157306D01*
X115268Y-157521D01*
X115268Y-157521D01*
X115268Y-157521D01*
X121481Y-163734D01*
X121481Y-163734D01*
X121481D01*
X121481Y-163734D01*
X121481D01*
X121481Y-163734D01*
Y-163734D01*
Y-163734D01*
D01*
D01*
X121481D01*
Y-163734D01*
X121696Y-163877D01*
X121950Y-163928D01*
X130050D01*
X130304Y-163877D01*
X130519Y-163734D01*
X130519Y-163734D01*
X130519Y-163734D01*
X131769Y-162484D01*
X131912Y-162269D01*
X131963Y-162015D01*
Y-161130D01*
X132337Y-160798D01*
X132565Y-160826D01*
X132710Y-161556D01*
X133130Y-162185D01*
X133759Y-162605D01*
X134500Y-162752D01*
X135241Y-162605D01*
X135870Y-162185D01*
X136290Y-161556D01*
X136437Y-160815D01*
X136290Y-160074D01*
X135870Y-159445D01*
X135241Y-159025D01*
X134500Y-158878D01*
X133759Y-159025D01*
X133130Y-159445D01*
X133000Y-159641D01*
X132509Y-159543D01*
X132430Y-159147D01*
X132165Y-158750D01*
X131768Y-158485D01*
X131300Y-158391D01*
X130832Y-158485D01*
X130435Y-158750D01*
X130378Y-158835D01*
X129900Y-158689D01*
Y-157352D01*
X131774Y-155478D01*
X142247D01*
X142438Y-155940D01*
X141531Y-156846D01*
X141388Y-157061D01*
X141337Y-157315D01*
Y-158434D01*
X140865Y-158750D01*
D01*
X140468Y-158485D01*
X140000Y-158391D01*
X139532Y-158485D01*
X139135Y-158750D01*
X138865D01*
X138468Y-158485D01*
X138000Y-158391D01*
X137532Y-158485D01*
X137135Y-158750D01*
X136870Y-159147D01*
X136776Y-159615D01*
X136870Y-160083D01*
X137135Y-160480D01*
X137184Y-160513D01*
Y-164477D01*
X135414Y-166247D01*
X95215D01*
X95024Y-165785D01*
X96533Y-164277D01*
X99971D01*
X100072Y-164428D01*
X100469Y-164693D01*
X100937Y-164787D01*
X101405Y-164693D01*
X101802Y-164428D01*
X102067Y-164031D01*
X102161Y-163563D01*
X102067Y-163095D01*
X101802Y-162698D01*
X101405Y-162433D01*
X100937Y-162339D01*
X100469Y-162433D01*
X100072Y-162698D01*
X99971Y-162849D01*
X96237D01*
X95964Y-162904D01*
X95732Y-163058D01*
X93689Y-165101D01*
X67296D01*
X55053Y-152858D01*
X54821Y-152704D01*
X54548Y-152649D01*
X49703D01*
X49602Y-152498D01*
X49205Y-152233D01*
X48737Y-152139D01*
X48900Y-151977D01*
X98541D01*
X100823Y-154259D01*
Y-158324D01*
X100635Y-158450D01*
X100370Y-158847D01*
X100277Y-159315D01*
X100370Y-159783D01*
X100635Y-160180D01*
X101032Y-160445D01*
X101500Y-160538D01*
X101968Y-160445D01*
X102365Y-160180D01*
X102630Y-159783D01*
X102724Y-159315D01*
X102630Y-158847D01*
X102365Y-158450D01*
X102251Y-158373D01*
Y-153963D01*
X102196Y-153690D01*
X102042Y-153458D01*
X99342Y-150758D01*
X99110Y-150604D01*
X99110Y-150604D01*
X99110D01*
Y-150604D01*
X99113Y-150577D01*
X100066D01*
X100135Y-150680D01*
X100532Y-150945D01*
X101000Y-151039D01*
X101468Y-150945D01*
X101865Y-150680D01*
X102130Y-150283D01*
X102224Y-149815D01*
X102130Y-149347D01*
X101865Y-148950D01*
X101468Y-148685D01*
X101000Y-148591D01*
X100532Y-148685D01*
X100135Y-148950D01*
X100002Y-149149D01*
X86679D01*
X86365Y-148680D01*
X86630Y-148283D01*
X86724Y-147815D01*
X86630Y-147347D01*
X86365Y-146950D01*
X85968Y-146685D01*
X85500Y-146591D01*
X85032Y-146685D01*
X84635Y-146950D01*
X84370Y-147347D01*
X84276Y-147815D01*
X84370Y-148283D01*
X84635Y-148680D01*
X84321Y-149149D01*
X83452D01*
X83134Y-148763D01*
X83223Y-148315D01*
X83130Y-147847D01*
X82865Y-147450D01*
X82468Y-147185D01*
X82000Y-147091D01*
X81532Y-147185D01*
X81135Y-147450D01*
X80870Y-147847D01*
X80777Y-148315D01*
X80866Y-148763D01*
X80548Y-149149D01*
X61344D01*
X57214Y-145019D01*
Y-141902D01*
X57437Y-141752D01*
X57725Y-141322D01*
X57825Y-140815D01*
X57725Y-140308D01*
X57437Y-139878D01*
X57007Y-139590D01*
X56500Y-139489D01*
X55993Y-139590D01*
X55563Y-139878D01*
X55275Y-140308D01*
X55174Y-140815D01*
X55275Y-141322D01*
X55563Y-141752D01*
X55786Y-141902D01*
Y-145315D01*
X55786Y-145315D01*
X55786D01*
X55841Y-145588D01*
X55995Y-145820D01*
X60263Y-150087D01*
X60072Y-150549D01*
X40796D01*
X38214Y-147967D01*
Y-141902D01*
X38437Y-141752D01*
X38725Y-141322D01*
X38826Y-140815D01*
X38725Y-140308D01*
X38437Y-139878D01*
X38007Y-139590D01*
X37500Y-139489D01*
X36993Y-139590D01*
X36563Y-139878D01*
X36275Y-140308D01*
X36174Y-140815D01*
X36275Y-141322D01*
X36563Y-141752D01*
X36786Y-141902D01*
Y-148263D01*
X36786Y-148263D01*
X36786D01*
X36841Y-148536D01*
X36995Y-148768D01*
X39995Y-151768D01*
X40227Y-151922D01*
X40500Y-151977D01*
X47791D01*
X47936Y-152455D01*
X47872Y-152498D01*
X47607Y-152895D01*
X47513Y-153363D01*
X47607Y-153831D01*
X47872Y-154228D01*
X48269Y-154493D01*
X48737Y-154587D01*
X49205Y-154493D01*
X49602Y-154228D01*
X49703Y-154077D01*
X54252D01*
X55077Y-154902D01*
X55120Y-155113D01*
X54803Y-155499D01*
X30000D01*
X30000Y-155499D01*
X29688Y-155561D01*
X29423Y-155738D01*
X16923Y-168238D01*
X16746Y-168503D01*
X16684Y-168815D01*
X16684Y-168815D01*
Y-175163D01*
X16614Y-175177D01*
X15863Y-175678D01*
X15362Y-176429D01*
X15250Y-176990D01*
X14750D01*
X14638Y-176429D01*
X14137Y-175678D01*
X13386Y-175177D01*
X12500Y-175000D01*
X11614Y-175177D01*
X10863Y-175678D01*
X10362Y-176429D01*
X10186Y-177315D01*
X10362Y-178201D01*
X10863Y-178952D01*
X11614Y-179453D01*
X12500Y-179630D01*
X13386Y-179453D01*
X14137Y-178952D01*
X14638Y-178201D01*
X14750Y-177639D01*
X15250D01*
X15362Y-178201D01*
X15863Y-178952D01*
X16614Y-179453D01*
X17500Y-179630D01*
X18386Y-179453D01*
X19137Y-178952D01*
X19638Y-178201D01*
X19750Y-177639D01*
X20250D01*
X20362Y-178201D01*
X20863Y-178952D01*
X21614Y-179453D01*
X22500Y-179630D01*
X23386Y-179453D01*
X24137Y-178952D01*
X24638Y-178201D01*
X24814Y-177315D01*
X24638Y-176429D01*
X24137Y-175678D01*
X23386Y-175177D01*
X23316Y-175163D01*
Y-167153D01*
X31890Y-158579D01*
X54610D01*
X57881Y-161849D01*
X57603Y-162265D01*
X56955Y-161996D01*
X56080Y-161881D01*
X55204Y-161996D01*
X54389Y-162334D01*
X53688Y-162872D01*
X53151Y-163572D01*
X52813Y-164388D01*
X52698Y-165263D01*
X52813Y-166138D01*
X53151Y-166954D01*
X53688Y-167654D01*
X54368Y-168176D01*
X54245Y-168539D01*
X54199Y-168649D01*
X53844D01*
X49953Y-164758D01*
X49721Y-164604D01*
X49539Y-164567D01*
X49526Y-164562D01*
X49503Y-164388D01*
X49166Y-163572D01*
X48628Y-162872D01*
X47928Y-162334D01*
X47112Y-161996D01*
X46237Y-161881D01*
X45362Y-161996D01*
X44546Y-162334D01*
X43846Y-162872D01*
X43308Y-163572D01*
X42971Y-164388D01*
X42855Y-165263D01*
X42971Y-166138D01*
X43308Y-166954D01*
X43846Y-167654D01*
X44546Y-168192D01*
X45362Y-168529D01*
X46237Y-168645D01*
X47112Y-168529D01*
X47928Y-168192D01*
X48628Y-167654D01*
X49166Y-166954D01*
X49276Y-166688D01*
X49766Y-166590D01*
X53043Y-169868D01*
X53275Y-170022D01*
X53548Y-170077D01*
X137008D01*
X137281Y-170022D01*
X137512Y-169868D01*
X140103Y-167277D01*
X142876D01*
X143067Y-167739D01*
X139495Y-171310D01*
X139341Y-171542D01*
X139286Y-171815D01*
Y-177763D01*
X138900Y-178080D01*
X138500Y-178000D01*
X137614Y-178177D01*
X136863Y-178678D01*
X136362Y-179429D01*
X136250Y-179990D01*
X135750D01*
X135638Y-179429D01*
X135137Y-178678D01*
X134386Y-178177D01*
X133500Y-178000D01*
X132614Y-178177D01*
X131863Y-178678D01*
X131362Y-179429D01*
X131250Y-179990D01*
X130750D01*
X130638Y-179429D01*
X130137Y-178678D01*
X129386Y-178177D01*
X128500Y-178000D01*
X127614Y-178177D01*
X126863Y-178678D01*
X126362Y-179429D01*
X126250Y-179990D01*
X125750D01*
X125638Y-179429D01*
X125137Y-178678D01*
X124386Y-178177D01*
X123500Y-178000D01*
X122614Y-178177D01*
X121863Y-178678D01*
X121362Y-179429D01*
X121250Y-179990D01*
X120750D01*
X120638Y-179429D01*
X120137Y-178678D01*
X120127Y-178672D01*
X120078Y-178174D01*
X121274Y-176978D01*
X135000D01*
X135254Y-176927D01*
X135469Y-176784D01*
X135469Y-176784D01*
X135469Y-176784D01*
X136761Y-175491D01*
X137000Y-175539D01*
X137468Y-175445D01*
X137865Y-175180D01*
X138130Y-174783D01*
X138224Y-174315D01*
X138130Y-173847D01*
X137865Y-173450D01*
X137468Y-173185D01*
X137000Y-173091D01*
X136532Y-173185D01*
X136135Y-173450D01*
X135870Y-173847D01*
X135776Y-174315D01*
X135824Y-174554D01*
X134725Y-175652D01*
X133681D01*
X133365Y-175180D01*
X133630Y-174783D01*
X133723Y-174315D01*
X133630Y-173847D01*
X133365Y-173450D01*
X132968Y-173185D01*
X132500Y-173091D01*
X132032Y-173185D01*
X131635Y-173450D01*
X131370Y-173847D01*
X131277Y-174315D01*
X131370Y-174783D01*
X131635Y-175180D01*
X131319Y-175652D01*
X121000D01*
X120746Y-175703D01*
X120531Y-175846D01*
X118347Y-178031D01*
X117614Y-178177D01*
X116863Y-178678D01*
X116362Y-179429D01*
X116250Y-179990D01*
X115750D01*
X115638Y-179429D01*
X115137Y-178678D01*
X114386Y-178177D01*
X113500Y-178000D01*
X112614Y-178177D01*
X111863Y-178678D01*
X111362Y-179429D01*
X111185Y-180315D01*
X111362Y-181201D01*
X111863Y-181952D01*
X112614Y-182453D01*
X113500Y-182630D01*
X114386Y-182453D01*
X115137Y-181952D01*
X115638Y-181201D01*
X115750Y-180640D01*
X116250D01*
X116362Y-181201D01*
X116863Y-181952D01*
X117614Y-182453D01*
X118500Y-182630D01*
X119386Y-182453D01*
X120137Y-181952D01*
X120638Y-181201D01*
X120750Y-180640D01*
X121250D01*
X121362Y-181201D01*
X121863Y-181952D01*
X122614Y-182453D01*
X123500Y-182630D01*
X124386Y-182453D01*
X125137Y-181952D01*
X125638Y-181201D01*
X125750Y-180640D01*
X126250D01*
X126362Y-181201D01*
X126863Y-181952D01*
X127614Y-182453D01*
X128500Y-182630D01*
X129386Y-182453D01*
X130137Y-181952D01*
X130638Y-181201D01*
X130750Y-180640D01*
X131250D01*
X131362Y-181201D01*
X131863Y-181952D01*
X132614Y-182453D01*
X133500Y-182630D01*
X134386Y-182453D01*
X135137Y-181952D01*
X135638Y-181201D01*
X135750Y-180640D01*
X136250D01*
X136362Y-181201D01*
X136863Y-181952D01*
X137614Y-182453D01*
X138500Y-182630D01*
X139386Y-182453D01*
X140137Y-181952D01*
X140638Y-181201D01*
X140815Y-180315D01*
X140665Y-179561D01*
X140714Y-179315D01*
Y-172111D01*
X144548Y-168277D01*
X171252D01*
X171525Y-168222D01*
X171757Y-168068D01*
X174796Y-165029D01*
X202000D01*
X202273Y-164974D01*
X202505Y-164820D01*
X205321Y-162003D01*
X205500Y-162039D01*
X205968Y-161945D01*
X206365Y-161680D01*
X206630Y-161283D01*
X206723Y-160815D01*
X206630Y-160347D01*
X206365Y-159950D01*
X205968Y-159685D01*
X205500Y-159591D01*
X205119Y-159667D01*
X204883Y-159226D01*
X207005Y-157105D01*
X207159Y-156873D01*
X207214Y-156600D01*
D01*
D01*
X207214D01*
X207214D01*
X207214Y-156600D01*
X207214D01*
X207214Y-156600D01*
X207214Y-156600D01*
X207348Y-146017D01*
X207791Y-145784D01*
X208032Y-145945D01*
X208500Y-146038D01*
X208500Y-146038D01*
X208500Y-146038D01*
X209031Y-146284D01*
D01*
X209031Y-146284D01*
Y-146284D01*
X209246Y-146427D01*
X209500Y-146478D01*
X216018D01*
X216210Y-146940D01*
X210548Y-152601D01*
X209966D01*
X209865Y-152450D01*
X209468Y-152185D01*
X209000Y-152092D01*
X208532Y-152185D01*
X208135Y-152450D01*
X207870Y-152847D01*
X207776Y-153315D01*
X207870Y-153783D01*
X208135Y-154180D01*
X208532Y-154445D01*
X209000Y-154539D01*
X209435Y-154452D01*
X209670Y-154893D01*
X207995Y-156568D01*
X207841Y-156799D01*
X207786Y-157073D01*
Y-162849D01*
X207635Y-162950D01*
X207370Y-163347D01*
X207277Y-163815D01*
X207370Y-164283D01*
X207635Y-164680D01*
X208032Y-164945D01*
X208500Y-165039D01*
X208968Y-164945D01*
X209365Y-164680D01*
X209630Y-164283D01*
X209723Y-163815D01*
X209630Y-163347D01*
X209365Y-162950D01*
X209214Y-162849D01*
Y-160911D01*
X209457Y-160749D01*
X209655Y-160643D01*
X210032Y-160895D01*
X210500Y-160988D01*
X210968Y-160895D01*
X211365Y-160629D01*
X211630Y-160233D01*
X211723Y-159764D01*
X211630Y-159296D01*
X211365Y-158899D01*
X211163Y-158764D01*
Y-156691D01*
X230898Y-136956D01*
X236574D01*
X236828Y-136905D01*
X237043Y-136761D01*
X237043Y-136761D01*
X237043Y-136761D01*
X239363Y-134441D01*
X239804Y-134677D01*
X239776Y-134815D01*
X239870Y-135283D01*
X240135Y-135680D01*
X240532Y-135945D01*
X240837Y-136006D01*
Y-146815D01*
X240635Y-146950D01*
X240370Y-147347D01*
X240277Y-147815D01*
X240370Y-148283D01*
X240635Y-148680D01*
X241032Y-148945D01*
X241500Y-149039D01*
X241968Y-148945D01*
X242365Y-148680D01*
X242630Y-148283D01*
X242723Y-147815D01*
X242630Y-147347D01*
X242365Y-146950D01*
X242163Y-146815D01*
Y-135315D01*
X242143Y-135218D01*
X242224Y-134815D01*
X242130Y-134347D01*
X241865Y-133950D01*
X241468Y-133685D01*
X241000Y-133591D01*
X240862Y-133619D01*
X240626Y-133178D01*
X252419Y-121386D01*
X252562Y-121170D01*
X252613Y-120917D01*
X252613Y-120917D01*
X252613Y-120917D01*
Y-120917D01*
Y-104528D01*
X254000D01*
X254254Y-104477D01*
X254469Y-104334D01*
X256325Y-102478D01*
X257879D01*
X258063Y-102752D01*
X258493Y-103040D01*
X259000Y-103140D01*
X259507Y-103040D01*
X259937Y-102752D01*
X260225Y-102322D01*
X260326Y-101815D01*
X260225Y-101308D01*
X259937Y-100878D01*
X259507Y-100590D01*
X259000Y-100489D01*
X258493Y-100590D01*
X258063Y-100878D01*
X257879Y-101152D01*
X256050D01*
X255796Y-101203D01*
X255581Y-101346D01*
X253726Y-103202D01*
X252613D01*
Y-102589D01*
X262277Y-92926D01*
X267816D01*
X268000Y-93200D01*
X268430Y-93488D01*
X268937Y-93589D01*
X269444Y-93488D01*
X269874Y-93200D01*
X270162Y-92770D01*
X270263Y-92263D01*
X270162Y-91756D01*
X270363Y-91379D01*
X273064D01*
X273337Y-91324D01*
X273569Y-91170D01*
X276505Y-88234D01*
X276659Y-88002D01*
X276714Y-87729D01*
Y-61953D01*
X281138Y-57529D01*
X288534D01*
X288635Y-57680D01*
X289032Y-57945D01*
X289500Y-58039D01*
X289968Y-57945D01*
X290365Y-57680D01*
X290630Y-57283D01*
X290723Y-56815D01*
X290630Y-56347D01*
X290365Y-55950D01*
X289968Y-55685D01*
X289500Y-55591D01*
X289563Y-55529D01*
X294034D01*
X294135Y-55680D01*
X294532Y-55945D01*
X295000Y-56038D01*
X295468Y-55945D01*
X295865Y-55680D01*
X296130Y-55283D01*
X296223Y-54815D01*
X296130Y-54347D01*
X295865Y-53950D01*
X295933Y-53726D01*
X310252D01*
X310506Y-53675D01*
X310721Y-53532D01*
X310721Y-53532D01*
X310721Y-53532D01*
X313469Y-50784D01*
X313469Y-50784D01*
X313469Y-50784D01*
X313612Y-50569D01*
X313663Y-50315D01*
Y-35815D01*
X313865Y-35680D01*
X314130Y-35283D01*
X314224Y-34815D01*
X314130Y-34347D01*
X313865Y-33950D01*
X313663Y-33815D01*
Y-19315D01*
X313865Y-19180D01*
X314130Y-18783D01*
X314224Y-18315D01*
X314130Y-17847D01*
X313865Y-17450D01*
X313468Y-17185D01*
X313000Y-17091D01*
X312532Y-17185D01*
X312135Y-17450D01*
X311870Y-17847D01*
X311776Y-18315D01*
X311870Y-18783D01*
X312040Y-19038D01*
X311686Y-19392D01*
X311653Y-19370D01*
X311185Y-19276D01*
X310717Y-19370D01*
X310320Y-19635D01*
X310055Y-20032D01*
X309962Y-20500D01*
X310055Y-20968D01*
X310320Y-21365D01*
X310522Y-21500D01*
Y-29815D01*
X310320Y-29950D01*
X310055Y-30347D01*
X309962Y-30815D01*
X310055Y-31283D01*
X310320Y-31680D01*
X310522Y-31815D01*
Y-49603D01*
X308726Y-51400D01*
X282175D01*
X281858Y-51014D01*
X281878Y-50913D01*
Y-50026D01*
X281890Y-50006D01*
X281949Y-49554D01*
X282130Y-49283D01*
X282224Y-48815D01*
X282130Y-48347D01*
X281865Y-47950D01*
X281468Y-47685D01*
X281000Y-47591D01*
X280532Y-47685D01*
X280135Y-47950D01*
X279870Y-48347D01*
X279777Y-48815D01*
X279870Y-49283D01*
X279987Y-49459D01*
X280030Y-49925D01*
X280043Y-49951D01*
Y-50533D01*
X269351Y-61225D01*
X269152Y-61523D01*
X269082Y-61874D01*
Y-81435D01*
X266683Y-83835D01*
X266657Y-83842D01*
X266293Y-84133D01*
X266032Y-84185D01*
X265635Y-84450D01*
X265370Y-84847D01*
X265277Y-85315D01*
X265370Y-85783D01*
X265635Y-86180D01*
X266032Y-86445D01*
X266500Y-86538D01*
X266968Y-86445D01*
X267365Y-86180D01*
X267630Y-85783D01*
X267682Y-85522D01*
X267973Y-85158D01*
X267980Y-85132D01*
X270341Y-82772D01*
X270803Y-82963D01*
Y-85471D01*
X270513Y-86096D01*
X270512Y-86117D01*
X270335Y-86381D01*
X270273Y-86693D01*
X270259Y-86709D01*
X270097Y-87150D01*
X261078D01*
X260824Y-87201D01*
X260609Y-87344D01*
X247531Y-100422D01*
X247388Y-100637D01*
X247337Y-100891D01*
Y-119218D01*
X246184Y-120371D01*
X245706Y-120226D01*
X245630Y-119847D01*
X245365Y-119450D01*
X244968Y-119185D01*
X244500Y-119091D01*
X244032Y-119185D01*
X243635Y-119450D01*
X243365D01*
X242968Y-119185D01*
X242500Y-119091D01*
X242032Y-119185D01*
X241635Y-119450D01*
X241370Y-119847D01*
X241277Y-120315D01*
X241370Y-120783D01*
X241558Y-121065D01*
X241370Y-121347D01*
X241277Y-121815D01*
X241370Y-122283D01*
X241635Y-122680D01*
X242032Y-122945D01*
X242500Y-123038D01*
X242925Y-122954D01*
X243161Y-123395D01*
X234725Y-131830D01*
X228822D01*
X228568Y-131881D01*
X228354Y-132024D01*
X217226Y-143152D01*
X212919D01*
X211224Y-142815D01*
X211130Y-142347D01*
X210865Y-141950D01*
X210468Y-141685D01*
X210000Y-141592D01*
X209979Y-141552D01*
X239505Y-112026D01*
X239659Y-111794D01*
X239714Y-111521D01*
Y-49461D01*
X239957Y-49299D01*
X240155Y-49193D01*
X240532Y-49445D01*
X241000Y-49538D01*
X241468Y-49445D01*
X241475Y-49441D01*
X241635Y-49680D01*
X242032Y-49945D01*
X242500Y-50038D01*
X242968Y-49945D01*
X243365Y-49680D01*
X243630Y-49283D01*
X243686Y-49001D01*
X243968Y-48945D01*
X244365Y-48680D01*
X244630Y-48283D01*
X244724Y-47815D01*
X244630Y-47347D01*
X244365Y-46950D01*
X243968Y-46685D01*
X243500Y-46591D01*
X243032Y-46685D01*
X242635Y-46950D01*
X242370Y-47347D01*
X242366Y-47367D01*
X241875Y-47465D01*
X241865Y-47450D01*
X241468Y-47185D01*
X241000Y-47091D01*
X240532Y-47185D01*
X240155Y-47437D01*
X239957Y-47331D01*
X239714Y-47168D01*
Y-47111D01*
X240796Y-46029D01*
X240796Y-46029D01*
Y-46029D01*
X241135Y-46180D01*
X241135Y-46180D01*
Y-46180D01*
X241532Y-46445D01*
X242000Y-46538D01*
X242468Y-46445D01*
X242865Y-46180D01*
X243130Y-45783D01*
X243224Y-45315D01*
X243130Y-44847D01*
X243300Y-44529D01*
X268204D01*
X268812Y-45136D01*
X268776Y-45315D01*
X268870Y-45783D01*
X269135Y-46180D01*
X269532Y-46445D01*
X270000Y-46538D01*
X270468Y-46445D01*
X270865Y-46180D01*
X271130Y-45783D01*
X271223Y-45315D01*
X271130Y-44847D01*
X270865Y-44450D01*
X270468Y-44185D01*
X270000Y-44091D01*
X269890Y-43542D01*
X270089D01*
X270089Y-43542D01*
X270635Y-43434D01*
X271098Y-43124D01*
X272480Y-41742D01*
X281000D01*
X281546Y-41634D01*
X282009Y-41324D01*
X282319Y-40861D01*
X282427Y-40315D01*
X282319Y-39769D01*
X282009Y-39306D01*
X281546Y-38996D01*
X281000Y-38888D01*
X274285D01*
X274050Y-38447D01*
X274216Y-38197D01*
X274309Y-37729D01*
X274216Y-37261D01*
X273951Y-36864D01*
X273554Y-36599D01*
X273086Y-36506D01*
X273083Y-36506D01*
X272667Y-36228D01*
X272630Y-36042D01*
X272453Y-35776D01*
X272500Y-35539D01*
X272968Y-35445D01*
X272968D01*
X272968Y-35445D01*
X273365Y-35180D01*
X273630Y-34783D01*
X273724Y-34315D01*
X273630Y-33847D01*
X273365Y-33450D01*
X272968Y-33185D01*
X272500Y-33091D01*
X272032Y-33185D01*
X271670Y-33427D01*
X271208Y-33235D01*
X271130Y-32847D01*
X270865Y-32450D01*
X270754Y-32376D01*
X270737Y-32289D01*
X271244Y-32188D01*
D01*
X271244D01*
X271244Y-32188D01*
X271674Y-31900D01*
X271962Y-31470D01*
X272062Y-30963D01*
X271962Y-30456D01*
X271674Y-30026D01*
X271244Y-29738D01*
X270737Y-29638D01*
X270230Y-29738D01*
X269800Y-30026D01*
X269512Y-30456D01*
X269411Y-30963D01*
X269512Y-31470D01*
X269800Y-31900D01*
X269800Y-31900D01*
X269532Y-32185D01*
X269532D01*
X269532Y-32185D01*
X269135Y-32450D01*
X268870Y-32847D01*
X268776Y-33315D01*
X268870Y-33783D01*
X269135Y-34180D01*
X269532Y-34445D01*
X270000Y-34538D01*
X270468Y-34445D01*
X270830Y-34203D01*
X271292Y-34395D01*
X271370Y-34783D01*
X271432Y-34876D01*
X271241Y-35339D01*
X271032Y-35380D01*
X270635Y-35645D01*
X270370Y-36042D01*
X270276Y-36510D01*
X270370Y-36979D01*
X270635Y-37376D01*
X271032Y-37641D01*
X271500Y-37734D01*
X271503Y-37733D01*
X271918Y-38011D01*
X271955Y-38197D01*
X272221Y-38594D01*
Y-38594D01*
X271889Y-38888D01*
X271342Y-38996D01*
X271157Y-39120D01*
X270879Y-39306D01*
X270879Y-39306D01*
X269497Y-40688D01*
X246391D01*
X245427Y-39724D01*
Y-29815D01*
X245427Y-29815D01*
X245319Y-29269D01*
X245009Y-28806D01*
X245009Y-28806D01*
X243009Y-26806D01*
X242546Y-26496D01*
X242000Y-26388D01*
X242000Y-26388D01*
X238500D01*
X237954Y-26496D01*
X237491Y-26806D01*
X237181Y-27269D01*
X237073Y-27815D01*
X237181Y-28361D01*
X237491Y-28824D01*
X237954Y-29134D01*
X238394Y-29221D01*
X238491Y-29712D01*
X238135Y-29950D01*
X237870Y-30347D01*
X237776Y-30815D01*
X237870Y-31283D01*
X237649Y-31387D01*
X237649D01*
X237252Y-31652D01*
X236987Y-32049D01*
X236894Y-32517D01*
X236987Y-32986D01*
X237252Y-33382D01*
X237649Y-33648D01*
X238117Y-33741D01*
X238585Y-33648D01*
X238982Y-33382D01*
X238991Y-33369D01*
X239195Y-33505D01*
X239663Y-33598D01*
X240131Y-33505D01*
X240528Y-33239D01*
X240794Y-32843D01*
X240887Y-32374D01*
X240794Y-31906D01*
X240528Y-31509D01*
X240137Y-31248D01*
X240224Y-30815D01*
X240130Y-30347D01*
X239865Y-29950D01*
X239523Y-29721D01*
X239668Y-29242D01*
X241409D01*
X242573Y-30406D01*
Y-40315D01*
X242573Y-40315D01*
X242681Y-40861D01*
X242991Y-41324D01*
X244306Y-42639D01*
X244114Y-43101D01*
X241106D01*
X240785Y-42886D01*
X240644Y-42715D01*
X240723Y-42315D01*
X240630Y-41847D01*
X240365Y-41450D01*
X239968Y-41185D01*
X239500Y-41091D01*
X239032Y-41185D01*
X238635Y-41450D01*
X238370Y-41847D01*
X238277Y-42315D01*
X238370Y-42783D01*
X238635Y-43180D01*
X239032Y-43445D01*
X239203Y-43479D01*
X239348Y-43958D01*
X237495Y-45810D01*
X237341Y-46042D01*
X237341Y-46042D01*
D01*
D01*
D01*
Y-46042D01*
X237218Y-46352D01*
X236968Y-46185D01*
X236500Y-46091D01*
X236032Y-46185D01*
X235635Y-46450D01*
X235370Y-46847D01*
X235277Y-47315D01*
X235370Y-47783D01*
X235635Y-48180D01*
X236032Y-48445D01*
X236500Y-48539D01*
X236900Y-48459D01*
X237286Y-48776D01*
Y-52168D01*
X237043Y-52331D01*
X236845Y-52437D01*
X236468Y-52185D01*
X236000Y-52091D01*
X235532Y-52185D01*
X235135Y-52450D01*
X234865D01*
X234468Y-52185D01*
X234000Y-52091D01*
X233532Y-52185D01*
X233135Y-52450D01*
X232865D01*
X232468Y-52185D01*
X232000Y-52091D01*
X231907Y-51917D01*
X233505Y-50320D01*
X233659Y-50088D01*
X233714Y-49815D01*
Y-26111D01*
X236296Y-23529D01*
X238034D01*
X238135Y-23680D01*
X238532Y-23945D01*
X239000Y-24038D01*
X239468Y-23945D01*
X239865Y-23680D01*
X240130Y-23283D01*
X240224Y-22815D01*
X240130Y-22347D01*
X239865Y-21950D01*
X239468Y-21685D01*
X239000Y-21591D01*
X238532Y-21685D01*
X238135Y-21950D01*
X238034Y-22101D01*
X236376D01*
X236185Y-21639D01*
X237296Y-20529D01*
X249500D01*
X249773Y-20474D01*
X250005Y-20320D01*
X252505Y-17820D01*
X252505Y-17820D01*
X252505Y-17820D01*
X252659Y-17588D01*
X252714Y-17315D01*
Y-16962D01*
X252957Y-16799D01*
X253155Y-16693D01*
X253532Y-16945D01*
X254000Y-17039D01*
X254468Y-16945D01*
X254475Y-16941D01*
X254635Y-17180D01*
X255032Y-17445D01*
X255500Y-17538D01*
X255968Y-17445D01*
X256365Y-17180D01*
X256630Y-16783D01*
X256723Y-16315D01*
X256630Y-15847D01*
X256365Y-15450D01*
X255968Y-15185D01*
X255500Y-15091D01*
X255032Y-15185D01*
X255025Y-15189D01*
X254865Y-14950D01*
X254468Y-14685D01*
X254000Y-14592D01*
X253532Y-14685D01*
X253135Y-14950D01*
X252865D01*
X252468Y-14685D01*
X252000Y-14592D01*
X251532Y-14685D01*
X251135Y-14950D01*
X250870Y-15347D01*
X250772Y-15387D01*
X250468Y-15185D01*
X250000Y-15091D01*
X249532Y-15185D01*
X249250Y-15373D01*
X248968Y-15185D01*
X248500Y-15091D01*
X248032Y-15185D01*
X247635Y-15450D01*
X247370Y-15847D01*
X247276Y-16315D01*
X247370Y-16783D01*
X247635Y-17180D01*
X248032Y-17445D01*
X248500Y-17538D01*
X248968Y-17445D01*
X249250Y-17257D01*
X249532Y-17445D01*
X250000Y-17538D01*
X250030Y-17533D01*
X250308Y-17948D01*
X250209Y-18097D01*
X249204Y-19101D01*
X237000D01*
X236727Y-19156D01*
X236495Y-19310D01*
X231495Y-24310D01*
X231341Y-24542D01*
X231286Y-24815D01*
Y-49019D01*
X227995Y-52310D01*
X227841Y-52542D01*
X227786Y-52815D01*
Y-87019D01*
X225704Y-89101D01*
X216966D01*
X216865Y-88950D01*
X216468Y-88685D01*
X216000Y-88591D01*
X215532Y-88685D01*
X215135Y-88950D01*
X214870Y-89347D01*
X214776Y-89815D01*
X214870Y-90283D01*
X215135Y-90680D01*
X215532Y-90945D01*
X216000Y-91039D01*
X216468Y-90945D01*
X216865Y-90680D01*
X216966Y-90529D01*
X226000D01*
X226273Y-90474D01*
X226505Y-90320D01*
X228324Y-88500D01*
X228603Y-88615D01*
X228700Y-89106D01*
X220995Y-96810D01*
X220841Y-97042D01*
X220786Y-97315D01*
Y-106178D01*
X220841Y-106451D01*
X220923Y-106575D01*
Y-124969D01*
X211231Y-134760D01*
X209889Y-136101D01*
X207966D01*
X207865Y-135950D01*
X207468Y-135685D01*
X207000Y-135591D01*
X206599Y-135671D01*
X206213Y-135354D01*
Y-46176D01*
X206606Y-45784D01*
X206749Y-45569D01*
X206800Y-45315D01*
X206800Y-45315D01*
X206800Y-45315D01*
Y-45315D01*
Y-40563D01*
X206749Y-40309D01*
X206606Y-40094D01*
X205606Y-39094D01*
X205391Y-38951D01*
X205137Y-38900D01*
X204371D01*
X204302Y-38798D01*
X203905Y-38533D01*
X203437Y-38440D01*
X202969Y-38533D01*
X202572Y-38798D01*
X202307Y-39195D01*
X202214Y-39663D01*
X202307Y-40131D01*
D01*
X202307Y-40131D01*
D01*
D01*
X202109Y-40505D01*
X201969Y-40533D01*
X201572Y-40798D01*
X201100Y-40482D01*
Y-28563D01*
X201049Y-28309D01*
X200906Y-28094D01*
X199906Y-27094D01*
X199747Y-26988D01*
X199938Y-26526D01*
X200000Y-26539D01*
X200468Y-26445D01*
X200865Y-26180D01*
X201130Y-25783D01*
X201179Y-25539D01*
X201679D01*
X201707Y-25679D01*
X201972Y-26076D01*
X202369Y-26341D01*
X202837Y-26434D01*
X203305Y-26341D01*
X203702Y-26076D01*
X203967Y-25679D01*
X204061Y-25211D01*
X203967Y-24743D01*
X203702Y-24346D01*
X203305Y-24081D01*
X202837Y-23988D01*
X202369Y-24081D01*
X201972Y-24346D01*
X201707Y-24743D01*
X201658Y-24986D01*
X201158D01*
X201130Y-24847D01*
X200865Y-24450D01*
X200468Y-24185D01*
X200000Y-24092D01*
X199532Y-24185D01*
X199135Y-24450D01*
X198870Y-24847D01*
X198776Y-25315D01*
X198870Y-25783D01*
X199135Y-26180D01*
X199496Y-26422D01*
X199351Y-26900D01*
X198237D01*
X198102Y-26698D01*
X197705Y-26433D01*
X197237Y-26340D01*
X196836Y-26419D01*
X196450Y-26102D01*
Y-19823D01*
X196836Y-19506D01*
X197000Y-19538D01*
X197468Y-19445D01*
X197865Y-19180D01*
X198130Y-18783D01*
X198223Y-18315D01*
X198130Y-17847D01*
X197865Y-17450D01*
Y-17028D01*
X198130Y-16631D01*
X198223Y-16163D01*
X198130Y-15695D01*
X197865Y-15298D01*
Y-15028D01*
X198130Y-14631D01*
X198223Y-14163D01*
X198130Y-13695D01*
X197865Y-13298D01*
Y-13028D01*
X198130Y-12631D01*
X198223Y-12163D01*
X198130Y-11695D01*
X197865Y-11298D01*
X197468Y-11033D01*
X197000Y-10939D01*
X196532Y-11033D01*
X196135Y-11298D01*
X196000Y-11500D01*
X195500D01*
X195246Y-11551D01*
X195031Y-11694D01*
X192725Y-14001D01*
X192263Y-13810D01*
Y-11490D01*
X194274Y-9478D01*
X196000D01*
X196135Y-9680D01*
X196532Y-9945D01*
X197000Y-10039D01*
X197468Y-9945D01*
X197865Y-9680D01*
X198130Y-9283D01*
X198223Y-8815D01*
X198130Y-8347D01*
X197865Y-7950D01*
Y-7680D01*
X198130Y-7283D01*
X198223Y-6815D01*
X198130Y-6347D01*
X197865Y-5950D01*
X197468Y-5685D01*
X197000Y-5591D01*
X196532Y-5685D01*
X196135Y-5950D01*
X196000Y-6152D01*
X193000D01*
X192746Y-6203D01*
X192531Y-6346D01*
X190031Y-8846D01*
X189888Y-9061D01*
X189837Y-9315D01*
Y-58634D01*
X189365Y-58950D01*
X188968Y-58685D01*
X188500Y-58591D01*
X188032Y-58685D01*
X187635Y-58950D01*
X187370Y-59347D01*
X187276Y-59815D01*
X187370Y-60283D01*
X187635Y-60680D01*
X188032Y-60945D01*
X188500Y-61039D01*
X188968Y-60945D01*
X189365Y-60680D01*
X189837Y-60996D01*
Y-131041D01*
X186124Y-134754D01*
X185683Y-134518D01*
X185723Y-134315D01*
X185630Y-133847D01*
X185365Y-133450D01*
X184968Y-133185D01*
X184500Y-133091D01*
X184032Y-133185D01*
X183635Y-133450D01*
X183370Y-133847D01*
X183276Y-134315D01*
X183370Y-134783D01*
X183635Y-135180D01*
X184032Y-135445D01*
X184500Y-135538D01*
X184500Y-135538D01*
X184370Y-135847D01*
X184370Y-135847D01*
X184370Y-135847D01*
X184276Y-136315D01*
X184370Y-136783D01*
X184635Y-137180D01*
X185032Y-137445D01*
X185500Y-137539D01*
X185776Y-137815D01*
X185870Y-138283D01*
X186135Y-138680D01*
X186532Y-138945D01*
X187000Y-139039D01*
X187276Y-139315D01*
X187370Y-139783D01*
X187635Y-140180D01*
X188032Y-140445D01*
X188500Y-140539D01*
X188924Y-140454D01*
X189278Y-140808D01*
X189277Y-140815D01*
X189370Y-141283D01*
X189635Y-141680D01*
X190032Y-141945D01*
X190500Y-142039D01*
X190777Y-142315D01*
X190870Y-142783D01*
X191135Y-143180D01*
X191532Y-143445D01*
X191781Y-143495D01*
X192058Y-143911D01*
X192028Y-144063D01*
X192121Y-144532D01*
X192386Y-144929D01*
X192783Y-145194D01*
X193252Y-145287D01*
X193720Y-145194D01*
X194117Y-144929D01*
X194382Y-144532D01*
X194475Y-144063D01*
X194428Y-143825D01*
X199475Y-138777D01*
X199937Y-138968D01*
Y-141226D01*
X195076Y-146087D01*
X194837Y-146039D01*
X194369Y-146133D01*
X193972Y-146398D01*
X193707Y-146795D01*
X193614Y-147263D01*
X193707Y-147731D01*
X193972Y-148128D01*
X194369Y-148393D01*
X194837Y-148486D01*
D01*
X195413Y-148763D01*
D01*
D01*
X195413D01*
D01*
D01*
X195507Y-149231D01*
X195772Y-149628D01*
X196169Y-149893D01*
X196637Y-149987D01*
X196978Y-149919D01*
X197332Y-150272D01*
X197313Y-150363D01*
X197407Y-150831D01*
X197672Y-151228D01*
X198069Y-151493D01*
X198537Y-151586D01*
X198663Y-151713D01*
X198614Y-151963D01*
X198707Y-152431D01*
X198972Y-152828D01*
X199369Y-153093D01*
X199837Y-153187D01*
X199920Y-153170D01*
X200214Y-153463D01*
X200307Y-153931D01*
X200572Y-154328D01*
X200969Y-154593D01*
X201066Y-154613D01*
X201163Y-155103D01*
X200872Y-155298D01*
X200607Y-155695D01*
X200514Y-156163D01*
X200607Y-156631D01*
X200872Y-157028D01*
X201269Y-157293D01*
X201737Y-157387D01*
X202205Y-157293D01*
X202602Y-157028D01*
X202867Y-156631D01*
X202960Y-156163D01*
X202913Y-155924D01*
X205324Y-153513D01*
X205786Y-153704D01*
Y-156304D01*
X199704Y-162386D01*
X193019D01*
X192923Y-161901D01*
X193674Y-161400D01*
X194175Y-160649D01*
X194352Y-159763D01*
X194175Y-158877D01*
X193674Y-158126D01*
X192923Y-157625D01*
X192037Y-157448D01*
X191151Y-157625D01*
X190400Y-158126D01*
X189899Y-158877D01*
X189723Y-159763D01*
X189899Y-160649D01*
X190400Y-161400D01*
X191151Y-161901D01*
X191055Y-162386D01*
X185670D01*
X185524Y-161908D01*
X185865Y-161680D01*
X186130Y-161283D01*
X186223Y-160815D01*
X186130Y-160347D01*
X185865Y-159950D01*
Y-159554D01*
X186130Y-159157D01*
X186223Y-158689D01*
X186130Y-158221D01*
X185865Y-157824D01*
Y-157428D01*
X186130Y-157031D01*
X186223Y-156563D01*
X186130Y-156095D01*
X185865Y-155698D01*
X185468Y-155433D01*
X185000Y-155340D01*
X184532Y-155433D01*
X184135Y-155698D01*
X184000Y-155900D01*
X182023D01*
X179800Y-153677D01*
Y-124705D01*
X180262Y-124514D01*
X182031Y-126284D01*
X182031Y-126284D01*
X182031D01*
X182031Y-126284D01*
X182031D01*
X182031Y-126284D01*
Y-126284D01*
Y-126284D01*
D01*
D01*
X182031D01*
Y-126284D01*
X182246Y-126427D01*
X182500Y-126478D01*
X184000D01*
X184135Y-126680D01*
X184532Y-126945D01*
X185000Y-127039D01*
X185468Y-126945D01*
X185865Y-126680D01*
X186130Y-126283D01*
X186223Y-125815D01*
X186130Y-125347D01*
X185865Y-124950D01*
Y-124680D01*
X186130Y-124283D01*
X186223Y-123815D01*
X186130Y-123347D01*
X185865Y-122950D01*
X185468Y-122685D01*
X185000Y-122591D01*
X184532Y-122685D01*
X184135Y-122950D01*
X183870Y-123347D01*
X183776Y-123815D01*
X183870Y-124283D01*
X184135Y-124680D01*
D01*
X183819Y-125152D01*
X182774D01*
X180900Y-123277D01*
Y-75638D01*
X183506Y-73032D01*
X183649Y-72817D01*
X183700Y-72563D01*
Y-65973D01*
X183712Y-65953D01*
X183763Y-65700D01*
X183712Y-65446D01*
X183569Y-65231D01*
X182785Y-64447D01*
X182811Y-64314D01*
X182718Y-63846D01*
X182453Y-63449D01*
X182056Y-63183D01*
X181588Y-63090D01*
X181120Y-63183D01*
X180723Y-63449D01*
X180457Y-63846D01*
X180364Y-64314D01*
X180457Y-64782D01*
X180723Y-65179D01*
X181120Y-65444D01*
X181588Y-65537D01*
X181932Y-65469D01*
X182374Y-65911D01*
Y-72289D01*
X180262Y-74401D01*
X179800Y-74210D01*
Y-67952D01*
X179749Y-67698D01*
X179606Y-67483D01*
X176176Y-64054D01*
X176224Y-63815D01*
X176130Y-63347D01*
X175865Y-62950D01*
X175468Y-62685D01*
X175000Y-62591D01*
X174532Y-62685D01*
X174135Y-62950D01*
X173865D01*
X173468Y-62685D01*
X173000Y-62591D01*
X172532Y-62685D01*
X172135Y-62950D01*
X171663Y-62634D01*
Y-58815D01*
X171612Y-58561D01*
X171469Y-58346D01*
X169717Y-56594D01*
X169502Y-56451D01*
X169248Y-56400D01*
X169237D01*
X169102Y-56198D01*
X168705Y-55933D01*
X168237Y-55840D01*
X167769Y-55933D01*
X167372Y-56198D01*
X167107Y-56595D01*
X167014Y-57063D01*
X167107Y-57531D01*
X167372Y-57928D01*
X167769Y-58193D01*
X168237Y-58286D01*
X168705Y-58193D01*
X169102Y-57928D01*
X169169Y-57921D01*
X170225Y-58977D01*
X170200Y-59476D01*
X169951Y-59681D01*
X169500Y-59591D01*
X169032Y-59685D01*
X168635Y-59950D01*
X168370Y-60347D01*
X168272Y-60387D01*
X167968Y-60185D01*
X167500Y-60091D01*
X167032Y-60185D01*
X166635Y-60450D01*
X166370Y-60847D01*
X166277Y-61315D01*
X166000Y-61591D01*
X165532Y-61685D01*
X165135Y-61950D01*
X164870Y-62347D01*
X164777Y-62815D01*
X164870Y-63283D01*
X165135Y-63680D01*
X165337Y-63815D01*
Y-65062D01*
X164875Y-65253D01*
X164017Y-64394D01*
X163802Y-64251D01*
X163548Y-64200D01*
X154595D01*
X151563Y-61168D01*
Y-16690D01*
X152631Y-15621D01*
X153128Y-15670D01*
X153135Y-15680D01*
X153532Y-15945D01*
X154000Y-16038D01*
X154468Y-15945D01*
X154865Y-15680D01*
X155130Y-15283D01*
X155224Y-14815D01*
X155130Y-14347D01*
X154865Y-13950D01*
X154468Y-13685D01*
X154000Y-13591D01*
X153532Y-13685D01*
X153135Y-13950D01*
X153000Y-14152D01*
X152500D01*
X152246Y-14203D01*
X152031Y-14346D01*
X151125Y-15253D01*
X150663Y-15062D01*
Y-13090D01*
X157606Y-6147D01*
X157749Y-5932D01*
X157800Y-5678D01*
X157800Y-5678D01*
X157800Y-5678D01*
Y-5678D01*
Y-2763D01*
X158002Y-2628D01*
X158267Y-2231D01*
X158361Y-1763D01*
X158267Y-1295D01*
X158002Y-898D01*
X157605Y-633D01*
X157137Y-539D01*
X157301Y-376D01*
X216112D01*
X219168Y-3432D01*
X219168D01*
X219168Y-3432D01*
X219168Y-3432D01*
Y-3432D01*
X219383Y-3575D01*
X219637Y-3626D01*
X287852D01*
X288106Y-3575D01*
X288321Y-3432D01*
X288321Y-3432D01*
X288321Y-3432D01*
X289275Y-2478D01*
X311500D01*
X311635Y-2680D01*
X312032Y-2945D01*
X312500Y-3039D01*
X312968Y-2945D01*
X313365Y-2680D01*
X313500Y-2478D01*
X316549D01*
X316866Y-2864D01*
X316776Y-3315D01*
X316870Y-3783D01*
X317135Y-4180D01*
X317532Y-4445D01*
X318000Y-4538D01*
X318468Y-4445D01*
X318865Y-4180D01*
X319130Y-3783D01*
X319223Y-3315D01*
X319130Y-2847D01*
X319328Y-2478D01*
X321581D01*
X323276Y-2815D01*
X323370Y-3283D01*
X323635Y-3680D01*
X324032Y-3945D01*
X324500Y-4039D01*
X324968Y-3945D01*
X325365Y-3680D01*
X325630Y-3283D01*
X325724Y-2815D01*
X325630Y-2347D01*
X325365Y-1950D01*
X324968Y-1685D01*
X324500Y-1592D01*
X324261Y-1639D01*
X323969Y-1346D01*
X323754Y-1203D01*
X323500Y-1152D01*
X320681D01*
X320365Y-680D01*
X320630Y-283D01*
X320724Y185D01*
X320630Y653D01*
X320365Y1050D01*
X319968Y1315D01*
X319500Y1409D01*
X319032Y1315D01*
X318635Y1050D01*
X318489Y832D01*
X315485D01*
X315349Y1034D01*
X314952Y1300D01*
X314484Y1393D01*
X314016Y1300D01*
X313619Y1034D01*
X313484Y832D01*
X289711D01*
X289458Y782D01*
X289243Y638D01*
X287205Y-1400D01*
X220522D01*
X217467Y1656D01*
X217252Y1799D01*
X216998Y1850D01*
D02*
G37*
G36*
X81000Y-4878D02*
X80259Y-5025D01*
X79630Y-5445D01*
X79210Y-6074D01*
X79063Y-6815D01*
X79210Y-7556D01*
X79630Y-8185D01*
X80259Y-8605D01*
X81000Y-8752D01*
X81741Y-8605D01*
X82370Y-8185D01*
X82790Y-7556D01*
X82937Y-6815D01*
X82790Y-6074D01*
X82370Y-5445D01*
X81741Y-5025D01*
X81000Y-4878D01*
D02*
G37*
G36*
X231000Y-10878D02*
X230259Y-11025D01*
X229630Y-11445D01*
X229210Y-12074D01*
X229063Y-12815D01*
X229210Y-13556D01*
X229630Y-14185D01*
X230259Y-14605D01*
X231000Y-14752D01*
X231741Y-14605D01*
X232370Y-14185D01*
X232790Y-13556D01*
X232937Y-12815D01*
X232790Y-12074D01*
X232370Y-11445D01*
X231741Y-11025D01*
X231000Y-10878D01*
D02*
G37*
G36*
X238000Y-10592D02*
X237532Y-10685D01*
X237135Y-10950D01*
X236870Y-11347D01*
X236776Y-11815D01*
X236870Y-12283D01*
X237135Y-12680D01*
X237532Y-12945D01*
X238000Y-13038D01*
X238468Y-12945D01*
X238865Y-12680D01*
X239130Y-12283D01*
X239224Y-11815D01*
X239130Y-11347D01*
X238865Y-10950D01*
X238468Y-10685D01*
X238000Y-10592D01*
D02*
G37*
G36*
X45437Y-11126D02*
X44696Y-11273D01*
X44067Y-11693D01*
X43647Y-12322D01*
X43500Y-13063D01*
X43647Y-13804D01*
X44067Y-14433D01*
X44696Y-14853D01*
X45437Y-15000D01*
X46178Y-14853D01*
X46807Y-14433D01*
X47227Y-13804D01*
X47374Y-13063D01*
X47227Y-12322D01*
X46807Y-11693D01*
X46178Y-11273D01*
X45437Y-11126D01*
D02*
G37*
G36*
X223000Y-10878D02*
X222259Y-11025D01*
X221630Y-11445D01*
X221210Y-12074D01*
X221063Y-12815D01*
X221210Y-13556D01*
X221630Y-14185D01*
X222259Y-14605D01*
X223000Y-14752D01*
X223741Y-14605D01*
X224370Y-14185D01*
X224790Y-13556D01*
X224937Y-12815D01*
X224790Y-12074D01*
X224370Y-11445D01*
X223741Y-11025D01*
X223000Y-10878D01*
D02*
G37*
G36*
X205000Y-8878D02*
X204259Y-9025D01*
X203630Y-9445D01*
X203210Y-10074D01*
X203063Y-10815D01*
X203210Y-11556D01*
X203630Y-12185D01*
X204259Y-12605D01*
X205000Y-12752D01*
X205741Y-12605D01*
X206370Y-12185D01*
X206790Y-11556D01*
X206937Y-10815D01*
X206790Y-10074D01*
X206370Y-9445D01*
X205741Y-9025D01*
X205000Y-8878D01*
D02*
G37*
G36*
X242000Y-5277D02*
X241532Y-5370D01*
X241135Y-5635D01*
X240870Y-6032D01*
X240776Y-6500D01*
X240870Y-6968D01*
X241135Y-7365D01*
Y-7635D01*
X240870Y-8032D01*
X240776Y-8500D01*
X240870Y-8968D01*
X241135Y-9365D01*
X241532Y-9630D01*
X242000Y-9724D01*
X242468Y-9630D01*
X242865Y-9365D01*
X243130Y-8968D01*
X243224Y-8500D01*
X243130Y-8032D01*
X242865Y-7635D01*
Y-7365D01*
X243130Y-6968D01*
X243224Y-6500D01*
X243130Y-6032D01*
X242865Y-5635D01*
X242468Y-5370D01*
X242000Y-5277D01*
D02*
G37*
G36*
X119000Y-5378D02*
X118259Y-5525D01*
X117630Y-5945D01*
X117210Y-6574D01*
X117063Y-7315D01*
X117210Y-8056D01*
X117630Y-8685D01*
X118259Y-9105D01*
X119000Y-9252D01*
X119741Y-9105D01*
X120370Y-8685D01*
X120790Y-8056D01*
X120937Y-7315D01*
X120790Y-6574D01*
X120370Y-5945D01*
X119741Y-5525D01*
X119000Y-5378D01*
D02*
G37*
G36*
X271000Y-10242D02*
X270532Y-10335D01*
X270135Y-10600D01*
X269870Y-10997D01*
X269777Y-11465D01*
X269870Y-11933D01*
X270135Y-12330D01*
X270532Y-12595D01*
X271000Y-12688D01*
X271468Y-12595D01*
X271865Y-12330D01*
X272130Y-11933D01*
X272223Y-11465D01*
X272130Y-10997D01*
X271865Y-10600D01*
X271468Y-10335D01*
X271000Y-10242D01*
D02*
G37*
G36*
X328031Y-7846D02*
X327290Y-7994D01*
X326662Y-8414D01*
X326242Y-9042D01*
X326094Y-9783D01*
X326242Y-10525D01*
X326662Y-11153D01*
X327290Y-11573D01*
X328031Y-11721D01*
X328773Y-11573D01*
X329401Y-11153D01*
X329821Y-10525D01*
X329969Y-9783D01*
X329821Y-9042D01*
X329401Y-8414D01*
X328773Y-7994D01*
X328031Y-7846D01*
D02*
G37*
G36*
X68463Y-49064D02*
X67994Y-49157D01*
X67598Y-49422D01*
X67332Y-49819D01*
X67239Y-50287D01*
X67332Y-50756D01*
X67598Y-51153D01*
X67994Y-51418D01*
X68463Y-51511D01*
X68931Y-51418D01*
X69328Y-51153D01*
X69593Y-50756D01*
X69686Y-50287D01*
X69593Y-49819D01*
X69328Y-49422D01*
X68931Y-49157D01*
X68463Y-49064D01*
D02*
G37*
G36*
X64210Y-43907D02*
X63741Y-44000D01*
X63345Y-44265D01*
X63079Y-44662D01*
X62986Y-45131D01*
X63079Y-45599D01*
X63345Y-45996D01*
X63741Y-46261D01*
X64210Y-46354D01*
X64678Y-46261D01*
X65075Y-45996D01*
X65340Y-45599D01*
X65433Y-45131D01*
X65340Y-44662D01*
X65075Y-44265D01*
X64678Y-44000D01*
X64210Y-43907D01*
D02*
G37*
G36*
X308000Y-40091D02*
X307532Y-40185D01*
X307135Y-40450D01*
X306870Y-40847D01*
X306776Y-41315D01*
X306870Y-41783D01*
X307135Y-42180D01*
X307532Y-42445D01*
X308000Y-42538D01*
X308468Y-42445D01*
X308865Y-42180D01*
X309130Y-41783D01*
X309224Y-41315D01*
X309130Y-40847D01*
X308865Y-40450D01*
X308468Y-40185D01*
X308000Y-40091D01*
D02*
G37*
G36*
X212500Y-37878D02*
X211759Y-38025D01*
X211130Y-38445D01*
X210710Y-39074D01*
X210563Y-39815D01*
X210710Y-40556D01*
X211130Y-41185D01*
X211759Y-41605D01*
X212500Y-41752D01*
X213241Y-41605D01*
X213870Y-41185D01*
X214290Y-40556D01*
X214437Y-39815D01*
X214290Y-39074D01*
X213870Y-38445D01*
X213241Y-38025D01*
X212500Y-37878D01*
D02*
G37*
G36*
X171000Y-44940D02*
X170532Y-45033D01*
X170135Y-45298D01*
X169870Y-45695D01*
X169776Y-46163D01*
X169870Y-46631D01*
X170135Y-47028D01*
X170450Y-47239D01*
Y-47739D01*
X170135Y-47950D01*
X169870Y-48347D01*
X169776Y-48815D01*
X169870Y-49283D01*
X170135Y-49680D01*
X170532Y-49945D01*
X171000Y-50038D01*
X171468Y-49945D01*
X171468Y-49945D01*
X171507Y-50395D01*
X171507Y-50395D01*
X171507Y-50395D01*
X171414Y-50863D01*
X171507Y-51331D01*
X171772Y-51728D01*
X172169Y-51993D01*
X172637Y-52087D01*
X172876Y-52039D01*
X174620Y-53784D01*
X174620Y-53784D01*
X174620D01*
X174620Y-53784D01*
X174620D01*
X174620Y-53784D01*
Y-53784D01*
Y-53784D01*
D01*
D01*
X174620D01*
Y-53784D01*
X174835Y-53927D01*
X175089Y-53978D01*
X181516D01*
X181833Y-54364D01*
X181814Y-54463D01*
X181907Y-54931D01*
X182172Y-55328D01*
X182569Y-55593D01*
X183037Y-55686D01*
X183505Y-55593D01*
X183902Y-55328D01*
X184167Y-54931D01*
X184260Y-54463D01*
X184167Y-53995D01*
X183902Y-53598D01*
X183505Y-53333D01*
X183037Y-53240D01*
X182798Y-53287D01*
X182358Y-52846D01*
X182143Y-52703D01*
X181889Y-52652D01*
X175364D01*
X173813Y-51102D01*
X173861Y-50863D01*
X173767Y-50395D01*
X173502Y-49998D01*
X173105Y-49733D01*
X172637Y-49639D01*
X172537Y-49659D01*
X172137Y-49359D01*
X172130Y-49283D01*
X172130Y-49283D01*
X172130Y-49283D01*
X172223Y-48815D01*
X172130Y-48347D01*
X171865Y-47950D01*
X171550Y-47739D01*
Y-47239D01*
X171865Y-47028D01*
X172130Y-46631D01*
X172223Y-46163D01*
X172130Y-45695D01*
X171865Y-45298D01*
X171468Y-45033D01*
X171000Y-44940D01*
D02*
G37*
G36*
X217500Y-37878D02*
X216759Y-38025D01*
X216130Y-38445D01*
X215710Y-39074D01*
X215563Y-39815D01*
X215710Y-40556D01*
X216130Y-41185D01*
X216759Y-41605D01*
X217500Y-41752D01*
X218241Y-41605D01*
X218870Y-41185D01*
X219290Y-40556D01*
X219437Y-39815D01*
X219290Y-39074D01*
X218870Y-38445D01*
X218241Y-38025D01*
X217500Y-37878D01*
D02*
G37*
G36*
X251500Y-47591D02*
X251032Y-47685D01*
X250635Y-47950D01*
X250370Y-48347D01*
X250276Y-48815D01*
X250370Y-49283D01*
X250635Y-49680D01*
X251032Y-49945D01*
X251500Y-50038D01*
X251968Y-49945D01*
X252365Y-49680D01*
X252630Y-49283D01*
X252724Y-48815D01*
X252630Y-48347D01*
X252365Y-47950D01*
X251968Y-47685D01*
X251500Y-47591D01*
D02*
G37*
G36*
X44647Y-41818D02*
X44179Y-41911D01*
X43782Y-42176D01*
X43516Y-42573D01*
X43423Y-43042D01*
X43516Y-43510D01*
X43782Y-43907D01*
X44179Y-44172D01*
X44647Y-44265D01*
X45115Y-44172D01*
X45512Y-43907D01*
X45777Y-43510D01*
X45870Y-43042D01*
X45777Y-42573D01*
X45512Y-42176D01*
X45115Y-41911D01*
X44647Y-41818D01*
D02*
G37*
G36*
X164237Y-42639D02*
X163769Y-42733D01*
X163372Y-42998D01*
X163107Y-43395D01*
X163014Y-43863D01*
X163107Y-44331D01*
X163372Y-44728D01*
X163769Y-44993D01*
X164237Y-45087D01*
X164705Y-44993D01*
X165102Y-44728D01*
X165367Y-44331D01*
X165461Y-43863D01*
X165367Y-43395D01*
X165102Y-42998D01*
X164705Y-42733D01*
X164237Y-42639D01*
D02*
G37*
G36*
X58099Y-50235D02*
X57630Y-50328D01*
X57234Y-50593D01*
X56968Y-50990D01*
X56875Y-51459D01*
X56968Y-51927D01*
X57234Y-52324D01*
X57630Y-52589D01*
X58099Y-52682D01*
X58567Y-52589D01*
X58964Y-52324D01*
X59229Y-51927D01*
X59322Y-51459D01*
X59229Y-50990D01*
X58964Y-50593D01*
X58567Y-50328D01*
X58099Y-50235D01*
D02*
G37*
G36*
X333500Y-34500D02*
X332614Y-34677D01*
X331863Y-35178D01*
X331362Y-35929D01*
X331185Y-36815D01*
X331362Y-37701D01*
X331863Y-38452D01*
X332614Y-38953D01*
X333175Y-39065D01*
Y-39565D01*
X332614Y-39677D01*
X331863Y-40178D01*
X331362Y-40929D01*
X331185Y-41815D01*
X331362Y-42701D01*
X331863Y-43452D01*
X332614Y-43953D01*
X333500Y-44129D01*
X334386Y-43953D01*
X335137Y-43452D01*
X335638Y-42701D01*
X335815Y-41815D01*
X335638Y-40929D01*
X335137Y-40178D01*
X334386Y-39677D01*
X333824Y-39565D01*
Y-39065D01*
X334386Y-38953D01*
X335137Y-38452D01*
X335638Y-37701D01*
X335815Y-36815D01*
X335638Y-35929D01*
X335137Y-35178D01*
X334386Y-34677D01*
X333500Y-34500D01*
D02*
G37*
G36*
X297000Y-40091D02*
X296532Y-40185D01*
X296135Y-40450D01*
X295870Y-40847D01*
X295777Y-41315D01*
X295870Y-41783D01*
X296135Y-42180D01*
X296532Y-42445D01*
X297000Y-42538D01*
X297468Y-42445D01*
X297865Y-42180D01*
X298130Y-41783D01*
X298223Y-41315D01*
X298130Y-40847D01*
X297865Y-40450D01*
X297468Y-40185D01*
X297000Y-40091D01*
D02*
G37*
G36*
X153913Y-48876D02*
X153288Y-49000D01*
X152759Y-49354D01*
X152406Y-49883D01*
X152281Y-50507D01*
X152406Y-51132D01*
X152759Y-51661D01*
X153288Y-52015D01*
X153913Y-52139D01*
X154537Y-52015D01*
X155066Y-51661D01*
X155420Y-51132D01*
X155544Y-50507D01*
X155420Y-49883D01*
X155066Y-49354D01*
X154537Y-49000D01*
X153913Y-48876D01*
D02*
G37*
G36*
X153694Y-40387D02*
X153069Y-40511D01*
X152540Y-40865D01*
X152187Y-41394D01*
X152062Y-42018D01*
X152187Y-42643D01*
X152540Y-43172D01*
X153069Y-43526D01*
X153694Y-43650D01*
X154318Y-43526D01*
X154847Y-43172D01*
X155201Y-42643D01*
X155325Y-42018D01*
X155201Y-41394D01*
X154847Y-40865D01*
X154318Y-40511D01*
X153694Y-40387D01*
D02*
G37*
G36*
X71359Y-38130D02*
X70890Y-38223D01*
X70494Y-38488D01*
X70228Y-38885D01*
X70135Y-39353D01*
X70228Y-39822D01*
X70494Y-40219D01*
X70890Y-40484D01*
X71359Y-40577D01*
X71827Y-40484D01*
X72224Y-40219D01*
X72489Y-39822D01*
X72582Y-39353D01*
X72489Y-38885D01*
X72224Y-38488D01*
X71827Y-38223D01*
X71359Y-38130D01*
D02*
G37*
G36*
X239046Y-34160D02*
X238461Y-34276D01*
X237964Y-34607D01*
X237633Y-35104D01*
X237516Y-35689D01*
X237633Y-36274D01*
X237964Y-36770D01*
X238461Y-37102D01*
X239046Y-37218D01*
X239631Y-37102D01*
X240127Y-36770D01*
X240459Y-36274D01*
X240575Y-35689D01*
X240459Y-35104D01*
X240127Y-34607D01*
X239631Y-34276D01*
X239046Y-34160D01*
D02*
G37*
G36*
X303457Y-56035D02*
X302715Y-56183D01*
X302087Y-56603D01*
X301667Y-57231D01*
X301519Y-57972D01*
X301667Y-58714D01*
X302087Y-59342D01*
X302715Y-59762D01*
X303457Y-59910D01*
X304198Y-59762D01*
X304826Y-59342D01*
X305246Y-58714D01*
X305394Y-57972D01*
X305246Y-57231D01*
X304826Y-56603D01*
X304198Y-56183D01*
X303457Y-56035D01*
D02*
G37*
G36*
X286500Y-35506D02*
X286032Y-35599D01*
X285635Y-35864D01*
X285370Y-36261D01*
X285277Y-36729D01*
X285370Y-37197D01*
X285635Y-37594D01*
X286032Y-37860D01*
X286500Y-37953D01*
X286968Y-37860D01*
X287365Y-37594D01*
X287630Y-37197D01*
X287723Y-36729D01*
X287630Y-36261D01*
X287365Y-35864D01*
X286968Y-35599D01*
X286500Y-35506D01*
D02*
G37*
G36*
X41697Y-44868D02*
X41229Y-44961D01*
X40832Y-45226D01*
X40566Y-45623D01*
X40473Y-46091D01*
X40566Y-46560D01*
X40832Y-46957D01*
X41229Y-47222D01*
X41697Y-47315D01*
X42165Y-47222D01*
X42562Y-46957D01*
X42827Y-46560D01*
X42920Y-46091D01*
X42827Y-45623D01*
X42562Y-45226D01*
X42165Y-44961D01*
X41697Y-44868D01*
D02*
G37*
G36*
X256862Y-47091D02*
X256394Y-47185D01*
X255997Y-47450D01*
X255732Y-47847D01*
X255639Y-48315D01*
X255732Y-48783D01*
X255997Y-49180D01*
X256394Y-49445D01*
X256862Y-49538D01*
X257330Y-49445D01*
X257727Y-49180D01*
X257993Y-48783D01*
X258086Y-48315D01*
X257993Y-47847D01*
X257727Y-47450D01*
X257330Y-47185D01*
X256862Y-47091D01*
D02*
G37*
G36*
X286500Y-45878D02*
X285759Y-46025D01*
X285130Y-46445D01*
X284710Y-47074D01*
X284563Y-47815D01*
X284710Y-48556D01*
X285130Y-49185D01*
X285759Y-49605D01*
X286500Y-49752D01*
X287241Y-49605D01*
X287870Y-49185D01*
X288290Y-48556D01*
X288437Y-47815D01*
X288290Y-47074D01*
X287870Y-46445D01*
X287241Y-46025D01*
X286500Y-45878D01*
D02*
G37*
G36*
X227000Y-44786D02*
X226415Y-44902D01*
X225919Y-45234D01*
X225587Y-45730D01*
X225471Y-46315D01*
X225587Y-46900D01*
X225919Y-47396D01*
X226415Y-47728D01*
X227000Y-47844D01*
X227585Y-47728D01*
X228081Y-47396D01*
X228413Y-46900D01*
X228529Y-46315D01*
X228413Y-45730D01*
X228081Y-45234D01*
X227585Y-44902D01*
X227000Y-44786D01*
D02*
G37*
G36*
X54917Y-58189D02*
X54448Y-58282D01*
X54052Y-58547D01*
X53786Y-58944D01*
X53693Y-59412D01*
X53786Y-59881D01*
X54052Y-60278D01*
X54448Y-60543D01*
X54917Y-60636D01*
X55385Y-60543D01*
X55782Y-60278D01*
X56047Y-59881D01*
X56140Y-59412D01*
X56047Y-58944D01*
X55782Y-58547D01*
X55385Y-58282D01*
X54917Y-58189D01*
D02*
G37*
G36*
X72410Y-44792D02*
X71942Y-44885D01*
X71545Y-45150D01*
X71279Y-45547D01*
X71186Y-46016D01*
X71279Y-46484D01*
X71545Y-46881D01*
X71942Y-47146D01*
X72410Y-47239D01*
X72878Y-47146D01*
X73275Y-46881D01*
X73540Y-46484D01*
X73633Y-46016D01*
X73540Y-45547D01*
X73275Y-45150D01*
X72878Y-44885D01*
X72410Y-44792D01*
D02*
G37*
G36*
X52459Y-54530D02*
X51990Y-54623D01*
X51594Y-54888D01*
X51328Y-55285D01*
X51235Y-55753D01*
X51328Y-56222D01*
X51594Y-56619D01*
X51990Y-56884D01*
X52459Y-56977D01*
X52927Y-56884D01*
X53324Y-56619D01*
X53589Y-56222D01*
X53682Y-55753D01*
X53589Y-55285D01*
X53324Y-54888D01*
X52927Y-54623D01*
X52459Y-54530D01*
D02*
G37*
G36*
X283414Y-36420D02*
X282946Y-36513D01*
X282549Y-36778D01*
X282284Y-37175D01*
X282191Y-37643D01*
X282284Y-38112D01*
X282549Y-38508D01*
X282946Y-38774D01*
X283414Y-38867D01*
X283882Y-38774D01*
X284279Y-38508D01*
X284545Y-38112D01*
X284638Y-37643D01*
X284545Y-37175D01*
X284279Y-36778D01*
X283882Y-36513D01*
X283414Y-36420D01*
D02*
G37*
G36*
X88001Y-55945D02*
X87533Y-56038D01*
X87136Y-56303D01*
X86870Y-56700D01*
X86777Y-57169D01*
X86870Y-57637D01*
X87136Y-58034D01*
X87533Y-58299D01*
X88001Y-58392D01*
X88469Y-58299D01*
X88866Y-58034D01*
X89131Y-57637D01*
X89224Y-57169D01*
X89131Y-56700D01*
X88866Y-56303D01*
X88469Y-56038D01*
X88001Y-55945D01*
D02*
G37*
%LPD*%
G36*
X229087Y-148103D02*
X228587D01*
X228277Y-147434D01*
X229397D01*
X229087Y-148103D01*
D02*
G37*
G36*
X231397Y-162092D02*
X230277D01*
X230587Y-161423D01*
X231087D01*
X231397Y-162092D01*
D02*
G37*
G36*
X253221Y-158300D02*
X252887Y-158929D01*
X252387Y-158862D01*
X252110Y-158160D01*
X253221Y-158300D01*
D02*
G37*
G36*
X253197Y-163092D02*
X252077D01*
X252387Y-162423D01*
X252887D01*
X253197Y-163092D01*
D02*
G37*
G36*
X259300Y-162537D02*
X258700D01*
X258440Y-161886D01*
X259560D01*
X259300Y-162537D01*
D02*
G37*
G36*
X170158Y-178148D02*
X168704Y-179601D01*
X155706D01*
X155706Y-179601D01*
X155021Y-179393D01*
X154998Y-179395D01*
X154905Y-179333D01*
X154437Y-179239D01*
X153969Y-179333D01*
X153572Y-179598D01*
X153307Y-179995D01*
X153274Y-180157D01*
X152796Y-180302D01*
X152286Y-179792D01*
X152302Y-179628D01*
X152567Y-179231D01*
X152661Y-178763D01*
X152567Y-178295D01*
X152302Y-177898D01*
X152366Y-177686D01*
X169966D01*
X170158Y-178148D01*
D02*
G37*
G36*
X155580Y-180015D02*
X155702Y-180615D01*
X155102Y-180908D01*
X154895Y-179807D01*
X155580Y-180015D01*
D02*
G37*
G36*
X150821Y-175524D02*
X150396Y-175948D01*
X149753Y-175672D01*
X150545Y-174880D01*
X150821Y-175524D01*
D02*
G37*
G36*
X301449Y-127772D02*
X300805Y-128048D01*
X300381Y-127624D01*
X300657Y-126980D01*
X301449Y-127772D01*
D02*
G37*
G36*
X290533Y-132163D02*
X290257Y-132807D01*
X289465Y-132015D01*
X290108Y-131739D01*
X290533Y-132163D01*
D02*
G37*
G36*
X307885Y-129032D02*
X307235Y-128772D01*
Y-128172D01*
X307885Y-127912D01*
Y-129032D01*
D02*
G37*
G36*
X289449Y-133615D02*
X288805Y-133891D01*
X288381Y-133467D01*
X288657Y-132823D01*
X289449Y-133615D01*
D02*
G37*
G36*
X182929Y-32375D02*
X182260Y-32065D01*
Y-31565D01*
X182929Y-31255D01*
Y-32375D01*
D02*
G37*
G36*
X183677Y-28213D02*
Y-28713D01*
X183008Y-29023D01*
Y-27903D01*
X183677Y-28213D01*
D02*
G37*
G36*
X199591Y-149663D02*
X199337Y-150355D01*
X198545Y-149563D01*
X199237Y-149309D01*
X199591Y-149663D01*
D02*
G37*
G36*
X200891Y-151263D02*
X200637Y-151955D01*
X199845Y-151163D01*
X200537Y-150909D01*
X200891Y-151263D01*
D02*
G37*
G36*
X184429Y-159249D02*
X183760Y-158939D01*
Y-158439D01*
X184429Y-158129D01*
Y-159249D01*
D02*
G37*
G36*
X197691Y-148063D02*
X197437Y-148755D01*
X196645Y-147963D01*
X197337Y-147709D01*
X197691Y-148063D01*
D02*
G37*
G36*
X152992Y-8115D02*
X152300Y-8369D01*
X151946Y-8015D01*
X152200Y-7323D01*
X152992Y-8115D01*
D02*
G37*
G36*
X146091Y-158915D02*
X145837Y-159607D01*
X145045Y-158815D01*
X145737Y-158561D01*
X146091Y-158915D01*
D02*
G37*
G36*
X202491Y-152763D02*
X202237Y-153455D01*
X201445Y-152663D01*
X202137Y-152409D01*
X202491Y-152763D01*
D02*
G37*
G36*
X161297Y-159044D02*
X160177D01*
X160487Y-158375D01*
X160987D01*
X161297Y-159044D01*
D02*
G37*
G36*
X164497D02*
X163377D01*
X163687Y-158375D01*
X164187D01*
X164497Y-159044D01*
D02*
G37*
G36*
X167597D02*
X166477D01*
X166787Y-158375D01*
X167287D01*
X167597Y-159044D01*
D02*
G37*
G36*
X147877Y-161565D02*
Y-162065D01*
X147208Y-162375D01*
Y-161255D01*
X147877Y-161565D01*
D02*
G37*
G36*
X184429Y-161375D02*
X183760Y-161065D01*
Y-160565D01*
X184429Y-160255D01*
Y-161375D01*
D02*
G37*
G36*
X49448Y-164963D02*
Y-165563D01*
X49174Y-165564D01*
Y-164962D01*
X49448Y-164963D01*
D02*
G37*
G36*
X167750Y-62555D02*
X167250D01*
X166940Y-61886D01*
X168060D01*
X167750Y-62555D01*
D02*
G37*
G36*
X169750Y-62055D02*
X169250D01*
X168940Y-61386D01*
X170060D01*
X169750Y-62055D01*
D02*
G37*
G36*
X131550Y-160855D02*
X131050D01*
X130740Y-160186D01*
X131860D01*
X131550Y-160855D01*
D02*
G37*
G36*
X171560Y-161244D02*
X170440D01*
X170750Y-160575D01*
X171250D01*
X171560Y-161244D01*
D02*
G37*
G36*
X140400Y-160788D02*
X139600D01*
X139440Y-160186D01*
X140560D01*
X140400Y-160788D01*
D02*
G37*
G36*
X128297Y-159744D02*
X127177D01*
X127487Y-159075D01*
X127987D01*
X128297Y-159744D01*
D02*
G37*
G36*
X124492Y-159515D02*
X123700Y-160307D01*
X123447Y-159615D01*
X123800Y-159261D01*
X124492Y-159515D01*
D02*
G37*
G36*
X169197Y-161244D02*
X168077D01*
X168387Y-160575D01*
X168887D01*
X169197Y-161244D01*
D02*
G37*
G36*
X126697D02*
X125577D01*
X125887Y-160575D01*
X126387D01*
X126697Y-161244D01*
D02*
G37*
G36*
X143700Y-160579D02*
X144006Y-161253D01*
X142886Y-161235D01*
X143200Y-160571D01*
X143700Y-160579D01*
D02*
G37*
G36*
X129797Y-161244D02*
X128677D01*
X128987Y-160575D01*
X129487D01*
X129797Y-161244D01*
D02*
G37*
G36*
X166097D02*
X164977D01*
X165287Y-160575D01*
X165787D01*
X166097Y-161244D01*
D02*
G37*
G36*
X162897D02*
X161777D01*
X162087Y-160575D01*
X162587D01*
X162897Y-161244D01*
D02*
G37*
G36*
X281531Y-49413D02*
X281461Y-49949D01*
X280461Y-49886D01*
X280413Y-49358D01*
X281531Y-49413D01*
D02*
G37*
G36*
X267635Y-84887D02*
X267300Y-85307D01*
X266508Y-84515D01*
X266927Y-84180D01*
X267635Y-84887D01*
D02*
G37*
G36*
X272025Y-86278D02*
X270905D01*
X271215Y-85610D01*
X271715D01*
X272025Y-86278D01*
D02*
G37*
G36*
X160650Y-73205D02*
X160150Y-73347D01*
X159748Y-72859D01*
X160715Y-72161D01*
X160650Y-73205D01*
D02*
G37*
G36*
X273634Y-84646D02*
X272994Y-85300D01*
X272375Y-84668D01*
X272750Y-83900D01*
X273250Y-83891D01*
X273634Y-84646D01*
D02*
G37*
G36*
X230836Y-53612D02*
X230870Y-53783D01*
X231135Y-54180D01*
X231532Y-54445D01*
X232000Y-54539D01*
X232468Y-54445D01*
X232865Y-54180D01*
X233135D01*
X233532Y-54445D01*
X234000Y-54539D01*
X234468Y-54445D01*
X234865Y-54180D01*
X235135D01*
X235532Y-54445D01*
X236000Y-54539D01*
X236468Y-54445D01*
X236845Y-54193D01*
X237043Y-54299D01*
X237286Y-54461D01*
Y-97879D01*
X237178Y-98042D01*
X237123Y-98315D01*
Y-110284D01*
X222813Y-124594D01*
X222351Y-124403D01*
Y-106315D01*
X222351Y-106315D01*
X222351Y-106315D01*
X222296Y-106042D01*
X222244Y-105964D01*
X222244Y-105964D01*
X222214Y-105918D01*
Y-104276D01*
X222600Y-103959D01*
X223000Y-104039D01*
X223468Y-103945D01*
X223750Y-103757D01*
X224032Y-103945D01*
X224500Y-104039D01*
X224968Y-103945D01*
X225365Y-103680D01*
X225630Y-103283D01*
X225724Y-102815D01*
X225630Y-102347D01*
X225365Y-101950D01*
X224968Y-101685D01*
X224500Y-101591D01*
X224032Y-101685D01*
X223750Y-101873D01*
X223468Y-101685D01*
X223000Y-101591D01*
X222600Y-101671D01*
X222214Y-101354D01*
Y-97611D01*
X230005Y-89820D01*
X230159Y-89588D01*
X230214Y-89315D01*
X230214Y-89315D01*
X230214Y-89315D01*
Y-89315D01*
Y-53843D01*
X230615Y-53545D01*
X230836Y-53612D01*
D02*
G37*
G36*
X149554Y-77515D02*
X149200Y-77868D01*
X148508Y-77615D01*
X149300Y-76823D01*
X149554Y-77515D01*
D02*
G37*
G36*
X273634Y-85953D02*
X273250Y-86708D01*
X272750Y-86700D01*
X272375Y-85932D01*
X272994Y-85300D01*
X273634Y-85953D01*
D02*
G37*
G36*
X152350Y-3954D02*
X152135Y-4098D01*
X151870Y-4495D01*
X151777Y-4963D01*
X151824Y-5202D01*
X147531Y-9494D01*
X147388Y-9709D01*
X147337Y-9963D01*
Y-25364D01*
X146951Y-25681D01*
X146500Y-25591D01*
X146032Y-25685D01*
X145635Y-25950D01*
X145370Y-26347D01*
X145276Y-26815D01*
X145370Y-27283D01*
X145635Y-27680D01*
X145837Y-27815D01*
Y-35364D01*
X145451Y-35681D01*
X145000Y-35591D01*
X144532Y-35685D01*
X144135Y-35950D01*
X143870Y-36347D01*
X143777Y-36815D01*
X143870Y-37283D01*
X144135Y-37680D01*
X144337Y-37815D01*
Y-65315D01*
X144388Y-65569D01*
X144531Y-65784D01*
X144531Y-65784D01*
X144531Y-65784D01*
X148408Y-69660D01*
X148263Y-70139D01*
X148032Y-70185D01*
X148032Y-70185D01*
X148032Y-70185D01*
X147723Y-70315D01*
D01*
X147630Y-69847D01*
X147365Y-69450D01*
X146968Y-69185D01*
X146500Y-69091D01*
X146032Y-69185D01*
X145635Y-69450D01*
X145370Y-69847D01*
X145276Y-70315D01*
X145370Y-70783D01*
X145635Y-71180D01*
X145837Y-71315D01*
Y-72315D01*
X145888Y-72569D01*
X146031Y-72784D01*
X148408Y-75160D01*
X148263Y-75639D01*
X148032Y-75685D01*
X147635Y-75950D01*
X147370Y-76347D01*
X147276Y-76815D01*
X147278Y-76822D01*
X146924Y-77176D01*
X146500Y-77091D01*
X146032Y-77185D01*
X145635Y-77450D01*
X145370Y-77847D01*
X145276Y-78315D01*
X145370Y-78783D01*
X145635Y-79180D01*
X146032Y-79445D01*
X146500Y-79539D01*
X146968Y-79445D01*
X147365Y-79180D01*
X147500Y-78978D01*
X148225D01*
X148974Y-79726D01*
Y-92263D01*
X149025Y-92517D01*
X149168Y-92732D01*
X149168Y-92732D01*
X149168Y-92732D01*
X151674Y-95237D01*
Y-135626D01*
X151233Y-135862D01*
X150968Y-135685D01*
X150500Y-135591D01*
X150032Y-135685D01*
X149635Y-135950D01*
X149370Y-136347D01*
X149276Y-136815D01*
X149370Y-137283D01*
X149635Y-137680D01*
X150032Y-137945D01*
X150500Y-138039D01*
X150968Y-137945D01*
X151233Y-137768D01*
X151674Y-138004D01*
Y-149540D01*
X148563Y-152652D01*
X131000D01*
X130746Y-152703D01*
X130531Y-152846D01*
X127268Y-156109D01*
X127125Y-156324D01*
X127074Y-156578D01*
Y-157670D01*
X126606Y-157983D01*
X118200Y-149577D01*
Y-83737D01*
X126606Y-75332D01*
X126749Y-75117D01*
X126800Y-74863D01*
Y-43953D01*
X140969Y-29784D01*
X140969Y-29784D01*
X140969Y-29784D01*
X141112Y-29569D01*
X141163Y-29315D01*
Y-7774D01*
X145461Y-3476D01*
X152205D01*
X152350Y-3954D01*
D02*
G37*
G36*
X271457Y-87650D02*
X270765Y-87903D01*
X270412Y-87550D01*
X270665Y-86858D01*
X271457Y-87650D01*
D02*
G37*
G36*
X196774Y-30888D02*
Y-49060D01*
X196825Y-49314D01*
X196968Y-49529D01*
X196968Y-49529D01*
X196968Y-49529D01*
X199037Y-51598D01*
Y-137340D01*
X193624Y-142754D01*
X193188Y-142520D01*
X193185Y-142507D01*
X193224Y-142315D01*
X193176Y-142076D01*
X194906Y-140347D01*
X194906Y-140347D01*
X194906Y-140347D01*
X195049Y-140132D01*
X195100Y-139878D01*
Y-29867D01*
X195562Y-29675D01*
X196774Y-30888D01*
D02*
G37*
G36*
X159828Y-71063D02*
X158937Y-71954D01*
X158667Y-71147D01*
X159021Y-70793D01*
X159828Y-71063D01*
D02*
G37*
G36*
X208222Y-139015D02*
Y-139615D01*
X207571Y-139875D01*
Y-138755D01*
X208222Y-139015D01*
D02*
G37*
G36*
X169837Y-74635D02*
Y-148725D01*
X161868Y-156694D01*
X161400Y-156381D01*
Y-154110D01*
X161856Y-153654D01*
X161856Y-153654D01*
X161856Y-153654D01*
X161999Y-153439D01*
X162050Y-153186D01*
Y-71321D01*
D01*
Y-71321D01*
X162050D01*
D01*
Y-71321D01*
X162050D01*
Y-71321D01*
X162050Y-71321D01*
X162050Y-71321D01*
D01*
D01*
D01*
D01*
X161999Y-71067D01*
X161951Y-70995D01*
X161951Y-70995D01*
X161856Y-70852D01*
Y-70852D01*
X161856Y-70852D01*
X158398Y-67394D01*
X158419Y-67326D01*
X162528D01*
X169837Y-74635D01*
D02*
G37*
G36*
X196429Y-14723D02*
X195760Y-14413D01*
Y-13913D01*
X196429Y-13603D01*
Y-14723D01*
D02*
G37*
G36*
X201791Y-46363D02*
X201437Y-46716D01*
X200745Y-46463D01*
X201537Y-45671D01*
X201791Y-46363D01*
D02*
G37*
G36*
X191553Y-140115D02*
X191300Y-140807D01*
X190508Y-140015D01*
X191200Y-139761D01*
X191553Y-140115D01*
D02*
G37*
G36*
X202691Y-44363D02*
X202337Y-44717D01*
X201645Y-44463D01*
X202437Y-43671D01*
X202691Y-44363D01*
D02*
G37*
G36*
X186554Y-135615D02*
X186300Y-136307D01*
X185508Y-135515D01*
X186200Y-135261D01*
X186554Y-135615D01*
D02*
G37*
G36*
X196429Y-16723D02*
X195760Y-16413D01*
Y-15913D01*
X196429Y-15603D01*
Y-16723D01*
D02*
G37*
G36*
X189553Y-138615D02*
X189300Y-139307D01*
X188508Y-138515D01*
X189200Y-138261D01*
X189553Y-138615D01*
D02*
G37*
G36*
X148750Y-72555D02*
X148250D01*
X147940Y-71886D01*
X149060D01*
X148750Y-72555D01*
D02*
G37*
G36*
X188054Y-137115D02*
X187800Y-137807D01*
X187008Y-137015D01*
X187700Y-136761D01*
X188054Y-137115D01*
D02*
G37*
%LPC*%
G36*
X225707Y-109285D02*
X224965Y-109433D01*
X224337Y-109853D01*
X223917Y-110481D01*
X223769Y-111222D01*
X223917Y-111964D01*
X224337Y-112592D01*
X224965Y-113012D01*
X225707Y-113160D01*
X226448Y-113012D01*
X227077Y-112592D01*
X227497Y-111964D01*
X227644Y-111222D01*
X227497Y-110481D01*
X227077Y-109853D01*
X226448Y-109433D01*
X225707Y-109285D01*
D02*
G37*
G36*
X120837Y-92932D02*
X120213Y-93056D01*
X119684Y-93410D01*
X119330Y-93939D01*
X119206Y-94563D01*
X119330Y-95187D01*
X119684Y-95717D01*
X120213Y-96070D01*
X120837Y-96194D01*
X121461Y-96070D01*
X121991Y-95717D01*
X122344Y-95187D01*
X122468Y-94563D01*
X122344Y-93939D01*
X121991Y-93410D01*
X121461Y-93056D01*
X120837Y-92932D01*
D02*
G37*
G36*
X135537Y-87832D02*
X134913Y-87956D01*
X134383Y-88310D01*
X134030Y-88839D01*
X133906Y-89463D01*
X134030Y-90087D01*
X134383Y-90617D01*
X134913Y-90970D01*
X135537Y-91094D01*
X136161Y-90970D01*
X136691Y-90617D01*
X137044Y-90087D01*
X137168Y-89463D01*
X137044Y-88839D01*
X136691Y-88310D01*
X136161Y-87956D01*
X135537Y-87832D01*
D02*
G37*
G36*
X124537D02*
X123913Y-87956D01*
X123383Y-88310D01*
X123030Y-88839D01*
X122906Y-89463D01*
X123030Y-90087D01*
X123383Y-90617D01*
X123913Y-90970D01*
X124537Y-91094D01*
X125161Y-90970D01*
X125691Y-90617D01*
X126044Y-90087D01*
X126168Y-89463D01*
X126044Y-88839D01*
X125691Y-88310D01*
X125161Y-87956D01*
X124537Y-87832D01*
D02*
G37*
G36*
X145531Y-91909D02*
X144790Y-92057D01*
X144162Y-92477D01*
X143742Y-93105D01*
X143594Y-93846D01*
X143742Y-94588D01*
X144162Y-95216D01*
X144790Y-95636D01*
X145531Y-95784D01*
X146273Y-95636D01*
X146901Y-95216D01*
X147321Y-94588D01*
X147469Y-93846D01*
X147321Y-93105D01*
X146901Y-92477D01*
X146273Y-92057D01*
X145531Y-91909D01*
D02*
G37*
G36*
X120000Y-117592D02*
X119532Y-117685D01*
X119135Y-117950D01*
X118870Y-118347D01*
X118777Y-118815D01*
X118870Y-119283D01*
X119135Y-119680D01*
X119532Y-119945D01*
X120000Y-120038D01*
X120468Y-119945D01*
X120865Y-119680D01*
X121130Y-119283D01*
X121223Y-118815D01*
X121130Y-118347D01*
X120865Y-117950D01*
X120468Y-117685D01*
X120000Y-117592D01*
D02*
G37*
G36*
X145500Y-17091D02*
X145032Y-17185D01*
X144635Y-17450D01*
X144370Y-17847D01*
X144276Y-18315D01*
X144370Y-18783D01*
X144635Y-19180D01*
X145032Y-19445D01*
X145500Y-19538D01*
X145968Y-19445D01*
X146365Y-19180D01*
X146630Y-18783D01*
X146723Y-18315D01*
X146630Y-17847D01*
X146365Y-17450D01*
X145968Y-17185D01*
X145500Y-17091D01*
D02*
G37*
G36*
X139000Y-104878D02*
X138259Y-105025D01*
X137630Y-105445D01*
X137210Y-106074D01*
X137063Y-106815D01*
X137210Y-107556D01*
X137630Y-108185D01*
X138259Y-108605D01*
X139000Y-108752D01*
X139741Y-108605D01*
X140370Y-108185D01*
X140790Y-107556D01*
X140937Y-106815D01*
X140790Y-106074D01*
X140370Y-105445D01*
X139741Y-105025D01*
X139000Y-104878D01*
D02*
G37*
G36*
X165000Y-89091D02*
X164532Y-89185D01*
X164135Y-89450D01*
X163870Y-89847D01*
X163777Y-90315D01*
X163870Y-90783D01*
X164135Y-91180D01*
Y-91450D01*
X163870Y-91847D01*
X163777Y-92315D01*
X163870Y-92783D01*
X164135Y-93180D01*
Y-93450D01*
X163870Y-93847D01*
X163777Y-94315D01*
X163870Y-94783D01*
X164135Y-95180D01*
Y-95450D01*
X163870Y-95847D01*
X163777Y-96315D01*
X163870Y-96783D01*
X164135Y-97180D01*
Y-97450D01*
X163870Y-97847D01*
X163777Y-98315D01*
X163870Y-98783D01*
X164135Y-99180D01*
X164532Y-99445D01*
X165000Y-99538D01*
X165468Y-99445D01*
X165865Y-99180D01*
X166130Y-98783D01*
X166224Y-98315D01*
X166130Y-97847D01*
X165865Y-97450D01*
Y-97180D01*
X166130Y-96783D01*
X166224Y-96315D01*
X166130Y-95847D01*
X165865Y-95450D01*
Y-95180D01*
X166130Y-94783D01*
X166224Y-94315D01*
X166130Y-93847D01*
X165865Y-93450D01*
Y-93180D01*
X166130Y-92783D01*
X166224Y-92315D01*
X166130Y-91847D01*
X165865Y-91450D01*
Y-91180D01*
X166130Y-90783D01*
X166224Y-90315D01*
X166130Y-89847D01*
X165865Y-89450D01*
X165468Y-89185D01*
X165000Y-89091D01*
D02*
G37*
G36*
X166500Y-123091D02*
X166032Y-123185D01*
X165635Y-123450D01*
X165370Y-123847D01*
X165277Y-124315D01*
X165370Y-124783D01*
X165635Y-125180D01*
X166032Y-125445D01*
X166500Y-125539D01*
X166968Y-125445D01*
X167365Y-125180D01*
X167630Y-124783D01*
X167724Y-124315D01*
X167630Y-123847D01*
X167365Y-123450D01*
X166968Y-123185D01*
X166500Y-123091D01*
D02*
G37*
G36*
Y-75990D02*
X165993Y-76090D01*
X165563Y-76378D01*
X165500Y-76472D01*
X165000D01*
X164937Y-76378D01*
X164507Y-76090D01*
X164000Y-75990D01*
X163493Y-76090D01*
X163063Y-76378D01*
X162775Y-76808D01*
X162674Y-77315D01*
X162775Y-77822D01*
X163063Y-78252D01*
X163493Y-78540D01*
X164000Y-78640D01*
X164507Y-78540D01*
X164937Y-78252D01*
X165000Y-78158D01*
X165500D01*
X165563Y-78252D01*
X165993Y-78540D01*
X166500Y-78640D01*
X167007Y-78540D01*
X167437Y-78252D01*
X167725Y-77822D01*
X167825Y-77315D01*
X167725Y-76808D01*
X167437Y-76378D01*
X167007Y-76090D01*
X166500Y-75990D01*
D02*
G37*
G36*
X165707Y-127285D02*
X164965Y-127433D01*
X164337Y-127853D01*
X163917Y-128481D01*
X163769Y-129222D01*
X163917Y-129964D01*
X164337Y-130592D01*
X164965Y-131012D01*
X165707Y-131160D01*
X166448Y-131012D01*
X167077Y-130592D01*
X167497Y-129964D01*
X167644Y-129222D01*
X167497Y-128481D01*
X167077Y-127853D01*
X166448Y-127433D01*
X165707Y-127285D01*
D02*
G37*
G36*
X165000Y-100684D02*
X164376Y-100808D01*
X163847Y-101161D01*
X163493Y-101691D01*
X163369Y-102315D01*
X163493Y-102939D01*
X163847Y-103469D01*
X164376Y-103822D01*
X164944Y-103935D01*
X164869Y-104315D01*
X164993Y-104939D01*
X165347Y-105468D01*
X165876Y-105822D01*
X166500Y-105946D01*
X167124Y-105822D01*
X167654Y-105468D01*
X168007Y-104939D01*
X168131Y-104315D01*
X168007Y-103691D01*
X167654Y-103161D01*
X167124Y-102808D01*
X166903Y-102764D01*
X166625Y-102348D01*
X166631Y-102315D01*
X166507Y-101691D01*
X166154Y-101161D01*
X165624Y-100808D01*
X165000Y-100684D01*
D02*
G37*
G36*
X165207Y-106785D02*
X164465Y-106933D01*
X163837Y-107353D01*
X163417Y-107981D01*
X163269Y-108722D01*
X163417Y-109464D01*
X163837Y-110092D01*
X164465Y-110512D01*
X165207Y-110660D01*
X165948Y-110512D01*
X166577Y-110092D01*
X166997Y-109464D01*
X167144Y-108722D01*
X166997Y-107981D01*
X166577Y-107353D01*
X165948Y-106933D01*
X165207Y-106785D01*
D02*
G37*
G36*
X165637Y-111238D02*
X165130Y-111338D01*
X164700Y-111626D01*
X164412Y-112056D01*
X164312Y-112563D01*
X164412Y-113070D01*
X164700Y-113500D01*
X165130Y-113788D01*
X165637Y-113889D01*
X166144Y-113788D01*
X166574Y-113500D01*
X166862Y-113070D01*
X166963Y-112563D01*
X166862Y-112056D01*
X166574Y-111626D01*
X166144Y-111338D01*
X165637Y-111238D01*
D02*
G37*
%LPD*%
D44*
X17500Y-177315D02*
Y-168815D01*
X30000Y-156315D01*
X55197D01*
X31552Y-157763D02*
X54948D01*
X22500Y-166815D02*
X31552Y-157763D01*
X22500Y-177315D02*
Y-166815D01*
X140000Y-164815D02*
Y-159615D01*
X136552Y-168263D02*
X140000Y-164815D01*
X65448Y-168263D02*
X136552D01*
X54948Y-157763D02*
X65448Y-168263D01*
X55197Y-156315D02*
X65945Y-167063D01*
X135752D01*
X138000Y-164815D01*
Y-159615D01*
D45*
X112500Y-1315D02*
X132500D01*
X109500Y-4315D02*
X112500Y-1315D01*
X94000Y-4315D02*
X109500D01*
X93000Y-3315D02*
X94000Y-4315D01*
D46*
X238500Y-27815D02*
X242000D01*
X244000Y-40315D02*
X245800Y-42115D01*
X244000Y-40315D02*
Y-29815D01*
X242000Y-27815D02*
X244000Y-29815D01*
X271889Y-40315D02*
X281000D01*
X270089Y-42115D02*
X271889Y-40315D01*
X245800Y-42115D02*
X270089D01*
D47*
X280961Y-50913D02*
Y-48854D01*
X281000Y-48815D01*
X270000Y-61874D02*
X280961Y-50913D01*
X270000Y-81815D02*
Y-61874D01*
X266500Y-85315D02*
X270000Y-81815D01*
D48*
X240500Y-43815D02*
X268500D01*
X280843Y-56815D02*
X289500D01*
X276000Y-61658D02*
X280843Y-56815D01*
X276000Y-87729D02*
Y-61658D01*
X275000Y-87315D02*
Y-61243D01*
X268500Y-43815D02*
X270000Y-45315D01*
X270016Y-89665D02*
X272650D01*
X270014Y-89663D02*
X270016Y-89665D01*
X261844Y-89663D02*
X270014D01*
X269602Y-90665D02*
X273064D01*
X269600Y-90663D02*
X269602Y-90665D01*
X268274Y-90663D02*
X269600D01*
X268272Y-90665D02*
X268274Y-90663D01*
X262257Y-90665D02*
X268272D01*
X272650Y-89665D02*
X275000Y-87315D01*
X273064Y-90665D02*
X276000Y-87729D01*
X235766Y-134343D02*
X250000Y-120109D01*
X236180Y-135343D02*
X251000Y-120523D01*
X202000Y-164315D02*
X205500Y-160815D01*
X144252Y-167563D02*
X171252D01*
X174500Y-164315D02*
X202000D01*
X171252Y-167563D02*
X174500Y-164315D01*
X139808Y-166563D02*
X170000D01*
X200000Y-163100D02*
X206500Y-156600D01*
X170000Y-166563D02*
X173463Y-163100D01*
X200000D01*
X115637Y-73063D02*
Y-67846D01*
X115600Y-67809D02*
X115637Y-67846D01*
X115600Y-67809D02*
Y-65821D01*
X151320Y-173472D02*
X152820Y-174972D01*
X148170Y-176272D02*
X148870Y-176972D01*
X149745Y-174872D02*
X150845Y-175972D01*
X140000Y-171815D02*
X144252Y-167563D01*
X140000Y-179315D02*
Y-171815D01*
X157619Y-173472D02*
X158119Y-173972D01*
X151437Y-179953D02*
Y-178763D01*
X98837Y-151263D02*
X101537Y-153963D01*
X251000Y-120523D02*
Y-101921D01*
X250000Y-120109D02*
Y-101507D01*
X261844Y-89663D01*
X229816Y-134343D02*
X235766D01*
X230230Y-135343D02*
X236180D01*
X208500Y-157073D02*
X230230Y-135343D01*
X210843Y-153315D02*
X229816Y-134343D01*
X208500Y-163815D02*
Y-157073D01*
X209000Y-153315D02*
X210843D01*
X251000Y-101921D02*
X262257Y-90665D01*
X137008Y-169363D02*
X139808Y-166563D01*
X289457Y-139629D02*
Y-135358D01*
X284478Y-140366D02*
X286457Y-138387D01*
X284478Y-140366D02*
Y-140366D01*
X271500Y-151929D02*
Y-147815D01*
X175037Y-168113D02*
X255316D01*
X168842Y-181972D02*
X177702Y-173113D01*
X169000Y-180315D02*
X177202Y-172113D01*
X170420Y-176972D02*
X176280Y-171113D01*
X170006Y-175972D02*
X175865Y-170113D01*
X169592Y-174972D02*
X175451Y-169113D01*
X169178Y-173972D02*
X175037Y-168113D01*
X293328Y-134315D02*
X301943D01*
X306285Y-129972D01*
X310457D01*
X61048Y-149863D02*
X100952D01*
X93985Y-165815D02*
X96237Y-163563D01*
X67000Y-165815D02*
X93985D01*
X54548Y-153363D02*
X67000Y-165815D01*
X48737Y-153363D02*
X54548D01*
X183937Y-8663D02*
X184037Y-8763D01*
X115600Y-65821D02*
X115637Y-65784D01*
X151437Y-179953D02*
X153457Y-181972D01*
X112137Y-97163D02*
Y-76563D01*
X41437Y937D02*
X41537Y1037D01*
X96237Y-163563D02*
X100937D01*
X110737Y-98563D02*
X112137Y-97163D01*
Y-76563D02*
X115637Y-73063D01*
X237837Y-110579D02*
Y-98315D01*
X297370Y-131059D02*
X301457Y-126972D01*
X153457Y-181972D02*
X168842D01*
X306371Y-128472D02*
X308457D01*
X288370Y-128559D02*
X294457D01*
X295870Y-130059D02*
X298957Y-126972D01*
X292500Y-132315D02*
X301114D01*
X292914Y-133315D02*
X301528D01*
X306371Y-128472D01*
X301114Y-132315D02*
X306457Y-126972D01*
X154585Y-180315D02*
X169000D01*
X148870Y-176972D02*
X170420D01*
X150845Y-175972D02*
X170006D01*
X152820Y-174972D02*
X169592D01*
X158119Y-173972D02*
X169178D01*
X275000Y-61243D02*
X281429Y-54815D01*
X295000D01*
X37500Y-148263D02*
Y-140815D01*
Y-148263D02*
X40500Y-151263D01*
X98837D01*
X56500Y-145315D02*
X61048Y-149863D01*
X56500Y-145315D02*
Y-140815D01*
X239000Y-179315D02*
X241000Y-177315D01*
X177702Y-173113D02*
X241000D01*
X259000Y-164429D02*
Y-161315D01*
X255316Y-168113D02*
X259000Y-164429D01*
X291457Y-140458D02*
Y-136187D01*
X293328Y-134315D01*
X290457Y-140044D02*
Y-135773D01*
X292914Y-133315D01*
X289457Y-135358D02*
X292500Y-132315D01*
X286457Y-130472D02*
X288370Y-128559D01*
X289370Y-130059D02*
X295870D01*
X287457Y-131972D02*
X289370Y-130059D01*
X286457Y-138387D02*
Y-130472D01*
X287457Y-138801D02*
Y-131972D01*
X288457Y-139215D02*
Y-133815D01*
X291213Y-131059D02*
X297370D01*
X288457Y-133815D02*
X289457Y-132815D01*
X291213Y-131059D01*
X221500Y-106178D02*
X221637Y-106315D01*
X221500Y-106178D02*
Y-97315D01*
X206500Y-156600D02*
Y-144021D01*
X239000Y-111521D02*
Y-46815D01*
X209101Y-139315D02*
X237837Y-110579D01*
X206500Y-144021D02*
X239000Y-111521D01*
X207000Y-139315D02*
X209101D01*
X210185Y-136815D02*
X211737Y-135263D01*
X221637Y-125263D01*
X207000Y-136815D02*
X210185D01*
X221637Y-125263D02*
Y-106315D01*
X177202Y-172113D02*
X256973D01*
X176280Y-171113D02*
X256559D01*
X175865Y-170113D02*
X256145D01*
X175451Y-169113D02*
X255731D01*
X256973Y-172113D02*
X289457Y-139629D01*
X256559Y-171113D02*
X288457Y-139215D01*
X256145Y-170113D02*
X287457Y-138801D01*
X255731Y-169113D02*
X284478Y-140366D01*
X259000Y-164429D02*
X271500Y-151929D01*
X233000Y-25815D02*
X236000Y-22815D01*
X239000D01*
X270500Y-172315D02*
Y-161415D01*
X291457Y-140458D01*
X239000Y-46815D02*
X240500Y-45315D01*
X84500Y1037D02*
X115637Y-30100D01*
Y-65784D02*
Y-30100D01*
X41537Y1037D02*
X84500D01*
X254500Y-164815D02*
Y-159600D01*
X228500Y-52815D02*
X232000Y-49315D01*
Y-24815D01*
X216000Y-89815D02*
X226000D01*
X228500Y-87315D01*
Y-52815D01*
X221500Y-97315D02*
X229500Y-89315D01*
Y-53315D01*
X233000Y-49815D01*
Y-25815D01*
X240500Y-45315D02*
X242000D01*
X238000Y-46315D02*
X240500Y-43815D01*
X237837Y-98315D02*
X238000Y-98152D01*
Y-46315D01*
X257387Y-173113D02*
X290457Y-140044D01*
X241000Y-177315D02*
Y-173113D01*
X257387D01*
X49448Y-165263D02*
X53548Y-169363D01*
X46237Y-165263D02*
X49448D01*
X53548Y-169363D02*
X137008D01*
X249500Y-19815D02*
X252000Y-17315D01*
X232000Y-24815D02*
X237000Y-19815D01*
X249500D01*
X252000Y-17315D02*
Y-15815D01*
X101537Y-159763D02*
Y-159315D01*
Y-153963D01*
D49*
X250637Y-164452D02*
Y-155363D01*
X252637Y-163663D02*
Y-157763D01*
X228837Y-165463D02*
Y-146863D01*
X230837Y-162663D02*
Y-148663D01*
X226737Y-162763D02*
Y-145063D01*
X226837Y-144963D01*
X233037Y-165063D02*
Y-151763D01*
X271465Y-86850D02*
Y-62035D01*
X160737Y-153836D02*
X161387Y-153186D01*
Y-71321D01*
X157929Y-67863D02*
X161387Y-71321D01*
X160737Y-159615D02*
Y-153836D01*
X159837Y-71963D02*
X160400Y-72526D01*
Y-152900D02*
Y-72526D01*
X158037Y-153990D02*
X159500Y-152527D01*
Y-75815D01*
X158937Y-154363D02*
X160400Y-152900D01*
X158037Y-154015D02*
Y-153990D01*
X153348Y-69663D02*
X159500Y-75815D01*
X149348Y-69663D02*
X153348D01*
X153502Y-67863D02*
X157929D01*
X156637Y-68763D02*
X159837Y-71963D01*
X181588Y-64314D02*
X181714D01*
X175000Y-63815D02*
X179137Y-67952D01*
X173000Y-63866D02*
X177937Y-68803D01*
X173000Y-63866D02*
Y-63815D01*
X149100Y-62188D02*
X153575Y-66663D01*
X162802D01*
X153948Y-65763D02*
X163175D01*
X154321Y-64863D02*
X163548D01*
X187237Y-46363D02*
Y-38501D01*
X182551Y-33815D02*
X187237Y-38501D01*
X187000Y-35815D02*
Y-29815D01*
X190500Y-131315D02*
Y-9315D01*
X191600Y-133215D02*
Y-11215D01*
X192500Y-135315D02*
Y-15163D01*
X193537Y-137778D02*
Y-15778D01*
X194437Y-139878D02*
Y-17378D01*
X182437Y-33815D02*
X182551D01*
X186537Y-47063D02*
X187237Y-46363D01*
X185648Y-28463D02*
X187000Y-29815D01*
X176537Y-36763D02*
X177089Y-37315D01*
X174937Y-38463D02*
Y-34363D01*
X177089Y-37315D02*
X184000D01*
X270502Y-87813D02*
X271465Y-86850D01*
X270409Y-88715D02*
X271651D01*
X270408Y-88713D02*
X270409Y-88715D01*
X261451Y-88713D02*
X270408D01*
X262002Y-92263D02*
X268937D01*
X271465Y-62035D02*
X281437Y-52063D01*
X271651Y-88715D02*
X272915Y-87450D01*
Y-86900D02*
X273000Y-86815D01*
X272915Y-87450D02*
Y-86900D01*
X235000Y-132493D02*
X248000Y-119493D01*
X235373Y-133393D02*
X249000Y-119766D01*
X236574Y-136293D02*
X251950Y-120917D01*
X241500Y-147815D02*
Y-135315D01*
X197437Y-49060D02*
Y-30614D01*
Y-49060D02*
X199700Y-51323D01*
Y-137615D02*
Y-51323D01*
X194437Y-17378D02*
X195652Y-16163D01*
X193537Y-15778D02*
X195152Y-14163D01*
X192500Y-15163D02*
X195500Y-12163D01*
X191600Y-11215D02*
X194000Y-8815D01*
X190500Y-9315D02*
X193000Y-6815D01*
X193252Y-144063D02*
X199700Y-137615D01*
X194837Y-147263D02*
X200600Y-141500D01*
X198337Y-48688D02*
Y-29463D01*
X200600Y-141500D02*
Y-50951D01*
X198337Y-48688D02*
X200600Y-50951D01*
X199237Y-48315D02*
Y-43315D01*
X196637Y-148763D02*
X201500Y-143900D01*
X199237Y-48315D02*
X201500Y-50578D01*
Y-143900D02*
Y-50578D01*
X195787Y-28964D02*
X197437Y-30614D01*
X129237Y-161815D02*
Y-157078D01*
X127737Y-160315D02*
Y-156578D01*
X117537Y-149852D02*
X126137Y-158452D01*
Y-161815D02*
Y-158452D01*
X130050Y-163265D02*
X131300Y-162015D01*
X121950Y-163265D02*
X130050D01*
X131500Y-154815D02*
X148610D01*
X116637Y-152452D02*
X124500Y-160315D01*
X115737Y-157052D02*
X121950Y-163265D01*
X182500Y-125815D02*
X185000D01*
X180237Y-123552D02*
X182500Y-125815D01*
X185500Y-136315D02*
X190500Y-131315D01*
X188500Y-139315D02*
X192500Y-135315D01*
X187000Y-137815D02*
X191600Y-133215D01*
X256050Y-101815D02*
X259000D01*
X251950Y-103865D02*
X254000D01*
X256050Y-101815D01*
X251950Y-102315D02*
X262002Y-92263D01*
X251950Y-103865D02*
Y-102315D01*
Y-120917D02*
Y-103865D01*
X249000Y-119766D02*
Y-101164D01*
X248000Y-119493D02*
Y-100891D01*
X249000Y-101164D02*
X261451Y-88713D01*
X248000Y-100891D02*
X261078Y-87813D01*
X229422Y-133393D02*
X235373D01*
X228822Y-132493D02*
X235000D01*
X230623Y-136293D02*
X236574D01*
X210500Y-156416D02*
X230623Y-136293D01*
X217500Y-143815D02*
X228822Y-132493D01*
X210500Y-159764D02*
Y-156416D01*
X211000Y-143815D02*
X217500D01*
X201737Y-156163D02*
X205550Y-152350D01*
X201437Y-153463D02*
X204537Y-150363D01*
X261078Y-87813D02*
X270502D01*
X252637Y-157763D02*
X252737Y-157663D01*
X311185Y-30815D02*
Y-20500D01*
X281837Y-53063D02*
X310252D01*
X281437Y-52063D02*
X309000D01*
X273000Y-61900D02*
X281837Y-53063D01*
X192000Y-142315D02*
X194437Y-139878D01*
X190500Y-140815D02*
X193537Y-137778D01*
X184804Y-26883D02*
X186512Y-25175D01*
X176757Y-26883D02*
X184804D01*
X182437Y-28463D02*
X185648D01*
X177500Y-10815D02*
X183500Y-4815D01*
X171000Y-10815D02*
X177500D01*
X179348Y-12815D02*
X183500Y-8663D01*
X171000Y-12815D02*
X179348D01*
X172158Y-14315D02*
X183500D01*
X171526Y-29815D02*
X173526Y-31815D01*
X183500D01*
X180500Y-16315D02*
X182500Y-18315D01*
X176277Y-27363D02*
X176757Y-26883D01*
X179137Y-153952D02*
Y-67952D01*
X177937Y-155252D02*
Y-68803D01*
X175089Y-53315D02*
X181889D01*
X183037Y-54463D01*
X172637Y-50863D02*
X175089Y-53315D01*
X172500Y-16315D02*
X180500D01*
X171000Y-17815D02*
X172500Y-16315D01*
X171000Y-15472D02*
X172009Y-14463D01*
X150900Y-61442D02*
Y-16415D01*
X152500Y-14815D02*
X154000D01*
X150900Y-16415D02*
X152500Y-14815D01*
X126137Y-43678D02*
X140500Y-29315D01*
Y-7500D01*
X139500Y-7227D02*
X144814Y-1913D01*
X125237Y-43305D02*
X139500Y-29042D01*
Y-7227D01*
X145000Y-65315D02*
Y-36815D01*
Y-65315D02*
X149348Y-69663D01*
X148000Y-62361D02*
X153502Y-67863D01*
X150000Y-61815D02*
X153948Y-65763D01*
X150900Y-61442D02*
X154321Y-64863D01*
X152948Y-68763D02*
X156637D01*
X146500Y-62315D02*
X152948Y-68763D01*
X155937Y-154788D02*
Y-94479D01*
X152337Y-90879D02*
X155937Y-94479D01*
X151437Y-91252D02*
X154637Y-94452D01*
X149637Y-92263D02*
X152337Y-94963D01*
Y-90879D02*
Y-76652D01*
X148500Y-72815D02*
X152337Y-76652D01*
X146500Y-72315D02*
X151437Y-77252D01*
Y-91252D02*
Y-77252D01*
X154637Y-154815D02*
Y-94452D01*
X153237Y-94690D02*
Y-94590D01*
X153337Y-150088D02*
Y-94690D01*
X148500Y-76815D02*
X150537Y-78852D01*
Y-91890D02*
Y-78852D01*
Y-91890D02*
X153237Y-94590D01*
X148500Y-72815D02*
Y-71315D01*
Y-78315D02*
X149637Y-79452D01*
Y-92263D02*
Y-79452D01*
X146500Y-72315D02*
Y-70315D01*
Y-78315D02*
X148500D01*
X157137Y-5678D02*
Y-1763D01*
X150000Y-61815D02*
Y-12815D01*
X157137Y-5678D01*
X148000Y-9963D02*
X153000Y-4963D01*
X149100Y-11215D02*
X153000Y-7315D01*
X149100Y-62188D02*
Y-11215D01*
X148000Y-62361D02*
Y-9963D01*
X203337Y-41663D02*
X204537Y-42863D01*
X311185Y-49878D02*
Y-30815D01*
X313000Y-34815D02*
Y-18315D01*
Y-50315D02*
Y-34815D01*
X310252Y-53063D02*
X313000Y-50315D01*
X309000Y-52063D02*
X311185Y-49878D01*
X152387Y-2813D02*
X155487Y287D01*
X151902Y-1913D02*
X155002Y1187D01*
X144814Y-1913D02*
X151902D01*
X155487Y287D02*
X216387D01*
X155002Y1187D02*
X216998D01*
X176277Y-28814D02*
Y-27363D01*
X130000Y-37269D02*
Y-34815D01*
X124337Y-73478D02*
Y-42932D01*
X130000Y-37269D01*
X126137Y-74863D02*
Y-43678D01*
X115737Y-82078D02*
X124337Y-73478D01*
X115737Y-157052D02*
Y-82078D01*
X125237Y-74078D02*
Y-43305D01*
X116637Y-82678D02*
X125237Y-74078D01*
X116637Y-152452D02*
Y-82678D01*
X89910Y-11963D02*
X97237Y-19290D01*
X89537Y-12863D02*
X96337Y-19663D01*
X205137Y-39563D02*
X206137Y-40563D01*
X117537Y-83463D02*
X126137Y-74863D01*
X180237Y-75363D02*
X183037Y-72563D01*
Y-65763D01*
X96337Y-89363D02*
Y-19663D01*
X97237Y-88990D02*
Y-19290D01*
X96337Y-89363D02*
X107437Y-100463D01*
X97237Y-88990D02*
X108337Y-100090D01*
Y-160463D02*
Y-100090D01*
Y-160463D02*
X109937Y-162063D01*
X107437D02*
Y-100463D01*
X117537Y-149852D02*
Y-83463D01*
X131300Y-162015D02*
Y-159615D01*
X127737Y-156578D02*
X131000Y-153315D01*
X148837D01*
X152337Y-149815D01*
Y-94963D01*
X148610Y-154815D02*
X153337Y-150088D01*
X129237Y-157078D02*
X131500Y-154815D01*
X153637Y-155815D02*
X154637Y-154815D01*
X143500Y-155815D02*
X153637D01*
X142000Y-159615D02*
Y-157315D01*
X143500Y-155815D01*
X143437Y-161815D02*
X143450Y-161802D01*
Y-159014D01*
X143437Y-159001D02*
X143450Y-159014D01*
X143437Y-159001D02*
Y-158378D01*
X145100Y-156715D01*
X154010D01*
X155937Y-154788D01*
X145037Y-159615D02*
X147037Y-157615D01*
X154437D01*
X158037Y-154015D01*
X146637Y-161815D02*
X151510D01*
X158937Y-154388D01*
Y-154363D01*
X162337Y-161815D02*
Y-157163D01*
X163937Y-159615D02*
Y-156878D01*
X167037Y-159615D02*
Y-157051D01*
X165537Y-161815D02*
Y-157278D01*
X168637Y-161815D02*
Y-156723D01*
X171000Y-161815D02*
Y-155815D01*
X176737Y-156052D02*
X181500Y-160815D01*
X185000D01*
X176737Y-156052D02*
Y-70363D01*
X177937Y-155252D02*
X181374Y-158689D01*
X185000D01*
X179137Y-153952D02*
X181748Y-156563D01*
X185000D01*
X180237Y-123552D02*
Y-75363D01*
X323500Y-1815D02*
X324500Y-2815D01*
X312500Y-1815D02*
X323500D01*
X287852Y-2963D02*
X289000Y-1815D01*
X219637Y-2963D02*
X287852D01*
X289000Y-1815D02*
X312500D01*
X145187Y-2813D02*
X152387D01*
X216387Y287D02*
X219637Y-2963D01*
X220248Y-2063D02*
X287479D01*
X216998Y1187D02*
X220248Y-2063D01*
X289711Y169D02*
X314484D01*
X287479Y-2063D02*
X289711Y169D01*
X314484D02*
X319484D01*
X206137Y-45315D02*
Y-40563D01*
X183037Y-65763D02*
X183100Y-65700D01*
X181714Y-64314D02*
X183100Y-65700D01*
X140500Y-7500D02*
X145187Y-2813D01*
X198537Y-150363D02*
X202500Y-146400D01*
X199837Y-151963D02*
X203500Y-148300D01*
X217000Y-145815D02*
X229422Y-133393D01*
X209500Y-145815D02*
X217000D01*
X210000Y-142815D02*
X211000Y-143815D01*
X208500Y-144815D02*
X209500Y-145815D01*
X203500Y-148300D02*
Y-45526D01*
X202437Y-41663D02*
X203337D01*
X203537Y-39563D02*
X205137D01*
X202500Y-146400D02*
Y-47426D01*
X203437Y-39663D02*
X203537Y-39563D01*
X146500Y-62315D02*
Y-26815D01*
X74000Y-6315D02*
X79648Y-11963D01*
X67500Y-6315D02*
X74000D01*
X79648Y-11963D02*
X89910D01*
X74500Y-8315D02*
X79048Y-12863D01*
X67500Y-8315D02*
X74500D01*
X79048Y-12863D02*
X89537D01*
X118500Y-180315D02*
Y-178815D01*
X121000Y-176315D01*
X135000D01*
X137000Y-174315D01*
X195787Y-28964D02*
Y-19528D01*
X195652Y-16163D02*
X197000D01*
X200737Y-45663D02*
X202500Y-47426D01*
X205550Y-152350D02*
Y-45902D01*
X206137Y-45315D01*
X204537Y-150363D02*
Y-42863D01*
X201637Y-43663D02*
X203500Y-45526D01*
X199237Y-43315D02*
X200437Y-42115D01*
X197237Y-27563D02*
X199437D01*
X200437Y-28563D01*
Y-42115D02*
Y-28563D01*
X195787Y-19528D02*
X197000Y-18315D01*
X195152Y-14163D02*
X197000D01*
X194000Y-8815D02*
X197000D01*
X195500Y-12163D02*
X197000D01*
X193000Y-6815D02*
X197000D01*
X169248Y-57063D02*
X171000Y-58815D01*
X168237Y-57063D02*
X169248D01*
X171000Y-64626D02*
X176737Y-70363D01*
X171000Y-64626D02*
Y-58815D01*
X169500Y-65526D02*
Y-60815D01*
X167500Y-65639D02*
Y-61315D01*
X169087Y-67226D02*
X174037Y-72063D01*
X167500Y-65639D02*
X169087Y-67226D01*
X166000Y-66026D02*
Y-62815D01*
X174937Y-38463D02*
X180789Y-44315D01*
X183000D01*
X183752Y-47063D02*
X186537D01*
X169500Y-65526D02*
X175300Y-71326D01*
X171000Y-155815D02*
X175300Y-151515D01*
X174037Y-72063D02*
X174400Y-72426D01*
X168637Y-156723D02*
X174400Y-150961D01*
X166000Y-66026D02*
X173500Y-73526D01*
X167037Y-157051D02*
X173500Y-150588D01*
X175300Y-151515D02*
Y-71326D01*
X174400Y-150961D02*
Y-72426D01*
X173500Y-150588D02*
Y-73526D01*
X165537Y-157278D02*
X172500Y-150315D01*
Y-73815D01*
X163548Y-64863D02*
X172500Y-73815D01*
X163175Y-65763D02*
X171500Y-74088D01*
X163937Y-156878D02*
X171500Y-149315D01*
Y-74088D01*
X162802Y-66663D02*
X170500Y-74361D01*
X162337Y-157163D02*
X170500Y-149000D01*
Y-74361D01*
X171500Y-29815D02*
X171513Y-29828D01*
X273000Y-86815D02*
Y-85300D01*
Y-61900D01*
D66*
X220472Y-69291D02*
D03*
X339370Y-19291D02*
D03*
Y-161024D02*
D03*
X7087D02*
D03*
X7087Y-19291D02*
D03*
D67*
X324000Y-64815D02*
D03*
X329000D02*
D03*
X334000D02*
D03*
X339000D02*
D03*
X333500Y-41815D02*
D03*
Y-36815D02*
D03*
X27500Y-177315D02*
D03*
X22500D02*
D03*
X17500D02*
D03*
X12500D02*
D03*
X197037Y-159763D02*
D03*
X192037D02*
D03*
X113500Y-180315D02*
D03*
X118500D02*
D03*
X123500D02*
D03*
X128500D02*
D03*
X133500D02*
D03*
X138500D02*
D03*
X143500D02*
D03*
X268457Y-96972D02*
D03*
Y-101972D02*
D03*
Y-106972D02*
D03*
D68*
X136359Y-125953D02*
D03*
D69*
X56080Y-165263D02*
D03*
X46237D02*
D03*
X36395D02*
D03*
D71*
X263500Y-15476D02*
D03*
X267000Y-14815D02*
D03*
X255500Y-16315D02*
D03*
X254000Y-15815D02*
D03*
X242000Y-6500D02*
D03*
Y-8500D02*
D03*
X202837Y-25211D02*
D03*
X249000Y-68315D02*
D03*
X247500D02*
D03*
X245000Y-164815D02*
D03*
X236500Y-165315D02*
D03*
X237500Y-160315D02*
D03*
X250637Y-164452D02*
D03*
Y-155363D02*
D03*
X233000Y-146315D02*
D03*
X230837Y-148663D02*
D03*
X233037Y-151763D02*
D03*
X261250Y-58565D02*
D03*
X239663Y-32374D02*
D03*
X238117Y-32517D02*
D03*
X239000Y-30815D02*
D03*
X239500Y-42315D02*
D03*
X256862Y-48315D02*
D03*
X252000Y-15815D02*
D03*
X270000Y-45315D02*
D03*
X163000Y-71315D02*
D03*
X181588Y-64314D02*
D03*
X175000Y-63815D02*
D03*
X173000D02*
D03*
X163500Y-33315D02*
D03*
X281000Y-48815D02*
D03*
X283500Y-47315D02*
D03*
X283414Y-37643D02*
D03*
X286500Y-36729D02*
D03*
X281000Y-40315D02*
D03*
X273086Y-37729D02*
D03*
X270000Y-33315D02*
D03*
X272500Y-34315D02*
D03*
X271500Y-36510D02*
D03*
X297957Y-57358D02*
D03*
X310000Y-65815D02*
D03*
X227500Y2037D02*
D03*
X219500Y-17315D02*
D03*
X182500Y-41815D02*
D03*
X187000Y-35815D02*
D03*
X176537Y-36763D02*
D03*
X154500Y-2815D02*
D03*
X132500Y-15315D02*
D03*
X217000Y-49815D02*
D03*
X269000Y-85815D02*
D03*
X271465Y-86850D02*
D03*
X295988Y-112803D02*
D03*
X139500Y-95315D02*
D03*
X196500Y-135315D02*
D03*
X229500Y-102815D02*
D03*
X229000Y-48815D02*
D03*
X269500Y-112068D02*
D03*
X228837Y-146863D02*
D03*
X229000Y-143315D02*
D03*
X256500Y-117266D02*
D03*
X258900Y-142715D02*
D03*
X275000Y-143315D02*
D03*
X293299Y-154815D02*
D03*
X256500Y-162315D02*
D03*
X290748Y-144067D02*
D03*
X284000Y-150815D02*
D03*
X262500Y-175815D02*
D03*
X284500Y-168815D02*
D03*
X311500Y-121315D02*
D03*
X318000Y-125315D02*
D03*
X316957Y-131858D02*
D03*
X325425Y-144240D02*
D03*
X339000Y-152315D02*
D03*
X325311Y-149004D02*
D03*
X321425Y-163740D02*
D03*
X315000Y-163315D02*
D03*
X316457Y-174772D02*
D03*
X306500Y-175815D02*
D03*
X296500Y-175315D02*
D03*
X212000Y-51815D02*
D03*
X226500Y-61815D02*
D03*
X290000Y-37815D02*
D03*
X295000Y-21815D02*
D03*
X340500Y-48315D02*
D03*
X342500Y-33815D02*
D03*
X335000Y-8815D02*
D03*
X313984Y-7799D02*
D03*
X310000Y-14815D02*
D03*
X205500Y-160815D02*
D03*
X164000Y-121315D02*
D03*
X111500Y-136315D02*
D03*
X269000Y-168315D02*
D03*
X77500Y-121815D02*
D03*
X112637Y-70563D02*
D03*
X118000Y-66815D02*
D03*
X77537Y-104863D02*
D03*
X151320Y-173472D02*
D03*
X148170Y-176272D02*
D03*
X149745Y-174872D02*
D03*
X137000Y-174315D02*
D03*
X129237Y-161815D02*
D03*
X127737Y-160315D02*
D03*
X126137Y-161815D02*
D03*
X124500Y-160315D02*
D03*
X123000Y-161815D02*
D03*
X121500Y-160315D02*
D03*
X132500Y-174315D02*
D03*
X157619Y-173472D02*
D03*
X151437Y-178763D02*
D03*
X101000Y-149815D02*
D03*
X185000Y-125815D02*
D03*
Y-123815D02*
D03*
X184500Y-134315D02*
D03*
X185500Y-136315D02*
D03*
X185037Y-145663D02*
D03*
X188500Y-139315D02*
D03*
X187000Y-137815D02*
D03*
X210500Y-159764D02*
D03*
X208500Y-163815D02*
D03*
X209000Y-153315D02*
D03*
X226837Y-144963D02*
D03*
X289500Y-56815D02*
D03*
X241000Y-134815D02*
D03*
X270500Y-172315D02*
D03*
X252737Y-157663D02*
D03*
X225000Y-159315D02*
D03*
X311185Y-20500D02*
D03*
X254500Y-164815D02*
D03*
X230837Y-162663D02*
D03*
X226737Y-162763D02*
D03*
X233037Y-165063D02*
D03*
X228837Y-165463D02*
D03*
X201737Y-156163D02*
D03*
X254537Y-159563D02*
D03*
X252637Y-163663D02*
D03*
X308937Y-34563D02*
D03*
X105500Y-140815D02*
D03*
X89200Y-143682D02*
D03*
X85500Y-147815D02*
D03*
X188500Y-59815D02*
D03*
X186512Y-25175D02*
D03*
X183500Y-4815D02*
D03*
Y-8663D02*
D03*
Y-31815D02*
D03*
X182437Y-28463D02*
D03*
Y-33815D02*
D03*
X182500Y-18315D02*
D03*
X183500Y-14315D02*
D03*
X184000Y-37315D02*
D03*
X171000Y-39063D02*
D03*
X173437Y-40263D02*
D03*
X174637Y-42163D02*
D03*
X174837Y-44478D02*
D03*
X171000Y-46163D02*
D03*
Y-48815D02*
D03*
X176000Y-4815D02*
D03*
Y-7315D02*
D03*
X172500Y-8815D02*
D03*
X171000Y-17815D02*
D03*
Y-15472D02*
D03*
Y-12815D02*
D03*
X62659Y-29653D02*
D03*
X62559Y-23553D02*
D03*
X154000Y-14815D02*
D03*
X158000Y-25315D02*
D03*
X161537Y-16363D02*
D03*
X148500Y-76815D02*
D03*
X146500Y-78315D02*
D03*
X145000Y-36815D02*
D03*
X153000Y-7315D02*
D03*
Y-4963D02*
D03*
X311185Y-30815D02*
D03*
X313000Y-34815D02*
D03*
X160137Y-2363D02*
D03*
X157137Y-1763D02*
D03*
X176277Y-28814D02*
D03*
X174113Y-29409D02*
D03*
X171526Y-29815D02*
D03*
X263500Y-10815D02*
D03*
X154437Y-180463D02*
D03*
X35459Y-62253D02*
D03*
X57701Y-73479D02*
D03*
X164237Y-43863D02*
D03*
X183000Y-44315D02*
D03*
X160737Y-159615D02*
D03*
X146500Y-70315D02*
D03*
X172637Y-50863D02*
D03*
X162337Y-161815D02*
D03*
X163937Y-159615D02*
D03*
X167037D02*
D03*
X168237Y-57063D02*
D03*
X199837Y-151963D02*
D03*
X198537Y-150363D02*
D03*
X196637Y-148763D02*
D03*
X194837Y-147263D02*
D03*
X165537Y-161815D02*
D03*
X182000Y-77315D02*
D03*
X56245Y-94147D02*
D03*
X60699Y-89692D02*
D03*
X65153Y-85238D02*
D03*
X78516Y-71876D02*
D03*
X76459Y-74253D02*
D03*
X72595Y-68353D02*
D03*
X65837Y-52863D02*
D03*
X77191Y-64008D02*
D03*
X89566Y-60654D02*
D03*
X101159Y-78853D02*
D03*
X87424Y-62967D02*
D03*
X74737Y-48232D02*
D03*
X74759Y-61453D02*
D03*
X68232Y-41886D02*
D03*
X55941Y-53755D02*
D03*
X59559Y-32653D02*
D03*
X56659Y-35653D02*
D03*
X53659Y-38554D02*
D03*
X62018Y-71553D02*
D03*
X57039Y-61533D02*
D03*
X60255Y-49160D02*
D03*
X53859Y-42254D02*
D03*
X50447Y-67842D02*
D03*
X40318Y-69311D02*
D03*
X21959Y-81753D02*
D03*
X22559Y-78853D02*
D03*
X25359Y-75554D02*
D03*
X31359Y-69554D02*
D03*
X35825Y-73728D02*
D03*
X44664Y-64749D02*
D03*
X28259Y-72553D02*
D03*
X32359Y-58553D02*
D03*
X35759Y-55353D02*
D03*
X38759Y-52354D02*
D03*
X38237Y-71663D02*
D03*
X58453Y-91900D02*
D03*
X62927Y-87466D02*
D03*
X74062Y-76329D02*
D03*
X80727Y-69631D02*
D03*
X85198Y-65194D02*
D03*
X58099Y-51459D02*
D03*
X68463Y-50287D02*
D03*
X82970Y-67422D02*
D03*
X72410Y-46016D02*
D03*
X66037Y-79331D02*
D03*
X68959Y-66853D02*
D03*
X54712Y-63850D02*
D03*
X14459Y-76753D02*
D03*
X14959Y-71254D02*
D03*
X23959Y-62253D02*
D03*
X17959Y-68253D02*
D03*
X54917Y-59412D02*
D03*
X20959Y-65254D02*
D03*
X42543Y-67081D02*
D03*
X41697Y-46091D02*
D03*
X88001Y-57169D02*
D03*
X44647Y-43042D02*
D03*
X50259Y-35754D02*
D03*
X71359Y-39353D02*
D03*
X57297Y-71315D02*
D03*
X52459Y-55753D02*
D03*
X185000Y-156563D02*
D03*
X292957Y-113472D02*
D03*
X100937Y-163563D02*
D03*
X48737Y-153363D02*
D03*
X143437Y-161815D02*
D03*
X142000Y-159615D02*
D03*
X169500Y-60815D02*
D03*
X110737Y-98563D02*
D03*
X148500Y-71315D02*
D03*
X174937Y-34363D02*
D03*
X189037Y-145663D02*
D03*
X109937Y-162063D02*
D03*
X107437D02*
D03*
X213000Y-102284D02*
D03*
X165500Y-178515D02*
D03*
X168000D02*
D03*
X161000D02*
D03*
X163000D02*
D03*
X301457Y-126972D02*
D03*
X298957D02*
D03*
X303957D02*
D03*
X178500Y-174815D02*
D03*
X310457Y-129972D02*
D03*
X306457Y-126972D02*
D03*
X308457Y-128472D02*
D03*
X294457Y-128559D02*
D03*
X241500Y-147815D02*
D03*
X201437Y-153463D02*
D03*
X183037Y-54463D02*
D03*
X171000Y-10815D02*
D03*
X159537Y-49763D02*
D03*
X153646Y-46141D02*
D03*
X153655Y-54558D02*
D03*
X271000Y-11465D02*
D03*
X269000Y-18815D02*
D03*
X263500Y-13315D02*
D03*
X224500Y-102815D02*
D03*
X223000D02*
D03*
X243500Y-47815D02*
D03*
X242500Y-48815D02*
D03*
X131300Y-159615D02*
D03*
X146637Y-161815D02*
D03*
X145037Y-159615D02*
D03*
X138000D02*
D03*
X140000D02*
D03*
X168637Y-161815D02*
D03*
X171000D02*
D03*
X185000Y-160815D02*
D03*
Y-158689D02*
D03*
X190500Y-140815D02*
D03*
X192000Y-142315D02*
D03*
X193252Y-144063D02*
D03*
X185000Y-96815D02*
D03*
X183500Y-47315D02*
D03*
X165000Y-90315D02*
D03*
Y-96315D02*
D03*
Y-94315D02*
D03*
Y-92315D02*
D03*
Y-98315D02*
D03*
X82000Y-148315D02*
D03*
X324500Y-2815D02*
D03*
X312500Y-1815D02*
D03*
X314484Y169D02*
D03*
X319500Y185D02*
D03*
X308000Y-41315D02*
D03*
X297000D02*
D03*
X318000Y-3315D02*
D03*
X316000Y-13815D02*
D03*
X308500Y-6831D02*
D03*
X313000Y-18315D02*
D03*
X295000Y-54815D02*
D03*
X271500Y-147815D02*
D03*
X278000Y-156815D02*
D03*
X153659Y-58754D02*
D03*
X155500Y-60815D02*
D03*
X111500Y-139315D02*
D03*
X103500Y-137315D02*
D03*
X101500Y-159315D02*
D03*
X238000Y-11815D02*
D03*
X278000Y-171315D02*
D03*
X239000Y-179315D02*
D03*
X166500Y-124315D02*
D03*
X259000Y-161315D02*
D03*
X289457Y-132815D02*
D03*
X292000Y-4965D02*
D03*
X289500Y-5815D02*
D03*
X228213Y-29315D02*
D03*
X239000Y-22815D02*
D03*
X210000Y-142815D02*
D03*
X208500Y-144815D02*
D03*
X207000Y-139315D02*
D03*
Y-136815D02*
D03*
X202437Y-41663D02*
D03*
X203437Y-39663D02*
D03*
X146500Y-26815D02*
D03*
X145500Y-18315D02*
D03*
X67500Y-8315D02*
D03*
Y-6315D02*
D03*
X216000Y-89815D02*
D03*
X266500Y-85315D02*
D03*
X238500Y-27815D02*
D03*
X242000Y-45315D02*
D03*
X197000Y-16163D02*
D03*
X200737Y-45663D02*
D03*
X201637Y-43663D02*
D03*
X198337Y-29463D02*
D03*
X202500Y-27815D02*
D03*
X197237Y-27563D02*
D03*
X200000Y-25315D02*
D03*
X197000Y-18315D02*
D03*
Y-14163D02*
D03*
X195500Y-4315D02*
D03*
X197000Y-8815D02*
D03*
Y-12163D02*
D03*
Y-6815D02*
D03*
X158000Y-89315D02*
D03*
X167500Y-61315D02*
D03*
X166000Y-62815D02*
D03*
X128000Y-173315D02*
D03*
X251500Y-48815D02*
D03*
X64210Y-45131D02*
D03*
X62587Y-47038D02*
D03*
X120000Y-118815D02*
D03*
X150500Y-136815D02*
D03*
X232000Y-53315D02*
D03*
X236500Y-47315D02*
D03*
X241000Y-48315D02*
D03*
X250500Y-69315D02*
D03*
X247000Y-62315D02*
D03*
X242500Y-121815D02*
D03*
Y-120315D02*
D03*
X244500D02*
D03*
X183696Y-103119D02*
D03*
X236000Y-53315D02*
D03*
X234000D02*
D03*
X213500Y-95315D02*
D03*
X250000Y-16315D02*
D03*
X248500D02*
D03*
D72*
X223000Y-12815D02*
D03*
X213500Y-15815D02*
D03*
X231000Y-12815D02*
D03*
X213500Y-28315D02*
D03*
X242783Y-161531D02*
D03*
X251207Y-131222D02*
D03*
X236403Y-145336D02*
D03*
X264000Y-125315D02*
D03*
X282000Y-64815D02*
D03*
X285957Y-70972D02*
D03*
X279457Y-81472D02*
D03*
X229831Y-129146D02*
D03*
X334000Y-168815D02*
D03*
X335000Y-174315D02*
D03*
X305457Y-81972D02*
D03*
X134500Y-160815D02*
D03*
X327957Y-124472D02*
D03*
X165207Y-108722D02*
D03*
X265000Y-77815D02*
D03*
X251000Y-79815D02*
D03*
X324500Y-26315D02*
D03*
X22707Y-157722D02*
D03*
X57457Y-176972D02*
D03*
X45437Y-13063D02*
D03*
X22468Y-133346D02*
D03*
X268000Y-115315D02*
D03*
X286500Y-47815D02*
D03*
X137000Y-15315D02*
D03*
X132500Y-1315D02*
D03*
X209500Y-3815D02*
D03*
X173000Y-26315D02*
D03*
X122500Y-26115D02*
D03*
X252500Y-151315D02*
D03*
X254707Y-126722D02*
D03*
X303457Y-57972D02*
D03*
X278795Y-114634D02*
D03*
X305707Y-112722D02*
D03*
X261000Y-79815D02*
D03*
X259000Y-113315D02*
D03*
X67000Y-160815D02*
D03*
X53500Y-175815D02*
D03*
X316957Y-143972D02*
D03*
X309957Y-156472D02*
D03*
X293000Y-157815D02*
D03*
X234000Y-128315D02*
D03*
X72837Y-21763D02*
D03*
X85207Y-137722D02*
D03*
X145531Y-93846D02*
D03*
X165707Y-129222D02*
D03*
X139000Y-106815D02*
D03*
X81000Y-6815D02*
D03*
X298750Y-15565D02*
D03*
X328031Y-9783D02*
D03*
X283957Y-130472D02*
D03*
X212500Y-39815D02*
D03*
X217500D02*
D03*
X225707Y-111222D02*
D03*
X304457Y-108972D02*
D03*
X119000Y-7315D02*
D03*
X105000Y685D02*
D03*
X93000Y-3315D02*
D03*
X205000Y-10815D02*
D03*
X279000Y-140815D02*
D03*
X273957Y-140472D02*
D03*
D73*
X323500Y-174969D02*
D03*
Y-171142D02*
D03*
Y-167315D02*
D03*
X3000Y-38815D02*
D03*
Y-34982D02*
D03*
Y-31148D02*
D03*
Y-27315D02*
D03*
X4000Y-113853D02*
D03*
Y-110200D02*
D03*
Y-117507D02*
D03*
Y-121161D02*
D03*
Y-124815D02*
D03*
Y-106546D02*
D03*
Y-102892D02*
D03*
Y-99238D02*
D03*
Y-95584D02*
D03*
X239046Y-35689D02*
D03*
X219184Y-164091D02*
D03*
X227000Y-46315D02*
D03*
X295000Y-8815D02*
D03*
X287500Y1685D02*
D03*
X197000Y-124315D02*
D03*
X101500Y-181315D02*
D03*
X92000D02*
D03*
X64500D02*
D03*
X58000Y-153815D02*
D03*
X73000Y-134815D02*
D03*
X15000Y-141315D02*
D03*
X6500Y-140815D02*
D03*
X31284Y-9031D02*
D03*
X10500Y-8315D02*
D03*
X5500Y185D02*
D03*
X17000Y-29815D02*
D03*
X137000Y-39815D02*
D03*
X91500Y-9815D02*
D03*
D74*
X336000Y-146500D02*
D03*
X310000Y-108315D02*
D03*
X273015Y-85300D02*
D03*
X159837Y-71963D02*
D03*
X270737Y-30963D02*
D03*
X268937Y-92263D02*
D03*
X318957Y-74472D02*
D03*
Y-83472D02*
D03*
X331957Y-129417D02*
D03*
Y-132806D02*
D03*
X166500Y-77315D02*
D03*
X318957Y-80472D02*
D03*
X324582Y-72472D02*
D03*
X321457D02*
D03*
X183837Y-24963D02*
D03*
X59259Y-26754D02*
D03*
X56259Y-29754D02*
D03*
X130000Y-34815D02*
D03*
X333957Y-108472D02*
D03*
X330957D02*
D03*
X324957D02*
D03*
X318957Y-99472D02*
D03*
Y-95972D02*
D03*
Y-92472D02*
D03*
Y-77472D02*
D03*
X316457Y-85972D02*
D03*
X318957Y-89472D02*
D03*
X335082Y-111472D02*
D03*
X327707Y-72472D02*
D03*
X330832D02*
D03*
X333957D02*
D03*
X344457Y-111472D02*
D03*
X338207D02*
D03*
X331957Y-136195D02*
D03*
X343500Y-148315D02*
D03*
X341000D02*
D03*
X339000Y-149815D02*
D03*
X331957Y-142972D02*
D03*
Y-139584D02*
D03*
Y-126028D02*
D03*
Y-122639D02*
D03*
Y-119250D02*
D03*
Y-115861D02*
D03*
Y-111472D02*
D03*
X165637Y-112563D02*
D03*
X258937Y-82763D02*
D03*
X53359Y-32754D02*
D03*
X48437Y-563D02*
D03*
X18937Y437D02*
D03*
X37437Y937D02*
D03*
X41437D02*
D03*
X34437D02*
D03*
X259000Y-101815D02*
D03*
X60500Y-155315D02*
D03*
X163137Y-50663D02*
D03*
X164000Y-77315D02*
D03*
X37500Y-140815D02*
D03*
X47000D02*
D03*
X56500D02*
D03*
X72437Y-143963D02*
D03*
D75*
X101237Y-145663D02*
D03*
X100531Y-27283D02*
D03*
X184737Y-79463D02*
D03*
X101500Y-104815D02*
D03*
X154737Y-78163D02*
D03*
X120837Y-94563D02*
D03*
X104859Y-89463D02*
D03*
X124537D02*
D03*
X135537D02*
D03*
X153913Y-50507D02*
D03*
X153694Y-42018D02*
D03*
X101500Y-118815D02*
D03*
X183000Y-60315D02*
D03*
X166500Y-104315D02*
D03*
X165000Y-102315D02*
D03*
D76*
X135194Y-69362D02*
D03*
D77*
X291319Y-99835D02*
D03*
X281870D02*
D03*
X291319Y-95110D02*
D03*
Y-104559D02*
D03*
X281870D02*
D03*
Y-95110D02*
D03*
Y-90386D02*
D03*
X296043Y-95110D02*
D03*
Y-90386D02*
D03*
Y-104559D02*
D03*
Y-99835D02*
D03*
X286595Y-104559D02*
D03*
Y-95110D02*
D03*
X291319Y-90386D02*
D03*
X286595D02*
D03*
Y-99835D02*
D03*
D78*
X307787Y-147303D02*
D03*
Y-142972D02*
D03*
Y-138642D02*
D03*
X303457Y-147303D02*
D03*
Y-142972D02*
D03*
Y-138642D02*
D03*
X299126Y-147303D02*
D03*
Y-142972D02*
D03*
Y-138642D02*
D03*
D79*
X254500Y-31815D02*
D03*
M02*
