G04 Layer_Color=8388736*
%FSLAX25Y25*%
%MOIN*%
G70*
G01*
G75*
%ADD113C,0.09449*%
%ADD114R,0.04343X0.04343*%
%ADD115R,0.02769X0.03162*%
%ADD116O,0.01587X0.04737*%
%ADD117O,0.04737X0.01587*%
%ADD118C,0.04737*%
%ADD119R,0.03162X0.02769*%
G04:AMPARAMS|DCode=120|XSize=27.69mil|YSize=31.62mil|CornerRadius=0mil|HoleSize=0mil|Usage=FLASHONLY|Rotation=45.000|XOffset=0mil|YOffset=0mil|HoleType=Round|Shape=Rectangle|*
%AMROTATEDRECTD120*
4,1,4,0.00139,-0.02097,-0.02097,0.00139,-0.00139,0.02097,0.02097,-0.00139,0.00139,-0.02097,0.0*
%
%ADD120ROTATEDRECTD120*%

%ADD121R,0.05918X0.05721*%
%ADD122R,0.04343X0.04343*%
%ADD123R,0.02965X0.02572*%
%ADD124R,0.03800X0.03800*%
%ADD125R,0.03950X0.05131*%
%ADD126R,0.08674X0.05131*%
%ADD127R,0.01981X0.05131*%
%ADD128R,0.02454X0.05918*%
%ADD129R,0.04737X0.01981*%
%ADD130R,0.03556X0.01981*%
%ADD131R,0.03950X0.01981*%
%ADD132R,0.03359X0.01981*%
%ADD133R,0.04540X0.02375*%
%ADD134R,0.01981X0.03556*%
%ADD135R,0.01981X0.04737*%
%ADD136R,0.18123X0.05918*%
%ADD137C,0.05524*%
%ADD138R,0.06784X0.07099*%
%ADD139O,0.03900X0.02000*%
%ADD140O,0.02000X0.03900*%
G04:AMPARAMS|DCode=141|XSize=39mil|YSize=20mil|CornerRadius=0mil|HoleSize=0mil|Usage=FLASHONLY|Rotation=315.000|XOffset=0mil|YOffset=0mil|HoleType=Round|Shape=Round|*
%AMOVALD141*
21,1,0.01900,0.02000,0.00000,0.00000,315.0*
1,1,0.02000,-0.00672,0.00672*
1,1,0.02000,0.00672,-0.00672*
%
%ADD141OVALD141*%

%ADD142O,0.07296X0.01587*%
%ADD143O,0.01587X0.07296*%
%ADD144R,0.03556X0.02375*%
%ADD145C,0.02375*%
%ADD146O,0.01883X0.07800*%
%ADD147R,0.05524X0.06312*%
%ADD148R,0.05918X0.18123*%
%ADD149C,0.12611*%
%ADD150C,0.04540*%
%ADD151C,0.06706*%
%ADD152R,0.16548X0.16548*%
G04:AMPARAMS|DCode=153|XSize=244.22mil|YSize=244.22mil|CornerRadius=0mil|HoleSize=0mil|Usage=FLASHONLY|Rotation=0.000|XOffset=0mil|YOffset=0mil|HoleType=Round|Shape=RoundedRectangle|*
%AMROUNDEDRECTD153*
21,1,0.24422,0.24422,0,0,0.0*
21,1,0.24422,0.24422,0,0,0.0*
1,1,0.00000,0.12211,-0.12211*
1,1,0.00000,-0.12211,-0.12211*
1,1,0.00000,-0.12211,0.12211*
1,1,0.00000,0.12211,0.12211*
%
%ADD153ROUNDEDRECTD153*%
%ADD154C,0.02769*%
D113*
X5500Y-112252D02*
D03*
D114*
X282000Y-10250D02*
D03*
Y-3750D02*
D03*
X133000Y-7002D02*
D03*
Y-13502D02*
D03*
X296000Y-31502D02*
D03*
Y-25002D02*
D03*
X64537Y-141650D02*
D03*
Y-148150D02*
D03*
X253000Y-56002D02*
D03*
Y-62502D02*
D03*
X70237Y-157150D02*
D03*
Y-163650D02*
D03*
X234500Y-62502D02*
D03*
Y-56002D02*
D03*
X273000Y-10250D02*
D03*
Y-3750D02*
D03*
X228500Y-46502D02*
D03*
Y-53002D02*
D03*
X222500Y-44502D02*
D03*
Y-38002D02*
D03*
X260500Y-3750D02*
D03*
Y-10250D02*
D03*
X245500Y-56002D02*
D03*
Y-62502D02*
D03*
X233000Y-10250D02*
D03*
Y-3750D02*
D03*
X240000Y-62502D02*
D03*
Y-56002D02*
D03*
X267500Y-3750D02*
D03*
Y-10250D02*
D03*
D115*
X232500Y-83284D02*
D03*
Y-87221D02*
D03*
X80637Y-162868D02*
D03*
Y-158932D02*
D03*
X83119Y-91687D02*
D03*
Y-87750D02*
D03*
X301437Y-32327D02*
D03*
Y-28390D02*
D03*
X236500Y-83284D02*
D03*
Y-87221D02*
D03*
X58637Y-148068D02*
D03*
Y-144132D02*
D03*
X130459Y-76222D02*
D03*
Y-80159D02*
D03*
X80500Y-183721D02*
D03*
Y-179783D02*
D03*
X80500Y-175721D02*
D03*
Y-171783D02*
D03*
X277500Y-10469D02*
D03*
Y-6532D02*
D03*
X64237Y-160968D02*
D03*
Y-157032D02*
D03*
X290500Y-28390D02*
D03*
Y-32327D02*
D03*
X273500Y-153815D02*
D03*
Y-157752D02*
D03*
X338000Y-45720D02*
D03*
Y-41783D02*
D03*
X207500Y-51221D02*
D03*
Y-47284D02*
D03*
X59637Y-160869D02*
D03*
Y-156931D02*
D03*
X228500Y-10968D02*
D03*
Y-7032D02*
D03*
X224000Y-60220D02*
D03*
Y-56283D02*
D03*
X334500Y-45720D02*
D03*
Y-41783D02*
D03*
X279000Y-44284D02*
D03*
Y-48221D02*
D03*
X282000D02*
D03*
Y-44284D02*
D03*
X128500Y-33283D02*
D03*
Y-37220D02*
D03*
X84000Y-171783D02*
D03*
Y-175721D02*
D03*
D116*
X258661Y-47760D02*
D03*
X257087D02*
D03*
X255512D02*
D03*
X253937D02*
D03*
X252362D02*
D03*
X250787D02*
D03*
X249213D02*
D03*
X247638D02*
D03*
X246063D02*
D03*
X244488D02*
D03*
X242913D02*
D03*
X241339D02*
D03*
Y-23744D02*
D03*
X242913D02*
D03*
X244488D02*
D03*
X246063D02*
D03*
X247638D02*
D03*
X249213D02*
D03*
X250787D02*
D03*
X252362D02*
D03*
X253937D02*
D03*
X255512D02*
D03*
X257087D02*
D03*
X258661D02*
D03*
D117*
X237992Y-44413D02*
D03*
Y-42839D02*
D03*
Y-41264D02*
D03*
Y-39689D02*
D03*
Y-38114D02*
D03*
Y-36539D02*
D03*
Y-34965D02*
D03*
Y-33390D02*
D03*
Y-31815D02*
D03*
Y-30240D02*
D03*
Y-28665D02*
D03*
Y-27091D02*
D03*
X262008D02*
D03*
Y-28665D02*
D03*
Y-30240D02*
D03*
Y-31815D02*
D03*
Y-33390D02*
D03*
Y-34965D02*
D03*
Y-36539D02*
D03*
Y-38114D02*
D03*
Y-39689D02*
D03*
Y-41264D02*
D03*
Y-42839D02*
D03*
Y-44413D02*
D03*
D118*
X336500Y-12752D02*
D03*
X302500Y-178437D02*
D03*
X10500Y-152252D02*
D03*
X1000Y-10752D02*
D03*
D119*
X17968Y-6500D02*
D03*
X14031D02*
D03*
X74468Y-152252D02*
D03*
X70531D02*
D03*
X208306Y-96300D02*
D03*
X204368D02*
D03*
X118032Y-18752D02*
D03*
X121968D02*
D03*
Y-33252D02*
D03*
X118032D02*
D03*
X17906Y-20000D02*
D03*
X13969D02*
D03*
X146227Y-62691D02*
D03*
X142290D02*
D03*
X106032Y-178251D02*
D03*
X109968D02*
D03*
X118968Y-178252D02*
D03*
X115032D02*
D03*
X75118Y-108765D02*
D03*
X79055D02*
D03*
X79053Y-123483D02*
D03*
X75116D02*
D03*
X253969Y-78252D02*
D03*
X250031D02*
D03*
X227532Y-34252D02*
D03*
X231469D02*
D03*
X227532Y-30752D02*
D03*
X231469D02*
D03*
X227532Y-20252D02*
D03*
X231469D02*
D03*
X187706Y-123300D02*
D03*
X183768D02*
D03*
X269237Y-47752D02*
D03*
X273175D02*
D03*
X227532Y-23752D02*
D03*
X231469D02*
D03*
X146265Y-54444D02*
D03*
X142328D02*
D03*
X142235Y-50077D02*
D03*
X146172D02*
D03*
X72569Y-140700D02*
D03*
X76506D02*
D03*
X311968Y-52500D02*
D03*
X315905D02*
D03*
Y-47500D02*
D03*
X311968D02*
D03*
X47032Y-140752D02*
D03*
X50968D02*
D03*
X41281D02*
D03*
X37344D02*
D03*
X231469Y-41252D02*
D03*
X227532D02*
D03*
X231469Y-37752D02*
D03*
X227532D02*
D03*
X272031Y-40752D02*
D03*
X275969D02*
D03*
X27656Y-140752D02*
D03*
X31593D02*
D03*
X53969Y-17252D02*
D03*
X50032D02*
D03*
Y-13252D02*
D03*
X53969D02*
D03*
X76669Y-166600D02*
D03*
X80606D02*
D03*
X269238Y-44252D02*
D03*
X273175D02*
D03*
Y-51252D02*
D03*
X269238D02*
D03*
X231469Y-27252D02*
D03*
X227532D02*
D03*
X21468Y-140752D02*
D03*
X17531D02*
D03*
X311968Y-42500D02*
D03*
X315905D02*
D03*
X247969Y-88500D02*
D03*
X244032D02*
D03*
X204368Y-91700D02*
D03*
X208306D02*
D03*
X315905Y-37500D02*
D03*
X311968D02*
D03*
X118032Y-36752D02*
D03*
X121968D02*
D03*
X99968Y-27752D02*
D03*
X96031D02*
D03*
X181269Y-72300D02*
D03*
X185205D02*
D03*
X99968Y-23252D02*
D03*
X96031D02*
D03*
X185205Y-67300D02*
D03*
X181269D02*
D03*
X74851Y-91717D02*
D03*
X78788D02*
D03*
X78787Y-87416D02*
D03*
X74850D02*
D03*
X181269Y-53600D02*
D03*
X185205D02*
D03*
X181269Y-58400D02*
D03*
X185205D02*
D03*
X142183Y-45956D02*
D03*
X146120D02*
D03*
X142328Y-58495D02*
D03*
X146265D02*
D03*
X146227Y-67090D02*
D03*
X142290D02*
D03*
X96868Y-18600D02*
D03*
X92931D02*
D03*
D120*
X44567Y-41299D02*
D03*
X47351Y-44082D02*
D03*
X50351Y-41083D02*
D03*
X47567Y-38299D02*
D03*
X50567Y-35299D02*
D03*
X53351Y-38083D02*
D03*
X56351Y-35083D02*
D03*
X53567Y-32299D02*
D03*
X56567Y-29299D02*
D03*
X59351Y-32083D02*
D03*
X119751Y-76182D02*
D03*
X116967Y-73399D02*
D03*
X109269Y-76502D02*
D03*
X112053Y-79286D02*
D03*
X39167Y-51999D02*
D03*
X41951Y-54782D02*
D03*
X38651Y-57782D02*
D03*
X35867Y-54999D02*
D03*
X15351Y-86082D02*
D03*
X12567Y-83299D02*
D03*
X13067Y-77799D02*
D03*
X15851Y-80582D02*
D03*
X18851Y-77582D02*
D03*
X16067Y-74799D02*
D03*
X19067Y-71799D02*
D03*
X21851Y-74582D02*
D03*
X24851Y-71582D02*
D03*
X22067Y-68799D02*
D03*
X32951Y-63783D02*
D03*
X30167Y-60999D02*
D03*
X26467Y-64699D02*
D03*
X29251Y-67482D02*
D03*
X98567Y-51699D02*
D03*
X101351Y-54483D02*
D03*
X98651Y-57383D02*
D03*
X95867Y-54599D02*
D03*
X93067Y-57599D02*
D03*
X95851Y-60382D02*
D03*
X92951Y-63182D02*
D03*
X90167Y-60399D02*
D03*
X111467Y-64299D02*
D03*
X114251Y-67083D02*
D03*
X117251Y-64082D02*
D03*
X114467Y-61299D02*
D03*
X42067Y-48999D02*
D03*
X44851Y-51783D02*
D03*
X33067Y-57999D02*
D03*
X35851Y-60782D02*
D03*
D121*
X120260Y-24752D02*
D03*
X127740D02*
D03*
D122*
X125250Y-13752D02*
D03*
X118750D02*
D03*
X12187Y-13500D02*
D03*
X18687D02*
D03*
X51750Y-175752D02*
D03*
X58250D02*
D03*
X260750Y-76252D02*
D03*
X267250D02*
D03*
X237750Y-78752D02*
D03*
X244250D02*
D03*
X278750Y-36252D02*
D03*
X272250D02*
D03*
X77587Y-146700D02*
D03*
X71087D02*
D03*
X315187Y-30500D02*
D03*
X308687D02*
D03*
D123*
X220000Y-60622D02*
D03*
X220000Y-56882D02*
D03*
X21500Y-152122D02*
D03*
X21500Y-148382D02*
D03*
D124*
X39237Y-152850D02*
D03*
Y-147350D02*
D03*
X29937Y-152850D02*
D03*
Y-147350D02*
D03*
X48437Y-152850D02*
D03*
Y-147350D02*
D03*
D125*
X101260Y-14000D02*
D03*
D126*
X108740D02*
D03*
D127*
X284279Y-151339D02*
D03*
X286248D02*
D03*
X288216D02*
D03*
X282311D02*
D03*
X29260Y-6575D02*
D03*
X31228D02*
D03*
X33197D02*
D03*
X35165D02*
D03*
X37134D02*
D03*
X39102D02*
D03*
X41071D02*
D03*
X27291D02*
D03*
D128*
X277508Y-162638D02*
D03*
X293020D02*
D03*
X22488Y-17874D02*
D03*
X45874D02*
D03*
D129*
X163877Y-78898D02*
D03*
Y-62835D02*
D03*
X308376Y-87047D02*
D03*
Y-101141D02*
D03*
D130*
X174310Y-75787D02*
D03*
Y-73819D02*
D03*
Y-71850D02*
D03*
Y-69882D02*
D03*
Y-67913D02*
D03*
Y-65945D02*
D03*
X297942Y-90157D02*
D03*
Y-92125D02*
D03*
Y-94094D02*
D03*
Y-96062D02*
D03*
Y-98031D02*
D03*
D131*
X163434Y-7598D02*
D03*
Y-9961D02*
D03*
Y-12323D02*
D03*
Y-14685D02*
D03*
Y-17047D02*
D03*
Y-19410D02*
D03*
Y-21772D02*
D03*
Y-24134D02*
D03*
Y-26496D02*
D03*
Y-28858D02*
D03*
Y-31220D02*
D03*
Y-33583D02*
D03*
Y-35945D02*
D03*
Y-38307D02*
D03*
Y-40669D02*
D03*
Y-43031D02*
D03*
Y-45394D02*
D03*
Y-47756D02*
D03*
Y-50118D02*
D03*
Y-52480D02*
D03*
Y-54843D02*
D03*
D132*
X174753Y-8779D02*
D03*
Y-11142D02*
D03*
Y-13504D02*
D03*
Y-15866D02*
D03*
Y-18228D02*
D03*
Y-20591D02*
D03*
Y-22953D02*
D03*
Y-25315D02*
D03*
Y-27677D02*
D03*
Y-30039D02*
D03*
Y-32402D02*
D03*
Y-34764D02*
D03*
Y-37126D02*
D03*
Y-39488D02*
D03*
Y-41850D02*
D03*
Y-44213D02*
D03*
Y-46575D02*
D03*
Y-48937D02*
D03*
Y-51299D02*
D03*
Y-53661D02*
D03*
D133*
X164516Y-4843D02*
D03*
Y-57598D02*
D03*
D134*
X214398Y-38386D02*
D03*
X212429D02*
D03*
X210461D02*
D03*
X208492D02*
D03*
X206524D02*
D03*
X204555D02*
D03*
X202587D02*
D03*
X200618D02*
D03*
X198650Y-38386D02*
D03*
X196681Y-38386D02*
D03*
X298354Y-41535D02*
D03*
X296386D02*
D03*
X294417D02*
D03*
X292449D02*
D03*
X290480D02*
D03*
X288512D02*
D03*
D135*
X217508Y-27953D02*
D03*
X193571D02*
D03*
X301465Y-51968D02*
D03*
X285402D02*
D03*
D136*
X278500Y-29461D02*
D03*
Y-18043D02*
D03*
X266000Y-57543D02*
D03*
Y-68961D02*
D03*
D137*
X5500Y-112252D02*
D03*
D138*
X238268Y-70752D02*
D03*
X251732Y-70752D02*
D03*
D139*
X89036Y-76237D02*
D03*
Y-78206D02*
D03*
Y-80174D02*
D03*
Y-82143D02*
D03*
X93484D02*
D03*
Y-80174D02*
D03*
Y-78206D02*
D03*
Y-76237D02*
D03*
X63836Y-103237D02*
D03*
Y-105207D02*
D03*
Y-107175D02*
D03*
Y-109143D02*
D03*
X68284D02*
D03*
Y-107175D02*
D03*
Y-105207D02*
D03*
Y-103237D02*
D03*
X79793Y-113225D02*
D03*
Y-115194D02*
D03*
Y-117163D02*
D03*
Y-119132D02*
D03*
X75345D02*
D03*
Y-117163D02*
D03*
Y-115194D02*
D03*
Y-113225D02*
D03*
X58699Y-115779D02*
D03*
Y-117748D02*
D03*
Y-119717D02*
D03*
Y-121686D02*
D03*
X63147D02*
D03*
Y-119717D02*
D03*
Y-117748D02*
D03*
Y-115779D02*
D03*
X51484Y-120638D02*
D03*
Y-122607D02*
D03*
Y-124574D02*
D03*
Y-126543D02*
D03*
X47036D02*
D03*
Y-124574D02*
D03*
Y-122607D02*
D03*
Y-120638D02*
D03*
X56236Y-127937D02*
D03*
Y-129906D02*
D03*
Y-131875D02*
D03*
Y-133844D02*
D03*
X60684D02*
D03*
Y-131875D02*
D03*
Y-129906D02*
D03*
Y-127937D02*
D03*
X182012Y-22053D02*
D03*
Y-20084D02*
D03*
Y-18116D02*
D03*
Y-16147D02*
D03*
X186460D02*
D03*
Y-18116D02*
D03*
Y-20084D02*
D03*
Y-22053D02*
D03*
X78784Y-98137D02*
D03*
Y-100107D02*
D03*
Y-102075D02*
D03*
Y-104043D02*
D03*
X74336D02*
D03*
Y-102075D02*
D03*
Y-100107D02*
D03*
Y-98137D02*
D03*
X186460Y-12453D02*
D03*
Y-10484D02*
D03*
Y-8516D02*
D03*
Y-6547D02*
D03*
X182012D02*
D03*
Y-8516D02*
D03*
Y-10484D02*
D03*
Y-12453D02*
D03*
Y-37353D02*
D03*
Y-35384D02*
D03*
Y-33416D02*
D03*
Y-31447D02*
D03*
X186460D02*
D03*
Y-33416D02*
D03*
Y-35384D02*
D03*
Y-37353D02*
D03*
Y-49553D02*
D03*
Y-47584D02*
D03*
Y-45616D02*
D03*
Y-43647D02*
D03*
X182012D02*
D03*
Y-45616D02*
D03*
Y-47584D02*
D03*
Y-49553D02*
D03*
D140*
X137412Y-65869D02*
D03*
X135443D02*
D03*
X133475D02*
D03*
X131506D02*
D03*
Y-70316D02*
D03*
X133475D02*
D03*
X135443D02*
D03*
X137412D02*
D03*
X127811Y-70016D02*
D03*
X125842D02*
D03*
X123874D02*
D03*
X121905D02*
D03*
Y-65567D02*
D03*
X123874D02*
D03*
X125842D02*
D03*
X127811D02*
D03*
D141*
X101975Y-70430D02*
D03*
X100583Y-71823D02*
D03*
X99191Y-73214D02*
D03*
X97799Y-74607D02*
D03*
X100944Y-77752D02*
D03*
X102336Y-76360D02*
D03*
X103728Y-74968D02*
D03*
X105120Y-73576D02*
D03*
D142*
X174280Y-96033D02*
D03*
Y-97607D02*
D03*
Y-99181D02*
D03*
Y-100757D02*
D03*
Y-102331D02*
D03*
Y-103907D02*
D03*
Y-105482D02*
D03*
Y-107055D02*
D03*
Y-108631D02*
D03*
Y-110205D02*
D03*
Y-111781D02*
D03*
Y-113356D02*
D03*
Y-114929D02*
D03*
Y-116505D02*
D03*
Y-118079D02*
D03*
Y-119655D02*
D03*
Y-121230D02*
D03*
Y-122803D02*
D03*
Y-124379D02*
D03*
Y-125953D02*
D03*
Y-127529D02*
D03*
Y-129104D02*
D03*
Y-130677D02*
D03*
Y-132253D02*
D03*
Y-133827D02*
D03*
Y-135403D02*
D03*
Y-136978D02*
D03*
Y-138551D02*
D03*
Y-140127D02*
D03*
Y-141701D02*
D03*
Y-143277D02*
D03*
Y-144852D02*
D03*
Y-146425D02*
D03*
Y-148001D02*
D03*
Y-149575D02*
D03*
Y-151151D02*
D03*
Y-152726D02*
D03*
Y-154299D02*
D03*
Y-155875D02*
D03*
Y-157449D02*
D03*
Y-159025D02*
D03*
Y-160600D02*
D03*
Y-162173D02*
D03*
Y-163749D02*
D03*
X89438D02*
D03*
Y-162173D02*
D03*
Y-160600D02*
D03*
Y-159025D02*
D03*
Y-157449D02*
D03*
Y-155875D02*
D03*
Y-154299D02*
D03*
Y-152726D02*
D03*
Y-151151D02*
D03*
Y-149575D02*
D03*
Y-148001D02*
D03*
Y-146425D02*
D03*
Y-144852D02*
D03*
Y-143277D02*
D03*
Y-141701D02*
D03*
Y-140127D02*
D03*
Y-138551D02*
D03*
Y-136978D02*
D03*
Y-135403D02*
D03*
Y-133827D02*
D03*
Y-132253D02*
D03*
Y-130677D02*
D03*
Y-129104D02*
D03*
Y-127529D02*
D03*
Y-125953D02*
D03*
Y-124379D02*
D03*
Y-122803D02*
D03*
Y-121230D02*
D03*
Y-119655D02*
D03*
Y-118079D02*
D03*
Y-116505D02*
D03*
Y-114929D02*
D03*
Y-113356D02*
D03*
Y-111781D02*
D03*
Y-110205D02*
D03*
Y-108631D02*
D03*
Y-107055D02*
D03*
Y-105482D02*
D03*
Y-103907D02*
D03*
Y-102331D02*
D03*
Y-100757D02*
D03*
Y-99181D02*
D03*
Y-97607D02*
D03*
Y-96033D02*
D03*
D143*
X165717Y-172311D02*
D03*
X164142D02*
D03*
X162568D02*
D03*
X160993D02*
D03*
X159418D02*
D03*
X157843D02*
D03*
X156268D02*
D03*
X154694D02*
D03*
X153119D02*
D03*
X151544D02*
D03*
X149969D02*
D03*
X148394D02*
D03*
X146820D02*
D03*
X145245D02*
D03*
X143670D02*
D03*
X142095D02*
D03*
X140520D02*
D03*
X138946D02*
D03*
X137371D02*
D03*
X135796D02*
D03*
X134221D02*
D03*
X132646D02*
D03*
X131072D02*
D03*
X129497D02*
D03*
X127922D02*
D03*
X126347D02*
D03*
X124772D02*
D03*
X123198D02*
D03*
X121623D02*
D03*
X120048D02*
D03*
X118473D02*
D03*
X116898D02*
D03*
X115324D02*
D03*
X113749D02*
D03*
X112174D02*
D03*
X110599D02*
D03*
X109024D02*
D03*
X107450D02*
D03*
X105875D02*
D03*
X104300D02*
D03*
X102725D02*
D03*
X101150D02*
D03*
X99576D02*
D03*
X98001D02*
D03*
Y-87470D02*
D03*
X99576D02*
D03*
X101150D02*
D03*
X102725D02*
D03*
X104300D02*
D03*
X105875D02*
D03*
X107450D02*
D03*
X109024D02*
D03*
X110599D02*
D03*
X112174D02*
D03*
X113749D02*
D03*
X115324D02*
D03*
X116898D02*
D03*
X118473D02*
D03*
X120048D02*
D03*
X121623D02*
D03*
X123198D02*
D03*
X124772D02*
D03*
X126347D02*
D03*
X127922D02*
D03*
X129497D02*
D03*
X131072D02*
D03*
X132646D02*
D03*
X134221D02*
D03*
X135796D02*
D03*
X137371D02*
D03*
X138946D02*
D03*
X140520D02*
D03*
X142095D02*
D03*
X143670D02*
D03*
X145245D02*
D03*
X146820D02*
D03*
X148394D02*
D03*
X149969D02*
D03*
X151544D02*
D03*
X153119D02*
D03*
X154694D02*
D03*
X156268D02*
D03*
X157843D02*
D03*
X159418D02*
D03*
X160993D02*
D03*
X162568D02*
D03*
X164142D02*
D03*
X165717D02*
D03*
D144*
X113528Y-20012D02*
D03*
Y-23752D02*
D03*
Y-27492D02*
D03*
X104472D02*
D03*
Y-23752D02*
D03*
Y-20012D02*
D03*
D145*
X50401Y-96738D02*
D03*
X48174Y-94512D02*
D03*
X45947Y-92285D02*
D03*
X37039Y-83376D02*
D03*
X34811Y-81150D02*
D03*
X32585Y-78922D02*
D03*
X52628Y-94511D02*
D03*
X50402Y-92285D02*
D03*
X48174Y-90057D02*
D03*
X39266Y-81150D02*
D03*
X37039Y-78922D02*
D03*
X34812Y-76696D02*
D03*
X54855Y-92285D02*
D03*
X52628Y-90058D02*
D03*
X50401Y-87831D02*
D03*
X41493Y-78922D02*
D03*
X39265Y-76696D02*
D03*
X37039Y-74468D02*
D03*
X57082Y-90057D02*
D03*
X54856Y-87831D02*
D03*
X52628Y-85603D02*
D03*
X43720Y-76696D02*
D03*
X41493Y-74467D02*
D03*
X39266Y-72241D02*
D03*
X59309Y-87831D02*
D03*
X57082Y-85605D02*
D03*
X54855Y-83376D02*
D03*
X45947Y-74468D02*
D03*
X43719Y-72241D02*
D03*
X41493Y-70015D02*
D03*
X61536Y-85603D02*
D03*
X59310Y-83376D02*
D03*
X57082Y-81150D02*
D03*
X48174Y-72241D02*
D03*
X45947Y-70013D02*
D03*
X43720Y-67787D02*
D03*
X63764Y-83376D02*
D03*
X61537Y-81150D02*
D03*
X59310Y-78922D02*
D03*
X50402Y-70013D02*
D03*
X48174Y-67787D02*
D03*
X45947Y-65560D02*
D03*
X65990Y-81150D02*
D03*
X63764Y-78922D02*
D03*
X61536Y-76696D02*
D03*
X52628Y-67787D02*
D03*
X50401Y-65560D02*
D03*
X48174Y-63333D02*
D03*
X68218Y-78922D02*
D03*
X65991Y-76696D02*
D03*
X63764Y-74467D02*
D03*
X54856Y-65560D02*
D03*
X52628Y-63332D02*
D03*
X50402Y-61106D02*
D03*
X70445Y-76696D02*
D03*
X68218Y-74468D02*
D03*
X65990Y-72241D02*
D03*
X57082Y-63333D02*
D03*
X54855Y-61106D02*
D03*
X52628Y-58878D02*
D03*
X72672Y-74467D02*
D03*
X70445Y-72241D02*
D03*
X68218Y-70013D02*
D03*
X59310Y-61106D02*
D03*
X57082Y-58878D02*
D03*
X54856Y-56652D02*
D03*
X74899Y-72241D02*
D03*
X72673Y-70013D02*
D03*
X70445Y-67787D02*
D03*
X61537Y-58878D02*
D03*
X59310Y-56651D02*
D03*
X57083Y-54425D02*
D03*
X77126Y-70013D02*
D03*
X74899Y-67787D02*
D03*
X72672Y-65560D02*
D03*
X63764Y-56652D02*
D03*
X61536Y-54425D02*
D03*
X59310Y-52197D02*
D03*
X79353Y-67787D02*
D03*
X77127Y-65560D02*
D03*
X74899Y-63332D02*
D03*
X65991Y-54425D02*
D03*
X63764Y-52197D02*
D03*
X61537Y-49970D02*
D03*
X81580Y-65560D02*
D03*
X79353Y-63333D02*
D03*
X77126Y-61106D02*
D03*
X68218Y-52197D02*
D03*
X65990Y-49970D02*
D03*
X63764Y-47743D02*
D03*
X83807Y-63332D02*
D03*
X81581Y-61106D02*
D03*
X79353Y-58878D02*
D03*
X70445Y-49970D02*
D03*
X68218Y-47743D02*
D03*
X65991Y-45516D02*
D03*
D146*
X259937Y-174315D02*
D03*
X257968D02*
D03*
X256000D02*
D03*
X254031D02*
D03*
X252063D02*
D03*
X250095D02*
D03*
X248126D02*
D03*
X246158D02*
D03*
X244189D02*
D03*
X242220D02*
D03*
X240252D02*
D03*
X238283D02*
D03*
X236315D02*
D03*
X234347D02*
D03*
X232378D02*
D03*
X230410D02*
D03*
X228441D02*
D03*
X226472D02*
D03*
X224504D02*
D03*
X222535D02*
D03*
X220567D02*
D03*
X218598D02*
D03*
X216630D02*
D03*
X214661D02*
D03*
Y-94000D02*
D03*
X216630D02*
D03*
X218598D02*
D03*
X220567D02*
D03*
X222535D02*
D03*
X224504D02*
D03*
X226472D02*
D03*
X228441D02*
D03*
X230410D02*
D03*
X232378D02*
D03*
X234347D02*
D03*
X236315D02*
D03*
X238283D02*
D03*
X240252D02*
D03*
X242220D02*
D03*
X244189D02*
D03*
X246158D02*
D03*
X248126D02*
D03*
X250095D02*
D03*
X252063D02*
D03*
X254031D02*
D03*
X256000D02*
D03*
X257968D02*
D03*
X259937D02*
D03*
D147*
X69095Y-181752D02*
D03*
Y-173484D02*
D03*
X75000D02*
D03*
Y-181752D02*
D03*
D148*
X253709Y-10252D02*
D03*
X242291D02*
D03*
D149*
X215972Y-73228D02*
D03*
X334870Y-23228D02*
D03*
Y-164961D02*
D03*
X2587D02*
D03*
X2587Y-23228D02*
D03*
D150*
X281000Y-100000D02*
D03*
X286000D02*
D03*
X291000D02*
D03*
X23000Y-181252D02*
D03*
X18000D02*
D03*
X13000D02*
D03*
X8000D02*
D03*
X192537Y-163700D02*
D03*
X187537D02*
D03*
X329000Y-45752D02*
D03*
Y-40752D02*
D03*
X109000Y-184252D02*
D03*
X114000D02*
D03*
X119000D02*
D03*
X124000D02*
D03*
X129000D02*
D03*
X134000D02*
D03*
X139000D02*
D03*
D151*
X51579Y-169200D02*
D03*
X41737D02*
D03*
X31894D02*
D03*
D152*
X250000Y-35752D02*
D03*
D153*
X131859Y-129891D02*
D03*
D154*
X277669Y-139583D02*
D03*
Y-130921D02*
D03*
X286331Y-139583D02*
D03*
Y-130921D02*
D03*
X277669Y-135252D02*
D03*
X286331D02*
D03*
X282000Y-139583D02*
D03*
Y-130921D02*
D03*
Y-135252D02*
D03*
M02*
