G04 Layer_Physical_Order=4*
G04 Layer_Color=16440176*
%FSLAX25Y25*%
%MOIN*%
G70*
G01*
G75*
%ADD43C,0.03000*%
%ADD45C,0.04000*%
%ADD46C,0.02000*%
%ADD55C,0.03500*%
%ADD57C,0.08000*%
%ADD66C,0.11811*%
%ADD67C,0.03740*%
G04:AMPARAMS|DCode=68|XSize=236.22mil|YSize=236.22mil|CornerRadius=0mil|HoleSize=0mil|Usage=FLASHONLY|Rotation=0.000|XOffset=0mil|YOffset=0mil|HoleType=Round|Shape=RoundedRectangle|*
%AMROUNDEDRECTD68*
21,1,0.23622,0.23622,0,0,0.0*
21,1,0.23622,0.23622,0,0,0.0*
1,1,0.00000,0.11811,-0.11811*
1,1,0.00000,-0.11811,-0.11811*
1,1,0.00000,-0.11811,0.11811*
1,1,0.00000,0.11811,0.11811*
%
%ADD68ROUNDEDRECTD68*%
%ADD69C,0.05906*%
%ADD71C,0.01600*%
%ADD72C,0.03000*%
%ADD73C,0.02200*%
%ADD74C,0.01800*%
%ADD75C,0.02400*%
%ADD76C,0.01799*%
%ADD77C,0.02598*%
%ADD78C,0.01969*%
%ADD79C,0.12000*%
%ADD80C,0.05000*%
G36*
X191000Y-106968D02*
X175961D01*
X175769Y-106506D01*
X181230Y-101045D01*
X181761Y-100251D01*
X181947Y-99315D01*
X181947Y-99315D01*
X181947Y-99315D01*
Y-99315D01*
Y-94828D01*
X188514Y-88262D01*
X191000D01*
Y-106968D01*
D02*
G37*
G36*
X210000Y-29075D02*
X204767Y-34308D01*
X204347Y-34937D01*
X204200Y-35678D01*
Y-38197D01*
X203813Y-38514D01*
X203437Y-38440D01*
X202969Y-38533D01*
X202572Y-38798D01*
X202307Y-39195D01*
X202214Y-39663D01*
X202307Y-40131D01*
D01*
X202307Y-40131D01*
D01*
D01*
X202109Y-40505D01*
X201969Y-40533D01*
X201572Y-40798D01*
X201307Y-41195D01*
X201214Y-41663D01*
X201307Y-42131D01*
X201324Y-42158D01*
X201169Y-42533D01*
X200772Y-42798D01*
X200507Y-43195D01*
X200413Y-43663D01*
X200507Y-44131D01*
X200347Y-44517D01*
X200269Y-44533D01*
X199872Y-44798D01*
X199607Y-45195D01*
X199513Y-45663D01*
X199607Y-46131D01*
X199872Y-46528D01*
X200269Y-46793D01*
X200737Y-46887D01*
X201205Y-46793D01*
X201602Y-46528D01*
X201867Y-46131D01*
X201960Y-45663D01*
X201867Y-45195D01*
X202027Y-44809D01*
X202105Y-44793D01*
X202502Y-44528D01*
X202767Y-44131D01*
X202860Y-43663D01*
X202767Y-43195D01*
X202750Y-43169D01*
X202905Y-42793D01*
X203302Y-42528D01*
X203567Y-42131D01*
X203660Y-41663D01*
X203573Y-41224D01*
X204002Y-40966D01*
X204200Y-41129D01*
Y-68375D01*
X195050Y-77526D01*
X186158D01*
X185673Y-77202D01*
X184737Y-77016D01*
X183801Y-77202D01*
X183646Y-77306D01*
X183184Y-77114D01*
X183130Y-76847D01*
X182865Y-76450D01*
X182468Y-76185D01*
X182000Y-76091D01*
X181532Y-76185D01*
X181135Y-76450D01*
X180870Y-76847D01*
X180777Y-77315D01*
X180870Y-77783D01*
X181135Y-78180D01*
X181532Y-78445D01*
X181647Y-78468D01*
X181793Y-78947D01*
X176372Y-84368D01*
X167514D01*
X163947Y-80801D01*
Y-79829D01*
X164730Y-79045D01*
X164730Y-79045D01*
Y-79045D01*
X165563Y-78252D01*
D01*
X165500Y-78159D01*
X165330Y-77904D01*
X165447Y-77315D01*
X165330Y-76726D01*
X165563Y-76378D01*
D01*
X164730Y-75585D01*
X164730Y-75585D01*
Y-75585D01*
X163936Y-75054D01*
X163000Y-74868D01*
X162064Y-75054D01*
X161270Y-75585D01*
X159770Y-77085D01*
X159239Y-77878D01*
X159208Y-78034D01*
X159053Y-78815D01*
Y-81815D01*
X159208Y-82596D01*
X159239Y-82751D01*
X159770Y-83545D01*
X164770Y-88545D01*
X164909Y-88639D01*
X164812Y-89129D01*
X164532Y-89185D01*
X164135Y-89450D01*
X163870Y-89847D01*
X163777Y-90315D01*
X163870Y-90783D01*
X164135Y-91180D01*
Y-91450D01*
X163870Y-91847D01*
X163777Y-92315D01*
X163870Y-92783D01*
X164135Y-93180D01*
Y-93450D01*
X163870Y-93847D01*
X163777Y-94315D01*
X163870Y-94783D01*
X164135Y-95180D01*
Y-95450D01*
X163870Y-95847D01*
X163777Y-96315D01*
X163870Y-96783D01*
X164135Y-97180D01*
Y-97450D01*
X163870Y-97847D01*
X163777Y-98315D01*
X163870Y-98783D01*
X164135Y-99180D01*
X164532Y-99445D01*
X165000Y-99538D01*
X165468Y-99445D01*
X165865Y-99180D01*
X166130Y-98783D01*
X166224Y-98315D01*
X166130Y-97847D01*
X165865Y-97450D01*
Y-97180D01*
X166130Y-96783D01*
X166224Y-96315D01*
X166130Y-95847D01*
X165865Y-95450D01*
Y-95180D01*
X166130Y-94783D01*
X166224Y-94315D01*
X166130Y-93847D01*
X165865Y-93450D01*
Y-93180D01*
X166130Y-92783D01*
X166224Y-92315D01*
X166130Y-91847D01*
X165865Y-91450D01*
Y-91180D01*
X166130Y-90783D01*
X166224Y-90315D01*
X166130Y-89847D01*
X165986Y-89631D01*
X166264Y-89215D01*
X166500Y-89262D01*
X177385D01*
X178166Y-89107D01*
X178322Y-89076D01*
X179115Y-88545D01*
X186260Y-81400D01*
X191000D01*
Y-83368D01*
X187500D01*
X186564Y-83554D01*
X185770Y-84085D01*
X177770Y-92085D01*
X177239Y-92879D01*
X177208Y-93034D01*
X177053Y-93815D01*
Y-98301D01*
X169079Y-106275D01*
X165207D01*
X164270Y-106462D01*
X163476Y-106992D01*
X162946Y-107786D01*
X162760Y-108722D01*
X162946Y-109659D01*
X163330Y-110234D01*
X163095Y-110675D01*
X158821D01*
X148230Y-100085D01*
X147436Y-99554D01*
X147281Y-99523D01*
X146500Y-99368D01*
X144000D01*
Y-95639D01*
X144441Y-95403D01*
X144532Y-95463D01*
Y-93848D01*
Y-92229D01*
X144441Y-92290D01*
X144000Y-92054D01*
Y-72315D01*
X145000Y-71315D01*
X145180Y-71135D01*
X145635Y-71180D01*
X146032Y-71445D01*
X146500Y-71539D01*
X146968Y-71445D01*
D01*
X146968Y-71445D01*
D01*
D01*
X147342Y-71643D01*
X147370Y-71783D01*
X147635Y-72180D01*
X148032Y-72445D01*
X148500Y-72539D01*
X148968Y-72445D01*
X149365Y-72180D01*
X149630Y-71783D01*
X149723Y-71315D01*
X149630Y-70847D01*
X149365Y-70450D01*
X148968Y-70185D01*
X148500Y-70091D01*
X148032Y-70185D01*
X148032Y-70185D01*
X148032Y-70185D01*
X147723Y-70315D01*
D01*
X147630Y-69847D01*
X147365Y-69450D01*
X147320Y-68995D01*
X154635Y-61680D01*
Y-61680D01*
X154635Y-61680D01*
Y-61680D01*
X155032Y-61945D01*
X155500Y-62038D01*
X155968Y-61945D01*
X156365Y-61680D01*
X156609Y-61315D01*
X165224D01*
X165369Y-61793D01*
X165135Y-61950D01*
X164870Y-62347D01*
X164777Y-62815D01*
X164870Y-63283D01*
X165135Y-63680D01*
X165532Y-63945D01*
X166000Y-64038D01*
X166468Y-63945D01*
X166865Y-63680D01*
X167130Y-63283D01*
X167224Y-62815D01*
X167500Y-62538D01*
X167968Y-62445D01*
X168365Y-62180D01*
X168630Y-61783D01*
X168728Y-61743D01*
X169032Y-61945D01*
X169500Y-62038D01*
X169968Y-61945D01*
X170365Y-61680D01*
X170630Y-61283D01*
X170723Y-60815D01*
X170630Y-60347D01*
X170365Y-59950D01*
X169968Y-59685D01*
X169500Y-59591D01*
X169386Y-59614D01*
X169000Y-59297D01*
Y-57996D01*
X169102Y-57928D01*
X169367Y-57531D01*
X169460Y-57063D01*
X169367Y-56595D01*
X169102Y-56198D01*
X169000Y-56130D01*
Y-28555D01*
X169302Y-28252D01*
X170844D01*
X170989Y-28731D01*
X170661Y-28950D01*
X170396Y-29347D01*
X170303Y-29815D01*
X170396Y-30283D01*
X170661Y-30680D01*
X171058Y-30945D01*
X171526Y-31038D01*
X171995Y-30945D01*
X172391Y-30680D01*
X172657Y-30283D01*
X172666Y-30236D01*
X173157Y-30138D01*
X173248Y-30275D01*
X173645Y-30540D01*
X174113Y-30633D01*
X174581Y-30540D01*
X174978Y-30275D01*
X175191Y-29956D01*
X175681Y-29859D01*
X175809Y-29944D01*
X176277Y-30038D01*
X176745Y-29944D01*
X177142Y-29679D01*
X177408Y-29282D01*
X177501Y-28814D01*
X177408Y-28346D01*
X177142Y-27949D01*
X176745Y-27684D01*
X176277Y-27590D01*
X175809Y-27684D01*
X175412Y-27949D01*
X175147Y-28346D01*
X175147Y-28346D01*
Y-28346D01*
X174978Y-28544D01*
D01*
X174581Y-28279D01*
X174374Y-28238D01*
X174276Y-27747D01*
X174370Y-27685D01*
X174790Y-27056D01*
X174937Y-26315D01*
X174790Y-25574D01*
X174928Y-25315D01*
X182581D01*
X182612Y-25470D01*
X182900Y-25900D01*
X183330Y-26188D01*
X183837Y-26289D01*
X184344Y-26188D01*
X184774Y-25900D01*
X184879Y-25743D01*
X185140Y-25691D01*
X185414Y-25691D01*
X185647Y-26040D01*
X186044Y-26305D01*
X186512Y-26399D01*
X186980Y-26305D01*
X187377Y-26040D01*
X187642Y-25643D01*
X187708Y-25315D01*
X198776D01*
X198870Y-25783D01*
X199135Y-26180D01*
X199532Y-26445D01*
X200000Y-26539D01*
X200468Y-26445D01*
X200865Y-26180D01*
X201130Y-25783D01*
X201179Y-25539D01*
X201679D01*
X201707Y-25679D01*
X201972Y-26076D01*
X202144Y-26191D01*
X202046Y-26682D01*
X202032Y-26685D01*
X201635Y-26950D01*
X201370Y-27347D01*
X201276Y-27815D01*
X201370Y-28283D01*
X201635Y-28680D01*
X202032Y-28945D01*
X202500Y-29039D01*
X202968Y-28945D01*
X203365Y-28680D01*
X203630Y-28283D01*
X203724Y-27815D01*
X203630Y-27347D01*
X203365Y-26950D01*
X203193Y-26835D01*
X203291Y-26344D01*
X203305Y-26341D01*
X203702Y-26076D01*
X203967Y-25679D01*
X204040Y-25315D01*
X210000D01*
Y-29075D01*
D02*
G37*
G36*
X28468Y-146315D02*
Y-150315D01*
X24468Y-154315D01*
X20469Y-148315D01*
X24468Y-142315D01*
X28468Y-146315D01*
D02*
G37*
G36*
X111000Y-22315D02*
X109000Y-24315D01*
X107000D01*
X105000Y-22315D01*
X108000Y-20315D01*
X111000Y-22315D01*
D02*
G37*
G36*
X78500Y-3315D02*
X74500Y-7315D01*
X70500D01*
X66500Y-3315D01*
X72500Y685D01*
X78500Y-3315D01*
D02*
G37*
G36*
X330654Y-139469D02*
X330631Y-139584D01*
X330731Y-140084D01*
X329500Y-141315D01*
Y-179791D01*
X273379D01*
X273027Y-179435D01*
X273435Y-143992D01*
X273914Y-143850D01*
X274135Y-144180D01*
X274532Y-144445D01*
X275000Y-144538D01*
X275468Y-144445D01*
X275865Y-144180D01*
X276130Y-143783D01*
X276223Y-143315D01*
X276130Y-142847D01*
X275865Y-142450D01*
X275468Y-142185D01*
X275000Y-142092D01*
X275326Y-141842D01*
X275326Y-141842D01*
X275746Y-141214D01*
X275894Y-140472D01*
X275746Y-139731D01*
X275326Y-139103D01*
X274698Y-138683D01*
X273957Y-138535D01*
X274177Y-138315D01*
X297446D01*
X297715Y-138642D01*
X297822Y-139182D01*
X298128Y-139640D01*
X298586Y-139946D01*
X299126Y-140053D01*
X299666Y-139946D01*
X300124Y-139640D01*
X300430Y-139182D01*
X300537Y-138642D01*
X300805Y-138315D01*
X301777D01*
X302045Y-138642D01*
X302153Y-139182D01*
X302459Y-139640D01*
X302917Y-139946D01*
X303457Y-140053D01*
X303997Y-139946D01*
X304455Y-139640D01*
X304761Y-139182D01*
X304868Y-138642D01*
X305136Y-138315D01*
X306108D01*
X306376Y-138642D01*
X306484Y-139182D01*
X306789Y-139640D01*
X307247Y-139946D01*
X307787Y-140053D01*
X308328Y-139946D01*
X308785Y-139640D01*
X309091Y-139182D01*
X309199Y-138642D01*
X309467Y-138315D01*
X329500D01*
X330654Y-139469D01*
D02*
G37*
G36*
X205815Y-12075D02*
X205700Y-13042D01*
X203700Y-12463D01*
X203757Y-11654D01*
X205815Y-12075D01*
D02*
G37*
G36*
X82000Y-8833D02*
X80000D01*
X79950Y-7886D01*
X82050D01*
X82000Y-8833D01*
D02*
G37*
G36*
X120953Y-146835D02*
X120508Y-147177D01*
X112662Y-155023D01*
X111957Y-155942D01*
X111513Y-157012D01*
X111362Y-158161D01*
Y-161174D01*
X110884Y-161320D01*
X110802Y-161198D01*
X110405Y-160933D01*
X109937Y-160839D01*
X109469Y-160933D01*
X109072Y-161198D01*
X108937Y-161400D01*
X108437D01*
X108302Y-161198D01*
X107905Y-160933D01*
X107437Y-160839D01*
X106969Y-160933D01*
X106572Y-161198D01*
X106307Y-161595D01*
X106213Y-162063D01*
X106307Y-162531D01*
X106572Y-162928D01*
X106969Y-163193D01*
X107437Y-163286D01*
X107905Y-163193D01*
X108302Y-162928D01*
X108437Y-162726D01*
X108937D01*
X109072Y-162928D01*
X109469Y-163193D01*
X109937Y-163286D01*
X110405Y-163193D01*
X110802Y-162928D01*
X110926Y-162743D01*
X111413Y-162856D01*
X111513Y-163618D01*
X111562Y-163735D01*
Y-164977D01*
X106662Y-169877D01*
X57114D01*
X55966Y-170028D01*
X54895Y-170472D01*
X53976Y-171177D01*
X52819Y-172334D01*
X52770Y-172383D01*
X52310Y-172186D01*
X52455Y-166553D01*
X52947Y-166461D01*
X53151Y-166954D01*
X53688Y-167654D01*
X54389Y-168192D01*
X55080Y-168478D01*
Y-165262D01*
X56078D01*
Y-164263D01*
X59294D01*
X59346Y-164388D01*
X59452Y-165191D01*
X59781Y-164815D01*
X96500D01*
X100935Y-160380D01*
X101032Y-160445D01*
X101500Y-160538D01*
X101968Y-160445D01*
X102365Y-160180D01*
X102630Y-159783D01*
X102724Y-159315D01*
X102630Y-158847D01*
X102565Y-158749D01*
X111500Y-149815D01*
X114953Y-146362D01*
X120792D01*
X120953Y-146835D01*
D02*
G37*
G36*
X339500Y685D02*
X344500Y-4315D01*
Y-14861D01*
X344029Y-15029D01*
X343850Y-14811D01*
X342890Y-14023D01*
X341795Y-13438D01*
X340606Y-13077D01*
X339370Y-12955D01*
X338134Y-13077D01*
X336945Y-13438D01*
X335850Y-14023D01*
X334890Y-14811D01*
X334102Y-15771D01*
X333516Y-16867D01*
X333156Y-18055D01*
X333034Y-19291D01*
X333156Y-20527D01*
X333516Y-21716D01*
X334102Y-22811D01*
X334890Y-23772D01*
X335850Y-24559D01*
X336945Y-25145D01*
X338134Y-25506D01*
X339370Y-25627D01*
X340606Y-25506D01*
X341795Y-25145D01*
X342890Y-24559D01*
X343850Y-23772D01*
X344029Y-23554D01*
X344500Y-23722D01*
Y-65815D01*
X341510D01*
X341193Y-65429D01*
X341139Y-65701D01*
X341062Y-65815D01*
X336938D01*
X336861Y-65701D01*
X336685Y-64815D01*
X336750Y-64490D01*
X336250D01*
X336138Y-63929D01*
X335637Y-63178D01*
X334886Y-62677D01*
X334000Y-62500D01*
X333114Y-62677D01*
X332363Y-63178D01*
X331862Y-63929D01*
X331750Y-64490D01*
X331250D01*
X331138Y-63929D01*
X330637Y-63178D01*
X329886Y-62677D01*
X329000Y-62500D01*
X328114Y-62677D01*
X327363Y-63178D01*
X326862Y-63929D01*
X326750Y-64490D01*
X326250D01*
X326138Y-63929D01*
X325637Y-63178D01*
X324886Y-62677D01*
X324000Y-62500D01*
X323114Y-62677D01*
X322363Y-63178D01*
X321862Y-63929D01*
X321685Y-64815D01*
X321808Y-65428D01*
X321490Y-65815D01*
X311224D01*
X311130Y-65347D01*
X310865Y-64950D01*
X310468Y-64685D01*
X310000Y-64591D01*
X309532Y-64685D01*
X309135Y-64950D01*
X308870Y-65347D01*
X308776Y-65815D01*
X296740D01*
X289411Y-58486D01*
X289500Y-58039D01*
X289968Y-57945D01*
X290365Y-57680D01*
X290630Y-57283D01*
X290723Y-56815D01*
X290630Y-56347D01*
X290365Y-55950D01*
X289968Y-55685D01*
X289500Y-55591D01*
X289032Y-55685D01*
X288635Y-55950D01*
X288370Y-56347D01*
X288291Y-56743D01*
X287812Y-56888D01*
X284370Y-53445D01*
X284175Y-53315D01*
X284159Y-53156D01*
X295456Y-41859D01*
X295953Y-41908D01*
X296135Y-42180D01*
X296532Y-42445D01*
X297000Y-42538D01*
X297468Y-42445D01*
X297865Y-42180D01*
X298130Y-41783D01*
X298223Y-41315D01*
X298130Y-40847D01*
X297865Y-40450D01*
X297468Y-40185D01*
X297390Y-39925D01*
X302500Y-34815D01*
Y-27130D01*
X301957Y-26315D01*
X302500Y-25500D01*
Y1185D01*
X313189D01*
X313425Y744D01*
X313354Y637D01*
X313261Y169D01*
X313354Y-299D01*
X313419Y-396D01*
X313065Y-749D01*
X312968Y-685D01*
X312500Y-592D01*
X312032Y-685D01*
X311635Y-950D01*
X311370Y-1347D01*
X311277Y-1815D01*
X311222Y-1882D01*
X304086D01*
X304007Y-1915D01*
X303920D01*
X303860Y-1940D01*
X303860D01*
X303860Y-1940D01*
X303859Y-1940D01*
X303799Y-2001D01*
X303780Y-2009D01*
X303772Y-2028D01*
X303742Y-2057D01*
X303713Y-2087D01*
X303694Y-2095D01*
X303686Y-2114D01*
X303625Y-2175D01*
X303625Y-2175D01*
X303625Y-2175D01*
Y-2175D01*
X303600Y-2235D01*
X303600Y-2321D01*
X303567Y-2401D01*
Y-15729D01*
X303600Y-15808D01*
Y-15895D01*
X303625Y-15955D01*
Y-15955D01*
X303625Y-15955D01*
X303625Y-15955D01*
X303686Y-16016D01*
X303694Y-16035D01*
X303713Y-16043D01*
X303742Y-16073D01*
X303772Y-16102D01*
X303780Y-16121D01*
X303799Y-16129D01*
X303859Y-16190D01*
X303859Y-16190D01*
X303859Y-16190D01*
X303860D01*
X303920Y-16215D01*
X304007Y-16215D01*
X304086Y-16248D01*
X308695D01*
X308755Y-16223D01*
X308820Y-16229D01*
X308903Y-16162D01*
X309001Y-16121D01*
X309022Y-16070D01*
X309501Y-15924D01*
X309532Y-15945D01*
X310000Y-16038D01*
X310468Y-15945D01*
X310499Y-15924D01*
X310978Y-16070D01*
X310999Y-16121D01*
X311098Y-16162D01*
X311180Y-16229D01*
X311245Y-16223D01*
X311305Y-16248D01*
X314767D01*
X314786Y-16240D01*
D01*
X314848D01*
X314908Y-16215D01*
X314933D01*
X314952Y-16207D01*
X314961Y-16198D01*
X315052Y-16189D01*
X315093Y-16138D01*
X315154Y-16113D01*
X315189Y-16029D01*
X315200Y-16023D01*
X315213Y-16007D01*
X315220Y-15984D01*
X315262Y-15933D01*
X315280Y-15874D01*
D01*
X315293Y-15858D01*
X315394Y-15523D01*
X315392Y-15503D01*
X315392Y-15503D01*
Y-15503D01*
X315411Y-15440D01*
X315405Y-15376D01*
X315405Y-15373D01*
X315411Y-15355D01*
X315409Y-15336D01*
X315409Y-15332D01*
X315432Y-15299D01*
X315437Y-15275D01*
X315455Y-15262D01*
X315455D01*
X315455Y-15262D01*
X315477Y-15248D01*
X316523D01*
X316523Y-15248D01*
D01*
X316597Y-15495D01*
X316597Y-15495D01*
X316597Y-15495D01*
X316707Y-15858D01*
X316720Y-15874D01*
X316738Y-15933D01*
X316780Y-15984D01*
X316787Y-16007D01*
X316800Y-16023D01*
X316811Y-16029D01*
X316846Y-16113D01*
X316907Y-16138D01*
X316948Y-16189D01*
X317039Y-16198D01*
X317048Y-16207D01*
X317067Y-16215D01*
X317092D01*
X317152Y-16240D01*
X317214D01*
D01*
X317233Y-16248D01*
X319914D01*
X319993Y-16215D01*
X320080D01*
X320140Y-16190D01*
X320140D01*
X320140Y-16190D01*
X320141Y-16190D01*
X320201Y-16129D01*
X320220Y-16121D01*
X320228Y-16102D01*
X320258Y-16073D01*
X320287Y-16043D01*
X320306Y-16035D01*
X320314Y-16016D01*
X320375Y-15955D01*
X320375Y-15955D01*
X320375Y-15955D01*
Y-15955D01*
X320400Y-15895D01*
X320400Y-15808D01*
X320433Y-15729D01*
Y-4548D01*
X320425Y-4529D01*
D01*
Y-4467D01*
X320400Y-4406D01*
Y-4382D01*
X320392Y-4363D01*
X320383Y-4354D01*
X320374Y-4263D01*
X320323Y-4222D01*
X320298Y-4161D01*
X320214Y-4126D01*
X320208Y-4115D01*
X320192Y-4102D01*
X320169Y-4095D01*
X320151Y-4081D01*
D01*
X320118Y-4053D01*
X320057Y-4033D01*
X320043Y-4022D01*
X319680Y-3912D01*
X319680Y-3912D01*
X319680Y-3912D01*
X319433Y-3838D01*
Y-3401D01*
X319400Y-3322D01*
Y-3235D01*
X319371Y-3165D01*
X319321Y-3116D01*
X319313Y-3072D01*
X319290Y-3057D01*
X319277Y-3025D01*
X319259Y-3007D01*
X319220Y-2991D01*
X319199Y-2959D01*
X319162Y-2934D01*
X319145Y-2893D01*
X319138Y-2886D01*
X319130Y-2847D01*
X318865Y-2450D01*
X318468Y-2185D01*
X318429Y-2177D01*
X318422Y-2170D01*
X318381Y-2153D01*
X318356Y-2116D01*
X318324Y-2095D01*
X318308Y-2056D01*
X318305Y-2053D01*
X318290Y-2038D01*
X318257Y-2025D01*
X318243Y-2002D01*
X318199Y-1994D01*
X318150Y-1944D01*
X318079Y-1915D01*
X317993D01*
X317984Y-1911D01*
D01*
X317914Y-1882D01*
X317336D01*
X317219Y-1931D01*
X317095Y-1955D01*
X317011Y-2012D01*
X317001Y-2009D01*
X317001Y-2009D01*
X317001Y-2009D01*
X316902Y-1968D01*
X316820Y-1901D01*
X316755Y-1907D01*
X316695Y-1882D01*
X313778D01*
X313723Y-1815D01*
X313630Y-1347D01*
X313566Y-1250D01*
X313919Y-896D01*
X314016Y-961D01*
X314484Y-1054D01*
X314952Y-961D01*
X315349Y-696D01*
X315615Y-299D01*
X315708Y169D01*
X315615Y637D01*
X315349Y1034D01*
X315395Y1185D01*
X318195D01*
X318430Y744D01*
X318370Y653D01*
X318277Y185D01*
X318370Y-283D01*
X318635Y-680D01*
X319032Y-945D01*
X319500Y-1039D01*
X319968Y-945D01*
X320365Y-680D01*
X320630Y-283D01*
X320724Y185D01*
X320630Y653D01*
X320365Y1050D01*
X320406Y1185D01*
X339000D01*
X339500Y685D01*
D02*
G37*
G36*
X279500Y-52878D02*
X277937D01*
Y-20815D01*
X277790Y-20074D01*
X277370Y-19445D01*
X272937Y-15012D01*
Y-11465D01*
X272790Y-10724D01*
X272370Y-10095D01*
X271741Y-9675D01*
X271000Y-9528D01*
X270259Y-9675D01*
X269630Y-10095D01*
X269210Y-10724D01*
X269063Y-11465D01*
Y-15815D01*
X269063Y-15815D01*
X269063D01*
X269210Y-16556D01*
X269630Y-17185D01*
X269685Y-17240D01*
X269450Y-17681D01*
X269000Y-17592D01*
X268532Y-17685D01*
X268135Y-17950D01*
X267870Y-18347D01*
X267776Y-18815D01*
X267870Y-19283D01*
X268135Y-19680D01*
X268532Y-19945D01*
X269000Y-20039D01*
X269468Y-19945D01*
X269865Y-19680D01*
X270130Y-19283D01*
X270223Y-18815D01*
X270134Y-18365D01*
X270575Y-18130D01*
X274063Y-21617D01*
Y-33633D01*
X273584Y-33778D01*
X273365Y-33450D01*
X272968Y-33185D01*
X272500Y-33091D01*
X272032Y-33185D01*
X271670Y-33427D01*
X271208Y-33235D01*
X271130Y-32847D01*
X270865Y-32450D01*
X270754Y-32376D01*
X270737Y-32289D01*
X270737Y-32289D01*
X270577Y-32257D01*
X270468Y-32184D01*
X270121Y-32115D01*
X269800Y-31900D01*
D01*
X269532Y-32185D01*
X269532D01*
X269532Y-32185D01*
X269135Y-32450D01*
X268870Y-32847D01*
X268776Y-33315D01*
X268870Y-33783D01*
X269135Y-34180D01*
X269532Y-34445D01*
X270000Y-34538D01*
X270468Y-34445D01*
X270830Y-34203D01*
X271292Y-34395D01*
X271370Y-34783D01*
X271432Y-34876D01*
X271241Y-35339D01*
X271032Y-35380D01*
X270635Y-35645D01*
X270370Y-36042D01*
X270276Y-36510D01*
X270370Y-36979D01*
X270635Y-37376D01*
X271032Y-37641D01*
X271500Y-37734D01*
X271503Y-37733D01*
X271918Y-38011D01*
X271955Y-38197D01*
X272221Y-38594D01*
X272618Y-38860D01*
X273086Y-38953D01*
X273554Y-38860D01*
X273622Y-38814D01*
X274063Y-39050D01*
Y-52878D01*
X258302D01*
X254100Y-48676D01*
Y-46815D01*
X253953Y-46074D01*
X253533Y-45445D01*
X252904Y-45025D01*
X252163Y-44878D01*
X251422Y-45025D01*
X250793Y-45445D01*
X250373Y-46074D01*
X250226Y-46815D01*
Y-48815D01*
X250292Y-49146D01*
X250226Y-49478D01*
X250373Y-50219D01*
X250793Y-50848D01*
X254298Y-54353D01*
X254107Y-54815D01*
X252487D01*
X252080Y-53833D01*
X251375Y-52914D01*
X246138Y-47677D01*
X245219Y-46972D01*
X244149Y-46528D01*
X243000Y-46377D01*
X242956Y-46044D01*
X243130Y-45783D01*
X243224Y-45315D01*
X243130Y-44847D01*
X242865Y-44450D01*
X242468Y-44185D01*
X242000Y-44091D01*
X241532Y-44185D01*
X241135Y-44450D01*
X240870Y-44847D01*
X240776Y-45315D01*
X240870Y-45783D01*
X241135Y-46180D01*
X241290Y-46284D01*
X241241Y-46781D01*
X240781Y-46972D01*
X240312Y-47331D01*
X240135Y-47450D01*
X240111Y-47486D01*
X239862Y-47677D01*
X239157Y-48596D01*
X238713Y-49666D01*
X238562Y-50815D01*
X238713Y-51964D01*
X239157Y-53034D01*
X239862Y-53953D01*
X240000Y-54091D01*
Y-70513D01*
X239375Y-71138D01*
X238669Y-72057D01*
X238226Y-73128D01*
X238075Y-74276D01*
Y-106315D01*
X201500D01*
X201000Y-105815D01*
X201500Y-105315D01*
Y-88262D01*
X206500D01*
X207281Y-88107D01*
X207436Y-88076D01*
X207827Y-87815D01*
X218000D01*
X219500Y-89315D01*
X221500Y-87315D01*
Y-75526D01*
X221708Y-75506D01*
X222897Y-75145D01*
X223992Y-74560D01*
X224953Y-73772D01*
X225741Y-72811D01*
X226326Y-71716D01*
X226687Y-70527D01*
X226809Y-69291D01*
X226687Y-68055D01*
X226326Y-66867D01*
X225741Y-65771D01*
X224953Y-64811D01*
X223992Y-64023D01*
X222897Y-63438D01*
X221708Y-63077D01*
X221500Y-63056D01*
Y-55276D01*
X224230Y-52545D01*
X224761Y-51751D01*
X224792Y-51596D01*
X224947Y-50815D01*
Y-30315D01*
X224792Y-29534D01*
X224761Y-29379D01*
X224230Y-28585D01*
X221500Y-25854D01*
Y-18315D01*
X220805D01*
X220570Y-17874D01*
X220630Y-17783D01*
X220724Y-17315D01*
X220630Y-16847D01*
X220365Y-16450D01*
X219968Y-16185D01*
X219500Y-16092D01*
X219032Y-16185D01*
X218635Y-16450D01*
X218370Y-16847D01*
X218277Y-17315D01*
X218370Y-17783D01*
X218430Y-17874D01*
X218195Y-18315D01*
X215947D01*
Y-15815D01*
X215761Y-14878D01*
X215230Y-14085D01*
X214436Y-13554D01*
X213500Y-13368D01*
X213355Y-13097D01*
X221212Y-5240D01*
X240868D01*
X241104Y-5681D01*
X240870Y-6032D01*
X240776Y-6500D01*
X240870Y-6968D01*
X241135Y-7365D01*
Y-7635D01*
X240870Y-8032D01*
X240776Y-8500D01*
X240870Y-8968D01*
X241135Y-9365D01*
X241532Y-9630D01*
X242000Y-9724D01*
X242468Y-9630D01*
X242865Y-9365D01*
X243130Y-8968D01*
X243224Y-8500D01*
X243130Y-8032D01*
X242865Y-7635D01*
Y-7365D01*
X243130Y-6968D01*
X243224Y-6500D01*
X243130Y-6032D01*
X242896Y-5681D01*
X243132Y-5240D01*
X279500D01*
Y-52878D01*
D02*
G37*
G36*
X226276Y2037D02*
X226370Y1569D01*
X226635Y1172D01*
X226760Y1089D01*
X226614Y610D01*
X220000D01*
X219243Y510D01*
X218537Y218D01*
X217932Y-247D01*
X207383Y-10795D01*
X206905Y-10650D01*
X206790Y-10074D01*
X206370Y-9445D01*
X205741Y-9025D01*
X205000Y-8878D01*
X204259Y-9025D01*
X203630Y-9445D01*
X203210Y-10074D01*
X203063Y-10815D01*
X203210Y-11556D01*
X203273Y-11650D01*
Y-12370D01*
X203268Y-12433D01*
X203273Y-12446D01*
Y-18024D01*
X202981Y-18315D01*
X198223D01*
X198130Y-17847D01*
X197865Y-17450D01*
Y-17028D01*
X198130Y-16631D01*
X198223Y-16163D01*
X198130Y-15695D01*
X197865Y-15298D01*
Y-15028D01*
X198130Y-14631D01*
X198223Y-14163D01*
X198130Y-13695D01*
X197865Y-13298D01*
Y-13028D01*
X198130Y-12631D01*
X198223Y-12163D01*
X198130Y-11695D01*
X197865Y-11298D01*
X197468Y-11033D01*
X197000Y-10939D01*
X196532Y-11033D01*
X196135Y-11298D01*
X195870Y-11695D01*
X195776Y-12163D01*
X195870Y-12631D01*
X196135Y-13028D01*
Y-13298D01*
X195870Y-13695D01*
X195776Y-14163D01*
X195870Y-14631D01*
X196135Y-15028D01*
Y-15298D01*
X195870Y-15695D01*
X195776Y-16163D01*
X195870Y-16631D01*
X196135Y-17028D01*
Y-17450D01*
X195870Y-17847D01*
X195776Y-18315D01*
X183723D01*
X183630Y-17847D01*
X183365Y-17450D01*
X182968Y-17185D01*
X182500Y-17091D01*
X182032Y-17185D01*
X181635Y-17450D01*
X181370Y-17847D01*
X181277Y-18315D01*
X172518D01*
X172201Y-17929D01*
X172223Y-17815D01*
X172130Y-17347D01*
X171865Y-16950D01*
X171468Y-16685D01*
X171865Y-16338D01*
D01*
X171865Y-16338D01*
X171865Y-16338D01*
X171865Y-16338D01*
X171865Y-16338D01*
D01*
X172130Y-15941D01*
X172223Y-15472D01*
X172130Y-15004D01*
X171865Y-14607D01*
X171468Y-14342D01*
X171000Y-14249D01*
X170532Y-14342D01*
X170135Y-14607D01*
X169870Y-15004D01*
X169776Y-15472D01*
X169870Y-15941D01*
X170135Y-16338D01*
X170219Y-16394D01*
Y-16894D01*
X170135Y-16950D01*
X169870Y-17347D01*
X169776Y-17815D01*
X169799Y-17929D01*
X169482Y-18315D01*
X146723D01*
X146630Y-17847D01*
X146365Y-17450D01*
X145968Y-17185D01*
X145500Y-17091D01*
X145032Y-17185D01*
X144635Y-17450D01*
X144370Y-17847D01*
X144276Y-18315D01*
X99500D01*
X98500Y-17315D01*
X99000Y2185D01*
X103187D01*
X103422Y1744D01*
X103383Y1685D01*
X106617D01*
X106370Y2055D01*
X106409Y2185D01*
X226155D01*
X226276Y2037D01*
D02*
G37*
G36*
X290798Y-65353D02*
X290607Y-65815D01*
X284132D01*
X283815Y-65429D01*
X283790Y-65556D01*
X283617Y-65815D01*
X280383D01*
X280630Y-66185D01*
X279500Y-67315D01*
X271000Y-75815D01*
Y-85623D01*
X270584Y-85901D01*
X270210Y-85745D01*
X270130Y-85347D01*
X269865Y-84950D01*
X269468Y-84685D01*
X269000Y-84591D01*
X268532Y-84685D01*
X268135Y-84950D01*
X268125Y-84965D01*
X267635Y-84867D01*
X267630Y-84847D01*
X267365Y-84450D01*
X266968Y-84185D01*
X266500Y-84091D01*
X266032Y-84185D01*
X265635Y-84450D01*
X265370Y-84847D01*
X265277Y-85315D01*
X265370Y-85783D01*
X265635Y-86180D01*
X266032Y-86445D01*
X266500Y-86538D01*
X266968Y-86445D01*
X267365Y-86180D01*
X267375Y-86165D01*
X267865Y-86263D01*
X267870Y-86283D01*
X268135Y-86680D01*
X268532Y-86945D01*
X269000Y-87038D01*
X269468Y-86945D01*
X269794Y-86728D01*
X270256Y-86919D01*
X270335Y-87318D01*
X270600Y-87715D01*
X270997Y-87980D01*
X271000Y-87981D01*
Y-95832D01*
X270521Y-95977D01*
X270093Y-95336D01*
X269342Y-94834D01*
X268457Y-94658D01*
X267571Y-94834D01*
X266820Y-95336D01*
X266318Y-96087D01*
X266142Y-96972D01*
X266318Y-97858D01*
X266820Y-98609D01*
X267571Y-99111D01*
X268132Y-99222D01*
Y-99722D01*
X267571Y-99834D01*
X266820Y-100336D01*
X266318Y-101087D01*
X266142Y-101972D01*
X266318Y-102858D01*
X266820Y-103609D01*
X267571Y-104111D01*
X268132Y-104222D01*
Y-104722D01*
X267571Y-104834D01*
X266820Y-105336D01*
X266318Y-106087D01*
X266142Y-106972D01*
X266318Y-107858D01*
X266820Y-108609D01*
X267571Y-109111D01*
X268457Y-109287D01*
X269342Y-109111D01*
X270093Y-108609D01*
X270521Y-107968D01*
X271000Y-108113D01*
Y-111292D01*
X270521Y-111437D01*
X270365Y-111203D01*
X269968Y-110938D01*
X269500Y-110845D01*
X269032Y-110938D01*
X268635Y-111203D01*
X268370Y-111600D01*
X268277Y-112068D01*
X268370Y-112537D01*
X268635Y-112934D01*
X268785Y-113034D01*
X268774Y-113060D01*
X268774D01*
X268594Y-113496D01*
X268741Y-113525D01*
X268988Y-113690D01*
X268999Y-113664D01*
X268999D01*
X269180Y-113228D01*
X269500Y-113292D01*
X269968Y-113199D01*
X270365Y-112934D01*
X270521Y-112700D01*
X271000Y-112845D01*
Y-126378D01*
X267802D01*
X265370Y-123945D01*
X264741Y-123525D01*
X264000Y-123378D01*
X263259Y-123525D01*
X262630Y-123945D01*
X262210Y-124574D01*
X262063Y-125315D01*
X262210Y-126056D01*
X262630Y-126685D01*
X265630Y-129685D01*
X266259Y-130105D01*
X267000Y-130252D01*
X271000D01*
Y-132378D01*
X259802D01*
X256644Y-129219D01*
Y-126722D01*
X256497Y-125981D01*
X256077Y-125353D01*
X255448Y-124933D01*
X254707Y-124785D01*
X253965Y-124933D01*
X253337Y-125353D01*
X252917Y-125981D01*
X252769Y-126722D01*
Y-129451D01*
X252328Y-129687D01*
X251948Y-129433D01*
X251207Y-129285D01*
X250465Y-129433D01*
X249837Y-129853D01*
X249417Y-130481D01*
X249270Y-131222D01*
X249417Y-131964D01*
X249837Y-132592D01*
X250465Y-133012D01*
X251207Y-133160D01*
X251948Y-133012D01*
X252576Y-132592D01*
X252996Y-131964D01*
X253044Y-131723D01*
X253523Y-131578D01*
X257630Y-135685D01*
X258259Y-136105D01*
X259000Y-136252D01*
X271000D01*
Y-146706D01*
X270635Y-146950D01*
X270370Y-147347D01*
X270276Y-147815D01*
X270370Y-148283D01*
X270635Y-148680D01*
X271000Y-148924D01*
Y-170797D01*
X270614Y-171114D01*
X270500Y-171091D01*
X270032Y-171185D01*
X269635Y-171450D01*
X269370Y-171847D01*
X269276Y-172315D01*
X269370Y-172783D01*
X269635Y-173180D01*
X270032Y-173445D01*
X270500Y-173538D01*
X270614Y-173516D01*
X271000Y-173833D01*
Y-179791D01*
X257874D01*
Y-179784D01*
X257125Y-179883D01*
X256427Y-180172D01*
X255828Y-180631D01*
X255368Y-181230D01*
X255079Y-181928D01*
X254981Y-182677D01*
X254988D01*
Y-183334D01*
X108042D01*
X107699Y-182970D01*
X107949Y-178753D01*
X108500D01*
X109649Y-178602D01*
X110719Y-178158D01*
X111638Y-177453D01*
X119138Y-169953D01*
X119843Y-169034D01*
X120287Y-167964D01*
X120438Y-166815D01*
X120438Y-166815D01*
X120438Y-166815D01*
Y-166815D01*
Y-162669D01*
X120287Y-161520D01*
X120238Y-161402D01*
Y-161328D01*
X120855D01*
X121032Y-161445D01*
X121500Y-161539D01*
X121776Y-161815D01*
X121870Y-162283D01*
X122135Y-162680D01*
X122532Y-162945D01*
X123000Y-163039D01*
X123468Y-162945D01*
X123865Y-162680D01*
X124130Y-162283D01*
X124223Y-161815D01*
X124470Y-161568D01*
X124547Y-161607D01*
X125007Y-162283D01*
Y-162283D01*
X125272Y-162680D01*
X125669Y-162945D01*
X126137Y-163039D01*
X126605Y-162945D01*
X127002Y-162680D01*
X127267Y-162283D01*
X127360Y-161815D01*
X127654Y-161522D01*
X127737Y-161539D01*
X128014Y-161815D01*
X128107Y-162283D01*
X128372Y-162680D01*
X128769Y-162945D01*
X129237Y-163039D01*
X129705Y-162945D01*
X130102Y-162680D01*
X130367Y-162283D01*
X130461Y-161815D01*
X130367Y-161347D01*
X130378Y-161328D01*
X132665D01*
X132710Y-161556D01*
X133130Y-162185D01*
X133759Y-162605D01*
X134500Y-162752D01*
X135241Y-162605D01*
X135870Y-162185D01*
X136290Y-161556D01*
X136335Y-161328D01*
X141916D01*
X142234Y-161714D01*
X142213Y-161815D01*
X142307Y-162283D01*
X142572Y-162680D01*
X142969Y-162945D01*
X143437Y-163039D01*
X143905Y-162945D01*
X144302Y-162680D01*
X144567Y-162283D01*
X144660Y-161815D01*
X144567Y-161347D01*
X144578Y-161328D01*
X145116D01*
X145434Y-161714D01*
X145413Y-161815D01*
X145507Y-162283D01*
X145772Y-162680D01*
X146169Y-162945D01*
X146637Y-163039D01*
X147105Y-162945D01*
X147502Y-162680D01*
X147767Y-162283D01*
X147861Y-161815D01*
X147767Y-161347D01*
X147778Y-161328D01*
X160816D01*
X161134Y-161714D01*
X161114Y-161815D01*
X161207Y-162283D01*
X161472Y-162680D01*
X161869Y-162945D01*
X162337Y-163039D01*
X162805Y-162945D01*
X163202Y-162680D01*
X163467Y-162283D01*
X163560Y-161815D01*
X163467Y-161347D01*
X163478Y-161328D01*
X164016D01*
X164334Y-161714D01*
X164313Y-161815D01*
X164407Y-162283D01*
X164672Y-162680D01*
X165069Y-162945D01*
X165537Y-163039D01*
X166005Y-162945D01*
X166402Y-162680D01*
X166667Y-162283D01*
X166761Y-161815D01*
X166719Y-161608D01*
X167171Y-161395D01*
X167434Y-161714D01*
X167413Y-161815D01*
X167507Y-162283D01*
X167772Y-162680D01*
X168169Y-162945D01*
X168637Y-163039D01*
X169105Y-162945D01*
X169502Y-162680D01*
X169569Y-162581D01*
X170069D01*
X170135Y-162680D01*
X170532Y-162945D01*
X171000Y-163039D01*
X171468Y-162945D01*
X171865Y-162680D01*
X172130Y-162283D01*
X172223Y-161815D01*
X172130Y-161347D01*
X171865Y-160950D01*
X171468Y-160685D01*
X171000Y-160591D01*
X170532Y-160685D01*
X170349Y-160807D01*
X170032Y-160420D01*
X183946Y-146506D01*
X184172Y-146528D01*
X184037Y-146327D01*
X183906Y-146131D01*
X183813Y-145663D01*
X183906Y-145195D01*
X184172Y-144798D01*
X184373Y-144663D01*
X184569Y-144532D01*
X185037Y-144439D01*
X185505Y-144532D01*
X185701Y-144663D01*
X185902Y-144798D01*
X185880Y-144572D01*
X189011Y-141442D01*
X189508Y-141490D01*
X189635Y-141680D01*
X190032Y-141945D01*
X190500Y-142039D01*
X190777Y-142315D01*
X190870Y-142783D01*
X191135Y-143180D01*
X191532Y-143445D01*
X191781Y-143495D01*
X192058Y-143911D01*
X192028Y-144063D01*
X192121Y-144532D01*
X192386Y-144929D01*
X192783Y-145194D01*
X193252Y-145287D01*
X193720Y-145194D01*
X194117Y-144929D01*
X194382Y-144532D01*
X194475Y-144063D01*
X194382Y-143595D01*
X194117Y-143198D01*
X193720Y-142933D01*
X193252Y-142840D01*
X193185Y-142507D01*
X193224Y-142315D01*
X193130Y-141847D01*
X192865Y-141450D01*
X192468Y-141185D01*
X192000Y-141092D01*
X191724Y-140815D01*
X191630Y-140347D01*
X191365Y-139950D01*
X190968Y-139685D01*
X190921Y-139531D01*
X191000Y-139452D01*
Y-125315D01*
X195864D01*
X195919Y-125396D01*
X196415Y-125728D01*
X197000Y-125844D01*
X197585Y-125728D01*
X198081Y-125396D01*
X198136Y-125315D01*
X237500D01*
X240856Y-121959D01*
X241334Y-122104D01*
X241276Y-121815D01*
X241369Y-121347D01*
X241635Y-120950D01*
X241836Y-120815D01*
X243164D01*
X243365Y-120950D01*
X243631Y-121347D01*
X243722Y-121807D01*
X244075Y-121454D01*
X244032Y-121446D01*
X243635Y-121180D01*
X243500Y-120979D01*
Y-120316D01*
Y-119651D01*
X243635Y-119450D01*
X244032Y-119184D01*
X244375Y-119116D01*
X244140Y-118675D01*
X253500Y-109315D01*
Y-68315D01*
X269000D01*
X280563Y-56752D01*
X282198D01*
X290798Y-65353D01*
D02*
G37*
G36*
X316930Y-2756D02*
X317135Y-2450D01*
X317336Y-2315D01*
X317914D01*
X317984Y-2344D01*
X317999Y-2359D01*
X318002Y-2362D01*
X318011Y-2406D01*
X318116Y-2476D01*
X318205Y-2565D01*
X318250D01*
X318286Y-2590D01*
X318299Y-2593D01*
X318553Y-2762D01*
X318722Y-3016D01*
X318725Y-3029D01*
X318749Y-3065D01*
Y-3110D01*
X318839Y-3199D01*
X318909Y-3304D01*
X318953Y-3313D01*
X318971Y-3331D01*
X319000Y-3401D01*
Y-3889D01*
X319023Y-3944D01*
X319000Y-3979D01*
X318865Y-4180D01*
X319013Y-4151D01*
X319102Y-4178D01*
X319127Y-4195D01*
Y-4195D01*
D01*
X319127D01*
D01*
Y-4195D01*
X319273Y-4256D01*
X319418Y-4321D01*
X319554Y-4326D01*
X319918Y-4437D01*
X319933Y-4450D01*
X319992Y-4467D01*
Y-4529D01*
X320000Y-4548D01*
Y-15729D01*
X319975Y-15790D01*
X319914Y-15815D01*
X317233D01*
X317214Y-15807D01*
X317152D01*
X317134Y-15748D01*
X317122Y-15733D01*
X317011Y-15369D01*
X317006Y-15233D01*
X316941Y-15088D01*
X316880Y-14942D01*
X316880Y-14942D01*
X316872Y-14939D01*
X316869Y-14931D01*
X316720Y-14876D01*
X316711Y-14783D01*
X316664Y-14815D01*
X316630Y-14838D01*
X316574Y-14815D01*
X315426D01*
X315370Y-14838D01*
X315336Y-14815D01*
X315135Y-14680D01*
X315120Y-14942D01*
D01*
D01*
Y-14942D01*
D01*
X315120D01*
X315072Y-15058D01*
X315002Y-15164D01*
X314984Y-15250D01*
X314997Y-15315D01*
X314978Y-15377D01*
X314980Y-15397D01*
X314878Y-15733D01*
X314865Y-15748D01*
X314848Y-15807D01*
X314786D01*
X314767Y-15815D01*
X311305D01*
X311070Y-15374D01*
X311130Y-15283D01*
X311224Y-14815D01*
X311130Y-14347D01*
X310865Y-13950D01*
X310468Y-13685D01*
X310000Y-13591D01*
X309532Y-13685D01*
X309135Y-13950D01*
X308870Y-14347D01*
X308776Y-14815D01*
X308870Y-15283D01*
X308930Y-15374D01*
X308695Y-15815D01*
X304086D01*
X304025Y-15790D01*
X304000Y-15729D01*
Y-2401D01*
X304025Y-2340D01*
X304086Y-2315D01*
X311391D01*
X311635Y-2680D01*
X312032Y-2945D01*
X312500Y-3039D01*
X312968Y-2945D01*
X313365Y-2680D01*
X313609Y-2315D01*
X316695D01*
X316930Y-2756D01*
D02*
G37*
G36*
X99235Y-57295D02*
Y-57795D01*
X44302Y-112728D01*
X7600Y-76026D01*
Y-75526D01*
X7880Y-75247D01*
X8349Y-75185D01*
X9526Y-74698D01*
X10536Y-73922D01*
X11312Y-72912D01*
X11799Y-71735D01*
X11861Y-71266D01*
X62533Y-20594D01*
X99235Y-57295D01*
D02*
G37*
G36*
X304500Y-118972D02*
X300000Y-121972D01*
X295500Y-118972D01*
X298500Y-115972D01*
X301500D01*
X304500Y-118972D01*
D02*
G37*
%LPC*%
G36*
X146531Y-92229D02*
Y-92847D01*
X147148D01*
X146901Y-92477D01*
X146531Y-92229D01*
D02*
G37*
G36*
X155993Y-79163D02*
X155737D01*
Y-79419D01*
X155891Y-79317D01*
X155993Y-79163D01*
D02*
G37*
G36*
X148500Y-75591D02*
X148032Y-75685D01*
X147635Y-75950D01*
X147370Y-76347D01*
X147276Y-76815D01*
X147278Y-76822D01*
X146924Y-77176D01*
X146500Y-77091D01*
X146032Y-77185D01*
X145635Y-77450D01*
X145370Y-77847D01*
X145276Y-78315D01*
X145370Y-78783D01*
X145635Y-79180D01*
X146032Y-79445D01*
X146500Y-79539D01*
X146968Y-79445D01*
X147365Y-79180D01*
X147630Y-78783D01*
X147723Y-78315D01*
X147722Y-78308D01*
X148076Y-77954D01*
X148500Y-78039D01*
X148968Y-77945D01*
X149365Y-77680D01*
X149630Y-77283D01*
X149723Y-76815D01*
X149630Y-76347D01*
X149365Y-75950D01*
X148968Y-75685D01*
X148500Y-75591D01*
D02*
G37*
G36*
X153737Y-79163D02*
X153481D01*
X153584Y-79317D01*
X153737Y-79419D01*
Y-79163D01*
D02*
G37*
G36*
X167093Y-104363D02*
X166837D01*
Y-104619D01*
X166991Y-104516D01*
X167093Y-104363D01*
D02*
G37*
G36*
X164837D02*
X164581D01*
X164683Y-104516D01*
X164837Y-104619D01*
Y-104363D01*
D02*
G37*
G36*
X166837Y-102107D02*
Y-102363D01*
X167093D01*
X166991Y-102209D01*
X166837Y-102107D01*
D02*
G37*
G36*
X147148Y-94846D02*
X146531D01*
Y-95463D01*
X146901Y-95216D01*
X147148Y-94846D01*
D02*
G37*
G36*
X164837Y-102107D02*
X164683Y-102209D01*
X164581Y-102363D01*
X164837D01*
Y-102107D01*
D02*
G37*
G36*
X153737Y-76907D02*
X153584Y-77009D01*
X153481Y-77163D01*
X153737D01*
Y-76907D01*
D02*
G37*
G36*
X197237Y-26340D02*
X196769Y-26433D01*
X196372Y-26698D01*
X196107Y-27095D01*
X196013Y-27563D01*
X196107Y-28031D01*
X196372Y-28428D01*
X196769Y-28693D01*
X197237Y-28787D01*
X197237Y-28787D01*
X197207Y-28995D01*
X197207Y-28995D01*
X197207Y-28995D01*
X197114Y-29463D01*
X197207Y-29931D01*
X197472Y-30328D01*
X197869Y-30593D01*
X198337Y-30687D01*
X198805Y-30593D01*
X199202Y-30328D01*
X199467Y-29931D01*
X199560Y-29463D01*
X199467Y-28995D01*
X199202Y-28598D01*
X198805Y-28333D01*
X198337Y-28240D01*
X198283Y-28158D01*
X198367Y-28031D01*
X198460Y-27563D01*
X198367Y-27095D01*
X198102Y-26698D01*
X197705Y-26433D01*
X197237Y-26340D01*
D02*
G37*
G36*
X182437Y-27240D02*
X181969Y-27333D01*
X181572Y-27598D01*
X181307Y-27995D01*
X181213Y-28463D01*
X181307Y-28931D01*
X181572Y-29328D01*
X181969Y-29593D01*
X182437Y-29686D01*
X182905Y-29593D01*
X183302Y-29328D01*
X183567Y-28931D01*
X183660Y-28463D01*
X183567Y-27995D01*
X183302Y-27598D01*
X182905Y-27333D01*
X182437Y-27240D01*
D02*
G37*
G36*
X174937Y-33140D02*
X174469Y-33233D01*
X174072Y-33498D01*
X173807Y-33895D01*
X173714Y-34363D01*
X173807Y-34831D01*
X174072Y-35228D01*
X174469Y-35493D01*
X174937Y-35587D01*
X175384Y-35498D01*
X175662Y-35913D01*
X175407Y-36295D01*
X175313Y-36763D01*
X175407Y-37231D01*
X175672Y-37628D01*
X176069Y-37893D01*
X176537Y-37986D01*
X177005Y-37893D01*
X177402Y-37628D01*
X177667Y-37231D01*
X177761Y-36763D01*
X177667Y-36295D01*
X177402Y-35898D01*
X177005Y-35633D01*
X176537Y-35539D01*
X176090Y-35628D01*
X175813Y-35213D01*
X176067Y-34831D01*
X176161Y-34363D01*
X176067Y-33895D01*
X175802Y-33498D01*
X175405Y-33233D01*
X174937Y-33140D01*
D02*
G37*
G36*
X187000Y-34591D02*
X186532Y-34685D01*
X186135Y-34950D01*
X185870Y-35347D01*
X185776Y-35815D01*
X185870Y-36283D01*
X186135Y-36680D01*
X186532Y-36945D01*
X187000Y-37038D01*
X187468Y-36945D01*
X187865Y-36680D01*
X188130Y-36283D01*
X188224Y-35815D01*
X188130Y-35347D01*
X187865Y-34950D01*
X187468Y-34685D01*
X187000Y-34591D01*
D02*
G37*
G36*
X184000Y-36091D02*
X183532Y-36185D01*
X183135Y-36450D01*
X182870Y-36847D01*
X182776Y-37315D01*
X182870Y-37783D01*
X183135Y-38180D01*
X183532Y-38445D01*
X184000Y-38539D01*
X184468Y-38445D01*
X184865Y-38180D01*
X185130Y-37783D01*
X185223Y-37315D01*
X185130Y-36847D01*
X184865Y-36450D01*
X184468Y-36185D01*
X184000Y-36091D01*
D02*
G37*
G36*
X183500Y-30591D02*
X183032Y-30685D01*
X182635Y-30950D01*
X182370Y-31347D01*
X182276Y-31815D01*
X182370Y-32283D01*
D01*
X182370Y-32283D01*
D01*
X182127Y-32653D01*
X181969Y-32685D01*
X181572Y-32950D01*
X181307Y-33347D01*
X181213Y-33815D01*
X181307Y-34283D01*
X181572Y-34680D01*
X181969Y-34945D01*
X182437Y-35039D01*
X182905Y-34945D01*
X183302Y-34680D01*
X183567Y-34283D01*
X183660Y-33815D01*
X183567Y-33347D01*
X183431Y-33142D01*
X183500Y-33038D01*
X183968Y-32945D01*
X184365Y-32680D01*
X184630Y-32283D01*
X184723Y-31815D01*
X184630Y-31347D01*
X184365Y-30950D01*
X183968Y-30685D01*
X183500Y-30591D01*
D02*
G37*
G36*
X181588Y-63090D02*
X181120Y-63183D01*
X180723Y-63449D01*
X180457Y-63846D01*
X180364Y-64314D01*
X180457Y-64782D01*
X180723Y-65179D01*
X181120Y-65444D01*
X181588Y-65537D01*
X182056Y-65444D01*
X182453Y-65179D01*
X182718Y-64782D01*
X182811Y-64314D01*
X182718Y-63846D01*
X182453Y-63449D01*
X182056Y-63183D01*
X181588Y-63090D01*
D02*
G37*
G36*
X183000Y-58684D02*
X182376Y-58808D01*
X181846Y-59161D01*
X181493Y-59691D01*
X181369Y-60315D01*
X181493Y-60939D01*
X181846Y-61468D01*
X182376Y-61822D01*
X183000Y-61946D01*
X183624Y-61822D01*
X184153Y-61468D01*
X184507Y-60939D01*
X184631Y-60315D01*
X184507Y-59691D01*
X184153Y-59161D01*
X183624Y-58808D01*
X183000Y-58684D01*
D02*
G37*
G36*
X188500Y-58591D02*
X188032Y-58685D01*
X187635Y-58950D01*
X187370Y-59347D01*
X187276Y-59815D01*
X187370Y-60283D01*
X187635Y-60680D01*
X188032Y-60945D01*
X188500Y-61039D01*
X188968Y-60945D01*
X189365Y-60680D01*
X189630Y-60283D01*
X189724Y-59815D01*
X189630Y-59347D01*
X189365Y-58950D01*
X188968Y-58685D01*
X188500Y-58591D01*
D02*
G37*
G36*
X175000Y-62591D02*
X174532Y-62685D01*
X174135Y-62950D01*
X173865D01*
X173468Y-62685D01*
X173000Y-62591D01*
X172532Y-62685D01*
X172135Y-62950D01*
X171870Y-63347D01*
X171776Y-63815D01*
X171870Y-64283D01*
X172135Y-64680D01*
X172532Y-64945D01*
X173000Y-65039D01*
X173468Y-64945D01*
X173865Y-64680D01*
X174135D01*
X174532Y-64945D01*
X175000Y-65039D01*
X175468Y-64945D01*
X175865Y-64680D01*
X176130Y-64283D01*
X176224Y-63815D01*
X176130Y-63347D01*
X175865Y-62950D01*
X175468Y-62685D01*
X175000Y-62591D01*
D02*
G37*
G36*
X155737Y-76907D02*
Y-77163D01*
X155993D01*
X155891Y-77009D01*
X155737Y-76907D01*
D02*
G37*
G36*
X159837Y-70638D02*
X159330Y-70738D01*
X158900Y-71026D01*
X158612Y-71456D01*
X158511Y-71963D01*
X158612Y-72470D01*
X158900Y-72900D01*
X159330Y-73188D01*
X159837Y-73289D01*
X160344Y-73188D01*
X160774Y-72900D01*
X161062Y-72470D01*
X161162Y-71963D01*
X161062Y-71456D01*
X160774Y-71026D01*
X160344Y-70738D01*
X159837Y-70638D01*
D02*
G37*
G36*
X163000Y-70091D02*
X162532Y-70185D01*
X162135Y-70450D01*
X161870Y-70847D01*
X161776Y-71315D01*
X161870Y-71783D01*
X162135Y-72180D01*
X162532Y-72445D01*
X163000Y-72539D01*
X163468Y-72445D01*
X163865Y-72180D01*
X164130Y-71783D01*
X164224Y-71315D01*
X164130Y-70847D01*
X163865Y-70450D01*
X163468Y-70185D01*
X163000Y-70091D01*
D02*
G37*
G36*
X183500Y-46091D02*
X183032Y-46185D01*
X182635Y-46450D01*
X182370Y-46847D01*
X182276Y-47315D01*
X182370Y-47783D01*
X182635Y-48180D01*
X183032Y-48445D01*
X183500Y-48539D01*
X183968Y-48445D01*
X184365Y-48180D01*
X184630Y-47783D01*
X184723Y-47315D01*
X184630Y-46847D01*
X184365Y-46450D01*
X183968Y-46185D01*
X183500Y-46091D01*
D02*
G37*
G36*
X171000Y-44940D02*
X170532Y-45033D01*
X170135Y-45298D01*
X169870Y-45695D01*
X169776Y-46163D01*
X169870Y-46631D01*
X170135Y-47028D01*
X170450Y-47239D01*
Y-47739D01*
X170135Y-47950D01*
X169870Y-48347D01*
X169776Y-48815D01*
X169870Y-49283D01*
X170135Y-49680D01*
X170532Y-49945D01*
X171000Y-50038D01*
X171468Y-49945D01*
X171468Y-49945D01*
X171507Y-50395D01*
X171507Y-50395D01*
X171507Y-50395D01*
X171414Y-50863D01*
X171507Y-51331D01*
X171772Y-51728D01*
X172169Y-51993D01*
X172637Y-52087D01*
X173105Y-51993D01*
X173502Y-51728D01*
X173767Y-51331D01*
X173861Y-50863D01*
X173767Y-50395D01*
X173502Y-49998D01*
X173105Y-49733D01*
X172637Y-49639D01*
X172537Y-49659D01*
X172137Y-49359D01*
X172130Y-49283D01*
X172130Y-49283D01*
X172130Y-49283D01*
X172223Y-48815D01*
X172130Y-48347D01*
X171865Y-47950D01*
X171550Y-47739D01*
Y-47239D01*
X171865Y-47028D01*
X172130Y-46631D01*
X172223Y-46163D01*
X172130Y-45695D01*
X171865Y-45298D01*
X171468Y-45033D01*
X171000Y-44940D01*
D02*
G37*
G36*
Y-37839D02*
X170532Y-37933D01*
X170135Y-38198D01*
X169870Y-38595D01*
X169776Y-39063D01*
X169870Y-39531D01*
X170135Y-39928D01*
X170532Y-40193D01*
X171000Y-40286D01*
X171468Y-40193D01*
X171800Y-39971D01*
X172216Y-40249D01*
X172213Y-40263D01*
X172307Y-40731D01*
X172572Y-41128D01*
X172969Y-41393D01*
X173092Y-41418D01*
X173507Y-41695D01*
X173414Y-42163D01*
X173507Y-42631D01*
X173772Y-43028D01*
X174169Y-43293D01*
X174169Y-43293D01*
X173972Y-43613D01*
X173972Y-43613D01*
X173972D01*
X173707Y-44010D01*
X173614Y-44478D01*
X173707Y-44946D01*
X173972Y-45343D01*
X174369Y-45608D01*
X174837Y-45702D01*
X175305Y-45608D01*
X175702Y-45343D01*
X175967Y-44946D01*
X176060Y-44478D01*
X175967Y-44010D01*
X175702Y-43613D01*
X175305Y-43348D01*
Y-43348D01*
X175305Y-43348D01*
X175305Y-43348D01*
X175305Y-43348D01*
X175305D01*
X175277Y-43178D01*
X175502Y-43028D01*
Y-43028D01*
X175502Y-43028D01*
X175502Y-43028D01*
X175767Y-42631D01*
X175861Y-42163D01*
X175767Y-41695D01*
X175502Y-41298D01*
X175105Y-41033D01*
X174637Y-40940D01*
X174533Y-40783D01*
X174567Y-40731D01*
X174661Y-40263D01*
X174567Y-39795D01*
X174302Y-39398D01*
X173905Y-39133D01*
X173437Y-39039D01*
X172969Y-39133D01*
X172636Y-39355D01*
X172221Y-39077D01*
X172223Y-39063D01*
X172130Y-38595D01*
X171865Y-38198D01*
X171468Y-37933D01*
X171000Y-37839D01*
D02*
G37*
G36*
X182500Y-40591D02*
X182032Y-40685D01*
X181635Y-40950D01*
X181370Y-41347D01*
X181277Y-41815D01*
X181370Y-42283D01*
X181635Y-42680D01*
X182032Y-42945D01*
X182052Y-42949D01*
X182150Y-43440D01*
X182135Y-43450D01*
X181870Y-43847D01*
X181776Y-44315D01*
X181870Y-44783D01*
X182135Y-45180D01*
X182532Y-45445D01*
X183000Y-45538D01*
X183468Y-45445D01*
X183865Y-45180D01*
X184130Y-44783D01*
X184223Y-44315D01*
X184130Y-43847D01*
X183865Y-43450D01*
X183468Y-43185D01*
X183448Y-43181D01*
X183350Y-42690D01*
X183365Y-42680D01*
X183630Y-42283D01*
X183723Y-41815D01*
X183630Y-41347D01*
X183365Y-40950D01*
X182968Y-40685D01*
X182500Y-40591D01*
D02*
G37*
G36*
X183037Y-53240D02*
X182569Y-53333D01*
X182172Y-53598D01*
X181907Y-53995D01*
X181814Y-54463D01*
X181907Y-54931D01*
X182172Y-55328D01*
X182569Y-55593D01*
X183037Y-55686D01*
X183505Y-55593D01*
X183902Y-55328D01*
X184167Y-54931D01*
X184260Y-54463D01*
X184167Y-53995D01*
X183902Y-53598D01*
X183505Y-53333D01*
X183037Y-53240D01*
D02*
G37*
G36*
X278000Y-139198D02*
X277630Y-139445D01*
X277383Y-139815D01*
X278000D01*
Y-139198D01*
D02*
G37*
G36*
X280000D02*
Y-139815D01*
X280617D01*
X280370Y-139445D01*
X280000Y-139198D01*
D02*
G37*
G36*
X325425Y-143017D02*
X324957Y-143110D01*
X324560Y-143375D01*
X324295Y-143772D01*
X324202Y-144240D01*
X324295Y-144708D01*
X324560Y-145105D01*
X324957Y-145370D01*
X325425Y-145464D01*
X325893Y-145370D01*
X326290Y-145105D01*
X326556Y-144708D01*
X326649Y-144240D01*
X326556Y-143772D01*
X326290Y-143375D01*
X325893Y-143110D01*
X325425Y-143017D01*
D02*
G37*
G36*
X318574Y-144972D02*
X317957D01*
Y-145589D01*
X318326Y-145342D01*
X318574Y-144972D01*
D02*
G37*
G36*
X299126Y-141561D02*
X298586Y-141668D01*
X298128Y-141974D01*
X297822Y-142432D01*
X297715Y-142972D01*
X297822Y-143513D01*
X298128Y-143970D01*
X298586Y-144276D01*
X299126Y-144384D01*
X299666Y-144276D01*
X300124Y-143970D01*
X300430Y-143513D01*
X300537Y-142972D01*
X300430Y-142432D01*
X300124Y-141974D01*
X299666Y-141668D01*
X299126Y-141561D01*
D02*
G37*
G36*
X290748Y-142843D02*
X290280Y-142937D01*
X289883Y-143202D01*
X289618Y-143599D01*
X289525Y-144067D01*
X289618Y-144535D01*
X289883Y-144932D01*
X290280Y-145197D01*
X290748Y-145290D01*
X291216Y-145197D01*
X291613Y-144932D01*
X291878Y-144535D01*
X291971Y-144067D01*
X291878Y-143599D01*
X291613Y-143202D01*
X291216Y-142937D01*
X290748Y-142843D01*
D02*
G37*
G36*
X307787Y-145892D02*
X307247Y-145999D01*
X306789Y-146305D01*
X306484Y-146763D01*
X306376Y-147303D01*
X306484Y-147843D01*
X306789Y-148301D01*
X307247Y-148607D01*
X307787Y-148714D01*
X308328Y-148607D01*
X308785Y-148301D01*
X309091Y-147843D01*
X309199Y-147303D01*
X309091Y-146763D01*
X308785Y-146305D01*
X308328Y-145999D01*
X307787Y-145892D01*
D02*
G37*
G36*
X303457D02*
X302917Y-145999D01*
X302459Y-146305D01*
X302153Y-146763D01*
X302045Y-147303D01*
X302153Y-147843D01*
X302459Y-148301D01*
X302917Y-148607D01*
X303457Y-148714D01*
X303997Y-148607D01*
X304455Y-148301D01*
X304761Y-147843D01*
X304868Y-147303D01*
X304761Y-146763D01*
X304455Y-146305D01*
X303997Y-145999D01*
X303457Y-145892D01*
D02*
G37*
G36*
Y-141561D02*
X302917Y-141668D01*
X302459Y-141974D01*
X302153Y-142432D01*
X302045Y-142972D01*
X302153Y-143513D01*
X302459Y-143970D01*
X302917Y-144276D01*
X303457Y-144384D01*
X303997Y-144276D01*
X304455Y-143970D01*
X304761Y-143513D01*
X304868Y-142972D01*
X304761Y-142432D01*
X304455Y-141974D01*
X303997Y-141668D01*
X303457Y-141561D01*
D02*
G37*
G36*
X280917Y-140714D02*
X280937Y-140815D01*
X280790Y-141556D01*
X280617Y-141815D01*
X280000D01*
Y-142432D01*
X279741Y-142605D01*
X279000Y-142752D01*
X278899Y-142732D01*
X279029Y-142863D01*
Y-153472D01*
X279029Y-153472D01*
X279138Y-154019D01*
X279447Y-154482D01*
X283947Y-158982D01*
X283947Y-158982D01*
X284410Y-159291D01*
X284410Y-159291D01*
X284410Y-159291D01*
D01*
X284411Y-159291D01*
X284411Y-159291D01*
X284957Y-159400D01*
X284957Y-159400D01*
X291133D01*
X291146Y-159405D01*
X291959Y-159405D01*
X292000Y-159432D01*
Y-158972D01*
X291146Y-158972D01*
X290859Y-156972D01*
X291825Y-156883D01*
X292000Y-157055D01*
Y-156198D01*
X291630Y-156445D01*
X291587Y-156510D01*
X291582Y-156510D01*
X291416Y-156526D01*
X291021Y-156539D01*
X290857Y-156539D01*
X290844Y-156545D01*
X290802D01*
X290797Y-156544D01*
X290796Y-156545D01*
X285548D01*
X281884Y-152881D01*
Y-142272D01*
X281775Y-141725D01*
X281466Y-141262D01*
X281466Y-141262D01*
X280917Y-140714D01*
D02*
G37*
G36*
X317957Y-142356D02*
Y-142972D01*
X318574D01*
X318326Y-142603D01*
X317957Y-142356D01*
D02*
G37*
G36*
X278000Y-141815D02*
X277383D01*
X277630Y-142185D01*
X278000Y-142432D01*
Y-141815D01*
D02*
G37*
G36*
X315957Y-142356D02*
X315746Y-142496D01*
X314916Y-142540D01*
X314906Y-142545D01*
X312957D01*
X312957Y-142545D01*
X312410Y-142654D01*
X311947Y-142963D01*
X310447Y-144463D01*
X310138Y-144926D01*
X310029Y-145472D01*
X310029Y-145473D01*
Y-154381D01*
X309855Y-154555D01*
X309957Y-154535D01*
X310698Y-154683D01*
X310957Y-154855D01*
Y-155472D01*
X311574D01*
X311747Y-155731D01*
X311894Y-156472D01*
X311874Y-156574D01*
X312466Y-155982D01*
X312466Y-155982D01*
X312651Y-155704D01*
X312775Y-155519D01*
X312884Y-154972D01*
Y-146064D01*
X313548Y-145400D01*
X314924D01*
X314937Y-145405D01*
X315104Y-145406D01*
X315602Y-145417D01*
X315712Y-145426D01*
X315957Y-145589D01*
Y-143973D01*
Y-142356D01*
D02*
G37*
G36*
X307787Y-141561D02*
X307247Y-141668D01*
X306789Y-141974D01*
X306484Y-142432D01*
X306376Y-142972D01*
X306484Y-143513D01*
X306789Y-143970D01*
X307247Y-144276D01*
X307787Y-144384D01*
X308328Y-144276D01*
X308785Y-143970D01*
X309091Y-143513D01*
X309199Y-142972D01*
X309091Y-142432D01*
X308785Y-141974D01*
X308328Y-141668D01*
X307787Y-141561D01*
D02*
G37*
G36*
X323500Y-169613D02*
X322915Y-169729D01*
X322419Y-170061D01*
X322087Y-170557D01*
X321971Y-171142D01*
X322087Y-171727D01*
X322419Y-172223D01*
X322915Y-172555D01*
X323500Y-172671D01*
X324085Y-172555D01*
X324581Y-172223D01*
X324913Y-171727D01*
X325029Y-171142D01*
X324913Y-170557D01*
X324581Y-170061D01*
X324085Y-169729D01*
X323500Y-169613D01*
D02*
G37*
G36*
X278000Y-170091D02*
X277532Y-170185D01*
X277135Y-170450D01*
X276870Y-170847D01*
X276777Y-171315D01*
X276870Y-171783D01*
X277135Y-172180D01*
X277532Y-172445D01*
X278000Y-172538D01*
X278468Y-172445D01*
X278865Y-172180D01*
X279130Y-171783D01*
X279223Y-171315D01*
X279130Y-170847D01*
X278865Y-170450D01*
X278468Y-170185D01*
X278000Y-170091D01*
D02*
G37*
G36*
X284500Y-167592D02*
X284032Y-167685D01*
X283635Y-167950D01*
X283370Y-168347D01*
X283277Y-168815D01*
X283370Y-169283D01*
X283635Y-169680D01*
X284032Y-169945D01*
X284500Y-170038D01*
X284968Y-169945D01*
X285365Y-169680D01*
X285630Y-169283D01*
X285723Y-168815D01*
X285630Y-168347D01*
X285365Y-167950D01*
X284968Y-167685D01*
X284500Y-167592D01*
D02*
G37*
G36*
X323500Y-165786D02*
X322915Y-165902D01*
X322419Y-166234D01*
X322087Y-166730D01*
X321971Y-167315D01*
X322087Y-167900D01*
X322419Y-168396D01*
X322915Y-168728D01*
X323500Y-168844D01*
X324085Y-168728D01*
X324581Y-168396D01*
X324913Y-167900D01*
X325029Y-167315D01*
X324913Y-166730D01*
X324581Y-166234D01*
X324085Y-165902D01*
X323500Y-165786D01*
D02*
G37*
G36*
Y-173440D02*
X322915Y-173556D01*
X322419Y-173887D01*
X322087Y-174384D01*
X321971Y-174969D01*
X322087Y-175554D01*
X322419Y-176050D01*
X322915Y-176382D01*
X323500Y-176498D01*
X324085Y-176382D01*
X324581Y-176050D01*
X324913Y-175554D01*
X325029Y-174969D01*
X324913Y-174384D01*
X324581Y-173887D01*
X324085Y-173556D01*
X323500Y-173440D01*
D02*
G37*
G36*
X316457Y-173548D02*
X315988Y-173641D01*
X315592Y-173907D01*
X315326Y-174303D01*
X315233Y-174772D01*
X315326Y-175240D01*
X315592Y-175637D01*
X315988Y-175902D01*
X316457Y-175995D01*
X316925Y-175902D01*
X317322Y-175637D01*
X317587Y-175240D01*
X317680Y-174772D01*
X317587Y-174303D01*
X317322Y-173907D01*
X316925Y-173641D01*
X316457Y-173548D01*
D02*
G37*
G36*
X296500Y-174091D02*
X296032Y-174185D01*
X295635Y-174450D01*
X295370Y-174847D01*
X295276Y-175315D01*
X295370Y-175783D01*
X295635Y-176180D01*
X296032Y-176445D01*
X296500Y-176539D01*
X296968Y-176445D01*
X297365Y-176180D01*
X297630Y-175783D01*
X297724Y-175315D01*
X297630Y-174847D01*
X297365Y-174450D01*
X296968Y-174185D01*
X296500Y-174091D01*
D02*
G37*
G36*
X306500Y-174592D02*
X306032Y-174685D01*
X305635Y-174950D01*
X305370Y-175347D01*
X305276Y-175815D01*
X305370Y-176283D01*
X305635Y-176680D01*
X306032Y-176945D01*
X306500Y-177039D01*
X306968Y-176945D01*
X307365Y-176680D01*
X307630Y-176283D01*
X307723Y-175815D01*
X307630Y-175347D01*
X307365Y-174950D01*
X306968Y-174685D01*
X306500Y-174592D01*
D02*
G37*
G36*
X321425Y-162517D02*
X320957Y-162610D01*
X320560Y-162875D01*
X320295Y-163272D01*
X320202Y-163740D01*
X320295Y-164208D01*
X320560Y-164605D01*
X320957Y-164871D01*
X321425Y-164964D01*
X321893Y-164871D01*
X322290Y-164605D01*
X322556Y-164208D01*
X322649Y-163740D01*
X322556Y-163272D01*
X322290Y-162875D01*
X321893Y-162610D01*
X321425Y-162517D01*
D02*
G37*
G36*
X293299Y-153592D02*
X292831Y-153685D01*
X292434Y-153950D01*
X292169Y-154347D01*
X292076Y-154815D01*
X292169Y-155283D01*
X292343Y-155544D01*
X292245Y-156034D01*
X292259Y-156025D01*
X292791Y-155919D01*
X292831Y-155946D01*
X293299Y-156039D01*
X293555Y-155988D01*
X293741Y-156025D01*
X293741Y-156025D01*
X294164Y-155680D01*
D01*
D01*
X294164Y-155680D01*
X294164Y-155680D01*
X294164Y-155680D01*
X294164Y-155680D01*
D01*
X294430Y-155283D01*
X294523Y-154815D01*
X294430Y-154347D01*
X294164Y-153950D01*
X293767Y-153685D01*
X293299Y-153592D01*
D02*
G37*
G36*
X278000Y-155591D02*
X277532Y-155685D01*
X277135Y-155950D01*
X276870Y-156347D01*
X276777Y-156815D01*
X276870Y-157283D01*
X277135Y-157680D01*
X277532Y-157945D01*
X278000Y-158038D01*
X278468Y-157945D01*
X278865Y-157680D01*
X279130Y-157283D01*
X279223Y-156815D01*
X279130Y-156347D01*
X278865Y-155950D01*
X278468Y-155685D01*
X278000Y-155591D01*
D02*
G37*
G36*
X294000Y-156198D02*
Y-157055D01*
X294176Y-156883D01*
X295141Y-156972D01*
X294854Y-158972D01*
X294000Y-158972D01*
Y-159432D01*
X294041Y-159405D01*
X294854Y-159405D01*
X294867Y-159400D01*
X308457D01*
X308457Y-159400D01*
X309003Y-159291D01*
X309466Y-158982D01*
X310058Y-158390D01*
X309957Y-158410D01*
X309215Y-158262D01*
X308957Y-158090D01*
Y-157472D01*
X308340D01*
X308167Y-157214D01*
X308019Y-156472D01*
X308039Y-156371D01*
X307865Y-156545D01*
X295204D01*
X295202Y-156544D01*
X295198Y-156545D01*
X295156D01*
X295143Y-156539D01*
X294978Y-156539D01*
X294584Y-156526D01*
X294418Y-156510D01*
X294413Y-156510D01*
X294370Y-156445D01*
X294000Y-156198D01*
D02*
G37*
G36*
X311574Y-157472D02*
X310957D01*
Y-158089D01*
X311327Y-157842D01*
X311574Y-157472D01*
D02*
G37*
G36*
X308957Y-154856D02*
X308587Y-155103D01*
X308340Y-155472D01*
X308957D01*
Y-154856D01*
D02*
G37*
G36*
X325311Y-147780D02*
X324843Y-147874D01*
X324446Y-148139D01*
X324181Y-148536D01*
X324088Y-149004D01*
X324181Y-149472D01*
X324446Y-149869D01*
X324843Y-150134D01*
X325311Y-150227D01*
X325779Y-150134D01*
X326176Y-149869D01*
X326441Y-149472D01*
X326535Y-149004D01*
X326441Y-148536D01*
X326176Y-148139D01*
X325779Y-147874D01*
X325311Y-147780D01*
D02*
G37*
G36*
X299126Y-145892D02*
X298586Y-145999D01*
X298128Y-146305D01*
X297822Y-146763D01*
X297715Y-147303D01*
X297822Y-147843D01*
X298128Y-148301D01*
X298586Y-148607D01*
X299126Y-148714D01*
X299666Y-148607D01*
X300124Y-148301D01*
X300430Y-147843D01*
X300537Y-147303D01*
X300430Y-146763D01*
X300124Y-146305D01*
X299666Y-145999D01*
X299126Y-145892D01*
D02*
G37*
G36*
X284000Y-149592D02*
X283532Y-149685D01*
X283135Y-149950D01*
X282870Y-150347D01*
X282776Y-150815D01*
X282870Y-151283D01*
X283135Y-151680D01*
X283532Y-151945D01*
X284000Y-152039D01*
X284468Y-151945D01*
X284865Y-151680D01*
X285130Y-151283D01*
X285224Y-150815D01*
X285130Y-150347D01*
X284865Y-149950D01*
X284468Y-149685D01*
X284000Y-149592D01*
D02*
G37*
G36*
X315000Y-162092D02*
X314532Y-162185D01*
X314135Y-162450D01*
X313870Y-162847D01*
X313776Y-163315D01*
X313870Y-163783D01*
X314135Y-164180D01*
X314532Y-164445D01*
X315000Y-164539D01*
X315468Y-164445D01*
X315865Y-164180D01*
X316130Y-163783D01*
X316224Y-163315D01*
X316130Y-162847D01*
X315865Y-162450D01*
X315468Y-162185D01*
X315000Y-162092D01*
D02*
G37*
%LPD*%
G36*
X315885Y-145022D02*
X314939Y-144972D01*
Y-142972D01*
X315885Y-142922D01*
Y-145022D01*
D02*
G37*
%LPC*%
G36*
X59294Y-166263D02*
X57079D01*
Y-168478D01*
X57770Y-168192D01*
X58471Y-167654D01*
X59008Y-166954D01*
X59294Y-166263D01*
D02*
G37*
G36*
X100937Y-162339D02*
X100469Y-162433D01*
X100072Y-162698D01*
X99807Y-163095D01*
X99713Y-163563D01*
X99807Y-164031D01*
X100072Y-164428D01*
X100469Y-164693D01*
X100937Y-164787D01*
X101405Y-164693D01*
X101802Y-164428D01*
X102067Y-164031D01*
X102161Y-163563D01*
X102067Y-163095D01*
X101802Y-162698D01*
X101405Y-162433D01*
X100937Y-162339D01*
D02*
G37*
G36*
X326117Y-27315D02*
X325500D01*
Y-27932D01*
X325870Y-27685D01*
X326117Y-27315D01*
D02*
G37*
G36*
X323500D02*
X322883D01*
X323130Y-27685D01*
X323500Y-27932D01*
Y-27315D01*
D02*
G37*
G36*
X325500Y-24698D02*
Y-25315D01*
X326117D01*
X325870Y-24945D01*
X325500Y-24698D01*
D02*
G37*
G36*
X323500D02*
X323130Y-24945D01*
X322883Y-25315D01*
X323500D01*
Y-24698D01*
D02*
G37*
G36*
X313000Y-17091D02*
X312532Y-17185D01*
X312135Y-17450D01*
X311870Y-17847D01*
X311776Y-18315D01*
X311870Y-18783D01*
X312040Y-19038D01*
X311686Y-19392D01*
X311653Y-19370D01*
X311185Y-19276D01*
X310717Y-19370D01*
X310320Y-19635D01*
X310055Y-20032D01*
X309962Y-20500D01*
X310055Y-20968D01*
X310320Y-21365D01*
X310717Y-21630D01*
X311185Y-21723D01*
X311653Y-21630D01*
X312050Y-21365D01*
X312315Y-20968D01*
X312409Y-20500D01*
X312315Y-20032D01*
X312145Y-19777D01*
X312498Y-19423D01*
X312532Y-19445D01*
X313000Y-19538D01*
X313468Y-19445D01*
X313865Y-19180D01*
X314130Y-18783D01*
X314224Y-18315D01*
X314130Y-17847D01*
X313865Y-17450D01*
X313468Y-17185D01*
X313000Y-17091D01*
D02*
G37*
G36*
X308000Y-40091D02*
X307532Y-40185D01*
X307135Y-40450D01*
X306870Y-40847D01*
X306776Y-41315D01*
X306870Y-41783D01*
X307135Y-42180D01*
X307532Y-42445D01*
X308000Y-42538D01*
X308468Y-42445D01*
X308865Y-42180D01*
X309130Y-41783D01*
X309224Y-41315D01*
X309130Y-40847D01*
X308865Y-40450D01*
X308468Y-40185D01*
X308000Y-40091D01*
D02*
G37*
G36*
X311185Y-29591D02*
X310717Y-29685D01*
X310320Y-29950D01*
X310055Y-30347D01*
X309962Y-30815D01*
X310055Y-31283D01*
X310320Y-31680D01*
X310717Y-31945D01*
X311185Y-32039D01*
X311653Y-31945D01*
X312050Y-31680D01*
X312315Y-31283D01*
X312409Y-30815D01*
X312315Y-30347D01*
X312050Y-29950D01*
X311653Y-29685D01*
X311185Y-29591D01*
D02*
G37*
G36*
X308937Y-33340D02*
X308469Y-33433D01*
X308072Y-33698D01*
X307807Y-34095D01*
X307714Y-34563D01*
X307807Y-35031D01*
X308072Y-35428D01*
X308469Y-35693D01*
X308937Y-35787D01*
X309405Y-35693D01*
X309802Y-35428D01*
X310067Y-35031D01*
X310160Y-34563D01*
X310067Y-34095D01*
X309802Y-33698D01*
X309405Y-33433D01*
X308937Y-33340D01*
D02*
G37*
G36*
X313000Y-33591D02*
X312532Y-33685D01*
X312135Y-33950D01*
X311870Y-34347D01*
X311776Y-34815D01*
X311870Y-35283D01*
X312135Y-35680D01*
X312532Y-35945D01*
X313000Y-36039D01*
X313468Y-35945D01*
X313865Y-35680D01*
X314130Y-35283D01*
X314224Y-34815D01*
X314130Y-34347D01*
X313865Y-33950D01*
X313468Y-33685D01*
X313000Y-33591D01*
D02*
G37*
G36*
X342500Y-32592D02*
X342032Y-32685D01*
X341635Y-32950D01*
X341370Y-33347D01*
X341277Y-33815D01*
X341370Y-34283D01*
X341635Y-34680D01*
X342032Y-34945D01*
X342500Y-35039D01*
X342968Y-34945D01*
X343365Y-34680D01*
X343630Y-34283D01*
X343724Y-33815D01*
X343630Y-33347D01*
X343365Y-32950D01*
X342968Y-32685D01*
X342500Y-32592D01*
D02*
G37*
G36*
X327031Y-8167D02*
X326662Y-8414D01*
X326415Y-8783D01*
X327031D01*
Y-8167D01*
D02*
G37*
G36*
X329031D02*
Y-8783D01*
X329648D01*
X329401Y-8414D01*
X329031Y-8167D01*
D02*
G37*
G36*
X324500Y-1592D02*
X324032Y-1685D01*
X323635Y-1950D01*
X323370Y-2347D01*
X323276Y-2815D01*
X323370Y-3283D01*
X323635Y-3680D01*
X324032Y-3945D01*
X324500Y-4039D01*
X324968Y-3945D01*
X325365Y-3680D01*
X325630Y-3283D01*
X325724Y-2815D01*
X325630Y-2347D01*
X325365Y-1950D01*
X324968Y-1685D01*
X324500Y-1592D01*
D02*
G37*
G36*
X335000Y-7592D02*
X334532Y-7685D01*
X334135Y-7950D01*
X333870Y-8347D01*
X333776Y-8815D01*
X333870Y-9283D01*
X334135Y-9680D01*
X334532Y-9945D01*
X335000Y-10039D01*
X335468Y-9945D01*
X335865Y-9680D01*
X336130Y-9283D01*
X336224Y-8815D01*
X336130Y-8347D01*
X335865Y-7950D01*
X335468Y-7685D01*
X335000Y-7592D01*
D02*
G37*
G36*
X327031Y-10784D02*
X326415D01*
X326662Y-11153D01*
X327031Y-11400D01*
Y-10784D01*
D02*
G37*
G36*
X329648D02*
X329031D01*
Y-11400D01*
X329401Y-11153D01*
X329648Y-10784D01*
D02*
G37*
G36*
X340000Y-62753D02*
Y-63815D01*
X341062D01*
X340637Y-63178D01*
X340000Y-62753D01*
D02*
G37*
G36*
X338000D02*
X337363Y-63178D01*
X336938Y-63815D01*
X338000D01*
Y-62753D01*
D02*
G37*
G36*
X340500Y-47091D02*
X340032Y-47185D01*
X339635Y-47450D01*
X339370Y-47847D01*
X339277Y-48315D01*
X339370Y-48783D01*
X339635Y-49180D01*
X340032Y-49445D01*
X340500Y-49538D01*
X340968Y-49445D01*
X341365Y-49180D01*
X341630Y-48783D01*
X341723Y-48315D01*
X341630Y-47847D01*
X341365Y-47450D01*
X340968Y-47185D01*
X340500Y-47091D01*
D02*
G37*
G36*
X333500Y-34500D02*
X332614Y-34677D01*
X331863Y-35178D01*
X331362Y-35929D01*
X331185Y-36815D01*
X331362Y-37701D01*
X331863Y-38452D01*
X332614Y-38953D01*
X333175Y-39065D01*
Y-39565D01*
X332614Y-39677D01*
X331863Y-40178D01*
X331362Y-40929D01*
X331185Y-41815D01*
X331362Y-42701D01*
X331863Y-43452D01*
X332614Y-43953D01*
X333500Y-44129D01*
X334386Y-43953D01*
X335137Y-43452D01*
X335638Y-42701D01*
X335815Y-41815D01*
X335638Y-40929D01*
X335137Y-40178D01*
X334386Y-39677D01*
X333824Y-39565D01*
Y-39065D01*
X334386Y-38953D01*
X335137Y-38452D01*
X335638Y-37701D01*
X335815Y-36815D01*
X335638Y-35929D01*
X335137Y-35178D01*
X334386Y-34677D01*
X333500Y-34500D01*
D02*
G37*
G36*
X302457Y-56356D02*
X302087Y-56603D01*
X301840Y-56972D01*
X302457D01*
Y-56356D01*
D02*
G37*
G36*
X304457D02*
Y-56972D01*
X305074D01*
X304826Y-56603D01*
X304457Y-56356D01*
D02*
G37*
G36*
X302457Y-58972D02*
X301840D01*
X302087Y-59342D01*
X302457Y-59589D01*
Y-58972D01*
D02*
G37*
G36*
X305074D02*
X304457D01*
Y-59589D01*
X304826Y-59342D01*
X305074Y-58972D01*
D02*
G37*
G36*
X297957Y-56135D02*
X297488Y-56228D01*
X297092Y-56493D01*
X296826Y-56890D01*
X296733Y-57358D01*
X296826Y-57827D01*
X297092Y-58223D01*
X297488Y-58489D01*
X297957Y-58582D01*
X298425Y-58489D01*
X298822Y-58223D01*
X299087Y-57827D01*
X299180Y-57358D01*
X299087Y-56890D01*
X298822Y-56493D01*
X298425Y-56228D01*
X297957Y-56135D01*
D02*
G37*
G36*
X295000Y-53591D02*
X294532Y-53685D01*
X294135Y-53950D01*
X293870Y-54347D01*
X293776Y-54815D01*
X293870Y-55283D01*
X294135Y-55680D01*
X294532Y-55945D01*
X295000Y-56038D01*
X295468Y-55945D01*
X295865Y-55680D01*
X296130Y-55283D01*
X296223Y-54815D01*
X296130Y-54347D01*
X295865Y-53950D01*
X295468Y-53685D01*
X295000Y-53591D01*
D02*
G37*
G36*
X216000Y-88591D02*
X215532Y-88685D01*
X215135Y-88950D01*
X214870Y-89347D01*
X214776Y-89815D01*
X214870Y-90283D01*
X215135Y-90680D01*
X215532Y-90945D01*
X216000Y-91039D01*
X216468Y-90945D01*
X216865Y-90680D01*
X217130Y-90283D01*
X217224Y-89815D01*
X217130Y-89347D01*
X216865Y-88950D01*
X216468Y-88685D01*
X216000Y-88591D01*
D02*
G37*
G36*
X213500Y-94091D02*
X213032Y-94185D01*
X212635Y-94450D01*
X212370Y-94847D01*
X212277Y-95315D01*
X212370Y-95783D01*
X212635Y-96180D01*
X213032Y-96445D01*
X213500Y-96539D01*
X213968Y-96445D01*
X214365Y-96180D01*
X214630Y-95783D01*
X214723Y-95315D01*
X214630Y-94847D01*
X214365Y-94450D01*
X213968Y-94185D01*
X213500Y-94091D01*
D02*
G37*
G36*
X213000Y-101060D02*
X212532Y-101153D01*
X212135Y-101418D01*
X211870Y-101815D01*
X211776Y-102284D01*
X211870Y-102752D01*
X212135Y-103149D01*
X212532Y-103414D01*
X213000Y-103507D01*
X213468Y-103414D01*
X213865Y-103149D01*
X214130Y-102752D01*
X214224Y-102284D01*
X214130Y-101815D01*
X213865Y-101418D01*
X213468Y-101153D01*
X213000Y-101060D01*
D02*
G37*
G36*
X229500Y-101591D02*
X229032Y-101685D01*
X228635Y-101950D01*
X228370Y-102347D01*
X228276Y-102815D01*
X228370Y-103283D01*
X228635Y-103680D01*
X229032Y-103945D01*
X229500Y-104039D01*
X229968Y-103945D01*
X230365Y-103680D01*
X230630Y-103283D01*
X230724Y-102815D01*
X230630Y-102347D01*
X230365Y-101950D01*
X229968Y-101685D01*
X229500Y-101591D01*
D02*
G37*
G36*
X228213Y-28091D02*
X227744Y-28185D01*
X227347Y-28450D01*
X227082Y-28847D01*
X226989Y-29315D01*
X227082Y-29783D01*
X227347Y-30180D01*
X227744Y-30445D01*
X228213Y-30538D01*
X228681Y-30445D01*
X229078Y-30180D01*
X229343Y-29783D01*
X229436Y-29315D01*
X229343Y-28847D01*
X229078Y-28450D01*
X228681Y-28185D01*
X228213Y-28091D01*
D02*
G37*
G36*
X238500Y-26591D02*
X238032Y-26685D01*
X237635Y-26950D01*
X237370Y-27347D01*
X237277Y-27815D01*
X237370Y-28283D01*
X237635Y-28680D01*
X238032Y-28945D01*
X238500Y-29039D01*
X238968Y-28945D01*
X239365Y-28680D01*
X239630Y-28283D01*
X239723Y-27815D01*
X239630Y-27347D01*
X239365Y-26950D01*
X238968Y-26685D01*
X238500Y-26591D01*
D02*
G37*
G36*
X267000Y-13591D02*
X266532Y-13685D01*
X266135Y-13950D01*
X265870Y-14347D01*
X265776Y-14815D01*
X265870Y-15283D01*
X266135Y-15680D01*
X266532Y-15945D01*
X267000Y-16038D01*
X267468Y-15945D01*
X267865Y-15680D01*
X268130Y-15283D01*
X268224Y-14815D01*
X268130Y-14347D01*
X267865Y-13950D01*
X267468Y-13685D01*
X267000Y-13591D01*
D02*
G37*
G36*
X239000Y-21591D02*
X238532Y-21685D01*
X238135Y-21950D01*
X237870Y-22347D01*
X237776Y-22815D01*
X237870Y-23283D01*
X238135Y-23680D01*
X238532Y-23945D01*
X239000Y-24038D01*
X239468Y-23945D01*
X239865Y-23680D01*
X240130Y-23283D01*
X240224Y-22815D01*
X240130Y-22347D01*
X239865Y-21950D01*
X239468Y-21685D01*
X239000Y-21591D01*
D02*
G37*
G36*
X239046Y-34160D02*
X238461Y-34276D01*
X237964Y-34607D01*
X237633Y-35104D01*
X237516Y-35689D01*
X237633Y-36274D01*
X237964Y-36770D01*
X238461Y-37102D01*
X239046Y-37218D01*
X239631Y-37102D01*
X240127Y-36770D01*
X240459Y-36274D01*
X240575Y-35689D01*
X240459Y-35104D01*
X240127Y-34607D01*
X239631Y-34276D01*
X239046Y-34160D01*
D02*
G37*
G36*
X254500Y-25384D02*
X253245Y-25508D01*
X252039Y-25874D01*
X250927Y-26468D01*
X249953Y-27268D01*
X249153Y-28242D01*
X248559Y-29354D01*
X248193Y-30560D01*
X248069Y-31815D01*
X248193Y-33070D01*
X248559Y-34276D01*
X249153Y-35388D01*
X249953Y-36362D01*
X250927Y-37162D01*
X252039Y-37756D01*
X253245Y-38122D01*
X254500Y-38246D01*
X255755Y-38122D01*
X256961Y-37756D01*
X258073Y-37162D01*
X259047Y-36362D01*
X259847Y-35388D01*
X260441Y-34276D01*
X260807Y-33070D01*
X260931Y-31815D01*
X260807Y-30560D01*
X260441Y-29354D01*
X259847Y-28242D01*
X259047Y-27268D01*
X258073Y-26468D01*
X256961Y-25874D01*
X255755Y-25508D01*
X254500Y-25384D01*
D02*
G37*
G36*
X239000Y-29591D02*
X238532Y-29685D01*
X238135Y-29950D01*
X237870Y-30347D01*
X237776Y-30815D01*
X237870Y-31283D01*
X237649Y-31387D01*
X237649D01*
X237252Y-31652D01*
X236987Y-32049D01*
X236894Y-32517D01*
X236987Y-32986D01*
X237252Y-33382D01*
X237649Y-33648D01*
X238117Y-33741D01*
X238585Y-33648D01*
X238982Y-33382D01*
X238991Y-33369D01*
X239195Y-33505D01*
X239663Y-33598D01*
X240131Y-33505D01*
X240528Y-33239D01*
X240794Y-32843D01*
X240887Y-32374D01*
X240794Y-31906D01*
X240528Y-31509D01*
X240137Y-31248D01*
X240224Y-30815D01*
X240130Y-30347D01*
X239865Y-29950D01*
X239468Y-29685D01*
X239000Y-29591D01*
D02*
G37*
G36*
X232617Y-13815D02*
X232000D01*
Y-14432D01*
X232370Y-14185D01*
X232617Y-13815D01*
D02*
G37*
G36*
X230000D02*
X229383D01*
X229630Y-14185D01*
X230000Y-14432D01*
Y-13815D01*
D02*
G37*
G36*
Y-11198D02*
X229630Y-11445D01*
X229383Y-11815D01*
X230000D01*
Y-11198D01*
D02*
G37*
G36*
X262837Y-11815D02*
Y-12315D01*
X263032Y-12184D01*
X263500Y-12091D01*
X263968Y-12184D01*
X264163Y-12315D01*
Y-11815D01*
X263968Y-11946D01*
X263500Y-12039D01*
X263032Y-11946D01*
X262837Y-11815D01*
D02*
G37*
G36*
X223000Y-10878D02*
X222259Y-11025D01*
X221630Y-11445D01*
X221210Y-12074D01*
X221063Y-12815D01*
X221210Y-13556D01*
X221630Y-14185D01*
X222259Y-14605D01*
X223000Y-14752D01*
X223741Y-14605D01*
X224370Y-14185D01*
X224790Y-13556D01*
X224937Y-12815D01*
X224790Y-12074D01*
X224370Y-11445D01*
X223741Y-11025D01*
X223000Y-10878D01*
D02*
G37*
G36*
X254000Y-14592D02*
X253532Y-14685D01*
X253135Y-14950D01*
X252865D01*
X252468Y-14685D01*
X252000Y-14592D01*
X251532Y-14685D01*
X251135Y-14950D01*
X250870Y-15347D01*
X250772Y-15387D01*
X250851Y-15440D01*
X250776Y-15815D01*
X250869Y-16283D01*
X251135Y-16680D01*
X251149Y-16690D01*
X251131Y-16783D01*
X251228Y-16743D01*
X251532Y-16945D01*
X252000Y-17039D01*
X252468Y-16945D01*
X252865Y-16680D01*
X253135D01*
X253532Y-16945D01*
X254000Y-17039D01*
X254468Y-16945D01*
X254475Y-16941D01*
X254635Y-17180D01*
X255032Y-17445D01*
X255500Y-17538D01*
X255968Y-17445D01*
X256365Y-17180D01*
X256630Y-16783D01*
X256723Y-16315D01*
X256630Y-15847D01*
X256365Y-15450D01*
X255968Y-15185D01*
X255500Y-15091D01*
X255032Y-15185D01*
X255025Y-15189D01*
X254865Y-14950D01*
X254468Y-14685D01*
X254000Y-14592D01*
D02*
G37*
G36*
X262635Y-14180D02*
Y-14611D01*
X262836Y-14476D01*
X262957Y-14396D01*
X262635Y-14180D01*
D02*
G37*
G36*
X264365D02*
X264043Y-14396D01*
X264164Y-14476D01*
X264365Y-14611D01*
Y-14180D01*
D02*
G37*
G36*
X232000Y-11198D02*
Y-11815D01*
X232617D01*
X232370Y-11445D01*
X232000Y-11198D01*
D02*
G37*
G36*
X226500Y-60591D02*
X226032Y-60685D01*
X225635Y-60950D01*
X225370Y-61347D01*
X225276Y-61815D01*
X225370Y-62283D01*
X225635Y-62680D01*
X226032Y-62945D01*
X226500Y-63038D01*
X226968Y-62945D01*
X227365Y-62680D01*
X227630Y-62283D01*
X227724Y-61815D01*
X227630Y-61347D01*
X227365Y-60950D01*
X226968Y-60685D01*
X226500Y-60591D01*
D02*
G37*
G36*
X227000Y-44786D02*
X226415Y-44902D01*
X225919Y-45234D01*
X225587Y-45730D01*
X225471Y-46315D01*
X225587Y-46900D01*
X225919Y-47396D01*
X226415Y-47728D01*
X227000Y-47844D01*
X227585Y-47728D01*
X227781Y-47598D01*
X227830Y-47647D01*
D01*
X228134Y-47951D01*
X227870Y-48347D01*
X227777Y-48815D01*
X227870Y-49283D01*
X228135Y-49680D01*
X228532Y-49945D01*
X229000Y-50038D01*
X229468Y-49945D01*
X229865Y-49680D01*
X230130Y-49283D01*
X230223Y-48815D01*
X230130Y-48347D01*
X229865Y-47950D01*
X229468Y-47685D01*
X229000Y-47591D01*
X228532Y-47685D01*
X228436Y-47749D01*
X228386Y-47699D01*
X228386Y-47699D01*
X228082Y-47395D01*
X228413Y-46900D01*
X228529Y-46315D01*
X228413Y-45730D01*
X228081Y-45234D01*
X227585Y-44902D01*
X227000Y-44786D01*
D02*
G37*
G36*
X235135Y-52450D02*
X234865D01*
X235000Y-52651D01*
X235135Y-52450D01*
D02*
G37*
G36*
X270000Y-44091D02*
X269532Y-44185D01*
X269135Y-44450D01*
X268870Y-44847D01*
X268776Y-45315D01*
X268870Y-45783D01*
X269135Y-46180D01*
X269532Y-46445D01*
X270000Y-46538D01*
X270468Y-46445D01*
X270865Y-46180D01*
X271130Y-45783D01*
X271223Y-45315D01*
X271130Y-44847D01*
X270865Y-44450D01*
X270468Y-44185D01*
X270000Y-44091D01*
D02*
G37*
G36*
X239500Y-41091D02*
X239032Y-41185D01*
X238635Y-41450D01*
X238370Y-41847D01*
X238277Y-42315D01*
X238370Y-42783D01*
X238635Y-43180D01*
X239032Y-43445D01*
X239500Y-43538D01*
X239968Y-43445D01*
X240365Y-43180D01*
X240630Y-42783D01*
X240723Y-42315D01*
X240630Y-41847D01*
X240365Y-41450D01*
X239968Y-41185D01*
X239500Y-41091D01*
D02*
G37*
G36*
X233135Y-52450D02*
X232865D01*
X233000Y-52651D01*
X233135Y-52450D01*
D02*
G37*
G36*
X235000Y-53979D02*
X234865Y-54180D01*
X235135D01*
X235000Y-53979D01*
D02*
G37*
G36*
X233000D02*
X232865Y-54180D01*
X233135D01*
X233000Y-53979D01*
D02*
G37*
G36*
X154000Y-13591D02*
X153532Y-13685D01*
X153135Y-13950D01*
X152870Y-14347D01*
X152777Y-14815D01*
X152870Y-15283D01*
X153135Y-15680D01*
X153532Y-15945D01*
X154000Y-16038D01*
X154468Y-15945D01*
X154865Y-15680D01*
X155130Y-15283D01*
X155224Y-14815D01*
X155130Y-14347D01*
X154865Y-13950D01*
X154468Y-13685D01*
X154000Y-13591D01*
D02*
G37*
G36*
X132500Y-14092D02*
X132032Y-14185D01*
X131635Y-14450D01*
X131370Y-14847D01*
X131277Y-15315D01*
X131370Y-15783D01*
X131635Y-16180D01*
X132032Y-16445D01*
X132500Y-16538D01*
X132968Y-16445D01*
X133365Y-16180D01*
X133630Y-15783D01*
X133723Y-15315D01*
X133630Y-14847D01*
X133365Y-14450D01*
X132968Y-14185D01*
X132500Y-14092D01*
D02*
G37*
G36*
X183500Y-13092D02*
X183032Y-13185D01*
X182635Y-13450D01*
X182370Y-13847D01*
X182276Y-14315D01*
X182370Y-14783D01*
X182635Y-15180D01*
X183032Y-15445D01*
X183500Y-15539D01*
X183968Y-15445D01*
X184365Y-15180D01*
X184630Y-14783D01*
X184723Y-14315D01*
X184630Y-13847D01*
X184365Y-13450D01*
X183968Y-13185D01*
X183500Y-13092D01*
D02*
G37*
G36*
X137000Y-13378D02*
X136259Y-13525D01*
X135630Y-13945D01*
X135210Y-14574D01*
X135063Y-15315D01*
X135210Y-16056D01*
X135630Y-16685D01*
X136259Y-17105D01*
X137000Y-17252D01*
X137741Y-17105D01*
X138370Y-16685D01*
X138790Y-16056D01*
X138937Y-15315D01*
X138790Y-14574D01*
X138370Y-13945D01*
X137741Y-13525D01*
X137000Y-13378D01*
D02*
G37*
G36*
X161537Y-15139D02*
X161069Y-15233D01*
X160672Y-15498D01*
X160407Y-15895D01*
X160313Y-16363D01*
X160407Y-16831D01*
X160672Y-17228D01*
X161069Y-17493D01*
X161537Y-17586D01*
X162005Y-17493D01*
X162402Y-17228D01*
X162667Y-16831D01*
X162760Y-16363D01*
X162667Y-15895D01*
X162402Y-15498D01*
X162005Y-15233D01*
X161537Y-15139D01*
D02*
G37*
G36*
X195500Y-3091D02*
X195032Y-3185D01*
X194635Y-3450D01*
X194370Y-3847D01*
X194276Y-4315D01*
X194370Y-4783D01*
X194635Y-5180D01*
X195032Y-5445D01*
X195500Y-5539D01*
X195968Y-5445D01*
X196365Y-5180D01*
X196630Y-4783D01*
X196723Y-4315D01*
X196630Y-3847D01*
X196365Y-3450D01*
X195968Y-3185D01*
X195500Y-3091D01*
D02*
G37*
G36*
X183500Y-3591D02*
X183032Y-3685D01*
X182635Y-3950D01*
X182370Y-4347D01*
X182276Y-4815D01*
X182370Y-5283D01*
X182635Y-5680D01*
X183032Y-5945D01*
X183500Y-6038D01*
X183968Y-5945D01*
X184365Y-5680D01*
X184630Y-5283D01*
X184723Y-4815D01*
X184630Y-4347D01*
X184365Y-3950D01*
X183968Y-3685D01*
X183500Y-3591D01*
D02*
G37*
G36*
X211117Y-4815D02*
X210500D01*
Y-5432D01*
X210870Y-5185D01*
X211117Y-4815D01*
D02*
G37*
G36*
X208500D02*
X207883D01*
X208130Y-5185D01*
X208500Y-5432D01*
Y-4815D01*
D02*
G37*
G36*
X176000Y-3591D02*
X175532Y-3685D01*
X175135Y-3950D01*
X174870Y-4347D01*
X174776Y-4815D01*
X174870Y-5283D01*
X175135Y-5680D01*
X175337Y-5815D01*
Y-6315D01*
X175135Y-6450D01*
X174870Y-6847D01*
X174776Y-7315D01*
X174870Y-7783D01*
X175135Y-8180D01*
X175532Y-8445D01*
X176000Y-8539D01*
X176468Y-8445D01*
X176865Y-8180D01*
X177130Y-7783D01*
X177224Y-7315D01*
X177130Y-6847D01*
X176865Y-6450D01*
X176663Y-6315D01*
Y-5815D01*
X176865Y-5680D01*
X177130Y-5283D01*
X177224Y-4815D01*
X177130Y-4347D01*
X176865Y-3950D01*
X176468Y-3685D01*
X176000Y-3591D01*
D02*
G37*
G36*
X157137Y-539D02*
X156669Y-633D01*
X156272Y-898D01*
X156007Y-1295D01*
X155913Y-1763D01*
X155949Y-1941D01*
X155487Y-2132D01*
X155365Y-1950D01*
X154968Y-1685D01*
X154500Y-1592D01*
X154032Y-1685D01*
X153635Y-1950D01*
X153370Y-2347D01*
X153277Y-2815D01*
X153370Y-3283D01*
X153415Y-3351D01*
X153137Y-3767D01*
X153000Y-3740D01*
X152532Y-3833D01*
X152135Y-4098D01*
X151870Y-4495D01*
X151777Y-4963D01*
X151870Y-5431D01*
X152135Y-5828D01*
X152226Y-5889D01*
Y-6389D01*
X152135Y-6450D01*
X151870Y-6847D01*
X151777Y-7315D01*
X151870Y-7783D01*
X152135Y-8180D01*
X152532Y-8445D01*
X153000Y-8539D01*
X153468Y-8445D01*
X153865Y-8180D01*
X154130Y-7783D01*
X154224Y-7315D01*
X154130Y-6847D01*
X153865Y-6450D01*
X153468Y-6185D01*
X153865Y-5828D01*
X153865Y-5828D01*
X153865Y-5828D01*
X153865Y-5828D01*
X153865Y-5828D01*
D01*
X154130Y-5431D01*
X154224Y-4963D01*
X154130Y-4495D01*
X154085Y-4427D01*
X154363Y-4011D01*
X154500Y-4039D01*
X154968Y-3945D01*
X155365Y-3680D01*
X155630Y-3283D01*
X155724Y-2815D01*
X155688Y-2637D01*
X156150Y-2446D01*
X156272Y-2628D01*
X156669Y-2893D01*
X157137Y-2987D01*
X157605Y-2893D01*
X158002Y-2628D01*
X158267Y-2231D01*
X158361Y-1763D01*
X158267Y-1295D01*
X158002Y-898D01*
X157605Y-633D01*
X157137Y-539D01*
D02*
G37*
G36*
X210500Y-2198D02*
Y-2815D01*
X211117D01*
X210870Y-2445D01*
X210500Y-2198D01*
D02*
G37*
G36*
X106617Y-315D02*
X106000D01*
Y-932D01*
X106370Y-685D01*
X106617Y-315D01*
D02*
G37*
G36*
X104000D02*
X103383D01*
X103630Y-685D01*
X104000Y-932D01*
Y-315D01*
D02*
G37*
G36*
X160137Y-1139D02*
X159669Y-1233D01*
X159272Y-1498D01*
X159007Y-1895D01*
X158914Y-2363D01*
X159007Y-2831D01*
X159272Y-3228D01*
X159669Y-3493D01*
X160137Y-3587D01*
X160605Y-3493D01*
X161002Y-3228D01*
X161267Y-2831D01*
X161361Y-2363D01*
X161267Y-1895D01*
X161002Y-1498D01*
X160605Y-1233D01*
X160137Y-1139D01*
D02*
G37*
G36*
X208500Y-2198D02*
X208130Y-2445D01*
X207883Y-2815D01*
X208500D01*
Y-2198D01*
D02*
G37*
G36*
X132500Y622D02*
X131759Y475D01*
X131130Y55D01*
X130710Y-574D01*
X130563Y-1315D01*
X130710Y-2056D01*
X131130Y-2685D01*
X131759Y-3105D01*
X132500Y-3252D01*
X133241Y-3105D01*
X133870Y-2685D01*
X134290Y-2056D01*
X134437Y-1315D01*
X134290Y-574D01*
X133870Y55D01*
X133241Y475D01*
X132500Y622D01*
D02*
G37*
G36*
X183500Y-7440D02*
X183032Y-7533D01*
X182635Y-7798D01*
X182370Y-8195D01*
X182276Y-8663D01*
X182370Y-9131D01*
X182635Y-9528D01*
X183032Y-9793D01*
X183500Y-9887D01*
X183968Y-9793D01*
X184365Y-9528D01*
X184630Y-9131D01*
X184723Y-8663D01*
X184630Y-8195D01*
X184365Y-7798D01*
X183968Y-7533D01*
X183500Y-7440D01*
D02*
G37*
G36*
X119000Y-5378D02*
X118259Y-5525D01*
X117630Y-5945D01*
X117210Y-6574D01*
X117063Y-7315D01*
X117210Y-8056D01*
X117630Y-8685D01*
X118259Y-9105D01*
X119000Y-9252D01*
X119741Y-9105D01*
X120370Y-8685D01*
X120790Y-8056D01*
X120937Y-7315D01*
X120790Y-6574D01*
X120370Y-5945D01*
X119741Y-5525D01*
X119000Y-5378D01*
D02*
G37*
G36*
X172500Y-7592D02*
X172032Y-7685D01*
X171635Y-7950D01*
X171370Y-8347D01*
X171276Y-8815D01*
X171361Y-9239D01*
X171007Y-9593D01*
X171000Y-9591D01*
X170532Y-9685D01*
X170135Y-9950D01*
X169870Y-10347D01*
X169776Y-10815D01*
X169870Y-11283D01*
X170135Y-11680D01*
Y-11950D01*
X169870Y-12347D01*
X169776Y-12815D01*
X169870Y-13283D01*
X170135Y-13680D01*
X170532Y-13945D01*
X171000Y-14039D01*
X171468Y-13945D01*
X171865Y-13680D01*
X172130Y-13283D01*
X172223Y-12815D01*
X172130Y-12347D01*
X171865Y-11950D01*
Y-11680D01*
X172130Y-11283D01*
X172223Y-10815D01*
X172139Y-10391D01*
X172493Y-10037D01*
X172500Y-10039D01*
X172968Y-9945D01*
X173365Y-9680D01*
X173630Y-9283D01*
X173723Y-8815D01*
X173630Y-8347D01*
X173365Y-7950D01*
X172968Y-7685D01*
X172500Y-7592D01*
D02*
G37*
G36*
X197000Y-5591D02*
X196532Y-5685D01*
X196135Y-5950D01*
X195870Y-6347D01*
X195776Y-6815D01*
X195870Y-7283D01*
X196135Y-7680D01*
Y-7950D01*
X195870Y-8347D01*
X195776Y-8815D01*
X195870Y-9283D01*
X196135Y-9680D01*
X196532Y-9945D01*
X197000Y-10039D01*
X197468Y-9945D01*
X197865Y-9680D01*
X198130Y-9283D01*
X198223Y-8815D01*
X198130Y-8347D01*
X197865Y-7950D01*
Y-7680D01*
X198130Y-7283D01*
X198223Y-6815D01*
X198130Y-6347D01*
X197865Y-5950D01*
X197468Y-5685D01*
X197000Y-5591D01*
D02*
G37*
G36*
X207000Y-135591D02*
X206532Y-135685D01*
X206135Y-135950D01*
X205870Y-136347D01*
X205777Y-136815D01*
X205870Y-137283D01*
X206135Y-137680D01*
X206337Y-137815D01*
Y-138315D01*
X206135Y-138450D01*
X205870Y-138847D01*
X205777Y-139315D01*
X205870Y-139783D01*
X206135Y-140180D01*
X206532Y-140445D01*
X207000Y-140539D01*
X207468Y-140445D01*
X207865Y-140180D01*
X208130Y-139783D01*
X208224Y-139315D01*
X208130Y-138847D01*
X207865Y-138450D01*
X207663Y-138315D01*
Y-137815D01*
X207865Y-137680D01*
X208130Y-137283D01*
X208224Y-136815D01*
X208130Y-136347D01*
X207865Y-135950D01*
X207468Y-135685D01*
X207000Y-135591D01*
D02*
G37*
G36*
X256500Y-116042D02*
X256032Y-116135D01*
X255635Y-116401D01*
X255370Y-116797D01*
X255276Y-117266D01*
X255370Y-117734D01*
X255635Y-118131D01*
X256032Y-118396D01*
X256500Y-118489D01*
X256968Y-118396D01*
X257365Y-118131D01*
X257630Y-117734D01*
X257723Y-117266D01*
X257630Y-116797D01*
X257365Y-116401D01*
X256968Y-116135D01*
X256500Y-116042D01*
D02*
G37*
G36*
X267000Y-116315D02*
X266383D01*
X266630Y-116685D01*
X267000Y-116932D01*
Y-116315D01*
D02*
G37*
G36*
X269617D02*
X269000D01*
Y-116932D01*
X269370Y-116685D01*
X269617Y-116315D01*
D02*
G37*
G36*
X234000Y-126378D02*
X233259Y-126525D01*
X232630Y-126945D01*
X232210Y-127574D01*
X232075Y-128253D01*
X231585Y-128350D01*
X231201Y-127777D01*
X230573Y-127357D01*
X229831Y-127209D01*
X229090Y-127357D01*
X228462Y-127777D01*
X228042Y-128405D01*
X227894Y-129146D01*
X228042Y-129888D01*
X228462Y-130516D01*
X229090Y-130936D01*
X229831Y-131084D01*
X230573Y-130936D01*
X231201Y-130516D01*
X231621Y-129888D01*
X231756Y-129208D01*
X232247Y-129111D01*
X232630Y-129685D01*
X233259Y-130105D01*
X234000Y-130252D01*
X234741Y-130105D01*
X235370Y-129685D01*
X235790Y-129056D01*
X235937Y-128315D01*
X235790Y-127574D01*
X235370Y-126945D01*
X234741Y-126525D01*
X234000Y-126378D01*
D02*
G37*
G36*
X196500Y-134091D02*
X196032Y-134185D01*
X195635Y-134450D01*
X195370Y-134847D01*
X195276Y-135315D01*
X195370Y-135783D01*
X195635Y-136180D01*
X196032Y-136445D01*
X196500Y-136539D01*
X196968Y-136445D01*
X197365Y-136180D01*
X197630Y-135783D01*
X197723Y-135315D01*
X197630Y-134847D01*
X197365Y-134450D01*
X196968Y-134185D01*
X196500Y-134091D01*
D02*
G37*
G36*
X241000Y-133591D02*
X240532Y-133685D01*
X240135Y-133950D01*
X239870Y-134347D01*
X239776Y-134815D01*
X239870Y-135283D01*
X240135Y-135680D01*
X240532Y-135945D01*
X241000Y-136038D01*
X241468Y-135945D01*
X241865Y-135680D01*
X242130Y-135283D01*
X242224Y-134815D01*
X242130Y-134347D01*
X241865Y-133950D01*
X241468Y-133685D01*
X241000Y-133591D01*
D02*
G37*
G36*
X236403Y-143399D02*
X235662Y-143546D01*
X235033Y-143966D01*
X234613Y-144595D01*
X234466Y-145336D01*
X234502Y-145521D01*
X234040Y-145712D01*
X233865Y-145450D01*
X233468Y-145185D01*
X233000Y-145091D01*
X232532Y-145185D01*
X232135Y-145450D01*
X231870Y-145847D01*
X231776Y-146315D01*
X231870Y-146783D01*
X232135Y-147180D01*
X232532Y-147445D01*
X233000Y-147538D01*
X233468Y-147445D01*
X233865Y-147180D01*
X234130Y-146783D01*
X234222Y-146323D01*
X234712Y-146226D01*
X235033Y-146706D01*
X235662Y-147126D01*
X236403Y-147274D01*
X237144Y-147126D01*
X237773Y-146706D01*
X238193Y-146078D01*
X238340Y-145336D01*
X238193Y-144595D01*
X237773Y-143966D01*
X237144Y-143546D01*
X236403Y-143399D01*
D02*
G37*
G36*
X189037Y-144439D02*
X188569Y-144533D01*
X188172Y-144798D01*
X187907Y-145195D01*
X187813Y-145663D01*
X187907Y-146131D01*
X188172Y-146528D01*
X188569Y-146793D01*
X189037Y-146887D01*
X189505Y-146793D01*
X189902Y-146528D01*
X190167Y-146131D01*
X190261Y-145663D01*
X190167Y-145195D01*
X189902Y-144798D01*
X189505Y-144533D01*
X189037Y-144439D01*
D02*
G37*
G36*
X258900Y-141491D02*
X258432Y-141585D01*
X258035Y-141850D01*
X257770Y-142247D01*
X257677Y-142715D01*
X257770Y-143183D01*
X258035Y-143580D01*
X258432Y-143845D01*
X258900Y-143939D01*
X259368Y-143845D01*
X259765Y-143580D01*
X260030Y-143183D01*
X260123Y-142715D01*
X260030Y-142247D01*
X259765Y-141850D01*
X259368Y-141585D01*
X258900Y-141491D01*
D02*
G37*
G36*
X210000Y-141592D02*
X209532Y-141685D01*
X209135Y-141950D01*
X208870Y-142347D01*
X208776Y-142815D01*
X208861Y-143239D01*
X208507Y-143593D01*
X208500Y-143591D01*
X208032Y-143685D01*
X207635Y-143950D01*
X207370Y-144347D01*
X207277Y-144815D01*
X207370Y-145283D01*
X207635Y-145680D01*
X208032Y-145945D01*
X208500Y-146038D01*
X208968Y-145945D01*
X209365Y-145680D01*
X209630Y-145283D01*
X209723Y-144815D01*
X209639Y-144391D01*
X209993Y-144037D01*
X210000Y-144038D01*
X210468Y-143945D01*
X210865Y-143680D01*
X211130Y-143283D01*
X211224Y-142815D01*
X211130Y-142347D01*
X210865Y-141950D01*
X210468Y-141685D01*
X210000Y-141592D01*
D02*
G37*
G36*
X229000Y-142092D02*
X228532Y-142185D01*
X228135Y-142450D01*
X227870Y-142847D01*
X227777Y-143315D01*
X227840Y-143634D01*
X227424Y-143912D01*
X227305Y-143833D01*
X226837Y-143739D01*
X226369Y-143833D01*
X225972Y-144098D01*
X225707Y-144495D01*
X225613Y-144963D01*
X225707Y-145431D01*
X225972Y-145828D01*
X226369Y-146093D01*
X226837Y-146186D01*
X227305Y-146093D01*
X227706Y-146306D01*
X227707Y-146395D01*
X227707Y-146395D01*
X227707Y-146395D01*
X227613Y-146863D01*
X227707Y-147331D01*
X227972Y-147728D01*
X228369Y-147993D01*
X228837Y-148087D01*
X229305Y-147993D01*
X229645Y-148503D01*
X229613Y-148663D01*
X229707Y-149131D01*
X229972Y-149528D01*
X230369Y-149793D01*
X230837Y-149887D01*
X231305Y-149793D01*
X231702Y-149528D01*
X231967Y-149131D01*
X232061Y-148663D01*
X231967Y-148195D01*
X231702Y-147798D01*
X231305Y-147533D01*
X230837Y-147440D01*
X230369Y-147533D01*
X230029Y-147023D01*
X230061Y-146863D01*
X229967Y-146395D01*
X229702Y-145998D01*
X229305Y-145733D01*
X228837Y-145640D01*
X228369Y-145733D01*
X227968Y-145520D01*
X227967Y-145431D01*
X227967Y-145431D01*
X227967Y-145431D01*
X228061Y-144963D01*
X227997Y-144644D01*
X228413Y-144366D01*
X228532Y-144445D01*
X229000Y-144538D01*
X229468Y-144445D01*
X229865Y-144180D01*
X230130Y-143783D01*
X230223Y-143315D01*
X230130Y-142847D01*
X229865Y-142450D01*
X229468Y-142185D01*
X229000Y-142092D01*
D02*
G37*
G36*
X262617Y-80815D02*
X262000D01*
Y-81432D01*
X262370Y-81185D01*
X262617Y-80815D01*
D02*
G37*
G36*
X260000D02*
X259383D01*
X259568Y-81092D01*
X259291Y-81508D01*
X258937Y-81437D01*
X258430Y-81538D01*
X258000Y-81826D01*
X257712Y-82256D01*
X257611Y-82763D01*
X257712Y-83270D01*
X258000Y-83700D01*
X258430Y-83988D01*
X258937Y-84088D01*
X259444Y-83988D01*
X259874Y-83700D01*
X260162Y-83270D01*
X260262Y-82763D01*
X260162Y-82256D01*
X260008Y-82026D01*
X260286Y-81610D01*
X260259Y-81605D01*
X260000Y-81432D01*
Y-80815D01*
D02*
G37*
G36*
X268937Y-90938D02*
X268430Y-91038D01*
X268000Y-91326D01*
X267712Y-91756D01*
X267612Y-92263D01*
X267712Y-92770D01*
X268000Y-93200D01*
X268430Y-93488D01*
X268937Y-93589D01*
X269444Y-93488D01*
X269874Y-93200D01*
X270162Y-92770D01*
X270263Y-92263D01*
X270162Y-91756D01*
X269874Y-91326D01*
X269444Y-91038D01*
X268937Y-90938D01*
D02*
G37*
G36*
X260000Y-78198D02*
X259630Y-78445D01*
X259383Y-78815D01*
X260000D01*
Y-78198D01*
D02*
G37*
G36*
X262000D02*
Y-78815D01*
X262617D01*
X262370Y-78445D01*
X262000Y-78198D01*
D02*
G37*
G36*
X264000Y-78815D02*
X263383D01*
X263630Y-79185D01*
X264000Y-79432D01*
Y-78815D01*
D02*
G37*
G36*
X266617D02*
X266000D01*
Y-79432D01*
X266370Y-79185D01*
X266617Y-78815D01*
D02*
G37*
G36*
X260000Y-111698D02*
Y-112315D01*
X260617D01*
X260370Y-111945D01*
X260000Y-111698D01*
D02*
G37*
G36*
X258000D02*
X257630Y-111945D01*
X257383Y-112315D01*
X258000D01*
Y-111698D01*
D02*
G37*
G36*
X260617Y-114315D02*
X260000D01*
Y-114932D01*
X260370Y-114685D01*
X260617Y-114315D01*
D02*
G37*
G36*
X258000D02*
X257383D01*
X257630Y-114685D01*
X258000Y-114932D01*
Y-114315D01*
D02*
G37*
G36*
X269000Y-113698D02*
Y-114315D01*
X269617D01*
X269370Y-113945D01*
X269000Y-113698D01*
D02*
G37*
G36*
X267000D02*
X266630Y-113945D01*
X266383Y-114315D01*
X267000D01*
Y-113698D01*
D02*
G37*
G36*
X259000Y-100489D02*
X258493Y-100590D01*
X258063Y-100878D01*
X257775Y-101308D01*
X257675Y-101815D01*
X257775Y-102322D01*
X258063Y-102752D01*
X258493Y-103040D01*
X259000Y-103140D01*
X259507Y-103040D01*
X259937Y-102752D01*
X260225Y-102322D01*
X260326Y-101815D01*
X260225Y-101308D01*
X259937Y-100878D01*
X259507Y-100590D01*
X259000Y-100489D01*
D02*
G37*
G36*
X151320Y-172249D02*
X150852Y-172342D01*
X150455Y-172607D01*
X150189Y-173004D01*
X150096Y-173472D01*
X149891Y-173678D01*
X149745Y-173649D01*
X149276Y-173742D01*
X148880Y-174007D01*
X148614Y-174404D01*
X148521Y-174872D01*
X148170Y-175049D01*
D01*
X147702Y-175142D01*
X147304Y-175407D01*
X147039Y-175804D01*
X146946Y-176272D01*
X147039Y-176741D01*
X147304Y-177138D01*
X147702Y-177403D01*
X148170Y-177496D01*
X148638Y-177403D01*
X149035Y-177138D01*
X149300Y-176741D01*
X149393Y-176272D01*
D01*
X149745Y-176096D01*
D01*
X150213Y-176003D01*
X150610Y-175738D01*
X150875Y-175341D01*
X150968Y-174873D01*
X151174Y-174667D01*
X151320Y-174696D01*
X151788Y-174603D01*
X152185Y-174338D01*
X152450Y-173941D01*
X152543Y-173472D01*
X152450Y-173004D01*
X152185Y-172607D01*
X151788Y-172342D01*
X151320Y-172249D01*
D02*
G37*
G36*
X137000Y-173091D02*
X136532Y-173185D01*
X136135Y-173450D01*
X135870Y-173847D01*
X135776Y-174315D01*
X135870Y-174783D01*
X136135Y-175180D01*
X136532Y-175445D01*
X137000Y-175539D01*
X137468Y-175445D01*
X137865Y-175180D01*
X138130Y-174783D01*
X138224Y-174315D01*
X138130Y-173847D01*
X137865Y-173450D01*
X137468Y-173185D01*
X137000Y-173091D01*
D02*
G37*
G36*
X157619Y-172249D02*
X157150Y-172342D01*
X156754Y-172607D01*
X156488Y-173004D01*
X156395Y-173472D01*
X156488Y-173941D01*
X156754Y-174338D01*
X157150Y-174603D01*
X157619Y-174696D01*
X158087Y-174603D01*
X158484Y-174338D01*
X158749Y-173941D01*
X158842Y-173472D01*
X158749Y-173004D01*
X158484Y-172607D01*
X158087Y-172342D01*
X157619Y-172249D01*
D02*
G37*
G36*
X128000Y-172091D02*
X127532Y-172185D01*
X127135Y-172450D01*
X126870Y-172847D01*
X126777Y-173315D01*
X126870Y-173783D01*
X127135Y-174180D01*
X127532Y-174445D01*
X128000Y-174539D01*
X128468Y-174445D01*
X128865Y-174180D01*
X129130Y-173783D01*
X129224Y-173315D01*
X129130Y-172847D01*
X128865Y-172450D01*
X128468Y-172185D01*
X128000Y-172091D01*
D02*
G37*
G36*
X269000Y-167092D02*
X268532Y-167185D01*
X268135Y-167450D01*
X267870Y-167847D01*
X267776Y-168315D01*
X267870Y-168783D01*
X268135Y-169180D01*
X268532Y-169445D01*
X269000Y-169538D01*
X269468Y-169445D01*
X269865Y-169180D01*
X270130Y-168783D01*
X270223Y-168315D01*
X270130Y-167847D01*
X269865Y-167450D01*
X269468Y-167185D01*
X269000Y-167092D01*
D02*
G37*
G36*
X245000Y-163592D02*
X244532Y-163685D01*
X244135Y-163950D01*
X243870Y-164347D01*
X243776Y-164815D01*
X243870Y-165283D01*
X244135Y-165680D01*
X244532Y-165945D01*
X245000Y-166039D01*
X245468Y-165945D01*
X245865Y-165680D01*
X246130Y-165283D01*
X246223Y-164815D01*
X246130Y-164347D01*
X245865Y-163950D01*
X245468Y-163685D01*
X245000Y-163592D01*
D02*
G37*
G36*
X219184Y-162561D02*
X218599Y-162678D01*
X218103Y-163009D01*
X217771Y-163505D01*
X217655Y-164091D01*
X217771Y-164676D01*
X218103Y-165172D01*
X218599Y-165504D01*
X219184Y-165620D01*
X219770Y-165504D01*
X220266Y-165172D01*
X220597Y-164676D01*
X220714Y-164091D01*
X220597Y-163505D01*
X220266Y-163009D01*
X219770Y-162678D01*
X219184Y-162561D01*
D02*
G37*
G36*
X208500Y-162592D02*
X208032Y-162685D01*
X207635Y-162950D01*
X207370Y-163347D01*
X207277Y-163815D01*
X207370Y-164283D01*
X207635Y-164680D01*
X208032Y-164945D01*
X208500Y-165039D01*
X208968Y-164945D01*
X209365Y-164680D01*
X209630Y-164283D01*
X209723Y-163815D01*
X209630Y-163347D01*
X209365Y-162950D01*
X208968Y-162685D01*
X208500Y-162592D01*
D02*
G37*
G36*
X233037Y-163839D02*
X232569Y-163933D01*
X232172Y-164198D01*
X231907Y-164595D01*
X231814Y-165063D01*
X231907Y-165531D01*
X232172Y-165928D01*
X232569Y-166193D01*
X233037Y-166287D01*
X233505Y-166193D01*
X233902Y-165928D01*
X234167Y-165531D01*
X234261Y-165063D01*
X234167Y-164595D01*
X233902Y-164198D01*
X233505Y-163933D01*
X233037Y-163839D01*
D02*
G37*
G36*
X228837Y-164240D02*
X228369Y-164333D01*
X227972Y-164598D01*
X227707Y-164995D01*
X227613Y-165463D01*
X227707Y-165931D01*
X227972Y-166328D01*
X228369Y-166593D01*
X228837Y-166686D01*
X229305Y-166593D01*
X229702Y-166328D01*
X229967Y-165931D01*
X230061Y-165463D01*
X229967Y-164995D01*
X229702Y-164598D01*
X229305Y-164333D01*
X228837Y-164240D01*
D02*
G37*
G36*
X132500Y-173091D02*
X132032Y-173185D01*
X131635Y-173450D01*
X131370Y-173847D01*
X131277Y-174315D01*
X131370Y-174783D01*
X131635Y-175180D01*
X132032Y-175445D01*
X132500Y-175539D01*
X132968Y-175445D01*
X133365Y-175180D01*
X133630Y-174783D01*
X133723Y-174315D01*
X133630Y-173847D01*
X133365Y-173450D01*
X132968Y-173185D01*
X132500Y-173091D01*
D02*
G37*
G36*
X143500Y-178000D02*
X142614Y-178177D01*
X141863Y-178678D01*
X141362Y-179429D01*
X141250Y-179990D01*
X140750D01*
X140638Y-179429D01*
X140137Y-178678D01*
X139386Y-178177D01*
X138500Y-178000D01*
X137614Y-178177D01*
X136863Y-178678D01*
X136362Y-179429D01*
X136250Y-179990D01*
X135750D01*
X135638Y-179429D01*
X135137Y-178678D01*
X134386Y-178177D01*
X133500Y-178000D01*
X132614Y-178177D01*
X131863Y-178678D01*
X131362Y-179429D01*
X131250Y-179990D01*
X130750D01*
X130638Y-179429D01*
X130137Y-178678D01*
X129386Y-178177D01*
X128500Y-178000D01*
X127614Y-178177D01*
X126863Y-178678D01*
X126362Y-179429D01*
X126250Y-179990D01*
X125750D01*
X125638Y-179429D01*
X125137Y-178678D01*
X124386Y-178177D01*
X123500Y-178000D01*
X122614Y-178177D01*
X121863Y-178678D01*
X121362Y-179429D01*
X121250Y-179990D01*
X120750D01*
X120638Y-179429D01*
X120137Y-178678D01*
X119386Y-178177D01*
X118500Y-178000D01*
X117614Y-178177D01*
X116863Y-178678D01*
X116362Y-179429D01*
X116250Y-179990D01*
X115750D01*
X115815Y-180315D01*
X115750Y-180640D01*
X116250D01*
X116362Y-181201D01*
X116863Y-181952D01*
X117614Y-182453D01*
X118500Y-182630D01*
X119386Y-182453D01*
X120137Y-181952D01*
X120638Y-181201D01*
X120750Y-180640D01*
X121250D01*
X121362Y-181201D01*
X121863Y-181952D01*
X122614Y-182453D01*
X123500Y-182630D01*
X124386Y-182453D01*
X125137Y-181952D01*
X125638Y-181201D01*
X125750Y-180640D01*
X126250D01*
X126362Y-181201D01*
X126863Y-181952D01*
X127614Y-182453D01*
X128500Y-182630D01*
X129386Y-182453D01*
X130137Y-181952D01*
X130638Y-181201D01*
X130750Y-180640D01*
X131250D01*
X131362Y-181201D01*
X131863Y-181952D01*
X132614Y-182453D01*
X133500Y-182630D01*
X134386Y-182453D01*
X135137Y-181952D01*
X135638Y-181201D01*
X135750Y-180640D01*
X136250D01*
X136362Y-181201D01*
X136863Y-181952D01*
X137614Y-182453D01*
X138500Y-182630D01*
X139386Y-182453D01*
X140137Y-181952D01*
X140638Y-181201D01*
X140750Y-180640D01*
X141250D01*
X141362Y-181201D01*
X141863Y-181952D01*
X142614Y-182453D01*
X143500Y-182630D01*
X144386Y-182453D01*
X145137Y-181952D01*
X145638Y-181201D01*
X145815Y-180315D01*
X145638Y-179429D01*
X145137Y-178678D01*
X144386Y-178177D01*
X143500Y-178000D01*
D02*
G37*
G36*
X151437Y-177540D02*
X150969Y-177633D01*
X150572Y-177898D01*
X150307Y-178295D01*
X150214Y-178763D01*
X150307Y-179231D01*
X150572Y-179628D01*
X150969Y-179893D01*
X151437Y-179987D01*
X151905Y-179893D01*
X152302Y-179628D01*
X152567Y-179231D01*
X152661Y-178763D01*
X152567Y-178295D01*
X152302Y-177898D01*
X151905Y-177633D01*
X151437Y-177540D01*
D02*
G37*
G36*
X112500Y-178253D02*
X111863Y-178678D01*
X111438Y-179315D01*
X112500D01*
Y-178253D01*
D02*
G37*
G36*
X239000Y-178092D02*
X238532Y-178185D01*
X238135Y-178450D01*
X237870Y-178847D01*
X237776Y-179315D01*
X237870Y-179783D01*
X238135Y-180180D01*
X238532Y-180445D01*
X239000Y-180538D01*
X239468Y-180445D01*
X239865Y-180180D01*
X240130Y-179783D01*
X240224Y-179315D01*
X240130Y-178847D01*
X239865Y-178450D01*
X239468Y-178185D01*
X239000Y-178092D01*
D02*
G37*
G36*
X112500Y-181315D02*
X111438D01*
X111863Y-181952D01*
X112500Y-182377D01*
Y-181315D01*
D02*
G37*
G36*
X115562D02*
X114500D01*
Y-182377D01*
X115137Y-181952D01*
X115562Y-181315D01*
D02*
G37*
G36*
X154437Y-179239D02*
X153969Y-179333D01*
X153572Y-179598D01*
X153307Y-179995D01*
X153214Y-180463D01*
X153307Y-180931D01*
X153572Y-181328D01*
X153969Y-181593D01*
X154437Y-181686D01*
X154905Y-181593D01*
X155302Y-181328D01*
X155567Y-180931D01*
X155660Y-180463D01*
X155567Y-179995D01*
X155302Y-179598D01*
X154905Y-179333D01*
X154437Y-179239D01*
D02*
G37*
G36*
X114500Y-178253D02*
Y-179315D01*
X115562D01*
X115137Y-178678D01*
X114500Y-178253D01*
D02*
G37*
G36*
X178500Y-173591D02*
X178032Y-173685D01*
X177635Y-173950D01*
X177370Y-174347D01*
X177277Y-174815D01*
X177370Y-175283D01*
X177635Y-175680D01*
X178032Y-175945D01*
X178500Y-176039D01*
X178968Y-175945D01*
X179365Y-175680D01*
X179630Y-175283D01*
X179724Y-174815D01*
X179630Y-174347D01*
X179365Y-173950D01*
X178968Y-173685D01*
X178500Y-173591D01*
D02*
G37*
G36*
X168000Y-177292D02*
X167532Y-177385D01*
X167135Y-177650D01*
X167000Y-177852D01*
X166500D01*
X166365Y-177650D01*
X165968Y-177385D01*
X165500Y-177292D01*
X165032Y-177385D01*
X164635Y-177650D01*
X164500Y-177852D01*
X164000D01*
X163865Y-177650D01*
X163468Y-177385D01*
X163000Y-177292D01*
X162532Y-177385D01*
X162135Y-177650D01*
X161865D01*
X161468Y-177385D01*
X161000Y-177292D01*
X160532Y-177385D01*
X160135Y-177650D01*
X159870Y-178047D01*
X159776Y-178515D01*
X159870Y-178983D01*
X160135Y-179380D01*
X160532Y-179645D01*
X161000Y-179738D01*
X161468Y-179645D01*
X161865Y-179380D01*
X162135D01*
X162532Y-179645D01*
X163000Y-179738D01*
X163468Y-179645D01*
X163865Y-179380D01*
X164000Y-179178D01*
X164500D01*
X164635Y-179380D01*
X165032Y-179645D01*
X165500Y-179738D01*
X165968Y-179645D01*
X166365Y-179380D01*
X166500Y-179178D01*
X167000D01*
X167135Y-179380D01*
X167532Y-179645D01*
X168000Y-179738D01*
X168468Y-179645D01*
X168865Y-179380D01*
X169130Y-178983D01*
X169223Y-178515D01*
X169130Y-178047D01*
X168865Y-177650D01*
X168468Y-177385D01*
X168000Y-177292D01*
D02*
G37*
G36*
X262500Y-174592D02*
X262032Y-174685D01*
X261635Y-174950D01*
X261370Y-175347D01*
X261277Y-175815D01*
X261370Y-176283D01*
X261635Y-176680D01*
X262032Y-176945D01*
X262500Y-177039D01*
X262968Y-176945D01*
X263365Y-176680D01*
X263630Y-176283D01*
X263723Y-175815D01*
X263630Y-175347D01*
X263365Y-174950D01*
X262968Y-174685D01*
X262500Y-174592D01*
D02*
G37*
G36*
X194837Y-146039D02*
X194369Y-146133D01*
X193972Y-146398D01*
X193707Y-146795D01*
X193614Y-147263D01*
X193707Y-147731D01*
X193972Y-148128D01*
X194369Y-148393D01*
X194837Y-148486D01*
D01*
X195413Y-148763D01*
D01*
D01*
X195413D01*
D01*
D01*
X195507Y-149231D01*
X195772Y-149628D01*
X196169Y-149893D01*
X196637Y-149987D01*
X196978Y-149919D01*
X197332Y-150272D01*
X197313Y-150363D01*
X197407Y-150831D01*
X197672Y-151228D01*
X198069Y-151493D01*
X198537Y-151586D01*
X198663Y-151713D01*
X198614Y-151963D01*
X198707Y-152431D01*
X198972Y-152828D01*
X199369Y-153093D01*
X199837Y-153187D01*
X199920Y-153170D01*
X200214Y-153463D01*
X200307Y-153931D01*
X200572Y-154328D01*
X200969Y-154593D01*
X201066Y-154613D01*
X201163Y-155103D01*
X200872Y-155298D01*
X200607Y-155695D01*
X200514Y-156163D01*
X200607Y-156631D01*
X200872Y-157028D01*
X201269Y-157293D01*
X201737Y-157387D01*
X202205Y-157293D01*
X202602Y-157028D01*
X202867Y-156631D01*
X202960Y-156163D01*
X202867Y-155695D01*
X202602Y-155298D01*
X202205Y-155033D01*
X202108Y-155013D01*
X202011Y-154523D01*
X202302Y-154328D01*
X202567Y-153931D01*
X202660Y-153463D01*
X202567Y-152995D01*
X202302Y-152598D01*
X201905Y-152333D01*
X201437Y-152240D01*
X201354Y-152256D01*
X201061Y-151963D01*
X200967Y-151495D01*
X200702Y-151098D01*
X200305Y-150833D01*
X199837Y-150740D01*
X199711Y-150613D01*
X199760Y-150363D01*
X199667Y-149895D01*
X199402Y-149498D01*
X199005Y-149233D01*
X198537Y-149139D01*
X198196Y-149207D01*
X197843Y-148854D01*
X197861Y-148763D01*
X197767Y-148295D01*
X197502Y-147898D01*
X197105Y-147633D01*
X196637Y-147539D01*
X196169Y-147633D01*
X196061Y-147263D01*
X196061Y-147263D01*
X196061D01*
X195967Y-146795D01*
X195702Y-146398D01*
X195305Y-146133D01*
X194837Y-146039D01*
D02*
G37*
G36*
X250637Y-154139D02*
X250169Y-154233D01*
X249772Y-154498D01*
X249507Y-154895D01*
X249413Y-155363D01*
X249507Y-155831D01*
X249772Y-156228D01*
X250169Y-156493D01*
X250637Y-156587D01*
X251105Y-156493D01*
X251502Y-156228D01*
X251767Y-155831D01*
X251860Y-155363D01*
X251767Y-154895D01*
X251502Y-154498D01*
X251105Y-154233D01*
X250637Y-154139D01*
D02*
G37*
G36*
X197037Y-157448D02*
X196151Y-157625D01*
X195400Y-158126D01*
X194899Y-158877D01*
X194787Y-159439D01*
X194287D01*
X194175Y-158877D01*
X193674Y-158126D01*
X192923Y-157625D01*
X192037Y-157448D01*
X191151Y-157625D01*
X190400Y-158126D01*
X189899Y-158877D01*
X189723Y-159763D01*
X189899Y-160649D01*
X190400Y-161400D01*
X191151Y-161901D01*
X192037Y-162077D01*
X192923Y-161901D01*
X193674Y-161400D01*
X194175Y-160649D01*
X194287Y-160088D01*
X194787D01*
X194899Y-160649D01*
X195400Y-161400D01*
X196151Y-161901D01*
X197037Y-162077D01*
X197923Y-161901D01*
X198674Y-161400D01*
X199175Y-160649D01*
X199352Y-159763D01*
X199175Y-158877D01*
X198674Y-158126D01*
X197923Y-157625D01*
X197037Y-157448D01*
D02*
G37*
G36*
X241500Y-146591D02*
X241032Y-146685D01*
X240635Y-146950D01*
X240370Y-147347D01*
X240277Y-147815D01*
X240370Y-148283D01*
X240635Y-148680D01*
X241032Y-148945D01*
X241500Y-149039D01*
X241968Y-148945D01*
X242365Y-148680D01*
X242630Y-148283D01*
X242723Y-147815D01*
X242630Y-147347D01*
X242365Y-146950D01*
X241968Y-146685D01*
X241500Y-146591D01*
D02*
G37*
G36*
X209000Y-152092D02*
X208532Y-152185D01*
X208135Y-152450D01*
X207870Y-152847D01*
X207776Y-153315D01*
X207870Y-153783D01*
X208135Y-154180D01*
X208532Y-154445D01*
X209000Y-154539D01*
X209468Y-154445D01*
X209865Y-154180D01*
X210130Y-153783D01*
X210224Y-153315D01*
X210130Y-152847D01*
X209865Y-152450D01*
X209468Y-152185D01*
X209000Y-152092D01*
D02*
G37*
G36*
X252500Y-149378D02*
X251759Y-149525D01*
X251130Y-149945D01*
X250710Y-150574D01*
X250563Y-151315D01*
X250710Y-152056D01*
X251130Y-152685D01*
X251759Y-153105D01*
X252500Y-153252D01*
X253241Y-153105D01*
X253870Y-152685D01*
X254290Y-152056D01*
X254437Y-151315D01*
X254290Y-150574D01*
X253870Y-149945D01*
X253241Y-149525D01*
X252500Y-149378D01*
D02*
G37*
G36*
X233037Y-150540D02*
X232569Y-150633D01*
X232172Y-150898D01*
X231907Y-151295D01*
X231814Y-151763D01*
X231907Y-152231D01*
X232172Y-152628D01*
X232569Y-152893D01*
X233037Y-152987D01*
X233505Y-152893D01*
X233902Y-152628D01*
X234167Y-152231D01*
X234261Y-151763D01*
X234167Y-151295D01*
X233902Y-150898D01*
X233505Y-150633D01*
X233037Y-150540D01*
D02*
G37*
G36*
X243783Y-159915D02*
Y-160531D01*
X244400D01*
X244153Y-160162D01*
X243783Y-159915D01*
D02*
G37*
G36*
X252637Y-162440D02*
X252169Y-162533D01*
X251772Y-162798D01*
X251507Y-163195D01*
X251142Y-163346D01*
X251105Y-163322D01*
X250637Y-163228D01*
X250169Y-163322D01*
X249772Y-163587D01*
X249507Y-163984D01*
X249413Y-164452D01*
X249507Y-164920D01*
X249772Y-165317D01*
X250169Y-165582D01*
X250637Y-165675D01*
X251105Y-165582D01*
X251502Y-165317D01*
X251767Y-164920D01*
X252132Y-164769D01*
X252169Y-164793D01*
X252637Y-164886D01*
X253105Y-164793D01*
X253343Y-165149D01*
X253370Y-165283D01*
X253635Y-165680D01*
X254032Y-165945D01*
X254500Y-166039D01*
X254968Y-165945D01*
X255365Y-165680D01*
X255630Y-165283D01*
X255724Y-164815D01*
X255630Y-164347D01*
X255365Y-163950D01*
X254968Y-163685D01*
X254500Y-163592D01*
X254032Y-163685D01*
X253794Y-163329D01*
X253767Y-163195D01*
X253502Y-162798D01*
X253105Y-162533D01*
X252637Y-162440D01*
D02*
G37*
G36*
X241783Y-162531D02*
X241166D01*
X241414Y-162901D01*
X241783Y-163148D01*
Y-162531D01*
D02*
G37*
G36*
X244400D02*
X243783D01*
Y-163148D01*
X244153Y-162901D01*
X244400Y-162531D01*
D02*
G37*
G36*
X230837Y-161440D02*
X230369Y-161533D01*
X229972Y-161798D01*
X229707Y-162195D01*
X229613Y-162663D01*
X229707Y-163131D01*
X229972Y-163528D01*
X230369Y-163793D01*
X230837Y-163886D01*
X231305Y-163793D01*
X231702Y-163528D01*
X231967Y-163131D01*
X232061Y-162663D01*
X231967Y-162195D01*
X231702Y-161798D01*
X231305Y-161533D01*
X230837Y-161440D01*
D02*
G37*
G36*
X226737Y-161539D02*
X226269Y-161633D01*
X225872Y-161898D01*
X225607Y-162295D01*
X225514Y-162763D01*
X225607Y-163231D01*
X225872Y-163628D01*
X226269Y-163893D01*
X226737Y-163987D01*
X227205Y-163893D01*
X227602Y-163628D01*
X227867Y-163231D01*
X227960Y-162763D01*
X227867Y-162295D01*
X227602Y-161898D01*
X227205Y-161633D01*
X226737Y-161539D01*
D02*
G37*
G36*
X185000Y-155340D02*
X184532Y-155433D01*
X184135Y-155698D01*
X183870Y-156095D01*
X183776Y-156563D01*
X183870Y-157031D01*
X184135Y-157428D01*
Y-157824D01*
X183870Y-158221D01*
X183776Y-158689D01*
X183870Y-159157D01*
X184135Y-159554D01*
Y-159950D01*
X183870Y-160347D01*
X183776Y-160815D01*
X183870Y-161283D01*
X184135Y-161680D01*
X184532Y-161945D01*
X185000Y-162039D01*
X185468Y-161945D01*
X185865Y-161680D01*
X186130Y-161283D01*
X186223Y-160815D01*
X186130Y-160347D01*
X185865Y-159950D01*
Y-159554D01*
X186130Y-159157D01*
X186223Y-158689D01*
X186130Y-158221D01*
X185865Y-157824D01*
Y-157428D01*
X186130Y-157031D01*
X186223Y-156563D01*
X186130Y-156095D01*
X185865Y-155698D01*
X185468Y-155433D01*
X185000Y-155340D01*
D02*
G37*
G36*
X252737Y-156439D02*
X252269Y-156533D01*
X251872Y-156798D01*
X251607Y-157195D01*
X251514Y-157663D01*
X251607Y-158131D01*
X251872Y-158528D01*
X252269Y-158793D01*
X252737Y-158887D01*
X252737Y-158887D01*
X252737Y-158887D01*
X253257Y-159048D01*
X253390Y-159181D01*
X253313Y-159563D01*
X253407Y-160031D01*
X253672Y-160428D01*
X254069Y-160693D01*
X254537Y-160786D01*
X255005Y-160693D01*
X255402Y-160428D01*
X255667Y-160031D01*
X255761Y-159563D01*
X255667Y-159095D01*
X255402Y-158698D01*
X255005Y-158433D01*
X254537Y-158340D01*
X254261Y-158394D01*
X254177Y-158338D01*
X253885Y-158045D01*
X253960Y-157663D01*
X253867Y-157195D01*
X253602Y-156798D01*
X253205Y-156533D01*
X252737Y-156439D01*
D02*
G37*
G36*
X225000Y-158091D02*
X224532Y-158185D01*
X224135Y-158450D01*
X223870Y-158847D01*
X223777Y-159315D01*
X223870Y-159783D01*
X224135Y-160180D01*
X224532Y-160445D01*
X225000Y-160538D01*
X225468Y-160445D01*
X225865Y-160180D01*
X226130Y-159783D01*
X226223Y-159315D01*
X226130Y-158847D01*
X225865Y-158450D01*
X225468Y-158185D01*
X225000Y-158091D01*
D02*
G37*
G36*
X241783Y-159915D02*
X241414Y-160162D01*
X241166Y-160531D01*
X241783D01*
Y-159915D01*
D02*
G37*
G36*
X210500Y-158541D02*
X210032Y-158634D01*
X209635Y-158899D01*
X209370Y-159296D01*
X209277Y-159764D01*
X209370Y-160233D01*
X209635Y-160629D01*
X210032Y-160895D01*
X210500Y-160988D01*
X210968Y-160895D01*
X211365Y-160629D01*
X211630Y-160233D01*
X211723Y-159764D01*
X211630Y-159296D01*
X211365Y-158899D01*
X210968Y-158634D01*
X210500Y-158541D01*
D02*
G37*
G36*
X205500Y-159591D02*
X205032Y-159685D01*
X204635Y-159950D01*
X204370Y-160347D01*
X204276Y-160815D01*
X204370Y-161283D01*
X204635Y-161680D01*
X205032Y-161945D01*
X205500Y-162039D01*
X205968Y-161945D01*
X206365Y-161680D01*
X206630Y-161283D01*
X206723Y-160815D01*
X206630Y-160347D01*
X206365Y-159950D01*
X205968Y-159685D01*
X205500Y-159591D01*
D02*
G37*
G36*
X237500Y-159091D02*
X237032Y-159185D01*
X236635Y-159450D01*
X236370Y-159847D01*
X236277Y-160315D01*
X236370Y-160783D01*
X236635Y-161180D01*
X237032Y-161445D01*
X237500Y-161539D01*
X237968Y-161445D01*
X238365Y-161180D01*
X238630Y-160783D01*
X238723Y-160315D01*
X238630Y-159847D01*
X238365Y-159450D01*
X237968Y-159185D01*
X237500Y-159091D01*
D02*
G37*
G36*
X259000Y-160091D02*
X258532Y-160185D01*
X258135Y-160450D01*
X257870Y-160847D01*
X257792Y-161235D01*
X257330Y-161427D01*
X256968Y-161185D01*
X256500Y-161091D01*
X256032Y-161185D01*
X255635Y-161450D01*
X255370Y-161847D01*
X255276Y-162315D01*
X255370Y-162783D01*
X255635Y-163180D01*
X256032Y-163445D01*
X256500Y-163539D01*
X256968Y-163445D01*
X257365Y-163180D01*
X257630Y-162783D01*
X257708Y-162395D01*
X258170Y-162203D01*
X258532Y-162445D01*
X259000Y-162539D01*
X259468Y-162445D01*
X259865Y-162180D01*
X260130Y-161783D01*
X260224Y-161315D01*
X260130Y-160847D01*
X259865Y-160450D01*
X259468Y-160185D01*
X259000Y-160091D01*
D02*
G37*
G36*
X283000Y-63198D02*
Y-63815D01*
X283617D01*
X283370Y-63445D01*
X283000Y-63198D01*
D02*
G37*
G36*
X281000D02*
X280630Y-63445D01*
X280383Y-63815D01*
X281000D01*
Y-63198D01*
D02*
G37*
G36*
X264000Y-76198D02*
X263630Y-76445D01*
X263383Y-76815D01*
X264000D01*
Y-76198D01*
D02*
G37*
G36*
X266000D02*
Y-76815D01*
X266617D01*
X266370Y-76445D01*
X266000Y-76198D01*
D02*
G37*
G36*
X313984Y-6576D02*
X313516Y-6669D01*
X313119Y-6934D01*
X312854Y-7331D01*
X312761Y-7799D01*
X312854Y-8267D01*
X313119Y-8664D01*
X313516Y-8930D01*
X313984Y-9023D01*
X314453Y-8930D01*
X314849Y-8664D01*
X315115Y-8267D01*
X315208Y-7799D01*
X315115Y-7331D01*
X314849Y-6934D01*
X314453Y-6669D01*
X313984Y-6576D01*
D02*
G37*
G36*
X21959Y-80530D02*
X21490Y-80623D01*
X21094Y-80888D01*
X20828Y-81285D01*
X20735Y-81753D01*
X20828Y-82222D01*
X21094Y-82619D01*
X21490Y-82884D01*
X21959Y-82977D01*
X22427Y-82884D01*
X22824Y-82619D01*
X23089Y-82222D01*
X23182Y-81753D01*
X23089Y-81285D01*
X22824Y-80888D01*
X22427Y-80623D01*
X21959Y-80530D01*
D02*
G37*
G36*
X65153Y-84015D02*
X64684Y-84108D01*
X64288Y-84373D01*
X64022Y-84770D01*
X63929Y-85238D01*
X64022Y-85707D01*
X64288Y-86104D01*
X64684Y-86369D01*
X65153Y-86462D01*
X65621Y-86369D01*
X66018Y-86104D01*
X66283Y-85707D01*
X66376Y-85238D01*
X66283Y-84770D01*
X66018Y-84373D01*
X65621Y-84108D01*
X65153Y-84015D01*
D02*
G37*
G36*
X60699Y-88469D02*
X60230Y-88562D01*
X59834Y-88827D01*
X59568Y-89224D01*
X59475Y-89692D01*
X59568Y-90161D01*
X59834Y-90558D01*
X60230Y-90823D01*
X60699Y-90916D01*
X61167Y-90823D01*
X61564Y-90558D01*
X61829Y-90161D01*
X61922Y-89692D01*
X61829Y-89224D01*
X61564Y-88827D01*
X61167Y-88562D01*
X60699Y-88469D01*
D02*
G37*
G36*
X22559Y-77630D02*
X22091Y-77723D01*
X21694Y-77988D01*
X21428Y-78385D01*
X21335Y-78853D01*
X21428Y-79322D01*
X21694Y-79719D01*
X22091Y-79984D01*
X22559Y-80077D01*
X23027Y-79984D01*
X23424Y-79719D01*
X23689Y-79322D01*
X23782Y-78853D01*
X23689Y-78385D01*
X23424Y-77988D01*
X23027Y-77723D01*
X22559Y-77630D01*
D02*
G37*
G36*
X56245Y-92923D02*
X55777Y-93016D01*
X55380Y-93281D01*
X55114Y-93678D01*
X55021Y-94147D01*
X55114Y-94615D01*
X55380Y-95012D01*
X55777Y-95277D01*
X56245Y-95370D01*
X56713Y-95277D01*
X57110Y-95012D01*
X57375Y-94615D01*
X57468Y-94147D01*
X57375Y-93678D01*
X57110Y-93281D01*
X56713Y-93016D01*
X56245Y-92923D01*
D02*
G37*
G36*
X56659Y-34430D02*
X56191Y-34523D01*
X55794Y-34788D01*
X55528Y-35185D01*
X55435Y-35653D01*
X55528Y-36122D01*
X55794Y-36519D01*
X56191Y-36784D01*
X56659Y-36877D01*
X57127Y-36784D01*
X57524Y-36519D01*
X57789Y-36122D01*
X57882Y-35653D01*
X57789Y-35185D01*
X57524Y-34788D01*
X57127Y-34523D01*
X56659Y-34430D01*
D02*
G37*
G36*
X53659Y-37330D02*
X53190Y-37423D01*
X52794Y-37688D01*
X52528Y-38085D01*
X52435Y-38554D01*
X52528Y-39022D01*
X52794Y-39419D01*
X53190Y-39684D01*
X53659Y-39777D01*
X54127Y-39684D01*
X54524Y-39419D01*
X54789Y-39022D01*
X54882Y-38554D01*
X54789Y-38085D01*
X54524Y-37688D01*
X54127Y-37423D01*
X53659Y-37330D01*
D02*
G37*
G36*
X59559Y-31430D02*
X59091Y-31523D01*
X58694Y-31788D01*
X58428Y-32185D01*
X58335Y-32653D01*
X58428Y-33122D01*
X58694Y-33519D01*
X59091Y-33784D01*
X59559Y-33877D01*
X60027Y-33784D01*
X60424Y-33519D01*
X60689Y-33122D01*
X60782Y-32653D01*
X60689Y-32185D01*
X60424Y-31788D01*
X60027Y-31523D01*
X59559Y-31430D01*
D02*
G37*
G36*
X62659Y-28430D02*
X62191Y-28523D01*
X61794Y-28788D01*
X61528Y-29185D01*
X61435Y-29653D01*
X61528Y-30122D01*
X61794Y-30519D01*
X62191Y-30784D01*
X62659Y-30877D01*
X63127Y-30784D01*
X63524Y-30519D01*
X63789Y-30122D01*
X63882Y-29653D01*
X63789Y-29185D01*
X63524Y-28788D01*
X63127Y-28523D01*
X62659Y-28430D01*
D02*
G37*
G36*
X44664Y-63526D02*
X44196Y-63619D01*
X43799Y-63884D01*
X43533Y-64281D01*
X43440Y-64749D01*
X43533Y-65218D01*
X43799Y-65615D01*
X44196Y-65880D01*
X44664Y-65973D01*
X45132Y-65880D01*
X45529Y-65615D01*
X45794Y-65218D01*
X45887Y-64749D01*
X45794Y-64281D01*
X45529Y-63884D01*
X45132Y-63619D01*
X44664Y-63526D01*
D02*
G37*
G36*
X87424Y-61744D02*
X86955Y-61837D01*
X86559Y-62102D01*
X86293Y-62499D01*
X86200Y-62967D01*
X86293Y-63436D01*
X86559Y-63833D01*
X86955Y-64098D01*
X87424Y-64191D01*
X87892Y-64098D01*
X88289Y-63833D01*
X88554Y-63436D01*
X88647Y-62967D01*
X88554Y-62499D01*
X88289Y-62102D01*
X87892Y-61837D01*
X87424Y-61744D01*
D02*
G37*
G36*
X77191Y-62785D02*
X76723Y-62878D01*
X76326Y-63143D01*
X76060Y-63540D01*
X75967Y-64008D01*
X76060Y-64477D01*
X76326Y-64874D01*
X76723Y-65139D01*
X77191Y-65232D01*
X77659Y-65139D01*
X78056Y-64874D01*
X78321Y-64477D01*
X78414Y-64008D01*
X78321Y-63540D01*
X78056Y-63143D01*
X77659Y-62878D01*
X77191Y-62785D01*
D02*
G37*
G36*
X74759Y-60230D02*
X74291Y-60323D01*
X73894Y-60588D01*
X73628Y-60985D01*
X73535Y-61453D01*
X73628Y-61922D01*
X73894Y-62319D01*
X74291Y-62584D01*
X74759Y-62677D01*
X75227Y-62584D01*
X75624Y-62319D01*
X75889Y-61922D01*
X75982Y-61453D01*
X75889Y-60985D01*
X75624Y-60588D01*
X75227Y-60323D01*
X74759Y-60230D01*
D02*
G37*
G36*
X89566Y-59431D02*
X89097Y-59524D01*
X88701Y-59789D01*
X88435Y-60186D01*
X88342Y-60654D01*
X88435Y-61123D01*
X88701Y-61520D01*
X89097Y-61785D01*
X89566Y-61878D01*
X90034Y-61785D01*
X90431Y-61520D01*
X90696Y-61123D01*
X90789Y-60654D01*
X90696Y-60186D01*
X90431Y-59789D01*
X90034Y-59524D01*
X89566Y-59431D01*
D02*
G37*
G36*
X35459Y-61030D02*
X34991Y-61123D01*
X34594Y-61388D01*
X34328Y-61785D01*
X34235Y-62253D01*
X34328Y-62722D01*
X34594Y-63119D01*
X34991Y-63384D01*
X35459Y-63477D01*
X35927Y-63384D01*
X36324Y-63119D01*
X36589Y-62722D01*
X36682Y-62253D01*
X36589Y-61785D01*
X36324Y-61388D01*
X35927Y-61123D01*
X35459Y-61030D01*
D02*
G37*
G36*
X57039Y-60310D02*
X56571Y-60403D01*
X56174Y-60668D01*
X55908Y-61065D01*
X55815Y-61533D01*
X55908Y-62002D01*
X56174Y-62399D01*
X56571Y-62664D01*
X57039Y-62757D01*
X57507Y-62664D01*
X57904Y-62399D01*
X58169Y-62002D01*
X58262Y-61533D01*
X58169Y-61065D01*
X57904Y-60668D01*
X57507Y-60403D01*
X57039Y-60310D01*
D02*
G37*
G36*
X35825Y-72504D02*
X35357Y-72597D01*
X34960Y-72862D01*
X34694Y-73259D01*
X34601Y-73728D01*
X34694Y-74196D01*
X34960Y-74593D01*
X35357Y-74858D01*
X35825Y-74951D01*
X36293Y-74858D01*
X36690Y-74593D01*
X36955Y-74196D01*
X37048Y-73728D01*
X36955Y-73259D01*
X36690Y-72862D01*
X36293Y-72597D01*
X35825Y-72504D01*
D02*
G37*
G36*
X76459Y-73030D02*
X75990Y-73123D01*
X75594Y-73388D01*
X75328Y-73785D01*
X75235Y-74253D01*
X75328Y-74722D01*
X75594Y-75119D01*
X75990Y-75384D01*
X76459Y-75477D01*
X76927Y-75384D01*
X77324Y-75119D01*
X77589Y-74722D01*
X77682Y-74253D01*
X77589Y-73785D01*
X77324Y-73388D01*
X76927Y-73123D01*
X76459Y-73030D01*
D02*
G37*
G36*
X28259Y-71330D02*
X27790Y-71423D01*
X27394Y-71688D01*
X27128Y-72085D01*
X27035Y-72553D01*
X27128Y-73022D01*
X27394Y-73419D01*
X27790Y-73684D01*
X28259Y-73777D01*
X28727Y-73684D01*
X29124Y-73419D01*
X29389Y-73022D01*
X29482Y-72553D01*
X29389Y-72085D01*
X29124Y-71688D01*
X28727Y-71423D01*
X28259Y-71330D01*
D02*
G37*
G36*
X57297Y-70092D02*
X56828Y-70185D01*
X56432Y-70450D01*
X56166Y-70847D01*
X56073Y-71315D01*
X56166Y-71784D01*
X56432Y-72181D01*
X56828Y-72446D01*
X56859Y-72598D01*
X56836Y-72613D01*
X56570Y-73010D01*
X56477Y-73479D01*
X56570Y-73947D01*
X56836Y-74344D01*
X57232Y-74609D01*
X57701Y-74702D01*
X58169Y-74609D01*
X58566Y-74344D01*
X58831Y-73947D01*
X58924Y-73479D01*
X58831Y-73010D01*
X58566Y-72613D01*
X58169Y-72348D01*
X58139Y-72196D01*
X58162Y-72181D01*
X58427Y-71784D01*
X58520Y-71315D01*
X58427Y-70847D01*
X58162Y-70450D01*
X57765Y-70185D01*
X57297Y-70092D01*
D02*
G37*
G36*
X25359Y-74330D02*
X24891Y-74423D01*
X24494Y-74688D01*
X24228Y-75085D01*
X24135Y-75554D01*
X24228Y-76022D01*
X24494Y-76419D01*
X24891Y-76684D01*
X25359Y-76777D01*
X25827Y-76684D01*
X26224Y-76419D01*
X26489Y-76022D01*
X26582Y-75554D01*
X26489Y-75085D01*
X26224Y-74688D01*
X25827Y-74423D01*
X25359Y-74330D01*
D02*
G37*
G36*
X40318Y-68088D02*
X39849Y-68181D01*
X39453Y-68446D01*
X39187Y-68843D01*
X39094Y-69311D01*
X39187Y-69780D01*
X39453Y-70177D01*
X39849Y-70442D01*
X40318Y-70535D01*
X40786Y-70442D01*
X41183Y-70177D01*
X41448Y-69780D01*
X41541Y-69311D01*
X41448Y-68843D01*
X41183Y-68446D01*
X40786Y-68181D01*
X40318Y-68088D01*
D02*
G37*
G36*
X31359Y-68330D02*
X30891Y-68423D01*
X30494Y-68688D01*
X30228Y-69085D01*
X30135Y-69554D01*
X30228Y-70022D01*
X30494Y-70419D01*
X30891Y-70684D01*
X31359Y-70777D01*
X31827Y-70684D01*
X32224Y-70419D01*
X32489Y-70022D01*
X32582Y-69554D01*
X32489Y-69085D01*
X32224Y-68688D01*
X31827Y-68423D01*
X31359Y-68330D01*
D02*
G37*
G36*
X50447Y-66618D02*
X49979Y-66711D01*
X49582Y-66976D01*
X49316Y-67373D01*
X49223Y-67842D01*
X49316Y-68310D01*
X49582Y-68707D01*
X49979Y-68972D01*
X50447Y-69065D01*
X50915Y-68972D01*
X51312Y-68707D01*
X51577Y-68310D01*
X51670Y-67842D01*
X51577Y-67373D01*
X51312Y-66976D01*
X50915Y-66711D01*
X50447Y-66618D01*
D02*
G37*
G36*
X72595Y-67130D02*
X72127Y-67223D01*
X71730Y-67488D01*
X71464Y-67885D01*
X71371Y-68353D01*
X71464Y-68822D01*
X71730Y-69219D01*
X72127Y-69484D01*
X72595Y-69577D01*
X73063Y-69484D01*
X73460Y-69219D01*
X73725Y-68822D01*
X73818Y-68353D01*
X73725Y-67885D01*
X73460Y-67488D01*
X73063Y-67223D01*
X72595Y-67130D01*
D02*
G37*
G36*
X78516Y-70652D02*
X78048Y-70745D01*
X77651Y-71010D01*
X77385Y-71407D01*
X77292Y-71876D01*
X77385Y-72344D01*
X77651Y-72741D01*
X78048Y-73006D01*
X78516Y-73099D01*
X78984Y-73006D01*
X79381Y-72741D01*
X79646Y-72344D01*
X79739Y-71876D01*
X79646Y-71407D01*
X79381Y-71010D01*
X78984Y-70745D01*
X78516Y-70652D01*
D02*
G37*
G36*
X62018Y-70330D02*
X61550Y-70423D01*
X61153Y-70688D01*
X60887Y-71085D01*
X60794Y-71553D01*
X60887Y-72022D01*
X61153Y-72419D01*
X61550Y-72684D01*
X62018Y-72777D01*
X62486Y-72684D01*
X62883Y-72419D01*
X63148Y-72022D01*
X63241Y-71553D01*
X63148Y-71085D01*
X62883Y-70688D01*
X62486Y-70423D01*
X62018Y-70330D01*
D02*
G37*
G36*
X74737Y-47008D02*
X74269Y-47101D01*
X73872Y-47366D01*
X73606Y-47763D01*
X73513Y-48232D01*
X73606Y-48700D01*
X73872Y-49097D01*
X74269Y-49362D01*
X74737Y-49455D01*
X75205Y-49362D01*
X75602Y-49097D01*
X75867Y-48700D01*
X75960Y-48232D01*
X75867Y-47763D01*
X75602Y-47366D01*
X75205Y-47101D01*
X74737Y-47008D01*
D02*
G37*
G36*
X60255Y-47936D02*
X59786Y-48029D01*
X59390Y-48294D01*
X59124Y-48691D01*
X59031Y-49160D01*
X59124Y-49628D01*
X59390Y-50025D01*
X59786Y-50290D01*
X60255Y-50383D01*
X60723Y-50290D01*
X61120Y-50025D01*
X61385Y-49628D01*
X61478Y-49160D01*
X61385Y-48691D01*
X61120Y-48294D01*
X60723Y-48029D01*
X60255Y-47936D01*
D02*
G37*
G36*
X53859Y-41030D02*
X53391Y-41123D01*
X52994Y-41388D01*
X52728Y-41785D01*
X52635Y-42254D01*
X52728Y-42722D01*
X52994Y-43119D01*
X53391Y-43384D01*
X53859Y-43477D01*
X54327Y-43384D01*
X54724Y-43119D01*
X54989Y-42722D01*
X55082Y-42254D01*
X54989Y-41785D01*
X54724Y-41388D01*
X54327Y-41123D01*
X53859Y-41030D01*
D02*
G37*
G36*
X68232Y-40663D02*
X67764Y-40756D01*
X67367Y-41021D01*
X67101Y-41418D01*
X67008Y-41886D01*
X67101Y-42355D01*
X67367Y-42752D01*
X67764Y-43017D01*
X68232Y-43110D01*
X68700Y-43017D01*
X69097Y-42752D01*
X69362Y-42355D01*
X69455Y-41886D01*
X69362Y-41418D01*
X69097Y-41021D01*
X68700Y-40756D01*
X68232Y-40663D01*
D02*
G37*
G36*
X63056Y-45485D02*
X62703Y-45838D01*
X62587Y-45815D01*
X62119Y-45908D01*
X61722Y-46173D01*
X61456Y-46570D01*
X61363Y-47038D01*
X61456Y-47507D01*
X61722Y-47904D01*
X62119Y-48169D01*
X62587Y-48262D01*
X63055Y-48169D01*
X63452Y-47904D01*
X63717Y-47507D01*
X63810Y-47038D01*
X63740Y-46684D01*
X64093Y-46331D01*
X63741Y-46261D01*
X63546Y-46130D01*
X63345Y-45996D01*
X63079Y-45599D01*
X63056Y-45485D01*
D02*
G37*
G36*
X35759Y-54130D02*
X35291Y-54223D01*
X34894Y-54488D01*
X34628Y-54885D01*
X34535Y-55353D01*
X34628Y-55822D01*
X34894Y-56219D01*
X35291Y-56484D01*
X35759Y-56577D01*
X36227Y-56484D01*
X36624Y-56219D01*
X36889Y-55822D01*
X36982Y-55353D01*
X36889Y-54885D01*
X36624Y-54488D01*
X36227Y-54223D01*
X35759Y-54130D01*
D02*
G37*
G36*
X52459Y-54530D02*
X51990Y-54623D01*
X51594Y-54888D01*
X51328Y-55285D01*
X51235Y-55753D01*
X51328Y-56222D01*
X51594Y-56619D01*
X51990Y-56884D01*
X52459Y-56977D01*
X52927Y-56884D01*
X53324Y-56619D01*
X53589Y-56222D01*
X53682Y-55753D01*
X53589Y-55285D01*
X53324Y-54888D01*
X52927Y-54623D01*
X52459Y-54530D01*
D02*
G37*
G36*
X32359Y-57330D02*
X31890Y-57423D01*
X31494Y-57688D01*
X31228Y-58085D01*
X31135Y-58553D01*
X31228Y-59022D01*
X31494Y-59419D01*
X31890Y-59684D01*
X32359Y-59777D01*
X32827Y-59684D01*
X33224Y-59419D01*
X33489Y-59022D01*
X33582Y-58553D01*
X33489Y-58085D01*
X33224Y-57688D01*
X32827Y-57423D01*
X32359Y-57330D01*
D02*
G37*
G36*
X65837Y-51639D02*
X65369Y-51733D01*
X64972Y-51998D01*
X64707Y-52395D01*
X64613Y-52863D01*
X64707Y-53331D01*
X64972Y-53728D01*
X65369Y-53993D01*
X65837Y-54087D01*
X66305Y-53993D01*
X66702Y-53728D01*
X66967Y-53331D01*
X67061Y-52863D01*
X66967Y-52395D01*
X66702Y-51998D01*
X66305Y-51733D01*
X65837Y-51639D01*
D02*
G37*
G36*
X38759Y-51130D02*
X38291Y-51223D01*
X37894Y-51488D01*
X37628Y-51885D01*
X37535Y-52354D01*
X37628Y-52822D01*
X37894Y-53219D01*
X38291Y-53484D01*
X38759Y-53577D01*
X39227Y-53484D01*
X39624Y-53219D01*
X39889Y-52822D01*
X39982Y-52354D01*
X39889Y-51885D01*
X39624Y-51488D01*
X39227Y-51223D01*
X38759Y-51130D01*
D02*
G37*
G36*
X55941Y-52532D02*
X55472Y-52625D01*
X55076Y-52890D01*
X54810Y-53287D01*
X54717Y-53755D01*
X54810Y-54224D01*
X55076Y-54621D01*
X55472Y-54886D01*
X55941Y-54979D01*
X56409Y-54886D01*
X56806Y-54621D01*
X57071Y-54224D01*
X57164Y-53755D01*
X57071Y-53287D01*
X56806Y-52890D01*
X56409Y-52625D01*
X55941Y-52532D01*
D02*
G37*
%LPD*%
D43*
X271000Y-15815D02*
X276000Y-20815D01*
X271000Y-15815D02*
Y-11465D01*
X276000Y-54315D02*
Y-20815D01*
X206137Y-35678D02*
X213500Y-28315D01*
X264000Y-125315D02*
X267000Y-128315D01*
X273500D01*
X281343Y-120472D01*
X300000D01*
X280114Y-134315D02*
X283957Y-130472D01*
X259000Y-134315D02*
X280114D01*
X254707Y-130022D02*
X259000Y-134315D01*
X254707Y-130022D02*
Y-126722D01*
X283000Y-54815D02*
X298500Y-70315D01*
X257500Y-54815D02*
X283000D01*
X252163Y-49478D02*
X257500Y-54815D01*
X282957Y-70972D02*
X285957D01*
X281957Y-71972D02*
X282957Y-70972D01*
X281957Y-78472D02*
Y-71972D01*
X276500Y-84429D02*
X279457Y-81472D01*
X276500Y-112339D02*
Y-84429D01*
X310827Y-87642D02*
X316157Y-82313D01*
X304173Y-87642D02*
X310827D01*
X300000Y-91815D02*
X304173Y-87642D01*
X313000Y-70315D02*
X316157Y-73472D01*
X298500Y-70315D02*
X313000D01*
X316157Y-82313D02*
Y-73472D01*
X261000Y-79815D02*
X262500D01*
X300000Y-120472D02*
X306457D01*
X286500Y-47846D02*
Y-47815D01*
X326457Y-128972D02*
X327957Y-127472D01*
X314957Y-128972D02*
X326457D01*
X327957Y-127472D02*
Y-124472D01*
X251000Y-79815D02*
X261000D01*
X303457Y-26315D02*
Y-20272D01*
Y-57972D02*
Y-26315D01*
X328031Y-22783D02*
Y-9783D01*
X324500Y-26315D02*
X328031Y-22783D01*
X303457Y-26315D02*
X324500D01*
X286500Y-47815D02*
X303457D01*
X298750Y-15565D02*
X303457Y-20272D01*
X122500Y-26115D02*
X126700Y-30315D01*
X164500D01*
X168500Y-26315D01*
X173000D01*
X305707Y-119722D02*
Y-112722D01*
X306457Y-120472D02*
X314957Y-128972D01*
X195852Y-79463D02*
X206137Y-69178D01*
X184737Y-79463D02*
X195852D01*
X300000Y-120472D02*
Y-91815D01*
X276500Y-112339D02*
X278795Y-114634D01*
X279476Y-115315D01*
X281957Y-78472D02*
X285457Y-81972D01*
X305457D01*
X206137Y-69178D02*
Y-35678D01*
X184595Y-145220D02*
X185000Y-144815D01*
X252163Y-48815D02*
Y-46815D01*
D45*
X213500Y-21315D02*
Y-15815D01*
X242783Y-161531D02*
X244957Y-159358D01*
X267500Y-64815D02*
X282000D01*
X167792Y-117522D02*
X175900Y-109415D01*
X156500Y-136815D02*
Y-122815D01*
X161793Y-117522D02*
X167792D01*
X156500Y-122815D02*
X161793Y-117522D01*
X262500Y-69815D02*
X267500Y-64815D01*
X43700Y-147615D02*
Y-119615D01*
X104000Y-59315D02*
Y-43315D01*
X43700Y-119615D02*
X104000Y-59315D01*
X72500Y-11815D02*
X104000Y-43315D01*
X22468Y-148315D02*
X82000D01*
X54500Y-1315D02*
X72500D01*
Y-11815D02*
Y-1315D01*
X179500Y-167315D02*
Y-151200D01*
Y-169315D02*
Y-167315D01*
X113500Y-179276D02*
X125461Y-167315D01*
X179500D01*
X262500Y-113315D02*
X266000D01*
X259000D02*
X262500D01*
X266000D02*
X268000Y-115315D01*
X165207Y-108722D02*
X170092D01*
X146500Y-101815D02*
X157808Y-113122D01*
X125500Y-101815D02*
X146500D01*
X96500Y-148815D02*
Y-130815D01*
X125500Y-101815D01*
X93400Y-151915D02*
X96500Y-148815D01*
X84792Y-151915D02*
X93400D01*
X68500Y-156315D02*
X100000D01*
X82000Y-149123D02*
X84792Y-151915D01*
X82000Y-149123D02*
Y-148315D01*
X175900Y-109415D02*
X223900D01*
X179500Y-151200D02*
X185037Y-145663D01*
X161500Y-78815D02*
X163000Y-77315D01*
X161500Y-81815D02*
Y-78815D01*
Y-81815D02*
X166500Y-86815D01*
X177385D01*
X184737Y-79463D01*
X45437Y-13063D02*
Y-10378D01*
X54500Y-1315D01*
X22468Y-148315D02*
Y-133346D01*
X12500Y-177315D02*
Y-170315D01*
X22468Y-160346D01*
X159500Y-11315D02*
X171000Y185D01*
X67000Y-157815D02*
X68500Y-156315D01*
X67000Y-160815D02*
Y-157815D01*
X149400Y-143915D02*
X156500Y-136815D01*
X100000Y-156315D02*
X112400Y-143915D01*
X149400D01*
X211500Y-80815D02*
Y-61815D01*
X206500Y-85815D02*
X211500Y-80815D01*
X187500Y-85815D02*
X206500D01*
X179500Y-99315D02*
Y-93815D01*
X170092Y-108722D02*
X179500Y-99315D01*
X211500Y-61815D02*
X222500Y-50815D01*
X179500Y-93815D02*
X187500Y-85815D01*
X223900Y-109415D02*
X225707Y-111222D01*
X105000Y-4815D02*
X111500Y-11315D01*
X105000Y-4815D02*
Y685D01*
X111500Y-11315D02*
X159500D01*
X91000Y-1315D02*
X93000Y-3315D01*
X72500Y-1315D02*
X91000D01*
X213500Y-21315D02*
X222500Y-30315D01*
Y-50815D02*
Y-30315D01*
X198500Y185D02*
X202500Y-3815D01*
X209500D01*
X171000Y185D02*
X198500D01*
X244957Y-119358D02*
X251000Y-113315D01*
X259000D01*
X179500Y-169315D02*
X185500Y-175315D01*
X229000D01*
X22468Y-160346D02*
Y-157722D01*
Y-148315D01*
X92750Y-3565D02*
X93000Y-3815D01*
X157808Y-113122D02*
X165637D01*
X165970D01*
X229000Y-175315D02*
X237750Y-166565D01*
X242783Y-161531D01*
X244957Y-159358D02*
Y-121815D01*
Y-120315D01*
X242500D02*
X244000D01*
X244957D02*
Y-119358D01*
X244000Y-120315D02*
X244250Y-120065D01*
X244957Y-119358D01*
X262500Y-113315D02*
Y-79815D01*
Y-77815D01*
Y-69815D01*
X231000Y-12815D02*
X238000D01*
X245300D01*
X248650Y-16165D02*
X248800Y-16315D01*
X245300Y-12815D02*
X248650Y-16165D01*
D46*
X108000Y-21315D02*
X202000D01*
X204700Y-18615D01*
Y-11115D01*
X205000Y-10815D01*
X90000Y-21315D02*
X108000D01*
X93000Y-134030D02*
Y-79315D01*
X108000Y-64315D01*
Y-21315D01*
X85500Y-147815D02*
X86193Y-147122D01*
Y-140622D01*
X86408D01*
X93000Y-134030D01*
X81000Y-12315D02*
Y-6815D01*
Y-12315D02*
X90000Y-21315D01*
X311457Y-154972D02*
Y-145472D01*
X312957Y-143972D01*
X316957D01*
X280457Y-153472D02*
X284957Y-157972D01*
X308457D02*
X309957Y-156472D01*
X311457Y-154972D01*
X280457Y-153472D02*
Y-142272D01*
X279000Y-140815D02*
X280457Y-142272D01*
X284957Y-157972D02*
X293000D01*
X308457D01*
D55*
X223000Y-102815D02*
X223750Y-102065D01*
X224000Y-101815D01*
D57*
X115800Y-158161D02*
X123646Y-150315D01*
X172000Y-128315D02*
X182500Y-117815D01*
X168500Y-150315D02*
X172000Y-146815D01*
Y-128315D01*
X182500Y-117815D02*
X234613D01*
X243000Y-50815D02*
X248237Y-56052D01*
X108500Y-174315D02*
X116000Y-166815D01*
X234613Y-117815D02*
X242513Y-109915D01*
X224000Y-101815D02*
Y-96315D01*
X233000Y-87315D01*
X116000Y-166815D02*
Y-162669D01*
X115800Y-162469D02*
X116000Y-162669D01*
X115800Y-162469D02*
Y-158161D01*
X123646Y-150315D02*
X168500D01*
X242513Y-109915D02*
Y-74276D01*
X54457Y-176972D02*
X54557Y-176872D01*
X55957Y-175472D01*
X57114Y-174315D01*
X57457D01*
X108500D01*
X242513Y-74276D02*
X247987Y-68802D01*
X248237Y-68552D01*
Y-68315D01*
Y-62315D01*
Y-56052D01*
X233000Y-87315D02*
Y-53315D01*
Y-52315D01*
D66*
X220472Y-69291D02*
D03*
X339370Y-19291D02*
D03*
Y-161024D02*
D03*
X7087D02*
D03*
X7087Y-19291D02*
D03*
D67*
X324000Y-64815D02*
D03*
X329000D02*
D03*
X334000D02*
D03*
X339000D02*
D03*
X333500Y-41815D02*
D03*
Y-36815D02*
D03*
X27500Y-177315D02*
D03*
X22500D02*
D03*
X17500D02*
D03*
X12500D02*
D03*
X197037Y-159763D02*
D03*
X192037D02*
D03*
X113500Y-180315D02*
D03*
X118500D02*
D03*
X123500D02*
D03*
X128500D02*
D03*
X133500D02*
D03*
X138500D02*
D03*
X143500D02*
D03*
X268457Y-96972D02*
D03*
Y-101972D02*
D03*
Y-106972D02*
D03*
D68*
X136359Y-125953D02*
D03*
D69*
X56080Y-165263D02*
D03*
X46237D02*
D03*
X36395D02*
D03*
D71*
X263500Y-15476D02*
D03*
X267000Y-14815D02*
D03*
X255500Y-16315D02*
D03*
X254000Y-15815D02*
D03*
X242000Y-6500D02*
D03*
Y-8500D02*
D03*
X202837Y-25211D02*
D03*
X249000Y-68315D02*
D03*
X247500D02*
D03*
X245000Y-164815D02*
D03*
X236500Y-165315D02*
D03*
X237500Y-160315D02*
D03*
X250637Y-164452D02*
D03*
Y-155363D02*
D03*
X233000Y-146315D02*
D03*
X230837Y-148663D02*
D03*
X233037Y-151763D02*
D03*
X261250Y-58565D02*
D03*
X239663Y-32374D02*
D03*
X238117Y-32517D02*
D03*
X239000Y-30815D02*
D03*
X239500Y-42315D02*
D03*
X256862Y-48315D02*
D03*
X252000Y-15815D02*
D03*
X270000Y-45315D02*
D03*
X163000Y-71315D02*
D03*
X181588Y-64314D02*
D03*
X175000Y-63815D02*
D03*
X173000D02*
D03*
X163500Y-33315D02*
D03*
X281000Y-48815D02*
D03*
X283500Y-47315D02*
D03*
X283414Y-37643D02*
D03*
X286500Y-36729D02*
D03*
X281000Y-40315D02*
D03*
X273086Y-37729D02*
D03*
X270000Y-33315D02*
D03*
X272500Y-34315D02*
D03*
X271500Y-36510D02*
D03*
X297957Y-57358D02*
D03*
X310000Y-65815D02*
D03*
X227500Y2037D02*
D03*
X219500Y-17315D02*
D03*
X182500Y-41815D02*
D03*
X187000Y-35815D02*
D03*
X176537Y-36763D02*
D03*
X154500Y-2815D02*
D03*
X132500Y-15315D02*
D03*
X217000Y-49815D02*
D03*
X269000Y-85815D02*
D03*
X271465Y-86850D02*
D03*
X295988Y-112803D02*
D03*
X139500Y-95315D02*
D03*
X196500Y-135315D02*
D03*
X229500Y-102815D02*
D03*
X229000Y-48815D02*
D03*
X269500Y-112068D02*
D03*
X228837Y-146863D02*
D03*
X229000Y-143315D02*
D03*
X256500Y-117266D02*
D03*
X258900Y-142715D02*
D03*
X275000Y-143315D02*
D03*
X293299Y-154815D02*
D03*
X256500Y-162315D02*
D03*
X290748Y-144067D02*
D03*
X284000Y-150815D02*
D03*
X262500Y-175815D02*
D03*
X284500Y-168815D02*
D03*
X311500Y-121315D02*
D03*
X318000Y-125315D02*
D03*
X316957Y-131858D02*
D03*
X325425Y-144240D02*
D03*
X339000Y-152315D02*
D03*
X325311Y-149004D02*
D03*
X321425Y-163740D02*
D03*
X315000Y-163315D02*
D03*
X316457Y-174772D02*
D03*
X306500Y-175815D02*
D03*
X296500Y-175315D02*
D03*
X212000Y-51815D02*
D03*
X226500Y-61815D02*
D03*
X290000Y-37815D02*
D03*
X295000Y-21815D02*
D03*
X340500Y-48315D02*
D03*
X342500Y-33815D02*
D03*
X335000Y-8815D02*
D03*
X313984Y-7799D02*
D03*
X310000Y-14815D02*
D03*
X205500Y-160815D02*
D03*
X164000Y-121315D02*
D03*
X111500Y-136315D02*
D03*
X269000Y-168315D02*
D03*
X77500Y-121815D02*
D03*
X112637Y-70563D02*
D03*
X118000Y-66815D02*
D03*
X77537Y-104863D02*
D03*
X151320Y-173472D02*
D03*
X148170Y-176272D02*
D03*
X149745Y-174872D02*
D03*
X137000Y-174315D02*
D03*
X129237Y-161815D02*
D03*
X127737Y-160315D02*
D03*
X126137Y-161815D02*
D03*
X124500Y-160315D02*
D03*
X123000Y-161815D02*
D03*
X121500Y-160315D02*
D03*
X132500Y-174315D02*
D03*
X157619Y-173472D02*
D03*
X151437Y-178763D02*
D03*
X101000Y-149815D02*
D03*
X185000Y-125815D02*
D03*
Y-123815D02*
D03*
X184500Y-134315D02*
D03*
X185500Y-136315D02*
D03*
X185037Y-145663D02*
D03*
X188500Y-139315D02*
D03*
X187000Y-137815D02*
D03*
X210500Y-159764D02*
D03*
X208500Y-163815D02*
D03*
X209000Y-153315D02*
D03*
X226837Y-144963D02*
D03*
X289500Y-56815D02*
D03*
X241000Y-134815D02*
D03*
X270500Y-172315D02*
D03*
X252737Y-157663D02*
D03*
X225000Y-159315D02*
D03*
X311185Y-20500D02*
D03*
X254500Y-164815D02*
D03*
X230837Y-162663D02*
D03*
X226737Y-162763D02*
D03*
X233037Y-165063D02*
D03*
X228837Y-165463D02*
D03*
X201737Y-156163D02*
D03*
X254537Y-159563D02*
D03*
X252637Y-163663D02*
D03*
X308937Y-34563D02*
D03*
X105500Y-140815D02*
D03*
X89200Y-143682D02*
D03*
X85500Y-147815D02*
D03*
X188500Y-59815D02*
D03*
X186512Y-25175D02*
D03*
X183500Y-4815D02*
D03*
Y-8663D02*
D03*
Y-31815D02*
D03*
X182437Y-28463D02*
D03*
Y-33815D02*
D03*
X182500Y-18315D02*
D03*
X183500Y-14315D02*
D03*
X184000Y-37315D02*
D03*
X171000Y-39063D02*
D03*
X173437Y-40263D02*
D03*
X174637Y-42163D02*
D03*
X174837Y-44478D02*
D03*
X171000Y-46163D02*
D03*
Y-48815D02*
D03*
X176000Y-4815D02*
D03*
Y-7315D02*
D03*
X172500Y-8815D02*
D03*
X171000Y-17815D02*
D03*
Y-15472D02*
D03*
Y-12815D02*
D03*
X62659Y-29653D02*
D03*
X62559Y-23553D02*
D03*
X154000Y-14815D02*
D03*
X158000Y-25315D02*
D03*
X161537Y-16363D02*
D03*
X148500Y-76815D02*
D03*
X146500Y-78315D02*
D03*
X145000Y-36815D02*
D03*
X153000Y-7315D02*
D03*
Y-4963D02*
D03*
X311185Y-30815D02*
D03*
X313000Y-34815D02*
D03*
X160137Y-2363D02*
D03*
X157137Y-1763D02*
D03*
X176277Y-28814D02*
D03*
X174113Y-29409D02*
D03*
X171526Y-29815D02*
D03*
X263500Y-10815D02*
D03*
X154437Y-180463D02*
D03*
X35459Y-62253D02*
D03*
X57701Y-73479D02*
D03*
X164237Y-43863D02*
D03*
X183000Y-44315D02*
D03*
X160737Y-159615D02*
D03*
X146500Y-70315D02*
D03*
X172637Y-50863D02*
D03*
X162337Y-161815D02*
D03*
X163937Y-159615D02*
D03*
X167037D02*
D03*
X168237Y-57063D02*
D03*
X199837Y-151963D02*
D03*
X198537Y-150363D02*
D03*
X196637Y-148763D02*
D03*
X194837Y-147263D02*
D03*
X165537Y-161815D02*
D03*
X182000Y-77315D02*
D03*
X56245Y-94147D02*
D03*
X60699Y-89692D02*
D03*
X65153Y-85238D02*
D03*
X78516Y-71876D02*
D03*
X76459Y-74253D02*
D03*
X72595Y-68353D02*
D03*
X65837Y-52863D02*
D03*
X77191Y-64008D02*
D03*
X89566Y-60654D02*
D03*
X101159Y-78853D02*
D03*
X87424Y-62967D02*
D03*
X74737Y-48232D02*
D03*
X74759Y-61453D02*
D03*
X68232Y-41886D02*
D03*
X55941Y-53755D02*
D03*
X59559Y-32653D02*
D03*
X56659Y-35653D02*
D03*
X53659Y-38554D02*
D03*
X62018Y-71553D02*
D03*
X57039Y-61533D02*
D03*
X60255Y-49160D02*
D03*
X53859Y-42254D02*
D03*
X50447Y-67842D02*
D03*
X40318Y-69311D02*
D03*
X21959Y-81753D02*
D03*
X22559Y-78853D02*
D03*
X25359Y-75554D02*
D03*
X31359Y-69554D02*
D03*
X35825Y-73728D02*
D03*
X44664Y-64749D02*
D03*
X28259Y-72553D02*
D03*
X32359Y-58553D02*
D03*
X35759Y-55353D02*
D03*
X38759Y-52354D02*
D03*
X38237Y-71663D02*
D03*
X58453Y-91900D02*
D03*
X62927Y-87466D02*
D03*
X74062Y-76329D02*
D03*
X80727Y-69631D02*
D03*
X85198Y-65194D02*
D03*
X58099Y-51459D02*
D03*
X68463Y-50287D02*
D03*
X82970Y-67422D02*
D03*
X72410Y-46016D02*
D03*
X66037Y-79331D02*
D03*
X68959Y-66853D02*
D03*
X54712Y-63850D02*
D03*
X14459Y-76753D02*
D03*
X14959Y-71254D02*
D03*
X23959Y-62253D02*
D03*
X17959Y-68253D02*
D03*
X54917Y-59412D02*
D03*
X20959Y-65254D02*
D03*
X42543Y-67081D02*
D03*
X41697Y-46091D02*
D03*
X88001Y-57169D02*
D03*
X44647Y-43042D02*
D03*
X50259Y-35754D02*
D03*
X71359Y-39353D02*
D03*
X57297Y-71315D02*
D03*
X52459Y-55753D02*
D03*
X185000Y-156563D02*
D03*
X292957Y-113472D02*
D03*
X100937Y-163563D02*
D03*
X48737Y-153363D02*
D03*
X143437Y-161815D02*
D03*
X142000Y-159615D02*
D03*
X169500Y-60815D02*
D03*
X110737Y-98563D02*
D03*
X148500Y-71315D02*
D03*
X174937Y-34363D02*
D03*
X189037Y-145663D02*
D03*
X109937Y-162063D02*
D03*
X107437D02*
D03*
X213000Y-102284D02*
D03*
X165500Y-178515D02*
D03*
X168000D02*
D03*
X161000D02*
D03*
X163000D02*
D03*
X301457Y-126972D02*
D03*
X298957D02*
D03*
X303957D02*
D03*
X178500Y-174815D02*
D03*
X310457Y-129972D02*
D03*
X306457Y-126972D02*
D03*
X308457Y-128472D02*
D03*
X294457Y-128559D02*
D03*
X241500Y-147815D02*
D03*
X201437Y-153463D02*
D03*
X183037Y-54463D02*
D03*
X171000Y-10815D02*
D03*
X159537Y-49763D02*
D03*
X153646Y-46141D02*
D03*
X153655Y-54558D02*
D03*
X271000Y-11465D02*
D03*
X269000Y-18815D02*
D03*
X263500Y-13315D02*
D03*
X224500Y-102815D02*
D03*
X223000D02*
D03*
X243500Y-47815D02*
D03*
X242500Y-48815D02*
D03*
X131300Y-159615D02*
D03*
X146637Y-161815D02*
D03*
X145037Y-159615D02*
D03*
X138000D02*
D03*
X140000D02*
D03*
X168637Y-161815D02*
D03*
X171000D02*
D03*
X185000Y-160815D02*
D03*
Y-158689D02*
D03*
X190500Y-140815D02*
D03*
X192000Y-142315D02*
D03*
X193252Y-144063D02*
D03*
X185000Y-96815D02*
D03*
X183500Y-47315D02*
D03*
X165000Y-90315D02*
D03*
Y-96315D02*
D03*
Y-94315D02*
D03*
Y-92315D02*
D03*
Y-98315D02*
D03*
X82000Y-148315D02*
D03*
X324500Y-2815D02*
D03*
X312500Y-1815D02*
D03*
X314484Y169D02*
D03*
X319500Y185D02*
D03*
X308000Y-41315D02*
D03*
X297000D02*
D03*
X318000Y-3315D02*
D03*
X316000Y-13815D02*
D03*
X308500Y-6831D02*
D03*
X313000Y-18315D02*
D03*
X295000Y-54815D02*
D03*
X271500Y-147815D02*
D03*
X278000Y-156815D02*
D03*
X153659Y-58754D02*
D03*
X155500Y-60815D02*
D03*
X111500Y-139315D02*
D03*
X103500Y-137315D02*
D03*
X101500Y-159315D02*
D03*
X238000Y-11815D02*
D03*
X278000Y-171315D02*
D03*
X239000Y-179315D02*
D03*
X166500Y-124315D02*
D03*
X259000Y-161315D02*
D03*
X289457Y-132815D02*
D03*
X292000Y-4965D02*
D03*
X289500Y-5815D02*
D03*
X228213Y-29315D02*
D03*
X239000Y-22815D02*
D03*
X210000Y-142815D02*
D03*
X208500Y-144815D02*
D03*
X207000Y-139315D02*
D03*
Y-136815D02*
D03*
X202437Y-41663D02*
D03*
X203437Y-39663D02*
D03*
X146500Y-26815D02*
D03*
X145500Y-18315D02*
D03*
X67500Y-8315D02*
D03*
Y-6315D02*
D03*
X216000Y-89815D02*
D03*
X266500Y-85315D02*
D03*
X238500Y-27815D02*
D03*
X242000Y-45315D02*
D03*
X197000Y-16163D02*
D03*
X200737Y-45663D02*
D03*
X201637Y-43663D02*
D03*
X198337Y-29463D02*
D03*
X202500Y-27815D02*
D03*
X197237Y-27563D02*
D03*
X200000Y-25315D02*
D03*
X197000Y-18315D02*
D03*
Y-14163D02*
D03*
X195500Y-4315D02*
D03*
X197000Y-8815D02*
D03*
Y-12163D02*
D03*
Y-6815D02*
D03*
X158000Y-89315D02*
D03*
X167500Y-61315D02*
D03*
X166000Y-62815D02*
D03*
X128000Y-173315D02*
D03*
X251500Y-48815D02*
D03*
X64210Y-45131D02*
D03*
X62587Y-47038D02*
D03*
X120000Y-118815D02*
D03*
X150500Y-136815D02*
D03*
X232000Y-53315D02*
D03*
X236500Y-47315D02*
D03*
X241000Y-48315D02*
D03*
X250500Y-69315D02*
D03*
X247000Y-62315D02*
D03*
X242500Y-121815D02*
D03*
Y-120315D02*
D03*
X244500D02*
D03*
X183696Y-103119D02*
D03*
X236000Y-53315D02*
D03*
X234000D02*
D03*
X213500Y-95315D02*
D03*
X250000Y-16315D02*
D03*
X248500D02*
D03*
D72*
X223000Y-12815D02*
D03*
X213500Y-15815D02*
D03*
X231000Y-12815D02*
D03*
X213500Y-28315D02*
D03*
X242783Y-161531D02*
D03*
X251207Y-131222D02*
D03*
X236403Y-145336D02*
D03*
X264000Y-125315D02*
D03*
X282000Y-64815D02*
D03*
X285957Y-70972D02*
D03*
X279457Y-81472D02*
D03*
X229831Y-129146D02*
D03*
X334000Y-168815D02*
D03*
X335000Y-174315D02*
D03*
X305457Y-81972D02*
D03*
X134500Y-160815D02*
D03*
X327957Y-124472D02*
D03*
X165207Y-108722D02*
D03*
X265000Y-77815D02*
D03*
X251000Y-79815D02*
D03*
X324500Y-26315D02*
D03*
X22707Y-157722D02*
D03*
X57457Y-176972D02*
D03*
X45437Y-13063D02*
D03*
X22468Y-133346D02*
D03*
X268000Y-115315D02*
D03*
X286500Y-47815D02*
D03*
X137000Y-15315D02*
D03*
X132500Y-1315D02*
D03*
X209500Y-3815D02*
D03*
X173000Y-26315D02*
D03*
X122500Y-26115D02*
D03*
X252500Y-151315D02*
D03*
X254707Y-126722D02*
D03*
X303457Y-57972D02*
D03*
X278795Y-114634D02*
D03*
X305707Y-112722D02*
D03*
X261000Y-79815D02*
D03*
X259000Y-113315D02*
D03*
X67000Y-160815D02*
D03*
X53500Y-175815D02*
D03*
X316957Y-143972D02*
D03*
X309957Y-156472D02*
D03*
X293000Y-157815D02*
D03*
X234000Y-128315D02*
D03*
X72837Y-21763D02*
D03*
X85207Y-137722D02*
D03*
X145531Y-93846D02*
D03*
X165707Y-129222D02*
D03*
X139000Y-106815D02*
D03*
X81000Y-6815D02*
D03*
X298750Y-15565D02*
D03*
X328031Y-9783D02*
D03*
X283957Y-130472D02*
D03*
X212500Y-39815D02*
D03*
X217500D02*
D03*
X225707Y-111222D02*
D03*
X304457Y-108972D02*
D03*
X119000Y-7315D02*
D03*
X105000Y685D02*
D03*
X93000Y-3315D02*
D03*
X205000Y-10815D02*
D03*
X279000Y-140815D02*
D03*
X273957Y-140472D02*
D03*
D73*
X323500Y-174969D02*
D03*
Y-171142D02*
D03*
Y-167315D02*
D03*
X3000Y-38815D02*
D03*
Y-34982D02*
D03*
Y-31148D02*
D03*
Y-27315D02*
D03*
X4000Y-113853D02*
D03*
Y-110200D02*
D03*
Y-117507D02*
D03*
Y-121161D02*
D03*
Y-124815D02*
D03*
Y-106546D02*
D03*
Y-102892D02*
D03*
Y-99238D02*
D03*
Y-95584D02*
D03*
X239046Y-35689D02*
D03*
X219184Y-164091D02*
D03*
X227000Y-46315D02*
D03*
X295000Y-8815D02*
D03*
X287500Y1685D02*
D03*
X197000Y-124315D02*
D03*
X101500Y-181315D02*
D03*
X92000D02*
D03*
X64500D02*
D03*
X58000Y-153815D02*
D03*
X73000Y-134815D02*
D03*
X15000Y-141315D02*
D03*
X6500Y-140815D02*
D03*
X31284Y-9031D02*
D03*
X10500Y-8315D02*
D03*
X5500Y185D02*
D03*
X17000Y-29815D02*
D03*
X137000Y-39815D02*
D03*
X91500Y-9815D02*
D03*
D74*
X336000Y-146500D02*
D03*
X310000Y-108315D02*
D03*
X273015Y-85300D02*
D03*
X159837Y-71963D02*
D03*
X270737Y-30963D02*
D03*
X268937Y-92263D02*
D03*
X318957Y-74472D02*
D03*
Y-83472D02*
D03*
X331957Y-129417D02*
D03*
Y-132806D02*
D03*
X166500Y-77315D02*
D03*
X318957Y-80472D02*
D03*
X324582Y-72472D02*
D03*
X321457D02*
D03*
X183837Y-24963D02*
D03*
X59259Y-26754D02*
D03*
X56259Y-29754D02*
D03*
X130000Y-34815D02*
D03*
X333957Y-108472D02*
D03*
X330957D02*
D03*
X324957D02*
D03*
X318957Y-99472D02*
D03*
Y-95972D02*
D03*
Y-92472D02*
D03*
Y-77472D02*
D03*
X316457Y-85972D02*
D03*
X318957Y-89472D02*
D03*
X335082Y-111472D02*
D03*
X327707Y-72472D02*
D03*
X330832D02*
D03*
X333957D02*
D03*
X344457Y-111472D02*
D03*
X338207D02*
D03*
X331957Y-136195D02*
D03*
X343500Y-148315D02*
D03*
X341000D02*
D03*
X339000Y-149815D02*
D03*
X331957Y-142972D02*
D03*
Y-139584D02*
D03*
Y-126028D02*
D03*
Y-122639D02*
D03*
Y-119250D02*
D03*
Y-115861D02*
D03*
Y-111472D02*
D03*
X165637Y-112563D02*
D03*
X258937Y-82763D02*
D03*
X53359Y-32754D02*
D03*
X48437Y-563D02*
D03*
X18937Y437D02*
D03*
X37437Y937D02*
D03*
X41437D02*
D03*
X34437D02*
D03*
X259000Y-101815D02*
D03*
X60500Y-155315D02*
D03*
X163137Y-50663D02*
D03*
X164000Y-77315D02*
D03*
X37500Y-140815D02*
D03*
X47000D02*
D03*
X56500D02*
D03*
X72437Y-143963D02*
D03*
D75*
X101237Y-145663D02*
D03*
X100531Y-27283D02*
D03*
X184737Y-79463D02*
D03*
X101500Y-104815D02*
D03*
X154737Y-78163D02*
D03*
X120837Y-94563D02*
D03*
X104859Y-89463D02*
D03*
X124537D02*
D03*
X135537D02*
D03*
X153913Y-50507D02*
D03*
X153694Y-42018D02*
D03*
X101500Y-118815D02*
D03*
X183000Y-60315D02*
D03*
X166500Y-104315D02*
D03*
X165000Y-102315D02*
D03*
D76*
X135194Y-69362D02*
D03*
D77*
X291319Y-99835D02*
D03*
X281870D02*
D03*
X291319Y-95110D02*
D03*
Y-104559D02*
D03*
X281870D02*
D03*
Y-95110D02*
D03*
Y-90386D02*
D03*
X296043Y-95110D02*
D03*
Y-90386D02*
D03*
Y-104559D02*
D03*
Y-99835D02*
D03*
X286595Y-104559D02*
D03*
Y-95110D02*
D03*
X291319Y-90386D02*
D03*
X286595D02*
D03*
Y-99835D02*
D03*
D78*
X307787Y-147303D02*
D03*
Y-142972D02*
D03*
Y-138642D02*
D03*
X303457Y-147303D02*
D03*
Y-142972D02*
D03*
Y-138642D02*
D03*
X299126Y-147303D02*
D03*
Y-142972D02*
D03*
Y-138642D02*
D03*
D79*
X254500Y-31815D02*
D03*
D80*
X220000Y-2315D02*
X288000D01*
X197037Y-38511D02*
X208600Y-26948D01*
Y-13715D01*
X220000Y-2315D01*
X185533Y-68015D02*
X197037Y-56511D01*
Y-38511D01*
X151969Y-93846D02*
X154837Y-90978D01*
X145531Y-93846D02*
X151969D01*
X154837Y-98652D02*
Y-90978D01*
Y-98652D02*
X159548Y-103363D01*
X164933Y-68015D02*
X185533D01*
X164533Y-67615D02*
X164933Y-68015D01*
X158811Y-67615D02*
X164533D01*
X154837Y-71589D02*
X158811Y-67615D01*
X154837Y-90978D02*
Y-89315D01*
Y-78163D01*
X159548Y-103363D02*
X165000D01*
X165837D01*
X154837Y-78163D02*
Y-71589D01*
X288000Y-2315D02*
X290500Y-4815D01*
M02*
