G04 Layer_Color=16711935*
%FSLAX25Y25*%
%MOIN*%
G70*
G01*
G75*
%ADD47C,0.01000*%
D47*
X346457Y0D02*
G03*
X342520Y3937I-3937J0D01*
G01*
Y-74410D02*
G03*
X346457Y-70472I0J3937D01*
G01*
X336221Y-74410D02*
G03*
X332283Y-78347I0J-3937D01*
G01*
Y-101969D02*
G03*
X336221Y-105905I3937J0D01*
G01*
X346457Y-109843D02*
G03*
X342520Y-105905I-3937J0D01*
G01*
Y-180709D02*
G03*
X346457Y-176772I0J3937D01*
G01*
X257874Y-180709D02*
G03*
X255906Y-182677I0J-1969D01*
G01*
X0Y-180315D02*
G03*
X3937Y-184252I3937J0D01*
G01*
X1969Y-74410D02*
G03*
X0Y-76378I0J-1969D01*
G01*
X7087Y-74410D02*
G03*
X11024Y-70472I0J3937D01*
G01*
Y-46850D02*
G03*
X7087Y-42913I-3937J0D01*
G01*
X0Y-40945D02*
G03*
X1969Y-42913I1969J0D01*
G01*
X3937Y3937D02*
G03*
X0Y0I0J-3937D01*
G01*
X346457Y-70472D02*
Y0D01*
X332283Y-101969D02*
Y-78347D01*
X336221Y-105905D02*
X342520D01*
X336221Y-74410D02*
X342520D01*
X346457Y-176772D02*
Y-109843D01*
X257874Y-180709D02*
X342520D01*
X255906Y-184252D02*
Y-182677D01*
X3937Y-184252D02*
X255906D01*
X0Y-180315D02*
Y-76378D01*
X1969Y-74410D02*
X7087D01*
X11024Y-70472D02*
Y-46850D01*
X1969Y-42913D02*
X7087D01*
X3937Y3937D02*
X342520D01*
X0Y-40945D02*
Y0D01*
M02*
