G04 Layer_Color=16711935*
%FSLAX25Y25*%
%MOIN*%
G70*
G01*
G75*
%ADD108C,0.00394*%
D108*
X282854Y-105543D02*
G03*
X282854Y-105543I-1969J0D01*
G01*
X311921Y-149469D02*
G03*
X311921Y-149469I-1969J0D01*
G01*
X253417Y-172382D02*
X255583D01*
X253417Y-168248D02*
X255583D01*
Y-172382D02*
Y-168248D01*
X253417Y-172382D02*
Y-168248D01*
X249917Y-172382D02*
X252083D01*
X249917Y-168248D02*
X252083D01*
Y-172382D02*
Y-168248D01*
X249917Y-172382D02*
Y-168248D01*
X260079Y-14583D02*
Y1953D01*
X84417Y-163882D02*
Y-159748D01*
X86583Y-163882D02*
Y-159748D01*
X84417D02*
X86583D01*
X84417Y-163882D02*
X86583D01*
X131917Y-29248D02*
X134083D01*
X131917Y-33382D02*
X134083D01*
Y-29248D01*
X131917Y-33382D02*
Y-29248D01*
X110732Y264D02*
X127268D01*
X59917Y-9382D02*
Y-5248D01*
X62083Y-9382D02*
Y-5248D01*
X59917D02*
X62083D01*
X59917Y-9382D02*
X62083D01*
X274732Y-27394D02*
X291268D01*
X64732Y-14394D02*
X81268D01*
X252579Y-107583D02*
Y-91047D01*
X210921Y-137083D02*
Y-120547D01*
X262232Y-66894D02*
X278768D01*
X80917Y-159748D02*
X83083D01*
X80917Y-163882D02*
X83083D01*
X80917D02*
Y-159748D01*
X83083Y-163882D02*
Y-159748D01*
X242933Y-125398D02*
X247067D01*
X242933Y-123232D02*
X247067D01*
X242933Y-125398D02*
Y-123232D01*
X247067Y-125398D02*
Y-123232D01*
X242933Y-126732D02*
X247067D01*
X242933Y-128898D02*
X247067D01*
Y-126732D01*
X242933Y-128898D02*
Y-126732D01*
X284583Y-44382D02*
Y-40248D01*
X282417Y-44382D02*
Y-40248D01*
X284583D01*
X282417Y-44382D02*
X284583D01*
X285417D02*
X287583D01*
X285417Y-40248D02*
X287583D01*
X285417Y-44382D02*
Y-40248D01*
X287583Y-44382D02*
Y-40248D01*
X248390Y-84555D02*
X252524D01*
X248390Y-82390D02*
X252524D01*
Y-84555D02*
Y-82390D01*
X248390Y-84555D02*
Y-82390D01*
X239917Y-79248D02*
X242083D01*
X239917Y-83382D02*
X242083D01*
Y-79248D01*
X239917Y-83382D02*
Y-79248D01*
X34354Y-4996D02*
X36520D01*
X34354Y-9130D02*
X36520D01*
X34354D02*
Y-4996D01*
X36520Y-9130D02*
Y-4996D01*
X41520Y-9130D02*
Y-4996D01*
X39354Y-9130D02*
Y-4996D01*
Y-9130D02*
X41520D01*
X39354Y-4996D02*
X41520D01*
X23004Y-4146D02*
Y-1980D01*
X18870Y-4146D02*
Y-1980D01*
Y-4146D02*
X23004D01*
X18870Y-1980D02*
X23004D01*
X296083Y-28488D02*
Y-24354D01*
X293917Y-28488D02*
Y-24354D01*
X296083D01*
X293917Y-28488D02*
X296083D01*
X288874Y-69539D02*
X291039D01*
X288874Y-65405D02*
X291039D01*
Y-69539D02*
Y-65405D01*
X288874Y-69539D02*
Y-65405D01*
X210917Y-47382D02*
Y-43248D01*
X213083Y-47382D02*
Y-43248D01*
X210917Y-47382D02*
X213083D01*
X210917Y-43248D02*
X213083D01*
X292374Y-69539D02*
X294539D01*
X292374Y-65405D02*
X294539D01*
Y-69539D02*
Y-65405D01*
X292374Y-69539D02*
Y-65405D01*
X270933Y-81732D02*
X275067D01*
X270933Y-83898D02*
X275067D01*
X270933D02*
Y-81732D01*
X275067Y-83898D02*
Y-81732D01*
X295890Y-110055D02*
Y-107890D01*
X300024Y-110055D02*
Y-107890D01*
X295890D02*
X300024D01*
X295890Y-110055D02*
X300024D01*
X317390Y-156890D02*
X321524D01*
X317390Y-159055D02*
X321524D01*
Y-156890D01*
X317390Y-159055D02*
Y-156890D01*
X333039Y-153039D02*
Y-148906D01*
X330874Y-153039D02*
Y-148906D01*
Y-153039D02*
X333039D01*
X330874Y-148906D02*
X333039D01*
X62054Y-144230D02*
Y-140096D01*
X64220Y-144230D02*
Y-140096D01*
X62054Y-144230D02*
X64220D01*
X62054Y-140096D02*
X64220D01*
X325524Y-141055D02*
Y-138890D01*
X321390Y-141055D02*
Y-138890D01*
X325524D01*
X321390Y-141055D02*
X325524D01*
X39270Y-174380D02*
X43404D01*
X39270Y-176546D02*
X43404D01*
X39270D02*
Y-174380D01*
X43404Y-176546D02*
Y-174380D01*
X102417Y-15382D02*
X104583D01*
X102417Y-11248D02*
X104583D01*
Y-15382D02*
Y-11248D01*
X102417Y-15382D02*
Y-11248D01*
X319417Y-9882D02*
Y-5748D01*
X321583Y-9882D02*
Y-5748D01*
X319417D02*
X321583D01*
X319417Y-9882D02*
X321583D01*
X98917Y-11248D02*
X101083D01*
X98917Y-15382D02*
X101083D01*
X98917D02*
Y-11248D01*
X101083Y-15382D02*
Y-11248D01*
X316370Y-47480D02*
X320504D01*
X316370Y-49646D02*
X320504D01*
X316370D02*
Y-47480D01*
X320504Y-49646D02*
Y-47480D01*
Y-44646D02*
Y-42480D01*
X316370Y-44646D02*
Y-42480D01*
Y-44646D02*
X320504D01*
X316370Y-42480D02*
X320504D01*
X231933Y-38398D02*
X236067D01*
X231933Y-36232D02*
X236067D01*
Y-38398D02*
Y-36232D01*
X231933Y-38398D02*
Y-36232D01*
X236067Y-34898D02*
Y-32732D01*
X231933Y-34898D02*
Y-32732D01*
Y-34898D02*
X236067D01*
X231933Y-32732D02*
X236067D01*
X276433Y-35732D02*
X280567D01*
X276433Y-37898D02*
X280567D01*
X276433D02*
Y-35732D01*
X280567Y-37898D02*
Y-35732D01*
X287524Y-141055D02*
Y-138890D01*
X283390Y-141055D02*
Y-138890D01*
X287524D01*
X283390Y-141055D02*
X287524D01*
X293374Y-125539D02*
Y-121405D01*
X295539Y-125539D02*
Y-121405D01*
X293374D02*
X295539D01*
X293374Y-125539D02*
X295539D01*
X324524Y-154055D02*
Y-151890D01*
X320390Y-154055D02*
Y-151890D01*
X324524D01*
X320390Y-154055D02*
X324524D01*
X54433Y-14398D02*
X58567D01*
X54433Y-12232D02*
X58567D01*
Y-14398D02*
Y-12232D01*
X54433Y-14398D02*
Y-12232D01*
Y-10398D02*
Y-8232D01*
X58567Y-10398D02*
Y-8232D01*
X54433D02*
X58567D01*
X54433Y-10398D02*
X58567D01*
X218417Y-102382D02*
Y-98248D01*
X220583Y-102382D02*
Y-98248D01*
X218417D02*
X220583D01*
X218417Y-102382D02*
X220583D01*
X214417Y-98248D02*
X216583D01*
X214417Y-102382D02*
X216583D01*
X214417D02*
Y-98248D01*
X216583Y-102382D02*
Y-98248D01*
X232917Y-8882D02*
Y-4748D01*
X235083Y-8882D02*
Y-4748D01*
X232917Y-8882D02*
X235083D01*
X232917Y-4748D02*
X235083D01*
X81070Y-163746D02*
Y-161580D01*
X85204Y-163746D02*
Y-161580D01*
X81070D02*
X85204D01*
X81070Y-163746D02*
X85204D01*
X227417Y-56382D02*
Y-52248D01*
X229583Y-56382D02*
Y-52248D01*
X227417Y-56382D02*
X229583D01*
X227417Y-52248D02*
X229583D01*
X273640Y-41398D02*
Y-39232D01*
X277774Y-41398D02*
Y-39232D01*
X273640D02*
X277774D01*
X273640Y-41398D02*
X277774D01*
X273640Y-48398D02*
X277774D01*
X273640Y-46232D02*
X277774D01*
Y-48398D02*
Y-46232D01*
X273640Y-48398D02*
Y-46232D01*
X26067Y-137898D02*
Y-135732D01*
X21933Y-137898D02*
Y-135732D01*
Y-137898D02*
X26067D01*
X21933Y-135732D02*
X26067D01*
X316370Y-37480D02*
X320504D01*
X316370Y-39646D02*
X320504D01*
X316370D02*
Y-37480D01*
X320504Y-39646D02*
Y-37480D01*
X208770Y-86680D02*
X212904D01*
X208770Y-88846D02*
X212904D01*
X208770D02*
Y-86680D01*
X212904Y-88846D02*
Y-86680D01*
X320504Y-34646D02*
Y-32480D01*
X316370Y-34646D02*
Y-32480D01*
Y-34646D02*
X320504D01*
X316370Y-32480D02*
X320504D01*
X157270Y-246D02*
X161404D01*
X157270Y1920D02*
X161404D01*
X157270Y-246D02*
Y1920D01*
X161404Y-246D02*
Y1920D01*
X161504Y-6046D02*
Y-3880D01*
X157370Y-6046D02*
Y-3880D01*
X161504D01*
X157370Y-6046D02*
X161504D01*
X157270Y-10346D02*
X161404D01*
X157270Y-8180D02*
X161404D01*
X157270Y-10346D02*
Y-8180D01*
X161404Y-10346D02*
Y-8180D01*
X122433Y-33898D02*
Y-31732D01*
X126567Y-33898D02*
Y-31732D01*
X122433D02*
X126567D01*
X122433Y-33898D02*
X126567D01*
X122433Y-35232D02*
X126567D01*
X122433Y-37398D02*
X126567D01*
X122433D02*
Y-35232D01*
X126567Y-37398D02*
Y-35232D01*
X104567Y-24898D02*
Y-22732D01*
X100433Y-24898D02*
Y-22732D01*
Y-24898D02*
X104567D01*
X100433Y-22732D02*
X104567D01*
X185670Y-67280D02*
X189804D01*
X185670Y-69446D02*
X189804D01*
X185670D02*
Y-67280D01*
X189804Y-69446D02*
Y-67280D01*
X104567Y-20398D02*
Y-18232D01*
X100433Y-20398D02*
Y-18232D01*
Y-20398D02*
X104567D01*
X100433Y-18232D02*
X104567D01*
X148417Y-15382D02*
Y-11248D01*
X150583Y-15382D02*
Y-11248D01*
X148417D02*
X150583D01*
X148417Y-15382D02*
X150583D01*
X189804Y-64446D02*
Y-62280D01*
X185670Y-64446D02*
Y-62280D01*
Y-64446D02*
X189804D01*
X185670Y-62280D02*
X189804D01*
X79253Y-86698D02*
X83387D01*
X79253Y-88863D02*
X83387D01*
X79253D02*
Y-86698D01*
X83387Y-88863D02*
Y-86698D01*
X83386Y-84562D02*
Y-82397D01*
X79252Y-84562D02*
Y-82397D01*
Y-84562D02*
X83386D01*
X79252Y-82397D02*
X83386D01*
X30132Y-61458D02*
X31663Y-59926D01*
X33055Y-64381D02*
X34586Y-62849D01*
X31663Y-59926D02*
X34586Y-62849D01*
X30132Y-61458D02*
X33055Y-64381D01*
X103763Y-46926D02*
X106686Y-49850D01*
X102232Y-48458D02*
X105155Y-51381D01*
X102232Y-48458D02*
X103763Y-46926D01*
X105155Y-51381D02*
X106686Y-49850D01*
X102455Y-54281D02*
X103986Y-52750D01*
X99532Y-51358D02*
X101063Y-49826D01*
X99532Y-51358D02*
X102455Y-54281D01*
X101063Y-49826D02*
X103986Y-52750D01*
X98263Y-52826D02*
X101186Y-55749D01*
X96732Y-54357D02*
X99655Y-57281D01*
X96732Y-54357D02*
X98263Y-52826D01*
X99655Y-57281D02*
X101186Y-55749D01*
X96755Y-60081D02*
X98286Y-58549D01*
X93832Y-57157D02*
X95363Y-55626D01*
X93832Y-57157D02*
X96755Y-60081D01*
X95363Y-55626D02*
X98286Y-58549D01*
X116663Y-59526D02*
X119586Y-62450D01*
X115132Y-61058D02*
X118055Y-63981D01*
X115132Y-61058D02*
X116663Y-59526D01*
X118055Y-63981D02*
X119586Y-62450D01*
X121055Y-60981D02*
X122586Y-59449D01*
X118132Y-58057D02*
X119663Y-56526D01*
X118132Y-58057D02*
X121055Y-60981D01*
X119663Y-56526D02*
X122586Y-59449D01*
X185670Y-48580D02*
X189804D01*
X185670Y-50746D02*
X189804D01*
X185670D02*
Y-48580D01*
X189804Y-50746D02*
Y-48580D01*
X185670Y-53380D02*
X189804D01*
X185670Y-55546D02*
X189804D01*
X185670D02*
Y-53380D01*
X189804Y-55546D02*
Y-53380D01*
X47263Y-44226D02*
X50186Y-47150D01*
X45732Y-45757D02*
X48655Y-48681D01*
X45732Y-45757D02*
X47263Y-44226D01*
X48655Y-48681D02*
X50186Y-47150D01*
X146585Y-43101D02*
Y-40936D01*
X150719Y-43101D02*
Y-40936D01*
X146585D02*
X150719D01*
X146585Y-43101D02*
X150719D01*
X89583Y-171882D02*
Y-167748D01*
X87417Y-171882D02*
Y-167748D01*
X89583D01*
X87417Y-171882D02*
X89583D01*
X36732Y-54757D02*
X38263Y-53226D01*
X39655Y-57681D02*
X41186Y-56150D01*
X38263Y-53226D02*
X41186Y-56150D01*
X36732Y-54757D02*
X39655Y-57681D01*
X146730Y-53475D02*
X150864D01*
X146730Y-55640D02*
X150864D01*
X146730D02*
Y-53475D01*
X150864Y-55640D02*
Y-53475D01*
X150826Y-64236D02*
Y-62071D01*
X146692Y-64236D02*
Y-62071D01*
Y-64236D02*
X150826D01*
X146692Y-62071D02*
X150826D01*
X46520Y-9130D02*
Y-4996D01*
X44354Y-9130D02*
Y-4996D01*
Y-9130D02*
X46520D01*
X44354Y-4996D02*
X46520D01*
X284890Y-118055D02*
Y-115890D01*
X289024Y-118055D02*
Y-115890D01*
X284890Y-118055D02*
X289024D01*
X284890Y-115890D02*
X289024D01*
X74933Y-149398D02*
X79067D01*
X74933Y-147232D02*
X79067D01*
Y-149398D02*
Y-147232D01*
X74933Y-149398D02*
Y-147232D01*
X65232Y-45150D02*
X66763Y-46681D01*
X68155Y-42227D02*
X69686Y-43758D01*
X66763Y-46681D02*
X69686Y-43758D01*
X65232Y-45150D02*
X68155Y-42227D01*
X66263Y-54981D02*
X69186Y-52058D01*
X64732Y-53450D02*
X67655Y-50527D01*
X64732Y-53450D02*
X66263Y-54981D01*
X67655Y-50527D02*
X69186Y-52058D01*
X48232Y-38058D02*
X49763Y-36526D01*
X51155Y-40981D02*
X52686Y-39450D01*
X49763Y-36526D02*
X52686Y-39450D01*
X48232Y-38058D02*
X51155Y-40981D01*
X51232Y-35058D02*
X54155Y-37981D01*
X52763Y-33526D02*
X55686Y-36450D01*
X54155Y-37981D02*
X55686Y-36450D01*
X51232Y-35058D02*
X52763Y-33526D01*
X54232Y-32057D02*
X55763Y-30526D01*
X57155Y-34981D02*
X58686Y-33450D01*
X55763Y-30526D02*
X58686Y-33450D01*
X54232Y-32057D02*
X57155Y-34981D01*
X57232Y-29057D02*
X60155Y-31981D01*
X58763Y-27526D02*
X61686Y-30450D01*
X60155Y-31981D02*
X61686Y-30450D01*
X57232Y-29057D02*
X58763Y-27526D01*
X60232Y-26057D02*
X61763Y-24526D01*
X63155Y-28981D02*
X64686Y-27450D01*
X61763Y-24526D02*
X64686Y-27450D01*
X60232Y-26057D02*
X63155Y-28981D01*
X86536Y-87848D02*
Y-83715D01*
X88701Y-87848D02*
Y-83715D01*
X86536Y-87848D02*
X88701D01*
X86536Y-83715D02*
X88701D01*
X212904Y-93446D02*
Y-91280D01*
X208770Y-93446D02*
Y-91280D01*
Y-93446D02*
X212904D01*
X208770Y-91280D02*
X212904D01*
X122433Y-13732D02*
X126567D01*
X122433Y-15898D02*
X126567D01*
X122433D02*
Y-13732D01*
X126567Y-15898D02*
Y-13732D01*
X76670Y-141946D02*
X80804D01*
X76670Y-139780D02*
X80804D01*
X76670Y-141946D02*
Y-139780D01*
X80804Y-141946D02*
Y-139780D01*
X113933Y-27898D02*
Y-25732D01*
X118067Y-27898D02*
Y-25732D01*
X113933D02*
X118067D01*
X113933Y-27898D02*
X118067D01*
X18370Y-17146D02*
X22504D01*
X18370Y-14980D02*
X22504D01*
Y-17146D02*
Y-14980D01*
X18370Y-17146D02*
Y-14980D01*
X150826Y-59836D02*
Y-57671D01*
X146692Y-59836D02*
Y-57671D01*
Y-59836D02*
X150826D01*
X146692Y-57671D02*
X150826D01*
X304854Y-28489D02*
Y-24355D01*
X307020Y-28489D02*
Y-24355D01*
X304854Y-28489D02*
X307020D01*
X304854Y-24355D02*
X307020D01*
X161320Y-79630D02*
Y-75496D01*
X159154Y-79630D02*
Y-75496D01*
Y-79630D02*
X161320D01*
X159154Y-75496D02*
X161320D01*
X315874Y-135906D02*
X318039D01*
X315874Y-140039D02*
X318039D01*
X315874D02*
Y-135906D01*
X318039Y-140039D02*
Y-135906D01*
X285890Y-160890D02*
X290024D01*
X285890Y-163055D02*
X290024D01*
Y-160890D01*
X285890Y-163055D02*
Y-160890D01*
Y-166555D02*
Y-164390D01*
X290024Y-166555D02*
Y-164390D01*
X285890Y-166555D02*
X290024D01*
X285890Y-164390D02*
X290024D01*
X165770Y-117646D02*
X169904D01*
X165770Y-115480D02*
X169904D01*
X165770Y-117646D02*
Y-115480D01*
X169904Y-117646D02*
Y-115480D01*
X327374Y-153039D02*
X329539D01*
X327374Y-148906D02*
X329539D01*
Y-153039D02*
Y-148906D01*
X327374Y-153039D02*
Y-148906D01*
X336539Y-153039D02*
Y-148906D01*
X334374Y-153039D02*
Y-148906D01*
Y-153039D02*
X336539D01*
X334374Y-148906D02*
X336539D01*
X272874Y-110906D02*
X275039D01*
X272874Y-115039D02*
X275039D01*
X272874D02*
Y-110906D01*
X275039Y-115039D02*
Y-110906D01*
X306374Y-94039D02*
X308539D01*
X306374Y-89906D02*
X308539D01*
Y-94039D02*
Y-89906D01*
X306374Y-94039D02*
Y-89906D01*
X310390Y-96390D02*
X314524D01*
X310390Y-98555D02*
X314524D01*
Y-96390D01*
X310390Y-98555D02*
Y-96390D01*
X123567Y-175398D02*
Y-173232D01*
X119433Y-175398D02*
Y-173232D01*
Y-175398D02*
X123567D01*
X119433Y-173232D02*
X123567D01*
X310390Y-99890D02*
X314524D01*
X310390Y-102055D02*
X314524D01*
Y-99890D01*
X310390Y-102055D02*
Y-99890D01*
X313890Y-123555D02*
X318024D01*
X313890Y-121390D02*
X318024D01*
X313890Y-123555D02*
Y-121390D01*
X318024Y-123555D02*
Y-121390D01*
X318524Y-105555D02*
Y-103390D01*
X314390Y-105555D02*
Y-103390D01*
X318524D01*
X314390Y-105555D02*
X318524D01*
X284890Y-114555D02*
X289024D01*
X284890Y-112390D02*
X289024D01*
X284890Y-114555D02*
Y-112390D01*
X289024Y-114555D02*
Y-112390D01*
X295374Y-166905D02*
X297539D01*
X295374Y-171039D02*
X297539D01*
X295374D02*
Y-166905D01*
X297539Y-171039D02*
Y-166905D01*
X317539Y-171039D02*
Y-166905D01*
X315374Y-171039D02*
Y-166905D01*
Y-171039D02*
X317539D01*
X315374Y-166905D02*
X317539D01*
X232917Y-116882D02*
X235083D01*
X232917Y-112748D02*
X235083D01*
Y-116882D02*
Y-112748D01*
X232917Y-116882D02*
Y-112748D01*
X242933Y-132398D02*
X247067D01*
X242933Y-130232D02*
X247067D01*
X242933Y-132398D02*
Y-130232D01*
X247067Y-132398D02*
Y-130232D01*
X315539Y-94039D02*
Y-89906D01*
X313374Y-94039D02*
Y-89906D01*
Y-94039D02*
X315539D01*
X313374Y-89906D02*
X315539D01*
X153417Y-97882D02*
X155583D01*
X153417Y-93748D02*
X155583D01*
Y-97882D02*
Y-93748D01*
X153417Y-97882D02*
Y-93748D01*
X157417Y-97882D02*
Y-93748D01*
X159583Y-97882D02*
Y-93748D01*
X157417D02*
X159583D01*
X157417Y-97882D02*
X159583D01*
X148917D02*
X151083D01*
X148917Y-93748D02*
X151083D01*
Y-97882D02*
Y-93748D01*
X148917Y-97882D02*
Y-93748D01*
X187933Y-124398D02*
X192067D01*
X187933Y-122232D02*
X192067D01*
X187933Y-124398D02*
Y-122232D01*
X192067Y-124398D02*
Y-122232D01*
Y-111946D02*
Y-109780D01*
X187933Y-111946D02*
Y-109780D01*
X192067D01*
X187933Y-111946D02*
X192067D01*
X187933Y-104246D02*
X192067D01*
X187933Y-102080D02*
X192067D01*
X187933Y-104246D02*
Y-102080D01*
X192067Y-104246D02*
Y-102080D01*
Y-100046D02*
Y-97880D01*
X187933Y-100046D02*
Y-97880D01*
X192067D01*
X187933Y-100046D02*
X192067D01*
X187933Y-134398D02*
X192067D01*
X187933Y-132232D02*
X192067D01*
X187933Y-134398D02*
Y-132232D01*
X192067Y-134398D02*
Y-132232D01*
X76977Y-137349D02*
Y-135184D01*
X81111Y-137349D02*
Y-135184D01*
X76977Y-137349D02*
X81111D01*
X76977Y-135184D02*
X81111D01*
X187933Y-130398D02*
X192067D01*
X187933Y-128232D02*
X192067D01*
X187933Y-130398D02*
Y-128232D01*
X192067Y-130398D02*
Y-128232D01*
X79520Y-105911D02*
Y-103746D01*
X83654Y-105911D02*
Y-103746D01*
X79520D02*
X83654D01*
X79520Y-105911D02*
X83654D01*
X120632Y-70157D02*
X123555Y-73081D01*
X122163Y-68626D02*
X125086Y-71549D01*
X123555Y-73081D02*
X125086Y-71549D01*
X120632Y-70157D02*
X122163Y-68626D01*
X133876Y-72187D02*
X136041D01*
X133876Y-76320D02*
X136041D01*
Y-72187D01*
X133876Y-76320D02*
Y-72187D01*
X79518Y-120628D02*
X83652D01*
X79518Y-118463D02*
X83652D01*
Y-120628D02*
Y-118463D01*
X79518Y-120628D02*
Y-118463D01*
X83917Y-179882D02*
X86083D01*
X83917Y-175748D02*
X86083D01*
X83917Y-179882D02*
Y-175748D01*
X86083Y-179882D02*
Y-175748D01*
X83917Y-171882D02*
Y-167748D01*
X86083Y-171882D02*
Y-167748D01*
X83917Y-171882D02*
X86083D01*
X83917Y-167748D02*
X86083D01*
X95417Y-15382D02*
Y-11248D01*
X97583Y-15382D02*
Y-11248D01*
X95417D02*
X97583D01*
X95417Y-15382D02*
X97583D01*
X114465Y-71729D02*
X117388Y-74652D01*
X112934Y-73260D02*
X115857Y-76184D01*
X112934Y-73260D02*
X114465Y-71729D01*
X115857Y-76184D02*
X117388Y-74652D01*
X67654Y-157130D02*
X69820D01*
X67654Y-152996D02*
X69820D01*
X67654Y-157130D02*
Y-152996D01*
X69820Y-157130D02*
Y-152996D01*
X209417Y-102382D02*
Y-98248D01*
X211583Y-102382D02*
Y-98248D01*
X209417D02*
X211583D01*
X209417Y-102382D02*
X211583D01*
X231933Y-31398D02*
Y-29232D01*
X236067Y-31398D02*
Y-29232D01*
X231933D02*
X236067D01*
X231933Y-31398D02*
X236067D01*
X231933Y-25732D02*
X236067D01*
X231933Y-27898D02*
X236067D01*
X231933D02*
Y-25732D01*
X236067Y-27898D02*
Y-25732D01*
X231933Y-17398D02*
Y-15232D01*
X236067Y-17398D02*
Y-15232D01*
X231933D02*
X236067D01*
X231933Y-17398D02*
X236067D01*
X244583Y-115382D02*
Y-111248D01*
X242417Y-115382D02*
Y-111248D01*
Y-115382D02*
X244583D01*
X242417Y-111248D02*
X244583D01*
X192304Y-120446D02*
Y-118280D01*
X188170Y-120446D02*
Y-118280D01*
Y-120446D02*
X192304D01*
X188170Y-118280D02*
X192304D01*
X273639Y-42732D02*
X277773D01*
X273639Y-44898D02*
X277773D01*
X273639D02*
Y-42732D01*
X277773Y-44898D02*
Y-42732D01*
X231933Y-20898D02*
Y-18732D01*
X236067Y-20898D02*
Y-18732D01*
X231933D02*
X236067D01*
X231933Y-20898D02*
X236067D01*
X44363Y-47226D02*
X47286Y-50150D01*
X42832Y-48757D02*
X45755Y-51681D01*
X42832Y-48757D02*
X44363Y-47226D01*
X45755Y-51681D02*
X47286Y-50150D01*
X150864Y-51590D02*
Y-49425D01*
X146730Y-51590D02*
Y-49425D01*
Y-51590D02*
X150864D01*
X146730Y-49425D02*
X150864D01*
X39532Y-51758D02*
X42455Y-54681D01*
X41063Y-50226D02*
X43986Y-53149D01*
X42455Y-54681D02*
X43986Y-53149D01*
X39532Y-51758D02*
X41063Y-50226D01*
X146637Y-47223D02*
Y-45058D01*
X150771Y-47223D02*
Y-45058D01*
X146637D02*
X150771D01*
X146637Y-47223D02*
X150771D01*
X77732Y-66950D02*
X80655Y-64027D01*
X79263Y-68481D02*
X82186Y-65558D01*
X80655Y-64027D02*
X82186Y-65558D01*
X77732Y-66950D02*
X79263Y-68481D01*
X87155Y-57527D02*
X88686Y-59058D01*
X84232Y-60450D02*
X85763Y-61981D01*
X84232Y-60450D02*
X87155Y-57527D01*
X85763Y-61981D02*
X88686Y-59058D01*
X39393Y-73083D02*
X42316Y-70160D01*
X40925Y-74615D02*
X43848Y-71692D01*
X42316Y-70160D02*
X43848Y-71692D01*
X39393Y-73083D02*
X40925Y-74615D01*
X74732Y-71560D02*
X76263Y-70029D01*
X77655Y-74483D02*
X79186Y-72952D01*
X74732Y-71560D02*
X77655Y-74483D01*
X76263Y-70029D02*
X79186Y-72952D01*
X49263Y-66481D02*
X52186Y-63558D01*
X47732Y-64950D02*
X50655Y-62027D01*
X47732Y-64950D02*
X49263Y-66481D01*
X50655Y-62027D02*
X52186Y-63558D01*
X76970Y-137846D02*
Y-135680D01*
X81104Y-137846D02*
Y-135680D01*
X76970D02*
X81104D01*
X76970Y-137846D02*
X81104D01*
X16232Y-80058D02*
X19155Y-82981D01*
X17763Y-78526D02*
X20686Y-81450D01*
X19155Y-82981D02*
X20686Y-81450D01*
X16232Y-80058D02*
X17763Y-78526D01*
X16732Y-74558D02*
X18263Y-73026D01*
X19655Y-77481D02*
X21186Y-75950D01*
X18263Y-73026D02*
X21186Y-75950D01*
X16732Y-74558D02*
X19655Y-77481D01*
X19732Y-71557D02*
X22655Y-74481D01*
X21263Y-70026D02*
X24186Y-72949D01*
X22655Y-74481D02*
X24186Y-72949D01*
X19732Y-71557D02*
X21263Y-70026D01*
X22732Y-68558D02*
X24263Y-67026D01*
X25655Y-71481D02*
X27186Y-69950D01*
X24263Y-67026D02*
X27186Y-69950D01*
X22732Y-68558D02*
X25655Y-71481D01*
X25732Y-65557D02*
X28655Y-68481D01*
X27263Y-64026D02*
X30186Y-66949D01*
X28655Y-68481D02*
X30186Y-66949D01*
X25732Y-65557D02*
X27263Y-64026D01*
X36755Y-60681D02*
X38286Y-59149D01*
X33832Y-57758D02*
X35363Y-56226D01*
X33832Y-57758D02*
X36755Y-60681D01*
X35363Y-56226D02*
X38286Y-59149D01*
X58232Y-68450D02*
X61155Y-65527D01*
X59763Y-69981D02*
X62686Y-67058D01*
X61155Y-65527D02*
X62686Y-67058D01*
X58232Y-68450D02*
X59763Y-69981D01*
X60244Y-85169D02*
X61775Y-86700D01*
X63167Y-82246D02*
X64698Y-83777D01*
X61775Y-86700D02*
X64698Y-83777D01*
X60244Y-85169D02*
X63167Y-82246D01*
X54995Y-92749D02*
X57918Y-89826D01*
X53464Y-91218D02*
X56387Y-88295D01*
X53464Y-91218D02*
X54995Y-92749D01*
X56387Y-88295D02*
X57918Y-89826D01*
X59863Y-52227D02*
X61394Y-53758D01*
X56940Y-55150D02*
X58471Y-56681D01*
X56940Y-55150D02*
X59863Y-52227D01*
X58471Y-56681D02*
X61394Y-53758D01*
X257917Y-109882D02*
X260083D01*
X257917Y-105748D02*
X260083D01*
Y-109882D02*
Y-105748D01*
X257917Y-109882D02*
Y-105748D01*
X110433Y-175397D02*
Y-173232D01*
X114567Y-175397D02*
Y-173232D01*
X110433D02*
X114567D01*
X110433Y-175397D02*
X114567D01*
X45879Y-137898D02*
Y-135732D01*
X41745Y-137898D02*
Y-135732D01*
Y-137898D02*
X45879D01*
X41745Y-135732D02*
X45879D01*
X32058D02*
X36192D01*
X32058Y-137898D02*
X36192D01*
X32058D02*
Y-135732D01*
X36192Y-137898D02*
Y-135732D01*
X161567Y-14898D02*
Y-12732D01*
X157433Y-14898D02*
Y-12732D01*
X161567D01*
X157433Y-14898D02*
X161567D01*
X84054Y-159030D02*
X86220D01*
X84054Y-154896D02*
X86220D01*
X84054Y-159030D02*
Y-154896D01*
X86220Y-159030D02*
Y-154896D01*
X63054Y-157030D02*
X65220D01*
X63054Y-152896D02*
X65220D01*
X63054Y-157030D02*
Y-152896D01*
X65220Y-157030D02*
Y-152896D01*
X51433Y-135732D02*
X55567D01*
X51433Y-137898D02*
X55567D01*
X51433D02*
Y-135732D01*
X55567Y-137898D02*
Y-135732D01*
X312039Y-94039D02*
Y-89906D01*
X309874Y-94039D02*
Y-89906D01*
Y-94039D02*
X312039D01*
X309874Y-89906D02*
X312039D01*
X277146Y-109283D02*
Y-85661D01*
X300768Y-109283D02*
Y-85661D01*
X277146Y-109283D02*
X300768D01*
X277146Y-85661D02*
X300768D01*
X258567Y-75398D02*
Y-73232D01*
X254433Y-75398D02*
Y-73232D01*
Y-75398D02*
X258567D01*
X254433Y-73232D02*
X258567D01*
X284417Y-6882D02*
X286583D01*
X284417Y-2748D02*
X286583D01*
X284417Y-6882D02*
Y-2748D01*
X286583Y-6882D02*
Y-2748D01*
X236067Y-24398D02*
Y-22232D01*
X231933Y-24398D02*
Y-22232D01*
Y-24398D02*
X236067D01*
X231933Y-22232D02*
X236067D01*
X267417Y-7382D02*
X269583D01*
X267417Y-3248D02*
X269583D01*
Y-7382D02*
Y-3248D01*
X267417Y-7382D02*
Y-3248D01*
X337917Y-41882D02*
X340083D01*
X337917Y-37748D02*
X340083D01*
X337917Y-41882D02*
Y-37748D01*
X340083Y-41882D02*
Y-37748D01*
X341417Y-41882D02*
X343583D01*
X341417Y-37748D02*
X343583D01*
X341417Y-41882D02*
Y-37748D01*
X343583Y-41882D02*
Y-37748D01*
X243433Y-172898D02*
Y-170732D01*
X247567Y-172898D02*
Y-170732D01*
X243433Y-172898D02*
X247567D01*
X243433Y-170732D02*
X247567D01*
Y-169398D02*
Y-167232D01*
X243433Y-169398D02*
Y-167232D01*
X247567D01*
X243433Y-169398D02*
X247567D01*
X323417Y-9882D02*
Y-5748D01*
X325583Y-9882D02*
Y-5748D01*
X323417D02*
X325583D01*
X323417Y-9882D02*
X325583D01*
X279083Y-153913D02*
Y-149779D01*
X276917Y-153913D02*
Y-149779D01*
X279083D01*
X276917Y-153913D02*
X279083D01*
X146583Y-15382D02*
Y-11248D01*
X144417Y-15382D02*
Y-11248D01*
Y-15382D02*
X146583D01*
X144417Y-11248D02*
X146583D01*
X148417Y-3248D02*
X150583D01*
X148417Y-7382D02*
X150583D01*
X148417D02*
Y-3248D01*
X150583Y-7382D02*
Y-3248D01*
X126567Y-30398D02*
Y-28232D01*
X122433Y-30398D02*
Y-28232D01*
Y-30398D02*
X126567D01*
X122433Y-28232D02*
X126567D01*
X293417Y-153012D02*
X313496D01*
X293417Y-132933D02*
X313496D01*
Y-153012D02*
Y-132933D01*
X293417Y-153012D02*
Y-132933D01*
X342583Y-115382D02*
Y-111248D01*
X340417Y-115382D02*
Y-111248D01*
Y-115382D02*
X342583D01*
X340417Y-111248D02*
X342583D01*
X326417Y-107882D02*
Y-103748D01*
X328583Y-107882D02*
Y-103748D01*
X326417D02*
X328583D01*
X326417Y-107882D02*
X328583D01*
X235917Y-79248D02*
X238083D01*
X235917Y-83382D02*
X238083D01*
Y-79248D01*
X235917Y-83382D02*
Y-79248D01*
M02*
