G04 Layer_Color=16711935*
%FSLAX25Y25*%
%MOIN*%
G70*
G01*
G75*
%ADD113C,0.09449*%
%ADD114R,0.04343X0.04343*%
%ADD115R,0.02769X0.03162*%
%ADD118C,0.04737*%
%ADD119R,0.03162X0.02769*%
G04:AMPARAMS|DCode=120|XSize=27.69mil|YSize=31.62mil|CornerRadius=0mil|HoleSize=0mil|Usage=FLASHONLY|Rotation=45.000|XOffset=0mil|YOffset=0mil|HoleType=Round|Shape=Rectangle|*
%AMROTATEDRECTD120*
4,1,4,0.00139,-0.02097,-0.02097,0.00139,-0.00139,0.02097,0.02097,-0.00139,0.00139,-0.02097,0.0*
%
%ADD120ROTATEDRECTD120*%

%ADD122R,0.04343X0.04343*%
%ADD136R,0.18123X0.05918*%
%ADD137C,0.05524*%
%ADD139O,0.03900X0.02000*%
%ADD140O,0.02000X0.03900*%
%ADD144R,0.03556X0.02375*%
%ADD148R,0.05918X0.18123*%
%ADD149C,0.12611*%
%ADD150C,0.04540*%
%ADD151C,0.06706*%
G04:AMPARAMS|DCode=153|XSize=244.22mil|YSize=244.22mil|CornerRadius=0mil|HoleSize=0mil|Usage=FLASHONLY|Rotation=0.000|XOffset=0mil|YOffset=0mil|HoleType=Round|Shape=RoundedRectangle|*
%AMROUNDEDRECTD153*
21,1,0.24422,0.24422,0,0,0.0*
21,1,0.24422,0.24422,0,0,0.0*
1,1,0.00000,0.12211,-0.12211*
1,1,0.00000,-0.12211,-0.12211*
1,1,0.00000,-0.12211,0.12211*
1,1,0.00000,0.12211,0.12211*
%
%ADD153ROUNDEDRECTD153*%
%ADD154C,0.02769*%
%ADD155R,0.04737X0.04737*%
%ADD156R,0.04934X0.09461*%
%ADD157O,0.03950X0.01784*%
%ADD158O,0.01784X0.03950*%
%ADD159R,0.14973X0.14973*%
%ADD160R,0.01784X0.01883*%
%ADD161R,0.01883X0.01784*%
%ADD162R,0.21666X0.07493*%
G04:AMPARAMS|DCode=163|XSize=27.69mil|YSize=31.62mil|CornerRadius=0mil|HoleSize=0mil|Usage=FLASHONLY|Rotation=315.000|XOffset=0mil|YOffset=0mil|HoleType=Round|Shape=Rectangle|*
%AMROTATEDRECTD163*
4,1,4,-0.02097,-0.00139,0.00139,0.02097,0.02097,0.00139,-0.00139,-0.02097,-0.02097,-0.00139,0.0*
%
%ADD163ROTATEDRECTD163*%

%ADD164R,0.05131X0.03950*%
%ADD165R,0.05131X0.08674*%
%ADD166R,0.08280X0.05131*%
%ADD167R,0.11430X0.03556*%
%ADD168R,0.05721X0.05918*%
%ADD169R,0.02375X0.03556*%
%ADD170R,0.06312X0.05524*%
%ADD171R,0.03950X0.02375*%
%ADD172R,0.03359X0.03950*%
%ADD173R,0.07099X0.03950*%
%ADD174R,0.04800X0.06800*%
%ADD175C,0.12800*%
D113*
X8500Y-135000D02*
D03*
D114*
X287500Y-86250D02*
D03*
Y-92750D02*
D03*
X274000Y-4250D02*
D03*
Y-10750D02*
D03*
X268500D02*
D03*
Y-4250D02*
D03*
X233500Y-11250D02*
D03*
Y-4750D02*
D03*
X302500Y-149750D02*
D03*
Y-143250D02*
D03*
X335000Y-153502D02*
D03*
Y-147002D02*
D03*
X140000Y-4002D02*
D03*
Y-10502D02*
D03*
X100437Y-89150D02*
D03*
Y-82650D02*
D03*
X73000Y-160502D02*
D03*
Y-167002D02*
D03*
X95500Y-9750D02*
D03*
Y-3250D02*
D03*
X259000Y-11002D02*
D03*
Y-4502D02*
D03*
X57000Y-10250D02*
D03*
Y-3750D02*
D03*
X278500Y-86250D02*
D03*
Y-92750D02*
D03*
X67500Y-160502D02*
D03*
Y-167002D02*
D03*
D115*
X283000Y-86032D02*
D03*
Y-89969D02*
D03*
X292000Y-86032D02*
D03*
Y-89969D02*
D03*
X310500Y-124221D02*
D03*
Y-120283D02*
D03*
X302500Y-116220D02*
D03*
Y-112284D02*
D03*
X270000Y-113531D02*
D03*
Y-117469D02*
D03*
X289000Y-117720D02*
D03*
Y-113784D02*
D03*
X250000Y-176221D02*
D03*
Y-172283D02*
D03*
X246500Y-176221D02*
D03*
Y-172283D02*
D03*
X81000Y-163784D02*
D03*
Y-167720D02*
D03*
X30937Y-9031D02*
D03*
Y-12968D02*
D03*
X34458D02*
D03*
Y-9031D02*
D03*
X141000Y-19220D02*
D03*
Y-15283D02*
D03*
X145000Y-7283D02*
D03*
Y-11220D02*
D03*
X77500Y-163784D02*
D03*
Y-167720D02*
D03*
X155737Y-83469D02*
D03*
Y-79532D02*
D03*
X150000Y-101720D02*
D03*
Y-97783D02*
D03*
X154000D02*
D03*
Y-101720D02*
D03*
X145500D02*
D03*
Y-97783D02*
D03*
X94500Y-18469D02*
D03*
Y-14532D02*
D03*
X264000Y-11220D02*
D03*
Y-7283D02*
D03*
X206000Y-102284D02*
D03*
Y-106220D02*
D03*
X316000Y-9783D02*
D03*
Y-13721D02*
D03*
X97900Y-18469D02*
D03*
Y-14532D02*
D03*
X320000Y-9783D02*
D03*
Y-13721D02*
D03*
X254000Y-112969D02*
D03*
Y-109031D02*
D03*
X292500Y-117720D02*
D03*
Y-113784D02*
D03*
X298500Y-124220D02*
D03*
Y-120283D02*
D03*
X215000Y-102284D02*
D03*
Y-106220D02*
D03*
X211000Y-102284D02*
D03*
Y-106220D02*
D03*
X145000Y-15283D02*
D03*
Y-19220D02*
D03*
X41500Y-12968D02*
D03*
Y-9031D02*
D03*
X37979Y-12968D02*
D03*
Y-9031D02*
D03*
X176000Y-82468D02*
D03*
Y-78531D02*
D03*
X306500Y-116220D02*
D03*
Y-112284D02*
D03*
D118*
X255500Y-147500D02*
D03*
X253000Y-124626D02*
D03*
X4000Y-41500D02*
D03*
X225000Y-183500D02*
D03*
X158000Y-178000D02*
D03*
X291000Y-162000D02*
D03*
X260874Y-120000D02*
D03*
X263000Y-151000D02*
D03*
X271000Y-176500D02*
D03*
X253000Y-132500D02*
D03*
X137000Y-78740D02*
D03*
Y-86614D02*
D03*
X196500Y-167752D02*
D03*
X274000Y-49252D02*
D03*
X336000Y-47252D02*
D03*
X8000Y-7252D02*
D03*
X2000Y-152252D02*
D03*
X313500Y-177937D02*
D03*
X247500Y-57252D02*
D03*
X336839Y-7087D02*
D03*
X328965D02*
D03*
X154500Y-40752D02*
D03*
X145000Y-68252D02*
D03*
X184000Y-57252D02*
D03*
X125500Y-30252D02*
D03*
Y-46252D02*
D03*
X262008Y-41264D02*
D03*
X288000Y-47252D02*
D03*
X223000Y-95252D02*
D03*
X285000Y-10500D02*
D03*
X213266Y-15486D02*
D03*
X41000Y-181252D02*
D03*
X222500Y-19752D02*
D03*
X38000Y-24252D02*
D03*
X305500Y-61752D02*
D03*
X329000Y-34752D02*
D03*
X209626Y-167126D02*
D03*
X309500Y-47252D02*
D03*
X152000Y-146500D02*
D03*
X104500Y-120000D02*
D03*
X314000Y-34752D02*
D03*
X301000Y-25252D02*
D03*
X271000Y-168626D02*
D03*
X215500Y-34752D02*
D03*
X300750Y-3750D02*
D03*
X230000Y-26500D02*
D03*
X176000Y-72500D02*
D03*
X256000Y-176000D02*
D03*
Y-168126D02*
D03*
X162500Y-31500D02*
D03*
X73000Y-175000D02*
D03*
X271000Y-85000D02*
D03*
X262500D02*
D03*
X169000Y-126500D02*
D03*
X216281Y-50252D02*
D03*
D119*
X264469Y-129752D02*
D03*
X260531D02*
D03*
X264469Y-133252D02*
D03*
X260531D02*
D03*
X264469Y-136752D02*
D03*
X260531D02*
D03*
X264469Y-143752D02*
D03*
X260531D02*
D03*
X264469Y-140252D02*
D03*
X260531D02*
D03*
X264469Y-126252D02*
D03*
X260531D02*
D03*
X314469Y-120252D02*
D03*
X310531D02*
D03*
X306469D02*
D03*
X302532D02*
D03*
X72268Y-144800D02*
D03*
X76205D02*
D03*
X281031Y-148752D02*
D03*
X284968D02*
D03*
X295532Y-132752D02*
D03*
X299468D02*
D03*
X161369Y-120500D02*
D03*
X165305D02*
D03*
X229468Y-124500D02*
D03*
X225532D02*
D03*
X237531Y-130000D02*
D03*
X241469D02*
D03*
X183531Y-127252D02*
D03*
X187469D02*
D03*
Y-114800D02*
D03*
X183531D02*
D03*
Y-107100D02*
D03*
X187469D02*
D03*
Y-102900D02*
D03*
X183531D02*
D03*
Y-137252D02*
D03*
X187469D02*
D03*
X72575Y-140203D02*
D03*
X76512D02*
D03*
X183531Y-133252D02*
D03*
X187469D02*
D03*
X87468Y-7500D02*
D03*
X83531D02*
D03*
X227532Y-120500D02*
D03*
X231469D02*
D03*
X241469Y-133500D02*
D03*
X237531D02*
D03*
X237531Y-137000D02*
D03*
X241469D02*
D03*
X242969Y-172252D02*
D03*
X239032D02*
D03*
X239032Y-175752D02*
D03*
X242969D02*
D03*
X152868Y-3100D02*
D03*
X156806D02*
D03*
X156905Y-8900D02*
D03*
X152969D02*
D03*
X152868Y-13200D02*
D03*
X156806D02*
D03*
X156968Y-17752D02*
D03*
X153032D02*
D03*
D120*
X71067Y-74801D02*
D03*
X73851Y-77585D02*
D03*
D122*
X186787Y-154700D02*
D03*
X180287D02*
D03*
X294250Y-9252D02*
D03*
X300750D02*
D03*
X296250Y-137252D02*
D03*
X302750D02*
D03*
X162250Y-75252D02*
D03*
X168750D02*
D03*
X83250Y-3500D02*
D03*
X89750D02*
D03*
X209750Y-115252D02*
D03*
X216250D02*
D03*
X231250Y-116000D02*
D03*
X224750D02*
D03*
X216250Y-126500D02*
D03*
X209750D02*
D03*
X238550Y-125500D02*
D03*
X245050D02*
D03*
X237750Y-120000D02*
D03*
X244250D02*
D03*
X186987Y-77800D02*
D03*
X180487D02*
D03*
X294250Y-15252D02*
D03*
X300750D02*
D03*
D136*
X70000Y-16209D02*
D03*
Y-4791D02*
D03*
D137*
X8500Y-135000D02*
D03*
D139*
X154212Y-60047D02*
D03*
Y-62016D02*
D03*
Y-63984D02*
D03*
Y-65953D02*
D03*
X158660D02*
D03*
Y-63984D02*
D03*
Y-62016D02*
D03*
Y-60047D02*
D03*
D140*
X174126Y-60194D02*
D03*
X172157D02*
D03*
X170188D02*
D03*
X168219D02*
D03*
Y-64642D02*
D03*
X170188D02*
D03*
X172157D02*
D03*
X174126D02*
D03*
D144*
X90949Y-19240D02*
D03*
Y-11563D02*
D03*
X81500Y-11760D02*
D03*
Y-15500D02*
D03*
Y-19240D02*
D03*
X219051Y-102012D02*
D03*
Y-109689D02*
D03*
X228500Y-109492D02*
D03*
Y-105752D02*
D03*
Y-102012D02*
D03*
D148*
X234291Y-103500D02*
D03*
X245709D02*
D03*
X208291Y-139500D02*
D03*
X219709D02*
D03*
D149*
X215972Y-73228D02*
D03*
X334870Y-23228D02*
D03*
Y-164961D02*
D03*
X2587D02*
D03*
X2587Y-23228D02*
D03*
D150*
X281000Y-100000D02*
D03*
X286000D02*
D03*
X291000D02*
D03*
X23000Y-181252D02*
D03*
X18000D02*
D03*
X13000D02*
D03*
X8000D02*
D03*
X192537Y-163700D02*
D03*
X187537D02*
D03*
X329000Y-45752D02*
D03*
Y-40752D02*
D03*
X109000Y-184252D02*
D03*
X114000D02*
D03*
X119000D02*
D03*
X124000D02*
D03*
X129000D02*
D03*
X134000D02*
D03*
X139000D02*
D03*
D151*
X51579Y-169200D02*
D03*
X41737D02*
D03*
X31894D02*
D03*
D153*
X131859Y-129891D02*
D03*
D154*
X277669Y-139583D02*
D03*
Y-130921D02*
D03*
X286331Y-139583D02*
D03*
Y-130921D02*
D03*
X277669Y-135252D02*
D03*
X286331D02*
D03*
X282000Y-139583D02*
D03*
Y-130921D02*
D03*
Y-135252D02*
D03*
D155*
X315500Y-130847D02*
D03*
Y-142657D02*
D03*
D156*
X321307Y-136752D02*
D03*
X309693D02*
D03*
D157*
X291547Y-128362D02*
D03*
Y-130331D02*
D03*
Y-132299D02*
D03*
Y-134268D02*
D03*
Y-136236D02*
D03*
Y-138205D02*
D03*
Y-140173D02*
D03*
Y-142142D02*
D03*
X272453D02*
D03*
Y-140173D02*
D03*
Y-138205D02*
D03*
Y-136236D02*
D03*
Y-134268D02*
D03*
Y-132299D02*
D03*
Y-130331D02*
D03*
Y-128362D02*
D03*
D158*
X288890Y-144799D02*
D03*
X286921D02*
D03*
X284953D02*
D03*
X282984D02*
D03*
X281016D02*
D03*
X279047D02*
D03*
X277079D02*
D03*
X275110D02*
D03*
Y-125705D02*
D03*
X277079D02*
D03*
X279047D02*
D03*
X281016D02*
D03*
X282984D02*
D03*
X284953D02*
D03*
X286921D02*
D03*
X288890D02*
D03*
D159*
X282000Y-135252D02*
D03*
D160*
X308016Y-14705D02*
D03*
X309984D02*
D03*
X309984Y-8799D02*
D03*
X308016Y-8799D02*
D03*
D161*
X311953Y-14705D02*
D03*
Y-12736D02*
D03*
Y-10768D02*
D03*
Y-8799D02*
D03*
X306047D02*
D03*
Y-10768D02*
D03*
Y-12736D02*
D03*
Y-14705D02*
D03*
D162*
X114500Y-16961D02*
D03*
Y-5543D02*
D03*
D163*
X61567Y-49783D02*
D03*
X64351Y-46999D02*
D03*
X61067Y-58083D02*
D03*
X63851Y-55299D02*
D03*
X76851Y-68799D02*
D03*
X74067Y-71583D02*
D03*
X83351Y-62299D02*
D03*
X80567Y-65083D02*
D03*
X38513Y-74932D02*
D03*
X35729Y-77716D02*
D03*
X44067Y-69583D02*
D03*
X46851Y-66799D02*
D03*
X57351Y-70299D02*
D03*
X54567Y-73083D02*
D03*
X56579Y-89802D02*
D03*
X59363Y-87018D02*
D03*
X49799Y-95851D02*
D03*
X52583Y-93067D02*
D03*
X56059Y-56999D02*
D03*
X53275Y-59783D02*
D03*
D164*
X243500Y-154240D02*
D03*
D165*
Y-146760D02*
D03*
D166*
X103768Y-130709D02*
D03*
Y-175591D02*
D03*
D167*
X89201Y-138386D02*
D03*
Y-144292D02*
D03*
Y-150197D02*
D03*
Y-156103D02*
D03*
Y-162008D02*
D03*
Y-167914D02*
D03*
D168*
X133000Y-5012D02*
D03*
Y-12492D02*
D03*
D169*
X233240Y-128224D02*
D03*
X229500D02*
D03*
X225760D02*
D03*
Y-137279D02*
D03*
X229500D02*
D03*
X233240D02*
D03*
D170*
X283500Y-116752D02*
D03*
X275232D02*
D03*
Y-110846D02*
D03*
X283500D02*
D03*
D171*
X335000Y-131346D02*
D03*
D172*
X336870Y-130559D02*
D03*
X333130Y-130559D02*
D03*
D173*
X335000Y-143945D02*
D03*
D174*
X231903Y-154194D02*
D03*
X235643Y-144352D02*
D03*
X228163D02*
D03*
D175*
X250000Y-35752D02*
D03*
M02*
