G04 Layer_Physical_Order=4*
G04 Layer_Color=16440176*
%FSLAX25Y25*%
%MOIN*%
G70*
G01*
G75*
%ADD49C,0.02000*%
%ADD51C,0.04000*%
%ADD52C,0.03000*%
%ADD58C,0.03500*%
%ADD60C,0.08000*%
%ADD61C,0.05000*%
%ADD70C,0.11811*%
%ADD71C,0.03740*%
%ADD72C,0.05906*%
G04:AMPARAMS|DCode=74|XSize=236.22mil|YSize=236.22mil|CornerRadius=0mil|HoleSize=0mil|Usage=FLASHONLY|Rotation=0.000|XOffset=0mil|YOffset=0mil|HoleType=Round|Shape=RoundedRectangle|*
%AMROUNDEDRECTD74*
21,1,0.23622,0.23622,0,0,0.0*
21,1,0.23622,0.23622,0,0,0.0*
1,1,0.00000,0.11811,-0.11811*
1,1,0.00000,-0.11811,-0.11811*
1,1,0.00000,-0.11811,0.11811*
1,1,0.00000,0.11811,0.11811*
%
%ADD74ROUNDEDRECTD74*%
%ADD75C,0.03000*%
%ADD76C,0.01800*%
%ADD77C,0.01600*%
%ADD78C,0.02200*%
%ADD79C,0.02400*%
%ADD80C,0.01799*%
%ADD81C,0.01969*%
%ADD82C,0.12000*%
G36*
X303457Y-30500D02*
Y-33500D01*
X300457Y-36500D01*
X297457Y-32000D01*
X300457Y-27500D01*
X303457Y-30500D01*
D02*
G37*
G36*
X215972Y-29386D02*
X216002Y-29407D01*
X216025Y-29436D01*
X216081Y-29468D01*
X216126Y-29513D01*
X216186Y-29538D01*
X216237Y-29577D01*
X216272Y-29587D01*
X216302Y-29607D01*
X216302Y-29607D01*
X216302Y-29607D01*
X216317Y-29610D01*
X216317Y-29610D01*
X216349Y-29624D01*
X216350Y-29624D01*
X216350Y-29624D01*
X216351Y-29624D01*
X216351Y-29624D01*
X216352Y-29625D01*
X216358Y-29626D01*
X216370Y-29633D01*
X216370Y-29633D01*
X216394Y-29636D01*
X216417Y-29649D01*
X216417Y-29649D01*
X216470Y-29656D01*
X216494Y-29665D01*
X216507Y-29668D01*
X216511D01*
X216513Y-29669D01*
X216514Y-29669D01*
X216560Y-29669D01*
X216566Y-29671D01*
X216581D01*
X216620Y-29682D01*
X216635Y-29680D01*
X216740Y-29701D01*
X216741Y-29701D01*
X216742Y-29701D01*
X216777Y-29694D01*
X216812Y-29699D01*
X216870Y-29683D01*
X216892Y-29685D01*
X216943Y-29671D01*
X216964Y-29671D01*
X216979Y-29668D01*
X216979Y-29668D01*
X217019Y-29668D01*
X217033Y-29665D01*
X217123Y-29628D01*
X217206Y-29612D01*
X217206Y-29612D01*
X217206Y-29612D01*
X217220Y-29609D01*
X217221Y-29609D01*
X217223Y-29608D01*
X217225Y-29607D01*
X217258Y-29585D01*
X217276Y-29580D01*
X217318Y-29548D01*
X217401Y-29513D01*
X217470Y-29444D01*
X217552Y-29389D01*
X217554Y-29388D01*
X217556Y-29386D01*
X217627Y-29315D01*
X217627Y-29315D01*
X217980Y-28962D01*
X218118Y-28976D01*
X218480Y-29169D01*
Y-31473D01*
X218558Y-31863D01*
X218779Y-32194D01*
X219371Y-32786D01*
X219730Y-33253D01*
X219929Y-33735D01*
X220006Y-34319D01*
Y-48181D01*
X220036Y-48328D01*
X220050Y-48477D01*
X220074Y-48522D01*
X220084Y-48571D01*
X220167Y-48696D01*
X220238Y-48828D01*
X220277Y-48860D01*
X220305Y-48902D01*
X220522Y-49433D01*
X220359Y-50252D01*
X220522Y-51071D01*
X220305Y-51602D01*
X220277Y-51644D01*
X220238Y-51676D01*
X220167Y-51808D01*
X220084Y-51933D01*
X220074Y-51982D01*
X220050Y-52027D01*
X220036Y-52176D01*
X220006Y-52323D01*
Y-54685D01*
X219929Y-55269D01*
X219730Y-55751D01*
X219371Y-56218D01*
X218779Y-56810D01*
X218558Y-57141D01*
X218480Y-57531D01*
Y-62500D01*
X218558Y-62890D01*
X218779Y-63221D01*
X219110Y-63442D01*
X219500Y-63520D01*
X221433D01*
X221483Y-64020D01*
X221298Y-64056D01*
X220702Y-64454D01*
X220304Y-65050D01*
X220165Y-65752D01*
X220304Y-66454D01*
X220702Y-67050D01*
X221298Y-67448D01*
X222000Y-67587D01*
X222455Y-67497D01*
X222955Y-67834D01*
Y-70736D01*
X222455Y-70810D01*
X222383Y-70573D01*
X221742Y-69373D01*
X220879Y-68322D01*
X219828Y-67459D01*
X218628Y-66818D01*
X217326Y-66423D01*
X215972Y-66289D01*
X214619Y-66423D01*
X213317Y-66818D01*
X212117Y-67459D01*
X211066Y-68322D01*
X210203Y-69373D01*
X209562Y-70573D01*
X209167Y-71875D01*
X209033Y-73228D01*
X209167Y-74582D01*
X209562Y-75884D01*
X210203Y-77083D01*
X211066Y-78135D01*
X212117Y-78998D01*
X213317Y-79639D01*
X214619Y-80034D01*
X215972Y-80167D01*
X217326Y-80034D01*
X218628Y-79639D01*
X219828Y-78998D01*
X220879Y-78135D01*
X221742Y-77083D01*
X222383Y-75884D01*
X222455Y-75647D01*
X222955Y-75721D01*
Y-87208D01*
X218777Y-91386D01*
X215085Y-95078D01*
Y-97845D01*
X214629Y-98947D01*
X214457Y-100252D01*
Y-105752D01*
X214629Y-107057D01*
X215085Y-108159D01*
Y-112474D01*
X175201D01*
X174418Y-112577D01*
X173688Y-112880D01*
X173586Y-112958D01*
X173204D01*
X167860Y-118302D01*
X162760D01*
X162629Y-118079D01*
X162552Y-117802D01*
X162927Y-117241D01*
X163074Y-116500D01*
X162927Y-115759D01*
X162507Y-115130D01*
X161878Y-114710D01*
X161445Y-114624D01*
X161494Y-114124D01*
X162418D01*
X166110Y-110432D01*
Y-109304D01*
X166150Y-109265D01*
X166194Y-109198D01*
X166253Y-109143D01*
X166254Y-109143D01*
X166262Y-109124D01*
X166277Y-109109D01*
X166305Y-109041D01*
X166342Y-108994D01*
X166350Y-108965D01*
X166371Y-108934D01*
X166372Y-108928D01*
X166372Y-108928D01*
X166439Y-108767D01*
X166439Y-108767D01*
X166442Y-108762D01*
X166462Y-108665D01*
X166500Y-108572D01*
X166500Y-108572D01*
Y-108572D01*
X166500Y-108572D01*
X166500Y-108471D01*
X166520Y-108372D01*
Y-99430D01*
X172448Y-93502D01*
X172761Y-93372D01*
X173388Y-92892D01*
X180253Y-86026D01*
X181500D01*
X182283Y-85923D01*
X183013Y-85620D01*
X183225Y-85458D01*
X183796D01*
Y-84936D01*
X184121Y-84513D01*
X184423Y-83783D01*
X184526Y-83000D01*
X184423Y-82217D01*
X184121Y-81487D01*
X183796Y-81064D01*
Y-80793D01*
X193707Y-70882D01*
X204591Y-59998D01*
Y-59683D01*
X204976Y-59607D01*
X205802Y-59054D01*
X206355Y-58227D01*
X206484Y-57577D01*
X206798Y-57447D01*
X207500Y-57587D01*
X208202Y-57447D01*
X208798Y-57050D01*
X209196Y-56454D01*
X209335Y-55752D01*
X209196Y-55050D01*
X208798Y-54454D01*
X208202Y-54056D01*
X207500Y-53917D01*
X206798Y-54056D01*
X206202Y-54454D01*
X205804Y-55050D01*
X205434Y-55203D01*
X204976Y-54897D01*
X204591Y-54821D01*
Y-43091D01*
X205322Y-42360D01*
X205710Y-42679D01*
X205645Y-42777D01*
X205451Y-43752D01*
X205645Y-44727D01*
X206198Y-45554D01*
X207025Y-46107D01*
X208000Y-46301D01*
X208976Y-46107D01*
X209802Y-45554D01*
X210215Y-44936D01*
X210785D01*
X211198Y-45554D01*
X212024Y-46107D01*
X213000Y-46301D01*
X213976Y-46107D01*
X214802Y-45554D01*
X215355Y-44727D01*
X215549Y-43752D01*
X215355Y-42777D01*
X214802Y-41950D01*
X213976Y-41397D01*
X213000Y-41203D01*
X212024Y-41397D01*
X211198Y-41950D01*
X210785Y-42568D01*
X210215D01*
X209802Y-41950D01*
X208976Y-41397D01*
X208000Y-41203D01*
X207025Y-41397D01*
X206927Y-41462D01*
X206608Y-41074D01*
X208574Y-39108D01*
Y-38368D01*
X211516Y-35426D01*
X211516Y-35425D01*
X211587Y-35355D01*
X211615Y-35314D01*
X211615Y-35314D01*
X211615Y-35313D01*
X211615Y-35313D01*
X211643Y-35271D01*
X211714Y-35200D01*
X211742Y-35159D01*
X211775Y-35077D01*
X211788Y-35062D01*
X211792Y-35048D01*
X211808Y-35024D01*
X211808Y-35024D01*
X211836Y-34983D01*
X211836Y-34983D01*
X211836Y-34983D01*
X211855Y-34884D01*
X211894Y-34791D01*
X211894Y-34714D01*
X211904Y-34681D01*
X211901Y-34655D01*
X211913Y-34593D01*
X211913Y-34593D01*
X211913Y-34592D01*
X211894Y-34494D01*
X211894Y-34441D01*
X211895Y-34413D01*
X211894Y-34411D01*
Y-34394D01*
X211870Y-34335D01*
X211865Y-34285D01*
X211845Y-34248D01*
X211836Y-34202D01*
X211836Y-34202D01*
X211836Y-34202D01*
X211831Y-34191D01*
X211784Y-34120D01*
X211754Y-34041D01*
X211754Y-34041D01*
X211743Y-34029D01*
X211741Y-34026D01*
X211714Y-33998D01*
X211708Y-33992D01*
X211677Y-33934D01*
X211431Y-33634D01*
X211393Y-33603D01*
X211393Y-33603D01*
X211368Y-33572D01*
X211328Y-33540D01*
X211290Y-33493D01*
X211251Y-33462D01*
X211355Y-33227D01*
X211549Y-32252D01*
X211355Y-31277D01*
X210802Y-30450D01*
X209976Y-29897D01*
X209741Y-29478D01*
X209743Y-29386D01*
X209741Y-29378D01*
X209743Y-29286D01*
X209726Y-29195D01*
X209726Y-29186D01*
X209725Y-29178D01*
X209723Y-29175D01*
X209723Y-29071D01*
X209722Y-29067D01*
X209722Y-29067D01*
Y-29067D01*
X209687Y-28982D01*
X209671Y-28894D01*
X209641Y-28848D01*
X209639Y-28838D01*
X209609Y-28793D01*
X209570Y-28700D01*
X209570Y-28700D01*
X209570Y-28700D01*
X209545Y-28662D01*
X209478Y-28595D01*
X209455Y-28560D01*
X209452Y-28558D01*
X209418Y-28508D01*
X208574Y-27663D01*
Y-27059D01*
X213644D01*
X215972Y-29386D01*
D02*
G37*
G36*
X135558Y-26694D02*
X136220Y-27136D01*
X137000Y-27291D01*
X137000Y-27291D01*
X152333D01*
X152479Y-27770D01*
X152202Y-27954D01*
X151804Y-28550D01*
X151665Y-29252D01*
X151804Y-29954D01*
X152202Y-30550D01*
X152798Y-30948D01*
X153500Y-31087D01*
X154202Y-30948D01*
X154798Y-30550D01*
X155196Y-29954D01*
X155335Y-29252D01*
X155196Y-28550D01*
X154798Y-27954D01*
X154521Y-27770D01*
X154667Y-27291D01*
X169480D01*
Y-28745D01*
X169500Y-28844D01*
Y-28944D01*
X169538Y-29037D01*
X169558Y-29136D01*
X169614Y-29219D01*
X169652Y-29312D01*
X169706Y-29392D01*
D01*
X169708Y-29395D01*
X169708Y-29395D01*
X169708Y-29395D01*
X169895Y-29674D01*
Y-29674D01*
X169934Y-29872D01*
X169934Y-29872D01*
X169971Y-30057D01*
Y-30057D01*
X170009Y-30252D01*
X169971Y-30448D01*
Y-30498D01*
X169956Y-30547D01*
X169971Y-30696D01*
Y-30846D01*
X169990Y-30892D01*
X169995Y-30943D01*
X170063Y-31070D01*
X170081Y-31142D01*
X170084Y-31150D01*
X169776Y-31544D01*
X169613Y-31511D01*
X168911Y-31651D01*
X168315Y-32049D01*
X168131Y-32325D01*
X167729Y-32056D01*
X167026Y-31917D01*
X166324Y-32056D01*
X165729Y-32454D01*
X165331Y-33050D01*
X165191Y-33752D01*
X165331Y-34454D01*
X165722Y-35039D01*
X165667Y-35142D01*
X165441Y-35480D01*
X161135D01*
X161037Y-35500D01*
X160937D01*
X160844Y-35538D01*
X160745Y-35558D01*
X160662Y-35614D01*
X160569Y-35652D01*
X160545Y-35669D01*
X160524Y-35677D01*
X160425Y-35697D01*
X160331Y-35736D01*
X160247Y-35792D01*
X160155Y-35830D01*
X160137Y-35847D01*
X159702Y-35556D01*
X159000Y-35417D01*
X158298Y-35556D01*
X157702Y-35954D01*
X157628Y-36066D01*
X157498Y-35997D01*
X157462Y-35986D01*
X157431Y-35964D01*
X157354Y-35930D01*
X157330Y-35910D01*
X157294Y-35899D01*
X157263Y-35878D01*
X157184Y-35860D01*
X157183Y-35859D01*
X157160Y-35855D01*
X157142Y-35850D01*
X157104Y-35830D01*
X157089Y-35825D01*
X157031Y-35820D01*
X156950Y-35795D01*
X156908Y-35791D01*
X156886Y-35793D01*
X156875Y-35790D01*
X156855Y-35794D01*
X156793Y-35781D01*
X152600D01*
X152502Y-35801D01*
X152401D01*
X152318Y-35818D01*
X152225Y-35856D01*
X152210Y-35859D01*
X152198Y-35867D01*
X151950Y-35970D01*
X151669Y-36251D01*
X151566Y-36499D01*
X151558Y-36511D01*
X151555Y-36526D01*
X151517Y-36619D01*
X151500Y-36702D01*
Y-36803D01*
X151480Y-36901D01*
Y-37000D01*
X151000D01*
X151480Y-37480D01*
Y-41682D01*
X151094Y-41999D01*
X151000Y-41980D01*
X142374D01*
X142139Y-41539D01*
X142196Y-41454D01*
X142335Y-40752D01*
X142196Y-40050D01*
X141798Y-39454D01*
X141202Y-39056D01*
X140500Y-38917D01*
X139798Y-39056D01*
X139202Y-39454D01*
X138804Y-40050D01*
X138665Y-40752D01*
X138804Y-41454D01*
X138861Y-41539D01*
X138626Y-41980D01*
X123317D01*
X123172Y-41502D01*
X123370Y-41370D01*
X123790Y-40741D01*
X123937Y-40000D01*
X123790Y-39259D01*
X123370Y-38630D01*
X122741Y-38210D01*
X122000Y-38063D01*
X121259Y-38210D01*
X120630Y-38630D01*
X120210Y-39259D01*
X120063Y-40000D01*
X120173Y-40554D01*
X119732Y-40790D01*
X116721Y-37779D01*
X112221Y-33279D01*
X111890Y-33058D01*
X111500Y-32980D01*
X98032D01*
X97796Y-32539D01*
X98104Y-32079D01*
X98275Y-31220D01*
X98104Y-30362D01*
X97618Y-29634D01*
X96890Y-29148D01*
X96031Y-28977D01*
X96000Y-28951D01*
Y-28549D01*
X118444D01*
X120698Y-30802D01*
X121525Y-31355D01*
X122500Y-31549D01*
X130500D01*
X131475Y-31355D01*
X132302Y-30802D01*
X132855Y-29976D01*
X133049Y-29000D01*
X132855Y-28025D01*
X132302Y-27198D01*
X131475Y-26645D01*
X130500Y-26451D01*
X123556D01*
X122606Y-25501D01*
X122797Y-25039D01*
X133903D01*
X135558Y-26694D01*
D02*
G37*
G36*
X199009Y-1991D02*
X199000Y-2000D01*
Y-12747D01*
X198698Y-12950D01*
X198145Y-13777D01*
X197951Y-14752D01*
X198145Y-15727D01*
X198161Y-15751D01*
Y-21707D01*
X196655Y-23213D01*
X194538D01*
X194221Y-22826D01*
X194335Y-22252D01*
X194196Y-21550D01*
X193946Y-21176D01*
X194196Y-20802D01*
X194335Y-20100D01*
X194196Y-19398D01*
X193997Y-19100D01*
X194196Y-18802D01*
X194335Y-18100D01*
X194196Y-17398D01*
X193997Y-17100D01*
X194196Y-16802D01*
X194335Y-16100D01*
X194196Y-15398D01*
X193798Y-14802D01*
X193609Y-14676D01*
Y-14176D01*
X193798Y-14050D01*
X194196Y-13454D01*
X194335Y-12752D01*
X194196Y-12050D01*
X193997Y-11752D01*
X194196Y-11454D01*
X194335Y-10752D01*
X194196Y-10050D01*
X193798Y-9454D01*
X193202Y-9056D01*
X192696Y-8956D01*
X192696Y-8954D01*
X192835Y-8252D01*
X192696Y-7550D01*
X192298Y-6954D01*
X191702Y-6556D01*
X191000Y-6417D01*
X190298Y-6556D01*
X189702Y-6954D01*
X189304Y-7550D01*
X189165Y-8252D01*
X189304Y-8954D01*
X189702Y-9550D01*
X190298Y-9947D01*
X190458Y-9979D01*
X190736Y-10395D01*
X190665Y-10752D01*
X190804Y-11454D01*
X191003Y-11752D01*
X190804Y-12050D01*
X190665Y-12752D01*
X190804Y-13454D01*
X191202Y-14050D01*
X191391Y-14176D01*
Y-14676D01*
X191202Y-14802D01*
X190804Y-15398D01*
X190665Y-16100D01*
X190804Y-16802D01*
X191003Y-17100D01*
X190804Y-17398D01*
X190665Y-18100D01*
X190804Y-18802D01*
X191003Y-19100D01*
X190804Y-19398D01*
X190665Y-20100D01*
X190804Y-20802D01*
X191054Y-21176D01*
X190804Y-21550D01*
X190665Y-22252D01*
X190779Y-22826D01*
X190462Y-23213D01*
X180038D01*
X179721Y-22826D01*
X179835Y-22252D01*
X179696Y-21550D01*
X179298Y-20954D01*
X178702Y-20556D01*
X178000Y-20417D01*
X177298Y-20556D01*
X176702Y-20954D01*
X176304Y-21550D01*
X176165Y-22252D01*
X176279Y-22826D01*
X175962Y-23213D01*
X168219D01*
X167983Y-22772D01*
X168196Y-22454D01*
X168335Y-21752D01*
X168196Y-21050D01*
X167882Y-20581D01*
X168196Y-20112D01*
X168335Y-19410D01*
X168196Y-18707D01*
X167798Y-18112D01*
Y-18050D01*
X168196Y-17454D01*
X168335Y-16752D01*
X168196Y-16050D01*
X167997Y-15752D01*
X168196Y-15454D01*
X168335Y-14752D01*
X168291Y-14529D01*
X168702Y-14447D01*
X169298Y-14050D01*
X169696Y-13454D01*
X169826Y-12798D01*
X170288Y-12607D01*
X170798Y-12947D01*
X171500Y-13087D01*
X172202Y-12947D01*
X172798Y-12550D01*
X173196Y-11954D01*
X173335Y-11252D01*
X173196Y-10550D01*
X172830Y-10002D01*
X173196Y-9454D01*
X173335Y-8752D01*
X173196Y-8050D01*
X172798Y-7454D01*
X172202Y-7056D01*
X171500Y-6917D01*
X170798Y-7056D01*
X170202Y-7454D01*
X169804Y-8050D01*
X169665Y-8752D01*
X169804Y-9454D01*
X170170Y-10002D01*
X169804Y-10550D01*
X169674Y-11206D01*
X169212Y-11397D01*
X168702Y-11056D01*
X168000Y-10917D01*
X167298Y-11056D01*
X166702Y-11454D01*
X166304Y-12050D01*
X166165Y-12752D01*
X166209Y-12975D01*
X165798Y-13056D01*
X165202Y-13454D01*
X164804Y-14050D01*
X164665Y-14752D01*
X164804Y-15454D01*
X165003Y-15752D01*
X164804Y-16050D01*
X164665Y-16752D01*
X164804Y-17454D01*
X165202Y-18050D01*
Y-18112D01*
X164804Y-18707D01*
X164665Y-19410D01*
X164804Y-20112D01*
X165118Y-20581D01*
X164804Y-21050D01*
X164665Y-21752D01*
X164804Y-22454D01*
X165017Y-22772D01*
X164781Y-23213D01*
X143038D01*
X142721Y-22826D01*
X142835Y-22252D01*
X142696Y-21550D01*
X142298Y-20954D01*
X141702Y-20556D01*
X141000Y-20417D01*
X140298Y-20556D01*
X139702Y-20954D01*
X139304Y-21550D01*
X139165Y-22252D01*
X139279Y-22826D01*
X138962Y-23213D01*
X137845D01*
X136190Y-21558D01*
X135528Y-21116D01*
X134748Y-20961D01*
X134578Y-20642D01*
X134855Y-20227D01*
X135049Y-19252D01*
X134855Y-18277D01*
X134302Y-17450D01*
X133475Y-16897D01*
X132500Y-16703D01*
X131525Y-16897D01*
X130698Y-17450D01*
X130145Y-18277D01*
X130128Y-18365D01*
X129637Y-18462D01*
X129298Y-17954D01*
X128702Y-17556D01*
X128000Y-17417D01*
X127298Y-17556D01*
X126702Y-17954D01*
X126304Y-18550D01*
X126165Y-19252D01*
X126304Y-19954D01*
X126682Y-20520D01*
X126523Y-20818D01*
X126428Y-20961D01*
X102138D01*
X101821Y-20574D01*
X101835Y-20500D01*
X101696Y-19798D01*
X101298Y-19202D01*
X100702Y-18804D01*
X100000Y-18665D01*
X99298Y-18804D01*
X98702Y-19202D01*
X98304Y-19798D01*
X98165Y-20500D01*
X98180Y-20574D01*
X97862Y-20961D01*
X95845D01*
X95442Y-20558D01*
X94780Y-20116D01*
X94000Y-19961D01*
X88995D01*
X88850Y-19482D01*
X89198Y-19250D01*
X89596Y-18654D01*
X89735Y-17952D01*
X89596Y-17250D01*
X89198Y-16654D01*
X88602Y-16256D01*
X87900Y-16117D01*
X87198Y-16256D01*
X86602Y-16654D01*
X86204Y-17250D01*
X86065Y-17952D01*
X86204Y-18654D01*
X86602Y-19250D01*
X86950Y-19482D01*
X86805Y-19961D01*
X82500D01*
X81720Y-20116D01*
X81500Y-20263D01*
X81280Y-20116D01*
X80500Y-19961D01*
X80345D01*
X79391Y-19008D01*
X79170Y-8809D01*
X79608Y-8569D01*
X79798Y-8696D01*
X80500Y-8835D01*
X81202Y-8696D01*
X81798Y-8298D01*
X82196Y-7702D01*
X82335Y-7000D01*
X82196Y-6298D01*
X81798Y-5702D01*
X81202Y-5304D01*
X80500Y-5165D01*
X79798Y-5304D01*
X79536Y-5479D01*
X79092Y-5249D01*
X79019Y-1887D01*
X79369Y-1529D01*
X198817D01*
X199009Y-1991D01*
D02*
G37*
G36*
X23968Y-150252D02*
Y-154252D01*
X19969Y-158252D01*
X15969Y-152252D01*
X19969Y-146252D01*
X23968Y-150252D01*
D02*
G37*
G36*
X134918Y-97433D02*
X134298Y-97556D01*
X133702Y-97954D01*
X133304Y-98550D01*
X133165Y-99252D01*
X133304Y-99954D01*
X133702Y-100550D01*
X134298Y-100947D01*
X134918Y-101071D01*
X134918Y-113624D01*
X134918Y-113930D01*
X134821Y-114027D01*
X134918Y-114124D01*
X135338Y-114124D01*
X160780D01*
X160829Y-114624D01*
X160396Y-114710D01*
X159767Y-115130D01*
X159347Y-115759D01*
X159200Y-116500D01*
X159347Y-117241D01*
X159722Y-117802D01*
X159645Y-118079D01*
X159514Y-118302D01*
X153478D01*
X147259Y-124521D01*
Y-127436D01*
Y-138417D01*
X146633Y-139043D01*
X146000Y-138917D01*
X145298Y-139056D01*
X145170Y-139142D01*
X144670Y-138875D01*
Y-117079D01*
X119048D01*
Y-142701D01*
X142321D01*
X142513Y-143163D01*
X141332Y-144344D01*
X108991D01*
X108718Y-143844D01*
X108835Y-143252D01*
X108696Y-142550D01*
X108298Y-141954D01*
Y-141550D01*
X108696Y-140954D01*
X108835Y-140252D01*
X108696Y-139550D01*
X108298Y-138954D01*
X107702Y-138556D01*
X107000Y-138417D01*
X106298Y-138556D01*
X105702Y-138954D01*
X105304Y-139550D01*
X105165Y-140252D01*
X105304Y-140954D01*
X105702Y-141550D01*
Y-141954D01*
X105304Y-142550D01*
X105165Y-143252D01*
X105282Y-143844D01*
X105184Y-144344D01*
X100909Y-148619D01*
X99381Y-150147D01*
X98920Y-149901D01*
X98980Y-149600D01*
X98809Y-148742D01*
X98323Y-148014D01*
X97595Y-147528D01*
X96737Y-147357D01*
X95879Y-147528D01*
X95151Y-148014D01*
X94665Y-148742D01*
X94494Y-149600D01*
X94665Y-150458D01*
X95151Y-151186D01*
X95715Y-151563D01*
X95746Y-151751D01*
X95717Y-152095D01*
X95710Y-152115D01*
X95202Y-152454D01*
X94804Y-153050D01*
X94665Y-153752D01*
X94804Y-154454D01*
X94912Y-154616D01*
X93329Y-156199D01*
X63012D01*
Y-155278D01*
X77500D01*
X78283Y-155175D01*
X79013Y-154873D01*
X79640Y-154392D01*
X80120Y-153765D01*
X80167Y-153652D01*
X80220Y-153636D01*
X81000Y-153791D01*
X81780Y-153636D01*
X82442Y-153194D01*
X82884Y-152532D01*
X83039Y-151752D01*
Y-149230D01*
X83092Y-149184D01*
X83539Y-149009D01*
X83998Y-149315D01*
X84700Y-149455D01*
X85402Y-149315D01*
X85998Y-148917D01*
X86396Y-148322D01*
X86535Y-147619D01*
X86396Y-146917D01*
X85998Y-146322D01*
X85402Y-145924D01*
X84700Y-145784D01*
X83998Y-145924D01*
X83402Y-146322D01*
X83004Y-146917D01*
X82992Y-146981D01*
X82461Y-147087D01*
X82442Y-147058D01*
X82442Y-147058D01*
X76109Y-140725D01*
X76300Y-140263D01*
X97167D01*
X97304Y-140954D01*
X97702Y-141550D01*
X98298Y-141947D01*
X99000Y-142087D01*
X99702Y-141947D01*
X100298Y-141550D01*
X100696Y-140954D01*
X100833Y-140263D01*
X101006D01*
X102172Y-139097D01*
Y-96536D01*
X134918D01*
Y-97433D01*
D02*
G37*
G36*
X243987Y-54549D02*
X244029Y-54577D01*
X244061Y-54616D01*
X244194Y-54687D01*
X244318Y-54770D01*
X244368Y-54780D01*
X244412Y-54804D01*
X244562Y-54819D01*
X244708Y-54848D01*
X244758Y-54838D01*
X244808Y-54843D01*
X244952Y-54799D01*
X245098Y-54770D01*
X245125Y-54753D01*
X245615Y-54850D01*
X245861Y-55217D01*
X251198Y-60554D01*
X252025Y-61107D01*
X252675Y-61236D01*
X254764Y-63325D01*
Y-84494D01*
X254437Y-84763D01*
X253696Y-84910D01*
X253067Y-85330D01*
X252647Y-85959D01*
X252500Y-86700D01*
X252647Y-87441D01*
X253067Y-88070D01*
X253696Y-88490D01*
X254437Y-88637D01*
X254764Y-88906D01*
Y-113982D01*
X254438D01*
X254407Y-114013D01*
X254406Y-114014D01*
X247786D01*
X247722Y-113950D01*
X247596Y-114076D01*
X247596Y-114204D01*
X247596Y-114204D01*
X247596Y-114204D01*
D01*
D01*
D01*
Y-114770D01*
Y-115457D01*
X247379Y-115739D01*
X247077Y-116469D01*
X246974Y-117252D01*
X247077Y-118035D01*
X247379Y-118765D01*
X247596Y-119047D01*
Y-119437D01*
X247785Y-119626D01*
X249654Y-121495D01*
X249629Y-121994D01*
X249416Y-122169D01*
X249000Y-122086D01*
X248298Y-122226D01*
X247702Y-122624D01*
X247304Y-123219D01*
X247165Y-123922D01*
X247304Y-124624D01*
X247702Y-125219D01*
X248298Y-125617D01*
X249000Y-125757D01*
X249416Y-125674D01*
X249803Y-125991D01*
Y-128834D01*
X249324Y-128979D01*
X248802Y-128198D01*
X247975Y-127645D01*
X247000Y-127451D01*
X246024Y-127645D01*
X245198Y-128198D01*
X244645Y-129025D01*
X244451Y-130000D01*
X244645Y-130975D01*
X245163Y-131750D01*
X244645Y-132525D01*
X244451Y-133500D01*
X244645Y-134476D01*
X245198Y-135302D01*
X246024Y-135855D01*
X247000Y-136049D01*
X247975Y-135855D01*
X248802Y-135302D01*
X249324Y-134521D01*
X249803Y-134666D01*
Y-145305D01*
X249665Y-146000D01*
X249769Y-146527D01*
X245010Y-151286D01*
X238895Y-157401D01*
X238398Y-157352D01*
X238298Y-157202D01*
X237702Y-156804D01*
X237000Y-156665D01*
X236298Y-156804D01*
X235702Y-157202D01*
X235304Y-157798D01*
X235165Y-158500D01*
X235304Y-159202D01*
X235702Y-159798D01*
X235852Y-159898D01*
X235901Y-160395D01*
X233725Y-162571D01*
X233702Y-162556D01*
X233000Y-162417D01*
X232298Y-162556D01*
X231702Y-162954D01*
X231304Y-163550D01*
X231165Y-164252D01*
X231304Y-164954D01*
X231319Y-164977D01*
X229937Y-166359D01*
Y-167240D01*
X229496Y-167476D01*
X229239Y-167304D01*
X228537Y-167165D01*
X228482Y-167176D01*
X228128Y-166822D01*
X228172Y-166600D01*
X228033Y-165898D01*
X227635Y-165302D01*
X227039Y-164904D01*
X226337Y-164765D01*
X225635Y-164904D01*
X225039Y-165302D01*
X224641Y-165898D01*
X224527Y-166473D01*
X224027D01*
X223933Y-165998D01*
X223535Y-165402D01*
X222939Y-165004D01*
X222237Y-164865D01*
X222128Y-164886D01*
X221851Y-164471D01*
X222196Y-163954D01*
X222335Y-163252D01*
X222196Y-162550D01*
X221798Y-161954D01*
X221202Y-161556D01*
X220500Y-161417D01*
X219798Y-161556D01*
X219202Y-161954D01*
X218804Y-162550D01*
X218665Y-163252D01*
X218804Y-163954D01*
X219202Y-164550D01*
X219798Y-164947D01*
X220500Y-165087D01*
X220609Y-165066D01*
X220886Y-165481D01*
X220541Y-165998D01*
X220402Y-166700D01*
X220541Y-167402D01*
X220939Y-167998D01*
X221535Y-168396D01*
X222237Y-168535D01*
X222250Y-168533D01*
X222604Y-168886D01*
X222502Y-169400D01*
X222641Y-170102D01*
X223039Y-170698D01*
X223635Y-171096D01*
X224337Y-171235D01*
X225039Y-171096D01*
X225635Y-170698D01*
X226033Y-170102D01*
X226172Y-169400D01*
X226159Y-169332D01*
X226213Y-169058D01*
X226713D01*
X226841Y-169702D01*
X227239Y-170298D01*
X227835Y-170696D01*
X228537Y-170835D01*
X229239Y-170696D01*
X229496Y-170524D01*
X229937Y-170760D01*
Y-176070D01*
X183710D01*
X183584Y-175944D01*
X183458Y-175818D01*
Y-151615D01*
X183844Y-151297D01*
X184537Y-151435D01*
X185239Y-151296D01*
X185835Y-150898D01*
X186233Y-150302D01*
X186372Y-149600D01*
X186233Y-148898D01*
X185835Y-148302D01*
X185239Y-147904D01*
X184537Y-147765D01*
X183844Y-147903D01*
X183458Y-147585D01*
Y-146934D01*
X181940D01*
X181320Y-146677D01*
X180537Y-146574D01*
X179754Y-146677D01*
X179134Y-146934D01*
X178034D01*
X177404Y-147564D01*
X171034Y-153934D01*
Y-155385D01*
Y-169700D01*
X171033Y-169700D01*
Y-169700D01*
X171033Y-169700D01*
X117429D01*
X115095Y-172034D01*
X105509Y-181620D01*
X105193D01*
Y-186660D01*
X99115D01*
X98880Y-186219D01*
X98978Y-186071D01*
X99141Y-185252D01*
X98978Y-184433D01*
X98514Y-183738D01*
X97819Y-183274D01*
X97000Y-183111D01*
X96181Y-183274D01*
X95486Y-183738D01*
X95022Y-184433D01*
X94859Y-185252D01*
X95022Y-186071D01*
X95120Y-186219D01*
X94885Y-186660D01*
X89615D01*
X89380Y-186219D01*
X89478Y-186071D01*
X89641Y-185252D01*
X89478Y-184433D01*
X89014Y-183738D01*
X88319Y-183274D01*
X87500Y-183111D01*
X86681Y-183274D01*
X85986Y-183738D01*
X85522Y-184433D01*
X85359Y-185252D01*
X85522Y-186071D01*
X85620Y-186219D01*
X85385Y-186660D01*
X62115D01*
X61880Y-186219D01*
X61978Y-186071D01*
X62141Y-185252D01*
X61978Y-184433D01*
X61514Y-183738D01*
X60819Y-183274D01*
X60000Y-183111D01*
X59181Y-183274D01*
X58486Y-183738D01*
X58022Y-184433D01*
X57859Y-185252D01*
X58022Y-186071D01*
X58120Y-186219D01*
X57885Y-186660D01*
X44310D01*
Y-172208D01*
X44556Y-172019D01*
X45190Y-171193D01*
X45588Y-170232D01*
X45724Y-169200D01*
X45588Y-168168D01*
X45190Y-167207D01*
X44890Y-166816D01*
X45031Y-166337D01*
X59110Y-161248D01*
X59499Y-161562D01*
X59474Y-161752D01*
Y-164752D01*
X59577Y-165535D01*
X59879Y-166265D01*
X60360Y-166892D01*
X60987Y-167373D01*
X61717Y-167675D01*
X62500Y-167778D01*
X63283Y-167675D01*
X64013Y-167373D01*
X64640Y-166892D01*
X65121Y-166265D01*
X65423Y-165535D01*
X65526Y-164752D01*
Y-163278D01*
X95170D01*
X95304Y-163954D01*
X95702Y-164550D01*
X96298Y-164947D01*
X97000Y-165087D01*
X97702Y-164947D01*
X98298Y-164550D01*
X98696Y-163954D01*
X98835Y-163252D01*
X98696Y-162550D01*
X98298Y-161954D01*
X98278Y-161753D01*
X109153Y-150878D01*
X144900D01*
X145683Y-150775D01*
X146413Y-150472D01*
X147040Y-149992D01*
X154140Y-142892D01*
X154140Y-142892D01*
X154621Y-142265D01*
X154923Y-141535D01*
X154935Y-141444D01*
X155026Y-140752D01*
X155026Y-140752D01*
Y-128005D01*
X157309Y-125723D01*
X157787Y-125868D01*
X157804Y-125954D01*
X158202Y-126550D01*
X158798Y-126947D01*
X159500Y-127087D01*
X159809Y-127026D01*
X160225Y-127304D01*
X160304Y-127702D01*
X160702Y-128298D01*
X160902Y-128431D01*
X160768Y-129104D01*
X160908Y-129806D01*
X161168Y-130194D01*
X160976Y-130656D01*
X160231Y-130805D01*
X159404Y-131357D01*
X158852Y-132184D01*
X158658Y-133159D01*
X158852Y-134135D01*
X159404Y-134962D01*
X160231Y-135514D01*
X161207Y-135708D01*
X162182Y-135514D01*
X163009Y-134962D01*
X163562Y-134135D01*
X163756Y-133159D01*
X163562Y-132184D01*
X163009Y-131357D01*
X162637Y-131109D01*
X162603Y-130939D01*
X163306Y-130799D01*
D01*
X163306D01*
X163306Y-130799D01*
X163901Y-130401D01*
X164299Y-129806D01*
X164439Y-129104D01*
X164299Y-128401D01*
X163901Y-127806D01*
X163701Y-127672D01*
X163835Y-127000D01*
X163696Y-126298D01*
X163298Y-125702D01*
X162702Y-125304D01*
X162000Y-125165D01*
X161691Y-125226D01*
X161275Y-124949D01*
X161196Y-124550D01*
X161230Y-124485D01*
X169242D01*
X170025Y-124382D01*
X170755Y-124080D01*
X171381Y-123599D01*
X176454Y-118526D01*
X220000D01*
X220783Y-118423D01*
X221509Y-118122D01*
X222826D01*
X223250Y-117698D01*
X224915Y-116033D01*
Y-108657D01*
X225000Y-108587D01*
X225702Y-108448D01*
X226298Y-108050D01*
X226696Y-107454D01*
X226835Y-106752D01*
X226696Y-106050D01*
X226298Y-105454D01*
X225702Y-105056D01*
X225000Y-104917D01*
X224915Y-104847D01*
Y-103568D01*
Y-102132D01*
X229646Y-97401D01*
X233595Y-93452D01*
Y-63693D01*
X239174D01*
X239272Y-63595D01*
X239305Y-63562D01*
Y-63039D01*
X239405Y-62890D01*
X239405Y-62890D01*
X239596Y-62428D01*
X239596Y-62428D01*
X239648Y-62168D01*
X239674Y-62038D01*
Y-62038D01*
Y-62038D01*
X239648Y-61909D01*
X239596Y-61648D01*
X239375Y-61317D01*
X239375D01*
Y-61317D01*
X239305Y-61247D01*
Y-56677D01*
X238587Y-55959D01*
X240479Y-54067D01*
X243505D01*
X243987Y-54549D01*
D02*
G37*
G36*
X264000Y-98000D02*
Y-102000D01*
X260000Y-106000D01*
X256000Y-100000D01*
X260000Y-94000D01*
X264000Y-98000D01*
D02*
G37*
G36*
X294500Y-120892D02*
X294022Y-121037D01*
X293798Y-120702D01*
X293202Y-120304D01*
X292500Y-120165D01*
X291798Y-120304D01*
X291202Y-120702D01*
X290804Y-121298D01*
X290665Y-122000D01*
X290804Y-122702D01*
X291202Y-123298D01*
X291798Y-123696D01*
X292500Y-123835D01*
X293202Y-123696D01*
X293798Y-123298D01*
X294022Y-122963D01*
X294500Y-123108D01*
Y-126000D01*
X305000D01*
X305500Y-126500D01*
Y-146500D01*
X300000D01*
X300500Y-147000D01*
Y-152403D01*
X300114Y-152720D01*
X299831Y-152664D01*
X299790Y-152459D01*
X299370Y-151830D01*
X299270Y-151763D01*
Y-151570D01*
X299690Y-150941D01*
X299837Y-150200D01*
X299690Y-149459D01*
X299270Y-148830D01*
X298641Y-148410D01*
X297900Y-148263D01*
X297159Y-148410D01*
X296530Y-148830D01*
X296110Y-149459D01*
X295963Y-150200D01*
X296110Y-150941D01*
X296530Y-151570D01*
X296530Y-151570D01*
X296530D01*
X296630Y-151830D01*
Y-151830D01*
D01*
X296210Y-152459D01*
X296063Y-153200D01*
X296210Y-153941D01*
X296630Y-154570D01*
X296630Y-154570D01*
X296630D01*
X296730Y-154830D01*
Y-154830D01*
D01*
X296310Y-155459D01*
X296163Y-156200D01*
X295917Y-156500D01*
X281099D01*
X280798Y-156050D01*
X281196Y-155454D01*
X281335Y-154752D01*
X281196Y-154050D01*
X280798Y-153454D01*
X280202Y-153056D01*
X279500Y-152917D01*
X278798Y-153056D01*
X278202Y-153454D01*
X277804Y-154050D01*
X277665Y-154752D01*
X277804Y-155454D01*
X278202Y-156050D01*
X277901Y-156500D01*
X267000D01*
X266500Y-156000D01*
Y-153130D01*
X266886Y-152813D01*
X267000Y-152835D01*
X267702Y-152696D01*
X268298Y-152298D01*
X268696Y-151702D01*
X268835Y-151000D01*
X268696Y-150298D01*
X268298Y-149702D01*
X267702Y-149304D01*
X267000Y-149165D01*
X266886Y-149187D01*
X266500Y-148870D01*
Y-126689D01*
X266979Y-126543D01*
X267330Y-127070D01*
X267959Y-127490D01*
X268700Y-127637D01*
X269441Y-127490D01*
X270070Y-127070D01*
X270490Y-126441D01*
X270637Y-125700D01*
X270490Y-124959D01*
X270070Y-124330D01*
X269441Y-123910D01*
X268791Y-123781D01*
X268737Y-123700D01*
X268737Y-123700D01*
X268737D01*
X268590Y-122959D01*
X268170Y-122330D01*
X267541Y-121910D01*
X266800Y-121763D01*
X266500Y-121517D01*
Y-119500D01*
X294500D01*
Y-120892D01*
D02*
G37*
G36*
X9134Y-121720D02*
X7720Y-123134D01*
X7015Y-122500D01*
X8500Y-121015D01*
X9134Y-121720D01*
D02*
G37*
G36*
X300457Y-48752D02*
Y-51752D01*
X297457Y-56252D01*
X294457Y-53252D01*
Y-50252D01*
X297457Y-47252D01*
X300457Y-48752D01*
D02*
G37*
G36*
X289100Y-9200D02*
X270814D01*
X270721Y-9061D01*
X270390Y-8840D01*
X270000Y-8763D01*
X239514D01*
X239464Y-8772D01*
X239414Y-8767D01*
X239271Y-8811D01*
X239124Y-8840D01*
X239082Y-8868D01*
X239033Y-8883D01*
X238906Y-8864D01*
X238798Y-8702D01*
X238202Y-8304D01*
X237500Y-8165D01*
X236798Y-8304D01*
X236202Y-8702D01*
X236094Y-8864D01*
X235967Y-8883D01*
X235918Y-8868D01*
X235876Y-8840D01*
X235729Y-8811D01*
X235586Y-8767D01*
X235536Y-8772D01*
X235486Y-8763D01*
X219500D01*
X219110Y-8840D01*
X218779Y-9061D01*
X218686Y-9200D01*
X215700D01*
X207968Y-16932D01*
X207487Y-17131D01*
X206860Y-17612D01*
X206380Y-18239D01*
X206077Y-18969D01*
X205974Y-19752D01*
Y-25252D01*
X206077Y-26035D01*
X206380Y-26765D01*
X206500Y-26922D01*
Y-32006D01*
X206451Y-32252D01*
X206500Y-32498D01*
Y-39740D01*
X205887Y-40353D01*
X205804Y-40478D01*
X205709Y-40593D01*
X205694Y-40642D01*
X205666Y-40684D01*
X205637Y-40831D01*
X205593Y-40974D01*
X205596Y-41004D01*
X205252Y-41348D01*
X205222Y-41345D01*
X205079Y-41389D01*
X204932Y-41418D01*
X204890Y-41446D01*
X204841Y-41461D01*
X204726Y-41556D01*
X204601Y-41639D01*
X203870Y-42370D01*
X203649Y-42701D01*
X203587Y-43013D01*
X203300Y-43300D01*
Y-54842D01*
X203025Y-54897D01*
X202198Y-55450D01*
X201645Y-56277D01*
X201451Y-57252D01*
X201645Y-58227D01*
X202198Y-59054D01*
X202910Y-59530D01*
X203028Y-59962D01*
X203029Y-60118D01*
X192986Y-70161D01*
X183847Y-79300D01*
X178800D01*
X177886Y-80214D01*
X177487Y-80379D01*
X176860Y-80860D01*
X171221Y-86500D01*
X163900D01*
Y-82584D01*
X164400Y-82317D01*
X164659Y-82490D01*
X165400Y-82637D01*
X166141Y-82490D01*
X166770Y-82070D01*
X167190Y-81441D01*
X167337Y-80700D01*
X167190Y-79959D01*
X166770Y-79330D01*
X166141Y-78910D01*
X165400Y-78763D01*
X164659Y-78910D01*
X164400Y-79083D01*
X163900Y-78816D01*
Y-78500D01*
X163500Y-78100D01*
X156364D01*
X156213Y-77600D01*
X156707Y-77270D01*
X156917Y-76955D01*
X157563Y-76795D01*
X157577Y-76800D01*
X157798Y-76947D01*
X158500Y-77087D01*
X159202Y-76947D01*
X159798Y-76550D01*
X160196Y-75954D01*
X160335Y-75252D01*
X160196Y-74550D01*
X159798Y-73954D01*
X159202Y-73556D01*
X158500Y-73417D01*
X157798Y-73556D01*
X157202Y-73954D01*
X157040Y-74197D01*
X156729Y-74508D01*
X156399Y-74325D01*
X156078Y-74110D01*
X155337Y-73963D01*
X154596Y-74110D01*
X153967Y-74530D01*
X153547Y-75159D01*
X153400Y-75900D01*
X153547Y-76641D01*
X153967Y-77270D01*
X154596Y-77690D01*
X154722Y-77715D01*
X154906Y-77970D01*
X154933Y-78267D01*
X153300Y-79900D01*
Y-91500D01*
X156759D01*
X156800Y-91600D01*
Y-93700D01*
X159814D01*
X160224Y-94200D01*
X160165Y-94500D01*
X160304Y-95202D01*
X160670Y-95750D01*
X160304Y-96298D01*
X160205Y-96797D01*
X159697Y-96798D01*
X159695Y-96797D01*
X159298Y-96202D01*
X158702Y-95804D01*
X158000Y-95665D01*
X157298Y-95804D01*
X156702Y-96202D01*
X156304Y-96798D01*
X156165Y-97500D01*
X156304Y-98202D01*
X156702Y-98798D01*
X157298Y-99196D01*
X158000Y-99335D01*
X158702Y-99196D01*
X159298Y-98798D01*
X159696Y-98202D01*
X159795Y-97703D01*
X160303Y-97702D01*
X160305Y-97703D01*
X160670Y-98250D01*
X160304Y-98798D01*
X160165Y-99500D01*
X160304Y-100202D01*
X160670Y-100750D01*
X160304Y-101298D01*
X160165Y-102000D01*
X160304Y-102702D01*
X160702Y-103298D01*
X161298Y-103696D01*
X162000Y-103835D01*
X162702Y-103696D01*
X163298Y-103298D01*
X163696Y-102702D01*
X163835Y-102000D01*
X163696Y-101298D01*
X163330Y-100750D01*
X163696Y-100202D01*
X163835Y-99500D01*
X163696Y-98798D01*
X163330Y-98250D01*
X163696Y-97702D01*
X163835Y-97000D01*
X163696Y-96298D01*
X163330Y-95750D01*
X163696Y-95202D01*
X163835Y-94500D01*
X163791Y-94278D01*
X164201Y-93778D01*
X165191D01*
X165200Y-93800D01*
Y-107900D01*
X163466Y-109634D01*
X160707D01*
X159924Y-109737D01*
X159529Y-109900D01*
X157600D01*
Y-112500D01*
X157000Y-113100D01*
X156900Y-113000D01*
X137800D01*
Y-98900D01*
X142500Y-94200D01*
Y-83988D01*
X142702Y-83947D01*
X143298Y-83550D01*
X143696Y-82954D01*
X143777Y-82543D01*
X144000Y-82587D01*
X144702Y-82447D01*
X145298Y-82050D01*
X145696Y-81454D01*
X145835Y-80752D01*
X145696Y-80050D01*
X145298Y-79454D01*
X144702Y-79056D01*
X144000Y-78917D01*
X143298Y-79056D01*
X143000Y-79255D01*
X142500Y-78988D01*
Y-77016D01*
X143000Y-76749D01*
X143298Y-76947D01*
X144000Y-77087D01*
X144702Y-76947D01*
X145298Y-76550D01*
X145696Y-75954D01*
X145835Y-75252D01*
X145696Y-74550D01*
X145298Y-73954D01*
X145217Y-73900D01*
X145368Y-73400D01*
X148700D01*
X149633Y-72467D01*
X149761Y-72442D01*
X150092Y-72221D01*
X151721Y-70591D01*
X151942Y-70261D01*
X151968Y-70132D01*
X152900Y-69200D01*
Y-60000D01*
Y-54573D01*
X152984Y-54541D01*
X153400Y-54490D01*
X153739Y-54998D01*
X154335Y-55396D01*
X155037Y-55535D01*
X155739Y-55396D01*
X156277Y-55036D01*
X156569Y-55086D01*
X156815Y-55179D01*
X156847Y-55341D01*
X157267Y-55970D01*
X157896Y-56390D01*
X158637Y-56537D01*
X158742Y-56516D01*
X158909Y-56684D01*
X159086Y-56958D01*
X158955Y-57618D01*
X159102Y-58359D01*
X159522Y-58988D01*
X160151Y-59408D01*
X160892Y-59555D01*
X161633Y-59408D01*
X162262Y-58988D01*
X162682Y-58359D01*
X162829Y-57618D01*
X162682Y-56877D01*
X162262Y-56248D01*
X161633Y-55828D01*
X160892Y-55681D01*
X160787Y-55702D01*
X160620Y-55534D01*
X160443Y-55260D01*
X160574Y-54600D01*
X160427Y-53859D01*
X160007Y-53230D01*
X159378Y-52810D01*
X158637Y-52663D01*
X157896Y-52810D01*
X157267Y-53230D01*
X156753Y-53100D01*
X156733Y-52998D01*
X156335Y-52402D01*
X155739Y-52004D01*
X155037Y-51865D01*
X154335Y-52004D01*
X153739Y-52402D01*
X153400Y-52910D01*
X152984Y-52859D01*
X152900Y-52827D01*
Y-37283D01*
X153100Y-37200D01*
X157122D01*
X157165Y-37252D01*
X157304Y-37954D01*
X157702Y-38550D01*
X158298Y-38947D01*
X159000Y-39087D01*
X159702Y-38947D01*
X160298Y-38550D01*
X160696Y-37954D01*
X160835Y-37252D01*
X160878Y-37200D01*
X167200D01*
Y-35553D01*
X167729Y-35447D01*
X168324Y-35050D01*
X168509Y-34773D01*
X168911Y-35042D01*
X169613Y-35182D01*
X170315Y-35042D01*
X170911Y-34644D01*
X171053Y-34432D01*
X171075Y-34446D01*
X171777Y-34586D01*
X172479Y-34446D01*
X173075Y-34049D01*
X173473Y-33453D01*
X173612Y-32751D01*
X173473Y-32049D01*
X173075Y-31453D01*
X172479Y-31055D01*
X171777Y-30916D01*
X171562Y-30958D01*
X171308Y-30926D01*
X170999Y-30504D01*
X171049Y-30252D01*
X170971Y-29858D01*
X170934Y-29673D01*
X170934Y-29673D01*
X170933Y-29667D01*
X171000Y-29600D01*
X170899Y-29499D01*
X170855Y-29276D01*
X170800Y-29194D01*
Y-27759D01*
X170900Y-27300D01*
X177520D01*
X177787Y-27800D01*
X177547Y-28159D01*
X177400Y-28900D01*
X177547Y-29641D01*
X177837Y-30075D01*
X177665Y-30602D01*
X177647Y-30622D01*
X177235Y-30704D01*
X176639Y-31102D01*
X176242Y-31698D01*
X176102Y-32400D01*
X176242Y-33102D01*
X176639Y-33698D01*
X177235Y-34096D01*
X177368Y-34122D01*
X177558Y-34670D01*
X177304Y-35050D01*
X177165Y-35752D01*
X177226Y-36062D01*
X176639Y-36454D01*
X176242Y-37050D01*
X176102Y-37752D01*
X176242Y-38454D01*
X176639Y-39050D01*
X177235Y-39448D01*
X177897Y-39579D01*
X177972Y-39671D01*
X178133Y-40058D01*
X177804Y-40550D01*
X177665Y-41252D01*
X177804Y-41954D01*
X178202Y-42550D01*
X178798Y-42948D01*
X179500Y-43087D01*
X180202Y-42948D01*
X180798Y-42550D01*
X181196Y-41954D01*
X181250Y-41683D01*
X181798Y-41447D01*
X182500Y-41587D01*
X183202Y-41447D01*
X183798Y-41050D01*
X184196Y-40454D01*
X184335Y-39752D01*
X184196Y-39050D01*
X183798Y-38454D01*
X183202Y-38056D01*
X182500Y-37917D01*
X181798Y-38056D01*
X181202Y-38454D01*
X180804Y-39050D01*
X180750Y-39321D01*
X180202Y-39556D01*
X179540Y-39425D01*
X179465Y-39333D01*
X179304Y-38946D01*
X179633Y-38454D01*
X179772Y-37752D01*
X179711Y-37442D01*
X180298Y-37050D01*
X180696Y-36454D01*
X180835Y-35752D01*
X180696Y-35050D01*
X180298Y-34454D01*
X179702Y-34056D01*
X179569Y-34030D01*
X179379Y-33482D01*
X179633Y-33102D01*
X179772Y-32400D01*
X179633Y-31698D01*
X179378Y-31316D01*
X179593Y-30786D01*
X180078Y-30690D01*
X180647Y-30310D01*
X180714Y-30410D01*
X181310Y-30808D01*
X182012Y-30947D01*
X182714Y-30808D01*
X183115Y-30540D01*
X183498Y-30796D01*
X184200Y-30935D01*
X184902Y-30796D01*
X185498Y-30398D01*
X185896Y-29802D01*
X186035Y-29100D01*
X185896Y-28398D01*
X185498Y-27802D01*
X185494Y-27800D01*
X185646Y-27300D01*
X194281D01*
X194433Y-27800D01*
X194202Y-27954D01*
X193804Y-28550D01*
X193665Y-29252D01*
X193691Y-29384D01*
X193641Y-29468D01*
X193258Y-29768D01*
X192737Y-29665D01*
X192035Y-29804D01*
X191439Y-30202D01*
X191042Y-30798D01*
X190902Y-31500D01*
X191042Y-32202D01*
X191439Y-32798D01*
X192035Y-33196D01*
X192042Y-33197D01*
X192002Y-33400D01*
X192141Y-34102D01*
X192539Y-34698D01*
X193135Y-35096D01*
X193837Y-35235D01*
X194539Y-35096D01*
X195135Y-34698D01*
X195533Y-34102D01*
X195672Y-33400D01*
X195533Y-32698D01*
X195135Y-32102D01*
X194619Y-31758D01*
X194633Y-31346D01*
X194663Y-31232D01*
X194979Y-30984D01*
X195500Y-31087D01*
X195799Y-31028D01*
X196224Y-31453D01*
X196165Y-31752D01*
X196304Y-32454D01*
X196702Y-33050D01*
X197298Y-33448D01*
X198000Y-33587D01*
X198702Y-33448D01*
X199298Y-33050D01*
X199696Y-32454D01*
X199835Y-31752D01*
X199696Y-31050D01*
X199398Y-30604D01*
X199635Y-30446D01*
X200033Y-29850D01*
X200172Y-29148D01*
X200033Y-28446D01*
X199635Y-27850D01*
X199039Y-27452D01*
X198885Y-27422D01*
X198721Y-26879D01*
X198834Y-26766D01*
X198942Y-26694D01*
X201642Y-23994D01*
X201714Y-23886D01*
X202300Y-23300D01*
Y-16556D01*
X202302Y-16554D01*
X202855Y-15727D01*
X203049Y-14752D01*
X202855Y-13777D01*
X202302Y-12950D01*
X202300Y-12948D01*
Y-12200D01*
X206700D01*
X207500Y-11400D01*
Y-9422D01*
X207621Y-9265D01*
X207923Y-8535D01*
X208026Y-7752D01*
X207923Y-6969D01*
X207621Y-6239D01*
X207500Y-6082D01*
Y-1529D01*
X216728D01*
X217058Y-2029D01*
X216965Y-2500D01*
X217104Y-3202D01*
X217502Y-3798D01*
X218098Y-4196D01*
X218800Y-4335D01*
X219502Y-4196D01*
X220098Y-3798D01*
X220496Y-3202D01*
X220635Y-2500D01*
X220542Y-2029D01*
X220872Y-1529D01*
X261786D01*
X262196Y-2029D01*
X262149Y-2268D01*
X262289Y-2970D01*
X262686Y-3565D01*
X263282Y-3963D01*
X263984Y-4103D01*
X264687Y-3963D01*
X265282Y-3565D01*
X265680Y-2970D01*
X265820Y-2268D01*
X265772Y-2029D01*
X266182Y-1529D01*
X289100D01*
Y-9200D01*
D02*
G37*
G36*
X30134Y-15780D02*
X29500Y-16485D01*
X28015Y-15000D01*
X28720Y-14366D01*
X30134Y-15780D01*
D02*
G37*
G36*
X269992Y-9801D02*
X270000Y-9806D01*
Y-18994D01*
X269538Y-19185D01*
X269049Y-18696D01*
Y-17402D01*
X268855Y-16427D01*
X268302Y-15600D01*
X267476Y-15047D01*
X266500Y-14853D01*
X265525Y-15047D01*
X264937Y-15440D01*
X264798Y-15231D01*
X264202Y-14833D01*
X263500Y-14694D01*
X262798Y-14833D01*
X262202Y-15231D01*
X261804Y-15826D01*
X261665Y-16529D01*
X261804Y-17231D01*
X262161Y-17764D01*
X261804Y-18298D01*
X261665Y-19000D01*
X261804Y-19702D01*
X262202Y-20298D01*
X262798Y-20696D01*
X263500Y-20835D01*
X264141Y-20708D01*
X264145Y-20727D01*
X264698Y-21554D01*
X268951Y-25808D01*
Y-36212D01*
X268565Y-36529D01*
X268000Y-36417D01*
X267298Y-36556D01*
X267298Y-36556D01*
X267298Y-36556D01*
X267196Y-36550D01*
D01*
X266798Y-35954D01*
X266202Y-35556D01*
X265500Y-35417D01*
X264798Y-35556D01*
X264202Y-35954D01*
X263804Y-36550D01*
X263665Y-37252D01*
X263804Y-37954D01*
X264202Y-38550D01*
X264798Y-38947D01*
X265274Y-39042D01*
X265465Y-39504D01*
X265304Y-39745D01*
X265165Y-40447D01*
X265304Y-41150D01*
X265702Y-41745D01*
X266298Y-42143D01*
X266868Y-42256D01*
X266890Y-42369D01*
X267288Y-42964D01*
X267883Y-43362D01*
X268586Y-43501D01*
X268951Y-43801D01*
Y-56203D01*
X254056D01*
X249465Y-51613D01*
X248638Y-51060D01*
X247663Y-50866D01*
X247204Y-50957D01*
X247000Y-50917D01*
X246298Y-51056D01*
X245702Y-51454D01*
X245304Y-52050D01*
X245165Y-52752D01*
X245205Y-52956D01*
X245114Y-53415D01*
X245170Y-53697D01*
X244966Y-53744D01*
X244640Y-53760D01*
X244226Y-53346D01*
X242324Y-51444D01*
X242196Y-50798D01*
X241798Y-50202D01*
X241202Y-49804D01*
X240500Y-49665D01*
X239965Y-49771D01*
X239505Y-49581D01*
X239321Y-49324D01*
X239335Y-49252D01*
X239196Y-48550D01*
X238798Y-47954D01*
X238202Y-47556D01*
X237500Y-47417D01*
X236857Y-47545D01*
X236579Y-47129D01*
X236696Y-46954D01*
X236835Y-46252D01*
X236696Y-45550D01*
X236298Y-44954D01*
X235702Y-44556D01*
X235000Y-44417D01*
X234298Y-44556D01*
X233702Y-44954D01*
X233304Y-45550D01*
X233165Y-46252D01*
X233304Y-46954D01*
X233702Y-47550D01*
X234298Y-47947D01*
X235000Y-48087D01*
X235643Y-47959D01*
X235921Y-48375D01*
X235804Y-48550D01*
X235665Y-49252D01*
X235804Y-49950D01*
X235478Y-50085D01*
X234434Y-50886D01*
X233632Y-51930D01*
X233129Y-53147D01*
X232957Y-54452D01*
X233129Y-55757D01*
X233632Y-56973D01*
X234434Y-58018D01*
X235294Y-58678D01*
X238583Y-61967D01*
X238633Y-62042D01*
X238616Y-62131D01*
X238501Y-62407D01*
X238457Y-62473D01*
X238446Y-62500D01*
X219600D01*
X219517Y-62483D01*
X219500Y-62400D01*
Y-57632D01*
X219518Y-57539D01*
X219571Y-57460D01*
X220092Y-56939D01*
X220092Y-56939D01*
X220092Y-56939D01*
X220140Y-56892D01*
X220180Y-56839D01*
D01*
X220208Y-56802D01*
X220620Y-56265D01*
X220620Y-56265D01*
X220620Y-56265D01*
X220923Y-55535D01*
X220940Y-55402D01*
D01*
X221017Y-54818D01*
D01*
X221026Y-54752D01*
Y-52423D01*
X221036Y-52375D01*
Y-52329D01*
X221204Y-52239D01*
X221561Y-52150D01*
X221681Y-52230D01*
X222500Y-52393D01*
D01*
Y-52393D01*
X222665Y-52752D01*
X222665Y-52752D01*
X222665D01*
X222804Y-53454D01*
X223202Y-54050D01*
X223798Y-54448D01*
X224500Y-54587D01*
X225202Y-54448D01*
X225798Y-54050D01*
X226196Y-53454D01*
X226335Y-52752D01*
X226196Y-52050D01*
X225798Y-51454D01*
X225202Y-51056D01*
X224509Y-50918D01*
X224641Y-50252D01*
X224478Y-49433D01*
X224014Y-48738D01*
X223319Y-48274D01*
X222500Y-48111D01*
X221681Y-48274D01*
X221561Y-48354D01*
X221204Y-48265D01*
X221036Y-48175D01*
Y-48129D01*
X221026Y-48081D01*
Y-34319D01*
Y-34252D01*
X221017Y-34186D01*
D01*
X220999Y-34049D01*
X220923Y-33469D01*
X220871Y-33345D01*
D01*
X220819Y-33218D01*
X220620Y-32739D01*
X220489Y-32568D01*
X220180Y-32165D01*
X220180Y-32165D01*
X220140Y-32112D01*
X219571Y-31544D01*
X219518Y-31465D01*
X219500Y-31372D01*
Y-29169D01*
X219500Y-29169D01*
X219500Y-29169D01*
Y-29169D01*
Y-19091D01*
X220302Y-18554D01*
X220855Y-17727D01*
X221049Y-16752D01*
X220855Y-15777D01*
X220302Y-14950D01*
X219500Y-14413D01*
Y-9806D01*
X219508Y-9801D01*
X219600Y-9782D01*
X235419D01*
X235433Y-9787D01*
X235484Y-9792D01*
X235530Y-9811D01*
X235578Y-9821D01*
X235622Y-9844D01*
X235670Y-9859D01*
X235688Y-9882D01*
X235665Y-10000D01*
X235804Y-10702D01*
X236170Y-11250D01*
X235804Y-11798D01*
X235665Y-12500D01*
X235804Y-13202D01*
X236202Y-13798D01*
X236798Y-14196D01*
X237500Y-14335D01*
X238202Y-14196D01*
X238798Y-13798D01*
X239196Y-13202D01*
X239335Y-12500D01*
X239196Y-11798D01*
X238830Y-11250D01*
X239196Y-10702D01*
X239335Y-10000D01*
X239312Y-9882D01*
X239330Y-9859D01*
X239378Y-9844D01*
X239422Y-9821D01*
X239470Y-9811D01*
X239516Y-9792D01*
X239567Y-9787D01*
X239581Y-9782D01*
X269900D01*
X269992Y-9801D01*
D02*
G37*
G36*
X74000Y-6884D02*
Y-10506D01*
X73951Y-10752D01*
X74000Y-10998D01*
Y-27500D01*
Y-34000D01*
X111500D01*
X116000Y-38500D01*
X120500Y-43000D01*
X151000D01*
Y-48752D01*
X150522Y-48897D01*
X150443Y-48780D01*
X149848Y-48382D01*
X149146Y-48242D01*
X148443Y-48382D01*
X147848Y-48780D01*
X147450Y-49375D01*
X147310Y-50077D01*
X147450Y-50780D01*
X147848Y-51375D01*
X148443Y-51773D01*
X149146Y-51913D01*
X149848Y-51773D01*
X150443Y-51375D01*
X150522Y-51258D01*
X151000Y-51404D01*
Y-57155D01*
X150522Y-57300D01*
X150452Y-57197D01*
X149857Y-56799D01*
X149155Y-56659D01*
X148452Y-56799D01*
X147857Y-57197D01*
X147459Y-57792D01*
X147319Y-58495D01*
X147459Y-59197D01*
X147857Y-59792D01*
X148452Y-60190D01*
X149155Y-60330D01*
X149857Y-60190D01*
X150452Y-59792D01*
X150522Y-59689D01*
X151000Y-59834D01*
Y-61345D01*
X150522Y-61490D01*
X150457Y-61393D01*
X149861Y-60995D01*
X149159Y-60855D01*
X148456Y-60995D01*
X147861Y-61393D01*
X147463Y-61988D01*
X147324Y-62691D01*
X147463Y-63393D01*
X147861Y-63988D01*
X148456Y-64386D01*
X149159Y-64526D01*
X149201Y-64568D01*
X149165Y-64752D01*
X149304Y-65454D01*
X149702Y-66050D01*
X150298Y-66448D01*
X151000Y-66587D01*
Y-69500D01*
Y-69871D01*
X149371Y-71500D01*
X141000D01*
Y-72755D01*
X140702Y-72954D01*
X140304Y-73550D01*
X140165Y-74252D01*
X140304Y-74954D01*
X140702Y-75550D01*
X141000Y-75749D01*
Y-80755D01*
X140702Y-80954D01*
X140304Y-81550D01*
X140165Y-82252D01*
X140304Y-82954D01*
X140702Y-83550D01*
X141000Y-83749D01*
Y-94257D01*
X140118Y-94374D01*
X139266Y-94726D01*
X138910Y-95000D01*
X100000D01*
X99000Y-96000D01*
X100000Y-97000D01*
Y-138000D01*
X70492D01*
X70478Y-137933D01*
X70014Y-137238D01*
X69319Y-136774D01*
X68500Y-136611D01*
X67681Y-136774D01*
X66986Y-137238D01*
X66522Y-137933D01*
X66508Y-138000D01*
X30000D01*
Y-133500D01*
X19500Y-123000D01*
X8000Y-111500D01*
Y-74945D01*
X8071Y-74410D01*
X8053D01*
Y-50787D01*
X8053Y-50787D01*
D01*
D01*
X8053Y-50787D01*
Y-50787D01*
X8071D01*
X8070Y-50785D01*
X8053Y-50655D01*
Y-50655D01*
X8036Y-50522D01*
X8036Y-50522D01*
X8000Y-50252D01*
Y-28500D01*
X43000D01*
Y-18412D01*
X43292Y-17975D01*
X43486Y-17000D01*
X43292Y-16025D01*
X43000Y-15588D01*
Y-6645D01*
X43387Y-6328D01*
X43937Y-6437D01*
X44678Y-6290D01*
X45307Y-5870D01*
X45727Y-5241D01*
X45874Y-4500D01*
X45859Y-4426D01*
X46177Y-4039D01*
X71155D01*
X74000Y-6884D01*
D02*
G37*
G36*
X315500Y-19752D02*
X307530D01*
X307213Y-19365D01*
X307335Y-18752D01*
X307196Y-18050D01*
X306798Y-17454D01*
X306202Y-17056D01*
X305500Y-16917D01*
X304798Y-17056D01*
X304202Y-17454D01*
X303804Y-18050D01*
X303665Y-18752D01*
X303787Y-19365D01*
X303470Y-19752D01*
X299500D01*
Y-6252D01*
X306264D01*
X306304Y-6454D01*
X306702Y-7050D01*
X307298Y-7447D01*
X308000Y-7587D01*
X308702Y-7447D01*
X309298Y-7050D01*
X309696Y-6454D01*
X309736Y-6252D01*
X315500D01*
Y-19752D01*
D02*
G37*
%LPC*%
G36*
X179197Y-105220D02*
X178494Y-105360D01*
X177899Y-105758D01*
X177501Y-106353D01*
X177361Y-107055D01*
X177501Y-107758D01*
X177899Y-108353D01*
X178494Y-108751D01*
X179197Y-108891D01*
X179899Y-108751D01*
X180494Y-108353D01*
X180892Y-107758D01*
X181032Y-107055D01*
X180892Y-106353D01*
X180494Y-105758D01*
X179899Y-105360D01*
X179197Y-105220D01*
D02*
G37*
G36*
X180500Y-98917D02*
X179798Y-99056D01*
X179202Y-99454D01*
X178804Y-100050D01*
X178665Y-100752D01*
X178804Y-101454D01*
X179202Y-102050D01*
X179798Y-102447D01*
X180500Y-102587D01*
X181202Y-102447D01*
X181798Y-102050D01*
X182196Y-101454D01*
X182335Y-100752D01*
X182196Y-100050D01*
X181798Y-99454D01*
X181202Y-99056D01*
X180500Y-98917D01*
D02*
G37*
G36*
X208500Y-104385D02*
X207798Y-104525D01*
X207202Y-104923D01*
X206804Y-105518D01*
X206665Y-106220D01*
X206804Y-106923D01*
X207202Y-107518D01*
X207798Y-107916D01*
X208500Y-108056D01*
X209202Y-107916D01*
X209798Y-107518D01*
X210196Y-106923D01*
X210335Y-106220D01*
X210196Y-105518D01*
X209798Y-104923D01*
X209202Y-104525D01*
X208500Y-104385D01*
D02*
G37*
G36*
X209000Y-97417D02*
X208298Y-97556D01*
X207702Y-97954D01*
X207304Y-98550D01*
X207165Y-99252D01*
X207304Y-99954D01*
X207702Y-100550D01*
X208298Y-100947D01*
X209000Y-101087D01*
X209702Y-100947D01*
X210298Y-100550D01*
X210696Y-99954D01*
X210835Y-99252D01*
X210696Y-98550D01*
X210298Y-97954D01*
X209702Y-97556D01*
X209000Y-97417D01*
D02*
G37*
G36*
X211500Y-91917D02*
X210798Y-92056D01*
X210202Y-92454D01*
X209804Y-93050D01*
X209665Y-93752D01*
X209804Y-94454D01*
X210202Y-95050D01*
X210798Y-95447D01*
X211500Y-95587D01*
X212202Y-95447D01*
X212798Y-95050D01*
X213196Y-94454D01*
X213335Y-93752D01*
X213196Y-93050D01*
X212798Y-92454D01*
X212202Y-92056D01*
X211500Y-91917D01*
D02*
G37*
G36*
X212500Y-51917D02*
X211798Y-52056D01*
X211202Y-52454D01*
X210804Y-53050D01*
X210665Y-53752D01*
X210804Y-54454D01*
X211202Y-55050D01*
X211798Y-55448D01*
X212500Y-55587D01*
X213202Y-55448D01*
X213798Y-55050D01*
X214196Y-54454D01*
X214335Y-53752D01*
X214196Y-53050D01*
X213798Y-52454D01*
X213202Y-52056D01*
X212500Y-51917D01*
D02*
G37*
G36*
X142000Y-28917D02*
X141298Y-29056D01*
X140702Y-29454D01*
X140304Y-30050D01*
X140165Y-30752D01*
X140304Y-31454D01*
X140702Y-32050D01*
X141298Y-32447D01*
X142000Y-32587D01*
X142702Y-32447D01*
X143298Y-32050D01*
X143696Y-31454D01*
X143835Y-30752D01*
X143696Y-30050D01*
X143298Y-29454D01*
X142702Y-29056D01*
X142000Y-28917D01*
D02*
G37*
G36*
X114500Y-8703D02*
X113524Y-8897D01*
X112698Y-9450D01*
X112145Y-10277D01*
X111951Y-11252D01*
X112145Y-12227D01*
X112698Y-13054D01*
X113524Y-13607D01*
X114500Y-13801D01*
X115475Y-13607D01*
X116302Y-13054D01*
X116855Y-12227D01*
X117049Y-11252D01*
X116855Y-10277D01*
X116302Y-9450D01*
X115475Y-8897D01*
X114500Y-8703D01*
D02*
G37*
G36*
X179000Y-6917D02*
X178298Y-7056D01*
X177702Y-7454D01*
X177304Y-8050D01*
X177165Y-8752D01*
X177304Y-9454D01*
X177702Y-10050D01*
X178265Y-10426D01*
Y-10926D01*
X177702Y-11302D01*
X177304Y-11898D01*
X177165Y-12600D01*
X177304Y-13302D01*
X177702Y-13898D01*
X178298Y-14296D01*
X179000Y-14435D01*
X179702Y-14296D01*
X180298Y-13898D01*
X180696Y-13302D01*
X180835Y-12600D01*
X180696Y-11898D01*
X180298Y-11302D01*
X179735Y-10926D01*
Y-10426D01*
X180298Y-10050D01*
X180696Y-9454D01*
X180835Y-8752D01*
X180696Y-8050D01*
X180298Y-7454D01*
X179702Y-7056D01*
X179000Y-6917D01*
D02*
G37*
G36*
X155637Y-4465D02*
X154935Y-4604D01*
X154339Y-5002D01*
X154276Y-5097D01*
X153786Y-5194D01*
X153202Y-4804D01*
X152500Y-4665D01*
X151798Y-4804D01*
X151202Y-5202D01*
X151115Y-5332D01*
X150702Y-5056D01*
X150000Y-4917D01*
X149298Y-5056D01*
X148702Y-5454D01*
X148304Y-6050D01*
X148165Y-6752D01*
X148168Y-6770D01*
X147891Y-7186D01*
X147798Y-7204D01*
X147202Y-7602D01*
X146804Y-8198D01*
X146665Y-8900D01*
X146804Y-9602D01*
X147121Y-10076D01*
X146804Y-10550D01*
X146665Y-11252D01*
X146804Y-11954D01*
X147202Y-12550D01*
X147798Y-12947D01*
X148500Y-13087D01*
X149202Y-12947D01*
X149798Y-12550D01*
X150196Y-11954D01*
X150335Y-11252D01*
X150196Y-10550D01*
X149879Y-10076D01*
X150196Y-9602D01*
X150335Y-8900D01*
X150332Y-8882D01*
X150609Y-8466D01*
X150702Y-8448D01*
X151298Y-8050D01*
X151298D01*
Y-8050D01*
X151515Y-8006D01*
X151798Y-8196D01*
X152500Y-8335D01*
X153202Y-8196D01*
X153798Y-7798D01*
X153861Y-7703D01*
X154351Y-7606D01*
X154935Y-7996D01*
X155637Y-8135D01*
X156339Y-7996D01*
X156935Y-7598D01*
X157333Y-7002D01*
X157472Y-6300D01*
X157333Y-5598D01*
X156935Y-5002D01*
X156339Y-4604D01*
X155637Y-4465D01*
D02*
G37*
G36*
X128000Y-2703D02*
X127024Y-2897D01*
X126198Y-3450D01*
X125645Y-4276D01*
X125451Y-5252D01*
X125645Y-6227D01*
X126198Y-7054D01*
X127024Y-7607D01*
X128000Y-7801D01*
X128975Y-7607D01*
X129802Y-7054D01*
X130355Y-6227D01*
X130549Y-5252D01*
X130355Y-4276D01*
X129802Y-3450D01*
X128975Y-2897D01*
X128000Y-2703D01*
D02*
G37*
G36*
X91500Y-13165D02*
X90798Y-13304D01*
X90202Y-13702D01*
X89804Y-14298D01*
X89665Y-15000D01*
X89804Y-15702D01*
X90202Y-16298D01*
X90798Y-16696D01*
X91500Y-16835D01*
X92202Y-16696D01*
X92798Y-16298D01*
X93196Y-15702D01*
X93335Y-15000D01*
X93196Y-14298D01*
X92798Y-13702D01*
X92202Y-13304D01*
X91500Y-13165D01*
D02*
G37*
G36*
X157037Y-18465D02*
X156335Y-18604D01*
X155739Y-19002D01*
X155341Y-19598D01*
X155202Y-20300D01*
X155341Y-21002D01*
X155739Y-21598D01*
X156335Y-21996D01*
X157037Y-22135D01*
X157739Y-21996D01*
X158335Y-21598D01*
X158733Y-21002D01*
X158872Y-20300D01*
X158733Y-19598D01*
X158335Y-19002D01*
X157739Y-18604D01*
X157037Y-18465D01*
D02*
G37*
G36*
X179000Y-16417D02*
X178298Y-16556D01*
X177702Y-16954D01*
X177304Y-17550D01*
X177165Y-18252D01*
X177304Y-18954D01*
X177702Y-19550D01*
X178298Y-19948D01*
X179000Y-20087D01*
X179702Y-19948D01*
X180298Y-19550D01*
X180696Y-18954D01*
X180835Y-18252D01*
X180696Y-17550D01*
X180298Y-16954D01*
X179702Y-16556D01*
X179000Y-16417D01*
D02*
G37*
G36*
X149500Y-16917D02*
X148798Y-17056D01*
X148202Y-17454D01*
X147804Y-18050D01*
X147665Y-18752D01*
X147804Y-19454D01*
X148202Y-20050D01*
X148798Y-20448D01*
X149500Y-20587D01*
X150202Y-20448D01*
X150798Y-20050D01*
X151196Y-19454D01*
X151335Y-18752D01*
X151196Y-18050D01*
X150798Y-17454D01*
X150202Y-17056D01*
X149500Y-16917D01*
D02*
G37*
G36*
X106237Y-100665D02*
X105535Y-100804D01*
X104939Y-101202D01*
X104542Y-101798D01*
X104402Y-102500D01*
X104542Y-103202D01*
X104939Y-103798D01*
X105535Y-104196D01*
X106237Y-104335D01*
X106939Y-104196D01*
X107535Y-103798D01*
X107933Y-103202D01*
X108072Y-102500D01*
X107933Y-101798D01*
X107535Y-101202D01*
X106939Y-100804D01*
X106237Y-100665D01*
D02*
G37*
G36*
X107000Y-122165D02*
X106298Y-122304D01*
X105702Y-122702D01*
X105304Y-123298D01*
X105165Y-124000D01*
X105304Y-124702D01*
X105702Y-125298D01*
X106298Y-125696D01*
X107000Y-125835D01*
X107702Y-125696D01*
X108298Y-125298D01*
X108696Y-124702D01*
X108835Y-124000D01*
X108696Y-123298D01*
X108298Y-122702D01*
X107702Y-122304D01*
X107000Y-122165D01*
D02*
G37*
G36*
X101000Y-142917D02*
X100298Y-143056D01*
X99702Y-143454D01*
X99304Y-144050D01*
X99165Y-144752D01*
X99304Y-145454D01*
X99702Y-146050D01*
X100298Y-146448D01*
X101000Y-146587D01*
X101702Y-146448D01*
X102298Y-146050D01*
X102696Y-145454D01*
X102835Y-144752D01*
X102696Y-144050D01*
X102298Y-143454D01*
X101702Y-143056D01*
X101000Y-142917D01*
D02*
G37*
G36*
X204000Y-165917D02*
X203298Y-166056D01*
X202702Y-166454D01*
X202304Y-167050D01*
X202165Y-167752D01*
X202304Y-168454D01*
X202702Y-169050D01*
X203298Y-169448D01*
X204000Y-169587D01*
X204702Y-169448D01*
X205298Y-169050D01*
X205696Y-168454D01*
X205835Y-167752D01*
X205696Y-167050D01*
X205298Y-166454D01*
X204702Y-166056D01*
X204000Y-165917D01*
D02*
G37*
G36*
X214684Y-165886D02*
X213865Y-166049D01*
X213170Y-166514D01*
X212706Y-167208D01*
X212543Y-168028D01*
X212706Y-168847D01*
X213170Y-169542D01*
X213865Y-170006D01*
X214684Y-170169D01*
X215504Y-170006D01*
X216198Y-169542D01*
X216663Y-168847D01*
X216826Y-168028D01*
X216663Y-167208D01*
X216198Y-166514D01*
X215504Y-166049D01*
X214684Y-165886D01*
D02*
G37*
G36*
X251000Y-107063D02*
X250259Y-107210D01*
X249630Y-107630D01*
X249210Y-108259D01*
X249063Y-109000D01*
X249210Y-109741D01*
X249630Y-110370D01*
X250259Y-110790D01*
X251000Y-110937D01*
X251741Y-110790D01*
X252370Y-110370D01*
X252790Y-109741D01*
X252937Y-109000D01*
X252790Y-108259D01*
X252370Y-107630D01*
X251741Y-107210D01*
X251000Y-107063D01*
D02*
G37*
G36*
X205500Y-148665D02*
X204798Y-148804D01*
X204202Y-149202D01*
X203804Y-149798D01*
X203665Y-150500D01*
X203804Y-151202D01*
X204003Y-151500D01*
X203804Y-151798D01*
X203665Y-152500D01*
X203804Y-153202D01*
X204202Y-153798D01*
X204798Y-154196D01*
X205500Y-154335D01*
X206202Y-154196D01*
X206798Y-153798D01*
X207196Y-153202D01*
X207335Y-152500D01*
X207196Y-151798D01*
X206997Y-151500D01*
X207196Y-151202D01*
X207335Y-150500D01*
X207196Y-149798D01*
X206798Y-149202D01*
X206202Y-148804D01*
X205500Y-148665D01*
D02*
G37*
G36*
X222500Y-147665D02*
X221798Y-147804D01*
X221202Y-148202D01*
X220804Y-148798D01*
X220665Y-149500D01*
X220804Y-150202D01*
X221202Y-150798D01*
X221798Y-151196D01*
X222500Y-151335D01*
X222604Y-151315D01*
X222641Y-151502D01*
X223039Y-152098D01*
X223635Y-152496D01*
X224337Y-152635D01*
X224502Y-152602D01*
X224641Y-153302D01*
X225039Y-153898D01*
X225635Y-154296D01*
X226337Y-154435D01*
X226711Y-154361D01*
X226989Y-154777D01*
X226841Y-154998D01*
X226702Y-155700D01*
X226841Y-156402D01*
X227239Y-156998D01*
X227835Y-157396D01*
X228537Y-157535D01*
X229239Y-157396D01*
X229835Y-156998D01*
X230233Y-156402D01*
X230372Y-155700D01*
X230233Y-154998D01*
X229835Y-154402D01*
X229239Y-154004D01*
X228537Y-153865D01*
X228163Y-153939D01*
X227885Y-153524D01*
X228033Y-153302D01*
X228172Y-152600D01*
X228033Y-151898D01*
X227635Y-151302D01*
X227039Y-150904D01*
X226337Y-150765D01*
X226172Y-150798D01*
X226033Y-150098D01*
X225635Y-149502D01*
X225039Y-149104D01*
X224337Y-148965D01*
X224233Y-148985D01*
X224196Y-148798D01*
X223798Y-148202D01*
X223202Y-147804D01*
X222500Y-147665D01*
D02*
G37*
G36*
X105437Y-164165D02*
X104735Y-164304D01*
X104187Y-164670D01*
X103639Y-164304D01*
X102937Y-164165D01*
X102235Y-164304D01*
X101639Y-164702D01*
X101241Y-165298D01*
X101102Y-166000D01*
X101241Y-166702D01*
X101639Y-167298D01*
X102235Y-167696D01*
X102937Y-167835D01*
X103639Y-167696D01*
X104187Y-167330D01*
X104735Y-167696D01*
X105437Y-167835D01*
X106139Y-167696D01*
X106735Y-167298D01*
X107133Y-166702D01*
X107272Y-166000D01*
X107133Y-165298D01*
X106735Y-164702D01*
X106139Y-164304D01*
X105437Y-164165D01*
D02*
G37*
G36*
X235500Y-147665D02*
X234798Y-147804D01*
X234202Y-148202D01*
X233804Y-148798D01*
X233665Y-149500D01*
X233804Y-150202D01*
X234202Y-150798D01*
X234798Y-151196D01*
X235500Y-151335D01*
X236202Y-151196D01*
X236798Y-150798D01*
X237196Y-150202D01*
X237335Y-149500D01*
X237196Y-148798D01*
X236798Y-148202D01*
X236202Y-147804D01*
X235500Y-147665D01*
D02*
G37*
G36*
X206000Y-161866D02*
X205298Y-162006D01*
X204702Y-162404D01*
X204304Y-162999D01*
X204165Y-163701D01*
X204304Y-164404D01*
X204702Y-164999D01*
X205298Y-165397D01*
X206000Y-165537D01*
X206702Y-165397D01*
X207298Y-164999D01*
X207696Y-164404D01*
X207835Y-163701D01*
X207696Y-162999D01*
X207298Y-162404D01*
X206702Y-162006D01*
X206000Y-161866D01*
D02*
G37*
G36*
X140537Y-161717D02*
X139835Y-161856D01*
X139239Y-162254D01*
X138798D01*
X138202Y-161856D01*
X137500Y-161717D01*
X136798Y-161856D01*
X136500Y-162055D01*
X136202Y-161856D01*
X135500Y-161717D01*
X134798Y-161856D01*
X134500Y-162055D01*
X134202Y-161856D01*
X133500Y-161717D01*
X132798Y-161856D01*
X132202Y-162254D01*
X131804Y-162850D01*
X131711Y-162888D01*
X130975Y-162397D01*
X130000Y-162203D01*
X129025Y-162397D01*
X128198Y-162950D01*
X127645Y-163777D01*
X127451Y-164752D01*
X127645Y-165727D01*
X128198Y-166554D01*
X129025Y-167107D01*
X130000Y-167301D01*
X130975Y-167107D01*
X131802Y-166554D01*
X132355Y-165727D01*
X132395Y-165528D01*
X132810Y-165250D01*
X133500Y-165387D01*
X134202Y-165247D01*
X134500Y-165049D01*
X134798Y-165247D01*
X135500Y-165387D01*
X136202Y-165247D01*
X136500Y-165049D01*
X136798Y-165247D01*
X137187Y-165325D01*
X137102Y-165752D01*
X137241Y-166454D01*
X137639Y-167050D01*
X138235Y-167447D01*
X138937Y-167587D01*
X139639Y-167447D01*
X140235Y-167050D01*
X140287Y-166972D01*
X140787D01*
X140839Y-167050D01*
X141435Y-167447D01*
X142137Y-167587D01*
X142839Y-167447D01*
X143435Y-167050D01*
X143833Y-166454D01*
X143972Y-165752D01*
X143833Y-165050D01*
X143435Y-164454D01*
X142839Y-164056D01*
X142640Y-164017D01*
X142362Y-163601D01*
X142372Y-163552D01*
X142233Y-162850D01*
X141835Y-162254D01*
X141239Y-161856D01*
X140537Y-161717D01*
D02*
G37*
G36*
X162537D02*
X161835Y-161856D01*
X161239Y-162254D01*
X161237Y-162258D01*
X160737D01*
X160735Y-162254D01*
X160139Y-161856D01*
X159437Y-161717D01*
X158735Y-161856D01*
X158139Y-162254D01*
X158087Y-162332D01*
X157587D01*
X157535Y-162254D01*
X156939Y-161856D01*
X156237Y-161717D01*
X155535Y-161856D01*
X154939Y-162254D01*
X154542Y-162850D01*
X154402Y-163552D01*
X154542Y-164254D01*
X154939Y-164850D01*
X155535Y-165247D01*
X156080Y-165356D01*
X156002Y-165752D01*
X156141Y-166454D01*
X156539Y-167050D01*
X157135Y-167447D01*
X157837Y-167587D01*
X158539Y-167447D01*
X159135Y-167050D01*
X159187Y-166972D01*
X159687D01*
X159739Y-167050D01*
X160335Y-167447D01*
X161037Y-167587D01*
X161739Y-167447D01*
X162335Y-167050D01*
X162337Y-167046D01*
X162837D01*
X162839Y-167050D01*
X163435Y-167447D01*
X164137Y-167587D01*
X164839Y-167447D01*
X165319Y-167127D01*
X165798Y-167447D01*
X166500Y-167587D01*
X167202Y-167447D01*
X167798Y-167050D01*
X168196Y-166454D01*
X168335Y-165752D01*
X168196Y-165050D01*
X167798Y-164454D01*
X167202Y-164056D01*
X166500Y-163917D01*
X165798Y-164056D01*
X165319Y-164377D01*
X164839Y-164056D01*
X164294Y-163948D01*
X164372Y-163552D01*
X164233Y-162850D01*
X163835Y-162254D01*
X163239Y-161856D01*
X162537Y-161717D01*
D02*
G37*
G36*
X123237Y-162417D02*
X122535Y-162556D01*
X121939Y-162954D01*
X121869Y-163060D01*
X121369D01*
X121298Y-162954D01*
X120702Y-162556D01*
X120000Y-162417D01*
X119298Y-162556D01*
X118702Y-162954D01*
X118298D01*
X117702Y-162556D01*
X117000Y-162417D01*
X116298Y-162556D01*
X115702Y-162954D01*
X115304Y-163550D01*
X115165Y-164252D01*
X115304Y-164954D01*
X115702Y-165550D01*
X116298Y-165947D01*
X116720Y-166032D01*
X116804Y-166454D01*
X117202Y-167050D01*
X117798Y-167447D01*
X118500Y-167587D01*
X119202Y-167447D01*
X119798Y-167050D01*
X119818Y-167019D01*
X120318D01*
X120339Y-167050D01*
X120935Y-167447D01*
X121637Y-167587D01*
X122339Y-167447D01*
X122935Y-167050D01*
X122937Y-167046D01*
X123437D01*
X123439Y-167050D01*
X124035Y-167447D01*
X124737Y-167587D01*
X125439Y-167447D01*
X126035Y-167050D01*
X126433Y-166454D01*
X126572Y-165752D01*
X126433Y-165050D01*
X126035Y-164454D01*
X125439Y-164056D01*
X125017Y-163972D01*
X124933Y-163550D01*
X124535Y-162954D01*
X123939Y-162556D01*
X123237Y-162417D01*
D02*
G37*
G36*
X204500Y-155417D02*
X203798Y-155556D01*
X203202Y-155954D01*
X202804Y-156550D01*
X202665Y-157252D01*
X202804Y-157954D01*
X203202Y-158550D01*
X203798Y-158948D01*
X204500Y-159087D01*
X205202Y-158948D01*
X205798Y-158550D01*
X206196Y-157954D01*
X206335Y-157252D01*
X206196Y-156550D01*
X205798Y-155954D01*
X205202Y-155556D01*
X204500Y-155417D01*
D02*
G37*
G36*
X192537Y-160805D02*
X191788Y-160904D01*
X191090Y-161193D01*
X190490Y-161653D01*
X190287Y-161918D01*
X189787D01*
X189584Y-161653D01*
X188984Y-161193D01*
X188286Y-160904D01*
X187537Y-160805D01*
X186788Y-160904D01*
X186090Y-161193D01*
X185490Y-161653D01*
X185030Y-162253D01*
X184741Y-162951D01*
X184642Y-163700D01*
X184741Y-164449D01*
X185030Y-165147D01*
X185490Y-165747D01*
X186090Y-166207D01*
X186788Y-166496D01*
X187537Y-166595D01*
X188286Y-166496D01*
X188984Y-166207D01*
X189584Y-165747D01*
X189787Y-165482D01*
X190287D01*
X190490Y-165747D01*
X191090Y-166207D01*
X191788Y-166496D01*
X192537Y-166595D01*
X193286Y-166496D01*
X193984Y-166207D01*
X194584Y-165747D01*
X195044Y-165147D01*
X195333Y-164449D01*
X195432Y-163700D01*
X195333Y-162951D01*
X195044Y-162253D01*
X194584Y-161653D01*
X193984Y-161193D01*
X193286Y-160904D01*
X192537Y-160805D01*
D02*
G37*
G36*
X180000Y-136417D02*
X179298Y-136556D01*
X178702Y-136954D01*
X178304Y-137550D01*
X178165Y-138252D01*
X178304Y-138954D01*
X178702Y-139550D01*
X179234Y-139905D01*
X179165Y-140252D01*
X179304Y-140954D01*
X179702Y-141550D01*
X180298Y-141947D01*
X180720Y-142032D01*
X180804Y-142454D01*
X181202Y-143050D01*
X181798Y-143447D01*
X182220Y-143532D01*
X182304Y-143954D01*
X182702Y-144550D01*
X183298Y-144948D01*
X184000Y-145087D01*
X184000Y-145087D01*
X184000Y-145087D01*
X184267Y-145266D01*
X184304Y-145454D01*
X184702Y-146050D01*
X185298Y-146448D01*
X185720Y-146532D01*
X185804Y-146954D01*
X186202Y-147550D01*
X186798Y-147948D01*
X186893Y-147967D01*
X186916Y-148001D01*
X186916Y-148001D01*
X186916D01*
X187056Y-148703D01*
X187454Y-149298D01*
X188049Y-149696D01*
X188603Y-149806D01*
X188795Y-150268D01*
X188642Y-150498D01*
X188502Y-151200D01*
X188642Y-151902D01*
X189039Y-152498D01*
X189635Y-152896D01*
X190337Y-153035D01*
X190337Y-153035D01*
X190337Y-153035D01*
X190373Y-153059D01*
X190442Y-153402D01*
X190839Y-153998D01*
X191435Y-154396D01*
X192137Y-154535D01*
X192137Y-154535D01*
X192137Y-154535D01*
X192266Y-154621D01*
X192341Y-155002D01*
X192739Y-155598D01*
X193335Y-155996D01*
X193528Y-156034D01*
X193641Y-156602D01*
X194039Y-157198D01*
X194635Y-157596D01*
X195161Y-157700D01*
X195241Y-158102D01*
X195639Y-158698D01*
X195724Y-159124D01*
X195542Y-159398D01*
X195402Y-160100D01*
X195542Y-160802D01*
X195939Y-161398D01*
X196535Y-161796D01*
X197237Y-161935D01*
X197939Y-161796D01*
X198535Y-161398D01*
X198933Y-160802D01*
X199072Y-160100D01*
X198933Y-159398D01*
X198535Y-158802D01*
X198279Y-158631D01*
X198633Y-158102D01*
X198772Y-157400D01*
X198633Y-156698D01*
X198235Y-156102D01*
X197639Y-155704D01*
X197113Y-155600D01*
X197033Y-155198D01*
X196635Y-154602D01*
X196039Y-154204D01*
X195846Y-154166D01*
X195733Y-153598D01*
X195335Y-153002D01*
X194739Y-152604D01*
X194037Y-152465D01*
X194037Y-152465D01*
X194037Y-152465D01*
X193908Y-152379D01*
X193833Y-151998D01*
X193435Y-151402D01*
X192839Y-151004D01*
X192137Y-150865D01*
D01*
D01*
X192046Y-150564D01*
X192033Y-150498D01*
X192020Y-150479D01*
X192020Y-150479D01*
X191635Y-149902D01*
X191635Y-149902D01*
X191039Y-149504D01*
X190337Y-149365D01*
X190261Y-148981D01*
X190447Y-148703D01*
X190587Y-148001D01*
X190447Y-147298D01*
X190049Y-146703D01*
X189454Y-146305D01*
X189358Y-146286D01*
X189335Y-146252D01*
X189335Y-146252D01*
X189335D01*
X189196Y-145550D01*
X188798Y-144954D01*
X188202Y-144556D01*
X187780Y-144472D01*
X187696Y-144050D01*
X187298Y-143454D01*
X186702Y-143056D01*
X186000Y-142917D01*
X186000Y-142917D01*
X186000Y-142917D01*
X185733Y-142738D01*
X185696Y-142550D01*
X185298Y-141954D01*
X184702Y-141556D01*
X184280Y-141472D01*
X184196Y-141050D01*
X183798Y-140454D01*
X183202Y-140056D01*
X182780Y-139972D01*
X182696Y-139550D01*
X182298Y-138954D01*
X181766Y-138599D01*
X181835Y-138252D01*
X181696Y-137550D01*
X181298Y-136954D01*
X180702Y-136556D01*
X180000Y-136417D01*
D02*
G37*
G36*
X192500Y-126111D02*
X191681Y-126274D01*
X190986Y-126738D01*
X190522Y-127433D01*
X190359Y-128252D01*
X190522Y-129071D01*
X190986Y-129766D01*
X191681Y-130230D01*
X192500Y-130393D01*
X193319Y-130230D01*
X194014Y-129766D01*
X194478Y-129071D01*
X194641Y-128252D01*
X194478Y-127433D01*
X194014Y-126738D01*
X193319Y-126274D01*
X192500Y-126111D01*
D02*
G37*
G36*
X225760Y-131925D02*
X225058Y-132064D01*
X224462Y-132462D01*
X224064Y-133057D01*
X223925Y-133760D01*
X224064Y-134462D01*
X224462Y-135058D01*
X225058Y-135455D01*
X225760Y-135595D01*
X226462Y-135455D01*
X227058Y-135058D01*
X227455Y-134462D01*
X227595Y-133760D01*
X227455Y-133057D01*
X227058Y-132462D01*
X226462Y-132064D01*
X225760Y-131925D01*
D02*
G37*
G36*
X233000Y-121951D02*
X232025Y-122145D01*
X231198Y-122698D01*
X230645Y-123524D01*
X230451Y-124500D01*
X230645Y-125475D01*
X231198Y-126302D01*
X232025Y-126855D01*
X233000Y-127049D01*
X233975Y-126855D01*
X234802Y-126302D01*
X235355Y-125475D01*
X235549Y-124500D01*
X235355Y-123524D01*
X234802Y-122698D01*
X233975Y-122145D01*
X233000Y-121951D01*
D02*
G37*
G36*
X180500Y-125917D02*
X179798Y-126056D01*
X179202Y-126454D01*
X178804Y-127050D01*
X178665Y-127752D01*
X178804Y-128454D01*
X179202Y-129050D01*
X179798Y-129447D01*
X180500Y-129587D01*
X181202Y-129447D01*
X181798Y-129050D01*
X182196Y-128454D01*
X182335Y-127752D01*
X182196Y-127050D01*
X181798Y-126454D01*
X181202Y-126056D01*
X180500Y-125917D01*
D02*
G37*
G36*
X243500Y-137665D02*
X242798Y-137804D01*
X242202Y-138202D01*
X241804Y-138798D01*
X241665Y-139500D01*
X241804Y-140202D01*
X242202Y-140798D01*
X242798Y-141196D01*
X243500Y-141335D01*
X244202Y-141196D01*
X244798Y-140798D01*
X245196Y-140202D01*
X245335Y-139500D01*
X245196Y-138798D01*
X244798Y-138202D01*
X244202Y-137804D01*
X243500Y-137665D01*
D02*
G37*
G36*
X235500D02*
X234798Y-137804D01*
X234202Y-138202D01*
X233804Y-138798D01*
X233665Y-139500D01*
X233804Y-140202D01*
X234202Y-140798D01*
X234798Y-141196D01*
X235500Y-141335D01*
X236202Y-141196D01*
X236798Y-140798D01*
X237196Y-140202D01*
X237335Y-139500D01*
X237196Y-138798D01*
X236798Y-138202D01*
X236202Y-137804D01*
X235500Y-137665D01*
D02*
G37*
G36*
X202500Y-138917D02*
X201798Y-139056D01*
X201202Y-139454D01*
X200804Y-140050D01*
X200665Y-140752D01*
X200804Y-141454D01*
X201170Y-142002D01*
X200804Y-142550D01*
X200665Y-143252D01*
X200804Y-143954D01*
X201202Y-144550D01*
X201798Y-144948D01*
X202500Y-145087D01*
X203202Y-144948D01*
X203798Y-144550D01*
X204196Y-143954D01*
X204335Y-143252D01*
X204196Y-142550D01*
X203830Y-142002D01*
X204196Y-141454D01*
X204335Y-140752D01*
X204196Y-140050D01*
X203798Y-139454D01*
X203202Y-139056D01*
X202500Y-138917D01*
D02*
G37*
G36*
X96437Y-165665D02*
X95735Y-165804D01*
X95139Y-166202D01*
X94741Y-166798D01*
X94602Y-167500D01*
X94741Y-168202D01*
X95139Y-168798D01*
X95735Y-169196D01*
X96437Y-169335D01*
X97139Y-169196D01*
X97735Y-168798D01*
X98133Y-168202D01*
X98272Y-167500D01*
X98133Y-166798D01*
X97735Y-166202D01*
X97139Y-165804D01*
X96437Y-165665D01*
D02*
G37*
G36*
X192000Y-137417D02*
X191298Y-137556D01*
X190702Y-137954D01*
X190304Y-138550D01*
X190165Y-139252D01*
X190304Y-139954D01*
X190702Y-140550D01*
X191298Y-140947D01*
X192000Y-141087D01*
X192702Y-140947D01*
X193298Y-140550D01*
X193696Y-139954D01*
X193835Y-139252D01*
X193696Y-138550D01*
X193298Y-137954D01*
X192702Y-137556D01*
X192000Y-137417D01*
D02*
G37*
G36*
X201000Y-162917D02*
X200298Y-163056D01*
X199702Y-163454D01*
X199304Y-164050D01*
X199165Y-164752D01*
X199304Y-165454D01*
X199702Y-166050D01*
X200298Y-166447D01*
X201000Y-166587D01*
X201702Y-166447D01*
X202298Y-166050D01*
X202696Y-165454D01*
X202835Y-164752D01*
X202696Y-164050D01*
X202298Y-163454D01*
X201702Y-163056D01*
X201000Y-162917D01*
D02*
G37*
G36*
X290500Y-148665D02*
X289798Y-148804D01*
X289202Y-149202D01*
X288804Y-149798D01*
X288665Y-150500D01*
X288804Y-151202D01*
X289202Y-151798D01*
X289798Y-152196D01*
X290500Y-152335D01*
X291202Y-152196D01*
X291798Y-151798D01*
X292196Y-151202D01*
X292335Y-150500D01*
X292196Y-149798D01*
X291798Y-149202D01*
X291202Y-148804D01*
X290500Y-148665D01*
D02*
G37*
G36*
X286331Y-128898D02*
X285557Y-129052D01*
X284900Y-129491D01*
X284462Y-130147D01*
X284415Y-130379D01*
X283915D01*
X283869Y-130147D01*
X283431Y-129491D01*
X282774Y-129052D01*
X282000Y-128898D01*
X281226Y-129052D01*
X280569Y-129491D01*
X280131Y-130147D01*
X280085Y-130379D01*
X279585D01*
X279538Y-130147D01*
X279100Y-129491D01*
X278444Y-129052D01*
X277669Y-128898D01*
X276895Y-129052D01*
X276239Y-129491D01*
X275800Y-130147D01*
X275646Y-130921D01*
X275800Y-131695D01*
X276239Y-132352D01*
X276895Y-132790D01*
X277128Y-132837D01*
Y-133337D01*
X276895Y-133383D01*
X276239Y-133821D01*
X275800Y-134478D01*
X275646Y-135252D01*
X275800Y-136026D01*
X276239Y-136682D01*
X276895Y-137121D01*
X277128Y-137167D01*
Y-137667D01*
X276895Y-137714D01*
X276239Y-138152D01*
X275800Y-138809D01*
X275646Y-139583D01*
X275800Y-140357D01*
X276239Y-141013D01*
X276895Y-141452D01*
X277669Y-141606D01*
X278444Y-141452D01*
X279100Y-141013D01*
X279538Y-140357D01*
X279585Y-140124D01*
X280085D01*
X280131Y-140357D01*
X280569Y-141013D01*
X281226Y-141452D01*
X282000Y-141606D01*
X282774Y-141452D01*
X283431Y-141013D01*
X283869Y-140357D01*
X283915Y-140124D01*
X284415D01*
X284462Y-140357D01*
X284900Y-141013D01*
X285557Y-141452D01*
X286331Y-141606D01*
X287105Y-141452D01*
X287761Y-141013D01*
X288200Y-140357D01*
X288354Y-139583D01*
X288200Y-138809D01*
X287761Y-138152D01*
X287105Y-137714D01*
X286873Y-137667D01*
Y-137167D01*
X287105Y-137121D01*
X287761Y-136682D01*
X288200Y-136026D01*
X288354Y-135252D01*
X288200Y-134478D01*
X287761Y-133821D01*
X287105Y-133383D01*
X286873Y-133337D01*
Y-132837D01*
X287105Y-132790D01*
X287761Y-132352D01*
X288200Y-131695D01*
X288354Y-130921D01*
X288200Y-130147D01*
X287761Y-129491D01*
X287105Y-129052D01*
X286331Y-128898D01*
D02*
G37*
G36*
X170437Y-36465D02*
X169735Y-36604D01*
X169139Y-37002D01*
X168742Y-37598D01*
X168602Y-38300D01*
X168742Y-39002D01*
X169139Y-39598D01*
X169735Y-39996D01*
X170319Y-40112D01*
X170202Y-40700D01*
X170342Y-41402D01*
X170739Y-41998D01*
X171335Y-42396D01*
X172037Y-42535D01*
X172739Y-42396D01*
X173335Y-41998D01*
X173733Y-41402D01*
X173872Y-40700D01*
X173733Y-39998D01*
X173335Y-39402D01*
X172739Y-39004D01*
X172155Y-38888D01*
X172272Y-38300D01*
X172133Y-37598D01*
X171735Y-37002D01*
X171139Y-36604D01*
X170437Y-36465D01*
D02*
G37*
G36*
X159737Y-45965D02*
X159035Y-46104D01*
X158439Y-46502D01*
X158042Y-47098D01*
X157902Y-47800D01*
X158042Y-48502D01*
X158439Y-49098D01*
X159035Y-49496D01*
X159737Y-49635D01*
X160439Y-49496D01*
X161035Y-49098D01*
X161433Y-48502D01*
X161572Y-47800D01*
X161433Y-47098D01*
X161035Y-46502D01*
X160439Y-46104D01*
X159737Y-45965D01*
D02*
G37*
G36*
X166500Y-41165D02*
X165798Y-41304D01*
X165202Y-41702D01*
X164804Y-42298D01*
X164665Y-43000D01*
X164804Y-43702D01*
X165202Y-44298D01*
X165798Y-44696D01*
X166500Y-44835D01*
X167200Y-44696D01*
X167242Y-44902D01*
X167639Y-45498D01*
X168235Y-45896D01*
X168338Y-45916D01*
X168302Y-46100D01*
X168441Y-46802D01*
X168839Y-47398D01*
X168848Y-47403D01*
X168641Y-47713D01*
X168502Y-48415D01*
X168641Y-49117D01*
X169039Y-49713D01*
X169635Y-50111D01*
X170337Y-50250D01*
X171039Y-50111D01*
X171635Y-49713D01*
X172033Y-49117D01*
X172172Y-48415D01*
X172033Y-47713D01*
X171635Y-47117D01*
X171626Y-47111D01*
X171833Y-46802D01*
X171972Y-46100D01*
X171833Y-45398D01*
X171435Y-44802D01*
X170839Y-44404D01*
X170736Y-44384D01*
X170772Y-44200D01*
X170633Y-43498D01*
X170235Y-42902D01*
X169639Y-42504D01*
X168937Y-42365D01*
X168237Y-42504D01*
X168196Y-42298D01*
X167798Y-41702D01*
X167202Y-41304D01*
X166500Y-41165D01*
D02*
G37*
G36*
X178537Y-56565D02*
X177835Y-56704D01*
X177239Y-57102D01*
X176841Y-57698D01*
X176702Y-58400D01*
X176841Y-59102D01*
X176882Y-59164D01*
X176341Y-59525D01*
X175921Y-60154D01*
X175774Y-60895D01*
X175921Y-61636D01*
X176341Y-62265D01*
X176914Y-62647D01*
Y-62666D01*
X176428Y-63394D01*
X176257Y-64252D01*
X176428Y-65110D01*
X176914Y-65838D01*
X177067Y-65940D01*
X176926Y-66448D01*
X176385Y-66555D01*
X175790Y-66953D01*
X175392Y-67549D01*
X175252Y-68251D01*
X175392Y-68953D01*
X175790Y-69548D01*
X176385Y-69946D01*
X177088Y-70086D01*
X177790Y-69946D01*
X178385Y-69548D01*
X178783Y-68953D01*
X178923Y-68251D01*
X178783Y-67549D01*
X178407Y-66985D01*
X178451Y-66753D01*
X178577Y-66480D01*
X179358Y-66324D01*
X180086Y-65838D01*
X180572Y-65110D01*
X180743Y-64252D01*
X180572Y-63394D01*
X180086Y-62666D01*
X179622Y-62356D01*
X179441Y-61725D01*
X179501Y-61636D01*
X179648Y-60895D01*
X179501Y-60154D01*
X179393Y-59993D01*
X179835Y-59698D01*
X180233Y-59102D01*
X180372Y-58400D01*
X180233Y-57698D01*
X179835Y-57102D01*
X179239Y-56704D01*
X178537Y-56565D01*
D02*
G37*
G36*
X166500Y-48265D02*
X165798Y-48404D01*
X165202Y-48802D01*
X164804Y-49398D01*
X164665Y-50100D01*
X164804Y-50802D01*
X164951Y-51021D01*
X165186Y-51426D01*
X164951Y-51831D01*
X164804Y-52050D01*
X164665Y-52752D01*
X164804Y-53454D01*
X165202Y-54050D01*
X165798Y-54448D01*
X166350Y-54557D01*
X166302Y-54800D01*
X166442Y-55502D01*
X166839Y-56098D01*
X167435Y-56496D01*
X168137Y-56635D01*
X168839Y-56496D01*
X169435Y-56098D01*
X169833Y-55502D01*
X169972Y-54800D01*
X169833Y-54098D01*
X169435Y-53502D01*
X168839Y-53104D01*
X168287Y-52995D01*
X168335Y-52752D01*
X168196Y-52050D01*
X168049Y-51831D01*
X167814Y-51426D01*
X168049Y-51021D01*
X168196Y-50802D01*
X168335Y-50100D01*
X168196Y-49398D01*
X167798Y-48802D01*
X167202Y-48404D01*
X166500Y-48265D01*
D02*
G37*
G36*
X198937Y-41765D02*
X198235Y-41904D01*
X197639Y-42302D01*
X197241Y-42898D01*
X197102Y-43600D01*
X197171Y-43947D01*
X196639Y-44302D01*
X196241Y-44898D01*
X196102Y-45600D01*
X196194Y-46065D01*
X195839Y-46302D01*
X195441Y-46898D01*
X195302Y-47600D01*
X195382Y-48006D01*
X194939Y-48302D01*
X194542Y-48898D01*
X194402Y-49600D01*
X194542Y-50302D01*
X194939Y-50898D01*
X195535Y-51296D01*
X196237Y-51435D01*
X196939Y-51296D01*
X197535Y-50898D01*
X197933Y-50302D01*
X198072Y-49600D01*
X197992Y-49194D01*
X198435Y-48898D01*
X198833Y-48302D01*
X198972Y-47600D01*
X198880Y-47135D01*
X199235Y-46898D01*
X199633Y-46302D01*
X199772Y-45600D01*
X199703Y-45253D01*
X200235Y-44898D01*
X200633Y-44302D01*
X200772Y-43600D01*
X200633Y-42898D01*
X200235Y-42302D01*
X199639Y-41904D01*
X198937Y-41765D01*
D02*
G37*
G36*
X178000Y-43917D02*
X177298Y-44056D01*
X176702Y-44454D01*
X176304Y-45050D01*
X176165Y-45752D01*
X176304Y-46454D01*
X176702Y-47050D01*
X177004Y-47251D01*
X176804Y-47550D01*
X176665Y-48252D01*
X176804Y-48954D01*
X177202Y-49550D01*
X177702Y-49884D01*
Y-49954D01*
X177304Y-50550D01*
X177165Y-51252D01*
X177304Y-51954D01*
X177702Y-52550D01*
X178298Y-52947D01*
X179000Y-53087D01*
X179702Y-52947D01*
X180298Y-52550D01*
X180696Y-51954D01*
X180835Y-51252D01*
X180696Y-50550D01*
X180298Y-49954D01*
X179798Y-49620D01*
Y-49550D01*
X180196Y-48954D01*
X180335Y-48252D01*
X180196Y-47550D01*
X179798Y-46954D01*
X179496Y-46753D01*
X179696Y-46454D01*
X179835Y-45752D01*
X179696Y-45050D01*
X179298Y-44454D01*
X178702Y-44056D01*
X178000Y-43917D01*
D02*
G37*
G36*
X184000Y-61917D02*
X183298Y-62056D01*
X182702Y-62454D01*
X182304Y-63050D01*
X182165Y-63752D01*
X182304Y-64454D01*
X182702Y-65050D01*
X183298Y-65447D01*
X184000Y-65587D01*
X184702Y-65447D01*
X185298Y-65050D01*
X185696Y-64454D01*
X185835Y-63752D01*
X185696Y-63050D01*
X185298Y-62454D01*
X184702Y-62056D01*
X184000Y-61917D01*
D02*
G37*
G36*
X170500Y-65917D02*
X169798Y-66056D01*
X169500Y-66255D01*
X169202Y-66056D01*
X168500Y-65917D01*
X167798Y-66056D01*
X167202Y-66454D01*
X166804Y-67050D01*
X166665Y-67752D01*
X166804Y-68454D01*
X167202Y-69050D01*
X167798Y-69447D01*
X168500Y-69587D01*
X169202Y-69447D01*
X169500Y-69249D01*
X169798Y-69447D01*
X170500Y-69587D01*
X171202Y-69447D01*
X171798Y-69050D01*
X172196Y-68454D01*
X172335Y-67752D01*
X172196Y-67050D01*
X171798Y-66454D01*
X171202Y-66056D01*
X170500Y-65917D01*
D02*
G37*
G36*
X163737Y-59165D02*
X163035Y-59304D01*
X162439Y-59702D01*
X162041Y-60298D01*
X161902Y-61000D01*
X162041Y-61702D01*
X162439Y-62298D01*
X163035Y-62696D01*
X163486Y-62785D01*
X163664Y-63318D01*
X163475Y-63511D01*
X163000Y-63417D01*
X162298Y-63556D01*
X161702Y-63954D01*
X161304Y-64550D01*
X161220Y-64972D01*
X160798Y-65056D01*
X160202Y-65454D01*
X159804Y-66050D01*
X159665Y-66752D01*
X159804Y-67454D01*
X160202Y-68050D01*
X160798Y-68448D01*
X161500Y-68587D01*
X162202Y-68448D01*
X162798Y-68050D01*
X163196Y-67454D01*
X163280Y-67032D01*
X163702Y-66948D01*
X164298Y-66550D01*
X164358Y-66460D01*
X165000Y-66587D01*
X165702Y-66448D01*
X166298Y-66050D01*
X166696Y-65454D01*
X166835Y-64752D01*
X166696Y-64050D01*
X166298Y-63454D01*
X165702Y-63056D01*
X165006Y-62918D01*
X164992Y-62895D01*
X164817Y-62443D01*
X165035Y-62298D01*
X165433Y-61702D01*
X165572Y-61000D01*
X165433Y-60298D01*
X165035Y-59702D01*
X164439Y-59304D01*
X163737Y-59165D01*
D02*
G37*
G36*
X223713Y-31417D02*
X223010Y-31556D01*
X222415Y-31954D01*
X222017Y-32550D01*
X221877Y-33252D01*
X222017Y-33954D01*
X222415Y-34550D01*
X223010Y-34947D01*
X223713Y-35087D01*
X224415Y-34947D01*
X225010Y-34550D01*
X225408Y-33954D01*
X225548Y-33252D01*
X225408Y-32550D01*
X225010Y-31954D01*
X224415Y-31556D01*
X223713Y-31417D01*
D02*
G37*
G36*
X250000Y-28718D02*
X248628Y-28853D01*
X247308Y-29254D01*
X246092Y-29904D01*
X245026Y-30778D01*
X244151Y-31844D01*
X243501Y-33060D01*
X243101Y-34380D01*
X242966Y-35752D01*
X243101Y-37124D01*
X243501Y-38444D01*
X244151Y-39660D01*
X245026Y-40726D01*
X246092Y-41600D01*
X247308Y-42250D01*
X248628Y-42651D01*
X250000Y-42786D01*
X251372Y-42651D01*
X252692Y-42250D01*
X253908Y-41600D01*
X254974Y-40726D01*
X255849Y-39660D01*
X256499Y-38444D01*
X256899Y-37124D01*
X257034Y-35752D01*
X256899Y-34380D01*
X256499Y-33060D01*
X255849Y-31844D01*
X254974Y-30778D01*
X253908Y-29904D01*
X252692Y-29254D01*
X251372Y-28853D01*
X250000Y-28718D01*
D02*
G37*
G36*
X265500Y-47417D02*
X264798Y-47556D01*
X264202Y-47954D01*
X263804Y-48550D01*
X263665Y-49252D01*
X263804Y-49954D01*
X264202Y-50550D01*
X264798Y-50947D01*
X265500Y-51087D01*
X266202Y-50947D01*
X266798Y-50550D01*
X267196Y-49954D01*
X267335Y-49252D01*
X267196Y-48550D01*
X266798Y-47954D01*
X266202Y-47556D01*
X265500Y-47417D01*
D02*
G37*
G36*
X234000Y-29917D02*
X233298Y-30056D01*
X232702Y-30454D01*
X232304Y-31050D01*
X232165Y-31752D01*
X232304Y-32454D01*
X232702Y-33050D01*
X232941Y-33209D01*
X233038Y-33700D01*
X232804Y-34050D01*
X232665Y-34752D01*
X232695Y-34905D01*
X232319Y-35157D01*
X231922Y-35752D01*
X231782Y-36454D01*
X231922Y-37157D01*
X232319Y-37752D01*
X232499Y-37872D01*
X232597Y-38363D01*
X232568Y-38407D01*
X232405Y-39226D01*
X232488Y-39644D01*
X232319Y-39757D01*
X231922Y-40352D01*
X231782Y-41054D01*
X231922Y-41757D01*
X232319Y-42352D01*
X232915Y-42750D01*
X233617Y-42890D01*
X234319Y-42750D01*
X234915Y-42352D01*
X235313Y-41757D01*
X235431Y-41160D01*
X236060Y-40740D01*
X236524Y-40045D01*
X236687Y-39226D01*
X236524Y-38407D01*
X236333Y-38120D01*
X236430Y-37630D01*
X236461Y-37609D01*
X236859Y-37014D01*
X236999Y-36311D01*
X236859Y-35609D01*
X236461Y-35014D01*
X236304Y-34909D01*
X236335Y-34752D01*
X236196Y-34050D01*
X235798Y-33454D01*
X235298Y-33120D01*
Y-33050D01*
X235696Y-32454D01*
X235835Y-31752D01*
X235696Y-31050D01*
X235298Y-30454D01*
X234702Y-30056D01*
X234000Y-29917D01*
D02*
G37*
G36*
X234500Y-24917D02*
X233798Y-25056D01*
X233202Y-25454D01*
X232804Y-26050D01*
X232665Y-26752D01*
X232804Y-27454D01*
X233202Y-28050D01*
X233798Y-28447D01*
X234500Y-28587D01*
X235202Y-28447D01*
X235798Y-28050D01*
X236196Y-27454D01*
X236335Y-26752D01*
X236196Y-26050D01*
X235798Y-25454D01*
X235202Y-25056D01*
X234500Y-24917D01*
D02*
G37*
G36*
X249500Y-17917D02*
X248798Y-18056D01*
X248500Y-18255D01*
X248202Y-18056D01*
X247500Y-17917D01*
X246798Y-18056D01*
X246202Y-18454D01*
X245804Y-19050D01*
X245665Y-19752D01*
X245804Y-20454D01*
X246202Y-21050D01*
X246798Y-21448D01*
X247500Y-21587D01*
X248202Y-21448D01*
X248500Y-21249D01*
X248798Y-21448D01*
X249500Y-21587D01*
X249701Y-21547D01*
X249702Y-21550D01*
X250298Y-21948D01*
X251000Y-22087D01*
X251702Y-21948D01*
X252298Y-21550D01*
X252696Y-20954D01*
X252835Y-20252D01*
X252696Y-19550D01*
X252298Y-18954D01*
X251702Y-18556D01*
X251000Y-18417D01*
X250799Y-18457D01*
X250798Y-18454D01*
X250202Y-18056D01*
X249500Y-17917D01*
D02*
G37*
G36*
X73037Y-106965D02*
X72335Y-107104D01*
X71739Y-107502D01*
X71341Y-108098D01*
X71202Y-108800D01*
X71341Y-109502D01*
X71739Y-110098D01*
X72335Y-110496D01*
X73037Y-110635D01*
X73739Y-110496D01*
X74335Y-110098D01*
X74733Y-109502D01*
X74872Y-108800D01*
X74733Y-108098D01*
X74335Y-107502D01*
X73739Y-107104D01*
X73037Y-106965D01*
D02*
G37*
G36*
X31325Y-75829D02*
X30622Y-75969D01*
X30027Y-76367D01*
X29629Y-76962D01*
X29489Y-77665D01*
X29629Y-78367D01*
X30027Y-78962D01*
X30622Y-79360D01*
X31325Y-79500D01*
X32027Y-79360D01*
X32623Y-78962D01*
X33020Y-78367D01*
X33160Y-77665D01*
X33020Y-76962D01*
X32623Y-76367D01*
X32027Y-75969D01*
X31325Y-75829D01*
D02*
G37*
G36*
X74016Y-73977D02*
X73313Y-74117D01*
X72718Y-74515D01*
X72320Y-75110D01*
X72180Y-75813D01*
X72207Y-75945D01*
X71929Y-76361D01*
X71256Y-76495D01*
X70661Y-76893D01*
X70263Y-77488D01*
X70123Y-78190D01*
X70263Y-78893D01*
X70661Y-79488D01*
X71256Y-79886D01*
X71959Y-80026D01*
X72661Y-79886D01*
X73256Y-79488D01*
X73654Y-78893D01*
X73794Y-78190D01*
X73741Y-77923D01*
X74016Y-77648D01*
X74718Y-77508D01*
X75314Y-77110D01*
X75711Y-76515D01*
X75851Y-75813D01*
X75711Y-75110D01*
X75314Y-74515D01*
X74718Y-74117D01*
X74016Y-73977D01*
D02*
G37*
G36*
X20859Y-77655D02*
X20156Y-77795D01*
X19561Y-78193D01*
X19163Y-78788D01*
X19024Y-79491D01*
X19163Y-80193D01*
X19561Y-80788D01*
X20156Y-81186D01*
X20859Y-81326D01*
X21561Y-81186D01*
X22156Y-80788D01*
X22554Y-80193D01*
X22694Y-79491D01*
X22554Y-78788D01*
X22156Y-78193D01*
X21561Y-77795D01*
X20859Y-77655D01*
D02*
G37*
G36*
X57518Y-73655D02*
X56815Y-73795D01*
X56220Y-74193D01*
X55822Y-74788D01*
X55682Y-75490D01*
X55822Y-76193D01*
X56220Y-76788D01*
X56815Y-77186D01*
X57518Y-77326D01*
X58220Y-77186D01*
X58815Y-76788D01*
X59213Y-76193D01*
X59353Y-75490D01*
X59213Y-74788D01*
X58815Y-74193D01*
X58220Y-73795D01*
X57518Y-73655D01*
D02*
G37*
G36*
X23759Y-74655D02*
X23056Y-74795D01*
X22461Y-75193D01*
X22063Y-75788D01*
X21924Y-76490D01*
X22063Y-77193D01*
X22461Y-77788D01*
X23056Y-78186D01*
X23759Y-78326D01*
X24461Y-78186D01*
X25056Y-77788D01*
X25454Y-77193D01*
X25594Y-76490D01*
X25454Y-75788D01*
X25056Y-75193D01*
X24461Y-74795D01*
X23759Y-74655D01*
D02*
G37*
G36*
X52797Y-73417D02*
X52094Y-73557D01*
X51499Y-73955D01*
X51101Y-74550D01*
X50962Y-75252D01*
X51101Y-75955D01*
X51499Y-76550D01*
Y-76550D01*
X51499D01*
X51525Y-76683D01*
X51505Y-76713D01*
X51366Y-77416D01*
X51505Y-78118D01*
X51903Y-78713D01*
X52498Y-79111D01*
X53201Y-79251D01*
X53903Y-79111D01*
X54498Y-78713D01*
X54896Y-78118D01*
X55036Y-77416D01*
X54896Y-76713D01*
X54498Y-76118D01*
X54419Y-76065D01*
X54492Y-75955D01*
X54632Y-75252D01*
X54492Y-74550D01*
X54094Y-73955D01*
X53499Y-73557D01*
X52797Y-73417D01*
D02*
G37*
G36*
X56199Y-91794D02*
X55496Y-91934D01*
X54901Y-92332D01*
X54503Y-92927D01*
X54364Y-93629D01*
X54503Y-94332D01*
X54901Y-94927D01*
X55496Y-95325D01*
X56199Y-95465D01*
X56901Y-95325D01*
X57497Y-94927D01*
X57894Y-94332D01*
X58034Y-93629D01*
X57894Y-92927D01*
X57497Y-92332D01*
X56901Y-91934D01*
X56199Y-91794D01*
D02*
G37*
G36*
X51745Y-96248D02*
X51042Y-96388D01*
X50447Y-96786D01*
X50049Y-97381D01*
X49909Y-98084D01*
X50049Y-98786D01*
X50447Y-99381D01*
X51042Y-99779D01*
X51745Y-99919D01*
X52447Y-99779D01*
X53043Y-99381D01*
X53440Y-98786D01*
X53580Y-98084D01*
X53440Y-97381D01*
X53043Y-96786D01*
X52447Y-96388D01*
X51745Y-96248D01*
D02*
G37*
G36*
X96659Y-80955D02*
X95956Y-81095D01*
X95361Y-81493D01*
X94963Y-82088D01*
X94823Y-82790D01*
X94963Y-83493D01*
X95361Y-84088D01*
X95956Y-84486D01*
X96659Y-84626D01*
X97361Y-84486D01*
X97957Y-84088D01*
X98354Y-83493D01*
X98494Y-82790D01*
X98354Y-82088D01*
X97957Y-81493D01*
X97361Y-81095D01*
X96659Y-80955D01*
D02*
G37*
G36*
X18059D02*
X17356Y-81095D01*
X16761Y-81493D01*
X16363Y-82088D01*
X16224Y-82790D01*
X16363Y-83493D01*
X16716Y-84022D01*
X16161Y-84393D01*
X15763Y-84988D01*
X15623Y-85690D01*
X15763Y-86393D01*
X16161Y-86988D01*
X16756Y-87386D01*
X17459Y-87526D01*
X18161Y-87386D01*
X18756Y-86988D01*
X19154Y-86393D01*
X19294Y-85690D01*
X19154Y-84988D01*
X18801Y-84459D01*
X19356Y-84088D01*
X19754Y-83493D01*
X19894Y-82790D01*
X19754Y-82088D01*
X19356Y-81493D01*
X18761Y-81095D01*
X18059Y-80955D01*
D02*
G37*
G36*
X60653Y-87340D02*
X59950Y-87480D01*
X59355Y-87878D01*
X58957Y-88473D01*
X58817Y-89175D01*
X58957Y-89878D01*
X59355Y-90473D01*
X59950Y-90871D01*
X60653Y-91011D01*
X61355Y-90871D01*
X61950Y-90473D01*
X62348Y-89878D01*
X62488Y-89175D01*
X62348Y-88473D01*
X61950Y-87878D01*
X61355Y-87480D01*
X60653Y-87340D01*
D02*
G37*
G36*
X73000Y-123917D02*
X72298Y-124056D01*
X71702Y-124454D01*
X71304Y-125050D01*
X71165Y-125752D01*
X71304Y-126454D01*
X71702Y-127050D01*
X72298Y-127447D01*
X73000Y-127587D01*
X73702Y-127447D01*
X74298Y-127050D01*
X74696Y-126454D01*
X74835Y-125752D01*
X74696Y-125050D01*
X74298Y-124454D01*
X73702Y-124056D01*
X73000Y-123917D01*
D02*
G37*
G36*
X55059Y-34755D02*
X54356Y-34895D01*
X53761Y-35293D01*
X53363Y-35888D01*
X53224Y-36590D01*
X53363Y-37293D01*
X53761Y-37888D01*
X54356Y-38286D01*
X55059Y-38426D01*
X55761Y-38286D01*
X56357Y-37888D01*
X56754Y-37293D01*
X56894Y-36590D01*
X56754Y-35888D01*
X56357Y-35293D01*
X55761Y-34895D01*
X55059Y-34755D01*
D02*
G37*
G36*
X52159Y-37755D02*
X51456Y-37895D01*
X50861Y-38293D01*
X50463Y-38888D01*
X50323Y-39590D01*
X50463Y-40293D01*
X50861Y-40888D01*
X51456Y-41286D01*
X52159Y-41426D01*
X52861Y-41286D01*
X53456Y-40888D01*
X53854Y-40293D01*
X53994Y-39590D01*
X53854Y-38888D01*
X53456Y-38293D01*
X52861Y-37895D01*
X52159Y-37755D01*
D02*
G37*
G36*
X58159Y-31755D02*
X57456Y-31895D01*
X56861Y-32293D01*
X56463Y-32888D01*
X56323Y-33590D01*
X56463Y-34293D01*
X56861Y-34888D01*
X57456Y-35286D01*
X58159Y-35426D01*
X58861Y-35286D01*
X59456Y-34888D01*
X59854Y-34293D01*
X59994Y-33590D01*
X59854Y-32888D01*
X59456Y-32293D01*
X58861Y-31895D01*
X58159Y-31755D01*
D02*
G37*
G36*
X63732Y-43988D02*
X63029Y-44128D01*
X62434Y-44526D01*
X62036Y-45121D01*
X61897Y-45823D01*
X62036Y-46526D01*
X62434Y-47121D01*
X63029Y-47519D01*
X63732Y-47659D01*
X64434Y-47519D01*
X65030Y-47121D01*
X65427Y-46526D01*
X65567Y-45823D01*
X65427Y-45121D01*
X65030Y-44526D01*
X64434Y-44128D01*
X63732Y-43988D01*
D02*
G37*
G36*
X49159Y-40655D02*
X48456Y-40795D01*
X47861Y-41193D01*
X47463Y-41788D01*
X47324Y-42491D01*
X47463Y-43193D01*
X47861Y-43788D01*
X48413Y-44157D01*
Y-44402D01*
X48355Y-44696D01*
X48061Y-44893D01*
X47663Y-45488D01*
X47523Y-46191D01*
X47663Y-46893D01*
X48061Y-47488D01*
X48656Y-47886D01*
X49359Y-48026D01*
X50061Y-47886D01*
X50656Y-47488D01*
X51054Y-46893D01*
X51194Y-46191D01*
X51054Y-45488D01*
X50656Y-44893D01*
X50104Y-44524D01*
Y-44279D01*
X50163Y-43985D01*
X50457Y-43788D01*
X50854Y-43193D01*
X50994Y-42491D01*
X50854Y-41788D01*
X50457Y-41193D01*
X49861Y-40795D01*
X49159Y-40655D01*
D02*
G37*
G36*
X63000Y-8417D02*
X62298Y-8556D01*
X61702Y-8954D01*
X61304Y-9550D01*
X61165Y-10252D01*
X61304Y-10954D01*
X61503Y-11252D01*
X61304Y-11550D01*
X61165Y-12252D01*
X61304Y-12954D01*
X61702Y-13550D01*
X62298Y-13948D01*
X63000Y-14087D01*
X63702Y-13948D01*
X64298Y-13550D01*
X64696Y-12954D01*
X64835Y-12252D01*
X64696Y-11550D01*
X64497Y-11252D01*
X64696Y-10954D01*
X64835Y-10252D01*
X64696Y-9550D01*
X64298Y-8954D01*
X63702Y-8556D01*
X63000Y-8417D01*
D02*
G37*
G36*
X68337Y-23151D02*
X67362Y-23345D01*
X66535Y-23898D01*
X65982Y-24724D01*
X65788Y-25700D01*
X65982Y-26676D01*
X66535Y-27502D01*
X67362Y-28055D01*
X68337Y-28249D01*
X69313Y-28055D01*
X70139Y-27502D01*
X70692Y-26676D01*
X70886Y-25700D01*
X70692Y-24724D01*
X70139Y-23898D01*
X69313Y-23345D01*
X68337Y-23151D01*
D02*
G37*
G36*
X58087Y-49140D02*
X57384Y-49280D01*
X56789Y-49678D01*
X56391Y-50273D01*
X56252Y-50976D01*
X55931Y-51296D01*
X55755Y-51261D01*
X55052Y-51401D01*
X54457Y-51799D01*
X54059Y-52394D01*
X53920Y-53096D01*
X54059Y-53799D01*
X54457Y-54394D01*
X55052Y-54792D01*
X55755Y-54932D01*
X56457Y-54792D01*
X57052Y-54394D01*
X57450Y-53799D01*
X57590Y-53096D01*
X57911Y-52776D01*
X58087Y-52811D01*
X58789Y-52671D01*
X59385Y-52273D01*
X59782Y-51678D01*
X59922Y-50976D01*
X59782Y-50273D01*
X59385Y-49678D01*
X58789Y-49280D01*
X58087Y-49140D01*
D02*
G37*
G36*
X70259Y-63555D02*
X69556Y-63695D01*
X68961Y-64093D01*
X68563Y-64688D01*
X68423Y-65390D01*
X68563Y-66093D01*
X68961Y-66688D01*
X69556Y-67086D01*
X70259Y-67226D01*
X70588Y-67160D01*
X70941Y-67514D01*
X70855Y-67945D01*
X70995Y-68648D01*
X71393Y-69243D01*
X71988Y-69641D01*
X72691Y-69781D01*
X73393Y-69641D01*
X73988Y-69243D01*
X74386Y-68648D01*
X74526Y-67945D01*
X74386Y-67243D01*
X73988Y-66648D01*
X73393Y-66250D01*
X72691Y-66110D01*
X72362Y-66176D01*
X72008Y-65822D01*
X72094Y-65390D01*
X71954Y-64688D01*
X71557Y-64093D01*
X70961Y-63695D01*
X70259Y-63555D01*
D02*
G37*
G36*
X40164Y-66851D02*
X39461Y-66991D01*
X38866Y-67389D01*
X38468Y-67984D01*
X38328Y-68686D01*
X38468Y-69389D01*
X38866Y-69984D01*
X39461Y-70382D01*
X40164Y-70522D01*
X40866Y-70382D01*
X41462Y-69984D01*
X41859Y-69389D01*
X41999Y-68686D01*
X41859Y-67984D01*
X41462Y-67389D01*
X40866Y-66991D01*
X40164Y-66851D01*
D02*
G37*
G36*
X52539Y-63635D02*
X51836Y-63775D01*
X51241Y-64173D01*
X50843Y-64768D01*
X50704Y-65470D01*
X50843Y-66173D01*
X51241Y-66768D01*
X51836Y-67166D01*
X52539Y-67306D01*
X53241Y-67166D01*
X53837Y-66768D01*
X54234Y-66173D01*
X54374Y-65470D01*
X54234Y-64768D01*
X53837Y-64173D01*
X53241Y-63775D01*
X52539Y-63635D01*
D02*
G37*
G36*
X30959Y-64355D02*
X30256Y-64495D01*
X29661Y-64893D01*
X29263Y-65488D01*
X29123Y-66190D01*
X29263Y-66893D01*
X29661Y-67488D01*
X30256Y-67886D01*
X30959Y-68026D01*
X31661Y-67886D01*
X32256Y-67488D01*
X32654Y-66893D01*
X32794Y-66190D01*
X32654Y-65488D01*
X32256Y-64893D01*
X31661Y-64495D01*
X30959Y-64355D01*
D02*
G37*
G36*
X85066Y-62756D02*
X84363Y-62896D01*
X83768Y-63294D01*
X83370Y-63889D01*
X83231Y-64591D01*
X83259Y-64734D01*
X82924Y-65069D01*
X82221Y-65209D01*
X81626Y-65607D01*
X81228Y-66202D01*
X81089Y-66904D01*
X81228Y-67607D01*
X81626Y-68202D01*
X82221Y-68600D01*
X82924Y-68740D01*
X83626Y-68600D01*
X84222Y-68202D01*
X84619Y-67607D01*
X84759Y-66904D01*
X84731Y-66762D01*
X85066Y-66427D01*
X85768Y-66287D01*
X86364Y-65889D01*
X86761Y-65294D01*
X86901Y-64591D01*
X86761Y-63889D01*
X86364Y-63294D01*
X85768Y-62896D01*
X85066Y-62756D01*
D02*
G37*
G36*
X113500Y-68917D02*
X112798Y-69056D01*
X112202Y-69454D01*
X111804Y-70050D01*
X111665Y-70752D01*
X111804Y-71454D01*
X112202Y-72050D01*
X112798Y-72448D01*
X113500Y-72587D01*
X114202Y-72448D01*
X114798Y-72050D01*
X115196Y-71454D01*
X115335Y-70752D01*
X115196Y-70050D01*
X114798Y-69454D01*
X114202Y-69056D01*
X113500Y-68917D01*
D02*
G37*
G36*
X130694Y-71362D02*
X129953Y-71509D01*
X129324Y-71929D01*
X128904Y-72557D01*
X128757Y-73299D01*
X128904Y-74040D01*
X129324Y-74668D01*
X129953Y-75088D01*
X130694Y-75235D01*
X131435Y-75088D01*
X132063Y-74668D01*
X132483Y-74040D01*
X132631Y-73299D01*
X132483Y-72557D01*
X132063Y-71929D01*
X131435Y-71509D01*
X130694Y-71362D01*
D02*
G37*
G36*
X26859Y-71655D02*
X26156Y-71795D01*
X25561Y-72193D01*
X25163Y-72788D01*
X25023Y-73491D01*
X25163Y-74193D01*
X25561Y-74788D01*
X26156Y-75186D01*
X26859Y-75326D01*
X27561Y-75186D01*
X28157Y-74788D01*
X28554Y-74193D01*
X28694Y-73491D01*
X28554Y-72788D01*
X28157Y-72193D01*
X27561Y-71795D01*
X26859Y-71655D01*
D02*
G37*
G36*
X108137Y-72665D02*
X107435Y-72804D01*
X106839Y-73202D01*
X106441Y-73798D01*
X106302Y-74500D01*
X106441Y-75202D01*
X106839Y-75798D01*
X107435Y-76196D01*
X108137Y-76335D01*
X108839Y-76196D01*
X109435Y-75798D01*
X109833Y-75202D01*
X109972Y-74500D01*
X109833Y-73798D01*
X109435Y-73202D01*
X108839Y-72804D01*
X108137Y-72665D01*
D02*
G37*
G36*
X45947Y-69943D02*
X45244Y-70083D01*
X44649Y-70481D01*
X44251Y-71076D01*
X44111Y-71779D01*
X44251Y-72481D01*
X44649Y-73076D01*
X45244Y-73474D01*
X45947Y-73614D01*
X46649Y-73474D01*
X47245Y-73076D01*
X47642Y-72481D01*
X47782Y-71779D01*
X47642Y-71076D01*
X47245Y-70481D01*
X46649Y-70083D01*
X45947Y-69943D01*
D02*
G37*
G36*
X68095Y-70455D02*
X67392Y-70595D01*
X66797Y-70993D01*
X66399Y-71588D01*
X66259Y-72290D01*
X66399Y-72993D01*
X66797Y-73588D01*
X67392Y-73986D01*
X68095Y-74126D01*
X68797Y-73986D01*
X69393Y-73588D01*
X69790Y-72993D01*
X69930Y-72290D01*
X69790Y-71588D01*
X69393Y-70993D01*
X68797Y-70595D01*
X68095Y-70455D01*
D02*
G37*
G36*
X35818Y-71413D02*
X35115Y-71553D01*
X34520Y-71951D01*
X34122Y-72546D01*
X33983Y-73248D01*
X34122Y-73951D01*
X34520Y-74546D01*
X35115Y-74944D01*
X35818Y-75084D01*
X36520Y-74944D01*
X37115Y-74546D01*
X37513Y-73951D01*
X37653Y-73248D01*
X37513Y-72546D01*
X37115Y-71951D01*
X36520Y-71553D01*
X35818Y-71413D01*
D02*
G37*
G36*
X34259Y-54455D02*
X33556Y-54595D01*
X32961Y-54993D01*
X32563Y-55588D01*
X32423Y-56291D01*
X32563Y-56993D01*
X32961Y-57588D01*
X33556Y-57986D01*
X34259Y-58126D01*
X34961Y-57986D01*
X35557Y-57588D01*
X35954Y-56993D01*
X36094Y-56291D01*
X35954Y-55588D01*
X35557Y-54993D01*
X34961Y-54595D01*
X34259Y-54455D01*
D02*
G37*
G36*
X70237Y-50333D02*
X69534Y-50473D01*
X68939Y-50871D01*
X68541Y-51466D01*
X68401Y-52169D01*
X68541Y-52871D01*
X68939Y-53466D01*
X69534Y-53864D01*
X70237Y-54004D01*
X70939Y-53864D01*
X71535Y-53466D01*
X71932Y-52871D01*
X72072Y-52169D01*
X71932Y-51466D01*
X71535Y-50871D01*
X70939Y-50473D01*
X70237Y-50333D01*
D02*
G37*
G36*
X51441Y-55857D02*
X50738Y-55997D01*
X50143Y-56395D01*
X49745Y-56990D01*
X49606Y-57692D01*
X49687Y-58105D01*
X49257Y-58393D01*
X48661Y-57995D01*
X47959Y-57855D01*
X47256Y-57995D01*
X46661Y-58393D01*
X46263Y-58988D01*
X46123Y-59690D01*
X46263Y-60393D01*
X46661Y-60988D01*
X47256Y-61386D01*
X47959Y-61526D01*
X48661Y-61386D01*
X49257Y-60988D01*
X49654Y-60393D01*
X49794Y-59690D01*
X49712Y-59278D01*
X50143Y-58990D01*
X50738Y-59388D01*
X51441Y-59528D01*
X52143Y-59388D01*
X52738Y-58990D01*
X53136Y-58395D01*
X53276Y-57692D01*
X53136Y-56990D01*
X52738Y-56395D01*
X52143Y-55997D01*
X51441Y-55857D01*
D02*
G37*
G36*
X27859Y-60655D02*
X27156Y-60795D01*
X26561Y-61193D01*
X26163Y-61788D01*
X26024Y-62490D01*
X26163Y-63193D01*
X26561Y-63788D01*
X27156Y-64186D01*
X27859Y-64326D01*
X28561Y-64186D01*
X29157Y-63788D01*
X29554Y-63193D01*
X29694Y-62490D01*
X29554Y-61788D01*
X29157Y-61193D01*
X28561Y-60795D01*
X27859Y-60655D01*
D02*
G37*
G36*
X61337Y-54965D02*
X60635Y-55104D01*
X60039Y-55502D01*
X59641Y-56098D01*
X59502Y-56800D01*
X59641Y-57502D01*
X60039Y-58098D01*
X60635Y-58496D01*
X61337Y-58635D01*
X62039Y-58496D01*
X62635Y-58098D01*
X63033Y-57502D01*
X63172Y-56800D01*
X63033Y-56098D01*
X62635Y-55502D01*
X62039Y-55104D01*
X61337Y-54965D01*
D02*
G37*
G36*
X31259Y-57455D02*
X30556Y-57595D01*
X29961Y-57993D01*
X29563Y-58588D01*
X29423Y-59290D01*
X29563Y-59993D01*
X29961Y-60588D01*
X30556Y-60986D01*
X31259Y-61126D01*
X31961Y-60986D01*
X32557Y-60588D01*
X32954Y-59993D01*
X33094Y-59290D01*
X32954Y-58588D01*
X32557Y-57993D01*
X31961Y-57595D01*
X31259Y-57455D01*
D02*
G37*
G36*
X309484Y-9901D02*
X308782Y-10041D01*
X308187Y-10439D01*
X307789Y-11034D01*
X307649Y-11736D01*
X307789Y-12438D01*
X308187Y-13034D01*
X308782Y-13432D01*
X309484Y-13571D01*
X310187Y-13432D01*
X310782Y-13034D01*
X311180Y-12438D01*
X311319Y-11736D01*
X311180Y-11034D01*
X310782Y-10439D01*
X310187Y-10041D01*
X309484Y-9901D01*
D02*
G37*
%LPD*%
D49*
X7000Y-121000D02*
X27500Y-141500D01*
X72000Y-2000D02*
X76500Y-6500D01*
X42500Y-2000D02*
X72000D01*
X200200Y-22552D02*
Y-15052D01*
X200500Y-14752D01*
X197500Y-25252D02*
X200200Y-22552D01*
X76500Y-19000D02*
Y-6500D01*
X134748Y-23000D02*
X137000Y-25252D01*
X197500D01*
X81000Y-151752D02*
Y-148500D01*
X74000Y-141500D02*
X81000Y-148500D01*
X27500Y-141500D02*
X74000D01*
X28000Y-16500D02*
X42500Y-2000D01*
X76500Y-19000D02*
X79500Y-22000D01*
X95000Y-23000D02*
X134748D01*
X94000Y-22000D02*
X95000Y-23000D01*
X79500Y-22000D02*
X80500D01*
X82500D02*
X94000D01*
D51*
X253500Y-141025D02*
Y-117500D01*
Y-141025D02*
X254700Y-142226D01*
X258000Y-73752D02*
X263000Y-68752D01*
X17968Y-152252D02*
X77500D01*
X175000Y-173252D02*
Y-155137D01*
X160707Y-112659D02*
X165593D01*
X64000Y-160252D02*
X95500D01*
X175000Y-155137D02*
X180537Y-149600D01*
X157000Y-82752D02*
X158500Y-81252D01*
X157000Y-85752D02*
Y-82752D01*
Y-85752D02*
X162000Y-90752D01*
X17968Y-152252D02*
Y-137284D01*
X8000Y-181252D02*
Y-174252D01*
X17968Y-164284D01*
X155000Y-15252D02*
X166500Y-3752D01*
X62500Y-161752D02*
X64000Y-160252D01*
X62500Y-164752D02*
Y-161752D01*
X144900Y-147852D02*
X152000Y-140752D01*
X95500Y-160252D02*
X107900Y-147852D01*
X144900D01*
X207000Y-84752D02*
Y-65752D01*
X202000Y-89752D02*
X207000Y-84752D01*
X183000Y-89752D02*
X202000D01*
X175000Y-103252D02*
Y-97752D01*
X165593Y-112659D02*
X175000Y-103252D01*
X207000Y-65752D02*
X218000Y-54752D01*
X175000Y-97752D02*
X183000Y-89752D01*
X218000Y-54752D02*
Y-34252D01*
X194000Y-3752D02*
X198000Y-7752D01*
X205000D01*
X166500Y-3752D02*
X194000D01*
X175000Y-173252D02*
X181000Y-179252D01*
X263000Y-68752D02*
X277500D01*
X209000Y-25252D02*
Y-19752D01*
Y-25252D02*
X218000Y-34252D01*
X152000Y-140752D02*
Y-126752D01*
X157292Y-121459D01*
X169242D01*
X113752Y-3252D02*
X125752Y-15252D01*
X100500Y-3252D02*
X113752D01*
X125752Y-15252D02*
X155000D01*
X169242Y-121459D02*
X175201Y-115500D01*
X220000D01*
X179000Y-83000D02*
X181500D01*
X162000Y-90752D02*
X171248D01*
X179000Y-83000D01*
X254700Y-147362D02*
Y-142226D01*
X235250Y-168502D02*
X238283Y-165469D01*
X242281Y-161471D01*
Y-159781D01*
X254700Y-147362D01*
X233248Y-179252D02*
X235250Y-177250D01*
X181000Y-179252D02*
X233248D01*
X109000Y-184252D02*
Y-183213D01*
X118961Y-173252D01*
X175000D01*
X258000Y-100000D02*
X266000D01*
X232750Y-168502D02*
X235250D01*
Y-177250D02*
Y-168502D01*
X17968Y-164284D02*
Y-161659D01*
Y-152252D01*
X250000Y-117252D02*
X253500D01*
X258000D01*
Y-112969D01*
Y-100000D01*
Y-84500D01*
Y-73752D01*
X226500Y-16752D02*
X235500D01*
X240800D01*
X244150Y-20102D02*
X244300Y-20252D01*
X240800Y-16752D02*
X244150Y-20102D01*
D52*
X266500Y-19752D02*
Y-17402D01*
X271500Y-58252D02*
Y-24752D01*
X253000Y-58752D02*
X278500D01*
X298957Y-32000D02*
Y-24209D01*
X323532Y-26720D02*
Y-13721D01*
X282000Y-51752D02*
X298957D01*
X294250Y-19502D02*
X298957Y-24209D01*
X164000Y-30252D02*
X168500D01*
X281624Y-72876D02*
Y-61876D01*
X263000Y-159000D02*
X268500Y-164500D01*
X299500D01*
X302500Y-161500D01*
X278500Y-58752D02*
X281624Y-61876D01*
X266500Y-19752D02*
X271500Y-24752D01*
X302500Y-161500D02*
Y-158000D01*
Y-154000D01*
X276000Y-99500D02*
Y-78500D01*
X263000Y-112500D02*
X276000Y-99500D01*
Y-78500D02*
X281624Y-72876D01*
X160000Y-34252D02*
X164000Y-30252D01*
X118000Y-30052D02*
X122200Y-34252D01*
X160000D01*
X119500Y-26000D02*
X122500Y-29000D01*
X93000Y-26000D02*
X119500D01*
X89500Y-29500D02*
X93000Y-26000D01*
X122500Y-29000D02*
X130500D01*
X298957Y-32000D02*
X318252D01*
X298957Y-61910D02*
Y-32000D01*
X318252D02*
X319752Y-30500D01*
X323532Y-26720D01*
X263000Y-159000D02*
Y-112500D01*
X247663Y-53415D02*
X253000Y-58752D01*
D58*
X218500Y-106752D02*
X219250Y-106002D01*
X219500Y-105752D01*
D60*
X104000Y-178252D02*
X111500Y-170752D01*
X119146Y-154252D02*
X164000D01*
X111500Y-170752D02*
Y-166606D01*
X111300Y-166406D02*
X111500Y-166606D01*
X111300Y-166406D02*
Y-162098D01*
X119146Y-154252D01*
X164000D02*
X167500Y-150752D01*
Y-132252D01*
X238000Y-54452D02*
X238200D01*
X243737Y-59989D01*
X219500Y-100252D02*
X228500Y-91252D01*
X219500Y-105752D02*
Y-100252D01*
X227100Y-122056D02*
X238013Y-111143D01*
X167500Y-132252D02*
X177696Y-122056D01*
X227100D01*
X238013Y-111143D02*
Y-78213D01*
X48000Y-183000D02*
X48250Y-182750D01*
X48750Y-182250D01*
X50500Y-180500D01*
X52000Y-179000D01*
X52748Y-178252D01*
X53000D01*
X104000D01*
X238013Y-78213D02*
X242363Y-73863D01*
X243113Y-73113D01*
X243737Y-72489D01*
Y-66252D01*
Y-59989D01*
X228500Y-91252D02*
Y-57252D01*
Y-56252D01*
D61*
X150337Y-102589D02*
X155048Y-107300D01*
X284250Y-6252D02*
X286750Y-3752D01*
X215500Y-6252D02*
X284250D01*
X204100Y-17652D02*
X215500Y-6252D01*
X181033Y-71952D02*
X192537Y-60448D01*
Y-42448D01*
X147468Y-97783D02*
X150337Y-94915D01*
X141032Y-97783D02*
X147468D01*
X150337Y-102589D02*
Y-94915D01*
X160433Y-71952D02*
X181033D01*
X160033Y-71552D02*
X160433Y-71952D01*
X154311Y-71552D02*
X160033D01*
X150337Y-75526D02*
X154311Y-71552D01*
X204100Y-30885D02*
Y-17652D01*
X192537Y-42448D02*
X204100Y-30885D01*
X150337Y-94915D02*
Y-93252D01*
Y-82100D01*
X155048Y-107300D02*
X159500D01*
X161337D01*
X150337Y-82100D02*
Y-75526D01*
D70*
X215972Y-73228D02*
D03*
X334870Y-23228D02*
D03*
Y-164961D02*
D03*
X2587D02*
D03*
X2587Y-23228D02*
D03*
D71*
X281000Y-100000D02*
D03*
X286000D02*
D03*
X291000D02*
D03*
X23000Y-181252D02*
D03*
X18000D02*
D03*
X13000D02*
D03*
X8000D02*
D03*
X192537Y-163700D02*
D03*
X187537D02*
D03*
X329000Y-45752D02*
D03*
Y-40752D02*
D03*
X109000Y-184252D02*
D03*
X114000D02*
D03*
X119000D02*
D03*
X124000D02*
D03*
X129000D02*
D03*
X134000D02*
D03*
X139000D02*
D03*
D72*
X51579Y-169200D02*
D03*
X41737D02*
D03*
X31894D02*
D03*
D74*
X131859Y-129891D02*
D03*
D75*
X253500Y-117500D02*
D03*
X50000Y-183500D02*
D03*
Y-180000D02*
D03*
X47000Y-181500D02*
D03*
Y-185000D02*
D03*
X53000Y-180000D02*
D03*
X7000Y-121000D02*
D03*
X295250Y-86250D02*
D03*
X235500Y-16500D02*
D03*
X286750Y-3752D02*
D03*
X218500Y-16752D02*
D03*
X209000Y-19752D02*
D03*
X226500Y-16752D02*
D03*
X209000Y-32252D02*
D03*
X238283Y-165469D02*
D03*
X277500Y-68752D02*
D03*
X307500Y-172437D02*
D03*
X308500Y-177937D02*
D03*
X130000Y-164752D02*
D03*
X160707Y-112659D02*
D03*
X18207Y-161659D02*
D03*
X40937Y-17000D02*
D03*
X17968Y-137284D02*
D03*
X282000Y-51752D02*
D03*
X205000Y-7752D02*
D03*
X168500Y-30252D02*
D03*
X118000Y-30052D02*
D03*
X298957Y-61910D02*
D03*
X257500Y-84500D02*
D03*
X62500Y-164752D02*
D03*
X68337Y-25700D02*
D03*
X80707Y-141659D02*
D03*
X141032Y-97783D02*
D03*
X134500Y-110752D02*
D03*
X294250Y-19502D02*
D03*
X323532Y-13721D02*
D03*
X208000Y-43752D02*
D03*
X213000D02*
D03*
X114500Y-11252D02*
D03*
X100500Y-3252D02*
D03*
X200500Y-14752D02*
D03*
X294250Y-5250D02*
D03*
X302500Y-154000D02*
D03*
Y-158000D02*
D03*
X161207Y-133159D02*
D03*
X128000Y-5252D02*
D03*
X132500Y-19252D02*
D03*
X89500Y-29500D02*
D03*
X28000Y-16500D02*
D03*
X204000Y-57252D02*
D03*
X233000Y-124500D02*
D03*
X247000Y-133500D02*
D03*
X220000Y-115500D02*
D03*
X247000Y-130000D02*
D03*
D76*
X266800Y-123700D02*
D03*
X293438Y-108000D02*
D03*
X289300D02*
D03*
X318263D02*
D03*
X322400D02*
D03*
X308000Y-153000D02*
D03*
X339600Y-154700D02*
D03*
X336333Y-157500D02*
D03*
X339500D02*
D03*
X297300Y-116200D02*
D03*
X333167Y-157500D02*
D03*
X330000D02*
D03*
X314125Y-108000D02*
D03*
X309987D02*
D03*
X297300Y-112500D02*
D03*
X305850Y-108000D02*
D03*
X301712D02*
D03*
X297575D02*
D03*
X268700Y-125700D02*
D03*
X326836Y-156500D02*
D03*
X315534D02*
D03*
X311767D02*
D03*
X308000D02*
D03*
X319302D02*
D03*
X323069D02*
D03*
X326636Y-153000D02*
D03*
X315334D02*
D03*
X311567D02*
D03*
X319102D02*
D03*
X322869D02*
D03*
X297900Y-150200D02*
D03*
X277524Y-181400D02*
D03*
Y-178650D02*
D03*
X280783Y-173150D02*
D03*
X284041Y-170400D02*
D03*
X287300Y-181400D02*
D03*
X277524Y-175900D02*
D03*
X284041Y-181400D02*
D03*
X298000Y-159000D02*
D03*
X287300Y-178650D02*
D03*
X277524Y-173150D02*
D03*
X284041Y-175900D02*
D03*
X298100Y-156200D02*
D03*
X280783Y-181400D02*
D03*
X284041Y-178650D02*
D03*
X298000Y-153200D02*
D03*
X287300Y-175900D02*
D03*
X280783Y-178650D02*
D03*
X284041Y-173150D02*
D03*
X284900Y-161000D02*
D03*
X287300Y-167650D02*
D03*
X280783Y-175900D02*
D03*
Y-170400D02*
D03*
X281500Y-160900D02*
D03*
X287300Y-173150D02*
D03*
Y-170400D02*
D03*
X284041Y-167650D02*
D03*
X280783D02*
D03*
X277524Y-170400D02*
D03*
X322769Y-149500D02*
D03*
X319002D02*
D03*
X308000D02*
D03*
X311467D02*
D03*
X315234D02*
D03*
X279724Y-54027D02*
D03*
X293012Y-167463D02*
D03*
X277524Y-167650D02*
D03*
X313076Y-87074D02*
D03*
X313153Y-101105D02*
D03*
X160892Y-57618D02*
D03*
X177711Y-60895D02*
D03*
X266638Y-114112D02*
D03*
X266648Y-116639D02*
D03*
X122000Y-40000D02*
D03*
X38000Y-29937D02*
D03*
X326536Y-149500D02*
D03*
X330000Y-154500D02*
D03*
X336278Y-119752D02*
D03*
X332889D02*
D03*
X329500D02*
D03*
X326536Y-145808D02*
D03*
Y-142419D02*
D03*
Y-139030D02*
D03*
Y-135641D02*
D03*
Y-132252D02*
D03*
Y-129252D02*
D03*
X268515Y-89237D02*
D03*
X155337Y-75900D02*
D03*
X266237Y-34900D02*
D03*
X264437Y-96200D02*
D03*
X162000Y-81252D02*
D03*
X179337Y-28900D02*
D03*
X54759Y-30691D02*
D03*
X51759Y-33691D02*
D03*
X161137Y-116500D02*
D03*
X254437Y-86700D02*
D03*
X48859Y-36691D02*
D03*
X14000Y-3000D02*
D03*
X251000Y-109000D02*
D03*
X56000Y-159252D02*
D03*
X158637Y-54600D02*
D03*
X159500Y-81252D02*
D03*
X33000Y-144752D02*
D03*
X42500D02*
D03*
X52000D02*
D03*
X67937Y-147900D02*
D03*
X339667Y-119752D02*
D03*
X43937Y-4500D02*
D03*
X29937Y-3000D02*
D03*
X36937D02*
D03*
X257469Y-112969D02*
D03*
X317478Y-118082D02*
D03*
X320340D02*
D03*
X323201D02*
D03*
X326536D02*
D03*
X326433Y-122308D02*
D03*
X323219Y-122322D02*
D03*
X320304D02*
D03*
X317388D02*
D03*
X326536Y-125560D02*
D03*
X308575Y-127115D02*
D03*
X308639Y-129730D02*
D03*
X312256Y-127125D02*
D03*
X165400Y-80700D02*
D03*
X33000Y-2300D02*
D03*
X268237Y-34839D02*
D03*
D77*
X237500Y-52000D02*
D03*
X243000Y-73000D02*
D03*
X244500D02*
D03*
X246000D02*
D03*
Y-74500D02*
D03*
X243000D02*
D03*
X244500D02*
D03*
X162603Y-129104D02*
D03*
X162000Y-102000D02*
D03*
X12500Y-74500D02*
D03*
X308000Y-4500D02*
D03*
X316500Y-66000D02*
D03*
X323500Y-3752D02*
D03*
X299000Y-142500D02*
D03*
X297500Y-141000D02*
D03*
X250000Y-168752D02*
D03*
X248137Y-167600D02*
D03*
X248000Y-163000D02*
D03*
X246137Y-168389D02*
D03*
X253500Y-159500D02*
D03*
X252500Y-161500D02*
D03*
X240500Y-168752D02*
D03*
X232000Y-169252D02*
D03*
X99000Y-140252D02*
D03*
X107000Y-124000D02*
D03*
X263500Y-19000D02*
D03*
Y-16529D02*
D03*
X266500Y-17402D02*
D03*
X263984Y-2268D02*
D03*
X237500Y-12500D02*
D03*
X259000Y-19413D02*
D03*
X251000Y-20252D02*
D03*
X249500Y-19752D02*
D03*
X237500Y-10000D02*
D03*
X233000Y-164252D02*
D03*
X226337Y-152600D02*
D03*
X228537Y-155700D02*
D03*
X256750Y-62502D02*
D03*
X235163Y-36311D02*
D03*
X233617Y-36454D02*
D03*
X234500Y-34752D02*
D03*
X235000Y-46252D02*
D03*
X247500Y-19752D02*
D03*
X265500Y-49252D02*
D03*
X158500Y-75252D02*
D03*
X177088Y-68251D02*
D03*
X170500Y-67752D02*
D03*
X168500D02*
D03*
X159000Y-37252D02*
D03*
X276500Y-52752D02*
D03*
X278914Y-41580D02*
D03*
X282000Y-40666D02*
D03*
X276500Y-44252D02*
D03*
X268586Y-41666D02*
D03*
X265500Y-37252D02*
D03*
X268000Y-38252D02*
D03*
X267000Y-40447D02*
D03*
X305500Y-69752D02*
D03*
X215000Y-21252D02*
D03*
X178000Y-45752D02*
D03*
X182500Y-39752D02*
D03*
X172037Y-40700D02*
D03*
X150000Y-6752D02*
D03*
X212500Y-53752D02*
D03*
X266965Y-90787D02*
D03*
X135000Y-99252D02*
D03*
X192000Y-139252D02*
D03*
X224500Y-52752D02*
D03*
X279500Y-154752D02*
D03*
X258000Y-179752D02*
D03*
X207500Y-55752D02*
D03*
X222000Y-65752D02*
D03*
X285500Y-41752D02*
D03*
X290500Y-25752D02*
D03*
X336000Y-52252D02*
D03*
X338000Y-37752D02*
D03*
X330500Y-12752D02*
D03*
X309484Y-11736D02*
D03*
X305500Y-18752D02*
D03*
X201000Y-164752D02*
D03*
X107000Y-140252D02*
D03*
X73000Y-125752D02*
D03*
X108137Y-74500D02*
D03*
X113500Y-70752D02*
D03*
X73037Y-108800D02*
D03*
X146820Y-177409D02*
D03*
X143670Y-180209D02*
D03*
X145245Y-178809D02*
D03*
X132500Y-178252D02*
D03*
X124737Y-165752D02*
D03*
X123237Y-164252D02*
D03*
X121637Y-165752D02*
D03*
X128000Y-178252D02*
D03*
X153119Y-177409D02*
D03*
X146937Y-182700D02*
D03*
X96500Y-153752D02*
D03*
X180500Y-127752D02*
D03*
X180000Y-138252D02*
D03*
X181000Y-140252D02*
D03*
X180537Y-149600D02*
D03*
X184000Y-143252D02*
D03*
X182500Y-141752D02*
D03*
X206000Y-163701D02*
D03*
X204000Y-167752D02*
D03*
X204500Y-157252D02*
D03*
X222500Y-149500D02*
D03*
X285000Y-60752D02*
D03*
X266000Y-176252D02*
D03*
X306685Y-24437D02*
D03*
X228537Y-169000D02*
D03*
X197237Y-160100D02*
D03*
X304437Y-38500D02*
D03*
X101000Y-144752D02*
D03*
X84700Y-147619D02*
D03*
X81000Y-151752D02*
D03*
X184000Y-63752D02*
D03*
X182012Y-29112D02*
D03*
X179000Y-8752D02*
D03*
Y-12600D02*
D03*
Y-35752D02*
D03*
X177937Y-32400D02*
D03*
Y-37752D02*
D03*
X178000Y-22252D02*
D03*
X179000Y-18252D02*
D03*
X179500Y-41252D02*
D03*
X166500Y-43000D02*
D03*
X168937Y-44200D02*
D03*
X170137Y-46100D02*
D03*
X170337Y-48415D02*
D03*
X166500Y-50100D02*
D03*
Y-52752D02*
D03*
X171500Y-8752D02*
D03*
Y-11252D02*
D03*
X168000Y-12752D02*
D03*
X166500Y-21752D02*
D03*
Y-19410D02*
D03*
Y-16752D02*
D03*
X58159Y-33590D02*
D03*
X58059Y-27490D02*
D03*
X149500Y-18752D02*
D03*
X153500Y-29252D02*
D03*
X157037Y-20300D02*
D03*
X144000Y-80752D02*
D03*
X142000Y-82252D02*
D03*
X140500Y-40752D02*
D03*
X148500Y-11252D02*
D03*
Y-8900D02*
D03*
X306685Y-34752D02*
D03*
X308500Y-38752D02*
D03*
X155637Y-6300D02*
D03*
X171777Y-32751D02*
D03*
X169613Y-33347D02*
D03*
X167026Y-33752D02*
D03*
X259000Y-14752D02*
D03*
X149937Y-184400D02*
D03*
X30959Y-66190D02*
D03*
X53201Y-77416D02*
D03*
X159737Y-47800D02*
D03*
X178500Y-48252D02*
D03*
X156237Y-163552D02*
D03*
X142000Y-74252D02*
D03*
X168137Y-54800D02*
D03*
X157837Y-165752D02*
D03*
X159437Y-163552D02*
D03*
X162537D02*
D03*
X163737Y-61000D02*
D03*
X195337Y-155900D02*
D03*
X194037Y-154300D02*
D03*
X192137Y-152700D02*
D03*
X190337Y-151200D02*
D03*
X161037Y-165752D02*
D03*
X51745Y-98084D02*
D03*
X56199Y-93629D02*
D03*
X60653Y-89175D02*
D03*
X74016Y-75813D02*
D03*
X71959Y-78190D02*
D03*
X68095Y-72290D02*
D03*
X61337Y-56800D02*
D03*
X72691Y-67945D02*
D03*
X85066Y-64591D02*
D03*
X96659Y-82790D02*
D03*
X82924Y-66904D02*
D03*
X70237Y-52169D02*
D03*
X70259Y-65390D02*
D03*
X63732Y-45823D02*
D03*
X51441Y-57692D02*
D03*
X55059Y-36590D02*
D03*
X52159Y-39590D02*
D03*
X49159Y-42491D02*
D03*
X57518Y-75490D02*
D03*
X52539Y-65470D02*
D03*
X55755Y-53096D02*
D03*
X49359Y-46191D02*
D03*
X45947Y-71779D02*
D03*
X35818Y-73248D02*
D03*
X17459Y-85690D02*
D03*
X18059Y-82790D02*
D03*
X20859Y-79491D02*
D03*
X26859Y-73491D02*
D03*
X31325Y-77665D02*
D03*
X40164Y-68686D02*
D03*
X23759Y-76490D02*
D03*
X27859Y-62490D02*
D03*
X31259Y-59290D02*
D03*
X34259Y-56291D02*
D03*
X33737Y-75600D02*
D03*
X53953Y-95837D02*
D03*
X58427Y-91403D02*
D03*
X69562Y-80266D02*
D03*
X76227Y-73568D02*
D03*
X80698Y-69131D02*
D03*
X53599Y-55396D02*
D03*
X63963Y-54224D02*
D03*
X78470Y-71359D02*
D03*
X67910Y-49953D02*
D03*
X61537Y-83268D02*
D03*
X64459Y-70790D02*
D03*
X50212Y-67787D02*
D03*
X19459Y-66190D02*
D03*
X50417Y-63349D02*
D03*
X16459Y-69191D02*
D03*
X38043Y-71018D02*
D03*
X37197Y-50029D02*
D03*
X83501Y-61106D02*
D03*
X40147Y-46979D02*
D03*
X45759Y-39691D02*
D03*
X66859Y-43290D02*
D03*
X52797Y-75252D02*
D03*
X47959Y-59690D02*
D03*
X180500Y-160500D02*
D03*
X96437Y-167500D02*
D03*
X44237Y-157300D02*
D03*
X138937Y-165752D02*
D03*
X137500Y-163552D02*
D03*
X165000Y-64752D02*
D03*
X106237Y-102500D02*
D03*
X144000Y-75252D02*
D03*
X170437Y-38300D02*
D03*
X184537Y-149600D02*
D03*
X102937Y-166000D02*
D03*
X208500Y-106220D02*
D03*
X161000Y-182452D02*
D03*
X163500D02*
D03*
X156500D02*
D03*
X158500D02*
D03*
X174000Y-178752D02*
D03*
X196937Y-157400D02*
D03*
X178537Y-58400D02*
D03*
X166500Y-14752D02*
D03*
X155037Y-53700D02*
D03*
X149146Y-50077D02*
D03*
X149155Y-58495D02*
D03*
X259000Y-17252D02*
D03*
X220000Y-106752D02*
D03*
X240500Y-51500D02*
D03*
X239000Y-52000D02*
D03*
X142137Y-165752D02*
D03*
X140537Y-163552D02*
D03*
X133500D02*
D03*
X135500D02*
D03*
X164137Y-165752D02*
D03*
X166500D02*
D03*
X180500Y-164752D02*
D03*
Y-162626D02*
D03*
X186000Y-144752D02*
D03*
X187500Y-146252D02*
D03*
X188751Y-148001D02*
D03*
X180500Y-100752D02*
D03*
X179000Y-51252D02*
D03*
X77500Y-152252D02*
D03*
X320000Y-6752D02*
D03*
X303500Y-45252D02*
D03*
X292500D02*
D03*
X313500Y-7252D02*
D03*
X311500Y-17752D02*
D03*
X304000Y-10768D02*
D03*
X308500Y-22252D02*
D03*
X290500Y-58752D02*
D03*
X273500Y-160752D02*
D03*
X149159Y-62691D02*
D03*
X151000Y-64752D02*
D03*
X107000Y-143252D02*
D03*
X97000Y-163252D02*
D03*
X223713Y-33252D02*
D03*
X234500Y-26752D02*
D03*
X205500Y-150500D02*
D03*
Y-152500D02*
D03*
X202500Y-143252D02*
D03*
Y-140752D02*
D03*
X197937Y-45600D02*
D03*
X198937Y-43600D02*
D03*
X142000Y-30752D02*
D03*
X141000Y-22252D02*
D03*
X63000Y-12252D02*
D03*
Y-10252D02*
D03*
X211500Y-93752D02*
D03*
X262000Y-89252D02*
D03*
X234000Y-31752D02*
D03*
X237500Y-49252D02*
D03*
X192500Y-20100D02*
D03*
X196237Y-49600D02*
D03*
X197137Y-47600D02*
D03*
X192500Y-18100D02*
D03*
X191000Y-8252D02*
D03*
X192500Y-12752D02*
D03*
Y-16100D02*
D03*
Y-10752D02*
D03*
X153500Y-93252D02*
D03*
X163000Y-65252D02*
D03*
X161500Y-66752D02*
D03*
X123500Y-177252D02*
D03*
X59710Y-49068D02*
D03*
X58087Y-50976D02*
D03*
X146000Y-140752D02*
D03*
X227500Y-57252D02*
D03*
X242500Y-66252D02*
D03*
X179197Y-107055D02*
D03*
X231500Y-57252D02*
D03*
X229500D02*
D03*
X209000Y-99252D02*
D03*
X245500Y-20252D02*
D03*
X244000D02*
D03*
X279000Y-51252D02*
D03*
X265500Y-64500D02*
D03*
X290500Y-150500D02*
D03*
X257500Y-140500D02*
D03*
Y-137000D02*
D03*
X257000Y-130000D02*
D03*
X251500Y-146000D02*
D03*
X257000Y-133500D02*
D03*
X284953Y-121547D02*
D03*
X282984Y-122516D02*
D03*
X292500Y-122000D02*
D03*
X286500Y-155000D02*
D03*
X267000Y-151000D02*
D03*
X268500Y-143283D02*
D03*
Y-145000D02*
D03*
X120000Y-164252D02*
D03*
X118500Y-165752D02*
D03*
X105437Y-166000D02*
D03*
X117000Y-164252D02*
D03*
X138500Y-178000D02*
D03*
X220500Y-163252D02*
D03*
X226337Y-166600D02*
D03*
X198000Y-31752D02*
D03*
X198337Y-29148D02*
D03*
X192500Y-22252D02*
D03*
X195500Y-29252D02*
D03*
X162000Y-127000D02*
D03*
X159500Y-125252D02*
D03*
X152500Y-6500D02*
D03*
X224337Y-150800D02*
D03*
X222237Y-166700D02*
D03*
X224337Y-169400D02*
D03*
X128000Y-19252D02*
D03*
X130500Y-29000D02*
D03*
X9959Y-80690D02*
D03*
X13459Y-72190D02*
D03*
X162000Y-97000D02*
D03*
Y-94500D02*
D03*
Y-99500D02*
D03*
X158000Y-97500D02*
D03*
X236000Y-52000D02*
D03*
X250000Y-164500D02*
D03*
X246000Y-161500D02*
D03*
X237000Y-158500D02*
D03*
X235500Y-149500D02*
D03*
X218500Y-106752D02*
D03*
X230000Y-184000D02*
D03*
X100000Y-20500D02*
D03*
X80500Y-7000D02*
D03*
X91500Y-15000D02*
D03*
X225000Y-106752D02*
D03*
X235500Y-139500D02*
D03*
X80500Y-22000D02*
D03*
X82500D02*
D03*
X225760Y-133760D02*
D03*
X243500Y-139500D02*
D03*
X294638Y-128362D02*
D03*
X296000Y-127000D02*
D03*
X303900Y-48000D02*
D03*
X193837Y-33400D02*
D03*
X192737Y-31500D02*
D03*
X184200Y-29100D02*
D03*
X37400Y-19100D02*
D03*
X23700Y-11000D02*
D03*
X257000Y-126252D02*
D03*
X249000Y-123922D02*
D03*
X218800Y-2500D02*
D03*
X87900Y-17952D02*
D03*
X232000Y-51252D02*
D03*
X247000Y-52752D02*
D03*
X252417Y-53054D02*
D03*
X252362Y-51452D02*
D03*
X233617Y-41054D02*
D03*
D78*
X4000Y-37000D02*
D03*
X-1500Y-35085D02*
D03*
Y-31252D02*
D03*
X-500Y-128752D02*
D03*
X234546Y-39226D02*
D03*
X214684Y-168028D02*
D03*
X222500Y-50252D02*
D03*
X192500Y-128252D02*
D03*
X97000Y-185252D02*
D03*
X87500D02*
D03*
X60000D02*
D03*
X53500Y-157752D02*
D03*
X68500Y-138752D02*
D03*
X10500Y-145252D02*
D03*
X2000Y-144752D02*
D03*
X26783Y-12968D02*
D03*
X6000Y-12252D02*
D03*
X1000Y-3752D02*
D03*
X-500Y-121444D02*
D03*
Y-99521D02*
D03*
Y-103175D02*
D03*
Y-110483D02*
D03*
Y-106829D02*
D03*
X-1500Y-42752D02*
D03*
Y-38919D02*
D03*
X-500Y-125098D02*
D03*
Y-114137D02*
D03*
Y-117790D02*
D03*
X49000Y-8500D02*
D03*
X46500D02*
D03*
X51500D02*
D03*
D79*
X159500Y-106500D02*
D03*
X161500Y-108000D02*
D03*
X96737Y-149600D02*
D03*
X96031Y-31220D02*
D03*
X97000Y-108752D02*
D03*
X150237Y-82100D02*
D03*
X116337Y-98500D02*
D03*
X100359Y-93400D02*
D03*
X120037D02*
D03*
X131037D02*
D03*
X149413Y-54444D02*
D03*
X149194Y-45956D02*
D03*
X97000Y-122752D02*
D03*
X178500Y-64252D02*
D03*
X181500Y-83000D02*
D03*
X266000Y-100000D02*
D03*
X319752Y-30500D02*
D03*
D80*
X130694Y-73299D02*
D03*
D81*
X277669Y-139583D02*
D03*
Y-130921D02*
D03*
X286331Y-139583D02*
D03*
Y-130921D02*
D03*
X277669Y-135252D02*
D03*
X286331D02*
D03*
X282000Y-139583D02*
D03*
Y-130921D02*
D03*
Y-135252D02*
D03*
D82*
X250000Y-35752D02*
D03*
M02*
