G04 Layer_Physical_Order=3*
G04 Layer_Color=36540*
%FSLAX25Y25*%
%MOIN*%
G70*
G01*
G75*
%ADD45C,0.01000*%
%ADD46C,0.00500*%
%ADD48C,0.00800*%
%ADD49C,0.02000*%
%ADD50C,0.00600*%
%ADD51C,0.04000*%
%ADD52C,0.03000*%
%ADD70C,0.11811*%
%ADD71C,0.03740*%
%ADD72C,0.05906*%
G04:AMPARAMS|DCode=74|XSize=236.22mil|YSize=236.22mil|CornerRadius=0mil|HoleSize=0mil|Usage=FLASHONLY|Rotation=0.000|XOffset=0mil|YOffset=0mil|HoleType=Round|Shape=RoundedRectangle|*
%AMROUNDEDRECTD74*
21,1,0.23622,0.23622,0,0,0.0*
21,1,0.23622,0.23622,0,0,0.0*
1,1,0.00000,0.11811,-0.11811*
1,1,0.00000,-0.11811,-0.11811*
1,1,0.00000,-0.11811,0.11811*
1,1,0.00000,0.11811,0.11811*
%
%ADD74ROUNDEDRECTD74*%
%ADD75C,0.03000*%
%ADD76C,0.01800*%
%ADD77C,0.01600*%
%ADD78C,0.02200*%
%ADD79C,0.02400*%
%ADD80C,0.01799*%
%ADD81C,0.01969*%
%ADD82C,0.12000*%
G36*
X188554Y-145552D02*
X188300Y-146244D01*
X187508Y-145452D01*
X188200Y-145198D01*
X188554Y-145552D01*
D02*
G37*
G36*
X33300Y-146141D02*
X32700D01*
X32370Y-145395D01*
X33630D01*
X33300Y-146141D01*
D02*
G37*
G36*
X52300D02*
X51700D01*
X51370Y-145395D01*
X52630D01*
X52300Y-146141D01*
D02*
G37*
G36*
X222841Y-150224D02*
X222487Y-150780D01*
X221987Y-150594D01*
X221783Y-149855D01*
X222841Y-150224D01*
D02*
G37*
G36*
X189805Y-147301D02*
X189551Y-147993D01*
X188760Y-147201D01*
X189451Y-146947D01*
X189805Y-147301D01*
D02*
G37*
G36*
X251800Y-147222D02*
X251200D01*
X250940Y-146571D01*
X252060D01*
X251800Y-147222D01*
D02*
G37*
G36*
X187054Y-144052D02*
X186800Y-144744D01*
X186008Y-143952D01*
X186700Y-143698D01*
X187054Y-144052D01*
D02*
G37*
G36*
X183554Y-141052D02*
X183300Y-141744D01*
X182508Y-140952D01*
X183200Y-140698D01*
X183554Y-141052D01*
D02*
G37*
G36*
X257800Y-141722D02*
X257200D01*
X256940Y-141071D01*
X258060D01*
X257800Y-141722D01*
D02*
G37*
G36*
X203722Y-140452D02*
Y-141052D01*
X203071Y-141312D01*
Y-140192D01*
X203722Y-140452D01*
D02*
G37*
G36*
Y-142952D02*
Y-143552D01*
X203071Y-143812D01*
Y-142692D01*
X203722Y-142952D01*
D02*
G37*
G36*
X191760Y-125225D02*
X192036Y-125638D01*
X193925Y-127528D01*
Y-141024D01*
X191673Y-143276D01*
X191211Y-143085D01*
Y-125020D01*
X191709Y-124971D01*
X191760Y-125225D01*
D02*
G37*
G36*
X185054Y-142552D02*
X184800Y-143244D01*
X184008Y-142452D01*
X184700Y-142198D01*
X185054Y-142552D01*
D02*
G37*
G36*
X206740Y-150250D02*
Y-150750D01*
X206071Y-151060D01*
Y-149940D01*
X206740Y-150250D01*
D02*
G37*
G36*
X197991Y-156700D02*
X197737Y-157392D01*
X196945Y-156600D01*
X197637Y-156346D01*
X197991Y-156700D01*
D02*
G37*
G36*
X228787Y-156940D02*
X228287D01*
X227977Y-156271D01*
X229097D01*
X228787Y-156940D01*
D02*
G37*
G36*
X196391Y-155200D02*
X196137Y-155892D01*
X195345Y-155100D01*
X196037Y-154847D01*
X196391Y-155200D01*
D02*
G37*
G36*
X237560Y-157929D02*
X236440D01*
X236750Y-157260D01*
X237250D01*
X237560Y-157929D01*
D02*
G37*
G36*
X45459Y-157000D02*
Y-157600D01*
X44808Y-157860D01*
Y-156740D01*
X45459Y-157000D01*
D02*
G37*
G36*
X205722Y-156952D02*
Y-157552D01*
X205071Y-157812D01*
Y-156692D01*
X205722Y-156952D01*
D02*
G37*
G36*
X95963Y-154345D02*
X95300Y-154100D01*
X95261Y-153500D01*
X95896Y-153227D01*
X95963Y-154345D01*
D02*
G37*
G36*
X193191Y-152000D02*
X192937Y-152692D01*
X192145Y-151900D01*
X192837Y-151646D01*
X193191Y-152000D01*
D02*
G37*
G36*
X224587Y-152040D02*
X224087D01*
X223777Y-151371D01*
X224897D01*
X224587Y-152040D01*
D02*
G37*
G36*
X191391Y-150500D02*
X191137Y-151192D01*
X190345Y-150400D01*
X191037Y-150146D01*
X191391Y-150500D01*
D02*
G37*
G36*
X195091Y-153600D02*
X194837Y-154292D01*
X194045Y-153500D01*
X194737Y-153246D01*
X195091Y-153600D01*
D02*
G37*
G36*
X226587Y-153840D02*
X226087D01*
X225777Y-153171D01*
X226897D01*
X226587Y-153840D01*
D02*
G37*
G36*
X206740Y-152250D02*
Y-152750D01*
X206071Y-153060D01*
Y-151940D01*
X206740Y-152250D01*
D02*
G37*
G36*
X145054Y-81452D02*
X144700Y-81805D01*
X144008Y-81552D01*
X144800Y-80760D01*
X145054Y-81452D01*
D02*
G37*
G36*
X144250Y-76492D02*
X143750D01*
X143440Y-75823D01*
X144560D01*
X144250Y-76492D01*
D02*
G37*
G36*
X155328Y-75000D02*
X154437Y-75891D01*
X154167Y-75084D01*
X154521Y-74730D01*
X155328Y-75000D01*
D02*
G37*
G36*
X269134Y-88583D02*
X268494Y-89237D01*
X267875Y-88605D01*
X268250Y-87837D01*
X268750Y-87828D01*
X269134Y-88583D01*
D02*
G37*
G36*
X166170Y-80269D02*
Y-91632D01*
X165708Y-91824D01*
X161539Y-87655D01*
Y-83492D01*
X161926Y-83174D01*
X162000Y-83189D01*
X162741Y-83042D01*
X163370Y-82622D01*
X163790Y-81993D01*
X163937Y-81252D01*
X163790Y-80511D01*
X163370Y-79882D01*
X162741Y-79462D01*
X162000Y-79315D01*
X161259Y-79462D01*
X160840Y-79742D01*
X160280Y-79368D01*
X159500Y-79213D01*
X158720Y-79368D01*
X158058Y-79810D01*
X157990Y-79912D01*
X157511Y-79767D01*
Y-77720D01*
X157788Y-77443D01*
X158064Y-77030D01*
X158161Y-76542D01*
Y-75258D01*
X158064Y-74770D01*
X157788Y-74357D01*
X155768Y-72336D01*
X155959Y-71874D01*
X157774D01*
X166170Y-80269D01*
D02*
G37*
G36*
X143240Y-82002D02*
Y-82502D01*
X142571Y-82812D01*
Y-81692D01*
X143240Y-82002D01*
D02*
G37*
G36*
X142250Y-75492D02*
X141750D01*
X141440Y-74823D01*
X142560D01*
X142250Y-75492D01*
D02*
G37*
G36*
X165250Y-65992D02*
X164750D01*
X164440Y-65323D01*
X165560D01*
X165250Y-65992D01*
D02*
G37*
G36*
X266000Y-65605D02*
X265000D01*
X264940Y-65071D01*
X266060D01*
X266000Y-65605D01*
D02*
G37*
G36*
X317060Y-65429D02*
X315940D01*
X316250Y-64760D01*
X316750D01*
X317060Y-65429D01*
D02*
G37*
G36*
X171554Y-68452D02*
X171200Y-68805D01*
X170508Y-68552D01*
X171300Y-67760D01*
X171554Y-68452D01*
D02*
G37*
G36*
X161750Y-67992D02*
X161250D01*
X160940Y-67323D01*
X162060D01*
X161750Y-67992D01*
D02*
G37*
G36*
X163250Y-66492D02*
X162750D01*
X162440Y-65823D01*
X163560D01*
X163250Y-66492D01*
D02*
G37*
G36*
X263135Y-88824D02*
X262800Y-89244D01*
X262008Y-88452D01*
X262427Y-88117D01*
X263135Y-88824D01*
D02*
G37*
G36*
X256992Y-130800D02*
X256348Y-131076D01*
X255924Y-130652D01*
X256200Y-130008D01*
X256992Y-130800D01*
D02*
G37*
G36*
X8161Y-119150D02*
X8159Y-120048D01*
X6071Y-119822D01*
X6161Y-118857D01*
X8161Y-119150D01*
D02*
G37*
G36*
X248200Y-108750D02*
Y-109250D01*
X247700Y-109750D01*
X247200Y-109000D01*
X247700Y-108250D01*
X248200Y-108750D01*
D02*
G37*
G36*
X236554Y-140200D02*
X236200Y-140553D01*
X235508Y-140300D01*
X236300Y-139508D01*
X236554Y-140200D01*
D02*
G37*
G36*
X182053Y-139552D02*
X181800Y-140244D01*
X181008Y-139452D01*
X181700Y-139198D01*
X182053Y-139552D01*
D02*
G37*
G36*
X257492Y-137800D02*
X256848Y-138076D01*
X256424Y-137652D01*
X256700Y-137008D01*
X257492Y-137800D01*
D02*
G37*
G36*
X250357Y-109630D02*
X249595Y-109250D01*
Y-108750D01*
X250357Y-108370D01*
Y-109630D01*
D02*
G37*
G36*
X266957Y-91587D02*
X266265Y-91840D01*
X265912Y-91487D01*
X266165Y-90795D01*
X266957Y-91587D01*
D02*
G37*
G36*
X269134Y-89890D02*
X268750Y-90645D01*
X268250Y-90637D01*
X267875Y-89869D01*
X268494Y-89237D01*
X269134Y-89890D01*
D02*
G37*
G36*
X267525Y-90215D02*
X266405D01*
X266715Y-89547D01*
X267215D01*
X267525Y-90215D01*
D02*
G37*
G36*
X107313Y-101848D02*
X107037Y-102492D01*
X106245Y-101700D01*
X106889Y-101424D01*
X107313Y-101848D01*
D02*
G37*
G36*
X264021Y-96998D02*
X263814Y-97177D01*
X263460Y-96823D01*
X263639Y-96616D01*
X264021Y-96998D01*
D02*
G37*
G36*
X212722Y-93452D02*
Y-94052D01*
X212071Y-94312D01*
Y-93192D01*
X212722Y-93452D01*
D02*
G37*
G36*
X246697Y-167818D02*
X245577D01*
X245887Y-167149D01*
X246387D01*
X246697Y-167818D01*
D02*
G37*
G36*
X204560Y-167181D02*
X203440D01*
X203700Y-166530D01*
X204300D01*
X204560Y-167181D01*
D02*
G37*
G36*
X248697Y-167029D02*
X247577D01*
X247887Y-166360D01*
X248387D01*
X248697Y-167029D01*
D02*
G37*
G36*
X229097Y-168429D02*
X227977D01*
X228287Y-167760D01*
X228787D01*
X229097Y-168429D01*
D02*
G37*
G36*
X250560Y-168181D02*
X249440D01*
X249700Y-167530D01*
X250300D01*
X250560Y-168181D01*
D02*
G37*
G36*
X95866Y-168060D02*
X95215Y-167800D01*
Y-167200D01*
X95866Y-166940D01*
Y-168060D01*
D02*
G37*
G36*
X143377Y-165502D02*
Y-166002D01*
X142708Y-166312D01*
Y-165192D01*
X143377Y-165502D01*
D02*
G37*
G36*
X200992Y-165552D02*
X200348Y-165828D01*
X199924Y-165404D01*
X200200Y-164760D01*
X200992Y-165552D01*
D02*
G37*
G36*
X250300Y-165722D02*
X249700D01*
X249440Y-165071D01*
X250560D01*
X250300Y-165722D01*
D02*
G37*
G36*
X103497Y-165429D02*
X102377D01*
X102687Y-164760D01*
X103187D01*
X103497Y-165429D01*
D02*
G37*
G36*
X222797Y-166129D02*
X221677D01*
X221987Y-165460D01*
X222487D01*
X222797Y-166129D01*
D02*
G37*
G36*
X226897Y-166029D02*
X225777D01*
X226087Y-165360D01*
X226587D01*
X226897Y-166029D01*
D02*
G37*
G36*
X105429Y-165200D02*
X104637Y-165992D01*
X104384Y-165300D01*
X104737Y-164946D01*
X105429Y-165200D01*
D02*
G37*
G36*
X224897Y-168829D02*
X223777D01*
X224087Y-168160D01*
X224587D01*
X224897Y-168829D01*
D02*
G37*
G36*
X14309Y-179917D02*
X11691D01*
X12600Y-178303D01*
X13400D01*
X14309Y-179917D01*
D02*
G37*
G36*
X19309D02*
X16691D01*
X17600Y-178303D01*
X18400D01*
X19309Y-179917D01*
D02*
G37*
G36*
X146321Y-179461D02*
X145896Y-179885D01*
X145253Y-179609D01*
X146045Y-178817D01*
X146321Y-179461D01*
D02*
G37*
G36*
X151080Y-183952D02*
X151202Y-184552D01*
X150602Y-184845D01*
X150395Y-183744D01*
X151080Y-183952D01*
D02*
G37*
G36*
X231076Y-183348D02*
X230800Y-183992D01*
X230008Y-183200D01*
X230652Y-182924D01*
X231076Y-183348D01*
D02*
G37*
G36*
X115412Y-181694D02*
X115530Y-183176D01*
X113073Y-182628D01*
X114810Y-181589D01*
X115412Y-181694D01*
D02*
G37*
G36*
X132492Y-179052D02*
X131800Y-179306D01*
X131447Y-178952D01*
X131700Y-178260D01*
X132492Y-179052D01*
D02*
G37*
G36*
X139060Y-177429D02*
X137940D01*
X138200Y-176778D01*
X138800D01*
X139060Y-177429D01*
D02*
G37*
G36*
X166425Y-174287D02*
X164128Y-176584D01*
X154732D01*
X154417Y-176112D01*
X153821Y-175714D01*
X153119Y-175574D01*
X152416Y-175714D01*
X151821Y-176112D01*
X151423Y-176707D01*
X151284Y-177409D01*
X151140Y-177584D01*
X148869D01*
X148749Y-177464D01*
X148594Y-177102D01*
X148515Y-176707D01*
X148117Y-176112D01*
X147522Y-175714D01*
X146820Y-175574D01*
X146117Y-175714D01*
X145522Y-176112D01*
X145124Y-176707D01*
X145064Y-177010D01*
X144542Y-177114D01*
X143947Y-177512D01*
X143549Y-178107D01*
X143489Y-178410D01*
X142967Y-178514D01*
X142372Y-178912D01*
X141974Y-179507D01*
X141834Y-180209D01*
X141974Y-180912D01*
X142372Y-181507D01*
X142967Y-181905D01*
X143670Y-182045D01*
X143715Y-182036D01*
X143862Y-182134D01*
X144370Y-182235D01*
X144800D01*
X145117Y-182621D01*
X145102Y-182700D01*
X145241Y-183402D01*
X145630Y-183984D01*
X145712Y-184397D01*
X146000Y-184827D01*
X147370Y-186198D01*
X147179Y-186660D01*
X136336D01*
X136114Y-186211D01*
X136507Y-185699D01*
X136796Y-185001D01*
X136895Y-184252D01*
X136796Y-183503D01*
X136706Y-183286D01*
X136725Y-183259D01*
X136826Y-182752D01*
Y-179576D01*
X137266Y-179341D01*
X137798Y-179696D01*
X138500Y-179835D01*
X139202Y-179696D01*
X139798Y-179298D01*
X140196Y-178702D01*
X140335Y-178000D01*
X140196Y-177298D01*
X139972Y-176963D01*
X139825Y-176597D01*
Y-175049D01*
X141049Y-173826D01*
X166234D01*
X166425Y-174287D01*
D02*
G37*
G36*
X44948Y-168900D02*
Y-169500D01*
X44674Y-169501D01*
Y-168899D01*
X44948Y-168900D01*
D02*
G37*
G36*
X147896Y-178061D02*
X147471Y-178485D01*
X146828Y-178209D01*
X147620Y-177418D01*
X147896Y-178061D01*
D02*
G37*
G36*
X154373Y-177609D02*
X154223Y-178209D01*
X153295Y-178190D01*
X153915Y-177329D01*
X154373Y-177609D01*
D02*
G37*
G36*
X232400Y-177350D02*
X231800Y-177950D01*
X231200D01*
X230600Y-177350D01*
X231500Y-176750D01*
X232400Y-177350D01*
D02*
G37*
G36*
X156797Y-162981D02*
X155677D01*
X155987Y-162312D01*
X156487D01*
X156797Y-162981D01*
D02*
G37*
G36*
X159997D02*
X158877D01*
X159187Y-162312D01*
X159687D01*
X159997Y-162981D01*
D02*
G37*
G36*
X163097D02*
X161977D01*
X162287Y-162312D01*
X162787D01*
X163097Y-162981D01*
D02*
G37*
G36*
X179929Y-163186D02*
X179260Y-162876D01*
Y-162376D01*
X179929Y-162066D01*
Y-163186D01*
D02*
G37*
G36*
X206560Y-163130D02*
X205440D01*
X205750Y-162461D01*
X206250D01*
X206560Y-163130D01*
D02*
G37*
G36*
X138060Y-162981D02*
X136940D01*
X137250Y-162312D01*
X137750D01*
X138060Y-162981D01*
D02*
G37*
G36*
X246387Y-162680D02*
X245887Y-162772D01*
X245546Y-162159D01*
X246650Y-161967D01*
X246387Y-162680D01*
D02*
G37*
G36*
X254576Y-160152D02*
X254152Y-160576D01*
X253508Y-160300D01*
X254300Y-159508D01*
X254576Y-160152D01*
D02*
G37*
G36*
X198291Y-159400D02*
X198037Y-160092D01*
X197245Y-159300D01*
X197937Y-159046D01*
X198291Y-159400D01*
D02*
G37*
G36*
X158642Y-108572D02*
X159401Y-108723D01*
X159428Y-108858D01*
X159914Y-109586D01*
X160157Y-109749D01*
X160060Y-110239D01*
X159731Y-110304D01*
X158904Y-110857D01*
X158352Y-111684D01*
X158158Y-112659D01*
X158352Y-113635D01*
X158904Y-114462D01*
X159432Y-114815D01*
X159530Y-115305D01*
X159253Y-115720D01*
X159098Y-116500D01*
X159253Y-117280D01*
X159695Y-117942D01*
X160357Y-118384D01*
X161137Y-118539D01*
X163000D01*
X163780Y-118384D01*
X164442Y-117942D01*
X165708Y-116676D01*
X166170Y-116868D01*
Y-150965D01*
X157973Y-159161D01*
X157511Y-158970D01*
Y-108348D01*
X157952Y-108112D01*
X158642Y-108572D01*
D02*
G37*
G36*
X97337Y-162046D02*
X97586Y-162707D01*
X96467Y-162655D01*
X96737Y-162016D01*
X97337Y-162046D01*
D02*
G37*
G36*
X253576Y-162152D02*
X253152Y-162576D01*
X252508Y-162300D01*
X253300Y-161508D01*
X253576Y-162152D01*
D02*
G37*
G36*
X179929Y-161060D02*
X179260Y-160750D01*
Y-160250D01*
X179929Y-159940D01*
Y-161060D01*
D02*
G37*
G36*
X141591Y-162852D02*
X141337Y-163544D01*
X140545Y-162752D01*
X141237Y-162498D01*
X141591Y-162852D01*
D02*
G37*
G36*
X125297Y-165181D02*
X124177D01*
X124487Y-164512D01*
X124987D01*
X125297Y-165181D01*
D02*
G37*
G36*
X158397D02*
X157277D01*
X157587Y-164512D01*
X158087D01*
X158397Y-165181D01*
D02*
G37*
G36*
X161597D02*
X160477D01*
X160787Y-164512D01*
X161287D01*
X161597Y-165181D01*
D02*
G37*
G36*
X179929Y-165312D02*
X179260Y-165002D01*
Y-164502D01*
X179929Y-164192D01*
Y-165312D01*
D02*
G37*
G36*
X139200Y-164516D02*
X139506Y-165190D01*
X138386Y-165172D01*
X138700Y-164508D01*
X139200Y-164516D01*
D02*
G37*
G36*
X122197Y-165181D02*
X121077D01*
X121387Y-164512D01*
X121887D01*
X122197Y-165181D01*
D02*
G37*
G36*
X164697D02*
X163577D01*
X163887Y-164512D01*
X164387D01*
X164697Y-165181D01*
D02*
G37*
G36*
X248387Y-164180D02*
X247887Y-164272D01*
X247546Y-163659D01*
X248650Y-163467D01*
X248387Y-164180D01*
D02*
G37*
G36*
X120560Y-163681D02*
X119440D01*
X119750Y-163012D01*
X120250D01*
X120560Y-163681D01*
D02*
G37*
G36*
X123797D02*
X122677D01*
X122987Y-163012D01*
X123487D01*
X123797Y-163681D01*
D02*
G37*
G36*
X167060Y-165181D02*
X165940D01*
X166250Y-164512D01*
X166750D01*
X167060Y-165181D01*
D02*
G37*
G36*
X133900Y-164725D02*
X133100D01*
X132940Y-164123D01*
X134060D01*
X133900Y-164725D01*
D02*
G37*
G36*
X135900D02*
X135100D01*
X134940Y-164123D01*
X136060D01*
X135900Y-164725D01*
D02*
G37*
G36*
X307245Y-34181D02*
X306125D01*
X306435Y-33512D01*
X306935D01*
X307245Y-34181D01*
D02*
G37*
G36*
X109811Y-44188D02*
Y-69572D01*
X109774Y-69758D01*
Y-71746D01*
X109811Y-71932D01*
Y-76451D01*
X106700Y-79563D01*
X106412Y-79993D01*
X106312Y-80500D01*
Y-100551D01*
X106292Y-100571D01*
X105930Y-100726D01*
X105535Y-100804D01*
X104939Y-101202D01*
X104542Y-101798D01*
X104457Y-102221D01*
X103979Y-102366D01*
X94011Y-92399D01*
Y-33047D01*
X94453Y-32811D01*
X95173Y-33293D01*
X96031Y-33464D01*
X96890Y-33293D01*
X97618Y-32807D01*
X97724Y-32647D01*
X98222Y-32598D01*
X109811Y-44188D01*
D02*
G37*
G36*
X179177Y-32150D02*
Y-32650D01*
X178508Y-32960D01*
Y-31840D01*
X179177Y-32150D01*
D02*
G37*
G36*
X178429Y-36312D02*
X177760Y-36002D01*
Y-35502D01*
X178429Y-35192D01*
Y-36312D01*
D02*
G37*
G36*
X306935Y-35992D02*
X306435D01*
X306125Y-35323D01*
X307245D01*
X306935Y-35992D01*
D02*
G37*
G36*
X168080Y-34452D02*
X167726Y-34806D01*
X167034Y-34552D01*
X167826Y-33760D01*
X168080Y-34452D01*
D02*
G37*
G36*
X172337Y-32180D02*
X171217D01*
X171527Y-31511D01*
X172027D01*
X172337Y-32180D01*
D02*
G37*
G36*
X182004Y-29912D02*
X181312Y-30166D01*
X180958Y-29812D01*
X181212Y-29120D01*
X182004Y-29912D01*
D02*
G37*
G36*
X233929Y-27312D02*
X233278Y-27052D01*
Y-26452D01*
X233929Y-26192D01*
Y-27312D01*
D02*
G37*
G36*
X306935Y-25677D02*
X306435D01*
X306125Y-25008D01*
X307245D01*
X306935Y-25677D01*
D02*
G37*
G36*
X193977Y-31250D02*
Y-31750D01*
X193308Y-32060D01*
Y-30940D01*
X193977Y-31250D01*
D02*
G37*
G36*
X142250Y-31992D02*
X141750D01*
X141440Y-31323D01*
X142560D01*
X142250Y-31992D01*
D02*
G37*
G36*
X200974Y-28505D02*
Y-32000D01*
Y-42548D01*
X200496Y-42693D01*
X200235Y-42302D01*
X199639Y-41904D01*
X198937Y-41765D01*
X198235Y-41904D01*
X197652Y-42294D01*
X197521Y-42223D01*
X197212Y-42016D01*
Y-32500D01*
X197115Y-32012D01*
X196838Y-31599D01*
X196199Y-30959D01*
X196202Y-30948D01*
X196798Y-30550D01*
Y-30550D01*
X197039Y-30446D01*
X197635Y-30844D01*
X198337Y-30983D01*
X199039Y-30844D01*
X199635Y-30446D01*
X200033Y-29850D01*
X200172Y-29148D01*
X200033Y-28446D01*
X199674Y-27909D01*
X200060Y-27591D01*
X200974Y-28505D01*
D02*
G37*
G36*
X309060Y-38181D02*
X307940D01*
X308250Y-37512D01*
X308750D01*
X309060Y-38181D01*
D02*
G37*
G36*
X177929Y-48812D02*
X177260Y-48502D01*
Y-48002D01*
X177929Y-47692D01*
Y-48812D01*
D02*
G37*
G36*
X199750Y-44648D02*
X199250Y-44816D01*
X198941Y-44400D01*
X199727Y-43724D01*
X199750Y-44648D01*
D02*
G37*
G36*
X140750Y-41992D02*
X140250D01*
X139940Y-41323D01*
X141060D01*
X140750Y-41992D01*
D02*
G37*
G36*
X178443Y-42711D02*
X178798Y-42948D01*
X179500Y-43087D01*
X180202Y-42948D01*
X180798Y-42550D01*
X181024Y-42527D01*
X181463Y-42966D01*
Y-49725D01*
X180228D01*
X179754Y-49591D01*
Y-49579D01*
X179798Y-49550D01*
X180196Y-48954D01*
X180335Y-48252D01*
X180196Y-47550D01*
X179798Y-46954D01*
X179202Y-46556D01*
X178500Y-46417D01*
X177798Y-46556D01*
X177444Y-46793D01*
X177046Y-46977D01*
X176817D01*
X172552Y-42713D01*
X172589Y-42527D01*
X178046D01*
X178443Y-42711D01*
D02*
G37*
G36*
X265492Y-48452D02*
X264700Y-49244D01*
X264424Y-48600D01*
X264848Y-48176D01*
X265492Y-48452D01*
D02*
G37*
G36*
X197937Y-48661D02*
X197437Y-48822D01*
X197123Y-48400D01*
X197925Y-47735D01*
X197937Y-48661D01*
D02*
G37*
G36*
X178929Y-41812D02*
X178260Y-41502D01*
Y-41002D01*
X178929Y-40692D01*
Y-41812D01*
D02*
G37*
G36*
X170687Y-39540D02*
X170187D01*
X169877Y-38871D01*
X170997D01*
X170687Y-39540D01*
D02*
G37*
G36*
X183060Y-39181D02*
X181940D01*
X182250Y-38512D01*
X182750D01*
X183060Y-39181D01*
D02*
G37*
G36*
X179025Y-38373D02*
X178709Y-38764D01*
X178025Y-38547D01*
X178734Y-37680D01*
X179025Y-38373D01*
D02*
G37*
G36*
X173258Y-41002D02*
X173096Y-41502D01*
X172170Y-41489D01*
X172837Y-40689D01*
X173258Y-41002D01*
D02*
G37*
G36*
X121991Y-40900D02*
X121184Y-41170D01*
X120830Y-40816D01*
X121100Y-40009D01*
X121991Y-40900D01*
D02*
G37*
G36*
X308750Y-39992D02*
X308250D01*
X307940Y-39323D01*
X309060D01*
X308750Y-39992D01*
D02*
G37*
G36*
X191849Y-8887D02*
X191798Y-9056D01*
X191444Y-9293D01*
X191046Y-9477D01*
X188500D01*
X188012Y-9574D01*
X187599Y-9851D01*
X185099Y-12351D01*
X184822Y-12764D01*
X184725Y-13252D01*
Y-39163D01*
X184228Y-39212D01*
X184196Y-39050D01*
X183959Y-38695D01*
X183774Y-38298D01*
Y-33752D01*
X183677Y-33264D01*
X183401Y-32851D01*
X182049Y-31499D01*
X181922Y-31413D01*
X181885Y-31041D01*
X182297Y-30891D01*
X182714Y-30808D01*
X183310Y-30410D01*
X183708Y-29814D01*
X183847Y-29112D01*
X183708Y-28410D01*
X183310Y-27814D01*
X182714Y-27416D01*
X182012Y-27277D01*
X181310Y-27416D01*
X180714Y-27814D01*
X180316Y-28410D01*
X180233Y-28828D01*
X180082Y-29239D01*
X179776Y-29546D01*
X172257D01*
X171769Y-29643D01*
X171401Y-29889D01*
X170939Y-29698D01*
X170855Y-29276D01*
X170302Y-28450D01*
X169475Y-27897D01*
X168500Y-27703D01*
X167525Y-27897D01*
X166698Y-28450D01*
X166145Y-29276D01*
X165951Y-30252D01*
X166145Y-31227D01*
X166467Y-31710D01*
X166324Y-32056D01*
X165729Y-32454D01*
X165331Y-33050D01*
X165191Y-33752D01*
X165331Y-34454D01*
X165729Y-35050D01*
X166324Y-35447D01*
X166742Y-35531D01*
X167153Y-35682D01*
X168125Y-36653D01*
X168539Y-36930D01*
X168670Y-36956D01*
X168862Y-37418D01*
X168742Y-37598D01*
X168602Y-38300D01*
X168742Y-39002D01*
X168978Y-39356D01*
X169162Y-39754D01*
Y-41231D01*
X168937Y-42365D01*
X168443Y-42463D01*
X168196Y-42298D01*
Y-42298D01*
X168196Y-42298D01*
X167798Y-41702D01*
X167202Y-41304D01*
X166500Y-41165D01*
X165798Y-41304D01*
X165202Y-41702D01*
X164804Y-42298D01*
X164665Y-43000D01*
X164804Y-43702D01*
X165202Y-44298D01*
X165798Y-44696D01*
X166500Y-44835D01*
X166994Y-44737D01*
X167242Y-44902D01*
Y-44902D01*
X167242Y-44902D01*
X167639Y-45498D01*
X168235Y-45895D01*
X168235Y-45896D01*
X168235D01*
X168318Y-46020D01*
X168302Y-46100D01*
X168441Y-46802D01*
X168839Y-47398D01*
X168848Y-47403D01*
X168641Y-47713D01*
X168502Y-48415D01*
X168641Y-49117D01*
X169039Y-49713D01*
X169635Y-50111D01*
X170337Y-50250D01*
X171039Y-50111D01*
X171635Y-49713D01*
X172033Y-49117D01*
X172172Y-48415D01*
X172033Y-47713D01*
X171635Y-47117D01*
X171626Y-47111D01*
X171833Y-46802D01*
X171929Y-46318D01*
X172407Y-46173D01*
X175388Y-49153D01*
X175801Y-49430D01*
X176289Y-49527D01*
X177046D01*
X177416Y-49698D01*
X177552Y-50180D01*
X177304Y-50550D01*
X177165Y-51252D01*
X177304Y-51954D01*
X177702Y-52550D01*
X178298Y-52947D01*
X179000Y-53087D01*
X179702Y-52947D01*
X180298Y-52550D01*
X180420Y-52367D01*
X180567Y-52275D01*
X182037D01*
X182525Y-52178D01*
X182938Y-51901D01*
X183638Y-51201D01*
X183914Y-50788D01*
X184011Y-50300D01*
Y-42438D01*
X183914Y-41951D01*
X183638Y-41537D01*
X183678Y-41129D01*
X183798Y-41050D01*
X184196Y-40454D01*
X184228Y-40292D01*
X184725Y-40341D01*
Y-61667D01*
X184339Y-61984D01*
X184000Y-61917D01*
X183298Y-62056D01*
X182702Y-62454D01*
X182304Y-63050D01*
X182165Y-63752D01*
X182304Y-64454D01*
X182702Y-65050D01*
X183298Y-65447D01*
X184000Y-65587D01*
X184339Y-65520D01*
X184725Y-65837D01*
Y-134724D01*
X182056Y-137393D01*
X181559Y-137345D01*
X181298Y-136954D01*
X180702Y-136556D01*
X180000Y-136417D01*
X179298Y-136556D01*
X178702Y-136954D01*
X178304Y-137550D01*
X178165Y-138252D01*
X178304Y-138954D01*
X178702Y-139550D01*
X179234Y-139905D01*
X179165Y-140252D01*
X179304Y-140954D01*
X179702Y-141550D01*
X180298Y-141947D01*
X180720Y-142032D01*
X180804Y-142454D01*
X181202Y-143050D01*
X181798Y-143447D01*
X182220Y-143532D01*
X182304Y-143954D01*
X182702Y-144550D01*
X183298Y-144948D01*
X184000Y-145087D01*
X184000Y-145087D01*
X184000Y-145087D01*
X184267Y-145266D01*
X184304Y-145454D01*
X184702Y-146050D01*
X185298Y-146448D01*
X185720Y-146532D01*
X185804Y-146954D01*
X186202Y-147550D01*
X186798Y-147948D01*
X186893Y-147967D01*
X186916Y-148001D01*
X186916Y-148001D01*
X186916D01*
X187056Y-148703D01*
X187454Y-149298D01*
X188049Y-149696D01*
X188603Y-149806D01*
X188795Y-150268D01*
X188642Y-150498D01*
X188502Y-151200D01*
X188642Y-151902D01*
X189039Y-152498D01*
X189635Y-152896D01*
X190337Y-153035D01*
X190337Y-153035D01*
X190337Y-153035D01*
X190373Y-153059D01*
X190442Y-153402D01*
X190839Y-153998D01*
X191435Y-154396D01*
X192137Y-154535D01*
X192244Y-154514D01*
X192341Y-155002D01*
X192739Y-155598D01*
X193335Y-155996D01*
X193528Y-156034D01*
X193641Y-156602D01*
X194039Y-157198D01*
X194635Y-157596D01*
X195161Y-157700D01*
X195241Y-158102D01*
X195639Y-158698D01*
X195895Y-158869D01*
X195542Y-159398D01*
X195402Y-160100D01*
X195542Y-160802D01*
X195939Y-161398D01*
X196535Y-161796D01*
X197237Y-161935D01*
X197939Y-161796D01*
X198535Y-161398D01*
X198933Y-160802D01*
X199016Y-160385D01*
X199167Y-159973D01*
X200213Y-158927D01*
X200675Y-159118D01*
Y-159988D01*
X194951Y-165711D01*
X190176D01*
X189955Y-165263D01*
X190044Y-165147D01*
X190333Y-164449D01*
X190432Y-163700D01*
X190333Y-162951D01*
X190044Y-162253D01*
X189584Y-161653D01*
X188984Y-161193D01*
X188286Y-160904D01*
X187537Y-160805D01*
X186788Y-160904D01*
X186090Y-161193D01*
X185490Y-161653D01*
X185030Y-162253D01*
X184741Y-162951D01*
X184642Y-163700D01*
X184741Y-164449D01*
X185030Y-165147D01*
X185119Y-165263D01*
X184898Y-165711D01*
X182538D01*
X182221Y-165325D01*
X182335Y-164752D01*
X182196Y-164050D01*
X181955Y-163689D01*
X182196Y-163328D01*
X182335Y-162626D01*
X182196Y-161924D01*
X181955Y-161563D01*
X182196Y-161202D01*
X182335Y-160500D01*
X182196Y-159798D01*
X181798Y-159202D01*
X181202Y-158804D01*
X180500Y-158665D01*
X179798Y-158804D01*
X179444Y-159041D01*
X179046Y-159225D01*
X177776D01*
X175911Y-157361D01*
Y-155780D01*
X175914Y-155777D01*
X176190Y-155363D01*
X176287Y-154876D01*
Y-72265D01*
X176190Y-71777D01*
X175914Y-71364D01*
X172430Y-67879D01*
X172279Y-67467D01*
X172196Y-67050D01*
X171798Y-66454D01*
X171202Y-66056D01*
X170500Y-65917D01*
X169798Y-66056D01*
X169500Y-66255D01*
X169202Y-66056D01*
X168500Y-65917D01*
X168161Y-65984D01*
X167774Y-65667D01*
Y-62752D01*
X167677Y-62264D01*
X167401Y-61851D01*
X165649Y-60099D01*
X165236Y-59822D01*
X165097Y-59795D01*
X165035Y-59702D01*
X164439Y-59304D01*
X163737Y-59165D01*
X163035Y-59304D01*
X162439Y-59702D01*
X162041Y-60298D01*
X161902Y-61000D01*
X162041Y-61702D01*
X162439Y-62298D01*
X163035Y-62696D01*
X163737Y-62835D01*
X163750Y-62833D01*
X163878Y-63142D01*
X163560Y-63528D01*
X163000Y-63417D01*
X162298Y-63556D01*
X161702Y-63954D01*
X161304Y-64550D01*
X161220Y-64972D01*
X160798Y-65056D01*
X160202Y-65454D01*
X159804Y-66050D01*
X159665Y-66752D01*
X159763Y-67244D01*
X159409Y-67597D01*
X159048Y-67526D01*
X150349D01*
X147675Y-64851D01*
Y-56459D01*
X148116Y-56224D01*
X148554Y-56517D01*
X149413Y-56688D01*
X150271Y-56517D01*
X150999Y-56031D01*
X151485Y-55303D01*
X151656Y-54444D01*
X151485Y-53586D01*
X150999Y-52858D01*
X150271Y-52372D01*
X149413Y-52201D01*
X148554Y-52372D01*
X148116Y-52665D01*
X147675Y-52430D01*
Y-48117D01*
X148116Y-47881D01*
X148335Y-48028D01*
X149194Y-48199D01*
X150052Y-48028D01*
X150780Y-47542D01*
X151266Y-46814D01*
X151437Y-45956D01*
X151266Y-45097D01*
X150780Y-44369D01*
X150052Y-43883D01*
X149194Y-43712D01*
X148335Y-43883D01*
X148116Y-44030D01*
X147675Y-43794D01*
Y-20880D01*
X148375Y-20179D01*
X148443Y-20211D01*
X148798Y-20448D01*
X149500Y-20587D01*
X150202Y-20448D01*
X150798Y-20050D01*
X151196Y-19454D01*
X151335Y-18752D01*
X151196Y-18050D01*
X150798Y-17454D01*
X150202Y-17056D01*
X149500Y-16917D01*
X148798Y-17056D01*
X148443Y-17293D01*
X148046Y-17478D01*
X148000D01*
X147512Y-17574D01*
X147215Y-17773D01*
X146774Y-17537D01*
Y-17280D01*
X153538Y-10516D01*
X153538Y-10516D01*
X153538Y-10516D01*
X153814Y-10103D01*
X153911Y-9615D01*
Y-7849D01*
X153930Y-7797D01*
X154406Y-7642D01*
X154935Y-7996D01*
X155637Y-8135D01*
X156339Y-7996D01*
X156935Y-7598D01*
X157333Y-7002D01*
X157472Y-6300D01*
X157596Y-6149D01*
X189111D01*
X191849Y-8887D01*
D02*
G37*
G36*
X141000Y-5100D02*
X138000Y-8100D01*
X135000D01*
X132000Y-5100D01*
X136500Y-2100D01*
X141000Y-5100D01*
D02*
G37*
G36*
X133951Y-8493D02*
Y-16684D01*
X133510Y-16920D01*
X133475Y-16897D01*
X132500Y-16703D01*
X131525Y-16897D01*
X130698Y-17450D01*
X130145Y-18277D01*
X129951Y-19252D01*
X130145Y-20227D01*
X130698Y-21054D01*
X131525Y-21607D01*
X132500Y-21801D01*
X133475Y-21607D01*
X133510Y-21584D01*
X133951Y-21820D01*
Y-25444D01*
X132944Y-26451D01*
X130500D01*
X129525Y-26645D01*
X128698Y-27198D01*
X128145Y-28025D01*
X127951Y-29000D01*
X128145Y-29976D01*
X128698Y-30802D01*
X129525Y-31355D01*
X130500Y-31549D01*
X134000D01*
X134976Y-31355D01*
X135802Y-30802D01*
X135802Y-30802D01*
X135802Y-30802D01*
X138302Y-28302D01*
X138855Y-27476D01*
X139049Y-26500D01*
X139049Y-26500D01*
X139049Y-26500D01*
Y-26500D01*
Y-23433D01*
X139527Y-23288D01*
X139702Y-23550D01*
X140298Y-23947D01*
X141000Y-24087D01*
X141702Y-23947D01*
X141785Y-23893D01*
X142226Y-24128D01*
Y-28732D01*
X142000Y-28917D01*
X141298Y-29056D01*
X140702Y-29454D01*
X140304Y-30050D01*
X140165Y-30752D01*
X140304Y-31454D01*
X140541Y-31809D01*
X140726Y-32206D01*
Y-38732D01*
X140500Y-38917D01*
X139798Y-39056D01*
X139202Y-39454D01*
X138804Y-40050D01*
X138665Y-40752D01*
X138804Y-41454D01*
X139041Y-41809D01*
X139225Y-42206D01*
Y-69252D01*
X139322Y-69740D01*
X139599Y-70153D01*
X141510Y-72065D01*
X141365Y-72543D01*
X141298Y-72556D01*
X140702Y-72954D01*
X140304Y-73550D01*
X140165Y-74252D01*
X140304Y-74954D01*
X140541Y-75309D01*
X140726Y-75706D01*
Y-76252D01*
X140726Y-76252D01*
X140726D01*
X140823Y-76740D01*
X141099Y-77153D01*
X142842Y-78896D01*
X142793Y-79394D01*
X142702Y-79454D01*
X142304Y-80050D01*
X142223Y-80461D01*
X142000Y-80417D01*
X141298Y-80556D01*
X140702Y-80954D01*
X140304Y-81550D01*
X140165Y-82252D01*
X140304Y-82954D01*
X140702Y-83550D01*
X141298Y-83947D01*
X142000Y-84087D01*
X142702Y-83947D01*
X143056Y-83711D01*
X143454Y-83526D01*
X143472D01*
X143862Y-83917D01*
Y-96200D01*
X143959Y-96688D01*
X144236Y-97101D01*
X146563Y-99428D01*
Y-138635D01*
X146176Y-138952D01*
X146000Y-138917D01*
X145298Y-139056D01*
X144702Y-139454D01*
X144304Y-140050D01*
X144165Y-140752D01*
X144304Y-141454D01*
X144702Y-142050D01*
X145298Y-142447D01*
X146000Y-142587D01*
X146176Y-142552D01*
X146563Y-142869D01*
Y-153224D01*
X143809Y-155977D01*
X126500D01*
X126012Y-156075D01*
X125599Y-156351D01*
X122336Y-159614D01*
X122060Y-160027D01*
X122000Y-160326D01*
X121522Y-160471D01*
X114312Y-153261D01*
Y-100323D01*
X114752Y-100087D01*
X115479Y-100572D01*
X116337Y-100743D01*
X117195Y-100572D01*
X117923Y-100086D01*
X118409Y-99358D01*
X118580Y-98500D01*
X118409Y-97642D01*
X117923Y-96914D01*
X117195Y-96428D01*
X116337Y-96257D01*
X115479Y-96428D01*
X114752Y-96913D01*
X114312Y-96677D01*
Y-87928D01*
X122538Y-79701D01*
X122815Y-79288D01*
X122912Y-78800D01*
Y-48143D01*
X127951Y-43103D01*
X128227Y-42690D01*
X128324Y-42202D01*
X128324Y-42202D01*
X128324Y-42202D01*
Y-42202D01*
Y-37000D01*
X128227Y-36512D01*
X127951Y-36099D01*
X126625Y-34772D01*
Y-7821D01*
X127025Y-7607D01*
X128000Y-7801D01*
X128975Y-7607D01*
X129802Y-7054D01*
X130708Y-6149D01*
X131607D01*
X133951Y-8493D01*
D02*
G37*
G36*
X64240Y-10002D02*
Y-10502D01*
X63571Y-10812D01*
Y-9692D01*
X64240Y-10002D01*
D02*
G37*
G36*
X148492Y-9700D02*
X147800Y-9954D01*
X147447Y-9600D01*
X147700Y-8908D01*
X148492Y-9700D01*
D02*
G37*
G36*
X150665Y-6500D02*
X150804Y-7202D01*
X151202Y-7798D01*
X151254Y-7832D01*
X151363Y-8027D01*
Y-9087D01*
X150643Y-9807D01*
X150202Y-9571D01*
X150335Y-8900D01*
X150196Y-8198D01*
X149798Y-7602D01*
X149202Y-7204D01*
X148500Y-7065D01*
X147798Y-7204D01*
X147202Y-7602D01*
X146804Y-8198D01*
X146721Y-8615D01*
X146571Y-9027D01*
X142599Y-12999D01*
X142323Y-13412D01*
X142226Y-13900D01*
Y-20376D01*
X141785Y-20611D01*
X141702Y-20556D01*
X141000Y-20417D01*
X140298Y-20556D01*
X139702Y-20954D01*
X139527Y-21216D01*
X139049Y-21071D01*
Y-8493D01*
X141393Y-6149D01*
X150377D01*
X150665Y-6500D01*
D02*
G37*
G36*
X152887Y-7680D02*
X152387Y-7772D01*
X152046Y-7159D01*
X153150Y-6967D01*
X152887Y-7680D01*
D02*
G37*
G36*
X309240Y-4250D02*
Y-4750D01*
X308571Y-5060D01*
Y-3940D01*
X309240Y-4250D01*
D02*
G37*
G36*
X323750Y-4992D02*
X323250D01*
X322940Y-4323D01*
X324060D01*
X323750Y-4992D01*
D02*
G37*
G36*
X37237Y-4389D02*
X36637D01*
X36307Y-3643D01*
X37567D01*
X37237Y-4389D01*
D02*
G37*
G36*
X319992Y-5952D02*
X319200Y-6744D01*
X318947Y-6052D01*
X319300Y-5698D01*
X319992Y-5952D01*
D02*
G37*
G36*
X322946Y-2027D02*
X322798Y-2056D01*
X322202Y-2454D01*
X321804Y-3050D01*
X321665Y-3752D01*
X321804Y-4454D01*
X322041Y-4809D01*
X322225Y-5206D01*
Y-6163D01*
X321728Y-6212D01*
X321696Y-6050D01*
X321298Y-5454D01*
X320702Y-5056D01*
X320285Y-4973D01*
X319873Y-4823D01*
X318649Y-3599D01*
X318236Y-3322D01*
X317748Y-3226D01*
X309454D01*
X309057Y-3041D01*
X308702Y-2804D01*
X308000Y-2665D01*
X307298Y-2804D01*
X306702Y-3202D01*
X306304Y-3798D01*
X306221Y-4216D01*
X306070Y-4627D01*
X303472Y-7226D01*
X217265D01*
X212031Y-1991D01*
X212222Y-1529D01*
X284698D01*
X284934Y-1970D01*
X284395Y-2777D01*
X284201Y-3752D01*
X284395Y-4727D01*
X284948Y-5554D01*
X285774Y-6107D01*
X286750Y-6301D01*
X287725Y-6107D01*
X288552Y-5554D01*
X289105Y-4727D01*
X289299Y-3752D01*
X289105Y-2777D01*
X288552Y-1950D01*
X288680Y-1529D01*
X322897D01*
X322946Y-2027D01*
D02*
G37*
G36*
X307992Y-5300D02*
X307300Y-5553D01*
X306946Y-5200D01*
X307200Y-4508D01*
X307992Y-5300D01*
D02*
G37*
G36*
X191929Y-11312D02*
X191260Y-11002D01*
Y-10502D01*
X191929Y-10192D01*
Y-11312D01*
D02*
G37*
G36*
Y-20660D02*
X191260Y-20350D01*
Y-19850D01*
X191929Y-19540D01*
Y-20660D01*
D02*
G37*
G36*
X148929Y-19312D02*
X148260Y-19002D01*
Y-18502D01*
X148929Y-18192D01*
Y-19312D01*
D02*
G37*
G36*
X-563Y-1529D02*
X28104D01*
X28340Y-1970D01*
X28147Y-2259D01*
X28000Y-3000D01*
X28147Y-3741D01*
X28567Y-4370D01*
X29196Y-4790D01*
X29937Y-4937D01*
X30678Y-4790D01*
X31307Y-4370D01*
X31534Y-4030D01*
X32024Y-3933D01*
X32259Y-4090D01*
X33000Y-4237D01*
X33741Y-4090D01*
X34370Y-3670D01*
X34595Y-3333D01*
X35085Y-3430D01*
X35147Y-3741D01*
X35409Y-4133D01*
X35612Y-4591D01*
Y-7437D01*
X35712Y-7944D01*
X36000Y-8374D01*
X36000Y-8374D01*
X36000Y-8374D01*
X39563Y-11937D01*
X39993Y-12225D01*
X40500Y-12325D01*
X54500D01*
X55007Y-12225D01*
X55437Y-11937D01*
X55437Y-11937D01*
X55437Y-11937D01*
X57549Y-9826D01*
X60856D01*
X61173Y-10212D01*
X61165Y-10252D01*
X61304Y-10954D01*
X61503Y-11252D01*
X61304Y-11550D01*
X61165Y-12252D01*
X61304Y-12954D01*
X61702Y-13550D01*
X62298Y-13948D01*
X62327Y-13953D01*
X62278Y-14451D01*
X40937D01*
X39961Y-14645D01*
X39135Y-15198D01*
X38582Y-16025D01*
X38388Y-17000D01*
X38582Y-17975D01*
X39135Y-18802D01*
X39961Y-19355D01*
X40937Y-19549D01*
X69444D01*
X81198Y-31302D01*
X82025Y-31855D01*
X83000Y-32049D01*
X89500D01*
X90176Y-31914D01*
X90562Y-32232D01*
Y-93300D01*
X90562Y-93300D01*
X90562D01*
X90659Y-93788D01*
X90936Y-94201D01*
X101663Y-104928D01*
Y-142654D01*
X101276Y-142972D01*
X101000Y-142917D01*
X100298Y-143056D01*
X99702Y-143454D01*
X99304Y-144050D01*
X99165Y-144752D01*
X99304Y-145454D01*
X99702Y-146050D01*
X100298Y-146448D01*
X101000Y-146587D01*
X101276Y-146532D01*
X101663Y-146850D01*
Y-164546D01*
X101478Y-164943D01*
X101241Y-165298D01*
X101102Y-166000D01*
X101241Y-166702D01*
X101639Y-167298D01*
X102235Y-167696D01*
X102937Y-167835D01*
X103639Y-167696D01*
X104187Y-167330D01*
X104735Y-167696D01*
X105437Y-167835D01*
X106139Y-167696D01*
X106735Y-167298D01*
X107133Y-166702D01*
X107272Y-166000D01*
X107133Y-165298D01*
X106735Y-164702D01*
X106139Y-164304D01*
X105721Y-164221D01*
X105310Y-164070D01*
X105112Y-163872D01*
Y-144527D01*
X105590Y-144382D01*
X105702Y-144550D01*
X106298Y-144948D01*
X107000Y-145087D01*
X107702Y-144948D01*
X108298Y-144550D01*
X108696Y-143954D01*
X108835Y-143252D01*
X108696Y-142550D01*
X108298Y-141954D01*
Y-141550D01*
X108696Y-140954D01*
X108835Y-140252D01*
X108696Y-139550D01*
X108298Y-138954D01*
X107702Y-138556D01*
X107000Y-138417D01*
X106298Y-138556D01*
X105702Y-138954D01*
X105590Y-139122D01*
X105112Y-138977D01*
Y-125275D01*
X105590Y-125130D01*
X105702Y-125298D01*
X106298Y-125696D01*
X107000Y-125835D01*
X107702Y-125696D01*
X108298Y-125298D01*
X108696Y-124702D01*
X108835Y-124000D01*
X108696Y-123298D01*
X108298Y-122702D01*
X107702Y-122304D01*
X107000Y-122165D01*
X106298Y-122304D01*
X105702Y-122702D01*
X105590Y-122870D01*
X105112Y-122725D01*
Y-104829D01*
X105535Y-104196D01*
X106237Y-104335D01*
X106939Y-104196D01*
X107535Y-103798D01*
X107933Y-103202D01*
X108011Y-102807D01*
X108167Y-102445D01*
X108574Y-102037D01*
X108862Y-101607D01*
X108963Y-101100D01*
Y-81049D01*
X112074Y-77937D01*
X112362Y-77507D01*
X112462Y-77000D01*
X112462Y-77000D01*
X112462Y-77000D01*
Y-77000D01*
Y-71783D01*
X112425Y-71597D01*
Y-69907D01*
X112462Y-69721D01*
Y-43639D01*
X112362Y-43132D01*
X112074Y-42702D01*
X89131Y-19759D01*
X89180Y-19261D01*
X89198Y-19250D01*
X89596Y-18654D01*
X89735Y-17952D01*
X89596Y-17250D01*
X89198Y-16654D01*
X88602Y-16256D01*
X87900Y-16117D01*
X87198Y-16256D01*
X86602Y-16654D01*
X86591Y-16672D01*
X86093Y-16721D01*
X76935Y-7563D01*
X76505Y-7275D01*
X75998Y-7175D01*
X57000D01*
X56493Y-7275D01*
X56063Y-7563D01*
X54132Y-9493D01*
X53633Y-9469D01*
X53484Y-9288D01*
X53641Y-8500D01*
X53478Y-7681D01*
X53014Y-6986D01*
X52319Y-6522D01*
X51500Y-6359D01*
X50681Y-6522D01*
X50250Y-6810D01*
X49819Y-6522D01*
X49000Y-6359D01*
X48181Y-6522D01*
X47750Y-6810D01*
X47319Y-6522D01*
X46500Y-6359D01*
X45681Y-6522D01*
X44986Y-6986D01*
X44522Y-7681D01*
X44359Y-8500D01*
X44516Y-9288D01*
X44198Y-9674D01*
X41049D01*
X38263Y-6888D01*
Y-4591D01*
X38465Y-4133D01*
X38727Y-3741D01*
X38874Y-3000D01*
X38727Y-2259D01*
X38307Y-1630D01*
X38337Y-1529D01*
X98114D01*
X98350Y-1970D01*
X98145Y-2276D01*
X97951Y-3252D01*
X98145Y-4227D01*
X98698Y-5054D01*
X99524Y-5607D01*
X100500Y-5801D01*
X101476Y-5607D01*
X102302Y-5054D01*
X102855Y-4227D01*
X103049Y-3252D01*
X102855Y-2276D01*
X102650Y-1970D01*
X102886Y-1529D01*
X125015D01*
X125206Y-1991D01*
X124449Y-2749D01*
X124172Y-3162D01*
X124075Y-3650D01*
Y-35300D01*
X124172Y-35788D01*
X124449Y-36201D01*
X125776Y-37528D01*
Y-41674D01*
X121573Y-45876D01*
X121112Y-45685D01*
Y-42691D01*
X121745Y-42057D01*
X122257Y-41886D01*
X122741Y-41790D01*
X123370Y-41370D01*
X123790Y-40741D01*
X123937Y-40000D01*
X123790Y-39259D01*
X123370Y-38630D01*
X122741Y-38210D01*
X122000Y-38063D01*
X121259Y-38210D01*
X120630Y-38630D01*
X120210Y-39259D01*
X120114Y-39743D01*
X119943Y-40255D01*
X118936Y-41262D01*
X118659Y-41675D01*
X118562Y-42163D01*
Y-76887D01*
X110336Y-85114D01*
X110059Y-85527D01*
X109962Y-86015D01*
Y-153737D01*
X110059Y-154225D01*
X110336Y-154638D01*
X117782Y-162084D01*
X117546Y-162525D01*
X117000Y-162417D01*
X116298Y-162556D01*
X115702Y-162954D01*
X115304Y-163550D01*
X115165Y-164252D01*
X115304Y-164954D01*
X115702Y-165550D01*
X116298Y-165947D01*
X116720Y-166032D01*
X116804Y-166454D01*
X117202Y-167050D01*
X117798Y-167447D01*
X118500Y-167587D01*
X119202Y-167447D01*
X119798Y-167050D01*
X119818Y-167019D01*
X120318D01*
X120339Y-167050D01*
X120935Y-167447D01*
X121637Y-167587D01*
X122339Y-167447D01*
X122935Y-167050D01*
X122937Y-167046D01*
X123437D01*
X123439Y-167050D01*
X124035Y-167447D01*
X124737Y-167587D01*
X125439Y-167447D01*
X126035Y-167050D01*
X126433Y-166454D01*
X126572Y-165752D01*
X126433Y-165050D01*
X126196Y-164696D01*
X126012Y-164298D01*
Y-161543D01*
X127528Y-160027D01*
X136285D01*
X136521Y-160467D01*
X136322Y-160764D01*
X136225Y-161252D01*
Y-161467D01*
X135839Y-161784D01*
X135500Y-161717D01*
X134798Y-161856D01*
X134500Y-162055D01*
X134202Y-161856D01*
X133500Y-161717D01*
X132798Y-161856D01*
X132202Y-162254D01*
X131804Y-162850D01*
X131711Y-162888D01*
X130975Y-162397D01*
X130000Y-162203D01*
X129025Y-162397D01*
X128198Y-162950D01*
X127645Y-163777D01*
X127451Y-164752D01*
X127645Y-165727D01*
X128198Y-166554D01*
X129025Y-167107D01*
X130000Y-167301D01*
X130975Y-167107D01*
X131632Y-166668D01*
X132073Y-166904D01*
Y-168161D01*
X130661Y-169573D01*
X97436D01*
X97291Y-169094D01*
X97735Y-168798D01*
X98133Y-168202D01*
X98272Y-167500D01*
X98133Y-166798D01*
X97735Y-166202D01*
X97139Y-165804D01*
X96437Y-165665D01*
X95735Y-165804D01*
X95400Y-166028D01*
X95034Y-166174D01*
X91737D01*
X91230Y-166275D01*
X90800Y-166563D01*
X88936Y-168427D01*
X63049D01*
X62299Y-167677D01*
X62500Y-167301D01*
X63476Y-167107D01*
X64302Y-166554D01*
X64855Y-165727D01*
X65049Y-164752D01*
X64855Y-163777D01*
X64302Y-162950D01*
X63476Y-162397D01*
X62500Y-162203D01*
X61524Y-162397D01*
X60698Y-162950D01*
X60145Y-163777D01*
X59959Y-164713D01*
X59480Y-164858D01*
X51610Y-156987D01*
X51801Y-156526D01*
X93788D01*
X95711Y-158449D01*
Y-161824D01*
X95578Y-162141D01*
X95304Y-162550D01*
X95165Y-163252D01*
X95304Y-163954D01*
X95702Y-164550D01*
X96298Y-164947D01*
X97000Y-165087D01*
X97702Y-164947D01*
X98298Y-164550D01*
X98696Y-163954D01*
X98835Y-163252D01*
X98696Y-162550D01*
X98513Y-162277D01*
X98362Y-161876D01*
Y-157900D01*
X98362Y-157900D01*
X98362Y-157900D01*
Y-157900D01*
X98362D01*
X98362Y-157900D01*
X98262Y-157393D01*
X97974Y-156963D01*
X96957Y-155946D01*
X97102Y-155467D01*
X97202Y-155447D01*
X97798Y-155050D01*
X98196Y-154454D01*
X98335Y-153752D01*
X98196Y-153050D01*
X97798Y-152454D01*
X97202Y-152056D01*
X96500Y-151917D01*
X95798Y-152056D01*
X95364Y-152346D01*
X95065Y-152474D01*
X83086D01*
X82768Y-152088D01*
X82835Y-151752D01*
X82696Y-151050D01*
X82298Y-150454D01*
X81702Y-150056D01*
X81000Y-149917D01*
X80298Y-150056D01*
X79702Y-150454D01*
X79333Y-151007D01*
X78833D01*
X78798Y-150954D01*
X78202Y-150556D01*
X77500Y-150417D01*
X76798Y-150556D01*
X76202Y-150954D01*
X75804Y-151550D01*
X75665Y-152252D01*
X75482Y-152474D01*
X57097D01*
X53325Y-148703D01*
Y-146343D01*
X53528Y-145885D01*
X53790Y-145493D01*
X53937Y-144752D01*
X53790Y-144011D01*
X53370Y-143382D01*
X52741Y-142962D01*
X52000Y-142815D01*
X51259Y-142962D01*
X50630Y-143382D01*
X50210Y-144011D01*
X50063Y-144752D01*
X50210Y-145493D01*
X50472Y-145885D01*
X50674Y-146343D01*
Y-149252D01*
X50775Y-149759D01*
X51063Y-150189D01*
X51063Y-150189D01*
X51063Y-150189D01*
X54286Y-153413D01*
X54095Y-153875D01*
X36549D01*
X34326Y-151651D01*
Y-146343D01*
X34528Y-145885D01*
X34790Y-145493D01*
X34937Y-144752D01*
X34790Y-144011D01*
X34370Y-143382D01*
X33741Y-142962D01*
X33000Y-142815D01*
X32259Y-142962D01*
X31630Y-143382D01*
X31210Y-144011D01*
X31063Y-144752D01*
X31210Y-145493D01*
X31472Y-145885D01*
X31675Y-146343D01*
Y-152200D01*
X31775Y-152707D01*
X32063Y-153137D01*
X32063Y-153137D01*
X32063Y-153137D01*
Y-153137D01*
X35063Y-156137D01*
D01*
X35063D01*
X35063Y-156137D01*
X35063Y-156137D01*
X35063D01*
D01*
X35063D01*
X35063Y-156137D01*
Y-156137D01*
X35063Y-156137D01*
Y-156137D01*
X35493Y-156425D01*
X36000Y-156526D01*
X42162D01*
X42479Y-156912D01*
X42402Y-157300D01*
X42541Y-158002D01*
X42796Y-158384D01*
X42560Y-158825D01*
X25500D01*
X25500Y-158825D01*
X24954Y-158933D01*
X24491Y-159243D01*
X21037Y-162696D01*
X20596Y-162460D01*
X20756Y-161659D01*
X20562Y-160684D01*
X20009Y-159857D01*
X19182Y-159304D01*
X18207Y-159110D01*
X17231Y-159304D01*
X16404Y-159857D01*
X15852Y-160684D01*
X15658Y-161659D01*
X15852Y-162635D01*
X16404Y-163462D01*
X17231Y-164014D01*
X18207Y-164208D01*
X19007Y-164049D01*
X19243Y-164490D01*
X11991Y-171743D01*
X11681Y-172206D01*
X11573Y-172752D01*
X11573Y-172752D01*
Y-178050D01*
X10835Y-179359D01*
X10750Y-179470D01*
X10250D01*
X10047Y-179205D01*
X9447Y-178745D01*
X8749Y-178456D01*
X8000Y-178357D01*
X7251Y-178456D01*
X6553Y-178745D01*
X5953Y-179205D01*
X5493Y-179805D01*
X5204Y-180503D01*
X5105Y-181252D01*
X5204Y-182001D01*
X5493Y-182699D01*
X5953Y-183299D01*
X6553Y-183759D01*
X7251Y-184048D01*
X8000Y-184147D01*
X8749Y-184048D01*
X9447Y-183759D01*
X10047Y-183299D01*
X10250Y-183034D01*
X10750D01*
X10953Y-183299D01*
X11553Y-183759D01*
X12251Y-184048D01*
X13000Y-184147D01*
X13749Y-184048D01*
X14447Y-183759D01*
X15047Y-183299D01*
X15250Y-183034D01*
X15750D01*
X15953Y-183299D01*
X16553Y-183759D01*
X17251Y-184048D01*
X18000Y-184147D01*
X18749Y-184048D01*
X19447Y-183759D01*
X20047Y-183299D01*
X20507Y-182699D01*
X20796Y-182001D01*
X20895Y-181252D01*
X20796Y-180503D01*
X20507Y-179805D01*
X20166Y-179360D01*
X19427Y-178050D01*
Y-171343D01*
X27643Y-163127D01*
X49857D01*
X51501Y-164771D01*
X51340Y-165245D01*
X50548Y-165349D01*
X49586Y-165747D01*
X48760Y-166381D01*
X48127Y-167207D01*
X47728Y-168168D01*
X47593Y-169200D01*
X47608Y-169316D01*
X47159Y-169537D01*
X45885Y-168263D01*
X45529Y-168024D01*
X45190Y-167207D01*
X44556Y-166381D01*
X43730Y-165747D01*
X42769Y-165349D01*
X41737Y-165213D01*
X40705Y-165349D01*
X39744Y-165747D01*
X38918Y-166381D01*
X38284Y-167207D01*
X37886Y-168168D01*
X37750Y-169200D01*
X37886Y-170232D01*
X38284Y-171193D01*
X38918Y-172019D01*
X39744Y-172653D01*
X40705Y-173051D01*
X41737Y-173187D01*
X42769Y-173051D01*
X43730Y-172653D01*
X44556Y-172019D01*
X44906Y-171564D01*
X45404Y-171531D01*
X48111Y-174237D01*
X48541Y-174525D01*
X49048Y-174626D01*
X132508D01*
X133015Y-174525D01*
X133445Y-174237D01*
X133445Y-174237D01*
X133445Y-174237D01*
X133713Y-173969D01*
X134175Y-174161D01*
Y-176676D01*
X133734Y-176911D01*
X133202Y-176556D01*
X132500Y-176417D01*
X131798Y-176556D01*
X131202Y-176954D01*
X130804Y-177550D01*
X130721Y-177968D01*
X130570Y-178379D01*
X130230Y-178719D01*
X129789Y-178484D01*
X129835Y-178252D01*
X129696Y-177550D01*
X129298Y-176954D01*
X128702Y-176556D01*
X128000Y-176417D01*
X127298Y-176556D01*
X126702Y-176954D01*
X126304Y-177550D01*
X126165Y-178252D01*
X126232Y-178591D01*
X125915Y-178978D01*
X116500D01*
X116012Y-179075D01*
X115599Y-179351D01*
X114161Y-180789D01*
X112586Y-181731D01*
X112553Y-181745D01*
X111953Y-182205D01*
X111750Y-182470D01*
X111250D01*
X111047Y-182205D01*
X110447Y-181745D01*
X109749Y-181456D01*
X109000Y-181357D01*
X108251Y-181456D01*
X107553Y-181745D01*
X106953Y-182205D01*
X106493Y-182805D01*
X106204Y-183503D01*
X106105Y-184252D01*
X106204Y-185001D01*
X106493Y-185699D01*
X106886Y-186211D01*
X106665Y-186660D01*
X49428D01*
X49271Y-186365D01*
X49568Y-185963D01*
X50000Y-186049D01*
X50976Y-185855D01*
X51802Y-185302D01*
X52355Y-184476D01*
X52549Y-183500D01*
X52421Y-182858D01*
X52775Y-182504D01*
X53000Y-182549D01*
X53975Y-182355D01*
X54802Y-181802D01*
X55355Y-180975D01*
X55549Y-180000D01*
X55355Y-179025D01*
X54802Y-178198D01*
X53975Y-177645D01*
X53000Y-177451D01*
X52025Y-177645D01*
X51500Y-177996D01*
X50976Y-177645D01*
X50000Y-177451D01*
X49025Y-177645D01*
X48198Y-178198D01*
X47645Y-179025D01*
X47635Y-179077D01*
X47000Y-178951D01*
X46025Y-179145D01*
X45198Y-179698D01*
X44645Y-180525D01*
X44451Y-181500D01*
X44645Y-182475D01*
X45163Y-183250D01*
X44645Y-184025D01*
X44451Y-185000D01*
X44645Y-185976D01*
X44807Y-186219D01*
X44572Y-186660D01*
X-563D01*
X-629Y-186673D01*
X-1494Y-186501D01*
X-2284Y-185973D01*
X-2812Y-185183D01*
X-2984Y-184318D01*
X-2971Y-184252D01*
Y-80315D01*
X-2975Y-80292D01*
X-2852Y-79995D01*
X-2554Y-79871D01*
X-2531Y-79876D01*
X2587D01*
Y-79893D01*
X4006Y-79707D01*
X4761Y-79394D01*
X5147Y-79711D01*
X5122Y-79839D01*
Y-119019D01*
X5090Y-119358D01*
X4645Y-120025D01*
X4451Y-121000D01*
X4645Y-121976D01*
X5198Y-122802D01*
X6024Y-123355D01*
X7000Y-123549D01*
X7975Y-123355D01*
X8802Y-122802D01*
X9355Y-121976D01*
X9549Y-121000D01*
X9355Y-120025D01*
X9200Y-119793D01*
Y-82769D01*
X9587Y-82452D01*
X9959Y-82526D01*
X10661Y-82386D01*
X11257Y-81988D01*
X11654Y-81393D01*
X11794Y-80690D01*
X11654Y-79988D01*
X11257Y-79393D01*
X11125Y-79305D01*
X11076Y-78807D01*
X11442Y-78442D01*
X11442Y-78442D01*
X11884Y-77780D01*
X12039Y-77000D01*
X12039Y-77000D01*
Y-76638D01*
X12426Y-76320D01*
X12500Y-76335D01*
X13202Y-76196D01*
X13798Y-75798D01*
X14196Y-75202D01*
X14335Y-74500D01*
X14207Y-73855D01*
X14757Y-73488D01*
X15154Y-72893D01*
X15294Y-72190D01*
X15154Y-71488D01*
X14757Y-70893D01*
X14161Y-70495D01*
X13459Y-70355D01*
X12756Y-70495D01*
X12480Y-70680D01*
X12039Y-70444D01*
Y-29345D01*
X22845Y-18539D01*
X26326D01*
X26571Y-18552D01*
X27024Y-18855D01*
X28000Y-19049D01*
X28975Y-18855D01*
X29802Y-18302D01*
X30355Y-17476D01*
X30549Y-16500D01*
X30355Y-15525D01*
X29802Y-14698D01*
X28975Y-14145D01*
X28000Y-13951D01*
X27024Y-14145D01*
X26571Y-14448D01*
X26326Y-14461D01*
X22000D01*
X21220Y-14616D01*
X20558Y-15058D01*
X8558Y-27058D01*
X8116Y-27720D01*
X7961Y-28500D01*
Y-48273D01*
X7470Y-48370D01*
X7336Y-48045D01*
X6464Y-46910D01*
X5329Y-46038D01*
X4006Y-45490D01*
X2587Y-45303D01*
Y-45321D01*
X2587Y-45321D01*
X-2531D01*
X-2554Y-45325D01*
X-2852Y-45202D01*
X-2975Y-44905D01*
X-2971Y-44882D01*
Y-3937D01*
X-2984Y-3871D01*
X-2812Y-3006D01*
X-2284Y-2216D01*
X-1494Y-1688D01*
X-629Y-1516D01*
X-563Y-1529D01*
D02*
G37*
G36*
X308750Y-23492D02*
X308250D01*
X307940Y-22823D01*
X309060D01*
X308750Y-23492D01*
D02*
G37*
G36*
X192492Y-23052D02*
X191800Y-23305D01*
X191446Y-22952D01*
X191700Y-22260D01*
X192492Y-23052D01*
D02*
G37*
G36*
X247800Y-20974D02*
X247200D01*
X246940Y-20323D01*
X248060D01*
X247800Y-20974D01*
D02*
G37*
G36*
X191929Y-18660D02*
X191260Y-18350D01*
Y-17850D01*
X191929Y-17540D01*
Y-18660D01*
D02*
G37*
G36*
Y-13312D02*
X191260Y-13002D01*
Y-12502D01*
X191929Y-12192D01*
Y-13312D01*
D02*
G37*
G36*
X64240Y-12002D02*
Y-12502D01*
X63571Y-12812D01*
Y-11692D01*
X64240Y-12002D01*
D02*
G37*
G36*
X148492Y-12052D02*
X147800Y-12306D01*
X147447Y-11952D01*
X147700Y-11260D01*
X148492Y-12052D01*
D02*
G37*
G36*
X26929Y-17550D02*
X25982Y-17500D01*
Y-15500D01*
X26929Y-15450D01*
Y-17550D01*
D02*
G37*
G36*
X191929Y-16660D02*
X191260Y-16350D01*
Y-15850D01*
X191929Y-15540D01*
Y-16660D01*
D02*
G37*
G36*
X338951Y-1688D02*
X339741Y-2216D01*
X340268Y-3006D01*
X340440Y-3871D01*
X340427Y-3937D01*
Y-74410D01*
X340440Y-74475D01*
X340268Y-75341D01*
X339741Y-76130D01*
X338951Y-76658D01*
X338085Y-76830D01*
X338020Y-76817D01*
X331720D01*
Y-76799D01*
X330301Y-76986D01*
X328978Y-77534D01*
X327843Y-78406D01*
X326971Y-79541D01*
X326423Y-80864D01*
X326237Y-82284D01*
X326254D01*
Y-105905D01*
X326237D01*
X326423Y-107325D01*
X326971Y-108648D01*
X327843Y-109783D01*
X328978Y-110655D01*
X330301Y-111203D01*
X331720Y-111389D01*
Y-111372D01*
X338020D01*
X338085Y-111359D01*
X338951Y-111531D01*
X339741Y-112059D01*
X340268Y-112848D01*
X340440Y-113714D01*
X340427Y-113779D01*
Y-121560D01*
X328723D01*
X328618Y-121665D01*
X328514Y-153126D01*
X340427D01*
Y-172835D01*
X340432Y-172857D01*
X340308Y-173155D01*
X340011Y-173278D01*
X339988Y-173274D01*
D01*
X324240D01*
Y-173273D01*
X323335Y-173392D01*
X322491Y-173742D01*
X321766Y-174298D01*
X321210Y-175022D01*
X320861Y-175866D01*
X320742Y-176772D01*
X320742D01*
X320742Y-176772D01*
Y-182677D01*
X320747Y-182700D01*
X320623Y-182998D01*
X320326Y-183121D01*
X320303Y-183116D01*
X253374D01*
Y-183116D01*
X252469Y-183235D01*
X251625Y-183584D01*
X250900Y-184140D01*
X250344Y-184865D01*
X249995Y-185709D01*
X249876Y-186614D01*
D01*
Y-186614D01*
X249831Y-186660D01*
X166120D01*
X165929Y-186198D01*
X172173Y-179953D01*
X172671Y-180002D01*
X172702Y-180050D01*
X173298Y-180447D01*
X174000Y-180587D01*
X174702Y-180447D01*
X175298Y-180050D01*
X175696Y-179454D01*
X175835Y-178752D01*
X176144Y-178375D01*
X230174D01*
Y-181951D01*
X230055Y-182071D01*
X229693Y-182226D01*
X229298Y-182304D01*
X228702Y-182702D01*
X228304Y-183298D01*
X228165Y-184000D01*
X228304Y-184702D01*
X228702Y-185298D01*
X229298Y-185696D01*
X230000Y-185835D01*
X230702Y-185696D01*
X231298Y-185298D01*
X231696Y-184702D01*
X231774Y-184307D01*
X231929Y-183945D01*
X232437Y-183437D01*
X232725Y-183007D01*
X232825Y-182500D01*
Y-178375D01*
X252309D01*
X252816Y-178275D01*
X253246Y-177987D01*
X260437Y-170796D01*
X260725Y-170366D01*
X260825Y-169859D01*
Y-153500D01*
X260825Y-153500D01*
X260825Y-153500D01*
Y-153500D01*
X260825D01*
X260825Y-153500D01*
X260725Y-152993D01*
X260437Y-152563D01*
X258825Y-150951D01*
Y-141903D01*
X258972Y-141537D01*
X259196Y-141202D01*
X259335Y-140500D01*
X259196Y-139798D01*
X258798Y-139202D01*
X258202Y-138804D01*
X258798Y-138298D01*
D01*
D01*
X258798Y-138298D01*
X258798Y-138298D01*
X258798Y-138298D01*
X258798Y-138298D01*
D01*
X259196Y-137702D01*
X259335Y-137000D01*
X259196Y-136298D01*
X258798Y-135702D01*
X258202Y-135304D01*
X257710Y-135206D01*
X257702Y-135196D01*
X258298Y-134798D01*
Y-134798D01*
X258298Y-134798D01*
X258298Y-134798D01*
X258696Y-134202D01*
X258835Y-133500D01*
X258696Y-132798D01*
X258298Y-132202D01*
X257702Y-131804D01*
X258298Y-131298D01*
D01*
D01*
X258298Y-131298D01*
X258298Y-131298D01*
X258298Y-131298D01*
X258298Y-131298D01*
D01*
X258696Y-130702D01*
X258835Y-130000D01*
X258696Y-129298D01*
X258298Y-128702D01*
X257702Y-128304D01*
X257000Y-128165D01*
X256987Y-128140D01*
X257049Y-128077D01*
X257702Y-127947D01*
X258298Y-127550D01*
X258696Y-126954D01*
X258835Y-126252D01*
X258696Y-125550D01*
X258298Y-124954D01*
X257702Y-124556D01*
X257000Y-124417D01*
X256298Y-124556D01*
X255702Y-124954D01*
X255304Y-125550D01*
X255174Y-126203D01*
X252063Y-129315D01*
X251775Y-129745D01*
X251675Y-130252D01*
Y-144021D01*
X251500Y-144165D01*
X250798Y-144304D01*
X250202Y-144702D01*
X249804Y-145298D01*
X249665Y-146000D01*
X249804Y-146702D01*
X250028Y-147037D01*
X250174Y-147403D01*
Y-151500D01*
X250275Y-152007D01*
X250563Y-152437D01*
X250563Y-152437D01*
X250563Y-152437D01*
X254174Y-156049D01*
Y-157405D01*
X253788Y-157722D01*
X253500Y-157665D01*
X252798Y-157804D01*
X252202Y-158202D01*
X251804Y-158798D01*
X251665Y-159500D01*
X251734Y-159847D01*
X251202Y-160202D01*
X250804Y-160798D01*
X250665Y-161500D01*
X250804Y-162202D01*
X250921Y-162377D01*
X250643Y-162793D01*
X250000Y-162665D01*
X249777Y-162709D01*
X249696Y-162298D01*
X249298Y-161702D01*
X248702Y-161304D01*
X248000Y-161165D01*
X248000Y-161165D01*
X248000Y-161165D01*
X247733Y-160986D01*
X247696Y-160798D01*
X247298Y-160202D01*
X246702Y-159804D01*
X246000Y-159665D01*
X245298Y-159804D01*
X244702Y-160202D01*
X244304Y-160798D01*
X244165Y-161500D01*
X244304Y-162202D01*
X244702Y-162798D01*
X244754Y-162832D01*
X244863Y-163028D01*
Y-166935D01*
X244678Y-167332D01*
X244441Y-167687D01*
X244302Y-168389D01*
X244441Y-169091D01*
X244570Y-169284D01*
X244334Y-169725D01*
X242536D01*
X242219Y-169338D01*
X242335Y-168752D01*
X242196Y-168050D01*
X241798Y-167454D01*
X241202Y-167056D01*
X240500Y-166917D01*
X240411Y-166784D01*
X240638Y-166444D01*
X240832Y-165469D01*
X240638Y-164493D01*
X240086Y-163666D01*
X239259Y-163114D01*
X238283Y-162919D01*
X237308Y-163114D01*
X236481Y-163666D01*
X235929Y-164493D01*
X235735Y-165469D01*
X235929Y-166444D01*
X236481Y-167271D01*
X237308Y-167824D01*
X238283Y-168017D01*
X238391Y-167996D01*
X238745Y-168350D01*
X238665Y-168752D01*
X238781Y-169338D01*
X238464Y-169725D01*
X234135D01*
X233818Y-169338D01*
X233835Y-169252D01*
X233696Y-168550D01*
X233298Y-167954D01*
X232702Y-167556D01*
X232000Y-167417D01*
X231298Y-167556D01*
X230702Y-167954D01*
X230603Y-168103D01*
X230103D01*
X229996Y-167944D01*
X229812Y-167546D01*
Y-157154D01*
X229996Y-156757D01*
X230233Y-156402D01*
X230372Y-155700D01*
X230233Y-154998D01*
X229835Y-154402D01*
X229239Y-154004D01*
X228537Y-153865D01*
X228333Y-153905D01*
X228053Y-153776D01*
X227885Y-153524D01*
X228033Y-153302D01*
X228172Y-152600D01*
X228033Y-151898D01*
X227635Y-151302D01*
X227039Y-150904D01*
X226337Y-150765D01*
X226172Y-150798D01*
X226033Y-150098D01*
X225635Y-149502D01*
X225039Y-149104D01*
X224337Y-148965D01*
X224233Y-148985D01*
X224196Y-148798D01*
X223798Y-148202D01*
X223202Y-147804D01*
X222839Y-147732D01*
X222825Y-147722D01*
X222337Y-147626D01*
X221849Y-147722D01*
X221436Y-147999D01*
X221336Y-148099D01*
X221319Y-148125D01*
X221202Y-148202D01*
X220804Y-148798D01*
X220665Y-149500D01*
X220804Y-150202D01*
X220833Y-150245D01*
X220963Y-150714D01*
Y-161115D01*
X220576Y-161432D01*
X220500Y-161417D01*
X219798Y-161556D01*
X219202Y-161954D01*
X218804Y-162550D01*
X218665Y-163252D01*
X218804Y-163954D01*
X219202Y-164550D01*
X219798Y-164947D01*
X220500Y-165087D01*
X220549Y-165077D01*
X220858Y-165470D01*
X220778Y-165643D01*
X220541Y-165998D01*
X220402Y-166700D01*
X220541Y-167402D01*
X220939Y-167998D01*
X221535Y-168396D01*
X222237Y-168535D01*
X222250Y-168533D01*
X222604Y-168886D01*
X222502Y-169400D01*
X222235Y-169725D01*
X205149D01*
X205004Y-169246D01*
X205298Y-169050D01*
X205696Y-168454D01*
X205835Y-167752D01*
X205696Y-167050D01*
X205472Y-166715D01*
X205326Y-166349D01*
Y-165796D01*
X205712Y-165479D01*
X206000Y-165537D01*
X206702Y-165397D01*
X207298Y-164999D01*
X207696Y-164404D01*
X207835Y-163701D01*
X207696Y-162999D01*
X207459Y-162645D01*
X207275Y-162247D01*
Y-160881D01*
X226651Y-141504D01*
X232074D01*
X232562Y-141407D01*
X232975Y-141131D01*
X233566Y-140541D01*
X234063Y-140590D01*
X234202Y-140798D01*
X234798Y-141196D01*
X235215Y-141279D01*
X235627Y-141429D01*
X235725Y-141528D01*
Y-157046D01*
X235541Y-157443D01*
X235304Y-157798D01*
X235165Y-158500D01*
X235304Y-159202D01*
X235702Y-159798D01*
X236298Y-160196D01*
X237000Y-160335D01*
X237702Y-160196D01*
X238298Y-159798D01*
X238696Y-159202D01*
X238835Y-158500D01*
X238696Y-157798D01*
X238459Y-157443D01*
X238275Y-157046D01*
Y-141000D01*
X238177Y-140512D01*
X237901Y-140099D01*
X237429Y-139627D01*
X237279Y-139216D01*
X237196Y-138798D01*
X236798Y-138202D01*
X236590Y-138063D01*
X236541Y-137566D01*
X244019Y-130087D01*
X244497Y-130233D01*
X244645Y-130975D01*
X245163Y-131750D01*
X244645Y-132525D01*
X244451Y-133500D01*
X244645Y-134476D01*
X245198Y-135302D01*
X246024Y-135855D01*
X247000Y-136049D01*
X247975Y-135855D01*
X248802Y-135302D01*
X249355Y-134476D01*
X249549Y-133500D01*
X249355Y-132525D01*
X248837Y-131750D01*
X249355Y-130975D01*
X249549Y-130000D01*
X249355Y-129025D01*
X248802Y-128198D01*
X247975Y-127645D01*
X247000Y-127451D01*
X246880Y-127226D01*
X248351Y-125755D01*
X248627Y-125342D01*
X248725Y-124854D01*
X248725Y-124854D01*
X248725Y-124854D01*
Y-124854D01*
Y-110275D01*
X249365D01*
X249848Y-110515D01*
X250259Y-110790D01*
X251000Y-110937D01*
X251741Y-110790D01*
X252370Y-110370D01*
X252790Y-109741D01*
X252937Y-109000D01*
X252790Y-108259D01*
X252370Y-107630D01*
X251741Y-107210D01*
X251000Y-107063D01*
X250259Y-107210D01*
X249848Y-107485D01*
X249365Y-107726D01*
X248725D01*
Y-106780D01*
X257230Y-98274D01*
X263637D01*
X263790Y-98244D01*
X264143Y-98598D01*
X264081Y-98912D01*
X263928Y-99142D01*
X263757Y-100000D01*
X263928Y-100858D01*
X264414Y-101586D01*
X265142Y-102072D01*
X266000Y-102243D01*
X266858Y-102072D01*
X267586Y-101586D01*
X268072Y-100858D01*
X268243Y-100000D01*
X268072Y-99142D01*
X267586Y-98414D01*
X266858Y-97928D01*
X266000Y-97757D01*
X265927Y-97390D01*
X266227Y-96941D01*
X266374Y-96200D01*
X266598Y-95927D01*
X268564D01*
X269072Y-95827D01*
X269501Y-95539D01*
X272437Y-92603D01*
X272725Y-92173D01*
X272826Y-91666D01*
Y-66144D01*
X276892Y-62077D01*
X283597D01*
X283963Y-62224D01*
X284298Y-62448D01*
X285000Y-62587D01*
X285702Y-62448D01*
X286298Y-62050D01*
X286696Y-61454D01*
X286835Y-60752D01*
X286778Y-60464D01*
X287095Y-60077D01*
X289097D01*
X289463Y-60224D01*
X289798Y-60448D01*
X290500Y-60587D01*
X291202Y-60448D01*
X291798Y-60050D01*
X292196Y-59454D01*
X292335Y-58752D01*
X292317Y-58661D01*
X292634Y-58275D01*
X305752D01*
X306240Y-58178D01*
X306653Y-57901D01*
X309401Y-55153D01*
X309678Y-54740D01*
X309774Y-54252D01*
Y-40206D01*
X309959Y-39808D01*
X310196Y-39454D01*
X310335Y-38752D01*
X310196Y-38050D01*
X309959Y-37695D01*
X309774Y-37298D01*
Y-23706D01*
X309959Y-23309D01*
X310196Y-22954D01*
X310335Y-22252D01*
X310196Y-21550D01*
X309798Y-20954D01*
X309202Y-20556D01*
X308500Y-20417D01*
X307798Y-20556D01*
X307202Y-20954D01*
X306804Y-21550D01*
X306665Y-22252D01*
X306665Y-22252D01*
X306665Y-22252D01*
X306685Y-22602D01*
X305983Y-22741D01*
X305387Y-23139D01*
X304990Y-23735D01*
X304850Y-24437D01*
X304990Y-25139D01*
X305226Y-25493D01*
X305411Y-25891D01*
Y-33298D01*
X305226Y-33695D01*
X304990Y-34050D01*
X304850Y-34752D01*
X304990Y-35454D01*
X305226Y-35809D01*
X305411Y-36206D01*
Y-44010D01*
X304932Y-44155D01*
X304798Y-43954D01*
X304202Y-43556D01*
X303500Y-43417D01*
X302798Y-43556D01*
X302202Y-43954D01*
X301804Y-44550D01*
X301665Y-45252D01*
X301804Y-45954D01*
X302202Y-46550D01*
X302798Y-46948D01*
X303500Y-47087D01*
X304202Y-46948D01*
X304798Y-46550D01*
X304932Y-46349D01*
X305411Y-46494D01*
Y-53287D01*
X303972Y-54725D01*
X282416D01*
X282371Y-54264D01*
D01*
X282367Y-54228D01*
X282975Y-54107D01*
X283802Y-53554D01*
X284355Y-52727D01*
X284549Y-51752D01*
X284355Y-50776D01*
X283802Y-49950D01*
X282975Y-49397D01*
X282000Y-49203D01*
X281025Y-49397D01*
X280198Y-49950D01*
X279645Y-50776D01*
X279451Y-51752D01*
X279645Y-52727D01*
X280198Y-53554D01*
X281025Y-54107D01*
X281633Y-54228D01*
X281584Y-54725D01*
X278015D01*
X277780Y-54285D01*
X277913Y-54085D01*
X277972Y-53789D01*
X278196Y-53454D01*
X278335Y-52752D01*
X278196Y-52050D01*
X277798Y-51454D01*
X277202Y-51056D01*
X276500Y-50917D01*
X275798Y-51056D01*
X275202Y-51454D01*
X274804Y-52050D01*
X274665Y-52752D01*
X274734Y-53103D01*
X265178Y-62659D01*
X265061Y-62752D01*
X264798Y-62804D01*
X264202Y-63202D01*
X263804Y-63798D01*
X263665Y-64500D01*
X263804Y-65202D01*
X263954Y-65426D01*
X263971Y-65575D01*
Y-85119D01*
X261678Y-87411D01*
X261561Y-87504D01*
X261298Y-87556D01*
X260702Y-87954D01*
X260304Y-88550D01*
X260165Y-89252D01*
X260304Y-89954D01*
X260358Y-90035D01*
X260122Y-90475D01*
X256578D01*
X256090Y-90573D01*
X255677Y-90849D01*
X242599Y-103927D01*
X242322Y-104340D01*
X242226Y-104828D01*
Y-122902D01*
X229972Y-135155D01*
X224322D01*
X223834Y-135252D01*
X223421Y-135529D01*
X209724Y-149225D01*
X206954D01*
X206557Y-149041D01*
X206202Y-148804D01*
X205500Y-148665D01*
X204798Y-148804D01*
X204202Y-149202D01*
X203804Y-149798D01*
X203804D01*
X203326Y-149653D01*
Y-148507D01*
X235437Y-116396D01*
X235437Y-116396D01*
X235437Y-116396D01*
X235725Y-115966D01*
X235825Y-115458D01*
Y-53979D01*
X236000Y-53835D01*
X236702Y-53696D01*
X236750Y-53664D01*
X236798Y-53696D01*
X237500Y-53835D01*
X238202Y-53696D01*
X238250Y-53664D01*
X238298Y-53696D01*
X239000Y-53835D01*
X239702Y-53696D01*
X240298Y-53298D01*
X240299Y-53295D01*
X240500Y-53335D01*
X241202Y-53196D01*
X241798Y-52798D01*
X242196Y-52202D01*
X242335Y-51500D01*
X242196Y-50798D01*
X241798Y-50202D01*
X241202Y-49804D01*
X240500Y-49665D01*
X239798Y-49804D01*
X239681Y-49883D01*
X239265Y-49605D01*
X239335Y-49252D01*
X239478Y-49077D01*
X263451D01*
X263571Y-49197D01*
X263726Y-49559D01*
X263804Y-49954D01*
X264202Y-50550D01*
X264798Y-50947D01*
X265500Y-51087D01*
X266202Y-50947D01*
X266798Y-50550D01*
X267196Y-49954D01*
X267335Y-49252D01*
X267196Y-48550D01*
X266798Y-47954D01*
X266798Y-47649D01*
X267031Y-47494D01*
X268233Y-46291D01*
X276500D01*
X277280Y-46136D01*
X277942Y-45694D01*
X278384Y-45032D01*
X278539Y-44252D01*
X278438Y-43745D01*
X278792Y-43391D01*
X278914Y-43416D01*
X279616Y-43276D01*
X280212Y-42878D01*
X280610Y-42283D01*
D01*
Y-42283D01*
X280610D01*
D01*
Y-42283D01*
X280978Y-42148D01*
X281298Y-42362D01*
X282000Y-42501D01*
X282702Y-42362D01*
X283298Y-41964D01*
X283696Y-41368D01*
X283835Y-40666D01*
X283696Y-39964D01*
X283298Y-39369D01*
X282702Y-38971D01*
X282000Y-38831D01*
X281298Y-38971D01*
X280702Y-39369D01*
X280304Y-39964D01*
D01*
Y-39964D01*
X280304D01*
D01*
Y-39964D01*
X279936Y-40098D01*
X279616Y-39885D01*
X278914Y-39745D01*
X278212Y-39885D01*
X277617Y-40283D01*
X277219Y-40878D01*
X277079Y-41580D01*
X277146Y-41917D01*
X276792Y-42271D01*
X276500Y-42213D01*
X270706D01*
X270389Y-41826D01*
X270421Y-41666D01*
X270281Y-40964D01*
X269883Y-40369D01*
X269288Y-39971D01*
X269215Y-39605D01*
X269298Y-39550D01*
X269696Y-38954D01*
X269835Y-38252D01*
X269696Y-37550D01*
X269298Y-36954D01*
X268959Y-36728D01*
X268978Y-36629D01*
X269607Y-36209D01*
X270027Y-35581D01*
X270174Y-34839D01*
X270027Y-34098D01*
X269607Y-33470D01*
X268978Y-33050D01*
X268237Y-32902D01*
X267496Y-33050D01*
X267192Y-33253D01*
X266978Y-33110D01*
X266237Y-32963D01*
X265496Y-33110D01*
X264867Y-33530D01*
X264447Y-34159D01*
X264300Y-34900D01*
X264447Y-35641D01*
X264516Y-35745D01*
X264202Y-35954D01*
X263804Y-36550D01*
X263665Y-37252D01*
X263804Y-37954D01*
X264202Y-38550D01*
X264798Y-38947D01*
X265274Y-39042D01*
X265465Y-39504D01*
X265304Y-39745D01*
X265165Y-40447D01*
X265304Y-41150D01*
X265702Y-41745D01*
X266247Y-42109D01*
Y-42609D01*
X265947Y-42810D01*
X265947Y-42810D01*
X264744Y-44013D01*
X242145D01*
X241539Y-43407D01*
Y-33752D01*
X241384Y-32972D01*
X240942Y-32310D01*
X238942Y-30310D01*
X238280Y-29868D01*
X237500Y-29713D01*
X234000D01*
X233220Y-29868D01*
X232558Y-30310D01*
X232116Y-30972D01*
X231961Y-31752D01*
X232116Y-32532D01*
X232558Y-33194D01*
X232830Y-33375D01*
X232927Y-33866D01*
X232804Y-34050D01*
X232665Y-34752D01*
X232695Y-34905D01*
X232319Y-35157D01*
X231922Y-35752D01*
X231782Y-36454D01*
X231922Y-37157D01*
X232319Y-37752D01*
X232499Y-37872D01*
X232597Y-38363D01*
X232568Y-38407D01*
X232405Y-39226D01*
X232488Y-39644D01*
X232319Y-39757D01*
X231922Y-40352D01*
X231782Y-41054D01*
X231922Y-41757D01*
X232319Y-42352D01*
X232915Y-42750D01*
X233617Y-42890D01*
X234319Y-42750D01*
X234915Y-42352D01*
X235313Y-41757D01*
X235431Y-41160D01*
X236060Y-40740D01*
X236524Y-40045D01*
X236687Y-39226D01*
X236524Y-38407D01*
X236333Y-38120D01*
X236430Y-37630D01*
X236461Y-37609D01*
X236859Y-37014D01*
X236963Y-36488D01*
X237461Y-36538D01*
Y-44252D01*
X237461Y-44252D01*
X237461D01*
X237616Y-45032D01*
X238058Y-45694D01*
X238329Y-45965D01*
X238137Y-46426D01*
X236979D01*
X236835Y-46252D01*
X236696Y-45550D01*
X236298Y-44954D01*
X235702Y-44556D01*
X235000Y-44417D01*
X234298Y-44556D01*
X233702Y-44954D01*
X233304Y-45550D01*
X233165Y-46252D01*
X233304Y-46954D01*
X233702Y-47550D01*
X233750Y-47581D01*
X233799Y-48079D01*
X232563Y-49315D01*
X232437Y-49504D01*
X232000Y-49417D01*
X231298Y-49556D01*
X230702Y-49954D01*
X230304Y-50550D01*
X230304D01*
X229825Y-50405D01*
Y-30301D01*
X232049Y-28077D01*
X233097D01*
X233463Y-28224D01*
X233798Y-28447D01*
X234500Y-28587D01*
X235202Y-28447D01*
X235798Y-28050D01*
X236196Y-27454D01*
X236335Y-26752D01*
X236196Y-26050D01*
X235798Y-25454D01*
X235912Y-25077D01*
X245000D01*
X245507Y-24976D01*
X245937Y-24689D01*
X248437Y-22189D01*
X248725Y-21759D01*
X248786Y-21452D01*
X248798Y-21448D01*
X249500Y-21587D01*
X249701Y-21547D01*
X249702Y-21550D01*
X250298Y-21948D01*
X251000Y-22087D01*
X251702Y-21948D01*
X252298Y-21550D01*
X252696Y-20954D01*
X252835Y-20252D01*
X252696Y-19550D01*
X252298Y-18954D01*
X251702Y-18556D01*
X251000Y-18417D01*
X250799Y-18457D01*
X250798Y-18454D01*
X250202Y-18056D01*
X249500Y-17917D01*
X248798Y-18056D01*
X248500Y-18255D01*
X248202Y-18056D01*
X247500Y-17917D01*
X246798Y-18056D01*
X246202Y-18454D01*
X246142Y-18544D01*
X245500Y-18417D01*
X244798Y-18556D01*
X244750Y-18588D01*
X244702Y-18556D01*
X244000Y-18417D01*
X243298Y-18556D01*
X242702Y-18954D01*
X242304Y-19550D01*
X242165Y-20252D01*
X242304Y-20954D01*
X242702Y-21550D01*
X243298Y-21948D01*
X243298Y-21948D01*
D01*
X243153Y-22426D01*
X232500D01*
X231993Y-22527D01*
X231563Y-22815D01*
X226563Y-27815D01*
X226275Y-28245D01*
X226174Y-28752D01*
Y-52703D01*
X223063Y-55815D01*
X222775Y-56245D01*
X222674Y-56752D01*
Y-90703D01*
X220951Y-92427D01*
X212903D01*
X212537Y-92280D01*
X212202Y-92056D01*
X211500Y-91917D01*
X210798Y-92056D01*
X210202Y-92454D01*
X209804Y-93050D01*
X209665Y-93752D01*
X209804Y-94454D01*
X210202Y-95050D01*
X210798Y-95447D01*
X211500Y-95587D01*
X212202Y-95447D01*
X212537Y-95224D01*
X212903Y-95077D01*
X220647D01*
X220838Y-95539D01*
X216063Y-100315D01*
X215775Y-100745D01*
X215674Y-101252D01*
Y-110115D01*
X215775Y-110622D01*
X215811Y-110676D01*
Y-128655D01*
X206297Y-138266D01*
X205136Y-139427D01*
X203903D01*
X203537Y-139280D01*
X203202Y-139056D01*
X202500Y-138917D01*
X202325Y-138773D01*
Y-124190D01*
X202227Y-123703D01*
X201951Y-123289D01*
X201174Y-122512D01*
X201127Y-122481D01*
X200775Y-122128D01*
Y-58586D01*
X201265Y-58488D01*
X201379Y-58765D01*
X201860Y-59392D01*
X202487Y-59873D01*
X203217Y-60175D01*
X204000Y-60278D01*
X204783Y-60175D01*
X205513Y-59873D01*
X206140Y-59392D01*
X206621Y-58765D01*
X206923Y-58035D01*
X207026Y-57252D01*
Y-46501D01*
X207412Y-46184D01*
X208000Y-46301D01*
X208976Y-46107D01*
X209802Y-45554D01*
X210250Y-44884D01*
X210750D01*
X211198Y-45554D01*
X212024Y-46107D01*
X213000Y-46301D01*
X213976Y-46107D01*
X214802Y-45554D01*
X215355Y-44727D01*
X215549Y-43752D01*
X215355Y-42777D01*
X214802Y-41950D01*
X213976Y-41397D01*
X213000Y-41203D01*
X212024Y-41397D01*
X211198Y-41950D01*
X210750Y-42619D01*
X210250D01*
X209802Y-41950D01*
X208976Y-41397D01*
X208000Y-41203D01*
X207412Y-41320D01*
X207026Y-41003D01*
Y-34801D01*
X209000D01*
X209976Y-34607D01*
X210802Y-34054D01*
X211355Y-33227D01*
X211549Y-32252D01*
X211355Y-31277D01*
X210802Y-30450D01*
X209976Y-29897D01*
X209000Y-29703D01*
X207026D01*
Y-27252D01*
X206923Y-26469D01*
X206621Y-25739D01*
X206140Y-25112D01*
X199626Y-18599D01*
Y-17521D01*
X200012Y-17204D01*
X200500Y-17301D01*
X201476Y-17107D01*
X202302Y-16554D01*
X202855Y-15727D01*
X203049Y-14752D01*
X202855Y-13777D01*
X202302Y-12950D01*
X201476Y-12397D01*
X200500Y-12203D01*
X200012Y-12300D01*
X199626Y-11983D01*
Y-8700D01*
X199523Y-7917D01*
X199221Y-7187D01*
X198740Y-6560D01*
X195366Y-3186D01*
X195557Y-2725D01*
X209159D01*
X215836Y-9401D01*
X215836D01*
X215836Y-9401D01*
X215836Y-9401D01*
Y-9401D01*
X216249Y-9678D01*
X216737Y-9775D01*
X235480D01*
X235665Y-10000D01*
X235804Y-10702D01*
X236170Y-11250D01*
X235804Y-11798D01*
X235665Y-12500D01*
X235804Y-13202D01*
X236065Y-13592D01*
X235787Y-14008D01*
X235500Y-13951D01*
X234524Y-14145D01*
X233698Y-14698D01*
X233145Y-15525D01*
X232951Y-16500D01*
X233145Y-17476D01*
X233698Y-18302D01*
X234524Y-18855D01*
X235500Y-19049D01*
X236475Y-18855D01*
X237302Y-18302D01*
X237855Y-17476D01*
X238049Y-16500D01*
X237855Y-15525D01*
X237362Y-14787D01*
X237553Y-14325D01*
X238202Y-14196D01*
X238798Y-13798D01*
X239196Y-13202D01*
X239335Y-12500D01*
X239196Y-11798D01*
X238830Y-11250D01*
X239196Y-10702D01*
X239335Y-10000D01*
X239520Y-9775D01*
X301968D01*
X302285Y-10161D01*
X302165Y-10768D01*
X302304Y-11470D01*
X302702Y-12065D01*
X303298Y-12463D01*
X304000Y-12603D01*
X304702Y-12463D01*
X305298Y-12065D01*
X305696Y-11470D01*
X305835Y-10768D01*
X305696Y-10065D01*
X305298Y-9470D01*
X305256Y-9046D01*
X307873Y-6430D01*
X308284Y-6279D01*
X308702Y-6196D01*
X309056Y-5959D01*
X309454Y-5774D01*
X311792D01*
X312028Y-6216D01*
X311804Y-6550D01*
X311665Y-7252D01*
X311804Y-7954D01*
X312202Y-8550D01*
X312798Y-8947D01*
X313500Y-9087D01*
X314202Y-8947D01*
X314798Y-8550D01*
X315196Y-7954D01*
X315335Y-7252D01*
X315196Y-6550D01*
X314798Y-5954D01*
X314852Y-5774D01*
X317220D01*
X318071Y-6625D01*
X318221Y-7036D01*
X318304Y-7454D01*
X318702Y-8050D01*
X319298Y-8448D01*
X320000Y-8587D01*
X320541Y-8479D01*
X320777Y-8920D01*
X315599Y-14099D01*
X315322Y-14512D01*
X315226Y-15000D01*
Y-64546D01*
X315041Y-64943D01*
X314804Y-65298D01*
X314665Y-66000D01*
X314804Y-66702D01*
X315202Y-67298D01*
X315798Y-67696D01*
X316500Y-67835D01*
X317202Y-67696D01*
X317798Y-67298D01*
X318196Y-66702D01*
X318335Y-66000D01*
X318196Y-65298D01*
X317959Y-64943D01*
X317775Y-64546D01*
Y-32355D01*
X318215Y-32119D01*
X318894Y-32572D01*
X319752Y-32743D01*
X320610Y-32572D01*
X321338Y-32086D01*
X321824Y-31358D01*
X321995Y-30500D01*
X321824Y-29642D01*
X321338Y-28914D01*
X320610Y-28428D01*
X319752Y-28257D01*
X318894Y-28428D01*
X318215Y-28881D01*
X317775Y-28645D01*
Y-15528D01*
X320721Y-12581D01*
X321162Y-12817D01*
X320983Y-13721D01*
X321177Y-14696D01*
X321729Y-15523D01*
X322556Y-16075D01*
X323532Y-16270D01*
X324507Y-16075D01*
X325334Y-15523D01*
X325887Y-14696D01*
X326080Y-13721D01*
X325887Y-12745D01*
X325334Y-11918D01*
X324507Y-11366D01*
X323532Y-11171D01*
X322628Y-11351D01*
X322392Y-10910D01*
X324401Y-8901D01*
X324677Y-8488D01*
X324775Y-8000D01*
X324775Y-8000D01*
X324775Y-8000D01*
Y-8000D01*
Y-5206D01*
X324959Y-4809D01*
X325196Y-4454D01*
X325335Y-3752D01*
X325196Y-3050D01*
X324798Y-2454D01*
X324202Y-2056D01*
X324054Y-2027D01*
X324103Y-1529D01*
X338020D01*
X338085Y-1516D01*
X338951Y-1688D01*
D02*
G37*
G36*
X196487Y-50840D02*
X195987D01*
X195677Y-50171D01*
X196797D01*
X196487Y-50840D01*
D02*
G37*
G36*
X236929Y-49812D02*
X236278Y-49552D01*
Y-48952D01*
X236929Y-48692D01*
Y-49812D01*
D02*
G37*
G36*
X284429Y-61312D02*
X283778Y-61052D01*
Y-60452D01*
X284429Y-60192D01*
Y-61312D01*
D02*
G37*
G36*
X289929Y-59312D02*
X289278Y-59052D01*
Y-58452D01*
X289929Y-58192D01*
Y-59312D01*
D02*
G37*
G36*
X276947Y-53415D02*
X276464Y-54243D01*
X275616Y-53677D01*
X275905Y-53287D01*
X276947Y-53415D01*
D02*
G37*
G36*
X180103Y-50750D02*
X180280Y-51250D01*
X179719Y-51604D01*
X179366Y-50541D01*
X180103Y-50750D01*
D02*
G37*
G36*
X230798Y-58947D02*
X231500Y-59087D01*
X231788Y-59030D01*
X232174Y-59347D01*
Y-113804D01*
X218924Y-127054D01*
X218462Y-126863D01*
Y-118010D01*
X218903Y-117774D01*
X219024Y-117855D01*
X220000Y-118049D01*
X220975Y-117855D01*
X221802Y-117302D01*
X222355Y-116475D01*
X222549Y-115500D01*
X222355Y-114524D01*
X221802Y-113698D01*
X220975Y-113145D01*
X220000Y-112951D01*
X219024Y-113145D01*
X218903Y-113226D01*
X218462Y-112990D01*
Y-110252D01*
X218362Y-109745D01*
X218325Y-109691D01*
Y-108730D01*
X218500Y-108587D01*
X219202Y-108448D01*
X219250Y-108416D01*
X219298Y-108448D01*
X220000Y-108587D01*
X220702Y-108448D01*
X221298Y-108050D01*
X221696Y-107454D01*
X221835Y-106752D01*
X221696Y-106050D01*
X221298Y-105454D01*
X220702Y-105056D01*
X220000Y-104917D01*
X219298Y-105056D01*
X219250Y-105088D01*
X219202Y-105056D01*
X218500Y-104917D01*
X218325Y-104773D01*
Y-101801D01*
X225937Y-94189D01*
X226225Y-93759D01*
X226325Y-93252D01*
X226325Y-93252D01*
X226325Y-93252D01*
Y-93252D01*
Y-59162D01*
X226766Y-58927D01*
X226798Y-58947D01*
X227500Y-59087D01*
X228202Y-58947D01*
X228500Y-58749D01*
X228798Y-58947D01*
X229500Y-59087D01*
X230202Y-58947D01*
X230500Y-58749D01*
X230798Y-58947D01*
D02*
G37*
G36*
X266634Y-64073D02*
X266300Y-64492D01*
X265508Y-63700D01*
X265927Y-63365D01*
X266634Y-64073D01*
D02*
G37*
%LPC*%
G36*
X162000Y-125165D02*
X161298Y-125304D01*
X160702Y-125702D01*
X160304Y-126298D01*
X160165Y-127000D01*
X160304Y-127702D01*
X160702Y-128298D01*
X160902Y-128431D01*
X160768Y-129104D01*
X160908Y-129806D01*
X161168Y-130194D01*
X160976Y-130656D01*
X160231Y-130805D01*
X159404Y-131357D01*
X158852Y-132184D01*
X158658Y-133159D01*
X158852Y-134135D01*
X159404Y-134962D01*
X160231Y-135514D01*
X161207Y-135708D01*
X162182Y-135514D01*
X163009Y-134962D01*
X163562Y-134135D01*
X163756Y-133159D01*
X163562Y-132184D01*
X163009Y-131357D01*
X162637Y-131109D01*
X162603Y-130939D01*
X163306Y-130799D01*
D01*
X163306D01*
X163306Y-130799D01*
X163901Y-130401D01*
X164299Y-129806D01*
X164439Y-129104D01*
X164299Y-128401D01*
X163901Y-127806D01*
X163701Y-127672D01*
X163835Y-127000D01*
X163696Y-126298D01*
X163298Y-125702D01*
X162702Y-125304D01*
X162000Y-125165D01*
D02*
G37*
G36*
X100359Y-91157D02*
X99500Y-91328D01*
X98773Y-91814D01*
X98286Y-92542D01*
X98116Y-93400D01*
X98286Y-94258D01*
X98773Y-94986D01*
X99500Y-95472D01*
X100359Y-95643D01*
X101217Y-95472D01*
X101945Y-94986D01*
X102431Y-94258D01*
X102602Y-93400D01*
X102431Y-92542D01*
X101945Y-91814D01*
X101217Y-91328D01*
X100359Y-91157D01*
D02*
G37*
G36*
X157037Y-18465D02*
X156335Y-18604D01*
X155739Y-19002D01*
X155341Y-19598D01*
X155202Y-20300D01*
X155341Y-21002D01*
X155739Y-21598D01*
X156335Y-21996D01*
X157037Y-22135D01*
X157739Y-21996D01*
X158335Y-21598D01*
X158733Y-21002D01*
X158872Y-20300D01*
X158733Y-19598D01*
X158335Y-19002D01*
X157739Y-18604D01*
X157037Y-18465D01*
D02*
G37*
G36*
X181500Y-80757D02*
X180642Y-80928D01*
X179914Y-81414D01*
X179428Y-82142D01*
X179257Y-83000D01*
X179428Y-83858D01*
X179914Y-84586D01*
X180642Y-85072D01*
X181500Y-85243D01*
X182358Y-85072D01*
X183086Y-84586D01*
X183572Y-83858D01*
X183743Y-83000D01*
X183572Y-82142D01*
X183086Y-81414D01*
X182358Y-80928D01*
X181500Y-80757D01*
D02*
G37*
G36*
X153500Y-27417D02*
X152798Y-27556D01*
X152202Y-27954D01*
X151804Y-28550D01*
X151665Y-29252D01*
X151804Y-29954D01*
X152202Y-30550D01*
X152798Y-30948D01*
X153500Y-31087D01*
X154202Y-30948D01*
X154798Y-30550D01*
X155196Y-29954D01*
X155335Y-29252D01*
X155196Y-28550D01*
X154798Y-27954D01*
X154202Y-27556D01*
X153500Y-27417D01*
D02*
G37*
G36*
X178500Y-62009D02*
X177642Y-62180D01*
X176914Y-62666D01*
X176428Y-63394D01*
X176257Y-64252D01*
X176428Y-65110D01*
X176914Y-65838D01*
X177077Y-65947D01*
X176979Y-66437D01*
X176385Y-66555D01*
X175790Y-66953D01*
X175392Y-67549D01*
X175252Y-68251D01*
X175392Y-68953D01*
X175790Y-69548D01*
X176385Y-69946D01*
X177088Y-70086D01*
X177790Y-69946D01*
X178385Y-69548D01*
X178783Y-68953D01*
X178923Y-68251D01*
X178783Y-67549D01*
X178385Y-66953D01*
X178383Y-66951D01*
X178500Y-66495D01*
X178500D01*
Y-66495D01*
D01*
X179358Y-66324D01*
X180086Y-65838D01*
X180572Y-65110D01*
X180743Y-64252D01*
X180572Y-63394D01*
X180086Y-62666D01*
X179358Y-62180D01*
X178500Y-62009D01*
D02*
G37*
G36*
X151000Y-62917D02*
X150298Y-63056D01*
X149702Y-63454D01*
X149304Y-64050D01*
X149165Y-64752D01*
X149304Y-65454D01*
X149702Y-66050D01*
X150298Y-66448D01*
X151000Y-66587D01*
X151702Y-66448D01*
X152298Y-66050D01*
X152696Y-65454D01*
X152835Y-64752D01*
X152696Y-64050D01*
X152298Y-63454D01*
X151702Y-63056D01*
X151000Y-62917D01*
D02*
G37*
G36*
X166500Y-48265D02*
X165798Y-48404D01*
X165202Y-48802D01*
X164804Y-49398D01*
X164665Y-50100D01*
X164804Y-50802D01*
X165202Y-51398D01*
Y-51454D01*
X164804Y-52050D01*
X164665Y-52752D01*
X164804Y-53454D01*
X165202Y-54050D01*
X165798Y-54448D01*
X166350Y-54557D01*
X166302Y-54800D01*
X166442Y-55502D01*
X166839Y-56098D01*
X167435Y-56496D01*
X167852Y-56579D01*
X168264Y-56730D01*
X169688Y-58153D01*
X170101Y-58429D01*
X170589Y-58526D01*
X176700D01*
X176758Y-58684D01*
X176841Y-59102D01*
X177239Y-59698D01*
X177835Y-60096D01*
X178537Y-60235D01*
X179239Y-60096D01*
X179835Y-59698D01*
X180233Y-59102D01*
X180372Y-58400D01*
X180233Y-57698D01*
X179835Y-57102D01*
X179239Y-56704D01*
X178822Y-56621D01*
X178410Y-56471D01*
X178290Y-56351D01*
X177877Y-56075D01*
X177389Y-55977D01*
X171117D01*
X170066Y-54927D01*
X169916Y-54515D01*
X169833Y-54098D01*
X169435Y-53502D01*
X168839Y-53104D01*
X168287Y-52995D01*
X168335Y-52752D01*
X168196Y-52050D01*
X167798Y-51454D01*
Y-51398D01*
X168196Y-50802D01*
X168335Y-50100D01*
X168196Y-49398D01*
X167798Y-48802D01*
X167202Y-48404D01*
X166500Y-48265D01*
D02*
G37*
G36*
X179000Y-6917D02*
X178298Y-7056D01*
X177702Y-7454D01*
X177304Y-8050D01*
X177221Y-8467D01*
X177070Y-8879D01*
X173389Y-12561D01*
X173002Y-12244D01*
X173196Y-11954D01*
X173335Y-11252D01*
X173196Y-10550D01*
X172830Y-10002D01*
X173196Y-9454D01*
X173335Y-8752D01*
X173196Y-8050D01*
X172798Y-7454D01*
X172202Y-7056D01*
X171500Y-6917D01*
X170798Y-7056D01*
X170202Y-7454D01*
X169804Y-8050D01*
X169665Y-8752D01*
X169804Y-9454D01*
X170170Y-10002D01*
X169804Y-10550D01*
X169665Y-11252D01*
X169804Y-11954D01*
X170202Y-12550D01*
X170798Y-12947D01*
X170960Y-12980D01*
X170911Y-13477D01*
X167954D01*
X167557Y-13293D01*
X167202Y-13056D01*
X166500Y-12917D01*
X165798Y-13056D01*
X165202Y-13454D01*
X164804Y-14050D01*
X164665Y-14752D01*
X164804Y-15454D01*
X165003Y-15752D01*
X164804Y-16050D01*
X164665Y-16752D01*
X164804Y-17454D01*
X165202Y-18050D01*
Y-18112D01*
X164804Y-18707D01*
X164665Y-19410D01*
X164804Y-20112D01*
X165118Y-20581D01*
X164804Y-21050D01*
X164665Y-21752D01*
X164804Y-22454D01*
X165202Y-23050D01*
X165798Y-23448D01*
X166500Y-23587D01*
X167202Y-23448D01*
X167798Y-23050D01*
X168196Y-22454D01*
X168279Y-22037D01*
X168430Y-21625D01*
X168528Y-21527D01*
X175472D01*
X176070Y-22125D01*
X176221Y-22536D01*
X176304Y-22954D01*
X176702Y-23550D01*
X177298Y-23947D01*
X178000Y-24087D01*
X178702Y-23947D01*
X179298Y-23550D01*
X179696Y-22954D01*
X179835Y-22252D01*
X179696Y-21550D01*
X179298Y-20954D01*
X178702Y-20556D01*
X178285Y-20473D01*
X178164Y-20429D01*
X178300Y-19948D01*
X179000Y-20087D01*
X179702Y-19948D01*
X180298Y-19550D01*
X180696Y-18954D01*
X180835Y-18252D01*
X180696Y-17550D01*
X180298Y-16954D01*
X179702Y-16556D01*
X179000Y-16417D01*
X178298Y-16556D01*
X177944Y-16793D01*
X177546Y-16977D01*
X177078D01*
X176887Y-16515D01*
X178873Y-14529D01*
X179285Y-14379D01*
X179702Y-14296D01*
X180298Y-13898D01*
X180470Y-13640D01*
X180474Y-13637D01*
X180762Y-13207D01*
X180862Y-12700D01*
X180762Y-12193D01*
X180751Y-12177D01*
X180696Y-11898D01*
X180298Y-11302D01*
X179702Y-10904D01*
X179000Y-10765D01*
X178976Y-10644D01*
X179285Y-10531D01*
X179702Y-10447D01*
X180298Y-10050D01*
X180696Y-9454D01*
X180835Y-8752D01*
X180696Y-8050D01*
X180298Y-7454D01*
X179702Y-7056D01*
X179000Y-6917D01*
D02*
G37*
G36*
X179197Y-105220D02*
X178494Y-105360D01*
X177899Y-105758D01*
X177501Y-106353D01*
X177361Y-107055D01*
X177501Y-107758D01*
X177899Y-108353D01*
X178494Y-108751D01*
X179197Y-108891D01*
X179899Y-108751D01*
X180494Y-108353D01*
X180892Y-107758D01*
X181032Y-107055D01*
X180892Y-106353D01*
X180494Y-105758D01*
X179899Y-105360D01*
X179197Y-105220D01*
D02*
G37*
G36*
X180500Y-98917D02*
X179798Y-99056D01*
X179202Y-99454D01*
X178804Y-100050D01*
X178665Y-100752D01*
X178804Y-101454D01*
X179202Y-102050D01*
X179798Y-102447D01*
X180500Y-102587D01*
X181202Y-102447D01*
X181798Y-102050D01*
X182196Y-101454D01*
X182335Y-100752D01*
X182196Y-100050D01*
X181798Y-99454D01*
X181202Y-99056D01*
X180500Y-98917D01*
D02*
G37*
G36*
X159737Y-45965D02*
X159035Y-46104D01*
X158439Y-46502D01*
X158042Y-47098D01*
X157902Y-47800D01*
X158042Y-48502D01*
X158439Y-49098D01*
X159035Y-49496D01*
X159737Y-49635D01*
X160439Y-49496D01*
X161035Y-49098D01*
X161433Y-48502D01*
X161572Y-47800D01*
X161433Y-47098D01*
X161035Y-46502D01*
X160439Y-46104D01*
X159737Y-45965D01*
D02*
G37*
G36*
X180500Y-125917D02*
X179798Y-126056D01*
X179202Y-126454D01*
X178804Y-127050D01*
X178665Y-127752D01*
X178804Y-128454D01*
X179202Y-129050D01*
X179798Y-129447D01*
X180500Y-129587D01*
X181202Y-129447D01*
X181798Y-129050D01*
X182196Y-128454D01*
X182335Y-127752D01*
X182196Y-127050D01*
X181798Y-126454D01*
X181202Y-126056D01*
X180500Y-125917D01*
D02*
G37*
G36*
X180537Y-147765D02*
X179835Y-147904D01*
X179239Y-148302D01*
X178841Y-148898D01*
X178702Y-149600D01*
X178841Y-150302D01*
X179239Y-150898D01*
X179835Y-151296D01*
X180537Y-151435D01*
X181239Y-151296D01*
X181835Y-150898D01*
X182233Y-150302D01*
X182372Y-149600D01*
X182233Y-148898D01*
X181835Y-148302D01*
X181239Y-147904D01*
X180537Y-147765D01*
D02*
G37*
%LPD*%
G36*
X169191Y-55500D02*
X168837Y-55853D01*
X168145Y-55600D01*
X168937Y-54808D01*
X169191Y-55500D01*
D02*
G37*
G36*
X178529Y-57600D02*
X177737Y-58392D01*
X177483Y-57700D01*
X177837Y-57346D01*
X178529Y-57600D01*
D02*
G37*
G36*
X178992Y-9552D02*
X178300Y-9805D01*
X177946Y-9452D01*
X178200Y-8760D01*
X178992Y-9552D01*
D02*
G37*
G36*
X167553Y-18710D02*
X167300Y-19401D01*
X166508Y-18609D01*
X167200Y-18356D01*
X167553Y-18710D01*
D02*
G37*
G36*
X167740Y-14502D02*
Y-15002D01*
X167071Y-15312D01*
Y-14192D01*
X167740Y-14502D01*
D02*
G37*
G36*
Y-16502D02*
Y-17002D01*
X167071Y-17312D01*
Y-16192D01*
X167740Y-16502D01*
D02*
G37*
G36*
X178429Y-18812D02*
X177760Y-18502D01*
Y-18002D01*
X178429Y-17692D01*
Y-18812D01*
D02*
G37*
G36*
X178992Y-13400D02*
X178300Y-13654D01*
X177946Y-13300D01*
X178200Y-12608D01*
X178992Y-13400D01*
D02*
G37*
G36*
X177992Y-21452D02*
X177200Y-22244D01*
X176946Y-21552D01*
X177300Y-21198D01*
X177992Y-21452D01*
D02*
G37*
G36*
X167553Y-21052D02*
X167300Y-21744D01*
X166508Y-20952D01*
X167200Y-20698D01*
X167553Y-21052D01*
D02*
G37*
%LPC*%
G36*
X134500Y-108203D02*
X133525Y-108397D01*
X132698Y-108950D01*
X132145Y-109776D01*
X131951Y-110752D01*
X132145Y-111727D01*
X132698Y-112554D01*
X133525Y-113107D01*
X134500Y-113301D01*
X135476Y-113107D01*
X136302Y-112554D01*
X136855Y-111727D01*
X137049Y-110752D01*
X136855Y-109776D01*
X136302Y-108950D01*
X135476Y-108397D01*
X134500Y-108203D01*
D02*
G37*
G36*
X131037Y-91157D02*
X130179Y-91328D01*
X129451Y-91814D01*
X128965Y-92542D01*
X128794Y-93400D01*
X128965Y-94258D01*
X129451Y-94986D01*
X130179Y-95472D01*
X131037Y-95643D01*
X131895Y-95472D01*
X132623Y-94986D01*
X133109Y-94258D01*
X133280Y-93400D01*
X133109Y-92542D01*
X132623Y-91814D01*
X131895Y-91328D01*
X131037Y-91157D01*
D02*
G37*
G36*
X120037D02*
X119179Y-91328D01*
X118451Y-91814D01*
X117965Y-92542D01*
X117794Y-93400D01*
X117965Y-94258D01*
X118451Y-94986D01*
X119179Y-95472D01*
X120037Y-95643D01*
X120895Y-95472D01*
X121623Y-94986D01*
X122109Y-94258D01*
X122280Y-93400D01*
X122109Y-92542D01*
X121623Y-91814D01*
X120895Y-91328D01*
X120037Y-91157D01*
D02*
G37*
G36*
X141032Y-95235D02*
X140056Y-95429D01*
X139229Y-95981D01*
X138677Y-96808D01*
X138482Y-97783D01*
X138677Y-98759D01*
X139229Y-99586D01*
X140056Y-100138D01*
X141032Y-100332D01*
X142007Y-100138D01*
X142834Y-99586D01*
X143386Y-98759D01*
X143580Y-97783D01*
X143386Y-96808D01*
X142834Y-95981D01*
X142007Y-95429D01*
X141032Y-95235D01*
D02*
G37*
G36*
X53599Y-53560D02*
X52896Y-53700D01*
X52301Y-54098D01*
X51903Y-54693D01*
X51763Y-55396D01*
X51903Y-56098D01*
X52301Y-56693D01*
X52896Y-57091D01*
X53599Y-57231D01*
X54301Y-57091D01*
X54896Y-56693D01*
X55294Y-56098D01*
X55434Y-55396D01*
X55294Y-54693D01*
X54896Y-54098D01*
X54301Y-53700D01*
X53599Y-53560D01*
D02*
G37*
G36*
X33737Y-73765D02*
X33035Y-73904D01*
X32439Y-74302D01*
X32041Y-74898D01*
X31902Y-75600D01*
X32041Y-76302D01*
X32439Y-76898D01*
X33035Y-77296D01*
X33737Y-77435D01*
X34439Y-77296D01*
X35035Y-76898D01*
X35433Y-76302D01*
X35572Y-75600D01*
X35433Y-74898D01*
X35035Y-74302D01*
X34439Y-73904D01*
X33737Y-73765D01*
D02*
G37*
G36*
X52797Y-73417D02*
X52094Y-73557D01*
X51499Y-73955D01*
X51101Y-74550D01*
X50962Y-75252D01*
X51101Y-75955D01*
X51499Y-76550D01*
X51579Y-76603D01*
X51505Y-76713D01*
X51366Y-77416D01*
X51505Y-78118D01*
X51903Y-78713D01*
X52498Y-79111D01*
X53201Y-79251D01*
X53903Y-79111D01*
X54498Y-78713D01*
X54896Y-78118D01*
X55036Y-77416D01*
X54896Y-76713D01*
X54498Y-76118D01*
X54419Y-76065D01*
X54492Y-75955D01*
X54632Y-75252D01*
X54492Y-74550D01*
X54094Y-73955D01*
X53499Y-73557D01*
X52797Y-73417D01*
D02*
G37*
G36*
X61537Y-81433D02*
X60834Y-81573D01*
X60239Y-81971D01*
X59841Y-82566D01*
X59702Y-83268D01*
X59841Y-83971D01*
X60239Y-84566D01*
X60834Y-84964D01*
X61537Y-85104D01*
X62239Y-84964D01*
X62835Y-84566D01*
X63232Y-83971D01*
X63372Y-83268D01*
X63232Y-82566D01*
X62835Y-81971D01*
X62239Y-81573D01*
X61537Y-81433D01*
D02*
G37*
G36*
X38000Y-28000D02*
X37259Y-28147D01*
X36630Y-28567D01*
X36210Y-29196D01*
X36063Y-29937D01*
X36210Y-30678D01*
X36630Y-31307D01*
X37259Y-31727D01*
X38000Y-31874D01*
X38741Y-31727D01*
X39370Y-31307D01*
X39790Y-30678D01*
X39937Y-29937D01*
X39790Y-29196D01*
X39370Y-28567D01*
X38741Y-28147D01*
X38000Y-28000D01*
D02*
G37*
G36*
X50417Y-61514D02*
X49714Y-61654D01*
X49119Y-62052D01*
X48721Y-62647D01*
X48581Y-63349D01*
X48721Y-64052D01*
X49119Y-64647D01*
X49714Y-65045D01*
X50417Y-65185D01*
X51119Y-65045D01*
X51714Y-64647D01*
X52112Y-64052D01*
X52252Y-63349D01*
X52112Y-62647D01*
X51714Y-62052D01*
X51119Y-61654D01*
X50417Y-61514D01*
D02*
G37*
G36*
X63963Y-52389D02*
X63260Y-52529D01*
X62665Y-52927D01*
X62267Y-53522D01*
X62128Y-54224D01*
X62267Y-54927D01*
X62665Y-55522D01*
X63260Y-55920D01*
X63963Y-56060D01*
X64665Y-55920D01*
X65260Y-55522D01*
X65658Y-54927D01*
X65798Y-54224D01*
X65658Y-53522D01*
X65260Y-52927D01*
X64665Y-52529D01*
X63963Y-52389D01*
D02*
G37*
G36*
X69562Y-78431D02*
X68859Y-78571D01*
X68264Y-78969D01*
X67866Y-79564D01*
X67726Y-80266D01*
X67866Y-80969D01*
X68264Y-81564D01*
X68859Y-81962D01*
X69562Y-82102D01*
X70264Y-81962D01*
X70859Y-81564D01*
X71257Y-80969D01*
X71397Y-80266D01*
X71257Y-79564D01*
X70859Y-78969D01*
X70264Y-78571D01*
X69562Y-78431D01*
D02*
G37*
G36*
X58059Y-25655D02*
X57356Y-25795D01*
X56761Y-26193D01*
X56363Y-26788D01*
X56223Y-27490D01*
X56363Y-28193D01*
X56761Y-28788D01*
X57356Y-29186D01*
X58059Y-29326D01*
X58761Y-29186D01*
X59356Y-28788D01*
X59754Y-28193D01*
X59894Y-27490D01*
X59754Y-26788D01*
X59356Y-26193D01*
X58761Y-25795D01*
X58059Y-25655D01*
D02*
G37*
G36*
X68337Y-23151D02*
X67362Y-23345D01*
X66535Y-23898D01*
X65982Y-24724D01*
X65788Y-25700D01*
X65982Y-26676D01*
X66535Y-27502D01*
X67362Y-28055D01*
X68337Y-28249D01*
X69313Y-28055D01*
X70139Y-27502D01*
X70692Y-26676D01*
X70886Y-25700D01*
X70692Y-24724D01*
X70139Y-23898D01*
X69313Y-23345D01*
X68337Y-23151D01*
D02*
G37*
G36*
X80698Y-67296D02*
X79995Y-67436D01*
X79400Y-67834D01*
X79002Y-68429D01*
X78863Y-69131D01*
X78872Y-69179D01*
X78518Y-69533D01*
X78470Y-69523D01*
X77767Y-69663D01*
X77172Y-70061D01*
X76774Y-70656D01*
X76635Y-71359D01*
X76641Y-71392D01*
X76288Y-71745D01*
X76227Y-71733D01*
X75524Y-71873D01*
X74929Y-72271D01*
X74531Y-72866D01*
X74392Y-73568D01*
X74531Y-74271D01*
X74929Y-74866D01*
X75524Y-75264D01*
X76227Y-75404D01*
X76929Y-75264D01*
X77525Y-74866D01*
X77922Y-74271D01*
X78062Y-73568D01*
X78055Y-73535D01*
X78409Y-73182D01*
X78470Y-73194D01*
X79172Y-73054D01*
X79768Y-72656D01*
X80165Y-72061D01*
X80305Y-71359D01*
X80295Y-71311D01*
X80649Y-70957D01*
X80698Y-70967D01*
X81400Y-70827D01*
X81995Y-70429D01*
X82393Y-69834D01*
X82533Y-69131D01*
X82393Y-68429D01*
X81995Y-67834D01*
X81400Y-67436D01*
X80698Y-67296D01*
D02*
G37*
G36*
X50212Y-65951D02*
X49509Y-66091D01*
X48914Y-66489D01*
X48516Y-67084D01*
X48377Y-67787D01*
X48516Y-68489D01*
X48914Y-69084D01*
X49509Y-69482D01*
X50212Y-69622D01*
X50914Y-69482D01*
X51509Y-69084D01*
X51907Y-68489D01*
X52047Y-67787D01*
X51907Y-67084D01*
X51509Y-66489D01*
X50914Y-66091D01*
X50212Y-65951D01*
D02*
G37*
G36*
X16459Y-67355D02*
X15756Y-67495D01*
X15161Y-67893D01*
X14763Y-68488D01*
X14624Y-69191D01*
X14763Y-69893D01*
X15161Y-70488D01*
X15756Y-70886D01*
X16459Y-71026D01*
X17161Y-70886D01*
X17756Y-70488D01*
X18154Y-69893D01*
X18294Y-69191D01*
X18154Y-68488D01*
X17756Y-67893D01*
X17161Y-67495D01*
X16459Y-67355D01*
D02*
G37*
G36*
X47959Y-57855D02*
X47256Y-57995D01*
X46661Y-58393D01*
X46263Y-58988D01*
X46123Y-59690D01*
X46263Y-60393D01*
X46661Y-60988D01*
X47256Y-61386D01*
X47959Y-61526D01*
X48661Y-61386D01*
X49257Y-60988D01*
X49654Y-60393D01*
X49794Y-59690D01*
X49654Y-58988D01*
X49257Y-58393D01*
X48661Y-57995D01*
X47959Y-57855D01*
D02*
G37*
G36*
X30959Y-64355D02*
X30256Y-64495D01*
X29661Y-64893D01*
X29263Y-65488D01*
X29123Y-66190D01*
X29263Y-66893D01*
X29661Y-67488D01*
X30256Y-67886D01*
X30959Y-68026D01*
X31661Y-67886D01*
X32256Y-67488D01*
X32654Y-66893D01*
X32794Y-66190D01*
X32654Y-65488D01*
X32256Y-64893D01*
X31661Y-64495D01*
X30959Y-64355D01*
D02*
G37*
G36*
X19459D02*
X18756Y-64495D01*
X18161Y-64893D01*
X17763Y-65488D01*
X17624Y-66190D01*
X17763Y-66893D01*
X18161Y-67488D01*
X18756Y-67886D01*
X19459Y-68026D01*
X20161Y-67886D01*
X20756Y-67488D01*
X21154Y-66893D01*
X21294Y-66190D01*
X21154Y-65488D01*
X20756Y-64893D01*
X20161Y-64495D01*
X19459Y-64355D01*
D02*
G37*
G36*
X83501Y-59270D02*
X82798Y-59410D01*
X82203Y-59808D01*
X81805Y-60403D01*
X81665Y-61106D01*
X81805Y-61808D01*
X82203Y-62403D01*
X82798Y-62801D01*
X83501Y-62941D01*
X84203Y-62801D01*
X84799Y-62403D01*
X85196Y-61808D01*
X85336Y-61106D01*
X85196Y-60403D01*
X84799Y-59808D01*
X84203Y-59410D01*
X83501Y-59270D01*
D02*
G37*
G36*
X83500Y-4961D02*
X80500D01*
X79720Y-5116D01*
X79058Y-5558D01*
X78616Y-6220D01*
X78461Y-7000D01*
X78616Y-7780D01*
X79058Y-8442D01*
X79720Y-8884D01*
X80500Y-9039D01*
X82655D01*
X90058Y-16442D01*
X90720Y-16884D01*
X91500Y-17039D01*
X92280Y-16884D01*
X92942Y-16442D01*
X93384Y-15780D01*
X93539Y-15000D01*
X93384Y-14220D01*
X92942Y-13558D01*
X84942Y-5558D01*
X84280Y-5116D01*
X83500Y-4961D01*
D02*
G37*
G36*
X38043Y-69183D02*
X37340Y-69323D01*
X36745Y-69721D01*
X36347Y-70316D01*
X36208Y-71018D01*
X36347Y-71721D01*
X36745Y-72316D01*
X37340Y-72714D01*
X38043Y-72854D01*
X38745Y-72714D01*
X39340Y-72316D01*
X39738Y-71721D01*
X39878Y-71018D01*
X39738Y-70316D01*
X39340Y-69721D01*
X38745Y-69323D01*
X38043Y-69183D01*
D02*
G37*
G36*
X64459Y-68955D02*
X63756Y-69095D01*
X63161Y-69493D01*
X62763Y-70088D01*
X62624Y-70790D01*
X62763Y-71493D01*
X63161Y-72088D01*
X63756Y-72486D01*
X64459Y-72626D01*
X65161Y-72486D01*
X65756Y-72088D01*
X66154Y-71493D01*
X66294Y-70790D01*
X66154Y-70088D01*
X65756Y-69493D01*
X65161Y-69095D01*
X64459Y-68955D01*
D02*
G37*
G36*
X114500Y-8703D02*
X113524Y-8897D01*
X112698Y-9450D01*
X112145Y-10277D01*
X111951Y-11252D01*
X112145Y-12227D01*
X112698Y-13054D01*
X113524Y-13607D01*
X114500Y-13801D01*
X115475Y-13607D01*
X116302Y-13054D01*
X116855Y-12227D01*
X117049Y-11252D01*
X116855Y-10277D01*
X116302Y-9450D01*
X115475Y-8897D01*
X114500Y-8703D01*
D02*
G37*
G36*
X99000Y-138417D02*
X98298Y-138556D01*
X97702Y-138954D01*
X97304Y-139550D01*
X97165Y-140252D01*
X97304Y-140954D01*
X97702Y-141550D01*
X98298Y-141947D01*
X99000Y-142087D01*
X99702Y-141947D01*
X100298Y-141550D01*
X100696Y-140954D01*
X100835Y-140252D01*
X100696Y-139550D01*
X100298Y-138954D01*
X99702Y-138556D01*
X99000Y-138417D01*
D02*
G37*
G36*
X66859Y-41455D02*
X66156Y-41595D01*
X65561Y-41993D01*
X65163Y-42588D01*
X65023Y-43290D01*
X65163Y-43993D01*
X65561Y-44588D01*
X66156Y-44986D01*
X66859Y-45126D01*
X67561Y-44986D01*
X68156Y-44588D01*
X68554Y-43993D01*
X68694Y-43290D01*
X68554Y-42588D01*
X68156Y-41993D01*
X67561Y-41595D01*
X66859Y-41455D01*
D02*
G37*
G36*
X40147Y-45143D02*
X39444Y-45283D01*
X38849Y-45681D01*
X38451Y-46276D01*
X38311Y-46979D01*
X38451Y-47681D01*
X38849Y-48276D01*
X39444Y-48674D01*
X40147Y-48814D01*
X40849Y-48674D01*
X41445Y-48276D01*
X41842Y-47681D01*
X41982Y-46979D01*
X41842Y-46276D01*
X41445Y-45681D01*
X40849Y-45283D01*
X40147Y-45143D01*
D02*
G37*
G36*
X45759Y-37855D02*
X45056Y-37995D01*
X44461Y-38393D01*
X44063Y-38988D01*
X43924Y-39691D01*
X44063Y-40393D01*
X44461Y-40988D01*
X45056Y-41386D01*
X45759Y-41526D01*
X46461Y-41386D01*
X47056Y-40988D01*
X47454Y-40393D01*
X47594Y-39691D01*
X47454Y-38988D01*
X47056Y-38393D01*
X46461Y-37995D01*
X45759Y-37855D01*
D02*
G37*
G36*
X59710Y-47232D02*
X59007Y-47372D01*
X58412Y-47770D01*
X58014Y-48365D01*
X57875Y-49068D01*
X58014Y-49770D01*
X58412Y-50365D01*
X59007Y-50763D01*
X59710Y-50903D01*
X60412Y-50763D01*
X61007Y-50365D01*
X61405Y-49770D01*
X61545Y-49068D01*
X61405Y-48365D01*
X61007Y-47770D01*
X60412Y-47372D01*
X59710Y-47232D01*
D02*
G37*
G36*
X80707Y-139111D02*
X79731Y-139304D01*
X78904Y-139857D01*
X78352Y-140684D01*
X78158Y-141659D01*
X78352Y-142635D01*
X78904Y-143462D01*
X79731Y-144014D01*
X80707Y-144208D01*
X81682Y-144014D01*
X82509Y-143462D01*
X83062Y-142635D01*
X83256Y-141659D01*
X83062Y-140684D01*
X82509Y-139857D01*
X81682Y-139304D01*
X80707Y-139111D01*
D02*
G37*
G36*
X17968Y-134734D02*
X16993Y-134929D01*
X16166Y-135481D01*
X15614Y-136308D01*
X15419Y-137284D01*
X15614Y-138259D01*
X16166Y-139086D01*
X16993Y-139638D01*
X17968Y-139832D01*
X18944Y-139638D01*
X19771Y-139086D01*
X20323Y-138259D01*
X20517Y-137284D01*
X20323Y-136308D01*
X19771Y-135481D01*
X18944Y-134929D01*
X17968Y-134734D01*
D02*
G37*
G36*
X97000Y-120509D02*
X96142Y-120680D01*
X95414Y-121166D01*
X94928Y-121894D01*
X94757Y-122752D01*
X94928Y-123610D01*
X95414Y-124338D01*
X96142Y-124824D01*
X97000Y-124995D01*
X97858Y-124824D01*
X98586Y-124338D01*
X99072Y-123610D01*
X99243Y-122752D01*
X99072Y-121894D01*
X98586Y-121166D01*
X97858Y-120680D01*
X97000Y-120509D01*
D02*
G37*
G36*
Y-106509D02*
X96142Y-106680D01*
X95414Y-107166D01*
X94928Y-107894D01*
X94757Y-108752D01*
X94928Y-109610D01*
X95414Y-110338D01*
X96142Y-110824D01*
X97000Y-110995D01*
X97858Y-110824D01*
X98586Y-110338D01*
X99072Y-109610D01*
X99243Y-108752D01*
X99072Y-107894D01*
X98586Y-107166D01*
X97858Y-106680D01*
X97000Y-106509D01*
D02*
G37*
G36*
X37197Y-48193D02*
X36494Y-48333D01*
X35899Y-48731D01*
X35501Y-49326D01*
X35361Y-50029D01*
X35501Y-50731D01*
X35899Y-51326D01*
X36494Y-51724D01*
X37197Y-51864D01*
X37899Y-51724D01*
X38495Y-51326D01*
X38892Y-50731D01*
X39032Y-50029D01*
X38892Y-49326D01*
X38495Y-48731D01*
X37899Y-48333D01*
X37197Y-48193D01*
D02*
G37*
G36*
X58427Y-89567D02*
X57724Y-89707D01*
X57129Y-90105D01*
X56731Y-90700D01*
X56591Y-91403D01*
X56731Y-92105D01*
X57129Y-92700D01*
X57724Y-93098D01*
X58427Y-93238D01*
X59129Y-93098D01*
X59724Y-92700D01*
X60122Y-92105D01*
X60262Y-91403D01*
X60122Y-90700D01*
X59724Y-90105D01*
X59129Y-89707D01*
X58427Y-89567D01*
D02*
G37*
G36*
X67937Y-145963D02*
X67196Y-146110D01*
X66567Y-146530D01*
X66147Y-147159D01*
X66000Y-147900D01*
X66147Y-148641D01*
X66567Y-149270D01*
X67196Y-149690D01*
X67937Y-149837D01*
X68678Y-149690D01*
X69307Y-149270D01*
X69727Y-148641D01*
X69874Y-147900D01*
X69727Y-147159D01*
X69307Y-146530D01*
X68678Y-146110D01*
X67937Y-145963D01*
D02*
G37*
G36*
X118000Y-27503D02*
X117025Y-27697D01*
X116198Y-28250D01*
X115645Y-29076D01*
X115451Y-30052D01*
X115645Y-31027D01*
X116198Y-31854D01*
X117025Y-32407D01*
X118000Y-32601D01*
X118975Y-32407D01*
X119802Y-31854D01*
X120355Y-31027D01*
X120549Y-30052D01*
X120355Y-29076D01*
X119802Y-28250D01*
X118975Y-27697D01*
X118000Y-27503D01*
D02*
G37*
G36*
X67910Y-48117D02*
X67207Y-48257D01*
X66612Y-48655D01*
X66214Y-49250D01*
X66075Y-49953D01*
X66214Y-50655D01*
X66612Y-51250D01*
X67207Y-51648D01*
X67910Y-51788D01*
X68612Y-51648D01*
X69208Y-51250D01*
X69605Y-50655D01*
X69745Y-49953D01*
X69605Y-49250D01*
X69208Y-48655D01*
X68612Y-48257D01*
X67910Y-48117D01*
D02*
G37*
G36*
X42500Y-142815D02*
X41759Y-142962D01*
X41130Y-143382D01*
X40710Y-144011D01*
X40563Y-144752D01*
X40710Y-145493D01*
X41130Y-146122D01*
X41759Y-146542D01*
X42500Y-146689D01*
X43241Y-146542D01*
X43870Y-146122D01*
X44290Y-145493D01*
X44437Y-144752D01*
X44290Y-144011D01*
X43870Y-143382D01*
X43241Y-142962D01*
X42500Y-142815D01*
D02*
G37*
G36*
X54759Y-28753D02*
X54017Y-28901D01*
X53389Y-29321D01*
X52969Y-29949D01*
X52821Y-30691D01*
X52969Y-31432D01*
X53201Y-31780D01*
X52848Y-32133D01*
X52500Y-31901D01*
X51759Y-31753D01*
X51017Y-31901D01*
X50389Y-32321D01*
X49969Y-32949D01*
X49821Y-33691D01*
X49969Y-34432D01*
X50121Y-34659D01*
X49767Y-35012D01*
X49600Y-34901D01*
X48859Y-34753D01*
X48117Y-34901D01*
X47489Y-35321D01*
X47069Y-35949D01*
X46922Y-36691D01*
X47069Y-37432D01*
X47489Y-38060D01*
X48117Y-38480D01*
X48859Y-38628D01*
X49600Y-38480D01*
X50229Y-38060D01*
X50648Y-37432D01*
X50796Y-36691D01*
X50648Y-35949D01*
X50497Y-35722D01*
X50850Y-35369D01*
X51017Y-35480D01*
X51759Y-35628D01*
X52500Y-35480D01*
X53129Y-35060D01*
X53549Y-34432D01*
X53696Y-33691D01*
X53549Y-32949D01*
X53316Y-32601D01*
X53670Y-32248D01*
X54017Y-32480D01*
X54759Y-32628D01*
X55500Y-32480D01*
X56129Y-32060D01*
X56549Y-31432D01*
X56696Y-30691D01*
X56549Y-29949D01*
X56129Y-29321D01*
X55500Y-28901D01*
X54759Y-28753D01*
D02*
G37*
G36*
X53953Y-94001D02*
X53250Y-94141D01*
X52655Y-94539D01*
X52257Y-95134D01*
X52118Y-95837D01*
X52257Y-96539D01*
X52655Y-97134D01*
X53250Y-97532D01*
X53953Y-97672D01*
X54655Y-97532D01*
X55251Y-97134D01*
X55648Y-96539D01*
X55788Y-95837D01*
X55648Y-95134D01*
X55251Y-94539D01*
X54655Y-94141D01*
X53953Y-94001D01*
D02*
G37*
G36*
X84700Y-145784D02*
X83998Y-145924D01*
X83402Y-146322D01*
X83004Y-146917D01*
X82865Y-147619D01*
X83004Y-148322D01*
X83402Y-148917D01*
X83998Y-149315D01*
X84700Y-149455D01*
X85402Y-149315D01*
X85998Y-148917D01*
X86396Y-148322D01*
X86535Y-147619D01*
X86396Y-146917D01*
X85998Y-146322D01*
X85402Y-145924D01*
X84700Y-145784D01*
D02*
G37*
G36*
X294250Y-16953D02*
X293274Y-17147D01*
X292448Y-17700D01*
X291895Y-18527D01*
X291701Y-19502D01*
X291895Y-20477D01*
X292448Y-21304D01*
X293274Y-21857D01*
X294250Y-22051D01*
X295226Y-21857D01*
X296052Y-21304D01*
X296605Y-20477D01*
X296799Y-19502D01*
X296605Y-18527D01*
X296052Y-17700D01*
X295226Y-17147D01*
X294250Y-16953D01*
D02*
G37*
G36*
X259000Y-12917D02*
X258298Y-13056D01*
X257702Y-13454D01*
X257304Y-14050D01*
X257165Y-14752D01*
X257304Y-15454D01*
X257670Y-16002D01*
X257304Y-16550D01*
X257165Y-17252D01*
X257304Y-17954D01*
X257557Y-18333D01*
X257304Y-18711D01*
X257165Y-19413D01*
X257304Y-20116D01*
X257702Y-20711D01*
X258298Y-21109D01*
X259000Y-21249D01*
X259702Y-21109D01*
X260298Y-20711D01*
X260696Y-20116D01*
X260835Y-19413D01*
X260696Y-18711D01*
X260443Y-18333D01*
X260696Y-17954D01*
X260835Y-17252D01*
X260696Y-16550D01*
X260330Y-16002D01*
X260696Y-15454D01*
X260835Y-14752D01*
X260696Y-14050D01*
X260298Y-13454D01*
X259702Y-13056D01*
X259000Y-12917D01*
D02*
G37*
G36*
X209000Y-17203D02*
X208025Y-17397D01*
X207198Y-17950D01*
X206645Y-18777D01*
X206451Y-19752D01*
X206645Y-20727D01*
X207198Y-21554D01*
X208025Y-22107D01*
X209000Y-22301D01*
X209976Y-22107D01*
X210802Y-21554D01*
X211355Y-20727D01*
X211549Y-19752D01*
X211355Y-18777D01*
X210802Y-17950D01*
X209976Y-17397D01*
X209000Y-17203D01*
D02*
G37*
G36*
X311500Y-15917D02*
X310798Y-16056D01*
X310202Y-16454D01*
X309804Y-17050D01*
X309665Y-17752D01*
X309804Y-18454D01*
X310202Y-19050D01*
X310798Y-19447D01*
X311500Y-19587D01*
X312202Y-19447D01*
X312798Y-19050D01*
X313196Y-18454D01*
X313335Y-17752D01*
X313196Y-17050D01*
X312798Y-16454D01*
X312202Y-16056D01*
X311500Y-15917D01*
D02*
G37*
G36*
X306524Y-76816D02*
Y-76817D01*
X282902D01*
Y-76816D01*
X281996Y-76936D01*
X281152Y-77285D01*
X280428Y-77841D01*
X279872Y-78566D01*
X279522Y-79409D01*
X279403Y-80315D01*
X279522Y-81220D01*
X279872Y-82064D01*
X280428Y-82789D01*
X281152Y-83345D01*
X281996Y-83694D01*
X282902Y-83813D01*
Y-83813D01*
X293536D01*
X293682Y-84291D01*
X293448Y-84448D01*
X292895Y-85274D01*
X292701Y-86250D01*
X292895Y-87226D01*
X293448Y-88052D01*
X294274Y-88605D01*
X295250Y-88799D01*
X296226Y-88605D01*
X297052Y-88052D01*
X297605Y-87226D01*
X297799Y-86250D01*
X297605Y-85274D01*
X297052Y-84448D01*
X296320Y-83958D01*
Y-83958D01*
X296320D01*
X296226Y-83895D01*
Y-83895D01*
X296234Y-83813D01*
X306524D01*
Y-83813D01*
X307429Y-83694D01*
X308273Y-83345D01*
X308997Y-82789D01*
X309553Y-82064D01*
X309903Y-81220D01*
X310022Y-80315D01*
X309903Y-79409D01*
X309553Y-78566D01*
X308997Y-77841D01*
X308273Y-77285D01*
X307429Y-76936D01*
X306524Y-76816D01*
D02*
G37*
G36*
X218500Y-14203D02*
X217525Y-14397D01*
X216698Y-14950D01*
X216145Y-15777D01*
X215951Y-16752D01*
X216145Y-17727D01*
X216698Y-18554D01*
X217525Y-19107D01*
X218500Y-19301D01*
X219476Y-19107D01*
X220302Y-18554D01*
X220855Y-17727D01*
X221049Y-16752D01*
X220855Y-15777D01*
X220302Y-14950D01*
X219476Y-14397D01*
X218500Y-14203D01*
D02*
G37*
G36*
X302500Y-151451D02*
X301524Y-151645D01*
X300698Y-152198D01*
X300145Y-153024D01*
X299951Y-154000D01*
X300145Y-154975D01*
X300698Y-155802D01*
Y-156198D01*
X300145Y-157025D01*
X299951Y-158000D01*
X300145Y-158976D01*
X300698Y-159802D01*
X301524Y-160355D01*
X302500Y-160549D01*
X303475Y-160355D01*
X304302Y-159802D01*
X304855Y-158976D01*
X305049Y-158000D01*
X304855Y-157025D01*
X304302Y-156198D01*
Y-155802D01*
X304855Y-154975D01*
X305049Y-154000D01*
X304855Y-153024D01*
X304302Y-152198D01*
X303475Y-151645D01*
X302500Y-151451D01*
D02*
G37*
G36*
X273500Y-158917D02*
X272798Y-159056D01*
X272202Y-159454D01*
X271804Y-160050D01*
X271665Y-160752D01*
X271804Y-161454D01*
X272202Y-162050D01*
X272798Y-162448D01*
X273500Y-162587D01*
X274202Y-162448D01*
X274798Y-162050D01*
X275196Y-161454D01*
X275335Y-160752D01*
X275196Y-160050D01*
X274798Y-159454D01*
X274202Y-159056D01*
X273500Y-158917D01*
D02*
G37*
G36*
X205000Y-5203D02*
X204025Y-5397D01*
X203198Y-5950D01*
X202645Y-6776D01*
X202451Y-7752D01*
X202645Y-8727D01*
X203198Y-9554D01*
X204025Y-10107D01*
X205000Y-10301D01*
X205976Y-10107D01*
X206802Y-9554D01*
X207355Y-8727D01*
X207549Y-7752D01*
X207355Y-6776D01*
X206802Y-5950D01*
X205976Y-5397D01*
X205000Y-5203D01*
D02*
G37*
G36*
X242500Y-64417D02*
X241798Y-64556D01*
X241202Y-64954D01*
X240804Y-65550D01*
X240665Y-66252D01*
X240804Y-66954D01*
X241202Y-67550D01*
X241798Y-67948D01*
X242500Y-68087D01*
X243202Y-67948D01*
X243798Y-67550D01*
X244196Y-66954D01*
X244335Y-66252D01*
X244196Y-65550D01*
X243798Y-64954D01*
X243202Y-64556D01*
X242500Y-64417D01*
D02*
G37*
G36*
X298957Y-59360D02*
X297981Y-59554D01*
X297154Y-60107D01*
X296602Y-60934D01*
X296408Y-61910D01*
X296602Y-62885D01*
X297154Y-63712D01*
X297981Y-64264D01*
X298957Y-64458D01*
X299932Y-64264D01*
X300759Y-63712D01*
X301312Y-62885D01*
X301506Y-61910D01*
X301312Y-60934D01*
X300759Y-60107D01*
X299932Y-59554D01*
X298957Y-59360D01*
D02*
G37*
G36*
X226500Y-14203D02*
X225524Y-14397D01*
X224698Y-14950D01*
X224145Y-15777D01*
X223951Y-16752D01*
X224145Y-17727D01*
X224698Y-18554D01*
X225524Y-19107D01*
X226500Y-19301D01*
X227476Y-19107D01*
X228302Y-18554D01*
X228855Y-17727D01*
X229049Y-16752D01*
X228855Y-15777D01*
X228302Y-14950D01*
X227476Y-14397D01*
X226500Y-14203D01*
D02*
G37*
G36*
X263500Y-14694D02*
X262798Y-14833D01*
X262202Y-15231D01*
X261804Y-15826D01*
X261665Y-16529D01*
X261804Y-17231D01*
X262161Y-17764D01*
X261804Y-18298D01*
X261665Y-19000D01*
X261804Y-19702D01*
X262202Y-20298D01*
X262798Y-20696D01*
X263500Y-20835D01*
X264202Y-20696D01*
X264798Y-20298D01*
X265196Y-19702D01*
X265285Y-19255D01*
X265746Y-19063D01*
X265798Y-19097D01*
X266500Y-19237D01*
X267202Y-19097D01*
X267798Y-18700D01*
X268196Y-18104D01*
X268335Y-17402D01*
X268196Y-16700D01*
X267798Y-16104D01*
X267202Y-15706D01*
X266500Y-15567D01*
X265798Y-15706D01*
X265620Y-15825D01*
X265129Y-15728D01*
X264798Y-15231D01*
X264202Y-14833D01*
X263500Y-14694D01*
D02*
G37*
G36*
X277500Y-66203D02*
X276524Y-66397D01*
X275698Y-66950D01*
X275145Y-67777D01*
X274951Y-68752D01*
X275145Y-69727D01*
X275698Y-70554D01*
X276524Y-71107D01*
X277500Y-71301D01*
X278475Y-71107D01*
X279302Y-70554D01*
X279855Y-69727D01*
X280049Y-68752D01*
X279855Y-67777D01*
X279302Y-66950D01*
X278475Y-66397D01*
X277500Y-66203D01*
D02*
G37*
G36*
X246000Y-71165D02*
X245298Y-71304D01*
X245250Y-71336D01*
X245202Y-71304D01*
X244500Y-71165D01*
X243798Y-71304D01*
X243750Y-71336D01*
X243702Y-71304D01*
X243000Y-71165D01*
X242298Y-71304D01*
X241702Y-71702D01*
X241304Y-72298D01*
X241165Y-73000D01*
X241304Y-73702D01*
X241336Y-73750D01*
X241304Y-73798D01*
X241165Y-74500D01*
X241304Y-75202D01*
X241702Y-75798D01*
X242298Y-76196D01*
X243000Y-76335D01*
X243702Y-76196D01*
X243750Y-76164D01*
X243798Y-76196D01*
X244500Y-76335D01*
X245202Y-76196D01*
X245250Y-76164D01*
X245298Y-76196D01*
X246000Y-76335D01*
X246702Y-76196D01*
X247298Y-75798D01*
X247696Y-75202D01*
X247835Y-74500D01*
X247696Y-73798D01*
X247664Y-73750D01*
X247696Y-73702D01*
X247835Y-73000D01*
X247696Y-72298D01*
X247298Y-71702D01*
X246702Y-71304D01*
X246000Y-71165D01*
D02*
G37*
G36*
X257500Y-81951D02*
X256524Y-82145D01*
X255698Y-82698D01*
X255145Y-83525D01*
X254951Y-84500D01*
X255145Y-85475D01*
X255698Y-86302D01*
X256524Y-86855D01*
X257500Y-87049D01*
X258475Y-86855D01*
X259302Y-86302D01*
X259855Y-85475D01*
X260049Y-84500D01*
X259855Y-83525D01*
X259302Y-82698D01*
X258475Y-82145D01*
X257500Y-81951D01*
D02*
G37*
G36*
X329000Y-37857D02*
X328251Y-37956D01*
X327553Y-38245D01*
X326953Y-38705D01*
X326493Y-39305D01*
X326204Y-40003D01*
X326105Y-40752D01*
X326204Y-41501D01*
X326493Y-42199D01*
X326953Y-42799D01*
X327218Y-43002D01*
Y-43502D01*
X326953Y-43705D01*
X326493Y-44304D01*
X326204Y-45003D01*
X326105Y-45752D01*
X326204Y-46501D01*
X326493Y-47199D01*
X326953Y-47799D01*
X327553Y-48259D01*
X328251Y-48548D01*
X329000Y-48647D01*
X329749Y-48548D01*
X330447Y-48259D01*
X331047Y-47799D01*
X331507Y-47199D01*
X331796Y-46501D01*
X331895Y-45752D01*
X331796Y-45003D01*
X331507Y-44304D01*
X331047Y-43705D01*
X330782Y-43502D01*
Y-43002D01*
X331047Y-42799D01*
X331507Y-42199D01*
X331796Y-41501D01*
X331895Y-40752D01*
X331796Y-40003D01*
X331507Y-39305D01*
X331047Y-38705D01*
X330447Y-38245D01*
X329749Y-37956D01*
X329000Y-37857D01*
D02*
G37*
G36*
X292500Y-43417D02*
X291798Y-43556D01*
X291202Y-43954D01*
X290804Y-44550D01*
X290665Y-45252D01*
X290804Y-45954D01*
X291202Y-46550D01*
X291798Y-46948D01*
X292500Y-47087D01*
X293202Y-46948D01*
X293798Y-46550D01*
X294196Y-45954D01*
X294335Y-45252D01*
X294196Y-44550D01*
X293798Y-43954D01*
X293202Y-43556D01*
X292500Y-43417D01*
D02*
G37*
G36*
X208500Y-104385D02*
X207798Y-104525D01*
X207202Y-104923D01*
X206804Y-105518D01*
X206665Y-106220D01*
X206804Y-106923D01*
X207202Y-107518D01*
X207798Y-107916D01*
X208500Y-108056D01*
X209202Y-107916D01*
X209798Y-107518D01*
X210196Y-106923D01*
X210335Y-106220D01*
X210196Y-105518D01*
X209798Y-104923D01*
X209202Y-104525D01*
X208500Y-104385D01*
D02*
G37*
G36*
X297500Y-139165D02*
X296798Y-139304D01*
X296202Y-139702D01*
X295804Y-140298D01*
X295665Y-141000D01*
X295804Y-141702D01*
X296202Y-142298D01*
X296798Y-142696D01*
X297220Y-142780D01*
X297304Y-143202D01*
X297702Y-143798D01*
X298298Y-144196D01*
X299000Y-144335D01*
X299702Y-144196D01*
X300298Y-143798D01*
X300696Y-143202D01*
X300835Y-142500D01*
X300696Y-141798D01*
X300298Y-141202D01*
X299702Y-140804D01*
X299280Y-140720D01*
X299196Y-140298D01*
X298798Y-139702D01*
X298202Y-139304D01*
X297500Y-139165D01*
D02*
G37*
G36*
X284953Y-119712D02*
X284250Y-119852D01*
X283655Y-120249D01*
X283322Y-120748D01*
X282984Y-120680D01*
X282282Y-120820D01*
X281686Y-121218D01*
X281289Y-121813D01*
X281149Y-122516D01*
X281289Y-123218D01*
X281686Y-123813D01*
X282282Y-124211D01*
X282984Y-124351D01*
X283687Y-124211D01*
X284282Y-123813D01*
X284615Y-123315D01*
X284953Y-123382D01*
X285655Y-123243D01*
X286250Y-122845D01*
X286648Y-122250D01*
X286788Y-121547D01*
X286648Y-120845D01*
X286250Y-120249D01*
X285655Y-119852D01*
X284953Y-119712D01*
D02*
G37*
G36*
X292500Y-120165D02*
X291798Y-120304D01*
X291463Y-120528D01*
X291097Y-120675D01*
X291000D01*
X290493Y-120775D01*
X290063Y-121063D01*
X288063Y-123063D01*
X287775Y-123493D01*
X287674Y-124000D01*
Y-126951D01*
X287451Y-127174D01*
X277500D01*
X276993Y-127275D01*
X276563Y-127563D01*
X274563Y-129563D01*
X274275Y-129993D01*
X274174Y-130500D01*
Y-141951D01*
X270748Y-145378D01*
X270307Y-145142D01*
X270335Y-145000D01*
X270196Y-144298D01*
X270091Y-144142D01*
X270196Y-143986D01*
X270335Y-143283D01*
X270196Y-142581D01*
X269798Y-141986D01*
X269202Y-141588D01*
X268500Y-141448D01*
X267798Y-141588D01*
X267202Y-141986D01*
X266804Y-142581D01*
X266665Y-143283D01*
X266804Y-143986D01*
X266909Y-144142D01*
X266804Y-144298D01*
X266665Y-145000D01*
X266804Y-145702D01*
X267202Y-146298D01*
X267798Y-146696D01*
X268500Y-146835D01*
X268642Y-146807D01*
X268878Y-147248D01*
X267055Y-149071D01*
X266693Y-149226D01*
X266298Y-149304D01*
X265702Y-149702D01*
X265304Y-150298D01*
X265165Y-151000D01*
X265304Y-151702D01*
X265702Y-152298D01*
X266298Y-152696D01*
X266722Y-152780D01*
X266867Y-153258D01*
X265063Y-155063D01*
X264775Y-155493D01*
X264674Y-156000D01*
Y-174849D01*
X264528Y-175215D01*
X264304Y-175550D01*
X264165Y-176252D01*
X264304Y-176954D01*
X264702Y-177550D01*
X265298Y-177947D01*
X266000Y-178087D01*
X266702Y-177947D01*
X267298Y-177550D01*
X267696Y-176954D01*
X267835Y-176252D01*
X267696Y-175550D01*
X267472Y-175215D01*
X267325Y-174849D01*
Y-156549D01*
X272049Y-151825D01*
X289097D01*
X289463Y-151972D01*
X289798Y-152196D01*
X290500Y-152335D01*
X291202Y-152196D01*
X291798Y-151798D01*
X292196Y-151202D01*
X292335Y-150500D01*
X292196Y-149798D01*
X291798Y-149202D01*
X291202Y-148804D01*
X290500Y-148665D01*
X289798Y-148804D01*
X289463Y-149028D01*
X289097Y-149174D01*
X271500D01*
X271346Y-149205D01*
X271110Y-148764D01*
X276437Y-143437D01*
X276725Y-143007D01*
X276825Y-142500D01*
X276825Y-142500D01*
X276825Y-142500D01*
Y-142500D01*
Y-131049D01*
X278049Y-129825D01*
X288000D01*
X288507Y-129725D01*
X288937Y-129437D01*
X288937Y-129437D01*
X288937Y-129437D01*
X289937Y-128437D01*
X289937Y-128437D01*
X289937Y-128437D01*
X290225Y-128007D01*
X290325Y-127500D01*
Y-124549D01*
X291420Y-123455D01*
X291463Y-123472D01*
X291798Y-123696D01*
X292500Y-123835D01*
X293202Y-123696D01*
X293798Y-123298D01*
X294196Y-122702D01*
X294335Y-122000D01*
X294196Y-121298D01*
X293798Y-120702D01*
X293202Y-120304D01*
X292500Y-120165D01*
D02*
G37*
G36*
X257469Y-111031D02*
X256727Y-111179D01*
X256099Y-111599D01*
X255679Y-112227D01*
X255531Y-112969D01*
X255679Y-113710D01*
X256099Y-114338D01*
X256727Y-114758D01*
X257469Y-114906D01*
X258210Y-114758D01*
X258838Y-114338D01*
X259258Y-113710D01*
X259406Y-112969D01*
X259258Y-112227D01*
X258838Y-111599D01*
X258210Y-111179D01*
X257469Y-111031D01*
D02*
G37*
G36*
X253500Y-114951D02*
X252524Y-115145D01*
X251698Y-115698D01*
X251145Y-116525D01*
X250951Y-117500D01*
X251145Y-118475D01*
X251698Y-119302D01*
X252524Y-119855D01*
X253500Y-120049D01*
X254475Y-119855D01*
X255302Y-119302D01*
X255855Y-118475D01*
X256049Y-117500D01*
X255855Y-116525D01*
X255302Y-115698D01*
X254475Y-115145D01*
X253500Y-114951D01*
D02*
G37*
G36*
X233000Y-121951D02*
X232025Y-122145D01*
X231198Y-122698D01*
X230645Y-123524D01*
X230451Y-124500D01*
X230645Y-125475D01*
X231198Y-126302D01*
X232025Y-126855D01*
X233000Y-127049D01*
X233975Y-126855D01*
X234802Y-126302D01*
X235355Y-125475D01*
X235549Y-124500D01*
X235355Y-123524D01*
X234802Y-122698D01*
X233975Y-122145D01*
X233000Y-121951D01*
D02*
G37*
G36*
X296000Y-125165D02*
X295298Y-125304D01*
X294702Y-125702D01*
X294304Y-126298D01*
X294243Y-126605D01*
X293935Y-126667D01*
X293340Y-127065D01*
X292942Y-127660D01*
X292803Y-128362D01*
X292942Y-129065D01*
X293340Y-129660D01*
X293935Y-130058D01*
X294638Y-130198D01*
X295340Y-130058D01*
X295936Y-129660D01*
X296333Y-129065D01*
X296395Y-128757D01*
X296702Y-128696D01*
X297298Y-128298D01*
X297696Y-127702D01*
X297835Y-127000D01*
X297696Y-126298D01*
X297298Y-125702D01*
X296702Y-125304D01*
X296000Y-125165D01*
D02*
G37*
G36*
X222500Y-48111D02*
X221681Y-48274D01*
X220986Y-48738D01*
X220522Y-49433D01*
X220359Y-50252D01*
X220522Y-51071D01*
X220986Y-51766D01*
X221681Y-52230D01*
X222500Y-52393D01*
X223319Y-52230D01*
X224014Y-51766D01*
X224478Y-51071D01*
X224641Y-50252D01*
X224478Y-49433D01*
X224014Y-48738D01*
X223319Y-48274D01*
X222500Y-48111D01*
D02*
G37*
G36*
X291000Y-97105D02*
X290251Y-97204D01*
X289553Y-97493D01*
X288953Y-97953D01*
X288750Y-98218D01*
X288250D01*
X288047Y-97953D01*
X287447Y-97493D01*
X286749Y-97204D01*
X286000Y-97105D01*
X285251Y-97204D01*
X284553Y-97493D01*
X283953Y-97953D01*
X283493Y-98553D01*
X283204Y-99251D01*
X283105Y-100000D01*
X283204Y-100749D01*
X283493Y-101447D01*
X283953Y-102047D01*
X284553Y-102507D01*
X285251Y-102796D01*
X286000Y-102895D01*
X286749Y-102796D01*
X287447Y-102507D01*
X288047Y-102047D01*
X288250Y-101782D01*
X288750D01*
X288953Y-102047D01*
X289553Y-102507D01*
X290251Y-102796D01*
X291000Y-102895D01*
X291749Y-102796D01*
X292447Y-102507D01*
X293047Y-102047D01*
X293507Y-101447D01*
X293796Y-100749D01*
X293895Y-100000D01*
X293796Y-99251D01*
X293507Y-98553D01*
X293047Y-97953D01*
X292447Y-97493D01*
X291749Y-97204D01*
X291000Y-97105D01*
D02*
G37*
G36*
X252362Y-49617D02*
X251660Y-49756D01*
X251064Y-50154D01*
X250667Y-50750D01*
X250527Y-51452D01*
X250667Y-52154D01*
X250760Y-52294D01*
X250722Y-52352D01*
X250582Y-53054D01*
X250722Y-53757D01*
X251119Y-54352D01*
X251715Y-54750D01*
X252417Y-54890D01*
X253119Y-54750D01*
X253715Y-54352D01*
X254113Y-53757D01*
X254252Y-53054D01*
X254113Y-52352D01*
X254019Y-52212D01*
X254058Y-52154D01*
X254198Y-51452D01*
X254058Y-50750D01*
X253660Y-50154D01*
X253064Y-49756D01*
X252362Y-49617D01*
D02*
G37*
G36*
X286500Y-153165D02*
X285798Y-153304D01*
X285202Y-153702D01*
X284804Y-154298D01*
X284665Y-155000D01*
X284804Y-155702D01*
X285202Y-156298D01*
X285798Y-156696D01*
X286500Y-156835D01*
X287202Y-156696D01*
X287798Y-156298D01*
X288196Y-155702D01*
X288335Y-155000D01*
X288196Y-154298D01*
X287798Y-153702D01*
X287202Y-153304D01*
X286500Y-153165D01*
D02*
G37*
G36*
X247000Y-50917D02*
X246298Y-51056D01*
X245702Y-51454D01*
X245304Y-52050D01*
X245165Y-52752D01*
X245304Y-53454D01*
X245702Y-54050D01*
X246298Y-54448D01*
X247000Y-54587D01*
X247702Y-54448D01*
X248298Y-54050D01*
X248696Y-53454D01*
X248835Y-52752D01*
X248696Y-52050D01*
X248298Y-51454D01*
X247702Y-51056D01*
X247000Y-50917D01*
D02*
G37*
%LPD*%
G36*
X291929Y-122560D02*
X291278Y-122300D01*
Y-121700D01*
X291929Y-121440D01*
Y-122560D01*
D02*
G37*
G36*
X266560Y-175681D02*
X265440D01*
X265700Y-175030D01*
X266300D01*
X266560Y-175681D01*
D02*
G37*
G36*
X289929Y-151060D02*
X289278Y-150800D01*
Y-150200D01*
X289929Y-149940D01*
Y-151060D01*
D02*
G37*
G36*
X268076Y-150348D02*
X267800Y-150992D01*
X267008Y-150200D01*
X267652Y-149924D01*
X268076Y-150348D01*
D02*
G37*
D45*
X262000Y-89252D02*
X265500Y-85752D01*
X276500Y-53500D02*
Y-52752D01*
X265500Y-85752D02*
Y-64500D01*
X276500Y-53500D01*
D46*
X170500Y-67752D02*
X175013Y-72265D01*
Y-154876D02*
Y-72265D01*
X174637Y-155252D02*
X175013Y-154876D01*
X158302Y-70600D02*
X167444Y-79742D01*
Y-151493D02*
Y-79742D01*
X157837Y-161100D02*
X167444Y-151493D01*
X158675Y-69700D02*
X168475Y-79500D01*
Y-151777D02*
Y-79500D01*
X159437Y-160815D02*
X168475Y-151777D01*
X168500Y-67803D02*
X173876Y-73179D01*
X173437Y-155179D02*
X173876Y-154740D01*
X166500Y-68563D02*
X172976Y-75039D01*
X172395Y-154948D02*
X172976Y-154367D01*
X165000Y-69463D02*
X172076Y-76539D01*
X171495Y-154575D02*
X172076Y-153994D01*
X169537Y-76000D02*
X171176Y-77639D01*
X164137Y-160661D02*
X171176Y-153622D01*
X161500Y-69963D02*
X170276Y-78739D01*
X162537Y-160988D02*
X170276Y-153249D01*
Y-78739D01*
X171176Y-153622D02*
Y-77639D01*
X172076Y-153994D02*
Y-76539D01*
X172976Y-154367D02*
Y-75039D01*
X173876Y-154740D02*
Y-73179D01*
X174637Y-157889D02*
Y-155252D01*
X159048Y-68800D02*
X169376Y-79128D01*
Y-152876D02*
Y-79128D01*
X161037Y-161215D02*
X169376Y-152876D01*
X173437Y-159189D02*
Y-155179D01*
X172395Y-155130D02*
Y-154948D01*
X171495Y-154757D02*
Y-154575D01*
X166500Y-159752D02*
X171495Y-154757D01*
X172237Y-155288D02*
X172395Y-155130D01*
X172237Y-159989D02*
Y-155288D01*
X149075Y-70600D02*
X158302D01*
X119837Y-42163D02*
X122000Y-40000D01*
X119837Y-77415D02*
Y-42163D01*
X127050Y-42202D02*
Y-37000D01*
X121637Y-47615D02*
X127050Y-42202D01*
X263637Y-97000D02*
X264437Y-96200D01*
X256702Y-97000D02*
X263637D01*
X247450Y-106252D02*
X256702Y-97000D01*
X308000Y-4500D02*
X317748D01*
X304000Y-8500D02*
X308000Y-4500D01*
X317748D02*
X320000Y-6752D01*
X216737Y-8500D02*
X304000D01*
X316500Y-66000D02*
Y-15000D01*
X323500Y-8000D01*
Y-3752D01*
X267151Y-92652D02*
X268500Y-91303D01*
X228537Y-169000D02*
Y-155700D01*
X266965Y-90787D02*
Y-65972D01*
X153429Y-71800D02*
X156887Y-75258D01*
X144848Y-73600D02*
X148848D01*
X149002Y-71800D02*
X153429D01*
X152137Y-72700D02*
X155337Y-75900D01*
X177088Y-68251D02*
X177214D01*
X168500Y-67803D02*
Y-67752D01*
X144600Y-66125D02*
X149075Y-70600D01*
X149448Y-69700D02*
X158675D01*
X149821Y-68800D02*
X159048D01*
X182737Y-50300D02*
Y-42438D01*
X178051Y-37752D02*
X182737Y-42438D01*
X182500Y-39752D02*
Y-33752D01*
X177937Y-37752D02*
X178051D01*
X182037Y-51000D02*
X182737Y-50300D01*
X181148Y-32400D02*
X182500Y-33752D01*
X172037Y-40700D02*
X172589Y-41252D01*
X170437Y-42400D02*
Y-38300D01*
X172589Y-41252D02*
X179500D01*
X266002Y-91750D02*
X266965Y-90787D01*
X265909Y-92652D02*
X267151D01*
X265908Y-92650D02*
X265909Y-92652D01*
X256951Y-92650D02*
X265908D01*
X266965Y-65972D02*
X276937Y-56000D01*
X188751Y-148001D02*
X195200Y-141552D01*
X190337Y-151200D02*
X196100Y-145437D01*
X192137Y-152700D02*
X197000Y-147837D01*
X124737Y-165752D02*
Y-161015D01*
X123237Y-164252D02*
Y-160515D01*
X113037Y-153789D02*
X121637Y-162389D01*
Y-165752D02*
Y-162389D01*
X127000Y-158752D02*
X144110D01*
X181000Y-140252D02*
X186000Y-135252D01*
X184000Y-143252D02*
X188000Y-139252D01*
X182500Y-141752D02*
X187100Y-137152D01*
X247450Y-109000D02*
Y-106252D01*
X244500Y-105101D02*
X256951Y-92650D01*
X243500Y-104828D02*
X256578Y-91750D01*
X224922Y-137330D02*
X230873D01*
X224322Y-136430D02*
X230500D01*
X226123Y-140230D02*
X232074D01*
X206000Y-160353D02*
X226123Y-140230D01*
X206000Y-163701D02*
Y-160353D01*
X197237Y-160100D02*
X201050Y-156287D01*
X256578Y-91750D02*
X266002D01*
X306685Y-34752D02*
Y-24437D01*
X277337Y-57000D02*
X305752D01*
X276937Y-56000D02*
X304500D01*
X268500Y-65837D02*
X277337Y-57000D01*
X187500Y-146252D02*
X189937Y-143815D01*
X186000Y-144752D02*
X189037Y-141715D01*
X180304Y-30820D02*
X182012Y-29112D01*
X172257Y-30820D02*
X180304D01*
X177937Y-32400D02*
X181148D01*
X173000Y-14752D02*
X179000Y-8752D01*
X166500Y-14752D02*
X173000D01*
X174848Y-16752D02*
X179000Y-12600D01*
X166500Y-16752D02*
X174848D01*
X167657Y-18252D02*
X179000D01*
X167026Y-33752D02*
X169026Y-35752D01*
X179000D01*
X176000Y-20252D02*
X178000Y-22252D01*
X171777Y-31300D02*
X172257Y-30820D01*
X170589Y-57252D02*
X177389D01*
X178537Y-58400D01*
X168137Y-54800D02*
X170589Y-57252D01*
X168000Y-20252D02*
X176000D01*
X166500Y-21752D02*
X168000Y-20252D01*
X166500Y-19410D02*
X167509Y-18400D01*
X146400Y-65379D02*
Y-20352D01*
X148000Y-18752D02*
X149500D01*
X146400Y-20352D02*
X148000Y-18752D01*
X140500Y-69252D02*
Y-40752D01*
Y-69252D02*
X144848Y-73600D01*
X143500Y-66298D02*
X149002Y-71800D01*
X145500Y-65752D02*
X149448Y-69700D01*
X146400Y-65379D02*
X149821Y-68800D01*
X148448Y-72700D02*
X152137D01*
X142000Y-66252D02*
X148448Y-72700D01*
X151437Y-158725D02*
Y-98416D01*
X147837Y-94816D02*
X151437Y-98416D01*
X146937Y-95189D02*
X150137Y-98389D01*
X145137Y-96200D02*
X147837Y-98900D01*
Y-94816D02*
Y-80589D01*
X144000Y-76752D02*
X147837Y-80589D01*
X142000Y-76252D02*
X146937Y-81189D01*
Y-95189D02*
Y-81189D01*
X150137Y-158752D02*
Y-98389D01*
X148737Y-98627D02*
Y-98527D01*
X148837Y-154025D02*
Y-98627D01*
X144000Y-80752D02*
X146037Y-82789D01*
Y-95827D02*
Y-82789D01*
Y-95827D02*
X148737Y-98527D01*
X144000Y-76752D02*
Y-75252D01*
Y-82252D02*
X145137Y-83389D01*
Y-96200D02*
Y-83389D01*
X142000Y-76252D02*
Y-74252D01*
Y-82252D02*
X144000D01*
X145500Y-65752D02*
Y-16752D01*
X152637Y-9615D01*
X143500Y-13900D02*
X148500Y-8900D01*
X144600Y-15152D02*
X148500Y-11252D01*
X144600Y-66125D02*
Y-15152D01*
X143500Y-66298D02*
Y-13900D01*
X306685Y-53815D02*
Y-34752D01*
X308500Y-38752D02*
Y-22252D01*
Y-54252D02*
Y-38752D01*
X305752Y-57000D02*
X308500Y-54252D01*
X304500Y-56000D02*
X306685Y-53815D01*
X171777Y-32751D02*
Y-31300D01*
X121637Y-78800D02*
Y-47615D01*
X111237Y-86015D02*
X119837Y-77415D01*
X113037Y-87400D02*
X121637Y-78800D01*
X91837Y-93300D02*
X102937Y-104400D01*
X92737Y-92927D02*
X103837Y-104027D01*
Y-164400D02*
Y-104027D01*
X102937Y-166000D02*
Y-104400D01*
X113037Y-153789D02*
Y-87400D01*
X123237Y-160515D02*
X126500Y-157252D01*
X144337D01*
X147837Y-153752D01*
Y-98900D01*
X144110Y-158752D02*
X148837Y-154025D01*
X124737Y-161015D02*
X127000Y-158752D01*
X149137Y-159752D02*
X150137Y-158752D01*
X139000Y-159752D02*
X149137D01*
X137500Y-163552D02*
Y-161252D01*
X139000Y-159752D01*
X138937Y-165752D02*
X138950Y-165739D01*
Y-162951D01*
X138937Y-162938D02*
X138950Y-162951D01*
X138937Y-162938D02*
Y-162315D01*
X140600Y-160652D01*
X149510D01*
X151437Y-158725D01*
X140537Y-163552D02*
X142537Y-161552D01*
X149937D01*
X142137Y-165752D02*
X147010D01*
X157837D02*
Y-161100D01*
X159437Y-163552D02*
Y-160815D01*
X162537Y-163552D02*
Y-160988D01*
X161037Y-165752D02*
Y-161215D01*
X164137Y-165752D02*
Y-160661D01*
X166500Y-165752D02*
Y-159752D01*
X172237Y-159989D02*
X177000Y-164752D01*
X180500D01*
X173437Y-159189D02*
X176874Y-162626D01*
X180500D01*
X174637Y-157889D02*
X177248Y-160500D01*
X180500D01*
X194037Y-154300D02*
X198000Y-150337D01*
X195337Y-155900D02*
X199000Y-152237D01*
X209752Y-152500D02*
X224922Y-137330D01*
X142000Y-66252D02*
Y-30752D01*
X114000Y-184252D02*
Y-182752D01*
X116500Y-180252D01*
X130500D01*
X132500Y-178252D01*
X190652Y-18100D02*
X192500D01*
X189500Y-12752D02*
X192500D01*
X191000Y-16100D02*
X192500D01*
X188500Y-10752D02*
X192500D01*
X164748Y-61000D02*
X166500Y-62752D01*
X163737Y-61000D02*
X164748D01*
X166500Y-68563D02*
Y-62752D01*
X165000Y-69463D02*
Y-64752D01*
X163000Y-69576D02*
Y-65252D01*
X164587Y-71163D02*
X169537Y-76000D01*
X163000Y-69576D02*
X164587Y-71163D01*
X161500Y-69963D02*
Y-66752D01*
X170437Y-42400D02*
X176289Y-48252D01*
X178500D01*
X179252Y-51000D02*
X182037D01*
X111237Y-153737D02*
X120000Y-162500D01*
X111237Y-153737D02*
Y-86015D01*
X120000Y-164252D02*
Y-162500D01*
X103837Y-164400D02*
X105437Y-166000D01*
X222237Y-149000D02*
X222337Y-148900D01*
X226337Y-166600D02*
Y-152600D01*
X191152Y-20100D02*
X192500D01*
X195937Y-46052D02*
Y-32500D01*
X194737Y-47252D02*
X195937Y-46052D01*
X194737Y-123237D02*
Y-47252D01*
X209687Y-1450D02*
X216737Y-8500D01*
X127550Y-1450D02*
X209687D01*
X152637Y-9615D02*
Y-6637D01*
X224337Y-169400D02*
Y-150800D01*
X125350Y-3650D02*
X127550Y-1450D01*
X125350Y-35300D02*
X127050Y-37000D01*
X125350Y-35300D02*
Y-3650D01*
X148848Y-73600D02*
X152087Y-76839D01*
Y-82866D02*
Y-76839D01*
X152050Y-82903D02*
X152087Y-82866D01*
X152050Y-97756D02*
Y-82903D01*
Y-97756D02*
X152337Y-98043D01*
Y-159152D02*
Y-98043D01*
X149937Y-161552D02*
X152337Y-159152D01*
X155337Y-157425D02*
Y-75900D01*
X147010Y-165752D02*
X155337Y-157425D01*
X156237Y-163552D02*
Y-77192D01*
X156887Y-76542D01*
Y-75258D01*
X195200Y-141552D02*
Y-127000D01*
X196100Y-145437D02*
Y-126627D01*
X197000Y-147837D02*
Y-125500D01*
X194737Y-123237D02*
X197000Y-125500D01*
X196237Y-123237D02*
Y-49600D01*
X198000Y-150337D02*
Y-125000D01*
X196237Y-123237D02*
X198000Y-125000D01*
X199000Y-152237D02*
Y-124727D01*
X196937Y-157400D02*
X199900Y-154437D01*
X197137Y-47600D02*
X197687Y-48150D01*
Y-123414D02*
X199000Y-124727D01*
X197687Y-123414D02*
Y-48150D01*
X199900Y-154437D02*
Y-124354D01*
Y-124313D01*
X197937Y-45600D02*
X198587Y-46250D01*
Y-123041D02*
X199900Y-124354D01*
X198587Y-123041D02*
Y-46250D01*
X198937Y-43600D02*
X199500Y-44163D01*
Y-122656D02*
Y-44163D01*
Y-122656D02*
X200257Y-123413D01*
X200273D01*
X201050Y-156287D02*
Y-124190D01*
X200273Y-123413D02*
X201050Y-124190D01*
X248137Y-167600D02*
X248237Y-167500D01*
X248137Y-167600D02*
Y-163137D01*
X246137Y-168389D02*
Y-161637D01*
X63000Y-12252D02*
X76089D01*
X91837Y-93300D02*
Y-28000D01*
X76089Y-12252D02*
X91837Y-28000D01*
X92737Y-92927D02*
Y-27627D01*
X75362Y-10252D02*
X92737Y-27627D01*
X63000Y-10252D02*
X75362D01*
X247450Y-109000D02*
X251000D01*
X237000Y-158500D02*
Y-141000D01*
X235500Y-139500D02*
X237000Y-141000D01*
X205500Y-152500D02*
X209752D01*
X205500Y-150500D02*
X210252D01*
X224322Y-136430D01*
X194937Y-31500D02*
X195937Y-32500D01*
X191287Y-23465D02*
X192500Y-22252D01*
X192937Y-124737D02*
X195200Y-127000D01*
X193837Y-124364D02*
X196100Y-126627D01*
X186000Y-13252D02*
X188500Y-10752D01*
X187100Y-15152D02*
X189500Y-12752D01*
X188000Y-19100D02*
X191000Y-16100D01*
X189037Y-19715D02*
X190652Y-18100D01*
X189937Y-21315D02*
X191152Y-20100D01*
X191287Y-32901D02*
X192937Y-34551D01*
Y-124737D02*
Y-34551D01*
X193837Y-124364D02*
Y-33400D01*
X191287Y-32901D02*
Y-23465D01*
X186000Y-135252D02*
Y-13252D01*
X187100Y-137152D02*
Y-15152D01*
X188000Y-139252D02*
Y-19100D01*
X189037Y-141715D02*
Y-19715D01*
X189937Y-143815D02*
Y-21315D01*
X192737Y-31500D02*
X194937D01*
X230500Y-136430D02*
X243500Y-123430D01*
Y-104828D01*
X230873Y-137330D02*
X244500Y-123703D01*
Y-105101D01*
X232074Y-140230D02*
X247450Y-124854D01*
Y-109000D01*
X167000Y-33752D02*
X167013Y-33765D01*
X222237Y-166700D02*
Y-149500D01*
Y-149000D01*
X268500Y-91303D02*
Y-89237D01*
Y-65837D01*
D48*
X13000Y-181252D02*
Y-172752D01*
X25500Y-160252D01*
X50697D01*
X27052Y-161700D02*
X50448D01*
X18000Y-170752D02*
X27052Y-161700D01*
X18000Y-181252D02*
Y-170752D01*
X135500Y-168752D02*
Y-163552D01*
X132052Y-172200D02*
X135500Y-168752D01*
X60948Y-172200D02*
X132052D01*
X50448Y-161700D02*
X60948Y-172200D01*
X133500Y-168752D02*
Y-163552D01*
X50697Y-160252D02*
X61445Y-171000D01*
X131252D01*
X133500Y-168752D01*
D49*
X164700Y-114800D02*
Y-93700D01*
X159500Y-88500D02*
X164700Y-93700D01*
X22000Y-16500D02*
X28000D01*
X10000Y-28500D02*
X22000Y-16500D01*
X10000Y-77000D02*
Y-28500D01*
X159500Y-88500D02*
Y-81252D01*
X161137Y-116500D02*
X163000D01*
X234000Y-31752D02*
X237500D01*
X239500Y-44252D02*
X241300Y-46052D01*
X239500Y-44252D02*
Y-33752D01*
X237500Y-31752D02*
X239500Y-33752D01*
X267389Y-44252D02*
X276500D01*
X265589Y-46052D02*
X267389Y-44252D01*
X241300Y-46052D02*
X265589D01*
X7161Y-79839D02*
X10000Y-77000D01*
X163000Y-116500D02*
X164700Y-114800D01*
X83500Y-7000D02*
X91500Y-15000D01*
X80500Y-7000D02*
X83500D01*
X7161Y-121161D02*
Y-121000D01*
Y-79839D01*
D50*
X164252Y-186000D02*
X173202Y-177050D01*
X149047Y-186000D02*
X164252D01*
X146937Y-183890D02*
X149047Y-186000D01*
X164500Y-184252D02*
X172702Y-176050D01*
X250000Y-168752D02*
Y-164500D01*
X249823Y-171050D02*
X253500Y-167373D01*
X254500Y-167788D02*
Y-160500D01*
X250237Y-172050D02*
X254500Y-167788D01*
X255500Y-168202D02*
Y-155500D01*
X250652Y-173050D02*
X255500Y-168202D01*
X256500Y-168616D02*
Y-155086D01*
X251066Y-174050D02*
X256500Y-168616D01*
X257500Y-169030D02*
Y-154672D01*
X251480Y-175050D02*
X257500Y-169030D01*
X258500Y-169444D02*
Y-154257D01*
X251894Y-176050D02*
X258500Y-169444D01*
X259500Y-169859D02*
Y-153500D01*
X252309Y-177050D02*
X259500Y-169859D01*
X170123Y-171050D02*
X249823D01*
X253500Y-167373D02*
Y-162500D01*
X170537Y-172050D02*
X250237D01*
X253500Y-159500D02*
X254500Y-160500D01*
X170951Y-173050D02*
X250652D01*
X251500Y-151500D02*
X255500Y-155500D01*
X171365Y-174050D02*
X251066D01*
X253000Y-151586D02*
X256500Y-155086D01*
X171780Y-175050D02*
X251480D01*
X254500Y-151672D02*
X257500Y-154672D01*
X172702Y-176050D02*
X251894D01*
X256000Y-151757D02*
X258500Y-154257D01*
X257500Y-151500D02*
X259500Y-153500D01*
X252500Y-161500D02*
X253500Y-162500D01*
X236000Y-47752D02*
X264000D01*
X276343Y-60752D02*
X285000D01*
X271500Y-65595D02*
X276343Y-60752D01*
X271500Y-91666D02*
Y-65595D01*
X270500Y-91252D02*
Y-65180D01*
X264000Y-47752D02*
X265500Y-49252D01*
X265516Y-93602D02*
X268150D01*
X265514Y-93600D02*
X265516Y-93602D01*
X257344Y-93600D02*
X265514D01*
X265102Y-94602D02*
X268564D01*
X265100Y-94600D02*
X265102Y-94602D01*
X263774Y-94600D02*
X265100D01*
X263772Y-94602D02*
X263774Y-94600D01*
X257756Y-94602D02*
X263772D01*
X268150Y-93602D02*
X270500Y-91252D01*
X268564Y-94602D02*
X271500Y-91666D01*
X197500Y-168252D02*
X201000Y-164752D01*
X170000Y-168252D02*
X197500D01*
X166752Y-171500D02*
X170000Y-168252D01*
X135308Y-170500D02*
X165500D01*
X195500Y-167037D02*
X202000Y-160537D01*
X165500Y-170500D02*
X168963Y-167037D01*
X195500D01*
X111137Y-77000D02*
Y-71783D01*
X111100Y-71746D02*
X111137Y-71783D01*
X111100Y-71746D02*
Y-69758D01*
X146820Y-177409D02*
X148320Y-178909D01*
X143670Y-180209D02*
X144370Y-180909D01*
X145245Y-178809D02*
X146345Y-179909D01*
X153119Y-177409D02*
X153619Y-177909D01*
X146937Y-183890D02*
Y-182700D01*
X94337Y-155200D02*
X97037Y-157900D01*
X245500Y-105444D02*
X257344Y-93600D01*
X225316Y-138280D02*
X231266D01*
X225730Y-139280D02*
X231680D01*
X204000Y-161010D02*
X225730Y-139280D01*
X206344Y-157252D02*
X225316Y-138280D01*
X204000Y-167752D02*
Y-161010D01*
X204500Y-157252D02*
X206344D01*
X246500Y-105859D02*
X257756Y-94602D01*
X132508Y-173300D02*
X135308Y-170500D01*
X165920Y-180909D02*
X171780Y-175050D01*
X165506Y-179909D02*
X171365Y-174050D01*
X165092Y-178909D02*
X170951Y-173050D01*
X164678Y-177909D02*
X170537Y-172050D01*
X56548Y-153800D02*
X96452D01*
X89485Y-169752D02*
X91737Y-167500D01*
X62500Y-169752D02*
X89485D01*
X50048Y-157300D02*
X62500Y-169752D01*
X44237Y-157300D02*
X50048D01*
X179437Y-12600D02*
X179537Y-12700D01*
X111100Y-69758D02*
X111137Y-69721D01*
X107637Y-101100D02*
Y-80500D01*
X91737Y-167500D02*
X96437D01*
X106237Y-102500D02*
X107637Y-101100D01*
Y-80500D02*
X111137Y-77000D01*
X150085Y-184252D02*
X164500D01*
X144370Y-180909D02*
X165920D01*
X146345Y-179909D02*
X165506D01*
X148320Y-178909D02*
X165092D01*
X153619Y-177909D02*
X164678D01*
X270500Y-65180D02*
X276928Y-58752D01*
X290500D01*
X33000Y-152200D02*
Y-144752D01*
Y-152200D02*
X36000Y-155200D01*
X94337D01*
X52000Y-149252D02*
X56548Y-153800D01*
X52000Y-149252D02*
Y-144752D01*
X217000Y-110115D02*
X217137Y-110252D01*
X217000Y-110115D02*
Y-101252D01*
X202000Y-160537D02*
Y-147958D01*
X234500Y-115458D02*
Y-50752D01*
X202000Y-147958D02*
X234500Y-115458D01*
X202500Y-143252D02*
X204601D01*
X205685Y-140752D02*
X207237Y-139200D01*
X217137Y-129200D01*
X202500Y-140752D02*
X205685D01*
X217137Y-129200D02*
Y-110252D01*
X228500Y-29752D02*
X231500Y-26752D01*
X234500D01*
Y-50752D02*
X236000Y-49252D01*
X224000Y-56752D02*
X227500Y-53252D01*
Y-28752D01*
X211500Y-93752D02*
X221500D01*
X224000Y-91252D01*
Y-56752D01*
X217000Y-101252D02*
X225000Y-93252D01*
Y-57252D01*
X228500Y-53752D01*
Y-29752D01*
X236000Y-49252D02*
X237500D01*
X233500Y-50252D02*
X236000Y-47752D01*
X44948Y-169200D02*
X49048Y-173300D01*
X41737Y-169200D02*
X44948D01*
X49048Y-173300D02*
X132508D01*
X245000Y-23752D02*
X247500Y-21252D01*
X227500Y-28752D02*
X232500Y-23752D01*
X245000D01*
X247500Y-21252D02*
Y-19752D01*
X257500Y-151500D02*
Y-140500D01*
X256000Y-151757D02*
Y-138500D01*
X257500Y-137000D01*
X254500Y-151672D02*
Y-132500D01*
X257000Y-130000D01*
X253000Y-151586D02*
Y-130252D01*
X251500Y-151500D02*
Y-146000D01*
X291000Y-122000D02*
X292500D01*
X289000Y-124000D02*
X291000Y-122000D01*
X289000Y-127500D02*
Y-124000D01*
X288000Y-128500D02*
X289000Y-127500D01*
X277500Y-128500D02*
X288000D01*
X275500Y-130500D02*
X277500Y-128500D01*
X275500Y-142500D02*
Y-130500D01*
X267000Y-151000D02*
X275500Y-142500D01*
X266000Y-176252D02*
Y-156000D01*
X271500Y-150500D01*
X290500D01*
X134000Y-184252D02*
X135500Y-182752D01*
Y-174000D02*
X138000Y-171500D01*
X135500Y-182752D02*
Y-174000D01*
X138000Y-171500D02*
X166752D01*
X138500Y-178000D02*
Y-174500D01*
X140500Y-172500D01*
X168673D02*
X170123Y-171050D01*
X140500Y-172500D02*
X168673D01*
X40500Y-11000D02*
X54500D01*
X36937Y-7437D02*
X40500Y-11000D01*
X36937Y-7437D02*
Y-3000D01*
X204601Y-143252D02*
X233500Y-114353D01*
Y-50252D01*
X54500Y-11000D02*
X57000Y-8500D01*
X230000Y-184000D02*
X231500Y-182500D01*
X173202Y-177050D02*
X231500D01*
X252309D01*
X231500Y-182500D02*
Y-177050D01*
X57000Y-8500D02*
X75998D01*
X111137Y-69721D02*
Y-43639D01*
X75998Y-8500D02*
X111137Y-43639D01*
X231266Y-138280D02*
X245500Y-124046D01*
Y-105444D01*
X231680Y-139280D02*
X246500Y-124460D01*
Y-105859D01*
X253000Y-130252D02*
X257000Y-126252D01*
X97037Y-163700D02*
Y-163252D01*
Y-157900D01*
D51*
X204000Y-57252D02*
Y-32000D01*
Y-27252D01*
X192000Y-4100D02*
X196600Y-8700D01*
Y-19852D02*
X204000Y-27252D01*
X196600Y-19852D02*
Y-8700D01*
D52*
X195340Y-18592D02*
Y-8773D01*
X128000Y-5252D02*
X129652Y-3600D01*
X136500D01*
X190166D01*
X134000Y-29000D02*
X136500Y-26500D01*
Y-3600D01*
X130500Y-29000D02*
X134000D01*
X83000Y-29500D02*
X89500D01*
X70500Y-17000D02*
X83000Y-29500D01*
X40937Y-17000D02*
X70500D01*
X204252Y-32252D02*
X209000D01*
X204000Y-32000D02*
X204252Y-32252D01*
X190166Y-3600D02*
X195340Y-8773D01*
Y-18592D02*
X196600Y-19852D01*
D70*
X215972Y-73228D02*
D03*
X334870Y-23228D02*
D03*
Y-164961D02*
D03*
X2587D02*
D03*
X2587Y-23228D02*
D03*
D71*
X281000Y-100000D02*
D03*
X286000D02*
D03*
X291000D02*
D03*
X23000Y-181252D02*
D03*
X18000D02*
D03*
X13000D02*
D03*
X8000D02*
D03*
X192537Y-163700D02*
D03*
X187537D02*
D03*
X329000Y-45752D02*
D03*
Y-40752D02*
D03*
X109000Y-184252D02*
D03*
X114000D02*
D03*
X119000D02*
D03*
X124000D02*
D03*
X129000D02*
D03*
X134000D02*
D03*
X139000D02*
D03*
D72*
X51579Y-169200D02*
D03*
X41737D02*
D03*
X31894D02*
D03*
D74*
X131859Y-129891D02*
D03*
D75*
X253500Y-117500D02*
D03*
X50000Y-183500D02*
D03*
Y-180000D02*
D03*
X47000Y-181500D02*
D03*
Y-185000D02*
D03*
X53000Y-180000D02*
D03*
X7000Y-121000D02*
D03*
X295250Y-86250D02*
D03*
X235500Y-16500D02*
D03*
X286750Y-3752D02*
D03*
X218500Y-16752D02*
D03*
X209000Y-19752D02*
D03*
X226500Y-16752D02*
D03*
X209000Y-32252D02*
D03*
X238283Y-165469D02*
D03*
X277500Y-68752D02*
D03*
X307500Y-172437D02*
D03*
X308500Y-177937D02*
D03*
X130000Y-164752D02*
D03*
X160707Y-112659D02*
D03*
X18207Y-161659D02*
D03*
X40937Y-17000D02*
D03*
X17968Y-137284D02*
D03*
X282000Y-51752D02*
D03*
X205000Y-7752D02*
D03*
X168500Y-30252D02*
D03*
X118000Y-30052D02*
D03*
X298957Y-61910D02*
D03*
X257500Y-84500D02*
D03*
X62500Y-164752D02*
D03*
X68337Y-25700D02*
D03*
X80707Y-141659D02*
D03*
X141032Y-97783D02*
D03*
X134500Y-110752D02*
D03*
X294250Y-19502D02*
D03*
X323532Y-13721D02*
D03*
X208000Y-43752D02*
D03*
X213000D02*
D03*
X114500Y-11252D02*
D03*
X100500Y-3252D02*
D03*
X200500Y-14752D02*
D03*
X294250Y-5250D02*
D03*
X302500Y-154000D02*
D03*
Y-158000D02*
D03*
X161207Y-133159D02*
D03*
X128000Y-5252D02*
D03*
X132500Y-19252D02*
D03*
X89500Y-29500D02*
D03*
X28000Y-16500D02*
D03*
X204000Y-57252D02*
D03*
X233000Y-124500D02*
D03*
X247000Y-133500D02*
D03*
X220000Y-115500D02*
D03*
X247000Y-130000D02*
D03*
D76*
X266800Y-123700D02*
D03*
X293438Y-108000D02*
D03*
X289300D02*
D03*
X318263D02*
D03*
X322400D02*
D03*
X308000Y-153000D02*
D03*
X339600Y-154700D02*
D03*
X336333Y-157500D02*
D03*
X339500D02*
D03*
X297300Y-116200D02*
D03*
X333167Y-157500D02*
D03*
X330000D02*
D03*
X314125Y-108000D02*
D03*
X309987D02*
D03*
X297300Y-112500D02*
D03*
X305850Y-108000D02*
D03*
X301712D02*
D03*
X297575D02*
D03*
X268700Y-125700D02*
D03*
X326836Y-156500D02*
D03*
X315534D02*
D03*
X311767D02*
D03*
X308000D02*
D03*
X319302D02*
D03*
X323069D02*
D03*
X326636Y-153000D02*
D03*
X315334D02*
D03*
X311567D02*
D03*
X319102D02*
D03*
X322869D02*
D03*
X297900Y-150200D02*
D03*
X277524Y-181400D02*
D03*
Y-178650D02*
D03*
X280783Y-173150D02*
D03*
X284041Y-170400D02*
D03*
X287300Y-181400D02*
D03*
X277524Y-175900D02*
D03*
X284041Y-181400D02*
D03*
X298000Y-159000D02*
D03*
X287300Y-178650D02*
D03*
X277524Y-173150D02*
D03*
X284041Y-175900D02*
D03*
X298100Y-156200D02*
D03*
X280783Y-181400D02*
D03*
X284041Y-178650D02*
D03*
X298000Y-153200D02*
D03*
X287300Y-175900D02*
D03*
X280783Y-178650D02*
D03*
X284041Y-173150D02*
D03*
X284900Y-161000D02*
D03*
X287300Y-167650D02*
D03*
X280783Y-175900D02*
D03*
Y-170400D02*
D03*
X281500Y-160900D02*
D03*
X287300Y-173150D02*
D03*
Y-170400D02*
D03*
X284041Y-167650D02*
D03*
X280783D02*
D03*
X277524Y-170400D02*
D03*
X322769Y-149500D02*
D03*
X319002D02*
D03*
X308000D02*
D03*
X311467D02*
D03*
X315234D02*
D03*
X279724Y-54027D02*
D03*
X293012Y-167463D02*
D03*
X277524Y-167650D02*
D03*
X313076Y-87074D02*
D03*
X313153Y-101105D02*
D03*
X160892Y-57618D02*
D03*
X177711Y-60895D02*
D03*
X266638Y-114112D02*
D03*
X266648Y-116639D02*
D03*
X122000Y-40000D02*
D03*
X38000Y-29937D02*
D03*
X326536Y-149500D02*
D03*
X330000Y-154500D02*
D03*
X336278Y-119752D02*
D03*
X332889D02*
D03*
X329500D02*
D03*
X326536Y-145808D02*
D03*
Y-142419D02*
D03*
Y-139030D02*
D03*
Y-135641D02*
D03*
Y-132252D02*
D03*
Y-129252D02*
D03*
X268515Y-89237D02*
D03*
X155337Y-75900D02*
D03*
X266237Y-34900D02*
D03*
X264437Y-96200D02*
D03*
X162000Y-81252D02*
D03*
X179337Y-28900D02*
D03*
X54759Y-30691D02*
D03*
X51759Y-33691D02*
D03*
X161137Y-116500D02*
D03*
X254437Y-86700D02*
D03*
X48859Y-36691D02*
D03*
X14000Y-3000D02*
D03*
X251000Y-109000D02*
D03*
X56000Y-159252D02*
D03*
X158637Y-54600D02*
D03*
X159500Y-81252D02*
D03*
X33000Y-144752D02*
D03*
X42500D02*
D03*
X52000D02*
D03*
X67937Y-147900D02*
D03*
X339667Y-119752D02*
D03*
X43937Y-4500D02*
D03*
X29937Y-3000D02*
D03*
X36937D02*
D03*
X257469Y-112969D02*
D03*
X317478Y-118082D02*
D03*
X320340D02*
D03*
X323201D02*
D03*
X326536D02*
D03*
X326433Y-122308D02*
D03*
X323219Y-122322D02*
D03*
X320304D02*
D03*
X317388D02*
D03*
X326536Y-125560D02*
D03*
X308575Y-127115D02*
D03*
X308639Y-129730D02*
D03*
X312256Y-127125D02*
D03*
X165400Y-80700D02*
D03*
X33000Y-2300D02*
D03*
X268237Y-34839D02*
D03*
D77*
X237500Y-52000D02*
D03*
X243000Y-73000D02*
D03*
X244500D02*
D03*
X246000D02*
D03*
Y-74500D02*
D03*
X243000D02*
D03*
X244500D02*
D03*
X162603Y-129104D02*
D03*
X162000Y-102000D02*
D03*
X12500Y-74500D02*
D03*
X308000Y-4500D02*
D03*
X316500Y-66000D02*
D03*
X323500Y-3752D02*
D03*
X299000Y-142500D02*
D03*
X297500Y-141000D02*
D03*
X250000Y-168752D02*
D03*
X248137Y-167600D02*
D03*
X248000Y-163000D02*
D03*
X246137Y-168389D02*
D03*
X253500Y-159500D02*
D03*
X252500Y-161500D02*
D03*
X240500Y-168752D02*
D03*
X232000Y-169252D02*
D03*
X99000Y-140252D02*
D03*
X107000Y-124000D02*
D03*
X263500Y-19000D02*
D03*
Y-16529D02*
D03*
X266500Y-17402D02*
D03*
X263984Y-2268D02*
D03*
X237500Y-12500D02*
D03*
X259000Y-19413D02*
D03*
X251000Y-20252D02*
D03*
X249500Y-19752D02*
D03*
X237500Y-10000D02*
D03*
X233000Y-164252D02*
D03*
X226337Y-152600D02*
D03*
X228537Y-155700D02*
D03*
X256750Y-62502D02*
D03*
X235163Y-36311D02*
D03*
X233617Y-36454D02*
D03*
X234500Y-34752D02*
D03*
X235000Y-46252D02*
D03*
X247500Y-19752D02*
D03*
X265500Y-49252D02*
D03*
X158500Y-75252D02*
D03*
X177088Y-68251D02*
D03*
X170500Y-67752D02*
D03*
X168500D02*
D03*
X159000Y-37252D02*
D03*
X276500Y-52752D02*
D03*
X278914Y-41580D02*
D03*
X282000Y-40666D02*
D03*
X276500Y-44252D02*
D03*
X268586Y-41666D02*
D03*
X265500Y-37252D02*
D03*
X268000Y-38252D02*
D03*
X267000Y-40447D02*
D03*
X305500Y-69752D02*
D03*
X215000Y-21252D02*
D03*
X178000Y-45752D02*
D03*
X182500Y-39752D02*
D03*
X172037Y-40700D02*
D03*
X150000Y-6752D02*
D03*
X212500Y-53752D02*
D03*
X266965Y-90787D02*
D03*
X135000Y-99252D02*
D03*
X192000Y-139252D02*
D03*
X224500Y-52752D02*
D03*
X279500Y-154752D02*
D03*
X258000Y-179752D02*
D03*
X207500Y-55752D02*
D03*
X222000Y-65752D02*
D03*
X285500Y-41752D02*
D03*
X290500Y-25752D02*
D03*
X336000Y-52252D02*
D03*
X338000Y-37752D02*
D03*
X330500Y-12752D02*
D03*
X309484Y-11736D02*
D03*
X305500Y-18752D02*
D03*
X201000Y-164752D02*
D03*
X107000Y-140252D02*
D03*
X73000Y-125752D02*
D03*
X108137Y-74500D02*
D03*
X113500Y-70752D02*
D03*
X73037Y-108800D02*
D03*
X146820Y-177409D02*
D03*
X143670Y-180209D02*
D03*
X145245Y-178809D02*
D03*
X132500Y-178252D02*
D03*
X124737Y-165752D02*
D03*
X123237Y-164252D02*
D03*
X121637Y-165752D02*
D03*
X128000Y-178252D02*
D03*
X153119Y-177409D02*
D03*
X146937Y-182700D02*
D03*
X96500Y-153752D02*
D03*
X180500Y-127752D02*
D03*
X180000Y-138252D02*
D03*
X181000Y-140252D02*
D03*
X180537Y-149600D02*
D03*
X184000Y-143252D02*
D03*
X182500Y-141752D02*
D03*
X206000Y-163701D02*
D03*
X204000Y-167752D02*
D03*
X204500Y-157252D02*
D03*
X222500Y-149500D02*
D03*
X285000Y-60752D02*
D03*
X266000Y-176252D02*
D03*
X306685Y-24437D02*
D03*
X228537Y-169000D02*
D03*
X197237Y-160100D02*
D03*
X304437Y-38500D02*
D03*
X101000Y-144752D02*
D03*
X84700Y-147619D02*
D03*
X81000Y-151752D02*
D03*
X184000Y-63752D02*
D03*
X182012Y-29112D02*
D03*
X179000Y-8752D02*
D03*
Y-12600D02*
D03*
Y-35752D02*
D03*
X177937Y-32400D02*
D03*
Y-37752D02*
D03*
X178000Y-22252D02*
D03*
X179000Y-18252D02*
D03*
X179500Y-41252D02*
D03*
X166500Y-43000D02*
D03*
X168937Y-44200D02*
D03*
X170137Y-46100D02*
D03*
X170337Y-48415D02*
D03*
X166500Y-50100D02*
D03*
Y-52752D02*
D03*
X171500Y-8752D02*
D03*
Y-11252D02*
D03*
X168000Y-12752D02*
D03*
X166500Y-21752D02*
D03*
Y-19410D02*
D03*
Y-16752D02*
D03*
X58159Y-33590D02*
D03*
X58059Y-27490D02*
D03*
X149500Y-18752D02*
D03*
X153500Y-29252D02*
D03*
X157037Y-20300D02*
D03*
X144000Y-80752D02*
D03*
X142000Y-82252D02*
D03*
X140500Y-40752D02*
D03*
X148500Y-11252D02*
D03*
Y-8900D02*
D03*
X306685Y-34752D02*
D03*
X308500Y-38752D02*
D03*
X155637Y-6300D02*
D03*
X171777Y-32751D02*
D03*
X169613Y-33347D02*
D03*
X167026Y-33752D02*
D03*
X259000Y-14752D02*
D03*
X149937Y-184400D02*
D03*
X30959Y-66190D02*
D03*
X53201Y-77416D02*
D03*
X159737Y-47800D02*
D03*
X178500Y-48252D02*
D03*
X156237Y-163552D02*
D03*
X142000Y-74252D02*
D03*
X168137Y-54800D02*
D03*
X157837Y-165752D02*
D03*
X159437Y-163552D02*
D03*
X162537D02*
D03*
X163737Y-61000D02*
D03*
X195337Y-155900D02*
D03*
X194037Y-154300D02*
D03*
X192137Y-152700D02*
D03*
X190337Y-151200D02*
D03*
X161037Y-165752D02*
D03*
X51745Y-98084D02*
D03*
X56199Y-93629D02*
D03*
X60653Y-89175D02*
D03*
X74016Y-75813D02*
D03*
X71959Y-78190D02*
D03*
X68095Y-72290D02*
D03*
X61337Y-56800D02*
D03*
X72691Y-67945D02*
D03*
X85066Y-64591D02*
D03*
X96659Y-82790D02*
D03*
X82924Y-66904D02*
D03*
X70237Y-52169D02*
D03*
X70259Y-65390D02*
D03*
X63732Y-45823D02*
D03*
X51441Y-57692D02*
D03*
X55059Y-36590D02*
D03*
X52159Y-39590D02*
D03*
X49159Y-42491D02*
D03*
X57518Y-75490D02*
D03*
X52539Y-65470D02*
D03*
X55755Y-53096D02*
D03*
X49359Y-46191D02*
D03*
X45947Y-71779D02*
D03*
X35818Y-73248D02*
D03*
X17459Y-85690D02*
D03*
X18059Y-82790D02*
D03*
X20859Y-79491D02*
D03*
X26859Y-73491D02*
D03*
X31325Y-77665D02*
D03*
X40164Y-68686D02*
D03*
X23759Y-76490D02*
D03*
X27859Y-62490D02*
D03*
X31259Y-59290D02*
D03*
X34259Y-56291D02*
D03*
X33737Y-75600D02*
D03*
X53953Y-95837D02*
D03*
X58427Y-91403D02*
D03*
X69562Y-80266D02*
D03*
X76227Y-73568D02*
D03*
X80698Y-69131D02*
D03*
X53599Y-55396D02*
D03*
X63963Y-54224D02*
D03*
X78470Y-71359D02*
D03*
X67910Y-49953D02*
D03*
X61537Y-83268D02*
D03*
X64459Y-70790D02*
D03*
X50212Y-67787D02*
D03*
X19459Y-66190D02*
D03*
X50417Y-63349D02*
D03*
X16459Y-69191D02*
D03*
X38043Y-71018D02*
D03*
X37197Y-50029D02*
D03*
X83501Y-61106D02*
D03*
X40147Y-46979D02*
D03*
X45759Y-39691D02*
D03*
X66859Y-43290D02*
D03*
X52797Y-75252D02*
D03*
X47959Y-59690D02*
D03*
X180500Y-160500D02*
D03*
X96437Y-167500D02*
D03*
X44237Y-157300D02*
D03*
X138937Y-165752D02*
D03*
X137500Y-163552D02*
D03*
X165000Y-64752D02*
D03*
X106237Y-102500D02*
D03*
X144000Y-75252D02*
D03*
X170437Y-38300D02*
D03*
X184537Y-149600D02*
D03*
X102937Y-166000D02*
D03*
X208500Y-106220D02*
D03*
X161000Y-182452D02*
D03*
X163500D02*
D03*
X156500D02*
D03*
X158500D02*
D03*
X174000Y-178752D02*
D03*
X196937Y-157400D02*
D03*
X178537Y-58400D02*
D03*
X166500Y-14752D02*
D03*
X155037Y-53700D02*
D03*
X149146Y-50077D02*
D03*
X149155Y-58495D02*
D03*
X259000Y-17252D02*
D03*
X220000Y-106752D02*
D03*
X240500Y-51500D02*
D03*
X239000Y-52000D02*
D03*
X142137Y-165752D02*
D03*
X140537Y-163552D02*
D03*
X133500D02*
D03*
X135500D02*
D03*
X164137Y-165752D02*
D03*
X166500D02*
D03*
X180500Y-164752D02*
D03*
Y-162626D02*
D03*
X186000Y-144752D02*
D03*
X187500Y-146252D02*
D03*
X188751Y-148001D02*
D03*
X180500Y-100752D02*
D03*
X179000Y-51252D02*
D03*
X77500Y-152252D02*
D03*
X320000Y-6752D02*
D03*
X303500Y-45252D02*
D03*
X292500D02*
D03*
X313500Y-7252D02*
D03*
X311500Y-17752D02*
D03*
X304000Y-10768D02*
D03*
X308500Y-22252D02*
D03*
X290500Y-58752D02*
D03*
X273500Y-160752D02*
D03*
X149159Y-62691D02*
D03*
X151000Y-64752D02*
D03*
X107000Y-143252D02*
D03*
X97000Y-163252D02*
D03*
X223713Y-33252D02*
D03*
X234500Y-26752D02*
D03*
X205500Y-150500D02*
D03*
Y-152500D02*
D03*
X202500Y-143252D02*
D03*
Y-140752D02*
D03*
X197937Y-45600D02*
D03*
X198937Y-43600D02*
D03*
X142000Y-30752D02*
D03*
X141000Y-22252D02*
D03*
X63000Y-12252D02*
D03*
Y-10252D02*
D03*
X211500Y-93752D02*
D03*
X262000Y-89252D02*
D03*
X234000Y-31752D02*
D03*
X237500Y-49252D02*
D03*
X192500Y-20100D02*
D03*
X196237Y-49600D02*
D03*
X197137Y-47600D02*
D03*
X192500Y-18100D02*
D03*
X191000Y-8252D02*
D03*
X192500Y-12752D02*
D03*
Y-16100D02*
D03*
Y-10752D02*
D03*
X153500Y-93252D02*
D03*
X163000Y-65252D02*
D03*
X161500Y-66752D02*
D03*
X123500Y-177252D02*
D03*
X59710Y-49068D02*
D03*
X58087Y-50976D02*
D03*
X146000Y-140752D02*
D03*
X227500Y-57252D02*
D03*
X242500Y-66252D02*
D03*
X179197Y-107055D02*
D03*
X231500Y-57252D02*
D03*
X229500D02*
D03*
X209000Y-99252D02*
D03*
X245500Y-20252D02*
D03*
X244000D02*
D03*
X279000Y-51252D02*
D03*
X265500Y-64500D02*
D03*
X290500Y-150500D02*
D03*
X257500Y-140500D02*
D03*
Y-137000D02*
D03*
X257000Y-130000D02*
D03*
X251500Y-146000D02*
D03*
X257000Y-133500D02*
D03*
X284953Y-121547D02*
D03*
X282984Y-122516D02*
D03*
X292500Y-122000D02*
D03*
X286500Y-155000D02*
D03*
X267000Y-151000D02*
D03*
X268500Y-143283D02*
D03*
Y-145000D02*
D03*
X120000Y-164252D02*
D03*
X118500Y-165752D02*
D03*
X105437Y-166000D02*
D03*
X117000Y-164252D02*
D03*
X138500Y-178000D02*
D03*
X220500Y-163252D02*
D03*
X226337Y-166600D02*
D03*
X198000Y-31752D02*
D03*
X198337Y-29148D02*
D03*
X192500Y-22252D02*
D03*
X195500Y-29252D02*
D03*
X162000Y-127000D02*
D03*
X159500Y-125252D02*
D03*
X152500Y-6500D02*
D03*
X224337Y-150800D02*
D03*
X222237Y-166700D02*
D03*
X224337Y-169400D02*
D03*
X128000Y-19252D02*
D03*
X130500Y-29000D02*
D03*
X9959Y-80690D02*
D03*
X13459Y-72190D02*
D03*
X162000Y-97000D02*
D03*
Y-94500D02*
D03*
Y-99500D02*
D03*
X158000Y-97500D02*
D03*
X236000Y-52000D02*
D03*
X250000Y-164500D02*
D03*
X246000Y-161500D02*
D03*
X237000Y-158500D02*
D03*
X235500Y-149500D02*
D03*
X218500Y-106752D02*
D03*
X230000Y-184000D02*
D03*
X100000Y-20500D02*
D03*
X80500Y-7000D02*
D03*
X91500Y-15000D02*
D03*
X225000Y-106752D02*
D03*
X235500Y-139500D02*
D03*
X80500Y-22000D02*
D03*
X82500D02*
D03*
X225760Y-133760D02*
D03*
X243500Y-139500D02*
D03*
X294638Y-128362D02*
D03*
X296000Y-127000D02*
D03*
X303900Y-48000D02*
D03*
X193837Y-33400D02*
D03*
X192737Y-31500D02*
D03*
X184200Y-29100D02*
D03*
X37400Y-19100D02*
D03*
X23700Y-11000D02*
D03*
X257000Y-126252D02*
D03*
X249000Y-123922D02*
D03*
X218800Y-2500D02*
D03*
X87900Y-17952D02*
D03*
X232000Y-51252D02*
D03*
X247000Y-52752D02*
D03*
X252417Y-53054D02*
D03*
X252362Y-51452D02*
D03*
X233617Y-41054D02*
D03*
D78*
X4000Y-37000D02*
D03*
X-1500Y-35085D02*
D03*
Y-31252D02*
D03*
X-500Y-128752D02*
D03*
X234546Y-39226D02*
D03*
X214684Y-168028D02*
D03*
X222500Y-50252D02*
D03*
X192500Y-128252D02*
D03*
X97000Y-185252D02*
D03*
X87500D02*
D03*
X60000D02*
D03*
X53500Y-157752D02*
D03*
X68500Y-138752D02*
D03*
X10500Y-145252D02*
D03*
X2000Y-144752D02*
D03*
X26783Y-12968D02*
D03*
X6000Y-12252D02*
D03*
X1000Y-3752D02*
D03*
X-500Y-121444D02*
D03*
Y-99521D02*
D03*
Y-103175D02*
D03*
Y-110483D02*
D03*
Y-106829D02*
D03*
X-1500Y-42752D02*
D03*
Y-38919D02*
D03*
X-500Y-125098D02*
D03*
Y-114137D02*
D03*
Y-117790D02*
D03*
X49000Y-8500D02*
D03*
X46500D02*
D03*
X51500D02*
D03*
D79*
X159500Y-106500D02*
D03*
X161500Y-108000D02*
D03*
X96737Y-149600D02*
D03*
X96031Y-31220D02*
D03*
X97000Y-108752D02*
D03*
X150237Y-82100D02*
D03*
X116337Y-98500D02*
D03*
X100359Y-93400D02*
D03*
X120037D02*
D03*
X131037D02*
D03*
X149413Y-54444D02*
D03*
X149194Y-45956D02*
D03*
X97000Y-122752D02*
D03*
X178500Y-64252D02*
D03*
X181500Y-83000D02*
D03*
X266000Y-100000D02*
D03*
X319752Y-30500D02*
D03*
D80*
X130694Y-73299D02*
D03*
D81*
X277669Y-139583D02*
D03*
Y-130921D02*
D03*
X286331Y-139583D02*
D03*
Y-130921D02*
D03*
X277669Y-135252D02*
D03*
X286331D02*
D03*
X282000Y-139583D02*
D03*
Y-130921D02*
D03*
Y-135252D02*
D03*
D82*
X250000Y-35752D02*
D03*
M02*
