G04 Layer_Color=32768*
%FSLAX25Y25*%
%MOIN*%
G70*
G01*
G75*
%ADD104C,0.00394*%
%ADD179C,0.00197*%
D104*
X284378Y-91543D02*
Y-84457D01*
X281622Y-91543D02*
Y-84457D01*
Y-91543D02*
X284378D01*
X281622Y-84457D02*
X284378D01*
X283000Y-89083D02*
Y-86917D01*
X281917Y-88000D02*
X284083D01*
X293378Y-91543D02*
Y-84457D01*
X290622Y-91543D02*
Y-84457D01*
Y-91543D02*
X293378D01*
X290622Y-84457D02*
X293378D01*
X292000Y-89083D02*
Y-86917D01*
X290917Y-88000D02*
X293083D01*
X262500Y-130835D02*
Y-128669D01*
X261417Y-129752D02*
X263583D01*
X258957Y-131130D02*
Y-128374D01*
X266043Y-131130D02*
Y-128374D01*
X258957Y-131130D02*
X266043D01*
X258957Y-128374D02*
X266043D01*
X262500Y-134335D02*
Y-132169D01*
X261417Y-133252D02*
X263583D01*
X258957Y-134630D02*
Y-131874D01*
X266043Y-134630D02*
Y-131874D01*
X258957Y-134630D02*
X266043D01*
X258957Y-131874D02*
X266043D01*
X262500Y-137835D02*
Y-135669D01*
X261417Y-136752D02*
X263583D01*
X258957Y-138130D02*
Y-135374D01*
X266043Y-138130D02*
Y-135374D01*
X258957Y-138130D02*
X266043D01*
X258957Y-135374D02*
X266043D01*
X262500Y-144835D02*
Y-142669D01*
X261417Y-143752D02*
X263583D01*
X258957Y-145130D02*
Y-142374D01*
X266043Y-145130D02*
Y-142374D01*
X258957Y-145130D02*
X266043D01*
X258957Y-142374D02*
X266043D01*
X262500Y-141335D02*
Y-139169D01*
X261417Y-140252D02*
X263583D01*
X258957Y-141630D02*
Y-138874D01*
X266043Y-141630D02*
Y-138874D01*
X258957Y-141630D02*
X266043D01*
X258957Y-138874D02*
X266043D01*
X262500Y-127335D02*
Y-125169D01*
X261417Y-126252D02*
X263583D01*
X258957Y-127630D02*
Y-124874D01*
X266043Y-127630D02*
Y-124874D01*
X258957Y-127630D02*
X266043D01*
X258957Y-124874D02*
X266043D01*
X309417Y-122252D02*
X311583D01*
X310500Y-123335D02*
Y-121169D01*
X309122Y-118709D02*
X311878D01*
X309122Y-125795D02*
X311878D01*
X309122D02*
Y-118709D01*
X311878Y-125795D02*
Y-118709D01*
X312500Y-121335D02*
Y-119169D01*
X311417Y-120252D02*
X313583D01*
X308957Y-121630D02*
Y-118874D01*
X316043Y-121630D02*
Y-118874D01*
X308957Y-121630D02*
X316043D01*
X308957Y-118874D02*
X316043D01*
X304500Y-121335D02*
Y-119169D01*
X303417Y-120252D02*
X305583D01*
X300957Y-121630D02*
Y-118874D01*
X308043Y-121630D02*
Y-118874D01*
X300957Y-121630D02*
X308043D01*
X300957Y-118874D02*
X308043D01*
X301122Y-117795D02*
Y-110709D01*
X303878Y-117795D02*
Y-110709D01*
X301122D02*
X303878D01*
X301122Y-117795D02*
X303878D01*
X302500Y-115335D02*
Y-113169D01*
X301417Y-114252D02*
X303583D01*
X271378Y-119043D02*
Y-111957D01*
X268622Y-119043D02*
Y-111957D01*
Y-119043D02*
X271378D01*
X268622Y-111957D02*
X271378D01*
X270000Y-116583D02*
Y-114417D01*
X268917Y-115500D02*
X271083D01*
X287622Y-119295D02*
Y-112209D01*
X290378Y-119295D02*
Y-112209D01*
X287622D02*
X290378D01*
X287622Y-119295D02*
X290378D01*
X289000Y-116835D02*
Y-114669D01*
X287917Y-115752D02*
X290083D01*
X280031Y-135252D02*
X283968D01*
X282000Y-137221D02*
Y-133283D01*
X248622Y-177795D02*
Y-170709D01*
X251378Y-177795D02*
Y-170709D01*
X248622D02*
X251378D01*
X248622Y-177795D02*
X251378D01*
X250000Y-175335D02*
Y-173169D01*
X248917Y-174252D02*
X251083D01*
X245122Y-177795D02*
Y-170709D01*
X247878Y-177795D02*
Y-170709D01*
X245122D02*
X247878D01*
X245122Y-177795D02*
X247878D01*
X246500Y-175335D02*
Y-173169D01*
X245417Y-174252D02*
X247583D01*
X114500Y-13909D02*
Y-9972D01*
X112531Y-11941D02*
X116469D01*
X79917Y-165752D02*
X82083D01*
X81000Y-166835D02*
Y-164669D01*
X79622Y-169295D02*
X82378D01*
X79622Y-162209D02*
X82378D01*
Y-169295D02*
Y-162209D01*
X79622Y-169295D02*
Y-162209D01*
X32315Y-14543D02*
Y-7457D01*
X29559Y-14543D02*
Y-7457D01*
Y-14543D02*
X32315D01*
X29559Y-7457D02*
X32315D01*
X30937Y-12083D02*
Y-9917D01*
X29854Y-11000D02*
X32020D01*
X33375D02*
X35541D01*
X34458Y-12083D02*
Y-9917D01*
X33080Y-7457D02*
X35836D01*
X33080Y-14543D02*
X35836D01*
X33080D02*
Y-7457D01*
X35836Y-14543D02*
Y-7457D01*
X59479Y-49922D02*
X64490Y-44911D01*
X61428Y-51871D02*
X66439Y-46860D01*
X64490Y-44911D02*
X66439Y-46860D01*
X59479Y-49922D02*
X61428Y-51871D01*
X62193Y-49157D02*
X63725Y-47625D01*
X62193D02*
X63725Y-49157D01*
X61693Y-55925D02*
X63225Y-57457D01*
X61693D02*
X63225Y-55925D01*
X63990Y-53211D02*
X65939Y-55160D01*
X58979Y-58222D02*
X60928Y-60171D01*
X58979Y-58222D02*
X63990Y-53211D01*
X60928Y-60171D02*
X65939Y-55160D01*
X74237Y-145883D02*
Y-143717D01*
X73154Y-144800D02*
X75320D01*
X77780Y-146178D02*
Y-143422D01*
X70694Y-146178D02*
Y-143422D01*
X77780D01*
X70694Y-146178D02*
X77780D01*
X139917Y-17252D02*
X142083D01*
X141000Y-18335D02*
Y-16169D01*
X139622Y-13709D02*
X142378D01*
X139622Y-20795D02*
X142378D01*
X139622D02*
Y-13709D01*
X142378Y-20795D02*
Y-13709D01*
X146378Y-12795D02*
Y-5709D01*
X143622Y-12795D02*
Y-5709D01*
Y-12795D02*
X146378D01*
X143622Y-5709D02*
X146378D01*
X145000Y-10335D02*
Y-8169D01*
X143917Y-9252D02*
X146083D01*
X78878Y-169295D02*
Y-162209D01*
X76122Y-169295D02*
Y-162209D01*
Y-169295D02*
X78878D01*
X76122Y-162209D02*
X78878D01*
X77500Y-166835D02*
Y-164669D01*
X76417Y-165752D02*
X78583D01*
X154654Y-81500D02*
X156820D01*
X155737Y-82583D02*
Y-80417D01*
X154359Y-77957D02*
X157115D01*
X154359Y-85043D02*
X157115D01*
X154359D02*
Y-77957D01*
X157115Y-85043D02*
Y-77957D01*
X283000Y-149835D02*
Y-147669D01*
X281917Y-148752D02*
X284083D01*
X286543Y-150130D02*
Y-147374D01*
X279457Y-150130D02*
Y-147374D01*
X286543D01*
X279457Y-150130D02*
X286543D01*
X293957Y-131374D02*
X301043D01*
X293957Y-134130D02*
X301043D01*
Y-131374D01*
X293957Y-134130D02*
Y-131374D01*
X296417Y-132752D02*
X298583D01*
X297500Y-133835D02*
Y-131669D01*
X163337Y-121583D02*
Y-119417D01*
X162254Y-120500D02*
X164420D01*
X166880Y-121878D02*
Y-119122D01*
X159794Y-121878D02*
Y-119122D01*
X166880D01*
X159794Y-121878D02*
X166880D01*
X223957Y-125878D02*
X231043D01*
X223957Y-123122D02*
X231043D01*
X223957Y-125878D02*
Y-123122D01*
X231043Y-125878D02*
Y-123122D01*
X226417Y-124500D02*
X228583D01*
X227500Y-125583D02*
Y-123417D01*
X239500Y-131083D02*
Y-128917D01*
X238417Y-130000D02*
X240583D01*
X243043Y-131378D02*
Y-128622D01*
X235957Y-131378D02*
Y-128622D01*
X243043D01*
X235957Y-131378D02*
X243043D01*
X148622Y-103295D02*
Y-96209D01*
X151378Y-103295D02*
Y-96209D01*
X148622D02*
X151378D01*
X148622Y-103295D02*
X151378D01*
X150000Y-100835D02*
Y-98669D01*
X148917Y-99752D02*
X151083D01*
X152917D02*
X155083D01*
X154000Y-100835D02*
Y-98669D01*
X152622Y-103295D02*
X155378D01*
X152622Y-96209D02*
X155378D01*
Y-103295D02*
Y-96209D01*
X152622Y-103295D02*
Y-96209D01*
X144122Y-103295D02*
Y-96209D01*
X146878Y-103295D02*
Y-96209D01*
X144122D02*
X146878D01*
X144122Y-103295D02*
X146878D01*
X145500Y-100835D02*
Y-98669D01*
X144417Y-99752D02*
X146583D01*
X185500Y-128335D02*
Y-126169D01*
X184417Y-127252D02*
X186583D01*
X189043Y-128630D02*
Y-125874D01*
X181957Y-128630D02*
Y-125874D01*
X189043D01*
X181957Y-128630D02*
X189043D01*
X181957Y-116178D02*
X189043D01*
X181957Y-113422D02*
X189043D01*
X181957Y-116178D02*
Y-113422D01*
X189043Y-116178D02*
Y-113422D01*
X184417Y-114800D02*
X186583D01*
X185500Y-115883D02*
Y-113717D01*
Y-108183D02*
Y-106017D01*
X184417Y-107100D02*
X186583D01*
X189043Y-108478D02*
Y-105722D01*
X181957Y-108478D02*
Y-105722D01*
X189043D01*
X181957Y-108478D02*
X189043D01*
X181957Y-104278D02*
X189043D01*
X181957Y-101522D02*
X189043D01*
X181957Y-104278D02*
Y-101522D01*
X189043Y-104278D02*
Y-101522D01*
X184417Y-102900D02*
X186583D01*
X185500Y-103983D02*
Y-101817D01*
Y-138335D02*
Y-136169D01*
X184417Y-137252D02*
X186583D01*
X189043Y-138630D02*
Y-135874D01*
X181957Y-138630D02*
Y-135874D01*
X189043D01*
X181957Y-138630D02*
X189043D01*
X71001Y-138826D02*
X78087D01*
X71001Y-141581D02*
X78087D01*
Y-138826D01*
X71001Y-141581D02*
Y-138826D01*
X73461Y-140203D02*
X75626D01*
X74544Y-141286D02*
Y-139121D01*
X185500Y-134335D02*
Y-132169D01*
X184417Y-133252D02*
X186583D01*
X189043Y-134630D02*
Y-131874D01*
X181957Y-134630D02*
Y-131874D01*
X189043D01*
X181957Y-134630D02*
X189043D01*
X93417Y-16500D02*
X95583D01*
X94500Y-17583D02*
Y-15417D01*
X93122Y-12957D02*
X95878D01*
X93122Y-20043D02*
X95878D01*
X93122D02*
Y-12957D01*
X95878Y-20043D02*
Y-12957D01*
X85500Y-8583D02*
Y-6417D01*
X84417Y-7500D02*
X86583D01*
X81957Y-8878D02*
Y-6122D01*
X89043Y-8878D02*
Y-6122D01*
X81957Y-8878D02*
X89043D01*
X81957Y-6122D02*
X89043D01*
X262622Y-12795D02*
Y-5709D01*
X265378Y-12795D02*
Y-5709D01*
X262622D02*
X265378D01*
X262622Y-12795D02*
X265378D01*
X264000Y-10335D02*
Y-8169D01*
X262917Y-9252D02*
X265083D01*
X204917Y-104252D02*
X207083D01*
X206000Y-105335D02*
Y-103169D01*
X204622Y-107795D02*
X207378D01*
X204622Y-100709D02*
X207378D01*
Y-107795D02*
Y-100709D01*
X204622Y-107795D02*
Y-100709D01*
X229500Y-121583D02*
Y-119417D01*
X228417Y-120500D02*
X230583D01*
X233043Y-121878D02*
Y-119122D01*
X225957Y-121878D02*
Y-119122D01*
X233043D01*
X225957Y-121878D02*
X233043D01*
X74693Y-69425D02*
X76225Y-70957D01*
X74693D02*
X76225Y-69425D01*
X71979Y-71722D02*
X73928Y-73671D01*
X76990Y-66711D02*
X78939Y-68660D01*
X73928Y-73671D02*
X78939Y-68660D01*
X71979Y-71722D02*
X76990Y-66711D01*
X80428Y-67171D02*
X85439Y-62160D01*
X78479Y-65222D02*
X83490Y-60211D01*
X78479Y-65222D02*
X80428Y-67171D01*
X83490Y-60211D02*
X85439Y-62160D01*
X81193Y-64457D02*
X82725Y-62925D01*
X81193D02*
X82725Y-64457D01*
X36355Y-75559D02*
X37886Y-77090D01*
X36355D02*
X37886Y-75559D01*
X33641Y-77856D02*
X35589Y-79804D01*
X38652Y-72845D02*
X40600Y-74793D01*
X35589Y-79804D02*
X40600Y-74793D01*
X33641Y-77856D02*
X38652Y-72845D01*
X70928Y-72713D02*
X75939Y-77724D01*
X68979Y-74662D02*
X73990Y-79673D01*
X75939Y-77724D01*
X68979Y-74662D02*
X70928Y-72713D01*
X71693Y-75427D02*
X73225Y-76959D01*
X71693D02*
X73225Y-75427D01*
X44693Y-67425D02*
X46225Y-68957D01*
X44693D02*
X46225Y-67425D01*
X46990Y-64711D02*
X48939Y-66660D01*
X41979Y-69722D02*
X43928Y-71671D01*
X41979Y-69722D02*
X46990Y-64711D01*
X43928Y-71671D02*
X48939Y-66660D01*
X55193Y-70925D02*
X56725Y-72457D01*
X55193D02*
X56725Y-70925D01*
X52479Y-73222D02*
X54428Y-75171D01*
X57490Y-68211D02*
X59439Y-70160D01*
X54428Y-75171D02*
X59439Y-70160D01*
X52479Y-73222D02*
X57490Y-68211D01*
X54491Y-89941D02*
X59502Y-84930D01*
X56440Y-91890D02*
X61451Y-86879D01*
X59502Y-84930D02*
X61451Y-86879D01*
X54491Y-89941D02*
X56440Y-91890D01*
X57205Y-89176D02*
X58737Y-87644D01*
X57205D02*
X58737Y-89176D01*
X50425Y-93693D02*
X51957Y-95225D01*
X50425D02*
X51957Y-93693D01*
X52722Y-90979D02*
X54671Y-92928D01*
X47711Y-95990D02*
X49660Y-97939D01*
X47711Y-95990D02*
X52722Y-90979D01*
X49660Y-97939D02*
X54671Y-92928D01*
X53136Y-61871D02*
X58147Y-56860D01*
X51187Y-59922D02*
X56198Y-54911D01*
X51187Y-59922D02*
X53136Y-61871D01*
X56198Y-54911D02*
X58147Y-56860D01*
X53901Y-59157D02*
X55433Y-57625D01*
X53901D02*
X55433Y-59157D01*
X70000Y-13158D02*
Y-9221D01*
X68032Y-11189D02*
X71969D01*
X237343Y-103500D02*
X241280D01*
X239311Y-105468D02*
Y-101532D01*
X214689Y-141469D02*
Y-137531D01*
X212720Y-139500D02*
X216657D01*
X314917Y-11752D02*
X317083D01*
X316000Y-12835D02*
Y-10669D01*
X314622Y-15295D02*
X317378D01*
X314622Y-8209D02*
X317378D01*
Y-15295D02*
Y-8209D01*
X314622Y-15295D02*
Y-8209D01*
X96522Y-20043D02*
Y-12957D01*
X99278Y-20043D02*
Y-12957D01*
X96522D02*
X99278D01*
X96522Y-20043D02*
X99278D01*
X97900Y-17583D02*
Y-15417D01*
X96817Y-16500D02*
X98983D01*
X318917Y-11752D02*
X321083D01*
X320000Y-12835D02*
Y-10669D01*
X318622Y-15295D02*
X321378D01*
X318622Y-8209D02*
X321378D01*
Y-15295D02*
Y-8209D01*
X318622Y-15295D02*
Y-8209D01*
X252622Y-114543D02*
Y-107457D01*
X255378Y-114543D02*
Y-107457D01*
X252622D02*
X255378D01*
X252622Y-114543D02*
X255378D01*
X254000Y-112083D02*
Y-109917D01*
X252917Y-111000D02*
X255083D01*
X291417Y-115752D02*
X293583D01*
X292500Y-116835D02*
Y-114669D01*
X291122Y-112209D02*
X293878D01*
X291122Y-119295D02*
X293878D01*
X291122D02*
Y-112209D01*
X293878Y-119295D02*
Y-112209D01*
X297122Y-125795D02*
Y-118708D01*
X299878Y-125795D02*
Y-118708D01*
X297122D02*
X299878D01*
X297122Y-125795D02*
X299878D01*
X298500Y-123334D02*
Y-121169D01*
X297417Y-122251D02*
X299583D01*
X213917Y-104252D02*
X216083D01*
X215000Y-105335D02*
Y-103169D01*
X213622Y-107795D02*
X216378D01*
X213622Y-100709D02*
X216378D01*
Y-107795D02*
Y-100709D01*
X213622Y-107795D02*
Y-100709D01*
X212378Y-107795D02*
Y-100709D01*
X209622Y-107795D02*
Y-100709D01*
Y-107795D02*
X212378D01*
X209622Y-100709D02*
X212378D01*
X211000Y-105335D02*
Y-103169D01*
X209917Y-104252D02*
X212083D01*
X239500Y-134583D02*
Y-132417D01*
X238417Y-133500D02*
X240583D01*
X235957Y-134878D02*
Y-132122D01*
X243043Y-134878D02*
Y-132122D01*
X235957Y-134878D02*
X243043D01*
X235957Y-132122D02*
X243043D01*
X239500Y-138083D02*
Y-135917D01*
X238417Y-137000D02*
X240583D01*
X243043Y-138378D02*
Y-135622D01*
X235957Y-138378D02*
Y-135622D01*
X243043D01*
X235957Y-138378D02*
X243043D01*
X237457Y-173630D02*
X244543D01*
X237457Y-170874D02*
X244543D01*
X237457Y-173630D02*
Y-170874D01*
X244543Y-173630D02*
Y-170874D01*
X239917Y-172252D02*
X242083D01*
X241000Y-173335D02*
Y-171169D01*
X237457Y-174374D02*
X244543D01*
X237457Y-177130D02*
X244543D01*
Y-174374D01*
X237457Y-177130D02*
Y-174374D01*
X239917Y-175752D02*
X242083D01*
X241000Y-176835D02*
Y-174669D01*
X154837Y-4183D02*
Y-2017D01*
X153754Y-3100D02*
X155920D01*
X158380Y-4478D02*
Y-1722D01*
X151294Y-4478D02*
Y-1722D01*
X158380D01*
X151294Y-4478D02*
X158380D01*
X151394Y-10278D02*
X158480D01*
X151394Y-7522D02*
X158480D01*
X151394Y-10278D02*
Y-7522D01*
X158480Y-10278D02*
Y-7522D01*
X153854Y-8900D02*
X156020D01*
X154937Y-9983D02*
Y-7817D01*
X154837Y-14283D02*
Y-12117D01*
X153754Y-13200D02*
X155920D01*
X158380Y-14578D02*
Y-11822D01*
X151294Y-14578D02*
Y-11822D01*
X158380D01*
X151294Y-14578D02*
X158380D01*
X151457Y-19130D02*
X158543D01*
X151457Y-16374D02*
X158543D01*
X151457Y-19130D02*
Y-16374D01*
X158543Y-19130D02*
Y-16374D01*
X153917Y-17752D02*
X156083D01*
X155000Y-18835D02*
Y-16669D01*
X143917Y-17252D02*
X146083D01*
X145000Y-18335D02*
Y-16169D01*
X143622Y-20795D02*
X146378D01*
X143622Y-13709D02*
X146378D01*
Y-20795D02*
Y-13709D01*
X143622Y-20795D02*
Y-13709D01*
X40417Y-11000D02*
X42583D01*
X41500Y-12083D02*
Y-9917D01*
X40122Y-7457D02*
X42878D01*
X40122Y-14543D02*
X42878D01*
X40122D02*
Y-7457D01*
X42878Y-14543D02*
Y-7457D01*
X231122Y-88795D02*
Y-81709D01*
X233878Y-88795D02*
Y-81709D01*
X231122Y-88795D02*
X233878D01*
X231122Y-81709D02*
X233878D01*
X232500Y-86335D02*
Y-84169D01*
X231417Y-85252D02*
X233583D01*
X12457Y-5122D02*
X19543D01*
X12457Y-7878D02*
X19543D01*
X12457D02*
Y-5122D01*
X19543Y-7878D02*
Y-5122D01*
X14917Y-6500D02*
X17083D01*
X16000Y-7583D02*
Y-5417D01*
X82015Y-164443D02*
Y-157357D01*
X79259Y-164443D02*
Y-157357D01*
X82015D01*
X79259Y-164443D02*
X82015D01*
X80637Y-161983D02*
Y-159817D01*
X79554Y-160900D02*
X81720D01*
X72500Y-153335D02*
Y-151169D01*
X71417Y-152252D02*
X73583D01*
X68957Y-153630D02*
Y-150874D01*
X76043Y-153630D02*
Y-150874D01*
X68957D02*
X76043D01*
X68957Y-153630D02*
X76043D01*
X42479Y-41159D02*
X47490Y-46170D01*
X44428Y-39211D02*
X49439Y-44222D01*
X47490Y-46170D02*
X49439Y-44222D01*
X42479Y-41159D02*
X44428Y-39211D01*
X45193Y-41925D02*
X46724Y-43456D01*
X45193D02*
X46724Y-41925D01*
X48193Y-40456D02*
X49724Y-38925D01*
X48193Y-38925D02*
X49724Y-40456D01*
X45479Y-38159D02*
X47428Y-36211D01*
X50490Y-43170D02*
X52439Y-41222D01*
X47428Y-36211D02*
X52439Y-41222D01*
X45479Y-38159D02*
X50490Y-43170D01*
X48479Y-35159D02*
X53490Y-40170D01*
X50428Y-33211D02*
X55439Y-38222D01*
X53490Y-40170D02*
X55439Y-38222D01*
X48479Y-35159D02*
X50428Y-33211D01*
X51193Y-35925D02*
X52724Y-37456D01*
X51193D02*
X52724Y-35925D01*
X54193Y-34456D02*
X55724Y-32925D01*
X54193Y-32925D02*
X55724Y-34456D01*
X51479Y-32159D02*
X53428Y-30211D01*
X56490Y-37170D02*
X58439Y-35222D01*
X53428Y-30211D02*
X58439Y-35222D01*
X51479Y-32159D02*
X56490Y-37170D01*
X54479Y-29159D02*
X59490Y-34170D01*
X56428Y-27211D02*
X61439Y-32222D01*
X59490Y-34170D02*
X61439Y-32222D01*
X54479Y-29159D02*
X56428Y-27211D01*
X57193Y-29925D02*
X58724Y-31456D01*
X57193D02*
X58724Y-29925D01*
X82036Y-89719D02*
X84201D01*
X83119Y-90801D02*
Y-88636D01*
X81741Y-86175D02*
X84497D01*
X81741Y-93262D02*
X84497D01*
Y-86175D01*
X81741Y-93262D02*
Y-86175D01*
X202794Y-94922D02*
X209880D01*
X202794Y-97678D02*
X209880D01*
X202794D02*
Y-94922D01*
X209880Y-97678D02*
Y-94922D01*
X205254Y-96300D02*
X207420D01*
X206337Y-97383D02*
Y-95217D01*
X120000Y-19835D02*
Y-17669D01*
X118917Y-18752D02*
X121083D01*
X123543Y-20130D02*
Y-17374D01*
X116457Y-20130D02*
Y-17374D01*
Y-20130D02*
X123543D01*
X116457Y-17374D02*
X123543D01*
X116457Y-31874D02*
X123543D01*
X116457Y-34630D02*
X123543D01*
X116457D02*
Y-31874D01*
X123543Y-34630D02*
Y-31874D01*
X118917Y-33252D02*
X121083D01*
X120000Y-34335D02*
Y-32169D01*
X15937Y-21083D02*
Y-18917D01*
X14854Y-20000D02*
X17020D01*
X12394Y-21378D02*
Y-18622D01*
X19480Y-21378D02*
Y-18622D01*
X12394D02*
X19480D01*
X12394Y-21378D02*
X19480D01*
X140715Y-61313D02*
X147802D01*
X140715Y-64069D02*
X147802D01*
X140715D02*
Y-61313D01*
X147802Y-64069D02*
Y-61313D01*
X143176Y-62691D02*
X145341D01*
X144259Y-63773D02*
Y-61608D01*
X300354Y-30359D02*
X302520D01*
X301437Y-31442D02*
Y-29276D01*
X300059Y-26816D02*
X302815D01*
X300059Y-33902D02*
X302815D01*
Y-26816D01*
X300059Y-33902D02*
Y-26816D01*
X104457Y-179629D02*
X111543D01*
X104457Y-176873D02*
X111543D01*
Y-179629D02*
Y-176873D01*
X104457Y-179629D02*
Y-176873D01*
X106917Y-178251D02*
X109083D01*
X108000Y-179334D02*
Y-177169D01*
X113457Y-176874D02*
X120543D01*
X113457Y-179630D02*
X120543D01*
X113457D02*
Y-176874D01*
X120543Y-179630D02*
Y-176874D01*
X115917Y-178252D02*
X118083D01*
X117000Y-179335D02*
Y-177169D01*
X235122Y-88795D02*
Y-81709D01*
X237878Y-88795D02*
Y-81709D01*
X235122Y-88795D02*
X237878D01*
X235122Y-81709D02*
X237878D01*
X236500Y-86335D02*
Y-84169D01*
X235417Y-85252D02*
X237583D01*
X57554Y-146100D02*
X59720D01*
X58637Y-147183D02*
Y-145017D01*
X57259Y-142557D02*
X60015D01*
X57259Y-149643D02*
X60015D01*
Y-142557D01*
X57259Y-149643D02*
Y-142557D01*
X73543Y-110143D02*
X80630D01*
X73543Y-107388D02*
X80630D01*
Y-110143D02*
Y-107388D01*
X73543Y-110143D02*
Y-107388D01*
X76004Y-108765D02*
X78169D01*
X77087Y-109848D02*
Y-107683D01*
X117593Y-75556D02*
X119124Y-74025D01*
X117593Y-74025D02*
X119124Y-75556D01*
X114879Y-73259D02*
X116828Y-71311D01*
X119890Y-78270D02*
X121839Y-76322D01*
X116828Y-71311D02*
X121839Y-76322D01*
X114879Y-73259D02*
X119890Y-78270D01*
X129081Y-81734D02*
Y-74647D01*
X131837Y-81734D02*
Y-74647D01*
X129081Y-81734D02*
X131837D01*
X129081Y-74647D02*
X131837D01*
X130459Y-79273D02*
Y-77108D01*
X129376Y-78190D02*
X131541D01*
X77085Y-124565D02*
Y-122400D01*
X76002Y-123483D02*
X78167D01*
X73541Y-124860D02*
Y-122105D01*
X80628Y-124860D02*
Y-122105D01*
X73541D02*
X80628D01*
X73541Y-124860D02*
X80628D01*
X81878Y-185295D02*
Y-178209D01*
X79122Y-185295D02*
Y-178209D01*
X81878D01*
X79122Y-185295D02*
X81878D01*
X80500Y-182835D02*
Y-180669D01*
X79417Y-181752D02*
X81583D01*
X79417Y-173752D02*
X81583D01*
X80500Y-174835D02*
Y-172669D01*
X79122Y-170209D02*
X81878D01*
X79122Y-177295D02*
X81878D01*
Y-170209D01*
X79122Y-177295D02*
Y-170209D01*
X248457Y-76874D02*
X255543D01*
X248457Y-79630D02*
X255543D01*
X248457D02*
Y-76874D01*
X255543Y-79630D02*
Y-76874D01*
X250917Y-78252D02*
X253083D01*
X252000Y-79335D02*
Y-77169D01*
X278878Y-12043D02*
Y-4957D01*
X276122Y-12043D02*
Y-4957D01*
X278878D01*
X276122Y-12043D02*
X278878D01*
X277500Y-9583D02*
Y-7417D01*
X276417Y-8500D02*
X278583D01*
X109895Y-78659D02*
X111426Y-77128D01*
X109895D02*
X111426Y-78659D01*
X112192Y-81373D02*
X114141Y-79425D01*
X107181Y-76362D02*
X109130Y-74414D01*
X107181Y-76362D02*
X112192Y-81373D01*
X109130Y-74414D02*
X114141Y-79425D01*
X65615Y-162543D02*
Y-155457D01*
X62859Y-162543D02*
Y-155457D01*
X65615D01*
X62859Y-162543D02*
X65615D01*
X64237Y-160083D02*
Y-157917D01*
X63154Y-159000D02*
X65320D01*
X225957Y-35630D02*
X233043D01*
X225957Y-32874D02*
X233043D01*
Y-35630D02*
Y-32874D01*
X225957Y-35630D02*
Y-32874D01*
X228417Y-34252D02*
X230583D01*
X229500Y-35335D02*
Y-33169D01*
Y-31835D02*
Y-29669D01*
X228417Y-30752D02*
X230583D01*
X233043Y-32130D02*
Y-29374D01*
X225957Y-32130D02*
Y-29374D01*
Y-32130D02*
X233043D01*
X225957Y-29374D02*
X233043D01*
X225957Y-21630D02*
X233043D01*
X225957Y-18874D02*
X233043D01*
Y-21630D02*
Y-18874D01*
X225957Y-21630D02*
Y-18874D01*
X228417Y-20252D02*
X230583D01*
X229500Y-21335D02*
Y-19169D01*
X182194Y-121922D02*
X189280D01*
X182194Y-124678D02*
X189280D01*
X182194D02*
Y-121922D01*
X189280Y-124678D02*
Y-121922D01*
X184654Y-123300D02*
X186820D01*
X185737Y-124383D02*
Y-122217D01*
X271206Y-48835D02*
Y-46669D01*
X270123Y-47752D02*
X272289D01*
X274749Y-49130D02*
Y-46374D01*
X267663Y-49130D02*
Y-46374D01*
Y-49130D02*
X274749D01*
X267663Y-46374D02*
X274749D01*
X225957Y-25130D02*
X233043D01*
X225957Y-22374D02*
X233043D01*
Y-25130D02*
Y-22374D01*
X225957Y-25130D02*
Y-22374D01*
X228417Y-23752D02*
X230583D01*
X229500Y-24835D02*
Y-22669D01*
X39793Y-54156D02*
X41324Y-52625D01*
X39793D02*
X41324Y-54156D01*
X42090Y-56870D02*
X44039Y-54922D01*
X37079Y-51859D02*
X39028Y-49911D01*
X37079Y-51859D02*
X42090Y-56870D01*
X39028Y-49911D02*
X44039Y-54922D01*
X140753Y-53067D02*
X147840D01*
X140753Y-55822D02*
X147840D01*
X140753D02*
Y-53067D01*
X147840Y-55822D02*
Y-53067D01*
X143214Y-54444D02*
X145379D01*
X144297Y-55527D02*
Y-53362D01*
X36493Y-57156D02*
X38024Y-55625D01*
X36493Y-55625D02*
X38024Y-57156D01*
X33779Y-54859D02*
X35728Y-52911D01*
X38790Y-59870D02*
X40739Y-57922D01*
X35728Y-52911D02*
X40739Y-57922D01*
X33779Y-54859D02*
X38790Y-59870D01*
X140660Y-51455D02*
X147747D01*
X140660Y-48700D02*
X147747D01*
Y-51455D02*
Y-48700D01*
X140660Y-51455D02*
Y-48700D01*
X143121Y-50077D02*
X145286D01*
X144204Y-51160D02*
Y-48995D01*
X70994Y-142078D02*
X78080D01*
X70994Y-139322D02*
X78080D01*
Y-142078D02*
Y-139322D01*
X70994Y-142078D02*
Y-139322D01*
X73454Y-140700D02*
X75620D01*
X74537Y-141783D02*
Y-139617D01*
X13193Y-85456D02*
X14724Y-83925D01*
X13193Y-83925D02*
X14724Y-85456D01*
X10479Y-83159D02*
X12428Y-81211D01*
X15490Y-88170D02*
X17439Y-86222D01*
X12428Y-81211D02*
X17439Y-86222D01*
X10479Y-83159D02*
X15490Y-88170D01*
X10979Y-77659D02*
X15990Y-82670D01*
X12928Y-75711D02*
X17939Y-80722D01*
X15990Y-82670D02*
X17939Y-80722D01*
X10979Y-77659D02*
X12928Y-75711D01*
X13693Y-78425D02*
X15224Y-79956D01*
X13693D02*
X15224Y-78425D01*
X16693Y-76956D02*
X18224Y-75425D01*
X16693Y-75425D02*
X18224Y-76956D01*
X13979Y-74659D02*
X15928Y-72711D01*
X18990Y-79670D02*
X20939Y-77722D01*
X15928Y-72711D02*
X20939Y-77722D01*
X13979Y-74659D02*
X18990Y-79670D01*
X16979Y-71659D02*
X21990Y-76670D01*
X18928Y-69711D02*
X23939Y-74722D01*
X21990Y-76670D02*
X23939Y-74722D01*
X16979Y-71659D02*
X18928Y-69711D01*
X19693Y-72425D02*
X21224Y-73956D01*
X19693D02*
X21224Y-72425D01*
X22693Y-70956D02*
X24224Y-69425D01*
X22693Y-69425D02*
X24224Y-70956D01*
X19979Y-68659D02*
X21928Y-66711D01*
X24990Y-73670D02*
X26939Y-71722D01*
X21928Y-66711D02*
X26939Y-71722D01*
X19979Y-68659D02*
X24990Y-73670D01*
X30028Y-58911D02*
X35039Y-63922D01*
X28079Y-60859D02*
X33090Y-65870D01*
X28079Y-60859D02*
X30028Y-58911D01*
X33090Y-65870D02*
X35039Y-63922D01*
X30793Y-61625D02*
X32324Y-63156D01*
X30793Y-63156D02*
X32324Y-61625D01*
X289417Y-30358D02*
X291583D01*
X290500Y-31441D02*
Y-29276D01*
X289122Y-33902D02*
X291878D01*
X289122Y-26815D02*
X291878D01*
X289122Y-33902D02*
Y-26815D01*
X291878Y-33902D02*
Y-26815D01*
X272417Y-155783D02*
X274583D01*
X273500Y-156866D02*
Y-154701D01*
X272122Y-159327D02*
X274878D01*
X272122Y-152240D02*
X274878D01*
X272122Y-159327D02*
Y-152240D01*
X274878Y-159327D02*
Y-152240D01*
X339378Y-47295D02*
Y-40209D01*
X336622Y-47295D02*
Y-40209D01*
X339378D01*
X336622Y-47295D02*
X339378D01*
X338000Y-44835D02*
Y-42669D01*
X336917Y-43752D02*
X339083D01*
X206417Y-49252D02*
X208583D01*
X207500Y-50335D02*
Y-48169D01*
X206122Y-45709D02*
X208878D01*
X206122Y-52795D02*
X208878D01*
Y-45709D01*
X206122Y-52795D02*
Y-45709D01*
X276532Y-23063D02*
X280469D01*
X278500Y-25032D02*
Y-21094D01*
X61015Y-162443D02*
Y-155357D01*
X58259Y-162443D02*
Y-155357D01*
X61015D01*
X58259Y-162443D02*
X61015D01*
X59637Y-159983D02*
Y-157817D01*
X58554Y-158900D02*
X60720D01*
X313937Y-53583D02*
Y-51417D01*
X312854Y-52500D02*
X315020D01*
X317480Y-53878D02*
Y-51122D01*
X310394Y-53878D02*
Y-51122D01*
Y-53878D02*
X317480D01*
X310394Y-51122D02*
X317480D01*
X310394Y-46122D02*
X317480D01*
X310394Y-48878D02*
X317480D01*
X310394D02*
Y-46122D01*
X317480Y-48878D02*
Y-46122D01*
X312854Y-47500D02*
X315020D01*
X313937Y-48583D02*
Y-46417D01*
X49000Y-141835D02*
Y-139669D01*
X47917Y-140752D02*
X50083D01*
X52543Y-142130D02*
Y-139374D01*
X45457Y-142130D02*
Y-139374D01*
Y-142130D02*
X52543D01*
X45457Y-139374D02*
X52543D01*
X35769D02*
X42856D01*
X35769Y-142130D02*
X42856D01*
X35769D02*
Y-139374D01*
X42856Y-142130D02*
Y-139374D01*
X38230Y-140752D02*
X40395D01*
X39312Y-141835D02*
Y-139669D01*
X229500Y-42335D02*
Y-40169D01*
X228417Y-41252D02*
X230583D01*
X225957Y-42630D02*
Y-39874D01*
X233043Y-42630D02*
Y-39874D01*
X225957D02*
X233043D01*
X225957Y-42630D02*
X233043D01*
X225957Y-36374D02*
X233043D01*
X225957Y-39130D02*
X233043D01*
X225957D02*
Y-36374D01*
X233043Y-39130D02*
Y-36374D01*
X228417Y-37752D02*
X230583D01*
X229500Y-38835D02*
Y-36669D01*
X274000Y-41835D02*
Y-39669D01*
X272917Y-40752D02*
X275083D01*
X277543Y-42130D02*
Y-39374D01*
X270457Y-42130D02*
Y-39374D01*
Y-42130D02*
X277543D01*
X270457Y-39374D02*
X277543D01*
X29625Y-141835D02*
Y-139669D01*
X28542Y-140752D02*
X30707D01*
X33168Y-142130D02*
Y-139374D01*
X26081Y-142130D02*
Y-139374D01*
Y-142130D02*
X33168D01*
X26081Y-139374D02*
X33168D01*
X52000Y-18335D02*
Y-16169D01*
X50917Y-17252D02*
X53083D01*
X48457Y-18630D02*
Y-15874D01*
X55543Y-18630D02*
Y-15874D01*
X48457D02*
X55543D01*
X48457Y-18630D02*
X55543D01*
X48457Y-14630D02*
X55543D01*
X48457Y-11874D02*
X55543D01*
Y-14630D02*
Y-11874D01*
X48457Y-14630D02*
Y-11874D01*
X50917Y-13252D02*
X53083D01*
X52000Y-14335D02*
Y-12169D01*
X227417Y-9000D02*
X229583D01*
X228500Y-10083D02*
Y-7917D01*
X227122Y-5457D02*
X229878D01*
X227122Y-12543D02*
X229878D01*
Y-5457D01*
X227122Y-12543D02*
Y-5457D01*
X75094Y-167978D02*
X82180D01*
X75094Y-165222D02*
X82180D01*
Y-167978D02*
Y-165222D01*
X75094Y-167978D02*
Y-165222D01*
X77554Y-166600D02*
X79720D01*
X78637Y-167683D02*
Y-165517D01*
X222917Y-58252D02*
X225083D01*
X224000Y-59335D02*
Y-57169D01*
X222622Y-54709D02*
X225378D01*
X222622Y-61795D02*
X225378D01*
Y-54709D01*
X222622Y-61795D02*
Y-54709D01*
X267663Y-45630D02*
X274750D01*
X267663Y-42874D02*
X274750D01*
Y-45630D02*
Y-42874D01*
X267663Y-45630D02*
Y-42874D01*
X270124Y-44252D02*
X272289D01*
X271207Y-45335D02*
Y-43169D01*
Y-52335D02*
Y-50169D01*
X270124Y-51252D02*
X272289D01*
X267663Y-52630D02*
Y-49874D01*
X274750Y-52630D02*
Y-49874D01*
X267663D02*
X274750D01*
X267663Y-52630D02*
X274750D01*
X225957Y-25874D02*
X233043D01*
X225957Y-28630D02*
X233043D01*
X225957D02*
Y-25874D01*
X233043Y-28630D02*
Y-25874D01*
X228417Y-27252D02*
X230583D01*
X229500Y-28335D02*
Y-26169D01*
X15957Y-139374D02*
X23043D01*
X15957Y-142130D02*
X23043D01*
X15957D02*
Y-139374D01*
X23043Y-142130D02*
Y-139374D01*
X18417Y-140752D02*
X20583D01*
X19500Y-141835D02*
Y-139669D01*
X335878Y-47295D02*
Y-40209D01*
X333122Y-47295D02*
Y-40209D01*
X335878D01*
X333122Y-47295D02*
X335878D01*
X334500Y-44835D02*
Y-42669D01*
X333417Y-43752D02*
X335583D01*
X313937Y-43583D02*
Y-41417D01*
X312854Y-42500D02*
X315020D01*
X317480Y-43878D02*
Y-41122D01*
X310394Y-43878D02*
Y-41122D01*
Y-43878D02*
X317480D01*
X310394Y-41122D02*
X317480D01*
X246000Y-89583D02*
Y-87417D01*
X244917Y-88500D02*
X247083D01*
X242457Y-89878D02*
Y-87122D01*
X249543Y-89878D02*
Y-87122D01*
X242457D02*
X249543D01*
X242457Y-89878D02*
X249543D01*
X206337Y-92783D02*
Y-90617D01*
X205254Y-91700D02*
X207420D01*
X209880Y-93078D02*
Y-90322D01*
X202794Y-93078D02*
Y-90322D01*
Y-93078D02*
X209880D01*
X202794Y-90322D02*
X209880D01*
X310394Y-36122D02*
X317480D01*
X310394Y-38878D02*
X317480D01*
X310394D02*
Y-36122D01*
X317480Y-38878D02*
Y-36122D01*
X312854Y-37500D02*
X315020D01*
X313937Y-38583D02*
Y-36417D01*
X116457Y-38130D02*
X123543D01*
X116457Y-35374D02*
X123543D01*
Y-38130D02*
Y-35374D01*
X116457Y-38130D02*
Y-35374D01*
X118917Y-36752D02*
X121083D01*
X120000Y-37835D02*
Y-35669D01*
X94457Y-26374D02*
X101543D01*
X94457Y-29130D02*
X101543D01*
X94457D02*
Y-26374D01*
X101543Y-29130D02*
Y-26374D01*
X96917Y-27752D02*
X99083D01*
X98000Y-28835D02*
Y-26669D01*
X183237Y-73383D02*
Y-71217D01*
X182154Y-72300D02*
X184320D01*
X186780Y-73678D02*
Y-70922D01*
X179694Y-73678D02*
Y-70922D01*
Y-73678D02*
X186780D01*
X179694Y-70922D02*
X186780D01*
X94457Y-21874D02*
X101543D01*
X94457Y-24630D02*
X101543D01*
X94457D02*
Y-21874D01*
X101543Y-24630D02*
Y-21874D01*
X96917Y-23252D02*
X99083D01*
X98000Y-24335D02*
Y-22169D01*
X179694Y-65922D02*
X186780D01*
X179694Y-68678D02*
X186780D01*
X179694D02*
Y-65922D01*
X186780Y-68678D02*
Y-65922D01*
X182154Y-67300D02*
X184320D01*
X183237Y-68383D02*
Y-66217D01*
X76820Y-92800D02*
Y-90635D01*
X75737Y-91717D02*
X77902D01*
X80363Y-93095D02*
Y-90340D01*
X73276Y-93095D02*
Y-90340D01*
Y-93095D02*
X80363D01*
X73276Y-90340D02*
X80363D01*
X73275Y-86039D02*
X80362D01*
X73275Y-88794D02*
X80362D01*
X73275D02*
Y-86039D01*
X80362Y-88794D02*
Y-86039D01*
X75736Y-87416D02*
X77901D01*
X76819Y-88499D02*
Y-86334D01*
X277917Y-46252D02*
X280083D01*
X279000Y-47335D02*
Y-45169D01*
X277622Y-49795D02*
X280378D01*
X277622Y-42709D02*
X280378D01*
X277622Y-49795D02*
Y-42709D01*
X280378Y-49795D02*
Y-42709D01*
X24379Y-64559D02*
X29390Y-69570D01*
X26328Y-62611D02*
X31339Y-67622D01*
X29390Y-69570D02*
X31339Y-67622D01*
X24379Y-64559D02*
X26328Y-62611D01*
X27093Y-65325D02*
X28624Y-66856D01*
X27093D02*
X28624Y-65325D01*
X99193Y-53856D02*
X100724Y-52325D01*
X99193D02*
X100724Y-53856D01*
X101490Y-56570D02*
X103439Y-54622D01*
X96479Y-51559D02*
X98428Y-49611D01*
X96479Y-51559D02*
X101490Y-56570D01*
X98428Y-49611D02*
X103439Y-54622D01*
X95728Y-52511D02*
X100739Y-57522D01*
X93779Y-54459D02*
X98790Y-59470D01*
X93779Y-54459D02*
X95728Y-52511D01*
X98790Y-59470D02*
X100739Y-57522D01*
X96493Y-55225D02*
X98024Y-56756D01*
X96493Y-56756D02*
X98024Y-55225D01*
X93693Y-59756D02*
X95224Y-58225D01*
X93693D02*
X95224Y-59756D01*
X95990Y-62470D02*
X97939Y-60522D01*
X90979Y-57459D02*
X92928Y-55511D01*
X90979Y-57459D02*
X95990Y-62470D01*
X92928Y-55511D02*
X97939Y-60522D01*
X90028Y-58311D02*
X95039Y-63322D01*
X88079Y-60259D02*
X93090Y-65270D01*
X88079Y-60259D02*
X90028Y-58311D01*
X93090Y-65270D02*
X95039Y-63322D01*
X90793Y-61025D02*
X92324Y-62556D01*
X90793Y-62556D02*
X92324Y-61025D01*
X112093Y-66456D02*
X113624Y-64925D01*
X112093D02*
X113624Y-66456D01*
X114390Y-69170D02*
X116339Y-67222D01*
X109379Y-64159D02*
X111328Y-62211D01*
X109379Y-64159D02*
X114390Y-69170D01*
X111328Y-62211D02*
X116339Y-67222D01*
X114328Y-59211D02*
X119339Y-64222D01*
X112379Y-61159D02*
X117390Y-66170D01*
X112379Y-61159D02*
X114328Y-59211D01*
X117390Y-66170D02*
X119339Y-64222D01*
X115093Y-61925D02*
X116624Y-63456D01*
X115093Y-63456D02*
X116624Y-61925D01*
X183237Y-54683D02*
Y-52517D01*
X182154Y-53600D02*
X184320D01*
X186780Y-54978D02*
Y-52222D01*
X179694Y-54978D02*
Y-52222D01*
Y-54978D02*
X186780D01*
X179694Y-52222D02*
X186780D01*
X283378Y-49795D02*
Y-42709D01*
X280622Y-49795D02*
Y-42709D01*
X283378D01*
X280622Y-49795D02*
X283378D01*
X282000Y-47335D02*
Y-45169D01*
X280917Y-46252D02*
X283083D01*
X183237Y-59483D02*
Y-57317D01*
X182154Y-58400D02*
X184320D01*
X186780Y-59778D02*
Y-57022D01*
X179694Y-59778D02*
Y-57022D01*
Y-59778D02*
X186780D01*
X179694Y-57022D02*
X186780D01*
X127122Y-38795D02*
Y-31709D01*
X129878Y-38795D02*
Y-31709D01*
X127122Y-38795D02*
X129878D01*
X127122Y-31709D02*
X129878D01*
X128500Y-36335D02*
Y-34169D01*
X127417Y-35252D02*
X129583D01*
X42693Y-51156D02*
X44224Y-49625D01*
X42693D02*
X44224Y-51156D01*
X44990Y-53870D02*
X46939Y-51922D01*
X39979Y-48859D02*
X41928Y-46911D01*
X39979Y-48859D02*
X44990Y-53870D01*
X41928Y-46911D02*
X46939Y-51922D01*
X140608Y-47333D02*
X147695D01*
X140608Y-44578D02*
X147695D01*
Y-47333D02*
Y-44578D01*
X140608Y-47333D02*
Y-44578D01*
X143069Y-45956D02*
X145234D01*
X144152Y-47038D02*
Y-44873D01*
X82917Y-173752D02*
X85083D01*
X84000Y-174835D02*
Y-172669D01*
X82622Y-177295D02*
X85378D01*
X82622Y-170209D02*
X85378D01*
X82622Y-177295D02*
Y-170209D01*
X85378Y-177295D02*
Y-170209D01*
X30979Y-57859D02*
X35990Y-62870D01*
X32928Y-55911D02*
X37939Y-60922D01*
X35990Y-62870D02*
X37939Y-60922D01*
X30979Y-57859D02*
X32928Y-55911D01*
X33693Y-58625D02*
X35224Y-60156D01*
X33693D02*
X35224Y-58625D01*
X144297Y-59577D02*
Y-57412D01*
X143214Y-58495D02*
X145379D01*
X147840Y-59873D02*
Y-57117D01*
X140753Y-59873D02*
Y-57117D01*
Y-59873D02*
X147840D01*
X140753Y-57117D02*
X147840D01*
X140715Y-65713D02*
X147802D01*
X140715Y-68468D02*
X147802D01*
X140715D02*
Y-65713D01*
X147802Y-68468D02*
Y-65713D01*
X143176Y-67090D02*
X145341D01*
X144259Y-68173D02*
Y-66008D01*
X266000Y-64531D02*
Y-60594D01*
X264032Y-62563D02*
X267969D01*
X247311Y-12220D02*
Y-8283D01*
X245342Y-10252D02*
X249279D01*
X91357Y-17222D02*
X98443D01*
X91357Y-19978D02*
X98443D01*
X91357D02*
Y-17222D01*
X98443Y-19978D02*
Y-17222D01*
X93817Y-18600D02*
X95983D01*
X94900Y-19683D02*
Y-17517D01*
X36896Y-11000D02*
X39062D01*
X37979Y-12083D02*
Y-9917D01*
X36601Y-7457D02*
X39357D01*
X36601Y-14543D02*
X39357D01*
X36601D02*
Y-7457D01*
X39357Y-14543D02*
Y-7457D01*
X174917Y-80500D02*
X177083D01*
X176000Y-81583D02*
Y-79417D01*
X174622Y-76957D02*
X177378D01*
X174622Y-84043D02*
X177378D01*
X174622D02*
Y-76957D01*
X177378Y-84043D02*
Y-76957D01*
X305122Y-117795D02*
Y-110709D01*
X307878Y-117795D02*
Y-110709D01*
X305122D02*
X307878D01*
X305122Y-117795D02*
X307878D01*
X306500Y-115335D02*
Y-113169D01*
X305417Y-114252D02*
X307583D01*
D179*
X294106Y-147358D02*
Y-123146D01*
X269894Y-147358D02*
Y-123146D01*
X294106D01*
X269894Y-147358D02*
X294106D01*
M02*
