M48
;Layer_Color=9474304
;FILE_FORMAT=2:5
INCH,LZ
;TYPE=PLATED
T1F00S00C0.00787
T2F00S00C0.00800
T3F00S00C0.01000
T4F00S00C0.01200
T5F00S00C0.01300
T6F00S00C0.01800
T7F00S00C0.02756
T8F00S00C0.02913
T9F00S00C0.07087
T10F00S00C0.07874
T11F00S00C0.09000
%
T01
X0277669Y-0139583
Y-0135252
Y-0130921
X0282
X0286331
Y-0135252
X0282
Y-0139583
X0286331
T02
X02735Y-0160752
X02795Y-0154752
X02865Y-0155
X02905Y-01505
X0299Y-01425
X02975Y-0141
X0294638Y-0128362
X0296Y-0127
X02925Y-0122
X0284953Y-0121547
X0282984Y-0122516
X0257Y-0126252
Y-013
Y-01335
X02575Y-0137
Y-01405
X02515Y-0146
X02435Y-01395
X02355
Y-01495
X0237Y-01585
X0233Y-0164252
X0232Y-0169252
X0228537Y-0169
X0226337Y-01666
X0222237Y-01667
X0224337Y-01694
X02205Y-0163252
X0206Y-0163701
X0201Y-0164752
X0204Y-0167752
X02045Y-0157252
X02055Y-01525
Y-01505
X02025Y-0143252
Y-0140752
X0192Y-0139252
X0186Y-0144752
X01875Y-0146252
X0188751Y-0148001
X0190337Y-01512
X0192137Y-01527
X0194037Y-01543
X0195337Y-01559
X0196937Y-01574
X0197237Y-01601
X01805Y-01605
Y-0162626
Y-0164752
X01665Y-0165752
X0164137
X0161037
X0157837
X0156237Y-0163552
X0159437
X0162537
X01635Y-0182452
X0161
X01585
X01565
X0153119Y-0177409
X014682
X0145245Y-0178809
X014367Y-0180209
X0146937Y-01827
X0149937Y-01844
X01385Y-0178
X01325Y-0178252
X0128
X01235Y-0177252
X0124737Y-0165752
X0123237Y-0164252
X0121637Y-0165752
X012Y-0164252
X01185Y-0165752
X0117Y-0164252
X01335Y-0163552
X01355
X01375
X0140537
X0138937Y-0165752
X0142137
X0146Y-0140752
X0162603Y-0129104
X0162Y-0127
X01595Y-0125252
X01805Y-0127752
X018Y-0138252
X0181Y-0140252
X01825Y-0141752
X0184Y-0143252
X0184537Y-01496
X0180537
X0174Y-0178752
X023Y-0184
X02405Y-0168752
X0246137Y-0168389
X0248137Y-01676
X025Y-0168752
Y-01645
X0248Y-0163
X0246Y-01615
X02525
X02535Y-01595
X0267Y-0151
X02685Y-0145
Y-0143283
X0266Y-0176252
X0258Y-0179752
X0228537Y-01557
X0226337Y-01526
X0224337Y-01508
X02225Y-01495
X022576Y-013376
X0249Y-0123922
X0107Y-0124
Y-0140252
Y-0143252
X0101Y-0144752
X0099Y-0140252
X00965Y-0153752
X0097Y-0163252
X0096437Y-01675
X0102937Y-0166
X0105437
X0081Y-0151752
X00775Y-0152252
X00847Y-0147619
X0073Y-0125752
X0044237Y-01573
X0051745Y-0098084
X0053953Y-0095837
X0056199Y-0093629
X0058427Y-0091403
X0060653Y-0089175
X0061537Y-0083268
X0069562Y-0080266
X0071959Y-007819
X0074016Y-0075813
X0076227Y-0073568
X007847Y-0071359
X0080698Y-0069131
X0082924Y-0066904
X0085066Y-0064591
X0083501Y-0061106
X0070259Y-006539
X0072691Y-0067945
X0068095Y-007229
X0064459Y-007079
X0057518Y-007549
X0052797Y-0075252
X0053201Y-0077416
X0052539Y-006547
X0050417Y-0063349
X0050212Y-0067787
X0045947Y-0071779
X0038043Y-0071018
X0040164Y-0068686
X0035818Y-0073248
X0033737Y-00756
X0031325Y-0077665
X0026859Y-0073491
X0023759Y-007649
X0020859Y-0079491
X0018059Y-008279
X0017459Y-008569
X0009959Y-008069
X00125Y-00745
X0013459Y-007219
X0016459Y-0069191
X0019459Y-006619
X0030959
X0027859Y-006249
X0031259Y-005929
X0034259Y-0056291
X0037197Y-0050029
X0040147Y-0046979
X0049359Y-0046191
X0049159Y-0042491
X0052159Y-003959
X0055059Y-003659
X0058159Y-003359
X0058059Y-002749
X0063Y-0012252
Y-0010252
X00805Y-0007
Y-0022
X00825
X00879Y-0017952
X00915Y-0015
X01Y-00205
X0066859Y-004329
X0063732Y-0045823
X005971Y-0049068
X0058087Y-0050976
X0055755Y-0053096
X0053599Y-0055396
X0051441Y-0057692
X0047959Y-005969
X0061337Y-00568
X0063963Y-0054224
X006791Y-0049953
X0070237Y-0052169
X0045759Y-0039691
X00374Y-00191
X00237Y-0011
X0096659Y-008279
X0108137Y-00745
X01135Y-0070752
X0106237Y-01025
X0073037Y-01088
X0135Y-0099252
X0142Y-0082252
X0144Y-0080752
Y-0075252
X0142Y-0074252
X01585Y-0075252
X01615Y-0066752
X0163Y-0065252
X0165Y-0064752
X0163737Y-0061
X0168137Y-00548
X01665Y-0052752
Y-00501
X0170337Y-0048415
X0170137Y-00461
X0168937Y-00442
X01665Y-0043
X0172037Y-00407
X0170437Y-00383
X0169613Y-0033347
X0171777Y-0032751
X0167026Y-0033752
X0159Y-0037252
X0159737Y-00478
X0155037Y-00537
X0149146Y-0050077
X0149155Y-0058495
X0149159Y-0062691
X0151Y-0064752
X01685Y-0067752
X01705
X0177088Y-0068251
X0178537Y-00584
X0179Y-0051252
X01785Y-0048252
X0178Y-0045752
X01795Y-0041252
X01825Y-0039752
X0177937Y-0037752
X0179Y-0035752
X0177937Y-00324
X0182012Y-0029112
X01842Y-00291
X0192737Y-00315
X0193837Y-00334
X0198Y-0031752
X0198337Y-0029148
X01955Y-0029252
X01925Y-0022252
Y-00201
Y-00181
Y-00161
Y-0012752
Y-0010752
X0191Y-0008252
X0179Y-0008752
Y-00126
Y-0018252
X0178Y-0022252
X01665Y-0021752
Y-001941
Y-0016752
Y-0014752
X0168Y-0012752
X01715Y-0011252
Y-0008752
X0155637Y-00063
X01525Y-00065
X015Y-0006752
X01485Y-00089
Y-0011252
X01495Y-0018752
X0157037Y-00203
X01535Y-0029252
X0142Y-0030752
X0141Y-0022252
X0128Y-0019252
X01305Y-0029
X01405Y-0040752
X0198937Y-00436
X0197937Y-00456
X0197137Y-00476
X0196237Y-00496
X02075Y-0055752
X02125Y-0053752
X02245Y-0052752
X02275Y-0057252
X02295
X02315
X0232Y-0051252
X0236Y-0052
X02375
X0239
X02405Y-00515
X02375Y-0049252
X0235Y-0046252
X0233617Y-0041054
Y-0036454
X0235163Y-0036311
X02345Y-0034752
X0234Y-0031752
X02345Y-0026752
X0244Y-0020252
X02455
X02475Y-0019752
X02495
X0251Y-0020252
X0259Y-0019413
Y-0017252
Y-0014752
X02635Y-0016529
Y-0019
X02665Y-0017402
X0263984Y-0002268
X02375Y-001
Y-00125
X02188Y-00025
X0215Y-0021252
X0223713Y-0033252
X0222Y-0065752
X02425Y-0066252
X0243Y-0073
X02445
X0246
Y-00745
X02445
X0243
X025675Y-0062502
X02655Y-00645
Y-0049252
X0267Y-0040447
X0268586Y-0041666
X0268Y-0038252
X02655Y-0037252
X0252362Y-0051452
X0252417Y-0053054
X0247Y-0052752
X0262Y-0089252
X0266965Y-0090787
X0225Y-0106752
X022
X02185
X02085Y-010622
X0209Y-0099252
X02115Y-0093752
X01805Y-0100752
X0179197Y-0107055
X0162Y-0102
Y-00995
Y-0097
Y-00945
X0158Y-00975
X01535Y-0093252
X0184Y-0063752
X02765Y-0052752
X0279Y-0051252
X02765Y-0044252
X0278914Y-004158
X0282Y-0040666
X02855Y-0041752
X02925Y-0045252
X03035
X03039Y-0048
X0304437Y-00385
X03085Y-0038752
X0306685Y-0034752
Y-0024437
X03085Y-0022252
X03055Y-0018752
X03115Y-0017752
X0309484Y-0011736
X0304Y-0010768
X0308Y-00045
X03135Y-0007252
X032Y-0006752
X03235Y-0003752
X03305Y-0012752
X0338Y-0037752
X0336Y-0052252
X03165Y-0066
X03055Y-0069752
X02905Y-0058752
X0285Y-0060752
X02905Y-0025752
T03
X0277524Y-01814
Y-017865
Y-01759
Y-017315
Y-01704
Y-016765
X0280783
Y-01704
Y-017315
Y-01759
Y-017865
Y-01814
X0284041
Y-017865
Y-01759
Y-017315
Y-01704
Y-016765
X02873
Y-01704
Y-017315
Y-01759
Y-017865
Y-01814
X0293012Y-0167463
X0298Y-0159
X02981Y-01562
X0298Y-01532
X02979Y-01502
X0308Y-01495
X0311467
X0311567Y-0153
X0308
Y-01565
X0311767
X0315534
X0315334Y-0153
X0315234Y-01495
X0319002
X0319102Y-0153
X0319302Y-01565
X0323069
X0322869Y-0153
X0322769Y-01495
X0326536
X0326636Y-0153
X0326836Y-01565
X033Y-01575
Y-01545
X0333167Y-01575
X0336333
X03395
X03396Y-01547
X0326536Y-0145808
Y-0142419
Y-013903
Y-0135641
Y-0132252
Y-0129252
Y-012556
X0326433Y-0122308
X0323219Y-0122322
X0320304
X0317388
X0317478Y-0118082
X032034
X0323201
X0326536
X03295Y-0119752
X0332889
X0336278
X0339667
X0312256Y-0127125
X0308575Y-0127115
X0308639Y-012973
X02973Y-01162
X02849Y-0161
X02815Y-01609
X02687Y-01257
X02668Y-01237
X0266648Y-0116639
X0266638Y-0114112
X0257469Y-0112969
X0161137Y-01165
X0067937Y-01479
X0052Y-0144752
X00425
X0033
X0056Y-0159252
X0048859Y-0036691
X0051759Y-0033691
X0054759Y-0030691
X0038Y-0029937
X0036937Y-0003
X0033Y-00023
X0029937Y-0003
X0043937Y-00045
X0014Y-0003
X0122Y-004
X0130694Y-0073299
X0155337Y-00759
X01595Y-0081252
X0162
X01654Y-00807
X0160892Y-0057618
X0158637Y-00546
X0177711Y-0060895
X0179337Y-00289
X0266237Y-00349
X0268237Y-0034839
X0268515Y-0089237
X0264437Y-00962
X0254437Y-00867
X0251Y-0109
X02893Y-0108
X0293438
X0297575
X0301712
X030585
X0309987
X0314125
X0318263
X03224
X0313153Y-0101105
X0313076Y-0087074
X02973Y-01125
X0279724Y-0054027
T04
X0214684Y-0168028
X01925Y-0128252
X00685Y-0138752
X00535Y-0157752
X006Y-0185252
X00875
X0097
X00105Y-0145252
X0002Y-0144752
X-00005Y-0128752
Y-0125098
Y-0121444
Y-011779
Y-0114137
Y-0110483
Y-0106829
Y-0103175
Y-0099521
X-00015Y-0042752
Y-0038919
Y-0035085
Y-0031252
X0004Y-0037
X0006Y-0012252
X0001Y-0003752
X0026783Y-0012968
X00465Y-00085
X0049
X00515
X02225Y-0050252
X0234546Y-0039226
T05
X0096737Y-01496
X0097Y-0122752
Y-0108752
X0100359Y-00934
X0096031Y-003122
X0149194Y-0045956
X0149413Y-0054444
X0150237Y-00821
X0131037Y-00934
X0120037
X0116337Y-00985
X01595Y-01065
X01615Y-0108
X01815Y-0083
X01785Y-0064252
X0266Y-01
X0319752Y-00305
T06
X03085Y-0177937
X03075Y-0172437
X03025Y-0158
Y-0154
X0238283Y-0165469
X0247Y-01335
Y-013
X02535Y-01175
X0233Y-01245
X022Y-01155
X0161207Y-0133159
X013Y-0164752
X00625
X0053Y-018
X005
Y-01835
X0047Y-0185
Y-01815
X0018207Y-0161659
X0017968Y-0137284
X0007Y-0121
X0080707Y-0141659
X00895Y-00295
X0068337Y-00257
X0040937Y-0017
X0028Y-00165
X01005Y-0003252
X01145Y-0011252
X0128Y-0005252
X01325Y-0019252
X0118Y-0030052
X01685Y-0030252
X0209Y-0032252
Y-0019752
X02185Y-0016752
X02265
X02355Y-00165
X02005Y-0014752
X0205Y-0007752
X0208Y-0043752
X0213
X0204Y-0057252
X02575Y-00845
X0160707Y-0112659
X01345Y-0110752
X0141032Y-0097783
X02775Y-0068752
X0282Y-0051752
X0298957Y-006191
X029525Y-008625
X029425Y-0019502
Y-000525
X028675Y-0003752
X0323532Y-0013721
T07
X0119Y-0184252
X0124
X0129
X0134
X0139
X0187537Y-01637
X0192537
X0114Y-0184252
X0109
X0023Y-0181252
X0018
X0013
X0008
X0281Y-01
X0286
X0291
X0329Y-0045752
Y-0040752
T08
X0031894Y-01692
X0041737
X0051579
T09
X033487Y-0164961
X0002587
X0002587Y-0023228
X0215972Y-0073228
X033487Y-0023228
T10
X0131859Y-0129891
T11
X025Y-0035752
M30
