G04 Layer_Physical_Order=3*
G04 Layer_Color=36540*
%FSLAX25Y25*%
%MOIN*%
G70*
G01*
G75*
%ADD10C,0.00799*%
%ADD11C,0.02000*%
%ADD12C,0.00800*%
%ADD13C,0.00500*%
%ADD14C,0.00600*%
%ADD16C,0.01000*%
%ADD18C,0.04000*%
%ADD19C,0.03000*%
%ADD71C,0.06000*%
%ADD83C,0.09843*%
%ADD84C,0.06693*%
G04:AMPARAMS|DCode=86|XSize=236.22mil|YSize=236.22mil|CornerRadius=0mil|HoleSize=0mil|Usage=FLASHONLY|Rotation=0.000|XOffset=0mil|YOffset=0mil|HoleType=Round|Shape=RoundedRectangle|*
%AMROUNDEDRECTD86*
21,1,0.23622,0.23622,0,0,0.0*
21,1,0.23622,0.23622,0,0,0.0*
1,1,0.00000,0.11811,-0.11811*
1,1,0.00000,-0.11811,-0.11811*
1,1,0.00000,-0.11811,0.11811*
1,1,0.00000,0.11811,0.11811*
%
%ADD86ROUNDEDRECTD86*%
%ADD87C,0.01600*%
%ADD88C,0.01800*%
%ADD89C,0.02200*%
%ADD90C,0.03000*%
%ADD91C,0.02400*%
%ADD92C,0.02000*%
%ADD93C,0.01799*%
%ADD94C,0.01969*%
%ADD95C,0.12000*%
G36*
X14219Y120929D02*
X-2237D01*
X-2590Y121284D01*
X-2508Y136472D01*
X14219D01*
Y120929D01*
D02*
G37*
G36*
X2228Y187295D02*
X4401Y186773D01*
X6466Y185918D01*
X8371Y184750D01*
X10071Y183299D01*
X11522Y181599D01*
X12690Y179694D01*
X13545Y177629D01*
X14067Y175456D01*
X14235Y173312D01*
X14219Y173228D01*
Y151181D01*
X14223Y151158D01*
X14100Y150861D01*
X13802Y150738D01*
X13780Y150742D01*
D01*
X-15748D01*
Y150742D01*
X-16654Y150623D01*
X-17497Y150274D01*
X-18222Y149718D01*
X-18778Y148993D01*
X-19127Y148150D01*
X-19247Y147244D01*
X-19246D01*
Y137744D01*
X-19500Y137535D01*
X-20202Y137396D01*
X-20798Y136998D01*
X-21196Y136402D01*
X-21335Y135700D01*
X-21196Y134998D01*
X-20927Y134596D01*
Y127675D01*
X-25203Y123399D01*
X-25238Y123385D01*
X-25687Y123296D01*
X-26282Y122898D01*
X-26492Y122583D01*
X-26983Y122485D01*
X-27298Y122696D01*
X-28000Y122835D01*
X-28702Y122696D01*
X-29298Y122298D01*
X-29696Y121702D01*
X-29835Y121000D01*
X-29696Y120298D01*
X-29298Y119702D01*
X-28702Y119304D01*
X-28280Y119220D01*
X-28196Y118798D01*
X-27798Y118202D01*
X-27202Y117804D01*
X-26500Y117665D01*
X-25798Y117804D01*
X-25202Y118202D01*
X-24804Y118798D01*
X-24665Y119500D01*
X-24665Y119500D01*
X-24665Y119500D01*
X-24412Y119879D01*
X-24282Y119904D01*
X-23686Y120302D01*
X-23289Y120898D01*
X-23199Y121347D01*
X-23185Y121381D01*
X-18491Y126075D01*
X-18491Y126075D01*
X-18491Y126075D01*
X-18182Y126538D01*
X-18164Y126629D01*
X-18073Y127084D01*
X-18073Y127084D01*
Y132880D01*
X-17625Y133101D01*
X-17497Y133003D01*
X-16654Y132654D01*
X-16500Y132634D01*
Y120830D01*
X-16649Y120811D01*
X-17493Y120461D01*
X-18219Y119904D01*
X-18776Y119179D01*
X-19126Y118334D01*
X-19154Y118120D01*
X-19641Y118006D01*
X-19902Y118398D01*
X-20498Y118796D01*
X-21200Y118935D01*
X-21902Y118796D01*
X-22498Y118398D01*
X-22896Y117802D01*
X-22959Y117484D01*
X-23402Y117396D01*
X-23998Y116998D01*
X-24396Y116402D01*
X-24535Y115700D01*
X-24396Y114998D01*
X-23998Y114402D01*
X-23402Y114004D01*
X-22700Y113865D01*
X-21998Y114004D01*
X-21402Y114402D01*
X-21004Y114998D01*
X-20941Y115316D01*
X-20498Y115404D01*
X-19902Y115802D01*
X-19716Y116082D01*
X-19229Y115968D01*
X-19127Y115197D01*
X-18778Y114353D01*
X-18222Y113629D01*
X-17497Y113073D01*
X-16654Y112723D01*
X-15748Y112604D01*
Y112604D01*
X-3498D01*
Y83465D01*
X-3498D01*
X-3379Y82559D01*
X-3030Y81715D01*
X-2474Y80991D01*
X-1749Y80435D01*
X-905Y80085D01*
X0Y79966D01*
Y79967D01*
X13748D01*
X13780Y79960D01*
X13780Y79960D01*
X14100Y79842D01*
X14222Y79546D01*
X14219Y79528D01*
Y67099D01*
X3170D01*
X3070Y66999D01*
X3070Y35699D01*
X14219D01*
Y15748D01*
X14235Y15664D01*
X14067Y13520D01*
X13545Y11347D01*
X12690Y9282D01*
X11522Y7377D01*
X10071Y5677D01*
X8371Y4226D01*
X6466Y3058D01*
X4401Y2203D01*
X2228Y1681D01*
X84Y1513D01*
X0Y1529D01*
X-16535D01*
X-16558Y1525D01*
X-16856Y1648D01*
X-16979Y1946D01*
X-16974Y1969D01*
Y4331D01*
X-16974D01*
X-17093Y5236D01*
X-17443Y6080D01*
X-17999Y6804D01*
X-18723Y7360D01*
X-19567Y7710D01*
X-20472Y7829D01*
Y7829D01*
X-71260D01*
Y7829D01*
X-72165Y7710D01*
X-73009Y7360D01*
X-73734Y6804D01*
X-74290Y6080D01*
X-74639Y5236D01*
X-74758Y4331D01*
X-74758D01*
Y2118D01*
X-74769Y2108D01*
X-74769D01*
X-74769Y2108D01*
X-74806Y1922D01*
X-74944Y1715D01*
X-75150Y1577D01*
X-75394Y1529D01*
X-75450Y1540D01*
Y1540D01*
X-75491Y1510D01*
X-75590Y1529D01*
X-328346D01*
X-328430Y1513D01*
X-330574Y1681D01*
X-332748Y2203D01*
X-334812Y3058D01*
X-336718Y4226D01*
X-338417Y5677D01*
X-339868Y7377D01*
X-341036Y9282D01*
X-341891Y11347D01*
X-342413Y13520D01*
X-342582Y15664D01*
X-342565Y15748D01*
Y38182D01*
X-342435Y38497D01*
X-342088Y38641D01*
X-342061Y38636D01*
D01*
X-342021Y38628D01*
X-332284D01*
X-332283Y38628D01*
Y38627D01*
D01*
D01*
Y38627D01*
X-332283D01*
X-332283D01*
X-332283D01*
X-332283Y38627D01*
X-332283Y38628D01*
D01*
X-331378Y38747D01*
X-330534Y39096D01*
X-329810Y39652D01*
X-329254Y40377D01*
X-328904Y41221D01*
X-328785Y42126D01*
X-328786D01*
Y42126D01*
X-328786Y42126D01*
Y63540D01*
X-328784Y63552D01*
X-328786Y63565D01*
Y63606D01*
X-328802Y63687D01*
X-328905Y64472D01*
X-329260Y65328D01*
X-329824Y66064D01*
X-330560Y66628D01*
X-331417Y66983D01*
X-332206Y67087D01*
X-332283Y67103D01*
X-342052D01*
X-342131Y67119D01*
Y67119D01*
X-342144Y67110D01*
X-342448Y67236D01*
X-342569Y67530D01*
X-342565Y67552D01*
Y108315D01*
X-342554Y108325D01*
X-342554D01*
X-342554Y108325D01*
X-342517Y108511D01*
X-342379Y108718D01*
X-342173Y108856D01*
X-341929Y108904D01*
X-341872Y108893D01*
Y108893D01*
X-341831Y108923D01*
X-341732Y108904D01*
X-331890D01*
X-331651Y108951D01*
X-331230Y109007D01*
X-330431Y109337D01*
X-329746Y109864D01*
X-329219Y110549D01*
X-328889Y111348D01*
X-328776Y112205D01*
X-328795Y112353D01*
X-328786Y112402D01*
Y139961D01*
X-328795Y140009D01*
X-328776Y140157D01*
X-328889Y141014D01*
X-329219Y141813D01*
X-329746Y142499D01*
X-330431Y143025D01*
X-331230Y143356D01*
X-331651Y143411D01*
X-331890Y143458D01*
X-341732D01*
X-341831Y143439D01*
X-341872Y143469D01*
Y143469D01*
X-341929Y143458D01*
X-342173Y143506D01*
X-342379Y143644D01*
X-342517Y143851D01*
X-342554Y144038D01*
X-342554Y144038D01*
X-342554D01*
X-342565Y144047D01*
Y173228D01*
X-342582Y173312D01*
X-342413Y175456D01*
X-341891Y177629D01*
X-341036Y179694D01*
X-339868Y181599D01*
X-338417Y183299D01*
X-336718Y184750D01*
X-334812Y185918D01*
X-332748Y186773D01*
X-330574Y187295D01*
X-328430Y187464D01*
X-328346Y187447D01*
X0D01*
X84Y187464D01*
X2228Y187295D01*
D02*
G37*
%LPC*%
G36*
X-299165Y114818D02*
X-299867Y114678D01*
X-300462Y114280D01*
X-300860Y113685D01*
X-301000Y112983D01*
X-300860Y112280D01*
X-300462Y111685D01*
X-299867Y111287D01*
X-299165Y111147D01*
X-298462Y111287D01*
X-297867Y111685D01*
X-297469Y112280D01*
X-297329Y112983D01*
X-297469Y113685D01*
X-297867Y114280D01*
X-298462Y114678D01*
X-299165Y114818D01*
D02*
G37*
G36*
X-263340Y110151D02*
X-264042Y110012D01*
X-264638Y109614D01*
X-265035Y109019D01*
X-265175Y108316D01*
X-265035Y107614D01*
X-264638Y107018D01*
X-264042Y106621D01*
X-263340Y106481D01*
X-262637Y106621D01*
X-262042Y107018D01*
X-261644Y107614D01*
X-261505Y108316D01*
X-261644Y109019D01*
X-262042Y109614D01*
X-262637Y110012D01*
X-263340Y110151D01*
D02*
G37*
G36*
X-280105Y115165D02*
X-280807Y115026D01*
X-281403Y114628D01*
X-281800Y114032D01*
X-281940Y113330D01*
X-281800Y112628D01*
X-281403Y112032D01*
X-281323Y111979D01*
X-281396Y111870D01*
X-281536Y111167D01*
X-281396Y110465D01*
X-280998Y109870D01*
X-280403Y109472D01*
X-279701Y109332D01*
X-278998Y109472D01*
X-278403Y109870D01*
X-278005Y110465D01*
X-277866Y111167D01*
X-278005Y111870D01*
X-278403Y112465D01*
X-278403Y112465D01*
X-278270Y113330D01*
Y113330D01*
X-278409Y114032D01*
X-278807Y114628D01*
X-279402Y115026D01*
X-280105Y115165D01*
D02*
G37*
G36*
X-319443Y118227D02*
X-320145Y118088D01*
X-320741Y117690D01*
X-321138Y117095D01*
X-321278Y116392D01*
X-321150Y115747D01*
X-321699Y115380D01*
X-322097Y114785D01*
X-322237Y114083D01*
X-322097Y113380D01*
X-321699Y112785D01*
X-321104Y112387D01*
X-320402Y112247D01*
X-319699Y112387D01*
X-319104Y112785D01*
X-318706Y113380D01*
X-318566Y114083D01*
X-318694Y114727D01*
X-318145Y115094D01*
X-317747Y115690D01*
X-317608Y116392D01*
X-317747Y117095D01*
X-318145Y117690D01*
X-318741Y118088D01*
X-319443Y118227D01*
D02*
G37*
G36*
X-271365Y107149D02*
X-272067Y107010D01*
X-272663Y106612D01*
X-273060Y106017D01*
X-273200Y105314D01*
X-273060Y104612D01*
X-272663Y104016D01*
X-272067Y103619D01*
X-271365Y103479D01*
X-270662Y103619D01*
X-270067Y104016D01*
X-269669Y104612D01*
X-269530Y105314D01*
X-269669Y106017D01*
X-270067Y106612D01*
X-270662Y107010D01*
X-271365Y107149D01*
D02*
G37*
G36*
X-235902Y82074D02*
X-236760Y81903D01*
X-237488Y81417D01*
X-237974Y80689D01*
X-238145Y79831D01*
X-237974Y78972D01*
X-237488Y78245D01*
X-236760Y77758D01*
X-235902Y77588D01*
X-235043Y77758D01*
X-234315Y78245D01*
X-233829Y78972D01*
X-233659Y79831D01*
X-233829Y80689D01*
X-234315Y81417D01*
X-235043Y81903D01*
X-235902Y82074D01*
D02*
G37*
G36*
X-75402Y78021D02*
X-76143Y77873D01*
X-76771Y77453D01*
X-77191Y76825D01*
X-77339Y76083D01*
X-77191Y75342D01*
X-76771Y74714D01*
X-76143Y74294D01*
X-75402Y74146D01*
X-74660Y74294D01*
X-74032Y74714D01*
X-73612Y75342D01*
X-73464Y76083D01*
X-73612Y76825D01*
X-74032Y77453D01*
X-74660Y77873D01*
X-75402Y78021D01*
D02*
G37*
G36*
X-274475Y99015D02*
X-275177Y98876D01*
X-275773Y98478D01*
X-276170Y97882D01*
X-276310Y97180D01*
X-276170Y96478D01*
X-275773Y95882D01*
X-275177Y95485D01*
X-274475Y95345D01*
X-273773Y95485D01*
X-273177Y95882D01*
X-272779Y96478D01*
X-272640Y97180D01*
X-272779Y97882D01*
X-273177Y98478D01*
X-273773Y98876D01*
X-274475Y99015D01*
D02*
G37*
G36*
X-278949Y94581D02*
X-279651Y94442D01*
X-280246Y94044D01*
X-280644Y93449D01*
X-280784Y92746D01*
X-280644Y92044D01*
X-280246Y91448D01*
X-279651Y91051D01*
X-278949Y90911D01*
X-278246Y91051D01*
X-277651Y91448D01*
X-277253Y92044D01*
X-277114Y92746D01*
X-277253Y93449D01*
X-277651Y94044D01*
X-278246Y94442D01*
X-278949Y94581D01*
D02*
G37*
G36*
X-44646Y123835D02*
X-45349Y123696D01*
X-45944Y123298D01*
X-46342Y122702D01*
X-46482Y122000D01*
X-46342Y121298D01*
X-45944Y120702D01*
X-45349Y120304D01*
X-44646Y120165D01*
X-43944Y120304D01*
X-43349Y120702D01*
X-42951Y121298D01*
X-42811Y122000D01*
X-42951Y122702D01*
X-43349Y123298D01*
X-43944Y123696D01*
X-44646Y123835D01*
D02*
G37*
G36*
X-252204Y121286D02*
X-252906Y121147D01*
X-253502Y120749D01*
X-253899Y120153D01*
X-254039Y119451D01*
X-254030Y119403D01*
X-254383Y119050D01*
X-254432Y119059D01*
X-255134Y118920D01*
X-255730Y118522D01*
X-256127Y117927D01*
X-256267Y117224D01*
X-256260Y117191D01*
X-256614Y116837D01*
X-256675Y116849D01*
X-257377Y116710D01*
X-257973Y116312D01*
X-258370Y115717D01*
X-258510Y115014D01*
X-258370Y114312D01*
X-257973Y113716D01*
X-257377Y113319D01*
X-256675Y113179D01*
X-255973Y113319D01*
X-255377Y113716D01*
X-254979Y114312D01*
X-254840Y115014D01*
X-254846Y115048D01*
X-254493Y115401D01*
X-254432Y115389D01*
X-253730Y115529D01*
X-253134Y115926D01*
X-252736Y116522D01*
X-252597Y117224D01*
X-252606Y117272D01*
X-252253Y117626D01*
X-252204Y117616D01*
X-251501Y117756D01*
X-250906Y118153D01*
X-250508Y118749D01*
X-250369Y119451D01*
X-250508Y120153D01*
X-250906Y120749D01*
X-251501Y121147D01*
X-252204Y121286D01*
D02*
G37*
G36*
X-301943Y124227D02*
X-302645Y124088D01*
X-303240Y123690D01*
X-303638Y123094D01*
X-303778Y122392D01*
X-303638Y121690D01*
X-303240Y121095D01*
X-302645Y120697D01*
X-301943Y120557D01*
X-301240Y120697D01*
X-300645Y121095D01*
X-300247Y121690D01*
X-300108Y122392D01*
X-300247Y123094D01*
X-300645Y123690D01*
X-301240Y124088D01*
X-301943Y124227D01*
D02*
G37*
G36*
X-34446Y123935D02*
X-35149Y123796D01*
X-35744Y123398D01*
X-36142Y122802D01*
X-36282Y122100D01*
X-36142Y121398D01*
X-35744Y120802D01*
X-35149Y120404D01*
X-34446Y120265D01*
X-33744Y120404D01*
X-33149Y120802D01*
X-32751Y121398D01*
X-32611Y122100D01*
X-32751Y122802D01*
X-33149Y123398D01*
X-33744Y123796D01*
X-34446Y123935D01*
D02*
G37*
G36*
X-39302Y121480D02*
X-40004Y121340D01*
X-40600Y120942D01*
X-40997Y120347D01*
X-41137Y119644D01*
X-41051Y119209D01*
X-41513Y119018D01*
X-41632Y119197D01*
X-42228Y119595D01*
X-42930Y119735D01*
X-43632Y119595D01*
X-44228Y119197D01*
X-44625Y118602D01*
X-44765Y117899D01*
X-44625Y117197D01*
X-44228Y116602D01*
X-43632Y116204D01*
X-42930Y116064D01*
X-42228Y116204D01*
X-41632Y116602D01*
X-41234Y117197D01*
X-41095Y117899D01*
X-41181Y118334D01*
X-40719Y118526D01*
X-40600Y118347D01*
X-40004Y117949D01*
X-39302Y117809D01*
X-38600Y117949D01*
X-38004Y118347D01*
X-37606Y118942D01*
X-37467Y119644D01*
X-37606Y120347D01*
X-38004Y120942D01*
X-38600Y121340D01*
X-39302Y121480D01*
D02*
G37*
G36*
X-268443Y119627D02*
X-269145Y119488D01*
X-269741Y119090D01*
X-270138Y118494D01*
X-270278Y117792D01*
X-270138Y117090D01*
X-269741Y116495D01*
X-269145Y116097D01*
X-268443Y115957D01*
X-267741Y116097D01*
X-267145Y116495D01*
X-266747Y117090D01*
X-266608Y117792D01*
X-266747Y118494D01*
X-267145Y119090D01*
X-267741Y119488D01*
X-268443Y119627D01*
D02*
G37*
G36*
X-294859Y119399D02*
X-295561Y119260D01*
X-296157Y118862D01*
X-296554Y118266D01*
X-296694Y117564D01*
X-296554Y116862D01*
X-296157Y116267D01*
X-295561Y115869D01*
X-294859Y115729D01*
X-294157Y115869D01*
X-293561Y116267D01*
X-293163Y116862D01*
X-293024Y117564D01*
X-293163Y118266D01*
X-293561Y118862D01*
X-294157Y119260D01*
X-294859Y119399D01*
D02*
G37*
G36*
X-282690Y122631D02*
X-283392Y122492D01*
X-283988Y122094D01*
X-284385Y121499D01*
X-284525Y120796D01*
X-284385Y120094D01*
X-283988Y119499D01*
X-283392Y119101D01*
X-282690Y118961D01*
X-281988Y119101D01*
X-281392Y119499D01*
X-280994Y120094D01*
X-280855Y120796D01*
X-280994Y121499D01*
X-281392Y122094D01*
X-281988Y122492D01*
X-282690Y122631D01*
D02*
G37*
G36*
X-316443Y121227D02*
X-317145Y121088D01*
X-317741Y120690D01*
X-318138Y120095D01*
X-318278Y119392D01*
X-318138Y118690D01*
X-317741Y118095D01*
X-317145Y117697D01*
X-316443Y117557D01*
X-315740Y117697D01*
X-315145Y118095D01*
X-314747Y118690D01*
X-314608Y119392D01*
X-314747Y120095D01*
X-315145Y120690D01*
X-315740Y121088D01*
X-316443Y121227D01*
D02*
G37*
G36*
X-34446Y35535D02*
X-35149Y35396D01*
X-35497Y35163D01*
X-35844Y35396D01*
X-36546Y35535D01*
X-37249Y35396D01*
X-37844Y34998D01*
X-38242Y34402D01*
X-38382Y33700D01*
X-38242Y32998D01*
X-37844Y32402D01*
X-37249Y32004D01*
X-36546Y31865D01*
X-35844Y32004D01*
X-35497Y32237D01*
X-35149Y32004D01*
X-34446Y31865D01*
X-33744Y32004D01*
X-33149Y32402D01*
X-32751Y32998D01*
X-32611Y33700D01*
X-32751Y34402D01*
X-33149Y34998D01*
X-33744Y35396D01*
X-34446Y35535D01*
D02*
G37*
G36*
X-10547Y35749D02*
X-11522Y35555D01*
X-12349Y35002D01*
X-12901Y34176D01*
X-13095Y33200D01*
X-12901Y32225D01*
X-12349Y31398D01*
X-11522Y30845D01*
X-10547Y30651D01*
X-9571Y30845D01*
X-8744Y31398D01*
X-8191Y32225D01*
X-7998Y33200D01*
X-8191Y34176D01*
X-8744Y35002D01*
X-9571Y35555D01*
X-10547Y35749D01*
D02*
G37*
G36*
X-248202Y42799D02*
X-248904Y42659D01*
X-249499Y42261D01*
X-249897Y41666D01*
X-250037Y40963D01*
X-249897Y40261D01*
X-249499Y39666D01*
X-248904Y39268D01*
X-248202Y39128D01*
X-247499Y39268D01*
X-246904Y39666D01*
X-246506Y40261D01*
X-246366Y40963D01*
X-246506Y41666D01*
X-246904Y42261D01*
X-247499Y42659D01*
X-248202Y42799D01*
D02*
G37*
G36*
X-251946Y39335D02*
X-252649Y39196D01*
X-253244Y38798D01*
X-253642Y38202D01*
X-253782Y37500D01*
X-253642Y36798D01*
X-253244Y36202D01*
X-252649Y35804D01*
X-251946Y35665D01*
X-251244Y35804D01*
X-250649Y36202D01*
X-250251Y36798D01*
X-250111Y37500D01*
X-250251Y38202D01*
X-250649Y38798D01*
X-251244Y39196D01*
X-251946Y39335D01*
D02*
G37*
G36*
X-251902Y32880D02*
X-252604Y32740D01*
X-253199Y32343D01*
X-253597Y31747D01*
X-253737Y31045D01*
X-253597Y30343D01*
X-253199Y29747D01*
X-252604Y29349D01*
X-251902Y29210D01*
X-251199Y29349D01*
X-250604Y29747D01*
X-250206Y30343D01*
X-250066Y31045D01*
X-250206Y31747D01*
X-250604Y32343D01*
X-251199Y32740D01*
X-251902Y32880D01*
D02*
G37*
G36*
X-63147Y14937D02*
X-63888Y14790D01*
X-64516Y14370D01*
X-64936Y13741D01*
X-65084Y13000D01*
X-64936Y12259D01*
X-64516Y11630D01*
X-63888Y11210D01*
X-63363Y11106D01*
X-63384Y11000D01*
X-63236Y10259D01*
X-62816Y9630D01*
X-62188Y9210D01*
X-61446Y9063D01*
X-60705Y9210D01*
X-60077Y9630D01*
X-59657Y10259D01*
X-59509Y11000D01*
X-59657Y11741D01*
X-60077Y12370D01*
X-60705Y12790D01*
X-61230Y12894D01*
X-61209Y13000D01*
X-61357Y13741D01*
X-61777Y14370D01*
X-62405Y14790D01*
X-63147Y14937D01*
D02*
G37*
G36*
X-289385Y20383D02*
X-290528Y20333D01*
X-291619Y19989D01*
X-292585Y19374D01*
X-293358Y18530D01*
X-293886Y17515D01*
X-294134Y16398D01*
X-294084Y15254D01*
X-293740Y14163D01*
X-293125Y13198D01*
X-292281Y12424D01*
X-291266Y11896D01*
X-290149Y11648D01*
X-289005Y11698D01*
X-287914Y12042D01*
X-286949Y12657D01*
X-286176Y13501D01*
X-286020Y13800D01*
X-285525Y13729D01*
X-285385Y13024D01*
X-284832Y12197D01*
X-284686Y12099D01*
Y11599D01*
X-284832Y11502D01*
X-285385Y10675D01*
X-285579Y9699D01*
X-285385Y8724D01*
X-284832Y7897D01*
X-284611Y7749D01*
Y7249D01*
X-284832Y7102D01*
X-285385Y6275D01*
X-285579Y5299D01*
X-285385Y4324D01*
X-284832Y3497D01*
X-284005Y2944D01*
X-283030Y2750D01*
X-282054Y2944D01*
X-281227Y3497D01*
X-281155Y3605D01*
X-280655D01*
X-280582Y3497D01*
X-279755Y2944D01*
X-278780Y2750D01*
X-277804Y2944D01*
X-276977Y3497D01*
X-276905Y3605D01*
X-276405D01*
X-276332Y3497D01*
X-275505Y2944D01*
X-274530Y2750D01*
X-273554Y2944D01*
X-272727Y3497D01*
X-272175Y4324D01*
X-271981Y5299D01*
X-272175Y6275D01*
X-272727Y7102D01*
X-273554Y7654D01*
X-274530Y7848D01*
X-275505Y7654D01*
X-276332Y7102D01*
X-276405Y6993D01*
X-276905D01*
X-276977Y7102D01*
X-277198Y7249D01*
Y7749D01*
X-276977Y7897D01*
X-276425Y8724D01*
X-276231Y9699D01*
X-276425Y10675D01*
X-276977Y11502D01*
X-277804Y12054D01*
X-278780Y12248D01*
X-279755Y12054D01*
X-280582Y11502D01*
X-280655Y11393D01*
X-281155D01*
X-281227Y11502D01*
X-281374Y11599D01*
Y12099D01*
X-281227Y12197D01*
X-280675Y13024D01*
X-280481Y13999D01*
X-280675Y14975D01*
X-281227Y15802D01*
X-282054Y16354D01*
X-283030Y16548D01*
X-284005Y16354D01*
X-284832Y15802D01*
X-284925Y15663D01*
X-285407Y15797D01*
X-285449Y16777D01*
X-285794Y17868D01*
X-286408Y18834D01*
X-287252Y19607D01*
X-288267Y20135D01*
X-289385Y20383D01*
D02*
G37*
G36*
X-29546Y29741D02*
X-30366Y29578D01*
X-31060Y29114D01*
X-31525Y28419D01*
X-31688Y27600D01*
X-31525Y26781D01*
X-31060Y26086D01*
X-30366Y25622D01*
X-29546Y25459D01*
X-28727Y25622D01*
X-28032Y26086D01*
X-27568Y26781D01*
X-27405Y27600D01*
X-27568Y28419D01*
X-28032Y29114D01*
X-28727Y29578D01*
X-29546Y29741D01*
D02*
G37*
G36*
X-23246Y21149D02*
X-24222Y20955D01*
X-25049Y20402D01*
X-25601Y19576D01*
X-25795Y18600D01*
X-25601Y17625D01*
X-25049Y16798D01*
X-24222Y16245D01*
X-23246Y16051D01*
X-22271Y16245D01*
X-21444Y16798D01*
X-20891Y17625D01*
X-20697Y18600D01*
X-20891Y19576D01*
X-21444Y20402D01*
X-22271Y20955D01*
X-23246Y21149D01*
D02*
G37*
G36*
X-264794Y44936D02*
X-265536Y44789D01*
X-266164Y44369D01*
X-266584Y43741D01*
X-266732Y42999D01*
X-266584Y42258D01*
X-266164Y41629D01*
X-265536Y41209D01*
X-264794Y41062D01*
X-264053Y41209D01*
X-263425Y41629D01*
X-263005Y42258D01*
X-262857Y42999D01*
X-263005Y43741D01*
X-263425Y44369D01*
X-264053Y44789D01*
X-264794Y44936D01*
D02*
G37*
G36*
X-31702Y66918D02*
X-32404Y66778D01*
X-32999Y66380D01*
X-33397Y65785D01*
X-33537Y65083D01*
X-33397Y64380D01*
X-32999Y63785D01*
X-32404Y63387D01*
X-31702Y63247D01*
X-31619Y63264D01*
X-31299Y62785D01*
X-30704Y62387D01*
X-30002Y62247D01*
X-29299Y62387D01*
X-28704Y62785D01*
X-28306Y63380D01*
X-28166Y64083D01*
X-28306Y64785D01*
X-28704Y65380D01*
X-29299Y65778D01*
X-30002Y65918D01*
X-30084Y65902D01*
X-30404Y66380D01*
X-30999Y66778D01*
X-31702Y66918D01*
D02*
G37*
G36*
X-71047Y65837D02*
X-71788Y65690D01*
X-72416Y65270D01*
X-72836Y64641D01*
X-72984Y63900D01*
X-72836Y63159D01*
X-72416Y62530D01*
X-71788Y62110D01*
X-71047Y61963D01*
X-70305Y62110D01*
X-69677Y62530D01*
X-69257Y63159D01*
X-69109Y63900D01*
X-69257Y64641D01*
X-69677Y65270D01*
X-70305Y65690D01*
X-71047Y65837D01*
D02*
G37*
G36*
X-20795Y74136D02*
X-21536Y73989D01*
X-22164Y73569D01*
X-22584Y72940D01*
X-22732Y72199D01*
X-22584Y71458D01*
X-22164Y70829D01*
X-21536Y70410D01*
X-20795Y70262D01*
X-20053Y70410D01*
X-19425Y70829D01*
X-19005Y71458D01*
X-18857Y72199D01*
X-19005Y72940D01*
X-19425Y73569D01*
X-20053Y73989D01*
X-20795Y74136D01*
D02*
G37*
G36*
X-235902Y68074D02*
X-236760Y67903D01*
X-237488Y67417D01*
X-237974Y66689D01*
X-238145Y65831D01*
X-237974Y64972D01*
X-237488Y64245D01*
X-236760Y63758D01*
X-235902Y63588D01*
X-235043Y63758D01*
X-234315Y64245D01*
X-233829Y64972D01*
X-233659Y65831D01*
X-233829Y66689D01*
X-234315Y67417D01*
X-235043Y67903D01*
X-235902Y68074D01*
D02*
G37*
G36*
X-46547Y61741D02*
X-47366Y61578D01*
X-48061Y61114D01*
X-48525Y60419D01*
X-48688Y59600D01*
X-48525Y58781D01*
X-48061Y58086D01*
X-47366Y57622D01*
X-46547Y57459D01*
X-45727Y57622D01*
X-45033Y58086D01*
X-44568Y58781D01*
X-44405Y59600D01*
X-44568Y60419D01*
X-45033Y61114D01*
X-45727Y61578D01*
X-46547Y61741D01*
D02*
G37*
G36*
X-233902Y50166D02*
X-234604Y50026D01*
X-235199Y49628D01*
X-235597Y49033D01*
X-235737Y48331D01*
X-235597Y47628D01*
X-235199Y47033D01*
X-234604Y46635D01*
X-233902Y46495D01*
X-233199Y46635D01*
X-232604Y47033D01*
X-232206Y47628D01*
X-232066Y48331D01*
X-232206Y49033D01*
X-232604Y49628D01*
X-233199Y50026D01*
X-233902Y50166D01*
D02*
G37*
G36*
X-252195Y49472D02*
X-253170Y49278D01*
X-253997Y48726D01*
X-254550Y47899D01*
X-254744Y46923D01*
X-254550Y45948D01*
X-253997Y45121D01*
X-253170Y44568D01*
X-252195Y44374D01*
X-251219Y44568D01*
X-250393Y45121D01*
X-249840Y45948D01*
X-249646Y46923D01*
X-249840Y47899D01*
X-250393Y48726D01*
X-251219Y49278D01*
X-252195Y49472D01*
D02*
G37*
G36*
X-45546Y53935D02*
X-46249Y53796D01*
X-46844Y53398D01*
X-47242Y52802D01*
X-47382Y52100D01*
X-47242Y51398D01*
X-46844Y50802D01*
X-46249Y50404D01*
X-45546Y50265D01*
X-44844Y50404D01*
X-44249Y50802D01*
X-43851Y51398D01*
X-43711Y52100D01*
X-43851Y52802D01*
X-44249Y53398D01*
X-44844Y53796D01*
X-45546Y53935D01*
D02*
G37*
G36*
X-20030Y55534D02*
X-20732Y55395D01*
X-21328Y54997D01*
X-21725Y54401D01*
X-21865Y53699D01*
X-21725Y52997D01*
X-21577Y52774D01*
X-21725Y52552D01*
X-21865Y51849D01*
X-21725Y51147D01*
X-21577Y50924D01*
X-21725Y50701D01*
X-21865Y49999D01*
X-21725Y49297D01*
X-21328Y48702D01*
X-20732Y48304D01*
X-20030Y48164D01*
X-19328Y48304D01*
X-18732Y48702D01*
X-18334Y49297D01*
X-18195Y49999D01*
X-18334Y50701D01*
X-18483Y50924D01*
X-18334Y51147D01*
X-18195Y51849D01*
X-18334Y52552D01*
X-18483Y52774D01*
X-18334Y52997D01*
X-18195Y53699D01*
X-18334Y54401D01*
X-18732Y54997D01*
X-19328Y55395D01*
X-20030Y55534D01*
D02*
G37*
G36*
X-264992Y140465D02*
X-265694Y140326D01*
X-266290Y139928D01*
X-266687Y139332D01*
X-266827Y138630D01*
X-266687Y137928D01*
X-266290Y137332D01*
X-265694Y136935D01*
X-264992Y136795D01*
X-264289Y136935D01*
X-263694Y137332D01*
X-263296Y137928D01*
X-263157Y138630D01*
X-263296Y139332D01*
X-263694Y139928D01*
X-264289Y140326D01*
X-264992Y140465D01*
D02*
G37*
G36*
X-273192Y141350D02*
X-273894Y141211D01*
X-274490Y140813D01*
X-274887Y140217D01*
X-275027Y139515D01*
X-274887Y138813D01*
X-274490Y138217D01*
X-273894Y137820D01*
X-273192Y137680D01*
X-272490Y137820D01*
X-271894Y138217D01*
X-271496Y138813D01*
X-271357Y139515D01*
X-271496Y140217D01*
X-271894Y140813D01*
X-272490Y141211D01*
X-273192Y141350D01*
D02*
G37*
G36*
X-266043Y147127D02*
X-266745Y146988D01*
X-267340Y146590D01*
X-267738Y145994D01*
X-267878Y145292D01*
X-267738Y144590D01*
X-267340Y143994D01*
X-266745Y143597D01*
X-266043Y143457D01*
X-265340Y143597D01*
X-264745Y143994D01*
X-264347Y144590D01*
X-264208Y145292D01*
X-264347Y145994D01*
X-264745Y146590D01*
X-265340Y146988D01*
X-266043Y147127D01*
D02*
G37*
G36*
X-29647Y165841D02*
X-30466Y165678D01*
X-31161Y165214D01*
X-31625Y164519D01*
X-31788Y163700D01*
X-31625Y162881D01*
X-31161Y162186D01*
X-30466Y161722D01*
X-29647Y161559D01*
X-28827Y161722D01*
X-28133Y162186D01*
X-27668Y162881D01*
X-27505Y163700D01*
X-27668Y164519D01*
X-28133Y165214D01*
X-28827Y165678D01*
X-29647Y165841D01*
D02*
G37*
G36*
X-296945Y138509D02*
X-297647Y138370D01*
X-298243Y137972D01*
X-298640Y137376D01*
X-298780Y136674D01*
X-298640Y135972D01*
X-298243Y135376D01*
X-297647Y134978D01*
X-296945Y134839D01*
X-296243Y134978D01*
X-295647Y135376D01*
X-295249Y135972D01*
X-295110Y136674D01*
X-295249Y137376D01*
X-295647Y137972D01*
X-296243Y138370D01*
X-296945Y138509D01*
D02*
G37*
G36*
X-274843Y162927D02*
X-275545Y162788D01*
X-276140Y162390D01*
X-276538Y161794D01*
X-276678Y161092D01*
X-276538Y160390D01*
X-276140Y159794D01*
X-275545Y159397D01*
X-274843Y159257D01*
X-274141Y159397D01*
X-273545Y159794D01*
X-273147Y160390D01*
X-273008Y161092D01*
X-273147Y161794D01*
X-273545Y162390D01*
X-274141Y162788D01*
X-274843Y162927D01*
D02*
G37*
G36*
X-9146Y169799D02*
X-25146D01*
Y152579D01*
X-9146D01*
Y169799D01*
D02*
G37*
G36*
X-287143Y150727D02*
X-287845Y150588D01*
X-288440Y150190D01*
X-288838Y149594D01*
X-288978Y148892D01*
X-288838Y148190D01*
X-288440Y147594D01*
X-287845Y147197D01*
X-287143Y147057D01*
X-286440Y147197D01*
X-285845Y147594D01*
X-285447Y148190D01*
X-285308Y148892D01*
X-285447Y149594D01*
X-285845Y150190D01*
X-286440Y150588D01*
X-287143Y150727D01*
D02*
G37*
G36*
X-292311Y149299D02*
X-293286Y149105D01*
X-294113Y148553D01*
X-294665Y147726D01*
X-294860Y146750D01*
X-294665Y145775D01*
X-294113Y144948D01*
X-293286Y144395D01*
X-292311Y144201D01*
X-292192Y144225D01*
X-292094Y143732D01*
X-292448Y143378D01*
X-292755Y143439D01*
X-293457Y143300D01*
X-294053Y142902D01*
X-294450Y142306D01*
X-294590Y141604D01*
X-294450Y140902D01*
X-294053Y140306D01*
X-293457Y139909D01*
X-292755Y139769D01*
X-292053Y139909D01*
X-291457Y140306D01*
X-291059Y140902D01*
X-290925Y141578D01*
X-290509Y141855D01*
X-289645Y141683D01*
X-288669Y141877D01*
X-287842Y142430D01*
X-287290Y143257D01*
X-287096Y144232D01*
X-287290Y145208D01*
X-287842Y146035D01*
X-288669Y146587D01*
X-289645Y146781D01*
X-289763Y146758D01*
X-289955Y147726D01*
X-290508Y148553D01*
X-291335Y149105D01*
X-292311Y149299D01*
D02*
G37*
G36*
X-298230Y145040D02*
X-299049Y144877D01*
X-299744Y144413D01*
X-300208Y143719D01*
X-300371Y142899D01*
X-300365Y142867D01*
X-301044Y142413D01*
X-301508Y141719D01*
X-301671Y140899D01*
X-301508Y140080D01*
X-301044Y139385D01*
X-300349Y138921D01*
X-299530Y138758D01*
X-298710Y138921D01*
X-298016Y139385D01*
X-297552Y140080D01*
X-297389Y140899D01*
X-297395Y140931D01*
X-296716Y141385D01*
X-296252Y142080D01*
X-296089Y142899D01*
X-296252Y143719D01*
X-296716Y144413D01*
X-297410Y144877D01*
X-298230Y145040D01*
D02*
G37*
G36*
X-278143Y159829D02*
X-278884Y159682D01*
X-279513Y159262D01*
X-279933Y158633D01*
X-280080Y157892D01*
X-279933Y157151D01*
X-279700Y156803D01*
X-280054Y156450D01*
X-280401Y156682D01*
X-281143Y156829D01*
X-281884Y156682D01*
X-282513Y156262D01*
X-282933Y155633D01*
X-283080Y154892D01*
X-282933Y154151D01*
X-282781Y153924D01*
X-283135Y153570D01*
X-283301Y153682D01*
X-284043Y153829D01*
X-284784Y153682D01*
X-285413Y153262D01*
X-285833Y152634D01*
X-285980Y151892D01*
X-285833Y151151D01*
X-285413Y150522D01*
X-284784Y150102D01*
X-284043Y149955D01*
X-283301Y150102D01*
X-282673Y150522D01*
X-282253Y151151D01*
X-282106Y151892D01*
X-282253Y152634D01*
X-282405Y152860D01*
X-282051Y153214D01*
X-281884Y153102D01*
X-281143Y152955D01*
X-280401Y153102D01*
X-279773Y153522D01*
X-279353Y154151D01*
X-279206Y154892D01*
X-279353Y155633D01*
X-279585Y155981D01*
X-279232Y156335D01*
X-278884Y156102D01*
X-278143Y155955D01*
X-277401Y156102D01*
X-276773Y156522D01*
X-276353Y157151D01*
X-276206Y157892D01*
X-276353Y158633D01*
X-276773Y159262D01*
X-277401Y159682D01*
X-278143Y159829D01*
D02*
G37*
G36*
X-284943Y130727D02*
X-285645Y130588D01*
X-286241Y130190D01*
X-286638Y129595D01*
X-286778Y128892D01*
X-286638Y128190D01*
X-286241Y127594D01*
X-285645Y127197D01*
X-284943Y127057D01*
X-284241Y127197D01*
X-283645Y127594D01*
X-283247Y128190D01*
X-283108Y128892D01*
X-283247Y129595D01*
X-283645Y130190D01*
X-284241Y130588D01*
X-284943Y130727D01*
D02*
G37*
G36*
X-30746Y149141D02*
X-31566Y148978D01*
X-32261Y148514D01*
X-32725Y147819D01*
X-32888Y147000D01*
X-32725Y146181D01*
X-32261Y145486D01*
X-31566Y145022D01*
X-30746Y144859D01*
X-29927Y145022D01*
X-29232Y145486D01*
X-28768Y146181D01*
X-28605Y147000D01*
X-28768Y147819D01*
X-29232Y148514D01*
X-29927Y148978D01*
X-30746Y149141D01*
D02*
G37*
G36*
X-249401Y129312D02*
X-250103Y129173D01*
X-250698Y128775D01*
X-251096Y128180D01*
X-251236Y127477D01*
X-251096Y126775D01*
X-250698Y126179D01*
X-250103Y125782D01*
X-249401Y125642D01*
X-248698Y125782D01*
X-248103Y126179D01*
X-247705Y126775D01*
X-247566Y127477D01*
X-247705Y128180D01*
X-248103Y128775D01*
X-248698Y129173D01*
X-249401Y129312D01*
D02*
G37*
G36*
X-6646Y175841D02*
X-7466Y175678D01*
X-8161Y175214D01*
X-8625Y174519D01*
X-8788Y173700D01*
X-8625Y172881D01*
X-8161Y172186D01*
X-7466Y171722D01*
X-6646Y171559D01*
X-5827Y171722D01*
X-5133Y172186D01*
X-4668Y172881D01*
X-4505Y173700D01*
X-4668Y174519D01*
X-5133Y175214D01*
X-5827Y175678D01*
X-6646Y175841D01*
D02*
G37*
G36*
X-282485Y127068D02*
X-283187Y126929D01*
X-283783Y126531D01*
X-284180Y125935D01*
X-284320Y125233D01*
X-284180Y124531D01*
X-283783Y123935D01*
X-283187Y123538D01*
X-282485Y123398D01*
X-281783Y123538D01*
X-281187Y123935D01*
X-280789Y124531D01*
X-280650Y125233D01*
X-280789Y125935D01*
X-281187Y126531D01*
X-281783Y126929D01*
X-282485Y127068D01*
D02*
G37*
G36*
X-279303Y135022D02*
X-280005Y134883D01*
X-280601Y134485D01*
X-280998Y133889D01*
X-281138Y133187D01*
X-280998Y132485D01*
X-280601Y131889D01*
X-280005Y131492D01*
X-279303Y131352D01*
X-278601Y131492D01*
X-278005Y131889D01*
X-277607Y132485D01*
X-277468Y133187D01*
X-277607Y133889D01*
X-278005Y134485D01*
X-278601Y134883D01*
X-279303Y135022D01*
D02*
G37*
G36*
X-312502Y137472D02*
X-313321Y137309D01*
X-314016Y136845D01*
X-314480Y136150D01*
X-314643Y135331D01*
X-314480Y134511D01*
X-314016Y133817D01*
X-313321Y133352D01*
X-312502Y133190D01*
X-311682Y133352D01*
X-310988Y133817D01*
X-310523Y134511D01*
X-310360Y135331D01*
X-310523Y136150D01*
X-310988Y136845D01*
X-311682Y137309D01*
X-312502Y137472D01*
D02*
G37*
G36*
X-126446Y185175D02*
X-193147D01*
X-193634Y185078D01*
X-194048Y184801D01*
X-202623Y176225D01*
X-203064Y176461D01*
X-202898Y177300D01*
X-203092Y178276D01*
X-203644Y179102D01*
X-203715Y179150D01*
Y179650D01*
X-203644Y179698D01*
X-203092Y180525D01*
X-202898Y181500D01*
X-203092Y182475D01*
X-203644Y183302D01*
X-204471Y183855D01*
X-205447Y184049D01*
X-206422Y183855D01*
X-207249Y183302D01*
X-207644D01*
X-208471Y183855D01*
X-209447Y184049D01*
X-210422Y183855D01*
X-211249Y183302D01*
X-211801Y182475D01*
X-211995Y181500D01*
X-211801Y180525D01*
X-211249Y179698D01*
X-211128Y179617D01*
Y179117D01*
X-211149Y179102D01*
X-211701Y178276D01*
X-211895Y177300D01*
X-211701Y176324D01*
X-211149Y175498D01*
X-210322Y174945D01*
X-209347Y174751D01*
X-208371Y174945D01*
X-207544Y175498D01*
X-207249D01*
X-206422Y174945D01*
X-206211Y174903D01*
Y174403D01*
X-206249Y174396D01*
X-206844Y173998D01*
X-207242Y173402D01*
X-207382Y172700D01*
X-207300Y172287D01*
X-207715Y172010D01*
X-207844Y172096D01*
X-208546Y172235D01*
X-209249Y172096D01*
X-209844Y171698D01*
X-210242Y171102D01*
X-210382Y170400D01*
X-210325Y170112D01*
X-210642Y169726D01*
X-232193D01*
X-246207Y183740D01*
X-246833Y184221D01*
X-247563Y184523D01*
X-248346Y184626D01*
X-255747D01*
X-256530Y184523D01*
X-257259Y184221D01*
X-257886Y183740D01*
X-258367Y183113D01*
X-258669Y182383D01*
X-258772Y181600D01*
X-258669Y180817D01*
X-258367Y180087D01*
X-257886Y179460D01*
X-257259Y178980D01*
X-256920Y178839D01*
X-257017Y178349D01*
X-259780D01*
X-260016Y178789D01*
X-259592Y179425D01*
X-259398Y180400D01*
X-259592Y181376D01*
X-260144Y182202D01*
X-260971Y182755D01*
X-261947Y182949D01*
X-262922Y182755D01*
X-263749Y182202D01*
X-264301Y181376D01*
X-264495Y180400D01*
X-264301Y179425D01*
X-263877Y178789D01*
X-264113Y178349D01*
X-270064D01*
X-270149Y178776D01*
X-270547Y179372D01*
X-271143Y179770D01*
X-271845Y179909D01*
X-272547Y179770D01*
X-273143Y179372D01*
X-273540Y178776D01*
X-273680Y178074D01*
X-273540Y177372D01*
X-273143Y176776D01*
X-272840Y176574D01*
Y176074D01*
X-273143Y175872D01*
X-273540Y175276D01*
X-273680Y174574D01*
X-273816Y174408D01*
X-285402D01*
X-285720Y174795D01*
X-285659Y175099D01*
X-285799Y175802D01*
X-286197Y176397D01*
X-286792Y176795D01*
X-287494Y176935D01*
X-288197Y176795D01*
X-288792Y176397D01*
X-289190Y175802D01*
X-289330Y175099D01*
X-289269Y174795D01*
X-289586Y174408D01*
X-304847D01*
X-305891Y174271D01*
X-306864Y173868D01*
X-307699Y173227D01*
X-311718Y169209D01*
X-316345D01*
X-317389Y169071D01*
X-318362Y168668D01*
X-319198Y168027D01*
X-319839Y167191D01*
X-320242Y166218D01*
X-320379Y165174D01*
X-320242Y164130D01*
X-319839Y163157D01*
X-319198Y162321D01*
X-318362Y161680D01*
X-317389Y161277D01*
X-316345Y161140D01*
X-310047D01*
X-310047Y161140D01*
X-309002Y161277D01*
X-308029Y161680D01*
X-307387Y162172D01*
X-307058Y161796D01*
X-309091Y159763D01*
X-316095D01*
X-316095Y159763D01*
X-316875Y159608D01*
X-317537Y159166D01*
X-320926Y155777D01*
X-321059Y155688D01*
X-321523Y154993D01*
X-321686Y154174D01*
X-321584Y153661D01*
Y133500D01*
X-321584Y133500D01*
X-321584D01*
X-321429Y132720D01*
X-320987Y132058D01*
X-313579Y124650D01*
X-313724Y124171D01*
X-314145Y124088D01*
X-314740Y123690D01*
X-315138Y123094D01*
X-315278Y122392D01*
X-315138Y121690D01*
X-314740Y121095D01*
X-314145Y120697D01*
X-313443Y120557D01*
X-313282Y120425D01*
Y116395D01*
X-320903Y108775D01*
X-321400Y108824D01*
X-321645Y109190D01*
X-322240Y109588D01*
X-322943Y109727D01*
X-323645Y109588D01*
X-324240Y109190D01*
X-324638Y108595D01*
X-324778Y107892D01*
X-324638Y107190D01*
X-324240Y106595D01*
X-323645Y106197D01*
X-323333Y106135D01*
X-323330Y106128D01*
X-323486Y105347D01*
Y63200D01*
X-323486Y63200D01*
X-323486D01*
X-323330Y62420D01*
X-322888Y61758D01*
X-306612Y45482D01*
X-306501Y44925D01*
X-305949Y44098D01*
X-305122Y43545D01*
X-304147Y43351D01*
X-303171Y43545D01*
X-302344Y44098D01*
X-301792Y44925D01*
X-301597Y45900D01*
X-301792Y46876D01*
X-302344Y47702D01*
X-303171Y48255D01*
X-303729Y48366D01*
X-317626Y62264D01*
X-317571Y62445D01*
X-316744Y62998D01*
X-316192Y63824D01*
X-315998Y64800D01*
X-316192Y65776D01*
X-316744Y66602D01*
X-317571Y67155D01*
X-318547Y67349D01*
X-319021Y67255D01*
X-319407Y67572D01*
Y104503D01*
X-309801Y114109D01*
X-309359Y114770D01*
X-309204Y115551D01*
Y125198D01*
X-309359Y125978D01*
X-309801Y126640D01*
X-317506Y134345D01*
Y153429D01*
X-315250Y155685D01*
X-308246D01*
X-307466Y155840D01*
X-306804Y156282D01*
X-306804Y156282D01*
X-306804Y156282D01*
X-299440Y163647D01*
X-293317D01*
X-293081Y163206D01*
X-293223Y162993D01*
X-293386Y162174D01*
X-293223Y161355D01*
X-292759Y160660D01*
X-292064Y160196D01*
X-291245Y160033D01*
X-290425Y160196D01*
X-289731Y160660D01*
X-289267Y161355D01*
X-289104Y162174D01*
X-289267Y162993D01*
X-289409Y163206D01*
X-289173Y163647D01*
X-269977D01*
X-266968Y160638D01*
X-267056Y160506D01*
X-267251Y159531D01*
X-267056Y158555D01*
X-266504Y157728D01*
X-265677Y157176D01*
X-264702Y156982D01*
X-263726Y157176D01*
X-262899Y157728D01*
X-262347Y158555D01*
X-262153Y159531D01*
X-262347Y160506D01*
X-262662Y160979D01*
Y161255D01*
X-262756Y161728D01*
X-262315Y161963D01*
X-261999Y161647D01*
X-261164Y161006D01*
X-260191Y160603D01*
X-259146Y160466D01*
X-258102Y160603D01*
X-257129Y161006D01*
X-256294Y161647D01*
X-255652Y162483D01*
X-255249Y163456D01*
X-255112Y164500D01*
X-255249Y165544D01*
X-255652Y166517D01*
X-256294Y167353D01*
X-258653Y169712D01*
X-262168Y173227D01*
X-263003Y173868D01*
X-263976Y174271D01*
X-265020Y174408D01*
Y174546D01*
X-264667Y174899D01*
X-257864D01*
X-257547Y174513D01*
X-257694Y173774D01*
X-257500Y172799D01*
X-256947Y171972D01*
X-256120Y171419D01*
X-255766Y171349D01*
X-255837Y170988D01*
X-255643Y170013D01*
X-255091Y169186D01*
X-254264Y168633D01*
X-253289Y168439D01*
X-252313Y168633D01*
X-251486Y169186D01*
X-250934Y170013D01*
X-250740Y170988D01*
X-250934Y171964D01*
X-251486Y172791D01*
X-252313Y173343D01*
X-252668Y173414D01*
X-252596Y173774D01*
X-252639Y173989D01*
X-252198Y174224D01*
X-242339Y164366D01*
Y95283D01*
X-242339Y95283D01*
X-242339D01*
X-242242Y94795D01*
X-241966Y94381D01*
X-231239Y83655D01*
Y46511D01*
X-231626Y46194D01*
X-231745Y46218D01*
X-232447Y46078D01*
X-233043Y45680D01*
X-233440Y45085D01*
X-233580Y44383D01*
X-233440Y43680D01*
X-233043Y43085D01*
X-232447Y42687D01*
X-231745Y42547D01*
X-231626Y42571D01*
X-231239Y42254D01*
Y23911D01*
X-231262D01*
X-231271Y23889D01*
X-231262Y23880D01*
X-231660Y23285D01*
X-231800Y22583D01*
X-231663Y21897D01*
X-231981Y21510D01*
X-267461D01*
X-267606Y21989D01*
X-266844Y22498D01*
X-266291Y23325D01*
X-266097Y24300D01*
X-266291Y25275D01*
X-266844Y26102D01*
X-267671Y26655D01*
X-268647Y26849D01*
X-269622Y26655D01*
X-270247Y26238D01*
X-270871Y26655D01*
X-271847Y26849D01*
X-272822Y26655D01*
X-273649Y26102D01*
X-274001Y25576D01*
X-274498Y25527D01*
X-274498D01*
X-274498D01*
X-284614Y35643D01*
X-284614Y35643D01*
X-284612Y35645D01*
X-284681Y35811D01*
X-284677Y35828D01*
X-284840Y36648D01*
X-285304Y37342D01*
X-285999Y37806D01*
X-286818Y37969D01*
X-287638Y37806D01*
X-288332Y37342D01*
X-288796Y36648D01*
X-288959Y35828D01*
X-288869Y35376D01*
X-289561Y34914D01*
X-290025Y34219D01*
X-290188Y33400D01*
X-290025Y32581D01*
X-289561Y31886D01*
X-289038Y31537D01*
X-289183Y31058D01*
X-311781D01*
X-311781Y31058D01*
X-312327Y30950D01*
X-312790Y30640D01*
X-312790Y30640D01*
X-316704Y26727D01*
X-317013Y26264D01*
X-317122Y25717D01*
X-317122Y25717D01*
Y12089D01*
X-317125D01*
X-317193Y11923D01*
X-317209Y11913D01*
X-317673Y11219D01*
X-317836Y10399D01*
X-317673Y9580D01*
X-317209Y8885D01*
X-316514Y8421D01*
X-315694Y8258D01*
X-314875Y8421D01*
X-314180Y8885D01*
X-314094Y9014D01*
X-313595D01*
X-313509Y8885D01*
X-312814Y8421D01*
X-311995Y8258D01*
X-311175Y8421D01*
X-310480Y8885D01*
X-310016Y9580D01*
X-309853Y10399D01*
X-310016Y11219D01*
X-310480Y11913D01*
X-311175Y12377D01*
X-311995Y12540D01*
X-312012Y12537D01*
X-312178Y12606D01*
X-312178Y12606D01*
X-312178Y12606D01*
X-312178D01*
X-312180Y12604D01*
X-313067Y13490D01*
Y24629D01*
X-310693Y27003D01*
X-305013D01*
X-304696Y26617D01*
X-304743Y26384D01*
X-304580Y25564D01*
X-304116Y24870D01*
X-303421Y24405D01*
X-302602Y24242D01*
X-301782Y24405D01*
X-301088Y24870D01*
X-300962Y25058D01*
X-295867D01*
X-295676Y24596D01*
X-297026Y23246D01*
X-297516Y23502D01*
X-298634Y23749D01*
X-299777Y23699D01*
X-300869Y23355D01*
X-301834Y22740D01*
X-302607Y21896D01*
X-303135Y20881D01*
X-303383Y19764D01*
X-303333Y18621D01*
X-302989Y17529D01*
X-302374Y16564D01*
X-301530Y15791D01*
X-300515Y15262D01*
X-299398Y15015D01*
X-298254Y15065D01*
X-297163Y15409D01*
X-296198Y16024D01*
X-295425Y16867D01*
X-294896Y17883D01*
X-294649Y19000D01*
X-294698Y20143D01*
X-295042Y21235D01*
X-295138Y21385D01*
X-292466Y24057D01*
X-286649D01*
X-286332Y23671D01*
X-286486Y22900D01*
X-286330Y22120D01*
X-285888Y21458D01*
X-275671Y11241D01*
X-275009Y10799D01*
X-274229Y10644D01*
X-206725D01*
X-206489Y10203D01*
X-206690Y9901D01*
X-206830Y9199D01*
X-206690Y8497D01*
X-206292Y7902D01*
X-205697Y7504D01*
X-204995Y7364D01*
X-204292Y7504D01*
X-203697Y7902D01*
X-203299Y8497D01*
X-203159Y9199D01*
X-203299Y9901D01*
X-203697Y10497D01*
X-203652Y10644D01*
X-202528D01*
X-201963Y10756D01*
X-201592Y10202D01*
X-200997Y9804D01*
X-200294Y9664D01*
X-199592Y9804D01*
X-198997Y10202D01*
X-198995Y10205D01*
X-198495D01*
X-198492Y10202D01*
X-197897Y9804D01*
X-197195Y9664D01*
X-196492Y9804D01*
X-196130Y10045D01*
X-195813Y9659D01*
X-198763Y6709D01*
X-205707D01*
X-205795Y6745D01*
Y6745D01*
X-205797Y6744D01*
X-206299Y7079D01*
X-207002Y7219D01*
X-207639Y7092D01*
X-207775Y7775D01*
X-208328Y8602D01*
X-209155Y9154D01*
X-210130Y9348D01*
X-211105Y9154D01*
X-211932Y8602D01*
X-212485Y7775D01*
X-212679Y6799D01*
X-212485Y5824D01*
X-211932Y4997D01*
X-211105Y4444D01*
X-210130Y4250D01*
X-209155Y4444D01*
X-208761Y4707D01*
X-208697Y4681D01*
X-208299Y4086D01*
X-207704Y3688D01*
X-207002Y3548D01*
X-206299Y3688D01*
X-205797Y4023D01*
X-205795Y4022D01*
Y4022D01*
X-205707Y4058D01*
X-198214D01*
X-197707Y4159D01*
X-197277Y4446D01*
X-187765Y13958D01*
X-166050D01*
X-165859Y13496D01*
X-167356Y11999D01*
X-178170D01*
X-178485Y12471D01*
X-179080Y12869D01*
X-179783Y13009D01*
X-180485Y12869D01*
X-181081Y12471D01*
X-181478Y11875D01*
X-181618Y11173D01*
X-181761Y10999D01*
X-184033D01*
X-184229Y11195D01*
X-184265Y11283D01*
X-184265Y11283D01*
X-184268Y11283D01*
X-184386Y11875D01*
X-184784Y12471D01*
X-185380Y12869D01*
X-186082Y13009D01*
X-186784Y12869D01*
X-187380Y12471D01*
X-187777Y11875D01*
X-187838Y11573D01*
X-188359Y11469D01*
X-188955Y11071D01*
X-189352Y10475D01*
X-189413Y10172D01*
X-189934Y10069D01*
X-190530Y9671D01*
X-190927Y9076D01*
X-191067Y8373D01*
X-190927Y7671D01*
X-190530Y7075D01*
X-189934Y6678D01*
X-189232Y6538D01*
X-189186Y6547D01*
X-189039Y6449D01*
X-188532Y6348D01*
X-187236D01*
X-186937Y5984D01*
X-186797Y5281D01*
X-186399Y4686D01*
X-185804Y4288D01*
X-185212Y4170D01*
X-185211Y4167D01*
X-185211Y4167D01*
X-185123Y4131D01*
X-184655Y3663D01*
X-184225Y3375D01*
X-183718Y3274D01*
X-165810D01*
X-165302Y3375D01*
X-164872Y3663D01*
X-158328Y10207D01*
X-147097D01*
X-146780Y9821D01*
X-146784Y9800D01*
X-146636Y9059D01*
X-146216Y8430D01*
X-145588Y8010D01*
X-144846Y7863D01*
X-144105Y8010D01*
X-143477Y8430D01*
X-143057Y9059D01*
X-142909Y9800D01*
X-142913Y9821D01*
X-142596Y10207D01*
X-126481D01*
X-126164Y9821D01*
X-126351Y8884D01*
X-126156Y7908D01*
X-125604Y7081D01*
X-124777Y6528D01*
X-123802Y6335D01*
X-122826Y6528D01*
X-121999Y7081D01*
X-121447Y7908D01*
X-121253Y8884D01*
X-121447Y9859D01*
X-121260Y10207D01*
X-70614D01*
X-70107Y10308D01*
X-69677Y10595D01*
X-61209Y19063D01*
X-60922Y19493D01*
X-60821Y20000D01*
Y20039D01*
X-60546Y20265D01*
X-59844Y20404D01*
X-59249Y20802D01*
X-58851Y21398D01*
X-58711Y22100D01*
X-58851Y22802D01*
X-59249Y23398D01*
X-59844Y23796D01*
X-60546Y23935D01*
X-60821Y24161D01*
Y26890D01*
X-60380Y27126D01*
X-60049Y26904D01*
X-59346Y26765D01*
X-58644Y26904D01*
X-58049Y27302D01*
X-57651Y27898D01*
X-57511Y28600D01*
X-57651Y29302D01*
X-58049Y29898D01*
X-58644Y30296D01*
X-59346Y30435D01*
X-60049Y30296D01*
X-60380Y30074D01*
X-60821Y30310D01*
Y36903D01*
X-60380Y37139D01*
X-60188Y37010D01*
X-59447Y36863D01*
X-58705Y37010D01*
X-58077Y37430D01*
X-58073Y37427D01*
X-57998Y37458D01*
X-57998Y37458D01*
X-57998Y37458D01*
X-57998Y37458D01*
Y37475D01*
X-45529D01*
X-45022Y37575D01*
X-44947Y37625D01*
X-44479Y37450D01*
X-44465Y37399D01*
X-44465Y37399D01*
X-44465D01*
X-44326Y36697D01*
X-44143Y36424D01*
X-44225Y36301D01*
X-44365Y35599D01*
X-44225Y34897D01*
X-43828Y34301D01*
X-43232Y33904D01*
X-42530Y33764D01*
X-41828Y33904D01*
X-41232Y34301D01*
X-40834Y34897D01*
X-40695Y35599D01*
X-40834Y36301D01*
X-41016Y36574D01*
X-40934Y36697D01*
X-40795Y37399D01*
X-40934Y38102D01*
X-41332Y38697D01*
X-41928Y39095D01*
X-42630Y39235D01*
X-42728Y39727D01*
X-38859Y43595D01*
X-38859Y43595D01*
X-38859Y43595D01*
X-38572Y44025D01*
X-38471Y44533D01*
Y55201D01*
X-37397Y56274D01*
X-25846D01*
X-25339Y56375D01*
X-24909Y56663D01*
X-24909Y56663D01*
X-24909Y56663D01*
X-23509Y58063D01*
X-23293Y58387D01*
X-22990Y58447D01*
X-22643Y58378D01*
X-22532Y58304D01*
X-21830Y58164D01*
X-21128Y58304D01*
X-20532Y58701D01*
X-20134Y59297D01*
X-19995Y59999D01*
X-20134Y60702D01*
X-20400Y61099D01*
X-20134Y61497D01*
X-19995Y62199D01*
X-20134Y62902D01*
X-20532Y63497D01*
X-21128Y63895D01*
X-21830Y64034D01*
X-22532Y63895D01*
X-22571Y63911D01*
X-22657Y64341D01*
X-23077Y64970D01*
X-23705Y65390D01*
X-24446Y65537D01*
X-25188Y65390D01*
X-25816Y64970D01*
X-26236Y64341D01*
X-26384Y63600D01*
X-26236Y62859D01*
X-25816Y62230D01*
X-25820Y62227D01*
D01*
D01*
X-25820Y62227D01*
X-25811Y62206D01*
X-25788Y62151D01*
X-25788D01*
X-25788D01*
X-25788Y62151D01*
D01*
D01*
D01*
D01*
D01*
D01*
X-25772D01*
Y59549D01*
X-26395Y58925D01*
X-37946D01*
X-37947Y58925D01*
X-38454Y58825D01*
X-38884Y58537D01*
X-40734Y56687D01*
X-41021Y56257D01*
X-41122Y55750D01*
Y45082D01*
X-46078Y40126D01*
X-57965D01*
X-57998Y40142D01*
X-57998Y40142D01*
X-58036Y40157D01*
X-58073Y40173D01*
X-58077Y40170D01*
X-58705Y40590D01*
X-59447Y40737D01*
X-60188Y40590D01*
X-60380Y40461D01*
X-60821Y40697D01*
Y43151D01*
X-59197Y44774D01*
X-58895D01*
Y44758D01*
X-58895Y44758D01*
X-58895D01*
X-58895Y44758D01*
X-58820Y44727D01*
X-58816Y44730D01*
X-58188Y44310D01*
X-57446Y44163D01*
X-56705Y44310D01*
X-56077Y44730D01*
X-55657Y45359D01*
X-55509Y46100D01*
X-55657Y46841D01*
X-56077Y47470D01*
X-56271Y47600D01*
Y48100D01*
X-56077Y48230D01*
X-55657Y48859D01*
X-55509Y49600D01*
X-55657Y50341D01*
X-56077Y50970D01*
X-56705Y51390D01*
X-57446Y51537D01*
X-58188Y51390D01*
X-58816Y50970D01*
X-58820Y50973D01*
X-58857Y50958D01*
X-58895Y50942D01*
X-58895Y50942D01*
X-58928Y50925D01*
X-61247D01*
X-61754Y50825D01*
X-62184Y50537D01*
X-62359Y50362D01*
X-62821Y50553D01*
Y53851D01*
X-61397Y55274D01*
X-58895D01*
Y55258D01*
X-58895Y55258D01*
X-58895D01*
X-58895Y55258D01*
X-58820Y55227D01*
X-58820Y55227D01*
D01*
D01*
D01*
X-58816Y55230D01*
D01*
X-58188Y54810D01*
X-57446Y54663D01*
X-56705Y54810D01*
X-56077Y55230D01*
X-55657Y55859D01*
X-55509Y56600D01*
X-55657Y57341D01*
X-56077Y57970D01*
X-56271Y58100D01*
Y58600D01*
X-56077Y58730D01*
X-55657Y59359D01*
X-55509Y60100D01*
X-55657Y60841D01*
X-56043Y61420D01*
X-56031Y61449D01*
X-55336Y61913D01*
X-54872Y62608D01*
X-54709Y63427D01*
X-54872Y64247D01*
X-55336Y64941D01*
X-56031Y65405D01*
X-56850Y65568D01*
X-57670Y65405D01*
X-58364Y64941D01*
X-58829Y64247D01*
X-58992Y63427D01*
X-58829Y62608D01*
X-58496Y62109D01*
X-58593Y61619D01*
X-58816Y61470D01*
X-58820Y61473D01*
X-58857Y61458D01*
X-58895Y61442D01*
X-58895Y61442D01*
X-58928Y61426D01*
X-62247D01*
X-62754Y61325D01*
X-63184Y61037D01*
X-66084Y58137D01*
X-66371Y57707D01*
X-66472Y57200D01*
Y40421D01*
X-66905Y40190D01*
X-67646Y40337D01*
X-68388Y40190D01*
X-69016Y39770D01*
X-69436Y39141D01*
X-69584Y38400D01*
X-69517Y38064D01*
X-69795Y37648D01*
X-70088Y37590D01*
X-70716Y37170D01*
X-71136Y36541D01*
X-71284Y35800D01*
X-71288D01*
X-71320Y35725D01*
X-71308Y35713D01*
X-71308Y35713D01*
X-71571Y35450D01*
X-71777Y35470D01*
X-72405Y35890D01*
X-73146Y36037D01*
X-73888Y35890D01*
X-74516Y35470D01*
X-74580Y35375D01*
X-95253D01*
X-95489Y35816D01*
X-95434Y35897D01*
X-95295Y36599D01*
X-95434Y37301D01*
X-95832Y37897D01*
X-96428Y38295D01*
X-97130Y38434D01*
X-97832Y38295D01*
X-98428Y37897D01*
X-98826Y37301D01*
X-98965Y36599D01*
X-98978D01*
X-98987Y36578D01*
X-98970Y36562D01*
X-99031Y36500D01*
X-99307Y36087D01*
X-99404Y35599D01*
Y35321D01*
X-99623Y35278D01*
X-100037Y35001D01*
X-102914Y32124D01*
X-103376Y32315D01*
Y40034D01*
X-78364Y65046D01*
X-78077Y65476D01*
X-77976Y65983D01*
Y78689D01*
X-77940Y78776D01*
X-77940D01*
X-77941Y78779D01*
X-77606Y79281D01*
X-77466Y79984D01*
X-77606Y80686D01*
X-77947Y81197D01*
X-68559Y90585D01*
X-68446Y90563D01*
X-67705Y90710D01*
X-67077Y91130D01*
X-66657Y91759D01*
X-66509Y92500D01*
X-66657Y93241D01*
X-67077Y93870D01*
X-67572Y94200D01*
Y94291D01*
X-65794Y96068D01*
X-65636Y96174D01*
X-63425Y98384D01*
X-63425Y98384D01*
X-63116Y98848D01*
X-63068Y99090D01*
X-62845Y99045D01*
X-62103Y99193D01*
X-61475Y99613D01*
X-61055Y100241D01*
X-60908Y100983D01*
X-61055Y101724D01*
X-61475Y102352D01*
X-62103Y102772D01*
X-62845Y102920D01*
X-63007Y103053D01*
Y105473D01*
X-62566Y105709D01*
X-62022Y105345D01*
X-61046Y105151D01*
X-43558D01*
X-43413Y104673D01*
X-43716Y104470D01*
X-44136Y103841D01*
X-44284Y103100D01*
X-44136Y102359D01*
X-43716Y101730D01*
X-43088Y101310D01*
X-42347Y101163D01*
X-41605Y101310D01*
X-41106Y101644D01*
X-41036Y101673D01*
X-37883D01*
X-37883Y101673D01*
X-37337Y101781D01*
X-36874Y102091D01*
X-36632Y102333D01*
X-36563Y102362D01*
X-35974Y102479D01*
X-35345Y102899D01*
X-34925Y103527D01*
X-34778Y104269D01*
X-34925Y105010D01*
X-34850Y105151D01*
X-29647D01*
X-28671Y105345D01*
X-27844Y105898D01*
X-27292Y106725D01*
X-26837Y106862D01*
X-25837Y105863D01*
X-25407Y105575D01*
X-24900Y105474D01*
X-17623D01*
X-17464Y105236D01*
X-16769Y104772D01*
X-15950Y104609D01*
X-15131Y104772D01*
X-14436Y105236D01*
X-13972Y105931D01*
X-13809Y106750D01*
X-13972Y107569D01*
X-14436Y108264D01*
X-15131Y108728D01*
X-15950Y108891D01*
X-16769Y108728D01*
X-17464Y108264D01*
X-17557Y108125D01*
X-24351D01*
X-28163Y111937D01*
X-28593Y112225D01*
X-29100Y112326D01*
X-51093D01*
X-51286Y112614D01*
X-51981Y113078D01*
X-52800Y113241D01*
X-53619Y113078D01*
X-54314Y112614D01*
X-54778Y111919D01*
X-54941Y111100D01*
X-54849Y110635D01*
X-55166Y110249D01*
X-61046D01*
X-62022Y110055D01*
X-62566Y109691D01*
X-63007Y109927D01*
Y114321D01*
X-51872Y125455D01*
X-43664D01*
X-43664Y125455D01*
X-43117Y125564D01*
X-42654Y125873D01*
X-40727Y127801D01*
X-40693Y127815D01*
X-40244Y127904D01*
X-39649Y128302D01*
X-39251Y128898D01*
X-39162Y129346D01*
X-39148Y129380D01*
X-37394Y131134D01*
X-37349Y131104D01*
X-36647Y130965D01*
X-35944Y131104D01*
X-35349Y131502D01*
X-34951Y132098D01*
X-34811Y132800D01*
X-34951Y133502D01*
X-35349Y134098D01*
X-35944Y134496D01*
X-36646Y134635D01*
X-36919Y134859D01*
Y165512D01*
X-24608Y177823D01*
X-24296D01*
X-24296Y177823D01*
X-23750Y177931D01*
X-23287Y178241D01*
X-22455Y179073D01*
X-19463D01*
X-19429Y179059D01*
X-19049Y178804D01*
X-18347Y178665D01*
X-17644Y178804D01*
X-17049Y179202D01*
X-16651Y179798D01*
X-16511Y180500D01*
X-16651Y181202D01*
X-17049Y181798D01*
X-17644Y182196D01*
X-18347Y182335D01*
X-19049Y182196D01*
X-19429Y181941D01*
X-19463Y181927D01*
X-23046D01*
X-23046Y181927D01*
X-23139Y181909D01*
X-23202Y181951D01*
Y181951D01*
X-23202Y181951D01*
X-23600Y182547D01*
X-24195Y182944D01*
X-24898Y183084D01*
X-25600Y182944D01*
X-26195Y182547D01*
X-26593Y181951D01*
X-26682Y181503D01*
X-26697Y181469D01*
X-28541Y179624D01*
X-29019Y179770D01*
X-29168Y180519D01*
X-29632Y181214D01*
X-30327Y181678D01*
X-31146Y181841D01*
X-31429Y181785D01*
X-32845Y183201D01*
X-33259Y183477D01*
X-33746Y183574D01*
X-124319D01*
X-125545Y184801D01*
X-125959Y185078D01*
X-126446Y185175D01*
D02*
G37*
G36*
X-287494Y181435D02*
X-288197Y181295D01*
X-288792Y180897D01*
X-289190Y180301D01*
X-289330Y179599D01*
X-289190Y178897D01*
X-288792Y178302D01*
X-288197Y177904D01*
X-287494Y177764D01*
X-286792Y177904D01*
X-286197Y178302D01*
X-285799Y178897D01*
X-285659Y179599D01*
X-285799Y180301D01*
X-286197Y180897D01*
X-286792Y181295D01*
X-287494Y181435D01*
D02*
G37*
G36*
X-233045Y185123D02*
X-234020Y184929D01*
X-234847Y184376D01*
X-235400Y183549D01*
X-235594Y182574D01*
X-235400Y181599D01*
X-234847Y180772D01*
X-234020Y180219D01*
X-233045Y180025D01*
X-232069Y180219D01*
X-231242Y180772D01*
X-230690Y181599D01*
X-230496Y182574D01*
X-230690Y183549D01*
X-231242Y184376D01*
X-232069Y184929D01*
X-233045Y185123D01*
D02*
G37*
G36*
X-268939Y136193D02*
X-269641Y136054D01*
X-270236Y135656D01*
X-270634Y135061D01*
X-270774Y134358D01*
X-270634Y133656D01*
X-270236Y133060D01*
X-269641Y132663D01*
X-268939Y132523D01*
X-268236Y132663D01*
X-267641Y133060D01*
X-267243Y133656D01*
X-267104Y134358D01*
X-267243Y135061D01*
X-267641Y135656D01*
X-268236Y136054D01*
X-268939Y136193D01*
D02*
G37*
%LPD*%
G36*
X-68584Y33862D02*
X-67472Y32750D01*
Y22206D01*
X-69640Y20038D01*
X-70081Y20274D01*
X-70069Y20333D01*
Y33203D01*
X-69433Y33838D01*
X-69433Y33838D01*
X-69422Y33827D01*
X-69422Y33827D01*
X-69422Y33827D01*
D01*
X-69422Y33827D01*
X-69346Y33858D01*
Y33863D01*
X-68674Y33997D01*
X-68584Y33862D01*
D02*
G37*
G36*
X-140219Y89372D02*
Y41530D01*
X-141991Y39759D01*
X-142432Y39995D01*
X-142315Y40582D01*
X-142455Y41284D01*
X-142742Y41714D01*
X-142770Y41783D01*
Y42158D01*
X-142770Y42164D01*
X-142770D01*
Y91270D01*
X-142308Y91461D01*
X-140219Y89372D01*
D02*
G37*
G36*
X-142790Y170352D02*
X-142930Y169649D01*
X-142790Y168947D01*
X-142541Y168574D01*
X-142790Y168201D01*
X-142930Y167499D01*
X-142942D01*
X-142951Y167478D01*
X-142935Y167462D01*
X-143622Y166774D01*
X-145693D01*
X-146180Y166677D01*
X-146594Y166400D01*
X-147950Y165044D01*
X-148428Y165189D01*
X-148517Y165636D01*
X-148794Y166050D01*
X-151369Y168625D01*
X-151426Y168663D01*
X-151561Y168754D01*
X-151549Y168772D01*
X-151410Y169474D01*
X-151549Y170176D01*
X-151947Y170772D01*
X-151941Y170792D01*
X-143449D01*
X-142790Y170352D01*
D02*
G37*
G36*
X-70109Y93432D02*
X-70236Y93241D01*
X-70384Y92500D01*
X-70361Y92387D01*
X-80203Y82546D01*
X-80479Y82133D01*
X-80576Y81645D01*
Y81311D01*
X-80599D01*
X-80608Y81290D01*
X-80599Y81281D01*
X-80997Y80686D01*
X-81137Y79984D01*
X-80997Y79281D01*
X-80662Y78779D01*
X-80663Y78776D01*
X-80663D01*
X-80627Y78689D01*
Y66532D01*
X-105639Y41521D01*
X-105926Y41091D01*
X-106027Y40584D01*
Y32147D01*
X-108365Y29809D01*
X-118023D01*
X-118530Y29708D01*
X-118960Y29421D01*
X-122253Y26128D01*
X-122344Y26090D01*
X-122904Y25979D01*
X-123499Y25581D01*
X-123897Y24986D01*
X-124037Y24284D01*
X-123897Y23581D01*
X-123499Y22986D01*
X-122904Y22588D01*
X-122202Y22448D01*
X-121499Y22588D01*
X-120904Y22986D01*
X-120506Y23581D01*
X-120381Y24211D01*
X-120373Y24214D01*
X-120373D01*
X-120344Y24283D01*
D01*
X-120344Y24283D01*
D01*
D01*
X-120344D01*
X-120344D01*
Y24284D01*
D01*
Y24284D01*
D01*
Y24284D01*
D01*
D01*
X-120344Y24288D01*
X-117474Y27158D01*
X-108533D01*
X-108342Y26696D01*
X-109430Y25608D01*
X-112454D01*
X-112484Y25623D01*
X-112484Y25623D01*
X-112533Y25643D01*
X-112583Y25664D01*
X-112586Y25661D01*
X-113181Y26059D01*
X-113883Y26198D01*
X-114586Y26059D01*
X-115181Y25661D01*
X-115579Y25065D01*
X-115719Y24363D01*
X-115579Y23661D01*
X-115181Y23065D01*
X-114586Y22668D01*
X-113883Y22528D01*
X-113181Y22668D01*
X-112636Y23032D01*
X-112627Y23027D01*
Y23027D01*
X-112617Y23027D01*
X-112180Y22794D01*
X-112042Y22098D01*
X-111644Y21502D01*
X-111049Y21104D01*
X-110346Y20965D01*
X-110123Y21009D01*
X-110097Y20881D01*
X-109699Y20286D01*
X-109104Y19888D01*
X-108402Y19748D01*
X-108402Y19748D01*
X-108402Y19748D01*
X-108137Y19571D01*
X-108125Y19509D01*
X-107985Y19299D01*
X-108220Y18858D01*
X-135786D01*
X-135977Y19320D01*
X-133824Y21473D01*
X-133326Y21424D01*
X-133044Y21002D01*
X-132449Y20604D01*
X-131746Y20465D01*
X-131044Y20604D01*
X-130449Y21002D01*
X-130051Y21598D01*
X-129911Y22300D01*
X-130051Y23002D01*
X-130449Y23598D01*
X-131044Y23996D01*
X-131104Y24193D01*
X-128305Y26992D01*
X-127863Y27654D01*
X-127707Y28434D01*
X-127707Y28434D01*
X-127707Y28434D01*
Y28434D01*
Y38834D01*
X-127321Y39151D01*
X-126802Y39048D01*
X-126260Y39156D01*
X-125126D01*
X-125112Y39154D01*
Y39156D01*
X-121807D01*
X-121807Y39156D01*
X-121261Y39265D01*
X-120798Y39574D01*
X-116569Y43803D01*
X-105853D01*
X-105853Y43803D01*
X-105815Y43810D01*
X-105791Y43806D01*
X-105303Y43903D01*
X-104890Y44179D01*
X-104856Y44212D01*
X-104844Y44221D01*
X-82992Y66072D01*
X-82992Y66072D01*
X-82683Y66536D01*
X-82574Y67082D01*
X-82574Y67082D01*
Y83354D01*
X-72055Y93873D01*
X-70345D01*
X-70109Y93432D01*
D02*
G37*
G36*
X-179731Y173647D02*
X-180128Y173382D01*
X-180526Y172786D01*
X-180665Y172084D01*
X-180526Y171382D01*
X-180128Y170786D01*
X-179538Y170392D01*
Y169892D01*
X-180128Y169498D01*
X-180165Y169441D01*
X-180230Y169415D01*
X-180417Y169378D01*
X-180830Y169101D01*
Y169101D01*
X-180830D01*
X-181488Y168444D01*
X-183545Y170500D01*
X-183958Y170777D01*
X-184446Y170874D01*
X-187515D01*
X-187551Y171052D01*
X-187949Y171648D01*
X-188544Y172046D01*
X-189246Y172185D01*
X-189886Y172058D01*
X-189934Y172302D01*
X-190332Y172898D01*
X-190928Y173296D01*
X-191031Y173637D01*
X-190543Y174126D01*
X-179876D01*
X-179731Y173647D01*
D02*
G37*
G36*
X-235586Y164560D02*
X-234959Y164079D01*
X-234230Y163777D01*
X-233447Y163674D01*
X-204751D01*
X-204515Y163233D01*
X-204525Y163219D01*
X-204688Y162400D01*
X-204525Y161581D01*
X-204061Y160886D01*
X-203366Y160422D01*
X-202547Y160259D01*
X-201727Y160422D01*
X-201656Y160469D01*
X-201215Y160234D01*
Y159940D01*
X-201118Y159452D01*
X-200842Y159039D01*
X-199891Y158088D01*
Y123585D01*
X-199891Y123585D01*
X-199891D01*
X-199794Y123098D01*
X-199517Y122684D01*
X-190631Y113798D01*
X-190571Y113758D01*
X-190742Y113502D01*
X-190818Y113121D01*
X-191449Y112996D01*
X-192044Y112598D01*
X-192442Y112002D01*
X-192582Y111300D01*
X-192442Y110598D01*
X-192044Y110002D01*
X-191449Y109604D01*
X-190746Y109465D01*
X-190746Y109452D01*
X-190743Y109451D01*
X-190725Y109443D01*
X-190725Y109443D01*
D01*
D01*
X-190725D01*
D01*
X-190709Y109460D01*
Y109460D01*
X-190094Y108845D01*
X-190138Y108392D01*
X-190540Y108094D01*
X-190902Y108166D01*
X-191604Y108026D01*
X-192199Y107628D01*
X-192597Y107033D01*
X-192737Y106331D01*
X-192597Y105628D01*
X-192199Y105033D01*
X-191604Y104635D01*
X-191155Y104546D01*
X-191121Y104532D01*
X-189272Y102683D01*
Y92273D01*
X-189751Y92127D01*
X-190068Y92602D01*
X-190895Y93154D01*
X-191870Y93348D01*
X-192845Y93154D01*
X-193673Y92602D01*
X-194225Y91775D01*
X-194419Y90799D01*
X-194225Y89824D01*
X-193673Y88997D01*
X-192845Y88444D01*
X-191870Y88250D01*
X-190895Y88444D01*
X-190068Y88997D01*
X-189751Y89471D01*
X-189272Y89326D01*
Y88099D01*
X-189272Y88098D01*
X-189164Y87552D01*
X-188854Y87089D01*
X-186729Y84964D01*
Y37419D01*
X-191538Y32610D01*
X-205245D01*
X-205791Y32501D01*
X-206254Y32192D01*
X-206254Y32192D01*
X-209554Y28892D01*
X-209864Y28429D01*
X-209972Y27883D01*
X-209972Y27883D01*
Y27357D01*
X-210434Y27166D01*
X-218590Y35322D01*
Y88260D01*
X-218149Y88495D01*
X-217423Y88010D01*
X-216565Y87840D01*
X-215706Y88010D01*
X-214979Y88497D01*
X-214492Y89224D01*
X-214321Y90083D01*
X-214492Y90941D01*
X-214979Y91669D01*
X-215706Y92155D01*
X-216565Y92326D01*
X-217423Y92155D01*
X-218149Y91670D01*
X-218590Y91905D01*
Y100655D01*
X-203145Y116100D01*
X-203145Y116100D01*
X-203145Y116100D01*
X-202869Y116513D01*
X-202772Y117001D01*
Y156272D01*
X-202749Y156272D01*
Y156272D01*
D01*
X-202749D01*
X-202742Y156288D01*
X-202740Y156293D01*
X-202740Y156293D01*
D01*
D01*
X-202749Y156302D01*
X-202351Y156898D01*
X-202211Y157600D01*
X-202351Y158302D01*
X-202749Y158898D01*
X-203344Y159296D01*
X-204047Y159435D01*
X-204749Y159296D01*
X-205344Y158898D01*
X-205742Y158302D01*
X-205882Y157600D01*
X-205742Y156898D01*
X-205344Y156302D01*
X-205353Y156293D01*
X-205349Y156283D01*
X-205344Y156272D01*
X-205344D01*
X-205344Y156272D01*
X-205344D01*
Y156272D01*
X-205344D01*
X-205344D01*
D01*
X-205321Y156272D01*
Y117529D01*
X-220766Y102084D01*
X-221042Y101670D01*
X-221139Y101183D01*
Y94883D01*
X-221526Y94566D01*
X-221745Y94609D01*
X-222447Y94470D01*
X-223043Y94072D01*
X-223440Y93476D01*
X-223579Y92778D01*
X-223585Y92765D01*
X-223585D01*
Y92765D01*
X-223601Y92726D01*
D01*
X-223602Y92723D01*
X-223601Y92720D01*
X-223601Y92694D01*
X-223824Y92360D01*
X-223921Y91872D01*
Y85299D01*
X-228058D01*
X-228163Y85457D01*
X-238890Y96183D01*
Y165394D01*
X-238987Y165881D01*
X-239263Y166295D01*
X-250944Y177975D01*
X-251124Y178096D01*
X-250979Y178574D01*
X-249600D01*
X-235586Y164560D01*
D02*
G37*
G36*
X-177604Y109555D02*
Y96742D01*
X-178083Y96597D01*
X-178104Y96628D01*
X-178699Y97026D01*
X-179402Y97166D01*
X-180104Y97026D01*
X-180699Y96628D01*
X-181097Y96033D01*
X-181237Y95331D01*
X-181097Y94628D01*
X-180699Y94033D01*
X-180104Y93635D01*
X-179402Y93496D01*
X-178699Y93635D01*
X-178104Y94033D01*
X-178083Y94064D01*
X-177604Y93919D01*
Y92989D01*
X-180131Y90462D01*
X-180407Y90048D01*
X-180504Y89561D01*
Y88941D01*
X-180966Y88750D01*
X-182340Y90124D01*
Y101304D01*
X-179376Y104268D01*
X-179100Y104681D01*
X-179003Y105169D01*
X-179003Y105169D01*
X-179003Y105169D01*
Y105169D01*
Y107798D01*
X-179100Y108286D01*
X-179376Y108699D01*
X-184240Y113564D01*
X-184049Y114025D01*
X-182074D01*
X-177604Y109555D01*
D02*
G37*
G36*
X-180504Y33441D02*
Y28775D01*
X-185174Y24105D01*
X-189390D01*
X-189437Y24128D01*
X-189437Y24128D01*
X-189447Y24133D01*
X-189458Y24137D01*
X-189467Y24128D01*
X-190062Y24526D01*
X-190065Y24534D01*
X-189725Y24874D01*
X-189676Y24912D01*
X-189682Y24917D01*
X-189682Y24917D01*
X-188927Y25672D01*
X-188815Y25758D01*
X-188828Y25771D01*
X-180966Y33633D01*
X-180504Y33441D01*
D02*
G37*
G36*
X-74516Y32730D02*
X-73888Y32310D01*
X-73146Y32163D01*
X-73106Y32171D01*
X-72934Y32029D01*
Y31529D01*
X-73046Y31437D01*
X-73788Y31290D01*
X-74416Y30870D01*
X-74836Y30241D01*
X-74984Y29500D01*
X-74836Y28759D01*
X-74416Y28130D01*
X-74420Y28127D01*
D01*
D01*
X-74420Y28127D01*
X-74411Y28106D01*
X-74388Y28051D01*
X-74388D01*
X-74388D01*
X-74388Y28051D01*
D01*
D01*
D01*
D01*
D01*
D01*
X-74372D01*
Y21649D01*
X-77163Y18858D01*
X-90366D01*
X-90683Y19245D01*
X-90566Y19831D01*
X-90706Y20533D01*
X-91104Y21128D01*
X-91699Y21526D01*
X-92402Y21666D01*
X-92490Y21799D01*
X-92263Y22139D01*
X-92069Y23114D01*
X-92263Y24090D01*
X-92816Y24917D01*
X-93643Y25469D01*
X-94618Y25663D01*
X-95594Y25469D01*
X-96421Y24917D01*
X-96973Y24090D01*
X-97167Y23114D01*
X-96973Y22139D01*
X-96421Y21312D01*
X-95594Y20759D01*
X-94618Y20565D01*
X-94510Y20587D01*
X-94157Y20233D01*
X-94237Y19831D01*
X-94120Y19245D01*
X-94437Y18858D01*
X-97941D01*
X-98258Y19245D01*
X-98207Y19500D01*
X-98362Y20280D01*
X-98804Y20942D01*
X-99466Y21384D01*
X-100247Y21539D01*
X-101027Y21384D01*
X-101688Y20942D01*
X-102130Y20280D01*
X-102241Y19724D01*
X-102741Y19724D01*
X-102765Y19845D01*
X-103163Y20440D01*
X-103758Y20838D01*
X-104461Y20978D01*
X-104740Y20922D01*
X-105131Y21509D01*
X-105727Y21907D01*
X-106429Y22046D01*
X-106429Y22046D01*
X-106429Y22046D01*
X-106693Y22223D01*
X-106706Y22286D01*
X-107104Y22881D01*
X-107699Y23279D01*
X-107982Y23335D01*
X-108001Y23432D01*
X-102019Y29414D01*
X-101578Y29178D01*
X-101637Y28883D01*
X-101497Y28181D01*
X-101165Y27683D01*
X-101497Y27186D01*
X-101637Y26484D01*
X-101497Y25781D01*
X-101099Y25186D01*
X-100504Y24788D01*
X-99802Y24648D01*
X-99099Y24788D01*
X-98504Y25186D01*
X-98106Y25781D01*
X-97966Y26484D01*
X-98106Y27186D01*
X-98439Y27683D01*
X-98106Y28181D01*
X-97966Y28883D01*
X-98106Y29586D01*
X-98489Y30158D01*
X-98206Y30581D01*
X-98066Y31284D01*
X-98206Y31986D01*
X-98604Y32581D01*
X-98626Y32807D01*
X-98608Y32825D01*
X-74580D01*
X-74516Y32730D01*
D02*
G37*
G36*
X-180526Y154945D02*
X-180128Y154349D01*
X-179532Y153951D01*
X-178830Y153812D01*
X-178128Y153951D01*
X-177532Y154349D01*
X-177411Y154531D01*
X-176913Y154580D01*
X-175956Y153623D01*
X-175542Y153347D01*
X-175055Y153250D01*
X-158914D01*
X-158597Y152863D01*
X-158630Y152699D01*
X-158490Y151997D01*
X-158092Y151401D01*
X-157995Y151337D01*
Y150837D01*
X-158092Y150772D01*
X-158490Y150176D01*
X-158630Y149474D01*
X-158496Y148800D01*
X-161196Y146100D01*
X-161472Y145687D01*
X-161569Y145199D01*
Y137085D01*
X-161647Y137070D01*
X-162243Y136672D01*
X-162640Y136076D01*
X-162780Y135374D01*
X-162848Y135292D01*
X-163345Y135341D01*
X-163505Y135640D01*
X-163149Y136172D01*
X-163010Y136874D01*
X-163149Y137576D01*
X-163547Y138172D01*
X-164143Y138570D01*
X-164845Y138709D01*
X-164845Y138722D01*
X-164856Y138726D01*
X-164866Y138731D01*
Y138731D01*
X-164899Y138731D01*
X-165470Y139301D01*
X-165883Y139577D01*
X-166371Y139674D01*
X-171546D01*
X-172034Y139577D01*
X-172448Y139301D01*
X-172797Y138952D01*
X-173288Y139049D01*
X-173372Y139252D01*
Y142918D01*
X-173195Y143064D01*
X-172492Y143204D01*
X-171897Y143602D01*
X-171499Y144197D01*
X-171386Y144765D01*
X-171192Y144804D01*
X-170597Y145202D01*
X-170199Y145797D01*
X-170059Y146499D01*
X-170199Y147202D01*
X-170597Y147797D01*
X-171192Y148195D01*
X-171365Y148229D01*
X-171368Y148244D01*
X-171192Y148279D01*
X-170597Y148677D01*
X-170199Y149272D01*
X-170059Y149974D01*
X-170199Y150677D01*
X-170597Y151272D01*
X-171192Y151670D01*
X-171895Y151810D01*
X-172597Y151670D01*
X-173192Y151272D01*
X-173590Y150677D01*
X-173730Y149974D01*
X-173721Y149930D01*
X-173897Y149895D01*
X-174492Y149497D01*
X-174890Y148901D01*
X-174972Y148491D01*
X-175450Y148346D01*
X-181072Y153967D01*
Y155141D01*
X-180574Y155191D01*
X-180526Y154945D01*
D02*
G37*
G36*
X-190644Y154349D02*
X-190049Y153951D01*
X-189347Y153812D01*
X-188644Y153951D01*
X-188562Y154006D01*
X-188121Y153771D01*
Y151400D01*
X-188024Y150912D01*
X-187748Y150499D01*
X-180421Y143172D01*
Y130912D01*
X-180421Y130912D01*
X-180421D01*
X-180324Y130424D01*
X-180048Y130010D01*
X-176681Y126644D01*
X-176730Y126146D01*
X-176948Y126001D01*
X-179674Y123275D01*
X-181572D01*
X-181619Y123298D01*
X-181619Y123298D01*
X-181629Y123302D01*
X-181640Y123307D01*
X-181649Y123298D01*
X-182244Y123696D01*
X-182947Y123835D01*
X-183649Y123696D01*
X-184244Y123298D01*
X-184245Y123296D01*
X-184743Y123247D01*
X-191255Y129760D01*
Y154403D01*
X-190777Y154548D01*
X-190644Y154349D01*
D02*
G37*
G36*
X-126985Y129658D02*
X-126324Y129216D01*
X-125543Y129061D01*
X-111191D01*
X-109731Y127601D01*
X-109967Y127160D01*
X-110346Y127235D01*
X-111049Y127096D01*
X-111644Y126698D01*
X-112042Y126102D01*
X-112182Y125400D01*
X-112310Y125374D01*
X-119346D01*
X-119834Y125277D01*
X-120248Y125001D01*
X-123748Y121501D01*
X-124024Y121088D01*
X-124121Y120600D01*
Y95700D01*
X-124024Y95212D01*
X-123748Y94799D01*
X-123431Y94482D01*
X-123488Y94200D01*
X-123325Y93381D01*
X-122861Y92686D01*
X-122166Y92222D01*
X-121346Y92059D01*
X-120527Y92222D01*
X-119832Y92686D01*
X-119368Y93381D01*
X-119205Y94200D01*
X-119368Y95019D01*
X-119832Y95714D01*
X-120527Y96178D01*
X-121346Y96341D01*
X-121572Y96526D01*
Y120072D01*
X-118819Y122826D01*
X-111547D01*
X-111059Y122923D01*
X-110645Y123199D01*
X-110645Y123199D01*
X-110645Y123199D01*
X-110287Y123557D01*
X-110196Y123595D01*
X-109644Y123704D01*
X-109049Y124102D01*
X-108651Y124698D01*
X-108511Y125400D01*
X-108587Y125780D01*
X-108315Y125925D01*
X-107886Y125668D01*
Y107648D01*
X-108201Y107176D01*
X-108395Y106200D01*
X-108201Y105225D01*
X-107649Y104398D01*
X-106822Y103845D01*
X-105847Y103651D01*
X-104871Y103845D01*
X-104044Y104398D01*
X-103491Y105225D01*
X-103297Y106200D01*
X-103491Y107176D01*
X-103807Y107648D01*
Y108240D01*
X-103366Y108476D01*
X-102870Y108144D01*
X-101894Y107950D01*
X-100919Y108144D01*
X-100469Y108445D01*
X-99870Y108044D01*
X-98895Y107850D01*
X-98358Y107957D01*
X-97972Y107640D01*
Y99349D01*
X-123910Y73411D01*
X-124372Y73602D01*
Y77255D01*
X-124469Y77743D01*
X-124489Y77840D01*
X-124820Y78337D01*
X-126665Y80181D01*
X-127161Y80513D01*
X-127746Y80629D01*
X-130096D01*
X-130344Y80796D01*
X-131046Y80935D01*
X-131749Y80796D01*
X-132344Y80398D01*
X-132692Y79877D01*
X-133170Y80023D01*
Y91138D01*
X-132708Y91330D01*
X-127037Y85658D01*
X-127037Y85658D01*
X-126375Y85216D01*
X-126375Y85216D01*
X-126375Y85216D01*
D01*
X-126375Y85216D01*
X-126375Y85216D01*
X-125595Y85061D01*
X-125595Y85061D01*
X-122895D01*
X-122422Y84745D01*
X-121447Y84551D01*
X-120471Y84745D01*
X-119644Y85298D01*
X-119091Y86124D01*
X-118897Y87100D01*
X-119091Y88076D01*
X-119644Y88902D01*
X-120471Y89455D01*
X-121447Y89649D01*
X-122422Y89455D01*
X-122895Y89139D01*
X-124750D01*
X-133556Y97945D01*
Y135575D01*
X-133094Y135767D01*
X-126985Y129658D01*
D02*
G37*
G36*
X-70454Y137738D02*
Y137738D01*
X-70451Y137740D01*
X-69963Y137414D01*
X-69914Y136916D01*
X-72488Y134342D01*
X-72930Y133680D01*
X-73086Y132900D01*
Y105978D01*
X-73564Y105833D01*
X-73599Y105885D01*
X-74426Y106438D01*
X-75402Y106632D01*
X-76377Y106438D01*
X-77204Y105885D01*
X-77757Y105058D01*
X-77951Y104083D01*
X-77757Y103107D01*
X-77204Y102280D01*
X-76377Y101728D01*
X-75501Y101553D01*
X-75355Y101075D01*
X-89088Y87342D01*
X-89530Y86680D01*
X-89686Y85900D01*
Y68945D01*
X-106581Y52049D01*
X-120786D01*
X-121566Y51894D01*
X-122228Y51452D01*
X-122357Y51323D01*
X-122819Y51514D01*
Y65952D01*
X-104109Y84663D01*
X-103612Y84614D01*
X-103132Y83897D01*
X-102305Y83344D01*
X-101330Y83150D01*
X-100355Y83344D01*
X-99530Y83895D01*
X-98705Y83344D01*
X-97730Y83150D01*
X-96754Y83344D01*
X-95928Y83897D01*
X-95375Y84724D01*
X-95181Y85699D01*
X-95375Y86675D01*
X-95928Y87502D01*
X-96754Y88054D01*
X-97730Y88248D01*
X-98705Y88054D01*
X-99530Y87503D01*
X-100355Y88054D01*
X-100439Y88333D01*
X-92983Y95789D01*
X-92983Y95789D01*
X-92983Y95789D01*
X-92695Y96219D01*
X-92595Y96726D01*
Y120350D01*
X-92208Y120667D01*
X-92194Y120664D01*
X-91492Y120804D01*
X-91344Y120902D01*
X-91197Y120804D01*
X-90495Y120664D01*
X-89792Y120804D01*
X-89595Y120936D01*
X-89397Y120804D01*
X-88695Y120664D01*
X-87992Y120804D01*
X-87397Y121202D01*
X-86999Y121797D01*
X-86859Y122499D01*
X-86999Y123202D01*
X-87397Y123797D01*
X-87992Y124195D01*
X-88695Y124335D01*
X-89397Y124195D01*
X-89595Y124063D01*
X-89792Y124195D01*
X-90495Y124335D01*
X-91197Y124195D01*
X-91344Y124096D01*
X-91492Y124195D01*
X-92194Y124335D01*
X-92208Y124332D01*
X-92595Y124649D01*
Y125425D01*
X-87609Y130410D01*
X-87322Y130840D01*
X-87221Y131347D01*
Y133877D01*
X-86797Y134104D01*
X-86094Y133964D01*
X-85392Y134104D01*
X-84797Y134502D01*
X-84399Y135097D01*
X-84259Y135799D01*
X-84293Y135970D01*
X-84097Y136101D01*
X-83699Y136697D01*
X-83559Y137399D01*
X-83251Y137775D01*
X-82641D01*
X-82323Y137388D01*
X-82375Y137131D01*
X-82235Y136428D01*
X-82141Y136288D01*
X-82180Y136231D01*
X-82320Y135528D01*
X-82180Y134826D01*
X-81782Y134231D01*
X-81187Y133833D01*
X-80484Y133693D01*
X-79782Y133833D01*
X-79187Y134231D01*
X-78789Y134826D01*
X-78649Y135528D01*
X-78789Y136231D01*
X-78882Y136371D01*
X-78844Y136428D01*
X-78704Y137131D01*
X-78755Y137388D01*
X-78438Y137775D01*
X-70541D01*
X-70454Y137738D01*
D02*
G37*
G36*
X-156719Y118052D02*
Y107414D01*
X-156691Y107272D01*
X-156765Y106899D01*
X-156625Y106197D01*
X-156228Y105602D01*
X-155632Y105204D01*
X-154930Y105064D01*
X-154392Y105171D01*
X-154114Y104755D01*
X-154301Y104475D01*
X-154495Y103500D01*
X-154301Y102524D01*
X-153749Y101698D01*
X-152922Y101145D01*
X-151946Y100951D01*
X-150971Y101145D01*
X-150510Y101453D01*
X-150069Y101217D01*
Y87883D01*
X-150567Y87834D01*
X-150706Y88533D01*
X-151104Y89128D01*
X-151699Y89526D01*
X-152402Y89666D01*
X-153104Y89526D01*
X-153699Y89128D01*
X-154097Y88533D01*
X-154237Y87831D01*
X-154097Y87128D01*
X-153699Y86533D01*
X-153104Y86135D01*
X-152402Y85996D01*
X-151699Y86135D01*
X-151104Y86533D01*
X-150706Y87128D01*
X-150567Y87827D01*
X-150069Y87779D01*
Y60883D01*
X-150567Y60834D01*
X-150706Y61533D01*
X-151104Y62128D01*
X-151699Y62526D01*
X-152402Y62666D01*
X-153104Y62526D01*
X-153699Y62128D01*
X-154097Y61533D01*
X-154237Y60831D01*
X-154097Y60128D01*
X-153699Y59533D01*
X-153104Y59135D01*
X-152402Y58995D01*
X-151699Y59135D01*
X-151104Y59533D01*
X-150706Y60128D01*
X-150567Y60827D01*
X-150069Y60778D01*
Y51965D01*
X-150846Y51189D01*
X-151343Y51238D01*
X-151604Y51628D01*
X-152199Y52026D01*
X-152902Y52166D01*
X-153604Y52026D01*
X-154199Y51628D01*
X-154597Y51033D01*
X-154737Y50331D01*
X-154597Y49628D01*
X-154199Y49033D01*
X-153668Y48678D01*
X-153737Y48331D01*
X-153597Y47628D01*
X-153199Y47033D01*
X-152604Y46635D01*
X-152181Y46551D01*
X-152097Y46128D01*
X-151699Y45533D01*
X-151104Y45135D01*
X-150681Y45051D01*
X-150597Y44628D01*
X-150199Y44033D01*
X-149604Y43635D01*
X-148902Y43495D01*
X-148679Y43540D01*
X-148597Y43128D01*
X-148199Y42533D01*
X-147604Y42135D01*
X-147363Y42087D01*
X-147240Y41472D01*
X-146843Y40876D01*
X-146247Y40479D01*
X-145953Y40420D01*
X-145846Y39880D01*
X-145448Y39284D01*
X-144852Y38887D01*
X-144298Y38776D01*
X-144107Y38314D01*
X-144260Y38085D01*
X-144400Y37383D01*
X-144260Y36680D01*
X-143862Y36085D01*
X-143267Y35687D01*
X-142565Y35547D01*
X-142565Y35547D01*
X-142565Y35547D01*
X-142528Y35523D01*
X-142460Y35180D01*
X-142062Y34585D01*
X-141467Y34187D01*
X-140765Y34047D01*
X-140765Y34047D01*
X-140765Y34047D01*
X-140636Y33961D01*
X-140560Y33580D01*
X-140162Y32985D01*
X-139567Y32587D01*
X-139373Y32549D01*
X-139260Y31980D01*
X-138862Y31385D01*
X-138267Y30987D01*
X-137740Y30882D01*
X-137660Y30480D01*
X-137262Y29885D01*
X-137177Y29458D01*
X-137360Y29185D01*
X-137500Y28483D01*
X-137360Y27780D01*
X-136962Y27185D01*
X-136940Y26960D01*
X-140244Y23656D01*
X-150423D01*
X-150566Y23831D01*
X-150706Y24533D01*
X-150947Y24894D01*
X-150706Y25254D01*
X-150566Y25957D01*
X-150663Y26441D01*
X-150204Y26748D01*
X-149806Y27343D01*
X-149666Y28046D01*
X-149806Y28748D01*
X-150204Y29343D01*
X-150799Y29741D01*
X-151502Y29881D01*
X-152204Y29741D01*
X-152799Y29343D01*
X-152808Y29352D01*
X-152819Y29348D01*
X-152829Y29343D01*
X-152829Y29343D01*
X-152876Y29320D01*
X-155089D01*
X-158255Y32487D01*
Y117170D01*
X-157181Y118244D01*
X-156719Y118052D01*
D02*
G37*
G36*
X-168239Y73220D02*
Y36111D01*
X-175915Y28435D01*
X-176248Y28572D01*
X-176377Y28659D01*
Y70778D01*
X-175915Y70969D01*
X-175587Y70641D01*
X-175587Y70641D01*
X-175190Y70376D01*
X-174925Y70199D01*
X-174145Y70043D01*
X-171765D01*
X-170984Y70199D01*
X-170323Y70641D01*
X-169881Y71302D01*
X-169725Y72083D01*
X-169881Y72863D01*
X-169978Y73009D01*
X-169701Y73425D01*
X-169445Y73374D01*
X-168626Y73537D01*
X-168239Y73220D01*
D02*
G37*
G36*
X-129505Y72644D02*
X-128530Y72450D01*
X-128075Y72541D01*
X-127722Y72187D01*
X-127737Y72110D01*
X-127597Y71408D01*
X-127199Y70812D01*
X-127113Y70755D01*
X-127064Y70257D01*
X-129584Y67737D01*
X-129871Y67307D01*
X-129972Y66800D01*
Y51549D01*
X-132368Y49153D01*
X-132456Y49117D01*
X-132456Y49117D01*
X-132457Y49113D01*
X-132784Y49048D01*
X-133170Y49365D01*
Y72283D01*
X-132784Y72600D01*
X-132030Y72450D01*
X-131054Y72644D01*
X-130280Y73162D01*
X-129505Y72644D01*
D02*
G37*
G36*
X-36825Y180585D02*
X-37091Y180186D01*
X-37255Y179367D01*
X-37091Y178548D01*
X-36627Y177853D01*
X-35933Y177389D01*
X-35113Y177226D01*
X-34294Y177389D01*
X-33599Y177853D01*
X-33269Y178348D01*
X-32769D01*
X-32660Y178186D01*
X-31966Y177722D01*
X-31216Y177573D01*
X-31071Y177094D01*
X-40556Y167609D01*
X-40865Y167146D01*
X-40974Y166600D01*
X-40974Y166600D01*
Y133991D01*
X-41066Y133899D01*
X-41100Y133885D01*
X-41549Y133796D01*
X-42144Y133398D01*
X-42542Y132802D01*
X-42631Y132354D01*
X-42645Y132320D01*
X-45455Y129510D01*
X-50920D01*
X-51112Y129972D01*
X-45865Y135219D01*
X-45533Y135715D01*
X-45417Y136300D01*
X-45417Y136300D01*
X-45417Y136300D01*
Y136300D01*
Y139749D01*
X-45251Y139998D01*
X-45111Y140700D01*
X-45251Y141402D01*
X-45649Y141998D01*
X-46244Y142396D01*
X-46946Y142535D01*
X-47649Y142396D01*
X-48244Y141998D01*
X-48642Y141402D01*
X-48782Y140700D01*
X-48642Y139998D01*
X-48476Y139749D01*
Y136934D01*
X-49609Y135800D01*
X-49948Y135868D01*
X-50115Y135918D01*
X-50251Y136602D01*
X-50649Y137198D01*
X-51244Y137596D01*
X-51856Y137717D01*
X-51911Y137800D01*
X-51911Y137800D01*
X-51911D01*
X-52051Y138502D01*
X-52449Y139098D01*
X-53044Y139496D01*
X-53746Y139635D01*
X-54449Y139496D01*
X-55044Y139098D01*
X-55442Y138502D01*
X-55582Y137800D01*
X-55442Y137098D01*
X-55044Y136502D01*
X-54449Y136104D01*
X-53837Y135983D01*
X-53782Y135900D01*
X-53782Y135900D01*
X-53782D01*
X-53642Y135198D01*
X-53244Y134602D01*
X-52649Y134204D01*
X-51965Y134068D01*
X-51914Y133902D01*
X-51847Y133563D01*
X-68545Y116864D01*
X-69007Y117055D01*
Y132055D01*
X-62704Y138358D01*
X-62262Y139020D01*
X-62107Y139800D01*
X-62107Y139800D01*
X-62107Y139800D01*
Y139800D01*
Y140491D01*
X-56616D01*
X-55835Y140647D01*
X-55174Y141089D01*
X-55174Y141089D01*
X-55174Y141089D01*
X-51805Y144458D01*
X-51805Y144458D01*
X-51363Y145120D01*
X-51363Y145120D01*
X-51363Y145120D01*
X-51207Y145900D01*
X-51207Y145900D01*
Y148500D01*
X-51363Y149280D01*
X-51805Y149942D01*
X-52466Y150384D01*
X-53246Y150539D01*
X-54027Y150384D01*
X-54688Y149942D01*
X-55130Y149280D01*
X-55286Y148500D01*
Y146745D01*
X-57460Y144570D01*
X-90757D01*
X-91362Y145175D01*
Y154831D01*
X-91518Y155611D01*
X-91960Y156273D01*
X-93960Y158273D01*
X-94621Y158715D01*
X-95402Y158870D01*
X-98902D01*
X-99682Y158715D01*
X-100344Y158273D01*
X-100786Y157611D01*
X-100941Y156831D01*
X-100786Y156050D01*
X-100344Y155389D01*
X-100186Y155283D01*
X-100090Y154801D01*
X-100090D01*
X-100090Y154801D01*
X-100230Y154099D01*
X-100219Y154046D01*
X-100592Y153797D01*
X-100990Y153201D01*
X-101130Y152499D01*
X-100990Y151797D01*
X-100592Y151201D01*
X-99997Y150804D01*
X-99960Y150619D01*
X-99992Y150597D01*
X-100390Y150002D01*
X-100530Y149299D01*
X-100390Y148597D01*
X-100347Y148532D01*
X-100500Y148301D01*
X-100640Y147599D01*
X-100500Y146897D01*
X-100103Y146301D01*
X-99507Y145904D01*
X-98805Y145764D01*
X-98103Y145904D01*
X-97507Y146301D01*
X-97109Y146897D01*
X-96970Y147599D01*
X-97017Y147839D01*
X-96740Y148255D01*
X-96492Y148304D01*
X-95897Y148702D01*
X-95441Y148397D01*
Y144331D01*
X-95441Y144331D01*
X-95441D01*
X-95285Y143550D01*
X-94844Y142889D01*
X-94573Y142618D01*
X-94764Y142156D01*
X-96902D01*
X-97409Y142055D01*
X-97839Y141768D01*
X-99339Y140268D01*
X-99626Y139838D01*
X-99670Y139616D01*
X-100132Y139425D01*
X-100199Y139470D01*
X-100902Y139609D01*
X-101604Y139470D01*
X-102199Y139072D01*
X-102597Y138476D01*
X-102597D01*
X-103076Y138621D01*
Y158282D01*
X-100853Y160505D01*
X-99696D01*
X-99609Y160469D01*
Y160469D01*
X-99606Y160470D01*
X-99104Y160135D01*
X-98402Y159995D01*
X-97699Y160135D01*
X-97104Y160533D01*
X-96706Y161128D01*
X-96566Y161831D01*
X-96706Y162533D01*
X-97104Y163128D01*
X-97699Y163526D01*
X-98402Y163666D01*
X-99104Y163526D01*
X-99606Y163191D01*
X-99609Y163192D01*
Y163192D01*
X-99696Y163156D01*
X-101402D01*
X-101909Y163055D01*
X-102339Y162768D01*
X-105339Y159768D01*
X-105626Y159338D01*
X-105727Y158831D01*
Y137309D01*
X-105626Y136802D01*
X-105339Y136372D01*
X-105339Y136372D01*
X-105339Y136372D01*
X-103042Y134075D01*
X-103277Y133634D01*
X-103280Y133634D01*
X-103982Y133495D01*
X-104305Y133279D01*
X-104628Y133495D01*
X-105330Y133634D01*
X-106032Y133495D01*
X-106628Y133097D01*
X-107026Y132501D01*
X-107165Y131799D01*
X-107086Y131400D01*
X-107527Y131164D01*
X-108905Y132542D01*
X-109566Y132984D01*
X-110346Y133139D01*
X-124699D01*
X-135502Y143943D01*
X-135270Y144291D01*
X-135190Y144344D01*
X-135028Y144277D01*
X-134245Y144174D01*
X-130947D01*
X-130163Y144277D01*
X-129434Y144580D01*
X-128807Y145060D01*
X-128447Y145420D01*
X-127950Y145371D01*
X-127432Y144597D01*
X-127365Y144552D01*
X-127885Y143775D01*
X-128079Y142799D01*
X-127885Y141824D01*
X-127332Y140997D01*
X-126505Y140444D01*
X-125530Y140250D01*
X-124555Y140444D01*
X-123780Y140962D01*
X-123005Y140444D01*
X-122030Y140250D01*
X-121054Y140444D01*
X-120228Y140997D01*
X-119675Y141824D01*
X-119481Y142799D01*
X-119675Y143775D01*
X-120228Y144602D01*
X-120327Y144668D01*
Y144697D01*
X-119775Y145524D01*
X-119581Y146499D01*
X-119775Y147475D01*
X-120327Y148302D01*
X-121154Y148854D01*
X-122130Y149048D01*
X-123105Y148854D01*
X-123932Y148302D01*
X-123932D01*
Y148302D01*
X-123967Y148295D01*
X-124654Y148754D01*
X-124761Y149106D01*
X-122707Y151160D01*
X-122226Y151787D01*
X-121924Y152517D01*
X-121821Y153300D01*
Y154800D01*
Y173500D01*
X-121821Y173500D01*
X-121912Y174192D01*
X-121924Y174283D01*
X-122226Y175013D01*
X-122707Y175640D01*
X-126373Y179306D01*
X-126270Y179499D01*
X-97321D01*
X-97086Y179058D01*
X-97340Y178676D01*
X-97480Y177974D01*
X-97340Y177272D01*
X-97208Y177074D01*
X-97340Y176876D01*
X-97480Y176174D01*
X-97340Y175472D01*
X-97047Y175032D01*
X-97325Y174616D01*
X-97402Y174632D01*
X-98377Y174438D01*
X-99204Y173885D01*
X-99756Y173058D01*
X-99951Y172083D01*
X-99756Y171107D01*
X-99204Y170280D01*
X-98377Y169728D01*
X-97402Y169534D01*
X-96426Y169728D01*
X-95599Y170280D01*
X-95047Y171107D01*
X-94853Y172083D01*
X-95047Y173058D01*
X-95599Y173885D01*
X-95243Y174419D01*
X-94943Y174478D01*
X-94347Y174876D01*
X-93949Y175472D01*
X-93810Y176174D01*
X-93949Y176876D01*
X-94081Y177074D01*
X-93949Y177272D01*
X-93810Y177974D01*
X-93949Y178676D01*
X-94347Y179272D01*
X-94278Y179499D01*
X-87468D01*
X-85420Y177450D01*
Y170094D01*
X-85456Y170006D01*
X-85456D01*
X-85455Y170003D01*
X-85673Y169677D01*
X-85632Y169738D01*
X-86122Y169641D01*
X-86699Y170026D01*
X-87402Y170166D01*
X-88104Y170026D01*
X-88152Y169994D01*
X-88199Y170026D01*
X-88902Y170166D01*
X-89604Y170026D01*
X-90199Y169628D01*
X-90597Y169033D01*
X-90737Y168331D01*
X-90597Y167628D01*
X-90199Y167033D01*
X-89604Y166635D01*
X-88902Y166496D01*
X-88199Y166635D01*
X-88152Y166667D01*
X-88104Y166635D01*
X-87402Y166496D01*
X-86699Y166635D01*
X-86104Y167033D01*
X-85706Y167628D01*
X-85706D01*
D01*
X-85392Y167501D01*
X-85392Y167501D01*
Y167501D01*
X-84797Y167104D01*
X-84095Y166964D01*
X-83392Y167104D01*
X-83292Y167171D01*
X-83199Y167033D01*
X-82604Y166635D01*
X-81902Y166496D01*
X-81199Y166635D01*
X-80604Y167033D01*
X-80206Y167628D01*
X-80066Y168331D01*
X-80206Y169033D01*
X-80604Y169628D01*
X-81199Y170026D01*
X-81902Y170166D01*
X-82383Y170070D01*
X-82769Y170387D01*
Y177999D01*
X-82870Y178506D01*
X-83157Y178937D01*
X-84784Y180564D01*
X-84593Y181026D01*
X-48815D01*
X-48766Y180528D01*
X-49220Y180438D01*
X-50047Y179885D01*
X-50600Y179058D01*
X-50794Y178083D01*
X-50600Y177107D01*
X-50047Y176280D01*
X-49220Y175728D01*
X-48245Y175534D01*
X-47269Y175728D01*
X-46442Y176280D01*
X-45890Y177107D01*
X-45696Y178083D01*
X-45890Y179058D01*
X-46442Y179885D01*
X-47269Y180438D01*
X-47723Y180528D01*
X-47674Y181026D01*
X-37061D01*
X-36825Y180585D01*
D02*
G37*
%LPC*%
G36*
X-115302Y42419D02*
X-116004Y42279D01*
X-116599Y41881D01*
X-116997Y41286D01*
X-117137Y40584D01*
X-116997Y39881D01*
X-116599Y39286D01*
X-116004Y38888D01*
X-115373Y38762D01*
X-115297Y38381D01*
X-114899Y37786D01*
X-114304Y37388D01*
X-113681Y37264D01*
X-113737Y36983D01*
X-113597Y36281D01*
X-113199Y35686D01*
X-112604Y35288D01*
X-112482Y35264D01*
X-112204Y34848D01*
X-112237Y34683D01*
X-112097Y33981D01*
X-111699Y33386D01*
X-111104Y32988D01*
X-110402Y32848D01*
X-109699Y32988D01*
X-109104Y33386D01*
X-108706Y33981D01*
X-108566Y34683D01*
X-108706Y35386D01*
X-109104Y35981D01*
X-109699Y36379D01*
X-110168Y36472D01*
X-110066Y36983D01*
X-110206Y37686D01*
X-110604Y38281D01*
X-111199Y38679D01*
X-111822Y38803D01*
X-111766Y39083D01*
X-111906Y39786D01*
X-112304Y40381D01*
X-112899Y40779D01*
X-113530Y40905D01*
X-113606Y41286D01*
X-114004Y41881D01*
X-114599Y42279D01*
X-115302Y42419D01*
D02*
G37*
G36*
X-212865Y97426D02*
X-213723Y97255D01*
X-214451Y96769D01*
X-214937Y96041D01*
X-215108Y95183D01*
X-214937Y94324D01*
X-214451Y93597D01*
X-213723Y93110D01*
X-212865Y92940D01*
X-212006Y93110D01*
X-211279Y93597D01*
X-210792Y94324D01*
X-210622Y95183D01*
X-210792Y96041D01*
X-211279Y96769D01*
X-212006Y97255D01*
X-212865Y97426D01*
D02*
G37*
G36*
X-232543D02*
X-233401Y97255D01*
X-234129Y96769D01*
X-234615Y96041D01*
X-234786Y95183D01*
X-234615Y94324D01*
X-234129Y93597D01*
X-233401Y93110D01*
X-232543Y92940D01*
X-231684Y93110D01*
X-230957Y93597D01*
X-230470Y94324D01*
X-230300Y95183D01*
X-230470Y96041D01*
X-230957Y96769D01*
X-231684Y97255D01*
X-232543Y97426D01*
D02*
G37*
G36*
X-201865D02*
X-202723Y97255D01*
X-203451Y96769D01*
X-203937Y96041D01*
X-204108Y95183D01*
X-203937Y94324D01*
X-203451Y93597D01*
X-202723Y93110D01*
X-201865Y92940D01*
X-201006Y93110D01*
X-200278Y93597D01*
X-199792Y94324D01*
X-199621Y95183D01*
X-199792Y96041D01*
X-200278Y96769D01*
X-201006Y97255D01*
X-201865Y97426D01*
D02*
G37*
G36*
X-198830Y84848D02*
X-199805Y84654D01*
X-200632Y84102D01*
X-201185Y83275D01*
X-201379Y82299D01*
X-201185Y81324D01*
X-200632Y80497D01*
X-200436Y80366D01*
Y79866D01*
X-200532Y79802D01*
X-201085Y78975D01*
X-201279Y77999D01*
X-201085Y77024D01*
X-200532Y76197D01*
Y75702D01*
X-201085Y74875D01*
X-201279Y73899D01*
X-201085Y72924D01*
X-200532Y72097D01*
X-199705Y71544D01*
X-198730Y71350D01*
X-197755Y71544D01*
X-196927Y72097D01*
X-196375Y72924D01*
X-196181Y73899D01*
X-196375Y74875D01*
X-196927Y75702D01*
Y76197D01*
X-196375Y77024D01*
X-196181Y77999D01*
X-196375Y78975D01*
X-196927Y79802D01*
X-197124Y79933D01*
Y80433D01*
X-197028Y80497D01*
X-196475Y81324D01*
X-196281Y82299D01*
X-196475Y83275D01*
X-197028Y84102D01*
X-197854Y84654D01*
X-198830Y84848D01*
D02*
G37*
G36*
X-84776Y31393D02*
X-85478Y31253D01*
X-86073Y30855D01*
X-86471Y30260D01*
X-86611Y29557D01*
X-86471Y28855D01*
X-86073Y28260D01*
X-85478Y27862D01*
X-84776Y27722D01*
X-84618Y27754D01*
X-84503Y27176D01*
X-84105Y26580D01*
X-83509Y26182D01*
X-82879Y26057D01*
X-82884Y26030D01*
X-82744Y25328D01*
X-82346Y24733D01*
X-81751Y24335D01*
X-81049Y24195D01*
X-80346Y24335D01*
X-79751Y24733D01*
X-79353Y25328D01*
X-79213Y26030D01*
X-79353Y26733D01*
X-79751Y27328D01*
X-80346Y27726D01*
X-80977Y27852D01*
X-80972Y27878D01*
X-81112Y28580D01*
X-81509Y29176D01*
X-82105Y29574D01*
X-82807Y29713D01*
X-82965Y29682D01*
X-83080Y30260D01*
X-83478Y30855D01*
X-84073Y31253D01*
X-84776Y31393D01*
D02*
G37*
G36*
X-184360Y144861D02*
X-185218Y144691D01*
X-185946Y144204D01*
X-186432Y143477D01*
X-186603Y142618D01*
X-186432Y141760D01*
X-185946Y141032D01*
X-185218Y140546D01*
X-184360Y140375D01*
X-183501Y140546D01*
X-182773Y141032D01*
X-182287Y141760D01*
X-182116Y142618D01*
X-182287Y143477D01*
X-182773Y144204D01*
X-183501Y144691D01*
X-184360Y144861D01*
D02*
G37*
G36*
X-183489Y136381D02*
X-184347Y136211D01*
X-185075Y135724D01*
X-185561Y134997D01*
X-185732Y134138D01*
X-185561Y133280D01*
X-185075Y132552D01*
X-184347Y132066D01*
X-183489Y131895D01*
X-182630Y132066D01*
X-181903Y132552D01*
X-181416Y133280D01*
X-181246Y134138D01*
X-181416Y134997D01*
X-181903Y135724D01*
X-182630Y136211D01*
X-183489Y136381D01*
D02*
G37*
G36*
X-87295Y117134D02*
X-87997Y116995D01*
X-88244Y116829D01*
X-88492Y116995D01*
X-89195Y117134D01*
X-89897Y116995D01*
X-90492Y116597D01*
X-90890Y116001D01*
X-91030Y115299D01*
X-90961Y114952D01*
X-91192Y114797D01*
X-91590Y114201D01*
X-91730Y113499D01*
X-91590Y112797D01*
X-91192Y112201D01*
X-90597Y111804D01*
X-89894Y111664D01*
X-89192Y111804D01*
X-89044Y111902D01*
X-88897Y111804D01*
X-88195Y111664D01*
X-87492Y111804D01*
X-87344Y111902D01*
X-87197Y111804D01*
X-86494Y111664D01*
X-85792Y111804D01*
X-85197Y112201D01*
X-84799Y112797D01*
X-84659Y113499D01*
X-84799Y114201D01*
X-85197Y114797D01*
X-85517Y115011D01*
X-85459Y115299D01*
X-85599Y116001D01*
X-85997Y116597D01*
X-86592Y116995D01*
X-87295Y117134D01*
D02*
G37*
G36*
X-152365Y40818D02*
X-153067Y40678D01*
X-153662Y40280D01*
X-154060Y39685D01*
X-154200Y38983D01*
X-154060Y38280D01*
X-153662Y37685D01*
X-153067Y37287D01*
X-152365Y37147D01*
X-151662Y37287D01*
X-151067Y37685D01*
X-150669Y38280D01*
X-150529Y38983D01*
X-150669Y39685D01*
X-151067Y40280D01*
X-151662Y40678D01*
X-152365Y40818D01*
D02*
G37*
G36*
X-153705Y83362D02*
X-154407Y83223D01*
X-155003Y82825D01*
X-155401Y82230D01*
X-155540Y81527D01*
X-155401Y80825D01*
X-155003Y80229D01*
X-154407Y79832D01*
X-153705Y79692D01*
X-153003Y79832D01*
X-152407Y80229D01*
X-152010Y80825D01*
X-151870Y81527D01*
X-152010Y82230D01*
X-152407Y82825D01*
X-153003Y83223D01*
X-153705Y83362D01*
D02*
G37*
G36*
X-170902Y63418D02*
X-171604Y63278D01*
X-172199Y62880D01*
X-172597Y62285D01*
X-172737Y61583D01*
X-172597Y60880D01*
X-172199Y60285D01*
X-171604Y59887D01*
X-170902Y59747D01*
X-170199Y59887D01*
X-169604Y60285D01*
X-169206Y60880D01*
X-169066Y61583D01*
X-169206Y62285D01*
X-169604Y62880D01*
X-170199Y63278D01*
X-170902Y63418D01*
D02*
G37*
G36*
X-171695Y57972D02*
X-172670Y57778D01*
X-173497Y57226D01*
X-174050Y56399D01*
X-174244Y55423D01*
X-174050Y54448D01*
X-173497Y53621D01*
X-172670Y53068D01*
X-171695Y52874D01*
X-170719Y53068D01*
X-169893Y53621D01*
X-169340Y54448D01*
X-169146Y55423D01*
X-169340Y56399D01*
X-169893Y57226D01*
X-170719Y57778D01*
X-171695Y57972D01*
D02*
G37*
G36*
X-73902Y175666D02*
X-74604Y175526D01*
X-75199Y175128D01*
X-75597Y174533D01*
X-75737Y173831D01*
X-75597Y173128D01*
X-75231Y172581D01*
X-75597Y172033D01*
X-75737Y171331D01*
X-75597Y170628D01*
X-75344Y170250D01*
X-75597Y169872D01*
X-75737Y169169D01*
X-75597Y168467D01*
X-75199Y167872D01*
X-74604Y167474D01*
X-73902Y167334D01*
X-73199Y167474D01*
X-72604Y167872D01*
X-72488Y168045D01*
X-71988D01*
X-71692Y167602D01*
X-71097Y167204D01*
X-70394Y167064D01*
X-69692Y167204D01*
X-69097Y167602D01*
X-68699Y168197D01*
X-68630Y168541D01*
X-68206Y168806D01*
X-68197Y168804D01*
X-68197Y168804D01*
X-68197Y168804D01*
X-67494Y168664D01*
X-66792Y168804D01*
X-66197Y169202D01*
X-65799Y169797D01*
X-65740Y170094D01*
X-65692Y170104D01*
X-65097Y170501D01*
X-64699Y171097D01*
X-64559Y171799D01*
X-64699Y172502D01*
X-65097Y173097D01*
X-65692Y173495D01*
X-66395Y173635D01*
X-67097Y173495D01*
X-67692Y173097D01*
X-68090Y172502D01*
X-68149Y172204D01*
X-68197Y172195D01*
X-68792Y171797D01*
X-68997Y171997D01*
X-68997Y171997D01*
X-69592Y172395D01*
X-70294Y172535D01*
X-70997Y172395D01*
X-71592Y171997D01*
X-71697Y171841D01*
X-72187Y171938D01*
X-72206Y172033D01*
X-72572Y172581D01*
X-72206Y173128D01*
X-72066Y173831D01*
X-72206Y174533D01*
X-72604Y175128D01*
X-73199Y175526D01*
X-73902Y175666D01*
D02*
G37*
G36*
X-105745Y174423D02*
X-106720Y174229D01*
X-107345Y173812D01*
X-107969Y174229D01*
X-108945Y174423D01*
X-109920Y174229D01*
X-110747Y173676D01*
X-111300Y172850D01*
X-111494Y171874D01*
X-111300Y170899D01*
X-110773Y170110D01*
X-110870Y169619D01*
X-110897Y169602D01*
X-111449Y168775D01*
X-111641Y167810D01*
X-112132Y167713D01*
X-112592Y168402D01*
X-112780Y168527D01*
X-112860Y168932D01*
X-112860D01*
X-112860Y168932D01*
X-112697Y169751D01*
X-112860Y170571D01*
X-113324Y171265D01*
X-114019Y171729D01*
X-114839Y171892D01*
X-115658Y171729D01*
X-115658Y171729D01*
X-115658Y171729D01*
X-115718Y171741D01*
X-115892Y172002D01*
X-116719Y172554D01*
X-117694Y172748D01*
X-118670Y172554D01*
X-119497Y172002D01*
X-120049Y171175D01*
X-120244Y170199D01*
X-120049Y169224D01*
X-119576Y168516D01*
X-119597Y168502D01*
X-120149Y167675D01*
X-120343Y166699D01*
X-120149Y165724D01*
X-119597Y164897D01*
X-118770Y164344D01*
X-117795Y164150D01*
X-116819Y164344D01*
X-116169Y164778D01*
X-115370Y164244D01*
X-114394Y164050D01*
X-113419Y164244D01*
X-112592Y164797D01*
X-112039Y165624D01*
X-111848Y166588D01*
X-111357Y166686D01*
X-110897Y165997D01*
X-110070Y165444D01*
X-109095Y165250D01*
X-108119Y165444D01*
X-107292Y165997D01*
X-106739Y166824D01*
X-106545Y167799D01*
X-106739Y168775D01*
X-106953Y169094D01*
X-106675Y169510D01*
X-105745Y169325D01*
X-104769Y169519D01*
X-103943Y170072D01*
X-103390Y170899D01*
X-103196Y171874D01*
X-103390Y172850D01*
X-103943Y173676D01*
X-104769Y174229D01*
X-105745Y174423D01*
D02*
G37*
G36*
X-110346Y137035D02*
X-111049Y136896D01*
X-111644Y136498D01*
X-112042Y135902D01*
X-112182Y135200D01*
X-112042Y134498D01*
X-111644Y133902D01*
X-111049Y133504D01*
X-110346Y133365D01*
X-109644Y133504D01*
X-109049Y133902D01*
X-108651Y134498D01*
X-108511Y135200D01*
X-108651Y135902D01*
X-109049Y136498D01*
X-109644Y136896D01*
X-110346Y137035D01*
D02*
G37*
G36*
X-64665Y155681D02*
X-65406Y155533D01*
X-65710Y155330D01*
X-65923Y155472D01*
X-66665Y155620D01*
X-67406Y155472D01*
X-68034Y155052D01*
X-68454Y154424D01*
X-68602Y153683D01*
X-68454Y152941D01*
X-68034Y152313D01*
X-67406Y151893D01*
X-66665Y151745D01*
X-65923Y151893D01*
X-65619Y152096D01*
X-65406Y151953D01*
X-64665Y151806D01*
X-63923Y151953D01*
X-63295Y152374D01*
X-62875Y153002D01*
X-62727Y153743D01*
X-62875Y154485D01*
X-63295Y155113D01*
X-63923Y155533D01*
X-64665Y155681D01*
D02*
G37*
G36*
X-47200Y149635D02*
X-47902Y149496D01*
X-48498Y149098D01*
X-48896Y148502D01*
X-49035Y147800D01*
X-48896Y147098D01*
X-48498Y146502D01*
X-47902Y146104D01*
X-47200Y145965D01*
X-46498Y146104D01*
X-45902Y146502D01*
X-45504Y147098D01*
X-45365Y147800D01*
X-45504Y148502D01*
X-45902Y149098D01*
X-46498Y149496D01*
X-47200Y149635D01*
D02*
G37*
G36*
X-64846Y150735D02*
X-65549Y150596D01*
X-66144Y150198D01*
X-66542Y149602D01*
X-66667Y148974D01*
X-67147Y148878D01*
X-67743Y148480D01*
X-68140Y147885D01*
X-68280Y147183D01*
X-68140Y146480D01*
X-67743Y145885D01*
X-67147Y145487D01*
X-66445Y145347D01*
X-65743Y145487D01*
X-65579Y145596D01*
X-65018Y145221D01*
X-64316Y145081D01*
X-63613Y145221D01*
X-63018Y145619D01*
X-62620Y146214D01*
X-62480Y146916D01*
X-62620Y147619D01*
X-63018Y148214D01*
X-63132Y148291D01*
X-63011Y148900D01*
X-63151Y149602D01*
X-63549Y150198D01*
X-64144Y150596D01*
X-64846Y150735D01*
D02*
G37*
%LPD*%
D10*
X-24984Y122000D02*
G03*
X-24301Y122283I0J967D01*
G01*
X-24301Y122283D02*
G03*
X-24584Y121600I684J-684D01*
G01*
X-19217Y135417D02*
G03*
X-19500Y134733I684J-684D01*
G01*
D02*
G03*
X-19783Y135417I-967J0D01*
G01*
X-24984Y122000D02*
G03*
X-24301Y122283I0J967D01*
G01*
X-24301Y122283D02*
G03*
X-24584Y121600I684J-684D01*
G01*
X-24984D02*
X-19500Y127084D01*
Y135700D01*
D11*
X-98594Y156831D02*
X-95402D01*
X-98902D02*
X-98594D01*
X-71082Y102464D02*
X-71047Y102500D01*
X-87647Y85900D02*
X-71082Y102464D01*
X-311243Y115551D02*
Y125198D01*
X-321446Y63200D02*
Y105347D01*
X-311243Y115551D01*
X-176002Y73939D02*
Y84545D01*
Y73939D02*
X-174145Y72083D01*
X-135595Y97100D02*
X-125595Y87100D01*
X-121447D01*
X-264702Y159531D02*
Y161255D01*
X-269133Y165686D02*
X-264702Y161255D01*
X-300284Y165686D02*
X-269133D01*
X-176002Y84545D02*
X-173402Y87145D01*
X-125543Y131100D02*
X-110346D01*
X-137645Y143202D02*
Y169298D01*
Y143202D02*
X-125543Y131100D01*
X-137646Y169300D02*
X-137645Y169298D01*
X-110346Y131100D02*
X-105847Y126600D01*
X-135595Y97100D02*
Y137758D01*
X-105847Y106200D02*
Y126600D01*
Y106000D02*
Y106200D01*
X-140045Y142208D02*
Y149374D01*
Y142208D02*
X-135595Y137758D01*
X-93402Y144331D02*
Y154831D01*
X-95402Y156831D02*
X-93402Y154831D01*
X-140145Y149474D02*
X-140045Y149374D01*
X-319545Y154274D02*
X-316095Y157724D01*
X-319545Y154174D02*
Y154274D01*
X-174145Y72083D02*
X-171765D01*
X-56616Y142531D02*
X-53246Y145900D01*
Y148500D01*
X-105736Y50010D02*
X-87647Y68100D01*
X-120786Y50010D02*
X-105736D01*
X-129746Y41050D02*
X-120786Y50010D01*
X-129746Y28434D02*
Y41050D01*
X-138948Y19233D02*
X-129746Y28434D01*
X-64147Y142531D02*
X-56616D01*
X-64147Y139800D02*
Y142531D01*
X-284447Y22900D02*
X-274229Y12683D01*
X-202528D01*
X-308246Y157724D02*
X-300284Y165686D01*
X-316095Y157724D02*
X-308246D01*
X-93402Y144331D02*
X-91602Y142531D01*
X-64147D01*
X-87647Y68100D02*
Y85900D01*
X-71047Y132900D02*
X-64147Y139800D01*
X-71047Y102500D02*
Y132900D01*
X-162066Y19233D02*
X-138948D01*
X-163799Y17500D02*
X-162066Y19233D01*
X-202528Y12683D02*
X-197711Y17500D01*
X-163799D01*
X-319545Y133500D02*
X-311243Y125198D01*
X-319545Y133500D02*
Y154174D01*
X-321446Y63200D02*
X-304147Y45900D01*
X-173402Y87145D02*
Y107331D01*
D12*
X-40946Y129200D02*
G03*
X-41629Y128917I0J-966D01*
G01*
X-41629Y128917D02*
G03*
X-41346Y129600I-683J683D01*
G01*
X-40946Y130000D02*
G03*
X-40264Y130283I0J966D01*
G01*
X-40264Y130283D02*
G03*
X-40547Y129600I683J-683D01*
G01*
X-40846Y131700D02*
G03*
X-41529Y131417I0J-966D01*
G01*
X-41529Y131417D02*
G03*
X-41247Y132100I-683J683D01*
G01*
X-40846Y132500D02*
G03*
X-40164Y132783I0J966D01*
G01*
X-40164Y132783D02*
G03*
X-40446Y132100I683J-683D01*
G01*
X-316190Y10894D02*
G03*
X-315694Y12089I-1195J1195D01*
G01*
D02*
G03*
X-315199Y10894I1690J0D01*
G01*
X-312695Y10399D02*
G03*
X-313190Y11594I-1690J0D01*
G01*
X-313190Y11594D02*
G03*
X-311995Y11099I1195J1195D01*
G01*
X-153662Y121865D02*
G03*
X-152979Y121583I683J683D01*
G01*
D02*
G03*
X-153662Y121300I0J-966D01*
G01*
X-153345Y108583D02*
G03*
X-153062Y107900I966J0D01*
G01*
X-153062Y107900D02*
G03*
X-153745Y108183I-683J-683D01*
G01*
X-286118Y35828D02*
G03*
X-285623Y34633I1690J0D01*
G01*
X-285623Y34633D02*
G03*
X-286818Y35128I-1195J-1195D01*
G01*
X-287551Y33895D02*
G03*
X-286356Y33400I1195J1195D01*
G01*
D02*
G03*
X-287551Y32905I0J-1690D01*
G01*
X-41993Y103454D02*
G03*
X-41139Y103100I854J854D01*
G01*
D02*
G03*
X-41993Y102746I0J-1207D01*
G01*
X-36715Y103769D02*
G03*
X-37569Y103415I0J-1207D01*
G01*
X-37569Y103415D02*
G03*
X-37215Y104269I-854J854D01*
G01*
X-24898Y180849D02*
G03*
X-25580Y180566I0J-966D01*
G01*
X-25580Y180566D02*
G03*
X-25298Y181249I-683J683D01*
G01*
X-18629Y180217D02*
G03*
X-19312Y180500I-683J-683D01*
G01*
D02*
G03*
X-18629Y180783I0J966D01*
G01*
X-66902Y99884D02*
G03*
X-66048Y100237I0J1207D01*
G01*
X-66048Y100237D02*
G03*
X-66402Y99383I854J-854D01*
G01*
X-66902Y98883D02*
G03*
X-67755Y98530I0J-1207D01*
G01*
X-67755Y98530D02*
G03*
X-67402Y99383I-854J854D01*
G01*
X-153662Y124065D02*
G03*
X-152979Y123783I683J683D01*
G01*
D02*
G03*
X-153662Y123500I0J-966D01*
G01*
X-207315Y21212D02*
G03*
X-206645Y22831I-1618J1618D01*
G01*
X-206528Y23114D02*
G03*
X-206245Y23796I-683J683D01*
G01*
D02*
G03*
X-205962Y23114I966J0D01*
G01*
X-126519Y41166D02*
G03*
X-125112Y40584I1407J1407D01*
G01*
X-197119Y24748D02*
G03*
X-197402Y24065I683J-683D01*
G01*
D02*
G03*
X-197684Y24748I-966J0D01*
G01*
X-190502Y106331D02*
G03*
X-190219Y105648I966J0D01*
G01*
X-190219Y105648D02*
G03*
X-190902Y105931I-683J-683D01*
G01*
X-188545Y106983D02*
G03*
X-188262Y106300I966J0D01*
G01*
X-188262Y106300D02*
G03*
X-188945Y106583I-683J-683D01*
G01*
X-199119Y24748D02*
G03*
X-199402Y24065I683J-683D01*
G01*
D02*
G03*
X-199684Y24748I-966J0D01*
G01*
X-151928Y109565D02*
G03*
X-151645Y110248I-683J683D01*
G01*
D02*
G03*
X-151362Y109565I966J0D01*
G01*
X-63198Y100629D02*
G03*
X-64052Y100983I-854J-854D01*
G01*
D02*
G03*
X-63198Y101336I0J1207D01*
G01*
X-124819Y42466D02*
G03*
X-124136Y42184I683J683D01*
G01*
D02*
G03*
X-124819Y41901I0J-966D01*
G01*
X-209686Y21042D02*
G03*
X-208945Y22831I-1789J1789D01*
G01*
X-208828Y23114D02*
G03*
X-208545Y23796I-683J683D01*
G01*
D02*
G03*
X-208262Y23114I966J0D01*
G01*
X-40264Y130283D02*
G03*
X-40547Y129600I683J-683D01*
G01*
X-40946Y130000D02*
G03*
X-40264Y130283I0J966D01*
G01*
X-41629Y128917D02*
G03*
X-41346Y129600I-683J683D01*
G01*
X-40946Y129200D02*
G03*
X-41629Y128917I0J-966D01*
G01*
X-40164Y132783D02*
G03*
X-40446Y132100I683J-683D01*
G01*
X-40846Y132500D02*
G03*
X-40164Y132783I0J966D01*
G01*
X-41529Y131417D02*
G03*
X-41247Y132100I-683J683D01*
G01*
X-40846Y131700D02*
G03*
X-41529Y131417I0J-966D01*
G01*
X-25580Y180566D02*
G03*
X-25298Y181249I-683J683D01*
G01*
X-24898Y180849D02*
G03*
X-25580Y180566I0J-966D01*
G01*
X-19312Y180500D02*
G03*
X-18629Y180783I0J966D01*
G01*
Y180217D02*
G03*
X-19312Y180500I-683J-683D01*
G01*
X-66048Y100237D02*
G03*
X-66402Y99383I854J-854D01*
G01*
X-66902Y99884D02*
G03*
X-66048Y100237I0J1207D01*
G01*
X-67755Y98530D02*
G03*
X-67402Y99383I-854J854D01*
G01*
X-66902Y98883D02*
G03*
X-67755Y98530I0J-1207D01*
G01*
X-126519Y41166D02*
G03*
X-125112Y40584I1407J1407D01*
G01*
X-64052Y100983D02*
G03*
X-63198Y101336I0J1207D01*
G01*
Y100629D02*
G03*
X-64052Y100983I-854J-854D01*
G01*
X-124136Y42184D02*
G03*
X-124819Y41901I0J-966D01*
G01*
Y42466D02*
G03*
X-124136Y42184I683J683D01*
G01*
X-208545Y22183D02*
Y22831D01*
Y27883D01*
X-210645Y20083D02*
X-208545Y22183D01*
Y27883D02*
X-205245Y31183D01*
X-206245Y22283D02*
Y22831D01*
X-184102Y36331D02*
Y86052D01*
X-185302Y36828D02*
Y85555D01*
X-186465Y88415D02*
Y104502D01*
Y88415D02*
X-184102Y86052D01*
X-190449Y29983D02*
X-184102Y36331D01*
X-204393Y29983D02*
X-190449D01*
X-187845Y88098D02*
Y103274D01*
X-205245Y31183D02*
X-190946D01*
X-185302Y36828D01*
X-187845Y88098D02*
X-185302Y85555D01*
X-125102Y42184D02*
X-121904D01*
X-126502Y40584D02*
X-121807D01*
X-105853Y45230D02*
X-84002Y67082D01*
X-117160Y45230D02*
X-105853D01*
X-117605Y46483D02*
X-106298D01*
X-64434Y100983D02*
X-62845D01*
X-106298Y46483D02*
X-85202Y67579D01*
X-121904Y42184D02*
X-117605Y46483D01*
X-126802Y40883D02*
X-126502Y40584D01*
X-121807D02*
X-117160Y45230D01*
X-64434Y99394D02*
Y100983D01*
X-66645Y97184D02*
X-64434Y99394D01*
X-151645Y109283D02*
Y120983D01*
X-152245Y121583D02*
X-151645Y120983D01*
X-149945Y108183D02*
Y121383D01*
X-153945Y123783D02*
X-152345D01*
X-197402Y23183D02*
Y25031D01*
X-199402Y22881D02*
Y25031D01*
X-206245Y22831D02*
Y28131D01*
X-209645Y18883D02*
X-206245Y22283D01*
X-204599Y17683D02*
X-199402Y22881D01*
X-204102Y16483D02*
X-197402Y23183D01*
X-311781Y29631D02*
X-284015D01*
X-272067Y17683D02*
X-204599D01*
X-284015Y29631D02*
X-272067Y17683D01*
X-311284Y28431D02*
X-284512D01*
X-272564Y16483D01*
X-204102D01*
X-206245Y28131D02*
X-204393Y29983D01*
X-190902Y106331D02*
X-187845Y103274D01*
X-188945Y106983D02*
X-186465Y104502D01*
X-66902Y99383D02*
X-65635Y100651D01*
X-69785Y96500D02*
X-66902Y99383D01*
X-23046Y180500D02*
X-18347D01*
X-39546Y166600D02*
X-24898Y181249D01*
X-38346Y166103D02*
X-25199Y179250D01*
X-24296D02*
X-23046Y180500D01*
X-25199Y179250D02*
X-24296D01*
X-42347Y103100D02*
X-37883D01*
X-36715Y104269D01*
X-64434Y100983D02*
Y114912D01*
X-52464Y126883D01*
X-43664D01*
X-65635Y100651D02*
Y115412D01*
X-52964Y128083D01*
X-44864D01*
X-271073Y20083D02*
X-210645D01*
X-286818Y35828D02*
X-271073Y20083D01*
X-286087Y33400D02*
X-271570Y18883D01*
X-288047Y33400D02*
X-286087D01*
X-271570Y18883D02*
X-209645D01*
X-152645Y107483D02*
X-150645D01*
X-149945Y108183D01*
X-153745Y108583D02*
X-152645Y107483D01*
X-152345Y123783D02*
X-149945Y121383D01*
X-153945Y121583D02*
X-152245D01*
X-84002Y67082D02*
Y83945D01*
X-66645Y97184D02*
Y97236D01*
X-65421Y98459D01*
X-85202Y67579D02*
Y84442D01*
X-68581Y95300D02*
X-66645Y97236D01*
X-72646Y95300D02*
X-68581D01*
X-84002Y83945D02*
X-72646Y95300D01*
X-73144Y96500D02*
X-69785D01*
X-85202Y84442D02*
X-73144Y96500D01*
X-39546Y133400D02*
Y166600D01*
X-315694Y10399D02*
Y25717D01*
X-311781Y29631D01*
X-314494Y12899D02*
Y25220D01*
Y12899D02*
X-311995Y10399D01*
X-314494Y25220D02*
X-311284Y28431D01*
X-38346Y132200D02*
Y166103D01*
X-40846Y132100D02*
X-39546Y133400D01*
X-44864Y128083D02*
X-40846Y132100D01*
X-43664Y126883D02*
X-40946Y129600D01*
X-38346Y132200D01*
D13*
X-151483Y132870D02*
G03*
X-152422Y133259I-939J-939D01*
G01*
D02*
G03*
X-151483Y133648I0J1328D01*
G01*
X-141895Y135974D02*
G03*
X-141542Y135122I1206J0D01*
G01*
X-141420Y134999D02*
G03*
X-142445Y135424I-1025J-1025D01*
G01*
X-97130Y36049D02*
G03*
X-98069Y35660I0J-1328D01*
G01*
D02*
G03*
X-97680Y36599I-939J939D01*
G01*
X-191647Y166050D02*
G03*
X-192530Y165699I-36J-1197D01*
G01*
X-192530Y165699D02*
G03*
X-192180Y166583I-847J847D01*
G01*
X-174380Y165599D02*
G03*
X-174769Y166538I-1328J0D01*
G01*
D02*
G03*
X-173830Y166149I939J939D01*
G01*
X-178441Y164488D02*
G03*
X-177502Y164099I939J939D01*
G01*
D02*
G03*
X-178441Y163710I0J-1328D01*
G01*
X-171757Y167189D02*
G03*
X-170845Y166811I912J912D01*
G01*
X-170792D02*
G03*
X-171757Y166411I0J-1365D01*
G01*
X-155634Y157785D02*
G03*
X-156573Y158174I-939J-939D01*
G01*
D02*
G03*
X-155634Y158563I0J1328D01*
G01*
X-154034Y145985D02*
G03*
X-154973Y146374I-939J-939D01*
G01*
D02*
G03*
X-154034Y146763I0J1328D01*
G01*
X-155424Y144375D02*
G03*
X-156362Y144764I-939J-939D01*
G01*
D02*
G03*
X-155424Y145153I0J1328D01*
G01*
X-177215Y25031D02*
G03*
X-177603Y25970I-1328J0D01*
G01*
D02*
G03*
X-176665Y25581I939J939D01*
G01*
X-175453Y23220D02*
G03*
X-175065Y24159I-939J939D01*
G01*
D02*
G03*
X-174676Y23220I1328J0D01*
G01*
X-173854Y25420D02*
G03*
X-173465Y26359I-939J939D01*
G01*
D02*
G03*
X-173076Y25420I1328J0D01*
G01*
X-172254Y23220D02*
G03*
X-171865Y24159I-939J939D01*
G01*
D02*
G03*
X-171476Y23220I1328J0D01*
G01*
X-170754Y25420D02*
G03*
X-170365Y26359I-939J939D01*
G01*
D02*
G03*
X-169976Y25420I1328J0D01*
G01*
X-152790Y23442D02*
G03*
X-153729Y23831I-939J-939D01*
G01*
D02*
G03*
X-152790Y24220I0J1328D01*
G01*
X-169153Y23220D02*
G03*
X-168765Y24159I-939J939D01*
G01*
D02*
G03*
X-168376Y23220I1328J0D01*
G01*
X-188958Y163289D02*
G03*
X-188019Y162900I939J939D01*
G01*
D02*
G03*
X-188958Y162511I0J-1328D01*
G01*
Y160189D02*
G03*
X-188019Y159800I939J939D01*
G01*
D02*
G03*
X-188958Y159411I0J-1328D01*
G01*
X-197057Y161911D02*
G03*
X-197447Y160972I939J-939D01*
G01*
D02*
G03*
X-197835Y161911I-1328J0D01*
G01*
X-182557Y122389D02*
G03*
X-181619Y122000I939J939D01*
G01*
D02*
G03*
X-182557Y121611I0J-1328D01*
G01*
X-187697Y117400D02*
G03*
X-187308Y116461I1328J0D01*
G01*
D02*
G03*
X-188247Y116850I-939J-939D01*
G01*
X-188796Y117400D02*
G03*
X-189185Y118339I-1328J0D01*
G01*
D02*
G03*
X-188247Y117950I939J939D01*
G01*
X-110346Y124850D02*
G03*
X-111115Y124532I0J-1086D01*
G01*
X-111356Y124290D02*
G03*
X-110897Y125400I-1110J1110D01*
G01*
X-113495Y24752D02*
G03*
X-112484Y24333I1010J1010D01*
G01*
X-112627D02*
G03*
X-113495Y23974I0J-1227D01*
G01*
X-151483Y130650D02*
G03*
X-152422Y131039I-939J-939D01*
G01*
D02*
G03*
X-151483Y131428I0J1328D01*
G01*
Y135090D02*
G03*
X-152422Y135479I-939J-939D01*
G01*
D02*
G03*
X-151483Y135868I0J1328D01*
G01*
X-228015Y22583D02*
G03*
X-228403Y23522I-1328J0D01*
G01*
D02*
G03*
X-227465Y23133I939J939D01*
G01*
X-230353Y22972D02*
G03*
X-229965Y23911I-939J939D01*
G01*
D02*
G03*
X-229576Y22972I1328J0D01*
G01*
X-213291Y24720D02*
G03*
X-212902Y25659I-939J939D01*
G01*
D02*
G03*
X-212513Y24720I1328J0D01*
G01*
X-79690Y80372D02*
G03*
X-79302Y81311I-939J939D01*
G01*
D02*
G03*
X-78913Y80372I1328J0D01*
G01*
X-135665Y29033D02*
G03*
X-134726Y29422I0J1328D01*
G01*
D02*
G03*
X-135115Y28483I939J-939D01*
G01*
X-166790Y23220D02*
G03*
X-166402Y24159I-939J939D01*
G01*
D02*
G03*
X-166013Y23220I1328J0D01*
G01*
X-195791Y25420D02*
G03*
X-195402Y26359I-939J939D01*
G01*
D02*
G03*
X-195013Y25420I1328J0D01*
G01*
X-151891Y27657D02*
G03*
X-152829Y28046I-939J-939D01*
G01*
D02*
G03*
X-151891Y28435I0J1328D01*
G01*
X-151094Y137149D02*
G03*
X-152033Y136760I0J-1328D01*
G01*
D02*
G03*
X-151645Y137699I-939J939D01*
G01*
X-166352Y135291D02*
G03*
X-166281Y134334I591J-437D01*
G01*
X-165950Y134994D02*
G03*
X-165870Y133924I660J-489D01*
G01*
X-166153Y134826D02*
G03*
X-166392Y134446I183J-380D01*
G01*
D02*
G03*
X-166631Y134826I-422J0D01*
G01*
X-169557Y134932D02*
G03*
X-169947Y133993I939J-939D01*
G01*
D02*
G03*
X-170335Y134932I-1328J0D01*
G01*
X-163756Y121685D02*
G03*
X-164145Y120746I939J-939D01*
G01*
D02*
G03*
X-164534Y121685I-1328J0D01*
G01*
X-173160Y121682D02*
G03*
X-173545Y120763I902J-919D01*
G01*
D02*
G03*
X-173930Y121682I-1287J0D01*
G01*
X-221761Y92224D02*
G03*
X-222646Y91873I-35J-1202D01*
G01*
X-222646Y91873D02*
G03*
X-222295Y92758I-850J850D01*
G01*
X-271845Y175124D02*
G03*
X-270906Y175513I0J1328D01*
G01*
D02*
G03*
X-271295Y174574I939J-939D01*
G01*
X-141095Y164799D02*
G03*
X-142033Y164410I0J-1328D01*
G01*
D02*
G03*
X-141645Y165349I-939J939D01*
G01*
X-191630Y168550D02*
G03*
X-192569Y168161I0J-1328D01*
G01*
D02*
G03*
X-192180Y169100I-939J939D01*
G01*
X-142545Y148724D02*
G03*
X-143484Y148335I0J-1328D01*
G01*
D02*
G03*
X-143095Y149274I-939J939D01*
G01*
X-152683Y147610D02*
G03*
X-153622Y147999I-939J-939D01*
G01*
D02*
G03*
X-152683Y148388I0J1328D01*
G01*
X-152856Y153763D02*
G03*
X-151917Y153374I939J939D01*
G01*
D02*
G03*
X-152856Y152985I0J-1328D01*
G01*
X-141095Y166949D02*
G03*
X-142033Y166560I0J-1328D01*
G01*
D02*
G03*
X-141645Y167499I-939J939D01*
G01*
X-142934Y158085D02*
G03*
X-143873Y158474I-939J-939D01*
G01*
D02*
G03*
X-142934Y158863I0J1328D01*
G01*
Y155885D02*
G03*
X-143873Y156274I-939J-939D01*
G01*
D02*
G03*
X-142934Y156663I0J1328D01*
G01*
X-142956Y153808D02*
G03*
X-143770Y154174I-814J-724D01*
G01*
D02*
G03*
X-142956Y154540I0J1089D01*
G01*
X-152856Y155763D02*
G03*
X-151917Y155374I939J939D01*
G01*
D02*
G03*
X-152856Y154985I0J-1328D01*
G01*
X-152828Y157833D02*
G03*
X-152045Y157474I783J675D01*
G01*
D02*
G03*
X-152828Y157115I0J-1034D01*
G01*
X-155634Y154135D02*
G03*
X-156573Y154524I-939J-939D01*
G01*
D02*
G03*
X-155634Y154913I0J1328D01*
G01*
X-152856Y163463D02*
G03*
X-151917Y163074I939J939D01*
G01*
D02*
G03*
X-152856Y162685I0J-1328D01*
G01*
X-165395Y136874D02*
G03*
X-165784Y137813I-1328J0D01*
G01*
D02*
G03*
X-164845Y137424I939J939D01*
G01*
X-141483Y170038D02*
G03*
X-141095Y170977I-939J939D01*
G01*
D02*
G03*
X-140706Y170038I1328J0D01*
G01*
X-140765Y36433D02*
G03*
X-139826Y36822I0J1328D01*
G01*
D02*
G03*
X-140215Y35883I939J-939D01*
G01*
X-145580Y42209D02*
G03*
X-144945Y43743I-1534J1534D01*
G01*
X-145934Y42563D02*
G03*
X-144945Y44950I-2387J2387D01*
G01*
X-144539Y40971D02*
G03*
X-144045Y42164I-1193J1193D01*
G01*
Y41656D02*
G03*
X-143761Y40971I969J0D01*
G01*
X-146902Y44381D02*
G03*
X-145963Y44770I0J1328D01*
G01*
D02*
G03*
X-146352Y43831I939J-939D01*
G01*
X-152790Y25568D02*
G03*
X-153729Y25957I-939J-939D01*
G01*
D02*
G03*
X-152790Y26346I0J1328D01*
G01*
X-190376Y23220D02*
G03*
X-189437Y22831I939J939D01*
G01*
D02*
G03*
X-190376Y22442I0J-1328D01*
G01*
X-188657Y112411D02*
G03*
X-189047Y111472I939J-939D01*
G01*
D02*
G03*
X-189435Y112411I-1328J0D01*
G01*
X-142565Y37933D02*
G03*
X-141626Y38322I0J1328D01*
G01*
D02*
G03*
X-142015Y37383I939J-939D01*
G01*
X-138865Y34833D02*
G03*
X-137926Y35222I0J1328D01*
G01*
D02*
G03*
X-138315Y34283I939J-939D01*
G01*
X-190197Y111300D02*
G03*
X-189807Y110361I1328J0D01*
G01*
D02*
G03*
X-190746Y110750I-939J-939D01*
G01*
X-150402Y47381D02*
G03*
X-149463Y47770I0J1328D01*
G01*
D02*
G03*
X-149852Y46831I939J-939D01*
G01*
X-148902Y45881D02*
G03*
X-147963Y46270I0J1328D01*
G01*
D02*
G03*
X-148352Y45331I939J-939D01*
G01*
X-151902Y48881D02*
G03*
X-150963Y49270I0J1328D01*
G01*
D02*
G03*
X-151352Y48331I939J-939D01*
G01*
X-271295Y178074D02*
G03*
X-270906Y177135I1328J0D01*
G01*
D02*
G03*
X-271845Y177524I-939J-939D01*
G01*
X-137565Y33233D02*
G03*
X-136626Y33622I0J1328D01*
G01*
D02*
G03*
X-137015Y32683I939J-939D01*
G01*
X-136000Y31218D02*
G03*
X-135345Y32800I-1581J1581D01*
G01*
X-136354Y31572D02*
G03*
X-135345Y34007I-2435J2435D01*
G01*
X-194353Y23220D02*
G03*
X-193952Y24190I-970J970D01*
G01*
Y24127D02*
G03*
X-193576Y23220I1283J0D01*
G01*
X-170856Y121694D02*
G03*
X-171245Y120755I939J-939D01*
G01*
D02*
G03*
X-171634Y121694I-1328J0D01*
G01*
X-166056Y121685D02*
G03*
X-166445Y120746I939J-939D01*
G01*
D02*
G03*
X-166834Y121685I-1328J0D01*
G01*
X-161556D02*
G03*
X-161945Y120746I939J-939D01*
G01*
D02*
G03*
X-162334Y121685I-1328J0D01*
G01*
X-156756Y121694D02*
G03*
X-157145Y120755I939J-939D01*
G01*
D02*
G03*
X-157534Y121694I-1328J0D01*
G01*
X-151483Y128430D02*
G03*
X-152422Y128819I-939J-939D01*
G01*
D02*
G03*
X-151483Y129208I0J1328D01*
G01*
Y126210D02*
G03*
X-152422Y126599I-939J-939D01*
G01*
D02*
G03*
X-151483Y126988I0J1328D01*
G01*
X-142056Y131585D02*
G03*
X-142445Y130646I939J-939D01*
G01*
D02*
G03*
X-142834Y131585I-1328J0D01*
G01*
X-141895Y142274D02*
G03*
X-141506Y141335I1328J0D01*
G01*
D02*
G03*
X-142445Y141724I-939J-939D01*
G01*
X-141895Y139974D02*
G03*
X-141577Y139206I1086J0D01*
G01*
X-141335Y138964D02*
G03*
X-142445Y139424I-1110J-1110D01*
G01*
X-141895Y133974D02*
G03*
X-141542Y133122I1206J0D01*
G01*
X-141420Y132999D02*
G03*
X-142445Y133424I-1025J-1025D01*
G01*
X-179270Y167870D02*
G03*
X-179929Y168200I-659J-494D01*
G01*
D02*
G03*
X-179270Y168530I0J823D01*
G01*
Y167870D02*
G03*
X-179929Y168200I-659J-494D01*
G01*
X-179929D02*
G03*
X-179270Y168530I0J823D01*
G01*
X-192019Y171211D02*
G03*
X-192958Y171600I-939J-939D01*
G01*
D02*
G03*
X-192019Y171989I0J1328D01*
G01*
Y171211D02*
G03*
X-192958Y171600I-939J-939D01*
G01*
X-192958D02*
G03*
X-192019Y171989I0J1328D01*
G01*
X-188958Y168389D02*
G03*
X-188019Y168000I939J939D01*
G01*
D02*
G03*
X-188958Y167611I0J-1328D01*
G01*
Y158112D02*
G03*
X-188203Y157800I754J754D01*
G01*
X-187834D02*
G03*
X-188958Y157335I0J-1589D01*
G01*
Y156036D02*
G03*
X-188019Y155647I939J939D01*
G01*
D02*
G03*
X-188958Y155258I0J-1328D01*
G01*
X-173146Y137350D02*
G03*
X-172207Y137739I0J1328D01*
G01*
D02*
G03*
X-172597Y136800I939J-939D01*
G01*
X-199557Y161911D02*
G03*
X-199941Y160986I925J-925D01*
G01*
Y160958D02*
G03*
X-200335Y161911I-1348J0D01*
G01*
X-192365Y24581D02*
G03*
X-191436Y24965I0J1313D01*
G01*
X-192365Y25081D02*
G03*
X-190583Y25819I0J2520D01*
G01*
X-192365Y25581D02*
G03*
X-189729Y26672I0J3727D01*
G01*
X-191899Y25323D02*
G03*
X-191371Y25031I528J331D01*
G01*
D02*
G03*
X-191899Y24739I0J-623D01*
G01*
X-205130Y173059D02*
G03*
X-204346Y172700I783J675D01*
G01*
D02*
G03*
X-205130Y172341I0J-1034D01*
G01*
X-203658Y157211D02*
G03*
X-204047Y156272I939J-939D01*
G01*
D02*
G03*
X-204435Y157211I-1328J0D01*
G01*
X-211653Y23220D02*
G03*
X-211265Y24159I-939J939D01*
G01*
D02*
G03*
X-210876Y23220I1328J0D01*
G01*
X-191630Y171600D02*
X-191246D01*
X-193319D02*
X-191630D01*
X-199941Y162300D02*
Y162594D01*
Y159940D02*
Y162300D01*
X-178830Y168200D02*
X-178746D01*
X-179929D02*
X-178830D01*
X-172146Y166811D02*
X-167082D01*
X-172182D02*
X-172146D01*
X-189347Y157800D02*
X-187047D01*
X-134445Y29702D02*
Y91998D01*
X-137245Y94798D02*
X-134445Y91998D01*
X-147745Y49487D02*
Y162174D01*
X-180277Y105169D02*
Y107798D01*
X-183615Y101832D02*
X-180277Y105169D01*
X-187179Y114699D02*
X-180277Y107798D01*
X-180504Y116783D02*
X-175047Y111325D01*
X-183899Y116783D02*
X-180504D01*
X-189730Y114699D02*
X-187179D01*
X-199941Y159940D02*
X-198616Y158616D01*
Y123585D02*
Y158616D01*
Y123585D02*
X-189730Y114699D01*
X-211265Y22831D02*
Y26194D01*
X-222646Y35828D02*
X-212902Y26083D01*
Y24331D02*
Y26083D01*
X-222646Y35828D02*
Y91872D01*
X-195295Y171176D02*
X-191071Y175400D01*
X-195295Y128178D02*
Y171176D01*
Y128178D02*
X-183899Y116783D01*
X-194395Y128551D02*
Y170524D01*
Y128551D02*
X-183826Y117983D01*
X-193430Y128859D02*
X-183454Y118883D01*
X-192530Y129232D02*
X-183081Y119783D01*
X-192530Y165699D02*
X-191630Y166599D01*
X-192530Y129232D02*
Y165699D01*
X-181546Y115300D02*
X-176330Y110083D01*
X-155445Y107414D02*
Y123398D01*
Y107414D02*
X-154930Y106899D01*
X-159530Y117698D02*
X-157145Y120083D01*
X-159530Y31959D02*
Y117698D01*
Y31959D02*
X-155616Y28046D01*
X-161330Y29259D02*
X-155902Y23831D01*
X-161330Y29259D02*
Y113098D01*
X-164145Y115913D02*
X-161330Y113098D01*
X-161945Y114985D02*
X-160430Y113470D01*
Y30359D02*
Y113470D01*
Y30359D02*
X-156028Y25957D01*
X-166445Y116940D02*
X-162361Y112856D01*
Y33053D02*
Y112856D01*
X-166402Y29012D02*
X-162361Y33053D01*
X-174599Y117983D02*
X-166965Y110348D01*
Y35583D02*
Y110348D01*
X-175065Y27483D02*
X-166965Y35583D01*
X-174226Y118883D02*
X-166065Y110721D01*
Y35168D02*
Y110721D01*
X-173465Y27768D02*
X-166065Y35168D01*
X-173854Y119783D02*
X-165165Y111094D01*
Y34068D02*
Y111094D01*
X-171865Y27368D02*
X-165165Y34068D01*
X-173545Y120763D02*
X-164265Y111483D01*
Y33695D02*
Y111483D01*
X-170365Y27595D02*
X-164265Y33695D01*
X-163365Y33322D02*
Y112583D01*
X-168765Y27922D02*
X-163365Y33322D01*
X-177652Y26018D02*
Y87995D01*
X-182147Y35528D02*
Y86855D01*
X-183046Y35901D02*
Y86482D01*
X-204047Y117001D02*
Y157600D01*
X-219865Y101183D02*
X-204047Y117001D01*
X-205546Y172700D02*
X-204346D01*
X-193147Y183900D02*
X-126446D01*
X-204346Y172700D02*
X-193147Y183900D01*
X-199946Y162600D02*
X-199941Y162594D01*
X-192365Y25031D02*
X-191371D01*
X-181246Y35155D01*
X-160945Y135374D02*
X-160295Y136024D01*
X-158495Y134279D02*
Y143524D01*
X-169370Y133024D02*
X-159750D01*
X-158495Y134279D01*
X-159395Y134652D02*
Y144824D01*
X-160122Y133924D02*
X-159395Y134652D01*
X-165870Y133924D02*
X-160122D01*
X-166392Y134445D02*
X-165870Y133924D01*
X-166392Y134445D02*
Y135321D01*
X-169947Y133600D02*
Y135321D01*
Y133600D02*
X-169370Y133024D01*
X-166371Y138400D02*
X-164845Y136874D01*
X-173146Y136800D02*
X-171546Y138400D01*
X-166371D01*
X-174646Y133274D02*
Y145740D01*
Y133274D02*
X-173447Y132074D01*
X-182346Y153440D02*
Y167500D01*
Y153440D02*
X-174646Y145740D01*
X-183247Y153067D02*
Y166700D01*
Y153067D02*
X-175547Y145367D01*
Y132403D02*
Y145367D01*
Y132403D02*
X-174318Y131174D01*
X-176446Y132030D02*
X-174690Y130274D01*
X-176446Y132030D02*
Y144994D01*
X-184146Y152694D02*
X-176446Y144994D01*
X-185047Y152321D02*
Y158500D01*
Y152321D02*
X-177347Y144621D01*
Y131657D02*
Y144621D01*
Y131657D02*
X-174963Y129274D01*
X-178246Y131284D02*
X-175336Y128374D01*
X-178246Y131284D02*
Y144248D01*
X-185947Y151948D02*
X-178246Y144248D01*
X-189299Y155647D02*
X-187593D01*
X-186846Y154900D01*
Y151400D02*
Y154900D01*
Y151400D02*
X-179147Y143700D01*
Y130912D02*
Y143700D01*
Y130912D02*
X-175709Y127474D01*
X-187047Y157800D02*
X-185947Y156700D01*
Y151948D02*
Y156700D01*
X-186346Y159800D02*
X-185047Y158500D01*
X-184546Y168000D02*
X-183247Y166700D01*
X-191071Y175400D02*
X-177347D01*
X-175747Y173800D02*
X-165950D01*
X-177347Y175400D02*
X-175747Y173800D01*
X-172182Y166811D02*
X-172171Y166800D01*
X-175047Y108019D02*
Y111325D01*
X-175052Y108014D02*
X-175047Y108019D01*
X-177652Y87995D02*
X-175052Y90595D01*
X-190765Y22831D02*
X-184646D01*
X-184515Y89223D02*
Y106341D01*
X-189744Y27931D02*
X-182147Y35528D01*
X-184515Y89223D02*
X-182147Y86855D01*
X-192302Y27931D02*
X-189744D01*
X-190117Y28831D02*
X-183046Y35901D01*
X-193902Y28831D02*
X-190117D01*
X-185415Y88850D02*
Y105968D01*
Y88850D02*
X-183046Y86482D01*
X-189047Y110873D02*
X-184515Y106341D01*
X-189047Y110873D02*
Y112800D01*
X-190746Y111300D02*
X-185415Y105968D01*
X-137245Y94798D02*
Y137074D01*
X-138145Y94191D02*
Y135774D01*
Y94191D02*
X-135345Y91391D01*
Y31802D02*
Y91391D01*
X-139045Y93818D02*
Y134625D01*
Y93818D02*
X-136245Y91018D01*
Y34002D02*
Y91018D01*
X-139945Y93446D02*
Y133525D01*
Y93446D02*
X-137145Y90646D01*
Y36002D02*
Y90646D01*
X-140845Y93073D02*
X-138045Y90273D01*
X-140845Y93073D02*
Y132425D01*
X-138045Y38602D02*
Y90273D01*
X-142394Y133974D02*
X-140845Y132425D01*
X-142445Y133974D02*
X-142394D01*
X-138945Y41002D02*
Y89900D01*
X-142445Y93400D02*
X-138945Y89900D01*
X-142445Y93400D02*
Y131974D01*
X-164833Y171411D02*
X-161146Y167724D01*
X-152270D01*
X-149695Y165148D01*
Y155124D02*
Y165148D01*
X-142565Y37383D02*
X-138945Y41002D01*
X-140765Y35883D02*
X-138045Y38602D01*
X-105791Y45080D02*
X-83902Y66970D01*
Y69026D01*
X-142445Y142274D02*
X-137245Y137074D01*
X-142345Y139974D02*
X-138145Y135774D01*
X-151902Y48331D02*
X-148795Y51437D01*
X-157145Y120083D02*
Y122083D01*
X-161945Y114985D02*
Y122074D01*
X-166445Y116940D02*
Y122074D01*
X-171245Y120351D02*
Y122083D01*
Y120351D02*
X-168314Y117420D01*
X-183081Y119783D02*
X-173854D01*
X-183454Y118883D02*
X-174226D01*
X-183826Y117983D02*
X-174599D01*
X-137565Y32683D02*
X-136245Y34002D01*
X-138865Y34283D02*
X-137145Y36002D01*
X-193965Y22831D02*
X-193952Y22844D01*
X-219865Y34794D02*
Y101183D01*
X-135665Y28483D02*
X-134445Y29702D01*
X-135965Y31183D02*
X-135345Y31802D01*
X-195402Y27331D02*
X-193902Y28831D01*
X-156028Y25957D02*
X-152402D01*
X-168314Y117420D02*
X-163365Y112583D01*
X-167082Y166811D02*
X-161245Y160974D01*
X-152045Y157474D02*
X-151495Y158024D01*
X-147745Y162174D02*
X-145745Y164174D01*
X-144150Y40582D02*
X-144045Y40687D01*
X-145545Y42174D02*
X-144945Y42774D01*
X-146902Y43831D02*
X-145945Y44787D01*
X-148902Y45331D02*
X-146845Y47387D01*
X-150402Y46831D02*
X-147745Y49487D01*
X-151845Y155374D02*
X-150595Y156624D01*
X-151445Y153374D02*
X-149695Y155124D01*
X-153245Y157474D02*
X-152045D01*
X-153245Y155374D02*
X-151845D01*
X-153245Y153374D02*
X-151445D01*
X-144045Y147774D02*
X-142545Y149274D01*
X-142394Y137974D02*
X-139045Y134625D01*
X-271845Y174574D02*
X-270245Y176174D01*
X-158495Y143524D02*
X-157255Y144764D01*
X-173545Y120763D02*
Y122074D01*
X-164145Y115913D02*
Y122074D01*
X-155616Y28046D02*
X-151502D01*
X-193952Y22844D02*
Y25631D01*
X-193965Y25644D02*
X-193952Y25631D01*
X-193965Y25644D02*
Y26268D01*
X-192302Y27931D01*
X-195402Y25031D02*
Y27331D01*
X-271845Y178074D02*
X-270845Y177074D01*
X-251845D01*
X-252345Y176174D02*
X-241065Y164894D01*
X-270245Y176174D02*
X-252345D01*
X-251845Y177074D02*
X-240165Y165394D01*
Y95656D02*
Y165394D01*
X-241065Y95283D02*
X-229965Y84183D01*
X-241065Y95283D02*
Y164894D01*
X-240165Y95656D02*
X-229065Y84556D01*
Y24183D02*
Y84556D01*
X-229965Y22583D02*
Y84183D01*
X-229065Y24183D02*
X-227465Y22583D01*
X-219865Y34794D02*
X-211265Y26194D01*
X-142394Y135974D02*
X-139945Y133525D01*
X-108902Y24333D02*
X-99136Y34100D01*
X-113854Y24333D02*
X-108902D01*
X-144045Y40687D02*
Y147774D01*
X-145945Y44787D02*
Y154574D01*
X-148795Y51437D02*
Y162397D01*
X-79302Y81645D02*
X-68446Y92500D01*
X-79302Y79984D02*
Y81645D01*
X-110346Y125300D02*
Y125400D01*
X-111547Y124100D02*
X-110346Y125300D01*
X-119346Y124100D02*
X-111547D01*
X-122846Y120600D02*
X-119346Y124100D01*
X-122846Y95700D02*
X-121346Y94200D01*
X-122846Y95700D02*
Y120600D01*
X-222646Y91872D02*
X-221745Y92774D01*
X-186146Y115300D02*
X-181546D01*
X-188247Y117400D02*
X-186146Y115300D01*
X-197447Y126600D02*
X-188247Y117400D01*
X-182947Y122000D02*
X-179147D01*
X-176047Y125100D01*
X-157147D02*
X-155445Y123398D01*
X-176047Y125100D02*
X-157147D01*
X-197447Y126600D02*
Y162300D01*
X-188847Y162900D02*
X-186346D01*
X-184146Y160700D01*
Y152694D02*
Y160700D01*
X-126446Y183900D02*
X-124846Y182300D01*
X-33746D01*
X-31146Y179700D01*
X-155902Y23831D02*
X-152402D01*
X-168765Y22831D02*
Y27922D01*
X-170365Y25031D02*
Y27595D01*
X-171865Y22831D02*
Y27368D01*
X-173465Y25031D02*
Y27768D01*
X-175065Y22831D02*
Y27483D01*
X-177652Y26018D02*
X-176665Y25031D01*
X-181130Y158599D02*
Y166999D01*
X-157255Y144764D02*
X-155035D01*
X-151495Y158024D02*
Y160499D01*
X-152520Y161524D02*
X-151495Y160499D01*
X-172171Y166800D02*
X-172146D01*
X-181130Y158599D02*
X-179830Y157299D01*
X-177830D01*
X-98130Y35599D02*
X-97130Y36599D01*
X-98130Y34100D02*
Y35599D01*
X-99136Y34100D02*
X-98130D01*
X-73146D01*
X-165950Y173800D02*
X-164216Y172066D01*
X-184646Y22831D02*
X-179230Y28247D01*
Y89561D01*
X-176330Y92461D01*
X-183615Y89596D02*
Y101832D01*
Y89596D02*
X-181246Y87227D01*
Y35155D02*
Y87227D01*
X-166402Y22831D02*
Y29012D01*
X-193319Y171600D02*
X-191630D01*
X-194395Y170524D02*
X-193319Y171600D01*
X-193430Y167300D02*
X-191630Y169100D01*
X-193430Y128859D02*
Y167300D01*
X-189246Y170350D02*
X-188496Y169599D01*
X-184446D02*
X-182346Y167500D01*
X-188496Y169599D02*
X-184446D01*
X-189246Y168000D02*
X-184546D01*
X-181130Y166999D02*
X-179929Y168200D01*
X-178830D01*
X-189347Y159800D02*
X-186346D01*
X-175894Y169899D02*
X-174383Y171411D01*
X-175894Y167664D02*
Y169899D01*
Y167664D02*
X-173830Y165599D01*
X-174383Y171411D02*
X-164833D01*
X-146845Y47387D02*
Y156374D01*
X-144745Y158474D01*
X-142545D01*
X-144245Y156274D02*
X-142545D01*
X-145945Y154574D02*
X-144245Y156274D01*
X-144945Y152999D02*
X-143770Y154174D01*
X-144945Y42774D02*
Y152999D01*
X-143770Y154174D02*
X-142545D01*
X-145745Y164174D02*
X-142270D01*
X-145693Y165499D02*
X-143095D01*
X-148795Y162397D02*
X-145693Y165499D01*
X-142162Y172066D02*
X-141095Y170999D01*
Y169649D02*
Y170999D01*
X-164216Y172066D02*
X-142162D01*
X-142270Y164174D02*
X-141095Y165349D01*
X-143095Y165499D02*
X-141095Y167499D01*
X-160295Y136024D02*
Y145199D01*
X-157494Y147999D01*
X-152295D01*
X-157845Y146374D02*
X-153645D01*
X-159395Y144824D02*
X-157845Y146374D01*
X-177830Y157299D02*
X-175055Y154524D01*
X-155245D01*
X-178830Y164099D02*
X-167994D01*
X-162069Y158174D01*
X-155245D01*
X-151770Y163074D02*
X-150595Y161899D01*
Y156624D02*
Y161899D01*
X-153245Y163074D02*
X-151770D01*
X-161245Y160974D02*
X-157395D01*
X-156844Y161524D01*
X-152520D01*
X-152495Y126599D02*
X-151094D01*
X-175709Y127474D02*
X-153369D01*
X-152495Y126599D01*
X-173447Y132074D02*
X-158420D01*
X-158047Y131174D02*
X-153742Y135479D01*
X-151094D01*
X-174318Y131174D02*
X-158047D01*
X-154689Y133259D02*
X-151094D01*
X-174690Y130274D02*
X-157674D01*
X-154689Y133259D01*
X-155529Y131039D02*
X-151094D01*
X-157294Y129274D02*
X-155529Y131039D01*
X-174963Y129274D02*
X-157294D01*
X-152094Y136699D02*
X-151094Y137699D01*
X-153795Y136699D02*
X-152094D01*
X-158420Y132074D02*
X-153795Y136699D01*
X-156494Y128374D02*
X-156049Y128819D01*
X-175336Y128374D02*
X-156494D01*
X-156049Y128819D02*
X-151094D01*
X-176330Y92461D02*
Y110083D01*
X-175052Y90595D02*
Y108014D01*
D14*
X-182579Y6453D02*
G03*
X-181726Y6100I854J854D01*
G01*
D02*
G03*
X-182579Y5746I0J-1207D01*
G01*
X-184602Y5984D02*
G03*
X-184248Y5130I1207J0D01*
G01*
X-184248Y5130D02*
G03*
X-185102Y5483I-854J-854D01*
G01*
X-187157Y9773D02*
G03*
X-186803Y8920I1207J0D01*
G01*
X-186803Y8920D02*
G03*
X-187657Y9273I-854J-854D01*
G01*
X-185582Y11173D02*
G03*
X-185228Y10320I1207J0D01*
G01*
X-185228Y10320D02*
G03*
X-186082Y10673I-854J-854D01*
G01*
X-84448Y169153D02*
G03*
X-84095Y170006I-854J854D01*
G01*
D02*
G03*
X-83741Y169153I1207J0D01*
G01*
X-95048Y139684D02*
G03*
X-94195Y139331I854J854D01*
G01*
D02*
G03*
X-95048Y138977I0J-1207D01*
G01*
X-69600Y138747D02*
G03*
X-70454Y139100I-854J-854D01*
G01*
D02*
G03*
X-69600Y139453I0J1207D01*
G01*
X-72622Y29076D02*
G03*
X-73046Y28051I1024J-1024D01*
G01*
D02*
G03*
X-73471Y29076I-1448J0D01*
G01*
X-69346Y35200D02*
G03*
X-70371Y34776I0J-1448D01*
G01*
X-70371Y34776D02*
G03*
X-69946Y35800I-1024J1024D01*
G01*
X-67222Y37976D02*
G03*
X-67646Y36952I1024J-1024D01*
G01*
D02*
G03*
X-68071Y37976I-1448J0D01*
G01*
X-130402Y44831D02*
G03*
X-131255Y44477I0J-1207D01*
G01*
X-131255Y44477D02*
G03*
X-130902Y45331I-854J854D01*
G01*
X-130402Y45831D02*
G03*
X-129548Y46184I0J1207D01*
G01*
X-129548Y46184D02*
G03*
X-129902Y45331I854J-854D01*
G01*
X-78948Y79630D02*
G03*
X-79302Y78776I854J-854D01*
G01*
D02*
G03*
X-79655Y79630I-1207J0D01*
G01*
X-98755Y161477D02*
G03*
X-99609Y161831I-854J-854D01*
G01*
D02*
G03*
X-98755Y162184I0J1207D01*
G01*
X-122202Y24783D02*
G03*
X-121384Y25122I0J1156D01*
G01*
X-121333Y25173D02*
G03*
X-121702Y24284I890J-890D01*
G01*
X-206648Y5737D02*
G03*
X-205795Y5384I854J854D01*
G01*
D02*
G03*
X-206648Y5030I0J-1207D01*
G01*
X-57871Y45676D02*
G03*
X-58895Y46100I-1024J-1024D01*
G01*
D02*
G03*
X-57871Y46524I0J1448D01*
G01*
Y49176D02*
G03*
X-58895Y49600I-1024J-1024D01*
G01*
D02*
G03*
X-57871Y50024I0J1448D01*
G01*
Y56176D02*
G03*
X-58895Y56600I-1024J-1024D01*
G01*
D02*
G03*
X-57871Y57024I0J1448D01*
G01*
Y59676D02*
G03*
X-58895Y60100I-1024J-1024D01*
G01*
D02*
G03*
X-57871Y60524I0J1448D01*
G01*
X-59022Y39224D02*
G03*
X-57998Y38800I1024J1024D01*
G01*
D02*
G03*
X-59022Y38376I0J-1448D01*
G01*
X-132346Y47800D02*
G03*
X-131493Y48154I0J1207D01*
G01*
X-131493Y48154D02*
G03*
X-131846Y47300I854J-854D01*
G01*
X-24022Y63176D02*
G03*
X-24446Y62151I1024J-1024D01*
G01*
D02*
G03*
X-24871Y63176I-1448J0D01*
G01*
X-208193Y170754D02*
G03*
X-207098Y170300I1095J1095D01*
G01*
X-207581D02*
G03*
X-208193Y170046I0J-866D01*
G01*
X-67646Y34799D02*
X-66146Y33299D01*
X-72271Y15533D02*
X-66146Y21657D01*
Y33299D01*
X-165810Y4600D02*
X-158877Y11533D01*
X-183718Y4600D02*
X-165810D01*
X-185102Y5984D02*
X-183718Y4600D01*
X-165724Y6100D02*
X-159291Y12533D01*
X-182933Y6100D02*
X-165724D01*
X-126270Y180824D02*
X-86919D01*
X-84095Y177999D01*
Y168799D02*
Y177999D01*
X-88547Y131347D02*
Y137500D01*
X-93920Y125974D02*
X-88547Y131347D01*
X-93920Y96726D02*
Y125974D01*
X-124145Y66502D02*
X-93920Y96726D01*
X-98402Y135455D02*
X-94920Y131974D01*
Y97141D02*
Y131974D01*
X-125145Y66916D02*
X-94920Y97141D01*
X-104402Y158831D02*
X-101402Y161831D01*
X-98402D01*
X-90377Y139331D02*
X-88547Y137500D01*
X-104402Y137309D02*
X-96646Y129554D01*
X-104402Y137309D02*
Y158831D01*
X-96646Y98800D02*
Y129554D01*
X-39797Y44533D02*
Y55750D01*
X-45529Y38800D02*
X-39797Y44533D01*
X-59447Y38800D02*
X-45529D01*
X-208447Y170300D02*
X-203847D01*
X-191847Y182300D01*
X-127746D01*
X-25846Y57600D02*
X-24446Y59000D01*
X-130402Y45331D02*
X-125145Y50587D01*
X-132495Y41116D02*
X-124145Y49466D01*
X-39797Y55750D02*
X-37947Y57600D01*
X-25846D01*
X-57446Y60100D02*
X-57346D01*
X-62247D02*
X-57446D01*
X-61946Y56600D02*
X-57446D01*
X-61247Y49600D02*
X-57446D01*
X-59746Y46100D02*
X-57446D01*
X-133495Y28531D02*
Y42237D01*
X-132495Y28090D02*
Y41116D01*
X-104702Y40584D02*
X-79302Y65983D01*
Y79984D01*
X-139695Y22331D02*
X-133495Y28531D01*
X-163930Y19783D02*
X-162383Y21331D01*
X-164345Y20784D02*
X-162797Y22331D01*
X-139254Y21331D02*
X-132495Y28090D01*
X-118023Y28484D02*
X-107816D01*
X-122202Y24284D02*
Y24305D01*
X-118023Y28484D01*
X-107816D02*
X-104702Y31598D01*
Y40584D01*
X-133495Y42237D02*
X-130402Y45331D01*
X-299016Y19382D02*
X-293015Y25383D01*
X-203647Y15383D02*
X-198246Y20784D01*
X-203233Y14383D02*
X-197832Y19783D01*
X-293015Y25383D02*
X-284434D01*
X-273434Y14383D01*
X-203233D01*
X-302602Y26384D02*
X-284020D01*
X-273019Y15383D01*
X-203647D01*
X-62147Y20000D02*
Y43700D01*
X-70614Y11533D02*
X-62147Y20000D01*
Y43700D02*
X-59746Y46100D01*
X-63147Y20414D02*
Y47700D01*
X-71028Y12533D02*
X-63147Y20414D01*
Y47700D02*
X-61247Y49600D01*
X-64147Y20828D02*
Y54400D01*
X-61946Y56600D01*
X-71442Y13533D02*
X-64147Y20828D01*
X-65146Y21243D02*
Y57200D01*
X-62247Y60100D01*
X-71856Y14533D02*
X-65146Y21243D01*
X-73046Y21100D02*
Y29500D01*
X-124145Y49466D02*
Y66502D01*
X-125145Y50587D02*
Y66916D01*
X-90077Y140831D02*
X-88346Y139100D01*
X-98402Y139331D02*
X-96902Y140831D01*
X-98402Y135455D02*
Y139331D01*
X-128647Y51000D02*
Y66800D01*
X-132346Y47300D02*
X-128647Y51000D01*
Y66800D02*
X-96646Y98800D01*
X-88346Y139100D02*
X-69247D01*
X-96902Y140831D02*
X-90077D01*
X-166393Y9673D02*
X-160534Y15533D01*
X-166807Y10673D02*
X-160948Y16533D01*
X-76614Y17533D02*
X-73046Y21100D01*
X-163611Y15283D02*
X-161362Y17533D01*
X-127746Y182300D02*
X-126270Y180824D01*
X-189232Y8373D02*
X-188532Y7673D01*
X-187657Y9773D02*
X-186557Y8673D01*
X-179283Y10673D02*
X-166807D01*
X-186082Y11173D02*
X-184582Y9673D01*
X-166393D01*
X-179783Y11173D02*
X-179283Y10673D01*
X-165979Y8673D02*
X-160120Y14533D01*
X-186557Y8673D02*
X-165979D01*
X-165565Y7673D02*
X-159705Y13533D01*
X-188532Y7673D02*
X-165565D01*
X-188314Y15283D02*
X-163611D01*
X-207002Y5384D02*
X-198214D01*
X-188314Y15283D01*
X-197832Y19783D02*
X-163930D01*
X-198246Y20784D02*
X-164345D01*
X-158877Y11533D02*
X-70614D01*
X-159291Y12533D02*
X-71028D01*
X-159705Y13533D02*
X-71442D01*
X-160120Y14533D02*
X-71856D01*
X-160534Y15533D02*
X-72271D01*
X-161362Y17533D02*
X-76614D01*
X-162383Y21331D02*
X-139254D01*
X-162797Y22331D02*
X-139695D01*
X-24446Y59000D02*
Y63600D01*
X-95402Y139331D02*
X-90377D01*
X-67646Y34799D02*
Y38400D01*
X-160948Y16533D02*
X-75195D01*
X-71394Y20333D01*
Y33752D01*
X-69346Y35800D01*
X-52800Y111100D02*
X-52700Y111000D01*
X-29100D01*
X-24900Y106800D01*
X-16000D01*
D16*
X-67984Y103166D02*
G03*
X-67702Y103849I-683J683D01*
G01*
D02*
G03*
X-67419Y103166I966J0D01*
G01*
X-127746Y79100D02*
X-125902Y77255D01*
X-131046Y79100D02*
X-127746D01*
X-125902Y72110D02*
Y77255D01*
X-67702Y102884D02*
Y115545D01*
X-46946Y136300D01*
Y140700D01*
D18*
X-124846Y154800D02*
Y173500D01*
Y153300D02*
Y154800D01*
X-248346Y181600D02*
X-233447Y166700D01*
X-255747Y181600D02*
X-248346D01*
X-198846Y171372D02*
X-191019Y179200D01*
X-198846Y166200D02*
Y171372D01*
X-233447Y166700D02*
X-199346D01*
X-134245Y147200D02*
X-130947D01*
X-124846Y153300D01*
X-130546Y179200D02*
X-124846Y173500D01*
X-155030Y174716D02*
Y179200D01*
X-191019D02*
X-155030D01*
X-130546D01*
D19*
X-61046Y107700D02*
X-29647D01*
D71*
X-261506Y166859D02*
X-259146Y164500D01*
X-265020Y170374D02*
X-261506Y166859D01*
X-313345Y165174D02*
X-310047D01*
X-316345D02*
X-313345D01*
X-304847Y170374D02*
X-265020D01*
X-310047Y165174D02*
X-304847Y170374D01*
D83*
X-112992Y117717D02*
D03*
X9843Y155118D02*
D03*
X-338189D02*
D03*
Y33858D02*
D03*
D84*
X-289767Y16015D02*
D03*
X-299016Y19382D02*
D03*
X-308265Y22748D02*
D03*
D86*
X-201043Y58692D02*
D03*
D87*
X-50300Y147200D02*
D03*
X-99295Y152499D02*
D03*
X-98805Y147599D02*
D03*
X-97694Y152499D02*
D03*
X-67494Y170499D02*
D03*
X-70294Y170699D02*
D03*
X-70394Y168899D02*
D03*
X-98694Y149299D02*
D03*
X-97194Y149999D02*
D03*
X-86094Y135799D02*
D03*
X-208545Y22831D02*
D03*
X-211265D02*
D03*
X-80539Y137131D02*
D03*
X-80484Y135528D02*
D03*
X-85395Y137399D02*
D03*
X-197195Y11499D02*
D03*
X-200294D02*
D03*
X-186530Y24299D02*
D03*
X-190730Y117799D02*
D03*
X-37230Y37299D02*
D03*
X-177830Y96699D02*
D03*
X-156930Y106299D02*
D03*
X-103330Y129899D02*
D03*
X-101230D02*
D03*
Y131799D02*
D03*
X-42530Y35599D02*
D03*
X-42630Y37399D02*
D03*
X-42930Y117899D02*
D03*
X-39302Y119644D02*
D03*
X-204047Y157600D02*
D03*
X-205546Y172700D02*
D03*
X-208546Y170400D02*
D03*
X-192365Y25031D02*
D03*
X-199946Y162300D02*
D03*
X-131046Y79100D02*
D03*
X-173195Y144899D02*
D03*
X-173146Y136800D02*
D03*
X-189347Y155647D02*
D03*
Y157723D02*
D03*
Y168000D02*
D03*
X-189246Y170350D02*
D03*
X-191630Y171600D02*
D03*
X-174747Y175300D02*
D03*
X-178830Y172084D02*
D03*
Y168200D02*
D03*
X-172447Y175300D02*
D03*
X-174245Y112574D02*
D03*
X-175747Y122100D02*
D03*
X-30002Y64083D02*
D03*
X-82807Y27878D02*
D03*
X-84776Y29557D02*
D03*
X-99802Y26484D02*
D03*
X-132346Y47300D02*
D03*
X-132945Y49669D02*
D03*
X-125102Y42184D02*
D03*
X-114002Y52210D02*
D03*
X-115302Y40584D02*
D03*
X-111902Y36983D02*
D03*
X-113602Y39083D02*
D03*
X-45546Y52100D02*
D03*
X-34446Y33700D02*
D03*
X-36546D02*
D03*
X-142445Y133974D02*
D03*
X-142494Y137974D02*
D03*
X-142445Y139974D02*
D03*
Y142274D02*
D03*
Y131974D02*
D03*
X-151094Y126599D02*
D03*
Y128819D02*
D03*
X-151645Y109283D02*
D03*
X-157145Y122083D02*
D03*
X-296945Y136674D02*
D03*
X-148365Y38983D02*
D03*
X-154045Y125883D02*
D03*
X-103280Y131799D02*
D03*
X-161945Y122074D02*
D03*
X-166445D02*
D03*
X-171245Y122083D02*
D03*
X-175195Y149099D02*
D03*
X-171895Y149974D02*
D03*
X-193965Y22831D02*
D03*
X-199402Y25031D02*
D03*
X-207002Y5384D02*
D03*
X-204995Y9199D02*
D03*
X-122202Y24284D02*
D03*
X-135965Y31183D02*
D03*
X-137565Y32683D02*
D03*
X-110346Y22800D02*
D03*
X-81049Y26030D02*
D03*
X-99802Y28883D02*
D03*
X-99902Y31284D02*
D03*
X-110402Y34683D02*
D03*
X-108402Y21584D02*
D03*
X-106429Y20211D02*
D03*
X-95645Y177974D02*
D03*
Y176174D02*
D03*
X-170947Y140200D02*
D03*
X-189246Y172700D02*
D03*
X-165194Y139499D02*
D03*
X-143994Y168299D02*
D03*
X-93894Y136199D02*
D03*
X-287143Y148892D02*
D03*
X-188945Y106983D02*
D03*
X-31702Y65083D02*
D03*
X-109189Y155331D02*
D03*
X-274743Y154992D02*
D03*
X-277843Y151992D02*
D03*
X-280743Y148992D02*
D03*
X-271845Y178074D02*
D03*
X-92402Y19831D02*
D03*
X-233902Y48331D02*
D03*
X-66395Y171799D02*
D03*
X-68917Y186315D02*
D03*
X-73902Y169169D02*
D03*
X-81902Y168331D02*
D03*
X-76647Y124200D02*
D03*
X-98395Y154099D02*
D03*
X-197902Y89331D02*
D03*
X-47247Y151100D02*
D03*
X-259902Y62831D02*
D03*
X-224765Y114083D02*
D03*
X-219402Y117831D02*
D03*
X-259865Y79783D02*
D03*
X-152402Y60831D02*
D03*
X-152902Y50331D02*
D03*
X-151902Y48331D02*
D03*
X-152365Y38983D02*
D03*
X-148902Y45331D02*
D03*
X-150402Y46831D02*
D03*
X-248202Y40963D02*
D03*
X-190902Y106331D02*
D03*
X-73902Y173831D02*
D03*
X-301943Y122392D02*
D03*
X-279701Y111167D02*
D03*
X-190746Y111300D02*
D03*
X-138865Y34283D02*
D03*
X-142565Y37383D02*
D03*
X-281157Y90499D02*
D03*
X-276703Y94953D02*
D03*
X-272249Y99407D02*
D03*
X-258886Y112770D02*
D03*
X-260943Y110392D02*
D03*
X-264807Y116292D02*
D03*
X-271565Y131783D02*
D03*
X-260211Y120637D02*
D03*
X-247836Y123991D02*
D03*
X-236243Y105792D02*
D03*
X-249978Y121678D02*
D03*
X-262665Y136414D02*
D03*
X-262643Y123192D02*
D03*
X-269170Y142759D02*
D03*
X-281461Y130890D02*
D03*
X-275384Y113092D02*
D03*
X-280363Y123112D02*
D03*
X-277147Y135486D02*
D03*
X-283543Y142392D02*
D03*
X-286955Y116804D02*
D03*
X-297084Y115334D02*
D03*
X-314843Y105792D02*
D03*
X-312043Y109092D02*
D03*
X-306043Y115092D02*
D03*
X-301577Y110918D02*
D03*
X-292738Y119896D02*
D03*
X-309143Y112092D02*
D03*
X-305043Y126092D02*
D03*
X-301643Y129292D02*
D03*
X-298643Y132292D02*
D03*
X-299165Y112983D02*
D03*
X-278949Y92746D02*
D03*
X-274475Y97180D02*
D03*
X-263340Y108316D02*
D03*
X-256675Y115014D02*
D03*
X-252204Y119451D02*
D03*
X-279303Y133187D02*
D03*
X-268939Y134358D02*
D03*
X-254432Y117224D02*
D03*
X-264992Y138630D02*
D03*
X-271365Y105314D02*
D03*
X-268443Y117792D02*
D03*
X-282690Y120796D02*
D03*
X-313443Y122392D02*
D03*
X-282485Y125233D02*
D03*
X-294859Y117564D02*
D03*
X-249401Y127477D02*
D03*
X-292755Y141604D02*
D03*
X-266043Y145292D02*
D03*
X-280105Y113330D02*
D03*
X-284943Y128892D02*
D03*
X-189047Y112800D02*
D03*
X-183756Y138505D02*
D03*
X-183747Y130088D02*
D03*
X-73902Y171331D02*
D03*
X-190765Y22831D02*
D03*
X-152402Y25957D02*
D03*
X-146902Y43831D02*
D03*
X-144150Y40582D02*
D03*
X-152402Y87831D02*
D03*
X-59346Y28600D02*
D03*
X-183743Y125892D02*
D03*
X-98402Y161831D02*
D03*
X-98594Y156768D02*
D03*
X-273192Y139515D02*
D03*
X-274815Y137607D02*
D03*
X-153705Y81527D02*
D03*
X-87402Y168331D02*
D03*
X-88902D02*
D03*
X-170902Y61583D02*
D03*
X-173402Y63331D02*
D03*
X-322943Y107892D02*
D03*
X-173195Y148199D02*
D03*
X-145545Y42174D02*
D03*
X-140765Y35883D02*
D03*
X-141095Y169649D02*
D03*
X-164845Y136874D02*
D03*
X-172146Y169961D02*
D03*
X-173830Y168374D02*
D03*
X-153245Y163074D02*
D03*
X-155245Y154524D02*
D03*
X-153245Y157474D02*
D03*
Y155374D02*
D03*
X-142545Y154174D02*
D03*
Y156274D02*
D03*
Y158474D02*
D03*
Y160774D02*
D03*
X-141095Y167499D02*
D03*
X-283743Y146092D02*
D03*
X-153245Y169474D02*
D03*
Y153374D02*
D03*
Y151374D02*
D03*
X-155245Y150874D02*
D03*
X-156795Y149474D02*
D03*
X-152295Y147999D02*
D03*
X-142545Y149274D02*
D03*
X-274843Y161092D02*
D03*
X-191630Y169100D02*
D03*
X-141095Y165349D02*
D03*
X-271845Y174574D02*
D03*
X-111845Y186174D02*
D03*
X-221745Y92774D02*
D03*
X-108846Y163731D02*
D03*
X-173545Y122074D02*
D03*
X-164145D02*
D03*
X-169947Y135321D02*
D03*
X-166392D02*
D03*
X-151094Y137699D02*
D03*
X-160945Y135374D02*
D03*
X-151502Y28046D02*
D03*
X-197402Y25031D02*
D03*
X-195402D02*
D03*
X-99902Y24331D02*
D03*
X-166402Y22831D02*
D03*
X-135665Y28483D02*
D03*
X-79302Y79984D02*
D03*
X-125902Y72110D02*
D03*
X-130402Y45331D02*
D03*
X-126802Y40883D02*
D03*
X-231745Y44383D02*
D03*
X-212902Y24331D02*
D03*
X-229965Y22583D02*
D03*
X-227465D02*
D03*
X-216445Y23883D02*
D03*
X-151094Y135479D02*
D03*
Y131039D02*
D03*
X-64316Y146916D02*
D03*
X-66445Y147183D02*
D03*
X-105330Y131799D02*
D03*
X-214402Y22831D02*
D03*
X-206245D02*
D03*
X-153945Y123783D02*
D03*
X-18347Y180500D02*
D03*
X-24898Y181249D02*
D03*
X-64846Y148900D02*
D03*
X-47200Y147800D02*
D03*
X-69247Y139100D02*
D03*
X-53246Y148600D02*
D03*
X-46946Y140700D02*
D03*
X-55546Y135000D02*
D03*
X-53746Y137800D02*
D03*
X-51947Y135900D02*
D03*
X-113883Y24363D02*
D03*
X-153745Y108583D02*
D03*
X-153945Y121583D02*
D03*
X-157330Y102899D02*
D03*
X-154930Y106899D02*
D03*
X-110346Y135200D02*
D03*
Y125400D02*
D03*
X-100902Y137774D02*
D03*
X-100945Y135974D02*
D03*
X-95402Y139331D02*
D03*
X-188247Y117400D02*
D03*
X-182947Y122000D02*
D03*
X-197447Y162300D02*
D03*
X-189347Y159800D02*
D03*
Y162900D02*
D03*
X-104461Y19142D02*
D03*
X-84095Y168799D02*
D03*
X-251902Y31045D02*
D03*
X-251946Y37500D02*
D03*
X-96902Y136199D02*
D03*
X-95402D02*
D03*
X-92194Y122499D02*
D03*
X-90495D02*
D03*
X-186082Y11173D02*
D03*
X-189232Y8373D02*
D03*
X-187657Y9773D02*
D03*
X-185102Y5984D02*
D03*
X-179783Y11173D02*
D03*
X-182933Y6100D02*
D03*
X-168765Y22831D02*
D03*
X-152402Y23831D02*
D03*
X-170365Y25031D02*
D03*
X-171865Y22831D02*
D03*
X-173465Y25031D02*
D03*
X-175065Y22831D02*
D03*
X-176665Y25031D02*
D03*
X-131746Y22300D02*
D03*
X-60546Y22100D02*
D03*
X-44646Y122000D02*
D03*
X-315443Y102892D02*
D03*
X-320402Y114083D02*
D03*
X-319443Y116392D02*
D03*
X-316443Y119392D02*
D03*
X-129446Y128900D02*
D03*
X-21830Y59999D02*
D03*
Y62199D02*
D03*
X-20030Y53699D02*
D03*
Y51849D02*
D03*
Y49999D02*
D03*
X-155035Y144764D02*
D03*
X-153645Y146374D02*
D03*
X-156795Y152699D02*
D03*
Y156099D02*
D03*
X-153245Y166274D02*
D03*
X-156746Y163700D02*
D03*
X-155245Y158174D02*
D03*
X-172146Y166800D02*
D03*
X-178830Y155647D02*
D03*
Y159600D02*
D03*
Y164099D02*
D03*
Y166150D02*
D03*
X-173830Y165599D02*
D03*
X-191630Y166599D02*
D03*
X-173830Y158899D02*
D03*
X-97130Y36599D02*
D03*
X-165530Y175399D02*
D03*
X-108430Y140199D02*
D03*
X-42830Y120599D02*
D03*
X-262439Y156286D02*
D03*
X-264657Y156296D02*
D03*
X-267023Y156748D02*
D03*
X-285963Y162599D02*
D03*
X-283697D02*
D03*
X-285963Y160399D02*
D03*
X-281430Y162599D02*
D03*
X-250130Y157199D02*
D03*
X-247080D02*
D03*
X-244030D02*
D03*
X-225030D02*
D03*
X-222830D02*
D03*
X-220630D02*
D03*
X-218430D02*
D03*
X-216230D02*
D03*
X-201395Y159399D02*
D03*
Y157199D02*
D03*
X-327030Y109099D02*
D03*
Y111553D02*
D03*
Y114007D02*
D03*
Y116461D02*
D03*
Y118915D02*
D03*
Y121368D02*
D03*
Y123822D02*
D03*
Y126276D02*
D03*
Y128730D02*
D03*
Y131184D02*
D03*
Y133638D02*
D03*
Y136091D02*
D03*
Y138545D02*
D03*
Y140999D02*
D03*
X-322630Y121399D02*
D03*
X-324830D02*
D03*
X-327030Y106699D02*
D03*
X-283697Y160399D02*
D03*
X-142445Y135974D02*
D03*
X-138930Y26599D02*
D03*
X-149930Y25099D02*
D03*
X-127930Y22699D02*
D03*
X-125730D02*
D03*
X-120330Y21799D02*
D03*
Y19599D02*
D03*
X-138830Y7899D02*
D03*
X-136597D02*
D03*
X-134363D02*
D03*
X-132130D02*
D03*
X-164230Y27399D02*
D03*
Y25199D02*
D03*
X-179530Y24299D02*
D03*
X-303705Y56699D02*
D03*
X-301030D02*
D03*
X-306380D02*
D03*
X-309055D02*
D03*
X-306494Y54399D02*
D03*
X-170030Y59699D02*
D03*
X-89195Y115299D02*
D03*
X-87295D02*
D03*
X-171895Y146499D02*
D03*
X-151094Y133259D02*
D03*
X-88695Y122499D02*
D03*
X-92295Y136199D02*
D03*
X-86494Y113499D02*
D03*
X-88195D02*
D03*
X-89894D02*
D03*
X-287494Y175099D02*
D03*
Y179599D02*
D03*
X0Y126200D02*
D03*
X-19500Y135700D02*
D03*
X-34400Y137500D02*
D03*
X-22700Y115700D02*
D03*
X-36647Y132800D02*
D03*
X-40846Y132100D02*
D03*
X-40946Y129600D02*
D03*
X-34446Y122100D02*
D03*
X-28000Y121000D02*
D03*
X-24984Y121600D02*
D03*
X-26500Y119500D02*
D03*
X-21200Y117100D02*
D03*
X-179402Y95331D02*
D03*
X-170945Y93783D02*
D03*
X-169219Y95100D02*
D03*
X-34300Y127700D02*
D03*
D88*
X-141894Y87399D02*
D03*
X-69494Y22299D02*
D03*
X-49194Y82599D02*
D03*
X-51794D02*
D03*
X-54295D02*
D03*
X-57494Y78999D02*
D03*
X-59095Y77099D02*
D03*
Y74633D02*
D03*
Y72166D02*
D03*
X-56630D02*
D03*
X-21130Y30599D02*
D03*
X-18630D02*
D03*
X-44830Y30399D02*
D03*
X-42430D02*
D03*
X-47230D02*
D03*
X-57394Y40999D02*
D03*
X-52930Y37199D02*
D03*
X-55330D02*
D03*
X-52830Y34799D02*
D03*
X-55302D02*
D03*
X-57800Y35300D02*
D03*
X-59630Y53999D02*
D03*
X-71102Y102483D02*
D03*
X-20795Y72199D02*
D03*
X-16894Y72099D02*
D03*
X-19247Y64800D02*
D03*
X-24446Y63600D02*
D03*
X-59447Y38800D02*
D03*
X-57446Y60100D02*
D03*
Y56600D02*
D03*
Y49600D02*
D03*
Y46100D02*
D03*
X-19847Y57700D02*
D03*
X-48145Y67000D02*
D03*
X-45794Y65599D02*
D03*
X-43494D02*
D03*
X-14547Y54400D02*
D03*
X-67702Y102884D02*
D03*
X-62845Y100983D02*
D03*
X9353Y6800D02*
D03*
X-4080Y2500D02*
D03*
X-1463D02*
D03*
X1154D02*
D03*
X6954Y5100D02*
D03*
X-36647Y8900D02*
D03*
X-34247D02*
D03*
X4354Y3700D02*
D03*
X-10147Y50250D02*
D03*
Y52700D02*
D03*
Y47800D02*
D03*
X-6696Y2500D02*
D03*
X-11813Y18262D02*
D03*
X-11766Y15697D02*
D03*
X-9080Y18262D02*
D03*
X-14547Y13000D02*
D03*
Y15700D02*
D03*
X-9313Y2500D02*
D03*
X-14547Y4900D02*
D03*
Y10300D02*
D03*
X-11930Y2500D02*
D03*
X-14547D02*
D03*
Y7600D02*
D03*
X-216745Y72999D02*
D03*
X-214295D02*
D03*
X-211305Y72999D02*
D03*
X-208385D02*
D03*
X-205465D02*
D03*
X-202795D02*
D03*
X-216745Y61566D02*
D03*
Y47274D02*
D03*
Y50132D02*
D03*
Y55849D02*
D03*
Y58707D02*
D03*
Y64424D02*
D03*
Y67282D02*
D03*
Y70141D02*
D03*
X-212995Y45099D02*
D03*
X-210425D02*
D03*
X-207815D02*
D03*
X-205205D02*
D03*
X-199985D02*
D03*
X-197375D02*
D03*
X-192155D02*
D03*
X-202595D02*
D03*
X-194765D02*
D03*
X-187145Y68454D02*
D03*
Y65844D02*
D03*
Y63234D02*
D03*
Y60624D02*
D03*
Y52794D02*
D03*
X-214295Y52991D02*
D03*
Y61566D02*
D03*
Y47274D02*
D03*
Y55849D02*
D03*
Y58707D02*
D03*
Y64424D02*
D03*
Y67282D02*
D03*
Y70141D02*
D03*
X9854Y33700D02*
D03*
X12854D02*
D03*
X2153Y37223D02*
D03*
Y39746D02*
D03*
Y42269D02*
D03*
Y44792D02*
D03*
Y47315D02*
D03*
Y49838D02*
D03*
X-1337Y75900D02*
D03*
X-48145Y77481D02*
D03*
Y74862D02*
D03*
X-26245Y75900D02*
D03*
X-28845Y80200D02*
D03*
X-26245Y78574D02*
D03*
X1154Y75900D02*
D03*
X1200Y73800D02*
D03*
X2153Y34700D02*
D03*
X7006Y33699D02*
D03*
X2153Y52362D02*
D03*
X-7647Y47800D02*
D03*
X-6346Y45700D02*
D03*
X-48145Y69599D02*
D03*
X2153Y54885D02*
D03*
X-12047Y54400D02*
D03*
X2153Y57408D02*
D03*
Y59931D02*
D03*
Y62454D02*
D03*
Y64977D02*
D03*
X-78845Y100274D02*
D03*
X-284043Y151892D02*
D03*
X-264794Y42999D02*
D03*
X2153Y67500D02*
D03*
X-170545Y107674D02*
D03*
X-173402Y107331D02*
D03*
X-281143Y154892D02*
D03*
X-278143Y157892D02*
D03*
X-75402Y76083D02*
D03*
X-112930Y74399D02*
D03*
X-171765Y72083D02*
D03*
X-66665Y153683D02*
D03*
X-64665Y153743D02*
D03*
X-187145Y58014D02*
D03*
Y55404D02*
D03*
X-31505Y80200D02*
D03*
X-34165D02*
D03*
X-36826D02*
D03*
X4405Y33699D02*
D03*
X10806Y68899D02*
D03*
X8405D02*
D03*
X13205D02*
D03*
X1200Y71500D02*
D03*
X3700Y71400D02*
D03*
X-11300Y75900D02*
D03*
X-8810D02*
D03*
X-6319D02*
D03*
X-3828Y76000D02*
D03*
X-8394Y72199D02*
D03*
X-42147Y80200D02*
D03*
X-39486D02*
D03*
X-13747Y66300D02*
D03*
X-11347D02*
D03*
X-8946D02*
D03*
X-6547D02*
D03*
X-4146D02*
D03*
X-1746D02*
D03*
X-13747Y63900D02*
D03*
X-14946Y61700D02*
D03*
Y59300D02*
D03*
Y56800D02*
D03*
X-19247Y69700D02*
D03*
X-18447Y59700D02*
D03*
Y62200D02*
D03*
X-13791Y75900D02*
D03*
X-19247Y67200D02*
D03*
X6100Y70100D02*
D03*
X-5994Y72199D02*
D03*
X-10795Y72299D02*
D03*
X-71047Y63900D02*
D03*
X-66902Y99383D02*
D03*
X-67646Y38400D02*
D03*
X-69346Y35800D02*
D03*
X-73146Y34100D02*
D03*
X-73046Y29500D02*
D03*
X-48145Y72166D02*
D03*
X-48147Y80200D02*
D03*
X-45746D02*
D03*
X-36715Y104269D02*
D03*
X-42347Y103100D02*
D03*
X-284447Y22900D02*
D03*
X-68446Y92500D02*
D03*
X-63147Y13000D02*
D03*
X-61446Y11000D02*
D03*
X-144846Y9800D02*
D03*
X-6346Y43200D02*
D03*
Y40700D02*
D03*
Y38200D02*
D03*
Y35700D02*
D03*
Y33200D02*
D03*
Y30700D02*
D03*
Y28200D02*
D03*
Y25700D02*
D03*
Y23200D02*
D03*
X12854Y31300D02*
D03*
Y28600D02*
D03*
Y25900D02*
D03*
Y23200D02*
D03*
Y20500D02*
D03*
Y17800D02*
D03*
X12754Y14600D02*
D03*
Y11700D02*
D03*
X11354Y8700D02*
D03*
X-13847Y78400D02*
D03*
X-26247Y81000D02*
D03*
Y83600D02*
D03*
X-24047Y85100D02*
D03*
X-14995Y85699D02*
D03*
X-12447Y85699D02*
D03*
Y83150D02*
D03*
Y80600D02*
D03*
X-8919Y25695D02*
D03*
X-14146Y34600D02*
D03*
X-50795Y69599D02*
D03*
X-53194D02*
D03*
X-56647D02*
D03*
X-59095D02*
D03*
X-68195Y68699D02*
D03*
Y66399D02*
D03*
X-47194Y27999D02*
D03*
X-44794D02*
D03*
X-42395D02*
D03*
X-49694D02*
D03*
X-37146Y28000D02*
D03*
X-34747D02*
D03*
X-21130Y27899D02*
D03*
X-16094Y32899D02*
D03*
X-60000Y35300D02*
D03*
X-6346Y20800D02*
D03*
X-6346Y18262D02*
D03*
X-14547D02*
D03*
X-31747Y8900D02*
D03*
X-29346D02*
D03*
X-26946D02*
D03*
X-24546D02*
D03*
X-22147D02*
D03*
X-19647D02*
D03*
X-17246D02*
D03*
X-45546D02*
D03*
X-48323D02*
D03*
X-51100D02*
D03*
X-53877D02*
D03*
X-59430D02*
D03*
X-56653D02*
D03*
X-64846D02*
D03*
X-67447D02*
D03*
X-214295Y50132D02*
D03*
X-216745Y52991D02*
D03*
X-62207Y8900D02*
D03*
D89*
X-114839Y169751D02*
D03*
X-236194Y36199D02*
D03*
X-81930Y41699D02*
D03*
Y44499D02*
D03*
X-85130D02*
D03*
Y41599D02*
D03*
X-62747Y85800D02*
D03*
X-65730Y85699D02*
D03*
X-68730D02*
D03*
X-113430Y89599D02*
D03*
X-198846Y166200D02*
D03*
X-137646Y169300D02*
D03*
X-56850Y63427D02*
D03*
X-46547Y59600D02*
D03*
X10500Y134000D02*
D03*
X6150D02*
D03*
X1800D02*
D03*
X-226847Y7100D02*
D03*
X-298230Y142899D02*
D03*
X-93045Y88983D02*
D03*
X-57945Y112383D02*
D03*
X-302602Y26384D02*
D03*
X-309645Y136774D02*
D03*
X-316195Y135099D02*
D03*
X-330047Y185602D02*
D03*
X-312645Y147774D02*
D03*
X-306120Y152087D02*
D03*
X-306026Y154950D02*
D03*
X-321121Y185602D02*
D03*
X-324021D02*
D03*
X-326921D02*
D03*
X-114702Y21083D02*
D03*
X-249547Y7100D02*
D03*
X-330102Y68210D02*
D03*
X-333402Y89061D02*
D03*
Y78100D02*
D03*
Y81754D02*
D03*
Y74446D02*
D03*
Y70792D02*
D03*
X-312502Y135331D02*
D03*
X-140145Y149474D02*
D03*
X-291245Y162174D02*
D03*
X-319545Y154174D02*
D03*
X-213933Y7313D02*
D03*
X-299530Y140899D02*
D03*
X-29546Y27600D02*
D03*
X-318220Y185602D02*
D03*
X-330430Y157639D02*
D03*
X-333402Y85408D02*
D03*
X-31146Y179700D02*
D03*
X-282546Y35900D02*
D03*
X-288047Y33400D02*
D03*
X-286818Y35828D02*
D03*
X-264088Y4828D02*
D03*
X-315320Y185602D02*
D03*
X-121346Y94200D02*
D03*
X-35113Y179367D02*
D03*
X-6646Y173700D02*
D03*
X-29647Y163700D02*
D03*
X-330430Y160899D02*
D03*
X-327248Y49326D02*
D03*
Y46426D02*
D03*
Y37726D02*
D03*
Y40626D02*
D03*
Y43526D02*
D03*
X-327246Y34600D02*
D03*
X-263121Y185602D02*
D03*
X-266020D02*
D03*
X-274721D02*
D03*
X-271820D02*
D03*
X-268920D02*
D03*
X-277847D02*
D03*
X-43446Y185702D02*
D03*
X-34203D02*
D03*
X-37284D02*
D03*
X-40365D02*
D03*
X-31122D02*
D03*
X-28041D02*
D03*
X-15717D02*
D03*
X-6473D02*
D03*
X-9554D02*
D03*
X-12636D02*
D03*
X-3392D02*
D03*
X-311D02*
D03*
X6070Y167299D02*
D03*
X-54748Y116300D02*
D03*
X-51846D02*
D03*
X-50546Y103200D02*
D03*
X-50647Y100400D02*
D03*
X-68747Y88500D02*
D03*
X-65746D02*
D03*
X-62747Y88600D02*
D03*
X-44546Y88300D02*
D03*
X-41546D02*
D03*
X-247830Y3899D02*
D03*
X-244930D02*
D03*
X-227631Y2771D02*
D03*
X-224798D02*
D03*
X-221964D02*
D03*
X-219131D02*
D03*
X-338648Y178326D02*
D03*
Y175426D02*
D03*
Y166726D02*
D03*
Y169626D02*
D03*
Y172526D02*
D03*
Y163600D02*
D03*
X-329772Y3198D02*
D03*
X-80344Y3099D02*
D03*
X-77394D02*
D03*
X-96562Y7800D02*
D03*
X-93321D02*
D03*
X-103047D02*
D03*
X-99805D02*
D03*
X-153245Y159774D02*
D03*
X-173045Y161474D02*
D03*
X-50329Y112800D02*
D03*
X-339546Y11000D02*
D03*
X-339548Y19926D02*
D03*
Y17026D02*
D03*
Y14126D02*
D03*
Y22826D02*
D03*
Y25726D02*
D03*
X-330430Y154379D02*
D03*
Y151119D02*
D03*
Y144599D02*
D03*
Y147859D02*
D03*
X-312995Y131699D02*
D03*
X-236194Y38899D02*
D03*
X-193630Y2799D02*
D03*
X-196430D02*
D03*
X-199230D02*
D03*
X-202030D02*
D03*
X-176130Y2399D02*
D03*
X-173097D02*
D03*
X-170063D02*
D03*
X-167030D02*
D03*
X-150230Y2499D02*
D03*
X-146920D02*
D03*
X-143611D02*
D03*
X-140301D02*
D03*
X-136992D02*
D03*
X-133682D02*
D03*
X-130373D02*
D03*
X-127063D02*
D03*
X-123754D02*
D03*
X-120444D02*
D03*
X-117135D02*
D03*
X-113825D02*
D03*
X-110516D02*
D03*
X-107206D02*
D03*
X-103897D02*
D03*
X-100587D02*
D03*
X-97278D02*
D03*
X-93968D02*
D03*
X-83294Y3099D02*
D03*
X-87349Y2499D02*
D03*
X-90659D02*
D03*
X-338230Y7999D02*
D03*
X-336030Y5899D02*
D03*
X-333330Y4099D02*
D03*
X-5930Y91699D02*
D03*
Y88699D02*
D03*
Y85699D02*
D03*
Y82699D02*
D03*
X-6230Y158999D02*
D03*
X2970D02*
D03*
X6070Y164399D02*
D03*
Y161499D02*
D03*
X-24960Y185702D02*
D03*
X-21879D02*
D03*
X-18798D02*
D03*
X2770D02*
D03*
X1170Y78599D02*
D03*
X5003D02*
D03*
X8837D02*
D03*
X12670D02*
D03*
X12670Y75499D02*
D03*
Y72399D02*
D03*
X-202547Y162400D02*
D03*
X-311995Y10399D02*
D03*
X-315694D02*
D03*
X-29546Y107600D02*
D03*
X-30746Y147000D02*
D03*
X-16300Y98100D02*
D03*
X-52800Y111100D02*
D03*
X-15950Y106750D02*
D03*
X-21800Y113100D02*
D03*
X-5531Y111268D02*
D03*
D90*
X-101894Y110499D02*
D03*
X-98895Y110399D02*
D03*
X-131398Y171500D02*
D03*
X-172645Y75874D02*
D03*
X-125530Y142799D02*
D03*
X-122030D02*
D03*
X-128530Y74999D02*
D03*
X-198730Y77999D02*
D03*
X-198830Y82299D02*
D03*
X-198730Y73899D02*
D03*
X-318547Y64800D02*
D03*
X-264702Y159531D02*
D03*
X-255802Y181631D02*
D03*
X-261947Y180400D02*
D03*
X-262309Y166056D02*
D03*
X-259546Y163500D02*
D03*
X-131346Y168000D02*
D03*
X-124646Y154800D02*
D03*
X-209347Y177300D02*
D03*
X-205447Y181500D02*
D03*
X-268647Y24300D02*
D03*
X-132030Y74999D02*
D03*
X-271847Y24300D02*
D03*
X-134447Y147200D02*
D03*
X-155046Y174700D02*
D03*
X-121447Y87100D02*
D03*
X-105847Y106200D02*
D03*
X-10547Y33200D02*
D03*
X-125630Y146399D02*
D03*
X-48245Y178083D02*
D03*
X-313345Y164683D02*
D03*
X-317202Y164831D02*
D03*
X-123802Y8884D02*
D03*
X-122130Y146499D02*
D03*
X-283030Y9699D02*
D03*
X-97402Y172083D02*
D03*
X-94618Y23114D02*
D03*
X-252195Y46923D02*
D03*
X-191870Y90799D02*
D03*
X-171695Y55423D02*
D03*
X-289645Y144232D02*
D03*
X-233045Y182574D02*
D03*
X-292311Y146750D02*
D03*
X-253289Y170988D02*
D03*
X-105745Y171874D02*
D03*
X-108945D02*
D03*
X-205447Y177300D02*
D03*
X-209447Y181500D02*
D03*
X-114394Y166599D02*
D03*
X-117795Y166699D02*
D03*
X-117694Y170199D02*
D03*
X-300602Y5331D02*
D03*
X-202902Y23831D02*
D03*
X-283030Y5299D02*
D03*
X-255145Y173774D02*
D03*
X-274530Y5299D02*
D03*
X-169445Y75923D02*
D03*
X-61046Y107700D02*
D03*
X-151946Y103500D02*
D03*
X-75402Y104083D02*
D03*
X-283030Y13999D02*
D03*
X-278780Y5299D02*
D03*
Y9699D02*
D03*
X-304147Y45900D02*
D03*
X-210130Y6799D02*
D03*
X-101330Y85699D02*
D03*
X-97730D02*
D03*
X-109095Y167799D02*
D03*
X-23246Y18600D02*
D03*
D91*
X-182665Y106483D02*
D03*
X-235902Y79831D02*
D03*
X-216565Y90083D02*
D03*
X-232543Y95183D02*
D03*
X-212865D02*
D03*
X-201865D02*
D03*
X-183489Y134138D02*
D03*
X-184360Y142618D02*
D03*
X-235902Y65831D02*
D03*
X-171402Y80583D02*
D03*
X-173402Y82083D02*
D03*
D92*
X-100247Y19500D02*
D03*
D93*
X-202208Y115284D02*
D03*
D94*
X-37232Y46800D02*
D03*
X-32902D02*
D03*
X-28571D02*
D03*
X-37232Y51131D02*
D03*
X-32902D02*
D03*
X-28571D02*
D03*
X-37232Y55461D02*
D03*
X-32902D02*
D03*
X-28571D02*
D03*
D95*
X-82902Y152831D02*
D03*
M02*
