M48
;Layer_Color=9474304
;FILE_FORMAT=2:5
INCH,LZ
;TYPE=PLATED
T1F00S00C0.00200
T2F00S00C0.00787
T3F00S00C0.00800
T4F00S00C0.01000
T5F00S00C0.01200
T6F00S00C0.01300
T7F00S00C0.01800
T8F00S00C0.03543
T9F00S00C0.07087
T10F00S00C0.07874
T11F00S00C0.09000
%
T01
X-029953Y0140899
X-029823Y0142899
T02
X-0037232Y00468
X-0032902
X-0028571
Y0051131
X-0032902
Y0055461
X-0028571
X-0037232
Y0051131
T03
X-0060546Y00221
X-0059346Y00286
X-004253Y0035599
X-004263Y0037399
X-003723Y0037299
X-0036546Y00337
X-0034446
X-0045546Y00521
X-002003Y0051849
Y0053699
Y0049999
X-002183Y0059999
Y0062199
X-0030002Y0064083
X-0031702Y0065083
X-0082807Y0027878
X-0081049Y002603
X-0084776Y0029557
X-0099802Y0028883
Y0026484
X-0099902Y0024331
Y0031284
X-009713Y0036599
X-0111902Y0036983
X-0113602Y0039083
X-0115302Y0040584
X-0110402Y0034683
X-0110346Y00228
X-0108402Y0021584
X-0106429Y0020211
X-0104461Y0019142
X-0092402Y0019831
X-0113883Y0024363
X-0122202Y0024284
X-012033Y0021799
Y0019599
X-012573Y0022699
X-012793
X-0131746Y00223
X-0135665Y0028483
X-0135965Y0031183
X-0137565Y0032683
X-0138865Y0034283
X-0140765Y0035883
X-0142565Y0037383
X-014415Y0040582
X-0145545Y0042174
X-0146902Y0043831
X-0148902Y0045331
X-0150402Y0046831
X-0151902Y0048331
X-0152902Y0050331
X-0152402Y0060831
X-017003Y0059699
X-0170902Y0061583
X-0173402Y0063331
X-0173465Y0025031
X-0170365
X-0171865Y0022831
X-0168765
X-0166402
X-016423Y0025199
Y0027399
X-0152402Y0025957
Y0023831
X-014993Y0025099
X-0151502Y0028046
X-0152365Y0038983
X-0148365
X-013893Y0026599
X-013883Y0007899
X-0136597
X-0134363
X-013213
X-0126802Y0040883
X-0125102Y0042184
X-0130402Y0045331
X-0132346Y00473
X-0132945Y0049669
X-0114002Y005221
X-0125902Y007211
X-0176665Y0025031
X-017953Y0024299
X-0175065Y0022831
X-018653Y0024299
X-0190765Y0022831
X-0193965
X-0195402Y0025031
X-0197402
X-0199402
X-0192365
X-0206245Y0022831
X-0208545
X-0211265
X-0212902Y0024331
X-0214402Y0022831
X-0216445Y0023883
X-0204995Y0009199
X-0207002Y0005384
X-0200294Y0011499
X-0197195
X-0189232Y0008373
X-0187657Y0009773
X-0186082Y0011173
X-0185102Y0005984
X-0182933Y00061
X-0179783Y0011173
X-0227465Y0022583
X-0229965
X-0231745Y0044383
X-0233902Y0048331
X-0248202Y0040963
X-0251946Y00375
X-0251902Y0031045
X-0259902Y0062831
X-030103Y0056699
X-0303705
X-030638
X-0306494Y0054399
X-0309055Y0056699
X-0315443Y0102892
X-0314843Y0105792
X-0312043Y0109092
X-0309143Y0112092
X-0306043Y0115092
X-0301577Y0110918
X-0299165Y0112983
X-0297084Y0115334
X-0294859Y0117564
X-0292738Y0119896
X-0286955Y0116804
X-028269Y0120796
X-0282485Y0125233
X-0280363Y0123112
X-0281461Y013089
X-0279303Y0133187
X-0277147Y0135486
X-0274815Y0137607
X-0273192Y0139515
X-026917Y0142759
X-0266043Y0145292
X-0264992Y013863
X-0262665Y0136414
X-0268939Y0134358
X-0271565Y0131783
X-0284943Y0128892
X-0283543Y0142392
X-0283743Y0146092
X-0280743Y0148992
X-0277843Y0151992
X-0274743Y0154992
X-0274843Y0161092
X-028143Y0162599
X-0283697
Y0160399
X-0285963
Y0162599
X-0287494Y0175099
Y0179599
X-0271845Y0178074
Y0174574
X-0267023Y0156748
X-0264657Y0156296
X-0262439Y0156286
X-025013Y0157199
X-024708
X-024403
X-022503
X-022283
X-022063
X-0219402Y0117831
X-0224765Y0114083
X-0236243Y0105792
X-0221745Y0092774
X-0259865Y0079783
X-0260943Y0110392
X-0258886Y011277
X-0256675Y0115014
X-0254432Y0117224
X-0252204Y0119451
X-0249978Y0121678
X-0247836Y0123991
X-0249401Y0127477
X-0262643Y0123192
X-0260211Y0120637
X-0264807Y0116292
X-0268443Y0117792
X-0275384Y0113092
X-0280105Y011333
X-0279701Y0111167
X-0271365Y0105314
X-0272249Y0099407
X-0274475Y009718
X-0276703Y0094953
X-0278949Y0092746
X-0281157Y0090499
X-026334Y0108316
X-0301943Y0122392
X-0305043Y0126092
X-0301643Y0129292
X-0298643Y0132292
X-0296945Y0136674
X-0292755Y0141604
X-0287143Y0148892
X-032703Y0140999
Y0138545
Y0136091
Y0133638
Y0131184
Y012873
Y0126276
Y0123822
Y0121368
X-032483Y0121399
X-032263
X-032703Y0118915
Y0116461
Y0114007
Y0111553
Y0109099
Y0106699
X-0322943Y0107892
X-0320402Y0114083
X-0319443Y0116392
X-0316443Y0119392
X-0313443Y0122392
X-019073Y0117799
X-0188247Y01174
X-0189047Y01128
X-0190746Y01113
X-0190902Y0106331
X-0188945Y0106983
X-0174245Y0112574
X-0173545Y0122074
X-0175747Y01221
X-0171245Y0122083
X-0166445Y0122074
X-0164145
X-0161945
X-0157145Y0122083
X-0153945Y0121583
Y0123783
X-0154045Y0125883
X-0151094Y0126599
Y0128819
Y0131039
Y0133259
Y0135479
Y0137699
X-0142494Y0137974
X-0142445Y0139974
Y0142274
Y0135974
Y0133974
Y0131974
X-0129446Y01289
X-0110346Y01254
Y01352
X-010843Y0140199
X-0100902Y0137774
X-0100945Y0135974
X-0096902Y0136199
X-0095402
X-0093894
X-0092295
X-0095402Y0139331
X-0098805Y0147599
X-0098694Y0149299
X-0097194Y0149999
X-0097694Y0152499
X-0099295
X-0098395Y0154099
X-0098594Y0156768
X-0098402Y0161831
X-0108846Y0163731
X-0109189Y0155331
X-010533Y0131799
X-010328
X-010333Y0129899
X-010123
Y0131799
X-0092194Y0122499
X-0090495
X-0088695
X-0089195Y0115299
X-0087295
X-0086494Y0113499
X-0088195
X-0089894
X-0076647Y01242
X-0080484Y0135528
X-0080539Y0137131
X-0085395Y0137399
X-0086094Y0135799
X-0069247Y01391
X-0066445Y0147183
X-0064316Y0146916
X-0064846Y01489
X-0067494Y0170499
X-0066395Y0171799
X-0070294Y0170699
X-0070394Y0168899
X-0073902Y0169169
Y0171331
Y0173831
X-0081902Y0168331
X-0084095Y0168799
X-0087402Y0168331
X-0088902
X-0095645Y0176174
Y0177974
X-0111845Y0186174
X-0068917Y0186315
X-0141095Y0169649
Y0167499
Y0165349
X-0143994Y0168299
X-0142545Y0160774
Y0158474
Y0156274
Y0154174
Y0149274
X-0152295Y0147999
X-0153645Y0146374
X-0155035Y0144764
X-0155245Y0150874
X-0153245Y0151374
Y0153374
Y0155374
Y0157474
X-0155245Y0158174
X-0156795Y0156099
X-0155245Y0154524
X-0156795Y0152699
Y0149474
X-0156746Y01637
X-0153245Y0163074
Y0166274
Y0169474
X-016553Y0175399
X-0172447Y01753
X-0174747
X-017883Y0172084
Y01682
Y016615
Y0164099
Y01596
Y0155647
X-017383Y0158899
Y0165599
Y0168374
X-0172146Y01668
Y0169961
X-0189246Y017035
Y01727
X-019163Y01716
Y01691
Y0166599
X-0189347Y0168
Y01629
Y01598
Y0157723
Y0155647
X-0201395Y0157199
Y0159399
X-0199946Y01623
X-0197447
X-0204047Y01576
X-021623Y0157199
X-021843
X-0208546Y01704
X-0205546Y01727
X-0175195Y0149099
X-0173195Y0148199
X-0171895Y0146499
X-0173195Y0144899
X-0171895Y0149974
X-0170947Y01402
X-0173146Y01368
X-0169947Y0135321
X-0166392
X-0164845Y0136874
X-0165194Y0139499
X-0160945Y0135374
X-0183756Y0138505
X-0183747Y0130088
X-0183743Y0125892
X-0182947Y0122
X-0179402Y0095331
X-017783Y0096699
X-0170945Y0093783
X-0169219Y00951
X-015733Y0102899
X-015693Y0106299
X-015493Y0106899
X-0153745Y0108583
X-0151645Y0109283
X-0152402Y0087831
X-0153705Y0081527
X-0131046Y00791
X-0079302Y0079984
X-0197902Y0089331
X-004293Y0117899
X-004283Y0120599
X-0044646Y0122
X-0039302Y0119644
X-0034446Y01221
X-00343Y01277
X-0036647Y01328
X-0040846Y01321
X-0040946Y01296
X-00344Y01375
X-0046946Y01407
X-00472Y01478
X-0047247Y01511
X-00503Y01472
X-0053246Y01486
X-0053746Y01378
X-0051947Y01359
X-0055546Y0135
X-00195Y01357
X-0024984Y01216
X-0028Y0121
X-00265Y01195
X-00227Y01157
X-00212Y01171
X0Y01262
X-0018347Y01805
X-0024898Y0181249
T04
X-0062207Y00089
X-005943
X-0056653
X-0053877
X-00511
X-0048323
X-0045546
X-0036647
X-0034247
X-0031747
X-0029346
X-0026946
X-0024546
X-0022147
X-0019647
X-0017246
X-0014547Y00076
Y00049
Y00025
X-001193
X-0009313
X-0006696
X-000408
X-0001463
X0001154
X0004354Y00037
X0006954Y00051
X0009353Y00068
X0011354Y00087
X0012754Y00117
Y00146
X0012854Y00178
Y00205
Y00232
Y00259
Y00286
Y00313
Y00337
X0009854
X0007006Y0033699
X0004405
X0002153Y00347
Y0037223
Y0039746
Y0042269
Y0044792
Y0047315
Y0049838
Y0052362
Y0054885
Y0057408
Y0059931
Y0062454
Y0064977
Y00675
X00012Y00715
Y00738
X00037Y00714
X00061Y00701
X0008405Y0068899
X0010806
X0013205
X-0001746Y00663
X-0004146
X-0006547
X-0008946
X-0011347
X-0013747
Y00639
X-0014946Y00617
Y00593
Y00568
X-0014547Y00544
X-0012047
X-0010147Y00527
Y005025
Y00478
X-0007647
X-0006346Y00457
Y00432
Y00407
Y00382
Y00357
Y00332
Y00307
Y00282
Y00257
Y00232
Y00208
X-0006346Y0018262
X-000908
X-0011813
X-0011766Y0015697
X-0014547Y00157
Y0018262
Y0013
Y00103
X-0008919Y0025695
X-0014146Y00346
X-0016094Y0032899
X-001863Y0030599
X-002113
Y0027899
X-0034747Y0028
X-0037146
X-0042395Y0027999
X-0044794
X-0047194
X-004723Y0030399
X-004483
X-004243
X-0049694Y0027999
X-005283Y0034799
X-0055302
X-005533Y0037199
X-005293
X-00578Y00353
X-006
X-0059447Y00388
X-0057394Y0040999
X-0057446Y00461
Y00496
X-005963Y0053999
X-0057446Y00566
Y00601
X-0056647Y0069599
X-0059095
Y0072166
X-005663
X-0059095Y0074633
X-0053194Y0069599
X-0050795
X-0048145
Y0072166
Y0074862
Y0067
X-0045794Y0065599
X-0043494
X-0024446Y00636
X-0019247Y00648
Y00672
Y00697
X-0020795Y0072199
X-0016894Y0072099
X-0010795Y0072299
X-0008394Y0072199
X-0005994
X-0018447Y00622
Y00597
X-0019847Y00577
X-0061446Y0011
X-0063147Y0013
X-0064846Y00089
X-0067447
X-0069494Y0022299
X-0073046Y00295
X-0073146Y00341
X-0069346Y00358
X-0067646Y00384
X-0068195Y0066399
Y0068699
X-0071047Y00639
X-011293Y0074399
X-0171765Y0072083
X-0187145Y0068454
Y0065844
Y0063234
Y0060624
Y0058014
Y0055404
Y0052794
X-0192155Y0045099
X-0194765
X-0197375
X-0199985
X-0202595
X-0205205
X-0207815
X-0210425
X-0212995
X-0214295Y0047274
X-0216745
Y0050132
X-0214295
Y0052991
X-0216745
Y0055849
X-0214295
Y0058707
X-0216745
Y0061566
X-0214295
Y0064424
X-0216745
Y0067282
X-0214295
Y0070141
X-0216745
Y0072999
X-0214295
X-0211305Y0072999
X-0208385
X-0205465
X-0202795
X-0144846Y00098
X-0100247Y00195
X-0284447Y00229
X-0264794Y0042999
X-0284043Y0151892
X-0281143Y0154892
X-0278143Y0157892
X-0202208Y0115284
X-0173402Y0107331
X-0170545Y0107674
X-0141894Y0087399
X-0078845Y0100274
X-0071102Y0102483
X-0067702Y0102884
X-0066902Y0099383
X-0062845Y0100983
X-0068446Y00925
X-0075402Y0076083
X-0066665Y0153683
X-0064665Y0153743
X-0042347Y01031
X-0036715Y0104269
X-0036826Y00802
X-0034165
X-0031505
X-0028845
X-0026247Y0081
X-0026245Y0078574
Y00759
X-0026247Y00836
X-0024047Y00851
X-0014995Y0085699
X-0012447Y0085699
Y008315
Y00806
X-0013847Y00784
X-0013791Y00759
X-00113
X-000881
X-0006319
X-0003828Y0076
X-0001337Y00759
X0001154
X-0039486Y00802
X-0042147
X-0045746
X-0048147
X-0048145Y0077481
X-0049194Y0082599
X-0051794
X-0054295
X-0057494Y0078999
X-0059095Y0077099
T05
X-0029546Y00276
X-0046547Y00596
X-005685Y0063427
X001267Y0072399
Y0075499
X-008193Y0044499
Y0041699
X-008513Y0041599
Y0044499
X-0083294Y0003099
X-0080344
X-0077394
X-0087349Y0002499
X-0090659
X-0093968
X-0097278
X-0100587
X-0103897
X-0107206
X-0110516
X-0113825
X-0117135
X-0120444
X-0123754
X-0127063
X-0130373
X-0133682
X-0136992
X-0140301
X-0143611
X-014692
X-015023
X-016703Y0002399
X-0170063
X-0173097
X-017613
X-019363Y0002799
X-019643
X-019923
X-020203
X-0213933Y0007313
X-0103047Y00078
X-0099805
X-0096562
X-0093321
X-0114702Y0021083
X-0219131Y0002771
X-0221964
X-0224798
X-0227631
X-0226847Y00071
X-024493Y0003899
X-024783
X-0249547Y00071
X-0264088Y0004828
X-0282546Y00359
X-0286818Y0035828
X-0288047Y00334
X-0302602Y0026384
X-0311995Y0010399
X-0315694
X-0329772Y0003198
X-033333Y0004099
X-033603Y0005899
X-033823Y0007999
X-0339546Y0011
X-0339548Y0014126
Y0017026
Y0019926
Y0022826
Y0025726
X-0327246Y00346
X-0327248Y0037726
Y0040626
Y0043526
Y0046426
Y0049326
X-0330102Y006821
X-0333402Y0070792
Y0074446
X-0236194Y0038899
Y0036199
X-0333402Y00781
Y0081754
Y0085408
Y0089061
X-033043Y0144599
Y0147859
Y0151119
Y0154379
Y0157639
Y0160899
X-0338648Y01636
Y0166726
Y0169626
Y0172526
Y0175426
Y0178326
X-0330047Y0185602
X-0326921
X-0324021
X-0321121
X-031822
X-031532
X-0319545Y0154174
X-0312645Y0147774
X-030612Y0152087
X-0306026Y015495
X-0309645Y0136774
X-0312502Y0135331
X-0316195Y0135099
X-0312995Y0131699
X-0291245Y0162174
X-0277847Y0185602
X-0274721
X-027182
X-026892
X-026602
X-0263121
X-0198846Y01662
X-0202547Y01624
X-0173045Y0161474
X-0153245Y0159774
X-0140145Y0149474
X-0137646Y01693
X-0114839Y0169751
X-011343Y0089599
X-0121346Y00942
X-0093045Y0088983
X-0068747Y00885
X-006873Y0085699
X-006573
X-0065746Y00885
X-0062747Y00886
Y00858
X-0044546Y00883
X-0041546
X-0050647Y01004
X-0050546Y01032
X-0050329Y01128
X-00528Y01111
X-0051846Y01163
X-0054748
X-0057945Y0112383
X-0029546Y01076
X-00218Y01131
X-001595Y010675
X-00163Y00981
X-000593Y0091699
Y0088699
Y0085699
Y0082699
X000117Y0078599
X0005003
X0008837
X001267
X-0005531Y0111268
X00018Y0134
X000615
X00105
X000607Y0161499
Y0164399
Y0167299
X000297Y0158999
X-000623
X-0006646Y01737
X-0006473Y0185702
X-0009554
X-0012636
X-0015717
X-0018798
X-0021879
X-002496
X-0028041
X-0031122
X-0034203
X-0037284
X-0040365
X-0043446
X-0035113Y0179367
X-0031146Y01797
X-0029647Y01637
X-0030746Y0147
X-0003392Y0185702
X-0000311
X000277
T06
X-0235902Y0065831
Y0079831
X-0232543Y0095183
X-0212865
X-0216565Y0090083
X-0201865Y0095183
X-0182665Y0106483
X-0183489Y0134138
X-018436Y0142618
X-0173402Y0082083
X-0171402Y0080583
T07
X-0023246Y00186
X-0010547Y00332
X-0094618Y0023114
X-0123802Y0008884
X-012853Y0074999
X-013203
X-0171695Y0055423
X-019873Y0073899
X-0202902Y0023831
X-021013Y0006799
X-027453Y0005299
X-027878
X-028303
Y0009699
X-027878
X-028303Y0013999
X-0271847Y00243
X-0268647
X-0252195Y0046923
X-0304147Y00459
X-0318547Y00648
X-0300602Y0005331
X-0292311Y014675
X-0289645Y0144232
X-0264702Y0159531
X-0262309Y0166056
X-0259546Y01635
X-0253289Y0170988
X-0255145Y0173774
X-0255802Y0181631
X-0261947Y01804
X-0233045Y0182574
X-0313345Y0164683
X-0317202Y0164831
X-0209347Y01773
X-0205447
Y01815
X-0209447
X-0155046Y01747
X-0131398Y01715
X-0131346Y0168
X-0117795Y0166699
X-0114394Y0166599
X-0109095Y0167799
X-0108945Y0171874
X-0105745
X-0097402Y0172083
X-0117694Y0170199
X-0124646Y01548
X-012563Y0146399
X-012213Y0146499
X-012203Y0142799
X-012553
X-0134447Y01472
X-0151946Y01035
X-0169445Y0075923
X-0172645Y0075874
X-019873Y0077999
X-019883Y0082299
X-019187Y0090799
X-0121447Y00871
X-010133Y0085699
X-009773
X-0098895Y0110399
X-0101894Y0110499
X-0105847Y01062
X-0075402Y0104083
X-0061046Y01077
X-0048245Y0178083
T08
X-0308265Y0022748
X-0299016Y0019382
X-0289767Y0016015
T09
X-0338189Y0033858
Y0155118
X-0112992Y0117717
X0009843Y0155118
T10
X-0201043Y0058692
T11
X-0082902Y0152831
M30
