G04 Layer_Color=2752767*
%FSLAX25Y25*%
%MOIN*%
G70*
G01*
G75*
%ADD239C,0.00200*%
%ADD240C,0.00267*%
%ADD241C,0.00133*%
D239*
X-113792Y116917D02*
Y118517D01*
X-112192D01*
Y116917D01*
X-113792D01*
X9042Y154318D02*
Y155918D01*
X10643D01*
Y154318D01*
X9042D01*
X-338989D02*
Y155918D01*
X-337389D01*
Y154318D01*
X-338989D01*
Y33058D02*
Y34658D01*
X-337389D01*
Y33058D01*
X-338989D01*
X-82902Y152031D02*
X-83702Y153631D01*
X-82102D01*
X-82902Y152031D01*
X-201043Y57892D02*
X-200643Y58292D01*
X-200243D01*
X-200643Y58692D01*
X-200243Y59092D01*
X-200643D01*
X-201043Y59492D01*
X-201443Y59092D01*
X-201843D01*
X-201443Y58692D01*
X-201843Y58292D01*
X-201443D01*
X-201043Y57892D01*
X-51100Y146400D02*
X-50700Y147200D01*
X-51100Y148000D01*
X-50300Y147600D01*
X-49500Y148000D01*
X-49900Y147200D01*
X-49500Y146400D01*
X-50300Y146800D01*
X-51100Y146400D01*
X-142295Y86999D02*
Y86599D01*
X-141495D01*
Y86999D01*
X-141095D01*
Y87799D01*
X-141495D01*
Y88199D01*
X-142295D01*
Y87799D01*
X-142694D01*
Y86999D01*
X-142295D01*
X-69894Y21899D02*
Y21499D01*
X-69095D01*
Y21899D01*
X-68695D01*
Y22699D01*
X-69095D01*
Y23099D01*
X-69894D01*
Y22699D01*
X-70294D01*
Y21899D01*
X-69894D01*
X-115638Y168951D02*
X-115238D01*
X-114839Y169351D01*
X-114438Y168951D01*
X-114039D01*
Y169351D01*
X-114438Y169751D01*
X-114039Y170151D01*
Y170551D01*
X-114438D01*
X-114839Y170151D01*
X-115238Y170551D01*
X-115638D01*
Y170151D01*
X-115238Y169751D01*
X-115638Y169351D01*
Y168951D01*
X-100094Y151699D02*
X-99695Y152499D01*
X-100094Y153299D01*
X-99295Y152899D01*
X-98494Y153299D01*
X-98895Y152499D01*
X-98494Y151699D01*
X-99295Y152099D01*
X-100094Y151699D01*
X-99605Y146799D02*
X-99205Y147599D01*
X-99605Y148399D01*
X-98805Y147999D01*
X-98005Y148399D01*
X-98405Y147599D01*
X-98005Y146799D01*
X-98805Y147199D01*
X-99605Y146799D01*
X-98494Y151699D02*
X-98094Y152499D01*
X-98494Y153299D01*
X-97694Y152899D01*
X-96895Y153299D01*
X-97294Y152499D01*
X-96895Y151699D01*
X-97694Y152099D01*
X-98494Y151699D01*
X-102694Y110499D02*
X-101894Y111299D01*
X-101094Y110499D01*
X-101894Y109699D01*
X-102694Y110499D01*
X-99695Y110399D02*
X-98895Y111199D01*
X-98094Y110399D01*
X-98895Y109599D01*
X-99695Y110399D01*
X-68295Y169699D02*
X-67895Y170499D01*
X-68295Y171299D01*
X-67494Y170899D01*
X-66694Y171299D01*
X-67094Y170499D01*
X-66694Y169699D01*
X-67494Y170099D01*
X-68295Y169699D01*
X-71095Y169899D02*
X-70695Y170699D01*
X-71095Y171499D01*
X-70294Y171099D01*
X-69494Y171499D01*
X-69894Y170699D01*
X-69494Y169899D01*
X-70294Y170299D01*
X-71095Y169899D01*
X-71194Y168099D02*
X-70794Y168899D01*
X-71194Y169699D01*
X-70394Y169299D01*
X-69595Y169699D01*
X-69994Y168899D01*
X-69595Y168099D01*
X-70394Y168499D01*
X-71194Y168099D01*
X-99494Y148499D02*
X-99094Y149299D01*
X-99494Y150099D01*
X-98694Y149699D01*
X-97895Y150099D01*
X-98295Y149299D01*
X-97895Y148499D01*
X-98694Y148899D01*
X-99494Y148499D01*
X-97995Y149199D02*
X-97594Y149999D01*
X-97995Y150799D01*
X-97194Y150399D01*
X-96394Y150799D01*
X-96794Y149999D01*
X-96394Y149199D01*
X-97194Y149599D01*
X-97995Y149199D01*
X-86895Y134999D02*
X-86494Y135799D01*
X-86895Y136599D01*
X-86094Y136199D01*
X-85295Y136599D01*
X-85694Y135799D01*
X-85295Y134999D01*
X-86094Y135399D01*
X-86895Y134999D01*
X-132198Y171500D02*
X-131398Y172300D01*
X-130598Y171500D01*
X-131398Y170700D01*
X-132198Y171500D01*
X-209345Y22031D02*
X-208945Y22831D01*
X-209345Y23631D01*
X-208545Y23231D01*
X-207745Y23631D01*
X-208145Y22831D01*
X-207745Y22031D01*
X-208545Y22431D01*
X-209345Y22031D01*
X-212065D02*
X-211665Y22831D01*
X-212065Y23631D01*
X-211265Y23231D01*
X-210465Y23631D01*
X-210865Y22831D01*
X-210465Y22031D01*
X-211265Y22431D01*
X-212065Y22031D01*
X-236995Y35399D02*
X-236595D01*
X-236194Y35799D01*
X-235794Y35399D01*
X-235395D01*
Y35799D01*
X-235794Y36199D01*
X-235395Y36599D01*
Y36999D01*
X-235794D01*
X-236194Y36599D01*
X-236595Y36999D01*
X-236995D01*
Y36599D01*
X-236595Y36199D01*
X-236995Y35799D01*
Y35399D01*
X-81339Y136331D02*
X-80939Y137131D01*
X-81339Y137931D01*
X-80539Y137531D01*
X-79739Y137931D01*
X-80139Y137131D01*
X-79739Y136331D01*
X-80539Y136731D01*
X-81339Y136331D01*
X-81284Y134728D02*
X-80884Y135528D01*
X-81284Y136328D01*
X-80484Y135928D01*
X-79684Y136328D01*
X-80084Y135528D01*
X-79684Y134728D01*
X-80484Y135128D01*
X-81284Y134728D01*
X-86194Y136599D02*
X-85795Y137399D01*
X-86194Y138199D01*
X-85395Y137799D01*
X-84595Y138199D01*
X-84995Y137399D01*
X-84595Y136599D01*
X-85395Y136999D01*
X-86194Y136599D01*
X-197994Y10699D02*
X-197594Y11499D01*
X-197994Y12299D01*
X-197195Y11899D01*
X-196395Y12299D01*
X-196794Y11499D01*
X-196395Y10699D01*
X-197195Y11099D01*
X-197994Y10699D01*
X-201095D02*
X-200694Y11499D01*
X-201095Y12299D01*
X-200294Y11899D01*
X-199495Y12299D01*
X-199894Y11499D01*
X-199495Y10699D01*
X-200294Y11099D01*
X-201095Y10699D01*
X-82730Y40899D02*
X-82330D01*
X-81930Y41299D01*
X-81530Y40899D01*
X-81130D01*
Y41299D01*
X-81530Y41699D01*
X-81130Y42099D01*
Y42499D01*
X-81530D01*
X-81930Y42099D01*
X-82330Y42499D01*
X-82730D01*
Y42099D01*
X-82330Y41699D01*
X-82730Y41299D01*
Y40899D01*
Y43699D02*
X-82330D01*
X-81930Y44099D01*
X-81530Y43699D01*
X-81130D01*
Y44099D01*
X-81530Y44499D01*
X-81130Y44899D01*
Y45299D01*
X-81530D01*
X-81930Y44899D01*
X-82330Y45299D01*
X-82730D01*
Y44899D01*
X-82330Y44499D01*
X-82730Y44099D01*
Y43699D01*
X-85930D02*
X-85530D01*
X-85130Y44099D01*
X-84730Y43699D01*
X-84330D01*
Y44099D01*
X-84730Y44499D01*
X-84330Y44899D01*
Y45299D01*
X-84730D01*
X-85130Y44899D01*
X-85530Y45299D01*
X-85930D01*
Y44899D01*
X-85530Y44499D01*
X-85930Y44099D01*
Y43699D01*
Y40799D02*
X-85530D01*
X-85130Y41199D01*
X-84730Y40799D01*
X-84330D01*
Y41199D01*
X-84730Y41599D01*
X-84330Y41999D01*
Y42399D01*
X-84730D01*
X-85130Y41999D01*
X-85530Y42399D01*
X-85930D01*
Y41999D01*
X-85530Y41599D01*
X-85930Y41199D01*
Y40799D01*
X-63547Y85000D02*
X-63147D01*
X-62747Y85400D01*
X-62347Y85000D01*
X-61946D01*
Y85400D01*
X-62347Y85800D01*
X-61946Y86200D01*
Y86600D01*
X-62347D01*
X-62747Y86200D01*
X-63147Y86600D01*
X-63547D01*
Y86200D01*
X-63147Y85800D01*
X-63547Y85400D01*
Y85000D01*
X-66530Y84899D02*
X-66130D01*
X-65730Y85299D01*
X-65330Y84899D01*
X-64930D01*
Y85299D01*
X-65330Y85699D01*
X-64930Y86099D01*
Y86499D01*
X-65330D01*
X-65730Y86099D01*
X-66130Y86499D01*
X-66530D01*
Y86099D01*
X-66130Y85699D01*
X-66530Y85299D01*
Y84899D01*
X-69530D02*
X-69130D01*
X-68730Y85299D01*
X-68330Y84899D01*
X-67930D01*
Y85299D01*
X-68330Y85699D01*
X-67930Y86099D01*
Y86499D01*
X-68330D01*
X-68730Y86099D01*
X-69130Y86499D01*
X-69530D01*
Y86099D01*
X-69130Y85699D01*
X-69530Y85299D01*
Y84899D01*
X-49595Y82199D02*
Y81799D01*
X-48794D01*
Y82199D01*
X-48395D01*
Y82999D01*
X-48794D01*
Y83399D01*
X-49595D01*
Y82999D01*
X-49995D01*
Y82199D01*
X-49595D01*
X-52194D02*
Y81799D01*
X-51394D01*
Y82199D01*
X-50994D01*
Y82999D01*
X-51394D01*
Y83399D01*
X-52194D01*
Y82999D01*
X-52595D01*
Y82199D01*
X-52194D01*
X-54694D02*
Y81799D01*
X-53895D01*
Y82199D01*
X-53495D01*
Y82999D01*
X-53895D01*
Y83399D01*
X-54694D01*
Y82999D01*
X-55094D01*
Y82199D01*
X-54694D01*
X-57894Y78599D02*
Y78199D01*
X-57095D01*
Y78599D01*
X-56695D01*
Y79399D01*
X-57095D01*
Y79799D01*
X-57894D01*
Y79399D01*
X-58294D01*
Y78599D01*
X-57894D01*
X-59495Y76699D02*
Y76299D01*
X-58694D01*
Y76699D01*
X-58294D01*
Y77499D01*
X-58694D01*
Y77899D01*
X-59495D01*
Y77499D01*
X-59895D01*
Y76699D01*
X-59495D01*
Y74233D02*
Y73833D01*
X-58694D01*
Y74233D01*
X-58294D01*
Y75033D01*
X-58694D01*
Y75433D01*
X-59495D01*
Y75033D01*
X-59895D01*
Y74233D01*
X-59495D01*
Y71766D02*
Y71366D01*
X-58694D01*
Y71766D01*
X-58294D01*
Y72566D01*
X-58694D01*
Y72966D01*
X-59495D01*
Y72566D01*
X-59895D01*
Y71766D01*
X-59495D01*
X-57030D02*
Y71366D01*
X-56230D01*
Y71766D01*
X-55830D01*
Y72566D01*
X-56230D01*
Y72966D01*
X-57030D01*
Y72566D01*
X-57430D01*
Y71766D01*
X-57030D01*
X-21530Y30199D02*
Y29799D01*
X-20730D01*
Y30199D01*
X-20330D01*
Y30999D01*
X-20730D01*
Y31399D01*
X-21530D01*
Y30999D01*
X-21930D01*
Y30199D01*
X-21530D01*
X-19030D02*
Y29799D01*
X-18230D01*
Y30199D01*
X-17830D01*
Y30999D01*
X-18230D01*
Y31399D01*
X-19030D01*
Y30999D01*
X-19430D01*
Y30199D01*
X-19030D01*
X-45230Y29999D02*
Y29599D01*
X-44430D01*
Y29999D01*
X-44030D01*
Y30799D01*
X-44430D01*
Y31199D01*
X-45230D01*
Y30799D01*
X-45630D01*
Y29999D01*
X-45230D01*
X-42830D02*
Y29599D01*
X-42030D01*
Y29999D01*
X-41630D01*
Y30799D01*
X-42030D01*
Y31199D01*
X-42830D01*
Y30799D01*
X-43230D01*
Y29999D01*
X-42830D01*
X-47630D02*
Y29599D01*
X-46830D01*
Y29999D01*
X-46430D01*
Y30799D01*
X-46830D01*
Y31199D01*
X-47630D01*
Y30799D01*
X-48030D01*
Y29999D01*
X-47630D01*
X-57794Y40599D02*
Y40199D01*
X-56994D01*
Y40599D01*
X-56595D01*
Y41399D01*
X-56994D01*
Y41799D01*
X-57794D01*
Y41399D01*
X-58195D01*
Y40599D01*
X-57794D01*
X-53330Y36799D02*
Y36399D01*
X-52530D01*
Y36799D01*
X-52130D01*
Y37599D01*
X-52530D01*
Y37999D01*
X-53330D01*
Y37599D01*
X-53730D01*
Y36799D01*
X-53330D01*
X-55730D02*
Y36399D01*
X-54930D01*
Y36799D01*
X-54530D01*
Y37599D01*
X-54930D01*
Y37999D01*
X-55730D01*
Y37599D01*
X-56130D01*
Y36799D01*
X-55730D01*
X-53230Y34399D02*
Y33999D01*
X-52430D01*
Y34399D01*
X-52030D01*
Y35199D01*
X-52430D01*
Y35599D01*
X-53230D01*
Y35199D01*
X-53630D01*
Y34399D01*
X-53230D01*
X-55702D02*
Y33999D01*
X-54902D01*
Y34399D01*
X-54502D01*
Y35199D01*
X-54902D01*
Y35599D01*
X-55702D01*
Y35199D01*
X-56102D01*
Y34399D01*
X-55702D01*
X-58200Y34900D02*
Y34500D01*
X-57400D01*
Y34900D01*
X-57000D01*
Y35700D01*
X-57400D01*
Y36100D01*
X-58200D01*
Y35700D01*
X-58600D01*
Y34900D01*
X-58200D01*
X-60030Y53599D02*
Y53199D01*
X-59230D01*
Y53599D01*
X-58830D01*
Y54399D01*
X-59230D01*
Y54799D01*
X-60030D01*
Y54399D01*
X-60430D01*
Y53599D01*
X-60030D01*
X-187330Y23499D02*
X-186930Y24299D01*
X-187330Y25099D01*
X-186530Y24699D01*
X-185730Y25099D01*
X-186130Y24299D01*
X-185730Y23499D01*
X-186530Y23899D01*
X-187330Y23499D01*
X-191530Y116999D02*
X-191130Y117799D01*
X-191530Y118599D01*
X-190730Y118199D01*
X-189930Y118599D01*
X-190330Y117799D01*
X-189930Y116999D01*
X-190730Y117399D01*
X-191530Y116999D01*
X-38030Y36499D02*
X-37630Y37299D01*
X-38030Y38099D01*
X-37230Y37699D01*
X-36430Y38099D01*
X-36830Y37299D01*
X-36430Y36499D01*
X-37230Y36899D01*
X-38030Y36499D01*
X-178630Y95899D02*
X-178230Y96699D01*
X-178630Y97499D01*
X-177830Y97099D01*
X-177030Y97499D01*
X-177430Y96699D01*
X-177030Y95899D01*
X-177830Y96299D01*
X-178630Y95899D01*
X-173445Y75874D02*
X-172645Y76674D01*
X-171845Y75874D01*
X-172645Y75074D01*
X-173445Y75874D01*
X-157730Y105499D02*
X-157330Y106299D01*
X-157730Y107099D01*
X-156930Y106699D01*
X-156130Y107099D01*
X-156530Y106299D01*
X-156130Y105499D01*
X-156930Y105899D01*
X-157730Y105499D01*
X-114230Y88799D02*
X-113830D01*
X-113430Y89199D01*
X-113030Y88799D01*
X-112630D01*
Y89199D01*
X-113030Y89599D01*
X-112630Y89999D01*
Y90399D01*
X-113030D01*
X-113430Y89999D01*
X-113830Y90399D01*
X-114230D01*
Y89999D01*
X-113830Y89599D01*
X-114230Y89199D01*
Y88799D01*
X-126330Y142799D02*
X-125530Y143599D01*
X-124730Y142799D01*
X-125530Y141999D01*
X-126330Y142799D01*
X-122830D02*
X-122030Y143599D01*
X-121230Y142799D01*
X-122030Y141999D01*
X-122830Y142799D01*
X-129330Y74999D02*
X-128530Y75799D01*
X-127730Y74999D01*
X-128530Y74199D01*
X-129330Y74999D01*
X-199530Y77999D02*
X-198730Y78799D01*
X-197930Y77999D01*
X-198730Y77199D01*
X-199530Y77999D01*
X-199630Y82299D02*
X-198830Y83099D01*
X-198030Y82299D01*
X-198830Y81499D01*
X-199630Y82299D01*
X-199530Y73899D02*
X-198730Y74699D01*
X-197930Y73899D01*
X-198730Y73099D01*
X-199530Y73899D01*
X-104130Y129099D02*
X-103730Y129899D01*
X-104130Y130699D01*
X-103330Y130299D01*
X-102530Y130699D01*
X-102930Y129899D01*
X-102530Y129099D01*
X-103330Y129499D01*
X-104130Y129099D01*
X-102030D02*
X-101630Y129899D01*
X-102030Y130699D01*
X-101230Y130299D01*
X-100430Y130699D01*
X-100830Y129899D01*
X-100430Y129099D01*
X-101230Y129499D01*
X-102030Y129099D01*
Y130999D02*
X-101630Y131799D01*
X-102030Y132599D01*
X-101230Y132199D01*
X-100430Y132599D01*
X-100830Y131799D01*
X-100430Y130999D01*
X-101230Y131399D01*
X-102030Y130999D01*
X-43330Y34799D02*
X-42930Y35599D01*
X-43330Y36399D01*
X-42530Y35999D01*
X-41730Y36399D01*
X-42130Y35599D01*
X-41730Y34799D01*
X-42530Y35199D01*
X-43330Y34799D01*
X-43430Y36599D02*
X-43030Y37399D01*
X-43430Y38199D01*
X-42630Y37799D01*
X-41830Y38199D01*
X-42230Y37399D01*
X-41830Y36599D01*
X-42630Y36999D01*
X-43430Y36599D01*
X-43730Y117099D02*
X-43330Y117899D01*
X-43730Y118699D01*
X-42930Y118299D01*
X-42130Y118699D01*
X-42530Y117899D01*
X-42130Y117099D01*
X-42930Y117499D01*
X-43730Y117099D01*
X-40102Y118844D02*
X-39702Y119644D01*
X-40102Y120445D01*
X-39302Y120045D01*
X-38502Y120445D01*
X-38902Y119644D01*
X-38502Y118844D01*
X-39302Y119245D01*
X-40102Y118844D01*
X-319346Y64800D02*
X-318547Y65600D01*
X-317746Y64800D01*
X-318547Y64000D01*
X-319346Y64800D01*
X-71502Y102084D02*
Y101683D01*
X-70702D01*
Y102084D01*
X-70302D01*
Y102884D01*
X-70702D01*
Y103284D01*
X-71502D01*
Y102884D01*
X-71902D01*
Y102084D01*
X-71502D01*
X-265502Y159531D02*
X-264702Y160331D01*
X-263902Y159531D01*
X-264702Y158731D01*
X-265502Y159531D01*
X-256602Y181631D02*
X-255802Y182431D01*
X-255002Y181631D01*
X-255802Y180831D01*
X-256602Y181631D01*
X-262747Y180400D02*
X-261947Y181200D01*
X-261146Y180400D01*
X-261947Y179600D01*
X-262747Y180400D01*
X-263108Y166056D02*
X-262309Y166856D01*
X-261508Y166056D01*
X-262309Y165256D01*
X-263108Y166056D01*
X-260347Y163500D02*
X-259546Y164300D01*
X-258747Y163500D01*
X-259546Y162700D01*
X-260347Y163500D01*
X-132147Y168000D02*
X-131346Y168800D01*
X-130546Y168000D01*
X-131346Y167200D01*
X-132147Y168000D01*
X-125446Y154800D02*
X-124646Y155600D01*
X-123846Y154800D01*
X-124646Y154000D01*
X-125446Y154800D01*
X-204847Y156800D02*
X-204447Y157600D01*
X-204847Y158400D01*
X-204047Y158000D01*
X-203246Y158400D01*
X-203646Y157600D01*
X-203246Y156800D01*
X-204047Y157200D01*
X-204847Y156800D01*
X-206347Y171900D02*
X-205946Y172700D01*
X-206347Y173500D01*
X-205546Y173100D01*
X-204747Y173500D01*
X-205147Y172700D01*
X-204747Y171900D01*
X-205546Y172300D01*
X-206347Y171900D01*
X-209347Y169600D02*
X-208946Y170400D01*
X-209347Y171200D01*
X-208546Y170800D01*
X-207747Y171200D01*
X-208147Y170400D01*
X-207747Y169600D01*
X-208546Y170000D01*
X-209347Y169600D01*
X-193165Y24231D02*
X-192765Y25031D01*
X-193165Y25831D01*
X-192365Y25431D01*
X-191565Y25831D01*
X-191965Y25031D01*
X-191565Y24231D01*
X-192365Y24631D01*
X-193165Y24231D01*
X-200746Y161500D02*
X-200346Y162300D01*
X-200746Y163100D01*
X-199946Y162700D01*
X-199146Y163100D01*
X-199547Y162300D01*
X-199146Y161500D01*
X-199946Y161900D01*
X-200746Y161500D01*
X-199646Y165400D02*
X-199247D01*
X-198846Y165800D01*
X-198447Y165400D01*
X-198047D01*
Y165800D01*
X-198447Y166200D01*
X-198047Y166600D01*
Y167000D01*
X-198447D01*
X-198846Y166600D01*
X-199247Y167000D01*
X-199646D01*
Y166600D01*
X-199247Y166200D01*
X-199646Y165800D01*
Y165400D01*
X-210146Y177300D02*
X-209347Y178100D01*
X-208546Y177300D01*
X-209347Y176500D01*
X-210146Y177300D01*
X-206246Y181500D02*
X-205447Y182300D01*
X-204646Y181500D01*
X-205447Y180700D01*
X-206246Y181500D01*
X-269446Y24300D02*
X-268647Y25100D01*
X-267846Y24300D01*
X-268647Y23500D01*
X-269446Y24300D01*
X-132830Y74999D02*
X-132030Y75799D01*
X-131230Y74999D01*
X-132030Y74199D01*
X-132830Y74999D01*
X-131846Y78300D02*
X-131447Y79100D01*
X-131846Y79900D01*
X-131046Y79500D01*
X-130246Y79900D01*
X-130647Y79100D01*
X-130246Y78300D01*
X-131046Y78700D01*
X-131846Y78300D01*
X-272646Y24300D02*
X-271847Y25100D01*
X-271046Y24300D01*
X-271847Y23500D01*
X-272646Y24300D01*
X-173995Y144099D02*
X-173594Y144899D01*
X-173995Y145699D01*
X-173195Y145299D01*
X-172395Y145699D01*
X-172794Y144899D01*
X-172395Y144099D01*
X-173195Y144499D01*
X-173995Y144099D01*
X-173946Y136000D02*
X-173547Y136800D01*
X-173946Y137600D01*
X-173146Y137200D01*
X-172346Y137600D01*
X-172747Y136800D01*
X-172346Y136000D01*
X-173146Y136400D01*
X-173946Y136000D01*
X-190147Y154847D02*
X-189746Y155647D01*
X-190147Y156447D01*
X-189347Y156047D01*
X-188547Y156447D01*
X-188946Y155647D01*
X-188547Y154847D01*
X-189347Y155247D01*
X-190147Y154847D01*
Y156923D02*
X-189746Y157723D01*
X-190147Y158523D01*
X-189347Y158124D01*
X-188547Y158523D01*
X-188946Y157723D01*
X-188547Y156923D01*
X-189347Y157324D01*
X-190147Y156923D01*
Y167200D02*
X-189746Y168000D01*
X-190147Y168800D01*
X-189347Y168400D01*
X-188547Y168800D01*
X-188946Y168000D01*
X-188547Y167200D01*
X-189347Y167600D01*
X-190147Y167200D01*
X-190047Y169550D02*
X-189646Y170350D01*
X-190047Y171150D01*
X-189246Y170750D01*
X-188446Y171150D01*
X-188847Y170350D01*
X-188446Y169550D01*
X-189246Y169950D01*
X-190047Y169550D01*
X-192430Y170800D02*
X-192030Y171600D01*
X-192430Y172400D01*
X-191630Y172000D01*
X-190830Y172400D01*
X-191230Y171600D01*
X-190830Y170800D01*
X-191630Y171200D01*
X-192430Y170800D01*
X-175547Y174500D02*
X-175146Y175300D01*
X-175547Y176100D01*
X-174747Y175700D01*
X-173946Y176100D01*
X-174346Y175300D01*
X-173946Y174500D01*
X-174747Y174900D01*
X-175547Y174500D01*
X-179630Y171284D02*
X-179230Y172084D01*
X-179630Y172884D01*
X-178830Y172484D01*
X-178030Y172884D01*
X-178430Y172084D01*
X-178030Y171284D01*
X-178830Y171684D01*
X-179630Y171284D01*
Y167400D02*
X-179230Y168200D01*
X-179630Y169000D01*
X-178830Y168600D01*
X-178030Y169000D01*
X-178430Y168200D01*
X-178030Y167400D01*
X-178830Y167800D01*
X-179630Y167400D01*
X-173247Y174500D02*
X-172846Y175300D01*
X-173247Y176100D01*
X-172447Y175700D01*
X-171646Y176100D01*
X-172046Y175300D01*
X-171646Y174500D01*
X-172447Y174900D01*
X-173247Y174500D01*
X-135247Y147200D02*
X-134447Y148000D01*
X-133647Y147200D01*
X-134447Y146400D01*
X-135247Y147200D01*
X-138446Y168500D02*
X-138047D01*
X-137646Y168900D01*
X-137247Y168500D01*
X-136846D01*
Y168900D01*
X-137247Y169300D01*
X-136846Y169700D01*
Y170100D01*
X-137247D01*
X-137646Y169700D01*
X-138047Y170100D01*
X-138446D01*
Y169700D01*
X-138047Y169300D01*
X-138446Y168900D01*
Y168500D01*
X-155847Y174700D02*
X-155046Y175500D01*
X-154246Y174700D01*
X-155046Y173900D01*
X-155847Y174700D01*
X-175045Y111774D02*
X-174645Y112574D01*
X-175045Y113374D01*
X-174245Y112974D01*
X-173445Y113374D01*
X-173845Y112574D01*
X-173445Y111774D01*
X-174245Y112174D01*
X-175045Y111774D01*
X-176547Y121300D02*
X-176146Y122100D01*
X-176547Y122900D01*
X-175747Y122500D01*
X-174946Y122900D01*
X-175347Y122100D01*
X-174946Y121300D01*
X-175747Y121700D01*
X-176547Y121300D01*
X-122247Y87100D02*
X-121447Y87900D01*
X-120647Y87100D01*
X-121447Y86300D01*
X-122247Y87100D01*
X-106647Y106200D02*
X-105847Y107000D01*
X-105046Y106200D01*
X-105847Y105400D01*
X-106647Y106200D01*
X-21194Y71799D02*
Y71399D01*
X-20394D01*
Y71799D01*
X-19995D01*
Y72599D01*
X-20394D01*
Y72999D01*
X-21194D01*
Y72599D01*
X-21595D01*
Y71799D01*
X-21194D01*
X-17294Y71699D02*
Y71299D01*
X-16495D01*
Y71699D01*
X-16094D01*
Y72499D01*
X-16495D01*
Y72899D01*
X-17294D01*
Y72499D01*
X-17695D01*
Y71699D01*
X-17294D01*
X-19647Y64400D02*
Y64000D01*
X-18846D01*
Y64400D01*
X-18447D01*
Y65200D01*
X-18846D01*
Y65600D01*
X-19647D01*
Y65200D01*
X-20046D01*
Y64400D01*
X-19647D01*
X-24847Y63200D02*
Y62800D01*
X-24047D01*
Y63200D01*
X-23647D01*
Y64000D01*
X-24047D01*
Y64400D01*
X-24847D01*
Y64000D01*
X-25247D01*
Y63200D01*
X-24847D01*
X-30802Y63283D02*
X-30402Y64083D01*
X-30802Y64883D01*
X-30002Y64483D01*
X-29202Y64883D01*
X-29602Y64083D01*
X-29202Y63283D01*
X-30002Y63683D01*
X-30802Y63283D01*
X-83607Y27078D02*
X-83207Y27878D01*
X-83607Y28678D01*
X-82807Y28278D01*
X-82007Y28678D01*
X-82407Y27878D01*
X-82007Y27078D01*
X-82807Y27478D01*
X-83607Y27078D01*
X-85576Y28758D02*
X-85176Y29557D01*
X-85576Y30358D01*
X-84776Y29958D01*
X-83976Y30358D01*
X-84376Y29557D01*
X-83976Y28758D01*
X-84776Y29158D01*
X-85576Y28758D01*
X-100602Y25684D02*
X-100202Y26484D01*
X-100602Y27283D01*
X-99802Y26884D01*
X-99002Y27283D01*
X-99402Y26484D01*
X-99002Y25684D01*
X-99802Y26083D01*
X-100602Y25684D01*
X-133147Y46500D02*
X-132747Y47300D01*
X-133147Y48100D01*
X-132346Y47700D01*
X-131546Y48100D01*
X-131947Y47300D01*
X-131546Y46500D01*
X-132346Y46900D01*
X-133147Y46500D01*
X-133745Y48869D02*
X-133345Y49669D01*
X-133745Y50469D01*
X-132945Y50069D01*
X-132145Y50469D01*
X-132545Y49669D01*
X-132145Y48869D01*
X-132945Y49269D01*
X-133745Y48869D01*
X-125902Y41383D02*
X-125502Y42184D01*
X-125902Y42983D01*
X-125102Y42584D01*
X-124302Y42983D01*
X-124702Y42184D01*
X-124302Y41383D01*
X-125102Y41783D01*
X-125902Y41383D01*
X-114802Y51410D02*
X-114402Y52210D01*
X-114802Y53010D01*
X-114002Y52610D01*
X-113202Y53010D01*
X-113602Y52210D01*
X-113202Y51410D01*
X-114002Y51810D01*
X-114802Y51410D01*
X-116102Y39783D02*
X-115702Y40584D01*
X-116102Y41383D01*
X-115302Y40984D01*
X-114502Y41383D01*
X-114902Y40584D01*
X-114502Y39783D01*
X-115302Y40183D01*
X-116102Y39783D01*
X-112702Y36184D02*
X-112302Y36983D01*
X-112702Y37784D01*
X-111902Y37383D01*
X-111102Y37784D01*
X-111502Y36983D01*
X-111102Y36184D01*
X-111902Y36584D01*
X-112702Y36184D01*
X-114402Y38284D02*
X-114002Y39083D01*
X-114402Y39884D01*
X-113602Y39483D01*
X-112802Y39884D01*
X-113202Y39083D01*
X-112802Y38284D01*
X-113602Y38684D01*
X-114402Y38284D01*
X-59847Y38400D02*
Y38000D01*
X-59047D01*
Y38400D01*
X-58647D01*
Y39200D01*
X-59047D01*
Y39600D01*
X-59847D01*
Y39200D01*
X-60246D01*
Y38400D01*
X-59847D01*
X-57846Y59700D02*
Y59300D01*
X-57047D01*
Y59700D01*
X-56647D01*
Y60500D01*
X-57047D01*
Y60900D01*
X-57846D01*
Y60500D01*
X-58246D01*
Y59700D01*
X-57846D01*
Y56200D02*
Y55800D01*
X-57047D01*
Y56200D01*
X-56647D01*
Y57000D01*
X-57047D01*
Y57400D01*
X-57846D01*
Y57000D01*
X-58246D01*
Y56200D01*
X-57846D01*
Y49200D02*
Y48800D01*
X-57047D01*
Y49200D01*
X-56647D01*
Y50000D01*
X-57047D01*
Y50400D01*
X-57846D01*
Y50000D01*
X-58246D01*
Y49200D01*
X-57846D01*
Y45700D02*
Y45300D01*
X-57047D01*
Y45700D01*
X-56647D01*
Y46500D01*
X-57047D01*
Y46900D01*
X-57846D01*
Y46500D01*
X-58246D01*
Y45700D01*
X-57846D01*
X-20246Y57300D02*
Y56900D01*
X-19446D01*
Y57300D01*
X-19047D01*
Y58100D01*
X-19446D01*
Y58500D01*
X-20246D01*
Y58100D01*
X-20647D01*
Y57300D01*
X-20246D01*
X-57651Y62627D02*
X-57250D01*
X-56850Y63027D01*
X-56450Y62627D01*
X-56050D01*
Y63027D01*
X-56450Y63427D01*
X-56050Y63827D01*
Y64227D01*
X-56450D01*
X-56850Y63827D01*
X-57250Y64227D01*
X-57651D01*
Y63827D01*
X-57250Y63427D01*
X-57651Y63027D01*
Y62627D01*
X-47346Y58800D02*
X-46946D01*
X-46547Y59200D01*
X-46147Y58800D01*
X-45746D01*
Y59200D01*
X-46147Y59600D01*
X-45746Y60000D01*
Y60400D01*
X-46147D01*
X-46547Y60000D01*
X-46946Y60400D01*
X-47346D01*
Y60000D01*
X-46946Y59600D01*
X-47346Y59200D01*
Y58800D01*
X-48545Y66600D02*
Y66200D01*
X-47745D01*
Y66600D01*
X-47345D01*
Y67400D01*
X-47745D01*
Y67800D01*
X-48545D01*
Y67400D01*
X-48945D01*
Y66600D01*
X-48545D01*
X-46194Y65199D02*
Y64799D01*
X-45395D01*
Y65199D01*
X-44995D01*
Y65999D01*
X-45395D01*
Y66399D01*
X-46194D01*
Y65999D01*
X-46595D01*
Y65199D01*
X-46194D01*
X-43894D02*
Y64799D01*
X-43095D01*
Y65199D01*
X-42695D01*
Y65999D01*
X-43095D01*
Y66399D01*
X-43894D01*
Y65999D01*
X-44295D01*
Y65199D01*
X-43894D01*
X-46347Y51300D02*
X-45946Y52100D01*
X-46347Y52900D01*
X-45546Y52500D01*
X-44747Y52900D01*
X-45147Y52100D01*
X-44747Y51300D01*
X-45546Y51700D01*
X-46347Y51300D01*
X-35247Y32900D02*
X-34846Y33700D01*
X-35247Y34500D01*
X-34446Y34100D01*
X-33647Y34500D01*
X-34047Y33700D01*
X-33647Y32900D01*
X-34446Y33300D01*
X-35247Y32900D01*
X-37347D02*
X-36946Y33700D01*
X-37347Y34500D01*
X-36546Y34100D01*
X-35746Y34500D01*
X-36147Y33700D01*
X-35746Y32900D01*
X-36546Y33300D01*
X-37347Y32900D01*
X-11347Y33200D02*
X-10547Y34000D01*
X-9747Y33200D01*
X-10547Y32400D01*
X-11347Y33200D01*
X-14946Y54000D02*
Y53600D01*
X-14146D01*
Y54000D01*
X-13747D01*
Y54800D01*
X-14146D01*
Y55200D01*
X-14946D01*
Y54800D01*
X-15347D01*
Y54000D01*
X-14946D01*
X9700Y133200D02*
X10100D01*
X10500Y133600D01*
X10900Y133200D01*
X11300D01*
Y133600D01*
X10900Y134000D01*
X11300Y134400D01*
Y134800D01*
X10900D01*
X10500Y134400D01*
X10100Y134800D01*
X9700D01*
Y134400D01*
X10100Y134000D01*
X9700Y133600D01*
Y133200D01*
X5350D02*
X5750D01*
X6150Y133600D01*
X6550Y133200D01*
X6950D01*
Y133600D01*
X6550Y134000D01*
X6950Y134400D01*
Y134800D01*
X6550D01*
X6150Y134400D01*
X5750Y134800D01*
X5350D01*
Y134400D01*
X5750Y134000D01*
X5350Y133600D01*
Y133200D01*
X1000D02*
X1400D01*
X1800Y133600D01*
X2200Y133200D01*
X2600D01*
Y133600D01*
X2200Y134000D01*
X2600Y134400D01*
Y134800D01*
X2200D01*
X1800Y134400D01*
X1400Y134800D01*
X1000D01*
Y134400D01*
X1400Y134000D01*
X1000Y133600D01*
Y133200D01*
X-227646Y6300D02*
X-227246D01*
X-226847Y6700D01*
X-226447Y6300D01*
X-226046D01*
Y6700D01*
X-226447Y7100D01*
X-226046Y7500D01*
Y7900D01*
X-226447D01*
X-226847Y7500D01*
X-227246Y7900D01*
X-227646D01*
Y7500D01*
X-227246Y7100D01*
X-227646Y6700D01*
Y6300D01*
X-68102Y102483D02*
Y102084D01*
X-67302D01*
Y102483D01*
X-66902D01*
Y103284D01*
X-67302D01*
Y103683D01*
X-68102D01*
Y103284D01*
X-68502D01*
Y102483D01*
X-68102D01*
X-63245Y100583D02*
Y100183D01*
X-62445D01*
Y100583D01*
X-62045D01*
Y101383D01*
X-62445D01*
Y101783D01*
X-63245D01*
Y101383D01*
X-63645D01*
Y100583D01*
X-63245D01*
X-143245Y133174D02*
X-142845Y133974D01*
X-143245Y134774D01*
X-142445Y134374D01*
X-141645Y134774D01*
X-142045Y133974D01*
X-141645Y133174D01*
X-142445Y133574D01*
X-143245Y133174D01*
X-143294Y137174D02*
X-142894Y137974D01*
X-143294Y138774D01*
X-142494Y138374D01*
X-141694Y138774D01*
X-142094Y137974D01*
X-141694Y137174D01*
X-142494Y137574D01*
X-143294Y137174D01*
X-143245Y139174D02*
X-142845Y139974D01*
X-143245Y140774D01*
X-142445Y140374D01*
X-141645Y140774D01*
X-142045Y139974D01*
X-141645Y139174D01*
X-142445Y139574D01*
X-143245Y139174D01*
Y141474D02*
X-142845Y142274D01*
X-143245Y143074D01*
X-142445Y142674D01*
X-141645Y143074D01*
X-142045Y142274D01*
X-141645Y141474D01*
X-142445Y141874D01*
X-143245Y141474D01*
X-126430Y146399D02*
X-125630Y147199D01*
X-124830Y146399D01*
X-125630Y145599D01*
X-126430Y146399D01*
X-143245Y131174D02*
X-142845Y131974D01*
X-143245Y132774D01*
X-142445Y132374D01*
X-141645Y132774D01*
X-142045Y131974D01*
X-141645Y131174D01*
X-142445Y131574D01*
X-143245Y131174D01*
X-151894Y125799D02*
X-151495Y126599D01*
X-151894Y127399D01*
X-151094Y126999D01*
X-150294Y127399D01*
X-150695Y126599D01*
X-150294Y125799D01*
X-151094Y126199D01*
X-151894Y125799D01*
Y128019D02*
X-151495Y128819D01*
X-151894Y129619D01*
X-151094Y129219D01*
X-150294Y129619D01*
X-150695Y128819D01*
X-150294Y128019D01*
X-151094Y128419D01*
X-151894Y128019D01*
X-152445Y108483D02*
X-152045Y109283D01*
X-152445Y110083D01*
X-151645Y109683D01*
X-150845Y110083D01*
X-151245Y109283D01*
X-150845Y108483D01*
X-151645Y108883D01*
X-152445Y108483D01*
X-157945Y121283D02*
X-157545Y122083D01*
X-157945Y122883D01*
X-157145Y122483D01*
X-156345Y122883D01*
X-156745Y122083D01*
X-156345Y121283D01*
X-157145Y121683D01*
X-157945Y121283D01*
X-299030Y142099D02*
Y143699D01*
X-297430D01*
Y142099D01*
X-299030D01*
X-298630Y142499D02*
Y143299D01*
X-297830D01*
Y142499D01*
X-298630D01*
X-297745Y135874D02*
X-297345Y136674D01*
X-297745Y137474D01*
X-296945Y137074D01*
X-296145Y137474D01*
X-296545Y136674D01*
X-296145Y135874D01*
X-296945Y136274D01*
X-297745Y135874D01*
X-93845Y88183D02*
X-93445D01*
X-93045Y88583D01*
X-92645Y88183D01*
X-92245D01*
Y88583D01*
X-92645Y88983D01*
X-92245Y89383D01*
Y89783D01*
X-92645D01*
X-93045Y89383D01*
X-93445Y89783D01*
X-93845D01*
Y89383D01*
X-93445Y88983D01*
X-93845Y88583D01*
Y88183D01*
X-149165Y38183D02*
X-148765Y38983D01*
X-149165Y39783D01*
X-148365Y39383D01*
X-147565Y39783D01*
X-147965Y38983D01*
X-147565Y38183D01*
X-148365Y38583D01*
X-149165Y38183D01*
X-154845Y125083D02*
X-154445Y125883D01*
X-154845Y126683D01*
X-154045Y126283D01*
X-153245Y126683D01*
X-153645Y125883D01*
X-153245Y125083D01*
X-154045Y125483D01*
X-154845Y125083D01*
X-58745Y111583D02*
X-58345D01*
X-57945Y111983D01*
X-57545Y111583D01*
X-57145D01*
Y111983D01*
X-57545Y112383D01*
X-57145Y112783D01*
Y113183D01*
X-57545D01*
X-57945Y112783D01*
X-58345Y113183D01*
X-58745D01*
Y112783D01*
X-58345Y112383D01*
X-58745Y111983D01*
Y111583D01*
X-49045Y178083D02*
X-48245Y178883D01*
X-47445Y178083D01*
X-48245Y177283D01*
X-49045Y178083D01*
X-104080Y130999D02*
X-103680Y131799D01*
X-104080Y132599D01*
X-103280Y132199D01*
X-102480Y132599D01*
X-102880Y131799D01*
X-102480Y130999D01*
X-103280Y131399D01*
X-104080Y130999D01*
X-162745Y121274D02*
X-162345Y122074D01*
X-162745Y122874D01*
X-161945Y122474D01*
X-161145Y122874D01*
X-161545Y122074D01*
X-161145Y121274D01*
X-161945Y121674D01*
X-162745Y121274D01*
X-167245D02*
X-166845Y122074D01*
X-167245Y122874D01*
X-166445Y122474D01*
X-165645Y122874D01*
X-166045Y122074D01*
X-165645Y121274D01*
X-166445Y121674D01*
X-167245Y121274D01*
X-172045Y121283D02*
X-171645Y122083D01*
X-172045Y122883D01*
X-171245Y122483D01*
X-170445Y122883D01*
X-170845Y122083D01*
X-170445Y121283D01*
X-171245Y121683D01*
X-172045Y121283D01*
X-175995Y148299D02*
X-175594Y149099D01*
X-175995Y149899D01*
X-175195Y149499D01*
X-174395Y149899D01*
X-174794Y149099D01*
X-174395Y148299D01*
X-175195Y148699D01*
X-175995Y148299D01*
X-172695Y149174D02*
X-172294Y149974D01*
X-172695Y150774D01*
X-171895Y150374D01*
X-171095Y150774D01*
X-171494Y149974D01*
X-171095Y149174D01*
X-171895Y149574D01*
X-172695Y149174D01*
X-314145Y164683D02*
X-313345Y165483D01*
X-312545Y164683D01*
X-313345Y163883D01*
X-314145Y164683D01*
X-318002Y164831D02*
X-317202Y165631D01*
X-316402Y164831D01*
X-317202Y164031D01*
X-318002Y164831D01*
X-194765Y22031D02*
X-194365Y22831D01*
X-194765Y23631D01*
X-193965Y23231D01*
X-193165Y23631D01*
X-193565Y22831D01*
X-193165Y22031D01*
X-193965Y22431D01*
X-194765Y22031D01*
X-200202Y24231D02*
X-199802Y25031D01*
X-200202Y25831D01*
X-199402Y25431D01*
X-198602Y25831D01*
X-199002Y25031D01*
X-198602Y24231D01*
X-199402Y24631D01*
X-200202Y24231D01*
X-207802Y4583D02*
X-207402Y5384D01*
X-207802Y6183D01*
X-207002Y5784D01*
X-206202Y6183D01*
X-206602Y5384D01*
X-206202Y4583D01*
X-207002Y4984D01*
X-207802Y4583D01*
X-205795Y8399D02*
X-205395Y9199D01*
X-205795Y9999D01*
X-204995Y9599D01*
X-204194Y9999D01*
X-204594Y9199D01*
X-204194Y8399D01*
X-204995Y8799D01*
X-205795Y8399D01*
X-124602Y8884D02*
X-123802Y9684D01*
X-123002Y8884D01*
X-123802Y8083D01*
X-124602Y8884D01*
X-123002Y23483D02*
X-122602Y24284D01*
X-123002Y25084D01*
X-122202Y24683D01*
X-121402Y25084D01*
X-121802Y24284D01*
X-121402Y23483D01*
X-122202Y23884D01*
X-123002Y23483D01*
X-136765Y30383D02*
X-136365Y31183D01*
X-136765Y31983D01*
X-135965Y31583D01*
X-135165Y31983D01*
X-135565Y31183D01*
X-135165Y30383D01*
X-135965Y30783D01*
X-136765Y30383D01*
X-138365Y31883D02*
X-137965Y32683D01*
X-138365Y33483D01*
X-137565Y33083D01*
X-136765Y33483D01*
X-137165Y32683D01*
X-136765Y31883D01*
X-137565Y32283D01*
X-138365Y31883D01*
X-111146Y22000D02*
X-110747Y22800D01*
X-111146Y23600D01*
X-110346Y23200D01*
X-109546Y23600D01*
X-109947Y22800D01*
X-109546Y22000D01*
X-110346Y22400D01*
X-111146Y22000D01*
X-81849Y25231D02*
X-81449Y26030D01*
X-81849Y26831D01*
X-81049Y26430D01*
X-80249Y26831D01*
X-80649Y26030D01*
X-80249Y25231D01*
X-81049Y25631D01*
X-81849Y25231D01*
X-100602Y28084D02*
X-100202Y28883D01*
X-100602Y29684D01*
X-99802Y29283D01*
X-99002Y29684D01*
X-99402Y28883D01*
X-99002Y28084D01*
X-99802Y28484D01*
X-100602Y28084D01*
X-100702Y30483D02*
X-100302Y31284D01*
X-100702Y32083D01*
X-99902Y31683D01*
X-99102Y32083D01*
X-99502Y31284D01*
X-99102Y30483D01*
X-99902Y30883D01*
X-100702Y30483D01*
X-111202Y33884D02*
X-110802Y34683D01*
X-111202Y35484D01*
X-110402Y35083D01*
X-109602Y35484D01*
X-110002Y34683D01*
X-109602Y33884D01*
X-110402Y34284D01*
X-111202Y33884D01*
X-109202Y20784D02*
X-108802Y21584D01*
X-109202Y22384D01*
X-108402Y21983D01*
X-107602Y22384D01*
X-108002Y21584D01*
X-107602Y20784D01*
X-108402Y21183D01*
X-109202Y20784D01*
X-107229Y19411D02*
X-106829Y20211D01*
X-107229Y21011D01*
X-106429Y20611D01*
X-105629Y21011D01*
X-106029Y20211D01*
X-105629Y19411D01*
X-106429Y19811D01*
X-107229Y19411D01*
X-303402Y25583D02*
X-303002D01*
X-302602Y25984D01*
X-302202Y25583D01*
X-301802D01*
Y25984D01*
X-302202Y26384D01*
X-301802Y26783D01*
Y27183D01*
X-302202D01*
X-302602Y26783D01*
X-303002Y27183D01*
X-303402D01*
Y26783D01*
X-303002Y26384D01*
X-303402Y25984D01*
Y25583D01*
X-96445Y177174D02*
X-96045Y177974D01*
X-96445Y178774D01*
X-95645Y178374D01*
X-94845Y178774D01*
X-95245Y177974D01*
X-94845Y177174D01*
X-95645Y177574D01*
X-96445Y177174D01*
Y175374D02*
X-96045Y176174D01*
X-96445Y176974D01*
X-95645Y176574D01*
X-94845Y176974D01*
X-95245Y176174D01*
X-94845Y175374D01*
X-95645Y175774D01*
X-96445Y175374D01*
X-171747Y139400D02*
X-171346Y140200D01*
X-171747Y141000D01*
X-170947Y140600D01*
X-170147Y141000D01*
X-170546Y140200D01*
X-170147Y139400D01*
X-170947Y139800D01*
X-171747Y139400D01*
X8953Y6400D02*
Y6000D01*
X9753D01*
Y6400D01*
X10153D01*
Y7200D01*
X9753D01*
Y7600D01*
X8953D01*
Y7200D01*
X8553D01*
Y6400D01*
X8953D01*
X-4480Y2100D02*
Y1700D01*
X-3680D01*
Y2100D01*
X-3280D01*
Y2900D01*
X-3680D01*
Y3300D01*
X-4480D01*
Y2900D01*
X-4880D01*
Y2100D01*
X-4480D01*
X-1863D02*
Y1700D01*
X-1063D01*
Y2100D01*
X-663D01*
Y2900D01*
X-1063D01*
Y3300D01*
X-1863D01*
Y2900D01*
X-2263D01*
Y2100D01*
X-1863D01*
X753D02*
Y1700D01*
X1553D01*
Y2100D01*
X1953D01*
Y2900D01*
X1553D01*
Y3300D01*
X753D01*
Y2900D01*
X353D01*
Y2100D01*
X753D01*
X6554Y4700D02*
Y4300D01*
X7354D01*
Y4700D01*
X7754D01*
Y5500D01*
X7354D01*
Y5900D01*
X6554D01*
Y5500D01*
X6154D01*
Y4700D01*
X6554D01*
X-37047Y8500D02*
Y8100D01*
X-36246D01*
Y8500D01*
X-35846D01*
Y9300D01*
X-36246D01*
Y9700D01*
X-37047D01*
Y9300D01*
X-37446D01*
Y8500D01*
X-37047D01*
X-34646D02*
Y8100D01*
X-33847D01*
Y8500D01*
X-33446D01*
Y9300D01*
X-33847D01*
Y9700D01*
X-34646D01*
Y9300D01*
X-35046D01*
Y8500D01*
X-34646D01*
X3954Y3300D02*
Y2900D01*
X4753D01*
Y3300D01*
X5153D01*
Y4100D01*
X4753D01*
Y4500D01*
X3954D01*
Y4100D01*
X3554D01*
Y3300D01*
X3954D01*
X-10547Y49850D02*
Y49450D01*
X-9747D01*
Y49850D01*
X-9347D01*
Y50650D01*
X-9747D01*
Y51050D01*
X-10547D01*
Y50650D01*
X-10947D01*
Y49850D01*
X-10547D01*
Y52300D02*
Y51900D01*
X-9747D01*
Y52300D01*
X-9347D01*
Y53100D01*
X-9747D01*
Y53500D01*
X-10547D01*
Y53100D01*
X-10947D01*
Y52300D01*
X-10547D01*
Y47400D02*
Y47000D01*
X-9747D01*
Y47400D01*
X-9347D01*
Y48200D01*
X-9747D01*
Y48600D01*
X-10547D01*
Y48200D01*
X-10947D01*
Y47400D01*
X-10547D01*
X-7096Y2100D02*
Y1700D01*
X-6296D01*
Y2100D01*
X-5897D01*
Y2900D01*
X-6296D01*
Y3300D01*
X-7096D01*
Y2900D01*
X-7497D01*
Y2100D01*
X-7096D01*
X-12213Y17862D02*
Y17462D01*
X-11413D01*
Y17862D01*
X-11013D01*
Y18662D01*
X-11413D01*
Y19062D01*
X-12213D01*
Y18662D01*
X-12613D01*
Y17862D01*
X-12213D01*
X-12166Y15297D02*
Y14897D01*
X-11366D01*
Y15297D01*
X-10966D01*
Y16097D01*
X-11366D01*
Y16497D01*
X-12166D01*
Y16097D01*
X-12565D01*
Y15297D01*
X-12166D01*
X-9480Y17862D02*
Y17462D01*
X-8680D01*
Y17862D01*
X-8280D01*
Y18662D01*
X-8680D01*
Y19062D01*
X-9480D01*
Y18662D01*
X-9880D01*
Y17862D01*
X-9480D01*
X-14946Y12600D02*
Y12200D01*
X-14146D01*
Y12600D01*
X-13747D01*
Y13400D01*
X-14146D01*
Y13800D01*
X-14946D01*
Y13400D01*
X-15347D01*
Y12600D01*
X-14946D01*
Y15300D02*
Y14900D01*
X-14146D01*
Y15300D01*
X-13747D01*
Y16100D01*
X-14146D01*
Y16500D01*
X-14946D01*
Y16100D01*
X-15347D01*
Y15300D01*
X-14946D01*
X-9713Y2100D02*
Y1700D01*
X-8913D01*
Y2100D01*
X-8513D01*
Y2900D01*
X-8913D01*
Y3300D01*
X-9713D01*
Y2900D01*
X-10113D01*
Y2100D01*
X-9713D01*
X-14946Y4500D02*
Y4100D01*
X-14146D01*
Y4500D01*
X-13747D01*
Y5300D01*
X-14146D01*
Y5700D01*
X-14946D01*
Y5300D01*
X-15347D01*
Y4500D01*
X-14946D01*
Y9900D02*
Y9500D01*
X-14146D01*
Y9900D01*
X-13747D01*
Y10700D01*
X-14146D01*
Y11100D01*
X-14946D01*
Y10700D01*
X-15347D01*
Y9900D01*
X-14946D01*
X-12330Y2100D02*
Y1700D01*
X-11530D01*
Y2100D01*
X-11130D01*
Y2900D01*
X-11530D01*
Y3300D01*
X-12330D01*
Y2900D01*
X-12730D01*
Y2100D01*
X-12330D01*
X-14946D02*
Y1700D01*
X-14146D01*
Y2100D01*
X-13747D01*
Y2900D01*
X-14146D01*
Y3300D01*
X-14946D01*
Y2900D01*
X-15347D01*
Y2100D01*
X-14946D01*
Y7200D02*
Y6800D01*
X-14146D01*
Y7200D01*
X-13747D01*
Y8000D01*
X-14146D01*
Y8400D01*
X-14946D01*
Y8000D01*
X-15347D01*
Y7200D01*
X-14946D01*
X-217145Y72599D02*
Y72199D01*
X-216345D01*
Y72599D01*
X-215945D01*
Y73399D01*
X-216345D01*
Y73799D01*
X-217145D01*
Y73399D01*
X-217545D01*
Y72599D01*
X-217145D01*
X-214694D02*
Y72199D01*
X-213895D01*
Y72599D01*
X-213494D01*
Y73399D01*
X-213895D01*
Y73799D01*
X-214694D01*
Y73399D01*
X-215094D01*
Y72599D01*
X-214694D01*
X-211705Y72599D02*
Y72199D01*
X-210905D01*
Y72599D01*
X-210505D01*
Y73399D01*
X-210905D01*
Y73799D01*
X-211705D01*
Y73399D01*
X-212105D01*
Y72599D01*
X-211705D01*
X-208785D02*
Y72199D01*
X-207985D01*
Y72599D01*
X-207585D01*
Y73399D01*
X-207985D01*
Y73799D01*
X-208785D01*
Y73399D01*
X-209185D01*
Y72599D01*
X-208785D01*
X-205865D02*
Y72199D01*
X-205065D01*
Y72599D01*
X-204665D01*
Y73399D01*
X-205065D01*
Y73799D01*
X-205865D01*
Y73399D01*
X-206265D01*
Y72599D01*
X-205865D01*
X-203194D02*
Y72199D01*
X-202395D01*
Y72599D01*
X-201994D01*
Y73399D01*
X-202395D01*
Y73799D01*
X-203194D01*
Y73399D01*
X-203594D01*
Y72599D01*
X-203194D01*
X-217145Y61166D02*
Y60766D01*
X-216345D01*
Y61166D01*
X-215945D01*
Y61966D01*
X-216345D01*
Y62366D01*
X-217145D01*
Y61966D01*
X-217545D01*
Y61166D01*
X-217145D01*
Y46874D02*
Y46474D01*
X-216345D01*
Y46874D01*
X-215945D01*
Y47674D01*
X-216345D01*
Y48074D01*
X-217145D01*
Y47674D01*
X-217545D01*
Y46874D01*
X-217145D01*
Y49732D02*
Y49332D01*
X-216345D01*
Y49732D01*
X-215945D01*
Y50532D01*
X-216345D01*
Y50932D01*
X-217145D01*
Y50532D01*
X-217545D01*
Y49732D01*
X-217145D01*
Y55449D02*
Y55049D01*
X-216345D01*
Y55449D01*
X-215945D01*
Y56249D01*
X-216345D01*
Y56649D01*
X-217145D01*
Y56249D01*
X-217545D01*
Y55449D01*
X-217145D01*
Y58307D02*
Y57907D01*
X-216345D01*
Y58307D01*
X-215945D01*
Y59107D01*
X-216345D01*
Y59507D01*
X-217145D01*
Y59107D01*
X-217545D01*
Y58307D01*
X-217145D01*
Y64024D02*
Y63624D01*
X-216345D01*
Y64024D01*
X-215945D01*
Y64824D01*
X-216345D01*
Y65224D01*
X-217145D01*
Y64824D01*
X-217545D01*
Y64024D01*
X-217145D01*
Y66882D02*
Y66482D01*
X-216345D01*
Y66882D01*
X-215945D01*
Y67682D01*
X-216345D01*
Y68082D01*
X-217145D01*
Y67682D01*
X-217545D01*
Y66882D01*
X-217145D01*
Y69741D02*
Y69341D01*
X-216345D01*
Y69741D01*
X-215945D01*
Y70541D01*
X-216345D01*
Y70941D01*
X-217145D01*
Y70541D01*
X-217545D01*
Y69741D01*
X-217145D01*
X-310445Y135974D02*
X-310045D01*
X-309645Y136374D01*
X-309245Y135974D01*
X-308845D01*
Y136374D01*
X-309245Y136774D01*
X-308845Y137174D01*
Y137574D01*
X-309245D01*
X-309645Y137174D01*
X-310045Y137574D01*
X-310445D01*
Y137174D01*
X-310045Y136774D01*
X-310445Y136374D01*
Y135974D01*
X-316995Y134299D02*
X-316595D01*
X-316195Y134699D01*
X-315794Y134299D01*
X-315394D01*
Y134699D01*
X-315794Y135099D01*
X-315394Y135499D01*
Y135899D01*
X-315794D01*
X-316195Y135499D01*
X-316595Y135899D01*
X-316995D01*
Y135499D01*
X-316595Y135099D01*
X-316995Y134699D01*
Y134299D01*
X-330847Y184802D02*
X-330447D01*
X-330047Y185202D01*
X-329646Y184802D01*
X-329246D01*
Y185202D01*
X-329646Y185602D01*
X-329246Y186002D01*
Y186402D01*
X-329646D01*
X-330047Y186002D01*
X-330447Y186402D01*
X-330847D01*
Y186002D01*
X-330447Y185602D01*
X-330847Y185202D01*
Y184802D01*
X-313445Y146974D02*
X-313045D01*
X-312645Y147374D01*
X-312245Y146974D01*
X-311845D01*
Y147374D01*
X-312245Y147774D01*
X-311845Y148174D01*
Y148574D01*
X-312245D01*
X-312645Y148174D01*
X-313045Y148574D01*
X-313445D01*
Y148174D01*
X-313045Y147774D01*
X-313445Y147374D01*
Y146974D01*
X-306921Y151287D02*
X-306521D01*
X-306120Y151687D01*
X-305720Y151287D01*
X-305321D01*
Y151687D01*
X-305720Y152087D01*
X-305321Y152487D01*
Y152887D01*
X-305720D01*
X-306120Y152487D01*
X-306521Y152887D01*
X-306921D01*
Y152487D01*
X-306521Y152087D01*
X-306921Y151687D01*
Y151287D01*
X-306825Y154150D02*
X-306425D01*
X-306026Y154550D01*
X-305626Y154150D01*
X-305225D01*
Y154550D01*
X-305626Y154950D01*
X-305225Y155350D01*
Y155750D01*
X-305626D01*
X-306026Y155350D01*
X-306425Y155750D01*
X-306825D01*
Y155350D01*
X-306425Y154950D01*
X-306825Y154550D01*
Y154150D01*
X-213394Y44699D02*
Y44299D01*
X-212595D01*
Y44699D01*
X-212194D01*
Y45499D01*
X-212595D01*
Y45899D01*
X-213394D01*
Y45499D01*
X-213794D01*
Y44699D01*
X-213394D01*
X-210825D02*
Y44299D01*
X-210025D01*
Y44699D01*
X-209625D01*
Y45499D01*
X-210025D01*
Y45899D01*
X-210825D01*
Y45499D01*
X-211225D01*
Y44699D01*
X-210825D01*
X-208215D02*
Y44299D01*
X-207415D01*
Y44699D01*
X-207015D01*
Y45499D01*
X-207415D01*
Y45899D01*
X-208215D01*
Y45499D01*
X-208615D01*
Y44699D01*
X-208215D01*
X-205605D02*
Y44299D01*
X-204805D01*
Y44699D01*
X-204405D01*
Y45499D01*
X-204805D01*
Y45899D01*
X-205605D01*
Y45499D01*
X-206005D01*
Y44699D01*
X-205605D01*
X-200385D02*
Y44299D01*
X-199585D01*
Y44699D01*
X-199185D01*
Y45499D01*
X-199585D01*
Y45899D01*
X-200385D01*
Y45499D01*
X-200785D01*
Y44699D01*
X-200385D01*
X-197775D02*
Y44299D01*
X-196975D01*
Y44699D01*
X-196575D01*
Y45499D01*
X-196975D01*
Y45899D01*
X-197775D01*
Y45499D01*
X-198175D01*
Y44699D01*
X-197775D01*
X-192555D02*
Y44299D01*
X-191755D01*
Y44699D01*
X-191355D01*
Y45499D01*
X-191755D01*
Y45899D01*
X-192555D01*
Y45499D01*
X-192955D01*
Y44699D01*
X-192555D01*
X-202995D02*
Y44299D01*
X-202195D01*
Y44699D01*
X-201795D01*
Y45499D01*
X-202195D01*
Y45899D01*
X-202995D01*
Y45499D01*
X-203395D01*
Y44699D01*
X-202995D01*
X-195165D02*
Y44299D01*
X-194365D01*
Y44699D01*
X-193965D01*
Y45499D01*
X-194365D01*
Y45899D01*
X-195165D01*
Y45499D01*
X-195565D01*
Y44699D01*
X-195165D01*
X-187545Y68054D02*
Y67654D01*
X-186745D01*
Y68054D01*
X-186345D01*
Y68854D01*
X-186745D01*
Y69254D01*
X-187545D01*
Y68854D01*
X-187945D01*
Y68054D01*
X-187545D01*
Y65444D02*
Y65044D01*
X-186745D01*
Y65444D01*
X-186345D01*
Y66244D01*
X-186745D01*
Y66644D01*
X-187545D01*
Y66244D01*
X-187945D01*
Y65444D01*
X-187545D01*
Y62834D02*
Y62434D01*
X-186745D01*
Y62834D01*
X-186345D01*
Y63634D01*
X-186745D01*
Y64034D01*
X-187545D01*
Y63634D01*
X-187945D01*
Y62834D01*
X-187545D01*
Y60224D02*
Y59824D01*
X-186745D01*
Y60224D01*
X-186345D01*
Y61024D01*
X-186745D01*
Y61424D01*
X-187545D01*
Y61024D01*
X-187945D01*
Y60224D01*
X-187545D01*
Y52394D02*
Y51994D01*
X-186745D01*
Y52394D01*
X-186345D01*
Y53194D01*
X-186745D01*
Y53594D01*
X-187545D01*
Y53194D01*
X-187945D01*
Y52394D01*
X-187545D01*
X-214694Y52591D02*
Y52191D01*
X-213895D01*
Y52591D01*
X-213494D01*
Y53391D01*
X-213895D01*
Y53791D01*
X-214694D01*
Y53391D01*
X-215094D01*
Y52591D01*
X-214694D01*
Y61166D02*
Y60766D01*
X-213895D01*
Y61166D01*
X-213494D01*
Y61966D01*
X-213895D01*
Y62366D01*
X-214694D01*
Y61966D01*
X-215094D01*
Y61166D01*
X-214694D01*
Y46874D02*
Y46474D01*
X-213895D01*
Y46874D01*
X-213494D01*
Y47674D01*
X-213895D01*
Y48074D01*
X-214694D01*
Y47674D01*
X-215094D01*
Y46874D01*
X-214694D01*
Y55449D02*
Y55049D01*
X-213895D01*
Y55449D01*
X-213494D01*
Y56249D01*
X-213895D01*
Y56649D01*
X-214694D01*
Y56249D01*
X-215094D01*
Y55449D01*
X-214694D01*
Y58307D02*
Y57907D01*
X-213895D01*
Y58307D01*
X-213494D01*
Y59107D01*
X-213895D01*
Y59507D01*
X-214694D01*
Y59107D01*
X-215094D01*
Y58307D01*
X-214694D01*
Y64024D02*
Y63624D01*
X-213895D01*
Y64024D01*
X-213494D01*
Y64824D01*
X-213895D01*
Y65224D01*
X-214694D01*
Y64824D01*
X-215094D01*
Y64024D01*
X-214694D01*
Y66882D02*
Y66482D01*
X-213895D01*
Y66882D01*
X-213494D01*
Y67682D01*
X-213895D01*
Y68082D01*
X-214694D01*
Y67682D01*
X-215094D01*
Y66882D01*
X-214694D01*
Y69741D02*
Y69341D01*
X-213895D01*
Y69741D01*
X-213494D01*
Y70541D01*
X-213895D01*
Y70941D01*
X-214694D01*
Y70541D01*
X-215094D01*
Y69741D01*
X-214694D01*
X-321920Y184802D02*
X-321520D01*
X-321121Y185202D01*
X-320721Y184802D01*
X-320321D01*
Y185202D01*
X-320721Y185602D01*
X-320321Y186002D01*
Y186402D01*
X-320721D01*
X-321121Y186002D01*
X-321520Y186402D01*
X-321920D01*
Y186002D01*
X-321520Y185602D01*
X-321920Y185202D01*
Y184802D01*
X-324820D02*
X-324420D01*
X-324021Y185202D01*
X-323621Y184802D01*
X-323220D01*
Y185202D01*
X-323621Y185602D01*
X-323220Y186002D01*
Y186402D01*
X-323621D01*
X-324021Y186002D01*
X-324420Y186402D01*
X-324820D01*
Y186002D01*
X-324420Y185602D01*
X-324820Y185202D01*
Y184802D01*
X-327720D02*
X-327321D01*
X-326921Y185202D01*
X-326520Y184802D01*
X-326120D01*
Y185202D01*
X-326520Y185602D01*
X-326120Y186002D01*
Y186402D01*
X-326520D01*
X-326921Y186002D01*
X-327321Y186402D01*
X-327720D01*
Y186002D01*
X-327321Y185602D01*
X-327720Y185202D01*
Y184802D01*
X9454Y33300D02*
Y32900D01*
X10254D01*
Y33300D01*
X10654D01*
Y34100D01*
X10254D01*
Y34500D01*
X9454D01*
Y34100D01*
X9053D01*
Y33300D01*
X9454D01*
X12454D02*
Y32900D01*
X13253D01*
Y33300D01*
X13654D01*
Y34100D01*
X13253D01*
Y34500D01*
X12454D01*
Y34100D01*
X12054D01*
Y33300D01*
X12454D01*
X1753Y36823D02*
Y36423D01*
X2554D01*
Y36823D01*
X2953D01*
Y37623D01*
X2554D01*
Y38023D01*
X1753D01*
Y37623D01*
X1354D01*
Y36823D01*
X1753D01*
Y39346D02*
Y38946D01*
X2554D01*
Y39346D01*
X2953D01*
Y40146D01*
X2554D01*
Y40546D01*
X1753D01*
Y40146D01*
X1354D01*
Y39346D01*
X1753D01*
Y41869D02*
Y41469D01*
X2554D01*
Y41869D01*
X2953D01*
Y42669D01*
X2554D01*
Y43069D01*
X1753D01*
Y42669D01*
X1354D01*
Y41869D01*
X1753D01*
Y44392D02*
Y43992D01*
X2554D01*
Y44392D01*
X2953D01*
Y45192D01*
X2554D01*
Y45592D01*
X1753D01*
Y45192D01*
X1354D01*
Y44392D01*
X1753D01*
Y46915D02*
Y46515D01*
X2554D01*
Y46915D01*
X2953D01*
Y47715D01*
X2554D01*
Y48115D01*
X1753D01*
Y47715D01*
X1354D01*
Y46915D01*
X1753D01*
Y49438D02*
Y49038D01*
X2554D01*
Y49438D01*
X2953D01*
Y50238D01*
X2554D01*
Y50638D01*
X1753D01*
Y50238D01*
X1354D01*
Y49438D01*
X1753D01*
X-1737Y75500D02*
Y75100D01*
X-937D01*
Y75500D01*
X-537D01*
Y76300D01*
X-937D01*
Y76700D01*
X-1737D01*
Y76300D01*
X-2137D01*
Y75500D01*
X-1737D01*
X-48545Y77081D02*
Y76681D01*
X-47745D01*
Y77081D01*
X-47345D01*
Y77881D01*
X-47745D01*
Y78281D01*
X-48545D01*
Y77881D01*
X-48945D01*
Y77081D01*
X-48545D01*
Y74462D02*
Y74062D01*
X-47745D01*
Y74462D01*
X-47345D01*
Y75262D01*
X-47745D01*
Y75662D01*
X-48545D01*
Y75262D01*
X-48945D01*
Y74462D01*
X-48545D01*
X-26645Y75500D02*
Y75100D01*
X-25845D01*
Y75500D01*
X-25445D01*
Y76300D01*
X-25845D01*
Y76700D01*
X-26645D01*
Y76300D01*
X-27045D01*
Y75500D01*
X-26645D01*
X-29245Y79800D02*
Y79400D01*
X-28445D01*
Y79800D01*
X-28045D01*
Y80600D01*
X-28445D01*
Y81000D01*
X-29245D01*
Y80600D01*
X-29645D01*
Y79800D01*
X-29245D01*
X-190047Y171900D02*
X-189646Y172700D01*
X-190047Y173500D01*
X-189246Y173100D01*
X-188446Y173500D01*
X-188847Y172700D01*
X-188446Y171900D01*
X-189246Y172300D01*
X-190047Y171900D01*
X-165995Y138699D02*
X-165594Y139499D01*
X-165995Y140299D01*
X-165194Y139899D01*
X-164394Y140299D01*
X-164795Y139499D01*
X-164394Y138699D01*
X-165194Y139099D01*
X-165995Y138699D01*
X-144794Y167499D02*
X-144395Y168299D01*
X-144794Y169099D01*
X-143994Y168699D01*
X-143194Y169099D01*
X-143595Y168299D01*
X-143194Y167499D01*
X-143994Y167899D01*
X-144794Y167499D01*
X-94695Y135399D02*
X-94295Y136199D01*
X-94695Y136999D01*
X-93894Y136599D01*
X-93094Y136999D01*
X-93494Y136199D01*
X-93094Y135399D01*
X-93894Y135799D01*
X-94695Y135399D01*
X-287943Y148092D02*
X-287543Y148892D01*
X-287943Y149692D01*
X-287143Y149292D01*
X-286343Y149692D01*
X-286743Y148892D01*
X-286343Y148092D01*
X-287143Y148492D01*
X-287943Y148092D01*
X-122930Y146499D02*
X-122130Y147299D01*
X-121330Y146499D01*
X-122130Y145699D01*
X-122930Y146499D01*
X-189745Y106183D02*
X-189345Y106983D01*
X-189745Y107783D01*
X-188945Y107383D01*
X-188145Y107783D01*
X-188545Y106983D01*
X-188145Y106183D01*
X-188945Y106583D01*
X-189745Y106183D01*
X-32502Y64283D02*
X-32102Y65083D01*
X-32502Y65883D01*
X-31702Y65483D01*
X-30902Y65883D01*
X-31302Y65083D01*
X-30902Y64283D01*
X-31702Y64683D01*
X-32502Y64283D01*
X-109989Y154531D02*
X-109589Y155331D01*
X-109989Y156131D01*
X-109189Y155731D01*
X-108389Y156131D01*
X-108789Y155331D01*
X-108389Y154531D01*
X-109189Y154931D01*
X-109989Y154531D01*
X-275543Y154192D02*
X-275143Y154992D01*
X-275543Y155792D01*
X-274743Y155392D01*
X-273943Y155792D01*
X-274343Y154992D01*
X-273943Y154192D01*
X-274743Y154592D01*
X-275543Y154192D01*
X-278643Y151192D02*
X-278243Y151992D01*
X-278643Y152792D01*
X-277843Y152392D01*
X-277043Y152792D01*
X-277443Y151992D01*
X-277043Y151192D01*
X-277843Y151592D01*
X-278643Y151192D01*
X-281543Y148192D02*
X-281143Y148992D01*
X-281543Y149792D01*
X-280743Y149392D01*
X-279943Y149792D01*
X-280343Y148992D01*
X-279943Y148192D01*
X-280743Y148592D01*
X-281543Y148192D01*
X-272645Y177274D02*
X-272245Y178074D01*
X-272645Y178874D01*
X-271845Y178474D01*
X-271045Y178874D01*
X-271445Y178074D01*
X-271045Y177274D01*
X-271845Y177674D01*
X-272645Y177274D01*
X-26645Y78174D02*
Y77774D01*
X-25845D01*
Y78174D01*
X-25445D01*
Y78974D01*
X-25845D01*
Y79374D01*
X-26645D01*
Y78974D01*
X-27045D01*
Y78174D01*
X-26645D01*
X753Y75500D02*
Y75100D01*
X1553D01*
Y75500D01*
X1953D01*
Y76300D01*
X1553D01*
Y76700D01*
X753D01*
Y76300D01*
X353D01*
Y75500D01*
X753D01*
X800Y73400D02*
Y73000D01*
X1600D01*
Y73400D01*
X2000D01*
Y74200D01*
X1600D01*
Y74600D01*
X800D01*
Y74200D01*
X400D01*
Y73400D01*
X800D01*
X1753Y34300D02*
Y33900D01*
X2554D01*
Y34300D01*
X2953D01*
Y35100D01*
X2554D01*
Y35500D01*
X1753D01*
Y35100D01*
X1354D01*
Y34300D01*
X1753D01*
X6605Y33299D02*
Y32899D01*
X7406D01*
Y33299D01*
X7806D01*
Y34099D01*
X7406D01*
Y34499D01*
X6605D01*
Y34099D01*
X6205D01*
Y33299D01*
X6605D01*
X1753Y51961D02*
Y51561D01*
X2554D01*
Y51961D01*
X2953D01*
Y52762D01*
X2554D01*
Y53162D01*
X1753D01*
Y52762D01*
X1354D01*
Y51961D01*
X1753D01*
X-8046Y47400D02*
Y47000D01*
X-7247D01*
Y47400D01*
X-6847D01*
Y48200D01*
X-7247D01*
Y48600D01*
X-8046D01*
Y48200D01*
X-8446D01*
Y47400D01*
X-8046D01*
X-6746Y45300D02*
Y44900D01*
X-5946D01*
Y45300D01*
X-5547D01*
Y46100D01*
X-5946D01*
Y46500D01*
X-6746D01*
Y46100D01*
X-7147D01*
Y45300D01*
X-6746D01*
X-48545Y69199D02*
Y68799D01*
X-47745D01*
Y69199D01*
X-47345D01*
Y69999D01*
X-47745D01*
Y70399D01*
X-48545D01*
Y69999D01*
X-48945D01*
Y69199D01*
X-48545D01*
X-283830Y9699D02*
X-283030Y10499D01*
X-282230Y9699D01*
X-283030Y8899D01*
X-283830Y9699D01*
X-93202Y19031D02*
X-92802Y19831D01*
X-93202Y20631D01*
X-92402Y20231D01*
X-91602Y20631D01*
X-92002Y19831D01*
X-91602Y19031D01*
X-92402Y19431D01*
X-93202Y19031D01*
X-100646Y19100D02*
Y18700D01*
X-99847D01*
Y19100D01*
X-99446D01*
Y19900D01*
X-99847D01*
Y20300D01*
X-100646D01*
Y19900D01*
X-101047D01*
Y19100D01*
X-100646D01*
X-234702Y47531D02*
X-234302Y48331D01*
X-234702Y49131D01*
X-233902Y48731D01*
X-233102Y49131D01*
X-233502Y48331D01*
X-233102Y47531D01*
X-233902Y47931D01*
X-234702Y47531D01*
X-98202Y172083D02*
X-97402Y172883D01*
X-96602Y172083D01*
X-97402Y171283D01*
X-98202Y172083D01*
X-67194Y170999D02*
X-66795Y171799D01*
X-67194Y172599D01*
X-66395Y172199D01*
X-65595Y172599D01*
X-65995Y171799D01*
X-65595Y170999D01*
X-66395Y171399D01*
X-67194Y170999D01*
X-69717Y185515D02*
X-69317Y186315D01*
X-69717Y187115D01*
X-68917Y186715D01*
X-68117Y187115D01*
X-68517Y186315D01*
X-68117Y185515D01*
X-68917Y185915D01*
X-69717Y185515D01*
X1753Y54485D02*
Y54085D01*
X2554D01*
Y54485D01*
X2953D01*
Y55285D01*
X2554D01*
Y55685D01*
X1753D01*
Y55285D01*
X1354D01*
Y54485D01*
X1753D01*
X-12447Y54000D02*
Y53600D01*
X-11647D01*
Y54000D01*
X-11247D01*
Y54800D01*
X-11647D01*
Y55200D01*
X-12447D01*
Y54800D01*
X-12846D01*
Y54000D01*
X-12447D01*
X1753Y57008D02*
Y56608D01*
X2554D01*
Y57008D01*
X2953D01*
Y57808D01*
X2554D01*
Y58208D01*
X1753D01*
Y57808D01*
X1354D01*
Y57008D01*
X1753D01*
Y59531D02*
Y59131D01*
X2554D01*
Y59531D01*
X2953D01*
Y60331D01*
X2554D01*
Y60731D01*
X1753D01*
Y60331D01*
X1354D01*
Y59531D01*
X1753D01*
Y62054D02*
Y61654D01*
X2554D01*
Y62054D01*
X2953D01*
Y62854D01*
X2554D01*
Y63254D01*
X1753D01*
Y62854D01*
X1354D01*
Y62054D01*
X1753D01*
Y64577D02*
Y64177D01*
X2554D01*
Y64577D01*
X2953D01*
Y65377D01*
X2554D01*
Y65777D01*
X1753D01*
Y65377D01*
X1354D01*
Y64577D01*
X1753D01*
X-74702Y168369D02*
X-74302Y169169D01*
X-74702Y169969D01*
X-73902Y169569D01*
X-73102Y169969D01*
X-73502Y169169D01*
X-73102Y168369D01*
X-73902Y168769D01*
X-74702Y168369D01*
X-82702Y167531D02*
X-82302Y168331D01*
X-82702Y169131D01*
X-81902Y168731D01*
X-81102Y169131D01*
X-81502Y168331D01*
X-81102Y167531D01*
X-81902Y167931D01*
X-82702Y167531D01*
X-95418Y23114D02*
X-94618Y23914D01*
X-93818Y23114D01*
X-94618Y22314D01*
X-95418Y23114D01*
X-77447Y123400D02*
X-77047Y124200D01*
X-77447Y125000D01*
X-76647Y124600D01*
X-75846Y125000D01*
X-76247Y124200D01*
X-75846Y123400D01*
X-76647Y123800D01*
X-77447Y123400D01*
X-99195Y153299D02*
X-98795Y154099D01*
X-99195Y154899D01*
X-98395Y154499D01*
X-97594Y154899D01*
X-97995Y154099D01*
X-97594Y153299D01*
X-98395Y153699D01*
X-99195Y153299D01*
X-115502Y20283D02*
X-115102D01*
X-114702Y20684D01*
X-114302Y20283D01*
X-113902D01*
Y20684D01*
X-114302Y21083D01*
X-113902Y21484D01*
Y21883D01*
X-114302D01*
X-114702Y21484D01*
X-115102Y21883D01*
X-115502D01*
Y21484D01*
X-115102Y21083D01*
X-115502Y20684D01*
Y20283D01*
X-198702Y88531D02*
X-198302Y89331D01*
X-198702Y90131D01*
X-197902Y89731D01*
X-197102Y90131D01*
X-197502Y89331D01*
X-197102Y88531D01*
X-197902Y88931D01*
X-198702Y88531D01*
X-48046Y150300D02*
X-47646Y151100D01*
X-48046Y151900D01*
X-47247Y151500D01*
X-46446Y151900D01*
X-46847Y151100D01*
X-46446Y150300D01*
X-47247Y150700D01*
X-48046Y150300D01*
X-250346Y6300D02*
X-249946D01*
X-249547Y6700D01*
X-249147Y6300D01*
X-248746D01*
Y6700D01*
X-249147Y7100D01*
X-248746Y7500D01*
Y7900D01*
X-249147D01*
X-249547Y7500D01*
X-249946Y7900D01*
X-250346D01*
Y7500D01*
X-249946Y7100D01*
X-250346Y6700D01*
Y6300D01*
X-260702Y62031D02*
X-260302Y62831D01*
X-260702Y63631D01*
X-259902Y63231D01*
X-259102Y63631D01*
X-259502Y62831D01*
X-259102Y62031D01*
X-259902Y62431D01*
X-260702Y62031D01*
X-225565Y113283D02*
X-225165Y114083D01*
X-225565Y114883D01*
X-224765Y114483D01*
X-223965Y114883D01*
X-224365Y114083D01*
X-223965Y113283D01*
X-224765Y113683D01*
X-225565Y113283D01*
X-220202Y117031D02*
X-219802Y117831D01*
X-220202Y118631D01*
X-219402Y118231D01*
X-218602Y118631D01*
X-219002Y117831D01*
X-218602Y117031D01*
X-219402Y117431D01*
X-220202Y117031D01*
X-260665Y78983D02*
X-260265Y79783D01*
X-260665Y80583D01*
X-259865Y80183D01*
X-259065Y80583D01*
X-259465Y79783D01*
X-259065Y78983D01*
X-259865Y79383D01*
X-260665Y78983D01*
X-153202Y60031D02*
X-152802Y60831D01*
X-153202Y61631D01*
X-152402Y61231D01*
X-151602Y61631D01*
X-152002Y60831D01*
X-151602Y60031D01*
X-152402Y60431D01*
X-153202Y60031D01*
X-153702Y49531D02*
X-153302Y50331D01*
X-153702Y51131D01*
X-152902Y50731D01*
X-152102Y51131D01*
X-152502Y50331D01*
X-152102Y49531D01*
X-152902Y49931D01*
X-153702Y49531D01*
X-152702Y47531D02*
X-152302Y48331D01*
X-152702Y49131D01*
X-151902Y48731D01*
X-151102Y49131D01*
X-151502Y48331D01*
X-151102Y47531D01*
X-151902Y47931D01*
X-152702Y47531D01*
X-153165Y38183D02*
X-152765Y38983D01*
X-153165Y39783D01*
X-152365Y39383D01*
X-151565Y39783D01*
X-151965Y38983D01*
X-151565Y38183D01*
X-152365Y38583D01*
X-153165Y38183D01*
X-149702Y44531D02*
X-149302Y45331D01*
X-149702Y46131D01*
X-148902Y45731D01*
X-148102Y46131D01*
X-148502Y45331D01*
X-148102Y44531D01*
X-148902Y44931D01*
X-149702Y44531D01*
X-151202Y46031D02*
X-150802Y46831D01*
X-151202Y47631D01*
X-150402Y47231D01*
X-149602Y47631D01*
X-150002Y46831D01*
X-149602Y46031D01*
X-150402Y46431D01*
X-151202Y46031D01*
X-249002Y40163D02*
X-248602Y40963D01*
X-249002Y41763D01*
X-248202Y41363D01*
X-247402Y41763D01*
X-247802Y40963D01*
X-247402Y40163D01*
X-248202Y40563D01*
X-249002Y40163D01*
X-191702Y105531D02*
X-191302Y106331D01*
X-191702Y107131D01*
X-190902Y106731D01*
X-190102Y107131D01*
X-190502Y106331D01*
X-190102Y105531D01*
X-190902Y105931D01*
X-191702Y105531D01*
X-74702Y173031D02*
X-74302Y173831D01*
X-74702Y174631D01*
X-73902Y174231D01*
X-73102Y174631D01*
X-73502Y173831D01*
X-73102Y173031D01*
X-73902Y173431D01*
X-74702Y173031D01*
X-302743Y121592D02*
X-302343Y122392D01*
X-302743Y123192D01*
X-301943Y122792D01*
X-301143Y123192D01*
X-301543Y122392D01*
X-301143Y121592D01*
X-301943Y121992D01*
X-302743Y121592D01*
X-280501Y110367D02*
X-280101Y111167D01*
X-280501Y111967D01*
X-279701Y111567D01*
X-278901Y111967D01*
X-279301Y111167D01*
X-278901Y110367D01*
X-279701Y110767D01*
X-280501Y110367D01*
X-191546Y110500D02*
X-191147Y111300D01*
X-191546Y112100D01*
X-190746Y111700D01*
X-189946Y112100D01*
X-190347Y111300D01*
X-189946Y110500D01*
X-190746Y110900D01*
X-191546Y110500D01*
X-139665Y33483D02*
X-139265Y34283D01*
X-139665Y35083D01*
X-138865Y34683D01*
X-138065Y35083D01*
X-138465Y34283D01*
X-138065Y33483D01*
X-138865Y33883D01*
X-139665Y33483D01*
X-143365Y36583D02*
X-142965Y37383D01*
X-143365Y38183D01*
X-142565Y37783D01*
X-141765Y38183D01*
X-142165Y37383D01*
X-141765Y36583D01*
X-142565Y36983D01*
X-143365Y36583D01*
X-79245Y99874D02*
Y99474D01*
X-78445D01*
Y99874D01*
X-78045D01*
Y100674D01*
X-78445D01*
Y101074D01*
X-79245D01*
Y100674D01*
X-79645D01*
Y99874D01*
X-79245D01*
X-202608Y114884D02*
Y114484D01*
X-201808D01*
Y114884D01*
X-201408D01*
Y115684D01*
X-201808D01*
Y116084D01*
X-202608D01*
Y115684D01*
X-203008D01*
Y114884D01*
X-202608D01*
X-281957Y89699D02*
X-281557Y90499D01*
X-281957Y91299D01*
X-281157Y90899D01*
X-280357Y91299D01*
X-280757Y90499D01*
X-280357Y89699D01*
X-281157Y90099D01*
X-281957Y89699D01*
X-277503Y94153D02*
X-277103Y94953D01*
X-277503Y95753D01*
X-276703Y95353D01*
X-275903Y95753D01*
X-276303Y94953D01*
X-275903Y94153D01*
X-276703Y94553D01*
X-277503Y94153D01*
X-273049Y98607D02*
X-272649Y99407D01*
X-273049Y100207D01*
X-272249Y99807D01*
X-271449Y100207D01*
X-271849Y99407D01*
X-271449Y98607D01*
X-272249Y99007D01*
X-273049Y98607D01*
X-259686Y111970D02*
X-259286Y112770D01*
X-259686Y113570D01*
X-258886Y113170D01*
X-258086Y113570D01*
X-258486Y112770D01*
X-258086Y111970D01*
X-258886Y112370D01*
X-259686Y111970D01*
X-261743Y109592D02*
X-261343Y110392D01*
X-261743Y111192D01*
X-260943Y110792D01*
X-260143Y111192D01*
X-260543Y110392D01*
X-260143Y109592D01*
X-260943Y109992D01*
X-261743Y109592D01*
X-265607Y115492D02*
X-265207Y116292D01*
X-265607Y117092D01*
X-264807Y116692D01*
X-264007Y117092D01*
X-264407Y116292D01*
X-264007Y115492D01*
X-264807Y115892D01*
X-265607Y115492D01*
X-272365Y130983D02*
X-271965Y131783D01*
X-272365Y132583D01*
X-271565Y132183D01*
X-270765Y132583D01*
X-271165Y131783D01*
X-270765Y130983D01*
X-271565Y131383D01*
X-272365Y130983D01*
X-261011Y119837D02*
X-260611Y120637D01*
X-261011Y121437D01*
X-260211Y121037D01*
X-259411Y121437D01*
X-259811Y120637D01*
X-259411Y119837D01*
X-260211Y120237D01*
X-261011Y119837D01*
X-248636Y123191D02*
X-248236Y123991D01*
X-248636Y124791D01*
X-247836Y124391D01*
X-247036Y124791D01*
X-247436Y123991D01*
X-247036Y123191D01*
X-247836Y123591D01*
X-248636Y123191D01*
X-237043Y104992D02*
X-236643Y105792D01*
X-237043Y106592D01*
X-236243Y106192D01*
X-235443Y106592D01*
X-235843Y105792D01*
X-235443Y104992D01*
X-236243Y105392D01*
X-237043Y104992D01*
X-250778Y120878D02*
X-250378Y121678D01*
X-250778Y122478D01*
X-249978Y122078D01*
X-249178Y122478D01*
X-249578Y121678D01*
X-249178Y120878D01*
X-249978Y121278D01*
X-250778Y120878D01*
X-263465Y135614D02*
X-263065Y136414D01*
X-263465Y137214D01*
X-262665Y136814D01*
X-261865Y137214D01*
X-262265Y136414D01*
X-261865Y135614D01*
X-262665Y136014D01*
X-263465Y135614D01*
X-263443Y122392D02*
X-263043Y123192D01*
X-263443Y123992D01*
X-262643Y123592D01*
X-261843Y123992D01*
X-262243Y123192D01*
X-261843Y122392D01*
X-262643Y122792D01*
X-263443Y122392D01*
X-269970Y141959D02*
X-269570Y142759D01*
X-269970Y143559D01*
X-269170Y143159D01*
X-268370Y143559D01*
X-268770Y142759D01*
X-268370Y141959D01*
X-269170Y142359D01*
X-269970Y141959D01*
X-282261Y130090D02*
X-281861Y130890D01*
X-282261Y131690D01*
X-281461Y131290D01*
X-280661Y131690D01*
X-281061Y130890D01*
X-280661Y130090D01*
X-281461Y130490D01*
X-282261Y130090D01*
X-276184Y112292D02*
X-275784Y113092D01*
X-276184Y113892D01*
X-275384Y113492D01*
X-274584Y113892D01*
X-274984Y113092D01*
X-274584Y112292D01*
X-275384Y112692D01*
X-276184Y112292D01*
X-281163Y122312D02*
X-280763Y123112D01*
X-281163Y123912D01*
X-280363Y123512D01*
X-279563Y123912D01*
X-279963Y123112D01*
X-279563Y122312D01*
X-280363Y122712D01*
X-281163Y122312D01*
X-277947Y134686D02*
X-277547Y135486D01*
X-277947Y136286D01*
X-277147Y135886D01*
X-276347Y136286D01*
X-276747Y135486D01*
X-276347Y134686D01*
X-277147Y135086D01*
X-277947Y134686D01*
X-284343Y141592D02*
X-283943Y142392D01*
X-284343Y143192D01*
X-283543Y142792D01*
X-282743Y143192D01*
X-283143Y142392D01*
X-282743Y141592D01*
X-283543Y141992D01*
X-284343Y141592D01*
X-287755Y116004D02*
X-287355Y116804D01*
X-287755Y117604D01*
X-286955Y117204D01*
X-286155Y117604D01*
X-286555Y116804D01*
X-286155Y116004D01*
X-286955Y116404D01*
X-287755Y116004D01*
X-297884Y114534D02*
X-297484Y115334D01*
X-297884Y116134D01*
X-297084Y115734D01*
X-296284Y116134D01*
X-296684Y115334D01*
X-296284Y114534D01*
X-297084Y114934D01*
X-297884Y114534D01*
X-315643Y104992D02*
X-315243Y105792D01*
X-315643Y106592D01*
X-314843Y106192D01*
X-314043Y106592D01*
X-314443Y105792D01*
X-314043Y104992D01*
X-314843Y105392D01*
X-315643Y104992D01*
X-312843Y108292D02*
X-312443Y109092D01*
X-312843Y109892D01*
X-312043Y109492D01*
X-311243Y109892D01*
X-311643Y109092D01*
X-311243Y108292D01*
X-312043Y108692D01*
X-312843Y108292D01*
X-306843Y114292D02*
X-306443Y115092D01*
X-306843Y115892D01*
X-306043Y115492D01*
X-305243Y115892D01*
X-305643Y115092D01*
X-305243Y114292D01*
X-306043Y114692D01*
X-306843Y114292D01*
X-302377Y110118D02*
X-301977Y110918D01*
X-302377Y111718D01*
X-301577Y111318D01*
X-300777Y111718D01*
X-301177Y110918D01*
X-300777Y110118D01*
X-301577Y110518D01*
X-302377Y110118D01*
X-293538Y119096D02*
X-293138Y119896D01*
X-293538Y120696D01*
X-292738Y120296D01*
X-291938Y120696D01*
X-292338Y119896D01*
X-291938Y119096D01*
X-292738Y119496D01*
X-293538Y119096D01*
X-309943Y111292D02*
X-309543Y112092D01*
X-309943Y112892D01*
X-309143Y112492D01*
X-308343Y112892D01*
X-308743Y112092D01*
X-308343Y111292D01*
X-309143Y111692D01*
X-309943Y111292D01*
X-305843Y125292D02*
X-305443Y126092D01*
X-305843Y126892D01*
X-305043Y126492D01*
X-304243Y126892D01*
X-304643Y126092D01*
X-304243Y125292D01*
X-305043Y125692D01*
X-305843Y125292D01*
X-302443Y128492D02*
X-302043Y129292D01*
X-302443Y130092D01*
X-301643Y129692D01*
X-300843Y130092D01*
X-301243Y129292D01*
X-300843Y128492D01*
X-301643Y128892D01*
X-302443Y128492D01*
X-299443Y131492D02*
X-299043Y132292D01*
X-299443Y133092D01*
X-298643Y132692D01*
X-297843Y133092D01*
X-298243Y132292D01*
X-297843Y131492D01*
X-298643Y131892D01*
X-299443Y131492D01*
X-299965Y112183D02*
X-299565Y112983D01*
X-299965Y113783D01*
X-299165Y113383D01*
X-298365Y113783D01*
X-298765Y112983D01*
X-298365Y112183D01*
X-299165Y112583D01*
X-299965Y112183D01*
X-279749Y91946D02*
X-279349Y92746D01*
X-279749Y93546D01*
X-278949Y93146D01*
X-278149Y93546D01*
X-278549Y92746D01*
X-278149Y91946D01*
X-278949Y92346D01*
X-279749Y91946D01*
X-275275Y96380D02*
X-274875Y97180D01*
X-275275Y97980D01*
X-274475Y97580D01*
X-273675Y97980D01*
X-274075Y97180D01*
X-273675Y96380D01*
X-274475Y96780D01*
X-275275Y96380D01*
X-264140Y107516D02*
X-263740Y108316D01*
X-264140Y109116D01*
X-263340Y108716D01*
X-262540Y109116D01*
X-262940Y108316D01*
X-262540Y107516D01*
X-263340Y107916D01*
X-264140Y107516D01*
X-257475Y114214D02*
X-257075Y115014D01*
X-257475Y115814D01*
X-256675Y115414D01*
X-255875Y115814D01*
X-256275Y115014D01*
X-255875Y114214D01*
X-256675Y114614D01*
X-257475Y114214D01*
X-253004Y118651D02*
X-252604Y119451D01*
X-253004Y120251D01*
X-252204Y119851D01*
X-251404Y120251D01*
X-251804Y119451D01*
X-251404Y118651D01*
X-252204Y119051D01*
X-253004Y118651D01*
X-280103Y132387D02*
X-279703Y133187D01*
X-280103Y133987D01*
X-279303Y133587D01*
X-278503Y133987D01*
X-278903Y133187D01*
X-278503Y132387D01*
X-279303Y132787D01*
X-280103Y132387D01*
X-269739Y133558D02*
X-269339Y134358D01*
X-269739Y135158D01*
X-268939Y134758D01*
X-268139Y135158D01*
X-268539Y134358D01*
X-268139Y133558D01*
X-268939Y133958D01*
X-269739Y133558D01*
X-255232Y116424D02*
X-254832Y117224D01*
X-255232Y118024D01*
X-254432Y117624D01*
X-253632Y118024D01*
X-254032Y117224D01*
X-253632Y116424D01*
X-254432Y116824D01*
X-255232Y116424D01*
X-265792Y137830D02*
X-265392Y138630D01*
X-265792Y139430D01*
X-264992Y139030D01*
X-264192Y139430D01*
X-264592Y138630D01*
X-264192Y137830D01*
X-264992Y138230D01*
X-265792Y137830D01*
X-272165Y104514D02*
X-271765Y105314D01*
X-272165Y106114D01*
X-271365Y105714D01*
X-270565Y106114D01*
X-270965Y105314D01*
X-270565Y104514D01*
X-271365Y104914D01*
X-272165Y104514D01*
X-269243Y116992D02*
X-268843Y117792D01*
X-269243Y118592D01*
X-268443Y118192D01*
X-267643Y118592D01*
X-268043Y117792D01*
X-267643Y116992D01*
X-268443Y117392D01*
X-269243Y116992D01*
X-283490Y119996D02*
X-283090Y120796D01*
X-283490Y121596D01*
X-282690Y121196D01*
X-281890Y121596D01*
X-282290Y120796D01*
X-281890Y119996D01*
X-282690Y120396D01*
X-283490Y119996D01*
X-314243Y121592D02*
X-313843Y122392D01*
X-314243Y123192D01*
X-313443Y122792D01*
X-312643Y123192D01*
X-313043Y122392D01*
X-312643Y121592D01*
X-313443Y121992D01*
X-314243Y121592D01*
X-283285Y124433D02*
X-282885Y125233D01*
X-283285Y126033D01*
X-282485Y125633D01*
X-281685Y126033D01*
X-282085Y125233D01*
X-281685Y124433D01*
X-282485Y124833D01*
X-283285Y124433D01*
X-295659Y116764D02*
X-295259Y117564D01*
X-295659Y118364D01*
X-294859Y117964D01*
X-294059Y118364D01*
X-294459Y117564D01*
X-294059Y116764D01*
X-294859Y117164D01*
X-295659Y116764D01*
X-250201Y126677D02*
X-249801Y127477D01*
X-250201Y128277D01*
X-249401Y127877D01*
X-248601Y128277D01*
X-249001Y127477D01*
X-248601Y126677D01*
X-249401Y127077D01*
X-250201Y126677D01*
X-293555Y140804D02*
X-293155Y141604D01*
X-293555Y142404D01*
X-292755Y142004D01*
X-291955Y142404D01*
X-292355Y141604D01*
X-291955Y140804D01*
X-292755Y141204D01*
X-293555Y140804D01*
X-284443Y151492D02*
Y151092D01*
X-283643D01*
Y151492D01*
X-283243D01*
Y152292D01*
X-283643D01*
Y152692D01*
X-284443D01*
Y152292D01*
X-284843D01*
Y151492D01*
X-284443D01*
X-266843Y144492D02*
X-266443Y145292D01*
X-266843Y146092D01*
X-266043Y145692D01*
X-265243Y146092D01*
X-265643Y145292D01*
X-265243Y144492D01*
X-266043Y144892D01*
X-266843Y144492D01*
X-280905Y112530D02*
X-280505Y113330D01*
X-280905Y114130D01*
X-280105Y113730D01*
X-279305Y114130D01*
X-279705Y113330D01*
X-279305Y112530D01*
X-280105Y112930D01*
X-280905Y112530D01*
X-285743Y128092D02*
X-285343Y128892D01*
X-285743Y129692D01*
X-284943Y129292D01*
X-284143Y129692D01*
X-284543Y128892D01*
X-284143Y128092D01*
X-284943Y128492D01*
X-285743Y128092D01*
X-189847Y112000D02*
X-189446Y112800D01*
X-189847Y113600D01*
X-189047Y113200D01*
X-188247Y113600D01*
X-188646Y112800D01*
X-188247Y112000D01*
X-189047Y112400D01*
X-189847Y112000D01*
X-184556Y137705D02*
X-184156Y138505D01*
X-184556Y139305D01*
X-183756Y138905D01*
X-182956Y139305D01*
X-183356Y138505D01*
X-182956Y137705D01*
X-183756Y138105D01*
X-184556Y137705D01*
X-184547Y129288D02*
X-184147Y130088D01*
X-184547Y130888D01*
X-183747Y130488D01*
X-182947Y130888D01*
X-183347Y130088D01*
X-182947Y129288D01*
X-183747Y129688D01*
X-184547Y129288D01*
X-74702Y170531D02*
X-74302Y171331D01*
X-74702Y172131D01*
X-73902Y171731D01*
X-73102Y172131D01*
X-73502Y171331D01*
X-73102Y170531D01*
X-73902Y170931D01*
X-74702Y170531D01*
X-252995Y46923D02*
X-252195Y47723D01*
X-251395Y46923D01*
X-252195Y46123D01*
X-252995Y46923D01*
X-191565Y22031D02*
X-191165Y22831D01*
X-191565Y23631D01*
X-190765Y23231D01*
X-189965Y23631D01*
X-190365Y22831D01*
X-189965Y22031D01*
X-190765Y22431D01*
X-191565Y22031D01*
X-153202Y25157D02*
X-152802Y25957D01*
X-153202Y26757D01*
X-152402Y26357D01*
X-151602Y26757D01*
X-152002Y25957D01*
X-151602Y25157D01*
X-152402Y25557D01*
X-153202Y25157D01*
X-147702Y43031D02*
X-147302Y43831D01*
X-147702Y44631D01*
X-146902Y44231D01*
X-146102Y44631D01*
X-146502Y43831D01*
X-146102Y43031D01*
X-146902Y43431D01*
X-147702Y43031D01*
X-144950Y39782D02*
X-144550Y40582D01*
X-144950Y41382D01*
X-144150Y40982D01*
X-143350Y41382D01*
X-143750Y40582D01*
X-143350Y39782D01*
X-144150Y40182D01*
X-144950Y39782D01*
X-153202Y87031D02*
X-152802Y87831D01*
X-153202Y88631D01*
X-152402Y88231D01*
X-151602Y88631D01*
X-152002Y87831D01*
X-151602Y87031D01*
X-152402Y87431D01*
X-153202Y87031D01*
X-192670Y90799D02*
X-191870Y91599D01*
X-191070Y90799D01*
X-191870Y89999D01*
X-192670Y90799D01*
X-60146Y27800D02*
X-59746Y28600D01*
X-60146Y29400D01*
X-59346Y29000D01*
X-58547Y29400D01*
X-58947Y28600D01*
X-58547Y27800D01*
X-59346Y28200D01*
X-60146Y27800D01*
X-184543Y125092D02*
X-184143Y125892D01*
X-184543Y126692D01*
X-183743Y126292D01*
X-182943Y126692D01*
X-183343Y125892D01*
X-182943Y125092D01*
X-183743Y125492D01*
X-184543Y125092D01*
X-99202Y161031D02*
X-98802Y161831D01*
X-99202Y162631D01*
X-98402Y162231D01*
X-97602Y162631D01*
X-98002Y161831D01*
X-97602Y161031D01*
X-98402Y161431D01*
X-99202Y161031D01*
X-265195Y42599D02*
Y42199D01*
X-264394D01*
Y42599D01*
X-263995D01*
Y43399D01*
X-264394D01*
Y43799D01*
X-265195D01*
Y43399D01*
X-265595D01*
Y42599D01*
X-265195D01*
X-99395Y155968D02*
X-98994Y156768D01*
X-99395Y157568D01*
X-98594Y157168D01*
X-97795Y157568D01*
X-98194Y156768D01*
X-97795Y155968D01*
X-98594Y156368D01*
X-99395Y155968D01*
X-273992Y138715D02*
X-273592Y139515D01*
X-273992Y140315D01*
X-273192Y139915D01*
X-272392Y140315D01*
X-272792Y139515D01*
X-272392Y138715D01*
X-273192Y139115D01*
X-273992Y138715D01*
X-275615Y136807D02*
X-275215Y137607D01*
X-275615Y138407D01*
X-274815Y138007D01*
X-274015Y138407D01*
X-274415Y137607D01*
X-274015Y136807D01*
X-274815Y137207D01*
X-275615Y136807D01*
X-154505Y80727D02*
X-154105Y81527D01*
X-154505Y82327D01*
X-153705Y81927D01*
X-152905Y82327D01*
X-153305Y81527D01*
X-152905Y80727D01*
X-153705Y81127D01*
X-154505Y80727D01*
X-88202Y167531D02*
X-87802Y168331D01*
X-88202Y169131D01*
X-87402Y168731D01*
X-86602Y169131D01*
X-87002Y168331D01*
X-86602Y167531D01*
X-87402Y167931D01*
X-88202Y167531D01*
X-89702D02*
X-89302Y168331D01*
X-89702Y169131D01*
X-88902Y168731D01*
X-88102Y169131D01*
X-88502Y168331D01*
X-88102Y167531D01*
X-88902Y167931D01*
X-89702Y167531D01*
X-172495Y55423D02*
X-171695Y56223D01*
X-170895Y55423D01*
X-171695Y54623D01*
X-172495Y55423D01*
X-171702Y60783D02*
X-171302Y61583D01*
X-171702Y62383D01*
X-170902Y61983D01*
X-170102Y62383D01*
X-170502Y61583D01*
X-170102Y60783D01*
X-170902Y61183D01*
X-171702Y60783D01*
X-174202Y62531D02*
X-173802Y63331D01*
X-174202Y64131D01*
X-173402Y63731D01*
X-172602Y64131D01*
X-173002Y63331D01*
X-172602Y62531D01*
X-173402Y62931D01*
X-174202Y62531D01*
X-330902Y67410D02*
X-330502D01*
X-330102Y67810D01*
X-329702Y67410D01*
X-329302D01*
Y67810D01*
X-329702Y68210D01*
X-329302Y68610D01*
Y69010D01*
X-329702D01*
X-330102Y68610D01*
X-330502Y69010D01*
X-330902D01*
Y68610D01*
X-330502Y68210D01*
X-330902Y67810D01*
Y67410D01*
X-334202Y88261D02*
X-333802D01*
X-333402Y88661D01*
X-333002Y88261D01*
X-332602D01*
Y88661D01*
X-333002Y89061D01*
X-332602Y89461D01*
Y89861D01*
X-333002D01*
X-333402Y89461D01*
X-333802Y89861D01*
X-334202D01*
Y89461D01*
X-333802Y89061D01*
X-334202Y88661D01*
Y88261D01*
Y77300D02*
X-333802D01*
X-333402Y77700D01*
X-333002Y77300D01*
X-332602D01*
Y77700D01*
X-333002Y78100D01*
X-332602Y78500D01*
Y78900D01*
X-333002D01*
X-333402Y78500D01*
X-333802Y78900D01*
X-334202D01*
Y78500D01*
X-333802Y78100D01*
X-334202Y77700D01*
Y77300D01*
Y80954D02*
X-333802D01*
X-333402Y81354D01*
X-333002Y80954D01*
X-332602D01*
Y81354D01*
X-333002Y81754D01*
X-332602Y82154D01*
Y82554D01*
X-333002D01*
X-333402Y82154D01*
X-333802Y82554D01*
X-334202D01*
Y82154D01*
X-333802Y81754D01*
X-334202Y81354D01*
Y80954D01*
X-323743Y107092D02*
X-323343Y107892D01*
X-323743Y108692D01*
X-322943Y108292D01*
X-322143Y108692D01*
X-322543Y107892D01*
X-322143Y107092D01*
X-322943Y107492D01*
X-323743Y107092D01*
X-334202Y73646D02*
X-333802D01*
X-333402Y74046D01*
X-333002Y73646D01*
X-332602D01*
Y74046D01*
X-333002Y74446D01*
X-332602Y74846D01*
Y75246D01*
X-333002D01*
X-333402Y74846D01*
X-333802Y75246D01*
X-334202D01*
Y74846D01*
X-333802Y74446D01*
X-334202Y74046D01*
Y73646D01*
Y69992D02*
X-333802D01*
X-333402Y70392D01*
X-333002Y69992D01*
X-332602D01*
Y70392D01*
X-333002Y70792D01*
X-332602Y71192D01*
Y71592D01*
X-333002D01*
X-333402Y71192D01*
X-333802Y71592D01*
X-334202D01*
Y71192D01*
X-333802Y70792D01*
X-334202Y70392D01*
Y69992D01*
X1753Y67100D02*
Y66700D01*
X2554D01*
Y67100D01*
X2953D01*
Y67900D01*
X2554D01*
Y68300D01*
X1753D01*
Y67900D01*
X1354D01*
Y67100D01*
X1753D01*
X-313302Y134531D02*
X-312902D01*
X-312502Y134931D01*
X-312102Y134531D01*
X-311702D01*
Y134931D01*
X-312102Y135331D01*
X-311702Y135731D01*
Y136131D01*
X-312102D01*
X-312502Y135731D01*
X-312902Y136131D01*
X-313302D01*
Y135731D01*
X-312902Y135331D01*
X-313302Y134931D01*
Y134531D01*
X-173995Y147399D02*
X-173594Y148199D01*
X-173995Y148999D01*
X-173195Y148599D01*
X-172395Y148999D01*
X-172794Y148199D01*
X-172395Y147399D01*
X-173195Y147799D01*
X-173995Y147399D01*
X-146345Y41374D02*
X-145945Y42174D01*
X-146345Y42974D01*
X-145545Y42574D01*
X-144745Y42974D01*
X-145145Y42174D01*
X-144745Y41374D01*
X-145545Y41774D01*
X-146345Y41374D01*
X-141565Y35083D02*
X-141165Y35883D01*
X-141565Y36683D01*
X-140765Y36283D01*
X-139965Y36683D01*
X-140365Y35883D01*
X-139965Y35083D01*
X-140765Y35483D01*
X-141565Y35083D01*
X-141894Y168849D02*
X-141495Y169649D01*
X-141894Y170449D01*
X-141095Y170049D01*
X-140295Y170449D01*
X-140694Y169649D01*
X-140295Y168849D01*
X-141095Y169249D01*
X-141894Y168849D01*
X-165645Y136074D02*
X-165245Y136874D01*
X-165645Y137674D01*
X-164845Y137274D01*
X-164045Y137674D01*
X-164445Y136874D01*
X-164045Y136074D01*
X-164845Y136474D01*
X-165645Y136074D01*
X-170945Y107274D02*
Y106874D01*
X-170145D01*
Y107274D01*
X-169745D01*
Y108074D01*
X-170145D01*
Y108474D01*
X-170945D01*
Y108074D01*
X-171345D01*
Y107274D01*
X-170945D01*
X-173802Y106931D02*
Y106531D01*
X-173002D01*
Y106931D01*
X-172602D01*
Y107731D01*
X-173002D01*
Y108131D01*
X-173802D01*
Y107731D01*
X-174202D01*
Y106931D01*
X-173802D01*
X-172947Y169161D02*
X-172547Y169961D01*
X-172947Y170761D01*
X-172146Y170361D01*
X-171346Y170761D01*
X-171747Y169961D01*
X-171346Y169161D01*
X-172146Y169561D01*
X-172947Y169161D01*
X-174630Y167574D02*
X-174230Y168374D01*
X-174630Y169174D01*
X-173830Y168774D01*
X-173030Y169174D01*
X-173430Y168374D01*
X-173030Y167574D01*
X-173830Y167974D01*
X-174630Y167574D01*
X-154045Y162274D02*
X-153645Y163074D01*
X-154045Y163874D01*
X-153245Y163474D01*
X-152445Y163874D01*
X-152845Y163074D01*
X-152445Y162274D01*
X-153245Y162674D01*
X-154045Y162274D01*
X-156045Y153724D02*
X-155645Y154524D01*
X-156045Y155324D01*
X-155245Y154924D01*
X-154445Y155324D01*
X-154845Y154524D01*
X-154445Y153724D01*
X-155245Y154124D01*
X-156045Y153724D01*
X-154045Y156674D02*
X-153645Y157474D01*
X-154045Y158274D01*
X-153245Y157874D01*
X-152445Y158274D01*
X-152845Y157474D01*
X-152445Y156674D01*
X-153245Y157074D01*
X-154045Y156674D01*
Y154574D02*
X-153645Y155374D01*
X-154045Y156174D01*
X-153245Y155774D01*
X-152445Y156174D01*
X-152845Y155374D01*
X-152445Y154574D01*
X-153245Y154974D01*
X-154045Y154574D01*
X-140945Y148674D02*
X-140545D01*
X-140145Y149074D01*
X-139745Y148674D01*
X-139345D01*
Y149074D01*
X-139745Y149474D01*
X-139345Y149874D01*
Y150274D01*
X-139745D01*
X-140145Y149874D01*
X-140545Y150274D01*
X-140945D01*
Y149874D01*
X-140545Y149474D01*
X-140945Y149074D01*
Y148674D01*
X-143345Y153374D02*
X-142945Y154174D01*
X-143345Y154974D01*
X-142545Y154574D01*
X-141745Y154974D01*
X-142145Y154174D01*
X-141745Y153374D01*
X-142545Y153774D01*
X-143345Y153374D01*
Y155474D02*
X-142945Y156274D01*
X-143345Y157074D01*
X-142545Y156674D01*
X-141745Y157074D01*
X-142145Y156274D01*
X-141745Y155474D01*
X-142545Y155874D01*
X-143345Y155474D01*
Y157674D02*
X-142945Y158474D01*
X-143345Y159274D01*
X-142545Y158874D01*
X-141745Y159274D01*
X-142145Y158474D01*
X-141745Y157674D01*
X-142545Y158074D01*
X-143345Y157674D01*
Y159974D02*
X-142945Y160774D01*
X-143345Y161574D01*
X-142545Y161174D01*
X-141745Y161574D01*
X-142145Y160774D01*
X-141745Y159974D01*
X-142545Y160374D01*
X-143345Y159974D01*
X-141894Y166699D02*
X-141495Y167499D01*
X-141894Y168299D01*
X-141095Y167899D01*
X-140295Y168299D01*
X-140694Y167499D01*
X-140295Y166699D01*
X-141095Y167099D01*
X-141894Y166699D01*
X-284543Y145292D02*
X-284143Y146092D01*
X-284543Y146892D01*
X-283743Y146492D01*
X-282943Y146892D01*
X-283343Y146092D01*
X-282943Y145292D01*
X-283743Y145692D01*
X-284543Y145292D01*
X-290445Y144232D02*
X-289645Y145033D01*
X-288845Y144232D01*
X-289645Y143432D01*
X-290445Y144232D01*
X-154045Y168674D02*
X-153645Y169474D01*
X-154045Y170274D01*
X-153245Y169874D01*
X-152445Y170274D01*
X-152845Y169474D01*
X-152445Y168674D01*
X-153245Y169074D01*
X-154045Y168674D01*
Y152574D02*
X-153645Y153374D01*
X-154045Y154174D01*
X-153245Y153774D01*
X-152445Y154174D01*
X-152845Y153374D01*
X-152445Y152574D01*
X-153245Y152974D01*
X-154045Y152574D01*
Y150574D02*
X-153645Y151374D01*
X-154045Y152174D01*
X-153245Y151774D01*
X-152445Y152174D01*
X-152845Y151374D01*
X-152445Y150574D01*
X-153245Y150974D01*
X-154045Y150574D01*
X-156045Y150074D02*
X-155645Y150874D01*
X-156045Y151674D01*
X-155245Y151274D01*
X-154445Y151674D01*
X-154845Y150874D01*
X-154445Y150074D01*
X-155245Y150474D01*
X-156045Y150074D01*
X-157595Y148674D02*
X-157194Y149474D01*
X-157595Y150274D01*
X-156795Y149874D01*
X-155994Y150274D01*
X-156395Y149474D01*
X-155994Y148674D01*
X-156795Y149074D01*
X-157595Y148674D01*
X-153094Y147199D02*
X-152694Y147999D01*
X-153094Y148799D01*
X-152295Y148399D01*
X-151495Y148799D01*
X-151894Y147999D01*
X-151495Y147199D01*
X-152295Y147599D01*
X-153094Y147199D01*
X-143345Y148474D02*
X-142945Y149274D01*
X-143345Y150074D01*
X-142545Y149674D01*
X-141745Y150074D01*
X-142145Y149274D01*
X-141745Y148474D01*
X-142545Y148874D01*
X-143345Y148474D01*
X-281543Y154492D02*
Y154092D01*
X-280743D01*
Y154492D01*
X-280343D01*
Y155292D01*
X-280743D01*
Y155692D01*
X-281543D01*
Y155292D01*
X-281943D01*
Y154492D01*
X-281543D01*
X-278543Y157492D02*
Y157092D01*
X-277743D01*
Y157492D01*
X-277343D01*
Y158292D01*
X-277743D01*
Y158692D01*
X-278543D01*
Y158292D01*
X-278943D01*
Y157492D01*
X-278543D01*
X-275643Y160292D02*
X-275243Y161092D01*
X-275643Y161892D01*
X-274843Y161492D01*
X-274043Y161892D01*
X-274443Y161092D01*
X-274043Y160292D01*
X-274843Y160692D01*
X-275643Y160292D01*
X-292045Y161374D02*
X-291645D01*
X-291245Y161774D01*
X-290845Y161374D01*
X-290445D01*
Y161774D01*
X-290845Y162174D01*
X-290445Y162574D01*
Y162974D01*
X-290845D01*
X-291245Y162574D01*
X-291645Y162974D01*
X-292045D01*
Y162574D01*
X-291645Y162174D01*
X-292045Y161774D01*
Y161374D01*
X-192430Y168300D02*
X-192030Y169100D01*
X-192430Y169900D01*
X-191630Y169500D01*
X-190830Y169900D01*
X-191230Y169100D01*
X-190830Y168300D01*
X-191630Y168700D01*
X-192430Y168300D01*
X-233845Y182574D02*
X-233045Y183374D01*
X-232245Y182574D01*
X-233045Y181774D01*
X-233845Y182574D01*
X-320345Y153374D02*
X-319945D01*
X-319545Y153774D01*
X-319145Y153374D01*
X-318745D01*
Y153774D01*
X-319145Y154174D01*
X-318745Y154574D01*
Y154974D01*
X-319145D01*
X-319545Y154574D01*
X-319945Y154974D01*
X-320345D01*
Y154574D01*
X-319945Y154174D01*
X-320345Y153774D01*
Y153374D01*
X-293110Y146750D02*
X-292311Y147550D01*
X-291511Y146750D01*
X-292311Y145950D01*
X-293110Y146750D01*
X-141894Y164549D02*
X-141495Y165349D01*
X-141894Y166149D01*
X-141095Y165749D01*
X-140295Y166149D01*
X-140694Y165349D01*
X-140295Y164549D01*
X-141095Y164949D01*
X-141894Y164549D01*
X-272645Y173774D02*
X-272245Y174574D01*
X-272645Y175374D01*
X-271845Y174974D01*
X-271045Y175374D01*
X-271445Y174574D01*
X-271045Y173774D01*
X-271845Y174174D01*
X-272645Y173774D01*
X-254088Y170988D02*
X-253289Y171788D01*
X-252488Y170988D01*
X-253289Y170188D01*
X-254088Y170988D01*
X-112645Y185374D02*
X-112245Y186174D01*
X-112645Y186974D01*
X-111845Y186574D01*
X-111045Y186974D01*
X-111445Y186174D01*
X-111045Y185374D01*
X-111845Y185774D01*
X-112645Y185374D01*
X-106545Y171874D02*
X-105745Y172674D01*
X-104945Y171874D01*
X-105745Y171074D01*
X-106545Y171874D01*
X-109745D02*
X-108945Y172674D01*
X-108145Y171874D01*
X-108945Y171074D01*
X-109745Y171874D01*
X-222545Y91974D02*
X-222145Y92774D01*
X-222545Y93574D01*
X-221745Y93174D01*
X-220945Y93574D01*
X-221345Y92774D01*
X-220945Y91974D01*
X-221745Y92374D01*
X-222545Y91974D01*
X-206246Y177300D02*
X-205447Y178100D01*
X-204646Y177300D01*
X-205447Y176500D01*
X-206246Y177300D01*
X-210246Y181500D02*
X-209447Y182300D01*
X-208646Y181500D01*
X-209447Y180700D01*
X-210246Y181500D01*
X-115194Y166599D02*
X-114394Y167399D01*
X-113594Y166599D01*
X-114394Y165799D01*
X-115194Y166599D01*
X-109646Y162931D02*
X-109247Y163731D01*
X-109646Y164531D01*
X-108846Y164131D01*
X-108046Y164531D01*
X-108447Y163731D01*
X-108046Y162931D01*
X-108846Y163331D01*
X-109646Y162931D01*
X-118595Y166699D02*
X-117795Y167499D01*
X-116995Y166699D01*
X-117795Y165899D01*
X-118595Y166699D01*
X-118494Y170199D02*
X-117694Y170999D01*
X-116894Y170199D01*
X-117694Y169399D01*
X-118494Y170199D01*
X-174345Y121274D02*
X-173945Y122074D01*
X-174345Y122874D01*
X-173545Y122474D01*
X-172745Y122874D01*
X-173145Y122074D01*
X-172745Y121274D01*
X-173545Y121674D01*
X-174345Y121274D01*
X-164945D02*
X-164545Y122074D01*
X-164945Y122874D01*
X-164145Y122474D01*
X-163345Y122874D01*
X-163745Y122074D01*
X-163345Y121274D01*
X-164145Y121674D01*
X-164945Y121274D01*
X-170747Y134521D02*
X-170346Y135321D01*
X-170747Y136121D01*
X-169947Y135721D01*
X-169147Y136121D01*
X-169546Y135321D01*
X-169147Y134521D01*
X-169947Y134921D01*
X-170747Y134521D01*
X-167192D02*
X-166792Y135321D01*
X-167192Y136121D01*
X-166392Y135721D01*
X-165592Y136121D01*
X-165992Y135321D01*
X-165592Y134521D01*
X-166392Y134921D01*
X-167192Y134521D01*
X-151894Y136899D02*
X-151495Y137699D01*
X-151894Y138499D01*
X-151094Y138099D01*
X-150294Y138499D01*
X-150695Y137699D01*
X-150294Y136899D01*
X-151094Y137299D01*
X-151894Y136899D01*
X-161745Y134574D02*
X-161345Y135374D01*
X-161745Y136174D01*
X-160945Y135774D01*
X-160145Y136174D01*
X-160545Y135374D01*
X-160145Y134574D01*
X-160945Y134974D01*
X-161745Y134574D01*
X-301402Y5331D02*
X-300602Y6131D01*
X-299802Y5331D01*
X-300602Y4531D01*
X-301402Y5331D01*
X-152302Y27246D02*
X-151902Y28046D01*
X-152302Y28846D01*
X-151502Y28446D01*
X-150702Y28846D01*
X-151102Y28046D01*
X-150702Y27246D01*
X-151502Y27646D01*
X-152302Y27246D01*
X-198202Y24231D02*
X-197802Y25031D01*
X-198202Y25831D01*
X-197402Y25431D01*
X-196602Y25831D01*
X-197002Y25031D01*
X-196602Y24231D01*
X-197402Y24631D01*
X-198202Y24231D01*
X-203702Y23831D02*
X-202902Y24631D01*
X-202102Y23831D01*
X-202902Y23031D01*
X-203702Y23831D01*
X-196202Y24231D02*
X-195802Y25031D01*
X-196202Y25831D01*
X-195402Y25431D01*
X-194602Y25831D01*
X-195002Y25031D01*
X-194602Y24231D01*
X-195402Y24631D01*
X-196202Y24231D01*
X-283830Y5299D02*
X-283030Y6099D01*
X-282230Y5299D01*
X-283030Y4499D01*
X-283830Y5299D01*
X-100702Y23531D02*
X-100302Y24331D01*
X-100702Y25131D01*
X-99902Y24731D01*
X-99102Y25131D01*
X-99502Y24331D01*
X-99102Y23531D01*
X-99902Y23931D01*
X-100702Y23531D01*
X-75802Y75683D02*
Y75283D01*
X-75002D01*
Y75683D01*
X-74602D01*
Y76484D01*
X-75002D01*
Y76884D01*
X-75802D01*
Y76484D01*
X-76202D01*
Y75683D01*
X-75802D01*
X-167202Y22031D02*
X-166802Y22831D01*
X-167202Y23631D01*
X-166402Y23231D01*
X-165602Y23631D01*
X-166002Y22831D01*
X-165602Y22031D01*
X-166402Y22431D01*
X-167202Y22031D01*
X-136465Y27683D02*
X-136065Y28483D01*
X-136465Y29283D01*
X-135665Y28883D01*
X-134865Y29283D01*
X-135265Y28483D01*
X-134865Y27683D01*
X-135665Y28083D01*
X-136465Y27683D01*
X-80102Y79184D02*
X-79702Y79984D01*
X-80102Y80783D01*
X-79302Y80383D01*
X-78502Y80783D01*
X-78902Y79984D01*
X-78502Y79184D01*
X-79302Y79584D01*
X-80102Y79184D01*
X-126702Y71310D02*
X-126302Y72110D01*
X-126702Y72910D01*
X-125902Y72510D01*
X-125102Y72910D01*
X-125502Y72110D01*
X-125102Y71310D01*
X-125902Y71710D01*
X-126702Y71310D01*
X-131202Y44531D02*
X-130802Y45331D01*
X-131202Y46131D01*
X-130402Y45731D01*
X-129602Y46131D01*
X-130002Y45331D01*
X-129602Y44531D01*
X-130402Y44931D01*
X-131202Y44531D01*
X-127602Y40084D02*
X-127202Y40883D01*
X-127602Y41684D01*
X-126802Y41284D01*
X-126002Y41684D01*
X-126402Y40883D01*
X-126002Y40084D01*
X-126802Y40483D01*
X-127602Y40084D01*
X-214733Y6513D02*
X-214333D01*
X-213933Y6913D01*
X-213533Y6513D01*
X-213133D01*
Y6913D01*
X-213533Y7313D01*
X-213133Y7713D01*
Y8113D01*
X-213533D01*
X-213933Y7713D01*
X-214333Y8113D01*
X-214733D01*
Y7713D01*
X-214333Y7313D01*
X-214733Y6913D01*
Y6513D01*
X-113330Y73999D02*
Y73599D01*
X-112530D01*
Y73999D01*
X-112130D01*
Y74799D01*
X-112530D01*
Y75199D01*
X-113330D01*
Y74799D01*
X-113730D01*
Y73999D01*
X-113330D01*
X-232545Y43583D02*
X-232145Y44383D01*
X-232545Y45183D01*
X-231745Y44783D01*
X-230945Y45183D01*
X-231345Y44383D01*
X-230945Y43583D01*
X-231745Y43983D01*
X-232545Y43583D01*
X-300330Y140099D02*
Y141699D01*
X-298730D01*
Y140099D01*
X-300330D01*
X-299930Y140499D02*
Y141299D01*
X-299130D01*
Y140499D01*
X-299930D01*
X-255945Y173774D02*
X-255145Y174574D01*
X-254345Y173774D01*
X-255145Y172974D01*
X-255945Y173774D01*
X-213702Y23531D02*
X-213302Y24331D01*
X-213702Y25131D01*
X-212902Y24731D01*
X-212102Y25131D01*
X-212502Y24331D01*
X-212102Y23531D01*
X-212902Y23931D01*
X-213702Y23531D01*
X-230765Y21783D02*
X-230365Y22583D01*
X-230765Y23383D01*
X-229965Y22983D01*
X-229165Y23383D01*
X-229565Y22583D01*
X-229165Y21783D01*
X-229965Y22183D01*
X-230765Y21783D01*
X-228265D02*
X-227865Y22583D01*
X-228265Y23383D01*
X-227465Y22983D01*
X-226665Y23383D01*
X-227065Y22583D01*
X-226665Y21783D01*
X-227465Y22183D01*
X-228265Y21783D01*
X-217245Y23083D02*
X-216845Y23883D01*
X-217245Y24683D01*
X-216445Y24283D01*
X-215645Y24683D01*
X-216045Y23883D01*
X-215645Y23083D01*
X-216445Y23483D01*
X-217245Y23083D01*
X-172165Y71683D02*
Y71283D01*
X-171365D01*
Y71683D01*
X-170965D01*
Y72483D01*
X-171365D01*
Y72883D01*
X-172165D01*
Y72483D01*
X-172565D01*
Y71683D01*
X-172165D01*
X-151894Y134679D02*
X-151495Y135479D01*
X-151894Y136279D01*
X-151094Y135879D01*
X-150294Y136279D01*
X-150695Y135479D01*
X-150294Y134679D01*
X-151094Y135079D01*
X-151894Y134679D01*
Y130239D02*
X-151495Y131039D01*
X-151894Y131839D01*
X-151094Y131439D01*
X-150294Y131839D01*
X-150695Y131039D01*
X-150294Y130239D01*
X-151094Y130639D01*
X-151894Y130239D01*
X-67065Y153283D02*
Y152883D01*
X-66265D01*
Y153283D01*
X-65865D01*
Y154083D01*
X-66265D01*
Y154483D01*
X-67065D01*
Y154083D01*
X-67465D01*
Y153283D01*
X-67065D01*
X-65116Y146116D02*
X-64716Y146916D01*
X-65116Y147716D01*
X-64316Y147317D01*
X-63516Y147716D01*
X-63916Y146916D01*
X-63516Y146116D01*
X-64316Y146517D01*
X-65116Y146116D01*
X-65065Y153343D02*
Y152943D01*
X-64265D01*
Y153343D01*
X-63865D01*
Y154143D01*
X-64265D01*
Y154543D01*
X-65065D01*
Y154143D01*
X-65465D01*
Y153343D01*
X-65065D01*
X-67245Y146383D02*
X-66845Y147183D01*
X-67245Y147983D01*
X-66445Y147583D01*
X-65645Y147983D01*
X-66045Y147183D01*
X-65645Y146383D01*
X-66445Y146783D01*
X-67245Y146383D01*
X-106130Y130999D02*
X-105730Y131799D01*
X-106130Y132599D01*
X-105330Y132199D01*
X-104530Y132599D01*
X-104930Y131799D01*
X-104530Y130999D01*
X-105330Y131399D01*
X-106130Y130999D01*
X-215202Y22031D02*
X-214802Y22831D01*
X-215202Y23631D01*
X-214402Y23231D01*
X-213602Y23631D01*
X-214002Y22831D01*
X-213602Y22031D01*
X-214402Y22431D01*
X-215202Y22031D01*
X-207045D02*
X-206645Y22831D01*
X-207045Y23631D01*
X-206245Y23231D01*
X-205445Y23631D01*
X-205845Y22831D01*
X-205445Y22031D01*
X-206245Y22431D01*
X-207045Y22031D01*
X-275330Y5299D02*
X-274530Y6099D01*
X-273730Y5299D01*
X-274530Y4499D01*
X-275330Y5299D01*
X-170245Y75923D02*
X-169445Y76723D01*
X-168645Y75923D01*
X-169445Y75123D01*
X-170245Y75923D01*
X-187545Y57614D02*
Y57214D01*
X-186745D01*
Y57614D01*
X-186345D01*
Y58414D01*
X-186745D01*
Y58814D01*
X-187545D01*
Y58414D01*
X-187945D01*
Y57614D01*
X-187545D01*
Y55004D02*
Y54604D01*
X-186745D01*
Y55004D01*
X-186345D01*
Y55804D01*
X-186745D01*
Y56204D01*
X-187545D01*
Y55804D01*
X-187945D01*
Y55004D01*
X-187545D01*
X-154745Y122983D02*
X-154345Y123783D01*
X-154745Y124583D01*
X-153945Y124183D01*
X-153145Y124583D01*
X-153545Y123783D01*
X-153145Y122983D01*
X-153945Y123383D01*
X-154745Y122983D01*
X-31905Y79800D02*
Y79400D01*
X-31105D01*
Y79800D01*
X-30705D01*
Y80600D01*
X-31105D01*
Y81000D01*
X-31905D01*
Y80600D01*
X-32305D01*
Y79800D01*
X-31905D01*
X-34565D02*
Y79400D01*
X-33766D01*
Y79800D01*
X-33365D01*
Y80600D01*
X-33766D01*
Y81000D01*
X-34565D01*
Y80600D01*
X-34966D01*
Y79800D01*
X-34565D01*
X-37226D02*
Y79400D01*
X-36426D01*
Y79800D01*
X-36026D01*
Y80600D01*
X-36426D01*
Y81000D01*
X-37226D01*
Y80600D01*
X-37626D01*
Y79800D01*
X-37226D01*
X4005Y33299D02*
Y32899D01*
X4806D01*
Y33299D01*
X5206D01*
Y34099D01*
X4806D01*
Y34499D01*
X4005D01*
Y34099D01*
X3605D01*
Y33299D01*
X4005D01*
X10406Y68499D02*
Y68099D01*
X11206D01*
Y68499D01*
X11605D01*
Y69299D01*
X11206D01*
Y69699D01*
X10406D01*
Y69299D01*
X10006D01*
Y68499D01*
X10406D01*
X8005D02*
Y68099D01*
X8805D01*
Y68499D01*
X9206D01*
Y69299D01*
X8805D01*
Y69699D01*
X8005D01*
Y69299D01*
X7605D01*
Y68499D01*
X8005D01*
X12806D02*
Y68099D01*
X13605D01*
Y68499D01*
X14006D01*
Y69299D01*
X13605D01*
Y69699D01*
X12806D01*
Y69299D01*
X12405D01*
Y68499D01*
X12806D01*
X800Y71100D02*
Y70700D01*
X1600D01*
Y71100D01*
X2000D01*
Y71900D01*
X1600D01*
Y72300D01*
X800D01*
Y71900D01*
X400D01*
Y71100D01*
X800D01*
X3300Y71000D02*
Y70600D01*
X4100D01*
Y71000D01*
X4500D01*
Y71800D01*
X4100D01*
Y72200D01*
X3300D01*
Y71800D01*
X2900D01*
Y71000D01*
X3300D01*
X-11700Y75500D02*
Y75100D01*
X-10900D01*
Y75500D01*
X-10500D01*
Y76300D01*
X-10900D01*
Y76700D01*
X-11700D01*
Y76300D01*
X-12100D01*
Y75500D01*
X-11700D01*
X-9210D02*
Y75100D01*
X-8410D01*
Y75500D01*
X-8010D01*
Y76300D01*
X-8410D01*
Y76700D01*
X-9210D01*
Y76300D01*
X-9610D01*
Y75500D01*
X-9210D01*
X-6719D02*
Y75100D01*
X-5919D01*
Y75500D01*
X-5519D01*
Y76300D01*
X-5919D01*
Y76700D01*
X-6719D01*
Y76300D01*
X-7119D01*
Y75500D01*
X-6719D01*
X-4228Y75600D02*
Y75200D01*
X-3428D01*
Y75600D01*
X-3028D01*
Y76400D01*
X-3428D01*
Y76800D01*
X-4228D01*
Y76400D01*
X-4628D01*
Y75600D01*
X-4228D01*
X-8794Y71799D02*
Y71399D01*
X-7994D01*
Y71799D01*
X-7594D01*
Y72599D01*
X-7994D01*
Y72999D01*
X-8794D01*
Y72599D01*
X-9194D01*
Y71799D01*
X-8794D01*
X-42546Y79800D02*
Y79400D01*
X-41747D01*
Y79800D01*
X-41346D01*
Y80600D01*
X-41747D01*
Y81000D01*
X-42546D01*
Y80600D01*
X-42946D01*
Y79800D01*
X-42546D01*
X-39886D02*
Y79400D01*
X-39086D01*
Y79800D01*
X-38686D01*
Y80600D01*
X-39086D01*
Y81000D01*
X-39886D01*
Y80600D01*
X-40286D01*
Y79800D01*
X-39886D01*
X-14146Y65900D02*
Y65500D01*
X-13347D01*
Y65900D01*
X-12946D01*
Y66700D01*
X-13347D01*
Y67100D01*
X-14146D01*
Y66700D01*
X-14547D01*
Y65900D01*
X-14146D01*
X-11746D02*
Y65500D01*
X-10947D01*
Y65900D01*
X-10547D01*
Y66700D01*
X-10947D01*
Y67100D01*
X-11746D01*
Y66700D01*
X-12146D01*
Y65900D01*
X-11746D01*
X-9347D02*
Y65500D01*
X-8546D01*
Y65900D01*
X-8146D01*
Y66700D01*
X-8546D01*
Y67100D01*
X-9347D01*
Y66700D01*
X-9747D01*
Y65900D01*
X-9347D01*
X-6946D02*
Y65500D01*
X-6146D01*
Y65900D01*
X-5746D01*
Y66700D01*
X-6146D01*
Y67100D01*
X-6946D01*
Y66700D01*
X-7346D01*
Y65900D01*
X-6946D01*
X-4546D02*
Y65500D01*
X-3746D01*
Y65900D01*
X-3347D01*
Y66700D01*
X-3746D01*
Y67100D01*
X-4546D01*
Y66700D01*
X-4947D01*
Y65900D01*
X-4546D01*
X-2146D02*
Y65500D01*
X-1347D01*
Y65900D01*
X-946D01*
Y66700D01*
X-1347D01*
Y67100D01*
X-2146D01*
Y66700D01*
X-2547D01*
Y65900D01*
X-2146D01*
X-14146Y63500D02*
Y63100D01*
X-13347D01*
Y63500D01*
X-12946D01*
Y64300D01*
X-13347D01*
Y64700D01*
X-14146D01*
Y64300D01*
X-14547D01*
Y63500D01*
X-14146D01*
X-15347Y61300D02*
Y60900D01*
X-14547D01*
Y61300D01*
X-14146D01*
Y62100D01*
X-14547D01*
Y62500D01*
X-15347D01*
Y62100D01*
X-15746D01*
Y61300D01*
X-15347D01*
Y58900D02*
Y58500D01*
X-14547D01*
Y58900D01*
X-14146D01*
Y59700D01*
X-14547D01*
Y60100D01*
X-15347D01*
Y59700D01*
X-15746D01*
Y58900D01*
X-15347D01*
Y56400D02*
Y56000D01*
X-14547D01*
Y56400D01*
X-14146D01*
Y57200D01*
X-14547D01*
Y57600D01*
X-15347D01*
Y57200D01*
X-15746D01*
Y56400D01*
X-15347D01*
X-19647Y69300D02*
Y68900D01*
X-18846D01*
Y69300D01*
X-18447D01*
Y70100D01*
X-18846D01*
Y70500D01*
X-19647D01*
Y70100D01*
X-20046D01*
Y69300D01*
X-19647D01*
X-18846Y59300D02*
Y58900D01*
X-18046D01*
Y59300D01*
X-17647D01*
Y60100D01*
X-18046D01*
Y60500D01*
X-18846D01*
Y60100D01*
X-19247D01*
Y59300D01*
X-18846D01*
Y61800D02*
Y61400D01*
X-18046D01*
Y61800D01*
X-17647D01*
Y62600D01*
X-18046D01*
Y63000D01*
X-18846D01*
Y62600D01*
X-19247D01*
Y61800D01*
X-18846D01*
X-14191Y75500D02*
Y75100D01*
X-13391D01*
Y75500D01*
X-12991D01*
Y76300D01*
X-13391D01*
Y76700D01*
X-14191D01*
Y76300D01*
X-14591D01*
Y75500D01*
X-14191D01*
X-19647Y66800D02*
Y66400D01*
X-18846D01*
Y66800D01*
X-18447D01*
Y67600D01*
X-18846D01*
Y68000D01*
X-19647D01*
Y67600D01*
X-20046D01*
Y66800D01*
X-19647D01*
X5700Y69700D02*
Y69300D01*
X6500D01*
Y69700D01*
X6900D01*
Y70500D01*
X6500D01*
Y70900D01*
X5700D01*
Y70500D01*
X5300D01*
Y69700D01*
X5700D01*
X-6395Y71799D02*
Y71399D01*
X-5595D01*
Y71799D01*
X-5195D01*
Y72599D01*
X-5595D01*
Y72999D01*
X-6395D01*
Y72599D01*
X-6795D01*
Y71799D01*
X-6395D01*
X-11195Y71899D02*
Y71499D01*
X-10395D01*
Y71899D01*
X-9995D01*
Y72699D01*
X-10395D01*
Y73099D01*
X-11195D01*
Y72699D01*
X-11594D01*
Y71899D01*
X-11195D01*
X-30347Y26800D02*
X-29947D01*
X-29546Y27200D01*
X-29147Y26800D01*
X-28747D01*
Y27200D01*
X-29147Y27600D01*
X-28747Y28000D01*
Y28400D01*
X-29147D01*
X-29546Y28000D01*
X-29947Y28400D01*
X-30347D01*
Y28000D01*
X-29947Y27600D01*
X-30347Y27200D01*
Y26800D01*
X-71447Y63500D02*
Y63100D01*
X-70647D01*
Y63500D01*
X-70246D01*
Y64300D01*
X-70647D01*
Y64700D01*
X-71447D01*
Y64300D01*
X-71846D01*
Y63500D01*
X-71447D01*
X-67302Y98984D02*
Y98584D01*
X-66502D01*
Y98984D01*
X-66102D01*
Y99783D01*
X-66502D01*
Y100183D01*
X-67302D01*
Y99783D01*
X-67702D01*
Y98984D01*
X-67302D01*
X-68046Y38000D02*
Y37600D01*
X-67247D01*
Y38000D01*
X-66847D01*
Y38800D01*
X-67247D01*
Y39200D01*
X-68046D01*
Y38800D01*
X-68446D01*
Y38000D01*
X-68046D01*
X-69747Y35400D02*
Y35000D01*
X-68946D01*
Y35400D01*
X-68546D01*
Y36200D01*
X-68946D01*
Y36600D01*
X-69747D01*
Y36200D01*
X-70147D01*
Y35400D01*
X-69747D01*
X-73546Y33700D02*
Y33300D01*
X-72746D01*
Y33700D01*
X-72347D01*
Y34500D01*
X-72746D01*
Y34900D01*
X-73546D01*
Y34500D01*
X-73946D01*
Y33700D01*
X-73546D01*
X-73447Y29100D02*
Y28700D01*
X-72646D01*
Y29100D01*
X-72246D01*
Y29900D01*
X-72646D01*
Y30300D01*
X-73447D01*
Y29900D01*
X-73847D01*
Y29100D01*
X-73447D01*
X-48545Y71766D02*
Y71366D01*
X-47745D01*
Y71766D01*
X-47345D01*
Y72566D01*
X-47745D01*
Y72966D01*
X-48545D01*
Y72566D01*
X-48945D01*
Y71766D01*
X-48545D01*
X-48546Y79800D02*
Y79400D01*
X-47747D01*
Y79800D01*
X-47346D01*
Y80600D01*
X-47747D01*
Y81000D01*
X-48546D01*
Y80600D01*
X-48946D01*
Y79800D01*
X-48546D01*
X-46147D02*
Y79400D01*
X-45347D01*
Y79800D01*
X-44947D01*
Y80600D01*
X-45347D01*
Y81000D01*
X-46147D01*
Y80600D01*
X-46547D01*
Y79800D01*
X-46147D01*
X-319021Y184802D02*
X-318620D01*
X-318220Y185202D01*
X-317821Y184802D01*
X-317421D01*
Y185202D01*
X-317821Y185602D01*
X-317421Y186002D01*
Y186402D01*
X-317821D01*
X-318220Y186002D01*
X-318620Y186402D01*
X-319021D01*
Y186002D01*
X-318620Y185602D01*
X-319021Y185202D01*
Y184802D01*
X-331230Y156839D02*
X-330830D01*
X-330430Y157239D01*
X-330030Y156839D01*
X-329630D01*
Y157239D01*
X-330030Y157639D01*
X-329630Y158039D01*
Y158439D01*
X-330030D01*
X-330430Y158039D01*
X-330830Y158439D01*
X-331230D01*
Y158039D01*
X-330830Y157639D01*
X-331230Y157239D01*
Y156839D01*
X-334202Y84608D02*
X-333802D01*
X-333402Y85008D01*
X-333002Y84608D01*
X-332602D01*
Y85008D01*
X-333002Y85408D01*
X-332602Y85808D01*
Y86208D01*
X-333002D01*
X-333402Y85808D01*
X-333802Y86208D01*
X-334202D01*
Y85808D01*
X-333802Y85408D01*
X-334202Y85008D01*
Y84608D01*
X-31947Y178900D02*
X-31547D01*
X-31146Y179300D01*
X-30746Y178900D01*
X-30347D01*
Y179300D01*
X-30746Y179700D01*
X-30347Y180100D01*
Y180500D01*
X-30746D01*
X-31146Y180100D01*
X-31547Y180500D01*
X-31947D01*
Y180100D01*
X-31547Y179700D01*
X-31947Y179300D01*
Y178900D01*
X-19147Y179700D02*
X-18746Y180500D01*
X-19147Y181300D01*
X-18347Y180900D01*
X-17547Y181300D01*
X-17946Y180500D01*
X-17547Y179700D01*
X-18347Y180100D01*
X-19147Y179700D01*
X-25698Y180449D02*
X-25298Y181249D01*
X-25698Y182049D01*
X-24898Y181649D01*
X-24098Y182049D01*
X-24498Y181249D01*
X-24098Y180449D01*
X-24898Y180849D01*
X-25698Y180449D01*
X-37115Y103868D02*
Y103469D01*
X-36315D01*
Y103868D01*
X-35915D01*
Y104668D01*
X-36315D01*
Y105069D01*
X-37115D01*
Y104668D01*
X-37515D01*
Y103868D01*
X-37115D01*
X-42746Y102700D02*
Y102300D01*
X-41947D01*
Y102700D01*
X-41546D01*
Y103500D01*
X-41947D01*
Y103900D01*
X-42746D01*
Y103500D01*
X-43146D01*
Y102700D01*
X-42746D01*
X-65646Y148100D02*
X-65246Y148900D01*
X-65646Y149700D01*
X-64846Y149300D01*
X-64047Y149700D01*
X-64447Y148900D01*
X-64047Y148100D01*
X-64846Y148500D01*
X-65646Y148100D01*
X-48000Y147000D02*
X-47600Y147800D01*
X-48000Y148600D01*
X-47200Y148200D01*
X-46400Y148600D01*
X-46800Y147800D01*
X-46400Y147000D01*
X-47200Y147400D01*
X-48000Y147000D01*
X-70047Y138300D02*
X-69647Y139100D01*
X-70047Y139900D01*
X-69247Y139500D01*
X-68446Y139900D01*
X-68846Y139100D01*
X-68446Y138300D01*
X-69247Y138700D01*
X-70047Y138300D01*
X-54046Y147800D02*
X-53646Y148600D01*
X-54046Y149400D01*
X-53246Y149000D01*
X-52447Y149400D01*
X-52846Y148600D01*
X-52447Y147800D01*
X-53246Y148200D01*
X-54046Y147800D01*
X-47747Y139900D02*
X-47346Y140700D01*
X-47747Y141500D01*
X-46946Y141100D01*
X-46147Y141500D01*
X-46547Y140700D01*
X-46147Y139900D01*
X-46946Y140300D01*
X-47747Y139900D01*
X-56346Y134200D02*
X-55946Y135000D01*
X-56346Y135800D01*
X-55546Y135400D01*
X-54747Y135800D01*
X-55146Y135000D01*
X-54747Y134200D01*
X-55546Y134600D01*
X-56346Y134200D01*
X-54546Y137000D02*
X-54146Y137800D01*
X-54546Y138600D01*
X-53746Y138200D01*
X-52947Y138600D01*
X-53347Y137800D01*
X-52947Y137000D01*
X-53746Y137400D01*
X-54546Y137000D01*
X-52746Y135100D02*
X-52346Y135900D01*
X-52746Y136700D01*
X-51947Y136300D01*
X-51147Y136700D01*
X-51547Y135900D01*
X-51147Y135100D01*
X-51947Y135500D01*
X-52746Y135100D01*
X-284846Y22500D02*
Y22100D01*
X-284047D01*
Y22500D01*
X-283646D01*
Y23300D01*
X-284047D01*
Y23700D01*
X-284846D01*
Y23300D01*
X-285246D01*
Y22500D01*
X-284846D01*
X-283347Y35100D02*
X-282946D01*
X-282546Y35500D01*
X-282147Y35100D01*
X-281747D01*
Y35500D01*
X-282147Y35900D01*
X-281747Y36300D01*
Y36700D01*
X-282147D01*
X-282546Y36300D01*
X-282946Y36700D01*
X-283347D01*
Y36300D01*
X-282946Y35900D01*
X-283347Y35500D01*
Y35100D01*
X-288846Y32600D02*
X-288446D01*
X-288047Y33000D01*
X-287647Y32600D01*
X-287246D01*
Y33000D01*
X-287647Y33400D01*
X-287246Y33800D01*
Y34200D01*
X-287647D01*
X-288047Y33800D01*
X-288446Y34200D01*
X-288846D01*
Y33800D01*
X-288446Y33400D01*
X-288846Y33000D01*
Y32600D01*
X-287618Y35028D02*
X-287218D01*
X-286818Y35428D01*
X-286418Y35028D01*
X-286018D01*
Y35428D01*
X-286418Y35828D01*
X-286018Y36228D01*
Y36628D01*
X-286418D01*
X-286818Y36228D01*
X-287218Y36628D01*
X-287618D01*
Y36228D01*
X-287218Y35828D01*
X-287618Y35428D01*
Y35028D01*
X-264887Y4028D02*
X-264488D01*
X-264088Y4428D01*
X-263687Y4028D01*
X-263287D01*
Y4428D01*
X-263687Y4828D01*
X-263287Y5228D01*
Y5628D01*
X-263687D01*
X-264088Y5228D01*
X-264488Y5628D01*
X-264887D01*
Y5228D01*
X-264488Y4828D01*
X-264887Y4428D01*
Y4028D01*
X-114683Y23563D02*
X-114283Y24363D01*
X-114683Y25163D01*
X-113883Y24763D01*
X-113083Y25163D01*
X-113483Y24363D01*
X-113083Y23563D01*
X-113883Y23963D01*
X-114683Y23563D01*
X-316121Y184802D02*
X-315721D01*
X-315320Y185202D01*
X-314920Y184802D01*
X-314521D01*
Y185202D01*
X-314920Y185602D01*
X-314521Y186002D01*
Y186402D01*
X-314920D01*
X-315320Y186002D01*
X-315721Y186402D01*
X-316121D01*
Y186002D01*
X-315721Y185602D01*
X-316121Y185202D01*
Y184802D01*
X-154545Y107783D02*
X-154145Y108583D01*
X-154545Y109383D01*
X-153745Y108983D01*
X-152945Y109383D01*
X-153345Y108583D01*
X-152945Y107783D01*
X-153745Y108183D01*
X-154545Y107783D01*
X-154745Y120783D02*
X-154345Y121583D01*
X-154745Y122383D01*
X-153945Y121983D01*
X-153145Y122383D01*
X-153545Y121583D01*
X-153145Y120783D01*
X-153945Y121183D01*
X-154745Y120783D01*
X-158130Y102099D02*
X-157730Y102899D01*
X-158130Y103699D01*
X-157330Y103299D01*
X-156530Y103699D01*
X-156930Y102899D01*
X-156530Y102099D01*
X-157330Y102499D01*
X-158130Y102099D01*
X-155730Y106099D02*
X-155330Y106899D01*
X-155730Y107699D01*
X-154930Y107299D01*
X-154130Y107699D01*
X-154530Y106899D01*
X-154130Y106099D01*
X-154930Y106499D01*
X-155730Y106099D01*
X-122146Y93400D02*
X-121747D01*
X-121346Y93800D01*
X-120947Y93400D01*
X-120546D01*
Y93800D01*
X-120947Y94200D01*
X-120546Y94600D01*
Y95000D01*
X-120947D01*
X-121346Y94600D01*
X-121747Y95000D01*
X-122146D01*
Y94600D01*
X-121747Y94200D01*
X-122146Y93800D01*
Y93400D01*
X-68846Y92100D02*
Y91700D01*
X-68046D01*
Y92100D01*
X-67646D01*
Y92900D01*
X-68046D01*
Y93300D01*
X-68846D01*
Y92900D01*
X-69247D01*
Y92100D01*
X-68846D01*
X-111146Y134400D02*
X-110747Y135200D01*
X-111146Y136000D01*
X-110346Y135600D01*
X-109546Y136000D01*
X-109947Y135200D01*
X-109546Y134400D01*
X-110346Y134800D01*
X-111146Y134400D01*
Y124600D02*
X-110747Y125400D01*
X-111146Y126200D01*
X-110346Y125800D01*
X-109546Y126200D01*
X-109947Y125400D01*
X-109546Y124600D01*
X-110346Y125000D01*
X-111146Y124600D01*
X-101702Y136974D02*
X-101302Y137774D01*
X-101702Y138574D01*
X-100902Y138174D01*
X-100102Y138574D01*
X-100502Y137774D01*
X-100102Y136974D01*
X-100902Y137374D01*
X-101702Y136974D01*
X-101745Y135174D02*
X-101345Y135974D01*
X-101745Y136774D01*
X-100945Y136374D01*
X-100145Y136774D01*
X-100545Y135974D01*
X-100145Y135174D01*
X-100945Y135574D01*
X-101745Y135174D01*
X-96202Y138531D02*
X-95802Y139331D01*
X-96202Y140131D01*
X-95402Y139731D01*
X-94602Y140131D01*
X-95002Y139331D01*
X-94602Y138531D01*
X-95402Y138931D01*
X-96202Y138531D01*
X-63547Y12600D02*
Y12200D01*
X-62747D01*
Y12600D01*
X-62347D01*
Y13400D01*
X-62747D01*
Y13800D01*
X-63547D01*
Y13400D01*
X-63946D01*
Y12600D01*
X-63547D01*
X-61847Y10600D02*
Y10200D01*
X-61046D01*
Y10600D01*
X-60646D01*
Y11400D01*
X-61046D01*
Y11800D01*
X-61847D01*
Y11400D01*
X-62247D01*
Y10600D01*
X-61847D01*
X-189047Y116600D02*
X-188646Y117400D01*
X-189047Y118200D01*
X-188247Y117800D01*
X-187446Y118200D01*
X-187847Y117400D01*
X-187446Y116600D01*
X-188247Y117000D01*
X-189047Y116600D01*
X-183747Y121200D02*
X-183346Y122000D01*
X-183747Y122800D01*
X-182947Y122400D01*
X-182147Y122800D01*
X-182546Y122000D01*
X-182147Y121200D01*
X-182947Y121600D01*
X-183747Y121200D01*
X-198247Y161500D02*
X-197846Y162300D01*
X-198247Y163100D01*
X-197447Y162700D01*
X-196646Y163100D01*
X-197046Y162300D01*
X-196646Y161500D01*
X-197447Y161900D01*
X-198247Y161500D01*
X-190147Y159000D02*
X-189746Y159800D01*
X-190147Y160600D01*
X-189347Y160200D01*
X-188547Y160600D01*
X-188946Y159800D01*
X-188547Y159000D01*
X-189347Y159400D01*
X-190147Y159000D01*
Y162100D02*
X-189746Y162900D01*
X-190147Y163700D01*
X-189347Y163300D01*
X-188547Y163700D01*
X-188946Y162900D01*
X-188547Y162100D01*
X-189347Y162500D01*
X-190147Y162100D01*
X-105261Y18342D02*
X-104861Y19142D01*
X-105261Y19942D01*
X-104461Y19543D01*
X-103661Y19942D01*
X-104061Y19142D01*
X-103661Y18342D01*
X-104461Y18743D01*
X-105261Y18342D01*
X-84895Y167999D02*
X-84495Y168799D01*
X-84895Y169599D01*
X-84095Y169199D01*
X-83294Y169599D01*
X-83694Y168799D01*
X-83294Y167999D01*
X-84095Y168399D01*
X-84895Y167999D01*
X-35913Y178567D02*
X-35513D01*
X-35113Y178967D01*
X-34713Y178567D01*
X-34313D01*
Y178967D01*
X-34713Y179367D01*
X-34313Y179767D01*
Y180167D01*
X-34713D01*
X-35113Y179767D01*
X-35513Y180167D01*
X-35913D01*
Y179767D01*
X-35513Y179367D01*
X-35913Y178967D01*
Y178567D01*
X-7446Y172900D02*
X-7046D01*
X-6646Y173300D01*
X-6247Y172900D01*
X-5847D01*
Y173300D01*
X-6247Y173700D01*
X-5847Y174100D01*
Y174500D01*
X-6247D01*
X-6646Y174100D01*
X-7046Y174500D01*
X-7446D01*
Y174100D01*
X-7046Y173700D01*
X-7446Y173300D01*
Y172900D01*
X-30446Y162900D02*
X-30046D01*
X-29647Y163300D01*
X-29247Y162900D01*
X-28846D01*
Y163300D01*
X-29247Y163700D01*
X-28846Y164100D01*
Y164500D01*
X-29247D01*
X-29647Y164100D01*
X-30046Y164500D01*
X-30446D01*
Y164100D01*
X-30046Y163700D01*
X-30446Y163300D01*
Y162900D01*
X-61847Y107700D02*
X-61046Y108500D01*
X-60246Y107700D01*
X-61046Y106900D01*
X-61847Y107700D01*
X-152746Y103500D02*
X-151946Y104300D01*
X-151146Y103500D01*
X-151946Y102700D01*
X-152746Y103500D01*
X-252702Y30245D02*
X-252302Y31045D01*
X-252702Y31845D01*
X-251902Y31445D01*
X-251102Y31845D01*
X-251502Y31045D01*
X-251102Y30245D01*
X-251902Y30645D01*
X-252702Y30245D01*
X-252747Y36700D02*
X-252346Y37500D01*
X-252747Y38300D01*
X-251946Y37900D01*
X-251147Y38300D01*
X-251547Y37500D01*
X-251147Y36700D01*
X-251946Y37100D01*
X-252747Y36700D01*
X-76202Y104083D02*
X-75402Y104883D01*
X-74602Y104083D01*
X-75402Y103283D01*
X-76202Y104083D01*
X-283830Y13999D02*
X-283030Y14799D01*
X-282230Y13999D01*
X-283030Y13199D01*
X-283830Y13999D01*
X-279580Y5299D02*
X-278780Y6099D01*
X-277980Y5299D01*
X-278780Y4499D01*
X-279580Y5299D01*
X-97702Y135399D02*
X-97302Y136199D01*
X-97702Y136999D01*
X-96902Y136599D01*
X-96102Y136999D01*
X-96502Y136199D01*
X-96102Y135399D01*
X-96902Y135799D01*
X-97702Y135399D01*
X-96202D02*
X-95802Y136199D01*
X-96202Y136999D01*
X-95402Y136599D01*
X-94602Y136999D01*
X-95002Y136199D01*
X-94602Y135399D01*
X-95402Y135799D01*
X-96202Y135399D01*
X-92994Y121699D02*
X-92594Y122499D01*
X-92994Y123299D01*
X-92194Y122899D01*
X-91395Y123299D01*
X-91795Y122499D01*
X-91395Y121699D01*
X-92194Y122099D01*
X-92994Y121699D01*
X-91294D02*
X-90895Y122499D01*
X-91294Y123299D01*
X-90495Y122899D01*
X-89694Y123299D01*
X-90095Y122499D01*
X-89694Y121699D01*
X-90495Y122099D01*
X-91294Y121699D01*
X-279580Y9699D02*
X-278780Y10499D01*
X-277980Y9699D01*
X-278780Y8899D01*
X-279580Y9699D01*
X-186882Y10373D02*
X-186482Y11173D01*
X-186882Y11973D01*
X-186082Y11573D01*
X-185282Y11973D01*
X-185682Y11173D01*
X-185282Y10373D01*
X-186082Y10773D01*
X-186882Y10373D01*
X-190032Y7573D02*
X-189632Y8373D01*
X-190032Y9173D01*
X-189232Y8773D01*
X-188432Y9173D01*
X-188832Y8373D01*
X-188432Y7573D01*
X-189232Y7973D01*
X-190032Y7573D01*
X-188457Y8973D02*
X-188057Y9773D01*
X-188457Y10573D01*
X-187657Y10173D01*
X-186857Y10573D01*
X-187257Y9773D01*
X-186857Y8973D01*
X-187657Y9373D01*
X-188457Y8973D01*
X-185902Y5184D02*
X-185502Y5984D01*
X-185902Y6784D01*
X-185102Y6384D01*
X-184302Y6784D01*
X-184702Y5984D01*
X-184302Y5184D01*
X-185102Y5584D01*
X-185902Y5184D01*
X-180583Y10373D02*
X-180183Y11173D01*
X-180583Y11973D01*
X-179783Y11573D01*
X-178983Y11973D01*
X-179383Y11173D01*
X-178983Y10373D01*
X-179783Y10773D01*
X-180583Y10373D01*
X-183733Y5300D02*
X-183333Y6100D01*
X-183733Y6900D01*
X-182933Y6500D01*
X-182133Y6900D01*
X-182533Y6100D01*
X-182133Y5300D01*
X-182933Y5700D01*
X-183733Y5300D01*
X-169565Y22031D02*
X-169165Y22831D01*
X-169565Y23631D01*
X-168765Y23231D01*
X-167965Y23631D01*
X-168365Y22831D01*
X-167965Y22031D01*
X-168765Y22431D01*
X-169565Y22031D01*
X-153202Y23031D02*
X-152802Y23831D01*
X-153202Y24631D01*
X-152402Y24231D01*
X-151602Y24631D01*
X-152002Y23831D01*
X-151602Y23031D01*
X-152402Y23431D01*
X-153202Y23031D01*
X-171165Y24231D02*
X-170765Y25031D01*
X-171165Y25831D01*
X-170365Y25431D01*
X-169565Y25831D01*
X-169965Y25031D01*
X-169565Y24231D01*
X-170365Y24631D01*
X-171165Y24231D01*
X-172665Y22031D02*
X-172265Y22831D01*
X-172665Y23631D01*
X-171865Y23231D01*
X-171065Y23631D01*
X-171465Y22831D01*
X-171065Y22031D01*
X-171865Y22431D01*
X-172665Y22031D01*
X-174265Y24231D02*
X-173865Y25031D01*
X-174265Y25831D01*
X-173465Y25431D01*
X-172665Y25831D01*
X-173065Y25031D01*
X-172665Y24231D01*
X-173465Y24631D01*
X-174265Y24231D01*
X-175865Y22031D02*
X-175465Y22831D01*
X-175865Y23631D01*
X-175065Y23231D01*
X-174265Y23631D01*
X-174665Y22831D01*
X-174265Y22031D01*
X-175065Y22431D01*
X-175865Y22031D01*
X-177465Y24231D02*
X-177065Y25031D01*
X-177465Y25831D01*
X-176665Y25431D01*
X-175865Y25831D01*
X-176265Y25031D01*
X-175865Y24231D01*
X-176665Y24631D01*
X-177465Y24231D01*
X-132546Y21500D02*
X-132147Y22300D01*
X-132546Y23100D01*
X-131746Y22700D01*
X-130947Y23100D01*
X-131346Y22300D01*
X-130947Y21500D01*
X-131746Y21900D01*
X-132546Y21500D01*
X-145247Y9400D02*
Y9000D01*
X-144447D01*
Y9400D01*
X-144046D01*
Y10200D01*
X-144447D01*
Y10600D01*
X-145247D01*
Y10200D01*
X-145647D01*
Y9400D01*
X-145247D01*
X-61347Y21300D02*
X-60947Y22100D01*
X-61347Y22900D01*
X-60546Y22500D01*
X-59746Y22900D01*
X-60146Y22100D01*
X-59746Y21300D01*
X-60546Y21700D01*
X-61347Y21300D01*
X-45447Y121200D02*
X-45046Y122000D01*
X-45447Y122800D01*
X-44646Y122400D01*
X-43846Y122800D01*
X-44247Y122000D01*
X-43846Y121200D01*
X-44646Y121600D01*
X-45447Y121200D01*
X-304946Y45900D02*
X-304147Y46700D01*
X-303346Y45900D01*
X-304147Y45100D01*
X-304946Y45900D01*
X-316243Y102092D02*
X-315843Y102892D01*
X-316243Y103692D01*
X-315443Y103292D01*
X-314643Y103692D01*
X-315043Y102892D01*
X-314643Y102092D01*
X-315443Y102492D01*
X-316243Y102092D01*
X-321202Y113283D02*
X-320802Y114083D01*
X-321202Y114883D01*
X-320402Y114483D01*
X-319602Y114883D01*
X-320002Y114083D01*
X-319602Y113283D01*
X-320402Y113683D01*
X-321202Y113283D01*
X-320243Y115592D02*
X-319843Y116392D01*
X-320243Y117192D01*
X-319443Y116792D01*
X-318643Y117192D01*
X-319043Y116392D01*
X-318643Y115592D01*
X-319443Y115992D01*
X-320243Y115592D01*
X-317243Y118592D02*
X-316843Y119392D01*
X-317243Y120192D01*
X-316443Y119792D01*
X-315643Y120192D01*
X-316043Y119392D01*
X-315643Y118592D01*
X-316443Y118992D01*
X-317243Y118592D01*
X-331230Y160099D02*
X-330830D01*
X-330430Y160499D01*
X-330030Y160099D01*
X-329630D01*
Y160499D01*
X-330030Y160899D01*
X-329630Y161299D01*
Y161699D01*
X-330030D01*
X-330430Y161299D01*
X-330830Y161699D01*
X-331230D01*
Y161299D01*
X-330830Y160899D01*
X-331230Y160499D01*
Y160099D01*
X-6746Y42800D02*
Y42400D01*
X-5946D01*
Y42800D01*
X-5547D01*
Y43600D01*
X-5946D01*
Y44000D01*
X-6746D01*
Y43600D01*
X-7147D01*
Y42800D01*
X-6746D01*
Y40300D02*
Y39900D01*
X-5946D01*
Y40300D01*
X-5547D01*
Y41100D01*
X-5946D01*
Y41500D01*
X-6746D01*
Y41100D01*
X-7147D01*
Y40300D01*
X-6746D01*
Y37800D02*
Y37400D01*
X-5946D01*
Y37800D01*
X-5547D01*
Y38600D01*
X-5946D01*
Y39000D01*
X-6746D01*
Y38600D01*
X-7147D01*
Y37800D01*
X-6746D01*
Y35300D02*
Y34900D01*
X-5946D01*
Y35300D01*
X-5547D01*
Y36100D01*
X-5946D01*
Y36500D01*
X-6746D01*
Y36100D01*
X-7147D01*
Y35300D01*
X-6746D01*
Y32800D02*
Y32400D01*
X-5946D01*
Y32800D01*
X-5547D01*
Y33600D01*
X-5946D01*
Y34000D01*
X-6746D01*
Y33600D01*
X-7147D01*
Y32800D01*
X-6746D01*
Y30300D02*
Y29900D01*
X-5946D01*
Y30300D01*
X-5547D01*
Y31100D01*
X-5946D01*
Y31500D01*
X-6746D01*
Y31100D01*
X-7147D01*
Y30300D01*
X-6746D01*
Y27800D02*
Y27400D01*
X-5946D01*
Y27800D01*
X-5547D01*
Y28600D01*
X-5946D01*
Y29000D01*
X-6746D01*
Y28600D01*
X-7147D01*
Y27800D01*
X-6746D01*
Y25300D02*
Y24900D01*
X-5946D01*
Y25300D01*
X-5547D01*
Y26100D01*
X-5946D01*
Y26500D01*
X-6746D01*
Y26100D01*
X-7147D01*
Y25300D01*
X-6746D01*
Y22800D02*
Y22400D01*
X-5946D01*
Y22800D01*
X-5547D01*
Y23600D01*
X-5946D01*
Y24000D01*
X-6746D01*
Y23600D01*
X-7147D01*
Y22800D01*
X-6746D01*
X12454Y30900D02*
Y30500D01*
X13253D01*
Y30900D01*
X13654D01*
Y31700D01*
X13253D01*
Y32100D01*
X12454D01*
Y31700D01*
X12054D01*
Y30900D01*
X12454D01*
Y28200D02*
Y27800D01*
X13253D01*
Y28200D01*
X13654D01*
Y29000D01*
X13253D01*
Y29400D01*
X12454D01*
Y29000D01*
X12054D01*
Y28200D01*
X12454D01*
Y25500D02*
Y25100D01*
X13253D01*
Y25500D01*
X13654D01*
Y26300D01*
X13253D01*
Y26700D01*
X12454D01*
Y26300D01*
X12054D01*
Y25500D01*
X12454D01*
Y22800D02*
Y22400D01*
X13253D01*
Y22800D01*
X13654D01*
Y23600D01*
X13253D01*
Y24000D01*
X12454D01*
Y23600D01*
X12054D01*
Y22800D01*
X12454D01*
Y20100D02*
Y19700D01*
X13253D01*
Y20100D01*
X13654D01*
Y20900D01*
X13253D01*
Y21300D01*
X12454D01*
Y20900D01*
X12054D01*
Y20100D01*
X12454D01*
Y17400D02*
Y17000D01*
X13253D01*
Y17400D01*
X13654D01*
Y18200D01*
X13253D01*
Y18600D01*
X12454D01*
Y18200D01*
X12054D01*
Y17400D01*
X12454D01*
X12353Y14200D02*
Y13800D01*
X13153D01*
Y14200D01*
X13554D01*
Y15000D01*
X13153D01*
Y15400D01*
X12353D01*
Y15000D01*
X11953D01*
Y14200D01*
X12353D01*
Y11300D02*
Y10900D01*
X13153D01*
Y11300D01*
X13554D01*
Y12100D01*
X13153D01*
Y12500D01*
X12353D01*
Y12100D01*
X11953D01*
Y11300D01*
X12353D01*
X10954Y8300D02*
Y7900D01*
X11754D01*
Y8300D01*
X12154D01*
Y9100D01*
X11754D01*
Y9500D01*
X10954D01*
Y9100D01*
X10554D01*
Y8300D01*
X10954D01*
X-14246Y78000D02*
Y77600D01*
X-13446D01*
Y78000D01*
X-13047D01*
Y78800D01*
X-13446D01*
Y79200D01*
X-14246D01*
Y78800D01*
X-14647D01*
Y78000D01*
X-14246D01*
X-26647Y80600D02*
Y80200D01*
X-25846D01*
Y80600D01*
X-25447D01*
Y81400D01*
X-25846D01*
Y81800D01*
X-26647D01*
Y81400D01*
X-27046D01*
Y80600D01*
X-26647D01*
Y83200D02*
Y82800D01*
X-25846D01*
Y83200D01*
X-25447D01*
Y84000D01*
X-25846D01*
Y84400D01*
X-26647D01*
Y84000D01*
X-27046D01*
Y83200D01*
X-26647D01*
X-24446Y84700D02*
Y84300D01*
X-23647D01*
Y84700D01*
X-23246D01*
Y85500D01*
X-23647D01*
Y85900D01*
X-24446D01*
Y85500D01*
X-24847D01*
Y84700D01*
X-24446D01*
X-15394Y85299D02*
Y84899D01*
X-14594D01*
Y85299D01*
X-14195D01*
Y86099D01*
X-14594D01*
Y86499D01*
X-15394D01*
Y86099D01*
X-15795D01*
Y85299D01*
X-15394D01*
X-12846Y85299D02*
Y84899D01*
X-12047D01*
Y85299D01*
X-11647D01*
Y86099D01*
X-12047D01*
Y86499D01*
X-12846D01*
Y86099D01*
X-13247D01*
Y85299D01*
X-12846D01*
Y82750D02*
Y82350D01*
X-12047D01*
Y82750D01*
X-11647D01*
Y83550D01*
X-12047D01*
Y83950D01*
X-12846D01*
Y83550D01*
X-13247D01*
Y82750D01*
X-12846D01*
Y80200D02*
Y79800D01*
X-12047D01*
Y80200D01*
X-11647D01*
Y81000D01*
X-12047D01*
Y81400D01*
X-12846D01*
Y81000D01*
X-13247D01*
Y80200D01*
X-12846D01*
X-9319Y25295D02*
Y24895D01*
X-8519D01*
Y25295D01*
X-8119D01*
Y26095D01*
X-8519D01*
Y26495D01*
X-9319D01*
Y26095D01*
X-9719D01*
Y25295D01*
X-9319D01*
X-14547Y34200D02*
Y33800D01*
X-13747D01*
Y34200D01*
X-13347D01*
Y35000D01*
X-13747D01*
Y35400D01*
X-14547D01*
Y35000D01*
X-14946D01*
Y34200D01*
X-14547D01*
X-51195Y69199D02*
Y68799D01*
X-50394D01*
Y69199D01*
X-49995D01*
Y69999D01*
X-50394D01*
Y70399D01*
X-51195D01*
Y69999D01*
X-51595D01*
Y69199D01*
X-51195D01*
X-53594D02*
Y68799D01*
X-52794D01*
Y69199D01*
X-52394D01*
Y69999D01*
X-52794D01*
Y70399D01*
X-53594D01*
Y69999D01*
X-53995D01*
Y69199D01*
X-53594D01*
X-57047D02*
Y68799D01*
X-56247D01*
Y69199D01*
X-55847D01*
Y69999D01*
X-56247D01*
Y70399D01*
X-57047D01*
Y69999D01*
X-57446D01*
Y69199D01*
X-57047D01*
X-59495D02*
Y68799D01*
X-58694D01*
Y69199D01*
X-58294D01*
Y69999D01*
X-58694D01*
Y70399D01*
X-59495D01*
Y69999D01*
X-59895D01*
Y69199D01*
X-59495D01*
X-68594Y68299D02*
Y67899D01*
X-67795D01*
Y68299D01*
X-67395D01*
Y69099D01*
X-67795D01*
Y69499D01*
X-68594D01*
Y69099D01*
X-68994D01*
Y68299D01*
X-68594D01*
Y65999D02*
Y65599D01*
X-67795D01*
Y65999D01*
X-67395D01*
Y66799D01*
X-67795D01*
Y67199D01*
X-68594D01*
Y66799D01*
X-68994D01*
Y65999D01*
X-68594D01*
X-47594Y27599D02*
Y27199D01*
X-46795D01*
Y27599D01*
X-46395D01*
Y28399D01*
X-46795D01*
Y28799D01*
X-47594D01*
Y28399D01*
X-47995D01*
Y27599D01*
X-47594D01*
X-45195D02*
Y27199D01*
X-44394D01*
Y27599D01*
X-43995D01*
Y28399D01*
X-44394D01*
Y28799D01*
X-45195D01*
Y28399D01*
X-45594D01*
Y27599D01*
X-45195D01*
X-42794D02*
Y27199D01*
X-41995D01*
Y27599D01*
X-41594D01*
Y28399D01*
X-41995D01*
Y28799D01*
X-42794D01*
Y28399D01*
X-43194D01*
Y27599D01*
X-42794D01*
X-50094D02*
Y27199D01*
X-49294D01*
Y27599D01*
X-48895D01*
Y28399D01*
X-49294D01*
Y28799D01*
X-50094D01*
Y28399D01*
X-50494D01*
Y27599D01*
X-50094D01*
X-37547Y27600D02*
Y27200D01*
X-36746D01*
Y27600D01*
X-36347D01*
Y28400D01*
X-36746D01*
Y28800D01*
X-37547D01*
Y28400D01*
X-37947D01*
Y27600D01*
X-37547D01*
X-35146D02*
Y27200D01*
X-34347D01*
Y27600D01*
X-33946D01*
Y28400D01*
X-34347D01*
Y28800D01*
X-35146D01*
Y28400D01*
X-35546D01*
Y27600D01*
X-35146D01*
X-21530Y27499D02*
Y27099D01*
X-20730D01*
Y27499D01*
X-20330D01*
Y28299D01*
X-20730D01*
Y28699D01*
X-21530D01*
Y28299D01*
X-21930D01*
Y27499D01*
X-21530D01*
X-16495Y32499D02*
Y32099D01*
X-15695D01*
Y32499D01*
X-15294D01*
Y33299D01*
X-15695D01*
Y33699D01*
X-16495D01*
Y33299D01*
X-16894D01*
Y32499D01*
X-16495D01*
X-60400Y34900D02*
Y34500D01*
X-59600D01*
Y34900D01*
X-59200D01*
Y35700D01*
X-59600D01*
Y36100D01*
X-60400D01*
Y35700D01*
X-60800D01*
Y34900D01*
X-60400D01*
X-6746Y20400D02*
Y20000D01*
X-5946D01*
Y20400D01*
X-5547D01*
Y21200D01*
X-5946D01*
Y21600D01*
X-6746D01*
Y21200D01*
X-7147D01*
Y20400D01*
X-6746D01*
X-6746Y17862D02*
Y17462D01*
X-5946D01*
Y17862D01*
X-5547D01*
Y18662D01*
X-5946D01*
Y19062D01*
X-6746D01*
Y18662D01*
X-7147D01*
Y17862D01*
X-6746D01*
X-14946D02*
Y17462D01*
X-14146D01*
Y17862D01*
X-13747D01*
Y18662D01*
X-14146D01*
Y19062D01*
X-14946D01*
Y18662D01*
X-15347D01*
Y17862D01*
X-14946D01*
X-32146Y8500D02*
Y8100D01*
X-31346D01*
Y8500D01*
X-30946D01*
Y9300D01*
X-31346D01*
Y9700D01*
X-32146D01*
Y9300D01*
X-32546D01*
Y8500D01*
X-32146D01*
X-29746D02*
Y8100D01*
X-28947D01*
Y8500D01*
X-28547D01*
Y9300D01*
X-28947D01*
Y9700D01*
X-29746D01*
Y9300D01*
X-30147D01*
Y8500D01*
X-29746D01*
X-27347D02*
Y8100D01*
X-26546D01*
Y8500D01*
X-26147D01*
Y9300D01*
X-26546D01*
Y9700D01*
X-27347D01*
Y9300D01*
X-27746D01*
Y8500D01*
X-27347D01*
X-24947D02*
Y8100D01*
X-24147D01*
Y8500D01*
X-23746D01*
Y9300D01*
X-24147D01*
Y9700D01*
X-24947D01*
Y9300D01*
X-25346D01*
Y8500D01*
X-24947D01*
X-22546D02*
Y8100D01*
X-21746D01*
Y8500D01*
X-21347D01*
Y9300D01*
X-21746D01*
Y9700D01*
X-22546D01*
Y9300D01*
X-22946D01*
Y8500D01*
X-22546D01*
X-20046D02*
Y8100D01*
X-19247D01*
Y8500D01*
X-18846D01*
Y9300D01*
X-19247D01*
Y9700D01*
X-20046D01*
Y9300D01*
X-20447D01*
Y8500D01*
X-20046D01*
X-17647D02*
Y8100D01*
X-16847D01*
Y8500D01*
X-16446D01*
Y9300D01*
X-16847D01*
Y9700D01*
X-17647D01*
Y9300D01*
X-18046D01*
Y8500D01*
X-17647D01*
X-45946D02*
Y8100D01*
X-45147D01*
Y8500D01*
X-44747D01*
Y9300D01*
X-45147D01*
Y9700D01*
X-45946D01*
Y9300D01*
X-46347D01*
Y8500D01*
X-45946D01*
X-48723D02*
Y8100D01*
X-47923D01*
Y8500D01*
X-47523D01*
Y9300D01*
X-47923D01*
Y9700D01*
X-48723D01*
Y9300D01*
X-49123D01*
Y8500D01*
X-48723D01*
X-51500D02*
Y8100D01*
X-50700D01*
Y8500D01*
X-50300D01*
Y9300D01*
X-50700D01*
Y9700D01*
X-51500D01*
Y9300D01*
X-51900D01*
Y8500D01*
X-51500D01*
X-54277D02*
Y8100D01*
X-53477D01*
Y8500D01*
X-53076D01*
Y9300D01*
X-53477D01*
Y9700D01*
X-54277D01*
Y9300D01*
X-54677D01*
Y8500D01*
X-54277D01*
X-59830D02*
Y8100D01*
X-59030D01*
Y8500D01*
X-58630D01*
Y9300D01*
X-59030D01*
Y9700D01*
X-59830D01*
Y9300D01*
X-60230D01*
Y8500D01*
X-59830D01*
X-57053D02*
Y8100D01*
X-56253D01*
Y8500D01*
X-55853D01*
Y9300D01*
X-56253D01*
Y9700D01*
X-57053D01*
Y9300D01*
X-57453D01*
Y8500D01*
X-57053D01*
X-65246D02*
Y8100D01*
X-64447D01*
Y8500D01*
X-64047D01*
Y9300D01*
X-64447D01*
Y9700D01*
X-65246D01*
Y9300D01*
X-65646D01*
Y8500D01*
X-65246D01*
X-67847D02*
Y8100D01*
X-67046D01*
Y8500D01*
X-66646D01*
Y9300D01*
X-67046D01*
Y9700D01*
X-67847D01*
Y9300D01*
X-68247D01*
Y8500D01*
X-67847D01*
X-130246Y128100D02*
X-129847Y128900D01*
X-130246Y129700D01*
X-129446Y129300D01*
X-128647Y129700D01*
X-129046Y128900D01*
X-128647Y128100D01*
X-129446Y128500D01*
X-130246Y128100D01*
X-328048Y48526D02*
X-327648D01*
X-327248Y48926D01*
X-326848Y48526D01*
X-326448D01*
Y48926D01*
X-326848Y49326D01*
X-326448Y49726D01*
Y50126D01*
X-326848D01*
X-327248Y49726D01*
X-327648Y50126D01*
X-328048D01*
Y49726D01*
X-327648Y49326D01*
X-328048Y48926D01*
Y48526D01*
Y45626D02*
X-327648D01*
X-327248Y46026D01*
X-326848Y45626D01*
X-326448D01*
Y46026D01*
X-326848Y46426D01*
X-326448Y46826D01*
Y47226D01*
X-326848D01*
X-327248Y46826D01*
X-327648Y47226D01*
X-328048D01*
Y46826D01*
X-327648Y46426D01*
X-328048Y46026D01*
Y45626D01*
Y36926D02*
X-327648D01*
X-327248Y37326D01*
X-326848Y36926D01*
X-326448D01*
Y37326D01*
X-326848Y37726D01*
X-326448Y38126D01*
Y38526D01*
X-326848D01*
X-327248Y38126D01*
X-327648Y38526D01*
X-328048D01*
Y38126D01*
X-327648Y37726D01*
X-328048Y37326D01*
Y36926D01*
Y39826D02*
X-327648D01*
X-327248Y40226D01*
X-326848Y39826D01*
X-326448D01*
Y40226D01*
X-326848Y40626D01*
X-326448Y41026D01*
Y41426D01*
X-326848D01*
X-327248Y41026D01*
X-327648Y41426D01*
X-328048D01*
Y41026D01*
X-327648Y40626D01*
X-328048Y40226D01*
Y39826D01*
Y42726D02*
X-327648D01*
X-327248Y43126D01*
X-326848Y42726D01*
X-326448D01*
Y43126D01*
X-326848Y43526D01*
X-326448Y43926D01*
Y44326D01*
X-326848D01*
X-327248Y43926D01*
X-327648Y44326D01*
X-328048D01*
Y43926D01*
X-327648Y43526D01*
X-328048Y43126D01*
Y42726D01*
X-328046Y33800D02*
X-327646D01*
X-327246Y34200D01*
X-326847Y33800D01*
X-326447D01*
Y34200D01*
X-326847Y34600D01*
X-326447Y35000D01*
Y35400D01*
X-326847D01*
X-327246Y35000D01*
X-327646Y35400D01*
X-328046D01*
Y35000D01*
X-327646Y34600D01*
X-328046Y34200D01*
Y33800D01*
X-263920Y184802D02*
X-263521D01*
X-263121Y185202D01*
X-262720Y184802D01*
X-262320D01*
Y185202D01*
X-262720Y185602D01*
X-262320Y186002D01*
Y186402D01*
X-262720D01*
X-263121Y186002D01*
X-263521Y186402D01*
X-263920D01*
Y186002D01*
X-263521Y185602D01*
X-263920Y185202D01*
Y184802D01*
X-266821D02*
X-266421D01*
X-266020Y185202D01*
X-265620Y184802D01*
X-265220D01*
Y185202D01*
X-265620Y185602D01*
X-265220Y186002D01*
Y186402D01*
X-265620D01*
X-266020Y186002D01*
X-266421Y186402D01*
X-266821D01*
Y186002D01*
X-266421Y185602D01*
X-266821Y185202D01*
Y184802D01*
X-275520D02*
X-275120D01*
X-274721Y185202D01*
X-274321Y184802D01*
X-273920D01*
Y185202D01*
X-274321Y185602D01*
X-273920Y186002D01*
Y186402D01*
X-274321D01*
X-274721Y186002D01*
X-275120Y186402D01*
X-275520D01*
Y186002D01*
X-275120Y185602D01*
X-275520Y185202D01*
Y184802D01*
X-272621D02*
X-272220D01*
X-271820Y185202D01*
X-271421Y184802D01*
X-271021D01*
Y185202D01*
X-271421Y185602D01*
X-271021Y186002D01*
Y186402D01*
X-271421D01*
X-271820Y186002D01*
X-272220Y186402D01*
X-272621D01*
Y186002D01*
X-272220Y185602D01*
X-272621Y185202D01*
Y184802D01*
X-269721D02*
X-269321D01*
X-268920Y185202D01*
X-268520Y184802D01*
X-268121D01*
Y185202D01*
X-268520Y185602D01*
X-268121Y186002D01*
Y186402D01*
X-268520D01*
X-268920Y186002D01*
X-269321Y186402D01*
X-269721D01*
Y186002D01*
X-269321Y185602D01*
X-269721Y185202D01*
Y184802D01*
X-278646D02*
X-278246D01*
X-277847Y185202D01*
X-277447Y184802D01*
X-277046D01*
Y185202D01*
X-277447Y185602D01*
X-277046Y186002D01*
Y186402D01*
X-277447D01*
X-277847Y186002D01*
X-278246Y186402D01*
X-278646D01*
Y186002D01*
X-278246Y185602D01*
X-278646Y185202D01*
Y184802D01*
X-44247Y184902D02*
X-43846D01*
X-43446Y185302D01*
X-43047Y184902D01*
X-42647D01*
Y185302D01*
X-43047Y185702D01*
X-42647Y186102D01*
Y186502D01*
X-43047D01*
X-43446Y186102D01*
X-43846Y186502D01*
X-44247D01*
Y186102D01*
X-43846Y185702D01*
X-44247Y185302D01*
Y184902D01*
X-35003D02*
X-34603D01*
X-34203Y185302D01*
X-33803Y184902D01*
X-33403D01*
Y185302D01*
X-33803Y185702D01*
X-33403Y186102D01*
Y186502D01*
X-33803D01*
X-34203Y186102D01*
X-34603Y186502D01*
X-35003D01*
Y186102D01*
X-34603Y185702D01*
X-35003Y185302D01*
Y184902D01*
X-38084D02*
X-37684D01*
X-37284Y185302D01*
X-36884Y184902D01*
X-36484D01*
Y185302D01*
X-36884Y185702D01*
X-36484Y186102D01*
Y186502D01*
X-36884D01*
X-37284Y186102D01*
X-37684Y186502D01*
X-38084D01*
Y186102D01*
X-37684Y185702D01*
X-38084Y185302D01*
Y184902D01*
X-41165D02*
X-40765D01*
X-40365Y185302D01*
X-39965Y184902D01*
X-39565D01*
Y185302D01*
X-39965Y185702D01*
X-39565Y186102D01*
Y186502D01*
X-39965D01*
X-40365Y186102D01*
X-40765Y186502D01*
X-41165D01*
Y186102D01*
X-40765Y185702D01*
X-41165Y185302D01*
Y184902D01*
X-31922D02*
X-31522D01*
X-31122Y185302D01*
X-30722Y184902D01*
X-30322D01*
Y185302D01*
X-30722Y185702D01*
X-30322Y186102D01*
Y186502D01*
X-30722D01*
X-31122Y186102D01*
X-31522Y186502D01*
X-31922D01*
Y186102D01*
X-31522Y185702D01*
X-31922Y185302D01*
Y184902D01*
X-28841D02*
X-28441D01*
X-28041Y185302D01*
X-27641Y184902D01*
X-27241D01*
Y185302D01*
X-27641Y185702D01*
X-27241Y186102D01*
Y186502D01*
X-27641D01*
X-28041Y186102D01*
X-28441Y186502D01*
X-28841D01*
Y186102D01*
X-28441Y185702D01*
X-28841Y185302D01*
Y184902D01*
X-16517D02*
X-16117D01*
X-15717Y185302D01*
X-15317Y184902D01*
X-14917D01*
Y185302D01*
X-15317Y185702D01*
X-14917Y186102D01*
Y186502D01*
X-15317D01*
X-15717Y186102D01*
X-16117Y186502D01*
X-16517D01*
Y186102D01*
X-16117Y185702D01*
X-16517Y185302D01*
Y184902D01*
X-7273D02*
X-6873D01*
X-6473Y185302D01*
X-6073Y184902D01*
X-5673D01*
Y185302D01*
X-6073Y185702D01*
X-5673Y186102D01*
Y186502D01*
X-6073D01*
X-6473Y186102D01*
X-6873Y186502D01*
X-7273D01*
Y186102D01*
X-6873Y185702D01*
X-7273Y185302D01*
Y184902D01*
X-10354D02*
X-9954D01*
X-9554Y185302D01*
X-9154Y184902D01*
X-8754D01*
Y185302D01*
X-9154Y185702D01*
X-8754Y186102D01*
Y186502D01*
X-9154D01*
X-9554Y186102D01*
X-9954Y186502D01*
X-10354D01*
Y186102D01*
X-9954Y185702D01*
X-10354Y185302D01*
Y184902D01*
X-13435D02*
X-13036D01*
X-12636Y185302D01*
X-12235Y184902D01*
X-11835D01*
Y185302D01*
X-12235Y185702D01*
X-11835Y186102D01*
Y186502D01*
X-12235D01*
X-12636Y186102D01*
X-13036Y186502D01*
X-13435D01*
Y186102D01*
X-13036Y185702D01*
X-13435Y185302D01*
Y184902D01*
X-4192D02*
X-3792D01*
X-3392Y185302D01*
X-2992Y184902D01*
X-2592D01*
Y185302D01*
X-2992Y185702D01*
X-2592Y186102D01*
Y186502D01*
X-2992D01*
X-3392Y186102D01*
X-3792Y186502D01*
X-4192D01*
Y186102D01*
X-3792Y185702D01*
X-4192Y185302D01*
Y184902D01*
X-1111D02*
X-711D01*
X-311Y185302D01*
X89Y184902D01*
X489D01*
Y185302D01*
X89Y185702D01*
X489Y186102D01*
Y186502D01*
X89D01*
X-311Y186102D01*
X-711Y186502D01*
X-1111D01*
Y186102D01*
X-711Y185702D01*
X-1111Y185302D01*
Y184902D01*
X5270Y166499D02*
X5670D01*
X6070Y166899D01*
X6470Y166499D01*
X6870D01*
Y166899D01*
X6470Y167299D01*
X6870Y167699D01*
Y168099D01*
X6470D01*
X6070Y167699D01*
X5670Y168099D01*
X5270D01*
Y167699D01*
X5670Y167299D01*
X5270Y166899D01*
Y166499D01*
X-55548Y115500D02*
X-55148D01*
X-54748Y115900D01*
X-54348Y115500D01*
X-53948D01*
Y115900D01*
X-54348Y116300D01*
X-53948Y116700D01*
Y117100D01*
X-54348D01*
X-54748Y116700D01*
X-55148Y117100D01*
X-55548D01*
Y116700D01*
X-55148Y116300D01*
X-55548Y115900D01*
Y115500D01*
X-52646D02*
X-52246D01*
X-51846Y115900D01*
X-51446Y115500D01*
X-51047D01*
Y115900D01*
X-51446Y116300D01*
X-51047Y116700D01*
Y117100D01*
X-51446D01*
X-51846Y116700D01*
X-52246Y117100D01*
X-52646D01*
Y116700D01*
X-52246Y116300D01*
X-52646Y115900D01*
Y115500D01*
X-51346Y102400D02*
X-50946D01*
X-50546Y102800D01*
X-50147Y102400D01*
X-49747D01*
Y102800D01*
X-50147Y103200D01*
X-49747Y103600D01*
Y104000D01*
X-50147D01*
X-50546Y103600D01*
X-50946Y104000D01*
X-51346D01*
Y103600D01*
X-50946Y103200D01*
X-51346Y102800D01*
Y102400D01*
X-51446Y99600D02*
X-51047D01*
X-50647Y100000D01*
X-50247Y99600D01*
X-49847D01*
Y100000D01*
X-50247Y100400D01*
X-49847Y100800D01*
Y101200D01*
X-50247D01*
X-50647Y100800D01*
X-51047Y101200D01*
X-51446D01*
Y100800D01*
X-51047Y100400D01*
X-51446Y100000D01*
Y99600D01*
X-69547Y87700D02*
X-69147D01*
X-68747Y88100D01*
X-68347Y87700D01*
X-67946D01*
Y88100D01*
X-68347Y88500D01*
X-67946Y88900D01*
Y89300D01*
X-68347D01*
X-68747Y88900D01*
X-69147Y89300D01*
X-69547D01*
Y88900D01*
X-69147Y88500D01*
X-69547Y88100D01*
Y87700D01*
X-66546D02*
X-66146D01*
X-65746Y88100D01*
X-65346Y87700D01*
X-64947D01*
Y88100D01*
X-65346Y88500D01*
X-64947Y88900D01*
Y89300D01*
X-65346D01*
X-65746Y88900D01*
X-66146Y89300D01*
X-66546D01*
Y88900D01*
X-66146Y88500D01*
X-66546Y88100D01*
Y87700D01*
X-63547Y87800D02*
X-63147D01*
X-62747Y88200D01*
X-62347Y87800D01*
X-61946D01*
Y88200D01*
X-62347Y88600D01*
X-61946Y89000D01*
Y89400D01*
X-62347D01*
X-62747Y89000D01*
X-63147Y89400D01*
X-63547D01*
Y89000D01*
X-63147Y88600D01*
X-63547Y88200D01*
Y87800D01*
X-45347Y87500D02*
X-44947D01*
X-44546Y87900D01*
X-44146Y87500D01*
X-43747D01*
Y87900D01*
X-44146Y88300D01*
X-43747Y88700D01*
Y89100D01*
X-44146D01*
X-44546Y88700D01*
X-44947Y89100D01*
X-45347D01*
Y88700D01*
X-44947Y88300D01*
X-45347Y87900D01*
Y87500D01*
X-42347D02*
X-41947D01*
X-41546Y87900D01*
X-41146Y87500D01*
X-40747D01*
Y87900D01*
X-41146Y88300D01*
X-40747Y88700D01*
Y89100D01*
X-41146D01*
X-41546Y88700D01*
X-41947Y89100D01*
X-42347D01*
Y88700D01*
X-41947Y88300D01*
X-42347Y87900D01*
Y87500D01*
X-248630Y3099D02*
X-248230D01*
X-247830Y3499D01*
X-247430Y3099D01*
X-247030D01*
Y3499D01*
X-247430Y3899D01*
X-247030Y4299D01*
Y4699D01*
X-247430D01*
X-247830Y4299D01*
X-248230Y4699D01*
X-248630D01*
Y4299D01*
X-248230Y3899D01*
X-248630Y3499D01*
Y3099D01*
X-245730D02*
X-245330D01*
X-244930Y3499D01*
X-244530Y3099D01*
X-244130D01*
Y3499D01*
X-244530Y3899D01*
X-244130Y4299D01*
Y4699D01*
X-244530D01*
X-244930Y4299D01*
X-245330Y4699D01*
X-245730D01*
Y4299D01*
X-245330Y3899D01*
X-245730Y3499D01*
Y3099D01*
X-228431Y1971D02*
X-228031D01*
X-227631Y2371D01*
X-227231Y1971D01*
X-226831D01*
Y2371D01*
X-227231Y2771D01*
X-226831Y3171D01*
Y3571D01*
X-227231D01*
X-227631Y3171D01*
X-228031Y3571D01*
X-228431D01*
Y3171D01*
X-228031Y2771D01*
X-228431Y2371D01*
Y1971D01*
X-225598D02*
X-225198D01*
X-224798Y2371D01*
X-224398Y1971D01*
X-223998D01*
Y2371D01*
X-224398Y2771D01*
X-223998Y3171D01*
Y3571D01*
X-224398D01*
X-224798Y3171D01*
X-225198Y3571D01*
X-225598D01*
Y3171D01*
X-225198Y2771D01*
X-225598Y2371D01*
Y1971D01*
X-222764D02*
X-222364D01*
X-221964Y2371D01*
X-221564Y1971D01*
X-221164D01*
Y2371D01*
X-221564Y2771D01*
X-221164Y3171D01*
Y3571D01*
X-221564D01*
X-221964Y3171D01*
X-222364Y3571D01*
X-222764D01*
Y3171D01*
X-222364Y2771D01*
X-222764Y2371D01*
Y1971D01*
X-219931D02*
X-219531D01*
X-219131Y2371D01*
X-218731Y1971D01*
X-218331D01*
Y2371D01*
X-218731Y2771D01*
X-218331Y3171D01*
Y3571D01*
X-218731D01*
X-219131Y3171D01*
X-219531Y3571D01*
X-219931D01*
Y3171D01*
X-219531Y2771D01*
X-219931Y2371D01*
Y1971D01*
X-339448Y177526D02*
X-339048D01*
X-338648Y177926D01*
X-338248Y177526D01*
X-337848D01*
Y177926D01*
X-338248Y178326D01*
X-337848Y178726D01*
Y179126D01*
X-338248D01*
X-338648Y178726D01*
X-339048Y179126D01*
X-339448D01*
Y178726D01*
X-339048Y178326D01*
X-339448Y177926D01*
Y177526D01*
Y174626D02*
X-339048D01*
X-338648Y175026D01*
X-338248Y174626D01*
X-337848D01*
Y175026D01*
X-338248Y175426D01*
X-337848Y175826D01*
Y176226D01*
X-338248D01*
X-338648Y175826D01*
X-339048Y176226D01*
X-339448D01*
Y175826D01*
X-339048Y175426D01*
X-339448Y175026D01*
Y174626D01*
Y165926D02*
X-339048D01*
X-338648Y166326D01*
X-338248Y165926D01*
X-337848D01*
Y166326D01*
X-338248Y166726D01*
X-337848Y167126D01*
Y167526D01*
X-338248D01*
X-338648Y167126D01*
X-339048Y167526D01*
X-339448D01*
Y167126D01*
X-339048Y166726D01*
X-339448Y166326D01*
Y165926D01*
Y168826D02*
X-339048D01*
X-338648Y169226D01*
X-338248Y168826D01*
X-337848D01*
Y169226D01*
X-338248Y169626D01*
X-337848Y170026D01*
Y170426D01*
X-338248D01*
X-338648Y170026D01*
X-339048Y170426D01*
X-339448D01*
Y170026D01*
X-339048Y169626D01*
X-339448Y169226D01*
Y168826D01*
Y171726D02*
X-339048D01*
X-338648Y172126D01*
X-338248Y171726D01*
X-337848D01*
Y172126D01*
X-338248Y172526D01*
X-337848Y172926D01*
Y173326D01*
X-338248D01*
X-338648Y172926D01*
X-339048Y173326D01*
X-339448D01*
Y172926D01*
X-339048Y172526D01*
X-339448Y172126D01*
Y171726D01*
Y162800D02*
X-339048D01*
X-338648Y163200D01*
X-338248Y162800D01*
X-337848D01*
Y163200D01*
X-338248Y163600D01*
X-337848Y164000D01*
Y164400D01*
X-338248D01*
X-338648Y164000D01*
X-339048Y164400D01*
X-339448D01*
Y164000D01*
X-339048Y163600D01*
X-339448Y163200D01*
Y162800D01*
X-330572Y2398D02*
X-330172D01*
X-329772Y2798D01*
X-329372Y2398D01*
X-328972D01*
Y2798D01*
X-329372Y3198D01*
X-328972Y3598D01*
Y3998D01*
X-329372D01*
X-329772Y3598D01*
X-330172Y3998D01*
X-330572D01*
Y3598D01*
X-330172Y3198D01*
X-330572Y2798D01*
Y2398D01*
X-81144Y2299D02*
X-80744D01*
X-80344Y2699D01*
X-79944Y2299D01*
X-79545D01*
Y2699D01*
X-79944Y3099D01*
X-79545Y3499D01*
Y3899D01*
X-79944D01*
X-80344Y3499D01*
X-80744Y3899D01*
X-81144D01*
Y3499D01*
X-80744Y3099D01*
X-81144Y2699D01*
Y2299D01*
X-78194D02*
X-77794D01*
X-77394Y2699D01*
X-76995Y2299D01*
X-76595D01*
Y2699D01*
X-76995Y3099D01*
X-76595Y3499D01*
Y3899D01*
X-76995D01*
X-77394Y3499D01*
X-77794Y3899D01*
X-78194D01*
Y3499D01*
X-77794Y3099D01*
X-78194Y2699D01*
Y2299D01*
X-97363Y7000D02*
X-96962D01*
X-96562Y7400D01*
X-96162Y7000D01*
X-95762D01*
Y7400D01*
X-96162Y7800D01*
X-95762Y8200D01*
Y8600D01*
X-96162D01*
X-96562Y8200D01*
X-96962Y8600D01*
X-97363D01*
Y8200D01*
X-96962Y7800D01*
X-97363Y7400D01*
Y7000D01*
X-94121D02*
X-93721D01*
X-93321Y7400D01*
X-92921Y7000D01*
X-92520D01*
Y7400D01*
X-92921Y7800D01*
X-92520Y8200D01*
Y8600D01*
X-92921D01*
X-93321Y8200D01*
X-93721Y8600D01*
X-94121D01*
Y8200D01*
X-93721Y7800D01*
X-94121Y7400D01*
Y7000D01*
X-103847D02*
X-103446D01*
X-103047Y7400D01*
X-102647Y7000D01*
X-102246D01*
Y7400D01*
X-102647Y7800D01*
X-102246Y8200D01*
Y8600D01*
X-102647D01*
X-103047Y8200D01*
X-103446Y8600D01*
X-103847D01*
Y8200D01*
X-103446Y7800D01*
X-103847Y7400D01*
Y7000D01*
X-100604D02*
X-100205D01*
X-99805Y7400D01*
X-99405Y7000D01*
X-99005D01*
Y7400D01*
X-99405Y7800D01*
X-99005Y8200D01*
Y8600D01*
X-99405D01*
X-99805Y8200D01*
X-100205Y8600D01*
X-100604D01*
Y8200D01*
X-100205Y7800D01*
X-100604Y7400D01*
Y7000D01*
X-22630Y59199D02*
X-22230Y59999D01*
X-22630Y60799D01*
X-21830Y60399D01*
X-21030Y60799D01*
X-21430Y59999D01*
X-21030Y59199D01*
X-21830Y59599D01*
X-22630Y59199D01*
Y61399D02*
X-22230Y62199D01*
X-22630Y62999D01*
X-21830Y62599D01*
X-21030Y62999D01*
X-21430Y62199D01*
X-21030Y61399D01*
X-21830Y61799D01*
X-22630Y61399D01*
X-20830Y52899D02*
X-20430Y53699D01*
X-20830Y54499D01*
X-20030Y54099D01*
X-19230Y54499D01*
X-19630Y53699D01*
X-19230Y52899D01*
X-20030Y53299D01*
X-20830Y52899D01*
Y51049D02*
X-20430Y51849D01*
X-20830Y52649D01*
X-20030Y52249D01*
X-19230Y52649D01*
X-19630Y51849D01*
X-19230Y51049D01*
X-20030Y51449D01*
X-20830Y51049D01*
Y49199D02*
X-20430Y49999D01*
X-20830Y50799D01*
X-20030Y50399D01*
X-19230Y50799D01*
X-19630Y49999D01*
X-19230Y49199D01*
X-20030Y49599D01*
X-20830Y49199D01*
X-155835Y143964D02*
X-155435Y144764D01*
X-155835Y145564D01*
X-155035Y145164D01*
X-154235Y145564D01*
X-154635Y144764D01*
X-154235Y143964D01*
X-155035Y144364D01*
X-155835Y143964D01*
X-154445Y145574D02*
X-154045Y146374D01*
X-154445Y147174D01*
X-153645Y146774D01*
X-152845Y147174D01*
X-153245Y146374D01*
X-152845Y145574D01*
X-153645Y145974D01*
X-154445Y145574D01*
X-157595Y151899D02*
X-157194Y152699D01*
X-157595Y153499D01*
X-156795Y153099D01*
X-155994Y153499D01*
X-156395Y152699D01*
X-155994Y151899D01*
X-156795Y152299D01*
X-157595Y151899D01*
Y155299D02*
X-157194Y156099D01*
X-157595Y156899D01*
X-156795Y156499D01*
X-155994Y156899D01*
X-156395Y156099D01*
X-155994Y155299D01*
X-156795Y155699D01*
X-157595Y155299D01*
X-154045Y158974D02*
X-153645D01*
X-153245Y159374D01*
X-152845Y158974D01*
X-152445D01*
Y159374D01*
X-152845Y159774D01*
X-152445Y160174D01*
Y160574D01*
X-152845D01*
X-153245Y160174D01*
X-153645Y160574D01*
X-154045D01*
Y160174D01*
X-153645Y159774D01*
X-154045Y159374D01*
Y158974D01*
Y165474D02*
X-153645Y166274D01*
X-154045Y167074D01*
X-153245Y166674D01*
X-152445Y167074D01*
X-152845Y166274D01*
X-152445Y165474D01*
X-153245Y165874D01*
X-154045Y165474D01*
X-157546Y162900D02*
X-157147Y163700D01*
X-157546Y164500D01*
X-156746Y164100D01*
X-155947Y164500D01*
X-156346Y163700D01*
X-155947Y162900D01*
X-156746Y163300D01*
X-157546Y162900D01*
X-156045Y157374D02*
X-155645Y158174D01*
X-156045Y158974D01*
X-155245Y158574D01*
X-154445Y158974D01*
X-154845Y158174D01*
X-154445Y157374D01*
X-155245Y157774D01*
X-156045Y157374D01*
X-172947Y166000D02*
X-172547Y166800D01*
X-172947Y167600D01*
X-172146Y167200D01*
X-171346Y167600D01*
X-171747Y166800D01*
X-171346Y166000D01*
X-172146Y166400D01*
X-172947Y166000D01*
X-179630Y154847D02*
X-179230Y155647D01*
X-179630Y156447D01*
X-178830Y156047D01*
X-178030Y156447D01*
X-178430Y155647D01*
X-178030Y154847D01*
X-178830Y155247D01*
X-179630Y154847D01*
Y158800D02*
X-179230Y159600D01*
X-179630Y160400D01*
X-178830Y160000D01*
X-178030Y160400D01*
X-178430Y159600D01*
X-178030Y158800D01*
X-178830Y159200D01*
X-179630Y158800D01*
X-173845Y160674D02*
X-173445D01*
X-173045Y161074D01*
X-172645Y160674D01*
X-172245D01*
Y161074D01*
X-172645Y161474D01*
X-172245Y161874D01*
Y162274D01*
X-172645D01*
X-173045Y161874D01*
X-173445Y162274D01*
X-173845D01*
Y161874D01*
X-173445Y161474D01*
X-173845Y161074D01*
Y160674D01*
X-179630Y163299D02*
X-179230Y164099D01*
X-179630Y164899D01*
X-178830Y164499D01*
X-178030Y164899D01*
X-178430Y164099D01*
X-178030Y163299D01*
X-178830Y163699D01*
X-179630Y163299D01*
Y165350D02*
X-179230Y166150D01*
X-179630Y166950D01*
X-178830Y166550D01*
X-178030Y166950D01*
X-178430Y166150D01*
X-178030Y165350D01*
X-178830Y165750D01*
X-179630Y165350D01*
X-174630Y164799D02*
X-174230Y165599D01*
X-174630Y166399D01*
X-173830Y165999D01*
X-173030Y166399D01*
X-173430Y165599D01*
X-173030Y164799D01*
X-173830Y165199D01*
X-174630Y164799D01*
X-192430Y165799D02*
X-192030Y166599D01*
X-192430Y167399D01*
X-191630Y166999D01*
X-190830Y167399D01*
X-191230Y166599D01*
X-190830Y165799D01*
X-191630Y166199D01*
X-192430Y165799D01*
X-174630Y158099D02*
X-174230Y158899D01*
X-174630Y159699D01*
X-173830Y159299D01*
X-173030Y159699D01*
X-173430Y158899D01*
X-173030Y158099D01*
X-173830Y158499D01*
X-174630Y158099D01*
X-210930Y6799D02*
X-210130Y7599D01*
X-209330Y6799D01*
X-210130Y5999D01*
X-210930Y6799D01*
X-97930Y35799D02*
X-97530Y36599D01*
X-97930Y37399D01*
X-97130Y36999D01*
X-96330Y37399D01*
X-96730Y36599D01*
X-96330Y35799D01*
X-97130Y36199D01*
X-97930Y35799D01*
X-102130Y85699D02*
X-101330Y86499D01*
X-100530Y85699D01*
X-101330Y84899D01*
X-102130Y85699D01*
X-98530D02*
X-97730Y86499D01*
X-96930Y85699D01*
X-97730Y84899D01*
X-98530Y85699D01*
X-166330Y174599D02*
X-165930Y175399D01*
X-166330Y176199D01*
X-165530Y175799D01*
X-164730Y176199D01*
X-165130Y175399D01*
X-164730Y174599D01*
X-165530Y174999D01*
X-166330Y174599D01*
X-109230Y139399D02*
X-108830Y140199D01*
X-109230Y140999D01*
X-108430Y140599D01*
X-107630Y140999D01*
X-108030Y140199D01*
X-107630Y139399D01*
X-108430Y139799D01*
X-109230Y139399D01*
X-43630Y119799D02*
X-43230Y120599D01*
X-43630Y121399D01*
X-42830Y120999D01*
X-42030Y121399D01*
X-42430Y120599D01*
X-42030Y119799D01*
X-42830Y120199D01*
X-43630Y119799D01*
X-51129Y112000D02*
X-50729D01*
X-50329Y112400D01*
X-49929Y112000D01*
X-49529D01*
Y112400D01*
X-49929Y112800D01*
X-49529Y113200D01*
Y113600D01*
X-49929D01*
X-50329Y113200D01*
X-50729Y113600D01*
X-51129D01*
Y113200D01*
X-50729Y112800D01*
X-51129Y112400D01*
Y112000D01*
X-340347Y10200D02*
X-339947D01*
X-339546Y10600D01*
X-339146Y10200D01*
X-338747D01*
Y10600D01*
X-339146Y11000D01*
X-338747Y11400D01*
Y11800D01*
X-339146D01*
X-339546Y11400D01*
X-339947Y11800D01*
X-340347D01*
Y11400D01*
X-339947Y11000D01*
X-340347Y10600D01*
Y10200D01*
X-340348Y19126D02*
X-339948D01*
X-339548Y19526D01*
X-339148Y19126D01*
X-338748D01*
Y19526D01*
X-339148Y19926D01*
X-338748Y20326D01*
Y20726D01*
X-339148D01*
X-339548Y20326D01*
X-339948Y20726D01*
X-340348D01*
Y20326D01*
X-339948Y19926D01*
X-340348Y19526D01*
Y19126D01*
Y16226D02*
X-339948D01*
X-339548Y16626D01*
X-339148Y16226D01*
X-338748D01*
Y16626D01*
X-339148Y17026D01*
X-338748Y17426D01*
Y17826D01*
X-339148D01*
X-339548Y17426D01*
X-339948Y17826D01*
X-340348D01*
Y17426D01*
X-339948Y17026D01*
X-340348Y16626D01*
Y16226D01*
Y13326D02*
X-339948D01*
X-339548Y13726D01*
X-339148Y13326D01*
X-338748D01*
Y13726D01*
X-339148Y14126D01*
X-338748Y14526D01*
Y14926D01*
X-339148D01*
X-339548Y14526D01*
X-339948Y14926D01*
X-340348D01*
Y14526D01*
X-339948Y14126D01*
X-340348Y13726D01*
Y13326D01*
Y22026D02*
X-339948D01*
X-339548Y22426D01*
X-339148Y22026D01*
X-338748D01*
Y22426D01*
X-339148Y22826D01*
X-338748Y23226D01*
Y23626D01*
X-339148D01*
X-339548Y23226D01*
X-339948Y23626D01*
X-340348D01*
Y23226D01*
X-339948Y22826D01*
X-340348Y22426D01*
Y22026D01*
Y24926D02*
X-339948D01*
X-339548Y25326D01*
X-339148Y24926D01*
X-338748D01*
Y25326D01*
X-339148Y25726D01*
X-338748Y26126D01*
Y26526D01*
X-339148D01*
X-339548Y26126D01*
X-339948Y26526D01*
X-340348D01*
Y26126D01*
X-339948Y25726D01*
X-340348Y25326D01*
Y24926D01*
X-263239Y155486D02*
X-262839Y156286D01*
X-263239Y157086D01*
X-262439Y156686D01*
X-261638Y157086D01*
X-262038Y156286D01*
X-261638Y155486D01*
X-262439Y155886D01*
X-263239Y155486D01*
X-265458Y155496D02*
X-265057Y156296D01*
X-265458Y157096D01*
X-264657Y156696D01*
X-263858Y157096D01*
X-264258Y156296D01*
X-263858Y155496D01*
X-264657Y155896D01*
X-265458Y155496D01*
X-267824Y155948D02*
X-267424Y156748D01*
X-267824Y157548D01*
X-267023Y157148D01*
X-266224Y157548D01*
X-266623Y156748D01*
X-266224Y155948D01*
X-267023Y156348D01*
X-267824Y155948D01*
X-286763Y161799D02*
X-286363Y162599D01*
X-286763Y163399D01*
X-285963Y162999D01*
X-285163Y163399D01*
X-285563Y162599D01*
X-285163Y161799D01*
X-285963Y162199D01*
X-286763Y161799D01*
X-284497D02*
X-284097Y162599D01*
X-284497Y163399D01*
X-283697Y162999D01*
X-282897Y163399D01*
X-283297Y162599D01*
X-282897Y161799D01*
X-283697Y162199D01*
X-284497Y161799D01*
X-286763Y159599D02*
X-286363Y160399D01*
X-286763Y161199D01*
X-285963Y160799D01*
X-285163Y161199D01*
X-285563Y160399D01*
X-285163Y159599D01*
X-285963Y159999D01*
X-286763Y159599D01*
X-282230Y161799D02*
X-281830Y162599D01*
X-282230Y163399D01*
X-281430Y162999D01*
X-280630Y163399D01*
X-281030Y162599D01*
X-280630Y161799D01*
X-281430Y162199D01*
X-282230Y161799D01*
X-250930Y156399D02*
X-250530Y157199D01*
X-250930Y157999D01*
X-250130Y157599D01*
X-249330Y157999D01*
X-249730Y157199D01*
X-249330Y156399D01*
X-250130Y156799D01*
X-250930Y156399D01*
X-247880D02*
X-247480Y157199D01*
X-247880Y157999D01*
X-247080Y157599D01*
X-246280Y157999D01*
X-246680Y157199D01*
X-246280Y156399D01*
X-247080Y156799D01*
X-247880Y156399D01*
X-244830D02*
X-244430Y157199D01*
X-244830Y157999D01*
X-244030Y157599D01*
X-243230Y157999D01*
X-243630Y157199D01*
X-243230Y156399D01*
X-244030Y156799D01*
X-244830Y156399D01*
X-225830D02*
X-225430Y157199D01*
X-225830Y157999D01*
X-225030Y157599D01*
X-224230Y157999D01*
X-224630Y157199D01*
X-224230Y156399D01*
X-225030Y156799D01*
X-225830Y156399D01*
X-223630D02*
X-223230Y157199D01*
X-223630Y157999D01*
X-222830Y157599D01*
X-222030Y157999D01*
X-222430Y157199D01*
X-222030Y156399D01*
X-222830Y156799D01*
X-223630Y156399D01*
X-221430D02*
X-221030Y157199D01*
X-221430Y157999D01*
X-220630Y157599D01*
X-219830Y157999D01*
X-220230Y157199D01*
X-219830Y156399D01*
X-220630Y156799D01*
X-221430Y156399D01*
X-219230D02*
X-218830Y157199D01*
X-219230Y157999D01*
X-218430Y157599D01*
X-217630Y157999D01*
X-218030Y157199D01*
X-217630Y156399D01*
X-218430Y156799D01*
X-219230Y156399D01*
X-217030D02*
X-216630Y157199D01*
X-217030Y157999D01*
X-216230Y157599D01*
X-215430Y157999D01*
X-215830Y157199D01*
X-215430Y156399D01*
X-216230Y156799D01*
X-217030Y156399D01*
X-202194Y158599D02*
X-201795Y159399D01*
X-202194Y160199D01*
X-201395Y159799D01*
X-200594Y160199D01*
X-200994Y159399D01*
X-200594Y158599D01*
X-201395Y158999D01*
X-202194Y158599D01*
Y156399D02*
X-201795Y157199D01*
X-202194Y157999D01*
X-201395Y157599D01*
X-200594Y157999D01*
X-200994Y157199D01*
X-200594Y156399D01*
X-201395Y156799D01*
X-202194Y156399D01*
X-327830Y108299D02*
X-327430Y109099D01*
X-327830Y109899D01*
X-327030Y109499D01*
X-326230Y109899D01*
X-326630Y109099D01*
X-326230Y108299D01*
X-327030Y108699D01*
X-327830Y108299D01*
Y110753D02*
X-327430Y111553D01*
X-327830Y112353D01*
X-327030Y111953D01*
X-326230Y112353D01*
X-326630Y111553D01*
X-326230Y110753D01*
X-327030Y111153D01*
X-327830Y110753D01*
Y113207D02*
X-327430Y114007D01*
X-327830Y114807D01*
X-327030Y114407D01*
X-326230Y114807D01*
X-326630Y114007D01*
X-326230Y113207D01*
X-327030Y113607D01*
X-327830Y113207D01*
Y115661D02*
X-327430Y116461D01*
X-327830Y117261D01*
X-327030Y116861D01*
X-326230Y117261D01*
X-326630Y116461D01*
X-326230Y115661D01*
X-327030Y116061D01*
X-327830Y115661D01*
Y118115D02*
X-327430Y118915D01*
X-327830Y119715D01*
X-327030Y119315D01*
X-326230Y119715D01*
X-326630Y118915D01*
X-326230Y118115D01*
X-327030Y118515D01*
X-327830Y118115D01*
Y120568D02*
X-327430Y121368D01*
X-327830Y122168D01*
X-327030Y121768D01*
X-326230Y122168D01*
X-326630Y121368D01*
X-326230Y120568D01*
X-327030Y120968D01*
X-327830Y120568D01*
Y123022D02*
X-327430Y123822D01*
X-327830Y124622D01*
X-327030Y124222D01*
X-326230Y124622D01*
X-326630Y123822D01*
X-326230Y123022D01*
X-327030Y123422D01*
X-327830Y123022D01*
Y125476D02*
X-327430Y126276D01*
X-327830Y127076D01*
X-327030Y126676D01*
X-326230Y127076D01*
X-326630Y126276D01*
X-326230Y125476D01*
X-327030Y125876D01*
X-327830Y125476D01*
Y127930D02*
X-327430Y128730D01*
X-327830Y129530D01*
X-327030Y129130D01*
X-326230Y129530D01*
X-326630Y128730D01*
X-326230Y127930D01*
X-327030Y128330D01*
X-327830Y127930D01*
Y130384D02*
X-327430Y131184D01*
X-327830Y131984D01*
X-327030Y131584D01*
X-326230Y131984D01*
X-326630Y131184D01*
X-326230Y130384D01*
X-327030Y130784D01*
X-327830Y130384D01*
Y132838D02*
X-327430Y133638D01*
X-327830Y134438D01*
X-327030Y134038D01*
X-326230Y134438D01*
X-326630Y133638D01*
X-326230Y132838D01*
X-327030Y133238D01*
X-327830Y132838D01*
Y135292D02*
X-327430Y136091D01*
X-327830Y136891D01*
X-327030Y136492D01*
X-326230Y136891D01*
X-326630Y136091D01*
X-326230Y135292D01*
X-327030Y135691D01*
X-327830Y135292D01*
Y137745D02*
X-327430Y138545D01*
X-327830Y139345D01*
X-327030Y138945D01*
X-326230Y139345D01*
X-326630Y138545D01*
X-326230Y137745D01*
X-327030Y138145D01*
X-327830Y137745D01*
Y140199D02*
X-327430Y140999D01*
X-327830Y141799D01*
X-327030Y141399D01*
X-326230Y141799D01*
X-326630Y140999D01*
X-326230Y140199D01*
X-327030Y140599D01*
X-327830Y140199D01*
X-331230Y153579D02*
X-330830D01*
X-330430Y153979D01*
X-330030Y153579D01*
X-329630D01*
Y153979D01*
X-330030Y154379D01*
X-329630Y154779D01*
Y155179D01*
X-330030D01*
X-330430Y154779D01*
X-330830Y155179D01*
X-331230D01*
Y154779D01*
X-330830Y154379D01*
X-331230Y153979D01*
Y153579D01*
Y150319D02*
X-330830D01*
X-330430Y150719D01*
X-330030Y150319D01*
X-329630D01*
Y150719D01*
X-330030Y151119D01*
X-329630Y151519D01*
Y151919D01*
X-330030D01*
X-330430Y151519D01*
X-330830Y151919D01*
X-331230D01*
Y151519D01*
X-330830Y151119D01*
X-331230Y150719D01*
Y150319D01*
Y143799D02*
X-330830D01*
X-330430Y144199D01*
X-330030Y143799D01*
X-329630D01*
Y144199D01*
X-330030Y144599D01*
X-329630Y144999D01*
Y145399D01*
X-330030D01*
X-330430Y144999D01*
X-330830Y145399D01*
X-331230D01*
Y144999D01*
X-330830Y144599D01*
X-331230Y144199D01*
Y143799D01*
Y147059D02*
X-330830D01*
X-330430Y147459D01*
X-330030Y147059D01*
X-329630D01*
Y147459D01*
X-330030Y147859D01*
X-329630Y148259D01*
Y148659D01*
X-330030D01*
X-330430Y148259D01*
X-330830Y148659D01*
X-331230D01*
Y148259D01*
X-330830Y147859D01*
X-331230Y147459D01*
Y147059D01*
X-313794Y130899D02*
X-313394D01*
X-312995Y131299D01*
X-312595Y130899D01*
X-312194D01*
Y131299D01*
X-312595Y131699D01*
X-312194Y132099D01*
Y132499D01*
X-312595D01*
X-312995Y132099D01*
X-313394Y132499D01*
X-313794D01*
Y132099D01*
X-313394Y131699D01*
X-313794Y131299D01*
Y130899D01*
X-323430Y120599D02*
X-323030Y121399D01*
X-323430Y122199D01*
X-322630Y121799D01*
X-321830Y122199D01*
X-322230Y121399D01*
X-321830Y120599D01*
X-322630Y120999D01*
X-323430Y120599D01*
X-325630D02*
X-325230Y121399D01*
X-325630Y122199D01*
X-324830Y121799D01*
X-324030Y122199D01*
X-324430Y121399D01*
X-324030Y120599D01*
X-324830Y120999D01*
X-325630Y120599D01*
X-327830Y105899D02*
X-327430Y106699D01*
X-327830Y107499D01*
X-327030Y107099D01*
X-326230Y107499D01*
X-326630Y106699D01*
X-326230Y105899D01*
X-327030Y106299D01*
X-327830Y105899D01*
X-284497Y159599D02*
X-284097Y160399D01*
X-284497Y161199D01*
X-283697Y160799D01*
X-282897Y161199D01*
X-283297Y160399D01*
X-282897Y159599D01*
X-283697Y159999D01*
X-284497Y159599D01*
X-143245Y135174D02*
X-142845Y135974D01*
X-143245Y136774D01*
X-142445Y136374D01*
X-141645Y136774D01*
X-142045Y135974D01*
X-141645Y135174D01*
X-142445Y135574D01*
X-143245Y135174D01*
X-236995Y38099D02*
X-236595D01*
X-236194Y38499D01*
X-235794Y38099D01*
X-235395D01*
Y38499D01*
X-235794Y38899D01*
X-235395Y39299D01*
Y39699D01*
X-235794D01*
X-236194Y39299D01*
X-236595Y39699D01*
X-236995D01*
Y39299D01*
X-236595Y38899D01*
X-236995Y38499D01*
Y38099D01*
X-194430Y1999D02*
X-194030D01*
X-193630Y2399D01*
X-193230Y1999D01*
X-192830D01*
Y2399D01*
X-193230Y2799D01*
X-192830Y3199D01*
Y3599D01*
X-193230D01*
X-193630Y3199D01*
X-194030Y3599D01*
X-194430D01*
Y3199D01*
X-194030Y2799D01*
X-194430Y2399D01*
Y1999D01*
X-197230D02*
X-196830D01*
X-196430Y2399D01*
X-196030Y1999D01*
X-195630D01*
Y2399D01*
X-196030Y2799D01*
X-195630Y3199D01*
Y3599D01*
X-196030D01*
X-196430Y3199D01*
X-196830Y3599D01*
X-197230D01*
Y3199D01*
X-196830Y2799D01*
X-197230Y2399D01*
Y1999D01*
X-200030D02*
X-199630D01*
X-199230Y2399D01*
X-198830Y1999D01*
X-198430D01*
Y2399D01*
X-198830Y2799D01*
X-198430Y3199D01*
Y3599D01*
X-198830D01*
X-199230Y3199D01*
X-199630Y3599D01*
X-200030D01*
Y3199D01*
X-199630Y2799D01*
X-200030Y2399D01*
Y1999D01*
X-202830D02*
X-202430D01*
X-202030Y2399D01*
X-201630Y1999D01*
X-201230D01*
Y2399D01*
X-201630Y2799D01*
X-201230Y3199D01*
Y3599D01*
X-201630D01*
X-202030Y3199D01*
X-202430Y3599D01*
X-202830D01*
Y3199D01*
X-202430Y2799D01*
X-202830Y2399D01*
Y1999D01*
X-176930Y1599D02*
X-176530D01*
X-176130Y1999D01*
X-175730Y1599D01*
X-175330D01*
Y1999D01*
X-175730Y2399D01*
X-175330Y2799D01*
Y3199D01*
X-175730D01*
X-176130Y2799D01*
X-176530Y3199D01*
X-176930D01*
Y2799D01*
X-176530Y2399D01*
X-176930Y1999D01*
Y1599D01*
X-173897D02*
X-173497D01*
X-173097Y1999D01*
X-172697Y1599D01*
X-172297D01*
Y1999D01*
X-172697Y2399D01*
X-172297Y2799D01*
Y3199D01*
X-172697D01*
X-173097Y2799D01*
X-173497Y3199D01*
X-173897D01*
Y2799D01*
X-173497Y2399D01*
X-173897Y1999D01*
Y1599D01*
X-170863D02*
X-170463D01*
X-170063Y1999D01*
X-169663Y1599D01*
X-169263D01*
Y1999D01*
X-169663Y2399D01*
X-169263Y2799D01*
Y3199D01*
X-169663D01*
X-170063Y2799D01*
X-170463Y3199D01*
X-170863D01*
Y2799D01*
X-170463Y2399D01*
X-170863Y1999D01*
Y1599D01*
X-167830D02*
X-167430D01*
X-167030Y1999D01*
X-166630Y1599D01*
X-166230D01*
Y1999D01*
X-166630Y2399D01*
X-166230Y2799D01*
Y3199D01*
X-166630D01*
X-167030Y2799D01*
X-167430Y3199D01*
X-167830D01*
Y2799D01*
X-167430Y2399D01*
X-167830Y1999D01*
Y1599D01*
X-151030Y1699D02*
X-150630D01*
X-150230Y2099D01*
X-149830Y1699D01*
X-149430D01*
Y2099D01*
X-149830Y2499D01*
X-149430Y2899D01*
Y3299D01*
X-149830D01*
X-150230Y2899D01*
X-150630Y3299D01*
X-151030D01*
Y2899D01*
X-150630Y2499D01*
X-151030Y2099D01*
Y1699D01*
X-147720D02*
X-147320D01*
X-146920Y2099D01*
X-146520Y1699D01*
X-146120D01*
Y2099D01*
X-146520Y2499D01*
X-146120Y2899D01*
Y3299D01*
X-146520D01*
X-146920Y2899D01*
X-147320Y3299D01*
X-147720D01*
Y2899D01*
X-147320Y2499D01*
X-147720Y2099D01*
Y1699D01*
X-144411D02*
X-144011D01*
X-143611Y2099D01*
X-143211Y1699D01*
X-142811D01*
Y2099D01*
X-143211Y2499D01*
X-142811Y2899D01*
Y3299D01*
X-143211D01*
X-143611Y2899D01*
X-144011Y3299D01*
X-144411D01*
Y2899D01*
X-144011Y2499D01*
X-144411Y2099D01*
Y1699D01*
X-141101D02*
X-140701D01*
X-140301Y2099D01*
X-139901Y1699D01*
X-139501D01*
Y2099D01*
X-139901Y2499D01*
X-139501Y2899D01*
Y3299D01*
X-139901D01*
X-140301Y2899D01*
X-140701Y3299D01*
X-141101D01*
Y2899D01*
X-140701Y2499D01*
X-141101Y2099D01*
Y1699D01*
X-137792D02*
X-137392D01*
X-136992Y2099D01*
X-136592Y1699D01*
X-136192D01*
Y2099D01*
X-136592Y2499D01*
X-136192Y2899D01*
Y3299D01*
X-136592D01*
X-136992Y2899D01*
X-137392Y3299D01*
X-137792D01*
Y2899D01*
X-137392Y2499D01*
X-137792Y2099D01*
Y1699D01*
X-134482D02*
X-134082D01*
X-133682Y2099D01*
X-133282Y1699D01*
X-132882D01*
Y2099D01*
X-133282Y2499D01*
X-132882Y2899D01*
Y3299D01*
X-133282D01*
X-133682Y2899D01*
X-134082Y3299D01*
X-134482D01*
Y2899D01*
X-134082Y2499D01*
X-134482Y2099D01*
Y1699D01*
X-131173D02*
X-130773D01*
X-130373Y2099D01*
X-129973Y1699D01*
X-129573D01*
Y2099D01*
X-129973Y2499D01*
X-129573Y2899D01*
Y3299D01*
X-129973D01*
X-130373Y2899D01*
X-130773Y3299D01*
X-131173D01*
Y2899D01*
X-130773Y2499D01*
X-131173Y2099D01*
Y1699D01*
X-127863D02*
X-127463D01*
X-127063Y2099D01*
X-126663Y1699D01*
X-126263D01*
Y2099D01*
X-126663Y2499D01*
X-126263Y2899D01*
Y3299D01*
X-126663D01*
X-127063Y2899D01*
X-127463Y3299D01*
X-127863D01*
Y2899D01*
X-127463Y2499D01*
X-127863Y2099D01*
Y1699D01*
X-124554D02*
X-124154D01*
X-123754Y2099D01*
X-123354Y1699D01*
X-122954D01*
Y2099D01*
X-123354Y2499D01*
X-122954Y2899D01*
Y3299D01*
X-123354D01*
X-123754Y2899D01*
X-124154Y3299D01*
X-124554D01*
Y2899D01*
X-124154Y2499D01*
X-124554Y2099D01*
Y1699D01*
X-121244D02*
X-120844D01*
X-120444Y2099D01*
X-120044Y1699D01*
X-119644D01*
Y2099D01*
X-120044Y2499D01*
X-119644Y2899D01*
Y3299D01*
X-120044D01*
X-120444Y2899D01*
X-120844Y3299D01*
X-121244D01*
Y2899D01*
X-120844Y2499D01*
X-121244Y2099D01*
Y1699D01*
X-117935D02*
X-117535D01*
X-117135Y2099D01*
X-116735Y1699D01*
X-116335D01*
Y2099D01*
X-116735Y2499D01*
X-116335Y2899D01*
Y3299D01*
X-116735D01*
X-117135Y2899D01*
X-117535Y3299D01*
X-117935D01*
Y2899D01*
X-117535Y2499D01*
X-117935Y2099D01*
Y1699D01*
X-114625D02*
X-114225D01*
X-113825Y2099D01*
X-113425Y1699D01*
X-113025D01*
Y2099D01*
X-113425Y2499D01*
X-113025Y2899D01*
Y3299D01*
X-113425D01*
X-113825Y2899D01*
X-114225Y3299D01*
X-114625D01*
Y2899D01*
X-114225Y2499D01*
X-114625Y2099D01*
Y1699D01*
X-111316D02*
X-110916D01*
X-110516Y2099D01*
X-110116Y1699D01*
X-109716D01*
Y2099D01*
X-110116Y2499D01*
X-109716Y2899D01*
Y3299D01*
X-110116D01*
X-110516Y2899D01*
X-110916Y3299D01*
X-111316D01*
Y2899D01*
X-110916Y2499D01*
X-111316Y2099D01*
Y1699D01*
X-108006D02*
X-107606D01*
X-107206Y2099D01*
X-106806Y1699D01*
X-106406D01*
Y2099D01*
X-106806Y2499D01*
X-106406Y2899D01*
Y3299D01*
X-106806D01*
X-107206Y2899D01*
X-107606Y3299D01*
X-108006D01*
Y2899D01*
X-107606Y2499D01*
X-108006Y2099D01*
Y1699D01*
X-104697D02*
X-104297D01*
X-103897Y2099D01*
X-103497Y1699D01*
X-103097D01*
Y2099D01*
X-103497Y2499D01*
X-103097Y2899D01*
Y3299D01*
X-103497D01*
X-103897Y2899D01*
X-104297Y3299D01*
X-104697D01*
Y2899D01*
X-104297Y2499D01*
X-104697Y2099D01*
Y1699D01*
X-101387D02*
X-100987D01*
X-100587Y2099D01*
X-100187Y1699D01*
X-99787D01*
Y2099D01*
X-100187Y2499D01*
X-99787Y2899D01*
Y3299D01*
X-100187D01*
X-100587Y2899D01*
X-100987Y3299D01*
X-101387D01*
Y2899D01*
X-100987Y2499D01*
X-101387Y2099D01*
Y1699D01*
X-98078D02*
X-97678D01*
X-97278Y2099D01*
X-96878Y1699D01*
X-96478D01*
Y2099D01*
X-96878Y2499D01*
X-96478Y2899D01*
Y3299D01*
X-96878D01*
X-97278Y2899D01*
X-97678Y3299D01*
X-98078D01*
Y2899D01*
X-97678Y2499D01*
X-98078Y2099D01*
Y1699D01*
X-94768D02*
X-94368D01*
X-93968Y2099D01*
X-93568Y1699D01*
X-93168D01*
Y2099D01*
X-93568Y2499D01*
X-93168Y2899D01*
Y3299D01*
X-93568D01*
X-93968Y2899D01*
X-94368Y3299D01*
X-94768D01*
Y2899D01*
X-94368Y2499D01*
X-94768Y2099D01*
Y1699D01*
X-84095Y2299D02*
X-83694D01*
X-83294Y2699D01*
X-82894Y2299D01*
X-82494D01*
Y2699D01*
X-82894Y3099D01*
X-82494Y3499D01*
Y3899D01*
X-82894D01*
X-83294Y3499D01*
X-83694Y3899D01*
X-84095D01*
Y3499D01*
X-83694Y3099D01*
X-84095Y2699D01*
Y2299D01*
X-88149Y1699D02*
X-87749D01*
X-87349Y2099D01*
X-86949Y1699D01*
X-86549D01*
Y2099D01*
X-86949Y2499D01*
X-86549Y2899D01*
Y3299D01*
X-86949D01*
X-87349Y2899D01*
X-87749Y3299D01*
X-88149D01*
Y2899D01*
X-87749Y2499D01*
X-88149Y2099D01*
Y1699D01*
X-91459D02*
X-91059D01*
X-90659Y2099D01*
X-90259Y1699D01*
X-89859D01*
Y2099D01*
X-90259Y2499D01*
X-89859Y2899D01*
Y3299D01*
X-90259D01*
X-90659Y2899D01*
X-91059Y3299D01*
X-91459D01*
Y2899D01*
X-91059Y2499D01*
X-91459Y2099D01*
Y1699D01*
X-339030Y7199D02*
X-338630D01*
X-338230Y7599D01*
X-337830Y7199D01*
X-337430D01*
Y7599D01*
X-337830Y7999D01*
X-337430Y8399D01*
Y8799D01*
X-337830D01*
X-338230Y8399D01*
X-338630Y8799D01*
X-339030D01*
Y8399D01*
X-338630Y7999D01*
X-339030Y7599D01*
Y7199D01*
X-336830Y5099D02*
X-336430D01*
X-336030Y5499D01*
X-335630Y5099D01*
X-335230D01*
Y5499D01*
X-335630Y5899D01*
X-335230Y6299D01*
Y6699D01*
X-335630D01*
X-336030Y6299D01*
X-336430Y6699D01*
X-336830D01*
Y6299D01*
X-336430Y5899D01*
X-336830Y5499D01*
Y5099D01*
X-334130Y3299D02*
X-333730D01*
X-333330Y3699D01*
X-332930Y3299D01*
X-332530D01*
Y3699D01*
X-332930Y4099D01*
X-332530Y4499D01*
Y4899D01*
X-332930D01*
X-333330Y4499D01*
X-333730Y4899D01*
X-334130D01*
Y4499D01*
X-333730Y4099D01*
X-334130Y3699D01*
Y3299D01*
X-6730Y90899D02*
X-6330D01*
X-5930Y91299D01*
X-5530Y90899D01*
X-5130D01*
Y91299D01*
X-5530Y91699D01*
X-5130Y92099D01*
Y92499D01*
X-5530D01*
X-5930Y92099D01*
X-6330Y92499D01*
X-6730D01*
Y92099D01*
X-6330Y91699D01*
X-6730Y91299D01*
Y90899D01*
Y87899D02*
X-6330D01*
X-5930Y88299D01*
X-5530Y87899D01*
X-5130D01*
Y88299D01*
X-5530Y88699D01*
X-5130Y89099D01*
Y89499D01*
X-5530D01*
X-5930Y89099D01*
X-6330Y89499D01*
X-6730D01*
Y89099D01*
X-6330Y88699D01*
X-6730Y88299D01*
Y87899D01*
Y84899D02*
X-6330D01*
X-5930Y85299D01*
X-5530Y84899D01*
X-5130D01*
Y85299D01*
X-5530Y85699D01*
X-5130Y86099D01*
Y86499D01*
X-5530D01*
X-5930Y86099D01*
X-6330Y86499D01*
X-6730D01*
Y86099D01*
X-6330Y85699D01*
X-6730Y85299D01*
Y84899D01*
Y81899D02*
X-6330D01*
X-5930Y82299D01*
X-5530Y81899D01*
X-5130D01*
Y82299D01*
X-5530Y82699D01*
X-5130Y83099D01*
Y83499D01*
X-5530D01*
X-5930Y83099D01*
X-6330Y83499D01*
X-6730D01*
Y83099D01*
X-6330Y82699D01*
X-6730Y82299D01*
Y81899D01*
X-7030Y158199D02*
X-6630D01*
X-6230Y158599D01*
X-5830Y158199D01*
X-5430D01*
Y158599D01*
X-5830Y158999D01*
X-5430Y159399D01*
Y159799D01*
X-5830D01*
X-6230Y159399D01*
X-6630Y159799D01*
X-7030D01*
Y159399D01*
X-6630Y158999D01*
X-7030Y158599D01*
Y158199D01*
X2170D02*
X2570D01*
X2970Y158599D01*
X3370Y158199D01*
X3770D01*
Y158599D01*
X3370Y158999D01*
X3770Y159399D01*
Y159799D01*
X3370D01*
X2970Y159399D01*
X2570Y159799D01*
X2170D01*
Y159399D01*
X2570Y158999D01*
X2170Y158599D01*
Y158199D01*
X5270Y163599D02*
X5670D01*
X6070Y163999D01*
X6470Y163599D01*
X6870D01*
Y163999D01*
X6470Y164399D01*
X6870Y164799D01*
Y165199D01*
X6470D01*
X6070Y164799D01*
X5670Y165199D01*
X5270D01*
Y164799D01*
X5670Y164399D01*
X5270Y163999D01*
Y163599D01*
Y160699D02*
X5670D01*
X6070Y161099D01*
X6470Y160699D01*
X6870D01*
Y161099D01*
X6470Y161499D01*
X6870Y161899D01*
Y162299D01*
X6470D01*
X6070Y161899D01*
X5670Y162299D01*
X5270D01*
Y161899D01*
X5670Y161499D01*
X5270Y161099D01*
Y160699D01*
X-25760Y184902D02*
X-25360D01*
X-24960Y185302D01*
X-24560Y184902D01*
X-24160D01*
Y185302D01*
X-24560Y185702D01*
X-24160Y186102D01*
Y186502D01*
X-24560D01*
X-24960Y186102D01*
X-25360Y186502D01*
X-25760D01*
Y186102D01*
X-25360Y185702D01*
X-25760Y185302D01*
Y184902D01*
X-22679D02*
X-22279D01*
X-21879Y185302D01*
X-21479Y184902D01*
X-21079D01*
Y185302D01*
X-21479Y185702D01*
X-21079Y186102D01*
Y186502D01*
X-21479D01*
X-21879Y186102D01*
X-22279Y186502D01*
X-22679D01*
Y186102D01*
X-22279Y185702D01*
X-22679Y185302D01*
Y184902D01*
X-19598D02*
X-19198D01*
X-18798Y185302D01*
X-18398Y184902D01*
X-17998D01*
Y185302D01*
X-18398Y185702D01*
X-17998Y186102D01*
Y186502D01*
X-18398D01*
X-18798Y186102D01*
X-19198Y186502D01*
X-19598D01*
Y186102D01*
X-19198Y185702D01*
X-19598Y185302D01*
Y184902D01*
X1970D02*
X2370D01*
X2770Y185302D01*
X3170Y184902D01*
X3570D01*
Y185302D01*
X3170Y185702D01*
X3570Y186102D01*
Y186502D01*
X3170D01*
X2770Y186102D01*
X2370Y186502D01*
X1970D01*
Y186102D01*
X2370Y185702D01*
X1970Y185302D01*
Y184902D01*
X370Y77799D02*
X770D01*
X1170Y78199D01*
X1570Y77799D01*
X1970D01*
Y78199D01*
X1570Y78599D01*
X1970Y78999D01*
Y79399D01*
X1570D01*
X1170Y78999D01*
X770Y79399D01*
X370D01*
Y78999D01*
X770Y78599D01*
X370Y78199D01*
Y77799D01*
X4203D02*
X4603D01*
X5003Y78199D01*
X5403Y77799D01*
X5803D01*
Y78199D01*
X5403Y78599D01*
X5803Y78999D01*
Y79399D01*
X5403D01*
X5003Y78999D01*
X4603Y79399D01*
X4203D01*
Y78999D01*
X4603Y78599D01*
X4203Y78199D01*
Y77799D01*
X8037D02*
X8437D01*
X8837Y78199D01*
X9237Y77799D01*
X9637D01*
Y78199D01*
X9237Y78599D01*
X9637Y78999D01*
Y79399D01*
X9237D01*
X8837Y78999D01*
X8437Y79399D01*
X8037D01*
Y78999D01*
X8437Y78599D01*
X8037Y78199D01*
Y77799D01*
X11870D02*
X12270D01*
X12670Y78199D01*
X13070Y77799D01*
X13470D01*
Y78199D01*
X13070Y78599D01*
X13470Y78999D01*
Y79399D01*
X13070D01*
X12670Y78999D01*
X12270Y79399D01*
X11870D01*
Y78999D01*
X12270Y78599D01*
X11870Y78199D01*
Y77799D01*
X11870Y74699D02*
X12270D01*
X12670Y75099D01*
X13070Y74699D01*
X13470D01*
Y75099D01*
X13070Y75499D01*
X13470Y75899D01*
Y76299D01*
X13070D01*
X12670Y75899D01*
X12270Y76299D01*
X11870D01*
Y75899D01*
X12270Y75499D01*
X11870Y75099D01*
Y74699D01*
Y71599D02*
X12270D01*
X12670Y71999D01*
X13070Y71599D01*
X13470D01*
Y71999D01*
X13070Y72399D01*
X13470Y72799D01*
Y73199D01*
X13070D01*
X12670Y72799D01*
X12270Y73199D01*
X11870D01*
Y72799D01*
X12270Y72399D01*
X11870Y71999D01*
Y71599D01*
X-139730Y25799D02*
X-139330Y26599D01*
X-139730Y27399D01*
X-138930Y26999D01*
X-138130Y27399D01*
X-138530Y26599D01*
X-138130Y25799D01*
X-138930Y26199D01*
X-139730Y25799D01*
X-150730Y24299D02*
X-150330Y25099D01*
X-150730Y25899D01*
X-149930Y25499D01*
X-149130Y25899D01*
X-149530Y25099D01*
X-149130Y24299D01*
X-149930Y24699D01*
X-150730Y24299D01*
X-128730Y21899D02*
X-128330Y22699D01*
X-128730Y23499D01*
X-127930Y23099D01*
X-127130Y23499D01*
X-127530Y22699D01*
X-127130Y21899D01*
X-127930Y22299D01*
X-128730Y21899D01*
X-126530D02*
X-126130Y22699D01*
X-126530Y23499D01*
X-125730Y23099D01*
X-124930Y23499D01*
X-125330Y22699D01*
X-124930Y21899D01*
X-125730Y22299D01*
X-126530Y21899D01*
X-121130Y20999D02*
X-120730Y21799D01*
X-121130Y22599D01*
X-120330Y22199D01*
X-119530Y22599D01*
X-119930Y21799D01*
X-119530Y20999D01*
X-120330Y21399D01*
X-121130Y20999D01*
Y18799D02*
X-120730Y19599D01*
X-121130Y20399D01*
X-120330Y19999D01*
X-119530Y20399D01*
X-119930Y19599D01*
X-119530Y18799D01*
X-120330Y19199D01*
X-121130Y18799D01*
X-139630Y7099D02*
X-139230Y7899D01*
X-139630Y8699D01*
X-138830Y8299D01*
X-138030Y8699D01*
X-138430Y7899D01*
X-138030Y7099D01*
X-138830Y7499D01*
X-139630Y7099D01*
X-137397D02*
X-136997Y7899D01*
X-137397Y8699D01*
X-136597Y8299D01*
X-135797Y8699D01*
X-136197Y7899D01*
X-135797Y7099D01*
X-136597Y7499D01*
X-137397Y7099D01*
X-135163D02*
X-134763Y7899D01*
X-135163Y8699D01*
X-134363Y8299D01*
X-133563Y8699D01*
X-133963Y7899D01*
X-133563Y7099D01*
X-134363Y7499D01*
X-135163Y7099D01*
X-132930D02*
X-132530Y7899D01*
X-132930Y8699D01*
X-132130Y8299D01*
X-131330Y8699D01*
X-131730Y7899D01*
X-131330Y7099D01*
X-132130Y7499D01*
X-132930Y7099D01*
X-165030Y26599D02*
X-164630Y27399D01*
X-165030Y28199D01*
X-164230Y27799D01*
X-163430Y28199D01*
X-163830Y27399D01*
X-163430Y26599D01*
X-164230Y26999D01*
X-165030Y26599D01*
Y24399D02*
X-164630Y25199D01*
X-165030Y25999D01*
X-164230Y25599D01*
X-163430Y25999D01*
X-163830Y25199D01*
X-163430Y24399D01*
X-164230Y24799D01*
X-165030Y24399D01*
X-180330Y23499D02*
X-179930Y24299D01*
X-180330Y25099D01*
X-179530Y24699D01*
X-178730Y25099D01*
X-179130Y24299D01*
X-178730Y23499D01*
X-179530Y23899D01*
X-180330Y23499D01*
X-304505Y55899D02*
X-304105Y56699D01*
X-304505Y57499D01*
X-303705Y57099D01*
X-302905Y57499D01*
X-303305Y56699D01*
X-302905Y55899D01*
X-303705Y56299D01*
X-304505Y55899D01*
X-301830D02*
X-301430Y56699D01*
X-301830Y57499D01*
X-301030Y57099D01*
X-300230Y57499D01*
X-300630Y56699D01*
X-300230Y55899D01*
X-301030Y56299D01*
X-301830Y55899D01*
X-307180D02*
X-306780Y56699D01*
X-307180Y57499D01*
X-306380Y57099D01*
X-305580Y57499D01*
X-305980Y56699D01*
X-305580Y55899D01*
X-306380Y56299D01*
X-307180Y55899D01*
X-309855D02*
X-309455Y56699D01*
X-309855Y57499D01*
X-309055Y57099D01*
X-308255Y57499D01*
X-308655Y56699D01*
X-308255Y55899D01*
X-309055Y56299D01*
X-309855Y55899D01*
X-307295Y53599D02*
X-306894Y54399D01*
X-307295Y55199D01*
X-306494Y54799D01*
X-305695Y55199D01*
X-306095Y54399D01*
X-305695Y53599D01*
X-306494Y53999D01*
X-307295Y53599D01*
X-170830Y58899D02*
X-170430Y59699D01*
X-170830Y60499D01*
X-170030Y60099D01*
X-169230Y60499D01*
X-169630Y59699D01*
X-169230Y58899D01*
X-170030Y59299D01*
X-170830Y58899D01*
X-89995Y114499D02*
X-89595Y115299D01*
X-89995Y116099D01*
X-89195Y115699D01*
X-88394Y116099D01*
X-88794Y115299D01*
X-88394Y114499D01*
X-89195Y114899D01*
X-89995Y114499D01*
X-88095D02*
X-87695Y115299D01*
X-88095Y116099D01*
X-87295Y115699D01*
X-86494Y116099D01*
X-86895Y115299D01*
X-86494Y114499D01*
X-87295Y114899D01*
X-88095Y114499D01*
X-172695Y145699D02*
X-172294Y146499D01*
X-172695Y147299D01*
X-171895Y146899D01*
X-171095Y147299D01*
X-171494Y146499D01*
X-171095Y145699D01*
X-171895Y146099D01*
X-172695Y145699D01*
X-151894Y132459D02*
X-151495Y133259D01*
X-151894Y134059D01*
X-151094Y133659D01*
X-150294Y134059D01*
X-150695Y133259D01*
X-150294Y132459D01*
X-151094Y132859D01*
X-151894Y132459D01*
X-89495Y121699D02*
X-89095Y122499D01*
X-89495Y123299D01*
X-88695Y122899D01*
X-87894Y123299D01*
X-88295Y122499D01*
X-87894Y121699D01*
X-88695Y122099D01*
X-89495Y121699D01*
X-93094Y135399D02*
X-92694Y136199D01*
X-93094Y136999D01*
X-92295Y136599D01*
X-91495Y136999D01*
X-91895Y136199D01*
X-91495Y135399D01*
X-92295Y135799D01*
X-93094Y135399D01*
X-214694Y49732D02*
Y49332D01*
X-213895D01*
Y49732D01*
X-213494D01*
Y50532D01*
X-213895D01*
Y50932D01*
X-214694D01*
Y50532D01*
X-215094D01*
Y49732D01*
X-214694D01*
X-217145Y52591D02*
Y52191D01*
X-216345D01*
Y52591D01*
X-215945D01*
Y53391D01*
X-216345D01*
Y53791D01*
X-217145D01*
Y53391D01*
X-217545D01*
Y52591D01*
X-217145D01*
X-109895Y167799D02*
X-109095Y168599D01*
X-108294Y167799D01*
X-109095Y166999D01*
X-109895Y167799D01*
X-203346Y161600D02*
X-202946D01*
X-202547Y162000D01*
X-202147Y161600D01*
X-201747D01*
Y162000D01*
X-202147Y162400D01*
X-201747Y162800D01*
Y163200D01*
X-202147D01*
X-202547Y162800D01*
X-202946Y163200D01*
X-203346D01*
Y162800D01*
X-202946Y162400D01*
X-203346Y162000D01*
Y161600D01*
X-87295Y112699D02*
X-86895Y113499D01*
X-87295Y114299D01*
X-86494Y113899D01*
X-85694Y114299D01*
X-86094Y113499D01*
X-85694Y112699D01*
X-86494Y113099D01*
X-87295Y112699D01*
X-88994D02*
X-88595Y113499D01*
X-88994Y114299D01*
X-88195Y113899D01*
X-87394Y114299D01*
X-87795Y113499D01*
X-87394Y112699D01*
X-88195Y113099D01*
X-88994Y112699D01*
X-90694D02*
X-90294Y113499D01*
X-90694Y114299D01*
X-89894Y113899D01*
X-89095Y114299D01*
X-89495Y113499D01*
X-89095Y112699D01*
X-89894Y113099D01*
X-90694Y112699D01*
X-62607Y8500D02*
Y8100D01*
X-61806D01*
Y8500D01*
X-61406D01*
Y9300D01*
X-61806D01*
Y9700D01*
X-62607D01*
Y9300D01*
X-63007D01*
Y8500D01*
X-62607D01*
X-312794Y9599D02*
X-312394D01*
X-311995Y9999D01*
X-311595Y9599D01*
X-311194D01*
Y9999D01*
X-311595Y10399D01*
X-311194Y10799D01*
Y11199D01*
X-311595D01*
X-311995Y10799D01*
X-312394Y11199D01*
X-312794D01*
Y10799D01*
X-312394Y10399D01*
X-312794Y9999D01*
Y9599D01*
X-316494D02*
X-316094D01*
X-315694Y9999D01*
X-315295Y9599D01*
X-314895D01*
Y9999D01*
X-315295Y10399D01*
X-314895Y10799D01*
Y11199D01*
X-315295D01*
X-315694Y10799D01*
X-316094Y11199D01*
X-316494D01*
Y10799D01*
X-316094Y10399D01*
X-316494Y9999D01*
Y9599D01*
X-288295Y174299D02*
X-287895Y175099D01*
X-288295Y175899D01*
X-287494Y175499D01*
X-286695Y175899D01*
X-287094Y175099D01*
X-286695Y174299D01*
X-287494Y174699D01*
X-288295Y174299D01*
Y178799D02*
X-287895Y179599D01*
X-288295Y180399D01*
X-287494Y179999D01*
X-286695Y180399D01*
X-287094Y179599D01*
X-286695Y178799D01*
X-287494Y179199D01*
X-288295Y178799D01*
X-24047Y18600D02*
X-23246Y19400D01*
X-22446Y18600D01*
X-23246Y17800D01*
X-24047Y18600D01*
X-37232Y46000D02*
X-38032Y47600D01*
X-36432D01*
X-37232Y46000D01*
Y46400D02*
X-37632Y47200D01*
X-36832D01*
X-37232Y46400D01*
X-32902Y46000D02*
X-33702Y47600D01*
X-32102D01*
X-32902Y46000D01*
Y46400D02*
X-33302Y47200D01*
X-32502D01*
X-32902Y46400D01*
X-28571Y46000D02*
X-29371Y47600D01*
X-27771D01*
X-28571Y46000D01*
Y46400D02*
X-28971Y47200D01*
X-28171D01*
X-28571Y46400D01*
X-37232Y50331D02*
X-38032Y51931D01*
X-36432D01*
X-37232Y50331D01*
Y50731D02*
X-37632Y51531D01*
X-36832D01*
X-37232Y50731D01*
X-32902Y50331D02*
X-33702Y51931D01*
X-32102D01*
X-32902Y50331D01*
Y50731D02*
X-33302Y51531D01*
X-32502D01*
X-32902Y50731D01*
X-28571Y50331D02*
X-29371Y51931D01*
X-27771D01*
X-28571Y50331D01*
Y50731D02*
X-28971Y51531D01*
X-28171D01*
X-28571Y50731D01*
X-37232Y54661D02*
X-38032Y56261D01*
X-36432D01*
X-37232Y54661D01*
Y55061D02*
X-37632Y55861D01*
X-36832D01*
X-37232Y55061D01*
X-32902Y54661D02*
X-33702Y56261D01*
X-32102D01*
X-32902Y54661D01*
Y55061D02*
X-33302Y55861D01*
X-32502D01*
X-32902Y55061D01*
X-28571Y54661D02*
X-29371Y56261D01*
X-27771D01*
X-28571Y54661D01*
Y55061D02*
X-28971Y55861D01*
X-28171D01*
X-28571Y55061D01*
X-30347Y106800D02*
X-29947D01*
X-29546Y107200D01*
X-29147Y106800D01*
X-28747D01*
Y107200D01*
X-29147Y107600D01*
X-28747Y108000D01*
Y108400D01*
X-29147D01*
X-29546Y108000D01*
X-29947Y108400D01*
X-30347D01*
Y108000D01*
X-29947Y107600D01*
X-30347Y107200D01*
Y106800D01*
X-31547Y146200D02*
X-31146D01*
X-30746Y146600D01*
X-30347Y146200D01*
X-29947D01*
Y146600D01*
X-30347Y147000D01*
X-29947Y147400D01*
Y147800D01*
X-30347D01*
X-30746Y147400D01*
X-31146Y147800D01*
X-31547D01*
Y147400D01*
X-31146Y147000D01*
X-31547Y146600D01*
Y146200D01*
X-800Y125400D02*
X-400Y126200D01*
X-800Y127000D01*
X0Y126600D01*
X800Y127000D01*
X400Y126200D01*
X800Y125400D01*
X0Y125800D01*
X-800Y125400D01*
X-20300Y134900D02*
X-19900Y135700D01*
X-20300Y136500D01*
X-19500Y136100D01*
X-18700Y136500D01*
X-19100Y135700D01*
X-18700Y134900D01*
X-19500Y135300D01*
X-20300Y134900D01*
X-35200Y136700D02*
X-34800Y137500D01*
X-35200Y138300D01*
X-34400Y137900D01*
X-33600Y138300D01*
X-34000Y137500D01*
X-33600Y136700D01*
X-34400Y137100D01*
X-35200Y136700D01*
X-23500Y114900D02*
X-23100Y115700D01*
X-23500Y116500D01*
X-22700Y116100D01*
X-21900Y116500D01*
X-22300Y115700D01*
X-21900Y114900D01*
X-22700Y115300D01*
X-23500Y114900D01*
X-37446Y132000D02*
X-37047Y132800D01*
X-37446Y133600D01*
X-36647Y133200D01*
X-35846Y133600D01*
X-36246Y132800D01*
X-35846Y132000D01*
X-36647Y132400D01*
X-37446Y132000D01*
X-41647Y131300D02*
X-41247Y132100D01*
X-41647Y132900D01*
X-40846Y132500D01*
X-40047Y132900D01*
X-40446Y132100D01*
X-40047Y131300D01*
X-40846Y131700D01*
X-41647Y131300D01*
X-41747Y128800D02*
X-41346Y129600D01*
X-41747Y130400D01*
X-40946Y130000D01*
X-40146Y130400D01*
X-40547Y129600D01*
X-40146Y128800D01*
X-40946Y129200D01*
X-41747Y128800D01*
X-35247Y121300D02*
X-34846Y122100D01*
X-35247Y122900D01*
X-34446Y122500D01*
X-33647Y122900D01*
X-34047Y122100D01*
X-33647Y121300D01*
X-34446Y121700D01*
X-35247Y121300D01*
X-28800Y120200D02*
X-28400Y121000D01*
X-28800Y121800D01*
X-28000Y121400D01*
X-27200Y121800D01*
X-27600Y121000D01*
X-27200Y120200D01*
X-28000Y120600D01*
X-28800Y120200D01*
X-25784Y120800D02*
X-25384Y121600D01*
X-25784Y122400D01*
X-24984Y122000D01*
X-24184Y122400D01*
X-24584Y121600D01*
X-24184Y120800D01*
X-24984Y121200D01*
X-25784Y120800D01*
X-27300Y118700D02*
X-26900Y119500D01*
X-27300Y120300D01*
X-26500Y119900D01*
X-25700Y120300D01*
X-26100Y119500D01*
X-25700Y118700D01*
X-26500Y119100D01*
X-27300Y118700D01*
X-22000Y116300D02*
X-21600Y117100D01*
X-22000Y117900D01*
X-21200Y117500D01*
X-20400Y117900D01*
X-20800Y117100D01*
X-20400Y116300D01*
X-21200Y116700D01*
X-22000Y116300D01*
X-17100Y97300D02*
X-16700D01*
X-16300Y97700D01*
X-15900Y97300D01*
X-15500D01*
Y97700D01*
X-15900Y98100D01*
X-15500Y98500D01*
Y98900D01*
X-15900D01*
X-16300Y98500D01*
X-16700Y98900D01*
X-17100D01*
Y98500D01*
X-16700Y98100D01*
X-17100Y97700D01*
Y97300D01*
X-180202Y94531D02*
X-179802Y95331D01*
X-180202Y96131D01*
X-179402Y95731D01*
X-178602Y96131D01*
X-179002Y95331D01*
X-178602Y94531D01*
X-179402Y94931D01*
X-180202Y94531D01*
X-171745Y92983D02*
X-171345Y93783D01*
X-171745Y94583D01*
X-170945Y94183D01*
X-170145Y94583D01*
X-170545Y93783D01*
X-170145Y92983D01*
X-170945Y93383D01*
X-171745Y92983D01*
X-170019Y94300D02*
X-169619Y95100D01*
X-170019Y95900D01*
X-169219Y95500D01*
X-168419Y95900D01*
X-168819Y95100D01*
X-168419Y94300D01*
X-169219Y94700D01*
X-170019Y94300D01*
X-53600Y110300D02*
X-53200D01*
X-52800Y110700D01*
X-52400Y110300D01*
X-52000D01*
Y110700D01*
X-52400Y111100D01*
X-52000Y111500D01*
Y111900D01*
X-52400D01*
X-52800Y111500D01*
X-53200Y111900D01*
X-53600D01*
Y111500D01*
X-53200Y111100D01*
X-53600Y110700D01*
Y110300D01*
X-16750Y105950D02*
X-16350D01*
X-15950Y106350D01*
X-15550Y105950D01*
X-15150D01*
Y106350D01*
X-15550Y106750D01*
X-15150Y107150D01*
Y107550D01*
X-15550D01*
X-15950Y107150D01*
X-16350Y107550D01*
X-16750D01*
Y107150D01*
X-16350Y106750D01*
X-16750Y106350D01*
Y105950D01*
X-22600Y112300D02*
X-22200D01*
X-21800Y112700D01*
X-21400Y112300D01*
X-21000D01*
Y112700D01*
X-21400Y113100D01*
X-21000Y113500D01*
Y113900D01*
X-21400D01*
X-21800Y113500D01*
X-22200Y113900D01*
X-22600D01*
Y113500D01*
X-22200Y113100D01*
X-22600Y112700D01*
Y112300D01*
X-6331Y110468D02*
X-5931D01*
X-5531Y110869D01*
X-5131Y110468D01*
X-4732D01*
Y110869D01*
X-5131Y111268D01*
X-4732Y111669D01*
Y112068D01*
X-5131D01*
X-5531Y111669D01*
X-5931Y112068D01*
X-6331D01*
Y111669D01*
X-5931Y111268D01*
X-6331Y110869D01*
Y110468D01*
X-35100Y126900D02*
X-34700Y127700D01*
X-35100Y128500D01*
X-34300Y128100D01*
X-33500Y128500D01*
X-33900Y127700D01*
X-33500Y126900D01*
X-34300Y127300D01*
X-35100Y126900D01*
D240*
X-288967Y16015D02*
G03*
X-288967Y16015I-800J0D01*
G01*
X-298216Y19382D02*
G03*
X-298216Y19382I-800J0D01*
G01*
X-307465Y22748D02*
G03*
X-307465Y22748I-800J0D01*
G01*
X-181865Y106483D02*
G03*
X-181865Y106483I-800J0D01*
G01*
X-235102Y79831D02*
G03*
X-235102Y79831I-800J0D01*
G01*
X-215765Y90083D02*
G03*
X-215765Y90083I-800J0D01*
G01*
X-231743Y95183D02*
G03*
X-231743Y95183I-800J0D01*
G01*
X-212065D02*
G03*
X-212065Y95183I-800J0D01*
G01*
X-201065D02*
G03*
X-201065Y95183I-800J0D01*
G01*
X-182689Y134138D02*
G03*
X-182689Y134138I-800J0D01*
G01*
X-183560Y142618D02*
G03*
X-183560Y142618I-800J0D01*
G01*
X-235102Y65831D02*
G03*
X-235102Y65831I-800J0D01*
G01*
X-170602Y80583D02*
G03*
X-170602Y80583I-800J0D01*
G01*
X-172602Y82083D02*
G03*
X-172602Y82083I-800J0D01*
G01*
D241*
X-182265Y106483D02*
G03*
X-182265Y106483I-400J0D01*
G01*
X-235502Y79831D02*
G03*
X-235502Y79831I-400J0D01*
G01*
X-216165Y90083D02*
G03*
X-216165Y90083I-400J0D01*
G01*
X-232143Y95183D02*
G03*
X-232143Y95183I-400J0D01*
G01*
X-212465D02*
G03*
X-212465Y95183I-400J0D01*
G01*
X-201465D02*
G03*
X-201465Y95183I-400J0D01*
G01*
X-183089Y134138D02*
G03*
X-183089Y134138I-400J0D01*
G01*
X-183959Y142618D02*
G03*
X-183959Y142618I-400J0D01*
G01*
X-235502Y65831D02*
G03*
X-235502Y65831I-400J0D01*
G01*
X-171002Y80583D02*
G03*
X-171002Y80583I-400J0D01*
G01*
X-173002Y82083D02*
G03*
X-173002Y82083I-400J0D01*
G01*
M02*
