G04 Layer_Color=128*
%FSLAX25Y25*%
%MOIN*%
G70*
G01*
G75*
%ADD239C,0.00200*%
D239*
X-116535Y117717D02*
X-109449D01*
X-112992Y114173D02*
Y121260D01*
X6299Y155118D02*
X13386D01*
X9843Y151575D02*
Y158661D01*
X-341732Y155118D02*
X-334646D01*
X-338189Y151575D02*
Y158661D01*
X-341732Y33858D02*
X-334646D01*
X-338189Y30315D02*
Y37402D01*
X-291539Y16015D02*
X-287995D01*
X-289767Y14244D02*
Y17787D01*
X-300787Y19382D02*
X-297244D01*
X-299016Y17610D02*
Y21154D01*
X-310036Y22748D02*
X-306493D01*
X-308265Y20977D02*
Y24520D01*
X-87402Y152831D02*
X-78402D01*
X-82902Y148331D02*
Y157331D01*
X-204980Y58692D02*
X-197106D01*
X-201043Y54755D02*
Y62629D01*
X-50700Y147200D02*
X-49900D01*
X-50300Y146800D02*
Y147600D01*
X-142394Y87399D02*
X-141394D01*
X-141894Y86899D02*
Y87899D01*
X-69994Y22299D02*
X-68994D01*
X-69494Y21799D02*
Y22799D01*
X-115438Y169751D02*
X-114239D01*
X-114839Y169151D02*
Y170351D01*
X-99695Y152499D02*
X-98895D01*
X-99295Y152099D02*
Y152899D01*
X-99205Y147599D02*
X-98405D01*
X-98805Y147199D02*
Y147999D01*
X-98094Y152499D02*
X-97294D01*
X-97694Y152099D02*
Y152899D01*
X-102795Y110499D02*
X-100995D01*
X-101894Y109599D02*
Y111399D01*
X-99795Y110399D02*
X-97995D01*
X-98895Y109499D02*
Y111299D01*
X-67895Y170499D02*
X-67094D01*
X-67494Y170099D02*
Y170899D01*
X-70695Y170699D02*
X-69894D01*
X-70294Y170299D02*
Y171099D01*
X-70794Y168899D02*
X-69994D01*
X-70394Y168499D02*
Y169299D01*
X-99094Y149299D02*
X-98295D01*
X-98694Y148899D02*
Y149699D01*
X-97594Y149999D02*
X-96794D01*
X-97194Y149599D02*
Y150399D01*
X-86494Y135799D02*
X-85694D01*
X-86094Y135399D02*
Y136199D01*
X-132298Y171500D02*
X-130498D01*
X-131398Y170600D02*
Y172400D01*
X-208945Y22831D02*
X-208145D01*
X-208545Y22431D02*
Y23231D01*
X-211665Y22831D02*
X-210865D01*
X-211265Y22431D02*
Y23231D01*
X-236794Y36199D02*
X-235595D01*
X-236194Y35599D02*
Y36799D01*
X-80939Y137131D02*
X-80139D01*
X-80539Y136731D02*
Y137531D01*
X-80884Y135528D02*
X-80084D01*
X-80484Y135128D02*
Y135928D01*
X-85795Y137399D02*
X-84995D01*
X-85395Y136999D02*
Y137799D01*
X-197594Y11499D02*
X-196794D01*
X-197195Y11099D02*
Y11899D01*
X-200694Y11499D02*
X-199894D01*
X-200294Y11099D02*
Y11899D01*
X-82530Y41699D02*
X-81330D01*
X-81930Y41099D02*
Y42299D01*
X-82530Y44499D02*
X-81330D01*
X-81930Y43899D02*
Y45099D01*
X-85730Y44499D02*
X-84530D01*
X-85130Y43899D02*
Y45099D01*
X-85730Y41599D02*
X-84530D01*
X-85130Y40999D02*
Y42199D01*
X-63346Y85800D02*
X-62147D01*
X-62747Y85200D02*
Y86400D01*
X-66330Y85699D02*
X-65130D01*
X-65730Y85099D02*
Y86299D01*
X-69330Y85699D02*
X-68130D01*
X-68730Y85099D02*
Y86299D01*
X-49694Y82599D02*
X-48695D01*
X-49194Y82099D02*
Y83099D01*
X-52294Y82599D02*
X-51294D01*
X-51794Y82099D02*
Y83099D01*
X-54795Y82599D02*
X-53794D01*
X-54295Y82099D02*
Y83099D01*
X-57995Y78999D02*
X-56994D01*
X-57494Y78499D02*
Y79499D01*
X-59595Y77099D02*
X-58595D01*
X-59095Y76599D02*
Y77599D01*
X-59595Y74633D02*
X-58595D01*
X-59095Y74133D02*
Y75133D01*
X-59595Y72166D02*
X-58595D01*
X-59095Y71666D02*
Y72666D01*
X-57130Y72166D02*
X-56130D01*
X-56630Y71666D02*
Y72666D01*
X-21630Y30599D02*
X-20630D01*
X-21130Y30099D02*
Y31099D01*
X-19130Y30599D02*
X-18130D01*
X-18630Y30099D02*
Y31099D01*
X-45330Y30399D02*
X-44330D01*
X-44830Y29899D02*
Y30899D01*
X-42930Y30399D02*
X-41930D01*
X-42430Y29899D02*
Y30899D01*
X-47730Y30399D02*
X-46730D01*
X-47230Y29899D02*
Y30899D01*
X-57894Y40999D02*
X-56894D01*
X-57394Y40499D02*
Y41499D01*
X-53430Y37199D02*
X-52430D01*
X-52930Y36699D02*
Y37699D01*
X-55830Y37199D02*
X-54830D01*
X-55330Y36699D02*
Y37699D01*
X-53330Y34799D02*
X-52330D01*
X-52830Y34299D02*
Y35299D01*
X-55802Y34799D02*
X-54802D01*
X-55302Y34299D02*
Y35299D01*
X-58300Y35300D02*
X-57300D01*
X-57800Y34800D02*
Y35800D01*
X-60130Y53999D02*
X-59130D01*
X-59630Y53499D02*
Y54499D01*
X-186930Y24299D02*
X-186130D01*
X-186530Y23899D02*
Y24699D01*
X-191130Y117799D02*
X-190330D01*
X-190730Y117399D02*
Y118199D01*
X-37630Y37299D02*
X-36830D01*
X-37230Y36899D02*
Y37699D01*
X-178230Y96699D02*
X-177430D01*
X-177830Y96299D02*
Y97099D01*
X-173545Y75874D02*
X-171745D01*
X-172645Y74974D02*
Y76774D01*
X-157330Y106299D02*
X-156530D01*
X-156930Y105899D02*
Y106699D01*
X-114030Y89599D02*
X-112830D01*
X-113430Y88999D02*
Y90199D01*
X-126430Y142799D02*
X-124630D01*
X-125530Y141899D02*
Y143699D01*
X-122930Y142799D02*
X-121130D01*
X-122030Y141899D02*
Y143699D01*
X-129430Y74999D02*
X-127630D01*
X-128530Y74099D02*
Y75899D01*
X-199630Y77999D02*
X-197830D01*
X-198730Y77099D02*
Y78899D01*
X-199730Y82299D02*
X-197930D01*
X-198830Y81399D02*
Y83199D01*
X-199630Y73899D02*
X-197830D01*
X-198730Y72999D02*
Y74799D01*
X-103730Y129899D02*
X-102930D01*
X-103330Y129499D02*
Y130299D01*
X-101630Y129899D02*
X-100830D01*
X-101230Y129499D02*
Y130299D01*
X-101630Y131799D02*
X-100830D01*
X-101230Y131399D02*
Y132199D01*
X-42930Y35599D02*
X-42130D01*
X-42530Y35199D02*
Y35999D01*
X-43030Y37399D02*
X-42230D01*
X-42630Y36999D02*
Y37799D01*
X-43330Y117899D02*
X-42530D01*
X-42930Y117499D02*
Y118299D01*
X-39702Y119644D02*
X-38902D01*
X-39302Y119245D02*
Y120045D01*
X-319446Y64800D02*
X-317647D01*
X-318547Y63900D02*
Y65700D01*
X-71602Y102483D02*
X-70602D01*
X-71102Y101983D02*
Y102983D01*
X-265602Y159531D02*
X-263802D01*
X-264702Y158631D02*
Y160431D01*
X-256702Y181631D02*
X-254902D01*
X-255802Y180731D02*
Y182531D01*
X-262846Y180400D02*
X-261047D01*
X-261947Y179500D02*
Y181300D01*
X-263209Y166056D02*
X-261408D01*
X-262309Y165156D02*
Y166956D01*
X-260447Y163500D02*
X-258646D01*
X-259546Y162600D02*
Y164400D01*
X-132246Y168000D02*
X-130447D01*
X-131346Y167100D02*
Y168900D01*
X-125547Y154800D02*
X-123747D01*
X-124646Y153900D02*
Y155700D01*
X-204447Y157600D02*
X-203646D01*
X-204047Y157200D02*
Y158000D01*
X-205946Y172700D02*
X-205147D01*
X-205546Y172300D02*
Y173100D01*
X-208946Y170400D02*
X-208147D01*
X-208546Y170000D02*
Y170800D01*
X-192765Y25031D02*
X-191965D01*
X-192365Y24631D02*
Y25431D01*
X-200346Y162300D02*
X-199547D01*
X-199946Y161900D02*
Y162700D01*
X-199446Y166200D02*
X-198247D01*
X-198846Y165600D02*
Y166800D01*
X-210246Y177300D02*
X-208447D01*
X-209347Y176400D02*
Y178200D01*
X-206347Y181500D02*
X-204546D01*
X-205447Y180600D02*
Y182400D01*
X-269547Y24300D02*
X-267746D01*
X-268647Y23400D02*
Y25200D01*
X-132930Y74999D02*
X-131130D01*
X-132030Y74099D02*
Y75899D01*
X-131447Y79100D02*
X-130647D01*
X-131046Y78700D02*
Y79500D01*
X-272746Y24300D02*
X-270947D01*
X-271847Y23400D02*
Y25200D01*
X-173594Y144899D02*
X-172794D01*
X-173195Y144499D02*
Y145299D01*
X-173547Y136800D02*
X-172747D01*
X-173146Y136400D02*
Y137200D01*
X-189746Y155647D02*
X-188946D01*
X-189347Y155247D02*
Y156047D01*
X-189746Y157723D02*
X-188946D01*
X-189347Y157324D02*
Y158124D01*
X-189746Y168000D02*
X-188946D01*
X-189347Y167600D02*
Y168400D01*
X-189646Y170350D02*
X-188847D01*
X-189246Y169950D02*
Y170750D01*
X-192030Y171600D02*
X-191230D01*
X-191630Y171200D02*
Y172000D01*
X-175146Y175300D02*
X-174346D01*
X-174747Y174900D02*
Y175700D01*
X-179230Y172084D02*
X-178430D01*
X-178830Y171684D02*
Y172484D01*
X-179230Y168200D02*
X-178430D01*
X-178830Y167800D02*
Y168600D01*
X-172846Y175300D02*
X-172046D01*
X-172447Y174900D02*
Y175700D01*
X-135346Y147200D02*
X-133546D01*
X-134447Y146300D02*
Y148100D01*
X-138247Y169300D02*
X-137047D01*
X-137646Y168700D02*
Y169900D01*
X-155947Y174700D02*
X-154147D01*
X-155046Y173800D02*
Y175600D01*
X-174645Y112574D02*
X-173845D01*
X-174245Y112174D02*
Y112974D01*
X-176146Y122100D02*
X-175347D01*
X-175747Y121700D02*
Y122500D01*
X-122346Y87100D02*
X-120546D01*
X-121447Y86200D02*
Y88000D01*
X-106746Y106200D02*
X-104946D01*
X-105847Y105300D02*
Y107100D01*
X-21294Y72199D02*
X-20294D01*
X-20795Y71699D02*
Y72699D01*
X-17394Y72099D02*
X-16395D01*
X-16894Y71599D02*
Y72599D01*
X-19747Y64800D02*
X-18746D01*
X-19247Y64300D02*
Y65300D01*
X-24947Y63600D02*
X-23946D01*
X-24446Y63100D02*
Y64100D01*
X-30402Y64083D02*
X-29602D01*
X-30002Y63683D02*
Y64483D01*
X-83207Y27878D02*
X-82407D01*
X-82807Y27478D02*
Y28278D01*
X-85176Y29557D02*
X-84376D01*
X-84776Y29158D02*
Y29958D01*
X-100202Y26484D02*
X-99402D01*
X-99802Y26083D02*
Y26884D01*
X-132747Y47300D02*
X-131947D01*
X-132346Y46900D02*
Y47700D01*
X-133345Y49669D02*
X-132545D01*
X-132945Y49269D02*
Y50069D01*
X-125502Y42184D02*
X-124702D01*
X-125102Y41783D02*
Y42584D01*
X-114402Y52210D02*
X-113602D01*
X-114002Y51810D02*
Y52610D01*
X-115702Y40584D02*
X-114902D01*
X-115302Y40183D02*
Y40984D01*
X-112302Y36983D02*
X-111502D01*
X-111902Y36584D02*
Y37383D01*
X-114002Y39083D02*
X-113202D01*
X-113602Y38684D02*
Y39483D01*
X-59947Y38800D02*
X-58947D01*
X-59447Y38300D02*
Y39300D01*
X-57946Y60100D02*
X-56946D01*
X-57446Y59600D02*
Y60600D01*
X-57946Y56600D02*
X-56946D01*
X-57446Y56100D02*
Y57100D01*
X-57946Y49600D02*
X-56946D01*
X-57446Y49100D02*
Y50100D01*
X-57946Y46100D02*
X-56946D01*
X-57446Y45600D02*
Y46600D01*
X-20346Y57700D02*
X-19346D01*
X-19847Y57200D02*
Y58200D01*
X-57450Y63427D02*
X-56251D01*
X-56850Y62827D02*
Y64027D01*
X-47146Y59600D02*
X-45946D01*
X-46547Y59000D02*
Y60200D01*
X-48645Y67000D02*
X-47645D01*
X-48145Y66500D02*
Y67500D01*
X-46295Y65599D02*
X-45294D01*
X-45794Y65099D02*
Y66099D01*
X-43995Y65599D02*
X-42994D01*
X-43494Y65099D02*
Y66099D01*
X-45946Y52100D02*
X-45147D01*
X-45546Y51700D02*
Y52500D01*
X-34846Y33700D02*
X-34047D01*
X-34446Y33300D02*
Y34100D01*
X-36946Y33700D02*
X-36147D01*
X-36546Y33300D02*
Y34100D01*
X-11446Y33200D02*
X-9646D01*
X-10547Y32300D02*
Y34100D01*
X-15046Y54400D02*
X-14047D01*
X-14547Y53900D02*
Y54900D01*
X9900Y134000D02*
X11100D01*
X10500Y133400D02*
Y134600D01*
X5550Y134000D02*
X6750D01*
X6150Y133400D02*
Y134600D01*
X1200Y134000D02*
X2400D01*
X1800Y133400D02*
Y134600D01*
X-227447Y7100D02*
X-226247D01*
X-226847Y6500D02*
Y7700D01*
X-68202Y102884D02*
X-67202D01*
X-67702Y102383D02*
Y103384D01*
X-63345Y100983D02*
X-62345D01*
X-62845Y100483D02*
Y101483D01*
X-142845Y133974D02*
X-142045D01*
X-142445Y133574D02*
Y134374D01*
X-142894Y137974D02*
X-142094D01*
X-142494Y137574D02*
Y138374D01*
X-142845Y139974D02*
X-142045D01*
X-142445Y139574D02*
Y140374D01*
X-142845Y142274D02*
X-142045D01*
X-142445Y141874D02*
Y142674D01*
X-126530Y146399D02*
X-124730D01*
X-125630Y145499D02*
Y147299D01*
X-142845Y131974D02*
X-142045D01*
X-142445Y131574D02*
Y132374D01*
X-151495Y126599D02*
X-150695D01*
X-151094Y126199D02*
Y126999D01*
X-151495Y128819D02*
X-150695D01*
X-151094Y128419D02*
Y129219D01*
X-152045Y109283D02*
X-151245D01*
X-151645Y108883D02*
Y109683D01*
X-157545Y122083D02*
X-156745D01*
X-157145Y121683D02*
Y122483D01*
X-298330Y142899D02*
X-298130D01*
X-298230Y142799D02*
Y142999D01*
X-297345Y136674D02*
X-296545D01*
X-296945Y136274D02*
Y137074D01*
X-93645Y88983D02*
X-92445D01*
X-93045Y88383D02*
Y89583D01*
X-148765Y38983D02*
X-147965D01*
X-148365Y38583D02*
Y39383D01*
X-154445Y125883D02*
X-153645D01*
X-154045Y125483D02*
Y126283D01*
X-58545Y112383D02*
X-57345D01*
X-57945Y111783D02*
Y112983D01*
X-49145Y178083D02*
X-47345D01*
X-48245Y177183D02*
Y178983D01*
X-103680Y131799D02*
X-102880D01*
X-103280Y131399D02*
Y132199D01*
X-162345Y122074D02*
X-161545D01*
X-161945Y121674D02*
Y122474D01*
X-166845Y122074D02*
X-166045D01*
X-166445Y121674D02*
Y122474D01*
X-171645Y122083D02*
X-170845D01*
X-171245Y121683D02*
Y122483D01*
X-175594Y149099D02*
X-174794D01*
X-175195Y148699D02*
Y149499D01*
X-172294Y149974D02*
X-171494D01*
X-171895Y149574D02*
Y150374D01*
X-314245Y164683D02*
X-312445D01*
X-313345Y163783D02*
Y165583D01*
X-318102Y164831D02*
X-316302D01*
X-317202Y163931D02*
Y165731D01*
X-194365Y22831D02*
X-193565D01*
X-193965Y22431D02*
Y23231D01*
X-199802Y25031D02*
X-199002D01*
X-199402Y24631D02*
Y25431D01*
X-207402Y5384D02*
X-206602D01*
X-207002Y4984D02*
Y5784D01*
X-205395Y9199D02*
X-204594D01*
X-204995Y8799D02*
Y9599D01*
X-124702Y8884D02*
X-122902D01*
X-123802Y7983D02*
Y9783D01*
X-122602Y24284D02*
X-121802D01*
X-122202Y23884D02*
Y24683D01*
X-136365Y31183D02*
X-135565D01*
X-135965Y30783D02*
Y31583D01*
X-137965Y32683D02*
X-137165D01*
X-137565Y32283D02*
Y33083D01*
X-110747Y22800D02*
X-109947D01*
X-110346Y22400D02*
Y23200D01*
X-81449Y26030D02*
X-80649D01*
X-81049Y25631D02*
Y26430D01*
X-100202Y28883D02*
X-99402D01*
X-99802Y28484D02*
Y29283D01*
X-100302Y31284D02*
X-99502D01*
X-99902Y30883D02*
Y31683D01*
X-110802Y34683D02*
X-110002D01*
X-110402Y34284D02*
Y35083D01*
X-108802Y21584D02*
X-108002D01*
X-108402Y21183D02*
Y21983D01*
X-106829Y20211D02*
X-106029D01*
X-106429Y19811D02*
Y20611D01*
X-303202Y26384D02*
X-302002D01*
X-302602Y25784D02*
Y26983D01*
X-96045Y177974D02*
X-95245D01*
X-95645Y177574D02*
Y178374D01*
X-96045Y176174D02*
X-95245D01*
X-95645Y175774D02*
Y176574D01*
X-171346Y140200D02*
X-170546D01*
X-170947Y139800D02*
Y140600D01*
X8854Y6800D02*
X9854D01*
X9353Y6300D02*
Y7300D01*
X-4580Y2500D02*
X-3580D01*
X-4080Y2000D02*
Y3000D01*
X-1963Y2500D02*
X-963D01*
X-1463Y2000D02*
Y3000D01*
X654Y2500D02*
X1654D01*
X1154Y2000D02*
Y3000D01*
X6453Y5100D02*
X7453D01*
X6954Y4600D02*
Y5600D01*
X-37146Y8900D02*
X-36147D01*
X-36647Y8400D02*
Y9400D01*
X-34747Y8900D02*
X-33746D01*
X-34247Y8400D02*
Y9400D01*
X3853Y3700D02*
X4854D01*
X4354Y3200D02*
Y4200D01*
X-10646Y50250D02*
X-9646D01*
X-10147Y49750D02*
Y50750D01*
X-10646Y52700D02*
X-9646D01*
X-10147Y52200D02*
Y53200D01*
X-10646Y47800D02*
X-9646D01*
X-10147Y47300D02*
Y48300D01*
X-7197Y2500D02*
X-6196D01*
X-6696Y2000D02*
Y3000D01*
X-12313Y18262D02*
X-11313D01*
X-11813Y17762D02*
Y18762D01*
X-12265Y15697D02*
X-11265D01*
X-11766Y15197D02*
Y16197D01*
X-9580Y18262D02*
X-8580D01*
X-9080Y17762D02*
Y18762D01*
X-15046Y13000D02*
X-14047D01*
X-14547Y12500D02*
Y13500D01*
X-15046Y15700D02*
X-14047D01*
X-14547Y15200D02*
Y16200D01*
X-9813Y2500D02*
X-8813D01*
X-9313Y2000D02*
Y3000D01*
X-15046Y4900D02*
X-14047D01*
X-14547Y4400D02*
Y5400D01*
X-15046Y10300D02*
X-14047D01*
X-14547Y9800D02*
Y10800D01*
X-12430Y2500D02*
X-11430D01*
X-11930Y2000D02*
Y3000D01*
X-15046Y2500D02*
X-14047D01*
X-14547Y2000D02*
Y3000D01*
X-15046Y7600D02*
X-14047D01*
X-14547Y7100D02*
Y8100D01*
X-217245Y72999D02*
X-216245D01*
X-216745Y72499D02*
Y73499D01*
X-214794Y72999D02*
X-213794D01*
X-214295Y72499D02*
Y73499D01*
X-211805Y72999D02*
X-210805D01*
X-211305Y72499D02*
Y73499D01*
X-208885Y72999D02*
X-207885D01*
X-208385Y72499D02*
Y73499D01*
X-205965Y72999D02*
X-204965D01*
X-205465Y72499D02*
Y73499D01*
X-203294Y72999D02*
X-202294D01*
X-202795Y72499D02*
Y73499D01*
X-217245Y61566D02*
X-216245D01*
X-216745Y61066D02*
Y62066D01*
X-217245Y47274D02*
X-216245D01*
X-216745Y46774D02*
Y47774D01*
X-217245Y50132D02*
X-216245D01*
X-216745Y49632D02*
Y50632D01*
X-217245Y55849D02*
X-216245D01*
X-216745Y55349D02*
Y56349D01*
X-217245Y58707D02*
X-216245D01*
X-216745Y58207D02*
Y59207D01*
X-217245Y64424D02*
X-216245D01*
X-216745Y63924D02*
Y64924D01*
X-217245Y67282D02*
X-216245D01*
X-216745Y66782D02*
Y67782D01*
X-217245Y70141D02*
X-216245D01*
X-216745Y69641D02*
Y70641D01*
X-310245Y136774D02*
X-309045D01*
X-309645Y136174D02*
Y137374D01*
X-316794Y135099D02*
X-315595D01*
X-316195Y134499D02*
Y135699D01*
X-330646Y185602D02*
X-329447D01*
X-330047Y185002D02*
Y186202D01*
X-313245Y147774D02*
X-312045D01*
X-312645Y147174D02*
Y148374D01*
X-306720Y152087D02*
X-305521D01*
X-306120Y151487D02*
Y152687D01*
X-306626Y154950D02*
X-305426D01*
X-306026Y154350D02*
Y155550D01*
X-213494Y45099D02*
X-212494D01*
X-212995Y44599D02*
Y45599D01*
X-210925Y45099D02*
X-209925D01*
X-210425Y44599D02*
Y45599D01*
X-208315Y45099D02*
X-207315D01*
X-207815Y44599D02*
Y45599D01*
X-205705Y45099D02*
X-204705D01*
X-205205Y44599D02*
Y45599D01*
X-200485Y45099D02*
X-199485D01*
X-199985Y44599D02*
Y45599D01*
X-197875Y45099D02*
X-196875D01*
X-197375Y44599D02*
Y45599D01*
X-192655Y45099D02*
X-191655D01*
X-192155Y44599D02*
Y45599D01*
X-203095Y45099D02*
X-202095D01*
X-202595Y44599D02*
Y45599D01*
X-195265Y45099D02*
X-194265D01*
X-194765Y44599D02*
Y45599D01*
X-187645Y68454D02*
X-186645D01*
X-187145Y67954D02*
Y68954D01*
X-187645Y65844D02*
X-186645D01*
X-187145Y65344D02*
Y66344D01*
X-187645Y63234D02*
X-186645D01*
X-187145Y62734D02*
Y63734D01*
X-187645Y60624D02*
X-186645D01*
X-187145Y60124D02*
Y61124D01*
X-187645Y52794D02*
X-186645D01*
X-187145Y52294D02*
Y53294D01*
X-214794Y52991D02*
X-213794D01*
X-214295Y52491D02*
Y53491D01*
X-214794Y61566D02*
X-213794D01*
X-214295Y61066D02*
Y62066D01*
X-214794Y47274D02*
X-213794D01*
X-214295Y46774D02*
Y47774D01*
X-214794Y55849D02*
X-213794D01*
X-214295Y55349D02*
Y56349D01*
X-214794Y58707D02*
X-213794D01*
X-214295Y58207D02*
Y59207D01*
X-214794Y64424D02*
X-213794D01*
X-214295Y63924D02*
Y64924D01*
X-214794Y67282D02*
X-213794D01*
X-214295Y66782D02*
Y67782D01*
X-214794Y70141D02*
X-213794D01*
X-214295Y69641D02*
Y70641D01*
X-321721Y185602D02*
X-320520D01*
X-321121Y185002D02*
Y186202D01*
X-324621Y185602D02*
X-323421D01*
X-324021Y185002D02*
Y186202D01*
X-327520Y185602D02*
X-326321D01*
X-326921Y185002D02*
Y186202D01*
X9353Y33700D02*
X10353D01*
X9854Y33200D02*
Y34200D01*
X12353Y33700D02*
X13353D01*
X12854Y33200D02*
Y34200D01*
X1654Y37223D02*
X2654D01*
X2153Y36723D02*
Y37723D01*
X1654Y39746D02*
X2654D01*
X2153Y39246D02*
Y40246D01*
X1654Y42269D02*
X2654D01*
X2153Y41769D02*
Y42769D01*
X1654Y44792D02*
X2654D01*
X2153Y44292D02*
Y45292D01*
X1654Y47315D02*
X2654D01*
X2153Y46815D02*
Y47815D01*
X1654Y49838D02*
X2654D01*
X2153Y49338D02*
Y50338D01*
X-1837Y75900D02*
X-837D01*
X-1337Y75400D02*
Y76400D01*
X-48645Y77481D02*
X-47645D01*
X-48145Y76981D02*
Y77981D01*
X-48645Y74862D02*
X-47645D01*
X-48145Y74362D02*
Y75362D01*
X-26745Y75900D02*
X-25745D01*
X-26245Y75400D02*
Y76400D01*
X-29345Y80200D02*
X-28345D01*
X-28845Y79700D02*
Y80700D01*
X-189646Y172700D02*
X-188847D01*
X-189246Y172300D02*
Y173100D01*
X-165594Y139499D02*
X-164795D01*
X-165194Y139099D02*
Y139899D01*
X-144395Y168299D02*
X-143595D01*
X-143994Y167899D02*
Y168699D01*
X-94295Y136199D02*
X-93494D01*
X-93894Y135799D02*
Y136599D01*
X-287543Y148892D02*
X-286743D01*
X-287143Y148492D02*
Y149292D01*
X-123030Y146499D02*
X-121230D01*
X-122130Y145599D02*
Y147399D01*
X-183315Y106483D02*
X-182015D01*
X-182665Y105833D02*
Y107133D01*
X-189345Y106983D02*
X-188545D01*
X-188945Y106583D02*
Y107383D01*
X-32102Y65083D02*
X-31302D01*
X-31702Y64683D02*
Y65483D01*
X-109589Y155331D02*
X-108789D01*
X-109189Y154931D02*
Y155731D01*
X-275143Y154992D02*
X-274343D01*
X-274743Y154592D02*
Y155392D01*
X-278243Y151992D02*
X-277443D01*
X-277843Y151592D02*
Y152392D01*
X-281143Y148992D02*
X-280343D01*
X-280743Y148592D02*
Y149392D01*
X-272245Y178074D02*
X-271445D01*
X-271845Y177674D02*
Y178474D01*
X-26745Y78574D02*
X-25745D01*
X-26245Y78074D02*
Y79074D01*
X654Y75900D02*
X1654D01*
X1154Y75400D02*
Y76400D01*
X700Y73800D02*
X1700D01*
X1200Y73300D02*
Y74300D01*
X1654Y34700D02*
X2654D01*
X2153Y34200D02*
Y35200D01*
X6505Y33699D02*
X7506D01*
X7006Y33199D02*
Y34199D01*
X1654Y52362D02*
X2654D01*
X2153Y51862D02*
Y52861D01*
X-8146Y47800D02*
X-7147D01*
X-7647Y47300D02*
Y48300D01*
X-6847Y45700D02*
X-5847D01*
X-6346Y45200D02*
Y46200D01*
X-48645Y69599D02*
X-47645D01*
X-48145Y69099D02*
Y70099D01*
X-283930Y9699D02*
X-282130D01*
X-283030Y8799D02*
Y10599D01*
X-92802Y19831D02*
X-92002D01*
X-92402Y19431D02*
Y20231D01*
X-100747Y19500D02*
X-99747D01*
X-100247Y19000D02*
Y20000D01*
X-234302Y48331D02*
X-233502D01*
X-233902Y47931D02*
Y48731D01*
X-98302Y172083D02*
X-96502D01*
X-97402Y171183D02*
Y172983D01*
X-66795Y171799D02*
X-65995D01*
X-66395Y171399D02*
Y172199D01*
X-69317Y186315D02*
X-68517D01*
X-68917Y185915D02*
Y186715D01*
X1654Y54885D02*
X2654D01*
X2153Y54385D02*
Y55385D01*
X-12547Y54400D02*
X-11547D01*
X-12047Y53900D02*
Y54900D01*
X1654Y57408D02*
X2654D01*
X2153Y56908D02*
Y57908D01*
X1654Y59931D02*
X2654D01*
X2153Y59431D02*
Y60431D01*
X1654Y62454D02*
X2654D01*
X2153Y61954D02*
Y62954D01*
X1654Y64977D02*
X2654D01*
X2153Y64477D02*
Y65477D01*
X-74302Y169169D02*
X-73502D01*
X-73902Y168769D02*
Y169569D01*
X-82302Y168331D02*
X-81502D01*
X-81902Y167931D02*
Y168731D01*
X-95518Y23114D02*
X-93718D01*
X-94618Y22214D02*
Y24014D01*
X-77047Y124200D02*
X-76247D01*
X-76647Y123800D02*
Y124600D01*
X-98795Y154099D02*
X-97995D01*
X-98395Y153699D02*
Y154499D01*
X-115302Y21083D02*
X-114102D01*
X-114702Y20483D02*
Y21684D01*
X-198302Y89331D02*
X-197502D01*
X-197902Y88931D02*
Y89731D01*
X-47646Y151100D02*
X-46847D01*
X-47247Y150700D02*
Y151500D01*
X-250147Y7100D02*
X-248946D01*
X-249547Y6500D02*
Y7700D01*
X-260302Y62831D02*
X-259502D01*
X-259902Y62431D02*
Y63231D01*
X-225165Y114083D02*
X-224365D01*
X-224765Y113683D02*
Y114483D01*
X-219802Y117831D02*
X-219002D01*
X-219402Y117431D02*
Y118231D01*
X-260265Y79783D02*
X-259465D01*
X-259865Y79383D02*
Y80183D01*
X-152802Y60831D02*
X-152002D01*
X-152402Y60431D02*
Y61231D01*
X-153302Y50331D02*
X-152502D01*
X-152902Y49931D02*
Y50731D01*
X-152302Y48331D02*
X-151502D01*
X-151902Y47931D02*
Y48731D01*
X-152765Y38983D02*
X-151965D01*
X-152365Y38583D02*
Y39383D01*
X-149302Y45331D02*
X-148502D01*
X-148902Y44931D02*
Y45731D01*
X-150802Y46831D02*
X-150002D01*
X-150402Y46431D02*
Y47231D01*
X-248602Y40963D02*
X-247802D01*
X-248202Y40563D02*
Y41363D01*
X-191302Y106331D02*
X-190502D01*
X-190902Y105931D02*
Y106731D01*
X-74302Y173831D02*
X-73502D01*
X-73902Y173431D02*
Y174231D01*
X-302343Y122392D02*
X-301543D01*
X-301943Y121992D02*
Y122792D01*
X-280101Y111167D02*
X-279301D01*
X-279701Y110767D02*
Y111567D01*
X-191147Y111300D02*
X-190347D01*
X-190746Y110900D02*
Y111700D01*
X-139265Y34283D02*
X-138465D01*
X-138865Y33883D02*
Y34683D01*
X-142965Y37383D02*
X-142165D01*
X-142565Y36983D02*
Y37783D01*
X-79345Y100274D02*
X-78345D01*
X-78845Y99774D02*
Y100774D01*
X-202708Y115284D02*
X-201708D01*
X-202208Y114784D02*
Y115784D01*
X-281557Y90499D02*
X-280757D01*
X-281157Y90099D02*
Y90899D01*
X-277103Y94953D02*
X-276303D01*
X-276703Y94553D02*
Y95353D01*
X-272649Y99407D02*
X-271849D01*
X-272249Y99007D02*
Y99807D01*
X-259286Y112770D02*
X-258486D01*
X-258886Y112370D02*
Y113170D01*
X-261343Y110392D02*
X-260543D01*
X-260943Y109992D02*
Y110792D01*
X-265207Y116292D02*
X-264407D01*
X-264807Y115892D02*
Y116692D01*
X-271965Y131783D02*
X-271165D01*
X-271565Y131383D02*
Y132183D01*
X-260611Y120637D02*
X-259811D01*
X-260211Y120237D02*
Y121037D01*
X-248236Y123991D02*
X-247436D01*
X-247836Y123591D02*
Y124391D01*
X-236643Y105792D02*
X-235843D01*
X-236243Y105392D02*
Y106192D01*
X-250378Y121678D02*
X-249578D01*
X-249978Y121278D02*
Y122078D01*
X-263065Y136414D02*
X-262265D01*
X-262665Y136014D02*
Y136814D01*
X-263043Y123192D02*
X-262243D01*
X-262643Y122792D02*
Y123592D01*
X-269570Y142759D02*
X-268770D01*
X-269170Y142359D02*
Y143159D01*
X-281861Y130890D02*
X-281061D01*
X-281461Y130490D02*
Y131290D01*
X-275784Y113092D02*
X-274984D01*
X-275384Y112692D02*
Y113492D01*
X-280763Y123112D02*
X-279963D01*
X-280363Y122712D02*
Y123512D01*
X-277547Y135486D02*
X-276747D01*
X-277147Y135086D02*
Y135886D01*
X-283943Y142392D02*
X-283143D01*
X-283543Y141992D02*
Y142792D01*
X-287355Y116804D02*
X-286555D01*
X-286955Y116404D02*
Y117204D01*
X-297484Y115334D02*
X-296684D01*
X-297084Y114934D02*
Y115734D01*
X-315243Y105792D02*
X-314443D01*
X-314843Y105392D02*
Y106192D01*
X-312443Y109092D02*
X-311643D01*
X-312043Y108692D02*
Y109492D01*
X-306443Y115092D02*
X-305643D01*
X-306043Y114692D02*
Y115492D01*
X-301977Y110918D02*
X-301177D01*
X-301577Y110518D02*
Y111318D01*
X-293138Y119896D02*
X-292338D01*
X-292738Y119496D02*
Y120296D01*
X-309543Y112092D02*
X-308743D01*
X-309143Y111692D02*
Y112492D01*
X-305443Y126092D02*
X-304643D01*
X-305043Y125692D02*
Y126492D01*
X-302043Y129292D02*
X-301243D01*
X-301643Y128892D02*
Y129692D01*
X-299043Y132292D02*
X-298243D01*
X-298643Y131892D02*
Y132692D01*
X-299565Y112983D02*
X-298765D01*
X-299165Y112583D02*
Y113383D01*
X-279349Y92746D02*
X-278549D01*
X-278949Y92346D02*
Y93146D01*
X-274875Y97180D02*
X-274075D01*
X-274475Y96780D02*
Y97580D01*
X-263740Y108316D02*
X-262940D01*
X-263340Y107916D02*
Y108716D01*
X-257075Y115014D02*
X-256275D01*
X-256675Y114614D02*
Y115414D01*
X-252604Y119451D02*
X-251804D01*
X-252204Y119051D02*
Y119851D01*
X-279703Y133187D02*
X-278903D01*
X-279303Y132787D02*
Y133587D01*
X-269339Y134358D02*
X-268539D01*
X-268939Y133958D02*
Y134758D01*
X-254832Y117224D02*
X-254032D01*
X-254432Y116824D02*
Y117624D01*
X-265392Y138630D02*
X-264592D01*
X-264992Y138230D02*
Y139030D01*
X-271765Y105314D02*
X-270965D01*
X-271365Y104914D02*
Y105714D01*
X-268843Y117792D02*
X-268043D01*
X-268443Y117392D02*
Y118192D01*
X-283090Y120796D02*
X-282290D01*
X-282690Y120396D02*
Y121196D01*
X-313843Y122392D02*
X-313043D01*
X-313443Y121992D02*
Y122792D01*
X-282885Y125233D02*
X-282085D01*
X-282485Y124833D02*
Y125633D01*
X-295259Y117564D02*
X-294459D01*
X-294859Y117164D02*
Y117964D01*
X-249801Y127477D02*
X-249001D01*
X-249401Y127077D02*
Y127877D01*
X-293155Y141604D02*
X-292355D01*
X-292755Y141204D02*
Y142004D01*
X-284543Y151892D02*
X-283543D01*
X-284043Y151392D02*
Y152392D01*
X-266443Y145292D02*
X-265643D01*
X-266043Y144892D02*
Y145692D01*
X-236552Y79831D02*
X-235252D01*
X-235902Y79181D02*
Y80481D01*
X-280505Y113330D02*
X-279705D01*
X-280105Y112930D02*
Y113730D01*
X-285343Y128892D02*
X-284543D01*
X-284943Y128492D02*
Y129292D01*
X-217215Y90083D02*
X-215915D01*
X-216565Y89433D02*
Y90733D01*
X-233193Y95183D02*
X-231893D01*
X-232543Y94533D02*
Y95833D01*
X-189446Y112800D02*
X-188646D01*
X-189047Y112400D02*
Y113200D01*
X-213515Y95183D02*
X-212215D01*
X-212865Y94533D02*
Y95833D01*
X-202515Y95183D02*
X-201215D01*
X-201865Y94533D02*
Y95833D01*
X-184156Y138505D02*
X-183356D01*
X-183756Y138105D02*
Y138905D01*
X-184147Y130088D02*
X-183347D01*
X-183747Y129688D02*
Y130488D01*
X-184139Y134138D02*
X-182839D01*
X-183489Y133488D02*
Y134788D01*
X-185010Y142618D02*
X-183710D01*
X-184360Y141968D02*
Y143268D01*
X-74302Y171331D02*
X-73502D01*
X-73902Y170931D02*
Y171731D01*
X-253095Y46923D02*
X-251295D01*
X-252195Y46023D02*
Y47823D01*
X-191165Y22831D02*
X-190365D01*
X-190765Y22431D02*
Y23231D01*
X-152802Y25957D02*
X-152002D01*
X-152402Y25557D02*
Y26357D01*
X-147302Y43831D02*
X-146502D01*
X-146902Y43431D02*
Y44231D01*
X-144550Y40582D02*
X-143750D01*
X-144150Y40182D02*
Y40982D01*
X-152802Y87831D02*
X-152002D01*
X-152402Y87431D02*
Y88231D01*
X-236552Y65831D02*
X-235252D01*
X-235902Y65181D02*
Y66481D01*
X-192770Y90799D02*
X-190970D01*
X-191870Y89899D02*
Y91699D01*
X-59746Y28600D02*
X-58947D01*
X-59346Y28200D02*
Y29000D01*
X-184143Y125892D02*
X-183343D01*
X-183743Y125492D02*
Y126292D01*
X-98802Y161831D02*
X-98002D01*
X-98402Y161431D02*
Y162231D01*
X-265295Y42999D02*
X-264295D01*
X-264794Y42499D02*
Y43499D01*
X-98994Y156768D02*
X-98194D01*
X-98594Y156368D02*
Y157168D01*
X-273592Y139515D02*
X-272792D01*
X-273192Y139115D02*
Y139915D01*
X-275215Y137607D02*
X-274415D01*
X-274815Y137207D02*
Y138007D01*
X-154105Y81527D02*
X-153305D01*
X-153705Y81127D02*
Y81927D01*
X-87802Y168331D02*
X-87002D01*
X-87402Y167931D02*
Y168731D01*
X-89302Y168331D02*
X-88502D01*
X-88902Y167931D02*
Y168731D01*
X-172595Y55423D02*
X-170795D01*
X-171695Y54523D02*
Y56323D01*
X-171302Y61583D02*
X-170502D01*
X-170902Y61183D02*
Y61983D01*
X-173802Y63331D02*
X-173002D01*
X-173402Y62931D02*
Y63731D01*
X-330702Y68210D02*
X-329502D01*
X-330102Y67610D02*
Y68810D01*
X-334002Y89061D02*
X-332802D01*
X-333402Y88461D02*
Y89661D01*
X-334002Y78100D02*
X-332802D01*
X-333402Y77500D02*
Y78700D01*
X-334002Y81754D02*
X-332802D01*
X-333402Y81154D02*
Y82354D01*
X-323343Y107892D02*
X-322543D01*
X-322943Y107492D02*
Y108292D01*
X-334002Y74446D02*
X-332802D01*
X-333402Y73846D02*
Y75046D01*
X-334002Y70792D02*
X-332802D01*
X-333402Y70192D02*
Y71392D01*
X1654Y67500D02*
X2654D01*
X2153Y67000D02*
Y68000D01*
X-313102Y135331D02*
X-311902D01*
X-312502Y134731D02*
Y135931D01*
X-173594Y148199D02*
X-172794D01*
X-173195Y147799D02*
Y148599D01*
X-145945Y42174D02*
X-145145D01*
X-145545Y41774D02*
Y42574D01*
X-141165Y35883D02*
X-140365D01*
X-140765Y35483D02*
Y36283D01*
X-141495Y169649D02*
X-140694D01*
X-141095Y169249D02*
Y170049D01*
X-165245Y136874D02*
X-164445D01*
X-164845Y136474D02*
Y137274D01*
X-171045Y107674D02*
X-170045D01*
X-170545Y107174D02*
Y108174D01*
X-173902Y107331D02*
X-172902D01*
X-173402Y106831D02*
Y107831D01*
X-172547Y169961D02*
X-171747D01*
X-172146Y169561D02*
Y170361D01*
X-174230Y168374D02*
X-173430D01*
X-173830Y167974D02*
Y168774D01*
X-153645Y163074D02*
X-152845D01*
X-153245Y162674D02*
Y163474D01*
X-155645Y154524D02*
X-154845D01*
X-155245Y154124D02*
Y154924D01*
X-153645Y157474D02*
X-152845D01*
X-153245Y157074D02*
Y157874D01*
X-153645Y155374D02*
X-152845D01*
X-153245Y154974D02*
Y155774D01*
X-140745Y149474D02*
X-139545D01*
X-140145Y148874D02*
Y150074D01*
X-142945Y154174D02*
X-142145D01*
X-142545Y153774D02*
Y154574D01*
X-142945Y156274D02*
X-142145D01*
X-142545Y155874D02*
Y156674D01*
X-142945Y158474D02*
X-142145D01*
X-142545Y158074D02*
Y158874D01*
X-142945Y160774D02*
X-142145D01*
X-142545Y160374D02*
Y161174D01*
X-141495Y167499D02*
X-140694D01*
X-141095Y167099D02*
Y167899D01*
X-284143Y146092D02*
X-283343D01*
X-283743Y145692D02*
Y146492D01*
X-290545Y144232D02*
X-288745D01*
X-289645Y143333D02*
Y145133D01*
X-153645Y169474D02*
X-152845D01*
X-153245Y169074D02*
Y169874D01*
X-153645Y153374D02*
X-152845D01*
X-153245Y152974D02*
Y153774D01*
X-153645Y151374D02*
X-152845D01*
X-153245Y150974D02*
Y151774D01*
X-155645Y150874D02*
X-154845D01*
X-155245Y150474D02*
Y151274D01*
X-157194Y149474D02*
X-156395D01*
X-156795Y149074D02*
Y149874D01*
X-152694Y147999D02*
X-151894D01*
X-152295Y147599D02*
Y148399D01*
X-142945Y149274D02*
X-142145D01*
X-142545Y148874D02*
Y149674D01*
X-281643Y154892D02*
X-280643D01*
X-281143Y154392D02*
Y155392D01*
X-278643Y157892D02*
X-277643D01*
X-278143Y157392D02*
Y158392D01*
X-275243Y161092D02*
X-274443D01*
X-274843Y160692D02*
Y161492D01*
X-291845Y162174D02*
X-290645D01*
X-291245Y161574D02*
Y162774D01*
X-192030Y169100D02*
X-191230D01*
X-191630Y168700D02*
Y169500D01*
X-233945Y182574D02*
X-232145D01*
X-233045Y181674D02*
Y183474D01*
X-320145Y154174D02*
X-318945D01*
X-319545Y153574D02*
Y154774D01*
X-293211Y146750D02*
X-291410D01*
X-292311Y145850D02*
Y147650D01*
X-141495Y165349D02*
X-140694D01*
X-141095Y164949D02*
Y165749D01*
X-272245Y174574D02*
X-271445D01*
X-271845Y174174D02*
Y174974D01*
X-254188Y170988D02*
X-252389D01*
X-253289Y170088D02*
Y171888D01*
X-112245Y186174D02*
X-111445D01*
X-111845Y185774D02*
Y186574D01*
X-106645Y171874D02*
X-104845D01*
X-105745Y170974D02*
Y172774D01*
X-109845Y171874D02*
X-108045D01*
X-108945Y170974D02*
Y172774D01*
X-222145Y92774D02*
X-221345D01*
X-221745Y92374D02*
Y93174D01*
X-206347Y177300D02*
X-204546D01*
X-205447Y176400D02*
Y178200D01*
X-210347Y181500D02*
X-208546D01*
X-209447Y180600D02*
Y182400D01*
X-115295Y166599D02*
X-113495D01*
X-114394Y165699D02*
Y167499D01*
X-109247Y163731D02*
X-108447D01*
X-108846Y163331D02*
Y164131D01*
X-118694Y166699D02*
X-116894D01*
X-117795Y165799D02*
Y167599D01*
X-118595Y170199D02*
X-116795D01*
X-117694Y169299D02*
Y171099D01*
X-173945Y122074D02*
X-173145D01*
X-173545Y121674D02*
Y122474D01*
X-164545Y122074D02*
X-163745D01*
X-164145Y121674D02*
Y122474D01*
X-170346Y135321D02*
X-169546D01*
X-169947Y134921D02*
Y135721D01*
X-166792Y135321D02*
X-165992D01*
X-166392Y134921D02*
Y135721D01*
X-151495Y137699D02*
X-150695D01*
X-151094Y137299D02*
Y138099D01*
X-161345Y135374D02*
X-160545D01*
X-160945Y134974D02*
Y135774D01*
X-301502Y5331D02*
X-299702D01*
X-300602Y4431D02*
Y6231D01*
X-151902Y28046D02*
X-151102D01*
X-151502Y27646D02*
Y28446D01*
X-197802Y25031D02*
X-197002D01*
X-197402Y24631D02*
Y25431D01*
X-203802Y23831D02*
X-202002D01*
X-202902Y22931D02*
Y24731D01*
X-195802Y25031D02*
X-195002D01*
X-195402Y24631D02*
Y25431D01*
X-283930Y5299D02*
X-282130D01*
X-283030Y4399D02*
Y6199D01*
X-100302Y24331D02*
X-99502D01*
X-99902Y23931D02*
Y24731D01*
X-75902Y76083D02*
X-74902D01*
X-75402Y75583D02*
Y76583D01*
X-166802Y22831D02*
X-166002D01*
X-166402Y22431D02*
Y23231D01*
X-136065Y28483D02*
X-135265D01*
X-135665Y28083D02*
Y28883D01*
X-79702Y79984D02*
X-78902D01*
X-79302Y79584D02*
Y80383D01*
X-126302Y72110D02*
X-125502D01*
X-125902Y71710D02*
Y72510D01*
X-130802Y45331D02*
X-130002D01*
X-130402Y44931D02*
Y45731D01*
X-127202Y40883D02*
X-126402D01*
X-126802Y40483D02*
Y41284D01*
X-214533Y7313D02*
X-213333D01*
X-213933Y6713D02*
Y7913D01*
X-113430Y74399D02*
X-112430D01*
X-112930Y73899D02*
Y74899D01*
X-232145Y44383D02*
X-231345D01*
X-231745Y43983D02*
Y44783D01*
X-299630Y140899D02*
X-299430D01*
X-299530Y140799D02*
Y140999D01*
X-256045Y173774D02*
X-254245D01*
X-255145Y172874D02*
Y174674D01*
X-213302Y24331D02*
X-212502D01*
X-212902Y23931D02*
Y24731D01*
X-230365Y22583D02*
X-229565D01*
X-229965Y22183D02*
Y22983D01*
X-227865Y22583D02*
X-227065D01*
X-227465Y22183D02*
Y22983D01*
X-216845Y23883D02*
X-216045D01*
X-216445Y23483D02*
Y24283D01*
X-172265Y72083D02*
X-171265D01*
X-171765Y71583D02*
Y72583D01*
X-172052Y80583D02*
X-170752D01*
X-171402Y79933D02*
Y81233D01*
X-151495Y135479D02*
X-150695D01*
X-151094Y135079D02*
Y135879D01*
X-151495Y131039D02*
X-150695D01*
X-151094Y130639D02*
Y131439D01*
X-67165Y153683D02*
X-66165D01*
X-66665Y153183D02*
Y154183D01*
X-64716Y146916D02*
X-63916D01*
X-64316Y146517D02*
Y147317D01*
X-65165Y153743D02*
X-64165D01*
X-64665Y153243D02*
Y154243D01*
X-66845Y147183D02*
X-66045D01*
X-66445Y146783D02*
Y147583D01*
X-105730Y131799D02*
X-104930D01*
X-105330Y131399D02*
Y132199D01*
X-214802Y22831D02*
X-214002D01*
X-214402Y22431D02*
Y23231D01*
X-206645Y22831D02*
X-205845D01*
X-206245Y22431D02*
Y23231D01*
X-275430Y5299D02*
X-273630D01*
X-274530Y4399D02*
Y6199D01*
X-170345Y75923D02*
X-168545D01*
X-169445Y75023D02*
Y76823D01*
X-187645Y58014D02*
X-186645D01*
X-187145Y57514D02*
Y58514D01*
X-187645Y55404D02*
X-186645D01*
X-187145Y54904D02*
Y55904D01*
X-154345Y123783D02*
X-153545D01*
X-153945Y123383D02*
Y124183D01*
X-32005Y80200D02*
X-31005D01*
X-31505Y79700D02*
Y80700D01*
X-34666Y80200D02*
X-33665D01*
X-34165Y79700D02*
Y80700D01*
X-37326Y80200D02*
X-36326D01*
X-36826Y79700D02*
Y80700D01*
X3906Y33699D02*
X4905D01*
X4405Y33199D02*
Y34199D01*
X10306Y68899D02*
X11305D01*
X10806Y68399D02*
Y69399D01*
X7905Y68899D02*
X8906D01*
X8405Y68399D02*
Y69399D01*
X12706Y68899D02*
X13705D01*
X13205Y68399D02*
Y69399D01*
X700Y71500D02*
X1700D01*
X1200Y71000D02*
Y72000D01*
X3200Y71400D02*
X4200D01*
X3700Y70900D02*
Y71900D01*
X-11800Y75900D02*
X-10800D01*
X-11300Y75400D02*
Y76400D01*
X-9310Y75900D02*
X-8310D01*
X-8810Y75400D02*
Y76400D01*
X-6819Y75900D02*
X-5819D01*
X-6319Y75400D02*
Y76400D01*
X-4328Y76000D02*
X-3328D01*
X-3828Y75500D02*
Y76500D01*
X-8895Y72199D02*
X-7895D01*
X-8394Y71699D02*
Y72699D01*
X-42647Y80200D02*
X-41647D01*
X-42147Y79700D02*
Y80700D01*
X-39986Y80200D02*
X-38986D01*
X-39486Y79700D02*
Y80700D01*
X-14246Y66300D02*
X-13247D01*
X-13747Y65800D02*
Y66800D01*
X-11846Y66300D02*
X-10847D01*
X-11347Y65800D02*
Y66800D01*
X-9447Y66300D02*
X-8446D01*
X-8946Y65800D02*
Y66800D01*
X-7046Y66300D02*
X-6047D01*
X-6547Y65800D02*
Y66800D01*
X-4646Y66300D02*
X-3647D01*
X-4146Y65800D02*
Y66800D01*
X-2246Y66300D02*
X-1247D01*
X-1746Y65800D02*
Y66800D01*
X-14246Y63900D02*
X-13247D01*
X-13747Y63400D02*
Y64400D01*
X-15447Y61700D02*
X-14446D01*
X-14946Y61200D02*
Y62200D01*
X-15447Y59300D02*
X-14446D01*
X-14946Y58800D02*
Y59800D01*
X-15447Y56800D02*
X-14446D01*
X-14946Y56300D02*
Y57300D01*
X-19747Y69700D02*
X-18746D01*
X-19247Y69200D02*
Y70200D01*
X-18947Y59700D02*
X-17946D01*
X-18447Y59200D02*
Y60200D01*
X-18947Y62200D02*
X-17946D01*
X-18447Y61700D02*
Y62700D01*
X-14291Y75900D02*
X-13291D01*
X-13791Y75400D02*
Y76400D01*
X-19747Y67200D02*
X-18746D01*
X-19247Y66700D02*
Y67700D01*
X5600Y70100D02*
X6600D01*
X6100Y69600D02*
Y70600D01*
X-6494Y72199D02*
X-5494D01*
X-5994Y71699D02*
Y72699D01*
X-11294Y72299D02*
X-10294D01*
X-10795Y71799D02*
Y72799D01*
X-30147Y27600D02*
X-28947D01*
X-29546Y27000D02*
Y28200D01*
X-71547Y63900D02*
X-70547D01*
X-71047Y63400D02*
Y64400D01*
X-67402Y99383D02*
X-66402D01*
X-66902Y98883D02*
Y99884D01*
X-68147Y38400D02*
X-67146D01*
X-67646Y37900D02*
Y38900D01*
X-69846Y35800D02*
X-68846D01*
X-69346Y35300D02*
Y36300D01*
X-73646Y34100D02*
X-72646D01*
X-73146Y33600D02*
Y34600D01*
X-73546Y29500D02*
X-72546D01*
X-73046Y29000D02*
Y30000D01*
X-48645Y72166D02*
X-47645D01*
X-48145Y71666D02*
Y72666D01*
X-48647Y80200D02*
X-47646D01*
X-48147Y79700D02*
Y80700D01*
X-46246Y80200D02*
X-45246D01*
X-45746Y79700D02*
Y80700D01*
X-318821Y185602D02*
X-317620D01*
X-318220Y185002D02*
Y186202D01*
X-331030Y157639D02*
X-329830D01*
X-330430Y157039D02*
Y158239D01*
X-334002Y85408D02*
X-332802D01*
X-333402Y84808D02*
Y86008D01*
X-31747Y179700D02*
X-30547D01*
X-31146Y179100D02*
Y180300D01*
X-18746Y180500D02*
X-17946D01*
X-18347Y180100D02*
Y180900D01*
X-25298Y181249D02*
X-24498D01*
X-24898Y180849D02*
Y181649D01*
X-37215Y104269D02*
X-36215D01*
X-36715Y103769D02*
Y104769D01*
X-42847Y103100D02*
X-41846D01*
X-42347Y102600D02*
Y103600D01*
X-65246Y148900D02*
X-64447D01*
X-64846Y148500D02*
Y149300D01*
X-47600Y147800D02*
X-46800D01*
X-47200Y147400D02*
Y148200D01*
X-69647Y139100D02*
X-68846D01*
X-69247Y138700D02*
Y139500D01*
X-53646Y148600D02*
X-52846D01*
X-53246Y148200D02*
Y149000D01*
X-47346Y140700D02*
X-46547D01*
X-46946Y140300D02*
Y141100D01*
X-55946Y135000D02*
X-55146D01*
X-55546Y134600D02*
Y135400D01*
X-54146Y137800D02*
X-53347D01*
X-53746Y137400D02*
Y138200D01*
X-52346Y135900D02*
X-51547D01*
X-51947Y135500D02*
Y136300D01*
X-284946Y22900D02*
X-283946D01*
X-284447Y22400D02*
Y23400D01*
X-283147Y35900D02*
X-281946D01*
X-282546Y35300D02*
Y36500D01*
X-288647Y33400D02*
X-287446D01*
X-288047Y32800D02*
Y34000D01*
X-287418Y35828D02*
X-286218D01*
X-286818Y35228D02*
Y36428D01*
X-264687Y4828D02*
X-263488D01*
X-264088Y4228D02*
Y5428D01*
X-114283Y24363D02*
X-113483D01*
X-113883Y23963D02*
Y24763D01*
X-315920Y185602D02*
X-314721D01*
X-315320Y185002D02*
Y186202D01*
X-154145Y108583D02*
X-153345D01*
X-153745Y108183D02*
Y108983D01*
X-154345Y121583D02*
X-153545D01*
X-153945Y121183D02*
Y121983D01*
X-157730Y102899D02*
X-156930D01*
X-157330Y102499D02*
Y103299D01*
X-155330Y106899D02*
X-154530D01*
X-154930Y106499D02*
Y107299D01*
X-121947Y94200D02*
X-120747D01*
X-121346Y93600D02*
Y94800D01*
X-68946Y92500D02*
X-67946D01*
X-68446Y92000D02*
Y93000D01*
X-110747Y135200D02*
X-109947D01*
X-110346Y134800D02*
Y135600D01*
X-110747Y125400D02*
X-109947D01*
X-110346Y125000D02*
Y125800D01*
X-101302Y137774D02*
X-100502D01*
X-100902Y137374D02*
Y138174D01*
X-101345Y135974D02*
X-100545D01*
X-100945Y135574D02*
Y136374D01*
X-95802Y139331D02*
X-95002D01*
X-95402Y138931D02*
Y139731D01*
X-63647Y13000D02*
X-62647D01*
X-63147Y12500D02*
Y13500D01*
X-61946Y11000D02*
X-60947D01*
X-61446Y10500D02*
Y11500D01*
X-188646Y117400D02*
X-187847D01*
X-188247Y117000D02*
Y117800D01*
X-183346Y122000D02*
X-182546D01*
X-182947Y121600D02*
Y122400D01*
X-197846Y162300D02*
X-197046D01*
X-197447Y161900D02*
Y162700D01*
X-189746Y159800D02*
X-188946D01*
X-189347Y159400D02*
Y160200D01*
X-189746Y162900D02*
X-188946D01*
X-189347Y162500D02*
Y163300D01*
X-104861Y19142D02*
X-104061D01*
X-104461Y18743D02*
Y19543D01*
X-84495Y168799D02*
X-83694D01*
X-84095Y168399D02*
Y169199D01*
X-35713Y179367D02*
X-34513D01*
X-35113Y178767D02*
Y179967D01*
X-7247Y173700D02*
X-6047D01*
X-6646Y173100D02*
Y174300D01*
X-30246Y163700D02*
X-29046D01*
X-29647Y163100D02*
Y164300D01*
X-61946Y107700D02*
X-60146D01*
X-61046Y106800D02*
Y108600D01*
X-152847Y103500D02*
X-151047D01*
X-151946Y102600D02*
Y104400D01*
X-252302Y31045D02*
X-251502D01*
X-251902Y30645D02*
Y31445D01*
X-252346Y37500D02*
X-251547D01*
X-251946Y37100D02*
Y37900D01*
X-76302Y104083D02*
X-74502D01*
X-75402Y103183D02*
Y104983D01*
X-283930Y13999D02*
X-282130D01*
X-283030Y13099D02*
Y14899D01*
X-279680Y5299D02*
X-277880D01*
X-278780Y4399D02*
Y6199D01*
X-97302Y136199D02*
X-96502D01*
X-96902Y135799D02*
Y136599D01*
X-95802Y136199D02*
X-95002D01*
X-95402Y135799D02*
Y136599D01*
X-92594Y122499D02*
X-91795D01*
X-92194Y122099D02*
Y122899D01*
X-90895Y122499D02*
X-90095D01*
X-90495Y122099D02*
Y122899D01*
X-279680Y9699D02*
X-277880D01*
X-278780Y8799D02*
Y10599D01*
X-186482Y11173D02*
X-185682D01*
X-186082Y10773D02*
Y11573D01*
X-189632Y8373D02*
X-188832D01*
X-189232Y7973D02*
Y8773D01*
X-188057Y9773D02*
X-187257D01*
X-187657Y9373D02*
Y10173D01*
X-185502Y5984D02*
X-184702D01*
X-185102Y5584D02*
Y6384D01*
X-180183Y11173D02*
X-179383D01*
X-179783Y10773D02*
Y11573D01*
X-183333Y6100D02*
X-182533D01*
X-182933Y5700D02*
Y6500D01*
X-169165Y22831D02*
X-168365D01*
X-168765Y22431D02*
Y23231D01*
X-152802Y23831D02*
X-152002D01*
X-152402Y23431D02*
Y24231D01*
X-170765Y25031D02*
X-169965D01*
X-170365Y24631D02*
Y25431D01*
X-172265Y22831D02*
X-171465D01*
X-171865Y22431D02*
Y23231D01*
X-173865Y25031D02*
X-173065D01*
X-173465Y24631D02*
Y25431D01*
X-175465Y22831D02*
X-174665D01*
X-175065Y22431D02*
Y23231D01*
X-177065Y25031D02*
X-176265D01*
X-176665Y24631D02*
Y25431D01*
X-132147Y22300D02*
X-131346D01*
X-131746Y21900D02*
Y22700D01*
X-145346Y9800D02*
X-144346D01*
X-144846Y9300D02*
Y10300D01*
X-60947Y22100D02*
X-60146D01*
X-60546Y21700D02*
Y22500D01*
X-45046Y122000D02*
X-44247D01*
X-44646Y121600D02*
Y122400D01*
X-305047Y45900D02*
X-303246D01*
X-304147Y45000D02*
Y46800D01*
X-315843Y102892D02*
X-315043D01*
X-315443Y102492D02*
Y103292D01*
X-320802Y114083D02*
X-320002D01*
X-320402Y113683D02*
Y114483D01*
X-319843Y116392D02*
X-319043D01*
X-319443Y115992D02*
Y116792D01*
X-316843Y119392D02*
X-316043D01*
X-316443Y118992D02*
Y119792D01*
X-331030Y160899D02*
X-329830D01*
X-330430Y160299D02*
Y161499D01*
X-6847Y43200D02*
X-5847D01*
X-6346Y42700D02*
Y43700D01*
X-6847Y40700D02*
X-5847D01*
X-6346Y40200D02*
Y41200D01*
X-6847Y38200D02*
X-5847D01*
X-6346Y37700D02*
Y38700D01*
X-6847Y35700D02*
X-5847D01*
X-6346Y35200D02*
Y36200D01*
X-6847Y33200D02*
X-5847D01*
X-6346Y32700D02*
Y33700D01*
X-6847Y30700D02*
X-5847D01*
X-6346Y30200D02*
Y31200D01*
X-6847Y28200D02*
X-5847D01*
X-6346Y27700D02*
Y28700D01*
X-6847Y25700D02*
X-5847D01*
X-6346Y25200D02*
Y26200D01*
X-6847Y23200D02*
X-5847D01*
X-6346Y22700D02*
Y23700D01*
X12353Y31300D02*
X13353D01*
X12854Y30800D02*
Y31800D01*
X12353Y28600D02*
X13353D01*
X12854Y28100D02*
Y29100D01*
X12353Y25900D02*
X13353D01*
X12854Y25400D02*
Y26400D01*
X12353Y23200D02*
X13353D01*
X12854Y22700D02*
Y23700D01*
X12353Y20500D02*
X13353D01*
X12854Y20000D02*
Y21000D01*
X12353Y17800D02*
X13353D01*
X12854Y17300D02*
Y18300D01*
X12253Y14600D02*
X13253D01*
X12754Y14100D02*
Y15100D01*
X12253Y11700D02*
X13253D01*
X12754Y11200D02*
Y12200D01*
X10853Y8700D02*
X11853D01*
X11354Y8200D02*
Y9200D01*
X-14346Y78400D02*
X-13347D01*
X-13847Y77900D02*
Y78900D01*
X-26746Y81000D02*
X-25747D01*
X-26247Y80500D02*
Y81500D01*
X-26746Y83600D02*
X-25747D01*
X-26247Y83100D02*
Y84100D01*
X-24546Y85100D02*
X-23547D01*
X-24047Y84600D02*
Y85600D01*
X-15495Y85699D02*
X-14494D01*
X-14995Y85199D02*
Y86199D01*
X-12946Y85699D02*
X-11947D01*
X-12447Y85199D02*
Y86199D01*
X-12946Y83150D02*
X-11947D01*
X-12447Y82650D02*
Y83650D01*
X-12946Y80600D02*
X-11947D01*
X-12447Y80100D02*
Y81100D01*
X-9420Y25695D02*
X-8420D01*
X-8919Y25195D02*
Y26195D01*
X-14647Y34600D02*
X-13646D01*
X-14146Y34100D02*
Y35100D01*
X-51294Y69599D02*
X-50295D01*
X-50795Y69099D02*
Y70099D01*
X-53694Y69599D02*
X-52694D01*
X-53194Y69099D02*
Y70099D01*
X-57147Y69599D02*
X-56147D01*
X-56647Y69099D02*
Y70099D01*
X-59595Y69599D02*
X-58595D01*
X-59095Y69099D02*
Y70099D01*
X-68695Y68699D02*
X-67694D01*
X-68195Y68199D02*
Y69199D01*
X-68695Y66399D02*
X-67694D01*
X-68195Y65899D02*
Y66899D01*
X-47695Y27999D02*
X-46694D01*
X-47194Y27499D02*
Y28499D01*
X-45294Y27999D02*
X-44295D01*
X-44794Y27499D02*
Y28499D01*
X-42895Y27999D02*
X-41895D01*
X-42395Y27499D02*
Y28499D01*
X-50195Y27999D02*
X-49194D01*
X-49694Y27499D02*
Y28499D01*
X-37646Y28000D02*
X-36647D01*
X-37146Y27500D02*
Y28500D01*
X-35247Y28000D02*
X-34247D01*
X-34747Y27500D02*
Y28500D01*
X-21630Y27899D02*
X-20630D01*
X-21130Y27399D02*
Y28399D01*
X-16594Y32899D02*
X-15595D01*
X-16094Y32399D02*
Y33399D01*
X-60500Y35300D02*
X-59500D01*
X-60000Y34800D02*
Y35800D01*
X-6847Y20800D02*
X-5847D01*
X-6346Y20300D02*
Y21300D01*
X-6847Y18262D02*
X-5847D01*
X-6346Y17762D02*
Y18762D01*
X-15046Y18262D02*
X-14047D01*
X-14547Y17762D02*
Y18762D01*
X-32247Y8900D02*
X-31247D01*
X-31747Y8400D02*
Y9400D01*
X-29847Y8900D02*
X-28846D01*
X-29346Y8400D02*
Y9400D01*
X-27446Y8900D02*
X-26447D01*
X-26946Y8400D02*
Y9400D01*
X-25047Y8900D02*
X-24047D01*
X-24546Y8400D02*
Y9400D01*
X-22647Y8900D02*
X-21646D01*
X-22147Y8400D02*
Y9400D01*
X-20146Y8900D02*
X-19147D01*
X-19647Y8400D02*
Y9400D01*
X-17747Y8900D02*
X-16747D01*
X-17246Y8400D02*
Y9400D01*
X-46047Y8900D02*
X-45046D01*
X-45546Y8400D02*
Y9400D01*
X-48823Y8900D02*
X-47823D01*
X-48323Y8400D02*
Y9400D01*
X-51600Y8900D02*
X-50600D01*
X-51100Y8400D02*
Y9400D01*
X-54377Y8900D02*
X-53377D01*
X-53877Y8400D02*
Y9400D01*
X-59930Y8900D02*
X-58930D01*
X-59430Y8400D02*
Y9400D01*
X-57153Y8900D02*
X-56153D01*
X-56653Y8400D02*
Y9400D01*
X-65346Y8900D02*
X-64346D01*
X-64846Y8400D02*
Y9400D01*
X-67946Y8900D02*
X-66947D01*
X-67447Y8400D02*
Y9400D01*
X-129847Y128900D02*
X-129046D01*
X-129446Y128500D02*
Y129300D01*
X-327848Y49326D02*
X-326648D01*
X-327248Y48726D02*
Y49926D01*
X-327848Y46426D02*
X-326648D01*
X-327248Y45826D02*
Y47026D01*
X-327848Y37726D02*
X-326648D01*
X-327248Y37126D02*
Y38326D01*
X-327848Y40626D02*
X-326648D01*
X-327248Y40026D02*
Y41226D01*
X-327848Y43526D02*
X-326648D01*
X-327248Y42926D02*
Y44126D01*
X-327847Y34600D02*
X-326646D01*
X-327246Y34000D02*
Y35200D01*
X-263720Y185602D02*
X-262521D01*
X-263121Y185002D02*
Y186202D01*
X-266620Y185602D02*
X-265421D01*
X-266020Y185002D02*
Y186202D01*
X-275321Y185602D02*
X-274120D01*
X-274721Y185002D02*
Y186202D01*
X-272421Y185602D02*
X-271220D01*
X-271820Y185002D02*
Y186202D01*
X-269520Y185602D02*
X-268320D01*
X-268920Y185002D02*
Y186202D01*
X-278447Y185602D02*
X-277246D01*
X-277847Y185002D02*
Y186202D01*
X-44047Y185702D02*
X-42847D01*
X-43446Y185102D02*
Y186302D01*
X-34803Y185702D02*
X-33603D01*
X-34203Y185102D02*
Y186302D01*
X-37884Y185702D02*
X-36684D01*
X-37284Y185102D02*
Y186302D01*
X-40965Y185702D02*
X-39765D01*
X-40365Y185102D02*
Y186302D01*
X-31722Y185702D02*
X-30522D01*
X-31122Y185102D02*
Y186302D01*
X-28641Y185702D02*
X-27441D01*
X-28041Y185102D02*
Y186302D01*
X-16317Y185702D02*
X-15117D01*
X-15717Y185102D02*
Y186302D01*
X-7073Y185702D02*
X-5873D01*
X-6473Y185102D02*
Y186302D01*
X-10154Y185702D02*
X-8954D01*
X-9554Y185102D02*
Y186302D01*
X-13236Y185702D02*
X-12036D01*
X-12636Y185102D02*
Y186302D01*
X-3992Y185702D02*
X-2792D01*
X-3392Y185102D02*
Y186302D01*
X-911Y185702D02*
X289D01*
X-311Y185102D02*
Y186302D01*
X5470Y167299D02*
X6670D01*
X6070Y166699D02*
Y167899D01*
X-55348Y116300D02*
X-54148D01*
X-54748Y115700D02*
Y116900D01*
X-52447Y116300D02*
X-51247D01*
X-51846Y115700D02*
Y116900D01*
X-51147Y103200D02*
X-49946D01*
X-50546Y102600D02*
Y103800D01*
X-51247Y100400D02*
X-50046D01*
X-50647Y99800D02*
Y101000D01*
X-69346Y88500D02*
X-68147D01*
X-68747Y87900D02*
Y89100D01*
X-66347Y88500D02*
X-65146D01*
X-65746Y87900D02*
Y89100D01*
X-63346Y88600D02*
X-62147D01*
X-62747Y88000D02*
Y89200D01*
X-45147Y88300D02*
X-43946D01*
X-44546Y87700D02*
Y88900D01*
X-42147Y88300D02*
X-40946D01*
X-41546Y87700D02*
Y88900D01*
X-248430Y3899D02*
X-247230D01*
X-247830Y3299D02*
Y4499D01*
X-245530Y3899D02*
X-244330D01*
X-244930Y3299D02*
Y4499D01*
X-228231Y2771D02*
X-227031D01*
X-227631Y2171D02*
Y3371D01*
X-225398Y2771D02*
X-224198D01*
X-224798Y2171D02*
Y3371D01*
X-222564Y2771D02*
X-221364D01*
X-221964Y2171D02*
Y3371D01*
X-219731Y2771D02*
X-218531D01*
X-219131Y2171D02*
Y3371D01*
X-339248Y178326D02*
X-338048D01*
X-338648Y177726D02*
Y178926D01*
X-339248Y175426D02*
X-338048D01*
X-338648Y174826D02*
Y176026D01*
X-339248Y166726D02*
X-338048D01*
X-338648Y166126D02*
Y167326D01*
X-339248Y169626D02*
X-338048D01*
X-338648Y169026D02*
Y170226D01*
X-339248Y172526D02*
X-338048D01*
X-338648Y171926D02*
Y173126D01*
X-339248Y163600D02*
X-338048D01*
X-338648Y163000D02*
Y164200D01*
X-330372Y3198D02*
X-329172D01*
X-329772Y2598D02*
Y3798D01*
X-80945Y3099D02*
X-79744D01*
X-80344Y2499D02*
Y3699D01*
X-77995Y3099D02*
X-76794D01*
X-77394Y2499D02*
Y3699D01*
X-97162Y7800D02*
X-95963D01*
X-96562Y7200D02*
Y8400D01*
X-93920Y7800D02*
X-92721D01*
X-93321Y7200D02*
Y8400D01*
X-103647Y7800D02*
X-102446D01*
X-103047Y7200D02*
Y8400D01*
X-100405Y7800D02*
X-99204D01*
X-99805Y7200D02*
Y8400D01*
X-174052Y82083D02*
X-172752D01*
X-173402Y81433D02*
Y82733D01*
X-22230Y59999D02*
X-21430D01*
X-21830Y59599D02*
Y60399D01*
X-22230Y62199D02*
X-21430D01*
X-21830Y61799D02*
Y62599D01*
X-20430Y53699D02*
X-19630D01*
X-20030Y53299D02*
Y54099D01*
X-20430Y51849D02*
X-19630D01*
X-20030Y51449D02*
Y52249D01*
X-20430Y49999D02*
X-19630D01*
X-20030Y49599D02*
Y50399D01*
X-155435Y144764D02*
X-154635D01*
X-155035Y144364D02*
Y145164D01*
X-154045Y146374D02*
X-153245D01*
X-153645Y145974D02*
Y146774D01*
X-157194Y152699D02*
X-156395D01*
X-156795Y152299D02*
Y153099D01*
X-157194Y156099D02*
X-156395D01*
X-156795Y155699D02*
Y156499D01*
X-153845Y159774D02*
X-152645D01*
X-153245Y159174D02*
Y160374D01*
X-153645Y166274D02*
X-152845D01*
X-153245Y165874D02*
Y166674D01*
X-157147Y163700D02*
X-156346D01*
X-156746Y163300D02*
Y164100D01*
X-155645Y158174D02*
X-154845D01*
X-155245Y157774D02*
Y158574D01*
X-172547Y166800D02*
X-171747D01*
X-172146Y166400D02*
Y167200D01*
X-179230Y155647D02*
X-178430D01*
X-178830Y155247D02*
Y156047D01*
X-179230Y159600D02*
X-178430D01*
X-178830Y159200D02*
Y160000D01*
X-173645Y161474D02*
X-172445D01*
X-173045Y160874D02*
Y162074D01*
X-179230Y164099D02*
X-178430D01*
X-178830Y163699D02*
Y164499D01*
X-179230Y166150D02*
X-178430D01*
X-178830Y165750D02*
Y166550D01*
X-174230Y165599D02*
X-173430D01*
X-173830Y165199D02*
Y165999D01*
X-192030Y166599D02*
X-191230D01*
X-191630Y166199D02*
Y166999D01*
X-174230Y158899D02*
X-173430D01*
X-173830Y158499D02*
Y159299D01*
X-211030Y6799D02*
X-209230D01*
X-210130Y5899D02*
Y7699D01*
X-97530Y36599D02*
X-96730D01*
X-97130Y36199D02*
Y36999D01*
X-102230Y85699D02*
X-100430D01*
X-101330Y84799D02*
Y86599D01*
X-98630Y85699D02*
X-96830D01*
X-97730Y84799D02*
Y86599D01*
X-165930Y175399D02*
X-165130D01*
X-165530Y174999D02*
Y175799D01*
X-108830Y140199D02*
X-108030D01*
X-108430Y139799D02*
Y140599D01*
X-43230Y120599D02*
X-42430D01*
X-42830Y120199D02*
Y120999D01*
X-50929Y112800D02*
X-49729D01*
X-50329Y112200D02*
Y113400D01*
X-340146Y11000D02*
X-338947D01*
X-339546Y10400D02*
Y11600D01*
X-340148Y19926D02*
X-338948D01*
X-339548Y19326D02*
Y20526D01*
X-340148Y17026D02*
X-338948D01*
X-339548Y16426D02*
Y17626D01*
X-340148Y14126D02*
X-338948D01*
X-339548Y13526D02*
Y14726D01*
X-340148Y22826D02*
X-338948D01*
X-339548Y22226D02*
Y23426D01*
X-340148Y25726D02*
X-338948D01*
X-339548Y25126D02*
Y26326D01*
X-262839Y156286D02*
X-262038D01*
X-262439Y155886D02*
Y156686D01*
X-265057Y156296D02*
X-264258D01*
X-264657Y155896D02*
Y156696D01*
X-267424Y156748D02*
X-266623D01*
X-267023Y156348D02*
Y157148D01*
X-286363Y162599D02*
X-285563D01*
X-285963Y162199D02*
Y162999D01*
X-284097Y162599D02*
X-283297D01*
X-283697Y162199D02*
Y162999D01*
X-286363Y160399D02*
X-285563D01*
X-285963Y159999D02*
Y160799D01*
X-281830Y162599D02*
X-281030D01*
X-281430Y162199D02*
Y162999D01*
X-250530Y157199D02*
X-249730D01*
X-250130Y156799D02*
Y157599D01*
X-247480Y157199D02*
X-246680D01*
X-247080Y156799D02*
Y157599D01*
X-244430Y157199D02*
X-243630D01*
X-244030Y156799D02*
Y157599D01*
X-225430Y157199D02*
X-224630D01*
X-225030Y156799D02*
Y157599D01*
X-223230Y157199D02*
X-222430D01*
X-222830Y156799D02*
Y157599D01*
X-221030Y157199D02*
X-220230D01*
X-220630Y156799D02*
Y157599D01*
X-218830Y157199D02*
X-218030D01*
X-218430Y156799D02*
Y157599D01*
X-216630Y157199D02*
X-215830D01*
X-216230Y156799D02*
Y157599D01*
X-201795Y159399D02*
X-200994D01*
X-201395Y158999D02*
Y159799D01*
X-201795Y157199D02*
X-200994D01*
X-201395Y156799D02*
Y157599D01*
X-327430Y109099D02*
X-326630D01*
X-327030Y108699D02*
Y109499D01*
X-327430Y111553D02*
X-326630D01*
X-327030Y111153D02*
Y111953D01*
X-327430Y114007D02*
X-326630D01*
X-327030Y113607D02*
Y114407D01*
X-327430Y116461D02*
X-326630D01*
X-327030Y116061D02*
Y116861D01*
X-327430Y118915D02*
X-326630D01*
X-327030Y118515D02*
Y119315D01*
X-327430Y121368D02*
X-326630D01*
X-327030Y120968D02*
Y121768D01*
X-327430Y123822D02*
X-326630D01*
X-327030Y123422D02*
Y124222D01*
X-327430Y126276D02*
X-326630D01*
X-327030Y125876D02*
Y126676D01*
X-327430Y128730D02*
X-326630D01*
X-327030Y128330D02*
Y129130D01*
X-327430Y131184D02*
X-326630D01*
X-327030Y130784D02*
Y131584D01*
X-327430Y133638D02*
X-326630D01*
X-327030Y133238D02*
Y134038D01*
X-327430Y136091D02*
X-326630D01*
X-327030Y135691D02*
Y136492D01*
X-327430Y138545D02*
X-326630D01*
X-327030Y138145D02*
Y138945D01*
X-327430Y140999D02*
X-326630D01*
X-327030Y140599D02*
Y141399D01*
X-331030Y154379D02*
X-329830D01*
X-330430Y153779D02*
Y154979D01*
X-331030Y151119D02*
X-329830D01*
X-330430Y150519D02*
Y151719D01*
X-331030Y144599D02*
X-329830D01*
X-330430Y143999D02*
Y145199D01*
X-331030Y147859D02*
X-329830D01*
X-330430Y147259D02*
Y148459D01*
X-313595Y131699D02*
X-312394D01*
X-312995Y131099D02*
Y132299D01*
X-323030Y121399D02*
X-322230D01*
X-322630Y120999D02*
Y121799D01*
X-325230Y121399D02*
X-324430D01*
X-324830Y120999D02*
Y121799D01*
X-327430Y106699D02*
X-326630D01*
X-327030Y106299D02*
Y107099D01*
X-284097Y160399D02*
X-283297D01*
X-283697Y159999D02*
Y160799D01*
X-142845Y135974D02*
X-142045D01*
X-142445Y135574D02*
Y136374D01*
X-236794Y38899D02*
X-235595D01*
X-236194Y38299D02*
Y39499D01*
X-194230Y2799D02*
X-193030D01*
X-193630Y2199D02*
Y3399D01*
X-197030Y2799D02*
X-195830D01*
X-196430Y2199D02*
Y3399D01*
X-199830Y2799D02*
X-198630D01*
X-199230Y2199D02*
Y3399D01*
X-202630Y2799D02*
X-201430D01*
X-202030Y2199D02*
Y3399D01*
X-176730Y2399D02*
X-175530D01*
X-176130Y1799D02*
Y2999D01*
X-173697Y2399D02*
X-172497D01*
X-173097Y1799D02*
Y2999D01*
X-170663Y2399D02*
X-169463D01*
X-170063Y1799D02*
Y2999D01*
X-167630Y2399D02*
X-166430D01*
X-167030Y1799D02*
Y2999D01*
X-150830Y2499D02*
X-149630D01*
X-150230Y1899D02*
Y3099D01*
X-147520Y2499D02*
X-146320D01*
X-146920Y1899D02*
Y3099D01*
X-144211Y2499D02*
X-143011D01*
X-143611Y1899D02*
Y3099D01*
X-140901Y2499D02*
X-139701D01*
X-140301Y1899D02*
Y3099D01*
X-137592Y2499D02*
X-136392D01*
X-136992Y1899D02*
Y3099D01*
X-134282Y2499D02*
X-133082D01*
X-133682Y1899D02*
Y3099D01*
X-130973Y2499D02*
X-129773D01*
X-130373Y1899D02*
Y3099D01*
X-127663Y2499D02*
X-126463D01*
X-127063Y1899D02*
Y3099D01*
X-124354Y2499D02*
X-123154D01*
X-123754Y1899D02*
Y3099D01*
X-121044Y2499D02*
X-119844D01*
X-120444Y1899D02*
Y3099D01*
X-117735Y2499D02*
X-116535D01*
X-117135Y1899D02*
Y3099D01*
X-114425Y2499D02*
X-113225D01*
X-113825Y1899D02*
Y3099D01*
X-111116Y2499D02*
X-109916D01*
X-110516Y1899D02*
Y3099D01*
X-107806Y2499D02*
X-106606D01*
X-107206Y1899D02*
Y3099D01*
X-104497Y2499D02*
X-103297D01*
X-103897Y1899D02*
Y3099D01*
X-101187Y2499D02*
X-99987D01*
X-100587Y1899D02*
Y3099D01*
X-97878Y2499D02*
X-96678D01*
X-97278Y1899D02*
Y3099D01*
X-94568Y2499D02*
X-93368D01*
X-93968Y1899D02*
Y3099D01*
X-83894D02*
X-82695D01*
X-83294Y2499D02*
Y3699D01*
X-87949Y2499D02*
X-86749D01*
X-87349Y1899D02*
Y3099D01*
X-91259Y2499D02*
X-90059D01*
X-90659Y1899D02*
Y3099D01*
X-338830Y7999D02*
X-337630D01*
X-338230Y7399D02*
Y8599D01*
X-336630Y5899D02*
X-335430D01*
X-336030Y5299D02*
Y6499D01*
X-333930Y4099D02*
X-332730D01*
X-333330Y3499D02*
Y4699D01*
X-6530Y91699D02*
X-5330D01*
X-5930Y91099D02*
Y92299D01*
X-6530Y88699D02*
X-5330D01*
X-5930Y88099D02*
Y89299D01*
X-6530Y85699D02*
X-5330D01*
X-5930Y85099D02*
Y86299D01*
X-6530Y82699D02*
X-5330D01*
X-5930Y82099D02*
Y83299D01*
X-6830Y158999D02*
X-5630D01*
X-6230Y158399D02*
Y159599D01*
X2370Y158999D02*
X3570D01*
X2970Y158399D02*
Y159599D01*
X5470Y164399D02*
X6670D01*
X6070Y163799D02*
Y164999D01*
X5470Y161499D02*
X6670D01*
X6070Y160899D02*
Y162099D01*
X-25560Y185702D02*
X-24360D01*
X-24960Y185102D02*
Y186302D01*
X-22479Y185702D02*
X-21279D01*
X-21879Y185102D02*
Y186302D01*
X-19398Y185702D02*
X-18198D01*
X-18798Y185102D02*
Y186302D01*
X2170Y185702D02*
X3370D01*
X2770Y185102D02*
Y186302D01*
X570Y78599D02*
X1770D01*
X1170Y77999D02*
Y79199D01*
X4403Y78599D02*
X5603D01*
X5003Y77999D02*
Y79199D01*
X8237Y78599D02*
X9437D01*
X8837Y77999D02*
Y79199D01*
X12070Y78599D02*
X13270D01*
X12670Y77999D02*
Y79199D01*
X12070Y75499D02*
X13270D01*
X12670Y74899D02*
Y76099D01*
X12070Y72399D02*
X13270D01*
X12670Y71799D02*
Y72999D01*
X-139330Y26599D02*
X-138530D01*
X-138930Y26199D02*
Y26999D01*
X-150330Y25099D02*
X-149530D01*
X-149930Y24699D02*
Y25499D01*
X-128330Y22699D02*
X-127530D01*
X-127930Y22299D02*
Y23099D01*
X-126130Y22699D02*
X-125330D01*
X-125730Y22299D02*
Y23099D01*
X-120730Y21799D02*
X-119930D01*
X-120330Y21399D02*
Y22199D01*
X-120730Y19599D02*
X-119930D01*
X-120330Y19199D02*
Y19999D01*
X-139230Y7899D02*
X-138430D01*
X-138830Y7499D02*
Y8299D01*
X-136997Y7899D02*
X-136197D01*
X-136597Y7499D02*
Y8299D01*
X-134763Y7899D02*
X-133963D01*
X-134363Y7499D02*
Y8299D01*
X-132530Y7899D02*
X-131730D01*
X-132130Y7499D02*
Y8299D01*
X-164630Y27399D02*
X-163830D01*
X-164230Y26999D02*
Y27799D01*
X-164630Y25199D02*
X-163830D01*
X-164230Y24799D02*
Y25599D01*
X-179930Y24299D02*
X-179130D01*
X-179530Y23899D02*
Y24699D01*
X-304105Y56699D02*
X-303305D01*
X-303705Y56299D02*
Y57099D01*
X-301430Y56699D02*
X-300630D01*
X-301030Y56299D02*
Y57099D01*
X-306780Y56699D02*
X-305980D01*
X-306380Y56299D02*
Y57099D01*
X-309455Y56699D02*
X-308655D01*
X-309055Y56299D02*
Y57099D01*
X-306894Y54399D02*
X-306095D01*
X-306494Y53999D02*
Y54799D01*
X-170430Y59699D02*
X-169630D01*
X-170030Y59299D02*
Y60099D01*
X-89595Y115299D02*
X-88794D01*
X-89195Y114899D02*
Y115699D01*
X-87695Y115299D02*
X-86895D01*
X-87295Y114899D02*
Y115699D01*
X-172294Y146499D02*
X-171494D01*
X-171895Y146099D02*
Y146899D01*
X-151495Y133259D02*
X-150695D01*
X-151094Y132859D02*
Y133659D01*
X-89095Y122499D02*
X-88295D01*
X-88695Y122099D02*
Y122899D01*
X-92694Y136199D02*
X-91895D01*
X-92295Y135799D02*
Y136599D01*
X-214794Y50132D02*
X-213794D01*
X-214295Y49632D02*
Y50632D01*
X-217245Y52991D02*
X-216245D01*
X-216745Y52491D02*
Y53491D01*
X-109994Y167799D02*
X-108194D01*
X-109095Y166899D02*
Y168699D01*
X-203147Y162400D02*
X-201946D01*
X-202547Y161800D02*
Y163000D01*
X-86895Y113499D02*
X-86094D01*
X-86494Y113099D02*
Y113899D01*
X-88595Y113499D02*
X-87795D01*
X-88195Y113099D02*
Y113899D01*
X-90294Y113499D02*
X-89495D01*
X-89894Y113099D02*
Y113899D01*
X-62707Y8900D02*
X-61707D01*
X-62207Y8400D02*
Y9400D01*
X-312595Y10399D02*
X-311395D01*
X-311995Y9799D02*
Y10999D01*
X-316295Y10399D02*
X-315094D01*
X-315694Y9799D02*
Y10999D01*
X-287895Y175099D02*
X-287094D01*
X-287494Y174699D02*
Y175499D01*
X-287895Y179599D02*
X-287094D01*
X-287494Y179199D02*
Y179999D01*
X-24147Y18600D02*
X-22346D01*
X-23246Y17700D02*
Y19500D01*
X-37626Y46800D02*
X-36839D01*
X-37232Y46406D02*
Y47194D01*
X-33295Y46800D02*
X-32508D01*
X-32902Y46406D02*
Y47194D01*
X-28965Y46800D02*
X-28177D01*
X-28571Y46406D02*
Y47194D01*
X-37626Y51131D02*
X-36839D01*
X-37232Y50737D02*
Y51524D01*
X-33295Y51131D02*
X-32508D01*
X-32902Y50737D02*
Y51524D01*
X-28965Y51131D02*
X-28177D01*
X-28571Y50737D02*
Y51524D01*
X-37626Y55461D02*
X-36839D01*
X-37232Y55068D02*
Y55855D01*
X-33295Y55461D02*
X-32508D01*
X-32902Y55068D02*
Y55855D01*
X-28965Y55461D02*
X-28177D01*
X-28571Y55068D02*
Y55855D01*
X-30147Y107600D02*
X-28947D01*
X-29546Y107000D02*
Y108200D01*
X-31346Y147000D02*
X-30147D01*
X-30746Y146400D02*
Y147600D01*
X-400Y126200D02*
X400D01*
X0Y125800D02*
Y126600D01*
X-19900Y135700D02*
X-19100D01*
X-19500Y135300D02*
Y136100D01*
X-34800Y137500D02*
X-34000D01*
X-34400Y137100D02*
Y137900D01*
X-23100Y115700D02*
X-22300D01*
X-22700Y115300D02*
Y116100D01*
X-37047Y132800D02*
X-36246D01*
X-36647Y132400D02*
Y133200D01*
X-41247Y132100D02*
X-40446D01*
X-40846Y131700D02*
Y132500D01*
X-41346Y129600D02*
X-40547D01*
X-40946Y129200D02*
Y130000D01*
X-34846Y122100D02*
X-34047D01*
X-34446Y121700D02*
Y122500D01*
X-28400Y121000D02*
X-27600D01*
X-28000Y120600D02*
Y121400D01*
X-25384Y121600D02*
X-24584D01*
X-24984Y121200D02*
Y122000D01*
X-26900Y119500D02*
X-26100D01*
X-26500Y119100D02*
Y119900D01*
X-21600Y117100D02*
X-20800D01*
X-21200Y116700D02*
Y117500D01*
X-16900Y98100D02*
X-15700D01*
X-16300Y97500D02*
Y98700D01*
X-179802Y95331D02*
X-179002D01*
X-179402Y94931D02*
Y95731D01*
X-171345Y93783D02*
X-170545D01*
X-170945Y93383D02*
Y94183D01*
X-169619Y95100D02*
X-168819D01*
X-169219Y94700D02*
Y95500D01*
X-53400Y111100D02*
X-52200D01*
X-52800Y110500D02*
Y111700D01*
X-16550Y106750D02*
X-15350D01*
X-15950Y106150D02*
Y107350D01*
X-22400Y113100D02*
X-21200D01*
X-21800Y112500D02*
Y113700D01*
X-6132Y111268D02*
X-4932D01*
X-5531Y110669D02*
Y111869D01*
X-34700Y127700D02*
X-33900D01*
X-34300Y127300D02*
Y128100D01*
M02*
