G04 Layer_Color=8388736*
%FSLAX25Y25*%
%MOIN*%
G70*
G01*
G75*
%ADD151C,0.16000*%
%ADD152C,0.05524*%
%ADD153R,0.04343X0.04343*%
%ADD154R,0.03162X0.02769*%
%ADD155R,0.01706X0.01981*%
G04:AMPARAMS|DCode=156|XSize=86.74mil|YSize=21.78mil|CornerRadius=0mil|HoleSize=0mil|Usage=FLASHONLY|Rotation=135.000|XOffset=0mil|YOffset=0mil|HoleType=Round|Shape=Round|*
%AMOVALD156*
21,1,0.06496,0.02178,0.00000,0.00000,135.0*
1,1,0.02178,0.02297,-0.02297*
1,1,0.02178,-0.02297,0.02297*
%
%ADD156OVALD156*%

%ADD157O,0.10249X0.02178*%
%ADD158O,0.12611X0.02178*%
%ADD159O,0.08674X0.02178*%
%ADD160O,0.02178X0.04737*%
%ADD161O,0.02178X0.08674*%
%ADD162O,0.02178X0.04343*%
%ADD163O,0.02178X0.06312*%
%ADD164O,0.02178X0.05524*%
%ADD165O,0.02178X0.07099*%
%ADD166O,0.09068X0.02178*%
G04:AMPARAMS|DCode=167|XSize=86.74mil|YSize=21.78mil|CornerRadius=0mil|HoleSize=0mil|Usage=FLASHONLY|Rotation=45.000|XOffset=0mil|YOffset=0mil|HoleType=Round|Shape=Round|*
%AMOVALD167*
21,1,0.06496,0.02178,0.00000,0.00000,45.0*
1,1,0.02178,-0.02297,-0.02297*
1,1,0.02178,0.02297,0.02297*
%
%ADD167OVALD167*%

%ADD168R,0.06784X0.07099*%
%ADD169R,0.02769X0.03162*%
%ADD170R,0.01981X0.03556*%
%ADD171R,0.01981X0.04737*%
%ADD172R,0.08280X0.05131*%
%ADD173O,0.03900X0.02000*%
%ADD174C,0.04737*%
%ADD175O,0.01587X0.04737*%
%ADD176O,0.04737X0.01587*%
G04:AMPARAMS|DCode=177|XSize=27.69mil|YSize=31.62mil|CornerRadius=0mil|HoleSize=0mil|Usage=FLASHONLY|Rotation=45.000|XOffset=0mil|YOffset=0mil|HoleType=Round|Shape=Rectangle|*
%AMROTATEDRECTD177*
4,1,4,0.00139,-0.02097,-0.02097,0.00139,-0.00139,0.02097,0.02097,-0.00139,0.00139,-0.02097,0.0*
%
%ADD177ROTATEDRECTD177*%

%ADD178R,0.04343X0.04343*%
%ADD179R,0.01981X0.05131*%
%ADD180R,0.02454X0.05918*%
%ADD181R,0.03556X0.01981*%
%ADD182R,0.04737X0.01981*%
%ADD183R,0.18123X0.05918*%
%ADD184O,0.02000X0.03900*%
G04:AMPARAMS|DCode=185|XSize=39mil|YSize=20mil|CornerRadius=0mil|HoleSize=0mil|Usage=FLASHONLY|Rotation=315.000|XOffset=0mil|YOffset=0mil|HoleType=Round|Shape=Round|*
%AMOVALD185*
21,1,0.01900,0.02000,0.00000,0.00000,315.0*
1,1,0.02000,-0.00672,0.00672*
1,1,0.02000,0.00672,-0.00672*
%
%ADD185OVALD185*%

%ADD186O,0.07296X0.01587*%
%ADD187O,0.01587X0.07296*%
%ADD188C,0.02375*%
%ADD189R,0.03556X0.02375*%
%ADD190O,0.01883X0.07800*%
%ADD191R,0.05524X0.06312*%
%ADD192R,0.05918X0.18123*%
%ADD193R,0.02650X0.02769*%
%ADD194R,0.02572X0.01745*%
%ADD195R,0.03674X0.02178*%
%ADD196O,0.06115X0.02847*%
%ADD197R,0.04147X0.05524*%
%ADD198R,0.05524X0.04147*%
%ADD199R,0.02178X0.02178*%
%ADD200R,0.02178X0.02178*%
%ADD201R,0.01784X0.02965*%
%ADD202R,0.07493X0.04737*%
%ADD203C,0.10642*%
%ADD204C,0.07493*%
%ADD205R,0.16548X0.16548*%
G04:AMPARAMS|DCode=206|XSize=244.22mil|YSize=244.22mil|CornerRadius=0mil|HoleSize=0mil|Usage=FLASHONLY|Rotation=0.000|XOffset=0mil|YOffset=0mil|HoleType=Round|Shape=RoundedRectangle|*
%AMROUNDEDRECTD206*
21,1,0.24422,0.24422,0,0,0.0*
21,1,0.24422,0.24422,0,0,0.0*
1,1,0.00000,0.12211,-0.12211*
1,1,0.00000,-0.12211,-0.12211*
1,1,0.00000,-0.12211,0.12211*
1,1,0.00000,0.12211,0.12211*
%
%ADD206ROUNDEDRECTD206*%
%ADD207C,0.02769*%
D151*
X4606Y176599D02*
D03*
D152*
D03*
D153*
X-40258Y166305D02*
D03*
X-33758D02*
D03*
X-323696Y169000D02*
D03*
X-317196D02*
D03*
X-39397Y112800D02*
D03*
X-45897D02*
D03*
X-72152Y112331D02*
D03*
X-65652D02*
D03*
X-95152Y109831D02*
D03*
X-88652D02*
D03*
X-54152Y152331D02*
D03*
X-60652D02*
D03*
X-237195Y177574D02*
D03*
X-243695D02*
D03*
X-254944Y42199D02*
D03*
X-261444D02*
D03*
X-237295Y183074D02*
D03*
X-243795D02*
D03*
X-21750Y142000D02*
D03*
X-28250D02*
D03*
D154*
X-37402Y161374D02*
D03*
X-33465D02*
D03*
X-175378Y7200D02*
D03*
X-179315D02*
D03*
X-258433Y36331D02*
D03*
X-262370D02*
D03*
X-124596Y92283D02*
D03*
X-128533D02*
D03*
X-317678Y173500D02*
D03*
X-321615D02*
D03*
X-186674Y125892D02*
D03*
X-190611D02*
D03*
X-39478Y108200D02*
D03*
X-43415D02*
D03*
X-226870Y10331D02*
D03*
X-222933D02*
D03*
X-213933Y10331D02*
D03*
X-217870D02*
D03*
X-257783Y79817D02*
D03*
X-253846D02*
D03*
X-253848Y65100D02*
D03*
X-257785D02*
D03*
X-78933Y110331D02*
D03*
X-82870D02*
D03*
X-105370Y157831D02*
D03*
X-101433D02*
D03*
X-105370Y168331D02*
D03*
X-101433D02*
D03*
X-240913Y173074D02*
D03*
X-236976D02*
D03*
X-147176Y65474D02*
D03*
X-151113D02*
D03*
X-60870Y137600D02*
D03*
X-56933D02*
D03*
X-105370Y164831D02*
D03*
X-101433D02*
D03*
X-186636Y134138D02*
D03*
X-190573D02*
D03*
X-190666Y138505D02*
D03*
X-186729D02*
D03*
X-259563Y47499D02*
D03*
X-255626D02*
D03*
X-101433Y147331D02*
D03*
X-105370D02*
D03*
X-101433Y150831D02*
D03*
X-105370D02*
D03*
X-60870Y147831D02*
D03*
X-56933D02*
D03*
X-275276Y174574D02*
D03*
X-279213D02*
D03*
Y178074D02*
D03*
X-275276D02*
D03*
X-60869Y144421D02*
D03*
X-56932D02*
D03*
Y141011D02*
D03*
X-60869D02*
D03*
X-101433Y161331D02*
D03*
X-105370D02*
D03*
X-84933Y100083D02*
D03*
X-88870D02*
D03*
X-128533Y96883D02*
D03*
X-124596D02*
D03*
X-150213Y173874D02*
D03*
X-146276D02*
D03*
X-151498Y114399D02*
D03*
X-147561D02*
D03*
X-149913Y160674D02*
D03*
X-145976D02*
D03*
X-147576Y118074D02*
D03*
X-151513D02*
D03*
X-258050Y96865D02*
D03*
X-254113D02*
D03*
X-254114Y101166D02*
D03*
X-258051D02*
D03*
X-48015Y133200D02*
D03*
X-44078D02*
D03*
X-181978Y152100D02*
D03*
X-185915D02*
D03*
X-44078Y136800D02*
D03*
X-48015D02*
D03*
X-149113Y141974D02*
D03*
X-145176D02*
D03*
X-185915Y164600D02*
D03*
X-181978D02*
D03*
X-190718Y142627D02*
D03*
X-186781D02*
D03*
X-190573Y130088D02*
D03*
X-186636D02*
D03*
X-186674Y121492D02*
D03*
X-190611D02*
D03*
X-105370Y154331D02*
D03*
X-101433D02*
D03*
X-21967Y137500D02*
D03*
X-25904D02*
D03*
D155*
X-35398Y157900D02*
D03*
X-34000D02*
D03*
D156*
X-270074Y161011D02*
D03*
D157*
X-256181Y156300D02*
D03*
D158*
X-232677D02*
D03*
X-158661Y2362D02*
D03*
X-184646D02*
D03*
X-210236D02*
D03*
X-236221D02*
D03*
D159*
X-210630Y156299D02*
D03*
X-187795Y145669D02*
D03*
X-253937Y2362D02*
D03*
X-267717D02*
D03*
D160*
X-201575Y150787D02*
D03*
X-141339Y57874D02*
D03*
D161*
X-181102Y138976D02*
D03*
Y126772D02*
D03*
X-141339Y44488D02*
D03*
X-324410Y72835D02*
D03*
Y87402D02*
D03*
Y102362D02*
D03*
D162*
X-141339Y83858D02*
D03*
D163*
Y25984D02*
D03*
D164*
Y8268D02*
D03*
X-298425Y54331D02*
D03*
D165*
X-277165Y31102D02*
D03*
Y40551D02*
D03*
D166*
X-289420Y49213D02*
D03*
X-310472Y59055D02*
D03*
D167*
X-283641Y157074D02*
D03*
X-306243Y134897D02*
D03*
X-317845Y123598D02*
D03*
D168*
X-94634Y117831D02*
D03*
X-81169Y117831D02*
D03*
D169*
X-249147Y19399D02*
D03*
Y15462D02*
D03*
X-21946Y65332D02*
D03*
Y69269D02*
D03*
X-50446Y63569D02*
D03*
Y59632D02*
D03*
X-54054Y63504D02*
D03*
Y59567D02*
D03*
X-253130Y28768D02*
D03*
Y24831D02*
D03*
X-175646Y115232D02*
D03*
Y119168D02*
D03*
X-100402Y105299D02*
D03*
Y101362D02*
D03*
X-282845Y174343D02*
D03*
Y170405D02*
D03*
X-282845Y182243D02*
D03*
Y178305D02*
D03*
X-256330Y24831D02*
D03*
Y28768D02*
D03*
X-249783Y96896D02*
D03*
Y100833D02*
D03*
X-197445Y158043D02*
D03*
Y154105D02*
D03*
X-28600Y117200D02*
D03*
Y113263D02*
D03*
X-96402Y105299D02*
D03*
Y101362D02*
D03*
X-272195Y40131D02*
D03*
Y44068D02*
D03*
X-202443Y112361D02*
D03*
Y108424D02*
D03*
X-252702Y7462D02*
D03*
Y11399D02*
D03*
X-252702Y15462D02*
D03*
Y19399D02*
D03*
X-55402Y178114D02*
D03*
Y182051D02*
D03*
X-268531Y27523D02*
D03*
Y31460D02*
D03*
X-251547Y161331D02*
D03*
Y165269D02*
D03*
X-271993Y27504D02*
D03*
Y31441D02*
D03*
X-248147Y161331D02*
D03*
Y165269D02*
D03*
X-254946Y161331D02*
D03*
Y165269D02*
D03*
X-104402Y177614D02*
D03*
Y181551D02*
D03*
X-259630Y28767D02*
D03*
Y24830D02*
D03*
X-43030Y144568D02*
D03*
Y140631D02*
D03*
X-193945Y154105D02*
D03*
Y158043D02*
D03*
X-123702Y13115D02*
D03*
Y17052D02*
D03*
X-283646Y39132D02*
D03*
Y43069D02*
D03*
X-318802Y54514D02*
D03*
Y50577D02*
D03*
X-287146Y39132D02*
D03*
Y43069D02*
D03*
D170*
X9991Y123383D02*
D03*
X8022D02*
D03*
X6053D02*
D03*
X4085D02*
D03*
X2117D02*
D03*
X-122441Y150197D02*
D03*
X-124409D02*
D03*
X-126378D02*
D03*
X-128346D02*
D03*
X-130315D02*
D03*
X-132283D02*
D03*
X-21654Y36319D02*
D03*
X-23622D02*
D03*
X-25591D02*
D03*
X-27559D02*
D03*
X-29528D02*
D03*
D171*
X13101Y133817D02*
D03*
X-994Y133817D02*
D03*
X-119331Y160630D02*
D03*
X-135394D02*
D03*
X-18543Y25886D02*
D03*
X-32638D02*
D03*
D172*
X-318702Y35224D02*
D03*
Y45067D02*
D03*
D173*
X-186170Y161553D02*
D03*
Y159584D02*
D03*
Y157616D02*
D03*
Y155647D02*
D03*
X-181721D02*
D03*
Y157616D02*
D03*
Y159584D02*
D03*
Y161553D02*
D03*
X-243866Y112345D02*
D03*
Y110376D02*
D03*
Y108408D02*
D03*
Y106439D02*
D03*
X-239418D02*
D03*
Y108408D02*
D03*
Y110376D02*
D03*
Y112345D02*
D03*
X-269066Y85345D02*
D03*
Y83376D02*
D03*
Y81408D02*
D03*
Y79439D02*
D03*
X-264618D02*
D03*
Y81408D02*
D03*
Y83376D02*
D03*
Y85345D02*
D03*
X-253109Y75357D02*
D03*
Y73388D02*
D03*
Y71420D02*
D03*
Y69451D02*
D03*
X-257557D02*
D03*
Y71420D02*
D03*
Y73388D02*
D03*
Y75357D02*
D03*
X-274203Y72803D02*
D03*
Y70834D02*
D03*
Y68866D02*
D03*
Y66897D02*
D03*
X-269755D02*
D03*
Y68866D02*
D03*
Y70834D02*
D03*
Y72803D02*
D03*
X-281418Y67945D02*
D03*
Y65976D02*
D03*
Y64008D02*
D03*
Y62039D02*
D03*
X-285866D02*
D03*
Y64008D02*
D03*
Y65976D02*
D03*
Y67945D02*
D03*
X-276666Y60645D02*
D03*
Y58676D02*
D03*
Y56708D02*
D03*
Y54739D02*
D03*
X-272218D02*
D03*
Y56708D02*
D03*
Y58676D02*
D03*
Y60645D02*
D03*
X-258566Y90445D02*
D03*
Y88476D02*
D03*
Y86508D02*
D03*
Y84539D02*
D03*
X-254118D02*
D03*
Y86508D02*
D03*
Y88476D02*
D03*
Y90445D02*
D03*
X-150470Y164321D02*
D03*
Y166290D02*
D03*
Y168258D02*
D03*
Y170227D02*
D03*
X-146022D02*
D03*
Y168258D02*
D03*
Y166290D02*
D03*
Y164321D02*
D03*
X-186170Y174053D02*
D03*
Y172084D02*
D03*
Y170116D02*
D03*
Y168147D02*
D03*
X-181721D02*
D03*
Y170116D02*
D03*
Y172084D02*
D03*
Y174053D02*
D03*
X-150170Y151421D02*
D03*
Y153390D02*
D03*
Y155358D02*
D03*
Y157327D02*
D03*
X-145722D02*
D03*
Y155358D02*
D03*
Y153390D02*
D03*
Y151421D02*
D03*
D174*
X-332283Y167323D02*
D03*
X-1575Y165354D02*
D03*
X-129528Y27165D02*
D03*
Y19291D02*
D03*
X-306693Y51181D02*
D03*
X-328346Y13780D02*
D03*
X-22047Y13386D02*
D03*
D175*
X-74240Y140823D02*
D03*
X-75815D02*
D03*
X-77390D02*
D03*
X-78965D02*
D03*
X-80539D02*
D03*
X-82114D02*
D03*
X-83689D02*
D03*
X-85264D02*
D03*
X-86839D02*
D03*
X-88413D02*
D03*
X-89988D02*
D03*
X-91563D02*
D03*
Y164839D02*
D03*
X-89988D02*
D03*
X-88413D02*
D03*
X-86839D02*
D03*
X-85264D02*
D03*
X-83689D02*
D03*
X-82114D02*
D03*
X-80539D02*
D03*
X-78965D02*
D03*
X-77390D02*
D03*
X-75815D02*
D03*
X-74240D02*
D03*
D176*
X-94910Y144169D02*
D03*
Y145744D02*
D03*
Y147319D02*
D03*
Y148894D02*
D03*
Y150469D02*
D03*
Y152043D02*
D03*
Y153618D02*
D03*
Y155193D02*
D03*
Y156768D02*
D03*
Y158343D02*
D03*
Y159917D02*
D03*
Y161492D02*
D03*
X-70894D02*
D03*
Y159917D02*
D03*
Y158343D02*
D03*
Y156768D02*
D03*
Y155193D02*
D03*
Y153618D02*
D03*
Y152043D02*
D03*
Y150469D02*
D03*
Y148894D02*
D03*
Y147319D02*
D03*
Y145744D02*
D03*
Y144169D02*
D03*
D177*
X-288335Y147284D02*
D03*
X-285551Y144500D02*
D03*
X-282551Y147500D02*
D03*
X-285335Y150284D02*
D03*
X-282335Y153284D02*
D03*
X-279551Y150500D02*
D03*
X-276551Y153500D02*
D03*
X-279335Y156284D02*
D03*
X-276335Y159284D02*
D03*
X-273551Y156500D02*
D03*
X-213151Y112400D02*
D03*
X-215935Y115184D02*
D03*
X-223633Y112081D02*
D03*
X-220849Y109297D02*
D03*
X-293735Y136584D02*
D03*
X-290951Y133800D02*
D03*
X-294251Y130800D02*
D03*
X-297035Y133584D02*
D03*
X-317551Y102500D02*
D03*
X-320335Y105284D02*
D03*
X-319835Y110784D02*
D03*
X-317051Y108000D02*
D03*
X-314051Y111000D02*
D03*
X-316835Y113784D02*
D03*
X-313835Y116784D02*
D03*
X-311051Y114000D02*
D03*
X-308051Y117000D02*
D03*
X-310835Y119784D02*
D03*
X-299951Y124800D02*
D03*
X-302735Y127584D02*
D03*
X-306435Y123884D02*
D03*
X-303651Y121100D02*
D03*
X-234335Y136884D02*
D03*
X-231551Y134100D02*
D03*
X-234251Y131200D02*
D03*
X-237035Y133984D02*
D03*
X-239835Y130984D02*
D03*
X-237051Y128200D02*
D03*
X-239951Y125400D02*
D03*
X-242735Y128184D02*
D03*
X-221435Y124284D02*
D03*
X-218651Y121500D02*
D03*
X-215651Y124500D02*
D03*
X-218435Y127284D02*
D03*
X-290835Y139584D02*
D03*
X-288051Y136800D02*
D03*
X-299835Y130584D02*
D03*
X-297051Y127800D02*
D03*
D178*
X-33900Y112500D02*
D03*
Y119000D02*
D03*
X-267694Y46649D02*
D03*
Y40149D02*
D03*
X-80247Y132650D02*
D03*
Y126150D02*
D03*
X-264078Y30613D02*
D03*
Y24113D02*
D03*
X-98402Y126081D02*
D03*
Y132581D02*
D03*
X-59902Y178333D02*
D03*
Y184833D02*
D03*
X-104402Y142081D02*
D03*
Y135581D02*
D03*
X-110402Y144081D02*
D03*
Y150581D02*
D03*
X-72402Y184833D02*
D03*
Y178333D02*
D03*
X-87402Y132581D02*
D03*
Y126081D02*
D03*
X-249245Y172724D02*
D03*
Y179224D02*
D03*
X-99902Y178333D02*
D03*
Y184833D02*
D03*
X-92902Y126081D02*
D03*
Y132581D02*
D03*
X-65402Y184833D02*
D03*
Y178333D02*
D03*
D179*
X-48622Y37244D02*
D03*
X-46654D02*
D03*
X-44685D02*
D03*
X-50591D02*
D03*
X-304205Y182008D02*
D03*
X-302236D02*
D03*
X-300268D02*
D03*
X-298299D02*
D03*
X-296331D02*
D03*
X-294362D02*
D03*
X-292394D02*
D03*
X-306173D02*
D03*
D180*
X-55394Y25945D02*
D03*
X-39882D02*
D03*
X-310976Y170709D02*
D03*
X-287591D02*
D03*
D181*
X-34959Y90552D02*
D03*
Y92520D02*
D03*
Y94489D02*
D03*
Y96457D02*
D03*
Y98426D02*
D03*
X-22646Y157252D02*
D03*
Y159221D02*
D03*
Y161189D02*
D03*
Y163157D02*
D03*
Y165126D02*
D03*
D182*
X-24526Y87441D02*
D03*
Y101536D02*
D03*
X-12213Y154142D02*
D03*
X-12213Y168236D02*
D03*
D183*
X-54402Y159122D02*
D03*
Y170539D02*
D03*
X-221745Y170565D02*
D03*
Y181983D02*
D03*
X-66902Y131039D02*
D03*
Y119622D02*
D03*
D184*
X-195490Y118266D02*
D03*
X-197459D02*
D03*
X-199427D02*
D03*
X-201396D02*
D03*
Y122714D02*
D03*
X-199427D02*
D03*
X-197459D02*
D03*
X-195490D02*
D03*
X-205091Y123015D02*
D03*
X-207060D02*
D03*
X-209028D02*
D03*
X-210997D02*
D03*
Y118567D02*
D03*
X-209028D02*
D03*
X-207060D02*
D03*
X-205091D02*
D03*
D185*
X-227781Y115007D02*
D03*
X-229174Y113615D02*
D03*
X-230565Y112223D02*
D03*
X-231958Y110831D02*
D03*
X-235103Y113976D02*
D03*
X-233711Y115368D02*
D03*
X-232319Y116760D02*
D03*
X-230927Y118152D02*
D03*
D186*
X-158622Y92550D02*
D03*
Y90975D02*
D03*
Y89401D02*
D03*
Y87826D02*
D03*
Y86251D02*
D03*
Y84676D02*
D03*
Y83101D02*
D03*
Y81527D02*
D03*
Y79952D02*
D03*
Y78377D02*
D03*
Y76802D02*
D03*
Y75227D02*
D03*
Y73653D02*
D03*
Y72078D02*
D03*
Y70503D02*
D03*
Y68928D02*
D03*
Y67353D02*
D03*
Y65779D02*
D03*
Y64204D02*
D03*
Y62629D02*
D03*
Y61054D02*
D03*
Y59479D02*
D03*
Y57905D02*
D03*
Y56330D02*
D03*
Y54755D02*
D03*
Y53180D02*
D03*
Y51605D02*
D03*
Y50031D02*
D03*
Y48456D02*
D03*
Y46881D02*
D03*
Y45306D02*
D03*
Y43731D02*
D03*
Y42157D02*
D03*
Y40582D02*
D03*
Y39007D02*
D03*
Y37432D02*
D03*
Y35857D02*
D03*
Y34283D02*
D03*
Y32708D02*
D03*
Y31133D02*
D03*
Y29558D02*
D03*
Y27983D02*
D03*
Y26409D02*
D03*
Y24834D02*
D03*
X-243464D02*
D03*
Y26409D02*
D03*
Y27983D02*
D03*
Y29558D02*
D03*
Y31133D02*
D03*
Y32708D02*
D03*
Y34283D02*
D03*
Y35857D02*
D03*
Y37432D02*
D03*
Y39007D02*
D03*
Y40582D02*
D03*
Y42157D02*
D03*
Y43731D02*
D03*
Y45306D02*
D03*
Y46881D02*
D03*
Y48456D02*
D03*
Y50031D02*
D03*
Y51605D02*
D03*
Y53180D02*
D03*
Y54755D02*
D03*
Y56330D02*
D03*
Y57905D02*
D03*
Y59479D02*
D03*
Y61054D02*
D03*
Y62629D02*
D03*
Y64204D02*
D03*
Y65779D02*
D03*
Y67353D02*
D03*
Y68928D02*
D03*
Y70503D02*
D03*
Y72078D02*
D03*
Y73653D02*
D03*
Y75227D02*
D03*
Y76802D02*
D03*
Y78377D02*
D03*
Y79952D02*
D03*
Y81527D02*
D03*
Y83101D02*
D03*
Y84676D02*
D03*
Y86251D02*
D03*
Y87826D02*
D03*
Y89401D02*
D03*
Y90975D02*
D03*
Y92550D02*
D03*
D187*
X-167185Y16271D02*
D03*
X-168760D02*
D03*
X-170334D02*
D03*
X-171909D02*
D03*
X-173484D02*
D03*
X-175059D02*
D03*
X-176634D02*
D03*
X-178208D02*
D03*
X-179783D02*
D03*
X-181358D02*
D03*
X-182933D02*
D03*
X-184508D02*
D03*
X-186082D02*
D03*
X-187657D02*
D03*
X-189232D02*
D03*
X-190807D02*
D03*
X-192382D02*
D03*
X-193956D02*
D03*
X-195531D02*
D03*
X-197106D02*
D03*
X-198681D02*
D03*
X-200256D02*
D03*
X-201830D02*
D03*
X-203405D02*
D03*
X-204980D02*
D03*
X-206555D02*
D03*
X-208130D02*
D03*
X-209704D02*
D03*
X-211279D02*
D03*
X-212854D02*
D03*
X-214429D02*
D03*
X-216004D02*
D03*
X-217578D02*
D03*
X-219153D02*
D03*
X-220728D02*
D03*
X-222303D02*
D03*
X-223878D02*
D03*
X-225452D02*
D03*
X-227027D02*
D03*
X-228602D02*
D03*
X-230177D02*
D03*
X-231752D02*
D03*
X-233326D02*
D03*
X-234901D02*
D03*
Y101113D02*
D03*
X-233326D02*
D03*
X-231752D02*
D03*
X-230177D02*
D03*
X-228602D02*
D03*
X-227027D02*
D03*
X-225452D02*
D03*
X-223878D02*
D03*
X-222303D02*
D03*
X-220728D02*
D03*
X-219153D02*
D03*
X-217578D02*
D03*
X-216004D02*
D03*
X-214429D02*
D03*
X-212854D02*
D03*
X-211279D02*
D03*
X-209704D02*
D03*
X-208130D02*
D03*
X-206555D02*
D03*
X-204980D02*
D03*
X-203405D02*
D03*
X-201830D02*
D03*
X-200256D02*
D03*
X-198681D02*
D03*
X-197106D02*
D03*
X-195531D02*
D03*
X-193956D02*
D03*
X-192382D02*
D03*
X-190807D02*
D03*
X-189232D02*
D03*
X-187657D02*
D03*
X-186082D02*
D03*
X-184508D02*
D03*
X-182933D02*
D03*
X-181358D02*
D03*
X-179783D02*
D03*
X-178208D02*
D03*
X-176634D02*
D03*
X-175059D02*
D03*
X-173484D02*
D03*
X-171909D02*
D03*
X-170334D02*
D03*
X-168760D02*
D03*
X-167185D02*
D03*
D188*
X-282501Y91844D02*
D03*
X-284728Y94070D02*
D03*
X-286955Y96298D02*
D03*
X-295863Y105206D02*
D03*
X-298091Y107433D02*
D03*
X-300317Y109660D02*
D03*
X-280274Y94071D02*
D03*
X-282500Y96298D02*
D03*
X-284728Y98525D02*
D03*
X-293636Y107433D02*
D03*
X-295863Y109661D02*
D03*
X-298090Y111887D02*
D03*
X-278047Y96298D02*
D03*
X-280274Y98524D02*
D03*
X-282501Y100752D02*
D03*
X-291409Y109660D02*
D03*
X-293637Y111887D02*
D03*
X-295863Y114114D02*
D03*
X-275820Y98525D02*
D03*
X-278046Y100752D02*
D03*
X-280274Y102979D02*
D03*
X-289182Y111887D02*
D03*
X-291409Y114115D02*
D03*
X-293636Y116341D02*
D03*
X-273593Y100752D02*
D03*
X-275820Y102978D02*
D03*
X-278047Y105206D02*
D03*
X-286955Y114114D02*
D03*
X-289183Y116341D02*
D03*
X-291409Y118568D02*
D03*
X-271366Y102979D02*
D03*
X-273592Y105206D02*
D03*
X-275820Y107433D02*
D03*
X-284728Y116341D02*
D03*
X-286955Y118569D02*
D03*
X-289182Y120795D02*
D03*
X-269138Y105206D02*
D03*
X-271365Y107433D02*
D03*
X-273592Y109661D02*
D03*
X-282500Y118569D02*
D03*
X-284728Y120796D02*
D03*
X-286955Y123023D02*
D03*
X-266912Y107433D02*
D03*
X-269138Y109660D02*
D03*
X-271366Y111887D02*
D03*
X-280274Y120795D02*
D03*
X-282501Y123023D02*
D03*
X-284728Y125249D02*
D03*
X-264684Y109661D02*
D03*
X-266911Y111887D02*
D03*
X-269138Y114115D02*
D03*
X-278046Y123023D02*
D03*
X-280274Y125250D02*
D03*
X-282500Y127477D02*
D03*
X-262457Y111887D02*
D03*
X-264684Y114114D02*
D03*
X-266912Y116341D02*
D03*
X-275820Y125249D02*
D03*
X-278047Y127477D02*
D03*
X-280274Y129704D02*
D03*
X-260230Y114115D02*
D03*
X-262457Y116341D02*
D03*
X-264684Y118569D02*
D03*
X-273592Y127477D02*
D03*
X-275820Y129704D02*
D03*
X-278046Y131931D02*
D03*
X-258003Y116342D02*
D03*
X-260229Y118569D02*
D03*
X-262457Y120796D02*
D03*
X-271365Y129704D02*
D03*
X-273592Y131932D02*
D03*
X-275819Y134158D02*
D03*
X-255776Y118569D02*
D03*
X-258003Y120795D02*
D03*
X-260230Y123023D02*
D03*
X-269138Y131931D02*
D03*
X-271366Y134158D02*
D03*
X-273592Y136385D02*
D03*
X-253549Y120796D02*
D03*
X-255775Y123023D02*
D03*
X-258003Y125250D02*
D03*
X-266911Y134158D02*
D03*
X-269138Y136386D02*
D03*
X-271365Y138612D02*
D03*
X-251322Y123023D02*
D03*
X-253549Y125249D02*
D03*
X-255776Y127477D02*
D03*
X-264684Y136385D02*
D03*
X-266912Y138612D02*
D03*
X-269138Y140839D02*
D03*
X-249095Y125250D02*
D03*
X-251321Y127477D02*
D03*
X-253549Y129704D02*
D03*
X-262457Y138612D02*
D03*
X-264684Y140840D02*
D03*
X-266911Y143066D02*
D03*
D189*
X-235245Y161134D02*
D03*
Y164874D02*
D03*
Y168614D02*
D03*
X-244694Y168811D02*
D03*
Y161134D02*
D03*
D190*
X-72965Y14268D02*
D03*
X-74933D02*
D03*
X-76902D02*
D03*
X-78870D02*
D03*
X-80839D02*
D03*
X-82807D02*
D03*
X-84776D02*
D03*
X-86744D02*
D03*
X-88713D02*
D03*
X-90681D02*
D03*
X-92650D02*
D03*
X-94618D02*
D03*
X-96587D02*
D03*
X-98555D02*
D03*
X-100524D02*
D03*
X-102492D02*
D03*
X-104461D02*
D03*
X-106429D02*
D03*
X-108398D02*
D03*
X-110366D02*
D03*
X-112335D02*
D03*
X-114303D02*
D03*
X-116272D02*
D03*
X-118240D02*
D03*
Y94583D02*
D03*
X-116272D02*
D03*
X-114303D02*
D03*
X-112335D02*
D03*
X-110366D02*
D03*
X-108398D02*
D03*
X-106429D02*
D03*
X-104461D02*
D03*
X-102492D02*
D03*
X-100524D02*
D03*
X-98555D02*
D03*
X-96587D02*
D03*
X-94618D02*
D03*
X-92650D02*
D03*
X-90681D02*
D03*
X-88713D02*
D03*
X-86744D02*
D03*
X-84776D02*
D03*
X-82807D02*
D03*
X-80839D02*
D03*
X-78870D02*
D03*
X-76902D02*
D03*
X-74933D02*
D03*
X-72965D02*
D03*
D191*
X-264107Y9431D02*
D03*
Y17698D02*
D03*
X-258202D02*
D03*
Y9431D02*
D03*
D192*
X-79193Y178331D02*
D03*
X-90610D02*
D03*
D193*
X-168878Y176063D02*
D03*
X-159468D02*
D03*
X-159468Y138661D02*
D03*
X-168878D02*
D03*
X-168878Y113189D02*
D03*
X-159468D02*
D03*
Y122244D02*
D03*
X-168878D02*
D03*
D194*
X-159350Y169961D02*
D03*
Y171535D02*
D03*
Y173110D02*
D03*
X-168996Y169961D02*
D03*
Y171535D02*
D03*
Y173110D02*
D03*
X-159350Y168386D02*
D03*
Y162087D02*
D03*
Y166811D02*
D03*
Y165236D02*
D03*
Y163661D02*
D03*
Y155787D02*
D03*
Y160512D02*
D03*
Y158937D02*
D03*
Y157362D02*
D03*
Y149488D02*
D03*
Y154213D02*
D03*
Y152638D02*
D03*
Y151063D02*
D03*
Y143189D02*
D03*
Y147913D02*
D03*
Y146339D02*
D03*
Y144764D02*
D03*
Y141614D02*
D03*
X-168996Y168386D02*
D03*
Y165236D02*
D03*
Y163661D02*
D03*
Y162087D02*
D03*
Y166811D02*
D03*
Y158937D02*
D03*
Y157362D02*
D03*
Y155787D02*
D03*
Y160512D02*
D03*
Y152638D02*
D03*
Y151063D02*
D03*
Y149488D02*
D03*
Y154213D02*
D03*
Y146339D02*
D03*
Y144764D02*
D03*
Y143189D02*
D03*
Y147913D02*
D03*
Y141614D02*
D03*
X-168996Y119291D02*
D03*
Y117717D02*
D03*
Y116142D02*
D03*
X-159350Y119291D02*
D03*
Y117717D02*
D03*
Y116142D02*
D03*
D195*
X-161673Y169961D02*
D03*
Y171535D02*
D03*
X-166673Y173110D02*
D03*
Y171535D02*
D03*
Y169961D02*
D03*
X-161673Y173110D02*
D03*
Y168386D02*
D03*
Y166811D02*
D03*
Y165236D02*
D03*
Y163661D02*
D03*
Y160512D02*
D03*
Y162087D02*
D03*
Y158937D02*
D03*
Y157362D02*
D03*
Y155787D02*
D03*
Y154213D02*
D03*
Y152638D02*
D03*
Y151063D02*
D03*
Y143189D02*
D03*
Y144764D02*
D03*
Y146339D02*
D03*
Y147913D02*
D03*
Y149488D02*
D03*
Y141614D02*
D03*
X-166673Y168386D02*
D03*
Y160512D02*
D03*
Y162087D02*
D03*
Y163661D02*
D03*
Y165236D02*
D03*
Y166811D02*
D03*
Y158937D02*
D03*
Y157362D02*
D03*
Y155787D02*
D03*
Y154213D02*
D03*
Y152638D02*
D03*
Y151063D02*
D03*
Y147913D02*
D03*
Y149488D02*
D03*
Y146339D02*
D03*
Y144764D02*
D03*
Y143189D02*
D03*
Y141614D02*
D03*
X-161673Y119291D02*
D03*
X-166673Y116142D02*
D03*
Y117717D02*
D03*
Y119291D02*
D03*
X-161673Y117717D02*
D03*
Y116142D02*
D03*
D196*
X-310261Y41084D02*
D03*
Y38525D02*
D03*
Y35966D02*
D03*
Y33407D02*
D03*
X-292742Y41084D02*
D03*
Y38525D02*
D03*
Y35966D02*
D03*
Y33407D02*
D03*
D197*
X-317243Y178500D02*
D03*
X-329250D02*
D03*
D198*
X-124230Y125495D02*
D03*
Y137503D02*
D03*
D199*
X-25300Y117243D02*
D03*
Y115157D02*
D03*
X-59400Y30757D02*
D03*
Y32843D02*
D03*
X-47300Y145543D02*
D03*
Y143457D02*
D03*
D200*
X-41643Y105100D02*
D03*
X-39557D02*
D03*
D201*
X-27053Y124174D02*
D03*
X-25084D02*
D03*
X-23116D02*
D03*
X-21147D02*
D03*
Y133426D02*
D03*
X-23116D02*
D03*
X-25084D02*
D03*
X-27053D02*
D03*
D202*
X-24100Y128800D02*
D03*
D203*
X-112992Y117717D02*
D03*
X9843Y155118D02*
D03*
X-338189D02*
D03*
Y33858D02*
D03*
D204*
X-289767Y16015D02*
D03*
X-299016Y19382D02*
D03*
X-308265Y22748D02*
D03*
D205*
X-82902Y152831D02*
D03*
D206*
X-201043Y58692D02*
D03*
D207*
X-37232Y46800D02*
D03*
X-32902D02*
D03*
X-28571D02*
D03*
X-37232Y51131D02*
D03*
X-32902D02*
D03*
X-28571D02*
D03*
X-37232Y55461D02*
D03*
X-32902D02*
D03*
X-28571D02*
D03*
M02*
