*
%FSLAX26Y26*%
%MOIN*%
%ADD10C,0.011811*%
%ADD11C,0.009843*%
%ADD12C,0.007874*%
%ADD13C,0.013780*%
%ADD14C,0.017717*%
%ADD15C,0.039370*%
%ADD16C,0.074803*%
%ADD17C,0.082677*%
%ADD18C,0.094488*%
%ADD19C,0.080709*%
%IPPOS*%
%LNsz06c02807a0.out*%
%LPD*%
G75*
G54D10*
X445640Y1649144D03*
X458640Y1669144D03*
G54D11*
X3068620Y708154D03*
Y751464D03*
G54D12*
Y794764D03*
X3111920D03*
X3155230D03*
G54D11*
Y751464D03*
X3111920D03*
Y708154D03*
X3155230D03*
G54D12*
X2835480Y461154D03*
X2847480Y526154D03*
X3015640Y596144D03*
X3014640Y614144D03*
X3068640Y613144D03*
X3075480Y577154D03*
X3096480D03*
X2985480Y761154D03*
X3240640Y758644D03*
Y740144D03*
Y777144D03*
X3222640Y840144D03*
Y862144D03*
X3140920Y880984D03*
X3123920Y890984D03*
X2612870Y518934D03*
X2630450Y500454D03*
X2593180Y535724D03*
X2442920Y528984D03*
Y504994D03*
X2441920Y483464D03*
Y552994D03*
X2469640Y606144D03*
X2321920Y609984D03*
X2336920Y586984D03*
X2304920Y630984D03*
X2287920Y645994D03*
X2189920Y661994D03*
X2172920Y648984D03*
X2136920Y693464D03*
X2117480Y713154D03*
X2111490Y736844D03*
X1971920Y678464D03*
X1985490Y661894D03*
X1999440Y645974D03*
X2015290Y613984D03*
X2033290Y598984D03*
X2052290Y582984D03*
X2065290Y566984D03*
X2081290Y551984D03*
X2084290Y524984D03*
X2051640Y506144D03*
X2123480Y463154D03*
X2161640Y467144D03*
X2183640D03*
X2218920Y482994D03*
X2237640Y458144D03*
Y436144D03*
X2302110Y483784D03*
X2337480Y468154D03*
X2356920Y455994D03*
X2376650Y442264D03*
X2396330Y431574D03*
X2516920Y438464D03*
G54D11*
X2119640Y319144D03*
X2097310D03*
X2074970D03*
X2052640D03*
G54D12*
X1941640Y491144D03*
X1916920Y499724D03*
Y478464D03*
X1925920Y520614D03*
X1917290Y629984D03*
X1957290D03*
X1951920Y693464D03*
X1936920Y708464D03*
X1921920Y723464D03*
X1911920Y743464D03*
X1916920Y848464D03*
X1740640Y837144D03*
X1731920Y855984D03*
X1706920Y873464D03*
X1706290Y490464D03*
X1737290D03*
X1722290Y468464D03*
X1753290D03*
X1776920D03*
X1798640Y492144D03*
Y514144D03*
X1674290Y490464D03*
X1645640Y483144D03*
X1690290Y468464D03*
X1575640Y483144D03*
X1533290Y468464D03*
X1501290D03*
X1486920Y490464D03*
X1466920D03*
X1446920D03*
X1517290D03*
X1378490Y468464D03*
X1355490D03*
X1328290D03*
X1296920D03*
X1311920Y483464D03*
X1276490Y478984D03*
X1390990Y332144D03*
X1370920Y293994D03*
X1438000Y355144D03*
X1468990D03*
X1548620Y323884D03*
X1564370Y337884D03*
X1580120Y351884D03*
X1589920Y299994D03*
X1611610Y301154D03*
X1643110Y351884D03*
X2300920Y762254D03*
X2181920Y961254D03*
X1101920Y723464D03*
X1123490Y683984D03*
X958920Y649784D03*
X921480Y615154D03*
X921920Y550604D03*
X1141290Y465984D03*
X1166290D03*
X841920Y868464D03*
G54D11*
X430640Y807144D03*
X403890D03*
X377140D03*
G54D12*
X376000Y784144D03*
G54D11*
X350390Y807144D03*
X286510Y1269074D03*
X292510Y1298074D03*
X320510Y1331074D03*
X349510Y1361074D03*
X380510Y1391074D03*
G54D12*
X425170Y1349334D03*
X449290Y1369984D03*
X470100Y1393494D03*
X492350Y1415794D03*
X513560Y1439114D03*
X571390Y1408194D03*
X614040Y1448114D03*
X616090Y1492484D03*
X637310Y1471274D03*
X626330Y1549054D03*
X647910Y1572024D03*
X669470Y1595014D03*
X692790Y1616224D03*
X709020Y1635304D03*
X745755Y1670220D03*
X780510Y1693074D03*
X791020Y1626454D03*
X814290Y1604294D03*
X751550Y1583734D03*
X725290Y1557984D03*
X591510Y1529074D03*
X605510Y1664074D03*
G54D11*
X603510Y1701074D03*
X633510Y1730074D03*
X662510Y1760074D03*
X693510Y1790074D03*
G54D12*
X692510Y1851074D03*
G54D11*
X626640Y1866144D03*
X603970D03*
Y1844144D03*
X581310D03*
Y1866144D03*
G54D12*
X566000Y1991144D03*
Y2036144D03*
X722490Y2020894D03*
Y1985894D03*
G54D11*
X770710Y1807634D03*
G54D12*
X794370Y1803114D03*
G54D11*
X816550Y1803014D03*
X939640Y1812144D03*
X970140D03*
X1000640D03*
X1190640D03*
X1212640D03*
X1234640D03*
G54D12*
X1246920Y1418464D03*
X1193290Y1380984D03*
X1078510Y1298074D03*
X1223490Y1167894D03*
X842290Y1037984D03*
X663940Y1155154D03*
X673910Y1189684D03*
X696190Y1211954D03*
X718450Y1234224D03*
X727290Y1293294D03*
X807540Y1323314D03*
X831510Y1344074D03*
X852080Y1367854D03*
X874190Y1390294D03*
X896620Y1412394D03*
X918900Y1434664D03*
X941160Y1456934D03*
X962580Y1480064D03*
X946930Y1514924D03*
X814510Y1472074D03*
X838830Y1446524D03*
X792870Y1403074D03*
X756510Y1418074D03*
X687100Y1371074D03*
X639890Y1373454D03*
X643930Y1351824D03*
X629370Y1145144D03*
X421510Y1464074D03*
G54D11*
X390510Y1501074D03*
X424510Y1533074D03*
X454510Y1563074D03*
G54D12*
X471490Y1606894D03*
X513390Y1656194D03*
X569510Y1729074D03*
G54D11*
X170640Y1650144D03*
Y1625604D03*
Y1601064D03*
Y1576534D03*
Y1551994D03*
Y1527454D03*
Y1502914D03*
Y1478374D03*
Y1453834D03*
X192640Y1454144D03*
X214640D03*
X170640Y1429304D03*
Y1404764D03*
Y1380224D03*
Y1355684D03*
Y1331144D03*
Y1307144D03*
G54D12*
X211510Y1319074D03*
X236920Y1380984D03*
X246510Y1404074D03*
X276510Y1434074D03*
X306510Y1464074D03*
X1533640Y1418144D03*
X1558470Y1414154D03*
X1550470Y1368154D03*
X1533480Y1353154D03*
X1531920Y1303464D03*
X1551490Y1309984D03*
X1698490Y1365894D03*
X1705490Y1460894D03*
X1683470Y1461154D03*
X1728490Y1460984D03*
X1776490Y1460894D03*
X1799490D03*
X1821490D03*
X1869490Y1460984D03*
X1901490Y1455984D03*
Y1477984D03*
X1900490Y1498984D03*
X1930000Y1506144D03*
Y1528344D03*
Y1550544D03*
Y1572744D03*
Y1594944D03*
Y1617144D03*
X2016000Y1619894D03*
X2016490Y1599894D03*
Y1579894D03*
Y1559894D03*
Y1639894D03*
Y1662894D03*
X2015490Y1732894D03*
Y1781894D03*
Y1802894D03*
Y1824894D03*
Y1847894D03*
X2029990Y1893644D03*
Y1915144D03*
Y1936644D03*
X2001000Y1923144D03*
X1908490Y1934894D03*
Y1902894D03*
Y1870894D03*
X1873480Y1877154D03*
X1888490Y1821894D03*
X1908490Y1814894D03*
Y1793894D03*
Y1773894D03*
Y1753894D03*
X1888490Y1748894D03*
X1872990Y1734894D03*
Y1767144D03*
X1888490Y1785394D03*
X1872990Y1801144D03*
X1917990Y1720144D03*
X1904490Y1703894D03*
X1890590Y1687794D03*
X1831490Y1593894D03*
X1792490Y1608894D03*
X1789000Y1635144D03*
X1777020Y1593364D03*
X1741470D03*
X1709480Y1608154D03*
X1731470Y1642154D03*
X1708990Y1689144D03*
X1721990Y1705144D03*
X1708990Y1722144D03*
X1688990Y1731144D03*
X1721990Y1739894D03*
X1702640Y1829144D03*
X1652640Y1836154D03*
Y1796624D03*
Y1881144D03*
Y1901654D03*
Y1922154D03*
Y1960994D03*
X1693470Y1993154D03*
X1716470D03*
X1719480Y1939764D03*
Y1908154D03*
X1702640Y1896144D03*
Y1923894D03*
X1785640Y1994144D03*
X1548480Y1967154D03*
Y1943654D03*
X1547470Y1920154D03*
X1524640Y1931154D03*
Y1906144D03*
Y1956154D03*
X1547470Y1869154D03*
Y1838154D03*
Y1817384D03*
Y1796624D03*
X1426990Y1812144D03*
Y1834144D03*
X1441480Y1863154D03*
X1466470D03*
X1400470Y1816154D03*
G54D11*
X1278640Y1812144D03*
X1256640D03*
G54D12*
X1355480Y1944154D03*
X1385480Y1967154D03*
G54D11*
X1603380Y1625204D03*
X1603470Y1541034D03*
X1603510Y1499074D03*
G54D12*
X1611470Y1460154D03*
X1646920Y1193464D03*
X1662640Y1207144D03*
X1731490Y1182984D03*
X1731920Y1155984D03*
X1916920Y1118464D03*
X1903890Y1055424D03*
X1867640Y1269144D03*
X1871640Y1303144D03*
X1891640Y1309144D03*
X1903490Y1325984D03*
X1924490Y1332984D03*
G54D11*
X2146480Y1529154D03*
G54D12*
X2337480Y1494154D03*
Y1592154D03*
X2356640Y1642144D03*
X2431920Y1617894D03*
X2431490Y1599894D03*
X2471920Y1602144D03*
X2486920D03*
X2502000D03*
X2517990D03*
X2486920Y1633464D03*
X2452890Y1716144D03*
X2454000Y1733144D03*
X2469000Y1740144D03*
X2464000Y1765144D03*
X2447990D03*
X2456990Y1781144D03*
X2455000Y1807834D03*
X2456920Y1858464D03*
X2352480Y1877464D03*
X2349050Y1793464D03*
X2387640Y1558144D03*
X2408140D03*
X2407640Y1539144D03*
X2428640D03*
Y1558144D03*
X2519000Y1465144D03*
X2535990D03*
X2553990D03*
X2548990Y1393144D03*
X2567990D03*
X2576000Y1375144D03*
X2558990D03*
X2542000D03*
X2674470Y1482154D03*
X2636100Y1595434D03*
X2635550Y1611464D03*
X2586990Y1614144D03*
X2580000Y1598144D03*
X2748470Y1631154D03*
X2776490Y1711984D03*
X2797780Y1709314D03*
X2792480Y1729154D03*
X2766000Y1945144D03*
X2776990Y1958144D03*
X2738000Y1947144D03*
X2737000Y1929144D03*
X2701920Y1931844D03*
Y1953464D03*
Y1978464D03*
X2621920Y1923464D03*
X2599990Y1928144D03*
X2566920Y1923464D03*
X2551920D03*
X2484490Y2001894D03*
Y2019894D03*
X2322490Y2101894D03*
G54D11*
X2751770Y2103304D03*
G54D12*
X2647920Y1039994D03*
X2130480Y1031154D03*
G54D11*
X1461920Y1133464D03*
G54D12*
X3011640Y1419144D03*
X3012640Y1446144D03*
X2994480Y1460154D03*
X3047920Y1436594D03*
X3106480Y1466154D03*
X3110000Y1506144D03*
X3074470Y1568154D03*
X3032480Y1561154D03*
X3031480Y1536154D03*
G54D11*
X3191160Y1532624D03*
X3201940Y1674154D03*
G54D12*
X3200940Y1699154D03*
X3199940Y1728154D03*
X3212530Y1783524D03*
X3009480Y1732154D03*
X2968940Y1718154D03*
X2968470Y1751154D03*
X2937940Y1712154D03*
X2908480Y1726154D03*
X2903480Y1618154D03*
X2921470Y1599154D03*
X2885480Y1590154D03*
X2971480Y1647154D03*
X3191960Y2052644D03*
X3257470Y2045154D03*
G54D11*
X2818870Y329154D03*
X2846640D03*
G54D10*
X2874410D03*
X2902170D03*
X2929940D03*
X2957710D03*
X2985480D03*
X3074470D03*
X3098470D03*
X3123470D03*
X3147480D03*
X3171480D03*
X3195480D03*
X3219470D03*
X3244470D03*
X3268480D03*
X3295470Y316154D03*
Y343154D03*
Y370154D03*
Y397154D03*
Y422774D03*
X3322810D03*
X3323280Y397124D03*
X3350140Y422774D03*
X3377480D03*
Y448154D03*
Y472154D03*
Y497154D03*
Y522154D03*
Y547154D03*
Y572154D03*
Y597154D03*
Y622154D03*
Y647154D03*
Y672154D03*
Y697154D03*
X3364470Y718154D03*
X3339470D03*
Y742654D03*
Y767154D03*
X3320470Y784154D03*
G54D11*
X3295470D03*
X3291480Y808154D03*
Y833154D03*
Y857154D03*
G54D10*
X3303470Y879154D03*
G54D11*
Y903154D03*
X3327470D03*
X3351480D03*
X3375470D03*
X3399480D03*
X3423480D03*
X3462470Y915154D03*
Y889924D03*
Y864694D03*
Y839464D03*
Y814234D03*
Y789004D03*
Y763774D03*
Y738534D03*
Y713304D03*
Y688074D03*
Y662844D03*
Y637614D03*
Y612384D03*
G54D10*
Y587154D03*
X3484990Y577144D03*
X3511000D03*
X3539480Y577154D03*
X3569480D03*
Y553154D03*
Y526154D03*
Y499154D03*
Y472154D03*
Y445154D03*
Y418154D03*
X3568480Y386154D03*
G54D11*
Y357154D03*
X3554480Y327154D03*
G54D10*
X3534470Y308154D03*
X3510480Y291154D03*
X3484480Y277154D03*
G54D11*
X3452480Y265154D03*
X3426310D03*
X3400140D03*
X3373980D03*
X3347810D03*
X3321640D03*
X3295470D03*
G54D10*
Y289154D03*
X3351750Y497104D03*
G54D11*
X3299480Y586154D03*
G54D10*
X3280000Y569144D03*
X3254640Y546144D03*
G54D11*
X3229640D03*
G54D10*
Y519144D03*
G54D11*
X3093470Y520154D03*
X3069480D03*
G54D10*
X3016990Y520144D03*
X2993000D03*
X2969000D03*
G54D11*
X2968640Y544144D03*
X2992640D03*
X3016640D03*
X2944000Y520144D03*
X2912640Y588144D03*
X2887920D03*
X2887640Y612144D03*
X2911640D03*
X2862940Y593154D03*
X2840940D03*
X2846470Y628154D03*
X2867000Y650144D03*
X2866480Y701154D03*
Y736154D03*
X2844640Y780144D03*
X2866480Y806154D03*
Y841154D03*
G54D10*
X2874470Y936144D03*
X2849990D03*
Y961814D03*
X2874640D03*
X2849990Y986484D03*
X2909000Y936144D03*
X2932990D03*
X2959490D03*
Y961814D03*
Y988774D03*
Y910154D03*
G54D11*
X2983000Y896144D03*
X3006000D03*
X3196480Y876154D03*
X3248470Y888154D03*
Y912154D03*
Y937154D03*
X3232990Y962144D03*
X3272000Y961144D03*
G54D10*
X3332990Y963144D03*
X3357000Y962144D03*
X3381000D03*
X3452940Y955154D03*
Y978154D03*
X3477940Y954154D03*
X3501940Y941154D03*
X3524990Y929144D03*
X3549000D03*
X3572990D03*
G54D11*
X3256470Y862154D03*
Y837154D03*
X3242470Y817154D03*
X2826480Y350154D03*
X2809470Y370154D03*
X2792480Y329154D03*
X2766470D03*
X2746000Y463144D03*
X2710480Y535154D03*
X2709480Y581154D03*
X2747480Y598154D03*
X2764480Y624154D03*
G54D10*
X2758990Y904144D03*
Y927144D03*
G54D11*
X2730470Y879154D03*
X2311640Y984144D03*
X1723290Y960984D03*
X1569490Y924694D03*
Y898594D03*
Y872494D03*
Y846394D03*
Y820294D03*
Y794194D03*
Y768094D03*
G54D10*
X1519390Y691144D03*
X1493290D03*
X1467190D03*
X1441090D03*
X1414990D03*
X1388890D03*
X1362790D03*
X1336690D03*
X1310990D03*
X1297990Y712894D03*
X1273490D03*
Y741474D03*
X1297990D03*
Y770064D03*
X1273490D03*
Y798644D03*
X1297990D03*
Y827224D03*
X1273490D03*
Y855814D03*
X1297990D03*
Y884394D03*
X1273490D03*
Y912974D03*
X1297990D03*
Y941564D03*
X1273490D03*
G54D11*
Y970144D03*
G54D10*
X1297990D03*
X1327890D03*
X1357090D03*
X1386290D03*
G54D11*
X1412990D03*
X1992480Y338154D03*
X2438470Y435154D03*
X596470Y469154D03*
X793000Y670144D03*
X600510Y1759074D03*
X629510Y1789074D03*
X659510Y1819074D03*
X1418860Y1392994D03*
X1706920Y1313464D03*
X1735490Y1316894D03*
X2022000Y1114144D03*
G54D10*
X2652490Y1242894D03*
G54D11*
X2729920Y1264984D03*
X2763920Y1268994D03*
X2771920Y1233984D03*
X2812490Y1249984D03*
X2756480Y1165154D03*
X2686920Y1000984D03*
X2774290Y1776984D03*
X2794290Y1777584D03*
X3017470Y1271154D03*
X3073790Y1282844D03*
G54D10*
X3072680Y1042154D03*
X3046080D03*
X3019470D03*
X2983480D03*
X2959470D03*
X2959490Y1014964D03*
X2949000Y1066144D03*
X2923000D03*
X2897990D03*
X2866000Y1030144D03*
X2849990Y1011144D03*
X3099290Y1042154D03*
X3125890D03*
X3152490D03*
X3178470Y1050154D03*
X3178490Y1025894D03*
Y999154D03*
X3178470Y1076154D03*
X3200470Y1091154D03*
X3290990Y1097144D03*
X3316470D03*
Y1071654D03*
Y1046154D03*
X3302470Y1024154D03*
X3303030Y999154D03*
X3327940D03*
X3352840D03*
X3377750D03*
X3402660Y1000154D03*
X3427570Y999154D03*
X3452480D03*
X3145480Y516154D03*
X2975470Y836154D03*
X2872440Y874424D03*
X3567640Y964144D03*
Y995144D03*
X2621640Y685144D03*
Y657144D03*
X2589640Y656144D03*
Y685144D03*
X2608000Y271144D03*
X2637500D03*
X2667000D03*
X2567450Y265144D03*
X2534350D03*
X2501260D03*
X2468160D03*
X2435070D03*
X2401970D03*
X2368880D03*
X2335780D03*
X2302690D03*
X2269590D03*
X2236500D03*
X2203400D03*
X2170310D03*
X2137210D03*
X2104120D03*
X2071020D03*
X2037930D03*
X2004830D03*
X1971740D03*
X1938640D03*
X1770640Y264144D03*
X1740310D03*
X1709970D03*
X1679640D03*
X1504640Y268144D03*
X1476640D03*
X1448640D03*
X1420640D03*
X1301610Y313284D03*
X2410470Y318154D03*
X2442890D03*
X2475320D03*
X2507730D03*
X2293920Y450984D03*
X1249630Y267864D03*
X1221300D03*
X1192960D03*
X1164630D03*
X1172470Y311154D03*
X991640Y279144D03*
X962640D03*
X945470Y311154D03*
X800060Y288434D03*
X615480Y599154D03*
X572760Y598434D03*
X560470Y574154D03*
X414920Y503994D03*
X320990Y344144D03*
X284000D03*
X143220Y272134D03*
X107640Y281144D03*
X80640Y299144D03*
X58640Y320144D03*
X45480Y350154D03*
X45460Y381414D03*
Y410414D03*
Y439414D03*
Y468414D03*
Y497414D03*
X168480Y586154D03*
X168460Y617414D03*
Y646414D03*
Y675414D03*
Y704414D03*
Y733414D03*
X139920Y922254D03*
X106920Y948074D03*
Y984614D03*
X1079000Y629144D03*
Y602144D03*
X106920Y1021154D03*
Y1057694D03*
Y1094234D03*
Y1130764D03*
X136640Y1686144D03*
Y1718744D03*
Y1751344D03*
Y1783944D03*
Y1816544D03*
Y1849144D03*
X54460Y1876154D03*
Y1907414D03*
Y1936414D03*
Y1965414D03*
Y1994414D03*
Y2023414D03*
X140470Y2096174D03*
X171730D03*
X200730D03*
X229730D03*
X258740D03*
X287740D03*
X245490Y1781894D03*
X314490Y1717894D03*
X379740Y1761024D03*
X380680Y1789654D03*
X344490Y1607894D03*
X315920Y1593464D03*
X278990Y1591144D03*
X310990Y1557144D03*
X528490Y1861894D03*
X662470Y2096174D03*
X693730D03*
X722740D03*
X751740D03*
X780740D03*
X809730D03*
X1452480Y1902154D03*
X1415470Y1864154D03*
X1710490Y1854894D03*
X1908490Y1837894D03*
X2039490Y1734894D03*
X2064480Y1933154D03*
X2292550Y1937664D03*
X2306640Y1136144D03*
X2227480Y1182154D03*
X2510490Y1129984D03*
X2753470Y1125154D03*
X2753640Y1097144D03*
X2783640D03*
X2783480Y1125154D03*
X2813470Y1126154D03*
Y1098154D03*
X2995480Y1123154D03*
X3025480D03*
X2934470Y1244154D03*
X2935480Y1272154D03*
X2928650Y1368154D03*
X2922480Y1403154D03*
X2893460D03*
X2861490Y1363984D03*
X3144470Y1317154D03*
X3235940Y1243154D03*
X3265940D03*
X3295940D03*
X3381640Y1187144D03*
Y1157144D03*
Y1127144D03*
Y1097144D03*
Y1067144D03*
X3452640Y1026144D03*
X3490970D03*
X3529310D03*
X3567640D03*
X3545470Y1458154D03*
X3448470Y1482154D03*
Y1525654D03*
Y1569154D03*
X3470640Y1830144D03*
X3501640Y1855144D03*
Y1884144D03*
Y1913144D03*
X3374480Y1977154D03*
X3376210Y2097174D03*
X3407020D03*
X3437830D03*
X3468640D03*
X3345400D03*
X3314580D03*
X3283770D03*
X3252960D03*
X3222150D03*
X3191340D03*
X3160530D03*
X3129720D03*
X3098910D03*
X3068100D03*
X3037290D03*
X3006480D03*
X3007870Y1963564D03*
X3038360D03*
X3089810Y2033824D03*
X3129480Y2037154D03*
X3144470Y1877154D03*
X3180100Y1832704D03*
X3197940Y1486154D03*
X3197640Y1458144D03*
X3198640Y1430144D03*
G54D13*
X1081920Y898464D03*
Y1038464D03*
X1115510Y1191984D03*
X1312290D03*
X1275290Y1140984D03*
X1422290Y1191984D03*
X1614290Y1304984D03*
X1606050Y1581534D03*
X1597340Y1666334D03*
X1706920Y1060984D03*
X1726920Y1045984D03*
G54D14*
X3208480Y426154D03*
X3335470Y572154D03*
X2494760Y471294D03*
X2202920Y328994D03*
X2155640Y990144D03*
X2120640D03*
X1723990Y794384D03*
X1453640Y979144D03*
X1411920Y478464D03*
X1339640Y308144D03*
X695640Y293144D03*
X653140D03*
X610640D03*
Y337144D03*
X653140D03*
X610640Y380144D03*
X722470Y483154D03*
X754470D03*
X918990Y709384D03*
X399470Y699154D03*
X255470Y888154D03*
X434920Y293464D03*
X517830Y1707654D03*
X544490Y1682474D03*
X793920Y1835464D03*
X817850Y1900714D03*
X845480Y1875154D03*
X908050Y1950034D03*
X889490Y1977894D03*
X882920Y2056464D03*
X821470Y2044154D03*
X1110490Y2065894D03*
X307490Y1886984D03*
X268920Y1888464D03*
X1347470Y2013154D03*
X1386470D03*
Y2055154D03*
X1346470D03*
X1890480Y1987154D03*
X2126960Y1955154D03*
X2127480Y1920154D03*
X2262990Y1907144D03*
X2297000Y1906144D03*
X2349990Y1918144D03*
X2351490Y1958894D03*
X2383490D03*
X2466920Y1960984D03*
X2264000Y1942144D03*
X2194480Y1788154D03*
X2184640Y1704144D03*
X2219640Y1705144D03*
X2220640Y1668144D03*
X2185640D03*
X2096470Y1712154D03*
X1921480Y1275154D03*
X1746490Y999384D03*
X1714490Y998894D03*
X1453640Y1020144D03*
X1452640Y1063144D03*
X1522240Y1148144D03*
X2226470Y1111154D03*
X2427640Y1097144D03*
X2463640D03*
X2451990Y1344144D03*
X2422000Y1345144D03*
X2382470Y1302154D03*
X2686920Y1280984D03*
X2830480Y1317154D03*
X2958490Y2020984D03*
G54D15*
X358290Y467634D03*
X450780Y433974D03*
X543270Y400304D03*
G54D16*
X59050Y578734D03*
Y1791334D03*
X2311020Y1417324D03*
X3539370Y1791334D03*
G54D17*
X1430510Y827074D03*
G54D18*
X2611920Y1768464D03*
G54D10*
X445640Y3617644D03*
X458640Y3637644D03*
G54D11*
X3068620Y2676654D03*
Y2719964D03*
G54D12*
Y2763264D03*
X3111920D03*
X3155230D03*
G54D11*
Y2719964D03*
X3111920D03*
Y2676654D03*
X3155230D03*
G54D12*
X2835480Y2429654D03*
X2847480Y2494654D03*
X3015640Y2564644D03*
X3014640Y2582644D03*
X3068640Y2581644D03*
X3075480Y2545654D03*
X3096480D03*
X2985480Y2729654D03*
X3240640Y2727144D03*
Y2708644D03*
Y2745644D03*
X3222640Y2808644D03*
Y2830644D03*
X3140920Y2849484D03*
X3123920Y2859484D03*
X2612870Y2487434D03*
X2630450Y2468954D03*
X2593180Y2504224D03*
X2442920Y2497484D03*
Y2473494D03*
X2441920Y2451964D03*
Y2521494D03*
X2469640Y2574644D03*
X2321920Y2578484D03*
X2336920Y2555484D03*
X2304920Y2599484D03*
X2287920Y2614494D03*
X2189920Y2630494D03*
X2172920Y2617484D03*
X2136920Y2661964D03*
X2117480Y2681654D03*
X2111490Y2705344D03*
X1971920Y2646964D03*
X1985490Y2630394D03*
X1999440Y2614474D03*
X2015290Y2582484D03*
X2033290Y2567484D03*
X2052290Y2551484D03*
X2065290Y2535484D03*
X2081290Y2520484D03*
X2084290Y2493484D03*
X2051640Y2474644D03*
X2123480Y2431654D03*
X2161640Y2435644D03*
X2183640D03*
X2218920Y2451494D03*
X2237640Y2426644D03*
Y2404644D03*
X2302110Y2452284D03*
X2337480Y2436654D03*
X2356920Y2424494D03*
X2376650Y2410764D03*
X2396330Y2400074D03*
X2516920Y2406964D03*
G54D11*
X2119640Y2287644D03*
X2097310D03*
X2074970D03*
X2052640D03*
G54D12*
X1941640Y2459644D03*
X1916920Y2468224D03*
Y2446964D03*
X1925920Y2489114D03*
X1917290Y2598484D03*
X1957290D03*
X1951920Y2661964D03*
X1936920Y2676964D03*
X1921920Y2691964D03*
X1911920Y2711964D03*
X1916920Y2816964D03*
X1740640Y2805644D03*
X1731920Y2824484D03*
X1706920Y2841964D03*
X1706290Y2458964D03*
X1737290D03*
X1722290Y2436964D03*
X1753290D03*
X1776920D03*
X1798640Y2460644D03*
Y2482644D03*
X1674290Y2458964D03*
X1645640Y2451644D03*
X1690290Y2436964D03*
X1575640Y2451644D03*
X1533290Y2436964D03*
X1501290D03*
X1486920Y2458964D03*
X1466920D03*
X1446920D03*
X1517290D03*
X1378490Y2436964D03*
X1355490D03*
X1328290D03*
X1296920D03*
X1311920Y2451964D03*
X1276490Y2447484D03*
X1390990Y2300644D03*
X1370920Y2262494D03*
X1438000Y2323644D03*
X1468990D03*
X1548620Y2292384D03*
X1564370Y2306384D03*
X1580120Y2320384D03*
X1589920Y2268494D03*
X1611610Y2269654D03*
X1643110Y2320384D03*
X2300920Y2730754D03*
X2181920Y2929754D03*
X1101920Y2691964D03*
X1123490Y2652484D03*
X958920Y2618284D03*
X921480Y2583654D03*
X921920Y2519104D03*
X1141290Y2434484D03*
X1166290D03*
X841920Y2836964D03*
G54D11*
X430640Y2775644D03*
X403890D03*
X377140D03*
G54D12*
X376000Y2752644D03*
G54D11*
X350390Y2775644D03*
X286510Y3237574D03*
X292510Y3266574D03*
X320510Y3299574D03*
X349510Y3329574D03*
X380510Y3359574D03*
G54D12*
X425170Y3317834D03*
X449290Y3338484D03*
X470100Y3361994D03*
X492350Y3384294D03*
X513560Y3407614D03*
X571390Y3376694D03*
X614040Y3416614D03*
X616090Y3460984D03*
X637310Y3439774D03*
X626330Y3517554D03*
X647910Y3540524D03*
X669470Y3563514D03*
X692790Y3584724D03*
X709020Y3603804D03*
X745755Y3638721D03*
X780510Y3661574D03*
X791020Y3594954D03*
X814290Y3572794D03*
X751550Y3552234D03*
X725290Y3526484D03*
X591510Y3497574D03*
X605510Y3632574D03*
G54D11*
X603510Y3669574D03*
X633510Y3698574D03*
X662510Y3728574D03*
X693510Y3758574D03*
G54D12*
X692510Y3819574D03*
G54D11*
X626640Y3834644D03*
X603970D03*
Y3812644D03*
X581310D03*
Y3834644D03*
G54D12*
X566000Y3959644D03*
Y4004644D03*
X722490Y3989394D03*
Y3954394D03*
G54D11*
X770710Y3776134D03*
G54D12*
X794370Y3771614D03*
G54D11*
X816550Y3771514D03*
X939640Y3780644D03*
X970140D03*
X1000640D03*
X1190640D03*
X1212640D03*
X1234640D03*
G54D12*
X1246920Y3386964D03*
X1193290Y3349484D03*
X1078510Y3266574D03*
X1223490Y3136394D03*
X842290Y3006484D03*
X663940Y3123654D03*
X673910Y3158184D03*
X696190Y3180454D03*
X718450Y3202724D03*
X727290Y3261794D03*
X807540Y3291814D03*
X831510Y3312574D03*
X852080Y3336354D03*
X874190Y3358794D03*
X896620Y3380894D03*
X918900Y3403164D03*
X941160Y3425434D03*
X962580Y3448564D03*
X946930Y3483424D03*
X814510Y3440574D03*
X838830Y3415024D03*
X792870Y3371574D03*
X756510Y3386574D03*
X687100Y3339574D03*
X639890Y3341954D03*
X643930Y3320324D03*
X629370Y3113644D03*
X421510Y3432574D03*
G54D11*
X390510Y3469574D03*
X424510Y3501574D03*
X454510Y3531574D03*
G54D12*
X471490Y3575394D03*
X513390Y3624694D03*
X569510Y3697574D03*
G54D11*
X170640Y3618644D03*
Y3594104D03*
Y3569564D03*
Y3545034D03*
Y3520494D03*
Y3495954D03*
Y3471414D03*
Y3446874D03*
Y3422334D03*
X192640Y3422644D03*
X214640D03*
X170640Y3397804D03*
Y3373264D03*
Y3348724D03*
Y3324184D03*
Y3299644D03*
Y3275644D03*
G54D12*
X211510Y3287574D03*
X236920Y3349484D03*
X246510Y3372574D03*
X276510Y3402574D03*
X306510Y3432574D03*
X1533640Y3386644D03*
X1558470Y3382654D03*
X1550470Y3336654D03*
X1533480Y3321654D03*
X1531920Y3271964D03*
X1551490Y3278484D03*
X1698490Y3334394D03*
X1705490Y3429394D03*
X1683470Y3429654D03*
X1728490Y3429484D03*
X1776490Y3429394D03*
X1799490D03*
X1821490D03*
X1869490Y3429484D03*
X1901490Y3424484D03*
Y3446484D03*
X1900490Y3467484D03*
X1930000Y3474644D03*
Y3496844D03*
Y3519044D03*
Y3541244D03*
Y3563444D03*
Y3585644D03*
X2016000Y3588394D03*
X2016490Y3568394D03*
Y3548394D03*
Y3528394D03*
Y3608394D03*
Y3631394D03*
X2015490Y3701394D03*
Y3750394D03*
Y3771394D03*
Y3793394D03*
Y3816394D03*
X2029990Y3862144D03*
Y3883644D03*
Y3905144D03*
X2001000Y3891644D03*
X1908490Y3903394D03*
Y3871394D03*
Y3839394D03*
X1873480Y3845654D03*
X1888490Y3790394D03*
X1908490Y3783394D03*
Y3762394D03*
Y3742394D03*
Y3722394D03*
X1888490Y3717394D03*
X1872990Y3703394D03*
Y3735644D03*
X1888490Y3753894D03*
X1872990Y3769644D03*
X1917990Y3688644D03*
X1904490Y3672394D03*
X1890590Y3656294D03*
X1831490Y3562394D03*
X1792490Y3577394D03*
X1789000Y3603644D03*
X1777020Y3561864D03*
X1741470D03*
X1709480Y3576654D03*
X1731470Y3610654D03*
X1708990Y3657644D03*
X1721990Y3673644D03*
X1708990Y3690644D03*
X1688990Y3699644D03*
X1721990Y3708394D03*
X1702640Y3797644D03*
X1652640Y3804654D03*
Y3765124D03*
Y3849644D03*
Y3870154D03*
Y3890654D03*
Y3929494D03*
X1693470Y3961654D03*
X1716470D03*
X1719480Y3908264D03*
Y3876654D03*
X1702640Y3864644D03*
Y3892394D03*
X1785640Y3962644D03*
X1548480Y3935654D03*
Y3912154D03*
X1547470Y3888654D03*
X1524640Y3899654D03*
Y3874644D03*
Y3924654D03*
X1547470Y3837654D03*
Y3806654D03*
Y3785884D03*
Y3765124D03*
X1426990Y3780644D03*
Y3802644D03*
X1441480Y3831654D03*
X1466470D03*
X1400470Y3784654D03*
G54D11*
X1278640Y3780644D03*
X1256640D03*
G54D12*
X1355480Y3912654D03*
X1385480Y3935654D03*
G54D11*
X1603380Y3593704D03*
X1603470Y3509534D03*
X1603510Y3467574D03*
G54D12*
X1611470Y3428654D03*
X1646920Y3161964D03*
X1662640Y3175644D03*
X1731490Y3151484D03*
X1731920Y3124484D03*
X1916920Y3086964D03*
X1903890Y3023924D03*
X1867640Y3237644D03*
X1871640Y3271644D03*
X1891640Y3277644D03*
X1903490Y3294484D03*
X1924490Y3301484D03*
G54D11*
X2146480Y3497654D03*
G54D12*
X2337480Y3462654D03*
Y3560654D03*
X2356640Y3610644D03*
X2431920Y3586394D03*
X2431490Y3568394D03*
X2471920Y3570644D03*
X2486920D03*
X2502000D03*
X2517990D03*
X2486920Y3601964D03*
X2452890Y3684644D03*
X2454000Y3701644D03*
X2469000Y3708644D03*
X2464000Y3733644D03*
X2447990D03*
X2456990Y3749644D03*
X2455000Y3776334D03*
X2456920Y3826964D03*
X2352480Y3845964D03*
X2349050Y3761964D03*
X2387640Y3526644D03*
X2408140D03*
X2407640Y3507644D03*
X2428640D03*
Y3526644D03*
X2519000Y3433644D03*
X2535990D03*
X2553990D03*
X2548990Y3361644D03*
X2567990D03*
X2576000Y3343644D03*
X2558990D03*
X2542000D03*
X2674470Y3450654D03*
X2636100Y3563934D03*
X2635550Y3579964D03*
X2586990Y3582644D03*
X2580000Y3566644D03*
X2748470Y3599654D03*
X2776490Y3680484D03*
X2797780Y3677814D03*
X2792480Y3697654D03*
X2766000Y3913644D03*
X2776990Y3926644D03*
X2738000Y3915644D03*
X2737000Y3897644D03*
X2701920Y3900344D03*
Y3921964D03*
Y3946964D03*
X2621920Y3891964D03*
X2599990Y3896644D03*
X2566920Y3891964D03*
X2551920D03*
X2484490Y3970394D03*
Y3988394D03*
X2322490Y4070394D03*
G54D11*
X2751770Y4071804D03*
G54D12*
X2647920Y3008494D03*
X2130480Y2999654D03*
G54D11*
X1461920Y3101964D03*
G54D12*
X3011640Y3387644D03*
X3012640Y3414644D03*
X2994480Y3428654D03*
X3047920Y3405094D03*
X3106480Y3434654D03*
X3110000Y3474644D03*
X3074470Y3536654D03*
X3032480Y3529654D03*
X3031480Y3504654D03*
G54D11*
X3191160Y3501124D03*
X3201940Y3642654D03*
G54D12*
X3200940Y3667654D03*
X3199940Y3696654D03*
X3212530Y3752024D03*
X3009480Y3700654D03*
X2968940Y3686654D03*
X2968470Y3719654D03*
X2937940Y3680654D03*
X2908480Y3694654D03*
X2903480Y3586654D03*
X2921470Y3567654D03*
X2885480Y3558654D03*
X2971480Y3615654D03*
X3191960Y4021144D03*
X3257470Y4013654D03*
G54D11*
X2818870Y2297654D03*
X2846640D03*
G54D10*
X2874410D03*
X2902170D03*
X2929940D03*
X2957710D03*
X2985480D03*
X3074470D03*
X3098470D03*
X3123470D03*
X3147480D03*
X3171480D03*
X3195480D03*
X3219470D03*
X3244470D03*
X3268480D03*
X3295470Y2284654D03*
Y2311654D03*
Y2338654D03*
Y2365654D03*
Y2391274D03*
X3322810D03*
X3323280Y2365624D03*
X3350140Y2391274D03*
X3377480D03*
Y2416654D03*
Y2440654D03*
Y2465654D03*
Y2490654D03*
Y2515654D03*
Y2540654D03*
Y2565654D03*
Y2590654D03*
Y2615654D03*
Y2640654D03*
Y2665654D03*
X3364470Y2686654D03*
X3339470D03*
Y2711154D03*
Y2735654D03*
X3320470Y2752654D03*
G54D11*
X3295470D03*
X3291480Y2776654D03*
Y2801654D03*
Y2825654D03*
G54D10*
X3303470Y2847654D03*
G54D11*
Y2871654D03*
X3327470D03*
X3351480D03*
X3375470D03*
X3399480D03*
X3423480D03*
X3462470Y2883654D03*
Y2858424D03*
Y2833194D03*
Y2807964D03*
Y2782734D03*
Y2757504D03*
Y2732274D03*
Y2707034D03*
Y2681804D03*
Y2656574D03*
Y2631344D03*
Y2606114D03*
Y2580884D03*
G54D10*
Y2555654D03*
X3484990Y2545644D03*
X3511000D03*
X3539480Y2545654D03*
X3569480D03*
Y2521654D03*
Y2494654D03*
Y2467654D03*
Y2440654D03*
Y2413654D03*
Y2386654D03*
X3568480Y2354654D03*
G54D11*
Y2325654D03*
X3554480Y2295654D03*
G54D10*
X3534470Y2276654D03*
X3510480Y2259654D03*
X3484480Y2245654D03*
G54D11*
X3452480Y2233654D03*
X3426310D03*
X3400140D03*
X3373980D03*
X3347810D03*
X3321640D03*
X3295470D03*
G54D10*
Y2257654D03*
X3351750Y2465604D03*
G54D11*
X3299480Y2554654D03*
G54D10*
X3280000Y2537644D03*
X3254640Y2514644D03*
G54D11*
X3229640D03*
G54D10*
Y2487644D03*
G54D11*
X3093470Y2488654D03*
X3069480D03*
G54D10*
X3016990Y2488644D03*
X2993000D03*
X2969000D03*
G54D11*
X2968640Y2512644D03*
X2992640D03*
X3016640D03*
X2944000Y2488644D03*
X2912640Y2556644D03*
X2887920D03*
X2887640Y2580644D03*
X2911640D03*
X2862940Y2561654D03*
X2840940D03*
X2846470Y2596654D03*
X2867000Y2618644D03*
X2866480Y2669654D03*
Y2704654D03*
X2844640Y2748644D03*
X2866480Y2774654D03*
Y2809654D03*
G54D10*
X2874470Y2904644D03*
X2849990D03*
Y2930314D03*
X2874640D03*
X2849990Y2954984D03*
X2909000Y2904644D03*
X2932990D03*
X2959490D03*
Y2930314D03*
Y2957274D03*
Y2878654D03*
G54D11*
X2983000Y2864644D03*
X3006000D03*
X3196480Y2844654D03*
X3248470Y2856654D03*
Y2880654D03*
Y2905654D03*
X3232990Y2930644D03*
X3272000Y2929644D03*
G54D10*
X3332990Y2931644D03*
X3357000Y2930644D03*
X3381000D03*
X3452940Y2923654D03*
Y2946654D03*
X3477940Y2922654D03*
X3501940Y2909654D03*
X3524990Y2897644D03*
X3549000D03*
X3572990D03*
G54D11*
X3256470Y2830654D03*
Y2805654D03*
X3242470Y2785654D03*
X2826480Y2318654D03*
X2809470Y2338654D03*
X2792480Y2297654D03*
X2766470D03*
X2746000Y2431644D03*
X2710480Y2503654D03*
X2709480Y2549654D03*
X2747480Y2566654D03*
X2764480Y2592654D03*
G54D10*
X2758990Y2872644D03*
Y2895644D03*
G54D11*
X2730470Y2847654D03*
X2311640Y2952644D03*
X1723290Y2929484D03*
X1569490Y2893194D03*
Y2867094D03*
Y2840994D03*
Y2814894D03*
Y2788794D03*
Y2762694D03*
Y2736594D03*
G54D10*
X1519390Y2659644D03*
X1493290D03*
X1467190D03*
X1441090D03*
X1414990D03*
X1388890D03*
X1362790D03*
X1336690D03*
X1310990D03*
X1297990Y2681394D03*
X1273490D03*
Y2709974D03*
X1297990D03*
Y2738564D03*
X1273490D03*
Y2767144D03*
X1297990D03*
Y2795724D03*
X1273490D03*
Y2824314D03*
X1297990D03*
Y2852894D03*
X1273490D03*
Y2881474D03*
X1297990D03*
Y2910064D03*
X1273490D03*
G54D11*
Y2938644D03*
G54D10*
X1297990D03*
X1327890D03*
X1357090D03*
X1386290D03*
G54D11*
X1412990D03*
X1992480Y2306654D03*
X2438470Y2403654D03*
X596470Y2437654D03*
X793000Y2638644D03*
X600510Y3727574D03*
X629510Y3757574D03*
X659510Y3787574D03*
X1418860Y3361494D03*
X1706920Y3281964D03*
X1735490Y3285394D03*
X2022000Y3082644D03*
G54D10*
X2652490Y3211394D03*
G54D11*
X2729920Y3233484D03*
X2763920Y3237494D03*
X2771920Y3202484D03*
X2812490Y3218484D03*
X2756480Y3133654D03*
X2686920Y2969484D03*
X2774290Y3745484D03*
X2794290Y3746084D03*
X3017470Y3239654D03*
X3073790Y3251344D03*
G54D10*
X3072680Y3010654D03*
X3046080D03*
X3019470D03*
X2983480D03*
X2959470D03*
X2959490Y2983464D03*
X2949000Y3034644D03*
X2923000D03*
X2897990D03*
X2866000Y2998644D03*
X2849990Y2979644D03*
X3099290Y3010654D03*
X3125890D03*
X3152490D03*
X3178470Y3018654D03*
X3178490Y2994394D03*
Y2967654D03*
X3178470Y3044654D03*
X3200470Y3059654D03*
X3290990Y3065644D03*
X3316470D03*
Y3040154D03*
Y3014654D03*
X3302470Y2992654D03*
X3303030Y2967654D03*
X3327940D03*
X3352840D03*
X3377750D03*
X3402660Y2968654D03*
X3427570Y2967654D03*
X3452480D03*
X3145480Y2484654D03*
X2975470Y2804654D03*
X2872440Y2842924D03*
X3567640Y2932644D03*
Y2963644D03*
X2621640Y2653644D03*
Y2625644D03*
X2589640Y2624644D03*
Y2653644D03*
X2608000Y2239644D03*
X2637500D03*
X2667000D03*
X2567450Y2233644D03*
X2534350D03*
X2501260D03*
X2468160D03*
X2435070D03*
X2401970D03*
X2368880D03*
X2335780D03*
X2302690D03*
X2269590D03*
X2236500D03*
X2203400D03*
X2170310D03*
X2137210D03*
X2104120D03*
X2071020D03*
X2037930D03*
X2004830D03*
X1971740D03*
X1938640D03*
X1770640Y2232644D03*
X1740310D03*
X1709970D03*
X1679640D03*
X1504640Y2236644D03*
X1476640D03*
X1448640D03*
X1420640D03*
X1301610Y2281784D03*
X2410470Y2286654D03*
X2442890D03*
X2475320D03*
X2507730D03*
X2293920Y2419484D03*
X1249630Y2236364D03*
X1221300D03*
X1192960D03*
X1164630D03*
X1172470Y2279654D03*
X991640Y2247644D03*
X962640D03*
X945470Y2279654D03*
X800060Y2256934D03*
X615480Y2567654D03*
X572760Y2566934D03*
X560470Y2542654D03*
X414920Y2472494D03*
X320990Y2312644D03*
X284000D03*
X143220Y2240634D03*
X107640Y2249644D03*
X80640Y2267644D03*
X58640Y2288644D03*
X45480Y2318654D03*
X45460Y2349914D03*
Y2378914D03*
Y2407914D03*
Y2436914D03*
Y2465914D03*
X168480Y2554654D03*
X168460Y2585914D03*
Y2614914D03*
Y2643914D03*
Y2672914D03*
Y2701914D03*
X139920Y2890754D03*
X106920Y2916574D03*
Y2953114D03*
X1079000Y2597644D03*
Y2570644D03*
X106920Y2989654D03*
Y3026194D03*
Y3062734D03*
Y3099264D03*
X136640Y3654644D03*
Y3687244D03*
Y3719844D03*
Y3752444D03*
Y3785044D03*
Y3817644D03*
X54460Y3844654D03*
Y3875914D03*
Y3904914D03*
Y3933914D03*
Y3962914D03*
Y3991914D03*
X140470Y4064674D03*
X171730D03*
X200730D03*
X229730D03*
X258740D03*
X287740D03*
X245490Y3750394D03*
X314490Y3686394D03*
X379740Y3729524D03*
X380680Y3758154D03*
X344490Y3576394D03*
X315920Y3561964D03*
X278990Y3559644D03*
X310990Y3525644D03*
X528490Y3830394D03*
X662470Y4064674D03*
X693730D03*
X722740D03*
X751740D03*
X780740D03*
X809730D03*
X1452480Y3870654D03*
X1415470Y3832654D03*
X1710490Y3823394D03*
X1908490Y3806394D03*
X2039490Y3703394D03*
X2064480Y3901654D03*
X2292550Y3906164D03*
X2306640Y3104644D03*
X2227480Y3150654D03*
X2510490Y3098484D03*
X2753470Y3093654D03*
X2753640Y3065644D03*
X2783640D03*
X2783480Y3093654D03*
X2813470Y3094654D03*
Y3066654D03*
X2995480Y3091654D03*
X3025480D03*
X2934470Y3212654D03*
X2935480Y3240654D03*
X2928650Y3336654D03*
X2922480Y3371654D03*
X2893460D03*
X2861490Y3332484D03*
X3144470Y3285654D03*
X3235940Y3211654D03*
X3265940D03*
X3295940D03*
X3381640Y3155644D03*
Y3125644D03*
Y3095644D03*
Y3065644D03*
Y3035644D03*
X3452640Y2994644D03*
X3490970D03*
X3529310D03*
X3567640D03*
X3545470Y3426654D03*
X3448470Y3450654D03*
Y3494154D03*
Y3537654D03*
X3470640Y3798644D03*
X3501640Y3823644D03*
Y3852644D03*
Y3881644D03*
X3374480Y3945654D03*
X3376210Y4065674D03*
X3407020D03*
X3437830D03*
X3468640D03*
X3345400D03*
X3314580D03*
X3283770D03*
X3252960D03*
X3222150D03*
X3191340D03*
X3160530D03*
X3129720D03*
X3098910D03*
X3068100D03*
X3037290D03*
X3006480D03*
X3007870Y3932064D03*
X3038360D03*
X3089810Y4002324D03*
X3129480Y4005654D03*
X3144470Y3845654D03*
X3180100Y3801204D03*
X3197940Y3454654D03*
X3197640Y3426644D03*
X3198640Y3398644D03*
G54D13*
X1081920Y2866964D03*
Y3006964D03*
X1115510Y3160484D03*
X1312290D03*
X1275290Y3109484D03*
X1422290Y3160484D03*
X1614290Y3273484D03*
X1606050Y3550034D03*
X1597340Y3634834D03*
X1706920Y3029484D03*
X1726920Y3014484D03*
G54D14*
X3208480Y2394654D03*
X3335470Y2540654D03*
X2494760Y2439794D03*
X2202920Y2297494D03*
X2155640Y2958644D03*
X2120640D03*
X1723990Y2762884D03*
X1453640Y2947644D03*
X1411920Y2446964D03*
X1339640Y2276644D03*
X695640Y2261644D03*
X653140D03*
X610640D03*
Y2305644D03*
X653140D03*
X610640Y2348644D03*
X722470Y2451654D03*
X754470D03*
X918990Y2677884D03*
X399470Y2667654D03*
X255470Y2856654D03*
X434920Y2261964D03*
X517830Y3676154D03*
X544490Y3650974D03*
X793920Y3803964D03*
X817850Y3869214D03*
X845480Y3843654D03*
X908050Y3918534D03*
X889490Y3946394D03*
X882920Y4024964D03*
X821470Y4012654D03*
X1110490Y4034394D03*
X307490Y3855484D03*
X268920Y3856964D03*
X1347470Y3981654D03*
X1386470D03*
Y4023654D03*
X1346470D03*
X1890480Y3955654D03*
X2126960Y3923654D03*
X2127480Y3888654D03*
X2262990Y3875644D03*
X2297000Y3874644D03*
X2349990Y3886644D03*
X2351490Y3927394D03*
X2383490D03*
X2466920Y3929484D03*
X2264000Y3910644D03*
X2194480Y3756654D03*
X2184640Y3672644D03*
X2219640Y3673644D03*
X2220640Y3636644D03*
X2185640D03*
X2096470Y3680654D03*
X1921480Y3243654D03*
X1746490Y2967884D03*
X1714490Y2967394D03*
X1453640Y2988644D03*
X1452640Y3031644D03*
X1522240Y3116644D03*
X2226470Y3079654D03*
X2427640Y3065644D03*
X2463640D03*
X2451990Y3312644D03*
X2422000Y3313644D03*
X2382470Y3270654D03*
X2686920Y3249484D03*
X2830480Y3285654D03*
X2958490Y3989484D03*
G54D15*
X358290Y2436134D03*
X450780Y2402474D03*
X543270Y2368804D03*
G54D16*
X59050Y2547234D03*
Y3759834D03*
X2311020Y3385824D03*
X3539370Y3759834D03*
G54D17*
X1430510Y2795574D03*
G54D18*
X2611920Y3736964D03*
G54D10*
X445640Y5586145D03*
X458640Y5606145D03*
G54D11*
X3068620Y4645155D03*
Y4688465D03*
G54D12*
Y4731765D03*
X3111920D03*
X3155230D03*
G54D11*
Y4688465D03*
X3111920D03*
Y4645155D03*
X3155230D03*
G54D12*
X2835480Y4398155D03*
X2847480Y4463155D03*
X3015640Y4533145D03*
X3014640Y4551145D03*
X3068640Y4550145D03*
X3075480Y4514155D03*
X3096480D03*
X2985480Y4698155D03*
X3240640Y4695645D03*
Y4677145D03*
Y4714145D03*
X3222640Y4777145D03*
Y4799145D03*
X3140920Y4817985D03*
X3123920Y4827985D03*
X2612870Y4455935D03*
X2630450Y4437455D03*
X2593180Y4472725D03*
X2442920Y4465985D03*
Y4441995D03*
X2441920Y4420465D03*
Y4489995D03*
X2469640Y4543145D03*
X2321920Y4546985D03*
X2336920Y4523985D03*
X2304920Y4567985D03*
X2287920Y4582995D03*
X2189920Y4598995D03*
X2172920Y4585985D03*
X2136920Y4630465D03*
X2117480Y4650155D03*
X2111490Y4673845D03*
X1971920Y4615465D03*
X1985490Y4598895D03*
X1999440Y4582975D03*
X2015290Y4550985D03*
X2033290Y4535985D03*
X2052290Y4519985D03*
X2065290Y4503985D03*
X2081290Y4488985D03*
X2084290Y4461985D03*
X2051640Y4443145D03*
X2123480Y4400155D03*
X2161640Y4404145D03*
X2183640D03*
X2218920Y4419995D03*
X2237640Y4395145D03*
Y4373145D03*
X2302110Y4420785D03*
X2337480Y4405155D03*
X2356920Y4392995D03*
X2376650Y4379265D03*
X2396330Y4368575D03*
X2516920Y4375465D03*
G54D11*
X2119640Y4256145D03*
X2097310D03*
X2074970D03*
X2052640D03*
G54D12*
X1941640Y4428145D03*
X1916920Y4436725D03*
Y4415465D03*
X1925920Y4457615D03*
X1917290Y4566985D03*
X1957290D03*
X1951920Y4630465D03*
X1936920Y4645465D03*
X1921920Y4660465D03*
X1911920Y4680465D03*
X1916920Y4785465D03*
X1740640Y4774145D03*
X1731920Y4792985D03*
X1706920Y4810465D03*
X1706290Y4427465D03*
X1737290D03*
X1722290Y4405465D03*
X1753290D03*
X1776920D03*
X1798640Y4429145D03*
Y4451145D03*
X1674290Y4427465D03*
X1645640Y4420145D03*
X1690290Y4405465D03*
X1575640Y4420145D03*
X1533290Y4405465D03*
X1501290D03*
X1486920Y4427465D03*
X1466920D03*
X1446920D03*
X1517290D03*
X1378490Y4405465D03*
X1355490D03*
X1328290D03*
X1296920D03*
X1311920Y4420465D03*
X1276490Y4415985D03*
X1390990Y4269145D03*
X1370920Y4230995D03*
X1438000Y4292145D03*
X1468990D03*
X1548620Y4260885D03*
X1564370Y4274885D03*
X1580120Y4288885D03*
X1589920Y4236995D03*
X1611610Y4238155D03*
X1643110Y4288885D03*
X2300920Y4699255D03*
X2181920Y4898255D03*
X1101920Y4660465D03*
X1123490Y4620985D03*
X958920Y4586785D03*
X921480Y4552155D03*
X921920Y4487605D03*
X1141290Y4402985D03*
X1166290D03*
X841920Y4805465D03*
G54D11*
X430640Y4744145D03*
X403890D03*
X377140D03*
G54D12*
X376000Y4721145D03*
G54D11*
X350390Y4744145D03*
X286510Y5206075D03*
X292510Y5235075D03*
X320510Y5268075D03*
X349510Y5298075D03*
X380510Y5328075D03*
G54D12*
X425170Y5286335D03*
X449290Y5306985D03*
X470100Y5330495D03*
X492350Y5352795D03*
X513560Y5376115D03*
X571390Y5345195D03*
X614040Y5385115D03*
X616090Y5429485D03*
X637310Y5408275D03*
X626330Y5486055D03*
X647910Y5509025D03*
X669470Y5532015D03*
X692790Y5553225D03*
X709020Y5572305D03*
X745755Y5607221D03*
X780510Y5630075D03*
X791020Y5563455D03*
X814290Y5541295D03*
X751550Y5520735D03*
X725290Y5494985D03*
X591510Y5466075D03*
X605510Y5601075D03*
G54D11*
X603510Y5638075D03*
X633510Y5667075D03*
X662510Y5697075D03*
X693510Y5727075D03*
G54D12*
X692510Y5788075D03*
G54D11*
X626640Y5803145D03*
X603970D03*
Y5781145D03*
X581310D03*
Y5803145D03*
G54D12*
X566000Y5928145D03*
Y5973145D03*
X722490Y5957895D03*
Y5922895D03*
G54D11*
X770710Y5744635D03*
G54D12*
X794370Y5740115D03*
G54D11*
X816550Y5740015D03*
X939640Y5749145D03*
X970140D03*
X1000640D03*
X1190640D03*
X1212640D03*
X1234640D03*
G54D12*
X1246920Y5355465D03*
X1193290Y5317985D03*
X1078510Y5235075D03*
X1223490Y5104895D03*
X842290Y4974985D03*
X663940Y5092155D03*
X673910Y5126685D03*
X696190Y5148955D03*
X718450Y5171225D03*
X727290Y5230295D03*
X807540Y5260315D03*
X831510Y5281075D03*
X852080Y5304855D03*
X874190Y5327295D03*
X896620Y5349395D03*
X918900Y5371665D03*
X941160Y5393935D03*
X962580Y5417065D03*
X946930Y5451925D03*
X814510Y5409075D03*
X838830Y5383525D03*
X792870Y5340075D03*
X756510Y5355075D03*
X687100Y5308075D03*
X639890Y5310455D03*
X643930Y5288825D03*
X629370Y5082145D03*
X421510Y5401075D03*
G54D11*
X390510Y5438075D03*
X424510Y5470075D03*
X454510Y5500075D03*
G54D12*
X471490Y5543895D03*
X513390Y5593195D03*
X569510Y5666075D03*
G54D11*
X170640Y5587145D03*
Y5562605D03*
Y5538065D03*
Y5513535D03*
Y5488995D03*
Y5464455D03*
Y5439915D03*
Y5415375D03*
Y5390835D03*
X192640Y5391145D03*
X214640D03*
X170640Y5366305D03*
Y5341765D03*
Y5317225D03*
Y5292685D03*
Y5268145D03*
Y5244145D03*
G54D12*
X211510Y5256075D03*
X236920Y5317985D03*
X246510Y5341075D03*
X276510Y5371075D03*
X306510Y5401075D03*
X1533640Y5355145D03*
X1558470Y5351155D03*
X1550470Y5305155D03*
X1533480Y5290155D03*
X1531920Y5240465D03*
X1551490Y5246985D03*
X1698490Y5302895D03*
X1705490Y5397895D03*
X1683470Y5398155D03*
X1728490Y5397985D03*
X1776490Y5397895D03*
X1799490D03*
X1821490D03*
X1869490Y5397985D03*
X1901490Y5392985D03*
Y5414985D03*
X1900490Y5435985D03*
X1930000Y5443145D03*
Y5465345D03*
Y5487545D03*
Y5509745D03*
Y5531945D03*
Y5554145D03*
X2016000Y5556895D03*
X2016490Y5536895D03*
Y5516895D03*
Y5496895D03*
Y5576895D03*
Y5599895D03*
X2015490Y5669895D03*
Y5718895D03*
Y5739895D03*
Y5761895D03*
Y5784895D03*
X2029990Y5830645D03*
Y5852145D03*
Y5873645D03*
X2001000Y5860145D03*
X1908490Y5871895D03*
Y5839895D03*
Y5807895D03*
X1873480Y5814155D03*
X1888490Y5758895D03*
X1908490Y5751895D03*
Y5730895D03*
Y5710895D03*
Y5690895D03*
X1888490Y5685895D03*
X1872990Y5671895D03*
Y5704145D03*
X1888490Y5722395D03*
X1872990Y5738145D03*
X1917990Y5657145D03*
X1904490Y5640895D03*
X1890590Y5624795D03*
X1831490Y5530895D03*
X1792490Y5545895D03*
X1789000Y5572145D03*
X1777020Y5530365D03*
X1741470D03*
X1709480Y5545155D03*
X1731470Y5579155D03*
X1708990Y5626145D03*
X1721990Y5642145D03*
X1708990Y5659145D03*
X1688990Y5668145D03*
X1721990Y5676895D03*
X1702640Y5766145D03*
X1652640Y5773155D03*
Y5733625D03*
Y5818145D03*
Y5838655D03*
Y5859155D03*
Y5897995D03*
X1693470Y5930155D03*
X1716470D03*
X1719480Y5876765D03*
Y5845155D03*
X1702640Y5833145D03*
Y5860895D03*
X1785640Y5931145D03*
X1548480Y5904155D03*
Y5880655D03*
X1547470Y5857155D03*
X1524640Y5868155D03*
Y5843145D03*
Y5893155D03*
X1547470Y5806155D03*
Y5775155D03*
Y5754385D03*
Y5733625D03*
X1426990Y5749145D03*
Y5771145D03*
X1441480Y5800155D03*
X1466470D03*
X1400470Y5753155D03*
G54D11*
X1278640Y5749145D03*
X1256640D03*
G54D12*
X1355480Y5881155D03*
X1385480Y5904155D03*
G54D11*
X1603380Y5562205D03*
X1603470Y5478035D03*
X1603510Y5436075D03*
G54D12*
X1611470Y5397155D03*
X1646920Y5130465D03*
X1662640Y5144145D03*
X1731490Y5119985D03*
X1731920Y5092985D03*
X1916920Y5055465D03*
X1903890Y4992425D03*
X1867640Y5206145D03*
X1871640Y5240145D03*
X1891640Y5246145D03*
X1903490Y5262985D03*
X1924490Y5269985D03*
G54D11*
X2146480Y5466155D03*
G54D12*
X2337480Y5431155D03*
Y5529155D03*
X2356640Y5579145D03*
X2431920Y5554895D03*
X2431490Y5536895D03*
X2471920Y5539145D03*
X2486920D03*
X2502000D03*
X2517990D03*
X2486920Y5570465D03*
X2452890Y5653145D03*
X2454000Y5670145D03*
X2469000Y5677145D03*
X2464000Y5702145D03*
X2447990D03*
X2456990Y5718145D03*
X2455000Y5744835D03*
X2456920Y5795465D03*
X2352480Y5814465D03*
X2349050Y5730465D03*
X2387640Y5495145D03*
X2408140D03*
X2407640Y5476145D03*
X2428640D03*
Y5495145D03*
X2519000Y5402145D03*
X2535990D03*
X2553990D03*
X2548990Y5330145D03*
X2567990D03*
X2576000Y5312145D03*
X2558990D03*
X2542000D03*
X2674470Y5419155D03*
X2636100Y5532435D03*
X2635550Y5548465D03*
X2586990Y5551145D03*
X2580000Y5535145D03*
X2748470Y5568155D03*
X2776490Y5648985D03*
X2797780Y5646315D03*
X2792480Y5666155D03*
X2766000Y5882145D03*
X2776990Y5895145D03*
X2738000Y5884145D03*
X2737000Y5866145D03*
X2701920Y5868845D03*
Y5890465D03*
Y5915465D03*
X2621920Y5860465D03*
X2599990Y5865145D03*
X2566920Y5860465D03*
X2551920D03*
X2484490Y5938895D03*
Y5956895D03*
X2322490Y6038895D03*
G54D11*
X2751770Y6040305D03*
G54D12*
X2647920Y4976995D03*
X2130480Y4968155D03*
G54D11*
X1461920Y5070465D03*
G54D12*
X3011640Y5356145D03*
X3012640Y5383145D03*
X2994480Y5397155D03*
X3047920Y5373595D03*
X3106480Y5403155D03*
X3110000Y5443145D03*
X3074470Y5505155D03*
X3032480Y5498155D03*
X3031480Y5473155D03*
G54D11*
X3191160Y5469625D03*
X3201940Y5611155D03*
G54D12*
X3200940Y5636155D03*
X3199940Y5665155D03*
X3212530Y5720525D03*
X3009480Y5669155D03*
X2968940Y5655155D03*
X2968470Y5688155D03*
X2937940Y5649155D03*
X2908480Y5663155D03*
X2903480Y5555155D03*
X2921470Y5536155D03*
X2885480Y5527155D03*
X2971480Y5584155D03*
X3191960Y5989645D03*
X3257470Y5982155D03*
G54D11*
X2818870Y4266155D03*
X2846640D03*
G54D10*
X2874410D03*
X2902170D03*
X2929940D03*
X2957710D03*
X2985480D03*
X3074470D03*
X3098470D03*
X3123470D03*
X3147480D03*
X3171480D03*
X3195480D03*
X3219470D03*
X3244470D03*
X3268480D03*
X3295470Y4253155D03*
Y4280155D03*
Y4307155D03*
Y4334155D03*
Y4359775D03*
X3322810D03*
X3323280Y4334125D03*
X3350140Y4359775D03*
X3377480D03*
Y4385155D03*
Y4409155D03*
Y4434155D03*
Y4459155D03*
Y4484155D03*
Y4509155D03*
Y4534155D03*
Y4559155D03*
Y4584155D03*
Y4609155D03*
Y4634155D03*
X3364470Y4655155D03*
X3339470D03*
Y4679655D03*
Y4704155D03*
X3320470Y4721155D03*
G54D11*
X3295470D03*
X3291480Y4745155D03*
Y4770155D03*
Y4794155D03*
G54D10*
X3303470Y4816155D03*
G54D11*
Y4840155D03*
X3327470D03*
X3351480D03*
X3375470D03*
X3399480D03*
X3423480D03*
X3462470Y4852155D03*
Y4826925D03*
Y4801695D03*
Y4776465D03*
Y4751235D03*
Y4726005D03*
Y4700775D03*
Y4675535D03*
Y4650305D03*
Y4625075D03*
Y4599845D03*
Y4574615D03*
Y4549385D03*
G54D10*
Y4524155D03*
X3484990Y4514145D03*
X3511000D03*
X3539480Y4514155D03*
X3569480D03*
Y4490155D03*
Y4463155D03*
Y4436155D03*
Y4409155D03*
Y4382155D03*
Y4355155D03*
X3568480Y4323155D03*
G54D11*
Y4294155D03*
X3554480Y4264155D03*
G54D10*
X3534470Y4245155D03*
X3510480Y4228155D03*
X3484480Y4214155D03*
G54D11*
X3452480Y4202155D03*
X3426310D03*
X3400140D03*
X3373980D03*
X3347810D03*
X3321640D03*
X3295470D03*
G54D10*
Y4226155D03*
X3351750Y4434105D03*
G54D11*
X3299480Y4523155D03*
G54D10*
X3280000Y4506145D03*
X3254640Y4483145D03*
G54D11*
X3229640D03*
G54D10*
Y4456145D03*
G54D11*
X3093470Y4457155D03*
X3069480D03*
G54D10*
X3016990Y4457145D03*
X2993000D03*
X2969000D03*
G54D11*
X2968640Y4481145D03*
X2992640D03*
X3016640D03*
X2944000Y4457145D03*
X2912640Y4525145D03*
X2887920D03*
X2887640Y4549145D03*
X2911640D03*
X2862940Y4530155D03*
X2840940D03*
X2846470Y4565155D03*
X2867000Y4587145D03*
X2866480Y4638155D03*
Y4673155D03*
X2844640Y4717145D03*
X2866480Y4743155D03*
Y4778155D03*
G54D10*
X2874470Y4873145D03*
X2849990D03*
Y4898815D03*
X2874640D03*
X2849990Y4923485D03*
X2909000Y4873145D03*
X2932990D03*
X2959490D03*
Y4898815D03*
Y4925775D03*
Y4847155D03*
G54D11*
X2983000Y4833145D03*
X3006000D03*
X3196480Y4813155D03*
X3248470Y4825155D03*
Y4849155D03*
Y4874155D03*
X3232990Y4899145D03*
X3272000Y4898145D03*
G54D10*
X3332990Y4900145D03*
X3357000Y4899145D03*
X3381000D03*
X3452940Y4892155D03*
Y4915155D03*
X3477940Y4891155D03*
X3501940Y4878155D03*
X3524990Y4866145D03*
X3549000D03*
X3572990D03*
G54D11*
X3256470Y4799155D03*
Y4774155D03*
X3242470Y4754155D03*
X2826480Y4287155D03*
X2809470Y4307155D03*
X2792480Y4266155D03*
X2766470D03*
X2746000Y4400145D03*
X2710480Y4472155D03*
X2709480Y4518155D03*
X2747480Y4535155D03*
X2764480Y4561155D03*
G54D10*
X2758990Y4841145D03*
Y4864145D03*
G54D11*
X2730470Y4816155D03*
X2311640Y4921145D03*
X1723290Y4897985D03*
X1569490Y4861695D03*
Y4835595D03*
Y4809495D03*
Y4783395D03*
Y4757295D03*
Y4731195D03*
Y4705095D03*
G54D10*
X1519390Y4628145D03*
X1493290D03*
X1467190D03*
X1441090D03*
X1414990D03*
X1388890D03*
X1362790D03*
X1336690D03*
X1310990D03*
X1297990Y4649895D03*
X1273490D03*
Y4678475D03*
X1297990D03*
Y4707065D03*
X1273490D03*
Y4735645D03*
X1297990D03*
Y4764225D03*
X1273490D03*
Y4792815D03*
X1297990D03*
Y4821395D03*
X1273490D03*
Y4849975D03*
X1297990D03*
Y4878565D03*
X1273490D03*
G54D11*
Y4907145D03*
G54D10*
X1297990D03*
X1327890D03*
X1357090D03*
X1386290D03*
G54D11*
X1412990D03*
X1992480Y4275155D03*
X2438470Y4372155D03*
X596470Y4406155D03*
X793000Y4607145D03*
X600510Y5696075D03*
X629510Y5726075D03*
X659510Y5756075D03*
X1418860Y5329995D03*
X1706920Y5250465D03*
X1735490Y5253895D03*
X2022000Y5051145D03*
G54D10*
X2652490Y5179895D03*
G54D11*
X2729920Y5201985D03*
X2763920Y5205995D03*
X2771920Y5170985D03*
X2812490Y5186985D03*
X2756480Y5102155D03*
X2686920Y4937985D03*
X2774290Y5713985D03*
X2794290Y5714585D03*
X3017470Y5208155D03*
X3073790Y5219845D03*
G54D10*
X3072680Y4979155D03*
X3046080D03*
X3019470D03*
X2983480D03*
X2959470D03*
X2959490Y4951965D03*
X2949000Y5003145D03*
X2923000D03*
X2897990D03*
X2866000Y4967145D03*
X2849990Y4948145D03*
X3099290Y4979155D03*
X3125890D03*
X3152490D03*
X3178470Y4987155D03*
X3178490Y4962895D03*
Y4936155D03*
X3178470Y5013155D03*
X3200470Y5028155D03*
X3290990Y5034145D03*
X3316470D03*
Y5008655D03*
Y4983155D03*
X3302470Y4961155D03*
X3303030Y4936155D03*
X3327940D03*
X3352840D03*
X3377750D03*
X3402660Y4937155D03*
X3427570Y4936155D03*
X3452480D03*
X3145480Y4453155D03*
X2975470Y4773155D03*
X2872440Y4811425D03*
X3567640Y4901145D03*
Y4932145D03*
X2621640Y4622145D03*
Y4594145D03*
X2589640Y4593145D03*
Y4622145D03*
X2608000Y4208145D03*
X2637500D03*
X2667000D03*
X2567450Y4202145D03*
X2534350D03*
X2501260D03*
X2468160D03*
X2435070D03*
X2401970D03*
X2368880D03*
X2335780D03*
X2302690D03*
X2269590D03*
X2236500D03*
X2203400D03*
X2170310D03*
X2137210D03*
X2104120D03*
X2071020D03*
X2037930D03*
X2004830D03*
X1971740D03*
X1938640D03*
X1770640Y4201145D03*
X1740310D03*
X1709970D03*
X1679640D03*
X1504640Y4205145D03*
X1476640D03*
X1448640D03*
X1420640D03*
X1301610Y4250285D03*
X2410470Y4255155D03*
X2442890D03*
X2475320D03*
X2507730D03*
X2293920Y4387985D03*
X1249630Y4204865D03*
X1221300D03*
X1192960D03*
X1164630D03*
X1172470Y4248155D03*
X991640Y4216145D03*
X962640D03*
X945470Y4248155D03*
X800060Y4225435D03*
X615480Y4536155D03*
X572760Y4535435D03*
X560470Y4511155D03*
X414920Y4440995D03*
X320990Y4281145D03*
X284000D03*
X143220Y4209135D03*
X107640Y4218145D03*
X80640Y4236145D03*
X58640Y4257145D03*
X45480Y4287155D03*
X45460Y4318415D03*
Y4347415D03*
Y4376415D03*
Y4405415D03*
Y4434415D03*
X168480Y4523155D03*
X168460Y4554415D03*
Y4583415D03*
Y4612415D03*
Y4641415D03*
Y4670415D03*
X139920Y4859255D03*
X106920Y4885075D03*
Y4921615D03*
X1079000Y4566145D03*
Y4539145D03*
X106920Y4958155D03*
Y4994695D03*
Y5031235D03*
Y5067765D03*
X136640Y5623145D03*
Y5655745D03*
Y5688345D03*
Y5720945D03*
Y5753545D03*
Y5786145D03*
X54460Y5813155D03*
Y5844415D03*
Y5873415D03*
Y5902415D03*
Y5931415D03*
Y5960415D03*
X140470Y6033175D03*
X171730D03*
X200730D03*
X229730D03*
X258740D03*
X287740D03*
X245490Y5718895D03*
X314490Y5654895D03*
X379740Y5698025D03*
X380680Y5726655D03*
X344490Y5544895D03*
X315920Y5530465D03*
X278990Y5528145D03*
X310990Y5494145D03*
X528490Y5798895D03*
X662470Y6033175D03*
X693730D03*
X722740D03*
X751740D03*
X780740D03*
X809730D03*
X1452480Y5839155D03*
X1415470Y5801155D03*
X1710490Y5791895D03*
X1908490Y5774895D03*
X2039490Y5671895D03*
X2064480Y5870155D03*
X2292550Y5874665D03*
X2306640Y5073145D03*
X2227480Y5119155D03*
X2510490Y5066985D03*
X2753470Y5062155D03*
X2753640Y5034145D03*
X2783640D03*
X2783480Y5062155D03*
X2813470Y5063155D03*
Y5035155D03*
X2995480Y5060155D03*
X3025480D03*
X2934470Y5181155D03*
X2935480Y5209155D03*
X2928650Y5305155D03*
X2922480Y5340155D03*
X2893460D03*
X2861490Y5300985D03*
X3144470Y5254155D03*
X3235940Y5180155D03*
X3265940D03*
X3295940D03*
X3381640Y5124145D03*
Y5094145D03*
Y5064145D03*
Y5034145D03*
Y5004145D03*
X3452640Y4963145D03*
X3490970D03*
X3529310D03*
X3567640D03*
X3545470Y5395155D03*
X3448470Y5419155D03*
Y5462655D03*
Y5506155D03*
X3470640Y5767145D03*
X3501640Y5792145D03*
Y5821145D03*
Y5850145D03*
X3374480Y5914155D03*
X3376210Y6034175D03*
X3407020D03*
X3437830D03*
X3468640D03*
X3345400D03*
X3314580D03*
X3283770D03*
X3252960D03*
X3222150D03*
X3191340D03*
X3160530D03*
X3129720D03*
X3098910D03*
X3068100D03*
X3037290D03*
X3006480D03*
X3007870Y5900565D03*
X3038360D03*
X3089810Y5970825D03*
X3129480Y5974155D03*
X3144470Y5814155D03*
X3180100Y5769705D03*
X3197940Y5423155D03*
X3197640Y5395145D03*
X3198640Y5367145D03*
G54D13*
X1081920Y4835465D03*
Y4975465D03*
X1115510Y5128985D03*
X1312290D03*
X1275290Y5077985D03*
X1422290Y5128985D03*
X1614290Y5241985D03*
X1606050Y5518535D03*
X1597340Y5603335D03*
X1706920Y4997985D03*
X1726920Y4982985D03*
G54D14*
X3208480Y4363155D03*
X3335470Y4509155D03*
X2494760Y4408295D03*
X2202920Y4265995D03*
X2155640Y4927145D03*
X2120640D03*
X1723990Y4731385D03*
X1453640Y4916145D03*
X1411920Y4415465D03*
X1339640Y4245145D03*
X695640Y4230145D03*
X653140D03*
X610640D03*
Y4274145D03*
X653140D03*
X610640Y4317145D03*
X722470Y4420155D03*
X754470D03*
X918990Y4646385D03*
X399470Y4636155D03*
X255470Y4825155D03*
X434920Y4230465D03*
X517830Y5644655D03*
X544490Y5619475D03*
X793920Y5772465D03*
X817850Y5837715D03*
X845480Y5812155D03*
X908050Y5887035D03*
X889490Y5914895D03*
X882920Y5993465D03*
X821470Y5981155D03*
X1110490Y6002895D03*
X307490Y5823985D03*
X268920Y5825465D03*
X1347470Y5950155D03*
X1386470D03*
Y5992155D03*
X1346470D03*
X1890480Y5924155D03*
X2126960Y5892155D03*
X2127480Y5857155D03*
X2262990Y5844145D03*
X2297000Y5843145D03*
X2349990Y5855145D03*
X2351490Y5895895D03*
X2383490D03*
X2466920Y5897985D03*
X2264000Y5879145D03*
X2194480Y5725155D03*
X2184640Y5641145D03*
X2219640Y5642145D03*
X2220640Y5605145D03*
X2185640D03*
X2096470Y5649155D03*
X1921480Y5212155D03*
X1746490Y4936385D03*
X1714490Y4935895D03*
X1453640Y4957145D03*
X1452640Y5000145D03*
X1522240Y5085145D03*
X2226470Y5048155D03*
X2427640Y5034145D03*
X2463640D03*
X2451990Y5281145D03*
X2422000Y5282145D03*
X2382470Y5239155D03*
X2686920Y5217985D03*
X2830480Y5254155D03*
X2958490Y5957985D03*
G54D15*
X358290Y4404635D03*
X450780Y4370975D03*
X543270Y4337305D03*
G54D16*
X59050Y4515735D03*
Y5728335D03*
X2311020Y5354325D03*
X3539370Y5728335D03*
G54D17*
X1430510Y4764075D03*
G54D18*
X2611920Y5705465D03*
G54D10*
X4122800Y1649144D03*
X4135800Y1669144D03*
G54D11*
X6745780Y708154D03*
Y751464D03*
G54D12*
Y794764D03*
X6789080D03*
X6832390D03*
G54D11*
Y751464D03*
X6789080D03*
Y708154D03*
X6832390D03*
G54D12*
X6512640Y461154D03*
X6524640Y526154D03*
X6692800Y596144D03*
X6691800Y614144D03*
X6745800Y613144D03*
X6752640Y577154D03*
X6773640D03*
X6662640Y761154D03*
X6917800Y758644D03*
Y740144D03*
Y777144D03*
X6899800Y840144D03*
Y862144D03*
X6818080Y880984D03*
X6801080Y890984D03*
X6290030Y518934D03*
X6307610Y500454D03*
X6270340Y535724D03*
X6120080Y528984D03*
Y504994D03*
X6119080Y483464D03*
Y552994D03*
X6146800Y606144D03*
X5999080Y609984D03*
X6014080Y586984D03*
X5982080Y630984D03*
X5965080Y645994D03*
X5867080Y661994D03*
X5850080Y648984D03*
X5814080Y693464D03*
X5794640Y713154D03*
X5788650Y736844D03*
X5649080Y678464D03*
X5662650Y661894D03*
X5676600Y645974D03*
X5692450Y613984D03*
X5710450Y598984D03*
X5729450Y582984D03*
X5742450Y566984D03*
X5758450Y551984D03*
X5761450Y524984D03*
X5728800Y506144D03*
X5800640Y463154D03*
X5838800Y467144D03*
X5860800D03*
X5896080Y482994D03*
X5914800Y458144D03*
Y436144D03*
X5979270Y483784D03*
X6014640Y468154D03*
X6034080Y455994D03*
X6053810Y442264D03*
X6073490Y431574D03*
X6194080Y438464D03*
G54D11*
X5796800Y319144D03*
X5774470D03*
X5752130D03*
X5729800D03*
G54D12*
X5618800Y491144D03*
X5594080Y499724D03*
Y478464D03*
X5603080Y520614D03*
X5594450Y629984D03*
X5634450D03*
X5629080Y693464D03*
X5614080Y708464D03*
X5599080Y723464D03*
X5589080Y743464D03*
X5594080Y848464D03*
X5417800Y837144D03*
X5409080Y855984D03*
X5384080Y873464D03*
X5383450Y490464D03*
X5414450D03*
X5399450Y468464D03*
X5430450D03*
X5454080D03*
X5475800Y492144D03*
Y514144D03*
X5351450Y490464D03*
X5322800Y483144D03*
X5367450Y468464D03*
X5252800Y483144D03*
X5210450Y468464D03*
X5178450D03*
X5164080Y490464D03*
X5144080D03*
X5124080D03*
X5194450D03*
X5055650Y468464D03*
X5032650D03*
X5005450D03*
X4974080D03*
X4989080Y483464D03*
X4953650Y478984D03*
X5068150Y332144D03*
X5048080Y293994D03*
X5115160Y355144D03*
X5146150D03*
X5225780Y323884D03*
X5241530Y337884D03*
X5257280Y351884D03*
X5267080Y299994D03*
X5288770Y301154D03*
X5320270Y351884D03*
X5978080Y762254D03*
X5859080Y961254D03*
X4779080Y723464D03*
X4800650Y683984D03*
X4636080Y649784D03*
X4598640Y615154D03*
X4599080Y550604D03*
X4818450Y465984D03*
X4843450D03*
X4519080Y868464D03*
G54D11*
X4107800Y807144D03*
X4081050D03*
X4054300D03*
G54D12*
X4053160Y784144D03*
G54D11*
X4027550Y807144D03*
X3963670Y1269074D03*
X3969670Y1298074D03*
X3997670Y1331074D03*
X4026670Y1361074D03*
X4057670Y1391074D03*
G54D12*
X4102330Y1349334D03*
X4126450Y1369984D03*
X4147260Y1393494D03*
X4169510Y1415794D03*
X4190720Y1439114D03*
X4248550Y1408194D03*
X4291200Y1448114D03*
X4293250Y1492484D03*
X4314470Y1471274D03*
X4303490Y1549054D03*
X4325070Y1572024D03*
X4346630Y1595014D03*
X4369950Y1616224D03*
X4386180Y1635304D03*
X4422915Y1670220D03*
X4457670Y1693074D03*
X4468180Y1626454D03*
X4491450Y1604294D03*
X4428710Y1583734D03*
X4402450Y1557984D03*
X4268670Y1529074D03*
X4282670Y1664074D03*
G54D11*
X4280670Y1701074D03*
X4310670Y1730074D03*
X4339670Y1760074D03*
X4370670Y1790074D03*
G54D12*
X4369670Y1851074D03*
G54D11*
X4303800Y1866144D03*
X4281130D03*
Y1844144D03*
X4258470D03*
Y1866144D03*
G54D12*
X4243160Y1991144D03*
Y2036144D03*
X4399650Y2020894D03*
Y1985894D03*
G54D11*
X4447870Y1807634D03*
G54D12*
X4471530Y1803114D03*
G54D11*
X4493710Y1803014D03*
X4616800Y1812144D03*
X4647300D03*
X4677800D03*
X4867800D03*
X4889800D03*
X4911800D03*
G54D12*
X4924080Y1418464D03*
X4870450Y1380984D03*
X4755670Y1298074D03*
X4900650Y1167894D03*
X4519450Y1037984D03*
X4341100Y1155154D03*
X4351070Y1189684D03*
X4373350Y1211954D03*
X4395610Y1234224D03*
X4404450Y1293294D03*
X4484700Y1323314D03*
X4508670Y1344074D03*
X4529240Y1367854D03*
X4551350Y1390294D03*
X4573780Y1412394D03*
X4596060Y1434664D03*
X4618320Y1456934D03*
X4639740Y1480064D03*
X4624090Y1514924D03*
X4491670Y1472074D03*
X4515990Y1446524D03*
X4470030Y1403074D03*
X4433670Y1418074D03*
X4364260Y1371074D03*
X4317050Y1373454D03*
X4321090Y1351824D03*
X4306530Y1145144D03*
X4098670Y1464074D03*
G54D11*
X4067670Y1501074D03*
X4101670Y1533074D03*
X4131670Y1563074D03*
G54D12*
X4148650Y1606894D03*
X4190550Y1656194D03*
X4246670Y1729074D03*
G54D11*
X3847800Y1650144D03*
Y1625604D03*
Y1601064D03*
Y1576534D03*
Y1551994D03*
Y1527454D03*
Y1502914D03*
Y1478374D03*
Y1453834D03*
X3869800Y1454144D03*
X3891800D03*
X3847800Y1429304D03*
Y1404764D03*
Y1380224D03*
Y1355684D03*
Y1331144D03*
Y1307144D03*
G54D12*
X3888670Y1319074D03*
X3914080Y1380984D03*
X3923670Y1404074D03*
X3953670Y1434074D03*
X3983670Y1464074D03*
X5210800Y1418144D03*
X5235630Y1414154D03*
X5227630Y1368154D03*
X5210640Y1353154D03*
X5209080Y1303464D03*
X5228650Y1309984D03*
X5375650Y1365894D03*
X5382650Y1460894D03*
X5360630Y1461154D03*
X5405650Y1460984D03*
X5453650Y1460894D03*
X5476650D03*
X5498650D03*
X5546650Y1460984D03*
X5578650Y1455984D03*
Y1477984D03*
X5577650Y1498984D03*
X5607160Y1506144D03*
Y1528344D03*
Y1550544D03*
Y1572744D03*
Y1594944D03*
Y1617144D03*
X5693160Y1619894D03*
X5693650Y1599894D03*
Y1579894D03*
Y1559894D03*
Y1639894D03*
Y1662894D03*
X5692650Y1732894D03*
Y1781894D03*
Y1802894D03*
Y1824894D03*
Y1847894D03*
X5707150Y1893644D03*
Y1915144D03*
Y1936644D03*
X5678160Y1923144D03*
X5585650Y1934894D03*
Y1902894D03*
Y1870894D03*
X5550640Y1877154D03*
X5565650Y1821894D03*
X5585650Y1814894D03*
Y1793894D03*
Y1773894D03*
Y1753894D03*
X5565650Y1748894D03*
X5550150Y1734894D03*
Y1767144D03*
X5565650Y1785394D03*
X5550150Y1801144D03*
X5595150Y1720144D03*
X5581650Y1703894D03*
X5567750Y1687794D03*
X5508650Y1593894D03*
X5469650Y1608894D03*
X5466160Y1635144D03*
X5454180Y1593364D03*
X5418630D03*
X5386640Y1608154D03*
X5408630Y1642154D03*
X5386150Y1689144D03*
X5399150Y1705144D03*
X5386150Y1722144D03*
X5366150Y1731144D03*
X5399150Y1739894D03*
X5379800Y1829144D03*
X5329800Y1836154D03*
Y1796624D03*
Y1881144D03*
Y1901654D03*
Y1922154D03*
Y1960994D03*
X5370630Y1993154D03*
X5393630D03*
X5396640Y1939764D03*
Y1908154D03*
X5379800Y1896144D03*
Y1923894D03*
X5462800Y1994144D03*
X5225640Y1967154D03*
Y1943654D03*
X5224630Y1920154D03*
X5201800Y1931154D03*
Y1906144D03*
Y1956154D03*
X5224630Y1869154D03*
Y1838154D03*
Y1817384D03*
Y1796624D03*
X5104150Y1812144D03*
Y1834144D03*
X5118640Y1863154D03*
X5143630D03*
X5077630Y1816154D03*
G54D11*
X4955800Y1812144D03*
X4933800D03*
G54D12*
X5032640Y1944154D03*
X5062640Y1967154D03*
G54D11*
X5280540Y1625204D03*
X5280630Y1541034D03*
X5280670Y1499074D03*
G54D12*
X5288630Y1460154D03*
X5324080Y1193464D03*
X5339800Y1207144D03*
X5408650Y1182984D03*
X5409080Y1155984D03*
X5594080Y1118464D03*
X5581050Y1055424D03*
X5544800Y1269144D03*
X5548800Y1303144D03*
X5568800Y1309144D03*
X5580650Y1325984D03*
X5601650Y1332984D03*
G54D11*
X5823640Y1529154D03*
G54D12*
X6014640Y1494154D03*
Y1592154D03*
X6033800Y1642144D03*
X6109080Y1617894D03*
X6108650Y1599894D03*
X6149080Y1602144D03*
X6164080D03*
X6179160D03*
X6195150D03*
X6164080Y1633464D03*
X6130050Y1716144D03*
X6131160Y1733144D03*
X6146160Y1740144D03*
X6141160Y1765144D03*
X6125150D03*
X6134150Y1781144D03*
X6132160Y1807834D03*
X6134080Y1858464D03*
X6029640Y1877464D03*
X6026210Y1793464D03*
X6064800Y1558144D03*
X6085300D03*
X6084800Y1539144D03*
X6105800D03*
Y1558144D03*
X6196160Y1465144D03*
X6213150D03*
X6231150D03*
X6226150Y1393144D03*
X6245150D03*
X6253160Y1375144D03*
X6236150D03*
X6219160D03*
X6351630Y1482154D03*
X6313260Y1595434D03*
X6312710Y1611464D03*
X6264150Y1614144D03*
X6257160Y1598144D03*
X6425630Y1631154D03*
X6453650Y1711984D03*
X6474940Y1709314D03*
X6469640Y1729154D03*
X6443160Y1945144D03*
X6454150Y1958144D03*
X6415160Y1947144D03*
X6414160Y1929144D03*
X6379080Y1931844D03*
Y1953464D03*
Y1978464D03*
X6299080Y1923464D03*
X6277150Y1928144D03*
X6244080Y1923464D03*
X6229080D03*
X6161650Y2001894D03*
Y2019894D03*
X5999650Y2101894D03*
G54D11*
X6428930Y2103304D03*
G54D12*
X6325080Y1039994D03*
X5807640Y1031154D03*
G54D11*
X5139080Y1133464D03*
G54D12*
X6688800Y1419144D03*
X6689800Y1446144D03*
X6671640Y1460154D03*
X6725080Y1436594D03*
X6783640Y1466154D03*
X6787160Y1506144D03*
X6751630Y1568154D03*
X6709640Y1561154D03*
X6708640Y1536154D03*
G54D11*
X6868320Y1532624D03*
X6879100Y1674154D03*
G54D12*
X6878100Y1699154D03*
X6877100Y1728154D03*
X6889690Y1783524D03*
X6686640Y1732154D03*
X6646100Y1718154D03*
X6645630Y1751154D03*
X6615100Y1712154D03*
X6585640Y1726154D03*
X6580640Y1618154D03*
X6598630Y1599154D03*
X6562640Y1590154D03*
X6648640Y1647154D03*
X6869120Y2052644D03*
X6934630Y2045154D03*
G54D11*
X6496030Y329154D03*
X6523800D03*
G54D10*
X6551570D03*
X6579330D03*
X6607100D03*
X6634870D03*
X6662640D03*
X6751630D03*
X6775630D03*
X6800630D03*
X6824640D03*
X6848640D03*
X6872640D03*
X6896630D03*
X6921630D03*
X6945640D03*
X6972630Y316154D03*
Y343154D03*
Y370154D03*
Y397154D03*
Y422774D03*
X6999970D03*
X7000440Y397124D03*
X7027300Y422774D03*
X7054640D03*
Y448154D03*
Y472154D03*
Y497154D03*
Y522154D03*
Y547154D03*
Y572154D03*
Y597154D03*
Y622154D03*
Y647154D03*
Y672154D03*
Y697154D03*
X7041630Y718154D03*
X7016630D03*
Y742654D03*
Y767154D03*
X6997630Y784154D03*
G54D11*
X6972630D03*
X6968640Y808154D03*
Y833154D03*
Y857154D03*
G54D10*
X6980630Y879154D03*
G54D11*
Y903154D03*
X7004630D03*
X7028640D03*
X7052630D03*
X7076640D03*
X7100640D03*
X7139630Y915154D03*
Y889924D03*
Y864694D03*
Y839464D03*
Y814234D03*
Y789004D03*
Y763774D03*
Y738534D03*
Y713304D03*
Y688074D03*
Y662844D03*
Y637614D03*
Y612384D03*
G54D10*
Y587154D03*
X7162150Y577144D03*
X7188160D03*
X7216640Y577154D03*
X7246640D03*
Y553154D03*
Y526154D03*
Y499154D03*
Y472154D03*
Y445154D03*
Y418154D03*
X7245640Y386154D03*
G54D11*
Y357154D03*
X7231640Y327154D03*
G54D10*
X7211630Y308154D03*
X7187640Y291154D03*
X7161640Y277154D03*
G54D11*
X7129640Y265154D03*
X7103470D03*
X7077300D03*
X7051140D03*
X7024970D03*
X6998800D03*
X6972630D03*
G54D10*
Y289154D03*
X7028910Y497104D03*
G54D11*
X6976640Y586154D03*
G54D10*
X6957160Y569144D03*
X6931800Y546144D03*
G54D11*
X6906800D03*
G54D10*
Y519144D03*
G54D11*
X6770630Y520154D03*
X6746640D03*
G54D10*
X6694150Y520144D03*
X6670160D03*
X6646160D03*
G54D11*
X6645800Y544144D03*
X6669800D03*
X6693800D03*
X6621160Y520144D03*
X6589800Y588144D03*
X6565080D03*
X6564800Y612144D03*
X6588800D03*
X6540100Y593154D03*
X6518100D03*
X6523630Y628154D03*
X6544160Y650144D03*
X6543640Y701154D03*
Y736154D03*
X6521800Y780144D03*
X6543640Y806154D03*
Y841154D03*
G54D10*
X6551630Y936144D03*
X6527150D03*
Y961814D03*
X6551800D03*
X6527150Y986484D03*
X6586160Y936144D03*
X6610150D03*
X6636650D03*
Y961814D03*
Y988774D03*
Y910154D03*
G54D11*
X6660160Y896144D03*
X6683160D03*
X6873640Y876154D03*
X6925630Y888154D03*
Y912154D03*
Y937154D03*
X6910150Y962144D03*
X6949160Y961144D03*
G54D10*
X7010150Y963144D03*
X7034160Y962144D03*
X7058160D03*
X7130100Y955154D03*
Y978154D03*
X7155100Y954154D03*
X7179100Y941154D03*
X7202150Y929144D03*
X7226160D03*
X7250150D03*
G54D11*
X6933630Y862154D03*
Y837154D03*
X6919630Y817154D03*
X6503640Y350154D03*
X6486630Y370154D03*
X6469640Y329154D03*
X6443630D03*
X6423160Y463144D03*
X6387640Y535154D03*
X6386640Y581154D03*
X6424640Y598154D03*
X6441640Y624154D03*
G54D10*
X6436150Y904144D03*
Y927144D03*
G54D11*
X6407630Y879154D03*
X5988800Y984144D03*
X5400450Y960984D03*
X5246650Y924694D03*
Y898594D03*
Y872494D03*
Y846394D03*
Y820294D03*
Y794194D03*
Y768094D03*
G54D10*
X5196550Y691144D03*
X5170450D03*
X5144350D03*
X5118250D03*
X5092150D03*
X5066050D03*
X5039950D03*
X5013850D03*
X4988150D03*
X4975150Y712894D03*
X4950650D03*
Y741474D03*
X4975150D03*
Y770064D03*
X4950650D03*
Y798644D03*
X4975150D03*
Y827224D03*
X4950650D03*
Y855814D03*
X4975150D03*
Y884394D03*
X4950650D03*
Y912974D03*
X4975150D03*
Y941564D03*
X4950650D03*
G54D11*
Y970144D03*
G54D10*
X4975150D03*
X5005050D03*
X5034250D03*
X5063450D03*
G54D11*
X5090150D03*
X5669640Y338154D03*
X6115630Y435154D03*
X4273630Y469154D03*
X4470160Y670144D03*
X4277670Y1759074D03*
X4306670Y1789074D03*
X4336670Y1819074D03*
X5096020Y1392994D03*
X5384080Y1313464D03*
X5412650Y1316894D03*
X5699160Y1114144D03*
G54D10*
X6329650Y1242894D03*
G54D11*
X6407080Y1264984D03*
X6441080Y1268994D03*
X6449080Y1233984D03*
X6489650Y1249984D03*
X6433640Y1165154D03*
X6364080Y1000984D03*
X6451450Y1776984D03*
X6471450Y1777584D03*
X6694630Y1271154D03*
X6750950Y1282844D03*
G54D10*
X6749840Y1042154D03*
X6723240D03*
X6696630D03*
X6660640D03*
X6636630D03*
X6636650Y1014964D03*
X6626160Y1066144D03*
X6600160D03*
X6575150D03*
X6543160Y1030144D03*
X6527150Y1011144D03*
X6776450Y1042154D03*
X6803050D03*
X6829650D03*
X6855630Y1050154D03*
X6855650Y1025894D03*
Y999154D03*
X6855630Y1076154D03*
X6877630Y1091154D03*
X6968150Y1097144D03*
X6993630D03*
Y1071654D03*
Y1046154D03*
X6979630Y1024154D03*
X6980190Y999154D03*
X7005100D03*
X7030000D03*
X7054910D03*
X7079820Y1000154D03*
X7104730Y999154D03*
X7129640D03*
X6822640Y516154D03*
X6652630Y836154D03*
X6549600Y874424D03*
X7244800Y964144D03*
Y995144D03*
X6298800Y685144D03*
Y657144D03*
X6266800Y656144D03*
Y685144D03*
X6285160Y271144D03*
X6314660D03*
X6344160D03*
X6244610Y265144D03*
X6211510D03*
X6178420D03*
X6145320D03*
X6112230D03*
X6079130D03*
X6046040D03*
X6012940D03*
X5979850D03*
X5946750D03*
X5913660D03*
X5880560D03*
X5847470D03*
X5814370D03*
X5781280D03*
X5748180D03*
X5715090D03*
X5681990D03*
X5648900D03*
X5615800D03*
X5447800Y264144D03*
X5417470D03*
X5387130D03*
X5356800D03*
X5181800Y268144D03*
X5153800D03*
X5125800D03*
X5097800D03*
X4978770Y313284D03*
X6087630Y318154D03*
X6120050D03*
X6152480D03*
X6184890D03*
X5971080Y450984D03*
X4926790Y267864D03*
X4898460D03*
X4870120D03*
X4841790D03*
X4849630Y311154D03*
X4668800Y279144D03*
X4639800D03*
X4622630Y311154D03*
X4477220Y288434D03*
X4292640Y599154D03*
X4249920Y598434D03*
X4237630Y574154D03*
X4092080Y503994D03*
X3998150Y344144D03*
X3961160D03*
X3820380Y272134D03*
X3784800Y281144D03*
X3757800Y299144D03*
X3735800Y320144D03*
X3722640Y350154D03*
X3722620Y381414D03*
Y410414D03*
Y439414D03*
Y468414D03*
Y497414D03*
X3845640Y586154D03*
X3845620Y617414D03*
Y646414D03*
Y675414D03*
Y704414D03*
Y733414D03*
X3817080Y922254D03*
X3784080Y948074D03*
Y984614D03*
X4756160Y629144D03*
Y602144D03*
X3784080Y1021154D03*
Y1057694D03*
Y1094234D03*
Y1130764D03*
X3813800Y1686144D03*
Y1718744D03*
Y1751344D03*
Y1783944D03*
Y1816544D03*
Y1849144D03*
X3731620Y1876154D03*
Y1907414D03*
Y1936414D03*
Y1965414D03*
Y1994414D03*
Y2023414D03*
X3817630Y2096174D03*
X3848890D03*
X3877890D03*
X3906890D03*
X3935900D03*
X3964900D03*
X3922650Y1781894D03*
X3991650Y1717894D03*
X4056900Y1761024D03*
X4057840Y1789654D03*
X4021650Y1607894D03*
X3993080Y1593464D03*
X3956150Y1591144D03*
X3988150Y1557144D03*
X4205650Y1861894D03*
X4339630Y2096174D03*
X4370890D03*
X4399900D03*
X4428900D03*
X4457900D03*
X4486890D03*
X5129640Y1902154D03*
X5092630Y1864154D03*
X5387650Y1854894D03*
X5585650Y1837894D03*
X5716650Y1734894D03*
X5741640Y1933154D03*
X5969710Y1937664D03*
X5983800Y1136144D03*
X5904640Y1182154D03*
X6187650Y1129984D03*
X6430630Y1125154D03*
X6430800Y1097144D03*
X6460800D03*
X6460640Y1125154D03*
X6490630Y1126154D03*
Y1098154D03*
X6672640Y1123154D03*
X6702640D03*
X6611630Y1244154D03*
X6612640Y1272154D03*
X6605810Y1368154D03*
X6599640Y1403154D03*
X6570620D03*
X6538650Y1363984D03*
X6821630Y1317154D03*
X6913100Y1243154D03*
X6943100D03*
X6973100D03*
X7058800Y1187144D03*
Y1157144D03*
Y1127144D03*
Y1097144D03*
Y1067144D03*
X7129800Y1026144D03*
X7168130D03*
X7206470D03*
X7244800D03*
X7222630Y1458154D03*
X7125630Y1482154D03*
Y1525654D03*
Y1569154D03*
X7147800Y1830144D03*
X7178800Y1855144D03*
Y1884144D03*
Y1913144D03*
X7051640Y1977154D03*
X7053370Y2097174D03*
X7084180D03*
X7114990D03*
X7145800D03*
X7022560D03*
X6991740D03*
X6960930D03*
X6930120D03*
X6899310D03*
X6868500D03*
X6837690D03*
X6806880D03*
X6776070D03*
X6745260D03*
X6714450D03*
X6683640D03*
X6685030Y1963564D03*
X6715520D03*
X6766970Y2033824D03*
X6806640Y2037154D03*
X6821630Y1877154D03*
X6857260Y1832704D03*
X6875100Y1486154D03*
X6874800Y1458144D03*
X6875800Y1430144D03*
G54D13*
X4759080Y898464D03*
Y1038464D03*
X4792670Y1191984D03*
X4989450D03*
X4952450Y1140984D03*
X5099450Y1191984D03*
X5291450Y1304984D03*
X5283210Y1581534D03*
X5274500Y1666334D03*
X5384080Y1060984D03*
X5404080Y1045984D03*
G54D14*
X6885640Y426154D03*
X7012630Y572154D03*
X6171920Y471294D03*
X5880080Y328994D03*
X5832800Y990144D03*
X5797800D03*
X5401150Y794384D03*
X5130800Y979144D03*
X5089080Y478464D03*
X5016800Y308144D03*
X4372800Y293144D03*
X4330300D03*
X4287800D03*
Y337144D03*
X4330300D03*
X4287800Y380144D03*
X4399630Y483154D03*
X4431630D03*
X4596150Y709384D03*
X4076630Y699154D03*
X3932630Y888154D03*
X4112080Y293464D03*
X4194990Y1707654D03*
X4221650Y1682474D03*
X4471080Y1835464D03*
X4495010Y1900714D03*
X4522640Y1875154D03*
X4585210Y1950034D03*
X4566650Y1977894D03*
X4560080Y2056464D03*
X4498630Y2044154D03*
X4787650Y2065894D03*
X3984650Y1886984D03*
X3946080Y1888464D03*
X5024630Y2013154D03*
X5063630D03*
Y2055154D03*
X5023630D03*
X5567640Y1987154D03*
X5804120Y1955154D03*
X5804640Y1920154D03*
X5940150Y1907144D03*
X5974160Y1906144D03*
X6027150Y1918144D03*
X6028650Y1958894D03*
X6060650D03*
X6144080Y1960984D03*
X5941160Y1942144D03*
X5871640Y1788154D03*
X5861800Y1704144D03*
X5896800Y1705144D03*
X5897800Y1668144D03*
X5862800D03*
X5773630Y1712154D03*
X5598640Y1275154D03*
X5423650Y999384D03*
X5391650Y998894D03*
X5130800Y1020144D03*
X5129800Y1063144D03*
X5199400Y1148144D03*
X5903630Y1111154D03*
X6104800Y1097144D03*
X6140800D03*
X6129150Y1344144D03*
X6099160Y1345144D03*
X6059630Y1302154D03*
X6364080Y1280984D03*
X6507640Y1317154D03*
X6635650Y2020984D03*
G54D15*
X4035450Y467634D03*
X4127940Y433974D03*
X4220430Y400304D03*
G54D16*
X3736210Y578734D03*
Y1791334D03*
X5988180Y1417324D03*
X7216530Y1791334D03*
G54D17*
X5107670Y827074D03*
G54D18*
X6289080Y1768464D03*
G54D10*
X4122800Y3617644D03*
X4135800Y3637644D03*
G54D11*
X6745780Y2676654D03*
Y2719964D03*
G54D12*
Y2763264D03*
X6789080D03*
X6832390D03*
G54D11*
Y2719964D03*
X6789080D03*
Y2676654D03*
X6832390D03*
G54D12*
X6512640Y2429654D03*
X6524640Y2494654D03*
X6692800Y2564644D03*
X6691800Y2582644D03*
X6745800Y2581644D03*
X6752640Y2545654D03*
X6773640D03*
X6662640Y2729654D03*
X6917800Y2727144D03*
Y2708644D03*
Y2745644D03*
X6899800Y2808644D03*
Y2830644D03*
X6818080Y2849484D03*
X6801080Y2859484D03*
X6290030Y2487434D03*
X6307610Y2468954D03*
X6270340Y2504224D03*
X6120080Y2497484D03*
Y2473494D03*
X6119080Y2451964D03*
Y2521494D03*
X6146800Y2574644D03*
X5999080Y2578484D03*
X6014080Y2555484D03*
X5982080Y2599484D03*
X5965080Y2614494D03*
X5867080Y2630494D03*
X5850080Y2617484D03*
X5814080Y2661964D03*
X5794640Y2681654D03*
X5788650Y2705344D03*
X5649080Y2646964D03*
X5662650Y2630394D03*
X5676600Y2614474D03*
X5692450Y2582484D03*
X5710450Y2567484D03*
X5729450Y2551484D03*
X5742450Y2535484D03*
X5758450Y2520484D03*
X5761450Y2493484D03*
X5728800Y2474644D03*
X5800640Y2431654D03*
X5838800Y2435644D03*
X5860800D03*
X5896080Y2451494D03*
X5914800Y2426644D03*
Y2404644D03*
X5979270Y2452284D03*
X6014640Y2436654D03*
X6034080Y2424494D03*
X6053810Y2410764D03*
X6073490Y2400074D03*
X6194080Y2406964D03*
G54D11*
X5796800Y2287644D03*
X5774470D03*
X5752130D03*
X5729800D03*
G54D12*
X5618800Y2459644D03*
X5594080Y2468224D03*
Y2446964D03*
X5603080Y2489114D03*
X5594450Y2598484D03*
X5634450D03*
X5629080Y2661964D03*
X5614080Y2676964D03*
X5599080Y2691964D03*
X5589080Y2711964D03*
X5594080Y2816964D03*
X5417800Y2805644D03*
X5409080Y2824484D03*
X5384080Y2841964D03*
X5383450Y2458964D03*
X5414450D03*
X5399450Y2436964D03*
X5430450D03*
X5454080D03*
X5475800Y2460644D03*
Y2482644D03*
X5351450Y2458964D03*
X5322800Y2451644D03*
X5367450Y2436964D03*
X5252800Y2451644D03*
X5210450Y2436964D03*
X5178450D03*
X5164080Y2458964D03*
X5144080D03*
X5124080D03*
X5194450D03*
X5055650Y2436964D03*
X5032650D03*
X5005450D03*
X4974080D03*
X4989080Y2451964D03*
X4953650Y2447484D03*
X5068150Y2300644D03*
X5048080Y2262494D03*
X5115160Y2323644D03*
X5146150D03*
X5225780Y2292384D03*
X5241530Y2306384D03*
X5257280Y2320384D03*
X5267080Y2268494D03*
X5288770Y2269654D03*
X5320270Y2320384D03*
X5978080Y2730754D03*
X5859080Y2929754D03*
X4779080Y2691964D03*
X4800650Y2652484D03*
X4636080Y2618284D03*
X4598640Y2583654D03*
X4599080Y2519104D03*
X4818450Y2434484D03*
X4843450D03*
X4519080Y2836964D03*
G54D11*
X4107800Y2775644D03*
X4081050D03*
X4054300D03*
G54D12*
X4053160Y2752644D03*
G54D11*
X4027550Y2775644D03*
X3963670Y3237574D03*
X3969670Y3266574D03*
X3997670Y3299574D03*
X4026670Y3329574D03*
X4057670Y3359574D03*
G54D12*
X4102330Y3317834D03*
X4126450Y3338484D03*
X4147260Y3361994D03*
X4169510Y3384294D03*
X4190720Y3407614D03*
X4248550Y3376694D03*
X4291200Y3416614D03*
X4293250Y3460984D03*
X4314470Y3439774D03*
X4303490Y3517554D03*
X4325070Y3540524D03*
X4346630Y3563514D03*
X4369950Y3584724D03*
X4386180Y3603804D03*
X4422915Y3638721D03*
X4457670Y3661574D03*
X4468180Y3594954D03*
X4491450Y3572794D03*
X4428710Y3552234D03*
X4402450Y3526484D03*
X4268670Y3497574D03*
X4282670Y3632574D03*
G54D11*
X4280670Y3669574D03*
X4310670Y3698574D03*
X4339670Y3728574D03*
X4370670Y3758574D03*
G54D12*
X4369670Y3819574D03*
G54D11*
X4303800Y3834644D03*
X4281130D03*
Y3812644D03*
X4258470D03*
Y3834644D03*
G54D12*
X4243160Y3959644D03*
Y4004644D03*
X4399650Y3989394D03*
Y3954394D03*
G54D11*
X4447870Y3776134D03*
G54D12*
X4471530Y3771614D03*
G54D11*
X4493710Y3771514D03*
X4616800Y3780644D03*
X4647300D03*
X4677800D03*
X4867800D03*
X4889800D03*
X4911800D03*
G54D12*
X4924080Y3386964D03*
X4870450Y3349484D03*
X4755670Y3266574D03*
X4900650Y3136394D03*
X4519450Y3006484D03*
X4341100Y3123654D03*
X4351070Y3158184D03*
X4373350Y3180454D03*
X4395610Y3202724D03*
X4404450Y3261794D03*
X4484700Y3291814D03*
X4508670Y3312574D03*
X4529240Y3336354D03*
X4551350Y3358794D03*
X4573780Y3380894D03*
X4596060Y3403164D03*
X4618320Y3425434D03*
X4639740Y3448564D03*
X4624090Y3483424D03*
X4491670Y3440574D03*
X4515990Y3415024D03*
X4470030Y3371574D03*
X4433670Y3386574D03*
X4364260Y3339574D03*
X4317050Y3341954D03*
X4321090Y3320324D03*
X4306530Y3113644D03*
X4098670Y3432574D03*
G54D11*
X4067670Y3469574D03*
X4101670Y3501574D03*
X4131670Y3531574D03*
G54D12*
X4148650Y3575394D03*
X4190550Y3624694D03*
X4246670Y3697574D03*
G54D11*
X3847800Y3618644D03*
Y3594104D03*
Y3569564D03*
Y3545034D03*
Y3520494D03*
Y3495954D03*
Y3471414D03*
Y3446874D03*
Y3422334D03*
X3869800Y3422644D03*
X3891800D03*
X3847800Y3397804D03*
Y3373264D03*
Y3348724D03*
Y3324184D03*
Y3299644D03*
Y3275644D03*
G54D12*
X3888670Y3287574D03*
X3914080Y3349484D03*
X3923670Y3372574D03*
X3953670Y3402574D03*
X3983670Y3432574D03*
X5210800Y3386644D03*
X5235630Y3382654D03*
X5227630Y3336654D03*
X5210640Y3321654D03*
X5209080Y3271964D03*
X5228650Y3278484D03*
X5375650Y3334394D03*
X5382650Y3429394D03*
X5360630Y3429654D03*
X5405650Y3429484D03*
X5453650Y3429394D03*
X5476650D03*
X5498650D03*
X5546650Y3429484D03*
X5578650Y3424484D03*
Y3446484D03*
X5577650Y3467484D03*
X5607160Y3474644D03*
Y3496844D03*
Y3519044D03*
Y3541244D03*
Y3563444D03*
Y3585644D03*
X5693160Y3588394D03*
X5693650Y3568394D03*
Y3548394D03*
Y3528394D03*
Y3608394D03*
Y3631394D03*
X5692650Y3701394D03*
Y3750394D03*
Y3771394D03*
Y3793394D03*
Y3816394D03*
X5707150Y3862144D03*
Y3883644D03*
Y3905144D03*
X5678160Y3891644D03*
X5585650Y3903394D03*
Y3871394D03*
Y3839394D03*
X5550640Y3845654D03*
X5565650Y3790394D03*
X5585650Y3783394D03*
Y3762394D03*
Y3742394D03*
Y3722394D03*
X5565650Y3717394D03*
X5550150Y3703394D03*
Y3735644D03*
X5565650Y3753894D03*
X5550150Y3769644D03*
X5595150Y3688644D03*
X5581650Y3672394D03*
X5567750Y3656294D03*
X5508650Y3562394D03*
X5469650Y3577394D03*
X5466160Y3603644D03*
X5454180Y3561864D03*
X5418630D03*
X5386640Y3576654D03*
X5408630Y3610654D03*
X5386150Y3657644D03*
X5399150Y3673644D03*
X5386150Y3690644D03*
X5366150Y3699644D03*
X5399150Y3708394D03*
X5379800Y3797644D03*
X5329800Y3804654D03*
Y3765124D03*
Y3849644D03*
Y3870154D03*
Y3890654D03*
Y3929494D03*
X5370630Y3961654D03*
X5393630D03*
X5396640Y3908264D03*
Y3876654D03*
X5379800Y3864644D03*
Y3892394D03*
X5462800Y3962644D03*
X5225640Y3935654D03*
Y3912154D03*
X5224630Y3888654D03*
X5201800Y3899654D03*
Y3874644D03*
Y3924654D03*
X5224630Y3837654D03*
Y3806654D03*
Y3785884D03*
Y3765124D03*
X5104150Y3780644D03*
Y3802644D03*
X5118640Y3831654D03*
X5143630D03*
X5077630Y3784654D03*
G54D11*
X4955800Y3780644D03*
X4933800D03*
G54D12*
X5032640Y3912654D03*
X5062640Y3935654D03*
G54D11*
X5280540Y3593704D03*
X5280630Y3509534D03*
X5280670Y3467574D03*
G54D12*
X5288630Y3428654D03*
X5324080Y3161964D03*
X5339800Y3175644D03*
X5408650Y3151484D03*
X5409080Y3124484D03*
X5594080Y3086964D03*
X5581050Y3023924D03*
X5544800Y3237644D03*
X5548800Y3271644D03*
X5568800Y3277644D03*
X5580650Y3294484D03*
X5601650Y3301484D03*
G54D11*
X5823640Y3497654D03*
G54D12*
X6014640Y3462654D03*
Y3560654D03*
X6033800Y3610644D03*
X6109080Y3586394D03*
X6108650Y3568394D03*
X6149080Y3570644D03*
X6164080D03*
X6179160D03*
X6195150D03*
X6164080Y3601964D03*
X6130050Y3684644D03*
X6131160Y3701644D03*
X6146160Y3708644D03*
X6141160Y3733644D03*
X6125150D03*
X6134150Y3749644D03*
X6132160Y3776334D03*
X6134080Y3826964D03*
X6029640Y3845964D03*
X6026210Y3761964D03*
X6064800Y3526644D03*
X6085300D03*
X6084800Y3507644D03*
X6105800D03*
Y3526644D03*
X6196160Y3433644D03*
X6213150D03*
X6231150D03*
X6226150Y3361644D03*
X6245150D03*
X6253160Y3343644D03*
X6236150D03*
X6219160D03*
X6351630Y3450654D03*
X6313260Y3563934D03*
X6312710Y3579964D03*
X6264150Y3582644D03*
X6257160Y3566644D03*
X6425630Y3599654D03*
X6453650Y3680484D03*
X6474940Y3677814D03*
X6469640Y3697654D03*
X6443160Y3913644D03*
X6454150Y3926644D03*
X6415160Y3915644D03*
X6414160Y3897644D03*
X6379080Y3900344D03*
Y3921964D03*
Y3946964D03*
X6299080Y3891964D03*
X6277150Y3896644D03*
X6244080Y3891964D03*
X6229080D03*
X6161650Y3970394D03*
Y3988394D03*
X5999650Y4070394D03*
G54D11*
X6428930Y4071804D03*
G54D12*
X6325080Y3008494D03*
X5807640Y2999654D03*
G54D11*
X5139080Y3101964D03*
G54D12*
X6688800Y3387644D03*
X6689800Y3414644D03*
X6671640Y3428654D03*
X6725080Y3405094D03*
X6783640Y3434654D03*
X6787160Y3474644D03*
X6751630Y3536654D03*
X6709640Y3529654D03*
X6708640Y3504654D03*
G54D11*
X6868320Y3501124D03*
X6879100Y3642654D03*
G54D12*
X6878100Y3667654D03*
X6877100Y3696654D03*
X6889690Y3752024D03*
X6686640Y3700654D03*
X6646100Y3686654D03*
X6645630Y3719654D03*
X6615100Y3680654D03*
X6585640Y3694654D03*
X6580640Y3586654D03*
X6598630Y3567654D03*
X6562640Y3558654D03*
X6648640Y3615654D03*
X6869120Y4021144D03*
X6934630Y4013654D03*
G54D11*
X6496030Y2297654D03*
X6523800D03*
G54D10*
X6551570D03*
X6579330D03*
X6607100D03*
X6634870D03*
X6662640D03*
X6751630D03*
X6775630D03*
X6800630D03*
X6824640D03*
X6848640D03*
X6872640D03*
X6896630D03*
X6921630D03*
X6945640D03*
X6972630Y2284654D03*
Y2311654D03*
Y2338654D03*
Y2365654D03*
Y2391274D03*
X6999970D03*
X7000440Y2365624D03*
X7027300Y2391274D03*
X7054640D03*
Y2416654D03*
Y2440654D03*
Y2465654D03*
Y2490654D03*
Y2515654D03*
Y2540654D03*
Y2565654D03*
Y2590654D03*
Y2615654D03*
Y2640654D03*
Y2665654D03*
X7041630Y2686654D03*
X7016630D03*
Y2711154D03*
Y2735654D03*
X6997630Y2752654D03*
G54D11*
X6972630D03*
X6968640Y2776654D03*
Y2801654D03*
Y2825654D03*
G54D10*
X6980630Y2847654D03*
G54D11*
Y2871654D03*
X7004630D03*
X7028640D03*
X7052630D03*
X7076640D03*
X7100640D03*
X7139630Y2883654D03*
Y2858424D03*
Y2833194D03*
Y2807964D03*
Y2782734D03*
Y2757504D03*
Y2732274D03*
Y2707034D03*
Y2681804D03*
Y2656574D03*
Y2631344D03*
Y2606114D03*
Y2580884D03*
G54D10*
Y2555654D03*
X7162150Y2545644D03*
X7188160D03*
X7216640Y2545654D03*
X7246640D03*
Y2521654D03*
Y2494654D03*
Y2467654D03*
Y2440654D03*
Y2413654D03*
Y2386654D03*
X7245640Y2354654D03*
G54D11*
Y2325654D03*
X7231640Y2295654D03*
G54D10*
X7211630Y2276654D03*
X7187640Y2259654D03*
X7161640Y2245654D03*
G54D11*
X7129640Y2233654D03*
X7103470D03*
X7077300D03*
X7051140D03*
X7024970D03*
X6998800D03*
X6972630D03*
G54D10*
Y2257654D03*
X7028910Y2465604D03*
G54D11*
X6976640Y2554654D03*
G54D10*
X6957160Y2537644D03*
X6931800Y2514644D03*
G54D11*
X6906800D03*
G54D10*
Y2487644D03*
G54D11*
X6770630Y2488654D03*
X6746640D03*
G54D10*
X6694150Y2488644D03*
X6670160D03*
X6646160D03*
G54D11*
X6645800Y2512644D03*
X6669800D03*
X6693800D03*
X6621160Y2488644D03*
X6589800Y2556644D03*
X6565080D03*
X6564800Y2580644D03*
X6588800D03*
X6540100Y2561654D03*
X6518100D03*
X6523630Y2596654D03*
X6544160Y2618644D03*
X6543640Y2669654D03*
Y2704654D03*
X6521800Y2748644D03*
X6543640Y2774654D03*
Y2809654D03*
G54D10*
X6551630Y2904644D03*
X6527150D03*
Y2930314D03*
X6551800D03*
X6527150Y2954984D03*
X6586160Y2904644D03*
X6610150D03*
X6636650D03*
Y2930314D03*
Y2957274D03*
Y2878654D03*
G54D11*
X6660160Y2864644D03*
X6683160D03*
X6873640Y2844654D03*
X6925630Y2856654D03*
Y2880654D03*
Y2905654D03*
X6910150Y2930644D03*
X6949160Y2929644D03*
G54D10*
X7010150Y2931644D03*
X7034160Y2930644D03*
X7058160D03*
X7130100Y2923654D03*
Y2946654D03*
X7155100Y2922654D03*
X7179100Y2909654D03*
X7202150Y2897644D03*
X7226160D03*
X7250150D03*
G54D11*
X6933630Y2830654D03*
Y2805654D03*
X6919630Y2785654D03*
X6503640Y2318654D03*
X6486630Y2338654D03*
X6469640Y2297654D03*
X6443630D03*
X6423160Y2431644D03*
X6387640Y2503654D03*
X6386640Y2549654D03*
X6424640Y2566654D03*
X6441640Y2592654D03*
G54D10*
X6436150Y2872644D03*
Y2895644D03*
G54D11*
X6407630Y2847654D03*
X5988800Y2952644D03*
X5400450Y2929484D03*
X5246650Y2893194D03*
Y2867094D03*
Y2840994D03*
Y2814894D03*
Y2788794D03*
Y2762694D03*
Y2736594D03*
G54D10*
X5196550Y2659644D03*
X5170450D03*
X5144350D03*
X5118250D03*
X5092150D03*
X5066050D03*
X5039950D03*
X5013850D03*
X4988150D03*
X4975150Y2681394D03*
X4950650D03*
Y2709974D03*
X4975150D03*
Y2738564D03*
X4950650D03*
Y2767144D03*
X4975150D03*
Y2795724D03*
X4950650D03*
Y2824314D03*
X4975150D03*
Y2852894D03*
X4950650D03*
Y2881474D03*
X4975150D03*
Y2910064D03*
X4950650D03*
G54D11*
Y2938644D03*
G54D10*
X4975150D03*
X5005050D03*
X5034250D03*
X5063450D03*
G54D11*
X5090150D03*
X5669640Y2306654D03*
X6115630Y2403654D03*
X4273630Y2437654D03*
X4470160Y2638644D03*
X4277670Y3727574D03*
X4306670Y3757574D03*
X4336670Y3787574D03*
X5096020Y3361494D03*
X5384080Y3281964D03*
X5412650Y3285394D03*
X5699160Y3082644D03*
G54D10*
X6329650Y3211394D03*
G54D11*
X6407080Y3233484D03*
X6441080Y3237494D03*
X6449080Y3202484D03*
X6489650Y3218484D03*
X6433640Y3133654D03*
X6364080Y2969484D03*
X6451450Y3745484D03*
X6471450Y3746084D03*
X6694630Y3239654D03*
X6750950Y3251344D03*
G54D10*
X6749840Y3010654D03*
X6723240D03*
X6696630D03*
X6660640D03*
X6636630D03*
X6636650Y2983464D03*
X6626160Y3034644D03*
X6600160D03*
X6575150D03*
X6543160Y2998644D03*
X6527150Y2979644D03*
X6776450Y3010654D03*
X6803050D03*
X6829650D03*
X6855630Y3018654D03*
X6855650Y2994394D03*
Y2967654D03*
X6855630Y3044654D03*
X6877630Y3059654D03*
X6968150Y3065644D03*
X6993630D03*
Y3040154D03*
Y3014654D03*
X6979630Y2992654D03*
X6980190Y2967654D03*
X7005100D03*
X7030000D03*
X7054910D03*
X7079820Y2968654D03*
X7104730Y2967654D03*
X7129640D03*
X6822640Y2484654D03*
X6652630Y2804654D03*
X6549600Y2842924D03*
X7244800Y2932644D03*
Y2963644D03*
X6298800Y2653644D03*
Y2625644D03*
X6266800Y2624644D03*
Y2653644D03*
X6285160Y2239644D03*
X6314660D03*
X6344160D03*
X6244610Y2233644D03*
X6211510D03*
X6178420D03*
X6145320D03*
X6112230D03*
X6079130D03*
X6046040D03*
X6012940D03*
X5979850D03*
X5946750D03*
X5913660D03*
X5880560D03*
X5847470D03*
X5814370D03*
X5781280D03*
X5748180D03*
X5715090D03*
X5681990D03*
X5648900D03*
X5615800D03*
X5447800Y2232644D03*
X5417470D03*
X5387130D03*
X5356800D03*
X5181800Y2236644D03*
X5153800D03*
X5125800D03*
X5097800D03*
X4978770Y2281784D03*
X6087630Y2286654D03*
X6120050D03*
X6152480D03*
X6184890D03*
X5971080Y2419484D03*
X4926790Y2236364D03*
X4898460D03*
X4870120D03*
X4841790D03*
X4849630Y2279654D03*
X4668800Y2247644D03*
X4639800D03*
X4622630Y2279654D03*
X4477220Y2256934D03*
X4292640Y2567654D03*
X4249920Y2566934D03*
X4237630Y2542654D03*
X4092080Y2472494D03*
X3998150Y2312644D03*
X3961160D03*
X3820380Y2240634D03*
X3784800Y2249644D03*
X3757800Y2267644D03*
X3735800Y2288644D03*
X3722640Y2318654D03*
X3722620Y2349914D03*
Y2378914D03*
Y2407914D03*
Y2436914D03*
Y2465914D03*
X3845640Y2554654D03*
X3845620Y2585914D03*
Y2614914D03*
Y2643914D03*
Y2672914D03*
Y2701914D03*
X3817080Y2890754D03*
X3784080Y2916574D03*
Y2953114D03*
X4756160Y2597644D03*
Y2570644D03*
X3784080Y2989654D03*
Y3026194D03*
Y3062734D03*
Y3099264D03*
X3813800Y3654644D03*
Y3687244D03*
Y3719844D03*
Y3752444D03*
Y3785044D03*
Y3817644D03*
X3731620Y3844654D03*
Y3875914D03*
Y3904914D03*
Y3933914D03*
Y3962914D03*
Y3991914D03*
X3817630Y4064674D03*
X3848890D03*
X3877890D03*
X3906890D03*
X3935900D03*
X3964900D03*
X3922650Y3750394D03*
X3991650Y3686394D03*
X4056900Y3729524D03*
X4057840Y3758154D03*
X4021650Y3576394D03*
X3993080Y3561964D03*
X3956150Y3559644D03*
X3988150Y3525644D03*
X4205650Y3830394D03*
X4339630Y4064674D03*
X4370890D03*
X4399900D03*
X4428900D03*
X4457900D03*
X4486890D03*
X5129640Y3870654D03*
X5092630Y3832654D03*
X5387650Y3823394D03*
X5585650Y3806394D03*
X5716650Y3703394D03*
X5741640Y3901654D03*
X5969710Y3906164D03*
X5983800Y3104644D03*
X5904640Y3150654D03*
X6187650Y3098484D03*
X6430630Y3093654D03*
X6430800Y3065644D03*
X6460800D03*
X6460640Y3093654D03*
X6490630Y3094654D03*
Y3066654D03*
X6672640Y3091654D03*
X6702640D03*
X6611630Y3212654D03*
X6612640Y3240654D03*
X6605810Y3336654D03*
X6599640Y3371654D03*
X6570620D03*
X6538650Y3332484D03*
X6821630Y3285654D03*
X6913100Y3211654D03*
X6943100D03*
X6973100D03*
X7058800Y3155644D03*
Y3125644D03*
Y3095644D03*
Y3065644D03*
Y3035644D03*
X7129800Y2994644D03*
X7168130D03*
X7206470D03*
X7244800D03*
X7222630Y3426654D03*
X7125630Y3450654D03*
Y3494154D03*
Y3537654D03*
X7147800Y3798644D03*
X7178800Y3823644D03*
Y3852644D03*
Y3881644D03*
X7051640Y3945654D03*
X7053370Y4065674D03*
X7084180D03*
X7114990D03*
X7145800D03*
X7022560D03*
X6991740D03*
X6960930D03*
X6930120D03*
X6899310D03*
X6868500D03*
X6837690D03*
X6806880D03*
X6776070D03*
X6745260D03*
X6714450D03*
X6683640D03*
X6685030Y3932064D03*
X6715520D03*
X6766970Y4002324D03*
X6806640Y4005654D03*
X6821630Y3845654D03*
X6857260Y3801204D03*
X6875100Y3454654D03*
X6874800Y3426644D03*
X6875800Y3398644D03*
G54D13*
X4759080Y2866964D03*
Y3006964D03*
X4792670Y3160484D03*
X4989450D03*
X4952450Y3109484D03*
X5099450Y3160484D03*
X5291450Y3273484D03*
X5283210Y3550034D03*
X5274500Y3634834D03*
X5384080Y3029484D03*
X5404080Y3014484D03*
G54D14*
X6885640Y2394654D03*
X7012630Y2540654D03*
X6171920Y2439794D03*
X5880080Y2297494D03*
X5832800Y2958644D03*
X5797800D03*
X5401150Y2762884D03*
X5130800Y2947644D03*
X5089080Y2446964D03*
X5016800Y2276644D03*
X4372800Y2261644D03*
X4330300D03*
X4287800D03*
Y2305644D03*
X4330300D03*
X4287800Y2348644D03*
X4399630Y2451654D03*
X4431630D03*
X4596150Y2677884D03*
X4076630Y2667654D03*
X3932630Y2856654D03*
X4112080Y2261964D03*
X4194990Y3676154D03*
X4221650Y3650974D03*
X4471080Y3803964D03*
X4495010Y3869214D03*
X4522640Y3843654D03*
X4585210Y3918534D03*
X4566650Y3946394D03*
X4560080Y4024964D03*
X4498630Y4012654D03*
X4787650Y4034394D03*
X3984650Y3855484D03*
X3946080Y3856964D03*
X5024630Y3981654D03*
X5063630D03*
Y4023654D03*
X5023630D03*
X5567640Y3955654D03*
X5804120Y3923654D03*
X5804640Y3888654D03*
X5940150Y3875644D03*
X5974160Y3874644D03*
X6027150Y3886644D03*
X6028650Y3927394D03*
X6060650D03*
X6144080Y3929484D03*
X5941160Y3910644D03*
X5871640Y3756654D03*
X5861800Y3672644D03*
X5896800Y3673644D03*
X5897800Y3636644D03*
X5862800D03*
X5773630Y3680654D03*
X5598640Y3243654D03*
X5423650Y2967884D03*
X5391650Y2967394D03*
X5130800Y2988644D03*
X5129800Y3031644D03*
X5199400Y3116644D03*
X5903630Y3079654D03*
X6104800Y3065644D03*
X6140800D03*
X6129150Y3312644D03*
X6099160Y3313644D03*
X6059630Y3270654D03*
X6364080Y3249484D03*
X6507640Y3285654D03*
X6635650Y3989484D03*
G54D15*
X4035450Y2436134D03*
X4127940Y2402474D03*
X4220430Y2368804D03*
G54D16*
X3736210Y2547234D03*
Y3759834D03*
X5988180Y3385824D03*
X7216530Y3759834D03*
G54D17*
X5107670Y2795574D03*
G54D18*
X6289080Y3736964D03*
G54D10*
X4122800Y5586145D03*
X4135800Y5606145D03*
G54D11*
X6745780Y4645155D03*
Y4688465D03*
G54D12*
Y4731765D03*
X6789080D03*
X6832390D03*
G54D11*
Y4688465D03*
X6789080D03*
Y4645155D03*
X6832390D03*
G54D12*
X6512640Y4398155D03*
X6524640Y4463155D03*
X6692800Y4533145D03*
X6691800Y4551145D03*
X6745800Y4550145D03*
X6752640Y4514155D03*
X6773640D03*
X6662640Y4698155D03*
X6917800Y4695645D03*
Y4677145D03*
Y4714145D03*
X6899800Y4777145D03*
Y4799145D03*
X6818080Y4817985D03*
X6801080Y4827985D03*
X6290030Y4455935D03*
X6307610Y4437455D03*
X6270340Y4472725D03*
X6120080Y4465985D03*
Y4441995D03*
X6119080Y4420465D03*
Y4489995D03*
X6146800Y4543145D03*
X5999080Y4546985D03*
X6014080Y4523985D03*
X5982080Y4567985D03*
X5965080Y4582995D03*
X5867080Y4598995D03*
X5850080Y4585985D03*
X5814080Y4630465D03*
X5794640Y4650155D03*
X5788650Y4673845D03*
X5649080Y4615465D03*
X5662650Y4598895D03*
X5676600Y4582975D03*
X5692450Y4550985D03*
X5710450Y4535985D03*
X5729450Y4519985D03*
X5742450Y4503985D03*
X5758450Y4488985D03*
X5761450Y4461985D03*
X5728800Y4443145D03*
X5800640Y4400155D03*
X5838800Y4404145D03*
X5860800D03*
X5896080Y4419995D03*
X5914800Y4395145D03*
Y4373145D03*
X5979270Y4420785D03*
X6014640Y4405155D03*
X6034080Y4392995D03*
X6053810Y4379265D03*
X6073490Y4368575D03*
X6194080Y4375465D03*
G54D11*
X5796800Y4256145D03*
X5774470D03*
X5752130D03*
X5729800D03*
G54D12*
X5618800Y4428145D03*
X5594080Y4436725D03*
Y4415465D03*
X5603080Y4457615D03*
X5594450Y4566985D03*
X5634450D03*
X5629080Y4630465D03*
X5614080Y4645465D03*
X5599080Y4660465D03*
X5589080Y4680465D03*
X5594080Y4785465D03*
X5417800Y4774145D03*
X5409080Y4792985D03*
X5384080Y4810465D03*
X5383450Y4427465D03*
X5414450D03*
X5399450Y4405465D03*
X5430450D03*
X5454080D03*
X5475800Y4429145D03*
Y4451145D03*
X5351450Y4427465D03*
X5322800Y4420145D03*
X5367450Y4405465D03*
X5252800Y4420145D03*
X5210450Y4405465D03*
X5178450D03*
X5164080Y4427465D03*
X5144080D03*
X5124080D03*
X5194450D03*
X5055650Y4405465D03*
X5032650D03*
X5005450D03*
X4974080D03*
X4989080Y4420465D03*
X4953650Y4415985D03*
X5068150Y4269145D03*
X5048080Y4230995D03*
X5115160Y4292145D03*
X5146150D03*
X5225780Y4260885D03*
X5241530Y4274885D03*
X5257280Y4288885D03*
X5267080Y4236995D03*
X5288770Y4238155D03*
X5320270Y4288885D03*
X5978080Y4699255D03*
X5859080Y4898255D03*
X4779080Y4660465D03*
X4800650Y4620985D03*
X4636080Y4586785D03*
X4598640Y4552155D03*
X4599080Y4487605D03*
X4818450Y4402985D03*
X4843450D03*
X4519080Y4805465D03*
G54D11*
X4107800Y4744145D03*
X4081050D03*
X4054300D03*
G54D12*
X4053160Y4721145D03*
G54D11*
X4027550Y4744145D03*
X3963670Y5206075D03*
X3969670Y5235075D03*
X3997670Y5268075D03*
X4026670Y5298075D03*
X4057670Y5328075D03*
G54D12*
X4102330Y5286335D03*
X4126450Y5306985D03*
X4147260Y5330495D03*
X4169510Y5352795D03*
X4190720Y5376115D03*
X4248550Y5345195D03*
X4291200Y5385115D03*
X4293250Y5429485D03*
X4314470Y5408275D03*
X4303490Y5486055D03*
X4325070Y5509025D03*
X4346630Y5532015D03*
X4369950Y5553225D03*
X4386180Y5572305D03*
X4422915Y5607221D03*
X4457670Y5630075D03*
X4468180Y5563455D03*
X4491450Y5541295D03*
X4428710Y5520735D03*
X4402450Y5494985D03*
X4268670Y5466075D03*
X4282670Y5601075D03*
G54D11*
X4280670Y5638075D03*
X4310670Y5667075D03*
X4339670Y5697075D03*
X4370670Y5727075D03*
G54D12*
X4369670Y5788075D03*
G54D11*
X4303800Y5803145D03*
X4281130D03*
Y5781145D03*
X4258470D03*
Y5803145D03*
G54D12*
X4243160Y5928145D03*
Y5973145D03*
X4399650Y5957895D03*
Y5922895D03*
G54D11*
X4447870Y5744635D03*
G54D12*
X4471530Y5740115D03*
G54D11*
X4493710Y5740015D03*
X4616800Y5749145D03*
X4647300D03*
X4677800D03*
X4867800D03*
X4889800D03*
X4911800D03*
G54D12*
X4924080Y5355465D03*
X4870450Y5317985D03*
X4755670Y5235075D03*
X4900650Y5104895D03*
X4519450Y4974985D03*
X4341100Y5092155D03*
X4351070Y5126685D03*
X4373350Y5148955D03*
X4395610Y5171225D03*
X4404450Y5230295D03*
X4484700Y5260315D03*
X4508670Y5281075D03*
X4529240Y5304855D03*
X4551350Y5327295D03*
X4573780Y5349395D03*
X4596060Y5371665D03*
X4618320Y5393935D03*
X4639740Y5417065D03*
X4624090Y5451925D03*
X4491670Y5409075D03*
X4515990Y5383525D03*
X4470030Y5340075D03*
X4433670Y5355075D03*
X4364260Y5308075D03*
X4317050Y5310455D03*
X4321090Y5288825D03*
X4306530Y5082145D03*
X4098670Y5401075D03*
G54D11*
X4067670Y5438075D03*
X4101670Y5470075D03*
X4131670Y5500075D03*
G54D12*
X4148650Y5543895D03*
X4190550Y5593195D03*
X4246670Y5666075D03*
G54D11*
X3847800Y5587145D03*
Y5562605D03*
Y5538065D03*
Y5513535D03*
Y5488995D03*
Y5464455D03*
Y5439915D03*
Y5415375D03*
Y5390835D03*
X3869800Y5391145D03*
X3891800D03*
X3847800Y5366305D03*
Y5341765D03*
Y5317225D03*
Y5292685D03*
Y5268145D03*
Y5244145D03*
G54D12*
X3888670Y5256075D03*
X3914080Y5317985D03*
X3923670Y5341075D03*
X3953670Y5371075D03*
X3983670Y5401075D03*
X5210800Y5355145D03*
X5235630Y5351155D03*
X5227630Y5305155D03*
X5210640Y5290155D03*
X5209080Y5240465D03*
X5228650Y5246985D03*
X5375650Y5302895D03*
X5382650Y5397895D03*
X5360630Y5398155D03*
X5405650Y5397985D03*
X5453650Y5397895D03*
X5476650D03*
X5498650D03*
X5546650Y5397985D03*
X5578650Y5392985D03*
Y5414985D03*
X5577650Y5435985D03*
X5607160Y5443145D03*
Y5465345D03*
Y5487545D03*
Y5509745D03*
Y5531945D03*
Y5554145D03*
X5693160Y5556895D03*
X5693650Y5536895D03*
Y5516895D03*
Y5496895D03*
Y5576895D03*
Y5599895D03*
X5692650Y5669895D03*
Y5718895D03*
Y5739895D03*
Y5761895D03*
Y5784895D03*
X5707150Y5830645D03*
Y5852145D03*
Y5873645D03*
X5678160Y5860145D03*
X5585650Y5871895D03*
Y5839895D03*
Y5807895D03*
X5550640Y5814155D03*
X5565650Y5758895D03*
X5585650Y5751895D03*
Y5730895D03*
Y5710895D03*
Y5690895D03*
X5565650Y5685895D03*
X5550150Y5671895D03*
Y5704145D03*
X5565650Y5722395D03*
X5550150Y5738145D03*
X5595150Y5657145D03*
X5581650Y5640895D03*
X5567750Y5624795D03*
X5508650Y5530895D03*
X5469650Y5545895D03*
X5466160Y5572145D03*
X5454180Y5530365D03*
X5418630D03*
X5386640Y5545155D03*
X5408630Y5579155D03*
X5386150Y5626145D03*
X5399150Y5642145D03*
X5386150Y5659145D03*
X5366150Y5668145D03*
X5399150Y5676895D03*
X5379800Y5766145D03*
X5329800Y5773155D03*
Y5733625D03*
Y5818145D03*
Y5838655D03*
Y5859155D03*
Y5897995D03*
X5370630Y5930155D03*
X5393630D03*
X5396640Y5876765D03*
Y5845155D03*
X5379800Y5833145D03*
Y5860895D03*
X5462800Y5931145D03*
X5225640Y5904155D03*
Y5880655D03*
X5224630Y5857155D03*
X5201800Y5868155D03*
Y5843145D03*
Y5893155D03*
X5224630Y5806155D03*
Y5775155D03*
Y5754385D03*
Y5733625D03*
X5104150Y5749145D03*
Y5771145D03*
X5118640Y5800155D03*
X5143630D03*
X5077630Y5753155D03*
G54D11*
X4955800Y5749145D03*
X4933800D03*
G54D12*
X5032640Y5881155D03*
X5062640Y5904155D03*
G54D11*
X5280540Y5562205D03*
X5280630Y5478035D03*
X5280670Y5436075D03*
G54D12*
X5288630Y5397155D03*
X5324080Y5130465D03*
X5339800Y5144145D03*
X5408650Y5119985D03*
X5409080Y5092985D03*
X5594080Y5055465D03*
X5581050Y4992425D03*
X5544800Y5206145D03*
X5548800Y5240145D03*
X5568800Y5246145D03*
X5580650Y5262985D03*
X5601650Y5269985D03*
G54D11*
X5823640Y5466155D03*
G54D12*
X6014640Y5431155D03*
Y5529155D03*
X6033800Y5579145D03*
X6109080Y5554895D03*
X6108650Y5536895D03*
X6149080Y5539145D03*
X6164080D03*
X6179160D03*
X6195150D03*
X6164080Y5570465D03*
X6130050Y5653145D03*
X6131160Y5670145D03*
X6146160Y5677145D03*
X6141160Y5702145D03*
X6125150D03*
X6134150Y5718145D03*
X6132160Y5744835D03*
X6134080Y5795465D03*
X6029640Y5814465D03*
X6026210Y5730465D03*
X6064800Y5495145D03*
X6085300D03*
X6084800Y5476145D03*
X6105800D03*
Y5495145D03*
X6196160Y5402145D03*
X6213150D03*
X6231150D03*
X6226150Y5330145D03*
X6245150D03*
X6253160Y5312145D03*
X6236150D03*
X6219160D03*
X6351630Y5419155D03*
X6313260Y5532435D03*
X6312710Y5548465D03*
X6264150Y5551145D03*
X6257160Y5535145D03*
X6425630Y5568155D03*
X6453650Y5648985D03*
X6474940Y5646315D03*
X6469640Y5666155D03*
X6443160Y5882145D03*
X6454150Y5895145D03*
X6415160Y5884145D03*
X6414160Y5866145D03*
X6379080Y5868845D03*
Y5890465D03*
Y5915465D03*
X6299080Y5860465D03*
X6277150Y5865145D03*
X6244080Y5860465D03*
X6229080D03*
X6161650Y5938895D03*
Y5956895D03*
X5999650Y6038895D03*
G54D11*
X6428930Y6040305D03*
G54D12*
X6325080Y4976995D03*
X5807640Y4968155D03*
G54D11*
X5139080Y5070465D03*
G54D12*
X6688800Y5356145D03*
X6689800Y5383145D03*
X6671640Y5397155D03*
X6725080Y5373595D03*
X6783640Y5403155D03*
X6787160Y5443145D03*
X6751630Y5505155D03*
X6709640Y5498155D03*
X6708640Y5473155D03*
G54D11*
X6868320Y5469625D03*
X6879100Y5611155D03*
G54D12*
X6878100Y5636155D03*
X6877100Y5665155D03*
X6889690Y5720525D03*
X6686640Y5669155D03*
X6646100Y5655155D03*
X6645630Y5688155D03*
X6615100Y5649155D03*
X6585640Y5663155D03*
X6580640Y5555155D03*
X6598630Y5536155D03*
X6562640Y5527155D03*
X6648640Y5584155D03*
X6869120Y5989645D03*
X6934630Y5982155D03*
G54D11*
X6496030Y4266155D03*
X6523800D03*
G54D10*
X6551570D03*
X6579330D03*
X6607100D03*
X6634870D03*
X6662640D03*
X6751630D03*
X6775630D03*
X6800630D03*
X6824640D03*
X6848640D03*
X6872640D03*
X6896630D03*
X6921630D03*
X6945640D03*
X6972630Y4253155D03*
Y4280155D03*
Y4307155D03*
Y4334155D03*
Y4359775D03*
X6999970D03*
X7000440Y4334125D03*
X7027300Y4359775D03*
X7054640D03*
Y4385155D03*
Y4409155D03*
Y4434155D03*
Y4459155D03*
Y4484155D03*
Y4509155D03*
Y4534155D03*
Y4559155D03*
Y4584155D03*
Y4609155D03*
Y4634155D03*
X7041630Y4655155D03*
X7016630D03*
Y4679655D03*
Y4704155D03*
X6997630Y4721155D03*
G54D11*
X6972630D03*
X6968640Y4745155D03*
Y4770155D03*
Y4794155D03*
G54D10*
X6980630Y4816155D03*
G54D11*
Y4840155D03*
X7004630D03*
X7028640D03*
X7052630D03*
X7076640D03*
X7100640D03*
X7139630Y4852155D03*
Y4826925D03*
Y4801695D03*
Y4776465D03*
Y4751235D03*
Y4726005D03*
Y4700775D03*
Y4675535D03*
Y4650305D03*
Y4625075D03*
Y4599845D03*
Y4574615D03*
Y4549385D03*
G54D10*
Y4524155D03*
X7162150Y4514145D03*
X7188160D03*
X7216640Y4514155D03*
X7246640D03*
Y4490155D03*
Y4463155D03*
Y4436155D03*
Y4409155D03*
Y4382155D03*
Y4355155D03*
X7245640Y4323155D03*
G54D11*
Y4294155D03*
X7231640Y4264155D03*
G54D10*
X7211630Y4245155D03*
X7187640Y4228155D03*
X7161640Y4214155D03*
G54D11*
X7129640Y4202155D03*
X7103470D03*
X7077300D03*
X7051140D03*
X7024970D03*
X6998800D03*
X6972630D03*
G54D10*
Y4226155D03*
X7028910Y4434105D03*
G54D11*
X6976640Y4523155D03*
G54D10*
X6957160Y4506145D03*
X6931800Y4483145D03*
G54D11*
X6906800D03*
G54D10*
Y4456145D03*
G54D11*
X6770630Y4457155D03*
X6746640D03*
G54D10*
X6694150Y4457145D03*
X6670160D03*
X6646160D03*
G54D11*
X6645800Y4481145D03*
X6669800D03*
X6693800D03*
X6621160Y4457145D03*
X6589800Y4525145D03*
X6565080D03*
X6564800Y4549145D03*
X6588800D03*
X6540100Y4530155D03*
X6518100D03*
X6523630Y4565155D03*
X6544160Y4587145D03*
X6543640Y4638155D03*
Y4673155D03*
X6521800Y4717145D03*
X6543640Y4743155D03*
Y4778155D03*
G54D10*
X6551630Y4873145D03*
X6527150D03*
Y4898815D03*
X6551800D03*
X6527150Y4923485D03*
X6586160Y4873145D03*
X6610150D03*
X6636650D03*
Y4898815D03*
Y4925775D03*
Y4847155D03*
G54D11*
X6660160Y4833145D03*
X6683160D03*
X6873640Y4813155D03*
X6925630Y4825155D03*
Y4849155D03*
Y4874155D03*
X6910150Y4899145D03*
X6949160Y4898145D03*
G54D10*
X7010150Y4900145D03*
X7034160Y4899145D03*
X7058160D03*
X7130100Y4892155D03*
Y4915155D03*
X7155100Y4891155D03*
X7179100Y4878155D03*
X7202150Y4866145D03*
X7226160D03*
X7250150D03*
G54D11*
X6933630Y4799155D03*
Y4774155D03*
X6919630Y4754155D03*
X6503640Y4287155D03*
X6486630Y4307155D03*
X6469640Y4266155D03*
X6443630D03*
X6423160Y4400145D03*
X6387640Y4472155D03*
X6386640Y4518155D03*
X6424640Y4535155D03*
X6441640Y4561155D03*
G54D10*
X6436150Y4841145D03*
Y4864145D03*
G54D11*
X6407630Y4816155D03*
X5988800Y4921145D03*
X5400450Y4897985D03*
X5246650Y4861695D03*
Y4835595D03*
Y4809495D03*
Y4783395D03*
Y4757295D03*
Y4731195D03*
Y4705095D03*
G54D10*
X5196550Y4628145D03*
X5170450D03*
X5144350D03*
X5118250D03*
X5092150D03*
X5066050D03*
X5039950D03*
X5013850D03*
X4988150D03*
X4975150Y4649895D03*
X4950650D03*
Y4678475D03*
X4975150D03*
Y4707065D03*
X4950650D03*
Y4735645D03*
X4975150D03*
Y4764225D03*
X4950650D03*
Y4792815D03*
X4975150D03*
Y4821395D03*
X4950650D03*
Y4849975D03*
X4975150D03*
Y4878565D03*
X4950650D03*
G54D11*
Y4907145D03*
G54D10*
X4975150D03*
X5005050D03*
X5034250D03*
X5063450D03*
G54D11*
X5090150D03*
X5669640Y4275155D03*
X6115630Y4372155D03*
X4273630Y4406155D03*
X4470160Y4607145D03*
X4277670Y5696075D03*
X4306670Y5726075D03*
X4336670Y5756075D03*
X5096020Y5329995D03*
X5384080Y5250465D03*
X5412650Y5253895D03*
X5699160Y5051145D03*
G54D10*
X6329650Y5179895D03*
G54D11*
X6407080Y5201985D03*
X6441080Y5205995D03*
X6449080Y5170985D03*
X6489650Y5186985D03*
X6433640Y5102155D03*
X6364080Y4937985D03*
X6451450Y5713985D03*
X6471450Y5714585D03*
X6694630Y5208155D03*
X6750950Y5219845D03*
G54D10*
X6749840Y4979155D03*
X6723240D03*
X6696630D03*
X6660640D03*
X6636630D03*
X6636650Y4951965D03*
X6626160Y5003145D03*
X6600160D03*
X6575150D03*
X6543160Y4967145D03*
X6527150Y4948145D03*
X6776450Y4979155D03*
X6803050D03*
X6829650D03*
X6855630Y4987155D03*
X6855650Y4962895D03*
Y4936155D03*
X6855630Y5013155D03*
X6877630Y5028155D03*
X6968150Y5034145D03*
X6993630D03*
Y5008655D03*
Y4983155D03*
X6979630Y4961155D03*
X6980190Y4936155D03*
X7005100D03*
X7030000D03*
X7054910D03*
X7079820Y4937155D03*
X7104730Y4936155D03*
X7129640D03*
X6822640Y4453155D03*
X6652630Y4773155D03*
X6549600Y4811425D03*
X7244800Y4901145D03*
Y4932145D03*
X6298800Y4622145D03*
Y4594145D03*
X6266800Y4593145D03*
Y4622145D03*
X6285160Y4208145D03*
X6314660D03*
X6344160D03*
X6244610Y4202145D03*
X6211510D03*
X6178420D03*
X6145320D03*
X6112230D03*
X6079130D03*
X6046040D03*
X6012940D03*
X5979850D03*
X5946750D03*
X5913660D03*
X5880560D03*
X5847470D03*
X5814370D03*
X5781280D03*
X5748180D03*
X5715090D03*
X5681990D03*
X5648900D03*
X5615800D03*
X5447800Y4201145D03*
X5417470D03*
X5387130D03*
X5356800D03*
X5181800Y4205145D03*
X5153800D03*
X5125800D03*
X5097800D03*
X4978770Y4250285D03*
X6087630Y4255155D03*
X6120050D03*
X6152480D03*
X6184890D03*
X5971080Y4387985D03*
X4926790Y4204865D03*
X4898460D03*
X4870120D03*
X4841790D03*
X4849630Y4248155D03*
X4668800Y4216145D03*
X4639800D03*
X4622630Y4248155D03*
X4477220Y4225435D03*
X4292640Y4536155D03*
X4249920Y4535435D03*
X4237630Y4511155D03*
X4092080Y4440995D03*
X3998150Y4281145D03*
X3961160D03*
X3820380Y4209135D03*
X3784800Y4218145D03*
X3757800Y4236145D03*
X3735800Y4257145D03*
X3722640Y4287155D03*
X3722620Y4318415D03*
Y4347415D03*
Y4376415D03*
Y4405415D03*
Y4434415D03*
X3845640Y4523155D03*
X3845620Y4554415D03*
Y4583415D03*
Y4612415D03*
Y4641415D03*
Y4670415D03*
X3817080Y4859255D03*
X3784080Y4885075D03*
Y4921615D03*
X4756160Y4566145D03*
Y4539145D03*
X3784080Y4958155D03*
Y4994695D03*
Y5031235D03*
Y5067765D03*
X3813800Y5623145D03*
Y5655745D03*
Y5688345D03*
Y5720945D03*
Y5753545D03*
Y5786145D03*
X3731620Y5813155D03*
Y5844415D03*
Y5873415D03*
Y5902415D03*
Y5931415D03*
Y5960415D03*
X3817630Y6033175D03*
X3848890D03*
X3877890D03*
X3906890D03*
X3935900D03*
X3964900D03*
X3922650Y5718895D03*
X3991650Y5654895D03*
X4056900Y5698025D03*
X4057840Y5726655D03*
X4021650Y5544895D03*
X3993080Y5530465D03*
X3956150Y5528145D03*
X3988150Y5494145D03*
X4205650Y5798895D03*
X4339630Y6033175D03*
X4370890D03*
X4399900D03*
X4428900D03*
X4457900D03*
X4486890D03*
X5129640Y5839155D03*
X5092630Y5801155D03*
X5387650Y5791895D03*
X5585650Y5774895D03*
X5716650Y5671895D03*
X5741640Y5870155D03*
X5969710Y5874665D03*
X5983800Y5073145D03*
X5904640Y5119155D03*
X6187650Y5066985D03*
X6430630Y5062155D03*
X6430800Y5034145D03*
X6460800D03*
X6460640Y5062155D03*
X6490630Y5063155D03*
Y5035155D03*
X6672640Y5060155D03*
X6702640D03*
X6611630Y5181155D03*
X6612640Y5209155D03*
X6605810Y5305155D03*
X6599640Y5340155D03*
X6570620D03*
X6538650Y5300985D03*
X6821630Y5254155D03*
X6913100Y5180155D03*
X6943100D03*
X6973100D03*
X7058800Y5124145D03*
Y5094145D03*
Y5064145D03*
Y5034145D03*
Y5004145D03*
X7129800Y4963145D03*
X7168130D03*
X7206470D03*
X7244800D03*
X7222630Y5395155D03*
X7125630Y5419155D03*
Y5462655D03*
Y5506155D03*
X7147800Y5767145D03*
X7178800Y5792145D03*
Y5821145D03*
Y5850145D03*
X7051640Y5914155D03*
X7053370Y6034175D03*
X7084180D03*
X7114990D03*
X7145800D03*
X7022560D03*
X6991740D03*
X6960930D03*
X6930120D03*
X6899310D03*
X6868500D03*
X6837690D03*
X6806880D03*
X6776070D03*
X6745260D03*
X6714450D03*
X6683640D03*
X6685030Y5900565D03*
X6715520D03*
X6766970Y5970825D03*
X6806640Y5974155D03*
X6821630Y5814155D03*
X6857260Y5769705D03*
X6875100Y5423155D03*
X6874800Y5395145D03*
X6875800Y5367145D03*
G54D13*
X4759080Y4835465D03*
Y4975465D03*
X4792670Y5128985D03*
X4989450D03*
X4952450Y5077985D03*
X5099450Y5128985D03*
X5291450Y5241985D03*
X5283210Y5518535D03*
X5274500Y5603335D03*
X5384080Y4997985D03*
X5404080Y4982985D03*
G54D14*
X6885640Y4363155D03*
X7012630Y4509155D03*
X6171920Y4408295D03*
X5880080Y4265995D03*
X5832800Y4927145D03*
X5797800D03*
X5401150Y4731385D03*
X5130800Y4916145D03*
X5089080Y4415465D03*
X5016800Y4245145D03*
X4372800Y4230145D03*
X4330300D03*
X4287800D03*
Y4274145D03*
X4330300D03*
X4287800Y4317145D03*
X4399630Y4420155D03*
X4431630D03*
X4596150Y4646385D03*
X4076630Y4636155D03*
X3932630Y4825155D03*
X4112080Y4230465D03*
X4194990Y5644655D03*
X4221650Y5619475D03*
X4471080Y5772465D03*
X4495010Y5837715D03*
X4522640Y5812155D03*
X4585210Y5887035D03*
X4566650Y5914895D03*
X4560080Y5993465D03*
X4498630Y5981155D03*
X4787650Y6002895D03*
X3984650Y5823985D03*
X3946080Y5825465D03*
X5024630Y5950155D03*
X5063630D03*
Y5992155D03*
X5023630D03*
X5567640Y5924155D03*
X5804120Y5892155D03*
X5804640Y5857155D03*
X5940150Y5844145D03*
X5974160Y5843145D03*
X6027150Y5855145D03*
X6028650Y5895895D03*
X6060650D03*
X6144080Y5897985D03*
X5941160Y5879145D03*
X5871640Y5725155D03*
X5861800Y5641145D03*
X5896800Y5642145D03*
X5897800Y5605145D03*
X5862800D03*
X5773630Y5649155D03*
X5598640Y5212155D03*
X5423650Y4936385D03*
X5391650Y4935895D03*
X5130800Y4957145D03*
X5129800Y5000145D03*
X5199400Y5085145D03*
X5903630Y5048155D03*
X6104800Y5034145D03*
X6140800D03*
X6129150Y5281145D03*
X6099160Y5282145D03*
X6059630Y5239155D03*
X6364080Y5217985D03*
X6507640Y5254155D03*
X6635650Y5957985D03*
G54D15*
X4035450Y4404635D03*
X4127940Y4370975D03*
X4220430Y4337305D03*
G54D16*
X3736210Y4515735D03*
Y5728335D03*
X5988180Y5354325D03*
X7216530Y5728335D03*
G54D17*
X5107670Y4764075D03*
G54D18*
X6289080Y5705465D03*
G54D19*
X196850Y6226378D03*
X7078735D03*
X393701Y80709D03*
X7078735D03*
M02*
