*
%FSLAX26Y26*%
%MOIN*%
%ADD10C,0.015748*%
%ADD11C,0.031496*%
%ADD12C,0.070866*%
%ADD13C,0.019724*%
%ADD14C,0.027598*%
%ADD15C,0.047244*%
%ADD16C,0.078740*%
%IPPOS*%
%LN158se25407b0.drl.sub1*%
%LPD*%
%SRX5Y6I1.25984J1.15944*%
G01*
G75*
G54D10*
X134370Y39990D03*
Y79580D03*
X181310D03*
Y39990D03*
X225840D03*
Y79580D03*
X270370D03*
Y39990D03*
X314900D03*
Y79920D03*
X359420D03*
Y39990D03*
X403950D03*
Y79920D03*
X448480D03*
Y39990D03*
X493490D03*
Y79920D03*
X537540D03*
Y39990D03*
X616720D03*
X664960D03*
X713190D03*
X761430D03*
X809660D03*
X857900D03*
X906130D03*
X954370D03*
X1072370Y206000D03*
Y251570D03*
Y297140D03*
Y342710D03*
Y388280D03*
Y433850D03*
Y479420D03*
Y525000D03*
X1139370D03*
Y478750D03*
Y432490D03*
Y386240D03*
Y340000D03*
Y293750D03*
Y247490D03*
Y201240D03*
Y155000D03*
X537540Y173480D03*
X493490D03*
X448480D03*
X403950D03*
X359420D03*
X314900D03*
Y126310D03*
X359420D03*
X403950D03*
X448480D03*
X493490D03*
X537540D03*
X428080Y238360D03*
Y278350D03*
Y318360D03*
X429370Y385000D03*
Y424990D03*
Y465000D03*
Y559990D03*
Y599990D03*
Y639990D03*
X428120Y759530D03*
X389010D03*
X350270D03*
X254530D03*
X215310D03*
X175180D03*
X54370Y743000D03*
Y784200D03*
Y825390D03*
Y866590D03*
Y907800D03*
Y949000D03*
X108170Y1035680D03*
X148300D03*
X187520D03*
X301680Y1036170D03*
X341810D03*
X381120D03*
Y992370D03*
Y947760D03*
Y901790D03*
X492220Y840250D03*
X531770D03*
X571330D03*
X576480Y759530D03*
X537680D03*
X497500D03*
X548660Y1012760D03*
X588660D03*
X628660D03*
X647680Y962820D03*
X679680D03*
X712680D03*
X747880D03*
X747570Y930330D03*
Y905660D03*
Y880990D03*
X787170Y954990D03*
X826770D03*
X866370D03*
X1101350Y956160D03*
X1120700Y922260D03*
X1156020D03*
Y883050D03*
X1119500D03*
X1156020Y961460D03*
X1155220Y1039150D03*
X106550Y521200D03*
Y480010D03*
Y438810D03*
Y397600D03*
Y356400D03*
Y315210D03*
X54370Y313750D03*
Y354990D03*
Y396240D03*
Y437490D03*
Y478750D03*
Y520000D03*
Y272500D03*
Y231250D03*
Y190000D03*
G54D11*
X495080Y909440D03*
X686020D03*
G54D12*
X62220Y633850D03*
X1118900D03*
G54D13*
X291931Y272630D02*
X259249D01*
X336610Y497241D02*
Y464559D01*
X214570Y497241D02*
Y464559D01*
X529530Y497241D02*
Y464559D01*
X651580Y497241D02*
Y464559D01*
X844490Y497241D02*
Y464559D01*
X966530Y497241D02*
Y464559D01*
X921850Y272630D02*
X889169D01*
X606891D02*
X574209D01*
G54D14*
X448820Y1037990D02*
Y1009250D01*
X732280Y1037990D02*
Y1009250D01*
G54D15*
X56700Y86220D03*
Y999600D03*
X1124410D03*
%LN158se25407b0.drl*%
%LPD*%
%SRX1Y1I0J0*%
G01*
G75*
G54D16*
X-177165Y118110D03*
X6397625Y314960D03*
X6397610Y6759781D03*
X-177181D03*
M02*
