%FSLAX25Y25*%
%MOIN*%
G70*
G01*
G75*
G04 Layer_Physical_Order=2*
G04 Layer_Color=16711680*
%ADD10R,0.01969X0.02362*%
%ADD11R,0.06693X0.03937*%
%ADD12R,0.00984X0.02165*%
%ADD13C,0.01200*%
%ADD14C,0.01000*%
%ADD15C,0.03000*%
%ADD16C,0.01400*%
%ADD17C,0.02200*%
%ADD18R,0.01378X0.07874*%
G36*
X-33508Y-2902D02*
X-34231Y-2832D01*
Y-1431D01*
X-33508Y-1362D01*
Y-2902D01*
D02*
G37*
G36*
X-1513Y1101D02*
X-1126Y843D01*
X-868Y456D01*
X-777Y0D01*
X-765D01*
X-765Y-0D01*
Y-15748D01*
X-777D01*
X-868Y-16204D01*
X-1126Y-16590D01*
X-1513Y-16849D01*
X-1969Y-16939D01*
X-1969Y-16952D01*
X-6211D01*
X-6478Y-16452D01*
X-6393Y-16324D01*
X-6269Y-15700D01*
X-6393Y-15076D01*
X-6677Y-14651D01*
Y-13200D01*
X-6770Y-12732D01*
X-7035Y-12335D01*
X-8222Y-11148D01*
X-8619Y-10883D01*
X-9087Y-10790D01*
X-26163D01*
X-26370Y-10290D01*
X-21835Y-5755D01*
X-16817D01*
X-16393Y-6039D01*
X-15768Y-6163D01*
X-15144Y-6039D01*
X-14615Y-5685D01*
X-14261Y-5156D01*
X-14137Y-4532D01*
X-14252Y-3955D01*
X-14229Y-3822D01*
X-14033Y-3455D01*
X-6331D01*
X-5863Y-3362D01*
X-5466Y-3097D01*
X-3876Y-1507D01*
X-3376Y-1407D01*
X-2847Y-1053D01*
X-2493Y-524D01*
X-2369Y100D01*
X-2489Y704D01*
X-2497Y793D01*
X-2352Y1020D01*
X-1969Y1191D01*
X-1513Y1101D01*
D02*
G37*
G36*
X-12586Y-16570D02*
X-13308Y-16500D01*
Y-15100D01*
X-12586Y-15030D01*
Y-16570D01*
D02*
G37*
G36*
X-8512Y-738D02*
X-9215Y-700D01*
X-9382Y700D01*
X-8652Y795D01*
X-8512Y-738D01*
D02*
G37*
G36*
X-46661Y-464D02*
X-46163Y-840D01*
X-47116Y-2049D01*
X-47505Y-1628D01*
X-48044Y-1199D01*
X-47001Y-66D01*
X-46661Y-464D01*
D02*
G37*
G36*
X-44383Y-1431D02*
X-44730Y-2832D01*
X-45390Y-2832D01*
X-45110Y-1317D01*
X-44383Y-1431D01*
D02*
G37*
D16*
X-16500Y-15800D02*
X-11800D01*
X-18132Y-14168D02*
X-16500Y-15800D01*
X-54468Y-14168D02*
X-18132D01*
X-52024Y-12013D02*
X-9087D01*
X-7900Y-15700D02*
Y-13200D01*
X-9087Y-12013D02*
X-7900Y-13200D01*
X-59055Y-9582D02*
X-54468Y-14168D01*
X-6331Y-2231D02*
X-4000Y100D01*
X-24042Y-2231D02*
X-6331D01*
X-25791Y0D02*
X-7900D01*
X-22342Y-4532D02*
X-15768D01*
X-27641Y-9831D02*
X-22342Y-4532D01*
X-30604Y-4813D02*
X-25791Y0D01*
X-59055Y-9582D02*
Y100335D01*
X-29242Y-7431D02*
X-24042Y-2231D01*
X-57087Y-6950D02*
Y100335D01*
Y-6950D02*
X-52024Y-12013D01*
X-55118Y-4619D02*
Y100335D01*
Y-4619D02*
X-49906Y-9831D01*
X-27641D01*
X-53150Y-2387D02*
Y100335D01*
Y-2387D02*
X-48105Y-7431D01*
X-29242D01*
X-51181Y-1156D02*
Y100335D01*
Y-1156D02*
X-47524Y-4813D01*
X-30604D01*
X-49213Y1076D02*
Y100335D01*
Y1076D02*
X-46005Y-2131D01*
X-32723D01*
D17*
X-46023Y-1932D02*
D03*
X-48100Y-100D02*
D03*
X-1900Y-7800D02*
D03*
X-7900Y-15700D02*
D03*
X-11800Y-15800D02*
D03*
X-15768Y-4532D02*
D03*
X-7800Y100D02*
D03*
X-4000D02*
D03*
X-32723Y-2131D02*
D03*
D18*
X-59055Y100335D02*
D03*
X-57087D02*
D03*
X-55118D02*
D03*
X-53150D02*
D03*
X-51181D02*
D03*
X-49213D02*
D03*
M02*
