*
%FSLAX35Y35*%
%MOMM*%
G04 A1 - construct+9_inc_-1.508 *
%AMA1gbs*
4,1,4,
-0.035305,0.505557,
0.505557,-0.035305,
0.035305,-0.505557,
-0.505557,0.035305,
-0.035305,0.505557,
0.0000*
%
G04 A2 - construct+11_inc_-1.508 *
%AMA2gbs*
4,1,4,
0.035305,0.505557,
0.505557,0.035305,
-0.035305,-0.505557,
-0.505557,-0.035305,
0.035305,0.505557,
0.0000*
%
G04 A3 - construct+12_inc_-1.491 *
%AMA3gbs*
4,1,4,
-0.245732,0.443595,
0.473318,0.181725,
0.245732,-0.443595,
-0.473318,-0.181725,
-0.245732,0.443595,
0.0000*
%
G04 A4 - construct+7_inc_1.772 *
%AMA4gbs*
4,1,4,
0.035305,0.420700,
0.420700,0.035305,
-0.035305,-0.420700,
-0.420700,-0.035305,
0.035305,0.420700,
0.0000*
%
G04 A5 - construct+8_inc_1.772 *
%AMA5gbs*
4,1,4,
-0.209785,0.366408,
0.396388,0.145782,
0.209785,-0.366408,
-0.396388,-0.145782,
-0.209785,0.366408,
0.0000*
%
G04 A6 - construct+5_inc_1.772 *
%AMA6gbs*
4,1,4,
-0.035305,0.420700,
0.420700,-0.035305,
0.035305,-0.420700,
-0.420700,0.035305,
-0.035305,0.420700,
0.0000*
%
%ADD10C,0.703325*%
%ADD11C,1.181100*%
%ADD12R,0.673100X0.768350*%
%ADD13R,0.768350X0.673100*%
%ADD14R,1.466850X4.565650*%
%ADD15R,4.565650X1.466850*%
%ADD16O,0.495300X0.977900*%
%ADD17O,0.445287X0.927887*%
%ADD18A1gbs*%
%ADD19R,1.066800X1.066800*%
%ADD20R,1.104900X1.104900*%
%ADD21R,2.070100X1.270000*%
%ADD22C,1.606550*%
%ADD23R,6.165850X6.165850*%
%ADD24C,1.879600*%
%ADD25C,2.679700*%
%ADD26R,3.803650X3.803650*%
%ADD27C,3.225800*%
%ADD28R,0.444500X0.419100*%
%ADD29R,0.419100X0.444500*%
%ADD30R,0.565150X1.066800*%
%ADD31R,1.803145X1.003300*%
%ADD32R,0.853185X1.003300*%
%ADD33R,1.003300X0.603250*%
%ADD34R,0.571500X0.869950*%
%ADD35R,2.870200X0.869950*%
%ADD36A2gbs*%
%ADD37A3gbs*%
%ADD38O,0.438150X0.990600*%
%ADD39O,0.990600X0.438150*%
%ADD40R,0.819150X0.412750*%
%ADD41R,0.971550X1.568450*%
%ADD42R,1.568450X1.371600*%
%ADD43R,0.800100X1.435100*%
%ADD44R,0.368300X0.698500*%
%ADD45C,1.045000*%
%ADD46R,0.545135X0.644957*%
%ADD47R,1.344980X4.445050*%
%ADD48R,0.944930X0.944930*%
%ADD49R,0.445060X0.745032*%
%ADD50A4gbs*%
%ADD51A5gbs*%
%ADD52R,1.244905X0.895147*%
%ADD53R,2.745030X0.745032*%
%ADD54R,1.944930X1.145083*%
%ADD55A6gbs*%
%ADD56R,0.644957X0.545135*%
%ADD57R,0.680000X1.315000*%
%ADD58R,4.445050X1.344980*%
%ADD59R,0.695000X0.285040*%
%ADD60R,2.045000X1.145083*%
%ADD61R,0.845110X1.145083*%
%ADD62O,0.395000X1.545133*%
%ADD63O,3.045000X0.395000*%
%ADD64O,1.545133X0.395000*%
%ADD65O,0.395000X3.045000*%
%ADD66O,0.395000X2.045000*%
%ADD67O,0.395000X1.695000*%
%ADD68O,1.445057X0.395000*%
%ADD69O,0.944930X0.395000*%
%ADD70O,0.395000X0.845110*%
%ADD71O,0.845110X0.395000*%
%ADD72R,0.320090X0.294945*%
%ADD73R,0.294945X0.320090*%
%ADD74R,1.445057X1.244905*%
%ADD75O,0.349810X0.832410*%
%ADD76C,0.200000*%
%ADD77C,3.200000*%
%ADD78R,0.650112X0.749935*%
%ADD79R,1.049935X1.049935*%
%ADD80R,0.699922X0.399922*%
%ADD81R,0.748335X0.848158*%
%ADD82R,0.798120X0.498145*%
%ADD83R,1.248207X1.948230*%
%ADD84R,0.594920X0.294945*%
%ADD85R,0.553213X0.553213*%
%ADD86C,2.200000*%
%ADD87C,2.000000*%
%ADD88R,0.069850X0.069850*%
%ADD89C,0.019050*%
%ADD90C,0.012700*%
%ADD91R,0.019050X0.019050*%
%ADD92C,0.044450*%
%ADD93C,0.057150*%
%ADD94C,0.025400*%
%ADD95C,0.050800*%
%ADD96C,0.031750*%
%ADD97R,0.025400X0.025400*%
%ADD98R,0.031750X0.031750*%
%ADD99R,0.038100X0.038100*%
%ADD100R,0.012700X0.012700*%
%ADD101C,0.300000*%
%ADD102C,0.070000*%
%IPPOS*%
%LN6e160885h0.gbs*%
%LPD*%
G75*
G54D10*
X07794295Y01908719D03*
Y02018701D03*
X07904277Y01798712D03*
Y01908719D03*
Y02018701D03*
X08014284Y01798712D03*
Y01908719D03*
Y02018701D03*
G54D11*
X01559992Y05217704D03*
Y05017705D03*
X05449976Y01299983D03*
X00709981Y00760005D03*
X00909980D03*
X03849980Y00797723D03*
X05399989Y01947709D03*
X03199994Y00787716D03*
X06849973Y02969982D03*
X03649980Y00797723D03*
X06799986Y03359999D03*
X07499985D03*
X07089978Y01529980D03*
X08099984Y01290001D03*
X07379995Y01309991D03*
X07299985Y03060000D03*
X06999986Y03359999D03*
X04249979Y03909986D03*
X03819982Y03030003D03*
Y03230002D03*
X06399987Y03130002D03*
X03499993Y03109987D03*
X06599987Y01169986D03*
X05650001Y01429980D03*
X07849997Y04609984D03*
X07299985Y05109983D03*
X02049983Y02009989D03*
X07229983Y04109985D03*
X07499985Y04259998D03*
X08399983Y04609984D03*
X04689983Y00969986D03*
X07299985Y03359999D03*
X06339992Y01629980D03*
X04489983Y00969986D03*
X04289984D03*
X04089984D03*
X03849980D03*
X07499985Y03659998D03*
X08179968Y00949997D03*
X07999984Y03830001D03*
X04514774Y04661292D03*
G54D12*
X07997114Y04458905D03*
Y04558879D03*
X08106359Y04075365D03*
X08484845Y05122327D03*
Y05022328D03*
X08395945D03*
Y05122327D03*
X08313420Y02351619D03*
Y02251620D03*
X06659677Y02643313D03*
Y02543313D03*
X00712445Y04138992D03*
X00801344Y04138407D03*
X08185099Y02271940D03*
Y02371939D03*
X04227805Y03336504D03*
X08397215Y02368460D03*
X08668995Y02371000D03*
X08077200Y02445599D03*
Y02345600D03*
X07602220Y02445599D03*
X07815554Y01018119D03*
X07560259Y01507400D03*
X07730439Y01554059D03*
Y01454060D03*
X07605979Y03778185D03*
Y03878159D03*
X08088579Y04458905D03*
G54D13*
X07807427Y03327792D03*
X07907426D03*
X07809967Y03424312D03*
X07909966D03*
X05605297Y01932900D03*
X05516347Y02662312D03*
X05339486Y02664852D03*
X08112277Y04884380D03*
X08005547Y03967872D03*
X07849006Y04453012D03*
X04110126Y05103252D03*
X04010127D03*
X04110126Y05197232D03*
X04010127D03*
X06355690Y00935900D03*
Y01024800D03*
X08161807Y02680067D03*
X07848117Y05095200D03*
X07948117D03*
X07848117Y05004192D03*
X07948117D03*
X04383049Y02339300D03*
X08481847Y02365107D03*
X08581847D03*
X07358990Y01692819D03*
X07458989D03*
X07358990Y01781719D03*
X07458989D03*
X07358990Y01870620D03*
X07458989D03*
X07358990Y02048420D03*
X07458989D03*
X07371512Y02137904D03*
X07471512D03*
X07203846Y01870620D03*
X08155407Y01463432D03*
X07809967Y03914532D03*
Y03652912D03*
X08044586Y01463432D03*
X08161807Y02596247D03*
X08261807D03*
Y02509887D03*
X08161807D03*
X07861198Y01557387D03*
X07471969Y02225864D03*
X07203821Y02137320D03*
Y02048420D03*
Y01781719D03*
Y01692819D03*
G54D14*
X00895096Y04970512D03*
G54D15*
X06205017Y02345294D03*
G54D16*
X04513631Y03787431D03*
X04463618D03*
X04413631D03*
X04363618D03*
Y03900410D03*
X04413631D03*
X04463618D03*
X04513631D03*
G54D17*
X04702378Y03787431D03*
G54D16*
X04652391D03*
X04602378D03*
Y03900410D03*
X04652391D03*
X04702378D03*
X04752391D03*
G54D18*
X02089379Y03500055D03*
G54D19*
X07382510Y00955407D03*
X07547610D03*
X07830769Y03541152D03*
X07995869D03*
X08305724Y01577732D03*
X08470824D03*
X04405427Y03488599D03*
X08305724Y01719972D03*
X08112734Y04770080D03*
X04863567Y01470620D03*
X01322045Y04466321D03*
X07104177Y05126950D03*
G54D20*
X08979992Y01732545D03*
G54D19*
X07694879Y01045450D03*
G54D21*
X02919984Y02079991D03*
G54D22*
X00391135Y01084946D03*
G54D23*
X03633495Y02100769D03*
G54D24*
X00910057Y01187791D03*
X01144981Y01102295D03*
X01379906Y01016773D03*
G54D25*
X00149987Y01469985D03*
Y04549989D03*
X08990000D03*
X05869991Y03600004D03*
G54D26*
X07904277Y01908719D03*
G54D27*
X06634277Y04491900D03*
G54D28*
X08107578Y05071934D03*
Y05021946D03*
G54D29*
Y04971934D03*
X08157591D03*
X08257591Y05121921D03*
X08207578D03*
X08157591D03*
X08107578D03*
G54D30*
X07853401Y04320704D03*
X07918399D03*
X07983398D03*
Y04095685D03*
X07853401D03*
G54D31*
X08979992Y01739987D03*
G54D32*
X08932494Y02079991D03*
X09027490D03*
G54D33*
X08979992Y02060002D03*
G54D34*
X00708889Y04614911D03*
G54D35*
X02549982Y01434984D03*
Y01584971D03*
Y01734983D03*
Y01884971D03*
G54D36*
X01708175Y03952226D03*
X01619885Y03036098D03*
X01721383Y03119030D03*
X01670304Y03543692D03*
X01474292Y03703305D03*
X01403579Y03632592D03*
X01191793Y03425989D03*
X02401392Y03817606D03*
X02165579Y03581792D03*
X01906092Y03995405D03*
X01848079Y04135512D03*
G54D37*
X01098372Y00904225D03*
G54D38*
X08079283Y02151213D03*
X08029295D03*
X07979283D03*
X07929296D03*
X07879283D03*
X07829296D03*
X07779283D03*
X07729296D03*
Y01666200D03*
X07779283D03*
X07829296D03*
X07879283D03*
X07929296D03*
X07979283D03*
X08029295D03*
X08079283D03*
G54D39*
X07661783Y02083726D03*
Y02033713D03*
Y01983726D03*
Y01933713D03*
Y01883701D03*
Y01833713D03*
Y01783700D03*
Y01733714D03*
X08146796D03*
Y01783700D03*
Y01833713D03*
Y01883701D03*
Y01933713D03*
Y01983726D03*
Y02033713D03*
Y02083726D03*
G54D40*
X05935624Y03002672D03*
X05740629D03*
Y03067671D03*
G54D41*
X05838139Y03002672D03*
G54D42*
X07730033Y02530207D03*
Y02380219D03*
X07940015D03*
G54D43*
X05602021Y02355226D03*
Y02070746D03*
G54D44*
X07793101Y03821034D03*
X07758074D03*
X07723098D03*
X07688097D03*
Y03754030D03*
X07723098D03*
X07758074D03*
X07793101D03*
G54D45*
X00299999Y05059996D03*
G54D46*
X01052805Y04629339D03*
G54D47*
X01185113Y04970512D03*
G54D48*
X01322045Y04631422D03*
X01179805Y04628882D03*
G54D49*
X00803884Y04614911D03*
X00898880D03*
G54D46*
X00712445Y04238991D03*
X00623545D03*
Y04138992D03*
X01052805Y04529365D03*
X00801344Y04238408D03*
G54D48*
X01179805Y04463782D03*
X01040105Y04379962D03*
Y04214862D03*
G54D49*
X00903884Y04374907D03*
X00708889D03*
G54D50*
X01637487Y03881512D03*
X01835404Y03924692D03*
X01918792Y04206226D03*
X01262507Y03496702D03*
X01549197Y02965385D03*
X01792097Y03189743D03*
G54D45*
X00799998Y02260002D03*
X00399999Y01377707D03*
G54D51*
X01192327Y00870012D03*
G54D45*
X00509981Y00760005D03*
G54D48*
X01210107Y00745400D03*
X01375207D03*
G54D45*
X01863039Y00909712D03*
G54D52*
X02307539Y01168691D03*
G54D46*
X02183054Y01182305D03*
Y01282304D03*
G54D48*
X02078939Y01332622D03*
Y01167522D03*
G54D53*
X02549982Y01134984D03*
Y01284971D03*
G54D52*
X02307539Y01473694D03*
G54D54*
X02919984Y00939989D03*
G54D48*
X02835377Y03300690D03*
Y03135590D03*
G54D55*
X02160092Y03429341D03*
G54D50*
X01740992Y03614406D03*
X02330704Y03746892D03*
X02236292Y03652505D03*
G54D48*
X05028666Y01470620D03*
G54D56*
X04945990Y02015399D03*
Y01913799D03*
X05045989Y02015399D03*
Y01913799D03*
X05705297Y01932900D03*
G54D57*
X05697017Y02070746D03*
X05792013D03*
G54D46*
X05346497Y02267139D03*
Y02367139D03*
G54D56*
X04945990Y02484080D03*
X05045989D03*
Y02167800D03*
X04945990D03*
G54D48*
X05458257Y02201556D03*
Y02366656D03*
G54D46*
X05912206Y02210980D03*
Y02310979D03*
G54D57*
X05792013Y02355226D03*
X05697017D03*
G54D56*
X04483049Y02339300D03*
G54D46*
X04227805Y03236479D03*
X03979977Y02916286D03*
Y02816287D03*
X04094277D03*
X04195877Y02916286D03*
Y02816287D03*
X04094277Y02916286D03*
G54D48*
X04570527Y03488599D03*
G54D46*
X04898314Y05055780D03*
Y05155805D03*
G54D48*
X05010099Y05041022D03*
Y05206122D03*
X05149774D03*
Y05041022D03*
G54D45*
X05399989Y05109983D03*
Y04189995D03*
G54D58*
X05365699Y03274680D03*
Y02984664D03*
G54D48*
X05692064Y03310012D03*
X05857189D03*
X05692064Y03170312D03*
X05857189D03*
G54D59*
X05935624Y03067671D03*
Y02937674D03*
X05740629D03*
G54D46*
X06079439Y03075545D03*
Y02975545D03*
G54D56*
X05760187Y02817252D03*
X05860186D03*
G54D60*
X05458155Y02802012D03*
G54D61*
X05268138D03*
G54D56*
X04945990Y02786340D03*
Y02679660D03*
X05045989Y02786340D03*
Y02679660D03*
X05239487Y02664852D03*
X05616346Y02662312D03*
G54D45*
X05799988Y02609988D03*
G54D58*
X06205017Y02055303D03*
G54D48*
X06522517Y02348876D03*
Y02183776D03*
G54D46*
X06545377Y01023987D03*
Y00923987D03*
X06634277Y01023987D03*
Y00923987D03*
G54D56*
X06455689Y00935900D03*
Y01024800D03*
G54D45*
X06789979Y00929981D03*
G54D62*
X06979996Y01290001D03*
G54D63*
X07420000Y01139989D03*
G54D45*
X07979994Y00949997D03*
G54D46*
X07815554Y00918119D03*
G54D48*
X07694879Y00880350D03*
G54D64*
X07849997Y01139989D03*
G54D63*
X08379993D03*
G54D65*
X08729980Y01449995D03*
G54D48*
X08470824Y01719972D03*
X08979992Y01567445D03*
G54D56*
X08402726Y01923172D03*
Y01834272D03*
X08302727D03*
Y01923172D03*
G54D65*
X08729980Y02099982D03*
G54D56*
X07944587Y01463432D03*
X07961198Y01557387D03*
G54D46*
X07560259Y01607399D03*
G54D66*
X06979996Y01739987D03*
Y02079991D03*
G54D67*
X07349998Y02579991D03*
G54D68*
X07229983Y02299981D03*
G54D63*
X07609992Y02769983D03*
G54D46*
X08397215Y02468459D03*
G54D56*
X08261807Y02680067D03*
G54D69*
X08579993Y02609988D03*
G54D70*
X08359978Y02689998D03*
G54D71*
X08259978Y02769983D03*
G54D46*
X08668995Y02470999D03*
X07602220Y02345600D03*
G54D61*
X06285281Y02525406D03*
G54D60*
X06475298D03*
G54D56*
X08255406Y01463432D03*
X07371969Y02225864D03*
X07103847Y01870620D03*
X07103821Y02137320D03*
Y02048420D03*
Y01781719D03*
Y01692819D03*
G54D45*
X08699983Y04609984D03*
G54D46*
X08088579Y04558879D03*
G54D48*
X08277834Y04770080D03*
G54D56*
X07749007Y04453012D03*
G54D46*
X08106359Y04175339D03*
G54D56*
X08105546Y03967872D03*
X08212277Y04884380D03*
G54D72*
X08257591Y05021921D03*
Y05071934D03*
G54D73*
X08207578Y04971934D03*
X08257591D03*
G54D46*
X06989877Y05214987D03*
Y05114987D03*
G54D48*
X07104177Y05292050D03*
X06862877Y05120549D03*
Y05285650D03*
G54D45*
X07649997Y05107723D03*
X06369990Y03430001D03*
G54D56*
X02219909Y01722080D03*
X02221687Y01826627D03*
X02121687D03*
X02119909Y01722080D03*
G54D74*
X07940015Y02530207D03*
G54D56*
X07909966Y03652912D03*
Y03914532D03*
G54D75*
X04752391Y03787431D03*
G54D76*
X06929984Y00769986D02*
G03X06879996Y00720000I00000013J-00050000D01*
X06820001Y00609992D02*
G03X06879996Y00660005I00005003J00054990D01*
X08269986D02*
G03X08319999Y00609992I00050012J00000000D01*
X08269986Y00720000D02*
G03X08219999Y00769986I-00050000J-00000013D01*
X09019997Y03642777D02*
G03X08969985Y03589996I00001385J-00051397D01*
X00299999Y01629980D02*
G03X00349987Y01679992I-00000012J00050000D01*
X00052654Y01629980D02*
G03X00000000Y01579992I-00001321J-00051334D01*
X08289976Y03558983D02*
G03X08339988Y03508995I00050000J00000012D01*
X08769985D02*
G03X08819998Y03558983I00000000J00050013D01*
Y03589996D02*
G03X08769985Y03640212I-00050114J00000102D01*
X08919997Y03349026D02*
G03X08969985Y03398988I00000013J00049974D01*
X09139987Y04085220D02*
G03X09109989Y04115243I-00030010J00000012D01*
X09109659Y03642752D02*
G03X09139657Y03672749I00000000J00029998D01*
X08662619Y03670692D02*
G03X08692617Y03640695I00029998J00000000D01*
X08692718Y04115243D02*
G03X08662721Y04085220I00000000J-00029997D01*
X08739988Y03349026D02*
G03X08689975Y03299979I-00000483J-00049530D01*
X08339988Y04400002D02*
G03X08289976Y04349990I00000000J-00050012D01*
X09090000Y04400002D02*
G03X09139987Y04449989I-00000012J00050000D01*
Y05009983D02*
G03X08739988Y05409982I-00399999J00000000D01*
Y00609992D02*
G03X09139987Y01009991I00000000J00399999D01*
X00399999Y05409982D02*
G03X00000000Y05009983I00000000J-00399999D01*
Y01009991D02*
G03X00399999Y00609992I00399999J-00000000D01*
X00349987Y02222892D02*
G03X00299999Y02275546I-00051334J00001321D01*
X00349987Y04165001D02*
G03X00309981Y04214989I-00044997J00004990D01*
Y03414990D02*
G03X00349987Y03465003I-00005004J00045009D01*
X00059995Y03414990D02*
G03X00000000Y03365003I-00005004J-00054991D01*
Y04265001D02*
G03X00059995Y04214989I00055005J00004992D01*
X00000000Y02325813D02*
G03X00049860Y02275952I00049860J-00000000D01*
X09139987Y02629826D02*
G03X09090000Y02679838I-00050013J00000000D01*
X08689975Y02730003D02*
G03X08739988Y02679991I00050012J00000000D01*
X06879996Y00660005D02*
G01Y00720000D01*
X08269986Y00660005D02*
Y00720000D01*
X00052654Y01629980D02*
X00299999D01*
X09019997Y03642777D02*
X09114714D01*
X08339988Y03508995D02*
X08769985D01*
X08739988Y03349026D02*
X08919997D01*
X08819998Y03558983D02*
Y03589996D01*
X08969985Y03398988D02*
Y03589996D01*
X08697493Y03640212D02*
X08769985D01*
X08662721Y03673232D02*
Y04085220D01*
X09139987Y03673232D02*
Y04085220D01*
X00349987Y03465003D02*
Y04165001D01*
X00000000Y02325813D02*
Y03365003D01*
X00049860Y02275546D02*
X00299999D01*
X00349987Y01679992D02*
Y02225584D01*
X08692718Y04115243D02*
X09105239D01*
X08339988Y04400002D02*
X09090000D01*
X00000000Y04265001D02*
Y05009983D01*
X00399999Y05409982D02*
X08739988D01*
X00059995Y04214989D02*
X00309981D01*
X00059995Y03414990D02*
X00309981D01*
X00000000Y01009991D02*
Y01579992D01*
X00399999Y00609992D02*
X06820001D01*
X09139987Y01009991D02*
Y02630003D01*
X08739988Y02679991D02*
X09090000D01*
X08689975Y02730003D02*
Y03299979D01*
X09139987Y04449989D02*
Y05009983D01*
X06929984Y00769986D02*
X08219999D01*
X08319999Y00609992D02*
X08739988D01*
X08289976Y03558983D02*
Y04349990D01*
G54D77*
X00391135Y01084946D03*
G54D78*
X08219288Y03239654D03*
G54D79*
X08094827Y03387482D03*
Y03222382D03*
G54D80*
X08557870Y03387482D03*
Y03337444D03*
Y03287660D03*
Y03237622D03*
X08322665Y03287660D03*
Y03237622D03*
G54D81*
X08219288Y03339679D03*
G54D82*
X08322767Y03387558D03*
G54D83*
X08440268Y03312552D03*
G54D84*
X08322665Y03337444D03*
G54D85*
X07903235Y01234832D03*
X07956220D03*
G54D10*
X07794295Y06908719D03*
Y07018702D03*
X07904277Y06798712D03*
Y06908719D03*
Y07018702D03*
X08014284Y06798712D03*
Y06908719D03*
Y07018702D03*
G54D11*
X01559992Y10217705D03*
Y10017705D03*
X05449976Y06299983D03*
X00709981Y05760005D03*
X00909980D03*
X03849980Y05797724D03*
X05399989Y06947709D03*
X03199994Y05787716D03*
X06849973Y07969982D03*
X03649980Y05797724D03*
X06799986Y08359999D03*
X07499985D03*
X07089978Y06529980D03*
X08099984Y06290001D03*
X07379995Y06309991D03*
X07299985Y08060000D03*
X06999986Y08359999D03*
X04249979Y08909986D03*
X03819982Y08030002D03*
Y08230002D03*
X06399987Y08130002D03*
X03499993Y08109987D03*
X06599987Y06169986D03*
X05650001Y06429980D03*
X07849997Y09609984D03*
X07299985Y10109983D03*
X02049983Y07009989D03*
X07229983Y09109985D03*
X07499985Y09259997D03*
X08399983Y09609984D03*
X04689983Y05969986D03*
X07299985Y08359999D03*
X06339992Y06629980D03*
X04489983Y05969986D03*
X04289984D03*
X04089984D03*
X03849980D03*
X07499985Y08659998D03*
X08179968Y05949997D03*
X07999984Y08830001D03*
X04514774Y09661292D03*
G54D12*
X07997114Y09458905D03*
Y09558879D03*
X08106359Y09075365D03*
X08484845Y10122328D03*
Y10022328D03*
X08395945D03*
Y10122328D03*
X08313420Y07351619D03*
Y07251620D03*
X06659677Y07643313D03*
Y07543313D03*
X00712445Y09138992D03*
X00801344Y09138408D03*
X08185099Y07271940D03*
Y07371939D03*
X04227805Y08336504D03*
X08397215Y07368460D03*
X08668995Y07370999D03*
X08077200Y07445599D03*
Y07345600D03*
X07602220Y07445599D03*
X07815554Y06018119D03*
X07560259Y06507400D03*
X07730439Y06554059D03*
Y06454060D03*
X07605979Y08778185D03*
Y08878159D03*
X08088579Y09458905D03*
G54D13*
X07807427Y08327792D03*
X07907426D03*
X07809967Y08424312D03*
X07909966D03*
X05605297Y06932900D03*
X05516347Y07662312D03*
X05339486Y07664852D03*
X08112277Y09884380D03*
X08005547Y08967872D03*
X07849006Y09453012D03*
X04110126Y10103252D03*
X04010127D03*
X04110126Y10197232D03*
X04010127D03*
X06355690Y05935899D03*
Y06024800D03*
X08161807Y07680066D03*
X07848117Y10095200D03*
X07948117D03*
X07848117Y10004192D03*
X07948117D03*
X04383049Y07339300D03*
X08481847Y07365107D03*
X08581847D03*
X07358990Y06692819D03*
X07458989D03*
X07358990Y06781720D03*
X07458989D03*
X07358990Y06870620D03*
X07458989D03*
X07358990Y07048420D03*
X07458989D03*
X07371512Y07137903D03*
X07471512D03*
X07203846Y06870620D03*
X08155407Y06463432D03*
X07809967Y08914532D03*
Y08652912D03*
X08044586Y06463432D03*
X08161807Y07596246D03*
X08261807D03*
Y07509887D03*
X08161807D03*
X07861198Y06557387D03*
X07471969Y07225864D03*
X07203821Y07137320D03*
Y07048420D03*
Y06781720D03*
Y06692819D03*
G54D14*
X00895096Y09970512D03*
G54D15*
X06205017Y07345295D03*
G54D16*
X04513631Y08787431D03*
X04463618D03*
X04413631D03*
X04363618D03*
Y08900410D03*
X04413631D03*
X04463618D03*
X04513631D03*
G54D17*
X04702378Y08787431D03*
G54D16*
X04652391D03*
X04602378D03*
Y08900410D03*
X04652391D03*
X04702378D03*
X04752391D03*
G54D18*
X02089379Y08500055D03*
G54D19*
X07382510Y05955406D03*
X07547610D03*
X07830769Y08541152D03*
X07995869D03*
X08305724Y06577732D03*
X08470824D03*
X04405427Y08488600D03*
X08305724Y06719972D03*
X08112734Y09770080D03*
X04863567Y06470620D03*
X01322045Y09466322D03*
X07104177Y10126950D03*
G54D20*
X08979992Y06732545D03*
G54D19*
X07694879Y06045449D03*
G54D21*
X02919984Y07079992D03*
G54D22*
X00391135Y06084947D03*
G54D23*
X03633495Y07100769D03*
G54D24*
X00910057Y06187791D03*
X01144981Y06102295D03*
X01379906Y06016773D03*
G54D25*
X00149987Y06469985D03*
Y09549989D03*
X08990000D03*
X05869991Y08600004D03*
G54D26*
X07904277Y06908719D03*
G54D27*
X06634277Y09491900D03*
G54D28*
X08107578Y10071934D03*
Y10021947D03*
G54D29*
Y09971934D03*
X08157591D03*
X08257591Y10121921D03*
X08207578D03*
X08157591D03*
X08107578D03*
G54D30*
X07853401Y09320704D03*
X07918399D03*
X07983398D03*
Y09095685D03*
X07853401D03*
G54D31*
X08979992Y06739987D03*
G54D32*
X08932494Y07079992D03*
X09027490D03*
G54D33*
X08979992Y07060002D03*
G54D34*
X00708889Y09614912D03*
G54D35*
X02549982Y06434984D03*
Y06584971D03*
Y06734984D03*
Y06884971D03*
G54D36*
X01708175Y08952226D03*
X01619885Y08036099D03*
X01721383Y08119029D03*
X01670304Y08543692D03*
X01474292Y08703306D03*
X01403579Y08632592D03*
X01191793Y08425989D03*
X02401392Y08817606D03*
X02165579Y08581792D03*
X01906092Y08995406D03*
X01848079Y09135512D03*
G54D37*
X01098372Y05904226D03*
G54D38*
X08079283Y07151213D03*
X08029295D03*
X07979283D03*
X07929296D03*
X07879283D03*
X07829296D03*
X07779283D03*
X07729296D03*
Y06666200D03*
X07779283D03*
X07829296D03*
X07879283D03*
X07929296D03*
X07979283D03*
X08029295D03*
X08079283D03*
G54D39*
X07661783Y07083726D03*
Y07033713D03*
Y06983726D03*
Y06933713D03*
Y06883701D03*
Y06833713D03*
Y06783700D03*
Y06733714D03*
X08146796D03*
Y06783700D03*
Y06833713D03*
Y06883701D03*
Y06933713D03*
Y06983726D03*
Y07033713D03*
Y07083726D03*
G54D40*
X05935624Y08002672D03*
X05740629D03*
Y08067671D03*
G54D41*
X05838139Y08002672D03*
G54D42*
X07730033Y07530207D03*
Y07380220D03*
X07940015D03*
G54D43*
X05602021Y07355226D03*
Y07070746D03*
G54D44*
X07793101Y08821035D03*
X07758074D03*
X07723098D03*
X07688097D03*
Y08754030D03*
X07723098D03*
X07758074D03*
X07793101D03*
G54D45*
X00299999Y10059996D03*
G54D46*
X01052805Y09629339D03*
G54D47*
X01185113Y09970512D03*
G54D48*
X01322045Y09631421D03*
X01179805Y09628882D03*
G54D49*
X00803884Y09614912D03*
X00898880D03*
G54D46*
X00712445Y09238991D03*
X00623545D03*
Y09138992D03*
X01052805Y09529365D03*
X00801344Y09238408D03*
G54D48*
X01179805Y09463782D03*
X01040105Y09379962D03*
Y09214862D03*
G54D49*
X00903884Y09374907D03*
X00708889D03*
G54D50*
X01637487Y08881512D03*
X01835404Y08924692D03*
X01918792Y09206226D03*
X01262507Y08496702D03*
X01549197Y07965385D03*
X01792097Y08189743D03*
G54D45*
X00799998Y07260002D03*
X00399999Y06377707D03*
G54D51*
X01192327Y05870012D03*
G54D45*
X00509981Y05760005D03*
G54D48*
X01210107Y05745400D03*
X01375207D03*
G54D45*
X01863039Y05909712D03*
G54D52*
X02307539Y06168691D03*
G54D46*
X02183054Y06182305D03*
Y06282304D03*
G54D48*
X02078939Y06332622D03*
Y06167522D03*
G54D53*
X02549982Y06134984D03*
Y06284972D03*
G54D52*
X02307539Y06473694D03*
G54D54*
X02919984Y05939989D03*
G54D48*
X02835377Y08300690D03*
Y08135590D03*
G54D55*
X02160092Y08429341D03*
G54D50*
X01740992Y08614406D03*
X02330704Y08746892D03*
X02236292Y08652506D03*
G54D48*
X05028666Y06470620D03*
G54D56*
X04945990Y07015399D03*
Y06913800D03*
X05045989Y07015399D03*
Y06913800D03*
X05705297Y06932900D03*
G54D57*
X05697017Y07070746D03*
X05792013D03*
G54D46*
X05346497Y07267139D03*
Y07367139D03*
G54D56*
X04945990Y07484080D03*
X05045989D03*
Y07167800D03*
X04945990D03*
G54D48*
X05458257Y07201556D03*
Y07366656D03*
G54D46*
X05912206Y07210980D03*
Y07310979D03*
G54D57*
X05792013Y07355226D03*
X05697017D03*
G54D56*
X04483049Y07339300D03*
G54D46*
X04227805Y08236479D03*
X03979977Y07916287D03*
Y07816287D03*
X04094277D03*
X04195877Y07916287D03*
Y07816287D03*
X04094277Y07916287D03*
G54D48*
X04570527Y08488600D03*
G54D46*
X04898314Y10055780D03*
Y10155805D03*
G54D48*
X05010099Y10041022D03*
Y10206122D03*
X05149774D03*
Y10041022D03*
G54D45*
X05399989Y10109983D03*
Y09189995D03*
G54D58*
X05365699Y08274680D03*
Y07984663D03*
G54D48*
X05692064Y08310012D03*
X05857189D03*
X05692064Y08170312D03*
X05857189D03*
G54D59*
X05935624Y08067671D03*
Y07937674D03*
X05740629D03*
G54D46*
X06079439Y08075544D03*
Y07975545D03*
G54D56*
X05760187Y07817252D03*
X05860186D03*
G54D60*
X05458155Y07802012D03*
G54D61*
X05268138D03*
G54D56*
X04945990Y07786340D03*
Y07679660D03*
X05045989Y07786340D03*
Y07679660D03*
X05239487Y07664852D03*
X05616346Y07662312D03*
G54D45*
X05799988Y07609988D03*
G54D58*
X06205017Y07055303D03*
G54D48*
X06522517Y07348876D03*
Y07183776D03*
G54D46*
X06545377Y06023987D03*
Y05923987D03*
X06634277Y06023987D03*
Y05923987D03*
G54D56*
X06455689Y05935899D03*
Y06024800D03*
G54D45*
X06789979Y05929981D03*
G54D62*
X06979996Y06290001D03*
G54D63*
X07420000Y06139989D03*
G54D45*
X07979994Y05949997D03*
G54D46*
X07815554Y05918120D03*
G54D48*
X07694879Y05880350D03*
G54D64*
X07849997Y06139989D03*
G54D63*
X08379993D03*
G54D65*
X08729980Y06449995D03*
G54D48*
X08470824Y06719972D03*
X08979992Y06567445D03*
G54D56*
X08402726Y06923172D03*
Y06834272D03*
X08302727D03*
Y06923172D03*
G54D65*
X08729980Y07099982D03*
G54D56*
X07944587Y06463432D03*
X07961198Y06557387D03*
G54D46*
X07560259Y06607399D03*
G54D66*
X06979996Y06739987D03*
Y07079992D03*
G54D67*
X07349998Y07579991D03*
G54D68*
X07229983Y07299981D03*
G54D63*
X07609992Y07769982D03*
G54D46*
X08397215Y07468459D03*
G54D56*
X08261807Y07680066D03*
G54D69*
X08579993Y07609988D03*
G54D70*
X08359978Y07689998D03*
G54D71*
X08259978Y07769982D03*
G54D46*
X08668995Y07470999D03*
X07602220Y07345600D03*
G54D61*
X06285281Y07525406D03*
G54D60*
X06475298D03*
G54D56*
X08255406Y06463432D03*
X07371969Y07225864D03*
X07103847Y06870620D03*
X07103821Y07137320D03*
Y07048420D03*
Y06781720D03*
Y06692819D03*
G54D45*
X08699983Y09609984D03*
G54D46*
X08088579Y09558879D03*
G54D48*
X08277834Y09770080D03*
G54D56*
X07749007Y09453012D03*
G54D46*
X08106359Y09175339D03*
G54D56*
X08105546Y08967872D03*
X08212277Y09884380D03*
G54D72*
X08257591Y10021921D03*
Y10071934D03*
G54D73*
X08207578Y09971934D03*
X08257591D03*
G54D46*
X06989877Y10214987D03*
Y10114987D03*
G54D48*
X07104177Y10292050D03*
X06862877Y10120549D03*
Y10285650D03*
G54D45*
X07649997Y10107723D03*
X06369990Y08430002D03*
G54D56*
X02219909Y06722080D03*
X02221687Y06826626D03*
X02121687D03*
X02119909Y06722080D03*
G54D74*
X07940015Y07530207D03*
G54D56*
X07909966Y08652912D03*
Y08914532D03*
G54D75*
X04752391Y08787431D03*
G54D76*
X06929984Y05769987D02*
G03X06879996Y05719999I00000013J-00050000D01*
X06820001Y05609992D02*
G03X06879996Y05660005I00005003J00054990D01*
X08269986D02*
G03X08319999Y05609992I00050012J00000000D01*
X08269986Y05719999D02*
G03X08219999Y05769987I-00050000J-00000013D01*
X09019997Y08642778D02*
G03X08969985Y08589996I00001385J-00051397D01*
X00299999Y06629980D02*
G03X00349987Y06679993I-00000012J00050000D01*
X00052654Y06629980D02*
G03X00000000Y06579993I-00001321J-00051334D01*
X08289976Y08558983D02*
G03X08339988Y08508995I00050000J00000012D01*
X08769985D02*
G03X08819998Y08558983I00000000J00050013D01*
Y08589996D02*
G03X08769985Y08640212I-00050114J00000102D01*
X08919997Y08349026D02*
G03X08969985Y08398988I00000013J00049974D01*
X09139987Y09085220D02*
G03X09109989Y09115243I-00030010J00000012D01*
X09109659Y08642752D02*
G03X09139657Y08672749I00000000J00029998D01*
X08662619Y08670692D02*
G03X08692617Y08640695I00029998J00000000D01*
X08692718Y09115243D02*
G03X08662721Y09085220I00000000J-00029997D01*
X08739988Y08349026D02*
G03X08689975Y08299979I-00000483J-00049530D01*
X08339988Y09400002D02*
G03X08289976Y09349990I00000000J-00050012D01*
X09090000Y09400002D02*
G03X09139987Y09449990I-00000012J00050000D01*
Y10009983D02*
G03X08739988Y10409983I-00399999J00000000D01*
Y05609992D02*
G03X09139987Y06009991I00000000J00399999D01*
X00399999Y10409983D02*
G03X00000000Y10009983I00000000J-00399999D01*
Y06009991D02*
G03X00399999Y05609992I00399999J-00000000D01*
X00349987Y07222892D02*
G03X00299999Y07275546I-00051334J00001321D01*
X00349987Y09165002D02*
G03X00309981Y09214989I-00044997J00004990D01*
Y08414990D02*
G03X00349987Y08465003I-00005004J00045009D01*
X00059995Y08414990D02*
G03X00000000Y08365003I-00005004J-00054991D01*
Y09265001D02*
G03X00059995Y09214989I00055005J00004992D01*
X00000000Y07325813D02*
G03X00049860Y07275953I00049860J-00000000D01*
X09139987Y07629826D02*
G03X09090000Y07679838I-00050013J00000000D01*
X08689975Y07730003D02*
G03X08739988Y07679991I00050012J00000000D01*
X06879996Y05660005D02*
G01Y05719999D01*
X08269986Y05660005D02*
Y05719999D01*
X00052654Y06629980D02*
X00299999D01*
X09019997Y08642778D02*
X09114714D01*
X08339988Y08508995D02*
X08769985D01*
X08739988Y08349026D02*
X08919997D01*
X08819998Y08558983D02*
Y08589996D01*
X08969985Y08398988D02*
Y08589996D01*
X08697493Y08640212D02*
X08769985D01*
X08662721Y08673232D02*
Y09085220D01*
X09139987Y08673232D02*
Y09085220D01*
X00349987Y08465003D02*
Y09165002D01*
X00000000Y07325813D02*
Y08365003D01*
X00049860Y07275546D02*
X00299999D01*
X00349987Y06679993D02*
Y07225584D01*
X08692718Y09115243D02*
X09105239D01*
X08339988Y09400002D02*
X09090000D01*
X00000000Y09265001D02*
Y10009983D01*
X00399999Y10409983D02*
X08739988D01*
X00059995Y09214989D02*
X00309981D01*
X00059995Y08414990D02*
X00309981D01*
X00000000Y06009991D02*
Y06579993D01*
X00399999Y05609992D02*
X06820001D01*
X09139987Y06009991D02*
Y07630003D01*
X08739988Y07679991D02*
X09090000D01*
X08689975Y07730003D02*
Y08299979D01*
X09139987Y09449990D02*
Y10009983D01*
X06929984Y05769987D02*
X08219999D01*
X08319999Y05609992D02*
X08739988D01*
X08289976Y08558983D02*
Y09349990D01*
G54D77*
X00391135Y06084947D03*
G54D78*
X08219288Y08239654D03*
G54D79*
X08094827Y08387482D03*
Y08222382D03*
G54D80*
X08557870Y08387482D03*
Y08337444D03*
Y08287660D03*
Y08237622D03*
X08322665Y08287660D03*
Y08237622D03*
G54D81*
X08219288Y08339679D03*
G54D82*
X08322767Y08387558D03*
G54D83*
X08440268Y08312552D03*
G54D84*
X08322665Y08337444D03*
G54D85*
X07903235Y06234832D03*
X07956220D03*
G54D10*
X07794295Y11908720D03*
Y12018701D03*
X07904277Y11798712D03*
Y11908720D03*
Y12018701D03*
X08014284Y11798712D03*
Y11908720D03*
Y12018701D03*
G54D11*
X01559992Y15217705D03*
Y15017705D03*
X05449976Y11299983D03*
X00709981Y10760005D03*
X00909980D03*
X03849980Y10797724D03*
X05399989Y11947709D03*
X03199994Y10787716D03*
X06849973Y12969982D03*
X03649980Y10797724D03*
X06799986Y13359999D03*
X07499985D03*
X07089978Y11529980D03*
X08099984Y11290001D03*
X07379995Y11309991D03*
X07299985Y13060000D03*
X06999986Y13359999D03*
X04249979Y13909986D03*
X03819982Y13030003D03*
Y13230002D03*
X06399987Y13130002D03*
X03499993Y13109987D03*
X06599987Y11169986D03*
X05650001Y11429980D03*
X07849997Y14609984D03*
X07299985Y15109983D03*
X02049983Y12009989D03*
X07229983Y14109985D03*
X07499985Y14259998D03*
X08399983Y14609984D03*
X04689983Y10969986D03*
X07299985Y13359999D03*
X06339992Y11629980D03*
X04489983Y10969986D03*
X04289984D03*
X04089984D03*
X03849980D03*
X07499985Y13659999D03*
X08179968Y10949996D03*
X07999984Y13830001D03*
X04514774Y14661292D03*
G54D12*
X07997114Y14458905D03*
Y14558879D03*
X08106359Y14075365D03*
X08484845Y15122328D03*
Y15022327D03*
X08395945D03*
Y15122328D03*
X08313420Y12351619D03*
Y12251620D03*
X06659677Y12643313D03*
Y12543313D03*
X00712445Y14138992D03*
X00801344Y14138408D03*
X08185099Y12271940D03*
Y12371939D03*
X04227805Y13336504D03*
X08397215Y12368460D03*
X08668995Y12371000D03*
X08077200Y12445599D03*
Y12345600D03*
X07602220Y12445599D03*
X07815554Y11018119D03*
X07560259Y11507400D03*
X07730439Y11554059D03*
Y11454060D03*
X07605979Y13778185D03*
Y13878159D03*
X08088579Y14458905D03*
G54D13*
X07807427Y13327792D03*
X07907426D03*
X07809967Y13424312D03*
X07909966D03*
X05605297Y11932900D03*
X05516347Y12662312D03*
X05339486Y12664852D03*
X08112277Y14884380D03*
X08005547Y13967872D03*
X07849006Y14453012D03*
X04110126Y15103252D03*
X04010127D03*
X04110126Y15197232D03*
X04010127D03*
X06355690Y10935900D03*
Y11024799D03*
X08161807Y12680067D03*
X07848117Y15095200D03*
X07948117D03*
X07848117Y15004192D03*
X07948117D03*
X04383049Y12339300D03*
X08481847Y12365106D03*
X08581847D03*
X07358990Y11692820D03*
X07458989D03*
X07358990Y11781719D03*
X07458989D03*
X07358990Y11870620D03*
X07458989D03*
X07358990Y12048420D03*
X07458989D03*
X07371512Y12137904D03*
X07471512D03*
X07203846Y11870620D03*
X08155407Y11463432D03*
X07809967Y13914532D03*
Y13652912D03*
X08044586Y11463432D03*
X08161807Y12596247D03*
X08261807D03*
Y12509887D03*
X08161807D03*
X07861198Y11557387D03*
X07471969Y12225864D03*
X07203821Y12137320D03*
Y12048420D03*
Y11781719D03*
Y11692820D03*
G54D14*
X00895096Y14970512D03*
G54D15*
X06205017Y12345295D03*
G54D16*
X04513631Y13787431D03*
X04463618D03*
X04413631D03*
X04363618D03*
Y13900409D03*
X04413631D03*
X04463618D03*
X04513631D03*
G54D17*
X04702378Y13787431D03*
G54D16*
X04652391D03*
X04602378D03*
Y13900409D03*
X04652391D03*
X04702378D03*
X04752391D03*
G54D18*
X02089379Y13500055D03*
G54D19*
X07382510Y10955407D03*
X07547610D03*
X07830769Y13541152D03*
X07995869D03*
X08305724Y11577732D03*
X08470824D03*
X04405427Y13488600D03*
X08305724Y11719972D03*
X08112734Y14770080D03*
X04863567Y11470620D03*
X01322045Y14466321D03*
X07104177Y15126950D03*
G54D20*
X08979992Y11732545D03*
G54D19*
X07694879Y11045450D03*
G54D21*
X02919984Y12079992D03*
G54D22*
X00391135Y11084947D03*
G54D23*
X03633495Y12100769D03*
G54D24*
X00910057Y11187791D03*
X01144981Y11102295D03*
X01379906Y11016773D03*
G54D25*
X00149987Y11469985D03*
Y14549989D03*
X08990000D03*
X05869991Y13600004D03*
G54D26*
X07904277Y11908720D03*
G54D27*
X06634277Y14491900D03*
G54D28*
X08107578Y15071934D03*
Y15021946D03*
G54D29*
Y14971934D03*
X08157591D03*
X08257591Y15121921D03*
X08207578D03*
X08157591D03*
X08107578D03*
G54D30*
X07853401Y14320703D03*
X07918399D03*
X07983398D03*
Y14095685D03*
X07853401D03*
G54D31*
X08979992Y11739987D03*
G54D32*
X08932494Y12079992D03*
X09027490D03*
G54D33*
X08979992Y12060002D03*
G54D34*
X00708889Y14614912D03*
G54D35*
X02549982Y11434984D03*
Y11584971D03*
Y11734984D03*
Y11884971D03*
G54D36*
X01708175Y13952226D03*
X01619885Y13036099D03*
X01721383Y13119030D03*
X01670304Y13543692D03*
X01474292Y13703305D03*
X01403579Y13632592D03*
X01191793Y13425989D03*
X02401392Y13817606D03*
X02165579Y13581792D03*
X01906092Y13995406D03*
X01848079Y14135512D03*
G54D37*
X01098372Y10904226D03*
G54D38*
X08079283Y12151213D03*
X08029295D03*
X07979283D03*
X07929296D03*
X07879283D03*
X07829296D03*
X07779283D03*
X07729296D03*
Y11666200D03*
X07779283D03*
X07829296D03*
X07879283D03*
X07929296D03*
X07979283D03*
X08029295D03*
X08079283D03*
G54D39*
X07661783Y12083725D03*
Y12033713D03*
Y11983725D03*
Y11933713D03*
Y11883701D03*
Y11833713D03*
Y11783701D03*
Y11733714D03*
X08146796D03*
Y11783701D03*
Y11833713D03*
Y11883701D03*
Y11933713D03*
Y11983725D03*
Y12033713D03*
Y12083725D03*
G54D40*
X05935624Y13002672D03*
X05740629D03*
Y13067671D03*
G54D41*
X05838139Y13002672D03*
G54D42*
X07730033Y12530207D03*
Y12380220D03*
X07940015D03*
G54D43*
X05602021Y12355226D03*
Y12070746D03*
G54D44*
X07793101Y13821034D03*
X07758074D03*
X07723098D03*
X07688097D03*
Y13754029D03*
X07723098D03*
X07758074D03*
X07793101D03*
G54D45*
X00299999Y15059996D03*
G54D46*
X01052805Y14629339D03*
G54D47*
X01185113Y14970512D03*
G54D48*
X01322045Y14631421D03*
X01179805Y14628882D03*
G54D49*
X00803884Y14614912D03*
X00898880D03*
G54D46*
X00712445Y14238992D03*
X00623545D03*
Y14138992D03*
X01052805Y14529365D03*
X00801344Y14238408D03*
G54D48*
X01179805Y14463781D03*
X01040105Y14379961D03*
Y14214861D03*
G54D49*
X00903884Y14374907D03*
X00708889D03*
G54D50*
X01637487Y13881512D03*
X01835404Y13924692D03*
X01918792Y14206226D03*
X01262507Y13496702D03*
X01549197Y12965385D03*
X01792097Y13189743D03*
G54D45*
X00799998Y12260002D03*
X00399999Y11377707D03*
G54D51*
X01192327Y10870012D03*
G54D45*
X00509981Y10760005D03*
G54D48*
X01210107Y10745400D03*
X01375207D03*
G54D45*
X01863039Y10909712D03*
G54D52*
X02307539Y11168691D03*
G54D46*
X02183054Y11182305D03*
Y11282305D03*
G54D48*
X02078939Y11332622D03*
Y11167522D03*
G54D53*
X02549982Y11134985D03*
Y11284971D03*
G54D52*
X02307539Y11473693D03*
G54D54*
X02919984Y10939989D03*
G54D48*
X02835377Y13300690D03*
Y13135590D03*
G54D55*
X02160092Y13429341D03*
G54D50*
X01740992Y13614406D03*
X02330704Y13746892D03*
X02236292Y13652505D03*
G54D48*
X05028666Y11470620D03*
G54D56*
X04945990Y12015400D03*
Y11913800D03*
X05045989Y12015400D03*
Y11913800D03*
X05705297Y11932900D03*
G54D57*
X05697017Y12070746D03*
X05792013D03*
G54D46*
X05346497Y12267139D03*
Y12367138D03*
G54D56*
X04945990Y12484080D03*
X05045989D03*
Y12167800D03*
X04945990D03*
G54D48*
X05458257Y12201556D03*
Y12366656D03*
G54D46*
X05912206Y12210980D03*
Y12310979D03*
G54D57*
X05792013Y12355226D03*
X05697017D03*
G54D56*
X04483049Y12339300D03*
G54D46*
X04227805Y13236479D03*
X03979977Y12916287D03*
Y12816287D03*
X04094277D03*
X04195877Y12916287D03*
Y12816287D03*
X04094277Y12916287D03*
G54D48*
X04570527Y13488600D03*
G54D46*
X04898314Y15055780D03*
Y15155805D03*
G54D48*
X05010099Y15041022D03*
Y15206122D03*
X05149774D03*
Y15041022D03*
G54D45*
X05399989Y15109983D03*
Y14189995D03*
G54D58*
X05365699Y13274681D03*
Y12984664D03*
G54D48*
X05692064Y13310012D03*
X05857189D03*
X05692064Y13170312D03*
X05857189D03*
G54D59*
X05935624Y13067671D03*
Y12937674D03*
X05740629D03*
G54D46*
X06079439Y13075544D03*
Y12975545D03*
G54D56*
X05760187Y12817252D03*
X05860186D03*
G54D60*
X05458155Y12802012D03*
G54D61*
X05268138D03*
G54D56*
X04945990Y12786340D03*
Y12679660D03*
X05045989Y12786340D03*
Y12679660D03*
X05239487Y12664852D03*
X05616346Y12662312D03*
G54D45*
X05799988Y12609988D03*
G54D58*
X06205017Y12055303D03*
G54D48*
X06522517Y12348876D03*
Y12183776D03*
G54D46*
X06545377Y11023987D03*
Y10923987D03*
X06634277Y11023987D03*
Y10923987D03*
G54D56*
X06455689Y10935900D03*
Y11024799D03*
G54D45*
X06789979Y10929981D03*
G54D62*
X06979996Y11290001D03*
G54D63*
X07420000Y11139988D03*
G54D45*
X07979994Y10949996D03*
G54D46*
X07815554Y10918119D03*
G54D48*
X07694879Y10880349D03*
G54D64*
X07849997Y11139988D03*
G54D63*
X08379993D03*
G54D65*
X08729980Y11449996D03*
G54D48*
X08470824Y11719972D03*
X08979992Y11567445D03*
G54D56*
X08402726Y11923172D03*
Y11834272D03*
X08302727D03*
Y11923172D03*
G54D65*
X08729980Y12099981D03*
G54D56*
X07944587Y11463432D03*
X07961198Y11557387D03*
G54D46*
X07560259Y11607399D03*
G54D66*
X06979996Y11739987D03*
Y12079992D03*
G54D67*
X07349998Y12579990D03*
G54D68*
X07229983Y12299981D03*
G54D63*
X07609992Y12769983D03*
G54D46*
X08397215Y12468459D03*
G54D56*
X08261807Y12680067D03*
G54D69*
X08579993Y12609988D03*
G54D70*
X08359978Y12689998D03*
G54D71*
X08259978Y12769983D03*
G54D46*
X08668995Y12470999D03*
X07602220Y12345600D03*
G54D61*
X06285281Y12525406D03*
G54D60*
X06475298D03*
G54D56*
X08255406Y11463432D03*
X07371969Y12225864D03*
X07103847Y11870620D03*
X07103821Y12137320D03*
Y12048420D03*
Y11781719D03*
Y11692820D03*
G54D45*
X08699983Y14609984D03*
G54D46*
X08088579Y14558879D03*
G54D48*
X08277834Y14770080D03*
G54D56*
X07749007Y14453012D03*
G54D46*
X08106359Y14175339D03*
G54D56*
X08105546Y13967872D03*
X08212277Y14884380D03*
G54D72*
X08257591Y15021921D03*
Y15071934D03*
G54D73*
X08207578Y14971934D03*
X08257591D03*
G54D46*
X06989877Y15214986D03*
Y15114987D03*
G54D48*
X07104177Y15292050D03*
X06862877Y15120550D03*
Y15285650D03*
G54D45*
X07649997Y15107722D03*
X06369990Y13430001D03*
G54D56*
X02219909Y11722080D03*
X02221687Y11826626D03*
X02121687D03*
X02119909Y11722080D03*
G54D74*
X07940015Y12530207D03*
G54D56*
X07909966Y13652912D03*
Y13914532D03*
G54D75*
X04752391Y13787431D03*
G54D76*
X06929984Y10769986D02*
G03X06879996Y10720000I00000013J-00050000D01*
X06820001Y10609992D02*
G03X06879996Y10660005I00005003J00054990D01*
X08269986D02*
G03X08319999Y10609992I00050012J00000000D01*
X08269986Y10720000D02*
G03X08219999Y10769986I-00050000J-00000013D01*
X09019997Y13642778D02*
G03X08969985Y13589996I00001385J-00051397D01*
X00299999Y11629980D02*
G03X00349987Y11679992I-00000012J00050000D01*
X00052654Y11629980D02*
G03X00000000Y11579992I-00001321J-00051334D01*
X08289976Y13558983D02*
G03X08339988Y13508996I00050000J00000012D01*
X08769985D02*
G03X08819998Y13558983I00000000J00050013D01*
Y13589996D02*
G03X08769985Y13640212I-00050114J00000102D01*
X08919997Y13349027D02*
G03X08969985Y13398988I00000013J00049974D01*
X09139987Y14085220D02*
G03X09109989Y14115243I-00030010J00000012D01*
X09109659Y13642752D02*
G03X09139657Y13672750I00000000J00029998D01*
X08662619Y13670692D02*
G03X08692617Y13640694I00029998J00000000D01*
X08692718Y14115243D02*
G03X08662721Y14085220I00000000J-00029997D01*
X08739988Y13349027D02*
G03X08689975Y13299979I-00000483J-00049530D01*
X08339988Y14400002D02*
G03X08289976Y14349990I00000000J-00050012D01*
X09090000Y14400002D02*
G03X09139987Y14449990I-00000012J00050000D01*
Y15009983D02*
G03X08739988Y15409983I-00399999J00000000D01*
Y10609992D02*
G03X09139987Y11009991I00000000J00399999D01*
X00399999Y15409983D02*
G03X00000000Y15009983I00000000J-00399999D01*
Y11009991D02*
G03X00399999Y10609992I00399999J-00000000D01*
X00349987Y12222892D02*
G03X00299999Y12275546I-00051334J00001321D01*
X00349987Y14165002D02*
G03X00309981Y14214988I-00044997J00004990D01*
Y13414990D02*
G03X00349987Y13465003I-00005004J00045009D01*
X00059995Y13414990D02*
G03X00000000Y13365003I-00005004J-00054991D01*
Y14265001D02*
G03X00059995Y14214988I00055005J00004992D01*
X00000000Y12325813D02*
G03X00049860Y12275953I00049860J-00000000D01*
X09139987Y12629826D02*
G03X09090000Y12679838I-00050013J00000000D01*
X08689975Y12730003D02*
G03X08739988Y12679990I00050012J00000000D01*
X06879996Y10660005D02*
G01Y10720000D01*
X08269986Y10660005D02*
Y10720000D01*
X00052654Y11629980D02*
X00299999D01*
X09019997Y13642778D02*
X09114714D01*
X08339988Y13508996D02*
X08769985D01*
X08739988Y13349027D02*
X08919997D01*
X08819998Y13558983D02*
Y13589996D01*
X08969985Y13398988D02*
Y13589996D01*
X08697493Y13640212D02*
X08769985D01*
X08662721Y13673232D02*
Y14085220D01*
X09139987Y13673232D02*
Y14085220D01*
X00349987Y13465003D02*
Y14165002D01*
X00000000Y12325813D02*
Y13365003D01*
X00049860Y12275546D02*
X00299999D01*
X00349987Y11679992D02*
Y12225585D01*
X08692718Y14115243D02*
X09105239D01*
X08339988Y14400002D02*
X09090000D01*
X00000000Y14265001D02*
Y15009983D01*
X00399999Y15409983D02*
X08739988D01*
X00059995Y14214988D02*
X00309981D01*
X00059995Y13414990D02*
X00309981D01*
X00000000Y11009991D02*
Y11579992D01*
X00399999Y10609992D02*
X06820001D01*
X09139987Y11009991D02*
Y12630003D01*
X08739988Y12679990D02*
X09090000D01*
X08689975Y12730003D02*
Y13299979D01*
X09139987Y14449990D02*
Y15009983D01*
X06929984Y10769986D02*
X08219999D01*
X08319999Y10609992D02*
X08739988D01*
X08289976Y13558983D02*
Y14349990D01*
G54D77*
X00391135Y11084947D03*
G54D78*
X08219288Y13239654D03*
G54D79*
X08094827Y13387482D03*
Y13222382D03*
G54D80*
X08557870Y13387482D03*
Y13337444D03*
Y13287660D03*
Y13237622D03*
X08322665Y13287660D03*
Y13237622D03*
G54D81*
X08219288Y13339679D03*
G54D82*
X08322767Y13387558D03*
G54D83*
X08440268Y13312552D03*
G54D84*
X08322665Y13337444D03*
G54D85*
X07903235Y11234832D03*
X07956220D03*
G54D10*
X17134295Y01908719D03*
Y02018701D03*
X17244277Y01798712D03*
Y01908719D03*
Y02018701D03*
X17354284Y01798712D03*
Y01908719D03*
Y02018701D03*
G54D11*
X10899992Y05217704D03*
Y05017705D03*
X14789976Y01299983D03*
X10049981Y00760005D03*
X10249980D03*
X13189979Y00797723D03*
X14739989Y01947709D03*
X12539994Y00787716D03*
X16189974Y02969982D03*
X12989980Y00797723D03*
X16139986Y03359999D03*
X16839985D03*
X16429978Y01529980D03*
X17439984Y01290001D03*
X16719995Y01309991D03*
X16639985Y03060000D03*
X16339986Y03359999D03*
X13589979Y03909986D03*
X13159982Y03030003D03*
Y03230002D03*
X15739987Y03130002D03*
X12839993Y03109987D03*
X15939987Y01169986D03*
X14990001Y01429980D03*
X17189997Y04609984D03*
X16639985Y05109983D03*
X11389983Y02009989D03*
X16569983Y04109985D03*
X16839985Y04259998D03*
X17739983Y04609984D03*
X14029983Y00969986D03*
X16639985Y03359999D03*
X15679992Y01629980D03*
X13829983Y00969986D03*
X13629984D03*
X13429984D03*
X13189979D03*
X16839985Y03659998D03*
X17519968Y00949997D03*
X17339984Y03830001D03*
X13854774Y04661292D03*
G54D12*
X17337114Y04458905D03*
Y04558879D03*
X17446359Y04075365D03*
X17824844Y05122327D03*
Y05022328D03*
X17735945D03*
Y05122327D03*
X17653420Y02351619D03*
Y02251620D03*
X15999677Y02643313D03*
Y02543313D03*
X10052445Y04138992D03*
X10141345Y04138407D03*
X17525099Y02271940D03*
Y02371939D03*
X13567805Y03336504D03*
X17737215Y02368460D03*
X18008995Y02371000D03*
X17417200Y02445599D03*
Y02345600D03*
X16942220Y02445599D03*
X17155555Y01018119D03*
X16900259Y01507400D03*
X17070439Y01554059D03*
Y01454060D03*
X16945979Y03778185D03*
Y03878159D03*
X17428579Y04458905D03*
G54D13*
X17147427Y03327792D03*
X17247426D03*
X17149967Y03424312D03*
X17249966D03*
X14945297Y01932900D03*
X14856347Y02662312D03*
X14679486Y02664852D03*
X17452277Y04884380D03*
X17345546Y03967872D03*
X17189006Y04453012D03*
X13450126Y05103252D03*
X13350126D03*
X13450126Y05197232D03*
X13350126D03*
X15695690Y00935900D03*
Y01024800D03*
X17501807Y02680067D03*
X17188117Y05095200D03*
X17288117D03*
X17188117Y05004192D03*
X17288117D03*
X13723049Y02339300D03*
X17821847Y02365107D03*
X17921847D03*
X16698989Y01692819D03*
X16798989D03*
X16698989Y01781719D03*
X16798989D03*
X16698989Y01870620D03*
X16798989D03*
X16698989Y02048420D03*
X16798989D03*
X16711512Y02137904D03*
X16811512D03*
X16543846Y01870620D03*
X17495407Y01463432D03*
X17149967Y03914532D03*
Y03652912D03*
X17384586Y01463432D03*
X17501807Y02596247D03*
X17601807D03*
Y02509887D03*
X17501807D03*
X17201198Y01557387D03*
X16811969Y02225864D03*
X16543821Y02137320D03*
Y02048420D03*
Y01781719D03*
Y01692819D03*
G54D14*
X10235096Y04970512D03*
G54D15*
X15545017Y02345294D03*
G54D16*
X13853631Y03787431D03*
X13803618D03*
X13753631D03*
X13703618D03*
Y03900410D03*
X13753631D03*
X13803618D03*
X13853631D03*
G54D17*
X14042378Y03787431D03*
G54D16*
X13992391D03*
X13942378D03*
Y03900410D03*
X13992391D03*
X14042378D03*
X14092391D03*
G54D18*
X11429378Y03500055D03*
G54D19*
X16722510Y00955407D03*
X16887610D03*
X17170769Y03541152D03*
X17335869D03*
X17645724Y01577732D03*
X17810824D03*
X13745427Y03488599D03*
X17645724Y01719972D03*
X17452735Y04770080D03*
X14203567Y01470620D03*
X10662045Y04466321D03*
X16444177Y05126950D03*
G54D20*
X18319992Y01732545D03*
G54D19*
X17034879Y01045450D03*
G54D21*
X12259984Y02079991D03*
G54D22*
X09731134Y01084946D03*
G54D23*
X12973495Y02100769D03*
G54D24*
X10250057Y01187791D03*
X10484981Y01102295D03*
X10719906Y01016773D03*
G54D25*
X09489987Y01469985D03*
Y04549989D03*
X18330000D03*
X15209991Y03600004D03*
G54D26*
X17244277Y01908719D03*
G54D27*
X15974277Y04491900D03*
G54D28*
X17447578Y05071934D03*
Y05021946D03*
G54D29*
Y04971934D03*
X17497591D03*
X17597591Y05121921D03*
X17547578D03*
X17497591D03*
X17447578D03*
G54D30*
X17193401Y04320704D03*
X17258399D03*
X17323398D03*
Y04095685D03*
X17193401D03*
G54D31*
X18319992Y01739987D03*
G54D32*
X18272494Y02079991D03*
X18367490D03*
G54D33*
X18319992Y02060002D03*
G54D34*
X10048889Y04614911D03*
G54D35*
X11889982Y01434984D03*
Y01584971D03*
Y01734983D03*
Y01884971D03*
G54D36*
X11048175Y03952226D03*
X10959885Y03036098D03*
X11061383Y03119030D03*
X11010304Y03543692D03*
X10814292Y03703305D03*
X10743579Y03632592D03*
X10531793Y03425989D03*
X11741392Y03817606D03*
X11505578Y03581792D03*
X11246092Y03995405D03*
X11188078Y04135512D03*
G54D37*
X10438372Y00904225D03*
G54D38*
X17419283Y02151213D03*
X17369296D03*
X17319283D03*
X17269296D03*
X17219283D03*
X17169296D03*
X17119283D03*
X17069296D03*
Y01666200D03*
X17119283D03*
X17169296D03*
X17219283D03*
X17269296D03*
X17319283D03*
X17369296D03*
X17419283D03*
G54D39*
X17001783Y02083726D03*
Y02033713D03*
Y01983726D03*
Y01933713D03*
Y01883701D03*
Y01833713D03*
Y01783700D03*
Y01733714D03*
X17486796D03*
Y01783700D03*
Y01833713D03*
Y01883701D03*
Y01933713D03*
Y01983726D03*
Y02033713D03*
Y02083726D03*
G54D40*
X15275624Y03002672D03*
X15080629D03*
Y03067671D03*
G54D41*
X15178139Y03002672D03*
G54D42*
X17070033Y02530207D03*
Y02380219D03*
X17280015D03*
G54D43*
X14942021Y02355226D03*
Y02070746D03*
G54D44*
X17133101Y03821034D03*
X17098074D03*
X17063099D03*
X17028097D03*
Y03754030D03*
X17063099D03*
X17098074D03*
X17133101D03*
G54D45*
X09639999Y05059996D03*
G54D46*
X10392805Y04629339D03*
G54D47*
X10525113Y04970512D03*
G54D48*
X10662045Y04631422D03*
X10519805Y04628882D03*
G54D49*
X10143885Y04614911D03*
X10238881D03*
G54D46*
X10052445Y04238991D03*
X09963544D03*
Y04138992D03*
X10392805Y04529365D03*
X10141345Y04238408D03*
G54D48*
X10519805Y04463782D03*
X10380105Y04379962D03*
Y04214862D03*
G54D49*
X10243884Y04374907D03*
X10048889D03*
G54D50*
X10977487Y03881512D03*
X11175404Y03924692D03*
X11258792Y04206226D03*
X10602507Y03496702D03*
X10889197Y02965385D03*
X11132097Y03189743D03*
G54D45*
X10139998Y02260002D03*
X09739999Y01377707D03*
G54D51*
X10532327Y00870012D03*
G54D45*
X09849981Y00760005D03*
G54D48*
X10550107Y00745400D03*
X10715207D03*
G54D45*
X11203039Y00909712D03*
G54D52*
X11647539Y01168691D03*
G54D46*
X11523054Y01182305D03*
Y01282304D03*
G54D48*
X11418939Y01332622D03*
Y01167522D03*
G54D53*
X11889982Y01134984D03*
Y01284971D03*
G54D52*
X11647539Y01473694D03*
G54D54*
X12259984Y00939989D03*
G54D48*
X12175376Y03300690D03*
Y03135590D03*
G54D55*
X11500092Y03429341D03*
G54D50*
X11080992Y03614406D03*
X11670704Y03746892D03*
X11576292Y03652505D03*
G54D48*
X14368667Y01470620D03*
G54D56*
X14285990Y02015399D03*
Y01913799D03*
X14385989Y02015399D03*
Y01913799D03*
X15045297Y01932900D03*
G54D57*
X15037017Y02070746D03*
X15132013D03*
G54D46*
X14686497Y02267139D03*
Y02367139D03*
G54D56*
X14285990Y02484080D03*
X14385989D03*
Y02167800D03*
X14285990D03*
G54D48*
X14798257Y02201556D03*
Y02366656D03*
G54D46*
X15252206Y02210980D03*
Y02310979D03*
G54D57*
X15132013Y02355226D03*
X15037017D03*
G54D56*
X13823049Y02339300D03*
G54D46*
X13567805Y03236479D03*
X13319977Y02916286D03*
Y02816287D03*
X13434277D03*
X13535877Y02916286D03*
Y02816287D03*
X13434277Y02916286D03*
G54D48*
X13910527Y03488599D03*
G54D46*
X14238314Y05055780D03*
Y05155805D03*
G54D48*
X14350099Y05041022D03*
Y05206122D03*
X14489774D03*
Y05041022D03*
G54D45*
X14739989Y05109983D03*
Y04189995D03*
G54D58*
X14705699Y03274680D03*
Y02984664D03*
G54D48*
X15032064Y03310012D03*
X15197189D03*
X15032064Y03170312D03*
X15197189D03*
G54D59*
X15275624Y03067671D03*
Y02937674D03*
X15080629D03*
G54D46*
X15419439Y03075545D03*
Y02975545D03*
G54D56*
X15100187Y02817252D03*
X15200186D03*
G54D60*
X14798155Y02802012D03*
G54D61*
X14608138D03*
G54D56*
X14285990Y02786340D03*
Y02679660D03*
X14385989Y02786340D03*
Y02679660D03*
X14579486Y02664852D03*
X14956346Y02662312D03*
G54D45*
X15139988Y02609988D03*
G54D58*
X15545017Y02055303D03*
G54D48*
X15862517Y02348876D03*
Y02183776D03*
G54D46*
X15885377Y01023987D03*
Y00923987D03*
X15974277Y01023987D03*
Y00923987D03*
G54D56*
X15795689Y00935900D03*
Y01024800D03*
G54D45*
X16129979Y00929981D03*
G54D62*
X16319996Y01290001D03*
G54D63*
X16760000Y01139989D03*
G54D45*
X17319994Y00949997D03*
G54D46*
X17155555Y00918119D03*
G54D48*
X17034879Y00880350D03*
G54D64*
X17189997Y01139989D03*
G54D63*
X17719993D03*
G54D65*
X18069980Y01449995D03*
G54D48*
X17810824Y01719972D03*
X18319992Y01567445D03*
G54D56*
X17742726Y01923172D03*
Y01834272D03*
X17642726D03*
Y01923172D03*
G54D65*
X18069980Y02099982D03*
G54D56*
X17284586Y01463432D03*
X17301198Y01557387D03*
G54D46*
X16900259Y01607399D03*
G54D66*
X16319996Y01739987D03*
Y02079991D03*
G54D67*
X16689998Y02579991D03*
G54D68*
X16569983Y02299981D03*
G54D63*
X16949992Y02769983D03*
G54D46*
X17737215Y02468459D03*
G54D56*
X17601807Y02680067D03*
G54D69*
X17919993Y02609988D03*
G54D70*
X17699978Y02689998D03*
G54D71*
X17599978Y02769983D03*
G54D46*
X18008995Y02470999D03*
X16942220Y02345600D03*
G54D61*
X15625281Y02525406D03*
G54D60*
X15815298D03*
G54D56*
X17595406Y01463432D03*
X16711969Y02225864D03*
X16443847Y01870620D03*
X16443821Y02137320D03*
Y02048420D03*
Y01781719D03*
Y01692819D03*
G54D45*
X18039983Y04609984D03*
G54D46*
X17428579Y04558879D03*
G54D48*
X17617835Y04770080D03*
G54D56*
X17089007Y04453012D03*
G54D46*
X17446359Y04175339D03*
G54D56*
X17445546Y03967872D03*
X17552277Y04884380D03*
G54D72*
X17597591Y05021921D03*
Y05071934D03*
G54D73*
X17547578Y04971934D03*
X17597591D03*
G54D46*
X16329877Y05214987D03*
Y05114987D03*
G54D48*
X16444177Y05292050D03*
X16202877Y05120549D03*
Y05285650D03*
G54D45*
X16989997Y05107723D03*
X15709990Y03430001D03*
G54D56*
X11559909Y01722080D03*
X11561687Y01826627D03*
X11461687D03*
X11459909Y01722080D03*
G54D74*
X17280015Y02530207D03*
G54D56*
X17249966Y03652912D03*
Y03914532D03*
G54D75*
X14092391Y03787431D03*
G54D76*
X16269983Y00769986D02*
G03X16219996Y00720000I00000013J-00050000D01*
X16160002Y00609992D02*
G03X16219996Y00660005I00005003J00054990D01*
X17609986D02*
G03X17659998Y00609992I00050012J00000000D01*
X17609986Y00720000D02*
G03X17559999Y00769986I-00050000J-00000013D01*
X18359997Y03642777D02*
G03X18309985Y03589996I00001385J-00051397D01*
X09639999Y01629980D02*
G03X09689987Y01679992I-00000012J00050000D01*
X09392654Y01629980D02*
G03X09340000Y01579992I-00001321J-00051334D01*
X17629976Y03558983D02*
G03X17679988Y03508995I00050000J00000012D01*
X18109985D02*
G03X18159998Y03558983I00000000J00050013D01*
Y03589996D02*
G03X18109985Y03640212I-00050114J00000102D01*
X18259997Y03349026D02*
G03X18309985Y03398988I00000013J00049974D01*
X18479987Y04085220D02*
G03X18449989Y04115243I-00030010J00000012D01*
X18449659Y03642752D02*
G03X18479657Y03672749I00000000J00029998D01*
X18002619Y03670692D02*
G03X18032616Y03640695I00029998J00000000D01*
X18032718Y04115243D02*
G03X18002721Y04085220I00000000J-00029997D01*
X18079988Y03349026D02*
G03X18029975Y03299979I-00000483J-00049530D01*
X17679988Y04400002D02*
G03X17629976Y04349990I00000000J-00050012D01*
X18430000Y04400002D02*
G03X18479987Y04449989I-00000012J00050000D01*
Y05009983D02*
G03X18079988Y05409982I-00399999J00000000D01*
Y00609992D02*
G03X18479987Y01009991I00000000J00399999D01*
X09739999Y05409982D02*
G03X09340000Y05009983I00000000J-00399999D01*
Y01009991D02*
G03X09739999Y00609992I00399999J-00000000D01*
X09689987Y02222892D02*
G03X09639999Y02275546I-00051334J00001321D01*
X09689987Y04165001D02*
G03X09649981Y04214989I-00044997J00004990D01*
Y03414990D02*
G03X09689987Y03465003I-00005004J00045009D01*
X09399995Y03414990D02*
G03X09340000Y03365003I-00005004J-00054991D01*
Y04265001D02*
G03X09399995Y04214989I00055005J00004992D01*
X09340000Y02325813D02*
G03X09389860Y02275952I00049860J-00000000D01*
X18479987Y02629826D02*
G03X18430000Y02679838I-00050013J00000000D01*
X18029975Y02730003D02*
G03X18079988Y02679991I00050012J00000000D01*
X16219996Y00660005D02*
G01Y00720000D01*
X17609986Y00660005D02*
Y00720000D01*
X09392654Y01629980D02*
X09639999D01*
X18359997Y03642777D02*
X18454714D01*
X17679988Y03508995D02*
X18109985D01*
X18079988Y03349026D02*
X18259997D01*
X18159998Y03558983D02*
Y03589996D01*
X18309985Y03398988D02*
Y03589996D01*
X18037493Y03640212D02*
X18109985D01*
X18002721Y03673232D02*
Y04085220D01*
X18479987Y03673232D02*
Y04085220D01*
X09689987Y03465003D02*
Y04165001D01*
X09340000Y02325813D02*
Y03365003D01*
X09389860Y02275546D02*
X09639999D01*
X09689987Y01679992D02*
Y02225584D01*
X18032718Y04115243D02*
X18445240D01*
X17679988Y04400002D02*
X18430000D01*
X09340000Y04265001D02*
Y05009983D01*
X09739999Y05409982D02*
X18079988D01*
X09399995Y04214989D02*
X09649981D01*
X09399995Y03414990D02*
X09649981D01*
X09340000Y01009991D02*
Y01579992D01*
X09739999Y00609992D02*
X16160002D01*
X18479987Y01009991D02*
Y02630003D01*
X18079988Y02679991D02*
X18430000D01*
X18029975Y02730003D02*
Y03299979D01*
X18479987Y04449989D02*
Y05009983D01*
X16269983Y00769986D02*
X17559999D01*
X17659998Y00609992D02*
X18079988D01*
X17629976Y03558983D02*
Y04349990D01*
G54D77*
X09731134Y01084946D03*
G54D78*
X17559288Y03239654D03*
G54D79*
X17434828Y03387482D03*
Y03222382D03*
G54D80*
X17897870Y03387482D03*
Y03337444D03*
Y03287660D03*
Y03237622D03*
X17662666Y03287660D03*
Y03237622D03*
G54D81*
X17559288Y03339679D03*
G54D82*
X17662767Y03387558D03*
G54D83*
X17780268Y03312552D03*
G54D84*
X17662666Y03337444D03*
G54D85*
X17243235Y01234832D03*
X17296220D03*
G54D10*
X17134295Y06908719D03*
Y07018702D03*
X17244277Y06798712D03*
Y06908719D03*
Y07018702D03*
X17354284Y06798712D03*
Y06908719D03*
Y07018702D03*
G54D11*
X10899992Y10217705D03*
Y10017705D03*
X14789976Y06299983D03*
X10049981Y05760005D03*
X10249980D03*
X13189979Y05797724D03*
X14739989Y06947709D03*
X12539994Y05787716D03*
X16189974Y07969982D03*
X12989980Y05797724D03*
X16139986Y08359999D03*
X16839985D03*
X16429978Y06529980D03*
X17439984Y06290001D03*
X16719995Y06309991D03*
X16639985Y08060000D03*
X16339986Y08359999D03*
X13589979Y08909986D03*
X13159982Y08030002D03*
Y08230002D03*
X15739987Y08130002D03*
X12839993Y08109987D03*
X15939987Y06169986D03*
X14990001Y06429980D03*
X17189997Y09609984D03*
X16639985Y10109983D03*
X11389983Y07009989D03*
X16569983Y09109985D03*
X16839985Y09259997D03*
X17739983Y09609984D03*
X14029983Y05969986D03*
X16639985Y08359999D03*
X15679992Y06629980D03*
X13829983Y05969986D03*
X13629984D03*
X13429984D03*
X13189979D03*
X16839985Y08659998D03*
X17519968Y05949997D03*
X17339984Y08830001D03*
X13854774Y09661292D03*
G54D12*
X17337114Y09458905D03*
Y09558879D03*
X17446359Y09075365D03*
X17824844Y10122328D03*
Y10022328D03*
X17735945D03*
Y10122328D03*
X17653420Y07351619D03*
Y07251620D03*
X15999677Y07643313D03*
Y07543313D03*
X10052445Y09138992D03*
X10141345Y09138408D03*
X17525099Y07271940D03*
Y07371939D03*
X13567805Y08336504D03*
X17737215Y07368460D03*
X18008995Y07370999D03*
X17417200Y07445599D03*
Y07345600D03*
X16942220Y07445599D03*
X17155555Y06018119D03*
X16900259Y06507400D03*
X17070439Y06554059D03*
Y06454060D03*
X16945979Y08778185D03*
Y08878159D03*
X17428579Y09458905D03*
G54D13*
X17147427Y08327792D03*
X17247426D03*
X17149967Y08424312D03*
X17249966D03*
X14945297Y06932900D03*
X14856347Y07662312D03*
X14679486Y07664852D03*
X17452277Y09884380D03*
X17345546Y08967872D03*
X17189006Y09453012D03*
X13450126Y10103252D03*
X13350126D03*
X13450126Y10197232D03*
X13350126D03*
X15695690Y05935899D03*
Y06024800D03*
X17501807Y07680066D03*
X17188117Y10095200D03*
X17288117D03*
X17188117Y10004192D03*
X17288117D03*
X13723049Y07339300D03*
X17821847Y07365107D03*
X17921847D03*
X16698989Y06692819D03*
X16798989D03*
X16698989Y06781720D03*
X16798989D03*
X16698989Y06870620D03*
X16798989D03*
X16698989Y07048420D03*
X16798989D03*
X16711512Y07137903D03*
X16811512D03*
X16543846Y06870620D03*
X17495407Y06463432D03*
X17149967Y08914532D03*
Y08652912D03*
X17384586Y06463432D03*
X17501807Y07596246D03*
X17601807D03*
Y07509887D03*
X17501807D03*
X17201198Y06557387D03*
X16811969Y07225864D03*
X16543821Y07137320D03*
Y07048420D03*
Y06781720D03*
Y06692819D03*
G54D14*
X10235096Y09970512D03*
G54D15*
X15545017Y07345295D03*
G54D16*
X13853631Y08787431D03*
X13803618D03*
X13753631D03*
X13703618D03*
Y08900410D03*
X13753631D03*
X13803618D03*
X13853631D03*
G54D17*
X14042378Y08787431D03*
G54D16*
X13992391D03*
X13942378D03*
Y08900410D03*
X13992391D03*
X14042378D03*
X14092391D03*
G54D18*
X11429378Y08500055D03*
G54D19*
X16722510Y05955406D03*
X16887610D03*
X17170769Y08541152D03*
X17335869D03*
X17645724Y06577732D03*
X17810824D03*
X13745427Y08488600D03*
X17645724Y06719972D03*
X17452735Y09770080D03*
X14203567Y06470620D03*
X10662045Y09466322D03*
X16444177Y10126950D03*
G54D20*
X18319992Y06732545D03*
G54D19*
X17034879Y06045449D03*
G54D21*
X12259984Y07079992D03*
G54D22*
X09731134Y06084947D03*
G54D23*
X12973495Y07100769D03*
G54D24*
X10250057Y06187791D03*
X10484981Y06102295D03*
X10719906Y06016773D03*
G54D25*
X09489987Y06469985D03*
Y09549989D03*
X18330000D03*
X15209991Y08600004D03*
G54D26*
X17244277Y06908719D03*
G54D27*
X15974277Y09491900D03*
G54D28*
X17447578Y10071934D03*
Y10021947D03*
G54D29*
Y09971934D03*
X17497591D03*
X17597591Y10121921D03*
X17547578D03*
X17497591D03*
X17447578D03*
G54D30*
X17193401Y09320704D03*
X17258399D03*
X17323398D03*
Y09095685D03*
X17193401D03*
G54D31*
X18319992Y06739987D03*
G54D32*
X18272494Y07079992D03*
X18367490D03*
G54D33*
X18319992Y07060002D03*
G54D34*
X10048889Y09614912D03*
G54D35*
X11889982Y06434984D03*
Y06584971D03*
Y06734984D03*
Y06884971D03*
G54D36*
X11048175Y08952226D03*
X10959885Y08036099D03*
X11061383Y08119029D03*
X11010304Y08543692D03*
X10814292Y08703306D03*
X10743579Y08632592D03*
X10531793Y08425989D03*
X11741392Y08817606D03*
X11505578Y08581792D03*
X11246092Y08995406D03*
X11188078Y09135512D03*
G54D37*
X10438372Y05904226D03*
G54D38*
X17419283Y07151213D03*
X17369296D03*
X17319283D03*
X17269296D03*
X17219283D03*
X17169296D03*
X17119283D03*
X17069296D03*
Y06666200D03*
X17119283D03*
X17169296D03*
X17219283D03*
X17269296D03*
X17319283D03*
X17369296D03*
X17419283D03*
G54D39*
X17001783Y07083726D03*
Y07033713D03*
Y06983726D03*
Y06933713D03*
Y06883701D03*
Y06833713D03*
Y06783700D03*
Y06733714D03*
X17486796D03*
Y06783700D03*
Y06833713D03*
Y06883701D03*
Y06933713D03*
Y06983726D03*
Y07033713D03*
Y07083726D03*
G54D40*
X15275624Y08002672D03*
X15080629D03*
Y08067671D03*
G54D41*
X15178139Y08002672D03*
G54D42*
X17070033Y07530207D03*
Y07380220D03*
X17280015D03*
G54D43*
X14942021Y07355226D03*
Y07070746D03*
G54D44*
X17133101Y08821035D03*
X17098074D03*
X17063099D03*
X17028097D03*
Y08754030D03*
X17063099D03*
X17098074D03*
X17133101D03*
G54D45*
X09639999Y10059996D03*
G54D46*
X10392805Y09629339D03*
G54D47*
X10525113Y09970512D03*
G54D48*
X10662045Y09631421D03*
X10519805Y09628882D03*
G54D49*
X10143885Y09614912D03*
X10238881D03*
G54D46*
X10052445Y09238991D03*
X09963544D03*
Y09138992D03*
X10392805Y09529365D03*
X10141345Y09238408D03*
G54D48*
X10519805Y09463782D03*
X10380105Y09379962D03*
Y09214862D03*
G54D49*
X10243884Y09374907D03*
X10048889D03*
G54D50*
X10977487Y08881512D03*
X11175404Y08924692D03*
X11258792Y09206226D03*
X10602507Y08496702D03*
X10889197Y07965385D03*
X11132097Y08189743D03*
G54D45*
X10139998Y07260002D03*
X09739999Y06377707D03*
G54D51*
X10532327Y05870012D03*
G54D45*
X09849981Y05760005D03*
G54D48*
X10550107Y05745400D03*
X10715207D03*
G54D45*
X11203039Y05909712D03*
G54D52*
X11647539Y06168691D03*
G54D46*
X11523054Y06182305D03*
Y06282304D03*
G54D48*
X11418939Y06332622D03*
Y06167522D03*
G54D53*
X11889982Y06134984D03*
Y06284972D03*
G54D52*
X11647539Y06473694D03*
G54D54*
X12259984Y05939989D03*
G54D48*
X12175376Y08300690D03*
Y08135590D03*
G54D55*
X11500092Y08429341D03*
G54D50*
X11080992Y08614406D03*
X11670704Y08746892D03*
X11576292Y08652506D03*
G54D48*
X14368667Y06470620D03*
G54D56*
X14285990Y07015399D03*
Y06913800D03*
X14385989Y07015399D03*
Y06913800D03*
X15045297Y06932900D03*
G54D57*
X15037017Y07070746D03*
X15132013D03*
G54D46*
X14686497Y07267139D03*
Y07367139D03*
G54D56*
X14285990Y07484080D03*
X14385989D03*
Y07167800D03*
X14285990D03*
G54D48*
X14798257Y07201556D03*
Y07366656D03*
G54D46*
X15252206Y07210980D03*
Y07310979D03*
G54D57*
X15132013Y07355226D03*
X15037017D03*
G54D56*
X13823049Y07339300D03*
G54D46*
X13567805Y08236479D03*
X13319977Y07916287D03*
Y07816287D03*
X13434277D03*
X13535877Y07916287D03*
Y07816287D03*
X13434277Y07916287D03*
G54D48*
X13910527Y08488600D03*
G54D46*
X14238314Y10055780D03*
Y10155805D03*
G54D48*
X14350099Y10041022D03*
Y10206122D03*
X14489774D03*
Y10041022D03*
G54D45*
X14739989Y10109983D03*
Y09189995D03*
G54D58*
X14705699Y08274680D03*
Y07984663D03*
G54D48*
X15032064Y08310012D03*
X15197189D03*
X15032064Y08170312D03*
X15197189D03*
G54D59*
X15275624Y08067671D03*
Y07937674D03*
X15080629D03*
G54D46*
X15419439Y08075544D03*
Y07975545D03*
G54D56*
X15100187Y07817252D03*
X15200186D03*
G54D60*
X14798155Y07802012D03*
G54D61*
X14608138D03*
G54D56*
X14285990Y07786340D03*
Y07679660D03*
X14385989Y07786340D03*
Y07679660D03*
X14579486Y07664852D03*
X14956346Y07662312D03*
G54D45*
X15139988Y07609988D03*
G54D58*
X15545017Y07055303D03*
G54D48*
X15862517Y07348876D03*
Y07183776D03*
G54D46*
X15885377Y06023987D03*
Y05923987D03*
X15974277Y06023987D03*
Y05923987D03*
G54D56*
X15795689Y05935899D03*
Y06024800D03*
G54D45*
X16129979Y05929981D03*
G54D62*
X16319996Y06290001D03*
G54D63*
X16760000Y06139989D03*
G54D45*
X17319994Y05949997D03*
G54D46*
X17155555Y05918120D03*
G54D48*
X17034879Y05880350D03*
G54D64*
X17189997Y06139989D03*
G54D63*
X17719993D03*
G54D65*
X18069980Y06449995D03*
G54D48*
X17810824Y06719972D03*
X18319992Y06567445D03*
G54D56*
X17742726Y06923172D03*
Y06834272D03*
X17642726D03*
Y06923172D03*
G54D65*
X18069980Y07099982D03*
G54D56*
X17284586Y06463432D03*
X17301198Y06557387D03*
G54D46*
X16900259Y06607399D03*
G54D66*
X16319996Y06739987D03*
Y07079992D03*
G54D67*
X16689998Y07579991D03*
G54D68*
X16569983Y07299981D03*
G54D63*
X16949992Y07769982D03*
G54D46*
X17737215Y07468459D03*
G54D56*
X17601807Y07680066D03*
G54D69*
X17919993Y07609988D03*
G54D70*
X17699978Y07689998D03*
G54D71*
X17599978Y07769982D03*
G54D46*
X18008995Y07470999D03*
X16942220Y07345600D03*
G54D61*
X15625281Y07525406D03*
G54D60*
X15815298D03*
G54D56*
X17595406Y06463432D03*
X16711969Y07225864D03*
X16443847Y06870620D03*
X16443821Y07137320D03*
Y07048420D03*
Y06781720D03*
Y06692819D03*
G54D45*
X18039983Y09609984D03*
G54D46*
X17428579Y09558879D03*
G54D48*
X17617835Y09770080D03*
G54D56*
X17089007Y09453012D03*
G54D46*
X17446359Y09175339D03*
G54D56*
X17445546Y08967872D03*
X17552277Y09884380D03*
G54D72*
X17597591Y10021921D03*
Y10071934D03*
G54D73*
X17547578Y09971934D03*
X17597591D03*
G54D46*
X16329877Y10214987D03*
Y10114987D03*
G54D48*
X16444177Y10292050D03*
X16202877Y10120549D03*
Y10285650D03*
G54D45*
X16989997Y10107723D03*
X15709990Y08430002D03*
G54D56*
X11559909Y06722080D03*
X11561687Y06826626D03*
X11461687D03*
X11459909Y06722080D03*
G54D74*
X17280015Y07530207D03*
G54D56*
X17249966Y08652912D03*
Y08914532D03*
G54D75*
X14092391Y08787431D03*
G54D76*
X16269983Y05769987D02*
G03X16219996Y05719999I00000013J-00050000D01*
X16160002Y05609992D02*
G03X16219996Y05660005I00005003J00054990D01*
X17609986D02*
G03X17659998Y05609992I00050012J00000000D01*
X17609986Y05719999D02*
G03X17559999Y05769987I-00050000J-00000013D01*
X18359997Y08642778D02*
G03X18309985Y08589996I00001385J-00051397D01*
X09639999Y06629980D02*
G03X09689987Y06679993I-00000012J00050000D01*
X09392654Y06629980D02*
G03X09340000Y06579993I-00001321J-00051334D01*
X17629976Y08558983D02*
G03X17679988Y08508995I00050000J00000012D01*
X18109985D02*
G03X18159998Y08558983I00000000J00050013D01*
Y08589996D02*
G03X18109985Y08640212I-00050114J00000102D01*
X18259997Y08349026D02*
G03X18309985Y08398988I00000013J00049974D01*
X18479987Y09085220D02*
G03X18449989Y09115243I-00030010J00000012D01*
X18449659Y08642752D02*
G03X18479657Y08672749I00000000J00029998D01*
X18002619Y08670692D02*
G03X18032616Y08640695I00029998J00000000D01*
X18032718Y09115243D02*
G03X18002721Y09085220I00000000J-00029997D01*
X18079988Y08349026D02*
G03X18029975Y08299979I-00000483J-00049530D01*
X17679988Y09400002D02*
G03X17629976Y09349990I00000000J-00050012D01*
X18430000Y09400002D02*
G03X18479987Y09449990I-00000012J00050000D01*
Y10009983D02*
G03X18079988Y10409983I-00399999J00000000D01*
Y05609992D02*
G03X18479987Y06009991I00000000J00399999D01*
X09739999Y10409983D02*
G03X09340000Y10009983I00000000J-00399999D01*
Y06009991D02*
G03X09739999Y05609992I00399999J-00000000D01*
X09689987Y07222892D02*
G03X09639999Y07275546I-00051334J00001321D01*
X09689987Y09165002D02*
G03X09649981Y09214989I-00044997J00004990D01*
Y08414990D02*
G03X09689987Y08465003I-00005004J00045009D01*
X09399995Y08414990D02*
G03X09340000Y08365003I-00005004J-00054991D01*
Y09265001D02*
G03X09399995Y09214989I00055005J00004992D01*
X09340000Y07325813D02*
G03X09389860Y07275953I00049860J-00000000D01*
X18479987Y07629826D02*
G03X18430000Y07679838I-00050013J00000000D01*
X18029975Y07730003D02*
G03X18079988Y07679991I00050012J00000000D01*
X16219996Y05660005D02*
G01Y05719999D01*
X17609986Y05660005D02*
Y05719999D01*
X09392654Y06629980D02*
X09639999D01*
X18359997Y08642778D02*
X18454714D01*
X17679988Y08508995D02*
X18109985D01*
X18079988Y08349026D02*
X18259997D01*
X18159998Y08558983D02*
Y08589996D01*
X18309985Y08398988D02*
Y08589996D01*
X18037493Y08640212D02*
X18109985D01*
X18002721Y08673232D02*
Y09085220D01*
X18479987Y08673232D02*
Y09085220D01*
X09689987Y08465003D02*
Y09165002D01*
X09340000Y07325813D02*
Y08365003D01*
X09389860Y07275546D02*
X09639999D01*
X09689987Y06679993D02*
Y07225584D01*
X18032718Y09115243D02*
X18445240D01*
X17679988Y09400002D02*
X18430000D01*
X09340000Y09265001D02*
Y10009983D01*
X09739999Y10409983D02*
X18079988D01*
X09399995Y09214989D02*
X09649981D01*
X09399995Y08414990D02*
X09649981D01*
X09340000Y06009991D02*
Y06579993D01*
X09739999Y05609992D02*
X16160002D01*
X18479987Y06009991D02*
Y07630003D01*
X18079988Y07679991D02*
X18430000D01*
X18029975Y07730003D02*
Y08299979D01*
X18479987Y09449990D02*
Y10009983D01*
X16269983Y05769987D02*
X17559999D01*
X17659998Y05609992D02*
X18079988D01*
X17629976Y08558983D02*
Y09349990D01*
G54D77*
X09731134Y06084947D03*
G54D78*
X17559288Y08239654D03*
G54D79*
X17434828Y08387482D03*
Y08222382D03*
G54D80*
X17897870Y08387482D03*
Y08337444D03*
Y08287660D03*
Y08237622D03*
X17662666Y08287660D03*
Y08237622D03*
G54D81*
X17559288Y08339679D03*
G54D82*
X17662767Y08387558D03*
G54D83*
X17780268Y08312552D03*
G54D84*
X17662666Y08337444D03*
G54D85*
X17243235Y06234832D03*
X17296220D03*
G54D10*
X17134295Y11908720D03*
Y12018701D03*
X17244277Y11798712D03*
Y11908720D03*
Y12018701D03*
X17354284Y11798712D03*
Y11908720D03*
Y12018701D03*
G54D11*
X10899992Y15217705D03*
Y15017705D03*
X14789976Y11299983D03*
X10049981Y10760005D03*
X10249980D03*
X13189979Y10797724D03*
X14739989Y11947709D03*
X12539994Y10787716D03*
X16189974Y12969982D03*
X12989980Y10797724D03*
X16139986Y13359999D03*
X16839985D03*
X16429978Y11529980D03*
X17439984Y11290001D03*
X16719995Y11309991D03*
X16639985Y13060000D03*
X16339986Y13359999D03*
X13589979Y13909986D03*
X13159982Y13030003D03*
Y13230002D03*
X15739987Y13130002D03*
X12839993Y13109987D03*
X15939987Y11169986D03*
X14990001Y11429980D03*
X17189997Y14609984D03*
X16639985Y15109983D03*
X11389983Y12009989D03*
X16569983Y14109985D03*
X16839985Y14259998D03*
X17739983Y14609984D03*
X14029983Y10969986D03*
X16639985Y13359999D03*
X15679992Y11629980D03*
X13829983Y10969986D03*
X13629984D03*
X13429984D03*
X13189979D03*
X16839985Y13659999D03*
X17519968Y10949996D03*
X17339984Y13830001D03*
X13854774Y14661292D03*
G54D12*
X17337114Y14458905D03*
Y14558879D03*
X17446359Y14075365D03*
X17824844Y15122328D03*
Y15022327D03*
X17735945D03*
Y15122328D03*
X17653420Y12351619D03*
Y12251620D03*
X15999677Y12643313D03*
Y12543313D03*
X10052445Y14138992D03*
X10141345Y14138408D03*
X17525099Y12271940D03*
Y12371939D03*
X13567805Y13336504D03*
X17737215Y12368460D03*
X18008995Y12371000D03*
X17417200Y12445599D03*
Y12345600D03*
X16942220Y12445599D03*
X17155555Y11018119D03*
X16900259Y11507400D03*
X17070439Y11554059D03*
Y11454060D03*
X16945979Y13778185D03*
Y13878159D03*
X17428579Y14458905D03*
G54D13*
X17147427Y13327792D03*
X17247426D03*
X17149967Y13424312D03*
X17249966D03*
X14945297Y11932900D03*
X14856347Y12662312D03*
X14679486Y12664852D03*
X17452277Y14884380D03*
X17345546Y13967872D03*
X17189006Y14453012D03*
X13450126Y15103252D03*
X13350126D03*
X13450126Y15197232D03*
X13350126D03*
X15695690Y10935900D03*
Y11024799D03*
X17501807Y12680067D03*
X17188117Y15095200D03*
X17288117D03*
X17188117Y15004192D03*
X17288117D03*
X13723049Y12339300D03*
X17821847Y12365106D03*
X17921847D03*
X16698989Y11692820D03*
X16798989D03*
X16698989Y11781719D03*
X16798989D03*
X16698989Y11870620D03*
X16798989D03*
X16698989Y12048420D03*
X16798989D03*
X16711512Y12137904D03*
X16811512D03*
X16543846Y11870620D03*
X17495407Y11463432D03*
X17149967Y13914532D03*
Y13652912D03*
X17384586Y11463432D03*
X17501807Y12596247D03*
X17601807D03*
Y12509887D03*
X17501807D03*
X17201198Y11557387D03*
X16811969Y12225864D03*
X16543821Y12137320D03*
Y12048420D03*
Y11781719D03*
Y11692820D03*
G54D14*
X10235096Y14970512D03*
G54D15*
X15545017Y12345295D03*
G54D16*
X13853631Y13787431D03*
X13803618D03*
X13753631D03*
X13703618D03*
Y13900409D03*
X13753631D03*
X13803618D03*
X13853631D03*
G54D17*
X14042378Y13787431D03*
G54D16*
X13992391D03*
X13942378D03*
Y13900409D03*
X13992391D03*
X14042378D03*
X14092391D03*
G54D18*
X11429378Y13500055D03*
G54D19*
X16722510Y10955407D03*
X16887610D03*
X17170769Y13541152D03*
X17335869D03*
X17645724Y11577732D03*
X17810824D03*
X13745427Y13488600D03*
X17645724Y11719972D03*
X17452735Y14770080D03*
X14203567Y11470620D03*
X10662045Y14466321D03*
X16444177Y15126950D03*
G54D20*
X18319992Y11732545D03*
G54D19*
X17034879Y11045450D03*
G54D21*
X12259984Y12079992D03*
G54D22*
X09731134Y11084947D03*
G54D23*
X12973495Y12100769D03*
G54D24*
X10250057Y11187791D03*
X10484981Y11102295D03*
X10719906Y11016773D03*
G54D25*
X09489987Y11469985D03*
Y14549989D03*
X18330000D03*
X15209991Y13600004D03*
G54D26*
X17244277Y11908720D03*
G54D27*
X15974277Y14491900D03*
G54D28*
X17447578Y15071934D03*
Y15021946D03*
G54D29*
Y14971934D03*
X17497591D03*
X17597591Y15121921D03*
X17547578D03*
X17497591D03*
X17447578D03*
G54D30*
X17193401Y14320703D03*
X17258399D03*
X17323398D03*
Y14095685D03*
X17193401D03*
G54D31*
X18319992Y11739987D03*
G54D32*
X18272494Y12079992D03*
X18367490D03*
G54D33*
X18319992Y12060002D03*
G54D34*
X10048889Y14614912D03*
G54D35*
X11889982Y11434984D03*
Y11584971D03*
Y11734984D03*
Y11884971D03*
G54D36*
X11048175Y13952226D03*
X10959885Y13036099D03*
X11061383Y13119030D03*
X11010304Y13543692D03*
X10814292Y13703305D03*
X10743579Y13632592D03*
X10531793Y13425989D03*
X11741392Y13817606D03*
X11505578Y13581792D03*
X11246092Y13995406D03*
X11188078Y14135512D03*
G54D37*
X10438372Y10904226D03*
G54D38*
X17419283Y12151213D03*
X17369296D03*
X17319283D03*
X17269296D03*
X17219283D03*
X17169296D03*
X17119283D03*
X17069296D03*
Y11666200D03*
X17119283D03*
X17169296D03*
X17219283D03*
X17269296D03*
X17319283D03*
X17369296D03*
X17419283D03*
G54D39*
X17001783Y12083725D03*
Y12033713D03*
Y11983725D03*
Y11933713D03*
Y11883701D03*
Y11833713D03*
Y11783701D03*
Y11733714D03*
X17486796D03*
Y11783701D03*
Y11833713D03*
Y11883701D03*
Y11933713D03*
Y11983725D03*
Y12033713D03*
Y12083725D03*
G54D40*
X15275624Y13002672D03*
X15080629D03*
Y13067671D03*
G54D41*
X15178139Y13002672D03*
G54D42*
X17070033Y12530207D03*
Y12380220D03*
X17280015D03*
G54D43*
X14942021Y12355226D03*
Y12070746D03*
G54D44*
X17133101Y13821034D03*
X17098074D03*
X17063099D03*
X17028097D03*
Y13754029D03*
X17063099D03*
X17098074D03*
X17133101D03*
G54D45*
X09639999Y15059996D03*
G54D46*
X10392805Y14629339D03*
G54D47*
X10525113Y14970512D03*
G54D48*
X10662045Y14631421D03*
X10519805Y14628882D03*
G54D49*
X10143885Y14614912D03*
X10238881D03*
G54D46*
X10052445Y14238992D03*
X09963544D03*
Y14138992D03*
X10392805Y14529365D03*
X10141345Y14238408D03*
G54D48*
X10519805Y14463781D03*
X10380105Y14379961D03*
Y14214861D03*
G54D49*
X10243884Y14374907D03*
X10048889D03*
G54D50*
X10977487Y13881512D03*
X11175404Y13924692D03*
X11258792Y14206226D03*
X10602507Y13496702D03*
X10889197Y12965385D03*
X11132097Y13189743D03*
G54D45*
X10139998Y12260002D03*
X09739999Y11377707D03*
G54D51*
X10532327Y10870012D03*
G54D45*
X09849981Y10760005D03*
G54D48*
X10550107Y10745400D03*
X10715207D03*
G54D45*
X11203039Y10909712D03*
G54D52*
X11647539Y11168691D03*
G54D46*
X11523054Y11182305D03*
Y11282305D03*
G54D48*
X11418939Y11332622D03*
Y11167522D03*
G54D53*
X11889982Y11134985D03*
Y11284971D03*
G54D52*
X11647539Y11473693D03*
G54D54*
X12259984Y10939989D03*
G54D48*
X12175376Y13300690D03*
Y13135590D03*
G54D55*
X11500092Y13429341D03*
G54D50*
X11080992Y13614406D03*
X11670704Y13746892D03*
X11576292Y13652505D03*
G54D48*
X14368667Y11470620D03*
G54D56*
X14285990Y12015400D03*
Y11913800D03*
X14385989Y12015400D03*
Y11913800D03*
X15045297Y11932900D03*
G54D57*
X15037017Y12070746D03*
X15132013D03*
G54D46*
X14686497Y12267139D03*
Y12367138D03*
G54D56*
X14285990Y12484080D03*
X14385989D03*
Y12167800D03*
X14285990D03*
G54D48*
X14798257Y12201556D03*
Y12366656D03*
G54D46*
X15252206Y12210980D03*
Y12310979D03*
G54D57*
X15132013Y12355226D03*
X15037017D03*
G54D56*
X13823049Y12339300D03*
G54D46*
X13567805Y13236479D03*
X13319977Y12916287D03*
Y12816287D03*
X13434277D03*
X13535877Y12916287D03*
Y12816287D03*
X13434277Y12916287D03*
G54D48*
X13910527Y13488600D03*
G54D46*
X14238314Y15055780D03*
Y15155805D03*
G54D48*
X14350099Y15041022D03*
Y15206122D03*
X14489774D03*
Y15041022D03*
G54D45*
X14739989Y15109983D03*
Y14189995D03*
G54D58*
X14705699Y13274681D03*
Y12984664D03*
G54D48*
X15032064Y13310012D03*
X15197189D03*
X15032064Y13170312D03*
X15197189D03*
G54D59*
X15275624Y13067671D03*
Y12937674D03*
X15080629D03*
G54D46*
X15419439Y13075544D03*
Y12975545D03*
G54D56*
X15100187Y12817252D03*
X15200186D03*
G54D60*
X14798155Y12802012D03*
G54D61*
X14608138D03*
G54D56*
X14285990Y12786340D03*
Y12679660D03*
X14385989Y12786340D03*
Y12679660D03*
X14579486Y12664852D03*
X14956346Y12662312D03*
G54D45*
X15139988Y12609988D03*
G54D58*
X15545017Y12055303D03*
G54D48*
X15862517Y12348876D03*
Y12183776D03*
G54D46*
X15885377Y11023987D03*
Y10923987D03*
X15974277Y11023987D03*
Y10923987D03*
G54D56*
X15795689Y10935900D03*
Y11024799D03*
G54D45*
X16129979Y10929981D03*
G54D62*
X16319996Y11290001D03*
G54D63*
X16760000Y11139988D03*
G54D45*
X17319994Y10949996D03*
G54D46*
X17155555Y10918119D03*
G54D48*
X17034879Y10880349D03*
G54D64*
X17189997Y11139988D03*
G54D63*
X17719993D03*
G54D65*
X18069980Y11449996D03*
G54D48*
X17810824Y11719972D03*
X18319992Y11567445D03*
G54D56*
X17742726Y11923172D03*
Y11834272D03*
X17642726D03*
Y11923172D03*
G54D65*
X18069980Y12099981D03*
G54D56*
X17284586Y11463432D03*
X17301198Y11557387D03*
G54D46*
X16900259Y11607399D03*
G54D66*
X16319996Y11739987D03*
Y12079992D03*
G54D67*
X16689998Y12579990D03*
G54D68*
X16569983Y12299981D03*
G54D63*
X16949992Y12769983D03*
G54D46*
X17737215Y12468459D03*
G54D56*
X17601807Y12680067D03*
G54D69*
X17919993Y12609988D03*
G54D70*
X17699978Y12689998D03*
G54D71*
X17599978Y12769983D03*
G54D46*
X18008995Y12470999D03*
X16942220Y12345600D03*
G54D61*
X15625281Y12525406D03*
G54D60*
X15815298D03*
G54D56*
X17595406Y11463432D03*
X16711969Y12225864D03*
X16443847Y11870620D03*
X16443821Y12137320D03*
Y12048420D03*
Y11781719D03*
Y11692820D03*
G54D45*
X18039983Y14609984D03*
G54D46*
X17428579Y14558879D03*
G54D48*
X17617835Y14770080D03*
G54D56*
X17089007Y14453012D03*
G54D46*
X17446359Y14175339D03*
G54D56*
X17445546Y13967872D03*
X17552277Y14884380D03*
G54D72*
X17597591Y15021921D03*
Y15071934D03*
G54D73*
X17547578Y14971934D03*
X17597591D03*
G54D46*
X16329877Y15214986D03*
Y15114987D03*
G54D48*
X16444177Y15292050D03*
X16202877Y15120550D03*
Y15285650D03*
G54D45*
X16989997Y15107722D03*
X15709990Y13430001D03*
G54D56*
X11559909Y11722080D03*
X11561687Y11826626D03*
X11461687D03*
X11459909Y11722080D03*
G54D74*
X17280015Y12530207D03*
G54D56*
X17249966Y13652912D03*
Y13914532D03*
G54D75*
X14092391Y13787431D03*
G54D76*
X16269983Y10769986D02*
G03X16219996Y10720000I00000013J-00050000D01*
X16160002Y10609992D02*
G03X16219996Y10660005I00005003J00054990D01*
X17609986D02*
G03X17659998Y10609992I00050012J00000000D01*
X17609986Y10720000D02*
G03X17559999Y10769986I-00050000J-00000013D01*
X18359997Y13642778D02*
G03X18309985Y13589996I00001385J-00051397D01*
X09639999Y11629980D02*
G03X09689987Y11679992I-00000012J00050000D01*
X09392654Y11629980D02*
G03X09340000Y11579992I-00001321J-00051334D01*
X17629976Y13558983D02*
G03X17679988Y13508996I00050000J00000012D01*
X18109985D02*
G03X18159998Y13558983I00000000J00050013D01*
Y13589996D02*
G03X18109985Y13640212I-00050114J00000102D01*
X18259997Y13349027D02*
G03X18309985Y13398988I00000013J00049974D01*
X18479987Y14085220D02*
G03X18449989Y14115243I-00030010J00000012D01*
X18449659Y13642752D02*
G03X18479657Y13672750I00000000J00029998D01*
X18002619Y13670692D02*
G03X18032616Y13640694I00029998J00000000D01*
X18032718Y14115243D02*
G03X18002721Y14085220I00000000J-00029997D01*
X18079988Y13349027D02*
G03X18029975Y13299979I-00000483J-00049530D01*
X17679988Y14400002D02*
G03X17629976Y14349990I00000000J-00050012D01*
X18430000Y14400002D02*
G03X18479987Y14449990I-00000012J00050000D01*
Y15009983D02*
G03X18079988Y15409983I-00399999J00000000D01*
Y10609992D02*
G03X18479987Y11009991I00000000J00399999D01*
X09739999Y15409983D02*
G03X09340000Y15009983I00000000J-00399999D01*
Y11009991D02*
G03X09739999Y10609992I00399999J-00000000D01*
X09689987Y12222892D02*
G03X09639999Y12275546I-00051334J00001321D01*
X09689987Y14165002D02*
G03X09649981Y14214988I-00044997J00004990D01*
Y13414990D02*
G03X09689987Y13465003I-00005004J00045009D01*
X09399995Y13414990D02*
G03X09340000Y13365003I-00005004J-00054991D01*
Y14265001D02*
G03X09399995Y14214988I00055005J00004992D01*
X09340000Y12325813D02*
G03X09389860Y12275953I00049860J-00000000D01*
X18479987Y12629826D02*
G03X18430000Y12679838I-00050013J00000000D01*
X18029975Y12730003D02*
G03X18079988Y12679990I00050012J00000000D01*
X16219996Y10660005D02*
G01Y10720000D01*
X17609986Y10660005D02*
Y10720000D01*
X09392654Y11629980D02*
X09639999D01*
X18359997Y13642778D02*
X18454714D01*
X17679988Y13508996D02*
X18109985D01*
X18079988Y13349027D02*
X18259997D01*
X18159998Y13558983D02*
Y13589996D01*
X18309985Y13398988D02*
Y13589996D01*
X18037493Y13640212D02*
X18109985D01*
X18002721Y13673232D02*
Y14085220D01*
X18479987Y13673232D02*
Y14085220D01*
X09689987Y13465003D02*
Y14165002D01*
X09340000Y12325813D02*
Y13365003D01*
X09389860Y12275546D02*
X09639999D01*
X09689987Y11679992D02*
Y12225585D01*
X18032718Y14115243D02*
X18445240D01*
X17679988Y14400002D02*
X18430000D01*
X09340000Y14265001D02*
Y15009983D01*
X09739999Y15409983D02*
X18079988D01*
X09399995Y14214988D02*
X09649981D01*
X09399995Y13414990D02*
X09649981D01*
X09340000Y11009991D02*
Y11579992D01*
X09739999Y10609992D02*
X16160002D01*
X18479987Y11009991D02*
Y12630003D01*
X18079988Y12679990D02*
X18430000D01*
X18029975Y12730003D02*
Y13299979D01*
X18479987Y14449990D02*
Y15009983D01*
X16269983Y10769986D02*
X17559999D01*
X17659998Y10609992D02*
X18079988D01*
X17629976Y13558983D02*
Y14349990D01*
G54D77*
X09731134Y11084947D03*
G54D78*
X17559288Y13239654D03*
G54D79*
X17434828Y13387482D03*
Y13222382D03*
G54D80*
X17897870Y13387482D03*
Y13337444D03*
Y13287660D03*
Y13237622D03*
X17662666Y13287660D03*
Y13237622D03*
G54D81*
X17559288Y13339679D03*
G54D82*
X17662767Y13387558D03*
G54D83*
X17780268Y13312552D03*
G54D84*
X17662666Y13337444D03*
G54D85*
X17243235Y11234832D03*
X17296220D03*
G54D86*
X00500000Y15815000D03*
X17979987D03*
X01000000Y00205000D03*
X17979987D03*
G54D87*
X01000000Y15815000D03*
X17479987D03*
Y00205000D03*
X01500000D03*
G54D76*
X09339952Y01070012D02*
X09139959D01*
X09339952Y01506993D02*
X09139959D01*
Y04570005D02*
X09339952D01*
X09139959Y04949989D02*
X09339952D01*
X01970787Y00410000D02*
Y00610000D01*
X01470787Y00410000D02*
Y00610000D01*
X06119585Y00405535D02*
Y00610000D01*
X05619585Y00410000D02*
Y00610000D01*
X04170787Y00410000D02*
Y00610000D01*
X03670787Y00410000D02*
Y00610000D01*
X00000000Y00100000D02*
Y00410000D01*
X01970787Y05410000D02*
Y05610000D01*
X01470787Y05410000D02*
Y05610000D01*
X06119585Y05410000D02*
Y05610000D01*
X05619585Y05410000D02*
Y05610000D01*
X04170787Y05410000D02*
Y05610000D01*
X03670787Y05410000D02*
Y05610000D01*
X11310787Y00410000D02*
Y00610000D01*
X10810787Y00410000D02*
Y00610000D01*
X15459585Y00405535D02*
Y00610000D01*
X14959585Y00410000D02*
Y00610000D01*
X13510787Y00410000D02*
Y00610000D01*
X13010787Y00410000D02*
Y00610000D01*
X18479987Y00100000D02*
Y00410000D01*
X11310787Y05410000D02*
Y05610000D01*
X10810787Y05410000D02*
Y05610000D01*
X15459585Y05410000D02*
Y05610000D01*
X14959585Y05410000D02*
Y05610000D01*
X13510787Y05410000D02*
Y05610000D01*
X13010787Y05410000D02*
Y05610000D01*
X09339952Y06070012D02*
X09139959D01*
X09339952Y06506993D02*
X09139959D01*
Y09570005D02*
X09339952D01*
X09139959Y09949989D02*
X09339952D01*
X01970787Y05410000D02*
Y05610000D01*
X01470787Y05410000D02*
Y05610000D01*
X06119585Y05405535D02*
Y05610000D01*
X05619585Y05410000D02*
Y05610000D01*
X04170787Y05410000D02*
Y05610000D01*
X03670787Y05410000D02*
Y05610000D01*
X01970787Y10410000D02*
Y10610000D01*
X01470787Y10410000D02*
Y10610000D01*
X06119585Y10410000D02*
Y10610000D01*
X05619585Y10410000D02*
Y10610000D01*
X04170787Y10410000D02*
Y10610000D01*
X03670787Y10410000D02*
Y10610000D01*
X11310787Y05410000D02*
Y05610000D01*
X10810787Y05410000D02*
Y05610000D01*
X15459585Y05405535D02*
Y05610000D01*
X14959585Y05410000D02*
Y05610000D01*
X13510787Y05410000D02*
Y05610000D01*
X13010787Y05410000D02*
Y05610000D01*
X11310787Y10410000D02*
Y10610000D01*
X10810787Y10410000D02*
Y10610000D01*
X15459585Y10410000D02*
Y10610000D01*
X14959585Y10410000D02*
Y10610000D01*
X13510787Y10410000D02*
Y10610000D01*
X13010787Y10410000D02*
Y10610000D01*
X09339952Y11070012D02*
X09139959D01*
X09339952Y11506993D02*
X09139959D01*
Y14570005D02*
X09339952D01*
X09139959Y14949989D02*
X09339952D01*
X01970787Y10410000D02*
Y10610000D01*
X01470787Y10410000D02*
Y10610000D01*
X06119585Y10405535D02*
Y10610000D01*
X05619585Y10410000D02*
Y10610000D01*
X04170787Y10410000D02*
Y10610000D01*
X03670787Y10410000D02*
Y10610000D01*
X01970787Y15410000D02*
Y15610000D01*
X01470787Y15410000D02*
Y15610000D01*
X06119585Y15410000D02*
Y15610000D01*
X05619585Y15410000D02*
Y15610000D01*
X04170787Y15410000D02*
Y15610000D01*
X03670787Y15410000D02*
Y15610000D01*
X11310787Y10410000D02*
Y10610000D01*
X10810787Y10410000D02*
Y10610000D01*
X15459585Y10405535D02*
Y10610000D01*
X14959585Y10410000D02*
Y10610000D01*
X13510787Y10410000D02*
Y10610000D01*
X13010787Y10410000D02*
Y10610000D01*
X11310787Y15410000D02*
Y15610000D01*
X10810787Y15410000D02*
Y15610000D01*
X15459585Y15410000D02*
Y15610000D01*
X14959585Y15410000D02*
Y15610000D01*
X13510787Y15410000D02*
Y15610000D01*
X13010787Y15410000D02*
Y15610000D01*
X00000000D02*
X18479987D01*
X01670787Y00410000D02*
X18479987D01*
X00100000Y00000000D02*
X18379987D01*
X00100000Y16020000D02*
X18379987D01*
X01670787Y00410000D02*
X00000000D01*
X18479987Y15610000D02*
Y15920000D01*
X00000000Y15610000D02*
Y15920000D01*
X00100000Y16020000D02*
G03X00000000Y15920000I00000000J-00100000D01*
X18479987D02*
G03X18379987Y16020000I-00100000J00000000D01*
Y00000000D02*
G03X18479987Y00100000I00000000J00100000D01*
X00000000D02*
G03X00100000Y00000000I00100000J00000000D01*
%LPC*%
G75*
X00100000Y00000000D02*
G54D88*
X08116717Y01958719D02*
G01X08178478D01*
X04488624Y03822245D02*
Y03752616D01*
X04438624Y03822267D02*
Y03752594D01*
X04388625Y03822245D02*
Y03752616D01*
X04388624Y03865595D02*
Y03935224D01*
X04438624Y03865573D02*
Y03935246D01*
X04488624Y03865595D02*
Y03935224D01*
X04677385Y03822267D02*
Y03752594D01*
X04627385Y03822245D02*
Y03752616D01*
X04627385Y03865595D02*
Y03935224D01*
X04677385Y03865573D02*
Y03935246D01*
X04727384Y03865595D02*
Y03935224D01*
G36*
X07712824Y02096793D02*
Y02100172D01*
X08095729D01*
Y02096793D01*
X07712824D01*
G37*
G36*
X08067232Y02103793D02*
X08091334D01*
G02X08067232Y02103793I-00012051J00019798D01*
G37*
G36*
X07712824Y02096793D02*
G01Y02100172D01*
X08095729D01*
Y02096793D01*
X07712824D01*
G37*
G36*
X08017245Y02103793D02*
X08041347D01*
G02X08017245Y02103793I-00012051J00019798D01*
G37*
G36*
X07712824Y02096793D02*
G01Y02100172D01*
X08095729D01*
Y02096793D01*
X07712824D01*
G37*
G36*
X07967232Y02103793D02*
X07991334D01*
G02X07967232Y02103793I-00012051J00019798D01*
G37*
G36*
X07712824Y02096793D02*
G01Y02100172D01*
X08095729D01*
Y02096793D01*
X07712824D01*
G37*
G36*
X07917245Y02103793D02*
X07941347D01*
G02X07917245Y02103793I-00012051J00019798D01*
G37*
G36*
X07712824Y02096793D02*
G01Y02100172D01*
X08095729D01*
Y02096793D01*
X07712824D01*
G37*
G36*
X07867232Y02103793D02*
X07891334D01*
G02X07867232Y02103793I-00012051J00019798D01*
G37*
G36*
X07712824Y02096793D02*
G01Y02100172D01*
X08095729D01*
Y02096793D01*
X07712824D01*
G37*
G36*
X07817245Y02103793D02*
X07841347D01*
G02X07817245Y02103793I-00012051J00019798D01*
G37*
G36*
X07712824Y02096793D02*
G01Y02100172D01*
X08095729D01*
Y02096793D01*
X07712824D01*
G37*
G36*
X07767232Y02103793D02*
X07791334D01*
G02X07767232Y02103793I-00012051J00019798D01*
G37*
G36*
X07712824Y02096793D02*
G01Y02100172D01*
X08095729D01*
Y02096793D01*
X07712824D01*
G37*
G36*
X07717245Y02103793D02*
X07741347D01*
G02X07717245Y02103793I-00012051J00019798D01*
G37*
G36*
X07712824Y01717267D02*
G01Y01720634D01*
X08095729D01*
Y01717267D01*
X07712824D01*
G37*
G36*
X07717266Y01713634D02*
G02X07741326Y01713634I00012030J-00019811D01*
G01X07717266D01*
G37*
G36*
X07712824Y01717267D02*
Y01720634D01*
X08095729D01*
Y01717267D01*
X07712824D01*
G37*
G36*
X07767253Y01713634D02*
G02X07791313Y01713634I00012030J-00019811D01*
G01X07767253D01*
G37*
G36*
X07712824Y01717267D02*
Y01720634D01*
X08095729D01*
Y01717267D01*
X07712824D01*
G37*
G36*
X07817266Y01713634D02*
G02X07841326Y01713634I00012030J-00019811D01*
G01X07817266D01*
G37*
G36*
X07712824Y01717267D02*
Y01720634D01*
X08095729D01*
Y01717267D01*
X07712824D01*
G37*
G36*
X07867253Y01713634D02*
G02X07891313Y01713634I00012030J-00019811D01*
G01X07867253D01*
G37*
G36*
X07712824Y01717267D02*
Y01720634D01*
X08095729D01*
Y01717267D01*
X07712824D01*
G37*
G36*
X07917266Y01713634D02*
G02X07941326Y01713634I00012030J-00019811D01*
G01X07917266D01*
G37*
G36*
X07712824Y01717267D02*
Y01720634D01*
X08095729D01*
Y01717267D01*
X07712824D01*
G37*
G36*
X07967253Y01713634D02*
G02X07991313Y01713634I00012030J-00019811D01*
G01X07967253D01*
G37*
G36*
X07712824Y01717267D02*
Y01720634D01*
X08095729D01*
Y01717267D01*
X07712824D01*
G37*
G36*
X08017265Y01713634D02*
G02X08041325Y01713634I00012030J-00019811D01*
G01X08017265D01*
G37*
G36*
X07712824Y01717267D02*
Y01720634D01*
X08095729D01*
Y01717267D01*
X07712824D01*
G37*
G36*
X08067253Y01713634D02*
G02X08091313Y01713634I00012030J-00019811D01*
G01X08067253D01*
G37*
G36*
X07712824Y01717267D02*
Y02100172D01*
X07716204D01*
Y01717267D01*
X07712824D01*
G37*
G36*
X07709204Y02071675D02*
Y02095776D01*
G02X07709204Y02071675I-00019798J-00012051D01*
G37*
G36*
X07712824Y01717267D02*
G01Y02100172D01*
X07716204D01*
Y01717267D01*
X07712824D01*
G37*
G36*
X07709204Y02021662D02*
Y02045764D01*
G02X07709204Y02021662I-00019798J-00012051D01*
G37*
G36*
X07712824Y01717267D02*
G01Y02100172D01*
X07716204D01*
Y01717267D01*
X07712824D01*
G37*
G36*
X07709204Y01971675D02*
Y01995776D01*
G02X07709204Y01971675I-00019798J-00012051D01*
G37*
G36*
X07712824Y01717267D02*
G01Y02100172D01*
X07716204D01*
Y01717267D01*
X07712824D01*
G37*
G36*
X07709204Y01921662D02*
Y01945764D01*
G02X07709204Y01921662I-00019798J-00012051D01*
G37*
G36*
X07712824Y01717267D02*
G01Y02100172D01*
X07716204D01*
Y01717267D01*
X07712824D01*
G37*
G36*
X07709204Y01871649D02*
Y01895751D01*
G02X07709204Y01871649I-00019798J-00012051D01*
G37*
G36*
X07712824Y01717267D02*
G01Y02100172D01*
X07716204D01*
Y01717267D01*
X07712824D01*
G37*
G36*
X07709204Y01821662D02*
Y01845764D01*
G02X07709204Y01821662I-00019798J-00012051D01*
G37*
G36*
X07712824Y01717267D02*
G01Y02100172D01*
X07716204D01*
Y01717267D01*
X07712824D01*
G37*
G36*
X07709204Y01771650D02*
Y01795751D01*
G02X07709204Y01771650I-00019798J-00012051D01*
G37*
G36*
X07712824Y01717267D02*
G01Y02100172D01*
X07716204D01*
Y01717267D01*
X07712824D01*
G37*
G36*
X07709204Y01721663D02*
Y01745765D01*
G02X07709204Y01721663I-00019798J-00012051D01*
G37*
G36*
X08092363Y01717267D02*
G01Y02100172D01*
X08095729D01*
Y01717267D01*
X08092363D01*
G37*
G36*
X08099362Y01721684D02*
G02X08099362Y01745744I00019811J00012030D01*
G01Y01721684D01*
G37*
G36*
X08092363Y01717267D02*
Y02100172D01*
X08095729D01*
Y01717267D01*
X08092363D01*
G37*
G36*
X08099362Y01771671D02*
G02X08099362Y01795730I00019811J00012030D01*
G01Y01771671D01*
G37*
G36*
X08092363Y01717267D02*
Y02100172D01*
X08095729D01*
Y01717267D01*
X08092363D01*
G37*
G36*
X08099362Y01821683D02*
G02X08099362Y01845743I00019811J00012030D01*
G01Y01821683D01*
G37*
G36*
X08092363Y01717267D02*
Y02100172D01*
X08095729D01*
Y01717267D01*
X08092363D01*
G37*
G36*
X08099362Y01871671D02*
G02X08099362Y01895730I00019811J00012030D01*
G01Y01871671D01*
G37*
G36*
X08092363Y01717267D02*
Y02100172D01*
X08095729D01*
Y01717267D01*
X08092363D01*
G37*
G36*
X08099362Y01921683D02*
G02X08099362Y01945743I00019811J00012030D01*
G01Y01921683D01*
G37*
G36*
X08092363Y01717267D02*
Y02100172D01*
X08095729D01*
Y01717267D01*
X08092363D01*
G37*
G36*
X08099362Y01971695D02*
G02X08099362Y01995756I00019811J00012030D01*
G01Y01971695D01*
G37*
G36*
X08092363Y01717267D02*
Y02100172D01*
X08095729D01*
Y01717267D01*
X08092363D01*
G37*
G36*
X08099362Y02021683D02*
G02X08099362Y02045743I00019811J00012030D01*
G01Y02021683D01*
G37*
G36*
X08092363Y01717267D02*
Y02100172D01*
X08095729D01*
Y01717267D01*
X08092363D01*
G37*
G36*
X08099362Y02071695D02*
G02X08099362Y02095756I00019811J00012030D01*
G01Y02071695D01*
G37*
G54D88*
X08128208Y05096292D02*
X08086948D01*
Y04997575D02*
X08128208D01*
X08278221Y05096292D02*
X08236961D01*
X08054289Y02181480D02*
Y02120947D01*
X08004289Y02181415D02*
Y02121012D01*
X07904289Y02181415D02*
Y02121012D01*
X07854289Y02181480D02*
Y02120947D01*
X07804290Y02181415D02*
Y02121012D01*
X07754290Y02181480D02*
Y02120947D01*
X07754289Y01635934D02*
Y01696467D01*
X07804289Y01635999D02*
Y01696402D01*
X07854289Y01635934D02*
Y01696467D01*
X07904289Y01635999D02*
Y01696402D01*
X07954289Y01635934D02*
Y01696467D01*
X08004289Y01635999D02*
Y01696402D01*
X08054289Y01635934D02*
Y01696467D01*
X07631582Y02058719D02*
X07691984D01*
X07631517Y02008719D02*
X07692049D01*
X07631582Y01958719D02*
X07691984D01*
X07631582Y01908707D02*
X07691984D01*
X07631517Y01858707D02*
X07692049D01*
X07631582Y01808707D02*
X07691984D01*
X07631517Y01758707D02*
X07692049D01*
X08177062D02*
X08116530D01*
X08176997Y01808707D02*
X08116595D01*
X08177062Y01858707D02*
X08116530D01*
X08176997Y01908707D02*
X08116595D01*
X08177062Y02008719D02*
X08116530D01*
X08176997Y02058719D02*
X08116595D01*
G54D89*
X05383520Y01889713D02*
X05364765Y01898781D01*
G54D90*
X07038972Y01561664D02*
X07048492Y01573391D01*
G54D89*
X08278811Y02329479D02*
X08279613Y02311261D01*
G54D91*
X08279344Y02391093D02*
Y02312146D01*
G54D92*
X08277070Y02215592D02*
X08287963Y02210345D01*
G54D91*
X08279344Y02291093D02*
Y02212146D01*
G54D92*
X08106749Y02304317D02*
X08113720Y02311289D01*
G54D93*
X07693719Y01421646D02*
X07702959Y01412405D01*
G54D94*
X07495306Y01745789D02*
X07499642Y01750540D01*
G54D95*
X07490926Y01744982D02*
X07500357Y01751524D01*
G54D96*
X07494428Y01745576D02*
X07499896Y01751041D01*
X07495021Y01834583D02*
X07499755Y01839821D01*
G54D89*
X07496839Y01834903D02*
X07499012Y01839013D01*
G54D92*
X07491591Y01834132D02*
X07500175Y01839846D01*
G54D96*
X07494419Y01834472D02*
X07499899Y01839953D01*
G54D97*
X07771690Y03948681D02*
Y03880383D01*
Y03948681D02*
Y03880383D01*
X07870829Y03948271D02*
X07949103D01*
X07870829D02*
X07949103D01*
X07771690Y03687061D02*
Y03618763D01*
Y03687061D02*
Y03618763D01*
Y03687061D02*
Y03618763D01*
G54D92*
X07868806Y03682855D02*
X07880469Y03689424D01*
X07868806Y03682855D02*
X07880469Y03689424D01*
G54D98*
X00822047Y05199135D02*
Y04741888D01*
G54D99*
X02406410Y01627896D02*
X02693554D01*
G54D100*
X01689860Y03612203D02*
Y03609547D01*
G54D89*
X01854041Y03993074D02*
X01903760Y03943354D01*
X01853984Y03993016D02*
X01903703Y03943297D01*
X01854041Y03993074D02*
X01903760Y03943354D01*
G54D98*
X07624782Y02055266D02*
X07698784D01*
X07624782D02*
X07698784D01*
X07624782D02*
X07698784D01*
G54D99*
X08195737Y01893809D02*
Y01873592D01*
G54D88*
X07954302Y02181415D02*
Y02121012D01*
G54D101*
X01800911Y04153673D03*
X01903069Y04236071D03*
X02164283Y03474350D03*
X01842237Y03957280D03*
X01908937Y04022685D03*
X02405202Y03847908D03*
G54D102*
X00013527Y04590154D02*
Y04499051D01*
Y01510150D02*
Y01419047D01*
X09126459Y04590154D02*
Y04499051D01*
X08949835Y04413530D02*
X09040938D01*
G36*
X02394072Y03857699D02*
Y03872954D01*
X02418667D01*
Y03857699D01*
X02394072D01*
G37*
G54D88*
X08116717Y06958719D02*
X08178478D01*
X04488624Y08822245D02*
Y08752616D01*
X04438624Y08822267D02*
Y08752594D01*
X04388625Y08822245D02*
Y08752616D01*
X04388624Y08865595D02*
Y08935224D01*
X04438624Y08865573D02*
Y08935246D01*
X04488624Y08865595D02*
Y08935224D01*
X04677385Y08822267D02*
Y08752594D01*
X04627385Y08822245D02*
Y08752616D01*
X04627385Y08865595D02*
Y08935224D01*
X04677385Y08865573D02*
Y08935246D01*
X04727384Y08865595D02*
Y08935224D01*
G36*
X07712824Y07096792D02*
Y07100172D01*
X08095729D01*
Y07096792D01*
X07712824D01*
G37*
G36*
X08067232Y07103793D02*
X08091334D01*
G02X08067232Y07103793I-00012051J00019798D01*
G37*
G36*
X07712824Y07096792D02*
G01Y07100172D01*
X08095729D01*
Y07096792D01*
X07712824D01*
G37*
G36*
X08017245Y07103793D02*
X08041347D01*
G02X08017245Y07103793I-00012051J00019798D01*
G37*
G36*
X07712824Y07096792D02*
G01Y07100172D01*
X08095729D01*
Y07096792D01*
X07712824D01*
G37*
G36*
X07967232Y07103793D02*
X07991334D01*
G02X07967232Y07103793I-00012051J00019798D01*
G37*
G36*
X07712824Y07096792D02*
G01Y07100172D01*
X08095729D01*
Y07096792D01*
X07712824D01*
G37*
G36*
X07917245Y07103793D02*
X07941347D01*
G02X07917245Y07103793I-00012051J00019798D01*
G37*
G36*
X07712824Y07096792D02*
G01Y07100172D01*
X08095729D01*
Y07096792D01*
X07712824D01*
G37*
G36*
X07867232Y07103793D02*
X07891334D01*
G02X07867232Y07103793I-00012051J00019798D01*
G37*
G36*
X07712824Y07096792D02*
G01Y07100172D01*
X08095729D01*
Y07096792D01*
X07712824D01*
G37*
G36*
X07817245Y07103793D02*
X07841347D01*
G02X07817245Y07103793I-00012051J00019798D01*
G37*
G36*
X07712824Y07096792D02*
G01Y07100172D01*
X08095729D01*
Y07096792D01*
X07712824D01*
G37*
G36*
X07767232Y07103793D02*
X07791334D01*
G02X07767232Y07103793I-00012051J00019798D01*
G37*
G36*
X07712824Y07096792D02*
G01Y07100172D01*
X08095729D01*
Y07096792D01*
X07712824D01*
G37*
G36*
X07717245Y07103793D02*
X07741347D01*
G02X07717245Y07103793I-00012051J00019798D01*
G37*
G36*
X07712824Y06717267D02*
G01Y06720634D01*
X08095729D01*
Y06717267D01*
X07712824D01*
G37*
G36*
X07717266Y06713634D02*
G02X07741326Y06713634I00012030J-00019811D01*
G01X07717266D01*
G37*
G36*
X07712824Y06717267D02*
Y06720634D01*
X08095729D01*
Y06717267D01*
X07712824D01*
G37*
G36*
X07767253Y06713634D02*
G02X07791313Y06713634I00012030J-00019811D01*
G01X07767253D01*
G37*
G36*
X07712824Y06717267D02*
Y06720634D01*
X08095729D01*
Y06717267D01*
X07712824D01*
G37*
G36*
X07817266Y06713634D02*
G02X07841326Y06713634I00012030J-00019811D01*
G01X07817266D01*
G37*
G36*
X07712824Y06717267D02*
Y06720634D01*
X08095729D01*
Y06717267D01*
X07712824D01*
G37*
G36*
X07867253Y06713634D02*
G02X07891313Y06713634I00012030J-00019811D01*
G01X07867253D01*
G37*
G36*
X07712824Y06717267D02*
Y06720634D01*
X08095729D01*
Y06717267D01*
X07712824D01*
G37*
G36*
X07917266Y06713634D02*
G02X07941326Y06713634I00012030J-00019811D01*
G01X07917266D01*
G37*
G36*
X07712824Y06717267D02*
Y06720634D01*
X08095729D01*
Y06717267D01*
X07712824D01*
G37*
G36*
X07967253Y06713634D02*
G02X07991313Y06713634I00012030J-00019811D01*
G01X07967253D01*
G37*
G36*
X07712824Y06717267D02*
Y06720634D01*
X08095729D01*
Y06717267D01*
X07712824D01*
G37*
G36*
X08017265Y06713634D02*
G02X08041325Y06713634I00012030J-00019811D01*
G01X08017265D01*
G37*
G36*
X07712824Y06717267D02*
Y06720634D01*
X08095729D01*
Y06717267D01*
X07712824D01*
G37*
G36*
X08067253Y06713634D02*
G02X08091313Y06713634I00012030J-00019811D01*
G01X08067253D01*
G37*
G36*
X07712824Y06717267D02*
Y07100172D01*
X07716204D01*
Y06717267D01*
X07712824D01*
G37*
G36*
X07709204Y07071675D02*
Y07095776D01*
G02X07709204Y07071675I-00019798J-00012051D01*
G37*
G36*
X07712824Y06717267D02*
G01Y07100172D01*
X07716204D01*
Y06717267D01*
X07712824D01*
G37*
G36*
X07709204Y07021662D02*
Y07045764D01*
G02X07709204Y07021662I-00019798J-00012051D01*
G37*
G36*
X07712824Y06717267D02*
G01Y07100172D01*
X07716204D01*
Y06717267D01*
X07712824D01*
G37*
G36*
X07709204Y06971675D02*
Y06995776D01*
G02X07709204Y06971675I-00019798J-00012051D01*
G37*
G36*
X07712824Y06717267D02*
G01Y07100172D01*
X07716204D01*
Y06717267D01*
X07712824D01*
G37*
G36*
X07709204Y06921662D02*
Y06945764D01*
G02X07709204Y06921662I-00019798J-00012051D01*
G37*
G36*
X07712824Y06717267D02*
G01Y07100172D01*
X07716204D01*
Y06717267D01*
X07712824D01*
G37*
G36*
X07709204Y06871649D02*
Y06895751D01*
G02X07709204Y06871649I-00019798J-00012051D01*
G37*
G36*
X07712824Y06717267D02*
G01Y07100172D01*
X07716204D01*
Y06717267D01*
X07712824D01*
G37*
G36*
X07709204Y06821662D02*
Y06845764D01*
G02X07709204Y06821662I-00019798J-00012051D01*
G37*
G36*
X07712824Y06717267D02*
G01Y07100172D01*
X07716204D01*
Y06717267D01*
X07712824D01*
G37*
G36*
X07709204Y06771650D02*
Y06795751D01*
G02X07709204Y06771650I-00019798J-00012051D01*
G37*
G36*
X07712824Y06717267D02*
G01Y07100172D01*
X07716204D01*
Y06717267D01*
X07712824D01*
G37*
G36*
X07709204Y06721662D02*
Y06745765D01*
G02X07709204Y06721662I-00019798J-00012051D01*
G37*
G36*
X08092363Y06717267D02*
G01Y07100172D01*
X08095729D01*
Y06717267D01*
X08092363D01*
G37*
G36*
X08099362Y06721684D02*
G02X08099362Y06745743I00019811J00012030D01*
G01Y06721684D01*
G37*
G36*
X08092363Y06717267D02*
Y07100172D01*
X08095729D01*
Y06717267D01*
X08092363D01*
G37*
G36*
X08099362Y06771671D02*
G02X08099362Y06795730I00019811J00012030D01*
G01Y06771671D01*
G37*
G36*
X08092363Y06717267D02*
Y07100172D01*
X08095729D01*
Y06717267D01*
X08092363D01*
G37*
G36*
X08099362Y06821683D02*
G02X08099362Y06845743I00019811J00012030D01*
G01Y06821683D01*
G37*
G36*
X08092363Y06717267D02*
Y07100172D01*
X08095729D01*
Y06717267D01*
X08092363D01*
G37*
G36*
X08099362Y06871671D02*
G02X08099362Y06895730I00019811J00012030D01*
G01Y06871671D01*
G37*
G36*
X08092363Y06717267D02*
Y07100172D01*
X08095729D01*
Y06717267D01*
X08092363D01*
G37*
G36*
X08099362Y06921683D02*
G02X08099362Y06945743I00019811J00012030D01*
G01Y06921683D01*
G37*
G36*
X08092363Y06717267D02*
Y07100172D01*
X08095729D01*
Y06717267D01*
X08092363D01*
G37*
G36*
X08099362Y06971696D02*
G02X08099362Y06995755I00019811J00012030D01*
G01Y06971696D01*
G37*
G36*
X08092363Y06717267D02*
Y07100172D01*
X08095729D01*
Y06717267D01*
X08092363D01*
G37*
G36*
X08099362Y07021683D02*
G02X08099362Y07045743I00019811J00012030D01*
G01Y07021683D01*
G37*
G36*
X08092363Y06717267D02*
Y07100172D01*
X08095729D01*
Y06717267D01*
X08092363D01*
G37*
G36*
X08099362Y07071696D02*
G02X08099362Y07095756I00019811J00012030D01*
G01Y07071696D01*
G37*
G54D88*
X08128208Y10096292D02*
X08086948D01*
Y09997575D02*
X08128208D01*
X08278221Y10096292D02*
X08236961D01*
X08054289Y07181479D02*
Y07120947D01*
X08004289Y07181415D02*
Y07121012D01*
X07904289Y07181415D02*
Y07121012D01*
X07854289Y07181479D02*
Y07120947D01*
X07804290Y07181415D02*
Y07121012D01*
X07754290Y07181479D02*
Y07120947D01*
X07754289Y06635934D02*
Y06696467D01*
X07804289Y06635999D02*
Y06696401D01*
X07854289Y06635934D02*
Y06696467D01*
X07904289Y06635999D02*
Y06696401D01*
X07954289Y06635934D02*
Y06696467D01*
X08004289Y06635999D02*
Y06696401D01*
X08054289Y06635934D02*
Y06696467D01*
X07631582Y07058719D02*
X07691984D01*
X07631517Y07008719D02*
X07692049D01*
X07631582Y06958719D02*
X07691984D01*
X07631582Y06908707D02*
X07691984D01*
X07631517Y06858707D02*
X07692049D01*
X07631582Y06808707D02*
X07691984D01*
X07631517Y06758707D02*
X07692049D01*
X08177062D02*
X08116530D01*
X08176997Y06808707D02*
X08116595D01*
X08177062Y06858707D02*
X08116530D01*
X08176997Y06908707D02*
X08116595D01*
X08177062Y07008719D02*
X08116530D01*
X08176997Y07058719D02*
X08116595D01*
G54D89*
X05383520Y06889714D02*
X05364765Y06898781D01*
G54D90*
X07038972Y06561664D02*
X07048492Y06573391D01*
G54D89*
X08278811Y07329479D02*
X08279613Y07311261D01*
G54D91*
X08279344Y07391092D02*
Y07312146D01*
G54D92*
X08277070Y07215592D02*
X08287963Y07210345D01*
G54D91*
X08279344Y07291093D02*
Y07212146D01*
G54D92*
X08106749Y07304317D02*
X08113720Y07311289D01*
G54D93*
X07693719Y06421646D02*
X07702959Y06412406D01*
G54D94*
X07495306Y06745789D02*
X07499642Y06750540D01*
G54D95*
X07490926Y06744982D02*
X07500357Y06751524D01*
G54D96*
X07494428Y06745576D02*
X07499896Y06751041D01*
X07495021Y06834583D02*
X07499755Y06839821D01*
G54D89*
X07496839Y06834903D02*
X07499012Y06839013D01*
G54D92*
X07491591Y06834132D02*
X07500175Y06839846D01*
G54D96*
X07494419Y06834472D02*
X07499899Y06839953D01*
G54D97*
X07771690Y08948681D02*
Y08880383D01*
Y08948681D02*
Y08880383D01*
X07870829Y08948271D02*
X07949103D01*
X07870829D02*
X07949103D01*
X07771690Y08687061D02*
Y08618763D01*
Y08687061D02*
Y08618763D01*
Y08687061D02*
Y08618763D01*
G54D92*
X07868806Y08682855D02*
X07880469Y08689424D01*
X07868806Y08682855D02*
X07880469Y08689424D01*
G54D98*
X00822047Y10199135D02*
Y09741888D01*
G54D99*
X02406410Y06627896D02*
X02693554D01*
G54D100*
X01689860Y08612203D02*
Y08609547D01*
G54D89*
X01854041Y08993074D02*
X01903760Y08943354D01*
X01853984Y08993016D02*
X01903703Y08943297D01*
X01854041Y08993074D02*
X01903760Y08943354D01*
G54D98*
X07624782Y07055266D02*
X07698784D01*
X07624782D02*
X07698784D01*
X07624782D02*
X07698784D01*
G54D99*
X08195737Y06893809D02*
Y06873592D01*
G54D88*
X07954302Y07181415D02*
Y07121012D01*
G54D101*
X01800911Y09153673D03*
X01903069Y09236071D03*
X02164283Y08474350D03*
X01842237Y08957280D03*
X01908937Y09022685D03*
X02405202Y08847908D03*
G54D102*
X00013527Y09590154D02*
Y09499051D01*
Y06510150D02*
Y06419047D01*
X09126459Y09590154D02*
Y09499051D01*
X08949835Y09413530D02*
X09040938D01*
G36*
X02394072Y08857699D02*
Y08872954D01*
X02418667D01*
Y08857699D01*
X02394072D01*
G37*
G54D88*
X08116717Y11958719D02*
X08178478D01*
X04488624Y13822245D02*
Y13752616D01*
X04438624Y13822267D02*
Y13752594D01*
X04388625Y13822245D02*
Y13752616D01*
X04388624Y13865595D02*
Y13935224D01*
X04438624Y13865573D02*
Y13935246D01*
X04488624Y13865595D02*
Y13935224D01*
X04677385Y13822267D02*
Y13752594D01*
X04627385Y13822245D02*
Y13752616D01*
X04627385Y13865595D02*
Y13935224D01*
X04677385Y13865573D02*
Y13935246D01*
X04727384Y13865595D02*
Y13935224D01*
G36*
X07712824Y12096793D02*
Y12100172D01*
X08095729D01*
Y12096793D01*
X07712824D01*
G37*
G36*
X08067232Y12103793D02*
X08091334D01*
G02X08067232Y12103793I-00012051J00019798D01*
G37*
G36*
X07712824Y12096793D02*
G01Y12100172D01*
X08095729D01*
Y12096793D01*
X07712824D01*
G37*
G36*
X08017245Y12103793D02*
X08041347D01*
G02X08017245Y12103793I-00012051J00019798D01*
G37*
G36*
X07712824Y12096793D02*
G01Y12100172D01*
X08095729D01*
Y12096793D01*
X07712824D01*
G37*
G36*
X07967232Y12103793D02*
X07991334D01*
G02X07967232Y12103793I-00012051J00019798D01*
G37*
G36*
X07712824Y12096793D02*
G01Y12100172D01*
X08095729D01*
Y12096793D01*
X07712824D01*
G37*
G36*
X07917245Y12103793D02*
X07941347D01*
G02X07917245Y12103793I-00012051J00019798D01*
G37*
G36*
X07712824Y12096793D02*
G01Y12100172D01*
X08095729D01*
Y12096793D01*
X07712824D01*
G37*
G36*
X07867232Y12103793D02*
X07891334D01*
G02X07867232Y12103793I-00012051J00019798D01*
G37*
G36*
X07712824Y12096793D02*
G01Y12100172D01*
X08095729D01*
Y12096793D01*
X07712824D01*
G37*
G36*
X07817245Y12103793D02*
X07841347D01*
G02X07817245Y12103793I-00012051J00019798D01*
G37*
G36*
X07712824Y12096793D02*
G01Y12100172D01*
X08095729D01*
Y12096793D01*
X07712824D01*
G37*
G36*
X07767232Y12103793D02*
X07791334D01*
G02X07767232Y12103793I-00012051J00019798D01*
G37*
G36*
X07712824Y12096793D02*
G01Y12100172D01*
X08095729D01*
Y12096793D01*
X07712824D01*
G37*
G36*
X07717245Y12103793D02*
X07741347D01*
G02X07717245Y12103793I-00012051J00019798D01*
G37*
G36*
X07712824Y11717267D02*
G01Y11720634D01*
X08095729D01*
Y11717267D01*
X07712824D01*
G37*
G36*
X07717266Y11713634D02*
G02X07741326Y11713634I00012030J-00019811D01*
G01X07717266D01*
G37*
G36*
X07712824Y11717267D02*
Y11720634D01*
X08095729D01*
Y11717267D01*
X07712824D01*
G37*
G36*
X07767253Y11713634D02*
G02X07791313Y11713634I00012030J-00019811D01*
G01X07767253D01*
G37*
G36*
X07712824Y11717267D02*
Y11720634D01*
X08095729D01*
Y11717267D01*
X07712824D01*
G37*
G36*
X07817266Y11713634D02*
G02X07841326Y11713634I00012030J-00019811D01*
G01X07817266D01*
G37*
G36*
X07712824Y11717267D02*
Y11720634D01*
X08095729D01*
Y11717267D01*
X07712824D01*
G37*
G36*
X07867253Y11713634D02*
G02X07891313Y11713634I00012030J-00019811D01*
G01X07867253D01*
G37*
G36*
X07712824Y11717267D02*
Y11720634D01*
X08095729D01*
Y11717267D01*
X07712824D01*
G37*
G36*
X07917266Y11713634D02*
G02X07941326Y11713634I00012030J-00019811D01*
G01X07917266D01*
G37*
G36*
X07712824Y11717267D02*
Y11720634D01*
X08095729D01*
Y11717267D01*
X07712824D01*
G37*
G36*
X07967253Y11713634D02*
G02X07991313Y11713634I00012030J-00019811D01*
G01X07967253D01*
G37*
G36*
X07712824Y11717267D02*
Y11720634D01*
X08095729D01*
Y11717267D01*
X07712824D01*
G37*
G36*
X08017265Y11713634D02*
G02X08041325Y11713634I00012030J-00019811D01*
G01X08017265D01*
G37*
G36*
X07712824Y11717267D02*
Y11720634D01*
X08095729D01*
Y11717267D01*
X07712824D01*
G37*
G36*
X08067253Y11713634D02*
G02X08091313Y11713634I00012030J-00019811D01*
G01X08067253D01*
G37*
G36*
X07712824Y11717267D02*
Y12100172D01*
X07716204D01*
Y11717267D01*
X07712824D01*
G37*
G36*
X07709204Y12071674D02*
Y12095777D01*
G02X07709204Y12071674I-00019798J-00012051D01*
G37*
G36*
X07712824Y11717267D02*
G01Y12100172D01*
X07716204D01*
Y11717267D01*
X07712824D01*
G37*
G36*
X07709204Y12021662D02*
Y12045764D01*
G02X07709204Y12021662I-00019798J-00012051D01*
G37*
G36*
X07712824Y11717267D02*
G01Y12100172D01*
X07716204D01*
Y11717267D01*
X07712824D01*
G37*
G36*
X07709204Y11971675D02*
Y11995777D01*
G02X07709204Y11971675I-00019798J-00012051D01*
G37*
G36*
X07712824Y11717267D02*
G01Y12100172D01*
X07716204D01*
Y11717267D01*
X07712824D01*
G37*
G36*
X07709204Y11921662D02*
Y11945764D01*
G02X07709204Y11921662I-00019798J-00012051D01*
G37*
G36*
X07712824Y11717267D02*
G01Y12100172D01*
X07716204D01*
Y11717267D01*
X07712824D01*
G37*
G36*
X07709204Y11871649D02*
Y11895751D01*
G02X07709204Y11871649I-00019798J-00012051D01*
G37*
G36*
X07712824Y11717267D02*
G01Y12100172D01*
X07716204D01*
Y11717267D01*
X07712824D01*
G37*
G36*
X07709204Y11821662D02*
Y11845764D01*
G02X07709204Y11821662I-00019798J-00012051D01*
G37*
G36*
X07712824Y11717267D02*
G01Y12100172D01*
X07716204D01*
Y11717267D01*
X07712824D01*
G37*
G36*
X07709204Y11771650D02*
Y11795751D01*
G02X07709204Y11771650I-00019798J-00012051D01*
G37*
G36*
X07712824Y11717267D02*
G01Y12100172D01*
X07716204D01*
Y11717267D01*
X07712824D01*
G37*
G36*
X07709204Y11721663D02*
Y11745764D01*
G02X07709204Y11721663I-00019798J-00012051D01*
G37*
G36*
X08092363Y11717267D02*
G01Y12100172D01*
X08095729D01*
Y11717267D01*
X08092363D01*
G37*
G36*
X08099362Y11721683D02*
G02X08099362Y11745743I00019811J00012030D01*
G01Y11721683D01*
G37*
G36*
X08092363Y11717267D02*
Y12100172D01*
X08095729D01*
Y11717267D01*
X08092363D01*
G37*
G36*
X08099362Y11771670D02*
G02X08099362Y11795731I00019811J00012030D01*
G01Y11771670D01*
G37*
G36*
X08092363Y11717267D02*
Y12100172D01*
X08095729D01*
Y11717267D01*
X08092363D01*
G37*
G36*
X08099362Y11821683D02*
G02X08099362Y11845743I00019811J00012030D01*
G01Y11821683D01*
G37*
G36*
X08092363Y11717267D02*
Y12100172D01*
X08095729D01*
Y11717267D01*
X08092363D01*
G37*
G36*
X08099362Y11871670D02*
G02X08099362Y11895731I00019811J00012030D01*
G01Y11871670D01*
G37*
G36*
X08092363Y11717267D02*
Y12100172D01*
X08095729D01*
Y11717267D01*
X08092363D01*
G37*
G36*
X08099362Y11921683D02*
G02X08099362Y11945743I00019811J00012030D01*
G01Y11921683D01*
G37*
G36*
X08092363Y11717267D02*
Y12100172D01*
X08095729D01*
Y11717267D01*
X08092363D01*
G37*
G36*
X08099362Y11971696D02*
G02X08099362Y11995756I00019811J00012030D01*
G01Y11971696D01*
G37*
G36*
X08092363Y11717267D02*
Y12100172D01*
X08095729D01*
Y11717267D01*
X08092363D01*
G37*
G36*
X08099362Y12021683D02*
G02X08099362Y12045743I00019811J00012030D01*
G01Y12021683D01*
G37*
G36*
X08092363Y11717267D02*
Y12100172D01*
X08095729D01*
Y11717267D01*
X08092363D01*
G37*
G36*
X08099362Y12071696D02*
G02X08099362Y12095756I00019811J00012030D01*
G01Y12071696D01*
G37*
G54D88*
X08128208Y15096292D02*
X08086948D01*
Y14997575D02*
X08128208D01*
X08278221Y15096292D02*
X08236961D01*
X08054289Y12181479D02*
Y12120947D01*
X08004289Y12181415D02*
Y12121012D01*
X07904289Y12181415D02*
Y12121012D01*
X07854289Y12181479D02*
Y12120947D01*
X07804290Y12181415D02*
Y12121012D01*
X07754290Y12181479D02*
Y12120947D01*
X07754289Y11635934D02*
Y11696466D01*
X07804289Y11635999D02*
Y11696402D01*
X07854289Y11635934D02*
Y11696466D01*
X07904289Y11635999D02*
Y11696402D01*
X07954289Y11635934D02*
Y11696466D01*
X08004289Y11635999D02*
Y11696402D01*
X08054289Y11635934D02*
Y11696466D01*
X07631582Y12058719D02*
X07691984D01*
X07631517Y12008719D02*
X07692049D01*
X07631582Y11958719D02*
X07691984D01*
X07631582Y11908707D02*
X07691984D01*
X07631517Y11858707D02*
X07692049D01*
X07631582Y11808707D02*
X07691984D01*
X07631517Y11758707D02*
X07692049D01*
X08177062D02*
X08116530D01*
X08176997Y11808707D02*
X08116595D01*
X08177062Y11858707D02*
X08116530D01*
X08176997Y11908707D02*
X08116595D01*
X08177062Y12008719D02*
X08116530D01*
X08176997Y12058719D02*
X08116595D01*
G54D89*
X05383520Y11889714D02*
X05364765Y11898781D01*
G54D90*
X07038972Y11561665D02*
X07048492Y11573391D01*
G54D89*
X08278811Y12329479D02*
X08279613Y12311260D01*
G54D91*
X08279344Y12391093D02*
Y12312146D01*
G54D92*
X08277070Y12215592D02*
X08287963Y12210345D01*
G54D91*
X08279344Y12291093D02*
Y12212146D01*
G54D92*
X08106749Y12304317D02*
X08113720Y12311289D01*
G54D93*
X07693719Y11421646D02*
X07702959Y11412406D01*
G54D94*
X07495306Y11745789D02*
X07499642Y11750540D01*
G54D95*
X07490926Y11744981D02*
X07500357Y11751524D01*
G54D96*
X07494428Y11745576D02*
X07499896Y11751041D01*
X07495021Y11834583D02*
X07499755Y11839821D01*
G54D89*
X07496839Y11834903D02*
X07499012Y11839013D01*
G54D92*
X07491591Y11834132D02*
X07500175Y11839846D01*
G54D96*
X07494419Y11834472D02*
X07499899Y11839953D01*
G54D97*
X07771690Y13948681D02*
Y13880383D01*
Y13948681D02*
Y13880383D01*
X07870829Y13948271D02*
X07949103D01*
X07870829D02*
X07949103D01*
X07771690Y13687061D02*
Y13618763D01*
Y13687061D02*
Y13618763D01*
Y13687061D02*
Y13618763D01*
G54D92*
X07868806Y13682855D02*
X07880469Y13689424D01*
X07868806Y13682855D02*
X07880469Y13689424D01*
G54D98*
X00822047Y15199135D02*
Y14741888D01*
G54D99*
X02406410Y11627895D02*
X02693554D01*
G54D100*
X01689860Y13612203D02*
Y13609547D01*
G54D89*
X01854041Y13993074D02*
X01903760Y13943354D01*
X01853984Y13993016D02*
X01903703Y13943297D01*
X01854041Y13993074D02*
X01903760Y13943354D01*
G54D98*
X07624782Y12055266D02*
X07698784D01*
X07624782D02*
X07698784D01*
X07624782D02*
X07698784D01*
G54D99*
X08195737Y11893809D02*
Y11873592D01*
G54D88*
X07954302Y12181415D02*
Y12121012D01*
G54D101*
X01800911Y14153673D03*
X01903069Y14236071D03*
X02164283Y13474350D03*
X01842237Y13957280D03*
X01908937Y14022685D03*
X02405202Y13847908D03*
G54D102*
X00013527Y14590154D02*
Y14499051D01*
Y11510150D02*
Y11419047D01*
X09126459Y14590154D02*
Y14499051D01*
X08949835Y14413530D02*
X09040938D01*
G36*
X02394072Y13857699D02*
Y13872954D01*
X02418667D01*
Y13857699D01*
X02394072D01*
G37*
G54D88*
X17456717Y01958719D02*
X17518478D01*
X13828624Y03822245D02*
Y03752616D01*
X13778624Y03822267D02*
Y03752594D01*
X13728625Y03822245D02*
Y03752616D01*
X13728624Y03865595D02*
Y03935224D01*
X13778624Y03865573D02*
Y03935246D01*
X13828624Y03865595D02*
Y03935224D01*
X14017385Y03822267D02*
Y03752594D01*
X13967385Y03822245D02*
Y03752616D01*
X13967385Y03865595D02*
Y03935224D01*
X14017385Y03865573D02*
Y03935246D01*
X14067384Y03865595D02*
Y03935224D01*
G36*
X17052824Y02096793D02*
Y02100172D01*
X17435729D01*
Y02096793D01*
X17052824D01*
G37*
G36*
X17407232Y02103793D02*
X17431334D01*
G02X17407232Y02103793I-00012051J00019798D01*
G37*
G36*
X17052824Y02096793D02*
G01Y02100172D01*
X17435729D01*
Y02096793D01*
X17052824D01*
G37*
G36*
X17357245Y02103793D02*
X17381346D01*
G02X17357245Y02103793I-00012051J00019798D01*
G37*
G36*
X17052824Y02096793D02*
G01Y02100172D01*
X17435729D01*
Y02096793D01*
X17052824D01*
G37*
G36*
X17307232Y02103793D02*
X17331334D01*
G02X17307232Y02103793I-00012051J00019798D01*
G37*
G36*
X17052824Y02096793D02*
G01Y02100172D01*
X17435729D01*
Y02096793D01*
X17052824D01*
G37*
G36*
X17257245Y02103793D02*
X17281347D01*
G02X17257245Y02103793I-00012051J00019798D01*
G37*
G36*
X17052824Y02096793D02*
G01Y02100172D01*
X17435729D01*
Y02096793D01*
X17052824D01*
G37*
G36*
X17207232Y02103793D02*
X17231334D01*
G02X17207232Y02103793I-00012051J00019798D01*
G37*
G36*
X17052824Y02096793D02*
G01Y02100172D01*
X17435729D01*
Y02096793D01*
X17052824D01*
G37*
G36*
X17157245Y02103793D02*
X17181347D01*
G02X17157245Y02103793I-00012051J00019798D01*
G37*
G36*
X17052824Y02096793D02*
G01Y02100172D01*
X17435729D01*
Y02096793D01*
X17052824D01*
G37*
G36*
X17107232Y02103793D02*
X17131334D01*
G02X17107232Y02103793I-00012051J00019798D01*
G37*
G36*
X17052824Y02096793D02*
G01Y02100172D01*
X17435729D01*
Y02096793D01*
X17052824D01*
G37*
G36*
X17057245Y02103793D02*
X17081347D01*
G02X17057245Y02103793I-00012051J00019798D01*
G37*
G36*
X17052824Y01717267D02*
G01Y01720634D01*
X17435729D01*
Y01717267D01*
X17052824D01*
G37*
G36*
X17057266Y01713634D02*
G02X17081326Y01713634I00012030J-00019811D01*
G01X17057266D01*
G37*
G36*
X17052824Y01717267D02*
Y01720634D01*
X17435729D01*
Y01717267D01*
X17052824D01*
G37*
G36*
X17107253Y01713634D02*
G02X17131313Y01713634I00012030J-00019811D01*
G01X17107253D01*
G37*
G36*
X17052824Y01717267D02*
Y01720634D01*
X17435729D01*
Y01717267D01*
X17052824D01*
G37*
G36*
X17157266Y01713634D02*
G02X17181326Y01713634I00012030J-00019811D01*
G01X17157266D01*
G37*
G36*
X17052824Y01717267D02*
Y01720634D01*
X17435729D01*
Y01717267D01*
X17052824D01*
G37*
G36*
X17207253Y01713634D02*
G02X17231313Y01713634I00012030J-00019811D01*
G01X17207253D01*
G37*
G36*
X17052824Y01717267D02*
Y01720634D01*
X17435729D01*
Y01717267D01*
X17052824D01*
G37*
G36*
X17257266Y01713634D02*
G02X17281326Y01713634I00012030J-00019811D01*
G01X17257266D01*
G37*
G36*
X17052824Y01717267D02*
Y01720634D01*
X17435729D01*
Y01717267D01*
X17052824D01*
G37*
G36*
X17307253Y01713634D02*
G02X17331313Y01713634I00012030J-00019811D01*
G01X17307253D01*
G37*
G36*
X17052824Y01717267D02*
Y01720634D01*
X17435729D01*
Y01717267D01*
X17052824D01*
G37*
G36*
X17357265Y01713634D02*
G02X17381326Y01713634I00012030J-00019811D01*
G01X17357265D01*
G37*
G36*
X17052824Y01717267D02*
Y01720634D01*
X17435729D01*
Y01717267D01*
X17052824D01*
G37*
G36*
X17407253Y01713634D02*
G02X17431313Y01713634I00012030J-00019811D01*
G01X17407253D01*
G37*
G36*
X17052824Y01717267D02*
Y02100172D01*
X17056204D01*
Y01717267D01*
X17052824D01*
G37*
G36*
X17049204Y02071675D02*
Y02095776D01*
G02X17049204Y02071675I-00019798J-00012051D01*
G37*
G36*
X17052824Y01717267D02*
G01Y02100172D01*
X17056204D01*
Y01717267D01*
X17052824D01*
G37*
G36*
X17049204Y02021662D02*
Y02045764D01*
G02X17049204Y02021662I-00019798J-00012051D01*
G37*
G36*
X17052824Y01717267D02*
G01Y02100172D01*
X17056204D01*
Y01717267D01*
X17052824D01*
G37*
G36*
X17049204Y01971675D02*
Y01995776D01*
G02X17049204Y01971675I-00019798J-00012051D01*
G37*
G36*
X17052824Y01717267D02*
G01Y02100172D01*
X17056204D01*
Y01717267D01*
X17052824D01*
G37*
G36*
X17049204Y01921662D02*
Y01945764D01*
G02X17049204Y01921662I-00019798J-00012051D01*
G37*
G36*
X17052824Y01717267D02*
G01Y02100172D01*
X17056204D01*
Y01717267D01*
X17052824D01*
G37*
G36*
X17049204Y01871649D02*
Y01895751D01*
G02X17049204Y01871649I-00019798J-00012051D01*
G37*
G36*
X17052824Y01717267D02*
G01Y02100172D01*
X17056204D01*
Y01717267D01*
X17052824D01*
G37*
G36*
X17049204Y01821662D02*
Y01845764D01*
G02X17049204Y01821662I-00019798J-00012051D01*
G37*
G36*
X17052824Y01717267D02*
G01Y02100172D01*
X17056204D01*
Y01717267D01*
X17052824D01*
G37*
G36*
X17049204Y01771650D02*
Y01795751D01*
G02X17049204Y01771650I-00019798J-00012051D01*
G37*
G36*
X17052824Y01717267D02*
G01Y02100172D01*
X17056204D01*
Y01717267D01*
X17052824D01*
G37*
G36*
X17049204Y01721663D02*
Y01745765D01*
G02X17049204Y01721663I-00019798J-00012051D01*
G37*
G36*
X17432363Y01717267D02*
G01Y02100172D01*
X17435729D01*
Y01717267D01*
X17432363D01*
G37*
G36*
X17439363Y01721684D02*
G02X17439363Y01745744I00019811J00012030D01*
G01Y01721684D01*
G37*
G36*
X17432363Y01717267D02*
Y02100172D01*
X17435729D01*
Y01717267D01*
X17432363D01*
G37*
G36*
X17439363Y01771671D02*
G02X17439363Y01795730I00019811J00012030D01*
G01Y01771671D01*
G37*
G36*
X17432363Y01717267D02*
Y02100172D01*
X17435729D01*
Y01717267D01*
X17432363D01*
G37*
G36*
X17439363Y01821683D02*
G02X17439363Y01845743I00019811J00012030D01*
G01Y01821683D01*
G37*
G36*
X17432363Y01717267D02*
Y02100172D01*
X17435729D01*
Y01717267D01*
X17432363D01*
G37*
G36*
X17439363Y01871671D02*
G02X17439363Y01895730I00019811J00012030D01*
G01Y01871671D01*
G37*
G36*
X17432363Y01717267D02*
Y02100172D01*
X17435729D01*
Y01717267D01*
X17432363D01*
G37*
G36*
X17439363Y01921683D02*
G02X17439363Y01945743I00019811J00012030D01*
G01Y01921683D01*
G37*
G36*
X17432363Y01717267D02*
Y02100172D01*
X17435729D01*
Y01717267D01*
X17432363D01*
G37*
G36*
X17439363Y01971695D02*
G02X17439363Y01995756I00019811J00012030D01*
G01Y01971695D01*
G37*
G36*
X17432363Y01717267D02*
Y02100172D01*
X17435729D01*
Y01717267D01*
X17432363D01*
G37*
G36*
X17439363Y02021683D02*
G02X17439363Y02045743I00019811J00012030D01*
G01Y02021683D01*
G37*
G36*
X17432363Y01717267D02*
Y02100172D01*
X17435729D01*
Y01717267D01*
X17432363D01*
G37*
G36*
X17439363Y02071695D02*
G02X17439363Y02095756I00019811J00012030D01*
G01Y02071695D01*
G37*
G54D88*
X17468208Y05096292D02*
X17426948D01*
Y04997575D02*
X17468208D01*
X17618221Y05096292D02*
X17576961D01*
X17394289Y02181480D02*
Y02120947D01*
X17344289Y02181415D02*
Y02121012D01*
X17244290Y02181415D02*
Y02121012D01*
X17194290Y02181480D02*
Y02120947D01*
X17144290Y02181415D02*
Y02121012D01*
X17094290Y02181480D02*
Y02120947D01*
X17094290Y01635934D02*
Y01696467D01*
X17144290Y01635999D02*
Y01696402D01*
X17194290Y01635934D02*
Y01696467D01*
X17244289Y01635999D02*
Y01696402D01*
X17294289Y01635934D02*
Y01696467D01*
X17344289Y01635999D02*
Y01696402D01*
X17394289Y01635934D02*
Y01696467D01*
X16971582Y02058719D02*
X17031984D01*
X16971517Y02008719D02*
X17032049D01*
X16971582Y01958719D02*
X17031984D01*
X16971582Y01908707D02*
X17031984D01*
X16971517Y01858707D02*
X17032049D01*
X16971582Y01808707D02*
X17031984D01*
X16971517Y01758707D02*
X17032049D01*
X17517062D02*
X17456530D01*
X17516997Y01808707D02*
X17456595D01*
X17517062Y01858707D02*
X17456530D01*
X17516997Y01908707D02*
X17456595D01*
X17517062Y02008719D02*
X17456530D01*
X17516997Y02058719D02*
X17456595D01*
G54D89*
X14723520Y01889713D02*
X14704764Y01898781D01*
G54D90*
X16378972Y01561664D02*
X16388492Y01573391D01*
G54D89*
X17618811Y02329479D02*
X17619613Y02311261D01*
G54D91*
X17619344Y02391093D02*
Y02312146D01*
G54D92*
X17617071Y02215592D02*
X17627963Y02210345D01*
G54D91*
X17619344Y02291093D02*
Y02212146D01*
G54D92*
X17446749Y02304317D02*
X17453720Y02311289D01*
G54D93*
X17033719Y01421646D02*
X17042959Y01412405D01*
G54D94*
X16835306Y01745789D02*
X16839642Y01750540D01*
G54D95*
X16830926Y01744982D02*
X16840357Y01751524D01*
G54D96*
X16834428Y01745576D02*
X16839896Y01751041D01*
X16835021Y01834583D02*
X16839755Y01839821D01*
G54D89*
X16836839Y01834903D02*
X16839012Y01839013D01*
G54D92*
X16831591Y01834132D02*
X16840175Y01839846D01*
G54D96*
X16834419Y01834472D02*
X16839899Y01839953D01*
G54D97*
X17111690Y03948681D02*
Y03880383D01*
Y03948681D02*
Y03880383D01*
X17210830Y03948271D02*
X17289103D01*
X17210830D02*
X17289103D01*
X17111690Y03687061D02*
Y03618763D01*
Y03687061D02*
Y03618763D01*
Y03687061D02*
Y03618763D01*
G54D92*
X17208807Y03682855D02*
X17220469Y03689424D01*
X17208807Y03682855D02*
X17220469Y03689424D01*
G54D98*
X10162047Y05199135D02*
Y04741888D01*
G54D99*
X11746410Y01627896D02*
X12033554D01*
G54D100*
X11029860Y03612203D02*
Y03609547D01*
G54D89*
X11194041Y03993074D02*
X11243760Y03943354D01*
X11193983Y03993016D02*
X11243703Y03943297D01*
X11194041Y03993074D02*
X11243760Y03943354D01*
G54D98*
X16964783Y02055266D02*
X17038784D01*
X16964783D02*
X17038784D01*
X16964783D02*
X17038784D01*
G54D99*
X17535737Y01893809D02*
Y01873592D01*
G54D88*
X17294302Y02181415D02*
Y02121012D01*
G54D101*
X11140911Y04153673D03*
X11243070Y04236071D03*
X11504283Y03474350D03*
X11182237Y03957280D03*
X11248937Y04022685D03*
X11745202Y03847908D03*
G54D102*
X09353527Y04590154D02*
Y04499051D01*
Y01510150D02*
Y01419047D01*
X18466459Y04590154D02*
Y04499051D01*
X18289835Y04413530D02*
X18380938D01*
G36*
X11734072Y03857699D02*
Y03872954D01*
X11758667D01*
Y03857699D01*
X11734072D01*
G37*
G54D88*
X17456717Y06958719D02*
X17518478D01*
X13828624Y08822245D02*
Y08752616D01*
X13778624Y08822267D02*
Y08752594D01*
X13728625Y08822245D02*
Y08752616D01*
X13728624Y08865595D02*
Y08935224D01*
X13778624Y08865573D02*
Y08935246D01*
X13828624Y08865595D02*
Y08935224D01*
X14017385Y08822267D02*
Y08752594D01*
X13967385Y08822245D02*
Y08752616D01*
X13967385Y08865595D02*
Y08935224D01*
X14017385Y08865573D02*
Y08935246D01*
X14067384Y08865595D02*
Y08935224D01*
G36*
X17052824Y07096792D02*
Y07100172D01*
X17435729D01*
Y07096792D01*
X17052824D01*
G37*
G36*
X17407232Y07103793D02*
X17431334D01*
G02X17407232Y07103793I-00012051J00019798D01*
G37*
G36*
X17052824Y07096792D02*
G01Y07100172D01*
X17435729D01*
Y07096792D01*
X17052824D01*
G37*
G36*
X17357245Y07103793D02*
X17381346D01*
G02X17357245Y07103793I-00012051J00019798D01*
G37*
G36*
X17052824Y07096792D02*
G01Y07100172D01*
X17435729D01*
Y07096792D01*
X17052824D01*
G37*
G36*
X17307232Y07103793D02*
X17331334D01*
G02X17307232Y07103793I-00012051J00019798D01*
G37*
G36*
X17052824Y07096792D02*
G01Y07100172D01*
X17435729D01*
Y07096792D01*
X17052824D01*
G37*
G36*
X17257245Y07103793D02*
X17281347D01*
G02X17257245Y07103793I-00012051J00019798D01*
G37*
G36*
X17052824Y07096792D02*
G01Y07100172D01*
X17435729D01*
Y07096792D01*
X17052824D01*
G37*
G36*
X17207232Y07103793D02*
X17231334D01*
G02X17207232Y07103793I-00012051J00019798D01*
G37*
G36*
X17052824Y07096792D02*
G01Y07100172D01*
X17435729D01*
Y07096792D01*
X17052824D01*
G37*
G36*
X17157245Y07103793D02*
X17181347D01*
G02X17157245Y07103793I-00012051J00019798D01*
G37*
G36*
X17052824Y07096792D02*
G01Y07100172D01*
X17435729D01*
Y07096792D01*
X17052824D01*
G37*
G36*
X17107232Y07103793D02*
X17131334D01*
G02X17107232Y07103793I-00012051J00019798D01*
G37*
G36*
X17052824Y07096792D02*
G01Y07100172D01*
X17435729D01*
Y07096792D01*
X17052824D01*
G37*
G36*
X17057245Y07103793D02*
X17081347D01*
G02X17057245Y07103793I-00012051J00019798D01*
G37*
G36*
X17052824Y06717267D02*
G01Y06720634D01*
X17435729D01*
Y06717267D01*
X17052824D01*
G37*
G36*
X17057266Y06713634D02*
G02X17081326Y06713634I00012030J-00019811D01*
G01X17057266D01*
G37*
G36*
X17052824Y06717267D02*
Y06720634D01*
X17435729D01*
Y06717267D01*
X17052824D01*
G37*
G36*
X17107253Y06713634D02*
G02X17131313Y06713634I00012030J-00019811D01*
G01X17107253D01*
G37*
G36*
X17052824Y06717267D02*
Y06720634D01*
X17435729D01*
Y06717267D01*
X17052824D01*
G37*
G36*
X17157266Y06713634D02*
G02X17181326Y06713634I00012030J-00019811D01*
G01X17157266D01*
G37*
G36*
X17052824Y06717267D02*
Y06720634D01*
X17435729D01*
Y06717267D01*
X17052824D01*
G37*
G36*
X17207253Y06713634D02*
G02X17231313Y06713634I00012030J-00019811D01*
G01X17207253D01*
G37*
G36*
X17052824Y06717267D02*
Y06720634D01*
X17435729D01*
Y06717267D01*
X17052824D01*
G37*
G36*
X17257266Y06713634D02*
G02X17281326Y06713634I00012030J-00019811D01*
G01X17257266D01*
G37*
G36*
X17052824Y06717267D02*
Y06720634D01*
X17435729D01*
Y06717267D01*
X17052824D01*
G37*
G36*
X17307253Y06713634D02*
G02X17331313Y06713634I00012030J-00019811D01*
G01X17307253D01*
G37*
G36*
X17052824Y06717267D02*
Y06720634D01*
X17435729D01*
Y06717267D01*
X17052824D01*
G37*
G36*
X17357265Y06713634D02*
G02X17381326Y06713634I00012030J-00019811D01*
G01X17357265D01*
G37*
G36*
X17052824Y06717267D02*
Y06720634D01*
X17435729D01*
Y06717267D01*
X17052824D01*
G37*
G36*
X17407253Y06713634D02*
G02X17431313Y06713634I00012030J-00019811D01*
G01X17407253D01*
G37*
G36*
X17052824Y06717267D02*
Y07100172D01*
X17056204D01*
Y06717267D01*
X17052824D01*
G37*
G36*
X17049204Y07071675D02*
Y07095776D01*
G02X17049204Y07071675I-00019798J-00012051D01*
G37*
G36*
X17052824Y06717267D02*
G01Y07100172D01*
X17056204D01*
Y06717267D01*
X17052824D01*
G37*
G36*
X17049204Y07021662D02*
Y07045764D01*
G02X17049204Y07021662I-00019798J-00012051D01*
G37*
G36*
X17052824Y06717267D02*
G01Y07100172D01*
X17056204D01*
Y06717267D01*
X17052824D01*
G37*
G36*
X17049204Y06971675D02*
Y06995776D01*
G02X17049204Y06971675I-00019798J-00012051D01*
G37*
G36*
X17052824Y06717267D02*
G01Y07100172D01*
X17056204D01*
Y06717267D01*
X17052824D01*
G37*
G36*
X17049204Y06921662D02*
Y06945764D01*
G02X17049204Y06921662I-00019798J-00012051D01*
G37*
G36*
X17052824Y06717267D02*
G01Y07100172D01*
X17056204D01*
Y06717267D01*
X17052824D01*
G37*
G36*
X17049204Y06871649D02*
Y06895751D01*
G02X17049204Y06871649I-00019798J-00012051D01*
G37*
G36*
X17052824Y06717267D02*
G01Y07100172D01*
X17056204D01*
Y06717267D01*
X17052824D01*
G37*
G36*
X17049204Y06821662D02*
Y06845764D01*
G02X17049204Y06821662I-00019798J-00012051D01*
G37*
G36*
X17052824Y06717267D02*
G01Y07100172D01*
X17056204D01*
Y06717267D01*
X17052824D01*
G37*
G36*
X17049204Y06771650D02*
Y06795751D01*
G02X17049204Y06771650I-00019798J-00012051D01*
G37*
G36*
X17052824Y06717267D02*
G01Y07100172D01*
X17056204D01*
Y06717267D01*
X17052824D01*
G37*
G36*
X17049204Y06721662D02*
Y06745765D01*
G02X17049204Y06721662I-00019798J-00012051D01*
G37*
G36*
X17432363Y06717267D02*
G01Y07100172D01*
X17435729D01*
Y06717267D01*
X17432363D01*
G37*
G36*
X17439363Y06721684D02*
G02X17439363Y06745743I00019811J00012030D01*
G01Y06721684D01*
G37*
G36*
X17432363Y06717267D02*
Y07100172D01*
X17435729D01*
Y06717267D01*
X17432363D01*
G37*
G36*
X17439363Y06771671D02*
G02X17439363Y06795730I00019811J00012030D01*
G01Y06771671D01*
G37*
G36*
X17432363Y06717267D02*
Y07100172D01*
X17435729D01*
Y06717267D01*
X17432363D01*
G37*
G36*
X17439363Y06821683D02*
G02X17439363Y06845743I00019811J00012030D01*
G01Y06821683D01*
G37*
G36*
X17432363Y06717267D02*
Y07100172D01*
X17435729D01*
Y06717267D01*
X17432363D01*
G37*
G36*
X17439363Y06871671D02*
G02X17439363Y06895730I00019811J00012030D01*
G01Y06871671D01*
G37*
G36*
X17432363Y06717267D02*
Y07100172D01*
X17435729D01*
Y06717267D01*
X17432363D01*
G37*
G36*
X17439363Y06921683D02*
G02X17439363Y06945743I00019811J00012030D01*
G01Y06921683D01*
G37*
G36*
X17432363Y06717267D02*
Y07100172D01*
X17435729D01*
Y06717267D01*
X17432363D01*
G37*
G36*
X17439363Y06971696D02*
G02X17439363Y06995755I00019811J00012030D01*
G01Y06971696D01*
G37*
G36*
X17432363Y06717267D02*
Y07100172D01*
X17435729D01*
Y06717267D01*
X17432363D01*
G37*
G36*
X17439363Y07021683D02*
G02X17439363Y07045743I00019811J00012030D01*
G01Y07021683D01*
G37*
G36*
X17432363Y06717267D02*
Y07100172D01*
X17435729D01*
Y06717267D01*
X17432363D01*
G37*
G36*
X17439363Y07071696D02*
G02X17439363Y07095756I00019811J00012030D01*
G01Y07071696D01*
G37*
G54D88*
X17468208Y10096292D02*
X17426948D01*
Y09997575D02*
X17468208D01*
X17618221Y10096292D02*
X17576961D01*
X17394289Y07181479D02*
Y07120947D01*
X17344289Y07181415D02*
Y07121012D01*
X17244290Y07181415D02*
Y07121012D01*
X17194290Y07181479D02*
Y07120947D01*
X17144290Y07181415D02*
Y07121012D01*
X17094290Y07181479D02*
Y07120947D01*
X17094290Y06635934D02*
Y06696467D01*
X17144290Y06635999D02*
Y06696401D01*
X17194290Y06635934D02*
Y06696467D01*
X17244289Y06635999D02*
Y06696401D01*
X17294289Y06635934D02*
Y06696467D01*
X17344289Y06635999D02*
Y06696401D01*
X17394289Y06635934D02*
Y06696467D01*
X16971582Y07058719D02*
X17031984D01*
X16971517Y07008719D02*
X17032049D01*
X16971582Y06958719D02*
X17031984D01*
X16971582Y06908707D02*
X17031984D01*
X16971517Y06858707D02*
X17032049D01*
X16971582Y06808707D02*
X17031984D01*
X16971517Y06758707D02*
X17032049D01*
X17517062D02*
X17456530D01*
X17516997Y06808707D02*
X17456595D01*
X17517062Y06858707D02*
X17456530D01*
X17516997Y06908707D02*
X17456595D01*
X17517062Y07008719D02*
X17456530D01*
X17516997Y07058719D02*
X17456595D01*
G54D89*
X14723520Y06889714D02*
X14704764Y06898781D01*
G54D90*
X16378972Y06561664D02*
X16388492Y06573391D01*
G54D89*
X17618811Y07329479D02*
X17619613Y07311261D01*
G54D91*
X17619344Y07391092D02*
Y07312146D01*
G54D92*
X17617071Y07215592D02*
X17627963Y07210345D01*
G54D91*
X17619344Y07291093D02*
Y07212146D01*
G54D92*
X17446749Y07304317D02*
X17453720Y07311289D01*
G54D93*
X17033719Y06421646D02*
X17042959Y06412406D01*
G54D94*
X16835306Y06745789D02*
X16839642Y06750540D01*
G54D95*
X16830926Y06744982D02*
X16840357Y06751524D01*
G54D96*
X16834428Y06745576D02*
X16839896Y06751041D01*
X16835021Y06834583D02*
X16839755Y06839821D01*
G54D89*
X16836839Y06834903D02*
X16839012Y06839013D01*
G54D92*
X16831591Y06834132D02*
X16840175Y06839846D01*
G54D96*
X16834419Y06834472D02*
X16839899Y06839953D01*
G54D97*
X17111690Y08948681D02*
Y08880383D01*
Y08948681D02*
Y08880383D01*
X17210830Y08948271D02*
X17289103D01*
X17210830D02*
X17289103D01*
X17111690Y08687061D02*
Y08618763D01*
Y08687061D02*
Y08618763D01*
Y08687061D02*
Y08618763D01*
G54D92*
X17208807Y08682855D02*
X17220469Y08689424D01*
X17208807Y08682855D02*
X17220469Y08689424D01*
G54D98*
X10162047Y10199135D02*
Y09741888D01*
G54D99*
X11746410Y06627896D02*
X12033554D01*
G54D100*
X11029860Y08612203D02*
Y08609547D01*
G54D89*
X11194041Y08993074D02*
X11243760Y08943354D01*
X11193983Y08993016D02*
X11243703Y08943297D01*
X11194041Y08993074D02*
X11243760Y08943354D01*
G54D98*
X16964783Y07055266D02*
X17038784D01*
X16964783D02*
X17038784D01*
X16964783D02*
X17038784D01*
G54D99*
X17535737Y06893809D02*
Y06873592D01*
G54D88*
X17294302Y07181415D02*
Y07121012D01*
G54D101*
X11140911Y09153673D03*
X11243070Y09236071D03*
X11504283Y08474350D03*
X11182237Y08957280D03*
X11248937Y09022685D03*
X11745202Y08847908D03*
G54D102*
X09353527Y09590154D02*
Y09499051D01*
Y06510150D02*
Y06419047D01*
X18466459Y09590154D02*
Y09499051D01*
X18289835Y09413530D02*
X18380938D01*
G36*
X11734072Y08857699D02*
Y08872954D01*
X11758667D01*
Y08857699D01*
X11734072D01*
G37*
G54D88*
X17456717Y11958719D02*
X17518478D01*
X13828624Y13822245D02*
Y13752616D01*
X13778624Y13822267D02*
Y13752594D01*
X13728625Y13822245D02*
Y13752616D01*
X13728624Y13865595D02*
Y13935224D01*
X13778624Y13865573D02*
Y13935246D01*
X13828624Y13865595D02*
Y13935224D01*
X14017385Y13822267D02*
Y13752594D01*
X13967385Y13822245D02*
Y13752616D01*
X13967385Y13865595D02*
Y13935224D01*
X14017385Y13865573D02*
Y13935246D01*
X14067384Y13865595D02*
Y13935224D01*
G36*
X17052824Y12096793D02*
Y12100172D01*
X17435729D01*
Y12096793D01*
X17052824D01*
G37*
G36*
X17407232Y12103793D02*
X17431334D01*
G02X17407232Y12103793I-00012051J00019798D01*
G37*
G36*
X17052824Y12096793D02*
G01Y12100172D01*
X17435729D01*
Y12096793D01*
X17052824D01*
G37*
G36*
X17357245Y12103793D02*
X17381346D01*
G02X17357245Y12103793I-00012051J00019798D01*
G37*
G36*
X17052824Y12096793D02*
G01Y12100172D01*
X17435729D01*
Y12096793D01*
X17052824D01*
G37*
G36*
X17307232Y12103793D02*
X17331334D01*
G02X17307232Y12103793I-00012051J00019798D01*
G37*
G36*
X17052824Y12096793D02*
G01Y12100172D01*
X17435729D01*
Y12096793D01*
X17052824D01*
G37*
G36*
X17257245Y12103793D02*
X17281347D01*
G02X17257245Y12103793I-00012051J00019798D01*
G37*
G36*
X17052824Y12096793D02*
G01Y12100172D01*
X17435729D01*
Y12096793D01*
X17052824D01*
G37*
G36*
X17207232Y12103793D02*
X17231334D01*
G02X17207232Y12103793I-00012051J00019798D01*
G37*
G36*
X17052824Y12096793D02*
G01Y12100172D01*
X17435729D01*
Y12096793D01*
X17052824D01*
G37*
G36*
X17157245Y12103793D02*
X17181347D01*
G02X17157245Y12103793I-00012051J00019798D01*
G37*
G36*
X17052824Y12096793D02*
G01Y12100172D01*
X17435729D01*
Y12096793D01*
X17052824D01*
G37*
G36*
X17107232Y12103793D02*
X17131334D01*
G02X17107232Y12103793I-00012051J00019798D01*
G37*
G36*
X17052824Y12096793D02*
G01Y12100172D01*
X17435729D01*
Y12096793D01*
X17052824D01*
G37*
G36*
X17057245Y12103793D02*
X17081347D01*
G02X17057245Y12103793I-00012051J00019798D01*
G37*
G36*
X17052824Y11717267D02*
G01Y11720634D01*
X17435729D01*
Y11717267D01*
X17052824D01*
G37*
G36*
X17057266Y11713634D02*
G02X17081326Y11713634I00012030J-00019811D01*
G01X17057266D01*
G37*
G36*
X17052824Y11717267D02*
Y11720634D01*
X17435729D01*
Y11717267D01*
X17052824D01*
G37*
G36*
X17107253Y11713634D02*
G02X17131313Y11713634I00012030J-00019811D01*
G01X17107253D01*
G37*
G36*
X17052824Y11717267D02*
Y11720634D01*
X17435729D01*
Y11717267D01*
X17052824D01*
G37*
G36*
X17157266Y11713634D02*
G02X17181326Y11713634I00012030J-00019811D01*
G01X17157266D01*
G37*
G36*
X17052824Y11717267D02*
Y11720634D01*
X17435729D01*
Y11717267D01*
X17052824D01*
G37*
G36*
X17207253Y11713634D02*
G02X17231313Y11713634I00012030J-00019811D01*
G01X17207253D01*
G37*
G36*
X17052824Y11717267D02*
Y11720634D01*
X17435729D01*
Y11717267D01*
X17052824D01*
G37*
G36*
X17257266Y11713634D02*
G02X17281326Y11713634I00012030J-00019811D01*
G01X17257266D01*
G37*
G36*
X17052824Y11717267D02*
Y11720634D01*
X17435729D01*
Y11717267D01*
X17052824D01*
G37*
G36*
X17307253Y11713634D02*
G02X17331313Y11713634I00012030J-00019811D01*
G01X17307253D01*
G37*
G36*
X17052824Y11717267D02*
Y11720634D01*
X17435729D01*
Y11717267D01*
X17052824D01*
G37*
G36*
X17357265Y11713634D02*
G02X17381326Y11713634I00012030J-00019811D01*
G01X17357265D01*
G37*
G36*
X17052824Y11717267D02*
Y11720634D01*
X17435729D01*
Y11717267D01*
X17052824D01*
G37*
G36*
X17407253Y11713634D02*
G02X17431313Y11713634I00012030J-00019811D01*
G01X17407253D01*
G37*
G36*
X17052824Y11717267D02*
Y12100172D01*
X17056204D01*
Y11717267D01*
X17052824D01*
G37*
G36*
X17049204Y12071674D02*
Y12095777D01*
G02X17049204Y12071674I-00019798J-00012051D01*
G37*
G36*
X17052824Y11717267D02*
G01Y12100172D01*
X17056204D01*
Y11717267D01*
X17052824D01*
G37*
G36*
X17049204Y12021662D02*
Y12045764D01*
G02X17049204Y12021662I-00019798J-00012051D01*
G37*
G36*
X17052824Y11717267D02*
G01Y12100172D01*
X17056204D01*
Y11717267D01*
X17052824D01*
G37*
G36*
X17049204Y11971675D02*
Y11995777D01*
G02X17049204Y11971675I-00019798J-00012051D01*
G37*
G36*
X17052824Y11717267D02*
G01Y12100172D01*
X17056204D01*
Y11717267D01*
X17052824D01*
G37*
G36*
X17049204Y11921662D02*
Y11945764D01*
G02X17049204Y11921662I-00019798J-00012051D01*
G37*
G36*
X17052824Y11717267D02*
G01Y12100172D01*
X17056204D01*
Y11717267D01*
X17052824D01*
G37*
G36*
X17049204Y11871649D02*
Y11895751D01*
G02X17049204Y11871649I-00019798J-00012051D01*
G37*
G36*
X17052824Y11717267D02*
G01Y12100172D01*
X17056204D01*
Y11717267D01*
X17052824D01*
G37*
G36*
X17049204Y11821662D02*
Y11845764D01*
G02X17049204Y11821662I-00019798J-00012051D01*
G37*
G36*
X17052824Y11717267D02*
G01Y12100172D01*
X17056204D01*
Y11717267D01*
X17052824D01*
G37*
G36*
X17049204Y11771650D02*
Y11795751D01*
G02X17049204Y11771650I-00019798J-00012051D01*
G37*
G36*
X17052824Y11717267D02*
G01Y12100172D01*
X17056204D01*
Y11717267D01*
X17052824D01*
G37*
G36*
X17049204Y11721663D02*
Y11745764D01*
G02X17049204Y11721663I-00019798J-00012051D01*
G37*
G36*
X17432363Y11717267D02*
G01Y12100172D01*
X17435729D01*
Y11717267D01*
X17432363D01*
G37*
G36*
X17439363Y11721683D02*
G02X17439363Y11745743I00019811J00012030D01*
G01Y11721683D01*
G37*
G36*
X17432363Y11717267D02*
Y12100172D01*
X17435729D01*
Y11717267D01*
X17432363D01*
G37*
G36*
X17439363Y11771670D02*
G02X17439363Y11795731I00019811J00012030D01*
G01Y11771670D01*
G37*
G36*
X17432363Y11717267D02*
Y12100172D01*
X17435729D01*
Y11717267D01*
X17432363D01*
G37*
G36*
X17439363Y11821683D02*
G02X17439363Y11845743I00019811J00012030D01*
G01Y11821683D01*
G37*
G36*
X17432363Y11717267D02*
Y12100172D01*
X17435729D01*
Y11717267D01*
X17432363D01*
G37*
G36*
X17439363Y11871670D02*
G02X17439363Y11895731I00019811J00012030D01*
G01Y11871670D01*
G37*
G36*
X17432363Y11717267D02*
Y12100172D01*
X17435729D01*
Y11717267D01*
X17432363D01*
G37*
G36*
X17439363Y11921683D02*
G02X17439363Y11945743I00019811J00012030D01*
G01Y11921683D01*
G37*
G36*
X17432363Y11717267D02*
Y12100172D01*
X17435729D01*
Y11717267D01*
X17432363D01*
G37*
G36*
X17439363Y11971696D02*
G02X17439363Y11995756I00019811J00012030D01*
G01Y11971696D01*
G37*
G36*
X17432363Y11717267D02*
Y12100172D01*
X17435729D01*
Y11717267D01*
X17432363D01*
G37*
G36*
X17439363Y12021683D02*
G02X17439363Y12045743I00019811J00012030D01*
G01Y12021683D01*
G37*
G36*
X17432363Y11717267D02*
Y12100172D01*
X17435729D01*
Y11717267D01*
X17432363D01*
G37*
G36*
X17439363Y12071696D02*
G02X17439363Y12095756I00019811J00012030D01*
G01Y12071696D01*
G37*
G54D88*
X17468208Y15096292D02*
X17426948D01*
Y14997575D02*
X17468208D01*
X17618221Y15096292D02*
X17576961D01*
X17394289Y12181479D02*
Y12120947D01*
X17344289Y12181415D02*
Y12121012D01*
X17244290Y12181415D02*
Y12121012D01*
X17194290Y12181479D02*
Y12120947D01*
X17144290Y12181415D02*
Y12121012D01*
X17094290Y12181479D02*
Y12120947D01*
X17094290Y11635934D02*
Y11696466D01*
X17144290Y11635999D02*
Y11696402D01*
X17194290Y11635934D02*
Y11696466D01*
X17244289Y11635999D02*
Y11696402D01*
X17294289Y11635934D02*
Y11696466D01*
X17344289Y11635999D02*
Y11696402D01*
X17394289Y11635934D02*
Y11696466D01*
X16971582Y12058719D02*
X17031984D01*
X16971517Y12008719D02*
X17032049D01*
X16971582Y11958719D02*
X17031984D01*
X16971582Y11908707D02*
X17031984D01*
X16971517Y11858707D02*
X17032049D01*
X16971582Y11808707D02*
X17031984D01*
X16971517Y11758707D02*
X17032049D01*
X17517062D02*
X17456530D01*
X17516997Y11808707D02*
X17456595D01*
X17517062Y11858707D02*
X17456530D01*
X17516997Y11908707D02*
X17456595D01*
X17517062Y12008719D02*
X17456530D01*
X17516997Y12058719D02*
X17456595D01*
G54D89*
X14723520Y11889714D02*
X14704764Y11898781D01*
G54D90*
X16378972Y11561665D02*
X16388492Y11573391D01*
G54D89*
X17618811Y12329479D02*
X17619613Y12311260D01*
G54D91*
X17619344Y12391093D02*
Y12312146D01*
G54D92*
X17617071Y12215592D02*
X17627963Y12210345D01*
G54D91*
X17619344Y12291093D02*
Y12212146D01*
G54D92*
X17446749Y12304317D02*
X17453720Y12311289D01*
G54D93*
X17033719Y11421646D02*
X17042959Y11412406D01*
G54D94*
X16835306Y11745789D02*
X16839642Y11750540D01*
G54D95*
X16830926Y11744981D02*
X16840357Y11751524D01*
G54D96*
X16834428Y11745576D02*
X16839896Y11751041D01*
X16835021Y11834583D02*
X16839755Y11839821D01*
G54D89*
X16836839Y11834903D02*
X16839012Y11839013D01*
G54D92*
X16831591Y11834132D02*
X16840175Y11839846D01*
G54D96*
X16834419Y11834472D02*
X16839899Y11839953D01*
G54D97*
X17111690Y13948681D02*
Y13880383D01*
Y13948681D02*
Y13880383D01*
X17210830Y13948271D02*
X17289103D01*
X17210830D02*
X17289103D01*
X17111690Y13687061D02*
Y13618763D01*
Y13687061D02*
Y13618763D01*
Y13687061D02*
Y13618763D01*
G54D92*
X17208807Y13682855D02*
X17220469Y13689424D01*
X17208807Y13682855D02*
X17220469Y13689424D01*
G54D98*
X10162047Y15199135D02*
Y14741888D01*
G54D99*
X11746410Y11627895D02*
X12033554D01*
G54D100*
X11029860Y13612203D02*
Y13609547D01*
G54D89*
X11194041Y13993074D02*
X11243760Y13943354D01*
X11193983Y13993016D02*
X11243703Y13943297D01*
X11194041Y13993074D02*
X11243760Y13943354D01*
G54D98*
X16964783Y12055266D02*
X17038784D01*
X16964783D02*
X17038784D01*
X16964783D02*
X17038784D01*
G54D99*
X17535737Y11893809D02*
Y11873592D01*
G54D88*
X17294302Y12181415D02*
Y12121012D01*
G54D101*
X11140911Y14153673D03*
X11243070Y14236071D03*
X11504283Y13474350D03*
X11182237Y13957280D03*
X11248937Y14022685D03*
X11745202Y13847908D03*
G54D102*
X09353527Y14590154D02*
Y14499051D01*
Y11510150D02*
Y11419047D01*
X18466459Y14590154D02*
Y14499051D01*
X18289835Y14413530D02*
X18380938D01*
G36*
X11734072Y13857699D02*
Y13872954D01*
X11758667D01*
Y13857699D01*
X11734072D01*
G37*
M02*
