G04 Layer_Color=128*
%FSLAX25Y25*%
%MOIN*%
G70*
G01*
G75*
%ADD10C,0.00200*%
D10*
X1400Y15500D02*
X2600D01*
X2000Y14900D02*
Y16100D01*
X1400Y23500D02*
X2600D01*
X2000Y22900D02*
Y24100D01*
X1400Y27500D02*
X2600D01*
X2000Y26900D02*
Y28100D01*
X1914Y63463D02*
X3114D01*
X2514Y62863D02*
Y64063D01*
X-15813Y76976D02*
X-14613D01*
X-15213Y76376D02*
Y77576D01*
X-15813Y73876D02*
X-14613D01*
X-15213Y73276D02*
Y74476D01*
X-15813Y70776D02*
X-14613D01*
X-15213Y70176D02*
Y71376D01*
X-15813Y61476D02*
X-14613D01*
X-15213Y60876D02*
Y62076D01*
X-15813Y64576D02*
X-14613D01*
X-15213Y63976D02*
Y65176D01*
X-15813Y67676D02*
X-14613D01*
X-15213Y67076D02*
Y68276D01*
X21187Y67676D02*
X22387D01*
X21787Y67076D02*
Y68276D01*
X21187Y64576D02*
X22387D01*
X21787Y63976D02*
Y65176D01*
X21187Y61476D02*
X22387D01*
X21787Y60876D02*
Y62076D01*
X21187Y70776D02*
X22387D01*
X21787Y70176D02*
Y71376D01*
X21187Y73876D02*
X22387D01*
X21787Y73276D02*
Y74476D01*
X21187Y76976D02*
X22387D01*
X21787Y76376D02*
Y77576D01*
X5150Y42500D02*
X6350D01*
X5750Y41900D02*
Y43100D01*
X23893Y50356D02*
X25093D01*
X24494Y49756D02*
Y50956D01*
X1400Y50000D02*
X2600D01*
X2000Y49400D02*
Y50600D01*
X1400Y19500D02*
X2600D01*
X2000Y18900D02*
Y20100D01*
X1400Y31500D02*
X2600D01*
X2000Y30900D02*
Y32100D01*
M02*
