G04 Layer_Color=65535*
%FSLAX25Y25*%
%MOIN*%
G70*
G01*
G75*
%ADD18C,0.00020*%
%ADD19C,0.00197*%
%ADD20C,0.00500*%
%ADD21C,0.00600*%
G36*
X7856Y47067D02*
X7874Y47065D01*
X7897Y47062D01*
X7923Y47058D01*
X7948Y47053D01*
X8008Y47037D01*
X8068Y47014D01*
X8098Y47000D01*
X8128Y46984D01*
X8156Y46963D01*
X8181Y46940D01*
X8184Y46938D01*
X8188Y46935D01*
X8193Y46926D01*
X8202Y46917D01*
X8214Y46905D01*
X8225Y46889D01*
X8237Y46873D01*
X8251Y46852D01*
X8274Y46808D01*
X8297Y46753D01*
X8306Y46725D01*
X8311Y46693D01*
X8315Y46661D01*
X8318Y46626D01*
Y46621D01*
Y46610D01*
X8315Y46591D01*
X8313Y46566D01*
X8309Y46538D01*
X8299Y46506D01*
X8290Y46471D01*
X8276Y46436D01*
X8274Y46432D01*
X8269Y46420D01*
X8260Y46402D01*
X8246Y46376D01*
X8228Y46349D01*
X8205Y46314D01*
X8177Y46279D01*
X8145Y46240D01*
X8140Y46235D01*
X8128Y46222D01*
X8117Y46210D01*
X8105Y46198D01*
X8091Y46185D01*
X8073Y46166D01*
X8054Y46148D01*
X8031Y46127D01*
X8008Y46104D01*
X7981Y46078D01*
X7950Y46053D01*
X7918Y46023D01*
X7881Y45993D01*
X7844Y45961D01*
X7842Y45958D01*
X7837Y45954D01*
X7828Y45947D01*
X7817Y45937D01*
X7803Y45924D01*
X7786Y45910D01*
X7750Y45880D01*
X7710Y45845D01*
X7673Y45810D01*
X7641Y45780D01*
X7627Y45769D01*
X7615Y45757D01*
X7613Y45755D01*
X7606Y45748D01*
X7597Y45739D01*
X7586Y45725D01*
X7574Y45709D01*
X7560Y45693D01*
X7532Y45653D01*
X8320D01*
Y45464D01*
X7260D01*
Y45466D01*
Y45476D01*
Y45489D01*
X7262Y45508D01*
X7264Y45529D01*
X7269Y45552D01*
X7274Y45575D01*
X7283Y45600D01*
Y45603D01*
X7285Y45605D01*
X7290Y45619D01*
X7299Y45640D01*
X7313Y45667D01*
X7331Y45700D01*
X7355Y45737D01*
X7380Y45774D01*
X7412Y45813D01*
Y45815D01*
X7417Y45817D01*
X7428Y45831D01*
X7449Y45852D01*
X7479Y45882D01*
X7514Y45917D01*
X7558Y45958D01*
X7611Y46005D01*
X7669Y46053D01*
X7671Y46055D01*
X7680Y46062D01*
X7694Y46074D01*
X7710Y46088D01*
X7731Y46106D01*
X7756Y46127D01*
X7782Y46150D01*
X7812Y46175D01*
X7870Y46231D01*
X7927Y46286D01*
X7955Y46314D01*
X7981Y46342D01*
X8004Y46367D01*
X8022Y46393D01*
Y46395D01*
X8027Y46397D01*
X8031Y46404D01*
X8036Y46413D01*
X8052Y46439D01*
X8071Y46469D01*
X8087Y46506D01*
X8103Y46545D01*
X8112Y46589D01*
X8117Y46630D01*
Y46633D01*
Y46635D01*
X8115Y46649D01*
X8112Y46672D01*
X8105Y46698D01*
X8096Y46730D01*
X8080Y46762D01*
X8059Y46795D01*
X8031Y46827D01*
X8027Y46831D01*
X8015Y46841D01*
X7999Y46852D01*
X7974Y46868D01*
X7941Y46882D01*
X7904Y46896D01*
X7860Y46905D01*
X7812Y46908D01*
X7798D01*
X7789Y46905D01*
X7761Y46903D01*
X7729Y46896D01*
X7694Y46887D01*
X7655Y46871D01*
X7618Y46850D01*
X7583Y46822D01*
X7579Y46818D01*
X7569Y46806D01*
X7555Y46788D01*
X7542Y46760D01*
X7525Y46727D01*
X7512Y46686D01*
X7502Y46640D01*
X7498Y46587D01*
X7297Y46607D01*
Y46610D01*
X7299Y46617D01*
Y46628D01*
X7301Y46644D01*
X7306Y46663D01*
X7311Y46684D01*
X7317Y46709D01*
X7324Y46734D01*
X7343Y46790D01*
X7371Y46845D01*
X7387Y46873D01*
X7408Y46901D01*
X7428Y46926D01*
X7451Y46949D01*
X7454Y46952D01*
X7458Y46954D01*
X7465Y46961D01*
X7477Y46968D01*
X7491Y46977D01*
X7507Y46986D01*
X7525Y46998D01*
X7548Y47009D01*
X7574Y47021D01*
X7602Y47032D01*
X7632Y47042D01*
X7664Y47051D01*
X7699Y47058D01*
X7736Y47065D01*
X7775Y47067D01*
X7817Y47069D01*
X7840D01*
X7856Y47067D01*
D02*
G37*
G36*
X11288Y47060D02*
X11328Y47058D01*
X11369Y47056D01*
X11408Y47051D01*
X11443Y47046D01*
X11448D01*
X11464Y47042D01*
X11485Y47037D01*
X11513Y47030D01*
X11542Y47019D01*
X11575Y47005D01*
X11609Y46988D01*
X11639Y46970D01*
X11644Y46968D01*
X11653Y46961D01*
X11667Y46947D01*
X11686Y46931D01*
X11706Y46910D01*
X11727Y46882D01*
X11750Y46852D01*
X11769Y46818D01*
X11771Y46813D01*
X11776Y46801D01*
X11785Y46781D01*
X11794Y46753D01*
X11801Y46721D01*
X11811Y46684D01*
X11815Y46642D01*
X11817Y46598D01*
Y46596D01*
Y46589D01*
Y46580D01*
X11815Y46564D01*
X11813Y46547D01*
X11811Y46527D01*
X11806Y46503D01*
X11801Y46478D01*
X11785Y46425D01*
X11776Y46397D01*
X11762Y46367D01*
X11746Y46337D01*
X11730Y46309D01*
X11709Y46282D01*
X11686Y46254D01*
X11683Y46252D01*
X11679Y46247D01*
X11672Y46240D01*
X11660Y46233D01*
X11647Y46222D01*
X11628Y46210D01*
X11605Y46196D01*
X11580Y46185D01*
X11549Y46171D01*
X11515Y46157D01*
X11478Y46145D01*
X11434Y46136D01*
X11388Y46127D01*
X11337Y46120D01*
X11279Y46115D01*
X11219Y46113D01*
X10810D01*
Y45464D01*
X10598D01*
Y47062D01*
X11254D01*
X11288Y47060D01*
D02*
G37*
G36*
X3056Y45464D02*
X2859D01*
Y46714D01*
X2857Y46711D01*
X2845Y46702D01*
X2832Y46688D01*
X2808Y46672D01*
X2783Y46651D01*
X2751Y46628D01*
X2714Y46603D01*
X2672Y46577D01*
X2670D01*
X2668Y46575D01*
X2654Y46566D01*
X2630Y46554D01*
X2603Y46540D01*
X2571Y46524D01*
X2536Y46508D01*
X2501Y46492D01*
X2466Y46478D01*
Y46667D01*
X2469D01*
X2473Y46672D01*
X2483Y46674D01*
X2494Y46681D01*
X2508Y46688D01*
X2524Y46698D01*
X2564Y46721D01*
X2610Y46746D01*
X2656Y46778D01*
X2705Y46815D01*
X2753Y46854D01*
X2755Y46857D01*
X2758Y46859D01*
X2764Y46866D01*
X2774Y46873D01*
X2795Y46896D01*
X2822Y46924D01*
X2850Y46956D01*
X2880Y46993D01*
X2905Y47030D01*
X2929Y47069D01*
X3056D01*
Y45464D01*
D02*
G37*
G36*
X-1003D02*
X-1243D01*
X-1430Y45949D01*
X-2100D01*
X-2274Y45464D01*
X-2498D01*
X-1888Y47062D01*
X-1657D01*
X-1003Y45464D01*
D02*
G37*
G36*
X399Y47067D02*
X418Y47065D01*
X441Y47062D01*
X466Y47058D01*
X491Y47053D01*
X551Y47037D01*
X612Y47014D01*
X642Y47000D01*
X672Y46984D01*
X699Y46963D01*
X725Y46940D01*
X727Y46938D01*
X732Y46935D01*
X736Y46926D01*
X746Y46917D01*
X757Y46905D01*
X769Y46889D01*
X780Y46873D01*
X794Y46852D01*
X817Y46808D01*
X840Y46753D01*
X850Y46725D01*
X854Y46693D01*
X859Y46661D01*
X861Y46626D01*
Y46621D01*
Y46610D01*
X859Y46591D01*
X857Y46566D01*
X852Y46538D01*
X843Y46506D01*
X833Y46471D01*
X819Y46436D01*
X817Y46432D01*
X813Y46420D01*
X803Y46402D01*
X790Y46376D01*
X771Y46349D01*
X748Y46314D01*
X720Y46279D01*
X688Y46240D01*
X683Y46235D01*
X672Y46222D01*
X660Y46210D01*
X649Y46198D01*
X635Y46185D01*
X616Y46166D01*
X598Y46148D01*
X575Y46127D01*
X551Y46104D01*
X524Y46078D01*
X494Y46053D01*
X461Y46023D01*
X424Y45993D01*
X387Y45961D01*
X385Y45958D01*
X381Y45954D01*
X371Y45947D01*
X360Y45937D01*
X346Y45924D01*
X330Y45910D01*
X293Y45880D01*
X253Y45845D01*
X217Y45810D01*
X184Y45780D01*
X170Y45769D01*
X159Y45757D01*
X157Y45755D01*
X150Y45748D01*
X140Y45739D01*
X129Y45725D01*
X117Y45709D01*
X103Y45693D01*
X76Y45653D01*
X863D01*
Y45464D01*
X-197D01*
Y45466D01*
Y45476D01*
Y45489D01*
X-195Y45508D01*
X-192Y45529D01*
X-188Y45552D01*
X-183Y45575D01*
X-174Y45600D01*
Y45603D01*
X-172Y45605D01*
X-167Y45619D01*
X-158Y45640D01*
X-144Y45667D01*
X-125Y45700D01*
X-102Y45737D01*
X-77Y45774D01*
X-44Y45813D01*
Y45815D01*
X-40Y45817D01*
X-28Y45831D01*
X-8Y45852D01*
X23Y45882D01*
X57Y45917D01*
X101Y45958D01*
X154Y46005D01*
X212Y46053D01*
X214Y46055D01*
X224Y46062D01*
X237Y46074D01*
X253Y46088D01*
X274Y46106D01*
X300Y46127D01*
X325Y46150D01*
X355Y46175D01*
X413Y46231D01*
X471Y46286D01*
X498Y46314D01*
X524Y46342D01*
X547Y46367D01*
X565Y46393D01*
Y46395D01*
X570Y46397D01*
X575Y46404D01*
X579Y46413D01*
X595Y46439D01*
X614Y46469D01*
X630Y46506D01*
X646Y46545D01*
X655Y46589D01*
X660Y46630D01*
Y46633D01*
Y46635D01*
X658Y46649D01*
X655Y46672D01*
X649Y46698D01*
X639Y46730D01*
X623Y46762D01*
X602Y46795D01*
X575Y46827D01*
X570Y46831D01*
X558Y46841D01*
X542Y46852D01*
X517Y46868D01*
X485Y46882D01*
X448Y46896D01*
X404Y46905D01*
X355Y46908D01*
X341D01*
X332Y46905D01*
X304Y46903D01*
X272Y46896D01*
X237Y46887D01*
X198Y46871D01*
X161Y46850D01*
X126Y46822D01*
X122Y46818D01*
X113Y46806D01*
X99Y46788D01*
X85Y46760D01*
X69Y46727D01*
X55Y46686D01*
X46Y46640D01*
X41Y46587D01*
X-160Y46607D01*
Y46610D01*
X-158Y46617D01*
Y46628D01*
X-155Y46644D01*
X-151Y46663D01*
X-146Y46684D01*
X-139Y46709D01*
X-132Y46734D01*
X-114Y46790D01*
X-86Y46845D01*
X-70Y46873D01*
X-49Y46901D01*
X-28Y46926D01*
X-5Y46949D01*
X-3Y46952D01*
X2Y46954D01*
X9Y46961D01*
X20Y46968D01*
X34Y46977D01*
X50Y46986D01*
X69Y46998D01*
X92Y47009D01*
X117Y47021D01*
X145Y47032D01*
X175Y47042D01*
X207Y47051D01*
X242Y47058D01*
X279Y47065D01*
X318Y47067D01*
X360Y47069D01*
X383D01*
X399Y47067D01*
D02*
G37*
G36*
X12746Y45464D02*
X12550D01*
Y46714D01*
X12547Y46711D01*
X12536Y46702D01*
X12522Y46688D01*
X12499Y46672D01*
X12473Y46651D01*
X12441Y46628D01*
X12404Y46603D01*
X12363Y46577D01*
X12360D01*
X12358Y46575D01*
X12344Y46566D01*
X12321Y46554D01*
X12293Y46540D01*
X12261Y46524D01*
X12226Y46508D01*
X12192Y46492D01*
X12157Y46478D01*
Y46667D01*
X12159D01*
X12164Y46672D01*
X12173Y46674D01*
X12185Y46681D01*
X12199Y46688D01*
X12215Y46698D01*
X12254Y46721D01*
X12300Y46746D01*
X12346Y46778D01*
X12395Y46815D01*
X12443Y46854D01*
X12446Y46857D01*
X12448Y46859D01*
X12455Y46866D01*
X12464Y46873D01*
X12485Y46896D01*
X12513Y46924D01*
X12540Y46956D01*
X12571Y46993D01*
X12596Y47030D01*
X12619Y47069D01*
X12746D01*
Y45464D01*
D02*
G37*
G36*
X10357Y45944D02*
X9750D01*
Y46141D01*
X10357D01*
Y45944D01*
D02*
G37*
G36*
X-7175Y46413D02*
X-6476Y45464D01*
X-6755D01*
X-7323Y46270D01*
X-7584Y46018D01*
Y45464D01*
X-7797D01*
Y47062D01*
X-7584D01*
Y46268D01*
X-6794Y47062D01*
X-6505D01*
X-7175Y46413D01*
D02*
G37*
G36*
X-329Y45944D02*
X-936D01*
Y46141D01*
X-329D01*
Y45944D01*
D02*
G37*
G36*
X-3904Y46854D02*
X-4544D01*
X-4630Y46423D01*
X-4628Y46425D01*
X-4623Y46427D01*
X-4616Y46432D01*
X-4604Y46439D01*
X-4591Y46446D01*
X-4574Y46455D01*
X-4537Y46473D01*
X-4491Y46492D01*
X-4440Y46508D01*
X-4385Y46520D01*
X-4357Y46524D01*
X-4306D01*
X-4293Y46522D01*
X-4274Y46520D01*
X-4253Y46517D01*
X-4230Y46513D01*
X-4205Y46506D01*
X-4149Y46490D01*
X-4119Y46478D01*
X-4089Y46462D01*
X-4059Y46446D01*
X-4029Y46427D01*
X-4002Y46404D01*
X-3974Y46379D01*
X-3971Y46376D01*
X-3967Y46372D01*
X-3960Y46365D01*
X-3951Y46353D01*
X-3939Y46337D01*
X-3928Y46321D01*
X-3914Y46300D01*
X-3900Y46277D01*
X-3888Y46252D01*
X-3874Y46224D01*
X-3863Y46192D01*
X-3851Y46159D01*
X-3842Y46125D01*
X-3835Y46085D01*
X-3830Y46046D01*
X-3828Y46005D01*
Y46002D01*
Y45995D01*
Y45984D01*
X-3830Y45968D01*
X-3833Y45949D01*
X-3835Y45928D01*
X-3840Y45903D01*
X-3844Y45877D01*
X-3858Y45817D01*
X-3881Y45755D01*
X-3895Y45723D01*
X-3914Y45693D01*
X-3932Y45660D01*
X-3955Y45630D01*
X-3958Y45628D01*
X-3962Y45621D01*
X-3971Y45612D01*
X-3983Y45600D01*
X-3999Y45586D01*
X-4018Y45568D01*
X-4041Y45552D01*
X-4066Y45533D01*
X-4094Y45515D01*
X-4126Y45499D01*
X-4161Y45482D01*
X-4198Y45466D01*
X-4237Y45455D01*
X-4281Y45445D01*
X-4327Y45439D01*
X-4376Y45436D01*
X-4397D01*
X-4413Y45439D01*
X-4431Y45441D01*
X-4452Y45443D01*
X-4477Y45445D01*
X-4503Y45452D01*
X-4561Y45466D01*
X-4618Y45487D01*
X-4648Y45501D01*
X-4678Y45517D01*
X-4706Y45535D01*
X-4734Y45556D01*
X-4736Y45559D01*
X-4741Y45561D01*
X-4745Y45570D01*
X-4755Y45579D01*
X-4766Y45591D01*
X-4778Y45605D01*
X-4792Y45623D01*
X-4803Y45644D01*
X-4817Y45665D01*
X-4831Y45690D01*
X-4856Y45746D01*
X-4877Y45810D01*
X-4884Y45845D01*
X-4888Y45882D01*
X-4683Y45898D01*
Y45896D01*
Y45891D01*
X-4681Y45884D01*
X-4678Y45873D01*
X-4671Y45847D01*
X-4662Y45813D01*
X-4648Y45778D01*
X-4630Y45739D01*
X-4607Y45704D01*
X-4579Y45672D01*
X-4574Y45669D01*
X-4565Y45660D01*
X-4547Y45649D01*
X-4521Y45635D01*
X-4493Y45621D01*
X-4459Y45609D01*
X-4420Y45600D01*
X-4376Y45598D01*
X-4362D01*
X-4353Y45600D01*
X-4325Y45603D01*
X-4293Y45612D01*
X-4253Y45623D01*
X-4214Y45642D01*
X-4172Y45669D01*
X-4154Y45686D01*
X-4135Y45704D01*
X-4133Y45706D01*
X-4131Y45709D01*
X-4126Y45716D01*
X-4119Y45723D01*
X-4103Y45748D01*
X-4085Y45780D01*
X-4069Y45820D01*
X-4052Y45868D01*
X-4041Y45926D01*
X-4036Y45956D01*
Y45988D01*
Y45991D01*
Y45995D01*
Y46005D01*
X-4038Y46016D01*
Y46030D01*
X-4041Y46046D01*
X-4048Y46083D01*
X-4059Y46127D01*
X-4075Y46171D01*
X-4098Y46212D01*
X-4131Y46252D01*
Y46254D01*
X-4135Y46256D01*
X-4147Y46268D01*
X-4168Y46284D01*
X-4196Y46302D01*
X-4233Y46319D01*
X-4274Y46335D01*
X-4323Y46346D01*
X-4350Y46351D01*
X-4394D01*
X-4413Y46349D01*
X-4436Y46346D01*
X-4464Y46339D01*
X-4491Y46332D01*
X-4521Y46321D01*
X-4551Y46307D01*
X-4554Y46305D01*
X-4563Y46300D01*
X-4577Y46289D01*
X-4595Y46277D01*
X-4614Y46261D01*
X-4632Y46240D01*
X-4653Y46219D01*
X-4669Y46194D01*
X-4854Y46219D01*
X-4699Y47042D01*
X-3904D01*
Y46854D01*
D02*
G37*
G36*
X-9633Y45464D02*
X-9853D01*
X-10689Y46718D01*
Y45464D01*
X-10892D01*
Y47062D01*
X-10675D01*
X-9837Y45806D01*
Y47062D01*
X-9633D01*
Y45464D01*
D02*
G37*
G36*
X1642Y47067D02*
X1672Y47062D01*
X1706Y47056D01*
X1743Y47046D01*
X1783Y47035D01*
X1820Y47016D01*
X1822D01*
X1824Y47014D01*
X1836Y47007D01*
X1854Y46995D01*
X1877Y46979D01*
X1903Y46956D01*
X1931Y46931D01*
X1956Y46901D01*
X1981Y46866D01*
X1984Y46861D01*
X1993Y46850D01*
X2002Y46829D01*
X2018Y46799D01*
X2032Y46764D01*
X2051Y46725D01*
X2067Y46679D01*
X2081Y46628D01*
Y46626D01*
X2083Y46621D01*
X2085Y46614D01*
X2088Y46603D01*
X2090Y46589D01*
X2092Y46573D01*
X2097Y46552D01*
X2099Y46529D01*
X2104Y46503D01*
X2106Y46476D01*
X2108Y46443D01*
X2113Y46411D01*
X2115Y46374D01*
Y46337D01*
X2118Y46295D01*
Y46252D01*
Y46249D01*
Y46240D01*
Y46224D01*
Y46205D01*
X2115Y46180D01*
Y46152D01*
X2113Y46122D01*
X2111Y46090D01*
X2104Y46016D01*
X2092Y45940D01*
X2079Y45866D01*
X2069Y45831D01*
X2058Y45797D01*
Y45794D01*
X2055Y45790D01*
X2051Y45780D01*
X2046Y45769D01*
X2042Y45753D01*
X2032Y45737D01*
X2014Y45697D01*
X1991Y45656D01*
X1961Y45609D01*
X1926Y45568D01*
X1884Y45529D01*
X1882D01*
X1880Y45524D01*
X1873Y45519D01*
X1864Y45515D01*
X1852Y45508D01*
X1840Y45499D01*
X1806Y45482D01*
X1764Y45466D01*
X1716Y45450D01*
X1658Y45441D01*
X1596Y45436D01*
X1573D01*
X1556Y45439D01*
X1538Y45441D01*
X1515Y45445D01*
X1489Y45450D01*
X1462Y45457D01*
X1434Y45466D01*
X1404Y45476D01*
X1374Y45489D01*
X1344Y45505D01*
X1314Y45524D01*
X1284Y45547D01*
X1256Y45573D01*
X1231Y45600D01*
X1228Y45603D01*
X1224Y45609D01*
X1217Y45621D01*
X1205Y45640D01*
X1194Y45660D01*
X1182Y45688D01*
X1166Y45720D01*
X1152Y45757D01*
X1138Y45799D01*
X1124Y45847D01*
X1111Y45900D01*
X1099Y45961D01*
X1087Y46025D01*
X1080Y46095D01*
X1076Y46171D01*
X1074Y46252D01*
Y46254D01*
Y46263D01*
Y46279D01*
Y46298D01*
X1076Y46323D01*
Y46351D01*
X1078Y46381D01*
X1080Y46416D01*
X1087Y46487D01*
X1099Y46564D01*
X1113Y46640D01*
X1122Y46674D01*
X1131Y46709D01*
Y46711D01*
X1134Y46716D01*
X1138Y46725D01*
X1143Y46737D01*
X1147Y46753D01*
X1157Y46769D01*
X1175Y46808D01*
X1198Y46850D01*
X1228Y46894D01*
X1263Y46938D01*
X1305Y46975D01*
X1307D01*
X1309Y46979D01*
X1316Y46984D01*
X1325Y46988D01*
X1337Y46998D01*
X1351Y47005D01*
X1385Y47023D01*
X1427Y47039D01*
X1476Y47056D01*
X1533Y47065D01*
X1596Y47069D01*
X1616D01*
X1642Y47067D01*
D02*
G37*
G36*
X5370D02*
X5400Y47062D01*
X5435Y47056D01*
X5472Y47046D01*
X5511Y47035D01*
X5548Y47016D01*
X5550D01*
X5553Y47014D01*
X5564Y47007D01*
X5583Y46995D01*
X5606Y46979D01*
X5631Y46956D01*
X5659Y46931D01*
X5684Y46901D01*
X5710Y46866D01*
X5712Y46861D01*
X5721Y46850D01*
X5731Y46829D01*
X5747Y46799D01*
X5761Y46764D01*
X5779Y46725D01*
X5795Y46679D01*
X5809Y46628D01*
Y46626D01*
X5811Y46621D01*
X5814Y46614D01*
X5816Y46603D01*
X5818Y46589D01*
X5821Y46573D01*
X5825Y46552D01*
X5828Y46529D01*
X5832Y46503D01*
X5835Y46476D01*
X5837Y46443D01*
X5841Y46411D01*
X5844Y46374D01*
Y46337D01*
X5846Y46295D01*
Y46252D01*
Y46249D01*
Y46240D01*
Y46224D01*
Y46205D01*
X5844Y46180D01*
Y46152D01*
X5841Y46122D01*
X5839Y46090D01*
X5832Y46016D01*
X5821Y45940D01*
X5807Y45866D01*
X5798Y45831D01*
X5786Y45797D01*
Y45794D01*
X5784Y45790D01*
X5779Y45780D01*
X5774Y45769D01*
X5770Y45753D01*
X5761Y45737D01*
X5742Y45697D01*
X5719Y45656D01*
X5689Y45609D01*
X5654Y45568D01*
X5613Y45529D01*
X5610D01*
X5608Y45524D01*
X5601Y45519D01*
X5592Y45515D01*
X5580Y45508D01*
X5569Y45499D01*
X5534Y45482D01*
X5493Y45466D01*
X5444Y45450D01*
X5386Y45441D01*
X5324Y45436D01*
X5301D01*
X5285Y45439D01*
X5266Y45441D01*
X5243Y45445D01*
X5218Y45450D01*
X5190Y45457D01*
X5162Y45466D01*
X5132Y45476D01*
X5102Y45489D01*
X5072Y45505D01*
X5042Y45524D01*
X5012Y45547D01*
X4984Y45573D01*
X4959Y45600D01*
X4957Y45603D01*
X4952Y45609D01*
X4945Y45621D01*
X4934Y45640D01*
X4922Y45660D01*
X4910Y45688D01*
X4894Y45720D01*
X4880Y45757D01*
X4867Y45799D01*
X4853Y45847D01*
X4839Y45900D01*
X4827Y45961D01*
X4816Y46025D01*
X4809Y46095D01*
X4804Y46171D01*
X4802Y46252D01*
Y46254D01*
Y46263D01*
Y46279D01*
Y46298D01*
X4804Y46323D01*
Y46351D01*
X4807Y46381D01*
X4809Y46416D01*
X4816Y46487D01*
X4827Y46564D01*
X4841Y46640D01*
X4851Y46674D01*
X4860Y46709D01*
Y46711D01*
X4862Y46716D01*
X4867Y46725D01*
X4871Y46737D01*
X4876Y46753D01*
X4885Y46769D01*
X4904Y46808D01*
X4927Y46850D01*
X4957Y46894D01*
X4991Y46938D01*
X5033Y46975D01*
X5035D01*
X5038Y46979D01*
X5045Y46984D01*
X5054Y46988D01*
X5065Y46998D01*
X5079Y47005D01*
X5114Y47023D01*
X5155Y47039D01*
X5204Y47056D01*
X5262Y47065D01*
X5324Y47069D01*
X5345D01*
X5370Y47067D01*
D02*
G37*
G36*
X-3077D02*
X-3047Y47062D01*
X-3013Y47056D01*
X-2976Y47046D01*
X-2937Y47035D01*
X-2900Y47016D01*
X-2897D01*
X-2895Y47014D01*
X-2883Y47007D01*
X-2865Y46995D01*
X-2842Y46979D01*
X-2816Y46956D01*
X-2789Y46931D01*
X-2763Y46901D01*
X-2738Y46866D01*
X-2736Y46861D01*
X-2726Y46850D01*
X-2717Y46829D01*
X-2701Y46799D01*
X-2687Y46764D01*
X-2669Y46725D01*
X-2652Y46679D01*
X-2639Y46628D01*
Y46626D01*
X-2636Y46621D01*
X-2634Y46614D01*
X-2632Y46603D01*
X-2629Y46589D01*
X-2627Y46573D01*
X-2622Y46552D01*
X-2620Y46529D01*
X-2616Y46503D01*
X-2613Y46476D01*
X-2611Y46443D01*
X-2606Y46411D01*
X-2604Y46374D01*
Y46337D01*
X-2602Y46295D01*
Y46252D01*
Y46249D01*
Y46240D01*
Y46224D01*
Y46205D01*
X-2604Y46180D01*
Y46152D01*
X-2606Y46122D01*
X-2609Y46090D01*
X-2616Y46016D01*
X-2627Y45940D01*
X-2641Y45866D01*
X-2650Y45831D01*
X-2662Y45797D01*
Y45794D01*
X-2664Y45790D01*
X-2669Y45780D01*
X-2673Y45769D01*
X-2678Y45753D01*
X-2687Y45737D01*
X-2706Y45697D01*
X-2729Y45656D01*
X-2759Y45609D01*
X-2793Y45568D01*
X-2835Y45529D01*
X-2837D01*
X-2840Y45524D01*
X-2847Y45519D01*
X-2856Y45515D01*
X-2867Y45508D01*
X-2879Y45499D01*
X-2913Y45482D01*
X-2955Y45466D01*
X-3004Y45450D01*
X-3061Y45441D01*
X-3124Y45436D01*
X-3147D01*
X-3163Y45439D01*
X-3181Y45441D01*
X-3204Y45445D01*
X-3230Y45450D01*
X-3258Y45457D01*
X-3285Y45466D01*
X-3315Y45476D01*
X-3345Y45489D01*
X-3376Y45505D01*
X-3405Y45524D01*
X-3435Y45547D01*
X-3463Y45573D01*
X-3489Y45600D01*
X-3491Y45603D01*
X-3496Y45609D01*
X-3503Y45621D01*
X-3514Y45640D01*
X-3526Y45660D01*
X-3537Y45688D01*
X-3553Y45720D01*
X-3567Y45757D01*
X-3581Y45799D01*
X-3595Y45847D01*
X-3609Y45900D01*
X-3620Y45961D01*
X-3632Y46025D01*
X-3639Y46095D01*
X-3643Y46171D01*
X-3646Y46252D01*
Y46254D01*
Y46263D01*
Y46279D01*
Y46298D01*
X-3643Y46323D01*
Y46351D01*
X-3641Y46381D01*
X-3639Y46416D01*
X-3632Y46487D01*
X-3620Y46564D01*
X-3607Y46640D01*
X-3597Y46674D01*
X-3588Y46709D01*
Y46711D01*
X-3586Y46716D01*
X-3581Y46725D01*
X-3576Y46737D01*
X-3572Y46753D01*
X-3563Y46769D01*
X-3544Y46808D01*
X-3521Y46850D01*
X-3491Y46894D01*
X-3456Y46938D01*
X-3415Y46975D01*
X-3412D01*
X-3410Y46979D01*
X-3403Y46984D01*
X-3394Y46988D01*
X-3382Y46998D01*
X-3368Y47005D01*
X-3334Y47023D01*
X-3292Y47039D01*
X-3244Y47056D01*
X-3186Y47065D01*
X-3124Y47069D01*
X-3103D01*
X-3077Y47067D01*
D02*
G37*
G36*
X-2496Y44355D02*
X-3136D01*
X-3221Y43923D01*
X-3219Y43925D01*
X-3214Y43927D01*
X-3207Y43932D01*
X-3196Y43939D01*
X-3182Y43946D01*
X-3166Y43955D01*
X-3129Y43973D01*
X-3083Y43992D01*
X-3032Y44008D01*
X-2977Y44020D01*
X-2949Y44024D01*
X-2898D01*
X-2884Y44022D01*
X-2866Y44020D01*
X-2845Y44017D01*
X-2822Y44013D01*
X-2796Y44006D01*
X-2741Y43990D01*
X-2711Y43978D01*
X-2681Y43962D01*
X-2651Y43946D01*
X-2621Y43927D01*
X-2593Y43904D01*
X-2565Y43879D01*
X-2563Y43876D01*
X-2558Y43872D01*
X-2551Y43865D01*
X-2542Y43853D01*
X-2531Y43837D01*
X-2519Y43821D01*
X-2505Y43800D01*
X-2491Y43777D01*
X-2480Y43752D01*
X-2466Y43724D01*
X-2454Y43692D01*
X-2443Y43659D01*
X-2434Y43625D01*
X-2427Y43585D01*
X-2422Y43546D01*
X-2420Y43505D01*
Y43502D01*
Y43495D01*
Y43484D01*
X-2422Y43468D01*
X-2424Y43449D01*
X-2427Y43428D01*
X-2431Y43403D01*
X-2436Y43377D01*
X-2450Y43317D01*
X-2473Y43255D01*
X-2487Y43223D01*
X-2505Y43193D01*
X-2524Y43160D01*
X-2547Y43130D01*
X-2549Y43128D01*
X-2554Y43121D01*
X-2563Y43112D01*
X-2575Y43100D01*
X-2591Y43086D01*
X-2609Y43068D01*
X-2632Y43052D01*
X-2658Y43033D01*
X-2685Y43015D01*
X-2718Y42999D01*
X-2752Y42982D01*
X-2789Y42966D01*
X-2829Y42955D01*
X-2873Y42945D01*
X-2919Y42939D01*
X-2967Y42936D01*
X-2988D01*
X-3004Y42939D01*
X-3023Y42941D01*
X-3043Y42943D01*
X-3069Y42945D01*
X-3094Y42952D01*
X-3152Y42966D01*
X-3210Y42987D01*
X-3240Y43001D01*
X-3270Y43017D01*
X-3298Y43036D01*
X-3325Y43056D01*
X-3328Y43059D01*
X-3332Y43061D01*
X-3337Y43070D01*
X-3346Y43079D01*
X-3358Y43091D01*
X-3369Y43105D01*
X-3383Y43123D01*
X-3395Y43144D01*
X-3409Y43165D01*
X-3422Y43190D01*
X-3448Y43246D01*
X-3469Y43310D01*
X-3475Y43345D01*
X-3480Y43382D01*
X-3274Y43398D01*
Y43396D01*
Y43391D01*
X-3272Y43384D01*
X-3270Y43373D01*
X-3263Y43347D01*
X-3254Y43313D01*
X-3240Y43278D01*
X-3221Y43239D01*
X-3198Y43204D01*
X-3171Y43172D01*
X-3166Y43170D01*
X-3157Y43160D01*
X-3138Y43149D01*
X-3113Y43135D01*
X-3085Y43121D01*
X-3050Y43109D01*
X-3011Y43100D01*
X-2967Y43098D01*
X-2953D01*
X-2944Y43100D01*
X-2916Y43102D01*
X-2884Y43112D01*
X-2845Y43123D01*
X-2806Y43142D01*
X-2764Y43170D01*
X-2746Y43186D01*
X-2727Y43204D01*
X-2725Y43207D01*
X-2722Y43209D01*
X-2718Y43216D01*
X-2711Y43223D01*
X-2695Y43248D01*
X-2676Y43280D01*
X-2660Y43320D01*
X-2644Y43368D01*
X-2632Y43426D01*
X-2628Y43456D01*
Y43488D01*
Y43491D01*
Y43495D01*
Y43505D01*
X-2630Y43516D01*
Y43530D01*
X-2632Y43546D01*
X-2639Y43583D01*
X-2651Y43627D01*
X-2667Y43671D01*
X-2690Y43712D01*
X-2722Y43752D01*
Y43754D01*
X-2727Y43756D01*
X-2739Y43768D01*
X-2759Y43784D01*
X-2787Y43802D01*
X-2824Y43819D01*
X-2866Y43835D01*
X-2914Y43846D01*
X-2942Y43851D01*
X-2986D01*
X-3004Y43849D01*
X-3027Y43846D01*
X-3055Y43839D01*
X-3083Y43832D01*
X-3113Y43821D01*
X-3143Y43807D01*
X-3145Y43805D01*
X-3154Y43800D01*
X-3168Y43789D01*
X-3187Y43777D01*
X-3205Y43761D01*
X-3224Y43740D01*
X-3244Y43719D01*
X-3261Y43694D01*
X-3445Y43719D01*
X-3291Y44542D01*
X-2496D01*
Y44355D01*
D02*
G37*
G36*
X-4277Y43913D02*
X-3577Y42964D01*
X-3857D01*
X-4425Y43770D01*
X-4686Y43518D01*
Y42964D01*
X-4898D01*
Y44562D01*
X-4686D01*
Y43768D01*
X-3896Y44562D01*
X-3607D01*
X-4277Y43913D01*
D02*
G37*
G36*
X-17309Y45464D02*
X-17506D01*
Y46714D01*
X-17508Y46711D01*
X-17520Y46702D01*
X-17533Y46688D01*
X-17557Y46672D01*
X-17582Y46651D01*
X-17614Y46628D01*
X-17651Y46603D01*
X-17693Y46577D01*
X-17695D01*
X-17697Y46575D01*
X-17711Y46566D01*
X-17734Y46554D01*
X-17762Y46540D01*
X-17795Y46524D01*
X-17829Y46508D01*
X-17864Y46492D01*
X-17898Y46478D01*
Y46667D01*
X-17896D01*
X-17891Y46672D01*
X-17882Y46674D01*
X-17871Y46681D01*
X-17857Y46688D01*
X-17841Y46698D01*
X-17801Y46721D01*
X-17755Y46746D01*
X-17709Y46778D01*
X-17661Y46815D01*
X-17612Y46854D01*
X-17610Y46857D01*
X-17607Y46859D01*
X-17600Y46866D01*
X-17591Y46873D01*
X-17570Y46896D01*
X-17543Y46924D01*
X-17515Y46956D01*
X-17485Y46993D01*
X-17459Y47030D01*
X-17436Y47069D01*
X-17309D01*
Y45464D01*
D02*
G37*
G36*
X-11061D02*
X-11301D01*
X-11488Y45949D01*
X-12158D01*
X-12331Y45464D01*
X-12555D01*
X-11946Y47062D01*
X-11715D01*
X-11061Y45464D01*
D02*
G37*
G36*
X-5662Y47060D02*
X-5644D01*
X-5602Y47056D01*
X-5556Y47051D01*
X-5508Y47042D01*
X-5459Y47030D01*
X-5415Y47014D01*
X-5413D01*
X-5411Y47012D01*
X-5397Y47005D01*
X-5376Y46993D01*
X-5353Y46977D01*
X-5325Y46956D01*
X-5295Y46931D01*
X-5267Y46898D01*
X-5242Y46864D01*
X-5240Y46859D01*
X-5233Y46845D01*
X-5221Y46827D01*
X-5210Y46799D01*
X-5198Y46767D01*
X-5187Y46732D01*
X-5180Y46693D01*
X-5177Y46654D01*
Y46649D01*
Y46637D01*
X-5180Y46617D01*
X-5184Y46591D01*
X-5191Y46561D01*
X-5203Y46529D01*
X-5217Y46496D01*
X-5235Y46462D01*
X-5237Y46457D01*
X-5244Y46448D01*
X-5258Y46429D01*
X-5277Y46411D01*
X-5300Y46388D01*
X-5327Y46363D01*
X-5362Y46339D01*
X-5401Y46316D01*
X-5399D01*
X-5394Y46314D01*
X-5387Y46312D01*
X-5378Y46307D01*
X-5350Y46298D01*
X-5318Y46282D01*
X-5283Y46261D01*
X-5244Y46235D01*
X-5210Y46205D01*
X-5177Y46169D01*
X-5175Y46164D01*
X-5166Y46150D01*
X-5152Y46129D01*
X-5138Y46101D01*
X-5124Y46064D01*
X-5110Y46025D01*
X-5101Y45979D01*
X-5099Y45928D01*
Y45926D01*
Y45924D01*
Y45910D01*
X-5101Y45887D01*
X-5106Y45859D01*
X-5110Y45827D01*
X-5119Y45792D01*
X-5131Y45755D01*
X-5147Y45718D01*
X-5150Y45713D01*
X-5156Y45702D01*
X-5166Y45686D01*
X-5180Y45663D01*
X-5198Y45640D01*
X-5217Y45614D01*
X-5240Y45589D01*
X-5265Y45568D01*
X-5267Y45566D01*
X-5277Y45559D01*
X-5293Y45549D01*
X-5314Y45540D01*
X-5339Y45526D01*
X-5369Y45512D01*
X-5401Y45501D01*
X-5441Y45489D01*
X-5445D01*
X-5459Y45485D01*
X-5482Y45482D01*
X-5512Y45478D01*
X-5549Y45473D01*
X-5593Y45469D01*
X-5642Y45466D01*
X-5697Y45464D01*
X-6307D01*
Y47062D01*
X-5678D01*
X-5662Y47060D01*
D02*
G37*
G36*
X-13230D02*
X-13209D01*
X-13161Y47058D01*
X-13110Y47051D01*
X-13054Y47044D01*
X-13003Y47032D01*
X-12978Y47025D01*
X-12957Y47019D01*
X-12955D01*
X-12953Y47016D01*
X-12939Y47009D01*
X-12918Y47000D01*
X-12893Y46984D01*
X-12865Y46963D01*
X-12835Y46935D01*
X-12807Y46903D01*
X-12779Y46866D01*
Y46864D01*
X-12777Y46861D01*
X-12768Y46848D01*
X-12759Y46824D01*
X-12745Y46795D01*
X-12733Y46760D01*
X-12722Y46718D01*
X-12715Y46674D01*
X-12712Y46626D01*
Y46624D01*
Y46619D01*
Y46610D01*
X-12715Y46598D01*
Y46582D01*
X-12717Y46566D01*
X-12726Y46527D01*
X-12740Y46480D01*
X-12759Y46432D01*
X-12786Y46383D01*
X-12805Y46360D01*
X-12823Y46337D01*
X-12826Y46335D01*
X-12828Y46332D01*
X-12835Y46325D01*
X-12844Y46319D01*
X-12856Y46309D01*
X-12870Y46300D01*
X-12888Y46289D01*
X-12907Y46275D01*
X-12930Y46263D01*
X-12955Y46252D01*
X-12983Y46238D01*
X-13013Y46226D01*
X-13047Y46217D01*
X-13082Y46205D01*
X-13121Y46198D01*
X-13163Y46192D01*
X-13158Y46189D01*
X-13149Y46185D01*
X-13135Y46175D01*
X-13117Y46166D01*
X-13075Y46141D01*
X-13054Y46125D01*
X-13036Y46111D01*
X-13031Y46106D01*
X-13020Y46095D01*
X-13001Y46076D01*
X-12978Y46053D01*
X-12953Y46021D01*
X-12923Y45986D01*
X-12893Y45944D01*
X-12860Y45898D01*
X-12585Y45464D01*
X-12849D01*
X-13059Y45797D01*
Y45799D01*
X-13064Y45803D01*
X-13068Y45810D01*
X-13075Y45820D01*
X-13091Y45845D01*
X-13112Y45877D01*
X-13137Y45912D01*
X-13163Y45949D01*
X-13188Y45984D01*
X-13211Y46016D01*
X-13214Y46018D01*
X-13221Y46028D01*
X-13232Y46041D01*
X-13248Y46058D01*
X-13283Y46092D01*
X-13302Y46108D01*
X-13320Y46122D01*
X-13322Y46125D01*
X-13327Y46127D01*
X-13336Y46132D01*
X-13350Y46138D01*
X-13364Y46145D01*
X-13380Y46152D01*
X-13417Y46164D01*
X-13419D01*
X-13424Y46166D01*
X-13433D01*
X-13445Y46169D01*
X-13461Y46171D01*
X-13479D01*
X-13505Y46173D01*
X-13777D01*
Y45464D01*
X-13990D01*
Y47062D01*
X-13248D01*
X-13230Y47060D01*
D02*
G37*
G36*
X-16067Y45464D02*
X-16263D01*
Y46714D01*
X-16265Y46711D01*
X-16277Y46702D01*
X-16291Y46688D01*
X-16314Y46672D01*
X-16339Y46651D01*
X-16372Y46628D01*
X-16409Y46603D01*
X-16450Y46577D01*
X-16452D01*
X-16455Y46575D01*
X-16468Y46566D01*
X-16492Y46554D01*
X-16519Y46540D01*
X-16552Y46524D01*
X-16586Y46508D01*
X-16621Y46492D01*
X-16656Y46478D01*
Y46667D01*
X-16653D01*
X-16649Y46672D01*
X-16639Y46674D01*
X-16628Y46681D01*
X-16614Y46688D01*
X-16598Y46698D01*
X-16559Y46721D01*
X-16512Y46746D01*
X-16466Y46778D01*
X-16418Y46815D01*
X-16369Y46854D01*
X-16367Y46857D01*
X-16365Y46859D01*
X-16358Y46866D01*
X-16348Y46873D01*
X-16328Y46896D01*
X-16300Y46924D01*
X-16272Y46956D01*
X-16242Y46993D01*
X-16217Y47030D01*
X-16194Y47069D01*
X-16067D01*
Y45464D01*
D02*
G37*
G36*
X-14847Y47060D02*
X-14828D01*
X-14787Y47056D01*
X-14741Y47051D01*
X-14692Y47042D01*
X-14644Y47030D01*
X-14600Y47014D01*
X-14597D01*
X-14595Y47012D01*
X-14581Y47005D01*
X-14560Y46993D01*
X-14537Y46977D01*
X-14510Y46956D01*
X-14480Y46931D01*
X-14452Y46898D01*
X-14426Y46864D01*
X-14424Y46859D01*
X-14417Y46845D01*
X-14406Y46827D01*
X-14394Y46799D01*
X-14383Y46767D01*
X-14371Y46732D01*
X-14364Y46693D01*
X-14362Y46654D01*
Y46649D01*
Y46637D01*
X-14364Y46617D01*
X-14369Y46591D01*
X-14376Y46561D01*
X-14387Y46529D01*
X-14401Y46496D01*
X-14420Y46462D01*
X-14422Y46457D01*
X-14429Y46448D01*
X-14443Y46429D01*
X-14461Y46411D01*
X-14484Y46388D01*
X-14512Y46363D01*
X-14547Y46339D01*
X-14586Y46316D01*
X-14584D01*
X-14579Y46314D01*
X-14572Y46312D01*
X-14563Y46307D01*
X-14535Y46298D01*
X-14503Y46282D01*
X-14468Y46261D01*
X-14429Y46235D01*
X-14394Y46205D01*
X-14362Y46169D01*
X-14359Y46164D01*
X-14350Y46150D01*
X-14336Y46129D01*
X-14323Y46101D01*
X-14309Y46064D01*
X-14295Y46025D01*
X-14286Y45979D01*
X-14283Y45928D01*
Y45926D01*
Y45924D01*
Y45910D01*
X-14286Y45887D01*
X-14290Y45859D01*
X-14295Y45827D01*
X-14304Y45792D01*
X-14316Y45755D01*
X-14332Y45718D01*
X-14334Y45713D01*
X-14341Y45702D01*
X-14350Y45686D01*
X-14364Y45663D01*
X-14383Y45640D01*
X-14401Y45614D01*
X-14424Y45589D01*
X-14450Y45568D01*
X-14452Y45566D01*
X-14461Y45559D01*
X-14477Y45549D01*
X-14498Y45540D01*
X-14524Y45526D01*
X-14554Y45512D01*
X-14586Y45501D01*
X-14625Y45489D01*
X-14630D01*
X-14644Y45485D01*
X-14667Y45482D01*
X-14697Y45478D01*
X-14734Y45473D01*
X-14778Y45469D01*
X-14826Y45466D01*
X-14882Y45464D01*
X-15491D01*
Y47062D01*
X-14863D01*
X-14847Y47060D01*
D02*
G37*
G36*
X-9502Y44147D02*
X-9467Y44144D01*
X-9428Y44140D01*
X-9388Y44133D01*
X-9349Y44124D01*
X-9312Y44112D01*
X-9307Y44110D01*
X-9296Y44105D01*
X-9280Y44098D01*
X-9259Y44089D01*
X-9236Y44075D01*
X-9213Y44061D01*
X-9192Y44043D01*
X-9174Y44024D01*
X-9171Y44022D01*
X-9167Y44015D01*
X-9160Y44003D01*
X-9150Y43990D01*
X-9139Y43969D01*
X-9130Y43948D01*
X-9120Y43923D01*
X-9114Y43892D01*
Y43890D01*
X-9111Y43883D01*
X-9109Y43869D01*
X-9107Y43851D01*
Y43826D01*
X-9104Y43795D01*
X-9102Y43756D01*
Y43712D01*
Y43449D01*
Y43447D01*
Y43437D01*
Y43424D01*
Y43405D01*
Y43384D01*
Y43359D01*
X-9100Y43303D01*
Y43246D01*
X-9097Y43188D01*
X-9095Y43163D01*
Y43139D01*
X-9093Y43119D01*
X-9090Y43102D01*
Y43100D01*
X-9088Y43091D01*
X-9086Y43077D01*
X-9079Y43059D01*
X-9074Y43038D01*
X-9065Y43015D01*
X-9053Y42989D01*
X-9042Y42964D01*
X-9247D01*
X-9250Y42966D01*
X-9252Y42976D01*
X-9257Y42987D01*
X-9264Y43005D01*
X-9271Y43026D01*
X-9275Y43052D01*
X-9280Y43079D01*
X-9284Y43109D01*
X-9287D01*
X-9289Y43105D01*
X-9303Y43093D01*
X-9324Y43077D01*
X-9351Y43056D01*
X-9386Y43036D01*
X-9421Y43012D01*
X-9458Y42992D01*
X-9497Y42976D01*
X-9502Y42973D01*
X-9515Y42971D01*
X-9536Y42964D01*
X-9562Y42957D01*
X-9594Y42950D01*
X-9631Y42945D01*
X-9673Y42941D01*
X-9714Y42939D01*
X-9733D01*
X-9746Y42941D01*
X-9763D01*
X-9781Y42943D01*
X-9823Y42950D01*
X-9869Y42962D01*
X-9920Y42978D01*
X-9966Y43001D01*
X-10007Y43031D01*
X-10012Y43036D01*
X-10024Y43047D01*
X-10040Y43068D01*
X-10058Y43096D01*
X-10077Y43130D01*
X-10093Y43170D01*
X-10104Y43218D01*
X-10107Y43241D01*
X-10109Y43269D01*
Y43273D01*
Y43283D01*
X-10107Y43299D01*
X-10104Y43320D01*
X-10100Y43345D01*
X-10093Y43371D01*
X-10084Y43398D01*
X-10072Y43424D01*
X-10070Y43426D01*
X-10065Y43435D01*
X-10056Y43449D01*
X-10044Y43465D01*
X-10031Y43484D01*
X-10012Y43502D01*
X-9994Y43521D01*
X-9971Y43537D01*
X-9968Y43539D01*
X-9959Y43544D01*
X-9947Y43553D01*
X-9929Y43562D01*
X-9908Y43571D01*
X-9883Y43583D01*
X-9857Y43592D01*
X-9827Y43602D01*
X-9825D01*
X-9816Y43604D01*
X-9802Y43608D01*
X-9783Y43611D01*
X-9760Y43615D01*
X-9730Y43620D01*
X-9696Y43627D01*
X-9654Y43632D01*
X-9652D01*
X-9642Y43634D01*
X-9631D01*
X-9615Y43636D01*
X-9596Y43638D01*
X-9573Y43643D01*
X-9548Y43645D01*
X-9520Y43650D01*
X-9465Y43661D01*
X-9405Y43673D01*
X-9351Y43687D01*
X-9326Y43694D01*
X-9303Y43701D01*
Y43703D01*
Y43708D01*
X-9301Y43722D01*
Y43738D01*
Y43747D01*
Y43752D01*
Y43754D01*
Y43756D01*
Y43770D01*
X-9303Y43793D01*
X-9307Y43819D01*
X-9314Y43846D01*
X-9326Y43874D01*
X-9340Y43900D01*
X-9358Y43920D01*
X-9361Y43923D01*
X-9372Y43932D01*
X-9391Y43941D01*
X-9414Y43955D01*
X-9446Y43966D01*
X-9483Y43978D01*
X-9529Y43985D01*
X-9582Y43987D01*
X-9606D01*
X-9629Y43985D01*
X-9661Y43980D01*
X-9693Y43976D01*
X-9728Y43966D01*
X-9760Y43955D01*
X-9788Y43939D01*
X-9790Y43936D01*
X-9800Y43929D01*
X-9811Y43918D01*
X-9825Y43900D01*
X-9839Y43876D01*
X-9855Y43846D01*
X-9869Y43809D01*
X-9883Y43768D01*
X-10074Y43793D01*
Y43795D01*
X-10072Y43798D01*
Y43805D01*
X-10070Y43814D01*
X-10063Y43835D01*
X-10054Y43865D01*
X-10042Y43895D01*
X-10028Y43927D01*
X-10010Y43960D01*
X-9989Y43990D01*
X-9987Y43992D01*
X-9977Y44001D01*
X-9964Y44015D01*
X-9945Y44033D01*
X-9920Y44052D01*
X-9890Y44070D01*
X-9855Y44091D01*
X-9816Y44107D01*
X-9813D01*
X-9811Y44110D01*
X-9804Y44112D01*
X-9795Y44114D01*
X-9772Y44121D01*
X-9740Y44128D01*
X-9702Y44135D01*
X-9656Y44142D01*
X-9608Y44147D01*
X-9552Y44149D01*
X-9527D01*
X-9502Y44147D01*
D02*
G37*
G36*
X-8372D02*
X-8337Y44144D01*
X-8300Y44140D01*
X-8261Y44131D01*
X-8219Y44121D01*
X-8180Y44107D01*
X-8178D01*
X-8176Y44105D01*
X-8164Y44100D01*
X-8146Y44091D01*
X-8123Y44080D01*
X-8097Y44063D01*
X-8072Y44045D01*
X-8049Y44024D01*
X-8028Y44001D01*
X-8026Y43999D01*
X-8021Y43990D01*
X-8012Y43973D01*
X-8000Y43955D01*
X-7988Y43927D01*
X-7977Y43897D01*
X-7968Y43863D01*
X-7959Y43823D01*
X-8150Y43798D01*
Y43802D01*
X-8152Y43812D01*
X-8157Y43828D01*
X-8164Y43849D01*
X-8176Y43869D01*
X-8190Y43892D01*
X-8206Y43916D01*
X-8229Y43936D01*
X-8231Y43939D01*
X-8240Y43943D01*
X-8254Y43953D01*
X-8275Y43962D01*
X-8298Y43971D01*
X-8328Y43980D01*
X-8365Y43985D01*
X-8404Y43987D01*
X-8427D01*
X-8450Y43985D01*
X-8481Y43983D01*
X-8511Y43976D01*
X-8543Y43969D01*
X-8573Y43957D01*
X-8598Y43941D01*
X-8601Y43939D01*
X-8608Y43934D01*
X-8617Y43925D01*
X-8626Y43911D01*
X-8638Y43897D01*
X-8647Y43879D01*
X-8654Y43858D01*
X-8656Y43837D01*
Y43835D01*
Y43830D01*
X-8654Y43823D01*
Y43814D01*
X-8647Y43791D01*
X-8633Y43768D01*
X-8631Y43766D01*
X-8628Y43763D01*
X-8624Y43756D01*
X-8614Y43749D01*
X-8605Y43742D01*
X-8591Y43733D01*
X-8575Y43726D01*
X-8557Y43717D01*
X-8555D01*
X-8550Y43715D01*
X-8541Y43712D01*
X-8524Y43705D01*
X-8501Y43698D01*
X-8471Y43692D01*
X-8453Y43685D01*
X-8432Y43680D01*
X-8409Y43673D01*
X-8383Y43666D01*
X-8381D01*
X-8374Y43664D01*
X-8363Y43661D01*
X-8349Y43657D01*
X-8333Y43652D01*
X-8312Y43648D01*
X-8268Y43634D01*
X-8219Y43620D01*
X-8171Y43604D01*
X-8127Y43588D01*
X-8109Y43581D01*
X-8093Y43574D01*
X-8088Y43571D01*
X-8079Y43567D01*
X-8065Y43560D01*
X-8044Y43548D01*
X-8023Y43534D01*
X-8002Y43516D01*
X-7982Y43495D01*
X-7963Y43472D01*
X-7961Y43470D01*
X-7956Y43461D01*
X-7947Y43447D01*
X-7938Y43426D01*
X-7931Y43400D01*
X-7921Y43373D01*
X-7917Y43340D01*
X-7915Y43303D01*
Y43299D01*
Y43287D01*
X-7917Y43269D01*
X-7921Y43243D01*
X-7929Y43216D01*
X-7940Y43186D01*
X-7954Y43151D01*
X-7972Y43119D01*
X-7975Y43114D01*
X-7984Y43105D01*
X-7995Y43089D01*
X-8014Y43070D01*
X-8039Y43049D01*
X-8067Y43026D01*
X-8099Y43005D01*
X-8139Y42985D01*
X-8141D01*
X-8143Y42982D01*
X-8157Y42978D01*
X-8180Y42971D01*
X-8210Y42962D01*
X-8247Y42952D01*
X-8289Y42945D01*
X-8333Y42941D01*
X-8383Y42939D01*
X-8404D01*
X-8421Y42941D01*
X-8439D01*
X-8462Y42943D01*
X-8485Y42945D01*
X-8511Y42950D01*
X-8566Y42962D01*
X-8624Y42978D01*
X-8679Y43001D01*
X-8705Y43015D01*
X-8728Y43031D01*
X-8730Y43033D01*
X-8732Y43036D01*
X-8746Y43049D01*
X-8767Y43070D01*
X-8790Y43102D01*
X-8816Y43142D01*
X-8841Y43188D01*
X-8862Y43246D01*
X-8878Y43310D01*
X-8684Y43340D01*
Y43338D01*
Y43336D01*
X-8679Y43322D01*
X-8675Y43299D01*
X-8665Y43273D01*
X-8654Y43246D01*
X-8640Y43216D01*
X-8619Y43186D01*
X-8594Y43160D01*
X-8589Y43158D01*
X-8580Y43151D01*
X-8561Y43142D01*
X-8538Y43130D01*
X-8508Y43119D01*
X-8474Y43109D01*
X-8432Y43102D01*
X-8383Y43100D01*
X-8360D01*
X-8337Y43102D01*
X-8307Y43107D01*
X-8275Y43114D01*
X-8240Y43123D01*
X-8210Y43135D01*
X-8183Y43153D01*
X-8180Y43156D01*
X-8171Y43163D01*
X-8162Y43174D01*
X-8148Y43190D01*
X-8136Y43209D01*
X-8125Y43232D01*
X-8118Y43255D01*
X-8116Y43283D01*
Y43285D01*
Y43294D01*
X-8118Y43306D01*
X-8123Y43322D01*
X-8129Y43338D01*
X-8141Y43354D01*
X-8155Y43373D01*
X-8176Y43387D01*
X-8178Y43389D01*
X-8185Y43391D01*
X-8196Y43398D01*
X-8215Y43405D01*
X-8243Y43414D01*
X-8259Y43421D01*
X-8277Y43426D01*
X-8298Y43433D01*
X-8321Y43440D01*
X-8347Y43447D01*
X-8377Y43454D01*
X-8379D01*
X-8386Y43456D01*
X-8397Y43458D01*
X-8411Y43463D01*
X-8430Y43468D01*
X-8450Y43474D01*
X-8494Y43486D01*
X-8545Y43502D01*
X-8594Y43516D01*
X-8640Y43532D01*
X-8661Y43541D01*
X-8677Y43548D01*
X-8681Y43551D01*
X-8691Y43555D01*
X-8705Y43565D01*
X-8723Y43576D01*
X-8744Y43592D01*
X-8765Y43611D01*
X-8785Y43632D01*
X-8804Y43657D01*
X-8806Y43659D01*
X-8811Y43668D01*
X-8818Y43685D01*
X-8825Y43703D01*
X-8832Y43726D01*
X-8839Y43754D01*
X-8843Y43782D01*
X-8845Y43814D01*
Y43819D01*
Y43828D01*
X-8843Y43842D01*
X-8841Y43863D01*
X-8836Y43883D01*
X-8832Y43909D01*
X-8822Y43932D01*
X-8811Y43957D01*
X-8809Y43960D01*
X-8804Y43969D01*
X-8797Y43980D01*
X-8785Y43997D01*
X-8772Y44013D01*
X-8755Y44033D01*
X-8737Y44052D01*
X-8714Y44068D01*
X-8712Y44070D01*
X-8705Y44073D01*
X-8695Y44080D01*
X-8681Y44087D01*
X-8663Y44096D01*
X-8642Y44105D01*
X-8617Y44114D01*
X-8589Y44124D01*
X-8585Y44126D01*
X-8575Y44128D01*
X-8559Y44133D01*
X-8538Y44137D01*
X-8513Y44142D01*
X-8485Y44144D01*
X-8453Y44149D01*
X-8397D01*
X-8372Y44147D01*
D02*
G37*
G36*
X-7254D02*
X-7219Y44144D01*
X-7182Y44140D01*
X-7143Y44131D01*
X-7102Y44121D01*
X-7062Y44107D01*
X-7060D01*
X-7058Y44105D01*
X-7046Y44100D01*
X-7028Y44091D01*
X-7005Y44080D01*
X-6979Y44063D01*
X-6954Y44045D01*
X-6931Y44024D01*
X-6910Y44001D01*
X-6908Y43999D01*
X-6903Y43990D01*
X-6894Y43973D01*
X-6882Y43955D01*
X-6870Y43927D01*
X-6859Y43897D01*
X-6850Y43863D01*
X-6841Y43823D01*
X-7032Y43798D01*
Y43802D01*
X-7034Y43812D01*
X-7039Y43828D01*
X-7046Y43849D01*
X-7058Y43869D01*
X-7072Y43892D01*
X-7088Y43916D01*
X-7111Y43936D01*
X-7113Y43939D01*
X-7122Y43943D01*
X-7136Y43953D01*
X-7157Y43962D01*
X-7180Y43971D01*
X-7210Y43980D01*
X-7247Y43985D01*
X-7286Y43987D01*
X-7309D01*
X-7333Y43985D01*
X-7362Y43983D01*
X-7393Y43976D01*
X-7425Y43969D01*
X-7455Y43957D01*
X-7480Y43941D01*
X-7483Y43939D01*
X-7490Y43934D01*
X-7499Y43925D01*
X-7508Y43911D01*
X-7520Y43897D01*
X-7529Y43879D01*
X-7536Y43858D01*
X-7538Y43837D01*
Y43835D01*
Y43830D01*
X-7536Y43823D01*
Y43814D01*
X-7529Y43791D01*
X-7515Y43768D01*
X-7513Y43766D01*
X-7510Y43763D01*
X-7506Y43756D01*
X-7497Y43749D01*
X-7487Y43742D01*
X-7473Y43733D01*
X-7457Y43726D01*
X-7439Y43717D01*
X-7436D01*
X-7432Y43715D01*
X-7423Y43712D01*
X-7406Y43705D01*
X-7383Y43698D01*
X-7353Y43692D01*
X-7335Y43685D01*
X-7314Y43680D01*
X-7291Y43673D01*
X-7265Y43666D01*
X-7263D01*
X-7256Y43664D01*
X-7245Y43661D01*
X-7231Y43657D01*
X-7215Y43652D01*
X-7194Y43648D01*
X-7150Y43634D01*
X-7102Y43620D01*
X-7053Y43604D01*
X-7009Y43588D01*
X-6991Y43581D01*
X-6974Y43574D01*
X-6970Y43571D01*
X-6961Y43567D01*
X-6947Y43560D01*
X-6926Y43548D01*
X-6905Y43534D01*
X-6884Y43516D01*
X-6864Y43495D01*
X-6845Y43472D01*
X-6843Y43470D01*
X-6838Y43461D01*
X-6829Y43447D01*
X-6820Y43426D01*
X-6813Y43400D01*
X-6803Y43373D01*
X-6799Y43340D01*
X-6797Y43303D01*
Y43299D01*
Y43287D01*
X-6799Y43269D01*
X-6803Y43243D01*
X-6810Y43216D01*
X-6822Y43186D01*
X-6836Y43151D01*
X-6854Y43119D01*
X-6857Y43114D01*
X-6866Y43105D01*
X-6877Y43089D01*
X-6896Y43070D01*
X-6921Y43049D01*
X-6949Y43026D01*
X-6981Y43005D01*
X-7021Y42985D01*
X-7023D01*
X-7025Y42982D01*
X-7039Y42978D01*
X-7062Y42971D01*
X-7092Y42962D01*
X-7129Y42952D01*
X-7171Y42945D01*
X-7215Y42941D01*
X-7265Y42939D01*
X-7286D01*
X-7303Y42941D01*
X-7321D01*
X-7344Y42943D01*
X-7367Y42945D01*
X-7393Y42950D01*
X-7448Y42962D01*
X-7506Y42978D01*
X-7561Y43001D01*
X-7587Y43015D01*
X-7610Y43031D01*
X-7612Y43033D01*
X-7614Y43036D01*
X-7628Y43049D01*
X-7649Y43070D01*
X-7672Y43102D01*
X-7698Y43142D01*
X-7723Y43188D01*
X-7744Y43246D01*
X-7760Y43310D01*
X-7566Y43340D01*
Y43338D01*
Y43336D01*
X-7561Y43322D01*
X-7557Y43299D01*
X-7547Y43273D01*
X-7536Y43246D01*
X-7522Y43216D01*
X-7501Y43186D01*
X-7476Y43160D01*
X-7471Y43158D01*
X-7462Y43151D01*
X-7443Y43142D01*
X-7420Y43130D01*
X-7390Y43119D01*
X-7356Y43109D01*
X-7314Y43102D01*
X-7265Y43100D01*
X-7242D01*
X-7219Y43102D01*
X-7189Y43107D01*
X-7157Y43114D01*
X-7122Y43123D01*
X-7092Y43135D01*
X-7064Y43153D01*
X-7062Y43156D01*
X-7053Y43163D01*
X-7044Y43174D01*
X-7030Y43190D01*
X-7018Y43209D01*
X-7007Y43232D01*
X-7000Y43255D01*
X-6998Y43283D01*
Y43285D01*
Y43294D01*
X-7000Y43306D01*
X-7005Y43322D01*
X-7011Y43338D01*
X-7023Y43354D01*
X-7037Y43373D01*
X-7058Y43387D01*
X-7060Y43389D01*
X-7067Y43391D01*
X-7078Y43398D01*
X-7097Y43405D01*
X-7125Y43414D01*
X-7141Y43421D01*
X-7159Y43426D01*
X-7180Y43433D01*
X-7203Y43440D01*
X-7228Y43447D01*
X-7259Y43454D01*
X-7261D01*
X-7268Y43456D01*
X-7279Y43458D01*
X-7293Y43463D01*
X-7312Y43468D01*
X-7333Y43474D01*
X-7376Y43486D01*
X-7427Y43502D01*
X-7476Y43516D01*
X-7522Y43532D01*
X-7543Y43541D01*
X-7559Y43548D01*
X-7564Y43551D01*
X-7573Y43555D01*
X-7587Y43565D01*
X-7605Y43576D01*
X-7626Y43592D01*
X-7647Y43611D01*
X-7667Y43632D01*
X-7686Y43657D01*
X-7688Y43659D01*
X-7693Y43668D01*
X-7700Y43685D01*
X-7707Y43703D01*
X-7714Y43726D01*
X-7721Y43754D01*
X-7725Y43782D01*
X-7728Y43814D01*
Y43819D01*
Y43828D01*
X-7725Y43842D01*
X-7723Y43863D01*
X-7718Y43883D01*
X-7714Y43909D01*
X-7704Y43932D01*
X-7693Y43957D01*
X-7690Y43960D01*
X-7686Y43969D01*
X-7679Y43980D01*
X-7667Y43997D01*
X-7654Y44013D01*
X-7637Y44033D01*
X-7619Y44052D01*
X-7596Y44068D01*
X-7593Y44070D01*
X-7587Y44073D01*
X-7577Y44080D01*
X-7564Y44087D01*
X-7545Y44096D01*
X-7524Y44105D01*
X-7499Y44114D01*
X-7471Y44124D01*
X-7467Y44126D01*
X-7457Y44128D01*
X-7441Y44133D01*
X-7420Y44137D01*
X-7395Y44142D01*
X-7367Y44144D01*
X-7335Y44149D01*
X-7279D01*
X-7254Y44147D01*
D02*
G37*
G36*
X-13969D02*
X-13935Y44144D01*
X-13895Y44140D01*
X-13856Y44133D01*
X-13817Y44124D01*
X-13780Y44112D01*
X-13775Y44110D01*
X-13763Y44105D01*
X-13747Y44098D01*
X-13727Y44089D01*
X-13703Y44075D01*
X-13680Y44061D01*
X-13660Y44043D01*
X-13641Y44024D01*
X-13639Y44022D01*
X-13634Y44015D01*
X-13627Y44003D01*
X-13618Y43990D01*
X-13607Y43969D01*
X-13597Y43948D01*
X-13588Y43923D01*
X-13581Y43892D01*
Y43890D01*
X-13579Y43883D01*
X-13576Y43869D01*
X-13574Y43851D01*
Y43826D01*
X-13572Y43795D01*
X-13569Y43756D01*
Y43712D01*
Y43449D01*
Y43447D01*
Y43437D01*
Y43424D01*
Y43405D01*
Y43384D01*
Y43359D01*
X-13567Y43303D01*
Y43246D01*
X-13565Y43188D01*
X-13563Y43163D01*
Y43139D01*
X-13560Y43119D01*
X-13558Y43102D01*
Y43100D01*
X-13556Y43091D01*
X-13553Y43077D01*
X-13546Y43059D01*
X-13542Y43038D01*
X-13532Y43015D01*
X-13521Y42989D01*
X-13509Y42964D01*
X-13715D01*
X-13717Y42966D01*
X-13720Y42976D01*
X-13724Y42987D01*
X-13731Y43005D01*
X-13738Y43026D01*
X-13743Y43052D01*
X-13747Y43079D01*
X-13752Y43109D01*
X-13754D01*
X-13757Y43105D01*
X-13770Y43093D01*
X-13791Y43077D01*
X-13819Y43056D01*
X-13854Y43036D01*
X-13888Y43012D01*
X-13925Y42992D01*
X-13964Y42976D01*
X-13969Y42973D01*
X-13983Y42971D01*
X-14004Y42964D01*
X-14029Y42957D01*
X-14062Y42950D01*
X-14098Y42945D01*
X-14140Y42941D01*
X-14182Y42939D01*
X-14200D01*
X-14214Y42941D01*
X-14230D01*
X-14249Y42943D01*
X-14290Y42950D01*
X-14336Y42962D01*
X-14387Y42978D01*
X-14433Y43001D01*
X-14475Y43031D01*
X-14480Y43036D01*
X-14491Y43047D01*
X-14507Y43068D01*
X-14526Y43096D01*
X-14544Y43130D01*
X-14560Y43170D01*
X-14572Y43218D01*
X-14574Y43241D01*
X-14577Y43269D01*
Y43273D01*
Y43283D01*
X-14574Y43299D01*
X-14572Y43320D01*
X-14567Y43345D01*
X-14560Y43371D01*
X-14551Y43398D01*
X-14540Y43424D01*
X-14537Y43426D01*
X-14533Y43435D01*
X-14524Y43449D01*
X-14512Y43465D01*
X-14498Y43484D01*
X-14480Y43502D01*
X-14461Y43521D01*
X-14438Y43537D01*
X-14436Y43539D01*
X-14426Y43544D01*
X-14415Y43553D01*
X-14397Y43562D01*
X-14376Y43571D01*
X-14350Y43583D01*
X-14325Y43592D01*
X-14295Y43602D01*
X-14292D01*
X-14283Y43604D01*
X-14269Y43608D01*
X-14251Y43611D01*
X-14228Y43615D01*
X-14198Y43620D01*
X-14163Y43627D01*
X-14122Y43632D01*
X-14119D01*
X-14110Y43634D01*
X-14098D01*
X-14082Y43636D01*
X-14064Y43638D01*
X-14041Y43643D01*
X-14015Y43645D01*
X-13988Y43650D01*
X-13932Y43661D01*
X-13872Y43673D01*
X-13819Y43687D01*
X-13794Y43694D01*
X-13770Y43701D01*
Y43703D01*
Y43708D01*
X-13768Y43722D01*
Y43738D01*
Y43747D01*
Y43752D01*
Y43754D01*
Y43756D01*
Y43770D01*
X-13770Y43793D01*
X-13775Y43819D01*
X-13782Y43846D01*
X-13794Y43874D01*
X-13807Y43900D01*
X-13826Y43920D01*
X-13828Y43923D01*
X-13840Y43932D01*
X-13858Y43941D01*
X-13881Y43955D01*
X-13914Y43966D01*
X-13951Y43978D01*
X-13997Y43985D01*
X-14050Y43987D01*
X-14073D01*
X-14096Y43985D01*
X-14129Y43980D01*
X-14161Y43976D01*
X-14196Y43966D01*
X-14228Y43955D01*
X-14256Y43939D01*
X-14258Y43936D01*
X-14267Y43929D01*
X-14279Y43918D01*
X-14292Y43900D01*
X-14306Y43876D01*
X-14323Y43846D01*
X-14336Y43809D01*
X-14350Y43768D01*
X-14542Y43793D01*
Y43795D01*
X-14540Y43798D01*
Y43805D01*
X-14537Y43814D01*
X-14530Y43835D01*
X-14521Y43865D01*
X-14510Y43895D01*
X-14496Y43927D01*
X-14477Y43960D01*
X-14457Y43990D01*
X-14454Y43992D01*
X-14445Y44001D01*
X-14431Y44015D01*
X-14413Y44033D01*
X-14387Y44052D01*
X-14357Y44070D01*
X-14323Y44091D01*
X-14283Y44107D01*
X-14281D01*
X-14279Y44110D01*
X-14272Y44112D01*
X-14263Y44114D01*
X-14239Y44121D01*
X-14207Y44128D01*
X-14170Y44135D01*
X-14124Y44142D01*
X-14075Y44147D01*
X-14020Y44149D01*
X-13995D01*
X-13969Y44147D01*
D02*
G37*
G36*
X9129Y47067D02*
X9145D01*
X9163Y47065D01*
X9207Y47056D01*
X9256Y47044D01*
X9306Y47025D01*
X9357Y46998D01*
X9383Y46982D01*
X9406Y46963D01*
X9408Y46961D01*
X9410Y46959D01*
X9417Y46952D01*
X9424Y46945D01*
X9436Y46933D01*
X9445Y46919D01*
X9470Y46887D01*
X9496Y46845D01*
X9519Y46795D01*
X9540Y46737D01*
X9554Y46672D01*
X9357Y46656D01*
Y46658D01*
X9355Y46661D01*
X9353Y46674D01*
X9346Y46695D01*
X9336Y46721D01*
X9327Y46748D01*
X9313Y46776D01*
X9297Y46801D01*
X9281Y46822D01*
X9276Y46827D01*
X9267Y46836D01*
X9251Y46850D01*
X9228Y46866D01*
X9198Y46880D01*
X9166Y46894D01*
X9126Y46903D01*
X9085Y46908D01*
X9069D01*
X9050Y46905D01*
X9029Y46901D01*
X9002Y46894D01*
X8974Y46885D01*
X8946Y46873D01*
X8918Y46854D01*
X8914Y46852D01*
X8902Y46843D01*
X8886Y46827D01*
X8865Y46804D01*
X8842Y46776D01*
X8817Y46744D01*
X8794Y46702D01*
X8771Y46656D01*
Y46654D01*
X8768Y46649D01*
X8766Y46642D01*
X8761Y46633D01*
X8759Y46619D01*
X8754Y46603D01*
X8750Y46584D01*
X8745Y46561D01*
X8738Y46536D01*
X8734Y46508D01*
X8729Y46478D01*
X8727Y46446D01*
X8722Y46409D01*
X8720Y46372D01*
X8717Y46330D01*
Y46289D01*
X8720Y46291D01*
X8729Y46305D01*
X8745Y46323D01*
X8766Y46346D01*
X8789Y46374D01*
X8819Y46400D01*
X8851Y46425D01*
X8888Y46448D01*
X8891D01*
X8893Y46450D01*
X8907Y46457D01*
X8928Y46464D01*
X8955Y46476D01*
X8988Y46485D01*
X9025Y46492D01*
X9064Y46499D01*
X9105Y46501D01*
X9124D01*
X9138Y46499D01*
X9156Y46496D01*
X9175Y46494D01*
X9198Y46490D01*
X9221Y46483D01*
X9274Y46466D01*
X9302Y46455D01*
X9330Y46439D01*
X9357Y46423D01*
X9387Y46404D01*
X9415Y46381D01*
X9440Y46356D01*
X9443Y46353D01*
X9447Y46349D01*
X9454Y46342D01*
X9461Y46330D01*
X9473Y46314D01*
X9484Y46298D01*
X9496Y46277D01*
X9510Y46254D01*
X9524Y46229D01*
X9535Y46201D01*
X9547Y46169D01*
X9558Y46136D01*
X9565Y46101D01*
X9572Y46062D01*
X9577Y46023D01*
X9579Y45981D01*
Y45979D01*
Y45974D01*
Y45968D01*
Y45956D01*
X9577Y45942D01*
Y45928D01*
X9570Y45891D01*
X9563Y45847D01*
X9551Y45801D01*
X9535Y45750D01*
X9512Y45702D01*
Y45700D01*
X9510Y45697D01*
X9505Y45690D01*
X9500Y45681D01*
X9487Y45658D01*
X9466Y45628D01*
X9440Y45596D01*
X9410Y45563D01*
X9373Y45531D01*
X9334Y45503D01*
X9332D01*
X9330Y45501D01*
X9323Y45496D01*
X9313Y45494D01*
X9290Y45482D01*
X9260Y45471D01*
X9221Y45457D01*
X9177Y45448D01*
X9129Y45439D01*
X9075Y45436D01*
X9064D01*
X9052Y45439D01*
X9034D01*
X9013Y45441D01*
X8990Y45445D01*
X8962Y45452D01*
X8935Y45459D01*
X8902Y45469D01*
X8870Y45480D01*
X8838Y45494D01*
X8803Y45512D01*
X8771Y45533D01*
X8738Y45556D01*
X8706Y45584D01*
X8676Y45616D01*
X8674Y45619D01*
X8669Y45626D01*
X8662Y45635D01*
X8653Y45651D01*
X8639Y45672D01*
X8627Y45695D01*
X8613Y45725D01*
X8600Y45757D01*
X8583Y45797D01*
X8569Y45840D01*
X8558Y45889D01*
X8546Y45942D01*
X8535Y46002D01*
X8528Y46067D01*
X8523Y46136D01*
X8521Y46210D01*
Y46212D01*
Y46215D01*
Y46222D01*
Y46231D01*
X8523Y46254D01*
Y46286D01*
X8526Y46323D01*
X8530Y46367D01*
X8535Y46416D01*
X8542Y46469D01*
X8551Y46522D01*
X8563Y46580D01*
X8576Y46635D01*
X8593Y46690D01*
X8613Y46744D01*
X8636Y46795D01*
X8662Y46843D01*
X8692Y46885D01*
X8694Y46887D01*
X8699Y46891D01*
X8708Y46901D01*
X8720Y46915D01*
X8734Y46929D01*
X8752Y46942D01*
X8775Y46961D01*
X8798Y46977D01*
X8826Y46993D01*
X8856Y47012D01*
X8891Y47025D01*
X8925Y47042D01*
X8965Y47053D01*
X9006Y47062D01*
X9050Y47067D01*
X9096Y47069D01*
X9115D01*
X9129Y47067D01*
D02*
G37*
G36*
X-15240Y44147D02*
X-15221Y44144D01*
X-15198Y44140D01*
X-15173Y44135D01*
X-15143Y44128D01*
X-15115Y44121D01*
X-15082Y44110D01*
X-15053Y44098D01*
X-15020Y44082D01*
X-14988Y44063D01*
X-14955Y44043D01*
X-14925Y44017D01*
X-14898Y43990D01*
X-14895Y43987D01*
X-14891Y43983D01*
X-14884Y43973D01*
X-14875Y43960D01*
X-14863Y43943D01*
X-14852Y43925D01*
X-14838Y43902D01*
X-14824Y43874D01*
X-14810Y43844D01*
X-14796Y43812D01*
X-14785Y43775D01*
X-14773Y43736D01*
X-14764Y43692D01*
X-14757Y43645D01*
X-14752Y43597D01*
X-14750Y43544D01*
Y43541D01*
Y43532D01*
Y43516D01*
X-14752Y43493D01*
X-15619D01*
Y43491D01*
Y43484D01*
X-15616Y43474D01*
Y43461D01*
X-15614Y43444D01*
X-15609Y43426D01*
X-15602Y43384D01*
X-15588Y43338D01*
X-15570Y43287D01*
X-15544Y43241D01*
X-15512Y43200D01*
X-15510D01*
X-15508Y43195D01*
X-15494Y43183D01*
X-15473Y43167D01*
X-15445Y43151D01*
X-15408Y43132D01*
X-15367Y43116D01*
X-15321Y43105D01*
X-15295Y43102D01*
X-15267Y43100D01*
X-15249D01*
X-15228Y43102D01*
X-15203Y43107D01*
X-15175Y43114D01*
X-15143Y43123D01*
X-15113Y43137D01*
X-15082Y43156D01*
X-15080Y43158D01*
X-15069Y43167D01*
X-15055Y43181D01*
X-15039Y43200D01*
X-15020Y43225D01*
X-14999Y43257D01*
X-14979Y43294D01*
X-14960Y43338D01*
X-14757Y43313D01*
Y43310D01*
X-14759Y43306D01*
X-14761Y43297D01*
X-14766Y43283D01*
X-14773Y43269D01*
X-14780Y43250D01*
X-14798Y43211D01*
X-14821Y43167D01*
X-14854Y43121D01*
X-14891Y43077D01*
X-14937Y43036D01*
X-14939D01*
X-14944Y43031D01*
X-14951Y43026D01*
X-14960Y43019D01*
X-14974Y43012D01*
X-14988Y43005D01*
X-15006Y42996D01*
X-15027Y42987D01*
X-15050Y42978D01*
X-15073Y42968D01*
X-15131Y42955D01*
X-15196Y42943D01*
X-15267Y42939D01*
X-15293D01*
X-15309Y42941D01*
X-15330Y42943D01*
X-15355Y42948D01*
X-15383Y42952D01*
X-15413Y42957D01*
X-15477Y42976D01*
X-15512Y42989D01*
X-15544Y43003D01*
X-15579Y43022D01*
X-15611Y43042D01*
X-15642Y43066D01*
X-15672Y43093D01*
X-15674Y43096D01*
X-15678Y43100D01*
X-15686Y43109D01*
X-15695Y43123D01*
X-15706Y43139D01*
X-15718Y43158D01*
X-15732Y43181D01*
X-15745Y43207D01*
X-15759Y43237D01*
X-15773Y43269D01*
X-15785Y43306D01*
X-15796Y43345D01*
X-15806Y43387D01*
X-15812Y43433D01*
X-15817Y43481D01*
X-15819Y43532D01*
Y43534D01*
Y43546D01*
Y43560D01*
X-15817Y43581D01*
X-15815Y43606D01*
X-15812Y43634D01*
X-15808Y43666D01*
X-15801Y43698D01*
X-15782Y43772D01*
X-15771Y43809D01*
X-15757Y43849D01*
X-15739Y43886D01*
X-15718Y43920D01*
X-15695Y43955D01*
X-15669Y43987D01*
X-15667Y43990D01*
X-15662Y43994D01*
X-15653Y44001D01*
X-15642Y44013D01*
X-15628Y44024D01*
X-15609Y44038D01*
X-15588Y44054D01*
X-15563Y44068D01*
X-15538Y44084D01*
X-15508Y44098D01*
X-15475Y44112D01*
X-15441Y44124D01*
X-15404Y44135D01*
X-15364Y44142D01*
X-15323Y44147D01*
X-15279Y44149D01*
X-15256D01*
X-15240Y44147D01*
D02*
G37*
G36*
X-16057Y42964D02*
X-16254D01*
Y44562D01*
X-16057D01*
Y42964D01*
D02*
G37*
G36*
X-12805Y44147D02*
X-12779Y44142D01*
X-12749Y44133D01*
X-12717Y44121D01*
X-12680Y44105D01*
X-12641Y44084D01*
X-12712Y43904D01*
X-12715Y43906D01*
X-12724Y43911D01*
X-12738Y43918D01*
X-12756Y43925D01*
X-12777Y43932D01*
X-12803Y43939D01*
X-12828Y43943D01*
X-12853Y43946D01*
X-12865D01*
X-12877Y43943D01*
X-12893Y43941D01*
X-12909Y43936D01*
X-12930Y43929D01*
X-12950Y43920D01*
X-12969Y43906D01*
X-12971Y43904D01*
X-12978Y43900D01*
X-12985Y43890D01*
X-12997Y43879D01*
X-13008Y43863D01*
X-13020Y43844D01*
X-13031Y43823D01*
X-13040Y43798D01*
X-13043Y43793D01*
X-13045Y43779D01*
X-13050Y43759D01*
X-13057Y43731D01*
X-13064Y43696D01*
X-13068Y43657D01*
X-13070Y43615D01*
X-13073Y43569D01*
Y42964D01*
X-13269D01*
Y44124D01*
X-13091D01*
Y43948D01*
X-13089Y43950D01*
X-13080Y43966D01*
X-13068Y43987D01*
X-13050Y44013D01*
X-13031Y44038D01*
X-13011Y44066D01*
X-12990Y44089D01*
X-12969Y44107D01*
X-12967Y44110D01*
X-12960Y44114D01*
X-12946Y44121D01*
X-12932Y44128D01*
X-12913Y44135D01*
X-12890Y44142D01*
X-12867Y44147D01*
X-12842Y44149D01*
X-12826D01*
X-12805Y44147D01*
D02*
G37*
G36*
X20456Y46347D02*
X20482D01*
X20512Y46344D01*
X20544Y46338D01*
X20579Y46332D01*
X20613Y46324D01*
X20649Y46311D01*
X20686Y46300D01*
X20722Y46284D01*
X20762Y46264D01*
X20649Y46083D01*
X20647Y46084D01*
X20642Y46086D01*
X20633Y46089D01*
X20621Y46094D01*
X20608Y46101D01*
X20590Y46109D01*
X20551Y46122D01*
X20505Y46135D01*
X20456Y46145D01*
X20404Y46148D01*
X20353Y46146D01*
X20347D01*
X20330Y46143D01*
X20306Y46135D01*
X20273Y46125D01*
X20236Y46107D01*
X20195Y46086D01*
X20151Y46055D01*
X20108Y46016D01*
X20107Y46014D01*
X20102Y46009D01*
X20095Y46003D01*
X20089Y45993D01*
X20077Y45981D01*
X20066Y45967D01*
X20040Y45931D01*
X20012Y45890D01*
X19987Y45842D01*
X19966Y45789D01*
X19953Y45733D01*
X19951Y45731D01*
X19953Y45726D01*
X19950Y45707D01*
X19948Y45679D01*
X19950Y45642D01*
X19953Y45596D01*
X19961Y45548D01*
X19978Y45496D01*
X19999Y45442D01*
X20000Y45441D01*
X20002Y45436D01*
X20005Y45429D01*
X20012Y45419D01*
X20018Y45406D01*
X20027Y45392D01*
X20050Y45359D01*
X20076Y45320D01*
X20105Y45277D01*
X20141Y45235D01*
X20182Y45191D01*
X20183Y45189D01*
X20188Y45184D01*
X20197Y45176D01*
X20206Y45166D01*
X20219Y45156D01*
X20234Y45142D01*
X20252Y45127D01*
X20272Y45111D01*
X20316Y45076D01*
X20366Y45042D01*
X20419Y45009D01*
X20474Y44980D01*
X20476Y44978D01*
X20481Y44977D01*
X20489Y44975D01*
X20500Y44970D01*
X20530Y44960D01*
X20567Y44952D01*
X20611Y44944D01*
X20662Y44939D01*
X20713Y44941D01*
X20767Y44949D01*
X20768Y44951D01*
X20773Y44952D01*
X20781Y44954D01*
X20791Y44957D01*
X20802Y44962D01*
X20817Y44967D01*
X20850Y44980D01*
X20889Y45000D01*
X20930Y45024D01*
X20972Y45054D01*
X21012Y45090D01*
X21013Y45091D01*
X21016Y45094D01*
X21023Y45101D01*
X21031Y45112D01*
X21043Y45124D01*
X21052Y45137D01*
X21075Y45173D01*
X21101Y45215D01*
X21123Y45263D01*
X21141Y45317D01*
X21149Y45344D01*
X21152Y45374D01*
Y45377D01*
Y45380D01*
Y45390D01*
X21154Y45401D01*
X21152Y45416D01*
X21150Y45434D01*
Y45454D01*
X21146Y45475D01*
X21141Y45500D01*
X21136Y45527D01*
X21129Y45553D01*
X21119Y45583D01*
X21106Y45612D01*
X21092Y45643D01*
X21075Y45676D01*
X21056Y45709D01*
X21244Y45821D01*
X21245Y45820D01*
X21250Y45812D01*
X21257Y45798D01*
X21265Y45781D01*
X21274Y45761D01*
X21286Y45736D01*
X21297Y45709D01*
X21309Y45678D01*
X21332Y45609D01*
X21348Y45534D01*
X21353Y45493D01*
X21358Y45452D01*
Y45413D01*
X21355Y45371D01*
Y45367D01*
Y45361D01*
X21350Y45349D01*
X21348Y45335D01*
X21343Y45313D01*
X21338Y45292D01*
X21328Y45266D01*
X21319Y45240D01*
X21307Y45209D01*
X21293Y45178D01*
X21276Y45145D01*
X21258Y45111D01*
X21237Y45076D01*
X21211Y45044D01*
X21183Y45009D01*
X21152Y44975D01*
X21150Y44974D01*
X21144Y44967D01*
X21134Y44957D01*
X21119Y44946D01*
X21105Y44931D01*
X21085Y44915D01*
X21062Y44898D01*
X21036Y44879D01*
X20980Y44840D01*
X20919Y44804D01*
X20852Y44773D01*
X20817Y44761D01*
X20781Y44751D01*
X20778D01*
X20773Y44750D01*
X20762Y44748D01*
X20749D01*
X20732Y44745D01*
X20711Y44743D01*
X20686Y44742D01*
X20660D01*
X20633Y44743D01*
X20603D01*
X20536Y44751D01*
X20464Y44768D01*
X20391Y44792D01*
X20389Y44794D01*
X20381Y44796D01*
X20371Y44802D01*
X20357Y44807D01*
X20340Y44817D01*
X20319Y44828D01*
X20294Y44840D01*
X20270Y44854D01*
X20244Y44871D01*
X20213Y44889D01*
X20154Y44931D01*
X20090Y44982D01*
X20028Y45037D01*
X20027Y45039D01*
X20020Y45045D01*
X20010Y45055D01*
X20000Y45068D01*
X19984Y45085D01*
X19969Y45103D01*
X19950Y45125D01*
X19932Y45150D01*
X19893Y45206D01*
X19852Y45269D01*
X19816Y45338D01*
X19788Y45411D01*
Y45415D01*
X19785Y45421D01*
X19782Y45431D01*
X19780Y45446D01*
X19775Y45464D01*
X19770Y45485D01*
X19762Y45535D01*
X19757Y45596D01*
Y45661D01*
X19762Y45731D01*
X19778Y45803D01*
Y45807D01*
X19782Y45813D01*
X19785Y45823D01*
X19788Y45836D01*
X19796Y45854D01*
X19805Y45872D01*
X19814Y45895D01*
X19826Y45919D01*
X19839Y45945D01*
X19853Y45973D01*
X19889Y46029D01*
X19933Y46089D01*
X19984Y46146D01*
X19986Y46148D01*
X19992Y46154D01*
X20000Y46163D01*
X20013Y46172D01*
X20030Y46185D01*
X20050Y46202D01*
X20069Y46218D01*
X20095Y46235D01*
X20149Y46269D01*
X20213Y46303D01*
X20247Y46318D01*
X20281Y46329D01*
X20319Y46338D01*
X20357Y46346D01*
X20360D01*
X20365Y46347D01*
X20376Y46349D01*
X20432D01*
X20456Y46347D01*
D02*
G37*
G36*
X4343Y79463D02*
X4107D01*
Y80961D01*
X4104Y80958D01*
X4091Y80948D01*
X4074Y80931D01*
X4046Y80911D01*
X4016Y80887D01*
X3977Y80859D01*
X3933Y80828D01*
X3883Y80798D01*
X3880D01*
X3877Y80795D01*
X3861Y80784D01*
X3833Y80770D01*
X3800Y80753D01*
X3761Y80734D01*
X3719Y80715D01*
X3678Y80695D01*
X3636Y80679D01*
Y80906D01*
X3639D01*
X3645Y80911D01*
X3656Y80914D01*
X3669Y80923D01*
X3686Y80931D01*
X3706Y80942D01*
X3753Y80970D01*
X3808Y81000D01*
X3863Y81039D01*
X3922Y81083D01*
X3980Y81130D01*
X3982Y81133D01*
X3985Y81136D01*
X3994Y81144D01*
X4005Y81152D01*
X4030Y81180D01*
X4063Y81213D01*
X4096Y81252D01*
X4132Y81296D01*
X4163Y81341D01*
X4190Y81388D01*
X4343D01*
Y79463D01*
D02*
G37*
G36*
X3138Y80072D02*
Y80069D01*
Y80061D01*
Y80050D01*
Y80033D01*
X3135Y80011D01*
Y79989D01*
X3129Y79936D01*
X3124Y79875D01*
X3113Y79812D01*
X3096Y79754D01*
X3077Y79698D01*
Y79695D01*
X3074Y79693D01*
X3066Y79676D01*
X3052Y79654D01*
X3032Y79623D01*
X3005Y79593D01*
X2974Y79560D01*
X2936Y79526D01*
X2891Y79499D01*
X2886Y79496D01*
X2869Y79488D01*
X2844Y79477D01*
X2808Y79466D01*
X2764Y79452D01*
X2714Y79441D01*
X2658Y79432D01*
X2598Y79430D01*
X2573D01*
X2556Y79432D01*
X2534Y79435D01*
X2512Y79438D01*
X2454Y79449D01*
X2393Y79466D01*
X2329Y79490D01*
X2296Y79507D01*
X2265Y79526D01*
X2237Y79549D01*
X2210Y79574D01*
X2207Y79576D01*
X2204Y79579D01*
X2199Y79590D01*
X2190Y79601D01*
X2179Y79615D01*
X2168Y79634D01*
X2157Y79657D01*
X2143Y79682D01*
X2132Y79709D01*
X2121Y79742D01*
X2110Y79776D01*
X2099Y79814D01*
X2093Y79856D01*
X2085Y79903D01*
X2082Y79950D01*
Y80003D01*
X2312Y80036D01*
Y80033D01*
Y80028D01*
Y80017D01*
X2315Y80000D01*
X2318Y79984D01*
Y79964D01*
X2326Y79917D01*
X2334Y79867D01*
X2351Y79817D01*
X2368Y79773D01*
X2379Y79754D01*
X2393Y79737D01*
X2395Y79734D01*
X2406Y79726D01*
X2423Y79712D01*
X2445Y79698D01*
X2476Y79682D01*
X2509Y79671D01*
X2550Y79659D01*
X2595Y79657D01*
X2611D01*
X2628Y79659D01*
X2653Y79662D01*
X2678Y79668D01*
X2706Y79673D01*
X2733Y79684D01*
X2761Y79698D01*
X2764Y79701D01*
X2772Y79707D01*
X2783Y79718D01*
X2800Y79729D01*
X2814Y79748D01*
X2830Y79767D01*
X2844Y79790D01*
X2855Y79817D01*
Y79820D01*
X2861Y79831D01*
X2863Y79851D01*
X2869Y79875D01*
X2874Y79909D01*
X2877Y79950D01*
X2883Y80000D01*
Y80058D01*
Y81380D01*
X3138D01*
Y80072D01*
D02*
G37*
G36*
X22251Y46114D02*
X22113Y45975D01*
X21229Y46859D01*
Y46855D01*
X21227Y46841D01*
Y46821D01*
X21222Y46793D01*
X21219Y46760D01*
X21213Y46721D01*
X21204Y46677D01*
X21193Y46630D01*
X21191Y46628D01*
Y46625D01*
X21188Y46609D01*
X21180Y46584D01*
X21170Y46555D01*
X21159Y46520D01*
X21146Y46485D01*
X21132Y46448D01*
X21118Y46414D01*
X20984Y46548D01*
X20985Y46550D01*
Y46556D01*
X20990Y46564D01*
X20994Y46578D01*
X20999Y46592D01*
X21003Y46610D01*
X21015Y46654D01*
X21030Y46705D01*
X21039Y46760D01*
X21047Y46821D01*
X21054Y46883D01*
Y46886D01*
Y46889D01*
Y46899D01*
X21056Y46911D01*
X21054Y46942D01*
Y46981D01*
X21051Y47023D01*
X21046Y47071D01*
X21038Y47115D01*
X21026Y47159D01*
X21116Y47249D01*
X22251Y46114D01*
D02*
G37*
G36*
X-10324Y44147D02*
X-10299Y44142D01*
X-10268Y44133D01*
X-10236Y44121D01*
X-10199Y44105D01*
X-10160Y44084D01*
X-10232Y43904D01*
X-10234Y43906D01*
X-10243Y43911D01*
X-10257Y43918D01*
X-10275Y43925D01*
X-10296Y43932D01*
X-10322Y43939D01*
X-10347Y43943D01*
X-10373Y43946D01*
X-10384D01*
X-10396Y43943D01*
X-10412Y43941D01*
X-10428Y43936D01*
X-10449Y43929D01*
X-10469Y43920D01*
X-10488Y43906D01*
X-10490Y43904D01*
X-10497Y43900D01*
X-10504Y43890D01*
X-10516Y43879D01*
X-10527Y43863D01*
X-10539Y43844D01*
X-10550Y43823D01*
X-10560Y43798D01*
X-10562Y43793D01*
X-10564Y43779D01*
X-10569Y43759D01*
X-10576Y43731D01*
X-10583Y43696D01*
X-10587Y43657D01*
X-10590Y43615D01*
X-10592Y43569D01*
Y42964D01*
X-10788D01*
Y44124D01*
X-10610D01*
Y43948D01*
X-10608Y43950D01*
X-10599Y43966D01*
X-10587Y43987D01*
X-10569Y44013D01*
X-10550Y44038D01*
X-10530Y44066D01*
X-10509Y44089D01*
X-10488Y44107D01*
X-10486Y44110D01*
X-10479Y44114D01*
X-10465Y44121D01*
X-10451Y44128D01*
X-10432Y44135D01*
X-10409Y44142D01*
X-10386Y44147D01*
X-10361Y44149D01*
X-10345D01*
X-10324Y44147D01*
D02*
G37*
G36*
X-11710Y44588D02*
X-11692D01*
X-11648Y44583D01*
X-11599Y44576D01*
X-11548Y44565D01*
X-11493Y44551D01*
X-11440Y44532D01*
X-11437D01*
X-11433Y44530D01*
X-11426Y44528D01*
X-11417Y44523D01*
X-11391Y44509D01*
X-11359Y44493D01*
X-11324Y44470D01*
X-11287Y44442D01*
X-11253Y44412D01*
X-11220Y44375D01*
X-11216Y44371D01*
X-11206Y44357D01*
X-11192Y44336D01*
X-11174Y44306D01*
X-11156Y44269D01*
X-11135Y44223D01*
X-11114Y44172D01*
X-11098Y44114D01*
X-11289Y44063D01*
Y44066D01*
X-11292Y44068D01*
X-11294Y44075D01*
X-11297Y44084D01*
X-11303Y44105D01*
X-11313Y44133D01*
X-11327Y44165D01*
X-11343Y44195D01*
X-11359Y44227D01*
X-11380Y44255D01*
X-11382Y44258D01*
X-11389Y44267D01*
X-11403Y44278D01*
X-11419Y44295D01*
X-11440Y44313D01*
X-11467Y44331D01*
X-11497Y44350D01*
X-11532Y44366D01*
X-11537Y44368D01*
X-11548Y44373D01*
X-11569Y44380D01*
X-11597Y44389D01*
X-11629Y44396D01*
X-11666Y44403D01*
X-11708Y44408D01*
X-11751Y44410D01*
X-11777D01*
X-11789Y44408D01*
X-11802D01*
X-11837Y44405D01*
X-11876Y44398D01*
X-11920Y44392D01*
X-11962Y44380D01*
X-12003Y44364D01*
X-12008Y44361D01*
X-12022Y44357D01*
X-12040Y44345D01*
X-12063Y44334D01*
X-12091Y44315D01*
X-12121Y44297D01*
X-12149Y44274D01*
X-12174Y44248D01*
X-12177Y44246D01*
X-12186Y44237D01*
X-12197Y44221D01*
X-12211Y44202D01*
X-12227Y44179D01*
X-12244Y44151D01*
X-12260Y44121D01*
X-12276Y44089D01*
Y44087D01*
X-12278Y44082D01*
X-12280Y44075D01*
X-12285Y44063D01*
X-12290Y44050D01*
X-12294Y44033D01*
X-12301Y44015D01*
X-12306Y43994D01*
X-12318Y43946D01*
X-12327Y43890D01*
X-12334Y43832D01*
X-12336Y43768D01*
Y43766D01*
Y43759D01*
Y43747D01*
X-12334Y43733D01*
Y43715D01*
X-12331Y43692D01*
X-12329Y43668D01*
X-12327Y43643D01*
X-12318Y43585D01*
X-12306Y43525D01*
X-12287Y43465D01*
X-12264Y43407D01*
Y43405D01*
X-12260Y43400D01*
X-12257Y43394D01*
X-12251Y43384D01*
X-12234Y43359D01*
X-12209Y43327D01*
X-12179Y43292D01*
X-12142Y43257D01*
X-12098Y43225D01*
X-12049Y43195D01*
X-12047D01*
X-12043Y43193D01*
X-12036Y43188D01*
X-12024Y43183D01*
X-12013Y43179D01*
X-11996Y43174D01*
X-11959Y43160D01*
X-11913Y43149D01*
X-11862Y43137D01*
X-11807Y43128D01*
X-11749Y43126D01*
X-11726D01*
X-11712Y43128D01*
X-11698D01*
X-11664Y43132D01*
X-11622Y43137D01*
X-11578Y43146D01*
X-11530Y43160D01*
X-11481Y43176D01*
X-11479D01*
X-11474Y43179D01*
X-11470Y43181D01*
X-11461Y43186D01*
X-11435Y43197D01*
X-11407Y43211D01*
X-11375Y43227D01*
X-11340Y43246D01*
X-11308Y43266D01*
X-11280Y43290D01*
Y43590D01*
X-11751D01*
Y43779D01*
X-11072D01*
Y43186D01*
X-11075Y43183D01*
X-11079Y43181D01*
X-11089Y43174D01*
X-11100Y43165D01*
X-11114Y43156D01*
X-11130Y43144D01*
X-11151Y43130D01*
X-11172Y43116D01*
X-11220Y43086D01*
X-11276Y43054D01*
X-11333Y43024D01*
X-11396Y42999D01*
X-11398D01*
X-11403Y42996D01*
X-11412Y42994D01*
X-11423Y42989D01*
X-11440Y42985D01*
X-11458Y42978D01*
X-11479Y42973D01*
X-11500Y42968D01*
X-11551Y42957D01*
X-11608Y42945D01*
X-11671Y42939D01*
X-11735Y42936D01*
X-11759D01*
X-11775Y42939D01*
X-11795D01*
X-11821Y42941D01*
X-11849Y42945D01*
X-11879Y42948D01*
X-11946Y42962D01*
X-12017Y42978D01*
X-12091Y43003D01*
X-12128Y43017D01*
X-12165Y43036D01*
X-12167Y43038D01*
X-12174Y43040D01*
X-12184Y43047D01*
X-12197Y43054D01*
X-12213Y43066D01*
X-12230Y43077D01*
X-12274Y43109D01*
X-12320Y43151D01*
X-12368Y43202D01*
X-12415Y43260D01*
X-12456Y43327D01*
Y43329D01*
X-12461Y43336D01*
X-12465Y43345D01*
X-12472Y43361D01*
X-12479Y43377D01*
X-12486Y43400D01*
X-12495Y43424D01*
X-12505Y43451D01*
X-12514Y43481D01*
X-12523Y43516D01*
X-12530Y43551D01*
X-12537Y43588D01*
X-12549Y43668D01*
X-12553Y43754D01*
Y43756D01*
Y43766D01*
Y43777D01*
X-12551Y43793D01*
Y43814D01*
X-12549Y43839D01*
X-12544Y43865D01*
X-12541Y43895D01*
X-12535Y43927D01*
X-12530Y43962D01*
X-12512Y44036D01*
X-12488Y44112D01*
X-12456Y44188D01*
X-12454Y44190D01*
X-12451Y44197D01*
X-12447Y44207D01*
X-12438Y44221D01*
X-12428Y44239D01*
X-12417Y44258D01*
X-12385Y44301D01*
X-12345Y44352D01*
X-12297Y44401D01*
X-12241Y44449D01*
X-12209Y44470D01*
X-12177Y44491D01*
X-12174Y44493D01*
X-12167Y44495D01*
X-12158Y44500D01*
X-12144Y44507D01*
X-12126Y44514D01*
X-12105Y44523D01*
X-12082Y44532D01*
X-12054Y44542D01*
X-12024Y44551D01*
X-11992Y44558D01*
X-11957Y44567D01*
X-11920Y44574D01*
X-11839Y44585D01*
X-11798Y44590D01*
X-11724D01*
X-11710Y44588D01*
D02*
G37*
G36*
X-17106D02*
X-17085Y44585D01*
X-17060Y44583D01*
X-17034Y44581D01*
X-17005Y44574D01*
X-16942Y44560D01*
X-16873Y44539D01*
X-16838Y44526D01*
X-16806Y44509D01*
X-16773Y44488D01*
X-16741Y44468D01*
X-16739Y44465D01*
X-16734Y44463D01*
X-16725Y44456D01*
X-16713Y44445D01*
X-16702Y44433D01*
X-16686Y44417D01*
X-16669Y44398D01*
X-16651Y44380D01*
X-16633Y44357D01*
X-16614Y44329D01*
X-16593Y44301D01*
X-16575Y44271D01*
X-16559Y44237D01*
X-16540Y44202D01*
X-16526Y44165D01*
X-16512Y44124D01*
X-16720Y44075D01*
Y44077D01*
X-16723Y44082D01*
X-16727Y44091D01*
X-16732Y44103D01*
X-16736Y44117D01*
X-16743Y44135D01*
X-16762Y44172D01*
X-16785Y44214D01*
X-16813Y44255D01*
X-16847Y44295D01*
X-16884Y44329D01*
X-16889Y44334D01*
X-16903Y44343D01*
X-16926Y44355D01*
X-16956Y44371D01*
X-16995Y44385D01*
X-17039Y44398D01*
X-17092Y44408D01*
X-17150Y44410D01*
X-17168D01*
X-17180Y44408D01*
X-17196D01*
X-17215Y44405D01*
X-17259Y44398D01*
X-17307Y44389D01*
X-17358Y44373D01*
X-17411Y44350D01*
X-17459Y44320D01*
X-17462D01*
X-17464Y44315D01*
X-17480Y44304D01*
X-17501Y44285D01*
X-17526Y44258D01*
X-17557Y44223D01*
X-17584Y44184D01*
X-17610Y44135D01*
X-17633Y44082D01*
Y44080D01*
X-17635Y44075D01*
X-17637Y44068D01*
X-17640Y44056D01*
X-17644Y44043D01*
X-17649Y44026D01*
X-17656Y43987D01*
X-17665Y43941D01*
X-17674Y43890D01*
X-17679Y43835D01*
X-17681Y43775D01*
Y43772D01*
Y43766D01*
Y43754D01*
Y43740D01*
X-17679Y43724D01*
Y43703D01*
X-17677Y43680D01*
X-17674Y43655D01*
X-17667Y43599D01*
X-17656Y43539D01*
X-17642Y43479D01*
X-17624Y43419D01*
Y43417D01*
X-17621Y43412D01*
X-17617Y43405D01*
X-17612Y43394D01*
X-17598Y43366D01*
X-17577Y43334D01*
X-17552Y43297D01*
X-17520Y43257D01*
X-17483Y43223D01*
X-17439Y43190D01*
X-17436D01*
X-17432Y43188D01*
X-17425Y43183D01*
X-17416Y43179D01*
X-17404Y43174D01*
X-17390Y43167D01*
X-17358Y43153D01*
X-17316Y43139D01*
X-17270Y43128D01*
X-17219Y43119D01*
X-17166Y43116D01*
X-17150D01*
X-17136Y43119D01*
X-17120D01*
X-17104Y43121D01*
X-17062Y43130D01*
X-17014Y43142D01*
X-16965Y43160D01*
X-16914Y43186D01*
X-16889Y43200D01*
X-16866Y43218D01*
X-16864Y43220D01*
X-16861Y43223D01*
X-16854Y43230D01*
X-16845Y43237D01*
X-16836Y43248D01*
X-16824Y43262D01*
X-16810Y43276D01*
X-16799Y43294D01*
X-16785Y43315D01*
X-16769Y43338D01*
X-16755Y43361D01*
X-16741Y43389D01*
X-16730Y43419D01*
X-16718Y43451D01*
X-16706Y43486D01*
X-16697Y43523D01*
X-16485Y43470D01*
Y43468D01*
X-16487Y43458D01*
X-16492Y43444D01*
X-16499Y43426D01*
X-16506Y43405D01*
X-16515Y43380D01*
X-16526Y43352D01*
X-16540Y43322D01*
X-16572Y43257D01*
X-16614Y43193D01*
X-16639Y43160D01*
X-16665Y43128D01*
X-16693Y43100D01*
X-16725Y43073D01*
X-16727Y43070D01*
X-16732Y43066D01*
X-16743Y43061D01*
X-16755Y43052D01*
X-16773Y43040D01*
X-16792Y43029D01*
X-16817Y43017D01*
X-16843Y43005D01*
X-16873Y42992D01*
X-16905Y42980D01*
X-16940Y42968D01*
X-16977Y42957D01*
X-17016Y42948D01*
X-17058Y42943D01*
X-17101Y42939D01*
X-17148Y42936D01*
X-17173D01*
X-17192Y42939D01*
X-17212D01*
X-17238Y42941D01*
X-17266Y42945D01*
X-17298Y42950D01*
X-17365Y42962D01*
X-17434Y42980D01*
X-17503Y43005D01*
X-17536Y43022D01*
X-17568Y43040D01*
X-17570Y43042D01*
X-17575Y43045D01*
X-17584Y43052D01*
X-17594Y43061D01*
X-17607Y43070D01*
X-17624Y43084D01*
X-17642Y43100D01*
X-17661Y43119D01*
X-17679Y43139D01*
X-17700Y43160D01*
X-17741Y43213D01*
X-17781Y43276D01*
X-17815Y43345D01*
Y43347D01*
X-17820Y43354D01*
X-17822Y43366D01*
X-17829Y43380D01*
X-17834Y43398D01*
X-17841Y43421D01*
X-17850Y43447D01*
X-17857Y43474D01*
X-17864Y43505D01*
X-17873Y43539D01*
X-17885Y43611D01*
X-17894Y43692D01*
X-17898Y43775D01*
Y43777D01*
Y43786D01*
Y43800D01*
X-17896Y43816D01*
Y43839D01*
X-17894Y43863D01*
X-17891Y43892D01*
X-17887Y43923D01*
X-17875Y43990D01*
X-17859Y44063D01*
X-17836Y44137D01*
X-17804Y44209D01*
X-17801Y44211D01*
X-17799Y44218D01*
X-17795Y44227D01*
X-17785Y44239D01*
X-17776Y44255D01*
X-17764Y44274D01*
X-17734Y44315D01*
X-17695Y44361D01*
X-17649Y44408D01*
X-17596Y44454D01*
X-17533Y44493D01*
X-17531Y44495D01*
X-17524Y44498D01*
X-17515Y44502D01*
X-17503Y44509D01*
X-17485Y44516D01*
X-17467Y44523D01*
X-17443Y44532D01*
X-17418Y44542D01*
X-17390Y44551D01*
X-17360Y44560D01*
X-17296Y44574D01*
X-17222Y44585D01*
X-17145Y44590D01*
X-17122D01*
X-17106Y44588D01*
D02*
G37*
G36*
X4157Y47067D02*
X4174D01*
X4192Y47065D01*
X4236Y47056D01*
X4284Y47044D01*
X4335Y47025D01*
X4386Y46998D01*
X4411Y46982D01*
X4435Y46963D01*
X4437Y46961D01*
X4439Y46959D01*
X4446Y46952D01*
X4453Y46945D01*
X4465Y46933D01*
X4474Y46919D01*
X4499Y46887D01*
X4525Y46845D01*
X4548Y46795D01*
X4569Y46737D01*
X4583Y46672D01*
X4386Y46656D01*
Y46658D01*
X4384Y46661D01*
X4382Y46674D01*
X4375Y46695D01*
X4365Y46721D01*
X4356Y46748D01*
X4342Y46776D01*
X4326Y46801D01*
X4310Y46822D01*
X4305Y46827D01*
X4296Y46836D01*
X4280Y46850D01*
X4257Y46866D01*
X4227Y46880D01*
X4194Y46894D01*
X4155Y46903D01*
X4114Y46908D01*
X4097D01*
X4079Y46905D01*
X4058Y46901D01*
X4030Y46894D01*
X4003Y46885D01*
X3975Y46873D01*
X3947Y46854D01*
X3943Y46852D01*
X3931Y46843D01*
X3915Y46827D01*
X3894Y46804D01*
X3871Y46776D01*
X3846Y46744D01*
X3822Y46702D01*
X3799Y46656D01*
Y46654D01*
X3797Y46649D01*
X3795Y46642D01*
X3790Y46633D01*
X3788Y46619D01*
X3783Y46603D01*
X3779Y46584D01*
X3774Y46561D01*
X3767Y46536D01*
X3762Y46508D01*
X3758Y46478D01*
X3756Y46446D01*
X3751Y46409D01*
X3749Y46372D01*
X3746Y46330D01*
Y46289D01*
X3749Y46291D01*
X3758Y46305D01*
X3774Y46323D01*
X3795Y46346D01*
X3818Y46374D01*
X3848Y46400D01*
X3880Y46425D01*
X3917Y46448D01*
X3920D01*
X3922Y46450D01*
X3936Y46457D01*
X3957Y46464D01*
X3984Y46476D01*
X4016Y46485D01*
X4053Y46492D01*
X4093Y46499D01*
X4134Y46501D01*
X4153D01*
X4167Y46499D01*
X4185Y46496D01*
X4204Y46494D01*
X4227Y46490D01*
X4250Y46483D01*
X4303Y46466D01*
X4331Y46455D01*
X4358Y46439D01*
X4386Y46423D01*
X4416Y46404D01*
X4444Y46381D01*
X4469Y46356D01*
X4472Y46353D01*
X4476Y46349D01*
X4483Y46342D01*
X4490Y46330D01*
X4502Y46314D01*
X4513Y46298D01*
X4525Y46277D01*
X4539Y46254D01*
X4552Y46229D01*
X4564Y46201D01*
X4576Y46169D01*
X4587Y46136D01*
X4594Y46101D01*
X4601Y46062D01*
X4606Y46023D01*
X4608Y45981D01*
Y45979D01*
Y45974D01*
Y45968D01*
Y45956D01*
X4606Y45942D01*
Y45928D01*
X4599Y45891D01*
X4592Y45847D01*
X4580Y45801D01*
X4564Y45750D01*
X4541Y45702D01*
Y45700D01*
X4539Y45697D01*
X4534Y45690D01*
X4529Y45681D01*
X4515Y45658D01*
X4495Y45628D01*
X4469Y45596D01*
X4439Y45563D01*
X4402Y45531D01*
X4363Y45503D01*
X4361D01*
X4358Y45501D01*
X4352Y45496D01*
X4342Y45494D01*
X4319Y45482D01*
X4289Y45471D01*
X4250Y45457D01*
X4206Y45448D01*
X4157Y45439D01*
X4104Y45436D01*
X4093D01*
X4081Y45439D01*
X4063D01*
X4042Y45441D01*
X4019Y45445D01*
X3991Y45452D01*
X3963Y45459D01*
X3931Y45469D01*
X3899Y45480D01*
X3866Y45494D01*
X3832Y45512D01*
X3799Y45533D01*
X3767Y45556D01*
X3735Y45584D01*
X3705Y45616D01*
X3702Y45619D01*
X3698Y45626D01*
X3691Y45635D01*
X3682Y45651D01*
X3668Y45672D01*
X3656Y45695D01*
X3642Y45725D01*
X3629Y45757D01*
X3612Y45797D01*
X3598Y45840D01*
X3587Y45889D01*
X3575Y45942D01*
X3564Y46002D01*
X3557Y46067D01*
X3552Y46136D01*
X3550Y46210D01*
Y46212D01*
Y46215D01*
Y46222D01*
Y46231D01*
X3552Y46254D01*
Y46286D01*
X3554Y46323D01*
X3559Y46367D01*
X3564Y46416D01*
X3571Y46469D01*
X3580Y46522D01*
X3591Y46580D01*
X3605Y46635D01*
X3621Y46690D01*
X3642Y46744D01*
X3665Y46795D01*
X3691Y46843D01*
X3721Y46885D01*
X3723Y46887D01*
X3728Y46891D01*
X3737Y46901D01*
X3749Y46915D01*
X3762Y46929D01*
X3781Y46942D01*
X3804Y46961D01*
X3827Y46977D01*
X3855Y46993D01*
X3885Y47012D01*
X3920Y47025D01*
X3954Y47042D01*
X3993Y47053D01*
X4035Y47062D01*
X4079Y47067D01*
X4125Y47069D01*
X4144D01*
X4157Y47067D01*
D02*
G37*
G36*
X-8681Y47088D02*
X-8665D01*
X-8621Y47083D01*
X-8573Y47076D01*
X-8522Y47065D01*
X-8467Y47051D01*
X-8416Y47032D01*
X-8414D01*
X-8409Y47030D01*
X-8402Y47025D01*
X-8393Y47021D01*
X-8370Y47009D01*
X-8340Y46988D01*
X-8305Y46965D01*
X-8270Y46935D01*
X-8238Y46901D01*
X-8208Y46861D01*
Y46859D01*
X-8206Y46857D01*
X-8201Y46850D01*
X-8196Y46843D01*
X-8185Y46820D01*
X-8171Y46790D01*
X-8155Y46753D01*
X-8143Y46709D01*
X-8132Y46663D01*
X-8127Y46612D01*
X-8330Y46596D01*
Y46598D01*
Y46603D01*
X-8333Y46610D01*
X-8335Y46621D01*
X-8342Y46647D01*
X-8351Y46681D01*
X-8365Y46718D01*
X-8386Y46755D01*
X-8411Y46790D01*
X-8444Y46822D01*
X-8448Y46824D01*
X-8460Y46834D01*
X-8483Y46848D01*
X-8513Y46861D01*
X-8552Y46875D01*
X-8598Y46889D01*
X-8656Y46898D01*
X-8721Y46901D01*
X-8753D01*
X-8767Y46898D01*
X-8785Y46896D01*
X-8827Y46891D01*
X-8873Y46882D01*
X-8919Y46871D01*
X-8963Y46852D01*
X-8982Y46841D01*
X-9000Y46829D01*
X-9005Y46827D01*
X-9014Y46818D01*
X-9028Y46801D01*
X-9042Y46783D01*
X-9058Y46758D01*
X-9072Y46730D01*
X-9081Y46698D01*
X-9086Y46661D01*
Y46656D01*
Y46647D01*
X-9083Y46630D01*
X-9079Y46612D01*
X-9072Y46589D01*
X-9060Y46566D01*
X-9047Y46543D01*
X-9026Y46520D01*
X-9023Y46517D01*
X-9012Y46510D01*
X-9003Y46503D01*
X-8993Y46499D01*
X-8980Y46492D01*
X-8963Y46483D01*
X-8943Y46476D01*
X-8919Y46466D01*
X-8894Y46457D01*
X-8864Y46446D01*
X-8832Y46436D01*
X-8795Y46425D01*
X-8753Y46416D01*
X-8707Y46404D01*
X-8705D01*
X-8695Y46402D01*
X-8681Y46400D01*
X-8665Y46395D01*
X-8645Y46390D01*
X-8619Y46383D01*
X-8594Y46376D01*
X-8566Y46369D01*
X-8506Y46353D01*
X-8448Y46337D01*
X-8421Y46328D01*
X-8395Y46319D01*
X-8372Y46312D01*
X-8354Y46302D01*
X-8351D01*
X-8347Y46300D01*
X-8340Y46295D01*
X-8330Y46291D01*
X-8305Y46277D01*
X-8275Y46259D01*
X-8240Y46233D01*
X-8206Y46205D01*
X-8173Y46173D01*
X-8146Y46138D01*
X-8143Y46134D01*
X-8134Y46122D01*
X-8125Y46101D01*
X-8111Y46074D01*
X-8099Y46041D01*
X-8088Y46002D01*
X-8081Y45958D01*
X-8079Y45912D01*
Y45910D01*
Y45907D01*
Y45900D01*
Y45891D01*
X-8083Y45866D01*
X-8088Y45834D01*
X-8097Y45797D01*
X-8109Y45757D01*
X-8127Y45716D01*
X-8152Y45672D01*
Y45669D01*
X-8155Y45667D01*
X-8166Y45653D01*
X-8183Y45632D01*
X-8206Y45609D01*
X-8236Y45582D01*
X-8273Y45552D01*
X-8314Y45524D01*
X-8363Y45499D01*
X-8365D01*
X-8370Y45496D01*
X-8377Y45494D01*
X-8386Y45489D01*
X-8400Y45485D01*
X-8416Y45478D01*
X-8453Y45469D01*
X-8497Y45457D01*
X-8550Y45445D01*
X-8608Y45439D01*
X-8670Y45436D01*
X-8707D01*
X-8725Y45439D01*
X-8746D01*
X-8769Y45441D01*
X-8797Y45443D01*
X-8855Y45452D01*
X-8915Y45462D01*
X-8975Y45478D01*
X-9033Y45499D01*
X-9035D01*
X-9040Y45501D01*
X-9047Y45505D01*
X-9056Y45510D01*
X-9083Y45524D01*
X-9116Y45545D01*
X-9153Y45573D01*
X-9192Y45605D01*
X-9229Y45644D01*
X-9264Y45688D01*
Y45690D01*
X-9268Y45695D01*
X-9271Y45702D01*
X-9278Y45711D01*
X-9282Y45723D01*
X-9289Y45737D01*
X-9305Y45771D01*
X-9321Y45815D01*
X-9335Y45864D01*
X-9345Y45919D01*
X-9349Y45977D01*
X-9150Y45995D01*
Y45993D01*
Y45991D01*
X-9148Y45984D01*
Y45974D01*
X-9144Y45954D01*
X-9137Y45924D01*
X-9127Y45894D01*
X-9118Y45859D01*
X-9102Y45827D01*
X-9086Y45797D01*
X-9083Y45794D01*
X-9076Y45785D01*
X-9065Y45769D01*
X-9047Y45753D01*
X-9023Y45732D01*
X-8998Y45711D01*
X-8963Y45690D01*
X-8926Y45672D01*
X-8924D01*
X-8922Y45669D01*
X-8915Y45667D01*
X-8908Y45665D01*
X-8885Y45658D01*
X-8855Y45649D01*
X-8818Y45640D01*
X-8776Y45632D01*
X-8730Y45628D01*
X-8679Y45626D01*
X-8658D01*
X-8635Y45628D01*
X-8608Y45630D01*
X-8575Y45635D01*
X-8538Y45640D01*
X-8501Y45649D01*
X-8467Y45660D01*
X-8462Y45663D01*
X-8450Y45667D01*
X-8434Y45676D01*
X-8414Y45686D01*
X-8393Y45702D01*
X-8370Y45718D01*
X-8347Y45737D01*
X-8328Y45760D01*
X-8326Y45762D01*
X-8321Y45771D01*
X-8314Y45783D01*
X-8305Y45801D01*
X-8296Y45820D01*
X-8289Y45843D01*
X-8284Y45868D01*
X-8282Y45896D01*
Y45898D01*
Y45910D01*
X-8284Y45924D01*
X-8286Y45942D01*
X-8293Y45961D01*
X-8300Y45984D01*
X-8312Y46007D01*
X-8328Y46028D01*
X-8330Y46030D01*
X-8337Y46037D01*
X-8347Y46046D01*
X-8363Y46060D01*
X-8381Y46074D01*
X-8407Y46090D01*
X-8437Y46106D01*
X-8471Y46120D01*
X-8474Y46122D01*
X-8485Y46125D01*
X-8504Y46132D01*
X-8515Y46134D01*
X-8531Y46138D01*
X-8547Y46145D01*
X-8568Y46150D01*
X-8591Y46157D01*
X-8619Y46164D01*
X-8647Y46171D01*
X-8679Y46180D01*
X-8716Y46189D01*
X-8755Y46198D01*
X-8758D01*
X-8765Y46201D01*
X-8776Y46203D01*
X-8790Y46208D01*
X-8809Y46212D01*
X-8829Y46217D01*
X-8876Y46231D01*
X-8926Y46247D01*
X-8980Y46263D01*
X-9026Y46279D01*
X-9047Y46289D01*
X-9065Y46298D01*
X-9067D01*
X-9070Y46300D01*
X-9083Y46309D01*
X-9104Y46321D01*
X-9127Y46339D01*
X-9155Y46360D01*
X-9183Y46386D01*
X-9211Y46416D01*
X-9234Y46448D01*
X-9236Y46453D01*
X-9243Y46464D01*
X-9252Y46483D01*
X-9261Y46506D01*
X-9271Y46536D01*
X-9280Y46570D01*
X-9287Y46607D01*
X-9289Y46647D01*
Y46649D01*
Y46651D01*
Y46658D01*
Y46667D01*
X-9284Y46690D01*
X-9280Y46721D01*
X-9273Y46755D01*
X-9261Y46795D01*
X-9245Y46834D01*
X-9222Y46873D01*
Y46875D01*
X-9220Y46878D01*
X-9208Y46891D01*
X-9192Y46910D01*
X-9171Y46933D01*
X-9144Y46959D01*
X-9109Y46986D01*
X-9067Y47012D01*
X-9021Y47035D01*
X-9019D01*
X-9014Y47037D01*
X-9007Y47039D01*
X-8998Y47044D01*
X-8986Y47049D01*
X-8970Y47053D01*
X-8936Y47062D01*
X-8892Y47072D01*
X-8841Y47081D01*
X-8788Y47088D01*
X-8728Y47090D01*
X-8698D01*
X-8681Y47088D01*
D02*
G37*
G36*
X6643Y47067D02*
X6659D01*
X6678Y47065D01*
X6722Y47056D01*
X6770Y47044D01*
X6821Y47025D01*
X6872Y46998D01*
X6897Y46982D01*
X6920Y46963D01*
X6922Y46961D01*
X6925Y46959D01*
X6932Y46952D01*
X6939Y46945D01*
X6950Y46933D01*
X6960Y46919D01*
X6985Y46887D01*
X7010Y46845D01*
X7033Y46795D01*
X7054Y46737D01*
X7068Y46672D01*
X6872Y46656D01*
Y46658D01*
X6869Y46661D01*
X6867Y46674D01*
X6860Y46695D01*
X6851Y46721D01*
X6842Y46748D01*
X6828Y46776D01*
X6812Y46801D01*
X6796Y46822D01*
X6791Y46827D01*
X6782Y46836D01*
X6765Y46850D01*
X6742Y46866D01*
X6712Y46880D01*
X6680Y46894D01*
X6641Y46903D01*
X6599Y46908D01*
X6583D01*
X6565Y46905D01*
X6544Y46901D01*
X6516Y46894D01*
X6488Y46885D01*
X6460Y46873D01*
X6433Y46854D01*
X6428Y46852D01*
X6417Y46843D01*
X6401Y46827D01*
X6380Y46804D01*
X6357Y46776D01*
X6331Y46744D01*
X6308Y46702D01*
X6285Y46656D01*
Y46654D01*
X6283Y46649D01*
X6280Y46642D01*
X6276Y46633D01*
X6273Y46619D01*
X6269Y46603D01*
X6264Y46584D01*
X6260Y46561D01*
X6253Y46536D01*
X6248Y46508D01*
X6243Y46478D01*
X6241Y46446D01*
X6236Y46409D01*
X6234Y46372D01*
X6232Y46330D01*
Y46289D01*
X6234Y46291D01*
X6243Y46305D01*
X6260Y46323D01*
X6280Y46346D01*
X6303Y46374D01*
X6334Y46400D01*
X6366Y46425D01*
X6403Y46448D01*
X6405D01*
X6407Y46450D01*
X6421Y46457D01*
X6442Y46464D01*
X6470Y46476D01*
X6502Y46485D01*
X6539Y46492D01*
X6578Y46499D01*
X6620Y46501D01*
X6638D01*
X6652Y46499D01*
X6671Y46496D01*
X6689Y46494D01*
X6712Y46490D01*
X6735Y46483D01*
X6788Y46466D01*
X6816Y46455D01*
X6844Y46439D01*
X6872Y46423D01*
X6902Y46404D01*
X6929Y46381D01*
X6955Y46356D01*
X6957Y46353D01*
X6962Y46349D01*
X6969Y46342D01*
X6976Y46330D01*
X6987Y46314D01*
X6999Y46298D01*
X7010Y46277D01*
X7024Y46254D01*
X7038Y46229D01*
X7050Y46201D01*
X7061Y46169D01*
X7073Y46136D01*
X7080Y46101D01*
X7086Y46062D01*
X7091Y46023D01*
X7094Y45981D01*
Y45979D01*
Y45974D01*
Y45968D01*
Y45956D01*
X7091Y45942D01*
Y45928D01*
X7084Y45891D01*
X7077Y45847D01*
X7066Y45801D01*
X7050Y45750D01*
X7027Y45702D01*
Y45700D01*
X7024Y45697D01*
X7019Y45690D01*
X7015Y45681D01*
X7001Y45658D01*
X6980Y45628D01*
X6955Y45596D01*
X6925Y45563D01*
X6888Y45531D01*
X6849Y45503D01*
X6846D01*
X6844Y45501D01*
X6837Y45496D01*
X6828Y45494D01*
X6805Y45482D01*
X6775Y45471D01*
X6735Y45457D01*
X6691Y45448D01*
X6643Y45439D01*
X6590Y45436D01*
X6578D01*
X6567Y45439D01*
X6548D01*
X6527Y45441D01*
X6504Y45445D01*
X6477Y45452D01*
X6449Y45459D01*
X6417Y45469D01*
X6384Y45480D01*
X6352Y45494D01*
X6317Y45512D01*
X6285Y45533D01*
X6253Y45556D01*
X6220Y45584D01*
X6190Y45616D01*
X6188Y45619D01*
X6183Y45626D01*
X6176Y45635D01*
X6167Y45651D01*
X6153Y45672D01*
X6142Y45695D01*
X6128Y45725D01*
X6114Y45757D01*
X6098Y45797D01*
X6084Y45840D01*
X6072Y45889D01*
X6061Y45942D01*
X6049Y46002D01*
X6042Y46067D01*
X6038Y46136D01*
X6036Y46210D01*
Y46212D01*
Y46215D01*
Y46222D01*
Y46231D01*
X6038Y46254D01*
Y46286D01*
X6040Y46323D01*
X6045Y46367D01*
X6049Y46416D01*
X6056Y46469D01*
X6066Y46522D01*
X6077Y46580D01*
X6091Y46635D01*
X6107Y46690D01*
X6128Y46744D01*
X6151Y46795D01*
X6176Y46843D01*
X6206Y46885D01*
X6209Y46887D01*
X6213Y46891D01*
X6223Y46901D01*
X6234Y46915D01*
X6248Y46929D01*
X6267Y46942D01*
X6290Y46961D01*
X6313Y46977D01*
X6340Y46993D01*
X6370Y47012D01*
X6405Y47025D01*
X6440Y47042D01*
X6479Y47053D01*
X6521Y47062D01*
X6565Y47067D01*
X6611Y47069D01*
X6629D01*
X6643Y47067D01*
D02*
G37*
%LPC*%
G36*
X11268Y46873D02*
X10810D01*
Y46302D01*
X11240D01*
X11256Y46305D01*
X11272D01*
X11291Y46307D01*
X11335Y46312D01*
X11383Y46321D01*
X11432Y46335D01*
X11475Y46353D01*
X11496Y46365D01*
X11513Y46379D01*
X11517Y46383D01*
X11526Y46393D01*
X11540Y46411D01*
X11556Y46434D01*
X11573Y46464D01*
X11586Y46501D01*
X11596Y46543D01*
X11600Y46591D01*
Y46593D01*
Y46596D01*
Y46607D01*
X11598Y46628D01*
X11593Y46651D01*
X11589Y46677D01*
X11580Y46707D01*
X11566Y46734D01*
X11549Y46762D01*
X11547Y46764D01*
X11540Y46774D01*
X11529Y46785D01*
X11515Y46801D01*
X11494Y46818D01*
X11471Y46831D01*
X11445Y46845D01*
X11416Y46857D01*
X11413D01*
X11404Y46859D01*
X11390Y46861D01*
X11372Y46866D01*
X11344Y46868D01*
X11309Y46871D01*
X11268Y46873D01*
D02*
G37*
G36*
X-1777Y46896D02*
Y46894D01*
X-1779Y46889D01*
Y46880D01*
X-1784Y46871D01*
X-1786Y46854D01*
X-1791Y46838D01*
X-1800Y46799D01*
X-1812Y46753D01*
X-1828Y46702D01*
X-1844Y46647D01*
X-1865Y46589D01*
X-2038Y46122D01*
X-1497D01*
X-1664Y46561D01*
Y46564D01*
X-1666Y46570D01*
X-1671Y46582D01*
X-1675Y46596D01*
X-1682Y46612D01*
X-1689Y46633D01*
X-1696Y46656D01*
X-1705Y46679D01*
X-1724Y46732D01*
X-1742Y46788D01*
X-1761Y46843D01*
X-1777Y46896D01*
D02*
G37*
G36*
X1593Y46908D02*
X1579D01*
X1570Y46905D01*
X1545Y46901D01*
X1515Y46894D01*
X1480Y46880D01*
X1443Y46859D01*
X1425Y46845D01*
X1406Y46831D01*
X1390Y46813D01*
X1374Y46792D01*
Y46790D01*
X1369Y46785D01*
X1365Y46776D01*
X1358Y46764D01*
X1351Y46746D01*
X1342Y46725D01*
X1335Y46700D01*
X1325Y46670D01*
X1316Y46635D01*
X1307Y46596D01*
X1298Y46552D01*
X1291Y46503D01*
X1284Y46448D01*
X1279Y46388D01*
X1277Y46323D01*
X1275Y46252D01*
Y46247D01*
Y46235D01*
Y46215D01*
X1277Y46187D01*
Y46157D01*
X1279Y46120D01*
X1281Y46081D01*
X1286Y46039D01*
X1298Y45949D01*
X1305Y45905D01*
X1314Y45864D01*
X1323Y45824D01*
X1337Y45787D01*
X1351Y45755D01*
X1367Y45727D01*
Y45725D01*
X1372Y45723D01*
X1383Y45706D01*
X1404Y45686D01*
X1429Y45663D01*
X1464Y45640D01*
X1503Y45619D01*
X1547Y45603D01*
X1570Y45600D01*
X1596Y45598D01*
X1609D01*
X1619Y45600D01*
X1642Y45605D01*
X1674Y45614D01*
X1709Y45630D01*
X1748Y45653D01*
X1767Y45667D01*
X1785Y45686D01*
X1804Y45704D01*
X1822Y45727D01*
Y45730D01*
X1827Y45734D01*
X1831Y45741D01*
X1836Y45753D01*
X1845Y45769D01*
X1852Y45790D01*
X1861Y45813D01*
X1871Y45840D01*
X1877Y45875D01*
X1887Y45912D01*
X1896Y45956D01*
X1903Y46002D01*
X1908Y46058D01*
X1912Y46115D01*
X1917Y46180D01*
Y46252D01*
Y46254D01*
Y46256D01*
Y46268D01*
Y46289D01*
X1914Y46316D01*
Y46346D01*
X1912Y46383D01*
X1910Y46423D01*
X1905Y46466D01*
X1894Y46554D01*
X1887Y46598D01*
X1877Y46640D01*
X1868Y46679D01*
X1854Y46716D01*
X1840Y46748D01*
X1824Y46776D01*
Y46778D01*
X1820Y46781D01*
X1815Y46788D01*
X1808Y46797D01*
X1787Y46818D01*
X1762Y46843D01*
X1727Y46866D01*
X1688Y46887D01*
X1667Y46896D01*
X1644Y46903D01*
X1619Y46905D01*
X1593Y46908D01*
D02*
G37*
G36*
X5322D02*
X5308D01*
X5299Y46905D01*
X5273Y46901D01*
X5243Y46894D01*
X5209Y46880D01*
X5172Y46859D01*
X5153Y46845D01*
X5135Y46831D01*
X5118Y46813D01*
X5102Y46792D01*
Y46790D01*
X5098Y46785D01*
X5093Y46776D01*
X5086Y46764D01*
X5079Y46746D01*
X5070Y46725D01*
X5063Y46700D01*
X5054Y46670D01*
X5045Y46635D01*
X5035Y46596D01*
X5026Y46552D01*
X5019Y46503D01*
X5012Y46448D01*
X5007Y46388D01*
X5005Y46323D01*
X5003Y46252D01*
Y46247D01*
Y46235D01*
Y46215D01*
X5005Y46187D01*
Y46157D01*
X5007Y46120D01*
X5010Y46081D01*
X5015Y46039D01*
X5026Y45949D01*
X5033Y45905D01*
X5042Y45864D01*
X5051Y45824D01*
X5065Y45787D01*
X5079Y45755D01*
X5095Y45727D01*
Y45725D01*
X5100Y45723D01*
X5111Y45706D01*
X5132Y45686D01*
X5158Y45663D01*
X5192Y45640D01*
X5232Y45619D01*
X5275Y45603D01*
X5299Y45600D01*
X5324Y45598D01*
X5338D01*
X5347Y45600D01*
X5370Y45605D01*
X5403Y45614D01*
X5437Y45630D01*
X5477Y45653D01*
X5495Y45667D01*
X5513Y45686D01*
X5532Y45704D01*
X5550Y45727D01*
Y45730D01*
X5555Y45734D01*
X5560Y45741D01*
X5564Y45753D01*
X5573Y45769D01*
X5580Y45790D01*
X5590Y45813D01*
X5599Y45840D01*
X5606Y45875D01*
X5615Y45912D01*
X5624Y45956D01*
X5631Y46002D01*
X5636Y46058D01*
X5641Y46115D01*
X5645Y46180D01*
Y46252D01*
Y46254D01*
Y46256D01*
Y46268D01*
Y46289D01*
X5643Y46316D01*
Y46346D01*
X5641Y46383D01*
X5638Y46423D01*
X5633Y46466D01*
X5622Y46554D01*
X5615Y46598D01*
X5606Y46640D01*
X5597Y46679D01*
X5583Y46716D01*
X5569Y46748D01*
X5553Y46776D01*
Y46778D01*
X5548Y46781D01*
X5543Y46788D01*
X5536Y46797D01*
X5516Y46818D01*
X5490Y46843D01*
X5456Y46866D01*
X5416Y46887D01*
X5396Y46896D01*
X5373Y46903D01*
X5347Y46905D01*
X5322Y46908D01*
D02*
G37*
G36*
X-3126D02*
X-3140D01*
X-3149Y46905D01*
X-3175Y46901D01*
X-3204Y46894D01*
X-3239Y46880D01*
X-3276Y46859D01*
X-3295Y46845D01*
X-3313Y46831D01*
X-3329Y46813D01*
X-3345Y46792D01*
Y46790D01*
X-3350Y46785D01*
X-3355Y46776D01*
X-3362Y46764D01*
X-3368Y46746D01*
X-3378Y46725D01*
X-3385Y46700D01*
X-3394Y46670D01*
X-3403Y46635D01*
X-3412Y46596D01*
X-3422Y46552D01*
X-3429Y46503D01*
X-3435Y46448D01*
X-3440Y46388D01*
X-3443Y46323D01*
X-3445Y46252D01*
Y46247D01*
Y46235D01*
Y46215D01*
X-3443Y46187D01*
Y46157D01*
X-3440Y46120D01*
X-3438Y46081D01*
X-3433Y46039D01*
X-3422Y45949D01*
X-3415Y45905D01*
X-3405Y45864D01*
X-3396Y45824D01*
X-3382Y45787D01*
X-3368Y45755D01*
X-3352Y45727D01*
Y45725D01*
X-3348Y45723D01*
X-3336Y45706D01*
X-3315Y45686D01*
X-3290Y45663D01*
X-3255Y45640D01*
X-3216Y45619D01*
X-3172Y45603D01*
X-3149Y45600D01*
X-3124Y45598D01*
X-3110D01*
X-3101Y45600D01*
X-3077Y45605D01*
X-3045Y45614D01*
X-3011Y45630D01*
X-2971Y45653D01*
X-2953Y45667D01*
X-2934Y45686D01*
X-2916Y45704D01*
X-2897Y45727D01*
Y45730D01*
X-2893Y45734D01*
X-2888Y45741D01*
X-2883Y45753D01*
X-2874Y45769D01*
X-2867Y45790D01*
X-2858Y45813D01*
X-2849Y45840D01*
X-2842Y45875D01*
X-2833Y45912D01*
X-2823Y45956D01*
X-2816Y46002D01*
X-2812Y46058D01*
X-2807Y46115D01*
X-2803Y46180D01*
Y46252D01*
Y46254D01*
Y46256D01*
Y46268D01*
Y46289D01*
X-2805Y46316D01*
Y46346D01*
X-2807Y46383D01*
X-2809Y46423D01*
X-2814Y46466D01*
X-2826Y46554D01*
X-2833Y46598D01*
X-2842Y46640D01*
X-2851Y46679D01*
X-2865Y46716D01*
X-2879Y46748D01*
X-2895Y46776D01*
Y46778D01*
X-2900Y46781D01*
X-2904Y46788D01*
X-2911Y46797D01*
X-2932Y46818D01*
X-2957Y46843D01*
X-2992Y46866D01*
X-3031Y46887D01*
X-3052Y46896D01*
X-3075Y46903D01*
X-3101Y46905D01*
X-3126Y46908D01*
D02*
G37*
G36*
X-11835Y46896D02*
Y46894D01*
X-11837Y46889D01*
Y46880D01*
X-11842Y46871D01*
X-11844Y46854D01*
X-11849Y46838D01*
X-11858Y46799D01*
X-11869Y46753D01*
X-11885Y46702D01*
X-11902Y46647D01*
X-11923Y46589D01*
X-12096Y46122D01*
X-11555D01*
X-11722Y46561D01*
Y46564D01*
X-11724Y46570D01*
X-11728Y46582D01*
X-11733Y46596D01*
X-11740Y46612D01*
X-11747Y46633D01*
X-11754Y46656D01*
X-11763Y46679D01*
X-11782Y46732D01*
X-11800Y46788D01*
X-11818Y46843D01*
X-11835Y46896D01*
D02*
G37*
G36*
X-5674Y46203D02*
X-6094D01*
Y45653D01*
X-5639D01*
X-5591Y45656D01*
X-5570Y45658D01*
X-5551Y45660D01*
X-5549D01*
X-5540Y45663D01*
X-5526Y45665D01*
X-5510Y45669D01*
X-5471Y45683D01*
X-5431Y45702D01*
X-5429Y45704D01*
X-5422Y45709D01*
X-5413Y45716D01*
X-5401Y45725D01*
X-5390Y45739D01*
X-5374Y45753D01*
X-5362Y45771D01*
X-5348Y45792D01*
X-5346Y45794D01*
X-5344Y45801D01*
X-5339Y45815D01*
X-5332Y45831D01*
X-5325Y45850D01*
X-5320Y45873D01*
X-5318Y45900D01*
X-5316Y45928D01*
Y45933D01*
Y45942D01*
X-5318Y45961D01*
X-5323Y45981D01*
X-5327Y46005D01*
X-5337Y46030D01*
X-5348Y46055D01*
X-5364Y46081D01*
X-5367Y46083D01*
X-5374Y46092D01*
X-5383Y46104D01*
X-5397Y46118D01*
X-5415Y46134D01*
X-5438Y46150D01*
X-5464Y46164D01*
X-5494Y46175D01*
X-5498Y46178D01*
X-5508Y46180D01*
X-5528Y46185D01*
X-5554Y46189D01*
X-5586Y46194D01*
X-5625Y46198D01*
X-5674Y46203D01*
D02*
G37*
G36*
X-5715Y46873D02*
X-6094D01*
Y46393D01*
X-5702D01*
X-5672Y46395D01*
X-5639Y46397D01*
X-5607Y46400D01*
X-5575Y46404D01*
X-5549Y46409D01*
X-5545Y46411D01*
X-5535Y46413D01*
X-5522Y46420D01*
X-5503Y46429D01*
X-5485Y46439D01*
X-5464Y46453D01*
X-5443Y46471D01*
X-5427Y46490D01*
X-5424Y46492D01*
X-5420Y46499D01*
X-5413Y46513D01*
X-5406Y46529D01*
X-5399Y46547D01*
X-5392Y46570D01*
X-5387Y46598D01*
X-5385Y46628D01*
Y46633D01*
Y46642D01*
X-5387Y46656D01*
X-5390Y46674D01*
X-5394Y46698D01*
X-5401Y46721D01*
X-5411Y46744D01*
X-5424Y46767D01*
X-5427Y46769D01*
X-5431Y46776D01*
X-5441Y46788D01*
X-5452Y46799D01*
X-5468Y46813D01*
X-5487Y46827D01*
X-5510Y46841D01*
X-5535Y46850D01*
X-5538D01*
X-5549Y46854D01*
X-5565Y46857D01*
X-5591Y46861D01*
X-5625Y46866D01*
X-5665Y46868D01*
X-5715Y46873D01*
D02*
G37*
G36*
X-13274Y46885D02*
X-13777D01*
Y46356D01*
X-13302D01*
X-13274Y46358D01*
X-13241Y46360D01*
X-13205Y46363D01*
X-13168Y46367D01*
X-13131Y46374D01*
X-13098Y46383D01*
X-13094Y46386D01*
X-13084Y46390D01*
X-13070Y46397D01*
X-13052Y46406D01*
X-13031Y46420D01*
X-13011Y46436D01*
X-12990Y46457D01*
X-12973Y46480D01*
X-12971Y46483D01*
X-12967Y46492D01*
X-12960Y46506D01*
X-12950Y46524D01*
X-12944Y46545D01*
X-12936Y46568D01*
X-12932Y46596D01*
X-12930Y46624D01*
Y46626D01*
Y46628D01*
X-12932Y46642D01*
X-12934Y46663D01*
X-12939Y46690D01*
X-12950Y46718D01*
X-12964Y46751D01*
X-12985Y46781D01*
X-13013Y46811D01*
X-13017Y46813D01*
X-13029Y46822D01*
X-13047Y46834D01*
X-13078Y46848D01*
X-13112Y46861D01*
X-13158Y46873D01*
X-13211Y46882D01*
X-13274Y46885D01*
D02*
G37*
G36*
X-14900Y46873D02*
X-15279D01*
Y46393D01*
X-14886D01*
X-14856Y46395D01*
X-14824Y46397D01*
X-14792Y46400D01*
X-14759Y46404D01*
X-14734Y46409D01*
X-14729Y46411D01*
X-14720Y46413D01*
X-14706Y46420D01*
X-14687Y46429D01*
X-14669Y46439D01*
X-14648Y46453D01*
X-14627Y46471D01*
X-14611Y46490D01*
X-14609Y46492D01*
X-14604Y46499D01*
X-14597Y46513D01*
X-14591Y46529D01*
X-14584Y46547D01*
X-14577Y46570D01*
X-14572Y46598D01*
X-14570Y46628D01*
Y46633D01*
Y46642D01*
X-14572Y46656D01*
X-14574Y46674D01*
X-14579Y46698D01*
X-14586Y46721D01*
X-14595Y46744D01*
X-14609Y46767D01*
X-14611Y46769D01*
X-14616Y46776D01*
X-14625Y46788D01*
X-14637Y46799D01*
X-14653Y46813D01*
X-14671Y46827D01*
X-14694Y46841D01*
X-14720Y46850D01*
X-14722D01*
X-14734Y46854D01*
X-14750Y46857D01*
X-14775Y46861D01*
X-14810Y46866D01*
X-14849Y46868D01*
X-14900Y46873D01*
D02*
G37*
G36*
X-14859Y46203D02*
X-15279D01*
Y45653D01*
X-14824D01*
X-14775Y45656D01*
X-14754Y45658D01*
X-14736Y45660D01*
X-14734D01*
X-14725Y45663D01*
X-14711Y45665D01*
X-14694Y45669D01*
X-14655Y45683D01*
X-14616Y45702D01*
X-14614Y45704D01*
X-14607Y45709D01*
X-14597Y45716D01*
X-14586Y45725D01*
X-14574Y45739D01*
X-14558Y45753D01*
X-14547Y45771D01*
X-14533Y45792D01*
X-14530Y45794D01*
X-14528Y45801D01*
X-14524Y45815D01*
X-14517Y45831D01*
X-14510Y45850D01*
X-14505Y45873D01*
X-14503Y45900D01*
X-14500Y45928D01*
Y45933D01*
Y45942D01*
X-14503Y45961D01*
X-14507Y45981D01*
X-14512Y46005D01*
X-14521Y46030D01*
X-14533Y46055D01*
X-14549Y46081D01*
X-14551Y46083D01*
X-14558Y46092D01*
X-14567Y46104D01*
X-14581Y46118D01*
X-14600Y46134D01*
X-14623Y46150D01*
X-14648Y46164D01*
X-14678Y46175D01*
X-14683Y46178D01*
X-14692Y46180D01*
X-14713Y46185D01*
X-14738Y46189D01*
X-14771Y46194D01*
X-14810Y46198D01*
X-14859Y46203D01*
D02*
G37*
G36*
X-9301Y43546D02*
X-9303D01*
X-9305Y43544D01*
X-9312Y43541D01*
X-9321Y43539D01*
X-9333Y43534D01*
X-9347Y43530D01*
X-9363Y43525D01*
X-9381Y43521D01*
X-9402Y43514D01*
X-9428Y43509D01*
X-9453Y43502D01*
X-9483Y43495D01*
X-9515Y43488D01*
X-9548Y43481D01*
X-9585Y43477D01*
X-9624Y43470D01*
X-9629D01*
X-9642Y43468D01*
X-9666Y43463D01*
X-9691Y43458D01*
X-9719Y43454D01*
X-9746Y43447D01*
X-9772Y43440D01*
X-9795Y43431D01*
X-9797D01*
X-9804Y43426D01*
X-9813Y43421D01*
X-9823Y43414D01*
X-9850Y43396D01*
X-9873Y43368D01*
Y43366D01*
X-9878Y43361D01*
X-9880Y43352D01*
X-9885Y43340D01*
X-9890Y43327D01*
X-9894Y43313D01*
X-9897Y43294D01*
X-9899Y43276D01*
Y43273D01*
Y43262D01*
X-9897Y43248D01*
X-9892Y43230D01*
X-9885Y43209D01*
X-9873Y43188D01*
X-9860Y43165D01*
X-9841Y43144D01*
X-9839Y43142D01*
X-9830Y43137D01*
X-9816Y43128D01*
X-9797Y43119D01*
X-9772Y43109D01*
X-9742Y43100D01*
X-9707Y43096D01*
X-9666Y43093D01*
X-9647D01*
X-9624Y43096D01*
X-9599Y43100D01*
X-9566Y43105D01*
X-9534Y43114D01*
X-9499Y43126D01*
X-9465Y43142D01*
X-9460Y43144D01*
X-9451Y43151D01*
X-9435Y43163D01*
X-9416Y43179D01*
X-9395Y43197D01*
X-9372Y43220D01*
X-9354Y43248D01*
X-9335Y43278D01*
X-9333Y43280D01*
X-9331Y43290D01*
X-9326Y43306D01*
X-9319Y43327D01*
X-9312Y43354D01*
X-9307Y43387D01*
X-9305Y43426D01*
X-9303Y43472D01*
X-9301Y43546D01*
D02*
G37*
G36*
X-13768D02*
X-13770D01*
X-13773Y43544D01*
X-13780Y43541D01*
X-13789Y43539D01*
X-13801Y43534D01*
X-13814Y43530D01*
X-13830Y43525D01*
X-13849Y43521D01*
X-13870Y43514D01*
X-13895Y43509D01*
X-13921Y43502D01*
X-13951Y43495D01*
X-13983Y43488D01*
X-14015Y43481D01*
X-14052Y43477D01*
X-14092Y43470D01*
X-14096D01*
X-14110Y43468D01*
X-14133Y43463D01*
X-14159Y43458D01*
X-14186Y43454D01*
X-14214Y43447D01*
X-14239Y43440D01*
X-14263Y43431D01*
X-14265D01*
X-14272Y43426D01*
X-14281Y43421D01*
X-14290Y43414D01*
X-14318Y43396D01*
X-14341Y43368D01*
Y43366D01*
X-14346Y43361D01*
X-14348Y43352D01*
X-14353Y43340D01*
X-14357Y43327D01*
X-14362Y43313D01*
X-14364Y43294D01*
X-14366Y43276D01*
Y43273D01*
Y43262D01*
X-14364Y43248D01*
X-14359Y43230D01*
X-14353Y43209D01*
X-14341Y43188D01*
X-14327Y43165D01*
X-14309Y43144D01*
X-14306Y43142D01*
X-14297Y43137D01*
X-14283Y43128D01*
X-14265Y43119D01*
X-14239Y43109D01*
X-14209Y43100D01*
X-14175Y43096D01*
X-14133Y43093D01*
X-14115D01*
X-14092Y43096D01*
X-14066Y43100D01*
X-14034Y43105D01*
X-14002Y43114D01*
X-13967Y43126D01*
X-13932Y43142D01*
X-13927Y43144D01*
X-13918Y43151D01*
X-13902Y43163D01*
X-13884Y43179D01*
X-13863Y43197D01*
X-13840Y43220D01*
X-13821Y43248D01*
X-13803Y43278D01*
X-13801Y43280D01*
X-13798Y43290D01*
X-13794Y43306D01*
X-13787Y43327D01*
X-13780Y43354D01*
X-13775Y43387D01*
X-13773Y43426D01*
X-13770Y43472D01*
X-13768Y43546D01*
D02*
G37*
G36*
X9066Y46328D02*
X9052D01*
X9043Y46325D01*
X9020Y46323D01*
X8988Y46316D01*
X8953Y46305D01*
X8914Y46286D01*
X8877Y46263D01*
X8840Y46231D01*
X8835Y46226D01*
X8826Y46215D01*
X8810Y46194D01*
X8794Y46164D01*
X8777Y46129D01*
X8761Y46085D01*
X8752Y46037D01*
X8747Y45981D01*
Y45977D01*
Y45965D01*
X8750Y45944D01*
X8752Y45919D01*
X8757Y45889D01*
X8766Y45857D01*
X8775Y45822D01*
X8789Y45787D01*
X8791Y45783D01*
X8798Y45771D01*
X8807Y45755D01*
X8821Y45734D01*
X8838Y45713D01*
X8858Y45688D01*
X8881Y45667D01*
X8909Y45646D01*
X8914Y45644D01*
X8923Y45640D01*
X8939Y45630D01*
X8960Y45623D01*
X8983Y45614D01*
X9011Y45605D01*
X9041Y45600D01*
X9073Y45598D01*
X9085D01*
X9094Y45600D01*
X9117Y45603D01*
X9147Y45609D01*
X9179Y45623D01*
X9216Y45640D01*
X9253Y45665D01*
X9272Y45679D01*
X9288Y45697D01*
Y45700D01*
X9293Y45702D01*
X9302Y45716D01*
X9316Y45739D01*
X9334Y45769D01*
X9350Y45808D01*
X9364Y45854D01*
X9373Y45907D01*
X9378Y45970D01*
Y45972D01*
Y45977D01*
Y45986D01*
X9376Y45998D01*
Y46011D01*
X9373Y46028D01*
X9366Y46064D01*
X9357Y46106D01*
X9341Y46150D01*
X9318Y46192D01*
X9288Y46231D01*
X9283Y46235D01*
X9272Y46247D01*
X9253Y46261D01*
X9228Y46279D01*
X9196Y46298D01*
X9159Y46312D01*
X9115Y46323D01*
X9066Y46328D01*
D02*
G37*
G36*
X-15277Y43987D02*
X-15290D01*
X-15300Y43985D01*
X-15325Y43983D01*
X-15355Y43976D01*
X-15392Y43964D01*
X-15431Y43948D01*
X-15468Y43925D01*
X-15505Y43895D01*
X-15510Y43890D01*
X-15519Y43879D01*
X-15535Y43858D01*
X-15552Y43830D01*
X-15570Y43798D01*
X-15586Y43756D01*
X-15600Y43708D01*
X-15607Y43655D01*
X-14958D01*
Y43657D01*
Y43661D01*
X-14960Y43668D01*
Y43678D01*
X-14965Y43705D01*
X-14972Y43736D01*
X-14983Y43772D01*
X-14995Y43807D01*
X-15013Y43842D01*
X-15034Y43872D01*
Y43874D01*
X-15039Y43876D01*
X-15050Y43890D01*
X-15071Y43909D01*
X-15099Y43929D01*
X-15133Y43950D01*
X-15175Y43969D01*
X-15223Y43983D01*
X-15249Y43985D01*
X-15277Y43987D01*
D02*
G37*
G36*
X4095Y46328D02*
X4081D01*
X4072Y46325D01*
X4049Y46323D01*
X4016Y46316D01*
X3982Y46305D01*
X3943Y46286D01*
X3906Y46263D01*
X3869Y46231D01*
X3864Y46226D01*
X3855Y46215D01*
X3839Y46194D01*
X3822Y46164D01*
X3806Y46129D01*
X3790Y46085D01*
X3781Y46037D01*
X3776Y45981D01*
Y45977D01*
Y45965D01*
X3779Y45944D01*
X3781Y45919D01*
X3785Y45889D01*
X3795Y45857D01*
X3804Y45822D01*
X3818Y45787D01*
X3820Y45783D01*
X3827Y45771D01*
X3836Y45755D01*
X3850Y45734D01*
X3866Y45713D01*
X3887Y45688D01*
X3910Y45667D01*
X3938Y45646D01*
X3943Y45644D01*
X3952Y45640D01*
X3968Y45630D01*
X3989Y45623D01*
X4012Y45614D01*
X4040Y45605D01*
X4070Y45600D01*
X4102Y45598D01*
X4114D01*
X4123Y45600D01*
X4146Y45603D01*
X4176Y45609D01*
X4208Y45623D01*
X4245Y45640D01*
X4282Y45665D01*
X4301Y45679D01*
X4317Y45697D01*
Y45700D01*
X4321Y45702D01*
X4331Y45716D01*
X4345Y45739D01*
X4363Y45769D01*
X4379Y45808D01*
X4393Y45854D01*
X4402Y45907D01*
X4407Y45970D01*
Y45972D01*
Y45977D01*
Y45986D01*
X4405Y45998D01*
Y46011D01*
X4402Y46028D01*
X4395Y46064D01*
X4386Y46106D01*
X4370Y46150D01*
X4347Y46192D01*
X4317Y46231D01*
X4312Y46235D01*
X4301Y46247D01*
X4282Y46261D01*
X4257Y46279D01*
X4224Y46298D01*
X4188Y46312D01*
X4144Y46323D01*
X4095Y46328D01*
D02*
G37*
G36*
X6581D02*
X6567D01*
X6558Y46325D01*
X6534Y46323D01*
X6502Y46316D01*
X6467Y46305D01*
X6428Y46286D01*
X6391Y46263D01*
X6354Y46231D01*
X6350Y46226D01*
X6340Y46215D01*
X6324Y46194D01*
X6308Y46164D01*
X6292Y46129D01*
X6276Y46085D01*
X6267Y46037D01*
X6262Y45981D01*
Y45977D01*
Y45965D01*
X6264Y45944D01*
X6267Y45919D01*
X6271Y45889D01*
X6280Y45857D01*
X6290Y45822D01*
X6303Y45787D01*
X6306Y45783D01*
X6313Y45771D01*
X6322Y45755D01*
X6336Y45734D01*
X6352Y45713D01*
X6373Y45688D01*
X6396Y45667D01*
X6424Y45646D01*
X6428Y45644D01*
X6437Y45640D01*
X6454Y45630D01*
X6474Y45623D01*
X6498Y45614D01*
X6525Y45605D01*
X6555Y45600D01*
X6588Y45598D01*
X6599D01*
X6608Y45600D01*
X6632Y45603D01*
X6662Y45609D01*
X6694Y45623D01*
X6731Y45640D01*
X6768Y45665D01*
X6786Y45679D01*
X6802Y45697D01*
Y45700D01*
X6807Y45702D01*
X6816Y45716D01*
X6830Y45739D01*
X6849Y45769D01*
X6865Y45808D01*
X6879Y45854D01*
X6888Y45907D01*
X6893Y45970D01*
Y45972D01*
Y45977D01*
Y45986D01*
X6890Y45998D01*
Y46011D01*
X6888Y46028D01*
X6881Y46064D01*
X6872Y46106D01*
X6855Y46150D01*
X6832Y46192D01*
X6802Y46231D01*
X6798Y46235D01*
X6786Y46247D01*
X6768Y46261D01*
X6742Y46279D01*
X6710Y46298D01*
X6673Y46312D01*
X6629Y46323D01*
X6581Y46328D01*
D02*
G37*
%LPD*%
D18*
X10294Y66964D02*
G03*
X10294Y66964I-6693J0D01*
G01*
D19*
X14232D02*
G03*
X14232Y66964I-10630J0D01*
G01*
D20*
X-5120Y39408D02*
X12518D01*
X-1181Y34646D02*
X8661D01*
X-1181Y35433D02*
X8661D01*
X-1181Y11811D02*
X8661D01*
X-1181Y5512D02*
X8661D01*
D21*
X24633Y47443D02*
X26581Y45495D01*
X19622Y42432D02*
X21570Y40484D01*
X19622Y42432D02*
X21431Y44242D01*
X22823Y45634D02*
X24633Y47443D01*
X21570Y40484D02*
X23380Y42293D01*
X24772Y43685D02*
X26581Y45495D01*
M02*
