G04 Layer_Color=2752767*
%FSLAX25Y25*%
%MOIN*%
G70*
G01*
G75*
%ADD10C,0.00200*%
D10*
X1200Y14700D02*
Y16300D01*
X2800D01*
Y14700D01*
X1200D01*
Y22700D02*
Y24300D01*
X2800D01*
Y22700D01*
X1200D01*
Y26700D02*
Y28300D01*
X2800D01*
Y26700D01*
X1200D01*
X1714Y62663D02*
Y64263D01*
X3314D01*
Y62663D01*
X1714D01*
X-16013Y76176D02*
Y77776D01*
X-14413D01*
Y76176D01*
X-16013D01*
Y73076D02*
Y74676D01*
X-14413D01*
Y73076D01*
X-16013D01*
Y69976D02*
Y71576D01*
X-14413D01*
Y69976D01*
X-16013D01*
Y60676D02*
Y62276D01*
X-14413D01*
Y60676D01*
X-16013D01*
Y63776D02*
Y65376D01*
X-14413D01*
Y63776D01*
X-16013D01*
Y66876D02*
Y68476D01*
X-14413D01*
Y66876D01*
X-16013D01*
X20987D02*
Y68476D01*
X22587D01*
Y66876D01*
X20987D01*
Y63776D02*
Y65376D01*
X22587D01*
Y63776D01*
X20987D01*
Y60676D02*
Y62276D01*
X22587D01*
Y60676D01*
X20987D01*
Y69976D02*
Y71576D01*
X22587D01*
Y69976D01*
X20987D01*
Y73076D02*
Y74676D01*
X22587D01*
Y73076D01*
X20987D01*
Y76176D02*
Y77776D01*
X22587D01*
Y76176D01*
X20987D01*
X4950Y41700D02*
Y43300D01*
X6550D01*
Y41700D01*
X4950D01*
X23694Y49556D02*
Y51156D01*
X25293D01*
Y49556D01*
X23694D01*
X1200Y49200D02*
Y50800D01*
X2800D01*
Y49200D01*
X1200D01*
Y18700D02*
Y20300D01*
X2800D01*
Y18700D01*
X1200D01*
Y30700D02*
Y32300D01*
X2800D01*
Y30700D01*
X1200D01*
M02*
