M48
;Layer_Color=9474304
;FILE_FORMAT=2:5
INCH,LZ
;TYPE=PLATED
T1F00S00C0.01200
%
T01
X0002Y00155
Y00195
Y00235
Y00275
Y00315
X000575Y00425
X0002Y005
X0002514Y0063463
X-0015213Y0064576
Y0061476
Y0067676
Y0070776
Y0073876
Y0076976
X0021787
Y0073876
Y0070776
Y0067676
Y0064576
Y0061476
X0024494Y0050356
M30
