*
%FSLAX26Y26*%
%MOIN*%
%ADD10C,0.003937*%
%IPPOS*%
%LNsz06c02893a0.gko*%
%LPD*%
G75*
G54D10*
X2728340Y303144D02*
G03X2708660Y283464I5J-19685D01*
X2685040Y240154D02*
G03X2708660Y259844I1970J21650D01*
X3255900D02*
G03X3275590Y240154I19690J0D01*
X3255900Y283464D02*
G03X3236220Y303144I-19685J-5D01*
X3551180Y1434164D02*
G03X3531490Y1413384I545J-20235D01*
X118110Y641724D02*
G03X137790Y661414I-5J19685D01*
X20730Y641724D02*
G03X0Y622044I-520J-20210D01*
X3263770Y1401174D02*
G03X3283460Y1381494I19685J5D01*
X3452750D02*
G03X3472440Y1401174I0J19690D01*
Y1413384D02*
G03X3452750Y1433154I-19730J40D01*
X3511810Y1318514D02*
G03X3531490Y1338184I5J19675D01*
X3598420Y1608354D02*
G03X3586610Y1620174I-11815J5D01*
X3586480Y1434154D02*
G03X3598290Y1445964I0J11810D01*
X3410480Y1445154D02*
G03X3422290Y1433344I11810J0D01*
X3422330Y1620174D02*
G03X3410520Y1608354I0J-11810D01*
X3440940Y1318514D02*
G03X3421250Y1299204I-190J-19500D01*
X3283460Y1732284D02*
G03X3263770Y1712594I0J-19690D01*
X3578740Y1732284D02*
G03X3598420Y1751964I-5J19685D01*
Y1972434D02*
G03X3440940Y2129914I-157480J0D01*
Y240154D02*
G03X3598420Y397634I0J157480D01*
X157480Y2129914D02*
G03X0Y1972434I0J-157480D01*
Y397634D02*
G03X157480Y240154I157480J-0D01*
X137790Y875154D02*
G03X118110Y895884I-20210J520D01*
X137790Y1639764D02*
G03X122040Y1659444I-17716J1964D01*
Y1344484D02*
G03X137790Y1364174I-1970J17720D01*
X23620Y1344484D02*
G03X0Y1324804I-1970J-21650D01*
Y1679134D02*
G03X23620Y1659444I21656J1965D01*
X0Y915674D02*
G03X19630Y896044I19630J-0D01*
X3598420Y1035364D02*
G03X3578740Y1055054I-19690J0D01*
X3421250Y1074804D02*
G03X3440940Y1055114I19690J0D01*
X2708660Y259844D02*
G01Y283464D01*
X3255900Y259844D02*
Y283464D01*
X20730Y641724D02*
X118110D01*
X3551180Y1434164D02*
X3588470D01*
X3283460Y1381494D02*
X3452750D01*
X3440940Y1318514D02*
X3511810D01*
X3472440Y1401174D02*
Y1413384D01*
X3531490Y1338184D02*
Y1413384D01*
X3424210Y1433154D02*
X3452750D01*
X3410520Y1446154D02*
Y1608354D01*
X3598420Y1446154D02*
Y1608354D01*
X137790Y1364174D02*
Y1639764D01*
X0Y915674D02*
Y1324804D01*
X19630Y895884D02*
X118110D01*
X137790Y661414D02*
Y876214D01*
X3422330Y1620174D02*
X3584740D01*
X3283460Y1732284D02*
X3578740D01*
X0Y1679134D02*
Y1972434D01*
X157480Y2129914D02*
X3440940D01*
X23620Y1659444D02*
X122040D01*
X23620Y1344484D02*
X122040D01*
X0Y397634D02*
Y622044D01*
X157480Y240154D02*
X2685040D01*
X3598420Y397634D02*
Y1035434D01*
X3440940Y1055114D02*
X3578740D01*
X3421250Y1074804D02*
Y1299204D01*
X3598420Y1751964D02*
Y1972434D01*
X2728340Y303144D02*
X3236220D01*
X3275590Y240154D02*
X3440940D01*
X3263770Y1401174D02*
Y1712594D01*
X2728340Y2271644D02*
G03X2708660Y2251964I5J-19685D01*
X2685040Y2208654D02*
G03X2708660Y2228344I1970J21650D01*
X3255900D02*
G03X3275590Y2208654I19690J0D01*
X3255900Y2251964D02*
G03X3236220Y2271644I-19685J-5D01*
X3551180Y3402664D02*
G03X3531490Y3381884I545J-20235D01*
X118110Y2610224D02*
G03X137790Y2629914I-5J19685D01*
X20730Y2610224D02*
G03X0Y2590544I-520J-20210D01*
X3263770Y3369674D02*
G03X3283460Y3349994I19685J5D01*
X3452750D02*
G03X3472440Y3369674I0J19690D01*
Y3381884D02*
G03X3452750Y3401654I-19730J40D01*
X3511810Y3287014D02*
G03X3531490Y3306684I5J19675D01*
X3598420Y3576854D02*
G03X3586610Y3588674I-11815J5D01*
X3586480Y3402654D02*
G03X3598290Y3414464I0J11810D01*
X3410480Y3413654D02*
G03X3422290Y3401844I11810J0D01*
X3422330Y3588674D02*
G03X3410520Y3576854I0J-11810D01*
X3440940Y3287014D02*
G03X3421250Y3267704I-190J-19500D01*
X3283460Y3700784D02*
G03X3263770Y3681094I0J-19690D01*
X3578740Y3700784D02*
G03X3598420Y3720464I-5J19685D01*
Y3940934D02*
G03X3440940Y4098414I-157480J0D01*
Y2208654D02*
G03X3598420Y2366134I0J157480D01*
X157480Y4098414D02*
G03X0Y3940934I0J-157480D01*
Y2366134D02*
G03X157480Y2208654I157480J-0D01*
X137790Y2843654D02*
G03X118110Y2864384I-20210J520D01*
X137790Y3608264D02*
G03X122040Y3627944I-17716J1964D01*
Y3312984D02*
G03X137790Y3332674I-1970J17720D01*
X23620Y3312984D02*
G03X0Y3293304I-1970J-21650D01*
Y3647634D02*
G03X23620Y3627944I21656J1965D01*
X0Y2884174D02*
G03X19630Y2864544I19630J-0D01*
X3598420Y3003864D02*
G03X3578740Y3023554I-19690J0D01*
X3421250Y3043304D02*
G03X3440940Y3023614I19690J0D01*
X2708660Y2228344D02*
G01Y2251964D01*
X3255900Y2228344D02*
Y2251964D01*
X20730Y2610224D02*
X118110D01*
X3551180Y3402664D02*
X3588470D01*
X3283460Y3349994D02*
X3452750D01*
X3440940Y3287014D02*
X3511810D01*
X3472440Y3369674D02*
Y3381884D01*
X3531490Y3306684D02*
Y3381884D01*
X3424210Y3401654D02*
X3452750D01*
X3410520Y3414654D02*
Y3576854D01*
X3598420Y3414654D02*
Y3576854D01*
X137790Y3332674D02*
Y3608264D01*
X0Y2884174D02*
Y3293304D01*
X19630Y2864384D02*
X118110D01*
X137790Y2629914D02*
Y2844714D01*
X3422330Y3588674D02*
X3584740D01*
X3283460Y3700784D02*
X3578740D01*
X0Y3647634D02*
Y3940934D01*
X157480Y4098414D02*
X3440940D01*
X23620Y3627944D02*
X122040D01*
X23620Y3312984D02*
X122040D01*
X0Y2366134D02*
Y2590544D01*
X157480Y2208654D02*
X2685040D01*
X3598420Y2366134D02*
Y3003934D01*
X3440940Y3023614D02*
X3578740D01*
X3421250Y3043304D02*
Y3267704D01*
X3598420Y3720464D02*
Y3940934D01*
X2728340Y2271644D02*
X3236220D01*
X3275590Y2208654D02*
X3440940D01*
X3263770Y3369674D02*
Y3681094D01*
X2728340Y4240145D02*
G03X2708660Y4220465I5J-19685D01*
X2685040Y4177155D02*
G03X2708660Y4196845I1970J21650D01*
X3255900D02*
G03X3275590Y4177155I19690J0D01*
X3255900Y4220465D02*
G03X3236220Y4240145I-19685J-5D01*
X3551180Y5371165D02*
G03X3531490Y5350385I545J-20235D01*
X118110Y4578725D02*
G03X137790Y4598415I-5J19685D01*
X20730Y4578725D02*
G03X0Y4559045I-520J-20210D01*
X3263770Y5338175D02*
G03X3283460Y5318495I19685J5D01*
X3452750D02*
G03X3472440Y5338175I0J19690D01*
Y5350385D02*
G03X3452750Y5370155I-19730J40D01*
X3511810Y5255515D02*
G03X3531490Y5275185I5J19675D01*
X3598420Y5545355D02*
G03X3586610Y5557175I-11815J5D01*
X3586480Y5371155D02*
G03X3598290Y5382965I0J11810D01*
X3410480Y5382155D02*
G03X3422290Y5370345I11810J0D01*
X3422330Y5557175D02*
G03X3410520Y5545355I0J-11810D01*
X3440940Y5255515D02*
G03X3421250Y5236205I-190J-19500D01*
X3283460Y5669285D02*
G03X3263770Y5649595I0J-19690D01*
X3578740Y5669285D02*
G03X3598420Y5688965I-5J19685D01*
Y5909435D02*
G03X3440940Y6066915I-157480J0D01*
Y4177155D02*
G03X3598420Y4334635I0J157480D01*
X157480Y6066915D02*
G03X0Y5909435I0J-157480D01*
Y4334635D02*
G03X157480Y4177155I157480J-0D01*
X137790Y4812155D02*
G03X118110Y4832885I-20210J520D01*
X137790Y5576765D02*
G03X122040Y5596445I-17716J1964D01*
Y5281485D02*
G03X137790Y5301175I-1970J17720D01*
X23620Y5281485D02*
G03X0Y5261805I-1970J-21650D01*
Y5616135D02*
G03X23620Y5596445I21656J1965D01*
X0Y4852675D02*
G03X19630Y4833045I19630J-0D01*
X3598420Y4972365D02*
G03X3578740Y4992055I-19690J0D01*
X3421250Y5011805D02*
G03X3440940Y4992115I19690J0D01*
X2708660Y4196845D02*
G01Y4220465D01*
X3255900Y4196845D02*
Y4220465D01*
X20730Y4578725D02*
X118110D01*
X3551180Y5371165D02*
X3588470D01*
X3283460Y5318495D02*
X3452750D01*
X3440940Y5255515D02*
X3511810D01*
X3472440Y5338175D02*
Y5350385D01*
X3531490Y5275185D02*
Y5350385D01*
X3424210Y5370155D02*
X3452750D01*
X3410520Y5383155D02*
Y5545355D01*
X3598420Y5383155D02*
Y5545355D01*
X137790Y5301175D02*
Y5576765D01*
X0Y4852675D02*
Y5261805D01*
X19630Y4832885D02*
X118110D01*
X137790Y4598415D02*
Y4813215D01*
X3422330Y5557175D02*
X3584740D01*
X3283460Y5669285D02*
X3578740D01*
X0Y5616135D02*
Y5909435D01*
X157480Y6066915D02*
X3440940D01*
X23620Y5596445D02*
X122040D01*
X23620Y5281485D02*
X122040D01*
X0Y4334635D02*
Y4559045D01*
X157480Y4177155D02*
X2685040D01*
X3598420Y4334635D02*
Y4972435D01*
X3440940Y4992115D02*
X3578740D01*
X3421250Y5011805D02*
Y5236205D01*
X3598420Y5688965D02*
Y5909435D01*
X2728340Y4240145D02*
X3236220D01*
X3275590Y4177155D02*
X3440940D01*
X3263770Y5338175D02*
Y5649595D01*
X6405500Y303144D02*
G03X6385820Y283464I5J-19685D01*
X6362200Y240154D02*
G03X6385820Y259844I1970J21650D01*
X6933060D02*
G03X6952750Y240154I19690J0D01*
X6933060Y283464D02*
G03X6913380Y303144I-19685J-5D01*
X7228340Y1434164D02*
G03X7208650Y1413384I545J-20235D01*
X3795270Y641724D02*
G03X3814950Y661414I-5J19685D01*
X3697890Y641724D02*
G03X3677160Y622044I-520J-20210D01*
X6940930Y1401174D02*
G03X6960620Y1381494I19685J5D01*
X7129910D02*
G03X7149600Y1401174I0J19690D01*
Y1413384D02*
G03X7129910Y1433154I-19730J40D01*
X7188970Y1318514D02*
G03X7208650Y1338184I5J19675D01*
X7275580Y1608354D02*
G03X7263770Y1620174I-11815J5D01*
X7263640Y1434154D02*
G03X7275450Y1445964I0J11810D01*
X7087640Y1445154D02*
G03X7099450Y1433344I11810J0D01*
X7099490Y1620174D02*
G03X7087680Y1608354I0J-11810D01*
X7118100Y1318514D02*
G03X7098410Y1299204I-190J-19500D01*
X6960620Y1732284D02*
G03X6940930Y1712594I0J-19690D01*
X7255900Y1732284D02*
G03X7275580Y1751964I-5J19685D01*
Y1972434D02*
G03X7118100Y2129914I-157480J0D01*
Y240154D02*
G03X7275580Y397634I0J157480D01*
X3834640Y2129914D02*
G03X3677160Y1972434I0J-157480D01*
Y397634D02*
G03X3834640Y240154I157480J-0D01*
X3814950Y875154D02*
G03X3795270Y895884I-20210J520D01*
X3814950Y1639764D02*
G03X3799200Y1659444I-17716J1964D01*
Y1344484D02*
G03X3814950Y1364174I-1970J17720D01*
X3700780Y1344484D02*
G03X3677160Y1324804I-1970J-21650D01*
Y1679134D02*
G03X3700780Y1659444I21656J1965D01*
X3677160Y915674D02*
G03X3696790Y896044I19630J-0D01*
X7275580Y1035364D02*
G03X7255900Y1055054I-19690J0D01*
X7098410Y1074804D02*
G03X7118100Y1055114I19690J0D01*
X6385820Y259844D02*
G01Y283464D01*
X6933060Y259844D02*
Y283464D01*
X3697890Y641724D02*
X3795270D01*
X7228340Y1434164D02*
X7265630D01*
X6960620Y1381494D02*
X7129910D01*
X7118100Y1318514D02*
X7188970D01*
X7149600Y1401174D02*
Y1413384D01*
X7208650Y1338184D02*
Y1413384D01*
X7101370Y1433154D02*
X7129910D01*
X7087680Y1446154D02*
Y1608354D01*
X7275580Y1446154D02*
Y1608354D01*
X3814950Y1364174D02*
Y1639764D01*
X3677160Y915674D02*
Y1324804D01*
X3696790Y895884D02*
X3795270D01*
X3814950Y661414D02*
Y876214D01*
X7099490Y1620174D02*
X7261900D01*
X6960620Y1732284D02*
X7255900D01*
X3677160Y1679134D02*
Y1972434D01*
X3834640Y2129914D02*
X7118100D01*
X3700780Y1659444D02*
X3799200D01*
X3700780Y1344484D02*
X3799200D01*
X3677160Y397634D02*
Y622044D01*
X3834640Y240154D02*
X6362200D01*
X7275580Y397634D02*
Y1035434D01*
X7118100Y1055114D02*
X7255900D01*
X7098410Y1074804D02*
Y1299204D01*
X7275580Y1751964D02*
Y1972434D01*
X6405500Y303144D02*
X6913380D01*
X6952750Y240154D02*
X7118100D01*
X6940930Y1401174D02*
Y1712594D01*
X6405500Y2271644D02*
G03X6385820Y2251964I5J-19685D01*
X6362200Y2208654D02*
G03X6385820Y2228344I1970J21650D01*
X6933060D02*
G03X6952750Y2208654I19690J0D01*
X6933060Y2251964D02*
G03X6913380Y2271644I-19685J-5D01*
X7228340Y3402664D02*
G03X7208650Y3381884I545J-20235D01*
X3795270Y2610224D02*
G03X3814950Y2629914I-5J19685D01*
X3697890Y2610224D02*
G03X3677160Y2590544I-520J-20210D01*
X6940930Y3369674D02*
G03X6960620Y3349994I19685J5D01*
X7129910D02*
G03X7149600Y3369674I0J19690D01*
Y3381884D02*
G03X7129910Y3401654I-19730J40D01*
X7188970Y3287014D02*
G03X7208650Y3306684I5J19675D01*
X7275580Y3576854D02*
G03X7263770Y3588674I-11815J5D01*
X7263640Y3402654D02*
G03X7275450Y3414464I0J11810D01*
X7087640Y3413654D02*
G03X7099450Y3401844I11810J0D01*
X7099490Y3588674D02*
G03X7087680Y3576854I0J-11810D01*
X7118100Y3287014D02*
G03X7098410Y3267704I-190J-19500D01*
X6960620Y3700784D02*
G03X6940930Y3681094I0J-19690D01*
X7255900Y3700784D02*
G03X7275580Y3720464I-5J19685D01*
Y3940934D02*
G03X7118100Y4098414I-157480J0D01*
Y2208654D02*
G03X7275580Y2366134I0J157480D01*
X3834640Y4098414D02*
G03X3677160Y3940934I0J-157480D01*
Y2366134D02*
G03X3834640Y2208654I157480J-0D01*
X3814950Y2843654D02*
G03X3795270Y2864384I-20210J520D01*
X3814950Y3608264D02*
G03X3799200Y3627944I-17716J1964D01*
Y3312984D02*
G03X3814950Y3332674I-1970J17720D01*
X3700780Y3312984D02*
G03X3677160Y3293304I-1970J-21650D01*
Y3647634D02*
G03X3700780Y3627944I21656J1965D01*
X3677160Y2884174D02*
G03X3696790Y2864544I19630J-0D01*
X7275580Y3003864D02*
G03X7255900Y3023554I-19690J0D01*
X7098410Y3043304D02*
G03X7118100Y3023614I19690J0D01*
X6385820Y2228344D02*
G01Y2251964D01*
X6933060Y2228344D02*
Y2251964D01*
X3697890Y2610224D02*
X3795270D01*
X7228340Y3402664D02*
X7265630D01*
X6960620Y3349994D02*
X7129910D01*
X7118100Y3287014D02*
X7188970D01*
X7149600Y3369674D02*
Y3381884D01*
X7208650Y3306684D02*
Y3381884D01*
X7101370Y3401654D02*
X7129910D01*
X7087680Y3414654D02*
Y3576854D01*
X7275580Y3414654D02*
Y3576854D01*
X3814950Y3332674D02*
Y3608264D01*
X3677160Y2884174D02*
Y3293304D01*
X3696790Y2864384D02*
X3795270D01*
X3814950Y2629914D02*
Y2844714D01*
X7099490Y3588674D02*
X7261900D01*
X6960620Y3700784D02*
X7255900D01*
X3677160Y3647634D02*
Y3940934D01*
X3834640Y4098414D02*
X7118100D01*
X3700780Y3627944D02*
X3799200D01*
X3700780Y3312984D02*
X3799200D01*
X3677160Y2366134D02*
Y2590544D01*
X3834640Y2208654D02*
X6362200D01*
X7275580Y2366134D02*
Y3003934D01*
X7118100Y3023614D02*
X7255900D01*
X7098410Y3043304D02*
Y3267704D01*
X7275580Y3720464D02*
Y3940934D01*
X6405500Y2271644D02*
X6913380D01*
X6952750Y2208654D02*
X7118100D01*
X6940930Y3369674D02*
Y3681094D01*
X6405500Y4240145D02*
G03X6385820Y4220465I5J-19685D01*
X6362200Y4177155D02*
G03X6385820Y4196845I1970J21650D01*
X6933060D02*
G03X6952750Y4177155I19690J0D01*
X6933060Y4220465D02*
G03X6913380Y4240145I-19685J-5D01*
X7228340Y5371165D02*
G03X7208650Y5350385I545J-20235D01*
X3795270Y4578725D02*
G03X3814950Y4598415I-5J19685D01*
X3697890Y4578725D02*
G03X3677160Y4559045I-520J-20210D01*
X6940930Y5338175D02*
G03X6960620Y5318495I19685J5D01*
X7129910D02*
G03X7149600Y5338175I0J19690D01*
Y5350385D02*
G03X7129910Y5370155I-19730J40D01*
X7188970Y5255515D02*
G03X7208650Y5275185I5J19675D01*
X7275580Y5545355D02*
G03X7263770Y5557175I-11815J5D01*
X7263640Y5371155D02*
G03X7275450Y5382965I0J11810D01*
X7087640Y5382155D02*
G03X7099450Y5370345I11810J0D01*
X7099490Y5557175D02*
G03X7087680Y5545355I0J-11810D01*
X7118100Y5255515D02*
G03X7098410Y5236205I-190J-19500D01*
X6960620Y5669285D02*
G03X6940930Y5649595I0J-19690D01*
X7255900Y5669285D02*
G03X7275580Y5688965I-5J19685D01*
Y5909435D02*
G03X7118100Y6066915I-157480J0D01*
Y4177155D02*
G03X7275580Y4334635I0J157480D01*
X3834640Y6066915D02*
G03X3677160Y5909435I0J-157480D01*
Y4334635D02*
G03X3834640Y4177155I157480J-0D01*
X3814950Y4812155D02*
G03X3795270Y4832885I-20210J520D01*
X3814950Y5576765D02*
G03X3799200Y5596445I-17716J1964D01*
Y5281485D02*
G03X3814950Y5301175I-1970J17720D01*
X3700780Y5281485D02*
G03X3677160Y5261805I-1970J-21650D01*
Y5616135D02*
G03X3700780Y5596445I21656J1965D01*
X3677160Y4852675D02*
G03X3696790Y4833045I19630J-0D01*
X7275580Y4972365D02*
G03X7255900Y4992055I-19690J0D01*
X7098410Y5011805D02*
G03X7118100Y4992115I19690J0D01*
X6385820Y4196845D02*
G01Y4220465D01*
X6933060Y4196845D02*
Y4220465D01*
X3697890Y4578725D02*
X3795270D01*
X7228340Y5371165D02*
X7265630D01*
X6960620Y5318495D02*
X7129910D01*
X7118100Y5255515D02*
X7188970D01*
X7149600Y5338175D02*
Y5350385D01*
X7208650Y5275185D02*
Y5350385D01*
X7101370Y5370155D02*
X7129910D01*
X7087680Y5383155D02*
Y5545355D01*
X7275580Y5383155D02*
Y5545355D01*
X3814950Y5301175D02*
Y5576765D01*
X3677160Y4852675D02*
Y5261805D01*
X3696790Y4832885D02*
X3795270D01*
X3814950Y4598415D02*
Y4813215D01*
X7099490Y5557175D02*
X7261900D01*
X6960620Y5669285D02*
X7255900D01*
X3677160Y5616135D02*
Y5909435D01*
X3834640Y6066915D02*
X7118100D01*
X3700780Y5596445D02*
X3799200D01*
X3700780Y5281485D02*
X3799200D01*
X3677160Y4334635D02*
Y4559045D01*
X3834640Y4177155D02*
X6362200D01*
X7275580Y4334635D02*
Y4972435D01*
X7118100Y4992115D02*
X7255900D01*
X7098410Y5011805D02*
Y5236205D01*
X7275580Y5688965D02*
Y5909435D01*
X6405500Y4240145D02*
X6913380D01*
X6952750Y4177155D02*
X7118100D01*
X6940930Y5338175D02*
Y5649595D01*
X3677146Y421265D02*
X3598409D01*
X3677146Y593304D02*
X3598409D01*
Y1799215D02*
X3677146D01*
X3598409Y1948815D02*
X3677146D01*
X775900Y161417D02*
Y240157D01*
X579050Y161417D02*
Y240157D01*
X2409285Y159659D02*
Y240157D01*
X2212435Y161417D02*
Y240157D01*
X1642042Y161417D02*
Y240157D01*
X1445192Y161417D02*
Y240157D01*
X0Y39370D02*
Y161417D01*
X775900Y2129921D02*
Y2208661D01*
X579050Y2129921D02*
Y2208661D01*
X2409285Y2129921D02*
Y2208661D01*
X2212435Y2129921D02*
Y2208661D01*
X1642042Y2129921D02*
Y2208661D01*
X1445192Y2129921D02*
Y2208661D01*
X4453066Y161417D02*
Y240157D01*
X4256215Y161417D02*
Y240157D01*
X6086451Y159659D02*
Y240157D01*
X5889600Y161417D02*
Y240157D01*
X5319207Y161417D02*
Y240157D01*
X5122357Y161417D02*
Y240157D01*
X7275585Y39370D02*
Y161417D01*
X4453066Y2129921D02*
Y2208661D01*
X4256215Y2129921D02*
Y2208661D01*
X6086451Y2129921D02*
Y2208661D01*
X5889600Y2129921D02*
Y2208661D01*
X5319207Y2129921D02*
Y2208661D01*
X5122357Y2129921D02*
Y2208661D01*
X3677146Y2389769D02*
X3598409D01*
X3677146Y2561808D02*
X3598409D01*
Y3767719D02*
X3677146D01*
X3598409Y3917319D02*
X3677146D01*
X775900Y2129921D02*
Y2208661D01*
X579050Y2129921D02*
Y2208661D01*
X2409285Y2128163D02*
Y2208661D01*
X2212435Y2129921D02*
Y2208661D01*
X1642042Y2129921D02*
Y2208661D01*
X1445192Y2129921D02*
Y2208661D01*
X775900Y4098425D02*
Y4177165D01*
X579050Y4098425D02*
Y4177165D01*
X2409285Y4098425D02*
Y4177165D01*
X2212435Y4098425D02*
Y4177165D01*
X1642042Y4098425D02*
Y4177165D01*
X1445192Y4098425D02*
Y4177165D01*
X4453066Y2129921D02*
Y2208661D01*
X4256215Y2129921D02*
Y2208661D01*
X6086451Y2128163D02*
Y2208661D01*
X5889600Y2129921D02*
Y2208661D01*
X5319207Y2129921D02*
Y2208661D01*
X5122357Y2129921D02*
Y2208661D01*
X4453066Y4098425D02*
Y4177165D01*
X4256215Y4098425D02*
Y4177165D01*
X6086451Y4098425D02*
Y4177165D01*
X5889600Y4098425D02*
Y4177165D01*
X5319207Y4098425D02*
Y4177165D01*
X5122357Y4098425D02*
Y4177165D01*
X3677146Y4358272D02*
X3598409D01*
X3677146Y4530312D02*
X3598409D01*
Y5736222D02*
X3677146D01*
X3598409Y5885822D02*
X3677146D01*
X775900Y4098425D02*
Y4177165D01*
X579050Y4098425D02*
Y4177165D01*
X2409285Y4096667D02*
Y4177165D01*
X2212435Y4098425D02*
Y4177165D01*
X1642042Y4098425D02*
Y4177165D01*
X1445192Y4098425D02*
Y4177165D01*
X775900Y6066929D02*
Y6145669D01*
X579050Y6066929D02*
Y6145669D01*
X2409285Y6066929D02*
Y6145669D01*
X2212435Y6066929D02*
Y6145669D01*
X1642042Y6066929D02*
Y6145669D01*
X1445192Y6066929D02*
Y6145669D01*
X4453066Y4098425D02*
Y4177165D01*
X4256215Y4098425D02*
Y4177165D01*
X6086451Y4096667D02*
Y4177165D01*
X5889600Y4098425D02*
Y4177165D01*
X5319207Y4098425D02*
Y4177165D01*
X5122357Y4098425D02*
Y4177165D01*
X4453066Y6066929D02*
Y6145669D01*
X4256215Y6066929D02*
Y6145669D01*
X6086451Y6066929D02*
Y6145669D01*
X5889600Y6066929D02*
Y6145669D01*
X5319207Y6066929D02*
Y6145669D01*
X5122357Y6066929D02*
Y6145669D01*
X0D02*
X7275585D01*
X657790Y161417D02*
X7275585D01*
X39370Y0D02*
X7236215D01*
X39370Y6307087D02*
X7236215D01*
X657790Y161417D02*
X0D01*
X7275585Y6145669D02*
Y6267717D01*
X0Y6145669D02*
Y6267717D01*
X39370Y6307087D02*
G03X0Y6267717I0J-39370D01*
X7275585D02*
G03X7236215Y6307087I-39370J0D01*
Y0D02*
G03X7275585Y39370I0J39370D01*
X0D02*
G03X39370Y0I39370J0D01*
X3598409Y161417D02*
G01Y0D01*
X3677160Y161417D02*
Y0D01*
Y6145669D02*
Y6307087D01*
X3598420Y6145669D02*
Y6307087D01*
M02*
