*
%FSLAX26Y26*%
%MOIN*%
%ADD10C,0.011811*%
%ADD11C,0.007874*%
%ADD12C,0.009843*%
%ADD13C,0.013780*%
%ADD14C,0.017717*%
%ADD15C,0.039370*%
%ADD16C,0.074803*%
%ADD17C,0.082677*%
%ADD18C,0.094488*%
%ADD19C,0.080709*%
%ADD20C,0.027559*%
%IPPOS*%
%LNsz06c02893a0.out*%
%LPD*%
G75*
G54D10*
X3068620Y708154D03*
X3111930D03*
X3155240D03*
Y751464D03*
X3111930D03*
Y794764D03*
X3155240D03*
X3068620D03*
Y751464D03*
G54D11*
X2835480Y461154D03*
X2847480Y526154D03*
X3015650Y596144D03*
X3014650Y614144D03*
G54D12*
X3068650Y613144D03*
G54D11*
X3075480Y577154D03*
X3096480D03*
X2985480Y761154D03*
X3240650Y758644D03*
Y777144D03*
Y740144D03*
X3222650Y840144D03*
Y862144D03*
X3140930Y880984D03*
X3123930Y890984D03*
X2612870Y518934D03*
X2630460Y500454D03*
X2593190Y535724D03*
X2442930Y528984D03*
Y504994D03*
X2441930Y483464D03*
Y552994D03*
X2469650Y606144D03*
X2321930Y609984D03*
X2304930Y630984D03*
X2287930Y645994D03*
X2336930Y586984D03*
X2337480Y468154D03*
X2356930Y455994D03*
X2376650Y442264D03*
X2396340Y431574D03*
X2516930Y438464D03*
X2302110Y483784D03*
X2218930Y482994D03*
G54D12*
X2237650Y458144D03*
Y436144D03*
G54D11*
X2183650Y467144D03*
X2161650D03*
X2123480Y463154D03*
X2084300Y524984D03*
X2081300Y551984D03*
X2065300Y566984D03*
X2052300Y582984D03*
X2033300Y598984D03*
X2015300Y613984D03*
X1999440Y645974D03*
X1985500Y661894D03*
X1971930Y678464D03*
X1951930Y693464D03*
X1936930Y708464D03*
X1921930Y723464D03*
X1911930Y743464D03*
X1916930Y848464D03*
X1751000Y837154D03*
X1733000Y854154D03*
X1714000Y863154D03*
X1754930Y893464D03*
X1737300Y490464D03*
X1706300D03*
X1674300D03*
X1690300Y468464D03*
X1722300D03*
X1753300D03*
X1776930D03*
G54D12*
X1798650Y492144D03*
Y514144D03*
G54D11*
X1916930Y499724D03*
Y478464D03*
G54D12*
X1941650Y491144D03*
G54D11*
X1925930Y520614D03*
X1917300Y629984D03*
X1957300D03*
G54D12*
X2051650Y506144D03*
X2052650Y319144D03*
X2074980D03*
X2097310D03*
X2119650D03*
G54D11*
X2172930Y648984D03*
X2189930Y661994D03*
X2136930Y693464D03*
X2117480Y713154D03*
X2111500Y736844D03*
X2300930Y762254D03*
X2181930Y961254D03*
X1578000Y483154D03*
X1555000D03*
X1533300Y468464D03*
X1501300D03*
X1486930Y490464D03*
X1466930D03*
X1446930D03*
X1517300D03*
X1378500Y468464D03*
X1355500D03*
X1328300D03*
X1311930Y483464D03*
X1296930Y468464D03*
X1276500Y478984D03*
X1391000Y332144D03*
X1370930Y293994D03*
X1438000Y355144D03*
X1469000D03*
X1548630Y323884D03*
X1564380Y337884D03*
X1580130Y351884D03*
X1589930Y299994D03*
X1611620Y301154D03*
X1643120Y351884D03*
X1166300Y465984D03*
X1141300D03*
X1123500Y683984D03*
X1101930Y723464D03*
X958930Y649784D03*
X921480Y615154D03*
X921930Y550604D03*
G54D12*
X732000Y747154D03*
X701000Y746154D03*
X671000Y744154D03*
G54D11*
X841930Y868464D03*
G54D12*
X430650Y807144D03*
X403900D03*
X377150D03*
G54D11*
X376000Y784144D03*
G54D12*
X350400Y807144D03*
X287000Y763154D03*
X306000Y741154D03*
X331000Y707154D03*
G54D11*
X199520Y763674D03*
X214000Y782154D03*
X227000Y800154D03*
G54D12*
X172000Y965154D03*
Y989154D03*
G54D11*
X102000Y983154D03*
G54D12*
X47000Y991154D03*
Y967154D03*
Y942614D03*
X172000Y1013694D03*
G54D11*
X161000Y1156154D03*
G54D12*
X174000Y1191154D03*
Y1215154D03*
Y1239694D03*
Y1264234D03*
G54D11*
X129000Y1300154D03*
G54D12*
X93000Y1303154D03*
X69000D03*
X44460D03*
X40000Y1230234D03*
Y1205694D03*
Y1181154D03*
Y1157154D03*
G54D11*
X211000Y1318154D03*
X236930Y1380984D03*
X246520Y1404074D03*
X276520Y1434074D03*
X306520Y1464074D03*
X421520D03*
G54D12*
X390520Y1501074D03*
X424520Y1533074D03*
X454520Y1563074D03*
G54D11*
X471500Y1606894D03*
X513400Y1656194D03*
X605520Y1664074D03*
G54D12*
X603520Y1701074D03*
X633520Y1730074D03*
X662520Y1760074D03*
X693520Y1790074D03*
G54D11*
X692520Y1851074D03*
G54D12*
X626650Y1866144D03*
X603980D03*
Y1844144D03*
X581310D03*
Y1866144D03*
G54D11*
X566000Y1991144D03*
Y2036144D03*
X722500Y2020894D03*
Y1985894D03*
G54D12*
X770710Y1807634D03*
G54D11*
X794370Y1803114D03*
G54D12*
X816560Y1803014D03*
X939650Y1812144D03*
X970150D03*
X1000650D03*
X1190650D03*
X1212650D03*
X1234650D03*
G54D11*
X1246930Y1418464D03*
X1193300Y1380984D03*
X1078520Y1298074D03*
X1223500Y1167894D03*
X842300Y1037984D03*
X663950Y1155154D03*
X673920Y1189684D03*
X696200Y1211954D03*
X718460Y1234224D03*
X727300Y1293294D03*
X807550Y1323314D03*
X831520Y1344074D03*
X852090Y1367854D03*
X874200Y1390294D03*
X896630Y1412394D03*
X918910Y1434664D03*
X941170Y1456934D03*
X962590Y1480064D03*
X946940Y1514924D03*
X814520Y1472074D03*
X838840Y1446524D03*
X792880Y1403074D03*
X756520Y1418074D03*
X687110Y1371074D03*
X639900Y1373454D03*
X643940Y1351824D03*
X637320Y1471274D03*
X616100Y1492484D03*
X614050Y1448114D03*
X571400Y1408194D03*
X492360Y1415794D03*
X513570Y1439114D03*
X470110Y1393494D03*
X449300Y1369984D03*
X425180Y1349334D03*
G54D12*
X380520Y1391074D03*
X349520Y1361074D03*
X320520Y1331074D03*
X292520Y1298074D03*
X286520Y1269074D03*
X171000Y1404154D03*
Y1428154D03*
Y1452694D03*
Y1477234D03*
Y1501234D03*
Y1525764D03*
Y1550304D03*
Y1574304D03*
Y1598844D03*
Y1623384D03*
G54D11*
X569520Y1729074D03*
X591520Y1529074D03*
X626340Y1549054D03*
X647920Y1572024D03*
X669480Y1595014D03*
X692800Y1616224D03*
X709030Y1635304D03*
X745755Y1670220D03*
X780520Y1693074D03*
X791030Y1626454D03*
X814300Y1604294D03*
X751560Y1583734D03*
X725300Y1557984D03*
X629380Y1145144D03*
G54D12*
X1461930Y1133464D03*
G54D11*
X1531930Y1303464D03*
X1551500Y1309984D03*
X1550480Y1368154D03*
X1533480Y1353154D03*
X1533650Y1418144D03*
X1558480Y1414154D03*
X1611480Y1460154D03*
G54D12*
X1603520Y1499074D03*
X1603480Y1541034D03*
X1603390Y1625204D03*
G54D11*
X1709480Y1608154D03*
X1741480Y1593364D03*
X1777030D03*
X1792500Y1608894D03*
G54D12*
X1789000Y1635144D03*
G54D11*
X1731480Y1642154D03*
X1709000Y1689144D03*
X1722000Y1705144D03*
X1709000Y1722144D03*
X1689000Y1731144D03*
X1722000Y1739894D03*
X1702650Y1829144D03*
X1652650Y1836154D03*
Y1796624D03*
Y1881144D03*
Y1901654D03*
Y1922154D03*
Y1960994D03*
X1693480Y1993154D03*
X1716480D03*
X1719480Y1939764D03*
Y1908154D03*
X1702650Y1896144D03*
Y1923894D03*
X1785650Y1994144D03*
X1908500Y1934894D03*
Y1902894D03*
Y1870894D03*
X1873480Y1877154D03*
X1888500Y1821894D03*
X1908500Y1814894D03*
Y1793894D03*
Y1773894D03*
Y1753894D03*
X1888500Y1748894D03*
X1873000Y1734894D03*
Y1767144D03*
X1888500Y1785394D03*
X1873000Y1801144D03*
X1918000Y1720144D03*
X1904500Y1703894D03*
X1890600Y1687794D03*
X1930000Y1617144D03*
Y1594944D03*
Y1572744D03*
Y1550544D03*
Y1528344D03*
Y1506144D03*
X1900500Y1498984D03*
X1901500Y1477984D03*
Y1455984D03*
X1869500Y1460984D03*
X1821500Y1460894D03*
X1799500D03*
X1776500D03*
X1728500Y1460984D03*
X1705500Y1460894D03*
X1683480Y1461154D03*
X1698500Y1365894D03*
X1662650Y1207144D03*
X1646930Y1193464D03*
X1731500Y1182984D03*
X1731930Y1155984D03*
X1916930Y1118464D03*
X1903890Y1055424D03*
X1867650Y1269144D03*
X1871650Y1303144D03*
X1891650Y1309144D03*
X1903500Y1325984D03*
X1924500Y1332984D03*
X2016500Y1559894D03*
Y1579894D03*
Y1599894D03*
X2016000Y1619894D03*
X2016500Y1639894D03*
Y1662894D03*
X2015500Y1732894D03*
Y1781894D03*
Y1802894D03*
Y1824894D03*
Y1847894D03*
X2030000Y1893644D03*
Y1915144D03*
Y1936644D03*
X2001000Y1923144D03*
X2352480Y1877464D03*
G54D12*
X2349060Y1793464D03*
X2457000Y1781144D03*
G54D11*
X2464000Y1765144D03*
X2448000D03*
G54D12*
X2454000Y1733144D03*
X2452900Y1716144D03*
G54D11*
X2469000Y1740144D03*
X2455000Y1807834D03*
X2456930Y1858464D03*
X2551930Y1923464D03*
X2567811Y1923871D03*
X2600000Y1928144D03*
X2621930Y1923464D03*
X2701930Y1931844D03*
Y1953464D03*
Y1978464D03*
X2738000Y1947144D03*
X2737000Y1929144D03*
X2766000Y1945144D03*
X2777000Y1958144D03*
G54D12*
X2751770Y2103304D03*
G54D11*
X2484500Y2019894D03*
Y2001894D03*
G54D12*
X2322500Y2101894D03*
X2356650Y1642144D03*
G54D11*
X2337480Y1592154D03*
X2387650Y1558144D03*
X2408150D03*
X2407650Y1539144D03*
X2428650D03*
Y1558144D03*
G54D12*
X2431500Y1599894D03*
X2431930Y1617894D03*
G54D11*
X2471141Y1602262D03*
G54D12*
X2486930Y1602144D03*
X2502834Y1602248D03*
X2518834D03*
G54D11*
X2486930Y1633464D03*
X2587000Y1614144D03*
G54D12*
X2580000Y1598144D03*
G54D11*
X2636100Y1595434D03*
X2635550Y1611464D03*
X2748480Y1631154D03*
X2776500Y1711984D03*
X2797790Y1709314D03*
X2792480Y1729154D03*
X2674480Y1482154D03*
X2554000Y1465144D03*
G54D12*
X2536000D03*
X2519000D03*
G54D11*
X2549000Y1393144D03*
X2568000D03*
X2576000Y1375144D03*
X2559000D03*
X2542000D03*
X2337480Y1494154D03*
G54D12*
X2146480Y1529154D03*
G54D11*
X1831500Y1593894D03*
X1547480Y1796624D03*
Y1817384D03*
Y1838154D03*
Y1869154D03*
Y1920154D03*
X1548480Y1943654D03*
Y1967154D03*
X1524650Y1956154D03*
Y1931154D03*
Y1906144D03*
X1466480Y1863154D03*
X1441480D03*
X1427000Y1834144D03*
G54D12*
Y1812144D03*
G54D11*
X1400480Y1816154D03*
G54D12*
X1278650Y1812144D03*
X1256650D03*
G54D11*
X1355480Y1944154D03*
X1385480Y1967154D03*
X2130480Y1031154D03*
X2647930Y1039994D03*
X3011650Y1419144D03*
X3012650Y1446144D03*
X2994480Y1460154D03*
X3047920Y1436594D03*
X3106480Y1466154D03*
X3110000Y1506144D03*
X3074480Y1568154D03*
X3032480Y1561154D03*
X3031480Y1536154D03*
G54D12*
X3191160Y1532624D03*
X3201950Y1674154D03*
X3200940Y1699154D03*
G54D11*
X3199940Y1728154D03*
X3212530Y1783524D03*
X3009480Y1732154D03*
X2968950Y1718154D03*
G54D12*
X2968480Y1751154D03*
X2937940Y1712154D03*
G54D11*
X2908480Y1726154D03*
X2903480Y1618154D03*
X2921480Y1599154D03*
X2885480Y1590154D03*
X2971480Y1647154D03*
X3191970Y2052644D03*
X3257480Y2045154D03*
G54D12*
X2818880Y329154D03*
G54D10*
X2846650D03*
X2874410D03*
X2902180D03*
X2929950D03*
X2957710D03*
X2985480D03*
X3074480D03*
X3098480D03*
X3123480D03*
X3147480D03*
X3171480D03*
X3195480D03*
X3219480D03*
X3244480D03*
X3268480D03*
X3295480Y316154D03*
Y289154D03*
Y265154D03*
X3321650D03*
X3347810D03*
X3373980D03*
X3400150D03*
X3426310D03*
X3452480D03*
X3484480Y277154D03*
X3510480Y291154D03*
X3534480Y308154D03*
X3554480Y327154D03*
X3567048Y357768D03*
X3568480Y386154D03*
X3569480Y418154D03*
Y445154D03*
Y472154D03*
Y499154D03*
Y526154D03*
Y553154D03*
Y577154D03*
X3539480D03*
X3511000Y577144D03*
X3485000D03*
X3462480Y587154D03*
Y612384D03*
Y637614D03*
Y662844D03*
Y688074D03*
Y713304D03*
Y738534D03*
Y763774D03*
Y789004D03*
Y814234D03*
Y839464D03*
Y864694D03*
Y889924D03*
G54D12*
Y915154D03*
G54D10*
X3452940Y955154D03*
Y978154D03*
X3477950Y954154D03*
X3501950Y941154D03*
X3525000Y929144D03*
X3549000D03*
X3573000D03*
X3423480Y903154D03*
X3399480D03*
X3375480D03*
X3351480D03*
X3327480D03*
X3303480D03*
Y879154D03*
X3291480Y857154D03*
Y833154D03*
Y808154D03*
X3295480Y784154D03*
X3320480D03*
X3339480Y767154D03*
Y742654D03*
Y718154D03*
X3364480D03*
X3377480Y697154D03*
Y672154D03*
Y647154D03*
Y622154D03*
Y597154D03*
Y572154D03*
Y547154D03*
Y522154D03*
Y497154D03*
Y472154D03*
Y448154D03*
Y422774D03*
X3350150D03*
X3322810D03*
X3323290Y397124D03*
X3295480Y397154D03*
Y422774D03*
Y370154D03*
Y343154D03*
X3351750Y497104D03*
X3299480Y586154D03*
X3280000Y569144D03*
X3254650Y546144D03*
X3229650D03*
Y519144D03*
X3093480Y520154D03*
X3069480D03*
X3017000Y520144D03*
X2993000D03*
X2969000D03*
G54D12*
X2968650Y544144D03*
G54D10*
X2992650D03*
G54D12*
X3016650D03*
G54D10*
X2944000Y520144D03*
X2912650Y588144D03*
X2887920D03*
G54D12*
X2887650Y612144D03*
X2911650D03*
G54D10*
X2862950Y593154D03*
X2840950D03*
G54D12*
X2846480Y628154D03*
X2867000Y650144D03*
G54D10*
X2866480Y701154D03*
Y736154D03*
X2844650Y780144D03*
X2866480Y806154D03*
Y841154D03*
X2874480Y936144D03*
X2850000D03*
Y961814D03*
X2874650D03*
X2850000Y986484D03*
X2909000Y936144D03*
X2933000D03*
X2959500D03*
Y961814D03*
Y988774D03*
Y910154D03*
G54D12*
X2983000Y896144D03*
X3006000D03*
G54D10*
X3196480Y876154D03*
X3248480Y888154D03*
Y912154D03*
Y937154D03*
X3233000Y962144D03*
X3272000Y961144D03*
X3333000Y963144D03*
X3357000Y962144D03*
X3381000D03*
G54D12*
X3256480Y862154D03*
Y837154D03*
G54D10*
X3242480Y817154D03*
G54D12*
X2826480Y350154D03*
G54D10*
X2809480Y370154D03*
X2792480Y329154D03*
X2766480D03*
X2746000Y463144D03*
G54D12*
X2710480Y535154D03*
G54D10*
X2709480Y581154D03*
X2747480Y598154D03*
X2764480Y624154D03*
X2759000Y904144D03*
Y927144D03*
X2730480Y879154D03*
X2311650Y984144D03*
X1723300Y960984D03*
X1569500Y924694D03*
Y898594D03*
Y872494D03*
Y846394D03*
Y820294D03*
Y794194D03*
Y768094D03*
X1519400Y691144D03*
X1493300D03*
X1467200D03*
X1441100D03*
X1415000D03*
X1388900D03*
X1362800D03*
X1336700D03*
X1311000D03*
X1298000Y712894D03*
X1273500D03*
Y741474D03*
X1298000D03*
Y770064D03*
X1273500D03*
Y798644D03*
X1298000D03*
Y827224D03*
X1273500D03*
Y855814D03*
X1298000D03*
Y884394D03*
X1273500D03*
Y912974D03*
X1298000D03*
Y941564D03*
X1273500D03*
Y970144D03*
X1298000D03*
X1327900D03*
X1357100D03*
X1386300D03*
X1413000D03*
G54D12*
X1992480Y338154D03*
G54D10*
X2438480Y435154D03*
X596480Y469154D03*
G54D12*
X793000Y670144D03*
X600520Y1759074D03*
X629520Y1789074D03*
X659520Y1819074D03*
G54D10*
X1418870Y1392994D03*
G54D12*
X1706930Y1313464D03*
X1735500Y1316894D03*
G54D10*
X2022000Y1114144D03*
X2652500Y1242894D03*
X2729930Y1264984D03*
X2763930Y1268994D03*
X2771930Y1233984D03*
G54D12*
X2812500Y1249984D03*
G54D10*
X2756480Y1165154D03*
X2686930Y1000984D03*
G54D12*
X2774300Y1776984D03*
X2794300Y1777584D03*
X3017480Y1271154D03*
G54D10*
X3073800Y1282844D03*
X3072690Y1042154D03*
X3099290D03*
X3125890D03*
X3152500D03*
X3178480Y1050154D03*
X3178500Y1025894D03*
Y999154D03*
X3178480Y1076154D03*
X3200480Y1091154D03*
X3291000Y1097144D03*
X3316480D03*
Y1071654D03*
Y1046154D03*
X3302480Y1024154D03*
X3303030Y999154D03*
X3327940D03*
X3352850D03*
X3377760D03*
X3402660Y1000154D03*
X3427570Y999154D03*
X3452480D03*
X3046080Y1042154D03*
X3019480D03*
X2983480D03*
X2959480D03*
X2959500Y1014964D03*
X2949000Y1066144D03*
X2923000D03*
X2898000D03*
X2866000Y1030144D03*
X2850000Y1011144D03*
X3145480Y516154D03*
X2975480Y836154D03*
X2872440Y874424D03*
X3567650Y964144D03*
Y995144D03*
X2621650Y685144D03*
Y657144D03*
X2589650Y656144D03*
Y685144D03*
X2608000Y271144D03*
X2637500D03*
X2667000D03*
X2567450Y265144D03*
X2534360D03*
X2501260D03*
X2468170D03*
X2435070D03*
X2401980D03*
X2368880D03*
X2335790D03*
X2302690D03*
X2269600D03*
X2236500D03*
X2203410D03*
X2170310D03*
X2137220D03*
X2104120D03*
X2071030D03*
X2037930D03*
X2004840D03*
X1971740D03*
X1938650D03*
X1770650Y264144D03*
X1740310D03*
X1709980D03*
X1679650D03*
X1504650Y268144D03*
X1476650D03*
X1448650D03*
X1420650D03*
X1301610Y313284D03*
X2410480Y318154D03*
X2442900D03*
X2475320D03*
X2507740D03*
X2293930Y450984D03*
X1249640Y266864D03*
X1221300D03*
X1192970D03*
X1164640D03*
X1172480Y317154D03*
X991650Y279144D03*
X962650D03*
X945480Y311154D03*
X800070Y288434D03*
X615480Y599154D03*
X572760Y598434D03*
X560480Y574154D03*
X414930Y503994D03*
X321000Y344144D03*
X284000D03*
X143220Y272134D03*
X107650Y281144D03*
X80650Y299144D03*
X58650Y320144D03*
X45480Y350154D03*
X45460Y381414D03*
Y410414D03*
Y439414D03*
Y468414D03*
Y497414D03*
X168480Y586154D03*
X168460Y617414D03*
Y646414D03*
Y675414D03*
Y704414D03*
Y733414D03*
X1079000Y629144D03*
Y602144D03*
X312000Y1561154D03*
X315930Y1593464D03*
X279000Y1591144D03*
X344500Y1607894D03*
X314500Y1717894D03*
X379740Y1761024D03*
X380690Y1789654D03*
X245500Y1781894D03*
X136650Y1783944D03*
Y1816544D03*
Y1849144D03*
Y1751344D03*
Y1718744D03*
Y1686144D03*
X54460Y1876154D03*
Y1907414D03*
Y1936414D03*
Y1965414D03*
Y1994414D03*
Y2023414D03*
X140480Y2096174D03*
X171740D03*
X200740D03*
X229740D03*
X258740D03*
X287740D03*
X487480Y2105174D03*
X518740D03*
X547830Y2104279D03*
X577098Y2104816D03*
X528500Y1861894D03*
X255000Y1515154D03*
X1415480Y1864154D03*
X1452480Y1902154D03*
X1710500Y1854894D03*
X1908500Y1837894D03*
X2039500Y1734894D03*
X2064480Y1933154D03*
X2292560Y1937664D03*
X2306650Y1136144D03*
X2227480Y1182154D03*
X2510500Y1129984D03*
X2753480Y1125154D03*
X2753650Y1097144D03*
X2783650D03*
X2783480Y1125154D03*
X2813480Y1126154D03*
Y1098154D03*
X2995480Y1123154D03*
X3025480D03*
X2934480Y1244154D03*
X2935480Y1272154D03*
X2928650Y1368154D03*
X2922480Y1403154D03*
X2893470D03*
X2861500Y1363984D03*
X3144480Y1317154D03*
X3235940Y1243154D03*
X3265940D03*
X3295940D03*
X3381650Y1187144D03*
Y1157144D03*
Y1127144D03*
Y1097144D03*
Y1067144D03*
X3452650Y1026144D03*
X3490980D03*
X3529310D03*
X3567650D03*
X3545480Y1458154D03*
X3448480Y1482154D03*
Y1525654D03*
Y1569154D03*
X3470650Y1830144D03*
X3501650Y1855144D03*
Y1884144D03*
Y1913144D03*
X3374480Y1977154D03*
X3376210Y2097174D03*
X3345400D03*
X3314590D03*
X3283780D03*
X3252970D03*
X3222160D03*
X3191350D03*
X3160540D03*
X3129720D03*
X3098910D03*
X3068100D03*
X3037290D03*
X3006480D03*
X3007870Y1963564D03*
X3038370D03*
X3089810Y2033824D03*
X3129480Y2037154D03*
X3144480Y1877154D03*
X3180100Y1832704D03*
X3197950Y1486154D03*
X3197650Y1458144D03*
X3198650Y1430144D03*
X3407020Y2097174D03*
X3437830D03*
X3468650D03*
X445650Y1649144D03*
X458650Y1669144D03*
G54D13*
X1081930Y898464D03*
Y1038464D03*
X1115520Y1191984D03*
X1312300D03*
X1275300Y1140984D03*
X1422300Y1191984D03*
X1614300Y1304984D03*
X1606060Y1581534D03*
X1597350Y1666334D03*
X1706930Y1060984D03*
X1726930Y1045984D03*
G54D14*
X3208480Y426154D03*
X3335480Y572154D03*
X2494760Y471294D03*
X2202930Y328994D03*
X2155650Y990144D03*
X2120650D03*
X1724000Y794384D03*
X1453650Y979144D03*
X1411930Y478464D03*
X1339650Y308144D03*
X695650Y293144D03*
X653150D03*
X610650D03*
Y337144D03*
X653150D03*
X610650Y380144D03*
X722480Y483154D03*
X754480D03*
X919000Y709384D03*
X399480Y699154D03*
X255480Y888154D03*
X434930Y293464D03*
X517840Y1707654D03*
X544500Y1682474D03*
X793930Y1835464D03*
X817860Y1900714D03*
X845480Y1875154D03*
X908060Y1950034D03*
X889500Y1977894D03*
X882930Y2056464D03*
X822000Y2044154D03*
X1110500Y2065894D03*
X307500Y1886984D03*
X268930Y1888464D03*
X1347480Y2013154D03*
X1386480D03*
Y2055154D03*
X1346480D03*
X1890480Y1987154D03*
X2126960Y1955154D03*
X2127480Y1920154D03*
X2263000Y1907144D03*
X2297000Y1906144D03*
X2350000Y1918144D03*
X2351500Y1958894D03*
X2383500D03*
X2466930Y1960984D03*
X2264000Y1942144D03*
X2194480Y1788154D03*
X2184650Y1704144D03*
X2219650Y1705144D03*
X2220650Y1668144D03*
X2185650D03*
X2096480Y1712154D03*
X1921480Y1275154D03*
X1746500Y999384D03*
X1714500Y998894D03*
X1453650Y1020144D03*
X1452650Y1063144D03*
X1522240Y1148144D03*
X2226480Y1111154D03*
X2427650Y1097144D03*
X2463650D03*
X2452000Y1344144D03*
X2422000Y1345144D03*
X2382480Y1302154D03*
X2686930Y1280984D03*
X2830480Y1317154D03*
X2958500Y2020984D03*
G54D15*
X358300Y467634D03*
X450790Y433974D03*
X543280Y400304D03*
G54D16*
X59060Y578734D03*
Y1791334D03*
X2311020Y1417324D03*
X3539370Y1791334D03*
G54D17*
X1430520Y827074D03*
G54D18*
X2611930Y1768464D03*
G54D10*
X3068620Y2676654D03*
X3111930D03*
X3155240D03*
Y2719964D03*
X3111930D03*
Y2763264D03*
X3155240D03*
X3068620D03*
Y2719964D03*
G54D11*
X2835480Y2429654D03*
X2847480Y2494654D03*
X3015650Y2564644D03*
X3014650Y2582644D03*
G54D12*
X3068650Y2581644D03*
G54D11*
X3075480Y2545654D03*
X3096480D03*
X2985480Y2729654D03*
X3240650Y2727144D03*
Y2745644D03*
Y2708644D03*
X3222650Y2808644D03*
Y2830644D03*
X3140930Y2849484D03*
X3123930Y2859484D03*
X2612870Y2487434D03*
X2630460Y2468954D03*
X2593190Y2504224D03*
X2442930Y2497484D03*
Y2473494D03*
X2441930Y2451964D03*
Y2521494D03*
X2469650Y2574644D03*
X2321930Y2578484D03*
X2304930Y2599484D03*
X2287930Y2614494D03*
X2336930Y2555484D03*
X2337480Y2436654D03*
X2356930Y2424494D03*
X2376650Y2410764D03*
X2396340Y2400074D03*
X2516930Y2406964D03*
X2302110Y2452284D03*
X2218930Y2451494D03*
G54D12*
X2237650Y2426644D03*
Y2404644D03*
G54D11*
X2183650Y2435644D03*
X2161650D03*
X2123480Y2431654D03*
X2084300Y2493484D03*
X2081300Y2520484D03*
X2065300Y2535484D03*
X2052300Y2551484D03*
X2033300Y2567484D03*
X2015300Y2582484D03*
X1999440Y2614474D03*
X1985500Y2630394D03*
X1971930Y2646964D03*
X1951930Y2661964D03*
X1936930Y2676964D03*
X1921930Y2691964D03*
X1911930Y2711964D03*
X1916930Y2816964D03*
X1751000Y2805654D03*
X1733000Y2822654D03*
X1714000Y2831654D03*
X1754930Y2861964D03*
X1737300Y2458964D03*
X1706300D03*
X1674300D03*
X1690300Y2436964D03*
X1722300D03*
X1753300D03*
X1776930D03*
G54D12*
X1798650Y2460644D03*
Y2482644D03*
G54D11*
X1916930Y2468224D03*
Y2446964D03*
G54D12*
X1941650Y2459644D03*
G54D11*
X1925930Y2489114D03*
X1917300Y2598484D03*
X1957300D03*
G54D12*
X2051650Y2474644D03*
X2052650Y2287644D03*
X2074980D03*
X2097310D03*
X2119650D03*
G54D11*
X2172930Y2617484D03*
X2189930Y2630494D03*
X2136930Y2661964D03*
X2117480Y2681654D03*
X2111500Y2705344D03*
X2300930Y2730754D03*
X2181930Y2929754D03*
X1578000Y2451654D03*
X1555000D03*
X1533300Y2436964D03*
X1501300D03*
X1486930Y2458964D03*
X1466930D03*
X1446930D03*
X1517300D03*
X1378500Y2436964D03*
X1355500D03*
X1328300D03*
X1311930Y2451964D03*
X1296930Y2436964D03*
X1276500Y2447484D03*
X1391000Y2300644D03*
X1370930Y2262494D03*
X1438000Y2323644D03*
X1469000D03*
X1548630Y2292384D03*
X1564380Y2306384D03*
X1580130Y2320384D03*
X1589930Y2268494D03*
X1611620Y2269654D03*
X1643120Y2320384D03*
X1166300Y2434484D03*
X1141300D03*
X1123500Y2652484D03*
X1101930Y2691964D03*
X958930Y2618284D03*
X921480Y2583654D03*
X921930Y2519104D03*
G54D12*
X732000Y2715654D03*
X701000Y2714654D03*
X671000Y2712654D03*
G54D11*
X841930Y2836964D03*
G54D12*
X430650Y2775644D03*
X403900D03*
X377150D03*
G54D11*
X376000Y2752644D03*
G54D12*
X350400Y2775644D03*
X287000Y2731654D03*
X306000Y2709654D03*
X331000Y2675654D03*
G54D11*
X199520Y2732174D03*
X214000Y2750654D03*
X227000Y2768654D03*
G54D12*
X172000Y2933654D03*
Y2957654D03*
G54D11*
X102000Y2951654D03*
G54D12*
X47000Y2959654D03*
Y2935654D03*
Y2911114D03*
X172000Y2982194D03*
G54D11*
X161000Y3124654D03*
G54D12*
X174000Y3159654D03*
Y3183654D03*
Y3208194D03*
Y3232734D03*
G54D11*
X129000Y3268654D03*
G54D12*
X93000Y3271654D03*
X69000D03*
X44460D03*
X40000Y3198734D03*
Y3174194D03*
Y3149654D03*
Y3125654D03*
G54D11*
X211000Y3286654D03*
X236930Y3349484D03*
X246520Y3372574D03*
X276520Y3402574D03*
X306520Y3432574D03*
X421520D03*
G54D12*
X390520Y3469574D03*
X424520Y3501574D03*
X454520Y3531574D03*
G54D11*
X471500Y3575394D03*
X513400Y3624694D03*
X605520Y3632574D03*
G54D12*
X603520Y3669574D03*
X633520Y3698574D03*
X662520Y3728574D03*
X693520Y3758574D03*
G54D11*
X692520Y3819574D03*
G54D12*
X626650Y3834644D03*
X603980D03*
Y3812644D03*
X581310D03*
Y3834644D03*
G54D11*
X566000Y3959644D03*
Y4004644D03*
X722500Y3989394D03*
Y3954394D03*
G54D12*
X770710Y3776134D03*
G54D11*
X794370Y3771614D03*
G54D12*
X816560Y3771514D03*
X939650Y3780644D03*
X970150D03*
X1000650D03*
X1190650D03*
X1212650D03*
X1234650D03*
G54D11*
X1246930Y3386964D03*
X1193300Y3349484D03*
X1078520Y3266574D03*
X1223500Y3136394D03*
X842300Y3006484D03*
X663950Y3123654D03*
X673920Y3158184D03*
X696200Y3180454D03*
X718460Y3202724D03*
X727300Y3261794D03*
X807550Y3291814D03*
X831520Y3312574D03*
X852090Y3336354D03*
X874200Y3358794D03*
X896630Y3380894D03*
X918910Y3403164D03*
X941170Y3425434D03*
X962590Y3448564D03*
X946940Y3483424D03*
X814520Y3440574D03*
X838840Y3415024D03*
X792880Y3371574D03*
X756520Y3386574D03*
X687110Y3339574D03*
X639900Y3341954D03*
X643940Y3320324D03*
X637320Y3439774D03*
X616100Y3460984D03*
X614050Y3416614D03*
X571400Y3376694D03*
X492360Y3384294D03*
X513570Y3407614D03*
X470110Y3361994D03*
X449300Y3338484D03*
X425180Y3317834D03*
G54D12*
X380520Y3359574D03*
X349520Y3329574D03*
X320520Y3299574D03*
X292520Y3266574D03*
X286520Y3237574D03*
X171000Y3372654D03*
Y3396654D03*
Y3421194D03*
Y3445734D03*
Y3469734D03*
Y3494264D03*
Y3518804D03*
Y3542804D03*
Y3567344D03*
Y3591884D03*
G54D11*
X569520Y3697574D03*
X591520Y3497574D03*
X626340Y3517554D03*
X647920Y3540524D03*
X669480Y3563514D03*
X692800Y3584724D03*
X709030Y3603804D03*
X745755Y3638721D03*
X780520Y3661574D03*
X791030Y3594954D03*
X814300Y3572794D03*
X751560Y3552234D03*
X725300Y3526484D03*
X629380Y3113644D03*
G54D12*
X1461930Y3101964D03*
G54D11*
X1531930Y3271964D03*
X1551500Y3278484D03*
X1550480Y3336654D03*
X1533480Y3321654D03*
X1533650Y3386644D03*
X1558480Y3382654D03*
X1611480Y3428654D03*
G54D12*
X1603520Y3467574D03*
X1603480Y3509534D03*
X1603390Y3593704D03*
G54D11*
X1709480Y3576654D03*
X1741480Y3561864D03*
X1777030D03*
X1792500Y3577394D03*
G54D12*
X1789000Y3603644D03*
G54D11*
X1731480Y3610654D03*
X1709000Y3657644D03*
X1722000Y3673644D03*
X1709000Y3690644D03*
X1689000Y3699644D03*
X1722000Y3708394D03*
X1702650Y3797644D03*
X1652650Y3804654D03*
Y3765124D03*
Y3849644D03*
Y3870154D03*
Y3890654D03*
Y3929494D03*
X1693480Y3961654D03*
X1716480D03*
X1719480Y3908264D03*
Y3876654D03*
X1702650Y3864644D03*
Y3892394D03*
X1785650Y3962644D03*
X1908500Y3903394D03*
Y3871394D03*
Y3839394D03*
X1873480Y3845654D03*
X1888500Y3790394D03*
X1908500Y3783394D03*
Y3762394D03*
Y3742394D03*
Y3722394D03*
X1888500Y3717394D03*
X1873000Y3703394D03*
Y3735644D03*
X1888500Y3753894D03*
X1873000Y3769644D03*
X1918000Y3688644D03*
X1904500Y3672394D03*
X1890600Y3656294D03*
X1930000Y3585644D03*
Y3563444D03*
Y3541244D03*
Y3519044D03*
Y3496844D03*
Y3474644D03*
X1900500Y3467484D03*
X1901500Y3446484D03*
Y3424484D03*
X1869500Y3429484D03*
X1821500Y3429394D03*
X1799500D03*
X1776500D03*
X1728500Y3429484D03*
X1705500Y3429394D03*
X1683480Y3429654D03*
X1698500Y3334394D03*
X1662650Y3175644D03*
X1646930Y3161964D03*
X1731500Y3151484D03*
X1731930Y3124484D03*
X1916930Y3086964D03*
X1903890Y3023924D03*
X1867650Y3237644D03*
X1871650Y3271644D03*
X1891650Y3277644D03*
X1903500Y3294484D03*
X1924500Y3301484D03*
X2016500Y3528394D03*
Y3548394D03*
Y3568394D03*
X2016000Y3588394D03*
X2016500Y3608394D03*
Y3631394D03*
X2015500Y3701394D03*
Y3750394D03*
Y3771394D03*
Y3793394D03*
Y3816394D03*
X2030000Y3862144D03*
Y3883644D03*
Y3905144D03*
X2001000Y3891644D03*
X2352480Y3845964D03*
G54D12*
X2349060Y3761964D03*
X2457000Y3749644D03*
G54D11*
X2464000Y3733644D03*
X2448000D03*
G54D12*
X2454000Y3701644D03*
X2452900Y3684644D03*
G54D11*
X2469000Y3708644D03*
X2455000Y3776334D03*
X2456930Y3826964D03*
X2551930Y3891964D03*
X2567811Y3892371D03*
X2600000Y3896644D03*
X2621930Y3891964D03*
X2701930Y3900344D03*
Y3921964D03*
Y3946964D03*
X2738000Y3915644D03*
X2737000Y3897644D03*
X2766000Y3913644D03*
X2777000Y3926644D03*
G54D12*
X2751770Y4071804D03*
G54D11*
X2484500Y3988394D03*
Y3970394D03*
G54D12*
X2322500Y4070394D03*
X2356650Y3610644D03*
G54D11*
X2337480Y3560654D03*
X2387650Y3526644D03*
X2408150D03*
X2407650Y3507644D03*
X2428650D03*
Y3526644D03*
G54D12*
X2431500Y3568394D03*
X2431930Y3586394D03*
G54D11*
X2471141Y3570762D03*
G54D12*
X2486930Y3570644D03*
X2502834Y3570749D03*
X2518834D03*
G54D11*
X2486930Y3601964D03*
X2587000Y3582644D03*
G54D12*
X2580000Y3566644D03*
G54D11*
X2636100Y3563934D03*
X2635550Y3579964D03*
X2748480Y3599654D03*
X2776500Y3680484D03*
X2797790Y3677814D03*
X2792480Y3697654D03*
X2674480Y3450654D03*
X2554000Y3433644D03*
G54D12*
X2536000D03*
X2519000D03*
G54D11*
X2549000Y3361644D03*
X2568000D03*
X2576000Y3343644D03*
X2559000D03*
X2542000D03*
X2337480Y3462654D03*
G54D12*
X2146480Y3497654D03*
G54D11*
X1831500Y3562394D03*
X1547480Y3765124D03*
Y3785884D03*
Y3806654D03*
Y3837654D03*
Y3888654D03*
X1548480Y3912154D03*
Y3935654D03*
X1524650Y3924654D03*
Y3899654D03*
Y3874644D03*
X1466480Y3831654D03*
X1441480D03*
X1427000Y3802644D03*
G54D12*
Y3780644D03*
G54D11*
X1400480Y3784654D03*
G54D12*
X1278650Y3780644D03*
X1256650D03*
G54D11*
X1355480Y3912654D03*
X1385480Y3935654D03*
X2130480Y2999654D03*
X2647930Y3008494D03*
X3011650Y3387644D03*
X3012650Y3414644D03*
X2994480Y3428654D03*
X3047920Y3405094D03*
X3106480Y3434654D03*
X3110000Y3474644D03*
X3074480Y3536654D03*
X3032480Y3529654D03*
X3031480Y3504654D03*
G54D12*
X3191160Y3501124D03*
X3201950Y3642654D03*
X3200940Y3667654D03*
G54D11*
X3199940Y3696654D03*
X3212530Y3752024D03*
X3009480Y3700654D03*
X2968950Y3686654D03*
G54D12*
X2968480Y3719654D03*
X2937940Y3680654D03*
G54D11*
X2908480Y3694654D03*
X2903480Y3586654D03*
X2921480Y3567654D03*
X2885480Y3558654D03*
X2971480Y3615654D03*
X3191970Y4021144D03*
X3257480Y4013654D03*
G54D12*
X2818880Y2297654D03*
G54D10*
X2846650D03*
X2874410D03*
X2902180D03*
X2929950D03*
X2957710D03*
X2985480D03*
X3074480D03*
X3098480D03*
X3123480D03*
X3147480D03*
X3171480D03*
X3195480D03*
X3219480D03*
X3244480D03*
X3268480D03*
X3295480Y2284654D03*
Y2257654D03*
Y2233654D03*
X3321650D03*
X3347810D03*
X3373980D03*
X3400150D03*
X3426310D03*
X3452480D03*
X3484480Y2245654D03*
X3510480Y2259654D03*
X3534480Y2276654D03*
X3554480Y2295654D03*
X3567048Y2326268D03*
X3568480Y2354654D03*
X3569480Y2386654D03*
Y2413654D03*
Y2440654D03*
Y2467654D03*
Y2494654D03*
Y2521654D03*
Y2545654D03*
X3539480D03*
X3511000Y2545644D03*
X3485000D03*
X3462480Y2555654D03*
Y2580884D03*
Y2606114D03*
Y2631344D03*
Y2656574D03*
Y2681804D03*
Y2707034D03*
Y2732274D03*
Y2757504D03*
Y2782734D03*
Y2807964D03*
Y2833194D03*
Y2858424D03*
G54D12*
Y2883654D03*
G54D10*
X3452940Y2923654D03*
Y2946654D03*
X3477950Y2922654D03*
X3501950Y2909654D03*
X3525000Y2897644D03*
X3549000D03*
X3573000D03*
X3423480Y2871654D03*
X3399480D03*
X3375480D03*
X3351480D03*
X3327480D03*
X3303480D03*
Y2847654D03*
X3291480Y2825654D03*
Y2801654D03*
Y2776654D03*
X3295480Y2752654D03*
X3320480D03*
X3339480Y2735654D03*
Y2711154D03*
Y2686654D03*
X3364480D03*
X3377480Y2665654D03*
Y2640654D03*
Y2615654D03*
Y2590654D03*
Y2565654D03*
Y2540654D03*
Y2515654D03*
Y2490654D03*
Y2465654D03*
Y2440654D03*
Y2416654D03*
Y2391274D03*
X3350150D03*
X3322810D03*
X3323290Y2365624D03*
X3295480Y2365654D03*
Y2391274D03*
Y2338654D03*
Y2311654D03*
X3351750Y2465604D03*
X3299480Y2554654D03*
X3280000Y2537644D03*
X3254650Y2514644D03*
X3229650D03*
Y2487644D03*
X3093480Y2488654D03*
X3069480D03*
X3017000Y2488644D03*
X2993000D03*
X2969000D03*
G54D12*
X2968650Y2512644D03*
G54D10*
X2992650D03*
G54D12*
X3016650D03*
G54D10*
X2944000Y2488644D03*
X2912650Y2556644D03*
X2887920D03*
G54D12*
X2887650Y2580644D03*
X2911650D03*
G54D10*
X2862950Y2561654D03*
X2840950D03*
G54D12*
X2846480Y2596654D03*
X2867000Y2618644D03*
G54D10*
X2866480Y2669654D03*
Y2704654D03*
X2844650Y2748644D03*
X2866480Y2774654D03*
Y2809654D03*
X2874480Y2904644D03*
X2850000D03*
Y2930314D03*
X2874650D03*
X2850000Y2954984D03*
X2909000Y2904644D03*
X2933000D03*
X2959500D03*
Y2930314D03*
Y2957274D03*
Y2878654D03*
G54D12*
X2983000Y2864644D03*
X3006000D03*
G54D10*
X3196480Y2844654D03*
X3248480Y2856654D03*
Y2880654D03*
Y2905654D03*
X3233000Y2930644D03*
X3272000Y2929644D03*
X3333000Y2931644D03*
X3357000Y2930644D03*
X3381000D03*
G54D12*
X3256480Y2830654D03*
Y2805654D03*
G54D10*
X3242480Y2785654D03*
G54D12*
X2826480Y2318654D03*
G54D10*
X2809480Y2338654D03*
X2792480Y2297654D03*
X2766480D03*
X2746000Y2431644D03*
G54D12*
X2710480Y2503654D03*
G54D10*
X2709480Y2549654D03*
X2747480Y2566654D03*
X2764480Y2592654D03*
X2759000Y2872644D03*
Y2895644D03*
X2730480Y2847654D03*
X2311650Y2952644D03*
X1723300Y2929484D03*
X1569500Y2893194D03*
Y2867094D03*
Y2840994D03*
Y2814894D03*
Y2788794D03*
Y2762694D03*
Y2736594D03*
X1519400Y2659644D03*
X1493300D03*
X1467200D03*
X1441100D03*
X1415000D03*
X1388900D03*
X1362800D03*
X1336700D03*
X1311000D03*
X1298000Y2681394D03*
X1273500D03*
Y2709974D03*
X1298000D03*
Y2738564D03*
X1273500D03*
Y2767144D03*
X1298000D03*
Y2795724D03*
X1273500D03*
Y2824314D03*
X1298000D03*
Y2852894D03*
X1273500D03*
Y2881474D03*
X1298000D03*
Y2910064D03*
X1273500D03*
Y2938644D03*
X1298000D03*
X1327900D03*
X1357100D03*
X1386300D03*
X1413000D03*
G54D12*
X1992480Y2306654D03*
G54D10*
X2438480Y2403654D03*
X596480Y2437654D03*
G54D12*
X793000Y2638644D03*
X600520Y3727574D03*
X629520Y3757574D03*
X659520Y3787574D03*
G54D10*
X1418870Y3361494D03*
G54D12*
X1706930Y3281964D03*
X1735500Y3285394D03*
G54D10*
X2022000Y3082644D03*
X2652500Y3211394D03*
X2729930Y3233484D03*
X2763930Y3237494D03*
X2771930Y3202484D03*
G54D12*
X2812500Y3218484D03*
G54D10*
X2756480Y3133654D03*
X2686930Y2969484D03*
G54D12*
X2774300Y3745484D03*
X2794300Y3746084D03*
X3017480Y3239654D03*
G54D10*
X3073800Y3251344D03*
X3072690Y3010654D03*
X3099290D03*
X3125890D03*
X3152500D03*
X3178480Y3018654D03*
X3178500Y2994394D03*
Y2967654D03*
X3178480Y3044654D03*
X3200480Y3059654D03*
X3291000Y3065644D03*
X3316480D03*
Y3040154D03*
Y3014654D03*
X3302480Y2992654D03*
X3303030Y2967654D03*
X3327940D03*
X3352850D03*
X3377760D03*
X3402660Y2968654D03*
X3427570Y2967654D03*
X3452480D03*
X3046080Y3010654D03*
X3019480D03*
X2983480D03*
X2959480D03*
X2959500Y2983464D03*
X2949000Y3034644D03*
X2923000D03*
X2898000D03*
X2866000Y2998644D03*
X2850000Y2979644D03*
X3145480Y2484654D03*
X2975480Y2804654D03*
X2872440Y2842924D03*
X3567650Y2932644D03*
Y2963644D03*
X2621650Y2653644D03*
Y2625644D03*
X2589650Y2624644D03*
Y2653644D03*
X2608000Y2239644D03*
X2637500D03*
X2667000D03*
X2567450Y2233644D03*
X2534360D03*
X2501260D03*
X2468170D03*
X2435070D03*
X2401980D03*
X2368880D03*
X2335790D03*
X2302690D03*
X2269600D03*
X2236500D03*
X2203410D03*
X2170310D03*
X2137220D03*
X2104120D03*
X2071030D03*
X2037930D03*
X2004840D03*
X1971740D03*
X1938650D03*
X1770650Y2232644D03*
X1740310D03*
X1709980D03*
X1679650D03*
X1504650Y2236644D03*
X1476650D03*
X1448650D03*
X1420650D03*
X1301610Y2281784D03*
X2410480Y2286654D03*
X2442900D03*
X2475320D03*
X2507740D03*
X2293930Y2419484D03*
X1249640Y2235364D03*
X1221300D03*
X1192970D03*
X1164640D03*
X1172480Y2285654D03*
X991650Y2247644D03*
X962650D03*
X945480Y2279654D03*
X800070Y2256934D03*
X615480Y2567654D03*
X572760Y2566934D03*
X560480Y2542654D03*
X414930Y2472494D03*
X321000Y2312644D03*
X284000D03*
X143220Y2240634D03*
X107650Y2249644D03*
X80650Y2267644D03*
X58650Y2288644D03*
X45480Y2318654D03*
X45460Y2349914D03*
Y2378914D03*
Y2407914D03*
Y2436914D03*
Y2465914D03*
X168480Y2554654D03*
X168460Y2585914D03*
Y2614914D03*
Y2643914D03*
Y2672914D03*
Y2701914D03*
X1079000Y2597644D03*
Y2570644D03*
X312000Y3529654D03*
X315930Y3561964D03*
X279000Y3559644D03*
X344500Y3576394D03*
X314500Y3686394D03*
X379740Y3729524D03*
X380690Y3758154D03*
X245500Y3750394D03*
X136650Y3752444D03*
Y3785044D03*
Y3817644D03*
Y3719844D03*
Y3687244D03*
Y3654644D03*
X54460Y3844654D03*
Y3875914D03*
Y3904914D03*
Y3933914D03*
Y3962914D03*
Y3991914D03*
X140480Y4064674D03*
X171740D03*
X200740D03*
X229740D03*
X258740D03*
X287740D03*
X487480Y4073674D03*
X518740D03*
X547830Y4072779D03*
X577098Y4073316D03*
X528500Y3830394D03*
X255000Y3483654D03*
X1415480Y3832654D03*
X1452480Y3870654D03*
X1710500Y3823394D03*
X1908500Y3806394D03*
X2039500Y3703394D03*
X2064480Y3901654D03*
X2292560Y3906164D03*
X2306650Y3104644D03*
X2227480Y3150654D03*
X2510500Y3098484D03*
X2753480Y3093654D03*
X2753650Y3065644D03*
X2783650D03*
X2783480Y3093654D03*
X2813480Y3094654D03*
Y3066654D03*
X2995480Y3091654D03*
X3025480D03*
X2934480Y3212654D03*
X2935480Y3240654D03*
X2928650Y3336654D03*
X2922480Y3371654D03*
X2893470D03*
X2861500Y3332484D03*
X3144480Y3285654D03*
X3235940Y3211654D03*
X3265940D03*
X3295940D03*
X3381650Y3155644D03*
Y3125644D03*
Y3095644D03*
Y3065644D03*
Y3035644D03*
X3452650Y2994644D03*
X3490980D03*
X3529310D03*
X3567650D03*
X3545480Y3426654D03*
X3448480Y3450654D03*
Y3494154D03*
Y3537654D03*
X3470650Y3798644D03*
X3501650Y3823644D03*
Y3852644D03*
Y3881644D03*
X3374480Y3945654D03*
X3376210Y4065674D03*
X3345400D03*
X3314590D03*
X3283780D03*
X3252970D03*
X3222160D03*
X3191350D03*
X3160540D03*
X3129720D03*
X3098910D03*
X3068100D03*
X3037290D03*
X3006480D03*
X3007870Y3932064D03*
X3038370D03*
X3089810Y4002324D03*
X3129480Y4005654D03*
X3144480Y3845654D03*
X3180100Y3801204D03*
X3197950Y3454654D03*
X3197650Y3426644D03*
X3198650Y3398644D03*
X3407020Y4065674D03*
X3437830D03*
X3468650D03*
X445650Y3617644D03*
X458650Y3637644D03*
G54D13*
X1081930Y2866964D03*
Y3006964D03*
X1115520Y3160484D03*
X1312300D03*
X1275300Y3109484D03*
X1422300Y3160484D03*
X1614300Y3273484D03*
X1606060Y3550034D03*
X1597350Y3634834D03*
X1706930Y3029484D03*
X1726930Y3014484D03*
G54D14*
X3208480Y2394654D03*
X3335480Y2540654D03*
X2494760Y2439794D03*
X2202930Y2297494D03*
X2155650Y2958644D03*
X2120650D03*
X1724000Y2762884D03*
X1453650Y2947644D03*
X1411930Y2446964D03*
X1339650Y2276644D03*
X695650Y2261644D03*
X653150D03*
X610650D03*
Y2305644D03*
X653150D03*
X610650Y2348644D03*
X722480Y2451654D03*
X754480D03*
X919000Y2677884D03*
X399480Y2667654D03*
X255480Y2856654D03*
X434930Y2261964D03*
X517840Y3676154D03*
X544500Y3650974D03*
X793930Y3803964D03*
X817860Y3869214D03*
X845480Y3843654D03*
X908060Y3918534D03*
X889500Y3946394D03*
X882930Y4024964D03*
X822000Y4012654D03*
X1110500Y4034394D03*
X307500Y3855484D03*
X268930Y3856964D03*
X1347480Y3981654D03*
X1386480D03*
Y4023654D03*
X1346480D03*
X1890480Y3955654D03*
X2126960Y3923654D03*
X2127480Y3888654D03*
X2263000Y3875644D03*
X2297000Y3874644D03*
X2350000Y3886644D03*
X2351500Y3927394D03*
X2383500D03*
X2466930Y3929484D03*
X2264000Y3910644D03*
X2194480Y3756654D03*
X2184650Y3672644D03*
X2219650Y3673644D03*
X2220650Y3636644D03*
X2185650D03*
X2096480Y3680654D03*
X1921480Y3243654D03*
X1746500Y2967884D03*
X1714500Y2967394D03*
X1453650Y2988644D03*
X1452650Y3031644D03*
X1522240Y3116644D03*
X2226480Y3079654D03*
X2427650Y3065644D03*
X2463650D03*
X2452000Y3312644D03*
X2422000Y3313644D03*
X2382480Y3270654D03*
X2686930Y3249484D03*
X2830480Y3285654D03*
X2958500Y3989484D03*
G54D15*
X358300Y2436134D03*
X450790Y2402474D03*
X543280Y2368804D03*
G54D16*
X59060Y2547234D03*
Y3759834D03*
X2311020Y3385824D03*
X3539370Y3759834D03*
G54D17*
X1430520Y2795574D03*
G54D18*
X2611930Y3736964D03*
G54D10*
X3068620Y4645155D03*
X3111930D03*
X3155240D03*
Y4688465D03*
X3111930D03*
Y4731765D03*
X3155240D03*
X3068620D03*
Y4688465D03*
G54D11*
X2835480Y4398155D03*
X2847480Y4463155D03*
X3015650Y4533145D03*
X3014650Y4551145D03*
G54D12*
X3068650Y4550145D03*
G54D11*
X3075480Y4514155D03*
X3096480D03*
X2985480Y4698155D03*
X3240650Y4695645D03*
Y4714145D03*
Y4677145D03*
X3222650Y4777145D03*
Y4799145D03*
X3140930Y4817985D03*
X3123930Y4827985D03*
X2612870Y4455935D03*
X2630460Y4437455D03*
X2593190Y4472725D03*
X2442930Y4465985D03*
Y4441995D03*
X2441930Y4420465D03*
Y4489995D03*
X2469650Y4543145D03*
X2321930Y4546985D03*
X2304930Y4567985D03*
X2287930Y4582995D03*
X2336930Y4523985D03*
X2337480Y4405155D03*
X2356930Y4392995D03*
X2376650Y4379265D03*
X2396340Y4368575D03*
X2516930Y4375465D03*
X2302110Y4420785D03*
X2218930Y4419995D03*
G54D12*
X2237650Y4395145D03*
Y4373145D03*
G54D11*
X2183650Y4404145D03*
X2161650D03*
X2123480Y4400155D03*
X2084300Y4461985D03*
X2081300Y4488985D03*
X2065300Y4503985D03*
X2052300Y4519985D03*
X2033300Y4535985D03*
X2015300Y4550985D03*
X1999440Y4582975D03*
X1985500Y4598895D03*
X1971930Y4615465D03*
X1951930Y4630465D03*
X1936930Y4645465D03*
X1921930Y4660465D03*
X1911930Y4680465D03*
X1916930Y4785465D03*
X1751000Y4774155D03*
X1733000Y4791155D03*
X1714000Y4800155D03*
X1754930Y4830465D03*
X1737300Y4427465D03*
X1706300D03*
X1674300D03*
X1690300Y4405465D03*
X1722300D03*
X1753300D03*
X1776930D03*
G54D12*
X1798650Y4429145D03*
Y4451145D03*
G54D11*
X1916930Y4436725D03*
Y4415465D03*
G54D12*
X1941650Y4428145D03*
G54D11*
X1925930Y4457615D03*
X1917300Y4566985D03*
X1957300D03*
G54D12*
X2051650Y4443145D03*
X2052650Y4256145D03*
X2074980D03*
X2097310D03*
X2119650D03*
G54D11*
X2172930Y4585985D03*
X2189930Y4598995D03*
X2136930Y4630465D03*
X2117480Y4650155D03*
X2111500Y4673845D03*
X2300930Y4699255D03*
X2181930Y4898255D03*
X1578000Y4420155D03*
X1555000D03*
X1533300Y4405465D03*
X1501300D03*
X1486930Y4427465D03*
X1466930D03*
X1446930D03*
X1517300D03*
X1378500Y4405465D03*
X1355500D03*
X1328300D03*
X1311930Y4420465D03*
X1296930Y4405465D03*
X1276500Y4415985D03*
X1391000Y4269145D03*
X1370930Y4230995D03*
X1438000Y4292145D03*
X1469000D03*
X1548630Y4260885D03*
X1564380Y4274885D03*
X1580130Y4288885D03*
X1589930Y4236995D03*
X1611620Y4238155D03*
X1643120Y4288885D03*
X1166300Y4402985D03*
X1141300D03*
X1123500Y4620985D03*
X1101930Y4660465D03*
X958930Y4586785D03*
X921480Y4552155D03*
X921930Y4487605D03*
G54D12*
X732000Y4684155D03*
X701000Y4683155D03*
X671000Y4681155D03*
G54D11*
X841930Y4805465D03*
G54D12*
X430650Y4744145D03*
X403900D03*
X377150D03*
G54D11*
X376000Y4721145D03*
G54D12*
X350400Y4744145D03*
X287000Y4700155D03*
X306000Y4678155D03*
X331000Y4644155D03*
G54D11*
X199520Y4700675D03*
X214000Y4719155D03*
X227000Y4737155D03*
G54D12*
X172000Y4902155D03*
Y4926155D03*
G54D11*
X102000Y4920155D03*
G54D12*
X47000Y4928155D03*
Y4904155D03*
Y4879615D03*
X172000Y4950695D03*
G54D11*
X161000Y5093155D03*
G54D12*
X174000Y5128155D03*
Y5152155D03*
Y5176695D03*
Y5201235D03*
G54D11*
X129000Y5237155D03*
G54D12*
X93000Y5240155D03*
X69000D03*
X44460D03*
X40000Y5167235D03*
Y5142695D03*
Y5118155D03*
Y5094155D03*
G54D11*
X211000Y5255155D03*
X236930Y5317985D03*
X246520Y5341075D03*
X276520Y5371075D03*
X306520Y5401075D03*
X421520D03*
G54D12*
X390520Y5438075D03*
X424520Y5470075D03*
X454520Y5500075D03*
G54D11*
X471500Y5543895D03*
X513400Y5593195D03*
X605520Y5601075D03*
G54D12*
X603520Y5638075D03*
X633520Y5667075D03*
X662520Y5697075D03*
X693520Y5727075D03*
G54D11*
X692520Y5788075D03*
G54D12*
X626650Y5803145D03*
X603980D03*
Y5781145D03*
X581310D03*
Y5803145D03*
G54D11*
X566000Y5928145D03*
Y5973145D03*
X722500Y5957895D03*
Y5922895D03*
G54D12*
X770710Y5744635D03*
G54D11*
X794370Y5740115D03*
G54D12*
X816560Y5740015D03*
X939650Y5749145D03*
X970150D03*
X1000650D03*
X1190650D03*
X1212650D03*
X1234650D03*
G54D11*
X1246930Y5355465D03*
X1193300Y5317985D03*
X1078520Y5235075D03*
X1223500Y5104895D03*
X842300Y4974985D03*
X663950Y5092155D03*
X673920Y5126685D03*
X696200Y5148955D03*
X718460Y5171225D03*
X727300Y5230295D03*
X807550Y5260315D03*
X831520Y5281075D03*
X852090Y5304855D03*
X874200Y5327295D03*
X896630Y5349395D03*
X918910Y5371665D03*
X941170Y5393935D03*
X962590Y5417065D03*
X946940Y5451925D03*
X814520Y5409075D03*
X838840Y5383525D03*
X792880Y5340075D03*
X756520Y5355075D03*
X687110Y5308075D03*
X639900Y5310455D03*
X643940Y5288825D03*
X637320Y5408275D03*
X616100Y5429485D03*
X614050Y5385115D03*
X571400Y5345195D03*
X492360Y5352795D03*
X513570Y5376115D03*
X470110Y5330495D03*
X449300Y5306985D03*
X425180Y5286335D03*
G54D12*
X380520Y5328075D03*
X349520Y5298075D03*
X320520Y5268075D03*
X292520Y5235075D03*
X286520Y5206075D03*
X171000Y5341155D03*
Y5365155D03*
Y5389695D03*
Y5414235D03*
Y5438235D03*
Y5462765D03*
Y5487305D03*
Y5511305D03*
Y5535845D03*
Y5560385D03*
G54D11*
X569520Y5666075D03*
X591520Y5466075D03*
X626340Y5486055D03*
X647920Y5509025D03*
X669480Y5532015D03*
X692800Y5553225D03*
X709030Y5572305D03*
X745755Y5607221D03*
X780520Y5630075D03*
X791030Y5563455D03*
X814300Y5541295D03*
X751560Y5520735D03*
X725300Y5494985D03*
X629380Y5082145D03*
G54D12*
X1461930Y5070465D03*
G54D11*
X1531930Y5240465D03*
X1551500Y5246985D03*
X1550480Y5305155D03*
X1533480Y5290155D03*
X1533650Y5355145D03*
X1558480Y5351155D03*
X1611480Y5397155D03*
G54D12*
X1603520Y5436075D03*
X1603480Y5478035D03*
X1603390Y5562205D03*
G54D11*
X1709480Y5545155D03*
X1741480Y5530365D03*
X1777030D03*
X1792500Y5545895D03*
G54D12*
X1789000Y5572145D03*
G54D11*
X1731480Y5579155D03*
X1709000Y5626145D03*
X1722000Y5642145D03*
X1709000Y5659145D03*
X1689000Y5668145D03*
X1722000Y5676895D03*
X1702650Y5766145D03*
X1652650Y5773155D03*
Y5733625D03*
Y5818145D03*
Y5838655D03*
Y5859155D03*
Y5897995D03*
X1693480Y5930155D03*
X1716480D03*
X1719480Y5876765D03*
Y5845155D03*
X1702650Y5833145D03*
Y5860895D03*
X1785650Y5931145D03*
X1908500Y5871895D03*
Y5839895D03*
Y5807895D03*
X1873480Y5814155D03*
X1888500Y5758895D03*
X1908500Y5751895D03*
Y5730895D03*
Y5710895D03*
Y5690895D03*
X1888500Y5685895D03*
X1873000Y5671895D03*
Y5704145D03*
X1888500Y5722395D03*
X1873000Y5738145D03*
X1918000Y5657145D03*
X1904500Y5640895D03*
X1890600Y5624795D03*
X1930000Y5554145D03*
Y5531945D03*
Y5509745D03*
Y5487545D03*
Y5465345D03*
Y5443145D03*
X1900500Y5435985D03*
X1901500Y5414985D03*
Y5392985D03*
X1869500Y5397985D03*
X1821500Y5397895D03*
X1799500D03*
X1776500D03*
X1728500Y5397985D03*
X1705500Y5397895D03*
X1683480Y5398155D03*
X1698500Y5302895D03*
X1662650Y5144145D03*
X1646930Y5130465D03*
X1731500Y5119985D03*
X1731930Y5092985D03*
X1916930Y5055465D03*
X1903890Y4992425D03*
X1867650Y5206145D03*
X1871650Y5240145D03*
X1891650Y5246145D03*
X1903500Y5262985D03*
X1924500Y5269985D03*
X2016500Y5496895D03*
Y5516895D03*
Y5536895D03*
X2016000Y5556895D03*
X2016500Y5576895D03*
Y5599895D03*
X2015500Y5669895D03*
Y5718895D03*
Y5739895D03*
Y5761895D03*
Y5784895D03*
X2030000Y5830645D03*
Y5852145D03*
Y5873645D03*
X2001000Y5860145D03*
X2352480Y5814465D03*
G54D12*
X2349060Y5730465D03*
X2457000Y5718145D03*
G54D11*
X2464000Y5702145D03*
X2448000D03*
G54D12*
X2454000Y5670145D03*
X2452900Y5653145D03*
G54D11*
X2469000Y5677145D03*
X2455000Y5744835D03*
X2456930Y5795465D03*
X2551930Y5860465D03*
X2567811Y5860871D03*
X2600000Y5865145D03*
X2621930Y5860465D03*
X2701930Y5868845D03*
Y5890465D03*
Y5915465D03*
X2738000Y5884145D03*
X2737000Y5866145D03*
X2766000Y5882145D03*
X2777000Y5895145D03*
G54D12*
X2751770Y6040305D03*
G54D11*
X2484500Y5956895D03*
Y5938895D03*
G54D12*
X2322500Y6038895D03*
X2356650Y5579145D03*
G54D11*
X2337480Y5529155D03*
X2387650Y5495145D03*
X2408150D03*
X2407650Y5476145D03*
X2428650D03*
Y5495145D03*
G54D12*
X2431500Y5536895D03*
X2431930Y5554895D03*
G54D11*
X2471141Y5539262D03*
G54D12*
X2486930Y5539145D03*
X2502834Y5539249D03*
X2518834D03*
G54D11*
X2486930Y5570465D03*
X2587000Y5551145D03*
G54D12*
X2580000Y5535145D03*
G54D11*
X2636100Y5532435D03*
X2635550Y5548465D03*
X2748480Y5568155D03*
X2776500Y5648985D03*
X2797790Y5646315D03*
X2792480Y5666155D03*
X2674480Y5419155D03*
X2554000Y5402145D03*
G54D12*
X2536000D03*
X2519000D03*
G54D11*
X2549000Y5330145D03*
X2568000D03*
X2576000Y5312145D03*
X2559000D03*
X2542000D03*
X2337480Y5431155D03*
G54D12*
X2146480Y5466155D03*
G54D11*
X1831500Y5530895D03*
X1547480Y5733625D03*
Y5754385D03*
Y5775155D03*
Y5806155D03*
Y5857155D03*
X1548480Y5880655D03*
Y5904155D03*
X1524650Y5893155D03*
Y5868155D03*
Y5843145D03*
X1466480Y5800155D03*
X1441480D03*
X1427000Y5771145D03*
G54D12*
Y5749145D03*
G54D11*
X1400480Y5753155D03*
G54D12*
X1278650Y5749145D03*
X1256650D03*
G54D11*
X1355480Y5881155D03*
X1385480Y5904155D03*
X2130480Y4968155D03*
X2647930Y4976995D03*
X3011650Y5356145D03*
X3012650Y5383145D03*
X2994480Y5397155D03*
X3047920Y5373595D03*
X3106480Y5403155D03*
X3110000Y5443145D03*
X3074480Y5505155D03*
X3032480Y5498155D03*
X3031480Y5473155D03*
G54D12*
X3191160Y5469625D03*
X3201950Y5611155D03*
X3200940Y5636155D03*
G54D11*
X3199940Y5665155D03*
X3212530Y5720525D03*
X3009480Y5669155D03*
X2968950Y5655155D03*
G54D12*
X2968480Y5688155D03*
X2937940Y5649155D03*
G54D11*
X2908480Y5663155D03*
X2903480Y5555155D03*
X2921480Y5536155D03*
X2885480Y5527155D03*
X2971480Y5584155D03*
X3191970Y5989645D03*
X3257480Y5982155D03*
G54D12*
X2818880Y4266155D03*
G54D10*
X2846650D03*
X2874410D03*
X2902180D03*
X2929950D03*
X2957710D03*
X2985480D03*
X3074480D03*
X3098480D03*
X3123480D03*
X3147480D03*
X3171480D03*
X3195480D03*
X3219480D03*
X3244480D03*
X3268480D03*
X3295480Y4253155D03*
Y4226155D03*
Y4202155D03*
X3321650D03*
X3347810D03*
X3373980D03*
X3400150D03*
X3426310D03*
X3452480D03*
X3484480Y4214155D03*
X3510480Y4228155D03*
X3534480Y4245155D03*
X3554480Y4264155D03*
X3567048Y4294769D03*
X3568480Y4323155D03*
X3569480Y4355155D03*
Y4382155D03*
Y4409155D03*
Y4436155D03*
Y4463155D03*
Y4490155D03*
Y4514155D03*
X3539480D03*
X3511000Y4514145D03*
X3485000D03*
X3462480Y4524155D03*
Y4549385D03*
Y4574615D03*
Y4599845D03*
Y4625075D03*
Y4650305D03*
Y4675535D03*
Y4700775D03*
Y4726005D03*
Y4751235D03*
Y4776465D03*
Y4801695D03*
Y4826925D03*
G54D12*
Y4852155D03*
G54D10*
X3452940Y4892155D03*
Y4915155D03*
X3477950Y4891155D03*
X3501950Y4878155D03*
X3525000Y4866145D03*
X3549000D03*
X3573000D03*
X3423480Y4840155D03*
X3399480D03*
X3375480D03*
X3351480D03*
X3327480D03*
X3303480D03*
Y4816155D03*
X3291480Y4794155D03*
Y4770155D03*
Y4745155D03*
X3295480Y4721155D03*
X3320480D03*
X3339480Y4704155D03*
Y4679655D03*
Y4655155D03*
X3364480D03*
X3377480Y4634155D03*
Y4609155D03*
Y4584155D03*
Y4559155D03*
Y4534155D03*
Y4509155D03*
Y4484155D03*
Y4459155D03*
Y4434155D03*
Y4409155D03*
Y4385155D03*
Y4359775D03*
X3350150D03*
X3322810D03*
X3323290Y4334125D03*
X3295480Y4334155D03*
Y4359775D03*
Y4307155D03*
Y4280155D03*
X3351750Y4434105D03*
X3299480Y4523155D03*
X3280000Y4506145D03*
X3254650Y4483145D03*
X3229650D03*
Y4456145D03*
X3093480Y4457155D03*
X3069480D03*
X3017000Y4457145D03*
X2993000D03*
X2969000D03*
G54D12*
X2968650Y4481145D03*
G54D10*
X2992650D03*
G54D12*
X3016650D03*
G54D10*
X2944000Y4457145D03*
X2912650Y4525145D03*
X2887920D03*
G54D12*
X2887650Y4549145D03*
X2911650D03*
G54D10*
X2862950Y4530155D03*
X2840950D03*
G54D12*
X2846480Y4565155D03*
X2867000Y4587145D03*
G54D10*
X2866480Y4638155D03*
Y4673155D03*
X2844650Y4717145D03*
X2866480Y4743155D03*
Y4778155D03*
X2874480Y4873145D03*
X2850000D03*
Y4898815D03*
X2874650D03*
X2850000Y4923485D03*
X2909000Y4873145D03*
X2933000D03*
X2959500D03*
Y4898815D03*
Y4925775D03*
Y4847155D03*
G54D12*
X2983000Y4833145D03*
X3006000D03*
G54D10*
X3196480Y4813155D03*
X3248480Y4825155D03*
Y4849155D03*
Y4874155D03*
X3233000Y4899145D03*
X3272000Y4898145D03*
X3333000Y4900145D03*
X3357000Y4899145D03*
X3381000D03*
G54D12*
X3256480Y4799155D03*
Y4774155D03*
G54D10*
X3242480Y4754155D03*
G54D12*
X2826480Y4287155D03*
G54D10*
X2809480Y4307155D03*
X2792480Y4266155D03*
X2766480D03*
X2746000Y4400145D03*
G54D12*
X2710480Y4472155D03*
G54D10*
X2709480Y4518155D03*
X2747480Y4535155D03*
X2764480Y4561155D03*
X2759000Y4841145D03*
Y4864145D03*
X2730480Y4816155D03*
X2311650Y4921145D03*
X1723300Y4897985D03*
X1569500Y4861695D03*
Y4835595D03*
Y4809495D03*
Y4783395D03*
Y4757295D03*
Y4731195D03*
Y4705095D03*
X1519400Y4628145D03*
X1493300D03*
X1467200D03*
X1441100D03*
X1415000D03*
X1388900D03*
X1362800D03*
X1336700D03*
X1311000D03*
X1298000Y4649895D03*
X1273500D03*
Y4678475D03*
X1298000D03*
Y4707065D03*
X1273500D03*
Y4735645D03*
X1298000D03*
Y4764225D03*
X1273500D03*
Y4792815D03*
X1298000D03*
Y4821395D03*
X1273500D03*
Y4849975D03*
X1298000D03*
Y4878565D03*
X1273500D03*
Y4907145D03*
X1298000D03*
X1327900D03*
X1357100D03*
X1386300D03*
X1413000D03*
G54D12*
X1992480Y4275155D03*
G54D10*
X2438480Y4372155D03*
X596480Y4406155D03*
G54D12*
X793000Y4607145D03*
X600520Y5696075D03*
X629520Y5726075D03*
X659520Y5756075D03*
G54D10*
X1418870Y5329995D03*
G54D12*
X1706930Y5250465D03*
X1735500Y5253895D03*
G54D10*
X2022000Y5051145D03*
X2652500Y5179895D03*
X2729930Y5201985D03*
X2763930Y5205995D03*
X2771930Y5170985D03*
G54D12*
X2812500Y5186985D03*
G54D10*
X2756480Y5102155D03*
X2686930Y4937985D03*
G54D12*
X2774300Y5713985D03*
X2794300Y5714585D03*
X3017480Y5208155D03*
G54D10*
X3073800Y5219845D03*
X3072690Y4979155D03*
X3099290D03*
X3125890D03*
X3152500D03*
X3178480Y4987155D03*
X3178500Y4962895D03*
Y4936155D03*
X3178480Y5013155D03*
X3200480Y5028155D03*
X3291000Y5034145D03*
X3316480D03*
Y5008655D03*
Y4983155D03*
X3302480Y4961155D03*
X3303030Y4936155D03*
X3327940D03*
X3352850D03*
X3377760D03*
X3402660Y4937155D03*
X3427570Y4936155D03*
X3452480D03*
X3046080Y4979155D03*
X3019480D03*
X2983480D03*
X2959480D03*
X2959500Y4951965D03*
X2949000Y5003145D03*
X2923000D03*
X2898000D03*
X2866000Y4967145D03*
X2850000Y4948145D03*
X3145480Y4453155D03*
X2975480Y4773155D03*
X2872440Y4811425D03*
X3567650Y4901145D03*
Y4932145D03*
X2621650Y4622145D03*
Y4594145D03*
X2589650Y4593145D03*
Y4622145D03*
X2608000Y4208145D03*
X2637500D03*
X2667000D03*
X2567450Y4202145D03*
X2534360D03*
X2501260D03*
X2468170D03*
X2435070D03*
X2401980D03*
X2368880D03*
X2335790D03*
X2302690D03*
X2269600D03*
X2236500D03*
X2203410D03*
X2170310D03*
X2137220D03*
X2104120D03*
X2071030D03*
X2037930D03*
X2004840D03*
X1971740D03*
X1938650D03*
X1770650Y4201145D03*
X1740310D03*
X1709980D03*
X1679650D03*
X1504650Y4205145D03*
X1476650D03*
X1448650D03*
X1420650D03*
X1301610Y4250285D03*
X2410480Y4255155D03*
X2442900D03*
X2475320D03*
X2507740D03*
X2293930Y4387985D03*
X1249640Y4203865D03*
X1221300D03*
X1192970D03*
X1164640D03*
X1172480Y4254155D03*
X991650Y4216145D03*
X962650D03*
X945480Y4248155D03*
X800070Y4225435D03*
X615480Y4536155D03*
X572760Y4535435D03*
X560480Y4511155D03*
X414930Y4440995D03*
X321000Y4281145D03*
X284000D03*
X143220Y4209135D03*
X107650Y4218145D03*
X80650Y4236145D03*
X58650Y4257145D03*
X45480Y4287155D03*
X45460Y4318415D03*
Y4347415D03*
Y4376415D03*
Y4405415D03*
Y4434415D03*
X168480Y4523155D03*
X168460Y4554415D03*
Y4583415D03*
Y4612415D03*
Y4641415D03*
Y4670415D03*
X1079000Y4566145D03*
Y4539145D03*
X312000Y5498155D03*
X315930Y5530465D03*
X279000Y5528145D03*
X344500Y5544895D03*
X314500Y5654895D03*
X379740Y5698025D03*
X380690Y5726655D03*
X245500Y5718895D03*
X136650Y5720945D03*
Y5753545D03*
Y5786145D03*
Y5688345D03*
Y5655745D03*
Y5623145D03*
X54460Y5813155D03*
Y5844415D03*
Y5873415D03*
Y5902415D03*
Y5931415D03*
Y5960415D03*
X140480Y6033175D03*
X171740D03*
X200740D03*
X229740D03*
X258740D03*
X287740D03*
X487480Y6042175D03*
X518740D03*
X547830Y6041279D03*
X577098Y6041816D03*
X528500Y5798895D03*
X255000Y5452155D03*
X1415480Y5801155D03*
X1452480Y5839155D03*
X1710500Y5791895D03*
X1908500Y5774895D03*
X2039500Y5671895D03*
X2064480Y5870155D03*
X2292560Y5874665D03*
X2306650Y5073145D03*
X2227480Y5119155D03*
X2510500Y5066985D03*
X2753480Y5062155D03*
X2753650Y5034145D03*
X2783650D03*
X2783480Y5062155D03*
X2813480Y5063155D03*
Y5035155D03*
X2995480Y5060155D03*
X3025480D03*
X2934480Y5181155D03*
X2935480Y5209155D03*
X2928650Y5305155D03*
X2922480Y5340155D03*
X2893470D03*
X2861500Y5300985D03*
X3144480Y5254155D03*
X3235940Y5180155D03*
X3265940D03*
X3295940D03*
X3381650Y5124145D03*
Y5094145D03*
Y5064145D03*
Y5034145D03*
Y5004145D03*
X3452650Y4963145D03*
X3490980D03*
X3529310D03*
X3567650D03*
X3545480Y5395155D03*
X3448480Y5419155D03*
Y5462655D03*
Y5506155D03*
X3470650Y5767145D03*
X3501650Y5792145D03*
Y5821145D03*
Y5850145D03*
X3374480Y5914155D03*
X3376210Y6034175D03*
X3345400D03*
X3314590D03*
X3283780D03*
X3252970D03*
X3222160D03*
X3191350D03*
X3160540D03*
X3129720D03*
X3098910D03*
X3068100D03*
X3037290D03*
X3006480D03*
X3007870Y5900565D03*
X3038370D03*
X3089810Y5970825D03*
X3129480Y5974155D03*
X3144480Y5814155D03*
X3180100Y5769705D03*
X3197950Y5423155D03*
X3197650Y5395145D03*
X3198650Y5367145D03*
X3407020Y6034175D03*
X3437830D03*
X3468650D03*
X445650Y5586145D03*
X458650Y5606145D03*
G54D13*
X1081930Y4835465D03*
Y4975465D03*
X1115520Y5128985D03*
X1312300D03*
X1275300Y5077985D03*
X1422300Y5128985D03*
X1614300Y5241985D03*
X1606060Y5518535D03*
X1597350Y5603335D03*
X1706930Y4997985D03*
X1726930Y4982985D03*
G54D14*
X3208480Y4363155D03*
X3335480Y4509155D03*
X2494760Y4408295D03*
X2202930Y4265995D03*
X2155650Y4927145D03*
X2120650D03*
X1724000Y4731385D03*
X1453650Y4916145D03*
X1411930Y4415465D03*
X1339650Y4245145D03*
X695650Y4230145D03*
X653150D03*
X610650D03*
Y4274145D03*
X653150D03*
X610650Y4317145D03*
X722480Y4420155D03*
X754480D03*
X919000Y4646385D03*
X399480Y4636155D03*
X255480Y4825155D03*
X434930Y4230465D03*
X517840Y5644655D03*
X544500Y5619475D03*
X793930Y5772465D03*
X817860Y5837715D03*
X845480Y5812155D03*
X908060Y5887035D03*
X889500Y5914895D03*
X882930Y5993465D03*
X822000Y5981155D03*
X1110500Y6002895D03*
X307500Y5823985D03*
X268930Y5825465D03*
X1347480Y5950155D03*
X1386480D03*
Y5992155D03*
X1346480D03*
X1890480Y5924155D03*
X2126960Y5892155D03*
X2127480Y5857155D03*
X2263000Y5844145D03*
X2297000Y5843145D03*
X2350000Y5855145D03*
X2351500Y5895895D03*
X2383500D03*
X2466930Y5897985D03*
X2264000Y5879145D03*
X2194480Y5725155D03*
X2184650Y5641145D03*
X2219650Y5642145D03*
X2220650Y5605145D03*
X2185650D03*
X2096480Y5649155D03*
X1921480Y5212155D03*
X1746500Y4936385D03*
X1714500Y4935895D03*
X1453650Y4957145D03*
X1452650Y5000145D03*
X1522240Y5085145D03*
X2226480Y5048155D03*
X2427650Y5034145D03*
X2463650D03*
X2452000Y5281145D03*
X2422000Y5282145D03*
X2382480Y5239155D03*
X2686930Y5217985D03*
X2830480Y5254155D03*
X2958500Y5957985D03*
G54D15*
X358300Y4404635D03*
X450790Y4370975D03*
X543280Y4337305D03*
G54D16*
X59060Y4515735D03*
Y5728335D03*
X2311020Y5354325D03*
X3539370Y5728335D03*
G54D17*
X1430520Y4764075D03*
G54D18*
X2611930Y5705465D03*
G54D10*
X6745780Y708154D03*
X6789090D03*
X6832400D03*
Y751464D03*
X6789090D03*
Y794764D03*
X6832400D03*
X6745780D03*
Y751464D03*
G54D11*
X6512640Y461154D03*
X6524640Y526154D03*
X6692810Y596144D03*
X6691810Y614144D03*
G54D12*
X6745810Y613144D03*
G54D11*
X6752640Y577154D03*
X6773640D03*
X6662640Y761154D03*
X6917810Y758644D03*
Y777144D03*
Y740144D03*
X6899810Y840144D03*
Y862144D03*
X6818090Y880984D03*
X6801090Y890984D03*
X6290030Y518934D03*
X6307620Y500454D03*
X6270350Y535724D03*
X6120090Y528984D03*
Y504994D03*
X6119090Y483464D03*
Y552994D03*
X6146810Y606144D03*
X5999090Y609984D03*
X5982090Y630984D03*
X5965090Y645994D03*
X6014090Y586984D03*
X6014640Y468154D03*
X6034090Y455994D03*
X6053810Y442264D03*
X6073500Y431574D03*
X6194090Y438464D03*
X5979270Y483784D03*
X5896090Y482994D03*
G54D12*
X5914810Y458144D03*
Y436144D03*
G54D11*
X5860810Y467144D03*
X5838810D03*
X5800640Y463154D03*
X5761460Y524984D03*
X5758460Y551984D03*
X5742460Y566984D03*
X5729460Y582984D03*
X5710460Y598984D03*
X5692460Y613984D03*
X5676600Y645974D03*
X5662660Y661894D03*
X5649090Y678464D03*
X5629090Y693464D03*
X5614090Y708464D03*
X5599090Y723464D03*
X5589090Y743464D03*
X5594090Y848464D03*
X5428160Y837154D03*
X5410160Y854154D03*
X5391160Y863154D03*
X5432090Y893464D03*
X5414460Y490464D03*
X5383460D03*
X5351460D03*
X5367460Y468464D03*
X5399460D03*
X5430460D03*
X5454090D03*
G54D12*
X5475810Y492144D03*
Y514144D03*
G54D11*
X5594090Y499724D03*
Y478464D03*
G54D12*
X5618810Y491144D03*
G54D11*
X5603090Y520614D03*
X5594460Y629984D03*
X5634460D03*
G54D12*
X5728810Y506144D03*
X5729810Y319144D03*
X5752140D03*
X5774470D03*
X5796810D03*
G54D11*
X5850090Y648984D03*
X5867090Y661994D03*
X5814090Y693464D03*
X5794640Y713154D03*
X5788660Y736844D03*
X5978090Y762254D03*
X5859090Y961254D03*
X5255160Y483154D03*
X5232160D03*
X5210460Y468464D03*
X5178460D03*
X5164090Y490464D03*
X5144090D03*
X5124090D03*
X5194460D03*
X5055660Y468464D03*
X5032660D03*
X5005460D03*
X4989090Y483464D03*
X4974090Y468464D03*
X4953660Y478984D03*
X5068160Y332144D03*
X5048090Y293994D03*
X5115160Y355144D03*
X5146160D03*
X5225790Y323884D03*
X5241540Y337884D03*
X5257290Y351884D03*
X5267090Y299994D03*
X5288780Y301154D03*
X5320280Y351884D03*
X4843460Y465984D03*
X4818460D03*
X4800660Y683984D03*
X4779090Y723464D03*
X4636090Y649784D03*
X4598640Y615154D03*
X4599090Y550604D03*
G54D12*
X4409160Y747154D03*
X4378160Y746154D03*
X4348160Y744154D03*
G54D11*
X4519090Y868464D03*
G54D12*
X4107810Y807144D03*
X4081060D03*
X4054310D03*
G54D11*
X4053160Y784144D03*
G54D12*
X4027560Y807144D03*
X3964160Y763154D03*
X3983160Y741154D03*
X4008160Y707154D03*
G54D11*
X3876680Y763674D03*
X3891160Y782154D03*
X3904160Y800154D03*
G54D12*
X3849160Y965154D03*
Y989154D03*
G54D11*
X3779160Y983154D03*
G54D12*
X3724160Y991154D03*
Y967154D03*
Y942614D03*
X3849160Y1013694D03*
G54D11*
X3838160Y1156154D03*
G54D12*
X3851160Y1191154D03*
Y1215154D03*
Y1239694D03*
Y1264234D03*
G54D11*
X3806160Y1300154D03*
G54D12*
X3770160Y1303154D03*
X3746160D03*
X3721620D03*
X3717160Y1230234D03*
Y1205694D03*
Y1181154D03*
Y1157154D03*
G54D11*
X3888160Y1318154D03*
X3914090Y1380984D03*
X3923680Y1404074D03*
X3953680Y1434074D03*
X3983680Y1464074D03*
X4098680D03*
G54D12*
X4067680Y1501074D03*
X4101680Y1533074D03*
X4131680Y1563074D03*
G54D11*
X4148660Y1606894D03*
X4190560Y1656194D03*
X4282680Y1664074D03*
G54D12*
X4280680Y1701074D03*
X4310680Y1730074D03*
X4339680Y1760074D03*
X4370680Y1790074D03*
G54D11*
X4369680Y1851074D03*
G54D12*
X4303810Y1866144D03*
X4281140D03*
Y1844144D03*
X4258470D03*
Y1866144D03*
G54D11*
X4243160Y1991144D03*
Y2036144D03*
X4399660Y2020894D03*
Y1985894D03*
G54D12*
X4447870Y1807634D03*
G54D11*
X4471530Y1803114D03*
G54D12*
X4493720Y1803014D03*
X4616810Y1812144D03*
X4647310D03*
X4677810D03*
X4867810D03*
X4889810D03*
X4911810D03*
G54D11*
X4924090Y1418464D03*
X4870460Y1380984D03*
X4755680Y1298074D03*
X4900660Y1167894D03*
X4519460Y1037984D03*
X4341110Y1155154D03*
X4351080Y1189684D03*
X4373360Y1211954D03*
X4395620Y1234224D03*
X4404460Y1293294D03*
X4484710Y1323314D03*
X4508680Y1344074D03*
X4529250Y1367854D03*
X4551360Y1390294D03*
X4573790Y1412394D03*
X4596070Y1434664D03*
X4618330Y1456934D03*
X4639750Y1480064D03*
X4624100Y1514924D03*
X4491680Y1472074D03*
X4516000Y1446524D03*
X4470040Y1403074D03*
X4433680Y1418074D03*
X4364270Y1371074D03*
X4317060Y1373454D03*
X4321100Y1351824D03*
X4314480Y1471274D03*
X4293260Y1492484D03*
X4291210Y1448114D03*
X4248560Y1408194D03*
X4169520Y1415794D03*
X4190730Y1439114D03*
X4147270Y1393494D03*
X4126460Y1369984D03*
X4102340Y1349334D03*
G54D12*
X4057680Y1391074D03*
X4026680Y1361074D03*
X3997680Y1331074D03*
X3969680Y1298074D03*
X3963680Y1269074D03*
X3848160Y1404154D03*
Y1428154D03*
Y1452694D03*
Y1477234D03*
Y1501234D03*
Y1525764D03*
Y1550304D03*
Y1574304D03*
Y1598844D03*
Y1623384D03*
G54D11*
X4246680Y1729074D03*
X4268680Y1529074D03*
X4303500Y1549054D03*
X4325080Y1572024D03*
X4346640Y1595014D03*
X4369960Y1616224D03*
X4386190Y1635304D03*
X4422915Y1670220D03*
X4457680Y1693074D03*
X4468190Y1626454D03*
X4491460Y1604294D03*
X4428720Y1583734D03*
X4402460Y1557984D03*
X4306540Y1145144D03*
G54D12*
X5139090Y1133464D03*
G54D11*
X5209090Y1303464D03*
X5228660Y1309984D03*
X5227640Y1368154D03*
X5210640Y1353154D03*
X5210810Y1418144D03*
X5235640Y1414154D03*
X5288640Y1460154D03*
G54D12*
X5280680Y1499074D03*
X5280640Y1541034D03*
X5280550Y1625204D03*
G54D11*
X5386640Y1608154D03*
X5418640Y1593364D03*
X5454190D03*
X5469660Y1608894D03*
G54D12*
X5466160Y1635144D03*
G54D11*
X5408640Y1642154D03*
X5386160Y1689144D03*
X5399160Y1705144D03*
X5386160Y1722144D03*
X5366160Y1731144D03*
X5399160Y1739894D03*
X5379810Y1829144D03*
X5329810Y1836154D03*
Y1796624D03*
Y1881144D03*
Y1901654D03*
Y1922154D03*
Y1960994D03*
X5370640Y1993154D03*
X5393640D03*
X5396640Y1939764D03*
Y1908154D03*
X5379810Y1896144D03*
Y1923894D03*
X5462810Y1994144D03*
X5585660Y1934894D03*
Y1902894D03*
Y1870894D03*
X5550640Y1877154D03*
X5565660Y1821894D03*
X5585660Y1814894D03*
Y1793894D03*
Y1773894D03*
Y1753894D03*
X5565660Y1748894D03*
X5550160Y1734894D03*
Y1767144D03*
X5565660Y1785394D03*
X5550160Y1801144D03*
X5595160Y1720144D03*
X5581660Y1703894D03*
X5567760Y1687794D03*
X5607160Y1617144D03*
Y1594944D03*
Y1572744D03*
Y1550544D03*
Y1528344D03*
Y1506144D03*
X5577660Y1498984D03*
X5578660Y1477984D03*
Y1455984D03*
X5546660Y1460984D03*
X5498660Y1460894D03*
X5476660D03*
X5453660D03*
X5405660Y1460984D03*
X5382660Y1460894D03*
X5360640Y1461154D03*
X5375660Y1365894D03*
X5339810Y1207144D03*
X5324090Y1193464D03*
X5408660Y1182984D03*
X5409090Y1155984D03*
X5594090Y1118464D03*
X5581050Y1055424D03*
X5544810Y1269144D03*
X5548810Y1303144D03*
X5568810Y1309144D03*
X5580660Y1325984D03*
X5601660Y1332984D03*
X5693660Y1559894D03*
Y1579894D03*
Y1599894D03*
X5693160Y1619894D03*
X5693660Y1639894D03*
Y1662894D03*
X5692660Y1732894D03*
Y1781894D03*
Y1802894D03*
Y1824894D03*
Y1847894D03*
X5707160Y1893644D03*
Y1915144D03*
Y1936644D03*
X5678160Y1923144D03*
X6029640Y1877464D03*
G54D12*
X6026220Y1793464D03*
X6134160Y1781144D03*
G54D11*
X6141160Y1765144D03*
X6125160D03*
G54D12*
X6131160Y1733144D03*
X6130060Y1716144D03*
G54D11*
X6146160Y1740144D03*
X6132160Y1807834D03*
X6134090Y1858464D03*
X6229090Y1923464D03*
X6244971Y1923871D03*
X6277160Y1928144D03*
X6299090Y1923464D03*
X6379090Y1931844D03*
Y1953464D03*
Y1978464D03*
X6415160Y1947144D03*
X6414160Y1929144D03*
X6443160Y1945144D03*
X6454160Y1958144D03*
G54D12*
X6428930Y2103304D03*
G54D11*
X6161660Y2019894D03*
Y2001894D03*
G54D12*
X5999660Y2101894D03*
X6033810Y1642144D03*
G54D11*
X6014640Y1592154D03*
X6064810Y1558144D03*
X6085310D03*
X6084810Y1539144D03*
X6105810D03*
Y1558144D03*
G54D12*
X6108660Y1599894D03*
X6109090Y1617894D03*
G54D11*
X6148302Y1602262D03*
G54D12*
X6164090Y1602144D03*
X6179994Y1602248D03*
X6195994D03*
G54D11*
X6164090Y1633464D03*
X6264160Y1614144D03*
G54D12*
X6257160Y1598144D03*
G54D11*
X6313260Y1595434D03*
X6312710Y1611464D03*
X6425640Y1631154D03*
X6453660Y1711984D03*
X6474950Y1709314D03*
X6469640Y1729154D03*
X6351640Y1482154D03*
X6231160Y1465144D03*
G54D12*
X6213160D03*
X6196160D03*
G54D11*
X6226160Y1393144D03*
X6245160D03*
X6253160Y1375144D03*
X6236160D03*
X6219160D03*
X6014640Y1494154D03*
G54D12*
X5823640Y1529154D03*
G54D11*
X5508660Y1593894D03*
X5224640Y1796624D03*
Y1817384D03*
Y1838154D03*
Y1869154D03*
Y1920154D03*
X5225640Y1943654D03*
Y1967154D03*
X5201810Y1956154D03*
Y1931154D03*
Y1906144D03*
X5143640Y1863154D03*
X5118640D03*
X5104160Y1834144D03*
G54D12*
Y1812144D03*
G54D11*
X5077640Y1816154D03*
G54D12*
X4955810Y1812144D03*
X4933810D03*
G54D11*
X5032640Y1944154D03*
X5062640Y1967154D03*
X5807640Y1031154D03*
X6325090Y1039994D03*
X6688810Y1419144D03*
X6689810Y1446144D03*
X6671640Y1460154D03*
X6725080Y1436594D03*
X6783640Y1466154D03*
X6787160Y1506144D03*
X6751640Y1568154D03*
X6709640Y1561154D03*
X6708640Y1536154D03*
G54D12*
X6868320Y1532624D03*
X6879110Y1674154D03*
X6878100Y1699154D03*
G54D11*
X6877100Y1728154D03*
X6889690Y1783524D03*
X6686640Y1732154D03*
X6646110Y1718154D03*
G54D12*
X6645640Y1751154D03*
X6615100Y1712154D03*
G54D11*
X6585640Y1726154D03*
X6580640Y1618154D03*
X6598640Y1599154D03*
X6562640Y1590154D03*
X6648640Y1647154D03*
X6869130Y2052644D03*
X6934640Y2045154D03*
G54D12*
X6496040Y329154D03*
G54D10*
X6523810D03*
X6551570D03*
X6579340D03*
X6607110D03*
X6634870D03*
X6662640D03*
X6751640D03*
X6775640D03*
X6800640D03*
X6824640D03*
X6848640D03*
X6872640D03*
X6896640D03*
X6921640D03*
X6945640D03*
X6972640Y316154D03*
Y289154D03*
Y265154D03*
X6998810D03*
X7024970D03*
X7051140D03*
X7077310D03*
X7103470D03*
X7129640D03*
X7161640Y277154D03*
X7187640Y291154D03*
X7211640Y308154D03*
X7231640Y327154D03*
X7244208Y357768D03*
X7245640Y386154D03*
X7246640Y418154D03*
Y445154D03*
Y472154D03*
Y499154D03*
Y526154D03*
Y553154D03*
Y577154D03*
X7216640D03*
X7188160Y577144D03*
X7162160D03*
X7139640Y587154D03*
Y612384D03*
Y637614D03*
Y662844D03*
Y688074D03*
Y713304D03*
Y738534D03*
Y763774D03*
Y789004D03*
Y814234D03*
Y839464D03*
Y864694D03*
Y889924D03*
G54D12*
Y915154D03*
G54D10*
X7130100Y955154D03*
Y978154D03*
X7155110Y954154D03*
X7179110Y941154D03*
X7202160Y929144D03*
X7226160D03*
X7250160D03*
X7100640Y903154D03*
X7076640D03*
X7052640D03*
X7028640D03*
X7004640D03*
X6980640D03*
Y879154D03*
X6968640Y857154D03*
Y833154D03*
Y808154D03*
X6972640Y784154D03*
X6997640D03*
X7016640Y767154D03*
Y742654D03*
Y718154D03*
X7041640D03*
X7054640Y697154D03*
Y672154D03*
Y647154D03*
Y622154D03*
Y597154D03*
Y572154D03*
Y547154D03*
Y522154D03*
Y497154D03*
Y472154D03*
Y448154D03*
Y422774D03*
X7027310D03*
X6999970D03*
X7000450Y397124D03*
X6972640Y397154D03*
Y422774D03*
Y370154D03*
Y343154D03*
X7028910Y497104D03*
X6976640Y586154D03*
X6957160Y569144D03*
X6931810Y546144D03*
X6906810D03*
Y519144D03*
X6770640Y520154D03*
X6746640D03*
X6694160Y520144D03*
X6670160D03*
X6646160D03*
G54D12*
X6645810Y544144D03*
G54D10*
X6669810D03*
G54D12*
X6693810D03*
G54D10*
X6621160Y520144D03*
X6589810Y588144D03*
X6565080D03*
G54D12*
X6564810Y612144D03*
X6588810D03*
G54D10*
X6540110Y593154D03*
X6518110D03*
G54D12*
X6523640Y628154D03*
X6544160Y650144D03*
G54D10*
X6543640Y701154D03*
Y736154D03*
X6521810Y780144D03*
X6543640Y806154D03*
Y841154D03*
X6551640Y936144D03*
X6527160D03*
Y961814D03*
X6551810D03*
X6527160Y986484D03*
X6586160Y936144D03*
X6610160D03*
X6636660D03*
Y961814D03*
Y988774D03*
Y910154D03*
G54D12*
X6660160Y896144D03*
X6683160D03*
G54D10*
X6873640Y876154D03*
X6925640Y888154D03*
Y912154D03*
Y937154D03*
X6910160Y962144D03*
X6949160Y961144D03*
X7010160Y963144D03*
X7034160Y962144D03*
X7058160D03*
G54D12*
X6933640Y862154D03*
Y837154D03*
G54D10*
X6919640Y817154D03*
G54D12*
X6503640Y350154D03*
G54D10*
X6486640Y370154D03*
X6469640Y329154D03*
X6443640D03*
X6423160Y463144D03*
G54D12*
X6387640Y535154D03*
G54D10*
X6386640Y581154D03*
X6424640Y598154D03*
X6441640Y624154D03*
X6436160Y904144D03*
Y927144D03*
X6407640Y879154D03*
X5988810Y984144D03*
X5400460Y960984D03*
X5246660Y924694D03*
Y898594D03*
Y872494D03*
Y846394D03*
Y820294D03*
Y794194D03*
Y768094D03*
X5196560Y691144D03*
X5170460D03*
X5144360D03*
X5118260D03*
X5092160D03*
X5066060D03*
X5039960D03*
X5013860D03*
X4988160D03*
X4975160Y712894D03*
X4950660D03*
Y741474D03*
X4975160D03*
Y770064D03*
X4950660D03*
Y798644D03*
X4975160D03*
Y827224D03*
X4950660D03*
Y855814D03*
X4975160D03*
Y884394D03*
X4950660D03*
Y912974D03*
X4975160D03*
Y941564D03*
X4950660D03*
Y970144D03*
X4975160D03*
X5005060D03*
X5034260D03*
X5063460D03*
X5090160D03*
G54D12*
X5669640Y338154D03*
G54D10*
X6115640Y435154D03*
X4273640Y469154D03*
G54D12*
X4470160Y670144D03*
X4277680Y1759074D03*
X4306680Y1789074D03*
X4336680Y1819074D03*
G54D10*
X5096030Y1392994D03*
G54D12*
X5384090Y1313464D03*
X5412660Y1316894D03*
G54D10*
X5699160Y1114144D03*
X6329660Y1242894D03*
X6407090Y1264984D03*
X6441090Y1268994D03*
X6449090Y1233984D03*
G54D12*
X6489660Y1249984D03*
G54D10*
X6433640Y1165154D03*
X6364090Y1000984D03*
G54D12*
X6451460Y1776984D03*
X6471460Y1777584D03*
X6694640Y1271154D03*
G54D10*
X6750960Y1282844D03*
X6749850Y1042154D03*
X6776450D03*
X6803050D03*
X6829660D03*
X6855640Y1050154D03*
X6855660Y1025894D03*
Y999154D03*
X6855640Y1076154D03*
X6877640Y1091154D03*
X6968160Y1097144D03*
X6993640D03*
Y1071654D03*
Y1046154D03*
X6979640Y1024154D03*
X6980190Y999154D03*
X7005100D03*
X7030010D03*
X7054920D03*
X7079820Y1000154D03*
X7104730Y999154D03*
X7129640D03*
X6723240Y1042154D03*
X6696640D03*
X6660640D03*
X6636640D03*
X6636660Y1014964D03*
X6626160Y1066144D03*
X6600160D03*
X6575160D03*
X6543160Y1030144D03*
X6527160Y1011144D03*
X6822640Y516154D03*
X6652640Y836154D03*
X6549600Y874424D03*
X7244810Y964144D03*
Y995144D03*
X6298810Y685144D03*
Y657144D03*
X6266810Y656144D03*
Y685144D03*
X6285160Y271144D03*
X6314660D03*
X6344160D03*
X6244610Y265144D03*
X6211520D03*
X6178420D03*
X6145330D03*
X6112230D03*
X6079140D03*
X6046040D03*
X6012950D03*
X5979850D03*
X5946760D03*
X5913660D03*
X5880570D03*
X5847470D03*
X5814380D03*
X5781280D03*
X5748190D03*
X5715090D03*
X5682000D03*
X5648900D03*
X5615810D03*
X5447810Y264144D03*
X5417470D03*
X5387140D03*
X5356810D03*
X5181810Y268144D03*
X5153810D03*
X5125810D03*
X5097810D03*
X4978770Y313284D03*
X6087640Y318154D03*
X6120060D03*
X6152480D03*
X6184900D03*
X5971090Y450984D03*
X4926800Y266864D03*
X4898460D03*
X4870130D03*
X4841800D03*
X4849640Y317154D03*
X4668810Y279144D03*
X4639810D03*
X4622640Y311154D03*
X4477230Y288434D03*
X4292640Y599154D03*
X4249920Y598434D03*
X4237640Y574154D03*
X4092090Y503994D03*
X3998160Y344144D03*
X3961160D03*
X3820380Y272134D03*
X3784810Y281144D03*
X3757810Y299144D03*
X3735810Y320144D03*
X3722640Y350154D03*
X3722620Y381414D03*
Y410414D03*
Y439414D03*
Y468414D03*
Y497414D03*
X3845640Y586154D03*
X3845620Y617414D03*
Y646414D03*
Y675414D03*
Y704414D03*
Y733414D03*
X4756160Y629144D03*
Y602144D03*
X3989160Y1561154D03*
X3993090Y1593464D03*
X3956160Y1591144D03*
X4021660Y1607894D03*
X3991660Y1717894D03*
X4056900Y1761024D03*
X4057850Y1789654D03*
X3922660Y1781894D03*
X3813810Y1783944D03*
Y1816544D03*
Y1849144D03*
Y1751344D03*
Y1718744D03*
Y1686144D03*
X3731620Y1876154D03*
Y1907414D03*
Y1936414D03*
Y1965414D03*
Y1994414D03*
Y2023414D03*
X3817640Y2096174D03*
X3848900D03*
X3877900D03*
X3906900D03*
X3935900D03*
X3964900D03*
X4164640Y2105174D03*
X4195900D03*
X4224990Y2104279D03*
X4254258Y2104816D03*
X4205660Y1861894D03*
X3932160Y1515154D03*
X5092640Y1864154D03*
X5129640Y1902154D03*
X5387660Y1854894D03*
X5585660Y1837894D03*
X5716660Y1734894D03*
X5741640Y1933154D03*
X5969720Y1937664D03*
X5983810Y1136144D03*
X5904640Y1182154D03*
X6187660Y1129984D03*
X6430640Y1125154D03*
X6430810Y1097144D03*
X6460810D03*
X6460640Y1125154D03*
X6490640Y1126154D03*
Y1098154D03*
X6672640Y1123154D03*
X6702640D03*
X6611640Y1244154D03*
X6612640Y1272154D03*
X6605810Y1368154D03*
X6599640Y1403154D03*
X6570630D03*
X6538660Y1363984D03*
X6821640Y1317154D03*
X6913100Y1243154D03*
X6943100D03*
X6973100D03*
X7058810Y1187144D03*
Y1157144D03*
Y1127144D03*
Y1097144D03*
Y1067144D03*
X7129810Y1026144D03*
X7168140D03*
X7206470D03*
X7244810D03*
X7222640Y1458154D03*
X7125640Y1482154D03*
Y1525654D03*
Y1569154D03*
X7147810Y1830144D03*
X7178810Y1855144D03*
Y1884144D03*
Y1913144D03*
X7051640Y1977154D03*
X7053370Y2097174D03*
X7022560D03*
X6991750D03*
X6960940D03*
X6930130D03*
X6899320D03*
X6868510D03*
X6837700D03*
X6806880D03*
X6776070D03*
X6745260D03*
X6714450D03*
X6683640D03*
X6685030Y1963564D03*
X6715530D03*
X6766970Y2033824D03*
X6806640Y2037154D03*
X6821640Y1877154D03*
X6857260Y1832704D03*
X6875110Y1486154D03*
X6874810Y1458144D03*
X6875810Y1430144D03*
X7084180Y2097174D03*
X7114990D03*
X7145810D03*
X4122810Y1649144D03*
X4135810Y1669144D03*
G54D13*
X4759090Y898464D03*
Y1038464D03*
X4792680Y1191984D03*
X4989460D03*
X4952460Y1140984D03*
X5099460Y1191984D03*
X5291460Y1304984D03*
X5283220Y1581534D03*
X5274510Y1666334D03*
X5384090Y1060984D03*
X5404090Y1045984D03*
G54D14*
X6885640Y426154D03*
X7012640Y572154D03*
X6171920Y471294D03*
X5880090Y328994D03*
X5832810Y990144D03*
X5797810D03*
X5401160Y794384D03*
X5130810Y979144D03*
X5089090Y478464D03*
X5016810Y308144D03*
X4372810Y293144D03*
X4330310D03*
X4287810D03*
Y337144D03*
X4330310D03*
X4287810Y380144D03*
X4399640Y483154D03*
X4431640D03*
X4596160Y709384D03*
X4076640Y699154D03*
X3932640Y888154D03*
X4112090Y293464D03*
X4195000Y1707654D03*
X4221660Y1682474D03*
X4471090Y1835464D03*
X4495020Y1900714D03*
X4522640Y1875154D03*
X4585220Y1950034D03*
X4566660Y1977894D03*
X4560090Y2056464D03*
X4499160Y2044154D03*
X4787660Y2065894D03*
X3984660Y1886984D03*
X3946090Y1888464D03*
X5024640Y2013154D03*
X5063640D03*
Y2055154D03*
X5023640D03*
X5567640Y1987154D03*
X5804120Y1955154D03*
X5804640Y1920154D03*
X5940160Y1907144D03*
X5974160Y1906144D03*
X6027160Y1918144D03*
X6028660Y1958894D03*
X6060660D03*
X6144090Y1960984D03*
X5941160Y1942144D03*
X5871640Y1788154D03*
X5861810Y1704144D03*
X5896810Y1705144D03*
X5897810Y1668144D03*
X5862810D03*
X5773640Y1712154D03*
X5598640Y1275154D03*
X5423660Y999384D03*
X5391660Y998894D03*
X5130810Y1020144D03*
X5129810Y1063144D03*
X5199400Y1148144D03*
X5903640Y1111154D03*
X6104810Y1097144D03*
X6140810D03*
X6129160Y1344144D03*
X6099160Y1345144D03*
X6059640Y1302154D03*
X6364090Y1280984D03*
X6507640Y1317154D03*
X6635660Y2020984D03*
G54D15*
X4035460Y467634D03*
X4127950Y433974D03*
X4220440Y400304D03*
G54D16*
X3736220Y578734D03*
Y1791334D03*
X5988180Y1417324D03*
X7216530Y1791334D03*
G54D17*
X5107680Y827074D03*
G54D18*
X6289090Y1768464D03*
G54D10*
X6745780Y2676654D03*
X6789090D03*
X6832400D03*
Y2719964D03*
X6789090D03*
Y2763264D03*
X6832400D03*
X6745780D03*
Y2719964D03*
G54D11*
X6512640Y2429654D03*
X6524640Y2494654D03*
X6692810Y2564644D03*
X6691810Y2582644D03*
G54D12*
X6745810Y2581644D03*
G54D11*
X6752640Y2545654D03*
X6773640D03*
X6662640Y2729654D03*
X6917810Y2727144D03*
Y2745644D03*
Y2708644D03*
X6899810Y2808644D03*
Y2830644D03*
X6818090Y2849484D03*
X6801090Y2859484D03*
X6290030Y2487434D03*
X6307620Y2468954D03*
X6270350Y2504224D03*
X6120090Y2497484D03*
Y2473494D03*
X6119090Y2451964D03*
Y2521494D03*
X6146810Y2574644D03*
X5999090Y2578484D03*
X5982090Y2599484D03*
X5965090Y2614494D03*
X6014090Y2555484D03*
X6014640Y2436654D03*
X6034090Y2424494D03*
X6053810Y2410764D03*
X6073500Y2400074D03*
X6194090Y2406964D03*
X5979270Y2452284D03*
X5896090Y2451494D03*
G54D12*
X5914810Y2426644D03*
Y2404644D03*
G54D11*
X5860810Y2435644D03*
X5838810D03*
X5800640Y2431654D03*
X5761460Y2493484D03*
X5758460Y2520484D03*
X5742460Y2535484D03*
X5729460Y2551484D03*
X5710460Y2567484D03*
X5692460Y2582484D03*
X5676600Y2614474D03*
X5662660Y2630394D03*
X5649090Y2646964D03*
X5629090Y2661964D03*
X5614090Y2676964D03*
X5599090Y2691964D03*
X5589090Y2711964D03*
X5594090Y2816964D03*
X5428160Y2805654D03*
X5410160Y2822654D03*
X5391160Y2831654D03*
X5432090Y2861964D03*
X5414460Y2458964D03*
X5383460D03*
X5351460D03*
X5367460Y2436964D03*
X5399460D03*
X5430460D03*
X5454090D03*
G54D12*
X5475810Y2460644D03*
Y2482644D03*
G54D11*
X5594090Y2468224D03*
Y2446964D03*
G54D12*
X5618810Y2459644D03*
G54D11*
X5603090Y2489114D03*
X5594460Y2598484D03*
X5634460D03*
G54D12*
X5728810Y2474644D03*
X5729810Y2287644D03*
X5752140D03*
X5774470D03*
X5796810D03*
G54D11*
X5850090Y2617484D03*
X5867090Y2630494D03*
X5814090Y2661964D03*
X5794640Y2681654D03*
X5788660Y2705344D03*
X5978090Y2730754D03*
X5859090Y2929754D03*
X5255160Y2451654D03*
X5232160D03*
X5210460Y2436964D03*
X5178460D03*
X5164090Y2458964D03*
X5144090D03*
X5124090D03*
X5194460D03*
X5055660Y2436964D03*
X5032660D03*
X5005460D03*
X4989090Y2451964D03*
X4974090Y2436964D03*
X4953660Y2447484D03*
X5068160Y2300644D03*
X5048090Y2262494D03*
X5115160Y2323644D03*
X5146160D03*
X5225790Y2292384D03*
X5241540Y2306384D03*
X5257290Y2320384D03*
X5267090Y2268494D03*
X5288780Y2269654D03*
X5320280Y2320384D03*
X4843460Y2434484D03*
X4818460D03*
X4800660Y2652484D03*
X4779090Y2691964D03*
X4636090Y2618284D03*
X4598640Y2583654D03*
X4599090Y2519104D03*
G54D12*
X4409160Y2715654D03*
X4378160Y2714654D03*
X4348160Y2712654D03*
G54D11*
X4519090Y2836964D03*
G54D12*
X4107810Y2775644D03*
X4081060D03*
X4054310D03*
G54D11*
X4053160Y2752644D03*
G54D12*
X4027560Y2775644D03*
X3964160Y2731654D03*
X3983160Y2709654D03*
X4008160Y2675654D03*
G54D11*
X3876680Y2732174D03*
X3891160Y2750654D03*
X3904160Y2768654D03*
G54D12*
X3849160Y2933654D03*
Y2957654D03*
G54D11*
X3779160Y2951654D03*
G54D12*
X3724160Y2959654D03*
Y2935654D03*
Y2911114D03*
X3849160Y2982194D03*
G54D11*
X3838160Y3124654D03*
G54D12*
X3851160Y3159654D03*
Y3183654D03*
Y3208194D03*
Y3232734D03*
G54D11*
X3806160Y3268654D03*
G54D12*
X3770160Y3271654D03*
X3746160D03*
X3721620D03*
X3717160Y3198734D03*
Y3174194D03*
Y3149654D03*
Y3125654D03*
G54D11*
X3888160Y3286654D03*
X3914090Y3349484D03*
X3923680Y3372574D03*
X3953680Y3402574D03*
X3983680Y3432574D03*
X4098680D03*
G54D12*
X4067680Y3469574D03*
X4101680Y3501574D03*
X4131680Y3531574D03*
G54D11*
X4148660Y3575394D03*
X4190560Y3624694D03*
X4282680Y3632574D03*
G54D12*
X4280680Y3669574D03*
X4310680Y3698574D03*
X4339680Y3728574D03*
X4370680Y3758574D03*
G54D11*
X4369680Y3819574D03*
G54D12*
X4303810Y3834644D03*
X4281140D03*
Y3812644D03*
X4258470D03*
Y3834644D03*
G54D11*
X4243160Y3959644D03*
Y4004644D03*
X4399660Y3989394D03*
Y3954394D03*
G54D12*
X4447870Y3776134D03*
G54D11*
X4471530Y3771614D03*
G54D12*
X4493720Y3771514D03*
X4616810Y3780644D03*
X4647310D03*
X4677810D03*
X4867810D03*
X4889810D03*
X4911810D03*
G54D11*
X4924090Y3386964D03*
X4870460Y3349484D03*
X4755680Y3266574D03*
X4900660Y3136394D03*
X4519460Y3006484D03*
X4341110Y3123654D03*
X4351080Y3158184D03*
X4373360Y3180454D03*
X4395620Y3202724D03*
X4404460Y3261794D03*
X4484710Y3291814D03*
X4508680Y3312574D03*
X4529250Y3336354D03*
X4551360Y3358794D03*
X4573790Y3380894D03*
X4596070Y3403164D03*
X4618330Y3425434D03*
X4639750Y3448564D03*
X4624100Y3483424D03*
X4491680Y3440574D03*
X4516000Y3415024D03*
X4470040Y3371574D03*
X4433680Y3386574D03*
X4364270Y3339574D03*
X4317060Y3341954D03*
X4321100Y3320324D03*
X4314480Y3439774D03*
X4293260Y3460984D03*
X4291210Y3416614D03*
X4248560Y3376694D03*
X4169520Y3384294D03*
X4190730Y3407614D03*
X4147270Y3361994D03*
X4126460Y3338484D03*
X4102340Y3317834D03*
G54D12*
X4057680Y3359574D03*
X4026680Y3329574D03*
X3997680Y3299574D03*
X3969680Y3266574D03*
X3963680Y3237574D03*
X3848160Y3372654D03*
Y3396654D03*
Y3421194D03*
Y3445734D03*
Y3469734D03*
Y3494264D03*
Y3518804D03*
Y3542804D03*
Y3567344D03*
Y3591884D03*
G54D11*
X4246680Y3697574D03*
X4268680Y3497574D03*
X4303500Y3517554D03*
X4325080Y3540524D03*
X4346640Y3563514D03*
X4369960Y3584724D03*
X4386190Y3603804D03*
X4422915Y3638721D03*
X4457680Y3661574D03*
X4468190Y3594954D03*
X4491460Y3572794D03*
X4428720Y3552234D03*
X4402460Y3526484D03*
X4306540Y3113644D03*
G54D12*
X5139090Y3101964D03*
G54D11*
X5209090Y3271964D03*
X5228660Y3278484D03*
X5227640Y3336654D03*
X5210640Y3321654D03*
X5210810Y3386644D03*
X5235640Y3382654D03*
X5288640Y3428654D03*
G54D12*
X5280680Y3467574D03*
X5280640Y3509534D03*
X5280550Y3593704D03*
G54D11*
X5386640Y3576654D03*
X5418640Y3561864D03*
X5454190D03*
X5469660Y3577394D03*
G54D12*
X5466160Y3603644D03*
G54D11*
X5408640Y3610654D03*
X5386160Y3657644D03*
X5399160Y3673644D03*
X5386160Y3690644D03*
X5366160Y3699644D03*
X5399160Y3708394D03*
X5379810Y3797644D03*
X5329810Y3804654D03*
Y3765124D03*
Y3849644D03*
Y3870154D03*
Y3890654D03*
Y3929494D03*
X5370640Y3961654D03*
X5393640D03*
X5396640Y3908264D03*
Y3876654D03*
X5379810Y3864644D03*
Y3892394D03*
X5462810Y3962644D03*
X5585660Y3903394D03*
Y3871394D03*
Y3839394D03*
X5550640Y3845654D03*
X5565660Y3790394D03*
X5585660Y3783394D03*
Y3762394D03*
Y3742394D03*
Y3722394D03*
X5565660Y3717394D03*
X5550160Y3703394D03*
Y3735644D03*
X5565660Y3753894D03*
X5550160Y3769644D03*
X5595160Y3688644D03*
X5581660Y3672394D03*
X5567760Y3656294D03*
X5607160Y3585644D03*
Y3563444D03*
Y3541244D03*
Y3519044D03*
Y3496844D03*
Y3474644D03*
X5577660Y3467484D03*
X5578660Y3446484D03*
Y3424484D03*
X5546660Y3429484D03*
X5498660Y3429394D03*
X5476660D03*
X5453660D03*
X5405660Y3429484D03*
X5382660Y3429394D03*
X5360640Y3429654D03*
X5375660Y3334394D03*
X5339810Y3175644D03*
X5324090Y3161964D03*
X5408660Y3151484D03*
X5409090Y3124484D03*
X5594090Y3086964D03*
X5581050Y3023924D03*
X5544810Y3237644D03*
X5548810Y3271644D03*
X5568810Y3277644D03*
X5580660Y3294484D03*
X5601660Y3301484D03*
X5693660Y3528394D03*
Y3548394D03*
Y3568394D03*
X5693160Y3588394D03*
X5693660Y3608394D03*
Y3631394D03*
X5692660Y3701394D03*
Y3750394D03*
Y3771394D03*
Y3793394D03*
Y3816394D03*
X5707160Y3862144D03*
Y3883644D03*
Y3905144D03*
X5678160Y3891644D03*
X6029640Y3845964D03*
G54D12*
X6026220Y3761964D03*
X6134160Y3749644D03*
G54D11*
X6141160Y3733644D03*
X6125160D03*
G54D12*
X6131160Y3701644D03*
X6130060Y3684644D03*
G54D11*
X6146160Y3708644D03*
X6132160Y3776334D03*
X6134090Y3826964D03*
X6229090Y3891964D03*
X6244971Y3892371D03*
X6277160Y3896644D03*
X6299090Y3891964D03*
X6379090Y3900344D03*
Y3921964D03*
Y3946964D03*
X6415160Y3915644D03*
X6414160Y3897644D03*
X6443160Y3913644D03*
X6454160Y3926644D03*
G54D12*
X6428930Y4071804D03*
G54D11*
X6161660Y3988394D03*
Y3970394D03*
G54D12*
X5999660Y4070394D03*
X6033810Y3610644D03*
G54D11*
X6014640Y3560654D03*
X6064810Y3526644D03*
X6085310D03*
X6084810Y3507644D03*
X6105810D03*
Y3526644D03*
G54D12*
X6108660Y3568394D03*
X6109090Y3586394D03*
G54D11*
X6148302Y3570762D03*
G54D12*
X6164090Y3570644D03*
X6179994Y3570749D03*
X6195994D03*
G54D11*
X6164090Y3601964D03*
X6264160Y3582644D03*
G54D12*
X6257160Y3566644D03*
G54D11*
X6313260Y3563934D03*
X6312710Y3579964D03*
X6425640Y3599654D03*
X6453660Y3680484D03*
X6474950Y3677814D03*
X6469640Y3697654D03*
X6351640Y3450654D03*
X6231160Y3433644D03*
G54D12*
X6213160D03*
X6196160D03*
G54D11*
X6226160Y3361644D03*
X6245160D03*
X6253160Y3343644D03*
X6236160D03*
X6219160D03*
X6014640Y3462654D03*
G54D12*
X5823640Y3497654D03*
G54D11*
X5508660Y3562394D03*
X5224640Y3765124D03*
Y3785884D03*
Y3806654D03*
Y3837654D03*
Y3888654D03*
X5225640Y3912154D03*
Y3935654D03*
X5201810Y3924654D03*
Y3899654D03*
Y3874644D03*
X5143640Y3831654D03*
X5118640D03*
X5104160Y3802644D03*
G54D12*
Y3780644D03*
G54D11*
X5077640Y3784654D03*
G54D12*
X4955810Y3780644D03*
X4933810D03*
G54D11*
X5032640Y3912654D03*
X5062640Y3935654D03*
X5807640Y2999654D03*
X6325090Y3008494D03*
X6688810Y3387644D03*
X6689810Y3414644D03*
X6671640Y3428654D03*
X6725080Y3405094D03*
X6783640Y3434654D03*
X6787160Y3474644D03*
X6751640Y3536654D03*
X6709640Y3529654D03*
X6708640Y3504654D03*
G54D12*
X6868320Y3501124D03*
X6879110Y3642654D03*
X6878100Y3667654D03*
G54D11*
X6877100Y3696654D03*
X6889690Y3752024D03*
X6686640Y3700654D03*
X6646110Y3686654D03*
G54D12*
X6645640Y3719654D03*
X6615100Y3680654D03*
G54D11*
X6585640Y3694654D03*
X6580640Y3586654D03*
X6598640Y3567654D03*
X6562640Y3558654D03*
X6648640Y3615654D03*
X6869130Y4021144D03*
X6934640Y4013654D03*
G54D12*
X6496040Y2297654D03*
G54D10*
X6523810D03*
X6551570D03*
X6579340D03*
X6607110D03*
X6634870D03*
X6662640D03*
X6751640D03*
X6775640D03*
X6800640D03*
X6824640D03*
X6848640D03*
X6872640D03*
X6896640D03*
X6921640D03*
X6945640D03*
X6972640Y2284654D03*
Y2257654D03*
Y2233654D03*
X6998810D03*
X7024970D03*
X7051140D03*
X7077310D03*
X7103470D03*
X7129640D03*
X7161640Y2245654D03*
X7187640Y2259654D03*
X7211640Y2276654D03*
X7231640Y2295654D03*
X7244208Y2326268D03*
X7245640Y2354654D03*
X7246640Y2386654D03*
Y2413654D03*
Y2440654D03*
Y2467654D03*
Y2494654D03*
Y2521654D03*
Y2545654D03*
X7216640D03*
X7188160Y2545644D03*
X7162160D03*
X7139640Y2555654D03*
Y2580884D03*
Y2606114D03*
Y2631344D03*
Y2656574D03*
Y2681804D03*
Y2707034D03*
Y2732274D03*
Y2757504D03*
Y2782734D03*
Y2807964D03*
Y2833194D03*
Y2858424D03*
G54D12*
Y2883654D03*
G54D10*
X7130100Y2923654D03*
Y2946654D03*
X7155110Y2922654D03*
X7179110Y2909654D03*
X7202160Y2897644D03*
X7226160D03*
X7250160D03*
X7100640Y2871654D03*
X7076640D03*
X7052640D03*
X7028640D03*
X7004640D03*
X6980640D03*
Y2847654D03*
X6968640Y2825654D03*
Y2801654D03*
Y2776654D03*
X6972640Y2752654D03*
X6997640D03*
X7016640Y2735654D03*
Y2711154D03*
Y2686654D03*
X7041640D03*
X7054640Y2665654D03*
Y2640654D03*
Y2615654D03*
Y2590654D03*
Y2565654D03*
Y2540654D03*
Y2515654D03*
Y2490654D03*
Y2465654D03*
Y2440654D03*
Y2416654D03*
Y2391274D03*
X7027310D03*
X6999970D03*
X7000450Y2365624D03*
X6972640Y2365654D03*
Y2391274D03*
Y2338654D03*
Y2311654D03*
X7028910Y2465604D03*
X6976640Y2554654D03*
X6957160Y2537644D03*
X6931810Y2514644D03*
X6906810D03*
Y2487644D03*
X6770640Y2488654D03*
X6746640D03*
X6694160Y2488644D03*
X6670160D03*
X6646160D03*
G54D12*
X6645810Y2512644D03*
G54D10*
X6669810D03*
G54D12*
X6693810D03*
G54D10*
X6621160Y2488644D03*
X6589810Y2556644D03*
X6565080D03*
G54D12*
X6564810Y2580644D03*
X6588810D03*
G54D10*
X6540110Y2561654D03*
X6518110D03*
G54D12*
X6523640Y2596654D03*
X6544160Y2618644D03*
G54D10*
X6543640Y2669654D03*
Y2704654D03*
X6521810Y2748644D03*
X6543640Y2774654D03*
Y2809654D03*
X6551640Y2904644D03*
X6527160D03*
Y2930314D03*
X6551810D03*
X6527160Y2954984D03*
X6586160Y2904644D03*
X6610160D03*
X6636660D03*
Y2930314D03*
Y2957274D03*
Y2878654D03*
G54D12*
X6660160Y2864644D03*
X6683160D03*
G54D10*
X6873640Y2844654D03*
X6925640Y2856654D03*
Y2880654D03*
Y2905654D03*
X6910160Y2930644D03*
X6949160Y2929644D03*
X7010160Y2931644D03*
X7034160Y2930644D03*
X7058160D03*
G54D12*
X6933640Y2830654D03*
Y2805654D03*
G54D10*
X6919640Y2785654D03*
G54D12*
X6503640Y2318654D03*
G54D10*
X6486640Y2338654D03*
X6469640Y2297654D03*
X6443640D03*
X6423160Y2431644D03*
G54D12*
X6387640Y2503654D03*
G54D10*
X6386640Y2549654D03*
X6424640Y2566654D03*
X6441640Y2592654D03*
X6436160Y2872644D03*
Y2895644D03*
X6407640Y2847654D03*
X5988810Y2952644D03*
X5400460Y2929484D03*
X5246660Y2893194D03*
Y2867094D03*
Y2840994D03*
Y2814894D03*
Y2788794D03*
Y2762694D03*
Y2736594D03*
X5196560Y2659644D03*
X5170460D03*
X5144360D03*
X5118260D03*
X5092160D03*
X5066060D03*
X5039960D03*
X5013860D03*
X4988160D03*
X4975160Y2681394D03*
X4950660D03*
Y2709974D03*
X4975160D03*
Y2738564D03*
X4950660D03*
Y2767144D03*
X4975160D03*
Y2795724D03*
X4950660D03*
Y2824314D03*
X4975160D03*
Y2852894D03*
X4950660D03*
Y2881474D03*
X4975160D03*
Y2910064D03*
X4950660D03*
Y2938644D03*
X4975160D03*
X5005060D03*
X5034260D03*
X5063460D03*
X5090160D03*
G54D12*
X5669640Y2306654D03*
G54D10*
X6115640Y2403654D03*
X4273640Y2437654D03*
G54D12*
X4470160Y2638644D03*
X4277680Y3727574D03*
X4306680Y3757574D03*
X4336680Y3787574D03*
G54D10*
X5096030Y3361494D03*
G54D12*
X5384090Y3281964D03*
X5412660Y3285394D03*
G54D10*
X5699160Y3082644D03*
X6329660Y3211394D03*
X6407090Y3233484D03*
X6441090Y3237494D03*
X6449090Y3202484D03*
G54D12*
X6489660Y3218484D03*
G54D10*
X6433640Y3133654D03*
X6364090Y2969484D03*
G54D12*
X6451460Y3745484D03*
X6471460Y3746084D03*
X6694640Y3239654D03*
G54D10*
X6750960Y3251344D03*
X6749850Y3010654D03*
X6776450D03*
X6803050D03*
X6829660D03*
X6855640Y3018654D03*
X6855660Y2994394D03*
Y2967654D03*
X6855640Y3044654D03*
X6877640Y3059654D03*
X6968160Y3065644D03*
X6993640D03*
Y3040154D03*
Y3014654D03*
X6979640Y2992654D03*
X6980190Y2967654D03*
X7005100D03*
X7030010D03*
X7054920D03*
X7079820Y2968654D03*
X7104730Y2967654D03*
X7129640D03*
X6723240Y3010654D03*
X6696640D03*
X6660640D03*
X6636640D03*
X6636660Y2983464D03*
X6626160Y3034644D03*
X6600160D03*
X6575160D03*
X6543160Y2998644D03*
X6527160Y2979644D03*
X6822640Y2484654D03*
X6652640Y2804654D03*
X6549600Y2842924D03*
X7244810Y2932644D03*
Y2963644D03*
X6298810Y2653644D03*
Y2625644D03*
X6266810Y2624644D03*
Y2653644D03*
X6285160Y2239644D03*
X6314660D03*
X6344160D03*
X6244610Y2233644D03*
X6211520D03*
X6178420D03*
X6145330D03*
X6112230D03*
X6079140D03*
X6046040D03*
X6012950D03*
X5979850D03*
X5946760D03*
X5913660D03*
X5880570D03*
X5847470D03*
X5814380D03*
X5781280D03*
X5748190D03*
X5715090D03*
X5682000D03*
X5648900D03*
X5615810D03*
X5447810Y2232644D03*
X5417470D03*
X5387140D03*
X5356810D03*
X5181810Y2236644D03*
X5153810D03*
X5125810D03*
X5097810D03*
X4978770Y2281784D03*
X6087640Y2286654D03*
X6120060D03*
X6152480D03*
X6184900D03*
X5971090Y2419484D03*
X4926800Y2235364D03*
X4898460D03*
X4870130D03*
X4841800D03*
X4849640Y2285654D03*
X4668810Y2247644D03*
X4639810D03*
X4622640Y2279654D03*
X4477230Y2256934D03*
X4292640Y2567654D03*
X4249920Y2566934D03*
X4237640Y2542654D03*
X4092090Y2472494D03*
X3998160Y2312644D03*
X3961160D03*
X3820380Y2240634D03*
X3784810Y2249644D03*
X3757810Y2267644D03*
X3735810Y2288644D03*
X3722640Y2318654D03*
X3722620Y2349914D03*
Y2378914D03*
Y2407914D03*
Y2436914D03*
Y2465914D03*
X3845640Y2554654D03*
X3845620Y2585914D03*
Y2614914D03*
Y2643914D03*
Y2672914D03*
Y2701914D03*
X4756160Y2597644D03*
Y2570644D03*
X3989160Y3529654D03*
X3993090Y3561964D03*
X3956160Y3559644D03*
X4021660Y3576394D03*
X3991660Y3686394D03*
X4056900Y3729524D03*
X4057850Y3758154D03*
X3922660Y3750394D03*
X3813810Y3752444D03*
Y3785044D03*
Y3817644D03*
Y3719844D03*
Y3687244D03*
Y3654644D03*
X3731620Y3844654D03*
Y3875914D03*
Y3904914D03*
Y3933914D03*
Y3962914D03*
Y3991914D03*
X3817640Y4064674D03*
X3848900D03*
X3877900D03*
X3906900D03*
X3935900D03*
X3964900D03*
X4164640Y4073674D03*
X4195900D03*
X4224990Y4072779D03*
X4254258Y4073316D03*
X4205660Y3830394D03*
X3932160Y3483654D03*
X5092640Y3832654D03*
X5129640Y3870654D03*
X5387660Y3823394D03*
X5585660Y3806394D03*
X5716660Y3703394D03*
X5741640Y3901654D03*
X5969720Y3906164D03*
X5983810Y3104644D03*
X5904640Y3150654D03*
X6187660Y3098484D03*
X6430640Y3093654D03*
X6430810Y3065644D03*
X6460810D03*
X6460640Y3093654D03*
X6490640Y3094654D03*
Y3066654D03*
X6672640Y3091654D03*
X6702640D03*
X6611640Y3212654D03*
X6612640Y3240654D03*
X6605810Y3336654D03*
X6599640Y3371654D03*
X6570630D03*
X6538660Y3332484D03*
X6821640Y3285654D03*
X6913100Y3211654D03*
X6943100D03*
X6973100D03*
X7058810Y3155644D03*
Y3125644D03*
Y3095644D03*
Y3065644D03*
Y3035644D03*
X7129810Y2994644D03*
X7168140D03*
X7206470D03*
X7244810D03*
X7222640Y3426654D03*
X7125640Y3450654D03*
Y3494154D03*
Y3537654D03*
X7147810Y3798644D03*
X7178810Y3823644D03*
Y3852644D03*
Y3881644D03*
X7051640Y3945654D03*
X7053370Y4065674D03*
X7022560D03*
X6991750D03*
X6960940D03*
X6930130D03*
X6899320D03*
X6868510D03*
X6837700D03*
X6806880D03*
X6776070D03*
X6745260D03*
X6714450D03*
X6683640D03*
X6685030Y3932064D03*
X6715530D03*
X6766970Y4002324D03*
X6806640Y4005654D03*
X6821640Y3845654D03*
X6857260Y3801204D03*
X6875110Y3454654D03*
X6874810Y3426644D03*
X6875810Y3398644D03*
X7084180Y4065674D03*
X7114990D03*
X7145810D03*
X4122810Y3617644D03*
X4135810Y3637644D03*
G54D13*
X4759090Y2866964D03*
Y3006964D03*
X4792680Y3160484D03*
X4989460D03*
X4952460Y3109484D03*
X5099460Y3160484D03*
X5291460Y3273484D03*
X5283220Y3550034D03*
X5274510Y3634834D03*
X5384090Y3029484D03*
X5404090Y3014484D03*
G54D14*
X6885640Y2394654D03*
X7012640Y2540654D03*
X6171920Y2439794D03*
X5880090Y2297494D03*
X5832810Y2958644D03*
X5797810D03*
X5401160Y2762884D03*
X5130810Y2947644D03*
X5089090Y2446964D03*
X5016810Y2276644D03*
X4372810Y2261644D03*
X4330310D03*
X4287810D03*
Y2305644D03*
X4330310D03*
X4287810Y2348644D03*
X4399640Y2451654D03*
X4431640D03*
X4596160Y2677884D03*
X4076640Y2667654D03*
X3932640Y2856654D03*
X4112090Y2261964D03*
X4195000Y3676154D03*
X4221660Y3650974D03*
X4471090Y3803964D03*
X4495020Y3869214D03*
X4522640Y3843654D03*
X4585220Y3918534D03*
X4566660Y3946394D03*
X4560090Y4024964D03*
X4499160Y4012654D03*
X4787660Y4034394D03*
X3984660Y3855484D03*
X3946090Y3856964D03*
X5024640Y3981654D03*
X5063640D03*
Y4023654D03*
X5023640D03*
X5567640Y3955654D03*
X5804120Y3923654D03*
X5804640Y3888654D03*
X5940160Y3875644D03*
X5974160Y3874644D03*
X6027160Y3886644D03*
X6028660Y3927394D03*
X6060660D03*
X6144090Y3929484D03*
X5941160Y3910644D03*
X5871640Y3756654D03*
X5861810Y3672644D03*
X5896810Y3673644D03*
X5897810Y3636644D03*
X5862810D03*
X5773640Y3680654D03*
X5598640Y3243654D03*
X5423660Y2967884D03*
X5391660Y2967394D03*
X5130810Y2988644D03*
X5129810Y3031644D03*
X5199400Y3116644D03*
X5903640Y3079654D03*
X6104810Y3065644D03*
X6140810D03*
X6129160Y3312644D03*
X6099160Y3313644D03*
X6059640Y3270654D03*
X6364090Y3249484D03*
X6507640Y3285654D03*
X6635660Y3989484D03*
G54D15*
X4035460Y2436134D03*
X4127950Y2402474D03*
X4220440Y2368804D03*
G54D16*
X3736220Y2547234D03*
Y3759834D03*
X5988180Y3385824D03*
X7216530Y3759834D03*
G54D17*
X5107680Y2795574D03*
G54D18*
X6289090Y3736964D03*
G54D10*
X6745780Y4645155D03*
X6789090D03*
X6832400D03*
Y4688465D03*
X6789090D03*
Y4731765D03*
X6832400D03*
X6745780D03*
Y4688465D03*
G54D11*
X6512640Y4398155D03*
X6524640Y4463155D03*
X6692810Y4533145D03*
X6691810Y4551145D03*
G54D12*
X6745810Y4550145D03*
G54D11*
X6752640Y4514155D03*
X6773640D03*
X6662640Y4698155D03*
X6917810Y4695645D03*
Y4714145D03*
Y4677145D03*
X6899810Y4777145D03*
Y4799145D03*
X6818090Y4817985D03*
X6801090Y4827985D03*
X6290030Y4455935D03*
X6307620Y4437455D03*
X6270350Y4472725D03*
X6120090Y4465985D03*
Y4441995D03*
X6119090Y4420465D03*
Y4489995D03*
X6146810Y4543145D03*
X5999090Y4546985D03*
X5982090Y4567985D03*
X5965090Y4582995D03*
X6014090Y4523985D03*
X6014640Y4405155D03*
X6034090Y4392995D03*
X6053810Y4379265D03*
X6073500Y4368575D03*
X6194090Y4375465D03*
X5979270Y4420785D03*
X5896090Y4419995D03*
G54D12*
X5914810Y4395145D03*
Y4373145D03*
G54D11*
X5860810Y4404145D03*
X5838810D03*
X5800640Y4400155D03*
X5761460Y4461985D03*
X5758460Y4488985D03*
X5742460Y4503985D03*
X5729460Y4519985D03*
X5710460Y4535985D03*
X5692460Y4550985D03*
X5676600Y4582975D03*
X5662660Y4598895D03*
X5649090Y4615465D03*
X5629090Y4630465D03*
X5614090Y4645465D03*
X5599090Y4660465D03*
X5589090Y4680465D03*
X5594090Y4785465D03*
X5428160Y4774155D03*
X5410160Y4791155D03*
X5391160Y4800155D03*
X5432090Y4830465D03*
X5414460Y4427465D03*
X5383460D03*
X5351460D03*
X5367460Y4405465D03*
X5399460D03*
X5430460D03*
X5454090D03*
G54D12*
X5475810Y4429145D03*
Y4451145D03*
G54D11*
X5594090Y4436725D03*
Y4415465D03*
G54D12*
X5618810Y4428145D03*
G54D11*
X5603090Y4457615D03*
X5594460Y4566985D03*
X5634460D03*
G54D12*
X5728810Y4443145D03*
X5729810Y4256145D03*
X5752140D03*
X5774470D03*
X5796810D03*
G54D11*
X5850090Y4585985D03*
X5867090Y4598995D03*
X5814090Y4630465D03*
X5794640Y4650155D03*
X5788660Y4673845D03*
X5978090Y4699255D03*
X5859090Y4898255D03*
X5255160Y4420155D03*
X5232160D03*
X5210460Y4405465D03*
X5178460D03*
X5164090Y4427465D03*
X5144090D03*
X5124090D03*
X5194460D03*
X5055660Y4405465D03*
X5032660D03*
X5005460D03*
X4989090Y4420465D03*
X4974090Y4405465D03*
X4953660Y4415985D03*
X5068160Y4269145D03*
X5048090Y4230995D03*
X5115160Y4292145D03*
X5146160D03*
X5225790Y4260885D03*
X5241540Y4274885D03*
X5257290Y4288885D03*
X5267090Y4236995D03*
X5288780Y4238155D03*
X5320280Y4288885D03*
X4843460Y4402985D03*
X4818460D03*
X4800660Y4620985D03*
X4779090Y4660465D03*
X4636090Y4586785D03*
X4598640Y4552155D03*
X4599090Y4487605D03*
G54D12*
X4409160Y4684155D03*
X4378160Y4683155D03*
X4348160Y4681155D03*
G54D11*
X4519090Y4805465D03*
G54D12*
X4107810Y4744145D03*
X4081060D03*
X4054310D03*
G54D11*
X4053160Y4721145D03*
G54D12*
X4027560Y4744145D03*
X3964160Y4700155D03*
X3983160Y4678155D03*
X4008160Y4644155D03*
G54D11*
X3876680Y4700675D03*
X3891160Y4719155D03*
X3904160Y4737155D03*
G54D12*
X3849160Y4902155D03*
Y4926155D03*
G54D11*
X3779160Y4920155D03*
G54D12*
X3724160Y4928155D03*
Y4904155D03*
Y4879615D03*
X3849160Y4950695D03*
G54D11*
X3838160Y5093155D03*
G54D12*
X3851160Y5128155D03*
Y5152155D03*
Y5176695D03*
Y5201235D03*
G54D11*
X3806160Y5237155D03*
G54D12*
X3770160Y5240155D03*
X3746160D03*
X3721620D03*
X3717160Y5167235D03*
Y5142695D03*
Y5118155D03*
Y5094155D03*
G54D11*
X3888160Y5255155D03*
X3914090Y5317985D03*
X3923680Y5341075D03*
X3953680Y5371075D03*
X3983680Y5401075D03*
X4098680D03*
G54D12*
X4067680Y5438075D03*
X4101680Y5470075D03*
X4131680Y5500075D03*
G54D11*
X4148660Y5543895D03*
X4190560Y5593195D03*
X4282680Y5601075D03*
G54D12*
X4280680Y5638075D03*
X4310680Y5667075D03*
X4339680Y5697075D03*
X4370680Y5727075D03*
G54D11*
X4369680Y5788075D03*
G54D12*
X4303810Y5803145D03*
X4281140D03*
Y5781145D03*
X4258470D03*
Y5803145D03*
G54D11*
X4243160Y5928145D03*
Y5973145D03*
X4399660Y5957895D03*
Y5922895D03*
G54D12*
X4447870Y5744635D03*
G54D11*
X4471530Y5740115D03*
G54D12*
X4493720Y5740015D03*
X4616810Y5749145D03*
X4647310D03*
X4677810D03*
X4867810D03*
X4889810D03*
X4911810D03*
G54D11*
X4924090Y5355465D03*
X4870460Y5317985D03*
X4755680Y5235075D03*
X4900660Y5104895D03*
X4519460Y4974985D03*
X4341110Y5092155D03*
X4351080Y5126685D03*
X4373360Y5148955D03*
X4395620Y5171225D03*
X4404460Y5230295D03*
X4484710Y5260315D03*
X4508680Y5281075D03*
X4529250Y5304855D03*
X4551360Y5327295D03*
X4573790Y5349395D03*
X4596070Y5371665D03*
X4618330Y5393935D03*
X4639750Y5417065D03*
X4624100Y5451925D03*
X4491680Y5409075D03*
X4516000Y5383525D03*
X4470040Y5340075D03*
X4433680Y5355075D03*
X4364270Y5308075D03*
X4317060Y5310455D03*
X4321100Y5288825D03*
X4314480Y5408275D03*
X4293260Y5429485D03*
X4291210Y5385115D03*
X4248560Y5345195D03*
X4169520Y5352795D03*
X4190730Y5376115D03*
X4147270Y5330495D03*
X4126460Y5306985D03*
X4102340Y5286335D03*
G54D12*
X4057680Y5328075D03*
X4026680Y5298075D03*
X3997680Y5268075D03*
X3969680Y5235075D03*
X3963680Y5206075D03*
X3848160Y5341155D03*
Y5365155D03*
Y5389695D03*
Y5414235D03*
Y5438235D03*
Y5462765D03*
Y5487305D03*
Y5511305D03*
Y5535845D03*
Y5560385D03*
G54D11*
X4246680Y5666075D03*
X4268680Y5466075D03*
X4303500Y5486055D03*
X4325080Y5509025D03*
X4346640Y5532015D03*
X4369960Y5553225D03*
X4386190Y5572305D03*
X4422915Y5607221D03*
X4457680Y5630075D03*
X4468190Y5563455D03*
X4491460Y5541295D03*
X4428720Y5520735D03*
X4402460Y5494985D03*
X4306540Y5082145D03*
G54D12*
X5139090Y5070465D03*
G54D11*
X5209090Y5240465D03*
X5228660Y5246985D03*
X5227640Y5305155D03*
X5210640Y5290155D03*
X5210810Y5355145D03*
X5235640Y5351155D03*
X5288640Y5397155D03*
G54D12*
X5280680Y5436075D03*
X5280640Y5478035D03*
X5280550Y5562205D03*
G54D11*
X5386640Y5545155D03*
X5418640Y5530365D03*
X5454190D03*
X5469660Y5545895D03*
G54D12*
X5466160Y5572145D03*
G54D11*
X5408640Y5579155D03*
X5386160Y5626145D03*
X5399160Y5642145D03*
X5386160Y5659145D03*
X5366160Y5668145D03*
X5399160Y5676895D03*
X5379810Y5766145D03*
X5329810Y5773155D03*
Y5733625D03*
Y5818145D03*
Y5838655D03*
Y5859155D03*
Y5897995D03*
X5370640Y5930155D03*
X5393640D03*
X5396640Y5876765D03*
Y5845155D03*
X5379810Y5833145D03*
Y5860895D03*
X5462810Y5931145D03*
X5585660Y5871895D03*
Y5839895D03*
Y5807895D03*
X5550640Y5814155D03*
X5565660Y5758895D03*
X5585660Y5751895D03*
Y5730895D03*
Y5710895D03*
Y5690895D03*
X5565660Y5685895D03*
X5550160Y5671895D03*
Y5704145D03*
X5565660Y5722395D03*
X5550160Y5738145D03*
X5595160Y5657145D03*
X5581660Y5640895D03*
X5567760Y5624795D03*
X5607160Y5554145D03*
Y5531945D03*
Y5509745D03*
Y5487545D03*
Y5465345D03*
Y5443145D03*
X5577660Y5435985D03*
X5578660Y5414985D03*
Y5392985D03*
X5546660Y5397985D03*
X5498660Y5397895D03*
X5476660D03*
X5453660D03*
X5405660Y5397985D03*
X5382660Y5397895D03*
X5360640Y5398155D03*
X5375660Y5302895D03*
X5339810Y5144145D03*
X5324090Y5130465D03*
X5408660Y5119985D03*
X5409090Y5092985D03*
X5594090Y5055465D03*
X5581050Y4992425D03*
X5544810Y5206145D03*
X5548810Y5240145D03*
X5568810Y5246145D03*
X5580660Y5262985D03*
X5601660Y5269985D03*
X5693660Y5496895D03*
Y5516895D03*
Y5536895D03*
X5693160Y5556895D03*
X5693660Y5576895D03*
Y5599895D03*
X5692660Y5669895D03*
Y5718895D03*
Y5739895D03*
Y5761895D03*
Y5784895D03*
X5707160Y5830645D03*
Y5852145D03*
Y5873645D03*
X5678160Y5860145D03*
X6029640Y5814465D03*
G54D12*
X6026220Y5730465D03*
X6134160Y5718145D03*
G54D11*
X6141160Y5702145D03*
X6125160D03*
G54D12*
X6131160Y5670145D03*
X6130060Y5653145D03*
G54D11*
X6146160Y5677145D03*
X6132160Y5744835D03*
X6134090Y5795465D03*
X6229090Y5860465D03*
X6244971Y5860871D03*
X6277160Y5865145D03*
X6299090Y5860465D03*
X6379090Y5868845D03*
Y5890465D03*
Y5915465D03*
X6415160Y5884145D03*
X6414160Y5866145D03*
X6443160Y5882145D03*
X6454160Y5895145D03*
G54D12*
X6428930Y6040305D03*
G54D11*
X6161660Y5956895D03*
Y5938895D03*
G54D12*
X5999660Y6038895D03*
X6033810Y5579145D03*
G54D11*
X6014640Y5529155D03*
X6064810Y5495145D03*
X6085310D03*
X6084810Y5476145D03*
X6105810D03*
Y5495145D03*
G54D12*
X6108660Y5536895D03*
X6109090Y5554895D03*
G54D11*
X6148302Y5539262D03*
G54D12*
X6164090Y5539145D03*
X6179994Y5539249D03*
X6195994D03*
G54D11*
X6164090Y5570465D03*
X6264160Y5551145D03*
G54D12*
X6257160Y5535145D03*
G54D11*
X6313260Y5532435D03*
X6312710Y5548465D03*
X6425640Y5568155D03*
X6453660Y5648985D03*
X6474950Y5646315D03*
X6469640Y5666155D03*
X6351640Y5419155D03*
X6231160Y5402145D03*
G54D12*
X6213160D03*
X6196160D03*
G54D11*
X6226160Y5330145D03*
X6245160D03*
X6253160Y5312145D03*
X6236160D03*
X6219160D03*
X6014640Y5431155D03*
G54D12*
X5823640Y5466155D03*
G54D11*
X5508660Y5530895D03*
X5224640Y5733625D03*
Y5754385D03*
Y5775155D03*
Y5806155D03*
Y5857155D03*
X5225640Y5880655D03*
Y5904155D03*
X5201810Y5893155D03*
Y5868155D03*
Y5843145D03*
X5143640Y5800155D03*
X5118640D03*
X5104160Y5771145D03*
G54D12*
Y5749145D03*
G54D11*
X5077640Y5753155D03*
G54D12*
X4955810Y5749145D03*
X4933810D03*
G54D11*
X5032640Y5881155D03*
X5062640Y5904155D03*
X5807640Y4968155D03*
X6325090Y4976995D03*
X6688810Y5356145D03*
X6689810Y5383145D03*
X6671640Y5397155D03*
X6725080Y5373595D03*
X6783640Y5403155D03*
X6787160Y5443145D03*
X6751640Y5505155D03*
X6709640Y5498155D03*
X6708640Y5473155D03*
G54D12*
X6868320Y5469625D03*
X6879110Y5611155D03*
X6878100Y5636155D03*
G54D11*
X6877100Y5665155D03*
X6889690Y5720525D03*
X6686640Y5669155D03*
X6646110Y5655155D03*
G54D12*
X6645640Y5688155D03*
X6615100Y5649155D03*
G54D11*
X6585640Y5663155D03*
X6580640Y5555155D03*
X6598640Y5536155D03*
X6562640Y5527155D03*
X6648640Y5584155D03*
X6869130Y5989645D03*
X6934640Y5982155D03*
G54D12*
X6496040Y4266155D03*
G54D10*
X6523810D03*
X6551570D03*
X6579340D03*
X6607110D03*
X6634870D03*
X6662640D03*
X6751640D03*
X6775640D03*
X6800640D03*
X6824640D03*
X6848640D03*
X6872640D03*
X6896640D03*
X6921640D03*
X6945640D03*
X6972640Y4253155D03*
Y4226155D03*
Y4202155D03*
X6998810D03*
X7024970D03*
X7051140D03*
X7077310D03*
X7103470D03*
X7129640D03*
X7161640Y4214155D03*
X7187640Y4228155D03*
X7211640Y4245155D03*
X7231640Y4264155D03*
X7244208Y4294769D03*
X7245640Y4323155D03*
X7246640Y4355155D03*
Y4382155D03*
Y4409155D03*
Y4436155D03*
Y4463155D03*
Y4490155D03*
Y4514155D03*
X7216640D03*
X7188160Y4514145D03*
X7162160D03*
X7139640Y4524155D03*
Y4549385D03*
Y4574615D03*
Y4599845D03*
Y4625075D03*
Y4650305D03*
Y4675535D03*
Y4700775D03*
Y4726005D03*
Y4751235D03*
Y4776465D03*
Y4801695D03*
Y4826925D03*
G54D12*
Y4852155D03*
G54D10*
X7130100Y4892155D03*
Y4915155D03*
X7155110Y4891155D03*
X7179110Y4878155D03*
X7202160Y4866145D03*
X7226160D03*
X7250160D03*
X7100640Y4840155D03*
X7076640D03*
X7052640D03*
X7028640D03*
X7004640D03*
X6980640D03*
Y4816155D03*
X6968640Y4794155D03*
Y4770155D03*
Y4745155D03*
X6972640Y4721155D03*
X6997640D03*
X7016640Y4704155D03*
Y4679655D03*
Y4655155D03*
X7041640D03*
X7054640Y4634155D03*
Y4609155D03*
Y4584155D03*
Y4559155D03*
Y4534155D03*
Y4509155D03*
Y4484155D03*
Y4459155D03*
Y4434155D03*
Y4409155D03*
Y4385155D03*
Y4359775D03*
X7027310D03*
X6999970D03*
X7000450Y4334125D03*
X6972640Y4334155D03*
Y4359775D03*
Y4307155D03*
Y4280155D03*
X7028910Y4434105D03*
X6976640Y4523155D03*
X6957160Y4506145D03*
X6931810Y4483145D03*
X6906810D03*
Y4456145D03*
X6770640Y4457155D03*
X6746640D03*
X6694160Y4457145D03*
X6670160D03*
X6646160D03*
G54D12*
X6645810Y4481145D03*
G54D10*
X6669810D03*
G54D12*
X6693810D03*
G54D10*
X6621160Y4457145D03*
X6589810Y4525145D03*
X6565080D03*
G54D12*
X6564810Y4549145D03*
X6588810D03*
G54D10*
X6540110Y4530155D03*
X6518110D03*
G54D12*
X6523640Y4565155D03*
X6544160Y4587145D03*
G54D10*
X6543640Y4638155D03*
Y4673155D03*
X6521810Y4717145D03*
X6543640Y4743155D03*
Y4778155D03*
X6551640Y4873145D03*
X6527160D03*
Y4898815D03*
X6551810D03*
X6527160Y4923485D03*
X6586160Y4873145D03*
X6610160D03*
X6636660D03*
Y4898815D03*
Y4925775D03*
Y4847155D03*
G54D12*
X6660160Y4833145D03*
X6683160D03*
G54D10*
X6873640Y4813155D03*
X6925640Y4825155D03*
Y4849155D03*
Y4874155D03*
X6910160Y4899145D03*
X6949160Y4898145D03*
X7010160Y4900145D03*
X7034160Y4899145D03*
X7058160D03*
G54D12*
X6933640Y4799155D03*
Y4774155D03*
G54D10*
X6919640Y4754155D03*
G54D12*
X6503640Y4287155D03*
G54D10*
X6486640Y4307155D03*
X6469640Y4266155D03*
X6443640D03*
X6423160Y4400145D03*
G54D12*
X6387640Y4472155D03*
G54D10*
X6386640Y4518155D03*
X6424640Y4535155D03*
X6441640Y4561155D03*
X6436160Y4841145D03*
Y4864145D03*
X6407640Y4816155D03*
X5988810Y4921145D03*
X5400460Y4897985D03*
X5246660Y4861695D03*
Y4835595D03*
Y4809495D03*
Y4783395D03*
Y4757295D03*
Y4731195D03*
Y4705095D03*
X5196560Y4628145D03*
X5170460D03*
X5144360D03*
X5118260D03*
X5092160D03*
X5066060D03*
X5039960D03*
X5013860D03*
X4988160D03*
X4975160Y4649895D03*
X4950660D03*
Y4678475D03*
X4975160D03*
Y4707065D03*
X4950660D03*
Y4735645D03*
X4975160D03*
Y4764225D03*
X4950660D03*
Y4792815D03*
X4975160D03*
Y4821395D03*
X4950660D03*
Y4849975D03*
X4975160D03*
Y4878565D03*
X4950660D03*
Y4907145D03*
X4975160D03*
X5005060D03*
X5034260D03*
X5063460D03*
X5090160D03*
G54D12*
X5669640Y4275155D03*
G54D10*
X6115640Y4372155D03*
X4273640Y4406155D03*
G54D12*
X4470160Y4607145D03*
X4277680Y5696075D03*
X4306680Y5726075D03*
X4336680Y5756075D03*
G54D10*
X5096030Y5329995D03*
G54D12*
X5384090Y5250465D03*
X5412660Y5253895D03*
G54D10*
X5699160Y5051145D03*
X6329660Y5179895D03*
X6407090Y5201985D03*
X6441090Y5205995D03*
X6449090Y5170985D03*
G54D12*
X6489660Y5186985D03*
G54D10*
X6433640Y5102155D03*
X6364090Y4937985D03*
G54D12*
X6451460Y5713985D03*
X6471460Y5714585D03*
X6694640Y5208155D03*
G54D10*
X6750960Y5219845D03*
X6749850Y4979155D03*
X6776450D03*
X6803050D03*
X6829660D03*
X6855640Y4987155D03*
X6855660Y4962895D03*
Y4936155D03*
X6855640Y5013155D03*
X6877640Y5028155D03*
X6968160Y5034145D03*
X6993640D03*
Y5008655D03*
Y4983155D03*
X6979640Y4961155D03*
X6980190Y4936155D03*
X7005100D03*
X7030010D03*
X7054920D03*
X7079820Y4937155D03*
X7104730Y4936155D03*
X7129640D03*
X6723240Y4979155D03*
X6696640D03*
X6660640D03*
X6636640D03*
X6636660Y4951965D03*
X6626160Y5003145D03*
X6600160D03*
X6575160D03*
X6543160Y4967145D03*
X6527160Y4948145D03*
X6822640Y4453155D03*
X6652640Y4773155D03*
X6549600Y4811425D03*
X7244810Y4901145D03*
Y4932145D03*
X6298810Y4622145D03*
Y4594145D03*
X6266810Y4593145D03*
Y4622145D03*
X6285160Y4208145D03*
X6314660D03*
X6344160D03*
X6244610Y4202145D03*
X6211520D03*
X6178420D03*
X6145330D03*
X6112230D03*
X6079140D03*
X6046040D03*
X6012950D03*
X5979850D03*
X5946760D03*
X5913660D03*
X5880570D03*
X5847470D03*
X5814380D03*
X5781280D03*
X5748190D03*
X5715090D03*
X5682000D03*
X5648900D03*
X5615810D03*
X5447810Y4201145D03*
X5417470D03*
X5387140D03*
X5356810D03*
X5181810Y4205145D03*
X5153810D03*
X5125810D03*
X5097810D03*
X4978770Y4250285D03*
X6087640Y4255155D03*
X6120060D03*
X6152480D03*
X6184900D03*
X5971090Y4387985D03*
X4926800Y4203865D03*
X4898460D03*
X4870130D03*
X4841800D03*
X4849640Y4254155D03*
X4668810Y4216145D03*
X4639810D03*
X4622640Y4248155D03*
X4477230Y4225435D03*
X4292640Y4536155D03*
X4249920Y4535435D03*
X4237640Y4511155D03*
X4092090Y4440995D03*
X3998160Y4281145D03*
X3961160D03*
X3820380Y4209135D03*
X3784810Y4218145D03*
X3757810Y4236145D03*
X3735810Y4257145D03*
X3722640Y4287155D03*
X3722620Y4318415D03*
Y4347415D03*
Y4376415D03*
Y4405415D03*
Y4434415D03*
X3845640Y4523155D03*
X3845620Y4554415D03*
Y4583415D03*
Y4612415D03*
Y4641415D03*
Y4670415D03*
X4756160Y4566145D03*
Y4539145D03*
X3989160Y5498155D03*
X3993090Y5530465D03*
X3956160Y5528145D03*
X4021660Y5544895D03*
X3991660Y5654895D03*
X4056900Y5698025D03*
X4057850Y5726655D03*
X3922660Y5718895D03*
X3813810Y5720945D03*
Y5753545D03*
Y5786145D03*
Y5688345D03*
Y5655745D03*
Y5623145D03*
X3731620Y5813155D03*
Y5844415D03*
Y5873415D03*
Y5902415D03*
Y5931415D03*
Y5960415D03*
X3817640Y6033175D03*
X3848900D03*
X3877900D03*
X3906900D03*
X3935900D03*
X3964900D03*
X4164640Y6042175D03*
X4195900D03*
X4224990Y6041279D03*
X4254258Y6041816D03*
X4205660Y5798895D03*
X3932160Y5452155D03*
X5092640Y5801155D03*
X5129640Y5839155D03*
X5387660Y5791895D03*
X5585660Y5774895D03*
X5716660Y5671895D03*
X5741640Y5870155D03*
X5969720Y5874665D03*
X5983810Y5073145D03*
X5904640Y5119155D03*
X6187660Y5066985D03*
X6430640Y5062155D03*
X6430810Y5034145D03*
X6460810D03*
X6460640Y5062155D03*
X6490640Y5063155D03*
Y5035155D03*
X6672640Y5060155D03*
X6702640D03*
X6611640Y5181155D03*
X6612640Y5209155D03*
X6605810Y5305155D03*
X6599640Y5340155D03*
X6570630D03*
X6538660Y5300985D03*
X6821640Y5254155D03*
X6913100Y5180155D03*
X6943100D03*
X6973100D03*
X7058810Y5124145D03*
Y5094145D03*
Y5064145D03*
Y5034145D03*
Y5004145D03*
X7129810Y4963145D03*
X7168140D03*
X7206470D03*
X7244810D03*
X7222640Y5395155D03*
X7125640Y5419155D03*
Y5462655D03*
Y5506155D03*
X7147810Y5767145D03*
X7178810Y5792145D03*
Y5821145D03*
Y5850145D03*
X7051640Y5914155D03*
X7053370Y6034175D03*
X7022560D03*
X6991750D03*
X6960940D03*
X6930130D03*
X6899320D03*
X6868510D03*
X6837700D03*
X6806880D03*
X6776070D03*
X6745260D03*
X6714450D03*
X6683640D03*
X6685030Y5900565D03*
X6715530D03*
X6766970Y5970825D03*
X6806640Y5974155D03*
X6821640Y5814155D03*
X6857260Y5769705D03*
X6875110Y5423155D03*
X6874810Y5395145D03*
X6875810Y5367145D03*
X7084180Y6034175D03*
X7114990D03*
X7145810D03*
X4122810Y5586145D03*
X4135810Y5606145D03*
G54D13*
X4759090Y4835465D03*
Y4975465D03*
X4792680Y5128985D03*
X4989460D03*
X4952460Y5077985D03*
X5099460Y5128985D03*
X5291460Y5241985D03*
X5283220Y5518535D03*
X5274510Y5603335D03*
X5384090Y4997985D03*
X5404090Y4982985D03*
G54D14*
X6885640Y4363155D03*
X7012640Y4509155D03*
X6171920Y4408295D03*
X5880090Y4265995D03*
X5832810Y4927145D03*
X5797810D03*
X5401160Y4731385D03*
X5130810Y4916145D03*
X5089090Y4415465D03*
X5016810Y4245145D03*
X4372810Y4230145D03*
X4330310D03*
X4287810D03*
Y4274145D03*
X4330310D03*
X4287810Y4317145D03*
X4399640Y4420155D03*
X4431640D03*
X4596160Y4646385D03*
X4076640Y4636155D03*
X3932640Y4825155D03*
X4112090Y4230465D03*
X4195000Y5644655D03*
X4221660Y5619475D03*
X4471090Y5772465D03*
X4495020Y5837715D03*
X4522640Y5812155D03*
X4585220Y5887035D03*
X4566660Y5914895D03*
X4560090Y5993465D03*
X4499160Y5981155D03*
X4787660Y6002895D03*
X3984660Y5823985D03*
X3946090Y5825465D03*
X5024640Y5950155D03*
X5063640D03*
Y5992155D03*
X5023640D03*
X5567640Y5924155D03*
X5804120Y5892155D03*
X5804640Y5857155D03*
X5940160Y5844145D03*
X5974160Y5843145D03*
X6027160Y5855145D03*
X6028660Y5895895D03*
X6060660D03*
X6144090Y5897985D03*
X5941160Y5879145D03*
X5871640Y5725155D03*
X5861810Y5641145D03*
X5896810Y5642145D03*
X5897810Y5605145D03*
X5862810D03*
X5773640Y5649155D03*
X5598640Y5212155D03*
X5423660Y4936385D03*
X5391660Y4935895D03*
X5130810Y4957145D03*
X5129810Y5000145D03*
X5199400Y5085145D03*
X5903640Y5048155D03*
X6104810Y5034145D03*
X6140810D03*
X6129160Y5281145D03*
X6099160Y5282145D03*
X6059640Y5239155D03*
X6364090Y5217985D03*
X6507640Y5254155D03*
X6635660Y5957985D03*
G54D15*
X4035460Y4404635D03*
X4127950Y4370975D03*
X4220440Y4337305D03*
G54D16*
X3736220Y4515735D03*
Y5728335D03*
X5988180Y5354325D03*
X7216530Y5728335D03*
G54D17*
X5107680Y4764075D03*
G54D18*
X6289090Y5705465D03*
G54D19*
X196850Y6226378D03*
X7078735D03*
X393701Y80709D03*
X7078735D03*
G54D20*
X565886Y6079901D03*
X788435Y6079646D03*
X1432027Y6079901D03*
X1654577Y6079646D03*
X2199271Y6079901D03*
X2421820Y6079646D03*
X2199271Y4111397D03*
X2421820Y4111142D03*
X1432027Y4111397D03*
X1654577Y4111142D03*
X565886Y4111397D03*
X788435Y4111142D03*
G54D20*
X2199271Y4164193D03*
G54D20*
X2421820Y4164448D03*
G54D20*
X1432027Y4164193D03*
G54D20*
X1654577Y4164448D03*
G54D20*
X565886Y4164193D03*
G54D20*
X788435Y4164448D03*
G54D20*
X2199271Y2195689D03*
G54D20*
X2421820Y2195944D03*
G54D20*
X1432027Y2195689D03*
G54D20*
X1654577Y2195944D03*
G54D20*
X565886Y2195689D03*
G54D20*
X788435Y2195944D03*
X2199271Y2142893D03*
X2421820Y2142638D03*
X1432027Y2142893D03*
X1654577Y2142638D03*
X565886Y2142893D03*
X788435Y2142638D03*
G54D20*
X2199271Y227185D03*
G54D20*
X2421820Y227440D03*
G54D20*
X1432027Y227185D03*
G54D20*
X1654577Y227440D03*
G54D20*
X565886Y227185D03*
G54D20*
X788435Y227440D03*
X4243051Y6079901D03*
X4465600Y6079646D03*
X5109193Y6079901D03*
X5331742Y6079646D03*
X5876436Y6079901D03*
X6098985Y6079646D03*
X5876436Y4111397D03*
X6098985Y4111142D03*
X5109193Y4111397D03*
X5331742Y4111142D03*
X4243051Y4111397D03*
X4465600Y4111142D03*
G54D20*
X5876436Y4164193D03*
G54D20*
X6098985Y4164448D03*
G54D20*
X5109193Y4164193D03*
G54D20*
X5331742Y4164448D03*
G54D20*
X4243051Y4164193D03*
G54D20*
X4465600Y4164448D03*
G54D20*
X5876436Y2195689D03*
G54D20*
X6098985Y2195944D03*
G54D20*
X5109193Y2195689D03*
G54D20*
X5331742Y2195944D03*
G54D20*
X4243051Y2195689D03*
G54D20*
X4465600Y2195944D03*
X5876436Y2142893D03*
X6098985Y2142638D03*
X5109193Y2142893D03*
X5331742Y2142638D03*
X4243051Y2142893D03*
X4465600Y2142638D03*
G54D20*
X5876436Y227185D03*
G54D20*
X6098985Y227440D03*
G54D20*
X5109193Y227185D03*
G54D20*
X5331742Y227440D03*
G54D20*
X4243051Y227185D03*
G54D20*
X4465600Y227440D03*
X3610571Y5897955D03*
X3665061Y5897955D03*
X3664892Y5724092D03*
X3610554Y5724007D03*
X3610571Y4542444D03*
X3665061Y4542444D03*
X3664892Y4368582D03*
X3610554Y4368497D03*
X3610571Y3929455D03*
X3665061Y3929454D03*
X3664892Y3755592D03*
X3610554Y3755507D03*
X3610571Y2573944D03*
X3665061Y2573944D03*
X3664892Y2400082D03*
X3610554Y2399997D03*
X3610571Y1960954D03*
X3665061Y1960954D03*
X3664892Y1787092D03*
X3610554Y1787007D03*
X3610571Y605444D03*
X3665061Y605444D03*
X3664892Y431581D03*
X3610554Y431497D03*
M02*
